<?xml version="1.0" encoding="UTF-8" standalone="no"?>
<!DOCTYPE svg PUBLIC "-//W3C//DTD SVG 1.1//EN"
 "http://www.w3.org/Graphics/SVG/1.1/DTD/svg11.dtd">
<!-- Generated by graphviz version 2.40.1 (20161225.0304)
 -->
<!-- Title: src/Application.hpp Pages: 1 -->
<!--zoomable 364 -->
<svg id="main" version="1.1" xmlns="http://www.w3.org/2000/svg" xmlns:xlink="http://www.w3.org/1999/xlink" xml:space="preserve" onload="init(evt)">
<style type="text/css"><![CDATA[
.edge:hover path { stroke: red; }
.edge:hover polygon { stroke: red; fill: red; }
]]></style>
<script type="text/javascript"><![CDATA[
var edges = document.getElementsByTagName('g');
if (edges && edges.length) {
  for (var i=0;i<edges.length;i++) {
    if (edges[i].id.substr(0,4)=='edge') {
      edges[i].setAttribute('class','edge');
    }
  }
}
]]></script>
        <defs>
                <circle id="rim" cx="0" cy="0" r="7"/>
                <circle id="rim2" cx="0" cy="0" r="3.5"/>
                <g id="zoomPlus">
                        <use xlink:href="#rim" fill="#404040">
                                <set attributeName="fill" to="#808080" begin="zoomplus.mouseover" end="zoomplus.mouseout"/>
                        </use>
                        <path d="M-4,0h8M0,-4v8" fill="none" stroke="white" stroke-width="1.5" pointer-events="none"/>
                </g>
                <g id="zoomMin">
                        <use xlink:href="#rim" fill="#404040">
                                <set attributeName="fill" to="#808080" begin="zoomminus.mouseover" end="zoomminus.mouseout"/>
                        </use>
                        <path d="M-4,0h8" fill="none" stroke="white" stroke-width="1.5" pointer-events="none"/>
                </g>
                <g id="dirArrow">
                        <path fill="none" stroke="white" stroke-width="1.5" d="M0,-3.0v7 M-2.5,-0.5L0,-3.0L2.5,-0.5"/>
                </g>
               <g id="resetDef">
                       <use xlink:href="#rim2" fill="#404040">
                               <set attributeName="fill" to="#808080" begin="reset.mouseover" end="reset.mouseout"/>
                       </use>
               </g>
        </defs>

<script type="text/javascript">
var viewWidth = 934;
var viewHeight = 364;
var sectionId = 'dynsection-0';
</script>
<script xlink:href="svgpan.js"/>
<svg id="graph" class="graph">
<g id="viewport">
<title>src/Application.hpp</title>
<polygon fill="#ffffff" stroke="transparent" points="-4,4 -4,-360 929.5,-360 929.5,4 -4,4"/>
<!-- Node0 -->
<g id="node1" class="node">
<title>Node0</title>
<polygon fill="#bfbfbf" stroke="#000000" points="496,-336.5 496,-355.5 596,-355.5 596,-336.5 496,-336.5"/>
<text text-anchor="middle" x="546" y="-343.5" font-family="Helvetica,sans-Serif" font-size="10.00" fill="#000000">src/Application.hpp</text>
</g>
<!-- Node1 -->
<g id="node2" class="node">
<title>Node1</title>
<g id="a_node2"><a xlink:href="_window_widget_8hpp.html" target="_top" xlink:title="Interface/WindowWidget.hpp">
<polygon fill="#ffffff" stroke="#000000" points="65.5,-280.5 65.5,-299.5 208.5,-299.5 208.5,-280.5 65.5,-280.5"/>
<text text-anchor="middle" x="137" y="-287.5" font-family="Helvetica,sans-Serif" font-size="10.00" fill="#000000">Interface/WindowWidget.hpp</text>
</a>
</g>
</g>
<!-- Node0&#45;&gt;Node1 -->
<g id="edge1" class="edge">
<title>Node0&#45;&gt;Node1</title>
<path fill="none" stroke="#191970" d="M495.8486,-339.1333C426.227,-329.6008 299.5429,-312.2553 216.8403,-300.9317"/>
<polygon fill="#191970" stroke="#191970" points="217.1113,-297.4362 206.7289,-299.5472 216.1616,-304.3715 217.1113,-297.4362"/>
</g>
<!-- Node6 -->
<g id="node7" class="node">
<title>Node6</title>
<g id="a_node7"><a xlink:href="_list_widget_8hpp.html" target="_top" xlink:title="ListWidget.hpp">
<polygon fill="#ffffff" stroke="#000000" points="96,-224.5 96,-243.5 178,-243.5 178,-224.5 96,-224.5"/>
<text text-anchor="middle" x="137" y="-231.5" font-family="Helvetica,sans-Serif" font-size="10.00" fill="#000000">ListWidget.hpp</text>
</a>
</g>
</g>
<!-- Node0&#45;&gt;Node6 -->
<g id="edge27" class="edge">
<title>Node0&#45;&gt;Node6</title>
<path fill="none" stroke="#191970" d="M495.9612,-342.3034C439.4576,-337.086 345.3195,-325.2235 268,-300 228.5403,-287.1273 186.2266,-263.8936 160.6873,-248.7095"/>
<polygon fill="#191970" stroke="#191970" points="162.444,-245.6817 152.0734,-243.5136 158.8284,-251.6757 162.444,-245.6817"/>
</g>
<!-- Node9 -->
<g id="node10" class="node">
<title>Node9</title>
<polygon fill="#ffffff" stroke="#bfbfbf" points="242.5,-112.5 242.5,-131.5 283.5,-131.5 283.5,-112.5 242.5,-112.5"/>
<text text-anchor="middle" x="263" y="-119.5" font-family="Helvetica,sans-Serif" font-size="10.00" fill="#000000">string</text>
</g>
<!-- Node0&#45;&gt;Node9 -->
<g id="edge38" class="edge">
<title>Node0&#45;&gt;Node9</title>
<path fill="none" stroke="#191970" d="M495.8073,-343.0201C432.3431,-338.196 328.0672,-326.4059 301,-300 257.5441,-257.6058 257.9117,-178.5889 260.8005,-141.7969"/>
<polygon fill="#191970" stroke="#191970" points="264.2869,-142.1038 261.7322,-131.8216 257.3173,-141.4527 264.2869,-142.1038"/>
</g>
<!-- Node12 -->
<g id="node13" class="node">
<title>Node12</title>
<g id="a_node13"><a xlink:href="_filtered_collection_8hpp.html" target="_top" xlink:title="Collection/FilteredCollection.hpp">
<polygon fill="#ffffff" stroke="#000000" points="310,-280.5 310,-299.5 468,-299.5 468,-280.5 310,-280.5"/>
<text text-anchor="middle" x="389" y="-287.5" font-family="Helvetica,sans-Serif" font-size="10.00" fill="#000000">Collection/FilteredCollection.hpp</text>
</a>
</g>
</g>
<!-- Node0&#45;&gt;Node12 -->
<g id="edge16" class="edge">
<title>Node0&#45;&gt;Node12</title>
<path fill="none" stroke="#191970" d="M519.0107,-336.3733C493.1301,-327.1419 453.8752,-313.1402 425.2711,-302.9375"/>
<polygon fill="#191970" stroke="#191970" points="426.2317,-299.5642 415.6371,-299.5011 423.88,-306.1573 426.2317,-299.5642"/>
</g>
<!-- Node17 -->
<g id="node18" class="node">
<title>Node17</title>
<g id="a_node18"><a xlink:href="_collection_pool_8hpp.html" target="_top" xlink:title="Collection/CollectionPool.hpp">
<polygon fill="#ffffff" stroke="#000000" points="524.5,-280.5 524.5,-299.5 669.5,-299.5 669.5,-280.5 524.5,-280.5"/>
<text text-anchor="middle" x="597" y="-287.5" font-family="Helvetica,sans-Serif" font-size="10.00" fill="#000000">Collection/CollectionPool.hpp</text>
</a>
</g>
</g>
<!-- Node0&#45;&gt;Node17 -->
<g id="edge23" class="edge">
<title>Node0&#45;&gt;Node17</title>
<path fill="none" stroke="#191970" d="M554.8835,-336.2455C562.1966,-328.2155 572.7391,-316.6394 581.4467,-307.0781"/>
<polygon fill="#191970" stroke="#191970" points="584.0727,-309.3928 588.2183,-299.6427 578.8972,-304.6795 584.0727,-309.3928"/>
</g>
<!-- Node18 -->
<g id="node19" class="node">
<title>Node18</title>
<g id="a_node19"><a xlink:href="_image_8hpp.html" target="_top" xlink:title="Image/Image.hpp">
<polygon fill="#ffffff" stroke="#000000" points="523,-224.5 523,-243.5 615,-243.5 615,-224.5 523,-224.5"/>
<text text-anchor="middle" x="569" y="-231.5" font-family="Helvetica,sans-Serif" font-size="10.00" fill="#000000">Image/Image.hpp</text>
</a>
</g>
</g>
<!-- Node0&#45;&gt;Node18 -->
<g id="edge28" class="edge">
<title>Node0&#45;&gt;Node18</title>
<path fill="none" stroke="#191970" d="M535.94,-336.1562C524.0361,-323.2549 506.9103,-299.9251 516,-280 521.6889,-267.5296 532.6131,-257.1361 543.0726,-249.4023"/>
<polygon fill="#191970" stroke="#191970" points="545.3523,-252.0832 551.6242,-243.5442 541.3963,-246.3082 545.3523,-252.0832"/>
</g>
<!-- Node24 -->
<g id="node25" class="node">
<title>Node24</title>
<polygon fill="#ffffff" stroke="#bfbfbf" points="687.5,-280.5 687.5,-299.5 722.5,-299.5 722.5,-280.5 687.5,-280.5"/>
<text text-anchor="middle" x="705" y="-287.5" font-family="Helvetica,sans-Serif" font-size="10.00" fill="#000000">map</text>
</g>
<!-- Node0&#45;&gt;Node24 -->
<g id="edge37" class="edge">
<title>Node0&#45;&gt;Node24</title>
<path fill="none" stroke="#191970" d="M574.3794,-336.498C599.424,-328.0439 637.1314,-315.1498 677.8444,-300.3511"/>
<polygon fill="#191970" stroke="#191970" points="679.2153,-303.5766 687.4085,-296.8594 676.8146,-297.0011 679.2153,-303.5766"/>
</g>
<!-- Node25 -->
<g id="node26" class="node">
<title>Node25</title>
<polygon fill="#ffffff" stroke="#bfbfbf" points="741,-280.5 741,-299.5 773,-299.5 773,-280.5 741,-280.5"/>
<text text-anchor="middle" x="757" y="-287.5" font-family="Helvetica,sans-Serif" font-size="10.00" fill="#000000">any</text>
</g>
<!-- Node0&#45;&gt;Node25 -->
<g id="edge39" class="edge">
<title>Node0&#45;&gt;Node25</title>
<path fill="none" stroke="#191970" d="M591.975,-336.4866C627.699,-328.6787 678.5859,-316.6521 731.1502,-299.9578"/>
<polygon fill="#191970" stroke="#191970" points="732.5389,-303.1875 740.9814,-296.7862 730.3897,-296.5255 732.5389,-303.1875"/>
</g>
<!-- Node26 -->
<g id="node27" class="node">
<title>Node26</title>
<polygon fill="#ffffff" stroke="#bfbfbf" points="791.5,-280.5 791.5,-299.5 820.5,-299.5 820.5,-280.5 791.5,-280.5"/>
<text text-anchor="middle" x="806" y="-287.5" font-family="Helvetica,sans-Serif" font-size="10.00" fill="#000000">list</text>
</g>
<!-- Node0&#45;&gt;Node26 -->
<g id="edge40" class="edge">
<title>Node0&#45;&gt;Node26</title>
<path fill="none" stroke="#191970" d="M596.4398,-339.1933C644.7181,-331.9728 719.2684,-318.9693 782,-300 782.0972,-299.9706 782.1946,-299.941 782.2921,-299.911"/>
<polygon fill="#191970" stroke="#191970" points="783.2258,-303.2949 791.4487,-296.614 780.8543,-296.7088 783.2258,-303.2949"/>
</g>
<!-- Node27 -->
<g id="node28" class="node">
<title>Node27</title>
<polygon fill="#ffffff" stroke="#bfbfbf" points="839,-280.5 839,-299.5 889,-299.5 889,-280.5 839,-280.5"/>
<text text-anchor="middle" x="864" y="-287.5" font-family="Helvetica,sans-Serif" font-size="10.00" fill="#000000">optional</text>
</g>
<!-- Node0&#45;&gt;Node27 -->
<g id="edge41" class="edge">
<title>Node0&#45;&gt;Node27</title>
<path fill="none" stroke="#191970" d="M596.1284,-339.8174C651.0994,-332.6067 742.0331,-319.4151 829.0715,-299.9924"/>
<polygon fill="#191970" stroke="#191970" points="829.8604,-303.4025 838.8415,-297.7818 828.3156,-296.575 829.8604,-303.4025"/>
</g>
<!-- Node2 -->
<g id="node3" class="node">
<title>Node2</title>
<g id="a_node3"><a xlink:href="_widget_8hpp.html" target="_top" xlink:title="Widget.hpp">
<polygon fill="#ffffff" stroke="#000000" points="0,-112.5 0,-131.5 66,-131.5 66,-112.5 0,-112.5"/>
<text text-anchor="middle" x="33" y="-119.5" font-family="Helvetica,sans-Serif" font-size="10.00" fill="#000000">Widget.hpp</text>
</a>
</g>
</g>
<!-- Node1&#45;&gt;Node2 -->
<g id="edge2" class="edge">
<title>Node1&#45;&gt;Node2</title>
<path fill="none" stroke="#191970" d="M118.2958,-280.4808C104.2935,-272.4812 85.6262,-259.8254 74,-244 50.9522,-212.6276 40.2857,-167.4529 35.8229,-141.7917"/>
<polygon fill="#191970" stroke="#191970" points="39.2592,-141.1141 34.2292,-131.7895 32.3464,-142.2157 39.2592,-141.1141"/>
</g>
<!-- Node1&#45;&gt;Node6 -->
<g id="edge6" class="edge">
<title>Node1&#45;&gt;Node6</title>
<path fill="none" stroke="#191970" d="M137,-280.2455C137,-272.9382 137,-262.6944 137,-253.7046"/>
<polygon fill="#191970" stroke="#191970" points="140.5001,-253.6426 137,-243.6427 133.5001,-253.6427 140.5001,-253.6426"/>
</g>
<!-- Node8 -->
<g id="node9" class="node">
<title>Node8</title>
<polygon fill="#ffffff" stroke="#bfbfbf" points="100.5,-112.5 100.5,-131.5 159.5,-131.5 159.5,-112.5 100.5,-112.5"/>
<text text-anchor="middle" x="130" y="-119.5" font-family="Helvetica,sans-Serif" font-size="10.00" fill="#000000">functional</text>
</g>
<!-- Node1&#45;&gt;Node8 -->
<g id="edge15" class="edge">
<title>Node1&#45;&gt;Node8</title>
<path fill="none" stroke="#191970" d="M122.572,-280.3605C111.2339,-272.0382 95.9155,-259.0088 87,-244 73.8978,-221.9431 76.1346,-213.4627 73,-188 71.9139,-179.1777 69.1665,-176.0198 73,-168 79.1448,-155.1449 90.8299,-144.7306 102.0285,-137.0832"/>
<polygon fill="#191970" stroke="#191970" points="104.2041,-139.8488 110.79,-131.5495 100.4661,-133.9304 104.2041,-139.8488"/>
</g>
<!-- Node11 -->
<g id="node12" class="node">
<title>Node11</title>
<polygon fill="#ffffff" stroke="#bfbfbf" points="724,-112.5 724,-131.5 776,-131.5 776,-112.5 724,-112.5"/>
<text text-anchor="middle" x="750" y="-119.5" font-family="Helvetica,sans-Serif" font-size="10.00" fill="#000000">memory</text>
</g>
<!-- Node1&#45;&gt;Node11 -->
<g id="edge14" class="edge">
<title>Node1&#45;&gt;Node11</title>
<path fill="none" stroke="#191970" d="M208.8089,-285.0651C334.732,-276.1378 585.7094,-257.0257 624,-244 668.2444,-228.9489 680.8016,-221.8728 713,-188 725.9631,-174.3627 736.0032,-155.3245 742.333,-141.1982"/>
<polygon fill="#191970" stroke="#191970" points="745.5827,-142.4999 746.2751,-131.9277 739.1409,-139.7606 745.5827,-142.4999"/>
</g>
<!-- Node3 -->
<g id="node4" class="node">
<title>Node3</title>
<polygon fill="#ffffff" stroke="#bfbfbf" points="364,-56.5 364,-75.5 422,-75.5 422,-56.5 364,-56.5"/>
<text text-anchor="middle" x="393" y="-63.5" font-family="Helvetica,sans-Serif" font-size="10.00" fill="#000000">../CImg.h</text>
</g>
<!-- Node2&#45;&gt;Node3 -->
<g id="edge3" class="edge">
<title>Node2&#45;&gt;Node3</title>
<path fill="none" stroke="#191970" d="M66.1066,-116.1768C74.2414,-114.7778 82.9312,-113.31 91,-112 185.1296,-96.7181 296.017,-80.2101 353.6843,-71.7375"/>
<polygon fill="#191970" stroke="#191970" points="354.4306,-75.1656 363.8167,-70.2511 353.4146,-68.2397 354.4306,-75.1656"/>
</g>
<!-- Node4 -->
<g id="node5" class="node">
<title>Node4</title>
<g id="a_node5"><a xlink:href="_events_8hpp.html" target="_top" xlink:title="Events.hpp">
<polygon fill="#ffffff" stroke="#000000" points="0,-56.5 0,-75.5 66,-75.5 66,-56.5 0,-56.5"/>
<text text-anchor="middle" x="33" y="-63.5" font-family="Helvetica,sans-Serif" font-size="10.00" fill="#000000">Events.hpp</text>
</a>
</g>
</g>
<!-- Node2&#45;&gt;Node4 -->
<g id="edge4" class="edge">
<title>Node2&#45;&gt;Node4</title>
<path fill="none" stroke="#191970" d="M33,-112.2455C33,-104.9382 33,-94.6944 33,-85.7046"/>
<polygon fill="#191970" stroke="#191970" points="36.5001,-85.6426 33,-75.6427 29.5001,-85.6427 36.5001,-85.6426"/>
</g>
<!-- Node5 -->
<g id="node6" class="node">
<title>Node5</title>
<polygon fill="#ffffff" stroke="#bfbfbf" points="10,-.5 10,-19.5 56,-19.5 56,-.5 10,-.5"/>
<text text-anchor="middle" x="33" y="-7.5" font-family="Helvetica,sans-Serif" font-size="10.00" fill="#000000">variant</text>
</g>
<!-- Node4&#45;&gt;Node5 -->
<g id="edge5" class="edge">
<title>Node4&#45;&gt;Node5</title>
<path fill="none" stroke="#191970" d="M33,-56.2455C33,-48.9382 33,-38.6944 33,-29.7046"/>
<polygon fill="#191970" stroke="#191970" points="36.5001,-29.6426 33,-19.6427 29.5001,-29.6427 36.5001,-29.6426"/>
</g>
<!-- Node6&#45;&gt;Node2 -->
<g id="edge7" class="edge">
<title>Node6&#45;&gt;Node2</title>
<path fill="none" stroke="#191970" d="M120.0584,-224.4551C106.2509,-216.0971 86.8411,-202.9701 73,-188 59.9716,-173.9088 49.0002,-154.9246 41.8625,-140.934"/>
<polygon fill="#191970" stroke="#191970" points="44.9141,-139.2075 37.3681,-131.7706 38.6293,-142.2901 44.9141,-139.2075"/>
</g>
<!-- Node7 -->
<g id="node8" class="node">
<title>Node7</title>
<g id="a_node8"><a xlink:href="_button_widget_8hpp.html" target="_top" xlink:title="ButtonWidget.hpp">
<polygon fill="#ffffff" stroke="#000000" points="82.5,-168.5 82.5,-187.5 177.5,-187.5 177.5,-168.5 82.5,-168.5"/>
<text text-anchor="middle" x="130" y="-175.5" font-family="Helvetica,sans-Serif" font-size="10.00" fill="#000000">ButtonWidget.hpp</text>
</a>
</g>
</g>
<!-- Node6&#45;&gt;Node7 -->
<g id="edge8" class="edge">
<title>Node6&#45;&gt;Node7</title>
<path fill="none" stroke="#191970" d="M135.7807,-224.2455C134.8673,-216.9382 133.5868,-206.6944 132.4631,-197.7046"/>
<polygon fill="#191970" stroke="#191970" points="135.9187,-197.1313 131.2053,-187.6427 128.9728,-197.9996 135.9187,-197.1313"/>
</g>
<!-- Node6&#45;&gt;Node9 -->
<g id="edge12" class="edge">
<title>Node6&#45;&gt;Node9</title>
<path fill="none" stroke="#191970" d="M147.7427,-224.4509C169.3159,-205.2747 218.1167,-161.8962 244.7763,-138.1988"/>
<polygon fill="#191970" stroke="#191970" points="247.1357,-140.7845 252.2845,-131.5249 242.4851,-135.5526 247.1357,-140.7845"/>
</g>
<!-- Node10 -->
<g id="node11" class="node">
<title>Node10</title>
<polygon fill="#ffffff" stroke="#bfbfbf" points="310,-168.5 310,-187.5 354,-187.5 354,-168.5 310,-168.5"/>
<text text-anchor="middle" x="332" y="-175.5" font-family="Helvetica,sans-Serif" font-size="10.00" fill="#000000">vector</text>
</g>
<!-- Node6&#45;&gt;Node10 -->
<g id="edge13" class="edge">
<title>Node6&#45;&gt;Node10</title>
<path fill="none" stroke="#191970" d="M170.5217,-224.3733C206.7959,-213.956 264.2234,-197.464 299.9236,-187.2117"/>
<polygon fill="#191970" stroke="#191970" points="301.174,-190.4941 309.8194,-184.3698 299.2418,-183.7661 301.174,-190.4941"/>
</g>
<!-- Node7&#45;&gt;Node2 -->
<g id="edge9" class="edge">
<title>Node7&#45;&gt;Node2</title>
<path fill="none" stroke="#191970" d="M113.1039,-168.2455C98.082,-159.5731 75.8957,-146.7645 58.679,-136.825"/>
<polygon fill="#191970" stroke="#191970" points="60.1128,-133.6114 49.7025,-131.6427 56.6129,-139.6737 60.1128,-133.6114"/>
</g>
<!-- Node7&#45;&gt;Node8 -->
<g id="edge10" class="edge">
<title>Node7&#45;&gt;Node8</title>
<path fill="none" stroke="#191970" d="M130,-168.2455C130,-160.9382 130,-150.6944 130,-141.7046"/>
<polygon fill="#191970" stroke="#191970" points="133.5001,-141.6426 130,-131.6427 126.5001,-141.6427 133.5001,-141.6426"/>
</g>
<!-- Node7&#45;&gt;Node9 -->
<g id="edge11" class="edge">
<title>Node7&#45;&gt;Node9</title>
<path fill="none" stroke="#191970" d="M152.8635,-168.3733C174.9272,-159.0833 208.4649,-144.9621 232.7341,-134.7435"/>
<polygon fill="#191970" stroke="#191970" points="234.3252,-137.8713 242.1834,-130.7649 231.6088,-131.4198 234.3252,-137.8713"/>
</g>
<!-- Node12&#45;&gt;Node8 -->
<g id="edge22" class="edge">
<title>Node12&#45;&gt;Node8</title>
<path fill="none" stroke="#191970" d="M374.3329,-280.4862C331.4291,-252.6567 205.8965,-171.2301 153.45,-137.2108"/>
<polygon fill="#191970" stroke="#191970" points="155.1215,-134.1232 144.8272,-131.6177 151.3122,-139.996 155.1215,-134.1232"/>
</g>
<!-- Node13 -->
<g id="node14" class="node">
<title>Node13</title>
<g id="a_node14"><a xlink:href="_collection_8hpp.html" target="_top" xlink:title="Collection.hpp">
<polygon fill="#ffffff" stroke="#000000" points="751.5,-224.5 751.5,-243.5 830.5,-243.5 830.5,-224.5 751.5,-224.5"/>
<text text-anchor="middle" x="791" y="-231.5" font-family="Helvetica,sans-Serif" font-size="10.00" fill="#000000">Collection.hpp</text>
</a>
</g>
</g>
<!-- Node12&#45;&gt;Node13 -->
<g id="edge17" class="edge">
<title>Node12&#45;&gt;Node13</title>
<path fill="none" stroke="#191970" d="M468.2951,-280.7026C538.9399,-272.1377 645.0596,-258.5795 737,-244 738.2977,-243.7942 739.6123,-243.5816 740.938,-243.3635"/>
<polygon fill="#191970" stroke="#191970" points="741.9604,-246.7396 751.2284,-241.6059 740.7818,-239.8395 741.9604,-246.7396"/>
</g>
<!-- Node14 -->
<g id="node15" class="node">
<title>Node14</title>
<g id="a_node15"><a xlink:href="_collection_iterator_8hpp.html" target="_top" xlink:title="CollectionIterator.hpp">
<polygon fill="#ffffff" stroke="#000000" points="778,-168.5 778,-187.5 888,-187.5 888,-168.5 778,-168.5"/>
<text text-anchor="middle" x="833" y="-175.5" font-family="Helvetica,sans-Serif" font-size="10.00" fill="#000000">CollectionIterator.hpp</text>
</a>
</g>
</g>
<!-- Node13&#45;&gt;Node14 -->
<g id="edge18" class="edge">
<title>Node13&#45;&gt;Node14</title>
<path fill="none" stroke="#191970" d="M798.3158,-224.2455C804.2179,-216.3761 812.6742,-205.101 819.7594,-195.6542"/>
<polygon fill="#191970" stroke="#191970" points="822.568,-197.7427 825.768,-187.6427 816.9679,-193.5427 822.568,-197.7427"/>
</g>
<!-- Node14&#45;&gt;Node11 -->
<g id="edge21" class="edge">
<title>Node14&#45;&gt;Node11</title>
<path fill="none" stroke="#191970" d="M818.5425,-168.2455C805.9268,-159.7337 787.4056,-147.2375 772.7955,-137.3801"/>
<polygon fill="#191970" stroke="#191970" points="774.5391,-134.3343 764.2918,-131.6427 770.6239,-140.1371 774.5391,-134.3343"/>
</g>
<!-- Node15 -->
<g id="node16" class="node">
<title>Node15</title>
<polygon fill="#ffffff" stroke="#bfbfbf" points="798,-112.5 798,-131.5 860,-131.5 860,-112.5 798,-112.5"/>
<text text-anchor="middle" x="829" y="-119.5" font-family="Helvetica,sans-Serif" font-size="10.00" fill="#000000">type_traits</text>
</g>
<!-- Node14&#45;&gt;Node15 -->
<g id="edge19" class="edge">
<title>Node14&#45;&gt;Node15</title>
<path fill="none" stroke="#191970" d="M832.3033,-168.2455C831.7813,-160.9382 831.0496,-150.6944 830.4075,-141.7046"/>
<polygon fill="#191970" stroke="#191970" points="833.8924,-141.3679 829.6888,-131.6427 826.9102,-141.8667 833.8924,-141.3679"/>
</g>
<!-- Node16 -->
<g id="node17" class="node">
<title>Node16</title>
<polygon fill="#ffffff" stroke="#bfbfbf" points="878.5,-112.5 878.5,-131.5 925.5,-131.5 925.5,-112.5 878.5,-112.5"/>
<text text-anchor="middle" x="902" y="-119.5" font-family="Helvetica,sans-Serif" font-size="10.00" fill="#000000">iterator</text>
</g>
<!-- Node14&#45;&gt;Node16 -->
<g id="edge20" class="edge">
<title>Node14&#45;&gt;Node16</title>
<path fill="none" stroke="#191970" d="M845.0189,-168.2455C855.2098,-159.9746 870.0362,-147.9416 882.0107,-138.2232"/>
<polygon fill="#191970" stroke="#191970" points="884.5598,-140.662 890.1188,-131.6427 880.1486,-135.2268 884.5598,-140.662"/>
</g>
<!-- Node17&#45;&gt;Node10 -->
<g id="edge26" class="edge">
<title>Node17&#45;&gt;Node10</title>
<path fill="none" stroke="#191970" d="M574.4062,-280.4509C527.156,-260.481 417.803,-214.2639 363.6121,-191.3606"/>
<polygon fill="#191970" stroke="#191970" points="364.7365,-188.0361 354.1628,-187.3669 362.0113,-194.4839 364.7365,-188.0361"/>
</g>
<!-- Node17&#45;&gt;Node13 -->
<g id="edge24" class="edge">
<title>Node17&#45;&gt;Node13</title>
<path fill="none" stroke="#191970" d="M630.3498,-280.3733C663.028,-270.9404 712.9618,-256.5265 748.477,-246.2747"/>
<polygon fill="#191970" stroke="#191970" points="749.4484,-249.6373 758.0854,-243.5011 747.507,-242.9119 749.4484,-249.6373"/>
</g>
<!-- Node17&#45;&gt;Node14 -->
<g id="edge25" class="edge">
<title>Node17&#45;&gt;Node14</title>
<path fill="none" stroke="#191970" d="M669.5813,-280.982C737.1483,-271.8421 829.0602,-257.2049 840,-244 850.6475,-231.1478 847.0055,-211.7108 841.8354,-197.2546"/>
<polygon fill="#191970" stroke="#191970" points="844.9901,-195.7208 837.9831,-187.7739 838.505,-198.3559 844.9901,-195.7208"/>
</g>
<!-- Node18&#45;&gt;Node3 -->
<g id="edge33" class="edge">
<title>Node18&#45;&gt;Node3</title>
<path fill="none" stroke="#191970" d="M601.088,-224.4265C632.2278,-213.3992 672.4222,-193.4787 655,-168 628.9781,-129.945 498.7116,-92.5152 432.2058,-75.5071"/>
<polygon fill="#191970" stroke="#191970" points="432.6579,-72.0114 422.1053,-72.9558 430.9436,-78.7983 432.6579,-72.0114"/>
</g>
<!-- Node18&#45;&gt;Node11 -->
<g id="edge36" class="edge">
<title>Node18&#45;&gt;Node11</title>
<path fill="none" stroke="#191970" d="M605.6509,-224.4924C630.2848,-217.0215 662.7399,-205.0138 688,-188 707.4366,-174.9085 725.2591,-154.6858 736.7573,-140.0751"/>
<polygon fill="#191970" stroke="#191970" points="739.7745,-141.8905 743.0571,-131.8171 734.2091,-137.6448 739.7745,-141.8905"/>
</g>
<!-- Node19 -->
<g id="node20" class="node">
<title>Node19</title>
<g id="a_node20"><a xlink:href="_tag_list_8hpp.html" target="_top" xlink:title="TagList.hpp">
<polygon fill="#ffffff" stroke="#000000" points="372,-168.5 372,-187.5 440,-187.5 440,-168.5 372,-168.5"/>
<text text-anchor="middle" x="406" y="-175.5" font-family="Helvetica,sans-Serif" font-size="10.00" fill="#000000">TagList.hpp</text>
</a>
</g>
</g>
<!-- Node18&#45;&gt;Node19 -->
<g id="edge29" class="edge">
<title>Node18&#45;&gt;Node19</title>
<path fill="none" stroke="#191970" d="M540.9793,-224.3733C513.9922,-215.1016 472.9983,-201.0178 443.2689,-190.804"/>
<polygon fill="#191970" stroke="#191970" points="444.2497,-187.4403 433.6551,-187.5011 441.9752,-194.0605 444.2497,-187.4403"/>
</g>
<!-- Node22 -->
<g id="node23" class="node">
<title>Node22</title>
<polygon fill="#ffffff" stroke="#bfbfbf" points="458,-168.5 458,-187.5 578,-187.5 578,-168.5 458,-168.5"/>
<text text-anchor="middle" x="518" y="-175.5" font-family="Helvetica,sans-Serif" font-size="10.00" fill="#000000">experimental/filesystem</text>
</g>
<!-- Node18&#45;&gt;Node22 -->
<g id="edge34" class="edge">
<title>Node18&#45;&gt;Node22</title>
<path fill="none" stroke="#191970" d="M560.1165,-224.2455C552.8034,-216.2155 542.2609,-204.6394 533.5533,-195.0781"/>
<polygon fill="#191970" stroke="#191970" points="536.1028,-192.6795 526.7817,-187.6427 530.9273,-197.3928 536.1028,-192.6795"/>
</g>
<!-- Node23 -->
<g id="node24" class="node">
<title>Node23</title>
<polygon fill="#ffffff" stroke="#bfbfbf" points="596,-168.5 596,-187.5 646,-187.5 646,-168.5 596,-168.5"/>
<text text-anchor="middle" x="621" y="-175.5" font-family="Helvetica,sans-Serif" font-size="10.00" fill="#000000">fstream</text>
</g>
<!-- Node18&#45;&gt;Node23 -->
<g id="edge35" class="edge">
<title>Node18&#45;&gt;Node23</title>
<path fill="none" stroke="#191970" d="M578.0577,-224.2455C585.5142,-216.2155 596.2634,-204.6394 605.1417,-195.0781"/>
<polygon fill="#191970" stroke="#191970" points="607.8063,-197.3522 612.0461,-187.6427 602.6768,-192.589 607.8063,-197.3522"/>
</g>
<!-- Node19&#45;&gt;Node9 -->
<g id="edge30" class="edge">
<title>Node19&#45;&gt;Node9</title>
<path fill="none" stroke="#191970" d="M381.4174,-168.3733C356.9175,-158.7789 319.259,-144.0315 293.0092,-133.7519"/>
<polygon fill="#191970" stroke="#191970" points="294.1463,-130.4384 283.5586,-130.0509 291.5938,-136.9564 294.1463,-130.4384"/>
</g>
<!-- Node20 -->
<g id="node21" class="node">
<title>Node20</title>
<polygon fill="#ffffff" stroke="#bfbfbf" points="363,-112.5 363,-131.5 393,-131.5 393,-112.5 363,-112.5"/>
<text text-anchor="middle" x="378" y="-119.5" font-family="Helvetica,sans-Serif" font-size="10.00" fill="#000000">set</text>
</g>
<!-- Node19&#45;&gt;Node20 -->
<g id="edge31" class="edge">
<title>Node19&#45;&gt;Node20</title>
<path fill="none" stroke="#191970" d="M401.1228,-168.2455C397.3487,-160.6973 392.0079,-150.0158 387.4099,-140.8197"/>
<polygon fill="#191970" stroke="#191970" points="390.424,-139.0217 382.8213,-131.6427 384.163,-142.1522 390.424,-139.0217"/>
</g>
<!-- Node21 -->
<g id="node22" class="node">
<title>Node21</title>
<polygon fill="#ffffff" stroke="#bfbfbf" points="411,-112.5 411,-131.5 457,-131.5 457,-112.5 411,-112.5"/>
<text text-anchor="middle" x="434" y="-119.5" font-family="Helvetica,sans-Serif" font-size="10.00" fill="#000000">cctype</text>
</g>
<!-- Node19&#45;&gt;Node21 -->
<g id="edge32" class="edge">
<title>Node19&#45;&gt;Node21</title>
<path fill="none" stroke="#191970" d="M410.8772,-168.2455C414.6513,-160.6973 419.9921,-150.0158 424.5901,-140.8197"/>
<polygon fill="#191970" stroke="#191970" points="427.837,-142.1522 429.1787,-131.6427 421.576,-139.0217 427.837,-142.1522"/>
</g>
</g>
</svg>
        <g id="navigator" transform="translate(0 0)" fill="#404254">
                <rect fill="#f2f5e9" fill-opacity="0.5" stroke="#606060" stroke-width=".5" x="0" y="0" width="60" height="60"/>
                <use id="zoomplus" xlink:href="#zoomPlus" x="17" y="9" onmousedown="handleZoom(evt,'in')"/>
                <use id="zoomminus" xlink:href="#zoomMin" x="42" y="9" onmousedown="handleZoom(evt,'out')"/>
                <use id="reset" xlink:href="#resetDef" x="30" y="36" onmousedown="handleReset()"/>
                <g id="arrowUp" xlink:href="#dirArrow" transform="translate(30 24)" onmousedown="handlePan(0,-1)">
                  <use xlink:href="#rim" fill="#404040">
                        <set attributeName="fill" to="#808080" begin="arrowUp.mouseover" end="arrowUp.mouseout"/>
                  </use>
                  <path fill="none" stroke="white" stroke-width="1.5" d="M0,-3.0v7 M-2.5,-0.5L0,-3.0L2.5,-0.5"/>
                </g>
                <g id="arrowRight" xlink:href="#dirArrow" transform="rotate(90) translate(36 -43)" onmousedown="handlePan(1,0)">
                  <use xlink:href="#rim" fill="#404040">
                        <set attributeName="fill" to="#808080" begin="arrowRight.mouseover" end="arrowRight.mouseout"/>
                  </use>
                  <path fill="none" stroke="white" stroke-width="1.5" d="M0,-3.0v7 M-2.5,-0.5L0,-3.0L2.5,-0.5"/>
                </g>
                <g id="arrowDown" xlink:href="#dirArrow" transform="rotate(180) translate(-30 -48)" onmousedown="handlePan(0,1)">
                  <use xlink:href="#rim" fill="#404040">
                        <set attributeName="fill" to="#808080" begin="arrowDown.mouseover" end="arrowDown.mouseout"/>
                  </use>
                  <path fill="none" stroke="white" stroke-width="1.5" d="M0,-3.0v7 M-2.5,-0.5L0,-3.0L2.5,-0.5"/>
                </g>
                <g id="arrowLeft" xlink:href="#dirArrow" transform="rotate(270) translate(-36 17)" onmousedown="handlePan(-1,0)">
                  <use xlink:href="#rim" fill="#404040">
                        <set attributeName="fill" to="#808080" begin="arrowLeft.mouseover" end="arrowLeft.mouseout"/>
                  </use>
                  <path fill="none" stroke="white" stroke-width="1.5" d="M0,-3.0v7 M-2.5,-0.5L0,-3.0L2.5,-0.5"/>
                </g>
        </g>
        <svg viewBox="0 0 15 15" width="100%" height="30px" preserveAspectRatio="xMaxYMin meet">
         <g id="arrow_out" transform="scale(0.3 0.3)">
          <a xlink:href="_application_8hpp__incl_org.svg" target="_base">
           <rect id="button" ry="5" rx="5" y="6" x="6" height="38" width="38"
                fill="#f2f5e9" fill-opacity="0.5" stroke="#606060" stroke-width="1.0"/>
           <path id="arrow"
             d="M 11.500037,31.436501 C 11.940474,20.09759 22.043105,11.32322 32.158766,21.979434 L 37.068811,17.246167 C 37.068811,17.246167 37.088388,32 37.088388,32 L 22.160133,31.978069 C 22.160133,31.978069 26.997745,27.140456 26.997745,27.140456 C 18.528582,18.264221 13.291696,25.230495 11.500037,31.436501 z"
             style="fill:#404040;"/>
          </a>
         </g>
        </svg>
</svg>
