<?xml version="1.0" encoding="UTF-8" standalone="no"?>
<!DOCTYPE svg PUBLIC "-//W3C//DTD SVG 1.1//EN"
 "http://www.w3.org/Graphics/SVG/1.1/DTD/svg11.dtd">
<!-- Generated by graphviz version 2.40.1 (20161225.0304)
 -->
<!-- Title: src/Application.hpp Pages: 1 -->
<svg width="907pt" height="364pt"
 viewBox="0.00 0.00 907.00 364.00" xmlns="http://www.w3.org/2000/svg" xmlns:xlink="http://www.w3.org/1999/xlink">
<g id="graph0" class="graph" transform="scale(1 1) rotate(0) translate(4 360)">
<title>src/Application.hpp</title>
<polygon fill="#ffffff" stroke="transparent" points="-4,4 -4,-360 903,-360 903,4 -4,4"/>
<!-- Node0 -->
<g id="node1" class="node">
<title>Node0</title>
<polygon fill="#bfbfbf" stroke="#000000" points="467,-336.5 467,-355.5 567,-355.5 567,-336.5 467,-336.5"/>
<text text-anchor="middle" x="517" y="-343.5" font-family="Helvetica,sans-Serif" font-size="10.00" fill="#000000">src/Application.hpp</text>
</g>
<!-- Node1 -->
<g id="node2" class="node">
<title>Node1</title>
<g id="a_node2"><a xlink:href="_window_widget_8hpp.html" target="_top" xlink:title="Interface/WindowWidget.hpp">
<polygon fill="#ffffff" stroke="#000000" points="153.5,-280.5 153.5,-299.5 296.5,-299.5 296.5,-280.5 153.5,-280.5"/>
<text text-anchor="middle" x="225" y="-287.5" font-family="Helvetica,sans-Serif" font-size="10.00" fill="#000000">Interface/WindowWidget.hpp</text>
</a>
</g>
</g>
<!-- Node0&#45;&gt;Node1 -->
<g id="edge1" class="edge">
<title>Node0&#45;&gt;Node1</title>
<path fill="none" stroke="#191970" d="M467.1352,-336.4369C416.6367,-326.7522 338.5165,-311.7703 284.7395,-301.4569"/>
<polygon fill="#191970" stroke="#191970" points="285.1394,-297.9699 274.6591,-299.5237 283.8209,-304.8446 285.1394,-297.9699"/>
</g>
<!-- Node6 -->
<g id="node7" class="node">
<title>Node6</title>
<g id="a_node7"><a xlink:href="_list_widget_8hpp.html" target="_top" xlink:title="ListWidget.hpp">
<polygon fill="#ffffff" stroke="#000000" points="92,-224.5 92,-243.5 174,-243.5 174,-224.5 92,-224.5"/>
<text text-anchor="middle" x="133" y="-231.5" font-family="Helvetica,sans-Serif" font-size="10.00" fill="#000000">ListWidget.hpp</text>
</a>
</g>
</g>
<!-- Node0&#45;&gt;Node6 -->
<g id="edge28" class="edge">
<title>Node0&#45;&gt;Node6</title>
<path fill="none" stroke="#191970" d="M466.7283,-343.1121C370.3171,-337.1009 166.9051,-321.953 144,-300 131.837,-288.3426 129.9249,-268.7107 130.5526,-253.8814"/>
<polygon fill="#191970" stroke="#191970" points="134.0593,-253.9447 131.3999,-243.689 127.0833,-253.3646 134.0593,-253.9447"/>
</g>
<!-- Node9 -->
<g id="node10" class="node">
<title>Node9</title>
<polygon fill="#ffffff" stroke="#bfbfbf" points="105.5,-112.5 105.5,-131.5 146.5,-131.5 146.5,-112.5 105.5,-112.5"/>
<text text-anchor="middle" x="126" y="-119.5" font-family="Helvetica,sans-Serif" font-size="10.00" fill="#000000">string</text>
</g>
<!-- Node0&#45;&gt;Node9 -->
<g id="edge39" class="edge">
<title>Node0&#45;&gt;Node9</title>
<path fill="none" stroke="#191970" d="M466.7299,-344.6599C375.3213,-341.4744 186.0557,-331.2116 129,-300 68.2018,-266.7412 11.2968,-227.9855 46,-168 56.6955,-149.5126 77.9462,-137.8055 95.8584,-130.8305"/>
<polygon fill="#191970" stroke="#191970" points="97.1385,-134.0898 105.3779,-127.4293 94.7833,-127.4979 97.1385,-134.0898"/>
</g>
<!-- Node12 -->
<g id="node13" class="node">
<title>Node12</title>
<g id="a_node13"><a xlink:href="_filtered_collection_8hpp.html" target="_top" xlink:title="Collection/FilteredCollection.hpp">
<polygon fill="#ffffff" stroke="#000000" points="353,-280.5 353,-299.5 511,-299.5 511,-280.5 353,-280.5"/>
<text text-anchor="middle" x="432" y="-287.5" font-family="Helvetica,sans-Serif" font-size="10.00" fill="#000000">Collection/FilteredCollection.hpp</text>
</a>
</g>
</g>
<!-- Node0&#45;&gt;Node12 -->
<g id="edge16" class="edge">
<title>Node0&#45;&gt;Node12</title>
<path fill="none" stroke="#191970" d="M502.1941,-336.2455C489.2744,-327.7337 470.3069,-315.2375 455.3448,-305.3801"/>
<polygon fill="#191970" stroke="#191970" points="456.9124,-302.2216 446.6362,-299.6427 453.0613,-308.067 456.9124,-302.2216"/>
</g>
<!-- Node17 -->
<g id="node18" class="node">
<title>Node17</title>
<g id="a_node18"><a xlink:href="_collection_pool_8hpp.html" target="_top" xlink:title="Collection/CollectionPool.hpp">
<polygon fill="#ffffff" stroke="#000000" points="529.5,-280.5 529.5,-299.5 674.5,-299.5 674.5,-280.5 529.5,-280.5"/>
<text text-anchor="middle" x="602" y="-287.5" font-family="Helvetica,sans-Serif" font-size="10.00" fill="#000000">Collection/CollectionPool.hpp</text>
</a>
</g>
</g>
<!-- Node0&#45;&gt;Node17 -->
<g id="edge24" class="edge">
<title>Node0&#45;&gt;Node17</title>
<path fill="none" stroke="#191970" d="M531.8059,-336.2455C544.7256,-327.7337 563.6931,-315.2375 578.6552,-305.3801"/>
<polygon fill="#191970" stroke="#191970" points="580.9387,-308.067 587.3638,-299.6427 577.0876,-302.2216 580.9387,-308.067"/>
</g>
<!-- Node18 -->
<g id="node19" class="node">
<title>Node18</title>
<g id="a_node19"><a xlink:href="_image_8hpp.html" target="_top" xlink:title="Image/Image.hpp">
<polygon fill="#ffffff" stroke="#000000" points="500,-224.5 500,-243.5 592,-243.5 592,-224.5 500,-224.5"/>
<text text-anchor="middle" x="546" y="-231.5" font-family="Helvetica,sans-Serif" font-size="10.00" fill="#000000">Image/Image.hpp</text>
</a>
</g>
</g>
<!-- Node0&#45;&gt;Node18 -->
<g id="edge29" class="edge">
<title>Node0&#45;&gt;Node18</title>
<path fill="none" stroke="#191970" d="M466.8052,-343.6694C403.9857,-338.8775 308.6636,-324.288 344,-280 361.9656,-257.4833 436.5301,-245.1351 489.8333,-239.0458"/>
<polygon fill="#191970" stroke="#191970" points="490.2955,-242.5161 499.8536,-237.9454 489.5313,-235.558 490.2955,-242.5161"/>
</g>
<!-- Node24 -->
<g id="node25" class="node">
<title>Node24</title>
<polygon fill="#ffffff" stroke="#bfbfbf" points="692.5,-280.5 692.5,-299.5 727.5,-299.5 727.5,-280.5 692.5,-280.5"/>
<text text-anchor="middle" x="710" y="-287.5" font-family="Helvetica,sans-Serif" font-size="10.00" fill="#000000">map</text>
</g>
<!-- Node0&#45;&gt;Node24 -->
<g id="edge38" class="edge">
<title>Node0&#45;&gt;Node24</title>
<path fill="none" stroke="#191970" d="M555.7932,-336.4688C587.7195,-328.3685 634.3043,-315.9643 682.7517,-300.2095"/>
<polygon fill="#191970" stroke="#191970" points="684.0573,-303.4646 692.4622,-297.0141 681.8693,-296.8153 684.0573,-303.4646"/>
</g>
<!-- Node25 -->
<g id="node26" class="node">
<title>Node25</title>
<polygon fill="#ffffff" stroke="#bfbfbf" points="746,-280.5 746,-299.5 778,-299.5 778,-280.5 746,-280.5"/>
<text text-anchor="middle" x="762" y="-287.5" font-family="Helvetica,sans-Serif" font-size="10.00" fill="#000000">any</text>
</g>
<!-- Node0&#45;&gt;Node25 -->
<g id="edge40" class="edge">
<title>Node0&#45;&gt;Node25</title>
<path fill="none" stroke="#191970" d="M567.4281,-338.0354C610.2312,-330.6974 673.318,-318.5238 736.0791,-299.8976"/>
<polygon fill="#191970" stroke="#191970" points="737.1795,-303.2214 745.7392,-296.9778 735.1542,-296.5208 737.1795,-303.2214"/>
</g>
<!-- Node26 -->
<g id="node27" class="node">
<title>Node26</title>
<polygon fill="#ffffff" stroke="#bfbfbf" points="796.5,-280.5 796.5,-299.5 825.5,-299.5 825.5,-280.5 796.5,-280.5"/>
<text text-anchor="middle" x="811" y="-287.5" font-family="Helvetica,sans-Serif" font-size="10.00" fill="#000000">list</text>
</g>
<!-- Node0&#45;&gt;Node26 -->
<g id="edge41" class="edge">
<title>Node0&#45;&gt;Node26</title>
<path fill="none" stroke="#191970" d="M567.0251,-340.9068C621.8048,-334.5414 711.8642,-321.7497 787,-300 787.0976,-299.9718 787.1953,-299.9432 787.2931,-299.9145"/>
<polygon fill="#191970" stroke="#191970" points="788.2043,-303.3047 796.4657,-296.6714 785.8709,-296.705 788.2043,-303.3047"/>
</g>
<!-- Node27 -->
<g id="node28" class="node">
<title>Node27</title>
<polygon fill="#ffffff" stroke="#bfbfbf" points="844,-280.5 844,-299.5 894,-299.5 894,-280.5 844,-280.5"/>
<text text-anchor="middle" x="869" y="-287.5" font-family="Helvetica,sans-Serif" font-size="10.00" fill="#000000">optional</text>
</g>
<!-- Node0&#45;&gt;Node27 -->
<g id="edge42" class="edge">
<title>Node0&#45;&gt;Node27</title>
<path fill="none" stroke="#191970" d="M567.2417,-340.9699C628.2253,-334.3695 734.2823,-321.3039 833.9216,-299.9872"/>
<polygon fill="#191970" stroke="#191970" points="834.823,-303.373 843.8522,-297.8301 833.3371,-296.5326 834.823,-303.373"/>
</g>
<!-- Node2 -->
<g id="node3" class="node">
<title>Node2</title>
<g id="a_node3"><a xlink:href="_widget_8hpp.html" target="_top" xlink:title="Widget.hpp">
<polygon fill="#ffffff" stroke="#000000" points="0,-112.5 0,-131.5 66,-131.5 66,-112.5 0,-112.5"/>
<text text-anchor="middle" x="33" y="-119.5" font-family="Helvetica,sans-Serif" font-size="10.00" fill="#000000">Widget.hpp</text>
</a>
</g>
</g>
<!-- Node1&#45;&gt;Node2 -->
<g id="edge2" class="edge">
<title>Node1&#45;&gt;Node2</title>
<path fill="none" stroke="#191970" d="M174.1711,-280.4194C145.7346,-273.4315 110.5717,-261.97 83,-244 55.047,-225.7815 44.8921,-219.1747 33,-188 27.3846,-173.2795 27.8014,-155.3319 29.3904,-141.8705"/>
<polygon fill="#191970" stroke="#191970" points="32.8808,-142.1943 30.8942,-131.7874 25.9573,-141.1617 32.8808,-142.1943"/>
</g>
<!-- Node1&#45;&gt;Node6 -->
<g id="edge6" class="edge">
<title>Node1&#45;&gt;Node6</title>
<path fill="none" stroke="#191970" d="M208.9748,-280.2455C194.8592,-271.6534 174.0737,-259.0014 157.8101,-249.1018"/>
<polygon fill="#191970" stroke="#191970" points="159.2034,-245.8525 148.8415,-243.6427 155.5637,-251.8319 159.2034,-245.8525"/>
</g>
<!-- Node8 -->
<g id="node9" class="node">
<title>Node8</title>
<polygon fill="#ffffff" stroke="#bfbfbf" points="187.5,-112.5 187.5,-131.5 246.5,-131.5 246.5,-112.5 187.5,-112.5"/>
<text text-anchor="middle" x="217" y="-119.5" font-family="Helvetica,sans-Serif" font-size="10.00" fill="#000000">functional</text>
</g>
<!-- Node1&#45;&gt;Node8 -->
<g id="edge15" class="edge">
<title>Node1&#45;&gt;Node8</title>
<path fill="none" stroke="#191970" d="M224.547,-280.4862C223.2823,-253.9293 219.6936,-178.5651 217.9603,-142.1655"/>
<polygon fill="#191970" stroke="#191970" points="221.4398,-141.6501 217.468,-131.8279 214.4477,-141.9831 221.4398,-141.6501"/>
</g>
<!-- Node11 -->
<g id="node12" class="node">
<title>Node11</title>
<polygon fill="#ffffff" stroke="#bfbfbf" points="643,-112.5 643,-131.5 695,-131.5 695,-112.5 643,-112.5"/>
<text text-anchor="middle" x="669" y="-119.5" font-family="Helvetica,sans-Serif" font-size="10.00" fill="#000000">memory</text>
</g>
<!-- Node1&#45;&gt;Node11 -->
<g id="edge14" class="edge">
<title>Node1&#45;&gt;Node11</title>
<path fill="none" stroke="#191970" d="M296.5562,-284.0167C398.1184,-275.1051 574.7355,-257.9031 601,-244 630.229,-228.5276 634.1573,-217.0299 650,-188 657.854,-173.6086 662.7523,-155.6366 665.6042,-142.0821"/>
<polygon fill="#191970" stroke="#191970" points="669.1086,-142.3887 667.5385,-131.9108 662.2318,-141.0809 669.1086,-142.3887"/>
</g>
<!-- Node3 -->
<g id="node4" class="node">
<title>Node3</title>
<polygon fill="#ffffff" stroke="#bfbfbf" points="400,-56.5 400,-75.5 458,-75.5 458,-56.5 400,-56.5"/>
<text text-anchor="middle" x="429" y="-63.5" font-family="Helvetica,sans-Serif" font-size="10.00" fill="#000000">../CImg.h</text>
</g>
<!-- Node2&#45;&gt;Node3 -->
<g id="edge3" class="edge">
<title>Node2&#45;&gt;Node3</title>
<path fill="none" stroke="#191970" d="M66.0043,-116.6329C75.6655,-115.0965 86.2506,-113.447 96,-112 201.8698,-96.2869 326.9465,-79.4801 389.3808,-71.2102"/>
<polygon fill="#191970" stroke="#191970" points="390.1169,-74.6435 399.5717,-69.8626 389.1992,-67.7039 390.1169,-74.6435"/>
</g>
<!-- Node4 -->
<g id="node5" class="node">
<title>Node4</title>
<g id="a_node5"><a xlink:href="_events_8hpp.html" target="_top" xlink:title="Events.hpp">
<polygon fill="#ffffff" stroke="#000000" points="0,-56.5 0,-75.5 66,-75.5 66,-56.5 0,-56.5"/>
<text text-anchor="middle" x="33" y="-63.5" font-family="Helvetica,sans-Serif" font-size="10.00" fill="#000000">Events.hpp</text>
</a>
</g>
</g>
<!-- Node2&#45;&gt;Node4 -->
<g id="edge4" class="edge">
<title>Node2&#45;&gt;Node4</title>
<path fill="none" stroke="#191970" d="M33,-112.2455C33,-104.9382 33,-94.6944 33,-85.7046"/>
<polygon fill="#191970" stroke="#191970" points="36.5001,-85.6426 33,-75.6427 29.5001,-85.6427 36.5001,-85.6426"/>
</g>
<!-- Node5 -->
<g id="node6" class="node">
<title>Node5</title>
<polygon fill="#ffffff" stroke="#bfbfbf" points="10,-.5 10,-19.5 56,-19.5 56,-.5 10,-.5"/>
<text text-anchor="middle" x="33" y="-7.5" font-family="Helvetica,sans-Serif" font-size="10.00" fill="#000000">variant</text>
</g>
<!-- Node4&#45;&gt;Node5 -->
<g id="edge5" class="edge">
<title>Node4&#45;&gt;Node5</title>
<path fill="none" stroke="#191970" d="M33,-56.2455C33,-48.9382 33,-38.6944 33,-29.7046"/>
<polygon fill="#191970" stroke="#191970" points="36.5001,-29.6426 33,-19.6427 29.5001,-29.6427 36.5001,-29.6426"/>
</g>
<!-- Node6&#45;&gt;Node2 -->
<g id="edge7" class="edge">
<title>Node6&#45;&gt;Node2</title>
<path fill="none" stroke="#191970" d="M100.1522,-224.4916C81.4825,-217.4064 59.2546,-205.8227 46,-188 36.1015,-174.6901 33.185,-155.8334 32.55,-141.6818"/>
<polygon fill="#191970" stroke="#191970" points="36.0483,-141.4984 32.4401,-131.5369 29.0488,-141.5743 36.0483,-141.4984"/>
</g>
<!-- Node7 -->
<g id="node8" class="node">
<title>Node7</title>
<g id="a_node8"><a xlink:href="_button_widget_8hpp.html" target="_top" xlink:title="ButtonWidget.hpp">
<polygon fill="#ffffff" stroke="#000000" points="55.5,-168.5 55.5,-187.5 150.5,-187.5 150.5,-168.5 55.5,-168.5"/>
<text text-anchor="middle" x="103" y="-175.5" font-family="Helvetica,sans-Serif" font-size="10.00" fill="#000000">ButtonWidget.hpp</text>
</a>
</g>
</g>
<!-- Node6&#45;&gt;Node7 -->
<g id="edge8" class="edge">
<title>Node6&#45;&gt;Node7</title>
<path fill="none" stroke="#191970" d="M127.7744,-224.2455C123.6877,-216.617 117.8865,-205.7881 112.925,-196.5267"/>
<polygon fill="#191970" stroke="#191970" points="115.9732,-194.8047 108.1657,-187.6427 109.8028,-198.1103 115.9732,-194.8047"/>
</g>
<!-- Node6&#45;&gt;Node9 -->
<g id="edge12" class="edge">
<title>Node6&#45;&gt;Node9</title>
<path fill="none" stroke="#191970" d="M141.3132,-224.3023C151.1915,-211.559 165.5605,-188.3998 159,-168 155.6054,-157.4445 148.7942,-147.2592 142.2369,-139.1676"/>
<polygon fill="#191970" stroke="#191970" points="144.8431,-136.8307 135.6492,-131.5654 139.553,-141.4149 144.8431,-136.8307"/>
</g>
<!-- Node10 -->
<g id="node11" class="node">
<title>Node10</title>
<polygon fill="#ffffff" stroke="#bfbfbf" points="283,-168.5 283,-187.5 327,-187.5 327,-168.5 283,-168.5"/>
<text text-anchor="middle" x="305" y="-175.5" font-family="Helvetica,sans-Serif" font-size="10.00" fill="#000000">vector</text>
</g>
<!-- Node6&#45;&gt;Node10 -->
<g id="edge13" class="edge">
<title>Node6&#45;&gt;Node10</title>
<path fill="none" stroke="#191970" d="M162.5679,-224.3733C193.4223,-214.3276 241.6275,-198.6329 273.2657,-188.3321"/>
<polygon fill="#191970" stroke="#191970" points="274.4876,-191.6152 282.9127,-185.1912 272.3204,-184.9591 274.4876,-191.6152"/>
</g>
<!-- Node7&#45;&gt;Node2 -->
<g id="edge9" class="edge">
<title>Node7&#45;&gt;Node2</title>
<path fill="none" stroke="#191970" d="M90.8069,-168.2455C80.3679,-159.8943 65.1345,-147.7076 52.926,-137.9408"/>
<polygon fill="#191970" stroke="#191970" points="55.0485,-135.1566 45.0533,-131.6427 50.6756,-140.6227 55.0485,-135.1566"/>
</g>
<!-- Node7&#45;&gt;Node8 -->
<g id="edge10" class="edge">
<title>Node7&#45;&gt;Node8</title>
<path fill="none" stroke="#191970" d="M122.5973,-168.3733C140.7331,-159.4644 167.9135,-146.1127 188.4587,-136.0203"/>
<polygon fill="#191970" stroke="#191970" points="190.2261,-139.0517 197.6584,-131.5011 187.1397,-132.7688 190.2261,-139.0517"/>
</g>
<!-- Node7&#45;&gt;Node9 -->
<g id="edge11" class="edge">
<title>Node7&#45;&gt;Node9</title>
<path fill="none" stroke="#191970" d="M107.0063,-168.2455C110.0735,-160.7776 114.4003,-150.2427 118.1497,-141.1137"/>
<polygon fill="#191970" stroke="#191970" points="121.4779,-142.2226 122.0396,-131.6427 115.0028,-139.5631 121.4779,-142.2226"/>
</g>
<!-- Node12&#45;&gt;Node8 -->
<g id="edge23" class="edge">
<title>Node12&#45;&gt;Node8</title>
<path fill="none" stroke="#191970" d="M413.793,-280.4969C383.1402,-264.0248 320.0686,-228.068 274,-188 257.3196,-173.4923 241.1237,-154.0627 230.2862,-140.0456"/>
<polygon fill="#191970" stroke="#191970" points="232.8125,-137.5838 223.987,-131.722 227.2308,-141.8081 232.8125,-137.5838"/>
</g>
<!-- Node13 -->
<g id="node14" class="node">
<title>Node13</title>
<g id="a_node14"><a xlink:href="_collection_8hpp.html" target="_top" xlink:title="Collection.hpp">
<polygon fill="#ffffff" stroke="#000000" points="717.5,-224.5 717.5,-243.5 796.5,-243.5 796.5,-224.5 717.5,-224.5"/>
<text text-anchor="middle" x="757" y="-231.5" font-family="Helvetica,sans-Serif" font-size="10.00" fill="#000000">Collection.hpp</text>
</a>
</g>
</g>
<!-- Node12&#45;&gt;Node13 -->
<g id="edge17" class="edge">
<title>Node12&#45;&gt;Node13</title>
<path fill="none" stroke="#191970" d="M487.2274,-280.4873C541.2208,-271.1866 625.7612,-256.6226 699,-244 701.692,-243.536 704.4543,-243.0599 707.2429,-242.5792"/>
<polygon fill="#191970" stroke="#191970" points="708.1166,-245.9803 717.3766,-240.8323 706.9273,-239.0821 708.1166,-245.9803"/>
</g>
<!-- Node14 -->
<g id="node15" class="node">
<title>Node14</title>
<g id="a_node15"><a xlink:href="_collection_iterator_8hpp.html" target="_top" xlink:title="CollectionIterator.hpp">
<polygon fill="#ffffff" stroke="#000000" points="789,-168.5 789,-187.5 899,-187.5 899,-168.5 789,-168.5"/>
<text text-anchor="middle" x="844" y="-175.5" font-family="Helvetica,sans-Serif" font-size="10.00" fill="#000000">CollectionIterator.hpp</text>
</a>
</g>
</g>
<!-- Node13&#45;&gt;Node14 -->
<g id="edge18" class="edge">
<title>Node13&#45;&gt;Node14</title>
<path fill="none" stroke="#191970" d="M772.1542,-224.2455C785.5027,-215.6534 805.1586,-203.0014 820.5383,-193.1018"/>
<polygon fill="#191970" stroke="#191970" points="822.5051,-195.9982 829.0194,-187.6427 818.7164,-190.1121 822.5051,-195.9982"/>
</g>
<!-- Node16 -->
<g id="node17" class="node">
<title>Node16</title>
<polygon fill="#ffffff" stroke="#bfbfbf" points="751.5,-112.5 751.5,-131.5 798.5,-131.5 798.5,-112.5 751.5,-112.5"/>
<text text-anchor="middle" x="775" y="-119.5" font-family="Helvetica,sans-Serif" font-size="10.00" fill="#000000">iterator</text>
</g>
<!-- Node13&#45;&gt;Node16 -->
<g id="edge22" class="edge">
<title>Node13&#45;&gt;Node16</title>
<path fill="none" stroke="#191970" d="M758.5347,-224.4509C761.4704,-206.184 767.9358,-165.9553 771.8343,-141.6976"/>
<polygon fill="#191970" stroke="#191970" points="775.338,-141.9536 773.4692,-131.5249 768.4267,-140.8428 775.338,-141.9536"/>
</g>
<!-- Node14&#45;&gt;Node11 -->
<g id="edge21" class="edge">
<title>Node14&#45;&gt;Node11</title>
<path fill="none" stroke="#191970" d="M813.9164,-168.3733C783.7584,-158.7227 737.3081,-143.8586 705.1616,-133.5717"/>
<polygon fill="#191970" stroke="#191970" points="705.8568,-130.1194 695.2658,-130.4051 703.7233,-136.7864 705.8568,-130.1194"/>
</g>
<!-- Node15 -->
<g id="node16" class="node">
<title>Node15</title>
<polygon fill="#ffffff" stroke="#bfbfbf" points="817,-112.5 817,-131.5 879,-131.5 879,-112.5 817,-112.5"/>
<text text-anchor="middle" x="848" y="-119.5" font-family="Helvetica,sans-Serif" font-size="10.00" fill="#000000">type_traits</text>
</g>
<!-- Node14&#45;&gt;Node15 -->
<g id="edge19" class="edge">
<title>Node14&#45;&gt;Node15</title>
<path fill="none" stroke="#191970" d="M844.6967,-168.2455C845.2187,-160.9382 845.9504,-150.6944 846.5925,-141.7046"/>
<polygon fill="#191970" stroke="#191970" points="850.0898,-141.8667 847.3112,-131.6427 843.1076,-141.3679 850.0898,-141.8667"/>
</g>
<!-- Node14&#45;&gt;Node16 -->
<g id="edge20" class="edge">
<title>Node14&#45;&gt;Node16</title>
<path fill="none" stroke="#191970" d="M831.9811,-168.2455C821.7902,-159.9746 806.9638,-147.9416 794.9893,-138.2232"/>
<polygon fill="#191970" stroke="#191970" points="796.8514,-135.2268 786.8812,-131.6427 792.4402,-140.662 796.8514,-135.2268"/>
</g>
<!-- Node17&#45;&gt;Node10 -->
<g id="edge27" class="edge">
<title>Node17&#45;&gt;Node10</title>
<path fill="none" stroke="#191970" d="M576.6779,-280.4509C522.7067,-260.0981 396.4386,-212.4819 337.0049,-190.0692"/>
<polygon fill="#191970" stroke="#191970" points="337.9797,-186.6963 327.3879,-186.4426 335.5097,-193.246 337.9797,-186.6963"/>
</g>
<!-- Node17&#45;&gt;Node13 -->
<g id="edge25" class="edge">
<title>Node17&#45;&gt;Node13</title>
<path fill="none" stroke="#191970" d="M628.6454,-280.3733C654.1964,-271.1419 692.9512,-257.1402 721.1909,-246.9375"/>
<polygon fill="#191970" stroke="#191970" points="722.4865,-250.1909 730.7022,-243.5011 720.1079,-243.6074 722.4865,-250.1909"/>
</g>
<!-- Node17&#45;&gt;Node14 -->
<g id="edge26" class="edge">
<title>Node17&#45;&gt;Node14</title>
<path fill="none" stroke="#191970" d="M671.068,-280.4871C721.5292,-272.4301 784.7008,-259.6961 806,-244 821.5882,-232.5125 831.7775,-212.5682 837.6435,-197.6027"/>
<polygon fill="#191970" stroke="#191970" points="841.0857,-198.3721 841.1661,-187.7776 834.4964,-196.0096 841.0857,-198.3721"/>
</g>
<!-- Node18&#45;&gt;Node3 -->
<g id="edge34" class="edge">
<title>Node18&#45;&gt;Node3</title>
<path fill="none" stroke="#191970" d="M578.749,-224.4595C636.6224,-206.017 746.9947,-162.7839 704,-112 688.9451,-94.2177 540.9903,-77.1643 468.5524,-69.8013"/>
<polygon fill="#191970" stroke="#191970" points="468.7371,-66.3024 458.4376,-68.7864 468.0381,-73.2674 468.7371,-66.3024"/>
</g>
<!-- Node18&#45;&gt;Node11 -->
<g id="edge37" class="edge">
<title>Node18&#45;&gt;Node11</title>
<path fill="none" stroke="#191970" d="M569.9654,-224.4544C587.5211,-216.5955 611.1304,-204.1329 628,-188 642.1206,-174.4961 653.3876,-155.1448 660.5097,-140.886"/>
<polygon fill="#191970" stroke="#191970" points="663.8109,-142.0938 664.9447,-131.5598 657.4893,-139.0876 663.8109,-142.0938"/>
</g>
<!-- Node19 -->
<g id="node20" class="node">
<title>Node19</title>
<g id="a_node20"><a xlink:href="_tag_list_8hpp.html" target="_top" xlink:title="TagList.hpp">
<polygon fill="#ffffff" stroke="#000000" points="551,-168.5 551,-187.5 619,-187.5 619,-168.5 551,-168.5"/>
<text text-anchor="middle" x="585" y="-175.5" font-family="Helvetica,sans-Serif" font-size="10.00" fill="#000000">TagList.hpp</text>
</a>
</g>
</g>
<!-- Node18&#45;&gt;Node19 -->
<g id="edge30" class="edge">
<title>Node18&#45;&gt;Node19</title>
<path fill="none" stroke="#191970" d="M552.7933,-224.2455C558.2178,-216.4564 565.9661,-205.3308 572.5033,-195.9439"/>
<polygon fill="#191970" stroke="#191970" points="575.4417,-197.849 578.2846,-187.6427 569.6975,-193.8485 575.4417,-197.849"/>
</g>
<!-- Node22 -->
<g id="node23" class="node">
<title>Node22</title>
<polygon fill="#ffffff" stroke="#bfbfbf" points="345,-168.5 345,-187.5 465,-187.5 465,-168.5 345,-168.5"/>
<text text-anchor="middle" x="405" y="-175.5" font-family="Helvetica,sans-Serif" font-size="10.00" fill="#000000">experimental/filesystem</text>
</g>
<!-- Node18&#45;&gt;Node22 -->
<g id="edge35" class="edge">
<title>Node18&#45;&gt;Node22</title>
<path fill="none" stroke="#191970" d="M521.7612,-224.3733C498.7211,-215.2226 463.8786,-201.3844 438.2499,-191.2057"/>
<polygon fill="#191970" stroke="#191970" points="439.5082,-187.9395 428.9225,-187.5011 436.9244,-194.4452 439.5082,-187.9395"/>
</g>
<!-- Node23 -->
<g id="node24" class="node">
<title>Node23</title>
<polygon fill="#ffffff" stroke="#bfbfbf" points="483,-168.5 483,-187.5 533,-187.5 533,-168.5 483,-168.5"/>
<text text-anchor="middle" x="508" y="-175.5" font-family="Helvetica,sans-Serif" font-size="10.00" fill="#000000">fstream</text>
</g>
<!-- Node18&#45;&gt;Node23 -->
<g id="edge36" class="edge">
<title>Node18&#45;&gt;Node23</title>
<path fill="none" stroke="#191970" d="M539.3809,-224.2455C534.0954,-216.4564 526.5459,-205.3308 520.1762,-195.9439"/>
<polygon fill="#191970" stroke="#191970" points="523.0545,-193.9522 514.5432,-187.6427 517.2621,-197.8827 523.0545,-193.9522"/>
</g>
<!-- Node19&#45;&gt;Node9 -->
<g id="edge31" class="edge">
<title>Node19&#45;&gt;Node9</title>
<path fill="none" stroke="#191970" d="M550.8126,-169.6272C547.8416,-169.0279 544.8736,-168.4742 542,-168 381.602,-141.5324 338.8778,-155.3746 178,-132 171.0318,-130.9876 163.5783,-129.6858 156.5538,-128.3584"/>
<polygon fill="#191970" stroke="#191970" points="157.1614,-124.911 146.6755,-126.4261 155.8176,-131.7808 157.1614,-124.911"/>
</g>
<!-- Node20 -->
<g id="node21" class="node">
<title>Node20</title>
<polygon fill="#ffffff" stroke="#bfbfbf" points="522,-112.5 522,-131.5 552,-131.5 552,-112.5 522,-112.5"/>
<text text-anchor="middle" x="537" y="-119.5" font-family="Helvetica,sans-Serif" font-size="10.00" fill="#000000">set</text>
</g>
<!-- Node19&#45;&gt;Node20 -->
<g id="edge32" class="edge">
<title>Node19&#45;&gt;Node20</title>
<path fill="none" stroke="#191970" d="M576.639,-168.2455C569.825,-160.2958 560.0319,-148.8706 551.8848,-139.3656"/>
<polygon fill="#191970" stroke="#191970" points="554.4305,-136.9575 545.2651,-131.6427 549.1157,-141.513 554.4305,-136.9575"/>
</g>
<!-- Node21 -->
<g id="node22" class="node">
<title>Node21</title>
<polygon fill="#ffffff" stroke="#bfbfbf" points="570,-112.5 570,-131.5 616,-131.5 616,-112.5 570,-112.5"/>
<text text-anchor="middle" x="593" y="-119.5" font-family="Helvetica,sans-Serif" font-size="10.00" fill="#000000">cctype</text>
</g>
<!-- Node19&#45;&gt;Node21 -->
<g id="edge33" class="edge">
<title>Node19&#45;&gt;Node21</title>
<path fill="none" stroke="#191970" d="M586.3935,-168.2455C587.4374,-160.9382 588.9008,-150.6944 590.1851,-141.7046"/>
<polygon fill="#191970" stroke="#191970" points="593.673,-142.0372 591.6225,-131.6427 586.7434,-141.0472 593.673,-142.0372"/>
</g>
</g>
</svg>
