<?xml version="1.0" encoding="UTF-8" standalone="no"?>
<!DOCTYPE svg PUBLIC "-//W3C//DTD SVG 1.1//EN"
 "http://www.w3.org/Graphics/SVG/1.1/DTD/svg11.dtd">
<!-- Generated by graphviz version 2.40.1 (20161225.0304)
 -->
<!-- Title: src/Application.cpp Pages: 1 -->
<svg width="2185pt" height="420pt"
 viewBox="0.00 0.00 2184.83 420.00" xmlns="http://www.w3.org/2000/svg" xmlns:xlink="http://www.w3.org/1999/xlink">
<g id="graph0" class="graph" transform="scale(1 1) rotate(0) translate(4 416)">
<title>src/Application.cpp</title>
<polygon fill="#ffffff" stroke="transparent" points="-4,4 -4,-416 2180.8315,-416 2180.8315,4 -4,4"/>
<!-- Node0 -->
<g id="node1" class="node">
<title>Node0</title>
<polygon fill="#bfbfbf" stroke="#000000" points="1583.8315,-392.5 1583.8315,-411.5 1683.8315,-411.5 1683.8315,-392.5 1583.8315,-392.5"/>
<text text-anchor="middle" x="1633.8315" y="-399.5" font-family="Helvetica,sans-Serif" font-size="10.00" fill="#000000">src/Application.cpp</text>
</g>
<!-- Node1 -->
<g id="node2" class="node">
<title>Node1</title>
<g id="a_node2"><a xlink:href="_application_8hpp.html" target="_top" xlink:title="Application.hpp">
<polygon fill="#ffffff" stroke="#000000" points="1102.3315,-336.5 1102.3315,-355.5 1185.3315,-355.5 1185.3315,-336.5 1102.3315,-336.5"/>
<text text-anchor="middle" x="1143.8315" y="-343.5" font-family="Helvetica,sans-Serif" font-size="10.00" fill="#000000">Application.hpp</text>
</a>
</g>
</g>
<!-- Node0&#45;&gt;Node1 -->
<g id="edge1" class="edge">
<title>Node0&#45;&gt;Node1</title>
<path fill="none" stroke="#191970" d="M1583.6957,-396.2702C1490.2427,-385.5899 1290.3413,-362.744 1195.6366,-351.9206"/>
<polygon fill="#191970" stroke="#191970" points="1195.7734,-348.4135 1185.4406,-350.7553 1194.9785,-355.3682 1195.7734,-348.4135"/>
</g>
<!-- Node23 -->
<g id="node24" class="node">
<title>Node23</title>
<polygon fill="#ffffff" stroke="#bfbfbf" points="1960.8315,-168.5 1960.8315,-187.5 2080.8315,-187.5 2080.8315,-168.5 1960.8315,-168.5"/>
<text text-anchor="middle" x="2020.8315" y="-175.5" font-family="Helvetica,sans-Serif" font-size="10.00" fill="#000000">experimental/filesystem</text>
</g>
<!-- Node0&#45;&gt;Node23 -->
<g id="edge83" class="edge">
<title>Node0&#45;&gt;Node23</title>
<path fill="none" stroke="#191970" d="M1683.9117,-399.1557C1779.382,-393.2467 1979.9221,-378.3077 2001.8315,-356 2043.6703,-313.4006 2033.4115,-234.4865 2025.6874,-197.7586"/>
<polygon fill="#191970" stroke="#191970" points="2029.0547,-196.7813 2023.4321,-187.8015 2022.2277,-198.3277 2029.0547,-196.7813"/>
</g>
<!-- Node29 -->
<g id="node30" class="node">
<title>Node29</title>
<g id="a_node30"><a xlink:href="_menu_bar_widget_8hpp.html" target="_top" xlink:title="Interface/MenuBarWidget.hpp">
<polygon fill="#ffffff" stroke="#000000" points="1560.8315,-280.5 1560.8315,-299.5 1706.8315,-299.5 1706.8315,-280.5 1560.8315,-280.5"/>
<text text-anchor="middle" x="1633.8315" y="-287.5" font-family="Helvetica,sans-Serif" font-size="10.00" fill="#000000">Interface/MenuBarWidget.hpp</text>
</a>
</g>
</g>
<!-- Node0&#45;&gt;Node29 -->
<g id="edge44" class="edge">
<title>Node0&#45;&gt;Node29</title>
<path fill="none" stroke="#191970" d="M1633.8315,-392.4509C1633.8315,-374.184 1633.8315,-333.9553 1633.8315,-309.6976"/>
<polygon fill="#191970" stroke="#191970" points="1637.3316,-309.5249 1633.8315,-299.5249 1630.3316,-309.5249 1637.3316,-309.5249"/>
</g>
<!-- Node30 -->
<g id="node31" class="node">
<title>Node30</title>
<g id="a_node31"><a xlink:href="_tag_setter_widget_8hpp.html" target="_top" xlink:title="Interface/TagSetterWidget.hpp">
<polygon fill="#ffffff" stroke="#000000" points="578.8315,-280.5 578.8315,-299.5 728.8315,-299.5 728.8315,-280.5 578.8315,-280.5"/>
<text text-anchor="middle" x="653.8315" y="-287.5" font-family="Helvetica,sans-Serif" font-size="10.00" fill="#000000">Interface/TagSetterWidget.hpp</text>
</a>
</g>
</g>
<!-- Node0&#45;&gt;Node30 -->
<g id="edge48" class="edge">
<title>Node0&#45;&gt;Node30</title>
<path fill="none" stroke="#191970" d="M1583.7502,-398.8239C1488.1342,-392.5203 1273.0458,-377.1862 1092.8315,-356 959.8815,-340.3703 805.2541,-315.5677 719.5649,-301.2341"/>
<polygon fill="#191970" stroke="#191970" points="719.9042,-297.7422 709.4629,-299.5393 718.7459,-304.6457 719.9042,-297.7422"/>
</g>
<!-- Node31 -->
<g id="node32" class="node">
<title>Node31</title>
<g id="a_node32"><a xlink:href="_tag_viewer_widget_8hpp.html" target="_top" xlink:title="Interface/TagViewerWidget.hpp">
<polygon fill="#ffffff" stroke="#000000" points="1350.8315,-280.5 1350.8315,-299.5 1504.8315,-299.5 1504.8315,-280.5 1350.8315,-280.5"/>
<text text-anchor="middle" x="1427.8315" y="-287.5" font-family="Helvetica,sans-Serif" font-size="10.00" fill="#000000">Interface/TagViewerWidget.hpp</text>
</a>
</g>
</g>
<!-- Node0&#45;&gt;Node31 -->
<g id="edge53" class="edge">
<title>Node0&#45;&gt;Node31</title>
<path fill="none" stroke="#191970" d="M1583.8284,-396.9551C1549.6131,-391.4383 1504.6756,-379.9336 1471.8315,-356 1455.3735,-344.007 1443.2478,-323.8473 1435.9408,-308.9574"/>
<polygon fill="#191970" stroke="#191970" points="1439.0196,-307.2755 1431.658,-299.656 1432.6613,-310.2032 1439.0196,-307.2755"/>
</g>
<!-- Node32 -->
<g id="node33" class="node">
<title>Node32</title>
<g id="a_node33"><a xlink:href="_grid_widget_8hpp.html" target="_top" xlink:title="Interface/GridWidget.hpp">
<polygon fill="#ffffff" stroke="#000000" points="416.3315,-336.5 416.3315,-355.5 541.3315,-355.5 541.3315,-336.5 416.3315,-336.5"/>
<text text-anchor="middle" x="478.8315" y="-343.5" font-family="Helvetica,sans-Serif" font-size="10.00" fill="#000000">Interface/GridWidget.hpp</text>
</a>
</g>
</g>
<!-- Node0&#45;&gt;Node32 -->
<g id="edge56" class="edge">
<title>Node0&#45;&gt;Node32</title>
<path fill="none" stroke="#191970" d="M1583.4599,-399.5577C1400.0878,-390.667 767.6314,-360.0024 551.7312,-349.5345"/>
<polygon fill="#191970" stroke="#191970" points="551.6205,-346.0251 541.4627,-349.0367 551.2814,-353.0169 551.6205,-346.0251"/>
</g>
<!-- Node34 -->
<g id="node35" class="node">
<title>Node34</title>
<polygon fill="#ffffff" stroke="#bfbfbf" points="1.8315,-224.5 1.8315,-243.5 47.8315,-243.5 47.8315,-224.5 1.8315,-224.5"/>
<text text-anchor="middle" x="24.8315" y="-231.5" font-family="Helvetica,sans-Serif" font-size="10.00" fill="#000000">chrono</text>
</g>
<!-- Node0&#45;&gt;Node34 -->
<g id="edge81" class="edge">
<title>Node0&#45;&gt;Node34</title>
<path fill="none" stroke="#191970" d="M1583.7491,-401.201C1374.7057,-397.719 570.9747,-382.8287 318.8315,-356 178.3047,-341.0476 96.5345,-408.3713 5.8315,-300 -5.4685,-286.4988 2.5876,-266.6154 11.4306,-252.2036"/>
<polygon fill="#191970" stroke="#191970" points="14.5054,-253.9021 17.1599,-243.6452 8.6885,-250.0081 14.5054,-253.9021"/>
</g>
<!-- Node35 -->
<g id="node36" class="node">
<title>Node35</title>
<g id="a_node36"><a xlink:href="_layout_widget_8hpp.html" target="_top" xlink:title="Interface/LayoutWidget.hpp">
<polygon fill="#ffffff" stroke="#000000" points="1581.3315,-168.5 1581.3315,-187.5 1718.3315,-187.5 1718.3315,-168.5 1581.3315,-168.5"/>
<text text-anchor="middle" x="1649.8315" y="-175.5" font-family="Helvetica,sans-Serif" font-size="10.00" fill="#000000">Interface/LayoutWidget.hpp</text>
</a>
</g>
</g>
<!-- Node0&#45;&gt;Node35 -->
<g id="edge67" class="edge">
<title>Node0&#45;&gt;Node35</title>
<path fill="none" stroke="#191970" d="M1684.0229,-393.5358C1723.6874,-385.7034 1774.3773,-372.7493 1786.8315,-356 1821.8373,-308.9217 1821.0824,-271.6304 1786.8315,-224 1776.9751,-210.2933 1739.6208,-198.2854 1706.4036,-189.978"/>
<polygon fill="#191970" stroke="#191970" points="1706.8057,-186.4742 1696.2627,-187.5209 1705.1573,-193.2774 1706.8057,-186.4742"/>
</g>
<!-- Node36 -->
<g id="node37" class="node">
<title>Node36</title>
<g id="a_node37"><a xlink:href="_utilities_8hpp.html" target="_top" xlink:title="Utilities/Utilities.hpp">
<polygon fill="#ffffff" stroke="#000000" points="1480.8315,-336.5 1480.8315,-355.5 1584.8315,-355.5 1584.8315,-336.5 1480.8315,-336.5"/>
<text text-anchor="middle" x="1532.8315" y="-343.5" font-family="Helvetica,sans-Serif" font-size="10.00" fill="#000000">Utilities/Utilities.hpp</text>
</a>
</g>
</g>
<!-- Node0&#45;&gt;Node36 -->
<g id="edge70" class="edge">
<title>Node0&#45;&gt;Node36</title>
<path fill="none" stroke="#191970" d="M1616.2387,-392.2455C1600.4525,-383.4928 1577.0676,-370.527 1559.0728,-360.5496"/>
<polygon fill="#191970" stroke="#191970" points="1560.6656,-357.4308 1550.2228,-355.6427 1557.2712,-363.5528 1560.6656,-357.4308"/>
</g>
<!-- Node37 -->
<g id="node38" class="node">
<title>Node37</title>
<g id="a_node38"><a xlink:href="_file_dialog_8hpp.html" target="_top" xlink:title="Specifique/FileDialog.hpp">
<polygon fill="#ffffff" stroke="#000000" points="2048.8315,-224.5 2048.8315,-243.5 2176.8315,-243.5 2176.8315,-224.5 2048.8315,-224.5"/>
<text text-anchor="middle" x="2112.8315" y="-231.5" font-family="Helvetica,sans-Serif" font-size="10.00" fill="#000000">Specifique/FileDialog.hpp</text>
</a>
</g>
</g>
<!-- Node0&#45;&gt;Node37 -->
<g id="edge73" class="edge">
<title>Node0&#45;&gt;Node37</title>
<path fill="none" stroke="#191970" d="M1684.0824,-392.748C1723.0638,-384.892 1778.1382,-372.2992 1824.8315,-356 1844.7311,-349.0537 1848.5428,-344.4967 1867.8315,-336 1943.0171,-302.8806 2032.3309,-266.4114 2079.6125,-247.3279"/>
<polygon fill="#191970" stroke="#191970" points="2081.0768,-250.5113 2089.0436,-243.527 2078.4602,-244.0187 2081.0768,-250.5113"/>
</g>
<!-- Node38 -->
<g id="node39" class="node">
<title>Node38</title>
<g id="a_node39"><a xlink:href="_scroll_widget_8hpp.html" target="_top" xlink:title="Interface/ScrollWidget.hpp">
<polygon fill="#ffffff" stroke="#000000" points="1392.8315,-168.5 1392.8315,-187.5 1524.8315,-187.5 1524.8315,-168.5 1392.8315,-168.5"/>
<text text-anchor="middle" x="1458.8315" y="-175.5" font-family="Helvetica,sans-Serif" font-size="10.00" fill="#000000">Interface/ScrollWidget.hpp</text>
</a>
</g>
</g>
<!-- Node0&#45;&gt;Node38 -->
<g id="edge76" class="edge">
<title>Node0&#45;&gt;Node38</title>
<path fill="none" stroke="#191970" d="M1663.0575,-392.3916C1680.9993,-385.0763 1703.0964,-373.2831 1716.8315,-356 1738.3077,-328.9763 1750.472,-309.6702 1732.8315,-280 1709.7599,-241.1951 1586.457,-207.0697 1513.3551,-189.8566"/>
<polygon fill="#191970" stroke="#191970" points="1513.9216,-186.395 1503.3889,-187.5412 1512.3375,-193.2135 1513.9216,-186.395"/>
</g>
<!-- Node39 -->
<g id="node40" class="node">
<title>Node39</title>
<g id="a_node40"><a xlink:href="_text_box_8hpp.html" target="_top" xlink:title="Utilities/TextBox/TextBox.hpp">
<polygon fill="#ffffff" stroke="#000000" points="1472.8315,-224.5 1472.8315,-243.5 1620.8315,-243.5 1620.8315,-224.5 1472.8315,-224.5"/>
<text text-anchor="middle" x="1546.8315" y="-231.5" font-family="Helvetica,sans-Serif" font-size="10.00" fill="#000000">Utilities/TextBox/TextBox.hpp</text>
</a>
</g>
</g>
<!-- Node0&#45;&gt;Node39 -->
<g id="edge79" class="edge">
<title>Node0&#45;&gt;Node39</title>
<path fill="none" stroke="#191970" d="M1649.2763,-392.2332C1680.6812,-371.1736 1746.513,-320.1489 1715.8315,-280 1704.002,-264.5202 1661.6721,-253.012 1622.3396,-245.3778"/>
<polygon fill="#191970" stroke="#191970" points="1622.8983,-241.9216 1612.4248,-243.5203 1621.6093,-248.8019 1622.8983,-241.9216"/>
</g>
<!-- Node40 -->
<g id="node41" class="node">
<title>Node40</title>
<polygon fill="#ffffff" stroke="#bfbfbf" points="1876.8315,-336.5 1876.8315,-355.5 1920.8315,-355.5 1920.8315,-336.5 1876.8315,-336.5"/>
<text text-anchor="middle" x="1898.8315" y="-343.5" font-family="Helvetica,sans-Serif" font-size="10.00" fill="#000000">thread</text>
</g>
<!-- Node0&#45;&gt;Node40 -->
<g id="edge82" class="edge">
<title>Node0&#45;&gt;Node40</title>
<path fill="none" stroke="#191970" d="M1684.0936,-392.9918C1730.6444,-384.3916 1801.6989,-370.6102 1862.8315,-356 1864.1091,-355.6947 1865.4098,-355.3751 1866.722,-355.0454"/>
<polygon fill="#191970" stroke="#191970" points="1868.0329,-358.3196 1876.8126,-352.3894 1866.2511,-351.5502 1868.0329,-358.3196"/>
</g>
<!-- Node41 -->
<g id="node42" class="node">
<title>Node41</title>
<polygon fill="#ffffff" stroke="#bfbfbf" points="1938.8315,-336.5 1938.8315,-355.5 1992.8315,-355.5 1992.8315,-336.5 1938.8315,-336.5"/>
<text text-anchor="middle" x="1965.8315" y="-343.5" font-family="Helvetica,sans-Serif" font-size="10.00" fill="#000000">iostream</text>
</g>
<!-- Node0&#45;&gt;Node41 -->
<g id="edge84" class="edge">
<title>Node0&#45;&gt;Node41</title>
<path fill="none" stroke="#191970" d="M1683.9126,-396.0308C1740.9614,-388.8284 1837.115,-375.4684 1928.7879,-356.0261"/>
<polygon fill="#191970" stroke="#191970" points="1929.7477,-359.3999 1938.7889,-353.8766 1928.2767,-352.5562 1929.7477,-359.3999"/>
</g>
<!-- Node42 -->
<g id="node43" class="node">
<title>Node42</title>
<g id="a_node43"><a xlink:href="_tag_selector_8hpp.html" target="_top" xlink:title="Interface/TagSelector.hpp">
<polygon fill="#ffffff" stroke="#000000" points="126.3315,-280.5 126.3315,-299.5 255.3315,-299.5 255.3315,-280.5 126.3315,-280.5"/>
<text text-anchor="middle" x="190.8315" y="-287.5" font-family="Helvetica,sans-Serif" font-size="10.00" fill="#000000">Interface/TagSelector.hpp</text>
</a>
</g>
</g>
<!-- Node0&#45;&gt;Node42 -->
<g id="edge85" class="edge">
<title>Node0&#45;&gt;Node42</title>
<path fill="none" stroke="#191970" d="M1583.6433,-401.8484C1383.0854,-400.9754 638.8447,-395.1126 406.8315,-356 340.4296,-344.806 265.9137,-318.9297 224.0518,-303.1072"/>
<polygon fill="#191970" stroke="#191970" points="225.2249,-299.8087 214.6343,-299.5084 222.7261,-306.3475 225.2249,-299.8087"/>
</g>
<!-- Node2 -->
<g id="node3" class="node">
<title>Node2</title>
<g id="a_node3"><a xlink:href="_window_widget_8hpp.html" target="_top" xlink:title="Interface/WindowWidget.hpp">
<polygon fill="#ffffff" stroke="#000000" points="910.3315,-280.5 910.3315,-299.5 1053.3315,-299.5 1053.3315,-280.5 910.3315,-280.5"/>
<text text-anchor="middle" x="981.8315" y="-287.5" font-family="Helvetica,sans-Serif" font-size="10.00" fill="#000000">Interface/WindowWidget.hpp</text>
</a>
</g>
</g>
<!-- Node1&#45;&gt;Node2 -->
<g id="edge2" class="edge">
<title>Node1&#45;&gt;Node2</title>
<path fill="none" stroke="#191970" d="M1115.9827,-336.3733C1089.1612,-327.1016 1048.4188,-313.0178 1018.8717,-302.804"/>
<polygon fill="#191970" stroke="#191970" points="1019.9117,-299.4603 1009.3169,-299.5011 1017.6247,-306.0762 1019.9117,-299.4603"/>
</g>
<!-- Node7 -->
<g id="node8" class="node">
<title>Node7</title>
<g id="a_node8"><a xlink:href="_list_widget_8hpp.html" target="_top" xlink:title="ListWidget.hpp">
<polygon fill="#ffffff" stroke="#000000" points="989.8315,-224.5 989.8315,-243.5 1071.8315,-243.5 1071.8315,-224.5 989.8315,-224.5"/>
<text text-anchor="middle" x="1030.8315" y="-231.5" font-family="Helvetica,sans-Serif" font-size="10.00" fill="#000000">ListWidget.hpp</text>
</a>
</g>
</g>
<!-- Node1&#45;&gt;Node7 -->
<g id="edge29" class="edge">
<title>Node1&#45;&gt;Node7</title>
<path fill="none" stroke="#191970" d="M1174.2103,-336.4131C1205.4702,-324.9571 1247.082,-304.2633 1227.8315,-280 1209.9759,-257.4947 1134.4923,-244.9679 1082.3254,-238.8568"/>
<polygon fill="#191970" stroke="#191970" points="1082.5558,-235.3607 1072.2268,-237.719 1081.7721,-242.3167 1082.5558,-235.3607"/>
</g>
<!-- Node10 -->
<g id="node11" class="node">
<title>Node10</title>
<polygon fill="#ffffff" stroke="#bfbfbf" points="1143.3315,-112.5 1143.3315,-131.5 1184.3315,-131.5 1184.3315,-112.5 1143.3315,-112.5"/>
<text text-anchor="middle" x="1163.8315" y="-119.5" font-family="Helvetica,sans-Serif" font-size="10.00" fill="#000000">string</text>
</g>
<!-- Node1&#45;&gt;Node10 -->
<g id="edge40" class="edge">
<title>Node1&#45;&gt;Node10</title>
<path fill="none" stroke="#191970" d="M1185.3529,-338.2557C1207.0234,-331.8791 1231.6957,-320.4166 1244.8315,-300 1263.1141,-271.5838 1204.0004,-179.7501 1176.7911,-140.2929"/>
<polygon fill="#191970" stroke="#191970" points="1179.5099,-138.0728 1170.9186,-131.8727 1173.7684,-142.0771 1179.5099,-138.0728"/>
</g>
<!-- Node13 -->
<g id="node14" class="node">
<title>Node13</title>
<g id="a_node14"><a xlink:href="_filtered_collection_8hpp.html" target="_top" xlink:title="Collection/FilteredCollection.hpp">
<polygon fill="#ffffff" stroke="#000000" points="273.8315,-280.5 273.8315,-299.5 431.8315,-299.5 431.8315,-280.5 273.8315,-280.5"/>
<text text-anchor="middle" x="352.8315" y="-287.5" font-family="Helvetica,sans-Serif" font-size="10.00" fill="#000000">Collection/FilteredCollection.hpp</text>
</a>
</g>
</g>
<!-- Node1&#45;&gt;Node13 -->
<g id="edge17" class="edge">
<title>Node1&#45;&gt;Node13</title>
<path fill="none" stroke="#191970" d="M1102.1404,-343.0484C978.6424,-334.3052 612.7326,-308.4001 442.1907,-296.3263"/>
<polygon fill="#191970" stroke="#191970" points="442.2095,-292.819 431.9873,-295.6039 441.7151,-299.8015 442.2095,-292.819"/>
</g>
<!-- Node18 -->
<g id="node19" class="node">
<title>Node18</title>
<g id="a_node19"><a xlink:href="_collection_pool_8hpp.html" target="_top" xlink:title="Collection/CollectionPool.hpp">
<polygon fill="#ffffff" stroke="#000000" points="747.3315,-280.5 747.3315,-299.5 892.3315,-299.5 892.3315,-280.5 747.3315,-280.5"/>
<text text-anchor="middle" x="819.8315" y="-287.5" font-family="Helvetica,sans-Serif" font-size="10.00" fill="#000000">Collection/CollectionPool.hpp</text>
</a>
</g>
</g>
<!-- Node1&#45;&gt;Node18 -->
<g id="edge25" class="edge">
<title>Node1&#45;&gt;Node18</title>
<path fill="none" stroke="#191970" d="M1102.1375,-338.7936C1047.1403,-329.2879 949.7636,-312.4574 885.0008,-301.2638"/>
<polygon fill="#191970" stroke="#191970" points="885.3484,-297.7721 874.8983,-299.5177 884.1561,-304.6698 885.3484,-297.7721"/>
</g>
<!-- Node19 -->
<g id="node20" class="node">
<title>Node19</title>
<g id="a_node20"><a xlink:href="_image_8hpp.html" target="_top" xlink:title="Image/Image.hpp">
<polygon fill="#ffffff" stroke="#000000" points="1248.8315,-224.5 1248.8315,-243.5 1340.8315,-243.5 1340.8315,-224.5 1248.8315,-224.5"/>
<text text-anchor="middle" x="1294.8315" y="-231.5" font-family="Helvetica,sans-Serif" font-size="10.00" fill="#000000">Image/Image.hpp</text>
</a>
</g>
</g>
<!-- Node1&#45;&gt;Node19 -->
<g id="edge30" class="edge">
<title>Node1&#45;&gt;Node19</title>
<path fill="none" stroke="#191970" d="M1185.6783,-339.3187C1226.7747,-331.802 1285.2324,-318.2212 1298.8315,-300 1308.68,-286.8043 1306.2364,-267.6757 1302.1836,-253.4054"/>
<polygon fill="#191970" stroke="#191970" points="1305.41,-252.0142 1298.9475,-243.6185 1298.7639,-254.2118 1305.41,-252.0142"/>
</g>
<!-- Node25 -->
<g id="node26" class="node">
<title>Node25</title>
<polygon fill="#ffffff" stroke="#bfbfbf" points="526.3315,-280.5 526.3315,-299.5 561.3315,-299.5 561.3315,-280.5 526.3315,-280.5"/>
<text text-anchor="middle" x="543.8315" y="-287.5" font-family="Helvetica,sans-Serif" font-size="10.00" fill="#000000">map</text>
</g>
<!-- Node1&#45;&gt;Node25 -->
<g id="edge39" class="edge">
<title>Node1&#45;&gt;Node25</title>
<path fill="none" stroke="#191970" d="M1101.9656,-344.2047C990.7795,-339.1959 689.0849,-323.9754 571.341,-299.7204"/>
<polygon fill="#191970" stroke="#191970" points="572.0403,-296.2907 561.5238,-297.5766 570.5469,-303.1295 572.0403,-296.2907"/>
</g>
<!-- Node26 -->
<g id="node27" class="node">
<title>Node26</title>
<polygon fill="#ffffff" stroke="#bfbfbf" points="1186.8315,-280.5 1186.8315,-299.5 1218.8315,-299.5 1218.8315,-280.5 1186.8315,-280.5"/>
<text text-anchor="middle" x="1202.8315" y="-287.5" font-family="Helvetica,sans-Serif" font-size="10.00" fill="#000000">any</text>
</g>
<!-- Node1&#45;&gt;Node26 -->
<g id="edge41" class="edge">
<title>Node1&#45;&gt;Node26</title>
<path fill="none" stroke="#191970" d="M1154.1085,-336.2455C1162.6533,-328.1352 1175.0093,-316.4075 1185.14,-306.7919"/>
<polygon fill="#191970" stroke="#191970" points="1187.8287,-309.0655 1192.6723,-299.6427 1183.0097,-303.9884 1187.8287,-309.0655"/>
</g>
<!-- Node27 -->
<g id="node28" class="node">
<title>Node27</title>
<polygon fill="#ffffff" stroke="#bfbfbf" points="1071.3315,-280.5 1071.3315,-299.5 1100.3315,-299.5 1100.3315,-280.5 1071.3315,-280.5"/>
<text text-anchor="middle" x="1085.8315" y="-287.5" font-family="Helvetica,sans-Serif" font-size="10.00" fill="#000000">list</text>
</g>
<!-- Node1&#45;&gt;Node27 -->
<g id="edge42" class="edge">
<title>Node1&#45;&gt;Node27</title>
<path fill="none" stroke="#191970" d="M1133.7287,-336.2455C1125.3287,-328.1352 1113.1822,-316.4075 1103.2231,-306.7919"/>
<polygon fill="#191970" stroke="#191970" points="1105.4437,-304.0707 1095.8186,-299.6427 1100.5815,-309.1066 1105.4437,-304.0707"/>
</g>
<!-- Node28 -->
<g id="node29" class="node">
<title>Node28</title>
<polygon fill="#ffffff" stroke="#bfbfbf" points="1118.8315,-280.5 1118.8315,-299.5 1168.8315,-299.5 1168.8315,-280.5 1118.8315,-280.5"/>
<text text-anchor="middle" x="1143.8315" y="-287.5" font-family="Helvetica,sans-Serif" font-size="10.00" fill="#000000">optional</text>
</g>
<!-- Node1&#45;&gt;Node28 -->
<g id="edge43" class="edge">
<title>Node1&#45;&gt;Node28</title>
<path fill="none" stroke="#191970" d="M1143.8315,-336.2455C1143.8315,-328.9382 1143.8315,-318.6944 1143.8315,-309.7046"/>
<polygon fill="#191970" stroke="#191970" points="1147.3316,-309.6426 1143.8315,-299.6427 1140.3316,-309.6427 1147.3316,-309.6426"/>
</g>
<!-- Node3 -->
<g id="node4" class="node">
<title>Node3</title>
<g id="a_node4"><a xlink:href="_widget_8hpp.html" target="_top" xlink:title="Widget.hpp">
<polygon fill="#ffffff" stroke="#000000" points="921.8315,-112.5 921.8315,-131.5 987.8315,-131.5 987.8315,-112.5 921.8315,-112.5"/>
<text text-anchor="middle" x="954.8315" y="-119.5" font-family="Helvetica,sans-Serif" font-size="10.00" fill="#000000">Widget.hpp</text>
</a>
</g>
</g>
<!-- Node2&#45;&gt;Node3 -->
<g id="edge3" class="edge">
<title>Node2&#45;&gt;Node3</title>
<path fill="none" stroke="#191970" d="M979.4348,-280.2188C975.0872,-262.1261 965.8845,-222.1606 960.8315,-188 958.5658,-172.6827 957.0241,-155.2303 956.0714,-142.1208"/>
<polygon fill="#191970" stroke="#191970" points="959.5459,-141.6234 955.3823,-131.881 952.5617,-142.0935 959.5459,-141.6234"/>
</g>
<!-- Node2&#45;&gt;Node7 -->
<g id="edge7" class="edge">
<title>Node2&#45;&gt;Node7</title>
<path fill="none" stroke="#191970" d="M990.3667,-280.2455C997.3227,-272.2958 1007.3198,-260.8706 1015.6366,-251.3656"/>
<polygon fill="#191970" stroke="#191970" points="1018.4431,-253.4732 1022.3942,-243.6427 1013.1751,-248.8637 1018.4431,-253.4732"/>
</g>
<!-- Node9 -->
<g id="node10" class="node">
<title>Node9</title>
<polygon fill="#ffffff" stroke="#bfbfbf" points="326.3315,-112.5 326.3315,-131.5 385.3315,-131.5 385.3315,-112.5 326.3315,-112.5"/>
<text text-anchor="middle" x="355.8315" y="-119.5" font-family="Helvetica,sans-Serif" font-size="10.00" fill="#000000">functional</text>
</g>
<!-- Node2&#45;&gt;Node9 -->
<g id="edge16" class="edge">
<title>Node2&#45;&gt;Node9</title>
<path fill="none" stroke="#191970" d="M943.3926,-280.4878C887.858,-266.9263 781.8521,-241.7179 690.8315,-224 593.1482,-204.9851 563.2063,-222.4204 469.8315,-188 453.74,-182.0682 451.6228,-176.6799 436.8315,-168 418.5262,-157.258 397.701,-145.4402 381.7508,-136.4728"/>
<polygon fill="#191970" stroke="#191970" points="383.4126,-133.392 372.9787,-131.552 379.9879,-139.497 383.4126,-133.392"/>
</g>
<!-- Node12 -->
<g id="node13" class="node">
<title>Node12</title>
<polygon fill="#ffffff" stroke="#bfbfbf" points="1479.8315,-112.5 1479.8315,-131.5 1531.8315,-131.5 1531.8315,-112.5 1479.8315,-112.5"/>
<text text-anchor="middle" x="1505.8315" y="-119.5" font-family="Helvetica,sans-Serif" font-size="10.00" fill="#000000">memory</text>
</g>
<!-- Node2&#45;&gt;Node12 -->
<g id="edge15" class="edge">
<title>Node2&#45;&gt;Node12</title>
<path fill="none" stroke="#191970" d="M1002.7213,-280.374C1022.7788,-271.1125 1053.916,-256.6853 1080.8315,-244 1151.6815,-210.6084 1165.2062,-191.7862 1239.8315,-168 1319.621,-142.5678 1417.6218,-130.2275 1469.5364,-125.0935"/>
<polygon fill="#191970" stroke="#191970" points="1469.9671,-128.5684 1479.5889,-124.1331 1469.3013,-121.6001 1469.9671,-128.5684"/>
</g>
<!-- Node4 -->
<g id="node5" class="node">
<title>Node4</title>
<polygon fill="#ffffff" stroke="#bfbfbf" points="1150.8315,-56.5 1150.8315,-75.5 1208.8315,-75.5 1208.8315,-56.5 1150.8315,-56.5"/>
<text text-anchor="middle" x="1179.8315" y="-63.5" font-family="Helvetica,sans-Serif" font-size="10.00" fill="#000000">../CImg.h</text>
</g>
<!-- Node3&#45;&gt;Node4 -->
<g id="edge4" class="edge">
<title>Node3&#45;&gt;Node4</title>
<path fill="none" stroke="#191970" d="M988.031,-113.737C1028.7718,-103.5971 1097.7432,-86.4309 1140.9296,-75.6823"/>
<polygon fill="#191970" stroke="#191970" points="1141.9326,-79.0395 1150.7912,-73.2278 1140.2419,-72.2467 1141.9326,-79.0395"/>
</g>
<!-- Node5 -->
<g id="node6" class="node">
<title>Node5</title>
<g id="a_node6"><a xlink:href="_events_8hpp.html" target="_top" xlink:title="Events.hpp">
<polygon fill="#ffffff" stroke="#000000" points="696.8315,-56.5 696.8315,-75.5 762.8315,-75.5 762.8315,-56.5 696.8315,-56.5"/>
<text text-anchor="middle" x="729.8315" y="-63.5" font-family="Helvetica,sans-Serif" font-size="10.00" fill="#000000">Events.hpp</text>
</a>
</g>
</g>
<!-- Node3&#45;&gt;Node5 -->
<g id="edge5" class="edge">
<title>Node3&#45;&gt;Node5</title>
<path fill="none" stroke="#191970" d="M921.632,-113.737C882.2493,-103.9351 816.4866,-87.5675 773.1361,-76.778"/>
<polygon fill="#191970" stroke="#191970" points="773.7166,-73.3158 763.1673,-74.2969 772.0259,-80.1086 773.7166,-73.3158"/>
</g>
<!-- Node6 -->
<g id="node7" class="node">
<title>Node6</title>
<polygon fill="#ffffff" stroke="#bfbfbf" points="706.8315,-.5 706.8315,-19.5 752.8315,-19.5 752.8315,-.5 706.8315,-.5"/>
<text text-anchor="middle" x="729.8315" y="-7.5" font-family="Helvetica,sans-Serif" font-size="10.00" fill="#000000">variant</text>
</g>
<!-- Node5&#45;&gt;Node6 -->
<g id="edge6" class="edge">
<title>Node5&#45;&gt;Node6</title>
<path fill="none" stroke="#191970" d="M729.8315,-56.2455C729.8315,-48.9382 729.8315,-38.6944 729.8315,-29.7046"/>
<polygon fill="#191970" stroke="#191970" points="733.3316,-29.6426 729.8315,-19.6427 726.3316,-29.6427 733.3316,-29.6426"/>
</g>
<!-- Node7&#45;&gt;Node3 -->
<g id="edge8" class="edge">
<title>Node7&#45;&gt;Node3</title>
<path fill="none" stroke="#191970" d="M1013.9911,-224.3871C1001.1954,-216.2545 984.0998,-203.4679 973.8315,-188 964.5691,-174.0473 959.7511,-155.538 957.2887,-141.672"/>
<polygon fill="#191970" stroke="#191970" points="960.7397,-141.0846 955.779,-131.7229 953.8189,-142.1348 960.7397,-141.0846"/>
</g>
<!-- Node8 -->
<g id="node9" class="node">
<title>Node8</title>
<g id="a_node9"><a xlink:href="_button_widget_8hpp.html" target="_top" xlink:title="ButtonWidget.hpp">
<polygon fill="#ffffff" stroke="#000000" points="983.3315,-168.5 983.3315,-187.5 1078.3315,-187.5 1078.3315,-168.5 983.3315,-168.5"/>
<text text-anchor="middle" x="1030.8315" y="-175.5" font-family="Helvetica,sans-Serif" font-size="10.00" fill="#000000">ButtonWidget.hpp</text>
</a>
</g>
</g>
<!-- Node7&#45;&gt;Node8 -->
<g id="edge9" class="edge">
<title>Node7&#45;&gt;Node8</title>
<path fill="none" stroke="#191970" d="M1030.8315,-224.2455C1030.8315,-216.9382 1030.8315,-206.6944 1030.8315,-197.7046"/>
<polygon fill="#191970" stroke="#191970" points="1034.3316,-197.6426 1030.8315,-187.6427 1027.3316,-197.6427 1034.3316,-197.6426"/>
</g>
<!-- Node7&#45;&gt;Node10 -->
<g id="edge13" class="edge">
<title>Node7&#45;&gt;Node10</title>
<path fill="none" stroke="#191970" d="M1042.9079,-224.2019C1054.2903,-214.9382 1071.7962,-200.6166 1086.8315,-188 1106.7465,-171.2888 1129.3044,-151.8983 1144.8313,-138.4787"/>
<polygon fill="#191970" stroke="#191970" points="1147.4014,-140.8832 1152.6725,-131.6926 1142.8205,-135.5901 1147.4014,-140.8832"/>
</g>
<!-- Node11 -->
<g id="node12" class="node">
<title>Node11</title>
<polygon fill="#ffffff" stroke="#bfbfbf" points="844.8315,-168.5 844.8315,-187.5 888.8315,-187.5 888.8315,-168.5 844.8315,-168.5"/>
<text text-anchor="middle" x="866.8315" y="-175.5" font-family="Helvetica,sans-Serif" font-size="10.00" fill="#000000">vector</text>
</g>
<!-- Node7&#45;&gt;Node11 -->
<g id="edge14" class="edge">
<title>Node7&#45;&gt;Node11</title>
<path fill="none" stroke="#191970" d="M1002.6389,-224.3733C973.6761,-214.4835 928.6788,-199.1186 898.5053,-188.8154"/>
<polygon fill="#191970" stroke="#191970" points="899.4799,-185.4499 888.8854,-185.5306 897.2179,-192.0743 899.4799,-185.4499"/>
</g>
<!-- Node8&#45;&gt;Node3 -->
<g id="edge10" class="edge">
<title>Node8&#45;&gt;Node3</title>
<path fill="none" stroke="#191970" d="M1017.5933,-168.2455C1006.1506,-159.814 989.4019,-147.4729 976.0841,-137.6598"/>
<polygon fill="#191970" stroke="#191970" points="978.0448,-134.757 967.918,-131.6427 973.8924,-140.3924 978.0448,-134.757"/>
</g>
<!-- Node8&#45;&gt;Node9 -->
<g id="edge11" class="edge">
<title>Node8&#45;&gt;Node9</title>
<path fill="none" stroke="#191970" d="M983.0556,-174.3991C863.2545,-165.3414 552.2733,-141.6474 448.8315,-132 431.4564,-130.3795 412.2812,-128.3575 395.8788,-126.5565"/>
<polygon fill="#191970" stroke="#191970" points="395.8719,-123.0344 385.5472,-125.4113 395.1007,-129.9917 395.8719,-123.0344"/>
</g>
<!-- Node8&#45;&gt;Node10 -->
<g id="edge12" class="edge">
<title>Node8&#45;&gt;Node10</title>
<path fill="none" stroke="#191970" d="M1053.695,-168.3733C1075.7587,-159.0833 1109.2964,-144.9621 1133.5657,-134.7435"/>
<polygon fill="#191970" stroke="#191970" points="1135.1567,-137.8713 1143.0149,-130.7649 1132.4403,-131.4198 1135.1567,-137.8713"/>
</g>
<!-- Node13&#45;&gt;Node9 -->
<g id="edge24" class="edge">
<title>Node13&#45;&gt;Node9</title>
<path fill="none" stroke="#191970" d="M353.0014,-280.4862C353.4756,-253.9293 354.8214,-178.5651 355.4714,-142.1655"/>
<polygon fill="#191970" stroke="#191970" points="358.9768,-141.8888 355.656,-131.8279 351.9779,-141.7638 358.9768,-141.8888"/>
</g>
<!-- Node14 -->
<g id="node15" class="node">
<title>Node14</title>
<g id="a_node15"><a xlink:href="_collection_8hpp.html" target="_top" xlink:title="Collection.hpp">
<polygon fill="#ffffff" stroke="#000000" points="603.3315,-224.5 603.3315,-243.5 682.3315,-243.5 682.3315,-224.5 603.3315,-224.5"/>
<text text-anchor="middle" x="642.8315" y="-231.5" font-family="Helvetica,sans-Serif" font-size="10.00" fill="#000000">Collection.hpp</text>
</a>
</g>
</g>
<!-- Node13&#45;&gt;Node14 -->
<g id="edge18" class="edge">
<title>Node13&#45;&gt;Node14</title>
<path fill="none" stroke="#191970" d="M402.3548,-280.4369C455.6989,-270.136 540.0781,-253.842 593.3904,-243.5473"/>
<polygon fill="#191970" stroke="#191970" points="594.1394,-246.9674 603.2944,-241.6348 592.8121,-240.0943 594.1394,-246.9674"/>
</g>
<!-- Node15 -->
<g id="node16" class="node">
<title>Node15</title>
<g id="a_node16"><a xlink:href="_collection_iterator_8hpp.html" target="_top" xlink:title="CollectionIterator.hpp">
<polygon fill="#ffffff" stroke="#000000" points="640.8315,-168.5 640.8315,-187.5 750.8315,-187.5 750.8315,-168.5 640.8315,-168.5"/>
<text text-anchor="middle" x="695.8315" y="-175.5" font-family="Helvetica,sans-Serif" font-size="10.00" fill="#000000">CollectionIterator.hpp</text>
</a>
</g>
</g>
<!-- Node14&#45;&gt;Node15 -->
<g id="edge19" class="edge">
<title>Node14&#45;&gt;Node15</title>
<path fill="none" stroke="#191970" d="M652.0634,-224.2455C659.6633,-216.2155 670.6192,-204.6394 679.6683,-195.0781"/>
<polygon fill="#191970" stroke="#191970" points="682.3736,-197.3115 686.7054,-187.6427 677.2895,-192.4998 682.3736,-197.3115"/>
</g>
<!-- Node17 -->
<g id="node18" class="node">
<title>Node17</title>
<polygon fill="#ffffff" stroke="#bfbfbf" points="594.3315,-112.5 594.3315,-131.5 641.3315,-131.5 641.3315,-112.5 594.3315,-112.5"/>
<text text-anchor="middle" x="617.8315" y="-119.5" font-family="Helvetica,sans-Serif" font-size="10.00" fill="#000000">iterator</text>
</g>
<!-- Node14&#45;&gt;Node17 -->
<g id="edge23" class="edge">
<title>Node14&#45;&gt;Node17</title>
<path fill="none" stroke="#191970" d="M640.3978,-224.1465C638.1185,-214.8437 634.6504,-200.4956 631.8315,-188 628.3276,-172.4676 624.5974,-154.8209 621.8691,-141.685"/>
<polygon fill="#191970" stroke="#191970" points="625.2898,-140.943 619.84,-131.8572 618.4344,-142.3584 625.2898,-140.943"/>
</g>
<!-- Node15&#45;&gt;Node12 -->
<g id="edge22" class="edge">
<title>Node15&#45;&gt;Node12</title>
<path fill="none" stroke="#191970" d="M751.0184,-174.0228C776.7867,-172.1748 807.8774,-169.958 835.8315,-168 1077.6642,-151.0614 1368.6435,-131.293 1469.4049,-124.4655"/>
<polygon fill="#191970" stroke="#191970" points="1469.9096,-127.9394 1479.6501,-123.7714 1469.4364,-120.9554 1469.9096,-127.9394"/>
</g>
<!-- Node16 -->
<g id="node17" class="node">
<title>Node16</title>
<polygon fill="#ffffff" stroke="#bfbfbf" points="664.8315,-112.5 664.8315,-131.5 726.8315,-131.5 726.8315,-112.5 664.8315,-112.5"/>
<text text-anchor="middle" x="695.8315" y="-119.5" font-family="Helvetica,sans-Serif" font-size="10.00" fill="#000000">type_traits</text>
</g>
<!-- Node15&#45;&gt;Node16 -->
<g id="edge20" class="edge">
<title>Node15&#45;&gt;Node16</title>
<path fill="none" stroke="#191970" d="M695.8315,-168.2455C695.8315,-160.9382 695.8315,-150.6944 695.8315,-141.7046"/>
<polygon fill="#191970" stroke="#191970" points="699.3316,-141.6426 695.8315,-131.6427 692.3316,-141.6427 699.3316,-141.6426"/>
</g>
<!-- Node15&#45;&gt;Node17 -->
<g id="edge21" class="edge">
<title>Node15&#45;&gt;Node17</title>
<path fill="none" stroke="#191970" d="M682.245,-168.2455C670.5011,-159.814 653.3116,-147.4729 639.6433,-137.6598"/>
<polygon fill="#191970" stroke="#191970" points="641.4269,-134.6316 631.2624,-131.6427 637.3444,-140.3179 641.4269,-134.6316"/>
</g>
<!-- Node18&#45;&gt;Node11 -->
<g id="edge28" class="edge">
<title>Node18&#45;&gt;Node11</title>
<path fill="none" stroke="#191970" d="M823.8387,-280.4509C831.5737,-262.0186 848.6923,-221.2254 858.8403,-197.043"/>
<polygon fill="#191970" stroke="#191970" points="862.1922,-198.1002 862.8345,-187.5249 855.7375,-195.3915 862.1922,-198.1002"/>
</g>
<!-- Node18&#45;&gt;Node14 -->
<g id="edge26" class="edge">
<title>Node18&#45;&gt;Node14</title>
<path fill="none" stroke="#191970" d="M789.4041,-280.3733C759.8443,-271.021 714.809,-256.7725 682.462,-246.5385"/>
<polygon fill="#191970" stroke="#191970" points="683.4518,-243.1807 672.8619,-243.5011 681.3403,-249.8546 683.4518,-243.1807"/>
</g>
<!-- Node18&#45;&gt;Node15 -->
<g id="edge27" class="edge">
<title>Node18&#45;&gt;Node15</title>
<path fill="none" stroke="#191970" d="M809.2593,-280.4509C788.1201,-261.3574 740.4159,-218.2697 714.1064,-194.5063"/>
<polygon fill="#191970" stroke="#191970" points="716.144,-191.6304 706.3769,-187.5249 711.452,-196.8251 716.144,-191.6304"/>
</g>
<!-- Node19&#45;&gt;Node4 -->
<g id="edge35" class="edge">
<title>Node19&#45;&gt;Node4</title>
<path fill="none" stroke="#191970" d="M1341.175,-230.7354C1450.2499,-222.8304 1715.0038,-202.2627 1727.8315,-188 1733.7757,-181.3909 1733.1393,-175.1302 1727.8315,-168 1666.892,-86.1373 1334.3888,-69.9293 1219.1638,-66.7594"/>
<polygon fill="#191970" stroke="#191970" points="1219.1091,-63.257 1209.0225,-66.4991 1218.9293,-70.2546 1219.1091,-63.257"/>
</g>
<!-- Node19&#45;&gt;Node12 -->
<g id="edge38" class="edge">
<title>Node19&#45;&gt;Node12</title>
<path fill="none" stroke="#191970" d="M1340.9409,-231.8833C1403.3933,-227.9393 1509.8504,-217.0368 1533.8315,-188 1545.6252,-173.72 1534.2495,-153.7429 1522.654,-139.5157"/>
<polygon fill="#191970" stroke="#191970" points="1525.1965,-137.1064 1515.9748,-131.89 1519.9307,-141.7186 1525.1965,-137.1064"/>
</g>
<!-- Node20 -->
<g id="node21" class="node">
<title>Node20</title>
<g id="a_node21"><a xlink:href="_tag_list_8hpp.html" target="_top" xlink:title="TagList.hpp">
<polygon fill="#ffffff" stroke="#000000" points="478.8315,-168.5 478.8315,-187.5 546.8315,-187.5 546.8315,-168.5 478.8315,-168.5"/>
<text text-anchor="middle" x="512.8315" y="-175.5" font-family="Helvetica,sans-Serif" font-size="10.00" fill="#000000">TagList.hpp</text>
</a>
</g>
</g>
<!-- Node19&#45;&gt;Node20 -->
<g id="edge31" class="edge">
<title>Node19&#45;&gt;Node20</title>
<path fill="none" stroke="#191970" d="M1248.5965,-231.0248C1140.5994,-224.0242 863.3555,-205.7587 631.8315,-188 607.1154,-186.1042 579.5285,-183.7979 557.1439,-181.8781"/>
<polygon fill="#191970" stroke="#191970" points="557.1958,-178.3697 546.9322,-180.9982 556.5948,-185.3439 557.1958,-178.3697"/>
</g>
<!-- Node19&#45;&gt;Node23 -->
<g id="edge36" class="edge">
<title>Node19&#45;&gt;Node23</title>
<path fill="none" stroke="#191970" d="M1341.0733,-230.4331C1464.6025,-220.9047 1802.9099,-194.8094 1950.4612,-183.428"/>
<polygon fill="#191970" stroke="#191970" points="1951.0485,-186.8932 1960.7496,-182.6344 1950.51,-179.9139 1951.0485,-186.8932"/>
</g>
<!-- Node24 -->
<g id="node25" class="node">
<title>Node24</title>
<polygon fill="#ffffff" stroke="#bfbfbf" points="1248.8315,-168.5 1248.8315,-187.5 1298.8315,-187.5 1298.8315,-168.5 1248.8315,-168.5"/>
<text text-anchor="middle" x="1273.8315" y="-175.5" font-family="Helvetica,sans-Serif" font-size="10.00" fill="#000000">fstream</text>
</g>
<!-- Node19&#45;&gt;Node24 -->
<g id="edge37" class="edge">
<title>Node19&#45;&gt;Node24</title>
<path fill="none" stroke="#191970" d="M1291.1736,-224.2455C1288.3731,-216.7776 1284.4225,-206.2427 1280.9992,-197.1137"/>
<polygon fill="#191970" stroke="#191970" points="1284.236,-195.777 1277.4475,-187.6427 1277.6817,-198.2349 1284.236,-195.777"/>
</g>
<!-- Node20&#45;&gt;Node10 -->
<g id="edge32" class="edge">
<title>Node20&#45;&gt;Node10</title>
<path fill="none" stroke="#191970" d="M546.9155,-175.068C660.355,-165.3098 1024.1203,-134.0182 1132.8521,-124.6649"/>
<polygon fill="#191970" stroke="#191970" points="1133.4687,-128.1249 1143.1319,-123.7806 1132.8687,-121.1506 1133.4687,-128.1249"/>
</g>
<!-- Node21 -->
<g id="node22" class="node">
<title>Node21</title>
<polygon fill="#ffffff" stroke="#bfbfbf" points="521.8315,-112.5 521.8315,-131.5 551.8315,-131.5 551.8315,-112.5 521.8315,-112.5"/>
<text text-anchor="middle" x="536.8315" y="-119.5" font-family="Helvetica,sans-Serif" font-size="10.00" fill="#000000">set</text>
</g>
<!-- Node20&#45;&gt;Node21 -->
<g id="edge33" class="edge">
<title>Node20&#45;&gt;Node21</title>
<path fill="none" stroke="#191970" d="M517.012,-168.2455C520.2125,-160.7776 524.7275,-150.2427 528.6399,-141.1137"/>
<polygon fill="#191970" stroke="#191970" points="531.9767,-142.2129 532.6989,-131.6427 525.5427,-139.4554 531.9767,-142.2129"/>
</g>
<!-- Node22 -->
<g id="node23" class="node">
<title>Node22</title>
<polygon fill="#ffffff" stroke="#bfbfbf" points="457.8315,-112.5 457.8315,-131.5 503.8315,-131.5 503.8315,-112.5 457.8315,-112.5"/>
<text text-anchor="middle" x="480.8315" y="-119.5" font-family="Helvetica,sans-Serif" font-size="10.00" fill="#000000">cctype</text>
</g>
<!-- Node20&#45;&gt;Node22 -->
<g id="edge34" class="edge">
<title>Node20&#45;&gt;Node22</title>
<path fill="none" stroke="#191970" d="M507.2575,-168.2455C502.8984,-160.617 496.7105,-149.7881 491.4182,-140.5267"/>
<polygon fill="#191970" stroke="#191970" points="494.3419,-138.5886 486.3416,-131.6427 488.2642,-142.0616 494.3419,-138.5886"/>
</g>
<!-- Node29&#45;&gt;Node3 -->
<g id="edge45" class="edge">
<title>Node29&#45;&gt;Node3</title>
<path fill="none" stroke="#191970" d="M1590.97,-280.4516C1556.2329,-272.2264 1506.2612,-259.284 1463.8315,-244 1407.3203,-223.6436 1393.9407,-216.0591 1340.8315,-188 1325.6677,-179.9886 1324.0156,-173.6744 1307.8315,-168 1251.597,-148.2833 1079.7766,-132.1689 998.4192,-125.4178"/>
<polygon fill="#191970" stroke="#191970" points="998.2792,-121.8947 988.0266,-124.5656 997.7071,-128.8713 998.2792,-121.8947"/>
</g>
<!-- Node29&#45;&gt;Node7 -->
<g id="edge46" class="edge">
<title>Node29&#45;&gt;Node7</title>
<path fill="none" stroke="#191970" d="M1560.7954,-283.2172C1437.1392,-271.7334 1189.5561,-248.7406 1082.3186,-238.7816"/>
<polygon fill="#191970" stroke="#191970" points="1082.3631,-235.2707 1072.0823,-237.8309 1081.7157,-242.2407 1082.3631,-235.2707"/>
</g>
<!-- Node29&#45;&gt;Node12 -->
<g id="edge47" class="edge">
<title>Node29&#45;&gt;Node12</title>
<path fill="none" stroke="#191970" d="M1651.2672,-280.3732C1686.7449,-259.5856 1761.2543,-209.0581 1727.8315,-168 1704.7898,-139.6944 1598.6238,-128.2588 1541.8635,-124.1058"/>
<polygon fill="#191970" stroke="#191970" points="1542.0895,-120.6131 1531.8713,-123.4126 1541.6051,-127.5963 1542.0895,-120.6131"/>
</g>
<!-- Node30&#45;&gt;Node3 -->
<g id="edge50" class="edge">
<title>Node30&#45;&gt;Node3</title>
<path fill="none" stroke="#191970" d="M688.8024,-280.478C712.4844,-272.9703 743.7285,-260.9256 767.8315,-244 804.9242,-217.9529 798.5488,-193.7744 835.8315,-168 858.8679,-152.0744 888.1772,-140.6591 911.9437,-133.1835"/>
<polygon fill="#191970" stroke="#191970" points="913.1951,-136.4618 921.7556,-130.2193 911.1707,-129.7609 913.1951,-136.4618"/>
</g>
<!-- Node30&#45;&gt;Node9 -->
<g id="edge49" class="edge">
<title>Node30&#45;&gt;Node9</title>
<path fill="none" stroke="#191970" d="M628.395,-280.4092C586.7689,-264.204 502.1926,-229.1197 436.8315,-188 413.5583,-173.3584 389.448,-152.9169 373.6511,-138.6768"/>
<polygon fill="#191970" stroke="#191970" points="375.9379,-136.0252 366.1965,-131.859 371.2136,-141.1907 375.9379,-136.0252"/>
</g>
<!-- Node30&#45;&gt;Node14 -->
<g id="edge51" class="edge">
<title>Node30&#45;&gt;Node14</title>
<path fill="none" stroke="#191970" d="M651.9155,-280.2455C650.4801,-272.9382 648.4679,-262.6944 646.7021,-253.7046"/>
<polygon fill="#191970" stroke="#191970" points="650.0875,-252.7805 644.7256,-243.6427 643.2188,-254.1298 650.0875,-252.7805"/>
</g>
<!-- Node30&#45;&gt;Node19 -->
<g id="edge52" class="edge">
<title>Node30&#45;&gt;Node19</title>
<path fill="none" stroke="#191970" d="M728.9226,-280.9245C731.9305,-280.6041 734.9091,-280.2945 737.8315,-280 920.5854,-261.5815 1137.6274,-245.2497 1238.3194,-237.9898"/>
<polygon fill="#191970" stroke="#191970" points="1238.8424,-241.4613 1248.5658,-237.2534 1238.3406,-234.4793 1238.8424,-241.4613"/>
</g>
<!-- Node31&#45;&gt;Node3 -->
<g id="edge55" class="edge">
<title>Node31&#45;&gt;Node3</title>
<path fill="none" stroke="#191970" d="M1375.4471,-280.4229C1337.2143,-272.6576 1284.4872,-260.3258 1239.8315,-244 1168.5206,-217.9292 1156.8189,-197.4399 1086.8315,-168 1056.6812,-155.3174 1021.6893,-143.2385 995.3113,-134.6432"/>
<polygon fill="#191970" stroke="#191970" points="996.2432,-131.2662 985.6515,-131.5255 994.0931,-137.9278 996.2432,-131.2662"/>
</g>
<!-- Node31&#45;&gt;Node19 -->
<g id="edge54" class="edge">
<title>Node31&#45;&gt;Node19</title>
<path fill="none" stroke="#191970" d="M1404.968,-280.3733C1383.4266,-271.3032 1350.9478,-257.6279 1326.8359,-247.4755"/>
<polygon fill="#191970" stroke="#191970" points="1327.9713,-244.156 1317.3967,-243.5011 1325.2548,-250.6075 1327.9713,-244.156"/>
</g>
<!-- Node32&#45;&gt;Node3 -->
<g id="edge57" class="edge">
<title>Node32&#45;&gt;Node3</title>
<path fill="none" stroke="#191970" d="M481.6338,-336.1792C486.3529,-321.5119 497.3337,-294.1031 516.8315,-280 580.8185,-233.717 617.6202,-273.6066 690.8315,-244 749.3569,-220.3323 753.6311,-194.7114 810.8315,-168 843.4833,-152.7523 882.5359,-140.6275 911.7293,-132.6623"/>
<polygon fill="#191970" stroke="#191970" points="912.86,-135.983 921.6175,-130.02 911.0529,-129.2203 912.86,-135.983"/>
</g>
<!-- Node32&#45;&gt;Node13 -->
<g id="edge65" class="edge">
<title>Node32&#45;&gt;Node13</title>
<path fill="none" stroke="#191970" d="M457.1713,-336.3733C436.8544,-327.3435 406.2676,-313.7494 383.4565,-303.6111"/>
<polygon fill="#191970" stroke="#191970" points="384.7687,-300.3642 374.209,-299.5011 381.9257,-306.7609 384.7687,-300.3642"/>
</g>
<!-- Node32&#45;&gt;Node14 -->
<g id="edge64" class="edge">
<title>Node32&#45;&gt;Node14</title>
<path fill="none" stroke="#191970" d="M476.4429,-336.2474C473.6144,-322.1604 470.787,-296.0522 483.8315,-280 490.956,-271.2328 549.3214,-255.8797 593.2888,-245.3397"/>
<polygon fill="#191970" stroke="#191970" points="594.3493,-248.6853 603.2702,-242.9696 592.7321,-241.8746 594.3493,-248.6853"/>
</g>
<!-- Node32&#45;&gt;Node25 -->
<g id="edge66" class="edge">
<title>Node32&#45;&gt;Node25</title>
<path fill="none" stroke="#191970" d="M490.1537,-336.2455C499.7538,-327.9746 513.7207,-315.9416 525.001,-306.2232"/>
<polygon fill="#191970" stroke="#191970" points="527.3475,-308.8214 532.6391,-299.6427 522.7785,-303.5182 527.3475,-308.8214"/>
</g>
<!-- Node33 -->
<g id="node34" class="node">
<title>Node33</title>
<g id="a_node34"><a xlink:href="_image_widget_8hpp.html" target="_top" xlink:title="ImageWidget.hpp">
<polygon fill="#ffffff" stroke="#000000" points="15.3315,-280.5 15.3315,-299.5 108.3315,-299.5 108.3315,-280.5 15.3315,-280.5"/>
<text text-anchor="middle" x="61.8315" y="-287.5" font-family="Helvetica,sans-Serif" font-size="10.00" fill="#000000">ImageWidget.hpp</text>
</a>
</g>
</g>
<!-- Node32&#45;&gt;Node33 -->
<g id="edge58" class="edge">
<title>Node32&#45;&gt;Node33</title>
<path fill="none" stroke="#191970" d="M416.232,-339.0746C346.0675,-331.0809 228.6779,-317.0158 118.5598,-300.21"/>
<polygon fill="#191970" stroke="#191970" points="119.0263,-296.7407 108.6107,-298.681 117.963,-303.6595 119.0263,-296.7407"/>
</g>
<!-- Node33&#45;&gt;Node3 -->
<g id="edge59" class="edge">
<title>Node33&#45;&gt;Node3</title>
<path fill="none" stroke="#191970" d="M87.6395,-280.3444C151.4477,-256.9012 322.1601,-196.7923 469.8315,-168 630.8097,-136.6132 826.1892,-126.3825 911.4914,-123.2662"/>
<polygon fill="#191970" stroke="#191970" points="911.7089,-126.7608 921.5801,-122.9124 911.4635,-119.7651 911.7089,-126.7608"/>
</g>
<!-- Node33&#45;&gt;Node5 -->
<g id="edge60" class="edge">
<title>Node33&#45;&gt;Node5</title>
<path fill="none" stroke="#191970" d="M71.4048,-280.3931C103.0202,-249.3653 208.277,-151.5594 316.8315,-112 384.0583,-87.5012 595.0537,-73.3507 686.6665,-68.2202"/>
<polygon fill="#191970" stroke="#191970" points="686.9192,-71.7117 696.7116,-67.6671 686.5343,-64.7223 686.9192,-71.7117"/>
</g>
<!-- Node33&#45;&gt;Node9 -->
<g id="edge63" class="edge">
<title>Node33&#45;&gt;Node9</title>
<path fill="none" stroke="#191970" d="M80.6343,-280.3771C98.3466,-271.2372 125.563,-256.9992 148.8315,-244 215.472,-206.7705 292.6098,-160.4284 331.1872,-137.024"/>
<polygon fill="#191970" stroke="#191970" points="333.4058,-139.7715 340.1343,-131.5875 329.7708,-133.7892 333.4058,-139.7715"/>
</g>
<!-- Node33&#45;&gt;Node19 -->
<g id="edge61" class="edge">
<title>Node33&#45;&gt;Node19</title>
<path fill="none" stroke="#191970" d="M108.5731,-281.0335C111.3616,-280.6442 114.1301,-280.2945 116.8315,-280 543.0493,-233.5341 652.4667,-262.0066 1080.8315,-244 1134.3274,-241.7513 1195.3299,-238.8694 1238.4797,-236.7775"/>
<polygon fill="#191970" stroke="#191970" points="1238.682,-240.2719 1248.5003,-236.2904 1238.3421,-233.2802 1238.682,-240.2719"/>
</g>
<!-- Node33&#45;&gt;Node34 -->
<g id="edge62" class="edge">
<title>Node33&#45;&gt;Node34</title>
<path fill="none" stroke="#191970" d="M55.3866,-280.2455C50.2933,-272.5367 43.0407,-261.5598 36.8795,-252.2348"/>
<polygon fill="#191970" stroke="#191970" points="39.6354,-250.0566 31.2026,-243.6427 33.795,-253.9155 39.6354,-250.0566"/>
</g>
<!-- Node35&#45;&gt;Node3 -->
<g id="edge68" class="edge">
<title>Node35&#45;&gt;Node3</title>
<path fill="none" stroke="#191970" d="M1581.1391,-172.0015C1565.5847,-170.6646 1549.1414,-169.2681 1533.8315,-168 1333.8108,-151.433 1094.816,-132.8206 998.3634,-125.3581"/>
<polygon fill="#191970" stroke="#191970" points="998.3667,-121.848 988.1266,-124.5666 997.827,-128.8272 998.3667,-121.848"/>
</g>
<!-- Node35&#45;&gt;Node12 -->
<g id="edge69" class="edge">
<title>Node35&#45;&gt;Node12</title>
<path fill="none" stroke="#191970" d="M1625.077,-168.3733C1601.5467,-159.2226 1565.9629,-145.3844 1539.7889,-135.2057"/>
<polygon fill="#191970" stroke="#191970" points="1540.8516,-131.8636 1530.263,-131.5011 1538.3144,-138.3877 1540.8516,-131.8636"/>
</g>
<!-- Node36&#45;&gt;Node18 -->
<g id="edge71" class="edge">
<title>Node36&#45;&gt;Node18</title>
<path fill="none" stroke="#191970" d="M1480.733,-343.0955C1374.1818,-336.9627 1123.4419,-321.5458 902.8206,-300.1578"/>
<polygon fill="#191970" stroke="#191970" points="902.9628,-296.6551 892.6701,-299.1674 902.283,-303.622 902.9628,-296.6551"/>
</g>
<!-- Node36&#45;&gt;Node19 -->
<g id="edge72" class="edge">
<title>Node36&#45;&gt;Node19</title>
<path fill="none" stroke="#191970" d="M1532.9714,-336.347C1532.625,-321.899 1529.7282,-294.7727 1513.8315,-280 1507.808,-274.4024 1413.9451,-256.0856 1351.0755,-244.3239"/>
<polygon fill="#191970" stroke="#191970" points="1351.3564,-240.816 1340.8843,-242.4238 1350.0734,-247.6974 1351.3564,-240.816"/>
</g>
<!-- Node37&#45;&gt;Node10 -->
<g id="edge75" class="edge">
<title>Node37&#45;&gt;Node10</title>
<path fill="none" stroke="#191970" d="M2112.6385,-224.4495C2111.7676,-209.6215 2107.7057,-181.3792 2089.8315,-168 2071.4876,-154.2692 1352.7732,-128.5582 1194.4671,-123.0541"/>
<polygon fill="#191970" stroke="#191970" points="1194.573,-119.5557 1184.4578,-122.7071 1194.3304,-126.5515 1194.573,-119.5557"/>
</g>
<!-- Node37&#45;&gt;Node23 -->
<g id="edge74" class="edge">
<title>Node37&#45;&gt;Node23</title>
<path fill="none" stroke="#191970" d="M2096.8063,-224.2455C2082.6907,-215.6534 2061.9052,-203.0014 2045.6416,-193.1018"/>
<polygon fill="#191970" stroke="#191970" points="2047.0349,-189.8525 2036.6731,-187.6427 2043.3952,-195.8319 2047.0349,-189.8525"/>
</g>
<!-- Node38&#45;&gt;Node3 -->
<g id="edge77" class="edge">
<title>Node38&#45;&gt;Node3</title>
<path fill="none" stroke="#191970" d="M1392.6834,-170.6502C1287.8493,-159.002 1086.3925,-136.6179 998.0937,-126.8069"/>
<polygon fill="#191970" stroke="#191970" points="998.2259,-123.3001 987.9006,-125.6743 997.4529,-130.2573 998.2259,-123.3001"/>
</g>
<!-- Node38&#45;&gt;Node12 -->
<g id="edge78" class="edge">
<title>Node38&#45;&gt;Node12</title>
<path fill="none" stroke="#191970" d="M1467.0183,-168.2455C1473.6904,-160.2958 1483.2794,-148.8706 1491.2568,-139.3656"/>
<polygon fill="#191970" stroke="#191970" points="1493.9907,-141.5525 1497.7386,-131.6427 1488.6289,-137.0524 1493.9907,-141.5525"/>
</g>
<!-- Node39&#45;&gt;Node10 -->
<g id="edge80" class="edge">
<title>Node39&#45;&gt;Node10</title>
<path fill="none" stroke="#191970" d="M1506.0628,-224.4277C1472.7368,-216.1444 1424.6327,-203.1347 1383.8315,-188 1364.0701,-180.6697 1360.6681,-175.1244 1340.8315,-168 1290.5179,-149.9296 1229.8181,-135.7301 1194.1608,-128.1269"/>
<polygon fill="#191970" stroke="#191970" points="1194.8733,-124.7002 1184.3675,-126.0707 1193.4349,-131.5509 1194.8733,-124.7002"/>
</g>
<!-- Node42&#45;&gt;Node3 -->
<g id="edge87" class="edge">
<title>Node42&#45;&gt;Node3</title>
<path fill="none" stroke="#191970" d="M255.4857,-280.6926C322.0016,-270.7898 420.9413,-255.0571 457.8315,-244 538.6669,-219.7713 550.6517,-191.0482 631.8315,-168 729.4407,-140.2873 848.6035,-128.8346 911.3608,-124.4556"/>
<polygon fill="#191970" stroke="#191970" points="911.9275,-127.9255 921.6712,-123.7648 911.4595,-120.9412 911.9275,-127.9255"/>
</g>
<!-- Node42&#45;&gt;Node9 -->
<g id="edge89" class="edge">
<title>Node42&#45;&gt;Node9</title>
<path fill="none" stroke="#191970" d="M200.1754,-280.4862C227.0484,-253.1246 304.8064,-173.9528 339.1682,-138.9663"/>
<polygon fill="#191970" stroke="#191970" points="341.6691,-141.4149 346.1791,-131.8279 336.6749,-136.5099 341.6691,-141.4149"/>
</g>
<!-- Node42&#45;&gt;Node14 -->
<g id="edge86" class="edge">
<title>Node42&#45;&gt;Node14</title>
<path fill="none" stroke="#191970" d="M255.3938,-281.1838C258.584,-280.7769 261.7435,-280.3802 264.8315,-280 408.6321,-262.2973 445.5055,-265.205 588.8315,-244 590.1313,-243.8077 591.4477,-243.6071 592.775,-243.3997"/>
<polygon fill="#191970" stroke="#191970" points="593.7777,-246.7817 603.0743,-241.7 592.6378,-239.8751 593.7777,-246.7817"/>
</g>
<!-- Node42&#45;&gt;Node20 -->
<g id="edge88" class="edge">
<title>Node42&#45;&gt;Node20</title>
<path fill="none" stroke="#191970" d="M255.4509,-280.8108C314.4409,-271.8082 396.8633,-257.5103 426.8315,-244 453.4232,-232.0119 479.3378,-210.349 495.6489,-195.1195"/>
<polygon fill="#191970" stroke="#191970" points="498.4591,-197.274 503.2558,-187.8272 493.6149,-192.2208 498.4591,-197.274"/>
</g>
</g>
</svg>
