<?xml version="1.0" encoding="UTF-8" standalone="no"?>
<!DOCTYPE svg PUBLIC "-//W3C//DTD SVG 1.1//EN"
 "http://www.w3.org/Graphics/SVG/1.1/DTD/svg11.dtd">
<!-- Generated by graphviz version 2.40.1 (20161225.0304)
 -->
<!-- Title: src/Application.hpp Pages: 1 -->
<svg width="200pt" height="84pt"
 viewBox="0.00 0.00 199.50 84.00" xmlns="http://www.w3.org/2000/svg" xmlns:xlink="http://www.w3.org/1999/xlink">
<g id="graph0" class="graph" transform="scale(1 1) rotate(0) translate(4 80)">
<title>src/Application.hpp</title>
<polygon fill="#ffffff" stroke="transparent" points="-4,4 -4,-80 195.5,-80 195.5,4 -4,4"/>
<!-- Node28 -->
<g id="node1" class="node">
<title>Node28</title>
<polygon fill="#bfbfbf" stroke="#000000" points="52,-56.5 52,-75.5 152,-75.5 152,-56.5 52,-56.5"/>
<text text-anchor="middle" x="102" y="-63.5" font-family="Helvetica,sans-Serif" font-size="10.00" fill="#000000">src/Application.hpp</text>
</g>
<!-- Node29 -->
<g id="node2" class="node">
<title>Node29</title>
<g id="a_node2"><a xlink:href="_application_8cpp.html" target="_top" xlink:title="src/Application.cpp">
<polygon fill="#ffffff" stroke="#000000" points="0,-.5 0,-19.5 100,-19.5 100,-.5 0,-.5"/>
<text text-anchor="middle" x="50" y="-7.5" font-family="Helvetica,sans-Serif" font-size="10.00" fill="#000000">src/Application.cpp</text>
</a>
</g>
</g>
<!-- Node28&#45;&gt;Node29 -->
<g id="edge1" class="edge">
<title>Node28&#45;&gt;Node29</title>
<path fill="none" stroke="#191970" d="M86.0178,-48.7884C77.1222,-39.2085 66.3796,-27.6396 58.9539,-19.6427"/>
<polygon fill="#191970" stroke="#191970" points="83.573,-51.2992 92.9423,-56.2455 88.7025,-46.536 83.573,-51.2992"/>
</g>
<!-- Node30 -->
<g id="node3" class="node">
<title>Node30</title>
<g id="a_node3"><a xlink:href="main_8cpp.html" target="_top" xlink:title="Contient la fonction main. ">
<polygon fill="#ffffff" stroke="#000000" points="118.5,-.5 118.5,-19.5 191.5,-19.5 191.5,-.5 118.5,-.5"/>
<text text-anchor="middle" x="155" y="-7.5" font-family="Helvetica,sans-Serif" font-size="10.00" fill="#000000">src/main.cpp</text>
</a>
</g>
</g>
<!-- Node28&#45;&gt;Node30 -->
<g id="edge2" class="edge">
<title>Node28&#45;&gt;Node30</title>
<path fill="none" stroke="#191970" d="M118.2896,-48.7884C127.3562,-39.2085 138.3054,-27.6396 145.8739,-19.6427"/>
<polygon fill="#191970" stroke="#191970" points="115.5637,-46.5767 111.2319,-56.2455 120.6478,-51.3884 115.5637,-46.5767"/>
</g>
</g>
</svg>
