<?xml version="1.0" encoding="UTF-8" standalone="no"?>
<!DOCTYPE svg PUBLIC "-//W3C//DTD SVG 1.1//EN"
 "http://www.w3.org/Graphics/SVG/1.1/DTD/svg11.dtd">
<!-- Generated by graphviz version 2.40.1 (20161225.0304)
 -->
<!-- Title: src/Interface/ButtonWidget.cpp Pages: 1 -->
<svg width="793pt" height="319pt"
 viewBox="0.00 0.00 793.00 319.00" xmlns="http://www.w3.org/2000/svg" xmlns:xlink="http://www.w3.org/1999/xlink">
<g id="graph0" class="graph" transform="scale(1 1) rotate(0) translate(4 315)">
<title>src/Interface/ButtonWidget.cpp</title>
<polygon fill="#ffffff" stroke="transparent" points="-4,4 -4,-315 789,-315 789,4 -4,4"/>
<!-- Node0 -->
<g id="node1" class="node">
<title>Node0</title>
<polygon fill="#bfbfbf" stroke="#000000" points="272,-291.5 272,-310.5 424,-310.5 424,-291.5 272,-291.5"/>
<text text-anchor="middle" x="348" y="-298.5" font-family="Helvetica,sans-Serif" font-size="10.00" fill="#000000">src/Interface/ButtonWidget.cpp</text>
</g>
<!-- Node1 -->
<g id="node2" class="node">
<title>Node1</title>
<g id="a_node2"><a xlink:href="_button_widget_8hpp.html" target="_top" xlink:title="ButtonWidget.hpp">
<polygon fill="#ffffff" stroke="#000000" points="95.5,-235.5 95.5,-254.5 190.5,-254.5 190.5,-235.5 95.5,-235.5"/>
<text text-anchor="middle" x="143" y="-242.5" font-family="Helvetica,sans-Serif" font-size="10.00" fill="#000000">ButtonWidget.hpp</text>
</a>
</g>
</g>
<!-- Node0&#45;&gt;Node1 -->
<g id="edge1" class="edge">
<title>Node0&#45;&gt;Node1</title>
<path fill="none" stroke="#191970" d="M312.7592,-291.3733C278.0806,-281.9001 225.0117,-267.4032 187.4538,-257.1435"/>
<polygon fill="#191970" stroke="#191970" points="188.3498,-253.7601 177.7809,-254.5011 186.5051,-260.5126 188.3498,-253.7601"/>
</g>
<!-- Node8 -->
<g id="node9" class="node">
<title>Node8</title>
<g id="a_node9"><a xlink:href="_utilities_8hpp.html" target="_top" xlink:title="../Utilities/Utilities.hpp">
<polygon fill="#ffffff" stroke="#000000" points="291.5,-235.5 291.5,-254.5 404.5,-254.5 404.5,-235.5 291.5,-235.5"/>
<text text-anchor="middle" x="348" y="-242.5" font-family="Helvetica,sans-Serif" font-size="10.00" fill="#000000">../Utilities/Utilities.hpp</text>
</a>
</g>
</g>
<!-- Node0&#45;&gt;Node8 -->
<g id="edge8" class="edge">
<title>Node0&#45;&gt;Node8</title>
<path fill="none" stroke="#191970" d="M348,-291.2455C348,-283.9382 348,-273.6944 348,-264.7046"/>
<polygon fill="#191970" stroke="#191970" points="351.5001,-264.6426 348,-254.6427 344.5001,-264.6427 351.5001,-264.6426"/>
</g>
<!-- Node22 -->
<g id="node23" class="node">
<title>Node22</title>
<polygon fill="#ffffff" stroke="#bfbfbf" points="423,-235.5 423,-254.5 477,-254.5 477,-235.5 423,-235.5"/>
<text text-anchor="middle" x="450" y="-242.5" font-family="Helvetica,sans-Serif" font-size="10.00" fill="#000000">iostream</text>
</g>
<!-- Node0&#45;&gt;Node22 -->
<g id="edge27" class="edge">
<title>Node0&#45;&gt;Node22</title>
<path fill="none" stroke="#191970" d="M365.767,-291.2455C381.7095,-282.4928 405.3259,-269.527 423.4989,-259.5496"/>
<polygon fill="#191970" stroke="#191970" points="425.3552,-262.5233 432.4366,-254.6427 421.9863,-256.3873 425.3552,-262.5233"/>
</g>
<!-- Node2 -->
<g id="node3" class="node">
<title>Node2</title>
<g id="a_node3"><a xlink:href="_widget_8hpp.html" target="_top" xlink:title="Widget.hpp">
<polygon fill="#ffffff" stroke="#000000" points="0,-174 0,-193 66,-193 66,-174 0,-174"/>
<text text-anchor="middle" x="33" y="-181" font-family="Helvetica,sans-Serif" font-size="10.00" fill="#000000">Widget.hpp</text>
</a>
</g>
</g>
<!-- Node1&#45;&gt;Node2 -->
<g id="edge2" class="edge">
<title>Node1&#45;&gt;Node2</title>
<path fill="none" stroke="#191970" d="M125.8125,-235.3906C107.8918,-225.3713 79.5905,-209.5483 58.9477,-198.0071"/>
<polygon fill="#191970" stroke="#191970" points="60.5033,-194.867 50.0668,-193.0419 57.0872,-200.9769 60.5033,-194.867"/>
</g>
<!-- Node6 -->
<g id="node7" class="node">
<title>Node6</title>
<polygon fill="#ffffff" stroke="#bfbfbf" points="84.5,-174 84.5,-193 143.5,-193 143.5,-174 84.5,-174"/>
<text text-anchor="middle" x="114" y="-181" font-family="Helvetica,sans-Serif" font-size="10.00" fill="#000000">functional</text>
</g>
<!-- Node1&#45;&gt;Node6 -->
<g id="edge6" class="edge">
<title>Node1&#45;&gt;Node6</title>
<path fill="none" stroke="#191970" d="M138.4688,-235.3906C134.3219,-226.5965 128.0668,-213.3312 122.919,-202.4145"/>
<polygon fill="#191970" stroke="#191970" points="126.0259,-200.7969 118.5951,-193.2449 119.6945,-203.7825 126.0259,-200.7969"/>
</g>
<!-- Node7 -->
<g id="node8" class="node">
<title>Node7</title>
<polygon fill="#ffffff" stroke="#bfbfbf" points="314.5,-56.5 314.5,-75.5 355.5,-75.5 355.5,-56.5 314.5,-56.5"/>
<text text-anchor="middle" x="335" y="-63.5" font-family="Helvetica,sans-Serif" font-size="10.00" fill="#000000">string</text>
</g>
<!-- Node1&#45;&gt;Node7 -->
<g id="edge7" class="edge">
<title>Node1&#45;&gt;Node7</title>
<path fill="none" stroke="#191970" d="M145.2945,-235.3928C152.0297,-207.9245 172.4386,-129.8843 191,-112 207.325,-96.2706 267.1946,-80.8222 304.4035,-72.4387"/>
<polygon fill="#191970" stroke="#191970" points="305.2318,-75.8402 314.2424,-70.2671 303.723,-69.0048 305.2318,-75.8402"/>
</g>
<!-- Node3 -->
<g id="node4" class="node">
<title>Node3</title>
<polygon fill="#ffffff" stroke="#bfbfbf" points="200,-112.5 200,-131.5 258,-131.5 258,-112.5 200,-112.5"/>
<text text-anchor="middle" x="229" y="-119.5" font-family="Helvetica,sans-Serif" font-size="10.00" fill="#000000">../CImg.h</text>
</g>
<!-- Node2&#45;&gt;Node3 -->
<g id="edge3" class="edge">
<title>Node2&#45;&gt;Node3</title>
<path fill="none" stroke="#191970" d="M58.2276,-173.8958C63.7327,-171.8824 69.5439,-169.8196 75,-168 113.9328,-155.0158 158.9634,-141.7671 190.2335,-132.8438"/>
<polygon fill="#191970" stroke="#191970" points="191.2143,-136.2038 199.8774,-130.1045 189.3016,-129.4701 191.2143,-136.2038"/>
</g>
<!-- Node4 -->
<g id="node5" class="node">
<title>Node4</title>
<g id="a_node5"><a xlink:href="_events_8hpp.html" target="_top" xlink:title="Events.hpp">
<polygon fill="#ffffff" stroke="#000000" points="0,-112.5 0,-131.5 66,-131.5 66,-112.5 0,-112.5"/>
<text text-anchor="middle" x="33" y="-119.5" font-family="Helvetica,sans-Serif" font-size="10.00" fill="#000000">Events.hpp</text>
</a>
</g>
</g>
<!-- Node2&#45;&gt;Node4 -->
<g id="edge4" class="edge">
<title>Node2&#45;&gt;Node4</title>
<path fill="none" stroke="#191970" d="M33,-173.8906C33,-165.3657 33,-152.6392 33,-141.9235"/>
<polygon fill="#191970" stroke="#191970" points="36.5001,-141.7448 33,-131.7449 29.5001,-141.7449 36.5001,-141.7448"/>
</g>
<!-- Node5 -->
<g id="node6" class="node">
<title>Node5</title>
<polygon fill="#ffffff" stroke="#bfbfbf" points="10,-56.5 10,-75.5 56,-75.5 56,-56.5 10,-56.5"/>
<text text-anchor="middle" x="33" y="-63.5" font-family="Helvetica,sans-Serif" font-size="10.00" fill="#000000">variant</text>
</g>
<!-- Node4&#45;&gt;Node5 -->
<g id="edge5" class="edge">
<title>Node4&#45;&gt;Node5</title>
<path fill="none" stroke="#191970" d="M33,-112.2455C33,-104.9382 33,-94.6944 33,-85.7046"/>
<polygon fill="#191970" stroke="#191970" points="36.5001,-85.6426 33,-75.6427 29.5001,-85.6427 36.5001,-85.6426"/>
</g>
<!-- Node9 -->
<g id="node10" class="node">
<title>Node9</title>
<g id="a_node10"><a xlink:href="_collection_pool_8hpp.html" target="_top" xlink:title="../Collection/Collection\lPool.hpp">
<polygon fill="#ffffff" stroke="#000000" points="592,-168.5 592,-198.5 708,-198.5 708,-168.5 592,-168.5"/>
<text text-anchor="start" x="600" y="-186.5" font-family="Helvetica,sans-Serif" font-size="10.00" fill="#000000">../Collection/Collection</text>
<text text-anchor="middle" x="650" y="-175.5" font-family="Helvetica,sans-Serif" font-size="10.00" fill="#000000">Pool.hpp</text>
</a>
</g>
</g>
<!-- Node8&#45;&gt;Node9 -->
<g id="edge9" class="edge">
<title>Node8&#45;&gt;Node9</title>
<path fill="none" stroke="#191970" d="M394.8561,-235.4581C444.9478,-225.2573 524.8516,-208.9855 581.8904,-197.37"/>
<polygon fill="#191970" stroke="#191970" points="582.8054,-200.7556 591.9058,-195.3304 581.4085,-193.8964 582.8054,-200.7556"/>
</g>
<!-- Node16 -->
<g id="node17" class="node">
<title>Node16</title>
<g id="a_node17"><a xlink:href="_image_8hpp.html" target="_top" xlink:title="../Image/Image.hpp">
<polygon fill="#ffffff" stroke="#000000" points="297.5,-174 297.5,-193 398.5,-193 398.5,-174 297.5,-174"/>
<text text-anchor="middle" x="348" y="-181" font-family="Helvetica,sans-Serif" font-size="10.00" fill="#000000">../Image/Image.hpp</text>
</a>
</g>
</g>
<!-- Node8&#45;&gt;Node16 -->
<g id="edge18" class="edge">
<title>Node8&#45;&gt;Node16</title>
<path fill="none" stroke="#191970" d="M348,-235.3906C348,-226.8657 348,-214.1392 348,-203.4235"/>
<polygon fill="#191970" stroke="#191970" points="351.5001,-203.2448 348,-193.2449 344.5001,-203.2449 351.5001,-203.2448"/>
</g>
<!-- Node10 -->
<g id="node11" class="node">
<title>Node10</title>
<g id="a_node11"><a xlink:href="_collection_8hpp.html" target="_top" xlink:title="Collection.hpp">
<polygon fill="#ffffff" stroke="#000000" points="644.5,-112.5 644.5,-131.5 723.5,-131.5 723.5,-112.5 644.5,-112.5"/>
<text text-anchor="middle" x="684" y="-119.5" font-family="Helvetica,sans-Serif" font-size="10.00" fill="#000000">Collection.hpp</text>
</a>
</g>
</g>
<!-- Node9&#45;&gt;Node10 -->
<g id="edge10" class="edge">
<title>Node9&#45;&gt;Node10</title>
<path fill="none" stroke="#191970" d="M658.4045,-168.2977C663.0257,-159.9388 668.7969,-149.4997 673.6889,-140.6509"/>
<polygon fill="#191970" stroke="#191970" points="676.7809,-142.292 678.5562,-131.8469 670.6548,-138.9051 676.7809,-142.292"/>
</g>
<!-- Node11 -->
<g id="node12" class="node">
<title>Node11</title>
<g id="a_node12"><a xlink:href="_collection_iterator_8hpp.html" target="_top" xlink:title="CollectionIterator.hpp">
<polygon fill="#ffffff" stroke="#000000" points="553,-56.5 553,-75.5 663,-75.5 663,-56.5 553,-56.5"/>
<text text-anchor="middle" x="608" y="-63.5" font-family="Helvetica,sans-Serif" font-size="10.00" fill="#000000">CollectionIterator.hpp</text>
</a>
</g>
</g>
<!-- Node9&#45;&gt;Node11 -->
<g id="edge16" class="edge">
<title>Node9&#45;&gt;Node11</title>
<path fill="none" stroke="#191970" d="M644.5092,-168.1389C636.8734,-146.7768 623.0565,-108.1224 614.7851,-84.982"/>
<polygon fill="#191970" stroke="#191970" points="618.0788,-83.7979 611.417,-75.5595 611.4872,-86.1541 618.0788,-83.7979"/>
</g>
<!-- Node15 -->
<g id="node16" class="node">
<title>Node15</title>
<polygon fill="#ffffff" stroke="#bfbfbf" points="741,-112.5 741,-131.5 785,-131.5 785,-112.5 741,-112.5"/>
<text text-anchor="middle" x="763" y="-119.5" font-family="Helvetica,sans-Serif" font-size="10.00" fill="#000000">vector</text>
</g>
<!-- Node9&#45;&gt;Node15 -->
<g id="edge17" class="edge">
<title>Node9&#45;&gt;Node15</title>
<path fill="none" stroke="#191970" d="M677.6429,-168.4554C695.5049,-158.734 718.6268,-146.15 736.2995,-136.5317"/>
<polygon fill="#191970" stroke="#191970" points="738.3787,-139.3849 745.489,-131.5303 735.0325,-133.2365 738.3787,-139.3849"/>
</g>
<!-- Node10&#45;&gt;Node11 -->
<g id="edge11" class="edge">
<title>Node10&#45;&gt;Node11</title>
<path fill="none" stroke="#191970" d="M670.7618,-112.2455C659.319,-103.814 642.5704,-91.4729 629.2525,-81.6598"/>
<polygon fill="#191970" stroke="#191970" points="631.2133,-78.757 621.0865,-75.6427 627.0609,-84.3924 631.2133,-78.757"/>
</g>
<!-- Node13 -->
<g id="node14" class="node">
<title>Node13</title>
<polygon fill="#ffffff" stroke="#bfbfbf" points="662.5,-.5 662.5,-19.5 709.5,-19.5 709.5,-.5 662.5,-.5"/>
<text text-anchor="middle" x="686" y="-7.5" font-family="Helvetica,sans-Serif" font-size="10.00" fill="#000000">iterator</text>
</g>
<!-- Node10&#45;&gt;Node13 -->
<g id="edge15" class="edge">
<title>Node10&#45;&gt;Node13</title>
<path fill="none" stroke="#191970" d="M684.1705,-112.4509C684.4967,-94.184 685.2151,-53.9553 685.6483,-29.6976"/>
<polygon fill="#191970" stroke="#191970" points="689.1507,-29.5858 685.8299,-19.5249 682.1518,-29.4608 689.1507,-29.5858"/>
</g>
<!-- Node12 -->
<g id="node13" class="node">
<title>Node12</title>
<polygon fill="#ffffff" stroke="#bfbfbf" points="577,-.5 577,-19.5 639,-19.5 639,-.5 577,-.5"/>
<text text-anchor="middle" x="608" y="-7.5" font-family="Helvetica,sans-Serif" font-size="10.00" fill="#000000">type_traits</text>
</g>
<!-- Node11&#45;&gt;Node12 -->
<g id="edge12" class="edge">
<title>Node11&#45;&gt;Node12</title>
<path fill="none" stroke="#191970" d="M608,-56.2455C608,-48.9382 608,-38.6944 608,-29.7046"/>
<polygon fill="#191970" stroke="#191970" points="611.5001,-29.6426 608,-19.6427 604.5001,-29.6427 611.5001,-29.6426"/>
</g>
<!-- Node11&#45;&gt;Node13 -->
<g id="edge13" class="edge">
<title>Node11&#45;&gt;Node13</title>
<path fill="none" stroke="#191970" d="M621.5866,-56.2455C633.3305,-47.814 650.5199,-35.4729 664.1882,-25.6598"/>
<polygon fill="#191970" stroke="#191970" points="666.4871,-28.3179 672.5691,-19.6427 662.4046,-22.6316 666.4871,-28.3179"/>
</g>
<!-- Node14 -->
<g id="node15" class="node">
<title>Node14</title>
<polygon fill="#ffffff" stroke="#bfbfbf" points="387,-.5 387,-19.5 439,-19.5 439,-.5 387,-.5"/>
<text text-anchor="middle" x="413" y="-7.5" font-family="Helvetica,sans-Serif" font-size="10.00" fill="#000000">memory</text>
</g>
<!-- Node11&#45;&gt;Node14 -->
<g id="edge14" class="edge">
<title>Node11&#45;&gt;Node14</title>
<path fill="none" stroke="#191970" d="M574.4783,-56.3733C539.5916,-46.3545 485.139,-30.7168 449.2661,-20.4149"/>
<polygon fill="#191970" stroke="#191970" points="449.8002,-16.9269 439.2226,-17.5306 447.868,-23.6549 449.8002,-16.9269"/>
</g>
<!-- Node16&#45;&gt;Node3 -->
<g id="edge23" class="edge">
<title>Node16&#45;&gt;Node3</title>
<path fill="none" stroke="#191970" d="M329.4063,-173.8906C309.8447,-163.7811 278.8499,-147.7628 256.4691,-136.1962"/>
<polygon fill="#191970" stroke="#191970" points="257.9539,-133.0238 247.4632,-131.5419 254.74,-139.2425 257.9539,-133.0238"/>
</g>
<!-- Node16&#45;&gt;Node14 -->
<g id="edge26" class="edge">
<title>Node16&#45;&gt;Node14</title>
<path fill="none" stroke="#191970" d="M336.2775,-173.8841C325.8065,-164.4695 311.1939,-149.0823 305,-132 299.6984,-117.3786 292.6453,-75.889 306,-56 321.7806,-32.4981 352.3019,-20.9441 376.7217,-15.2987"/>
<polygon fill="#191970" stroke="#191970" points="377.6695,-18.6769 386.7531,-13.2234 376.2513,-11.822 377.6695,-18.6769"/>
</g>
<!-- Node17 -->
<g id="node18" class="node">
<title>Node17</title>
<g id="a_node18"><a xlink:href="_tag_list_8hpp.html" target="_top" xlink:title="TagList.hpp">
<polygon fill="#ffffff" stroke="#000000" points="314,-112.5 314,-131.5 382,-131.5 382,-112.5 314,-112.5"/>
<text text-anchor="middle" x="348" y="-119.5" font-family="Helvetica,sans-Serif" font-size="10.00" fill="#000000">TagList.hpp</text>
</a>
</g>
</g>
<!-- Node16&#45;&gt;Node17 -->
<g id="edge19" class="edge">
<title>Node16&#45;&gt;Node17</title>
<path fill="none" stroke="#191970" d="M348,-173.8906C348,-165.3657 348,-152.6392 348,-141.9235"/>
<polygon fill="#191970" stroke="#191970" points="351.5001,-141.7448 348,-131.7449 344.5001,-141.7449 351.5001,-141.7448"/>
</g>
<!-- Node20 -->
<g id="node21" class="node">
<title>Node20</title>
<polygon fill="#ffffff" stroke="#bfbfbf" points="400,-112.5 400,-131.5 520,-131.5 520,-112.5 400,-112.5"/>
<text text-anchor="middle" x="460" y="-119.5" font-family="Helvetica,sans-Serif" font-size="10.00" fill="#000000">experimental/filesystem</text>
</g>
<!-- Node16&#45;&gt;Node20 -->
<g id="edge24" class="edge">
<title>Node16&#45;&gt;Node20</title>
<path fill="none" stroke="#191970" d="M365.5,-173.8906C383.7465,-163.8713 412.5624,-148.0483 433.5806,-136.5071"/>
<polygon fill="#191970" stroke="#191970" points="435.542,-139.423 442.6229,-131.5419 432.1728,-133.2872 435.542,-139.423"/>
</g>
<!-- Node21 -->
<g id="node22" class="node">
<title>Node21</title>
<polygon fill="#ffffff" stroke="#bfbfbf" points="538,-112.5 538,-131.5 588,-131.5 588,-112.5 538,-112.5"/>
<text text-anchor="middle" x="563" y="-119.5" font-family="Helvetica,sans-Serif" font-size="10.00" fill="#000000">fstream</text>
</g>
<!-- Node16&#45;&gt;Node21 -->
<g id="edge25" class="edge">
<title>Node16&#45;&gt;Node21</title>
<path fill="none" stroke="#191970" d="M382.0525,-173.908C416.4623,-164.1939 471.4173,-148.6216 527.9353,-132.2922"/>
<polygon fill="#191970" stroke="#191970" points="529.1225,-135.5924 537.7563,-129.4516 527.1775,-128.868 529.1225,-135.5924"/>
</g>
<!-- Node17&#45;&gt;Node7 -->
<g id="edge20" class="edge">
<title>Node17&#45;&gt;Node7</title>
<path fill="none" stroke="#191970" d="M345.7356,-112.2455C344.0206,-104.8579 341.6088,-94.4689 339.5056,-85.4087"/>
<polygon fill="#191970" stroke="#191970" points="342.9092,-84.5922 337.2385,-75.6427 336.0905,-86.1751 342.9092,-84.5922"/>
</g>
<!-- Node18 -->
<g id="node19" class="node">
<title>Node18</title>
<polygon fill="#ffffff" stroke="#bfbfbf" points="374,-56.5 374,-75.5 404,-75.5 404,-56.5 374,-56.5"/>
<text text-anchor="middle" x="389" y="-63.5" font-family="Helvetica,sans-Serif" font-size="10.00" fill="#000000">set</text>
</g>
<!-- Node17&#45;&gt;Node18 -->
<g id="edge21" class="edge">
<title>Node17&#45;&gt;Node18</title>
<path fill="none" stroke="#191970" d="M355.1417,-112.2455C360.8444,-104.4564 368.99,-93.3308 375.8625,-83.9439"/>
<polygon fill="#191970" stroke="#191970" points="378.8568,-85.7789 381.9402,-75.6427 373.2087,-81.6437 378.8568,-85.7789"/>
</g>
<!-- Node19 -->
<g id="node20" class="node">
<title>Node19</title>
<polygon fill="#ffffff" stroke="#bfbfbf" points="422,-56.5 422,-75.5 468,-75.5 468,-56.5 422,-56.5"/>
<text text-anchor="middle" x="445" y="-63.5" font-family="Helvetica,sans-Serif" font-size="10.00" fill="#000000">cctype</text>
</g>
<!-- Node17&#45;&gt;Node19 -->
<g id="edge22" class="edge">
<title>Node17&#45;&gt;Node19</title>
<path fill="none" stroke="#191970" d="M364.8961,-112.2455C379.918,-103.5731 402.1043,-90.7645 419.321,-80.825"/>
<polygon fill="#191970" stroke="#191970" points="421.3871,-83.6737 428.2975,-75.6427 417.8872,-77.6114 421.3871,-83.6737"/>
</g>
</g>
</svg>
