<?xml version="1.0" encoding="UTF-8" standalone="no"?>
<!DOCTYPE svg PUBLIC "-//W3C//DTD SVG 1.1//EN"
 "http://www.w3.org/Graphics/SVG/1.1/DTD/svg11.dtd">
<!-- Generated by graphviz version 2.40.1 (20161225.0304)
 -->
<!-- Title: src/Interface/ButtonWidget.hpp Pages: 1 -->
<svg width="584pt" height="252pt"
 viewBox="0.00 0.00 584.00 252.00" xmlns="http://www.w3.org/2000/svg" xmlns:xlink="http://www.w3.org/1999/xlink">
<g id="graph0" class="graph" transform="scale(1 1) rotate(0) translate(4 248)">
<title>src/Interface/ButtonWidget.hpp</title>
<polygon fill="#ffffff" stroke="transparent" points="-4,4 -4,-248 580,-248 580,4 -4,4"/>
<!-- Node7 -->
<g id="node1" class="node">
<title>Node7</title>
<polygon fill="#bfbfbf" stroke="#000000" points="252,-224.5 252,-243.5 404,-243.5 404,-224.5 252,-224.5"/>
<text text-anchor="middle" x="328" y="-231.5" font-family="Helvetica,sans-Serif" font-size="10.00" fill="#000000">src/Interface/ButtonWidget.hpp</text>
</g>
<!-- Node8 -->
<g id="node2" class="node">
<title>Node8</title>
<g id="a_node2"><a xlink:href="_list_widget_8hpp.html" target="_top" xlink:title="src/Interface/ListWidget.hpp">
<polygon fill="#ffffff" stroke="#000000" points="176,-168.5 176,-187.5 316,-187.5 316,-168.5 176,-168.5"/>
<text text-anchor="middle" x="246" y="-175.5" font-family="Helvetica,sans-Serif" font-size="10.00" fill="#000000">src/Interface/ListWidget.hpp</text>
</a>
</g>
</g>
<!-- Node7&#45;&gt;Node8 -->
<g id="edge1" class="edge">
<title>Node7&#45;&gt;Node8</title>
<path fill="none" stroke="#191970" d="M305.289,-218.49C290.8212,-208.6096 272.532,-196.1194 260.1196,-187.6427"/>
<polygon fill="#191970" stroke="#191970" points="303.4848,-221.4962 313.7167,-224.2455 307.4325,-215.7156 303.4848,-221.4962"/>
</g>
<!-- Node17 -->
<g id="node11" class="node">
<title>Node17</title>
<g id="a_node11"><a xlink:href="_button_widget_8cpp.html" target="_top" xlink:title="src/Interface/ButtonWidget.cpp">
<polygon fill="#ffffff" stroke="#000000" points="334,-168.5 334,-187.5 486,-187.5 486,-168.5 334,-168.5"/>
<text text-anchor="middle" x="410" y="-175.5" font-family="Helvetica,sans-Serif" font-size="10.00" fill="#000000">src/Interface/ButtonWidget.cpp</text>
</a>
</g>
</g>
<!-- Node7&#45;&gt;Node17 -->
<g id="edge12" class="edge">
<title>Node7&#45;&gt;Node17</title>
<path fill="none" stroke="#191970" d="M350.711,-218.49C365.1788,-208.6096 383.468,-196.1194 395.8804,-187.6427"/>
<polygon fill="#191970" stroke="#191970" points="348.5675,-215.7156 342.2833,-224.2455 352.5152,-221.4962 348.5675,-215.7156"/>
</g>
<!-- Node9 -->
<g id="node3" class="node">
<title>Node9</title>
<g id="a_node3"><a xlink:href="_window_widget_8hpp.html" target="_top" xlink:title="src/Interface/WindowWidget.hpp">
<polygon fill="#ffffff" stroke="#000000" points="77.5,-112.5 77.5,-131.5 236.5,-131.5 236.5,-112.5 77.5,-112.5"/>
<text text-anchor="middle" x="157" y="-119.5" font-family="Helvetica,sans-Serif" font-size="10.00" fill="#000000">src/Interface/WindowWidget.hpp</text>
</a>
</g>
</g>
<!-- Node8&#45;&gt;Node9 -->
<g id="edge2" class="edge">
<title>Node8&#45;&gt;Node9</title>
<path fill="none" stroke="#191970" d="M221.7936,-162.769C206.0225,-152.8456 185.924,-140.1994 172.325,-131.6427"/>
<polygon fill="#191970" stroke="#191970" points="220.1695,-165.8823 230.4974,-168.2455 223.8974,-159.9575 220.1695,-165.8823"/>
</g>
<!-- Node10 -->
<g id="node4" class="node">
<title>Node10</title>
<g id="a_node4"><a xlink:href="_application_8hpp.html" target="_top" xlink:title="src/Application.hpp">
<polygon fill="#ffffff" stroke="#000000" points="0,-56.5 0,-75.5 100,-75.5 100,-56.5 0,-56.5"/>
<text text-anchor="middle" x="50" y="-63.5" font-family="Helvetica,sans-Serif" font-size="10.00" fill="#000000">src/Application.hpp</text>
</a>
</g>
</g>
<!-- Node8&#45;&gt;Node10 -->
<g id="edge7" class="edge">
<title>Node8&#45;&gt;Node10</title>
<path fill="none" stroke="#191970" d="M172.5328,-166.6447C130.4556,-158.715 83.0915,-146.8912 68,-132 52.6136,-116.8177 50.0069,-89.8642 49.7856,-75.5503"/>
<polygon fill="#191970" stroke="#191970" points="172.0643,-170.117 182.5313,-168.4763 173.3257,-163.2316 172.0643,-170.117"/>
</g>
<!-- Node14 -->
<g id="node8" class="node">
<title>Node14</title>
<g id="a_node8"><a xlink:href="_menu_bar_widget_8hpp.html" target="_top" xlink:title="src/Interface/MenuBarWidget.hpp">
<polygon fill="#ffffff" stroke="#000000" points="254.5,-112.5 254.5,-131.5 417.5,-131.5 417.5,-112.5 254.5,-112.5"/>
<text text-anchor="middle" x="336" y="-119.5" font-family="Helvetica,sans-Serif" font-size="10.00" fill="#000000">src/Interface/MenuBarWidget.hpp</text>
</a>
</g>
</g>
<!-- Node8&#45;&gt;Node14 -->
<g id="edge8" class="edge">
<title>Node8&#45;&gt;Node14</title>
<path fill="none" stroke="#191970" d="M270.4784,-162.769C286.4266,-152.8456 306.751,-140.1994 320.5028,-131.6427"/>
<polygon fill="#191970" stroke="#191970" points="268.3183,-159.9908 261.6768,-168.2455 272.0165,-165.9342 268.3183,-159.9908"/>
</g>
<!-- Node16 -->
<g id="node10" class="node">
<title>Node16</title>
<g id="a_node10"><a xlink:href="_list_widget_8cpp.html" target="_top" xlink:title="src/Interface/ListWidget.cpp">
<polygon fill="#ffffff" stroke="#000000" points="436,-112.5 436,-131.5 576,-131.5 576,-112.5 436,-112.5"/>
<text text-anchor="middle" x="506" y="-119.5" font-family="Helvetica,sans-Serif" font-size="10.00" fill="#000000">src/Interface/ListWidget.cpp</text>
</a>
</g>
</g>
<!-- Node8&#45;&gt;Node16 -->
<g id="edge11" class="edge">
<title>Node8&#45;&gt;Node16</title>
<path fill="none" stroke="#191970" d="M300.2876,-166.3073C348.1971,-155.9883 417.1655,-141.1336 461.783,-131.5237"/>
<polygon fill="#191970" stroke="#191970" points="299.439,-162.9097 290.4002,-168.4369 300.913,-169.7528 299.439,-162.9097"/>
</g>
<!-- Node9&#45;&gt;Node10 -->
<g id="edge3" class="edge">
<title>Node9&#45;&gt;Node10</title>
<path fill="none" stroke="#191970" d="M129.4801,-107.5971C110.2983,-97.558 85.2322,-84.4393 68.4244,-75.6427"/>
<polygon fill="#191970" stroke="#191970" points="127.8791,-110.7095 138.362,-112.2455 131.125,-104.5075 127.8791,-110.7095"/>
</g>
<!-- Node13 -->
<g id="node7" class="node">
<title>Node13</title>
<g id="a_node7"><a xlink:href="_window_widget_8cpp.html" target="_top" xlink:title="src/Interface/WindowWidget.cpp">
<polygon fill="#ffffff" stroke="#000000" points="118.5,-56.5 118.5,-75.5 277.5,-75.5 277.5,-56.5 118.5,-56.5"/>
<text text-anchor="middle" x="198" y="-63.5" font-family="Helvetica,sans-Serif" font-size="10.00" fill="#000000">src/Interface/WindowWidget.cpp</text>
</a>
</g>
</g>
<!-- Node9&#45;&gt;Node13 -->
<g id="edge6" class="edge">
<title>Node9&#45;&gt;Node13</title>
<path fill="none" stroke="#191970" d="M170.2364,-103.9209C177.1211,-94.5176 185.2609,-83.3997 190.9402,-75.6427"/>
<polygon fill="#191970" stroke="#191970" points="167.2251,-102.1093 164.1417,-112.2455 172.8731,-106.2445 167.2251,-102.1093"/>
</g>
<!-- Node11 -->
<g id="node5" class="node">
<title>Node11</title>
<g id="a_node5"><a xlink:href="_application_8cpp.html" target="_top" xlink:title="src/Application.cpp">
<polygon fill="#ffffff" stroke="#000000" points="180,-.5 180,-19.5 280,-19.5 280,-.5 180,-.5"/>
<text text-anchor="middle" x="230" y="-7.5" font-family="Helvetica,sans-Serif" font-size="10.00" fill="#000000">src/Application.cpp</text>
</a>
</g>
</g>
<!-- Node10&#45;&gt;Node11 -->
<g id="edge4" class="edge">
<title>Node10&#45;&gt;Node11</title>
<path fill="none" stroke="#191970" d="M90.7459,-53.3235C123.7563,-43.0536 169.5417,-28.8093 199.4607,-19.5011"/>
<polygon fill="#191970" stroke="#191970" points="89.4519,-50.0605 80.9431,-56.3733 91.5314,-56.7445 89.4519,-50.0605"/>
</g>
<!-- Node12 -->
<g id="node6" class="node">
<title>Node12</title>
<g id="a_node6"><a xlink:href="main_8cpp.html" target="_top" xlink:title="Contient la fonction main. ">
<polygon fill="#ffffff" stroke="#000000" points="13.5,-.5 13.5,-19.5 86.5,-19.5 86.5,-.5 13.5,-.5"/>
<text text-anchor="middle" x="50" y="-7.5" font-family="Helvetica,sans-Serif" font-size="10.00" fill="#000000">src/main.cpp</text>
</a>
</g>
</g>
<!-- Node10&#45;&gt;Node12 -->
<g id="edge5" class="edge">
<title>Node10&#45;&gt;Node12</title>
<path fill="none" stroke="#191970" d="M50,-46.1575C50,-37.155 50,-26.9199 50,-19.6427"/>
<polygon fill="#191970" stroke="#191970" points="46.5001,-46.2455 50,-56.2455 53.5001,-46.2456 46.5001,-46.2455"/>
</g>
<!-- Node14&#45;&gt;Node11 -->
<g id="edge9" class="edge">
<title>Node14&#45;&gt;Node11</title>
<path fill="none" stroke="#191970" d="M324.025,-103.9031C314.4953,-90.105 300.4088,-70.9871 286,-56 272.7457,-42.2138 255.4887,-28.5819 243.6549,-19.7813"/>
<polygon fill="#191970" stroke="#191970" points="321.3357,-106.1739 329.8423,-112.4896 327.1309,-102.2476 321.3357,-106.1739"/>
</g>
<!-- Node15 -->
<g id="node9" class="node">
<title>Node15</title>
<g id="a_node9"><a xlink:href="_menu_bar_widget_8cpp.html" target="_top" xlink:title="src/Interface/MenuBarWidget.cpp">
<polygon fill="#ffffff" stroke="#000000" points="333.5,-56.5 333.5,-75.5 496.5,-75.5 496.5,-56.5 333.5,-56.5"/>
<text text-anchor="middle" x="415" y="-63.5" font-family="Helvetica,sans-Serif" font-size="10.00" fill="#000000">src/Interface/MenuBarWidget.cpp</text>
</a>
</g>
</g>
<!-- Node14&#45;&gt;Node15 -->
<g id="edge10" class="edge">
<title>Node14&#45;&gt;Node15</title>
<path fill="none" stroke="#191970" d="M358.2756,-106.2097C372.1505,-96.3743 389.5515,-84.0394 401.3969,-75.6427"/>
<polygon fill="#191970" stroke="#191970" points="355.8949,-103.6071 349.7607,-112.2455 359.9431,-109.3178 355.8949,-103.6071"/>
</g>
</g>
</svg>
