<?xml version="1.0" encoding="UTF-8" standalone="no"?>
<!DOCTYPE svg PUBLIC "-//W3C//DTD SVG 1.1//EN"
 "http://www.w3.org/Graphics/SVG/1.1/DTD/svg11.dtd">
<!-- Generated by graphviz version 2.40.1 (20161225.0304)
 -->
<!-- Title: src/Interface/ButtonWidget.cpp Pages: 1 -->
<!--zoomable 319 -->
<svg id="main" version="1.1" xmlns="http://www.w3.org/2000/svg" xmlns:xlink="http://www.w3.org/1999/xlink" xml:space="preserve" onload="init(evt)">
<style type="text/css"><![CDATA[
.edge:hover path { stroke: red; }
.edge:hover polygon { stroke: red; fill: red; }
]]></style>
<script type="text/javascript"><![CDATA[
var edges = document.getElementsByTagName('g');
if (edges && edges.length) {
  for (var i=0;i<edges.length;i++) {
    if (edges[i].id.substr(0,4)=='edge') {
      edges[i].setAttribute('class','edge');
    }
  }
}
]]></script>
        <defs>
                <circle id="rim" cx="0" cy="0" r="7"/>
                <circle id="rim2" cx="0" cy="0" r="3.5"/>
                <g id="zoomPlus">
                        <use xlink:href="#rim" fill="#404040">
                                <set attributeName="fill" to="#808080" begin="zoomplus.mouseover" end="zoomplus.mouseout"/>
                        </use>
                        <path d="M-4,0h8M0,-4v8" fill="none" stroke="white" stroke-width="1.5" pointer-events="none"/>
                </g>
                <g id="zoomMin">
                        <use xlink:href="#rim" fill="#404040">
                                <set attributeName="fill" to="#808080" begin="zoomminus.mouseover" end="zoomminus.mouseout"/>
                        </use>
                        <path d="M-4,0h8" fill="none" stroke="white" stroke-width="1.5" pointer-events="none"/>
                </g>
                <g id="dirArrow">
                        <path fill="none" stroke="white" stroke-width="1.5" d="M0,-3.0v7 M-2.5,-0.5L0,-3.0L2.5,-0.5"/>
                </g>
               <g id="resetDef">
                       <use xlink:href="#rim2" fill="#404040">
                               <set attributeName="fill" to="#808080" begin="reset.mouseover" end="reset.mouseout"/>
                       </use>
               </g>
        </defs>

<script type="text/javascript">
var viewWidth = 793;
var viewHeight = 319;
var sectionId = 'dynsection-0';
</script>
<script xlink:href="svgpan.js"/>
<svg id="graph" class="graph">
<g id="viewport">
<title>src/Interface/ButtonWidget.cpp</title>
<polygon fill="#ffffff" stroke="transparent" points="-4,4 -4,-315 789,-315 789,4 -4,4"/>
<!-- Node0 -->
<g id="node1" class="node">
<title>Node0</title>
<polygon fill="#bfbfbf" stroke="#000000" points="271.5,-291.5 271.5,-310.5 423.5,-310.5 423.5,-291.5 271.5,-291.5"/>
<text text-anchor="middle" x="347.5" y="-298.5" font-family="Helvetica,sans-Serif" font-size="10.00" fill="#000000">src/Interface/ButtonWidget.cpp</text>
</g>
<!-- Node1 -->
<g id="node2" class="node">
<title>Node1</title>
<g id="a_node2"><a xlink:href="_button_widget_8hpp.html" target="_top" xlink:title="ButtonWidget.hpp">
<polygon fill="#ffffff" stroke="#000000" points="71,-235.5 71,-254.5 166,-254.5 166,-235.5 71,-235.5"/>
<text text-anchor="middle" x="118.5" y="-242.5" font-family="Helvetica,sans-Serif" font-size="10.00" fill="#000000">ButtonWidget.hpp</text>
</a>
</g>
</g>
<!-- Node0&#45;&gt;Node1 -->
<g id="edge1" class="edge">
<title>Node0&#45;&gt;Node1</title>
<path fill="none" stroke="#191970" d="M308.3937,-291.4369C269.3668,-281.8932 209.3035,-267.2052 167.2038,-256.9101"/>
<polygon fill="#191970" stroke="#191970" points="167.9902,-253.4993 157.445,-254.5237 166.3274,-260.299 167.9902,-253.4993"/>
</g>
<!-- Node8 -->
<g id="node9" class="node">
<title>Node8</title>
<g id="a_node9"><a xlink:href="_utilities_8hpp.html" target="_top" xlink:title="../Utilities/Utilities.hpp">
<polygon fill="#ffffff" stroke="#000000" points="291,-235.5 291,-254.5 404,-254.5 404,-235.5 291,-235.5"/>
<text text-anchor="middle" x="347.5" y="-242.5" font-family="Helvetica,sans-Serif" font-size="10.00" fill="#000000">../Utilities/Utilities.hpp</text>
</a>
</g>
</g>
<!-- Node0&#45;&gt;Node8 -->
<g id="edge8" class="edge">
<title>Node0&#45;&gt;Node8</title>
<path fill="none" stroke="#191970" d="M347.5,-291.2455C347.5,-283.9382 347.5,-273.6944 347.5,-264.7046"/>
<polygon fill="#191970" stroke="#191970" points="351.0001,-264.6426 347.5,-254.6427 344.0001,-264.6427 351.0001,-264.6426"/>
</g>
<!-- Node22 -->
<g id="node23" class="node">
<title>Node22</title>
<polygon fill="#ffffff" stroke="#bfbfbf" points="422.5,-235.5 422.5,-254.5 476.5,-254.5 476.5,-235.5 422.5,-235.5"/>
<text text-anchor="middle" x="449.5" y="-242.5" font-family="Helvetica,sans-Serif" font-size="10.00" fill="#000000">iostream</text>
</g>
<!-- Node0&#45;&gt;Node22 -->
<g id="edge26" class="edge">
<title>Node0&#45;&gt;Node22</title>
<path fill="none" stroke="#191970" d="M365.267,-291.2455C381.2095,-282.4928 404.8259,-269.527 422.9989,-259.5496"/>
<polygon fill="#191970" stroke="#191970" points="424.8552,-262.5233 431.9366,-254.6427 421.4863,-256.3873 424.8552,-262.5233"/>
</g>
<!-- Node2 -->
<g id="node3" class="node">
<title>Node2</title>
<g id="a_node3"><a xlink:href="_widget_8hpp.html" target="_top" xlink:title="Widget.hpp">
<polygon fill="#ffffff" stroke="#000000" points="115.5,-174 115.5,-193 181.5,-193 181.5,-174 115.5,-174"/>
<text text-anchor="middle" x="148.5" y="-181" font-family="Helvetica,sans-Serif" font-size="10.00" fill="#000000">Widget.hpp</text>
</a>
</g>
</g>
<!-- Node1&#45;&gt;Node2 -->
<g id="edge2" class="edge">
<title>Node1&#45;&gt;Node2</title>
<path fill="none" stroke="#191970" d="M123.1875,-235.3906C127.4773,-226.5965 133.9482,-213.3312 139.2734,-202.4145"/>
<polygon fill="#191970" stroke="#191970" points="142.5078,-203.7671 143.7464,-193.2449 136.2164,-200.6981 142.5078,-203.7671"/>
</g>
<!-- Node6 -->
<g id="node7" class="node">
<title>Node6</title>
<polygon fill="#ffffff" stroke="#bfbfbf" points="0,-174 0,-193 59,-193 59,-174 0,-174"/>
<text text-anchor="middle" x="29.5" y="-181" font-family="Helvetica,sans-Serif" font-size="10.00" fill="#000000">functional</text>
</g>
<!-- Node1&#45;&gt;Node6 -->
<g id="edge6" class="edge">
<title>Node1&#45;&gt;Node6</title>
<path fill="none" stroke="#191970" d="M104.5938,-235.3906C90.4862,-225.6421 68.4276,-210.3994 51.8615,-198.9521"/>
<polygon fill="#191970" stroke="#191970" points="53.5253,-195.8474 43.3086,-193.0419 49.5458,-201.6063 53.5253,-195.8474"/>
</g>
<!-- Node7 -->
<g id="node8" class="node">
<title>Node7</title>
<polygon fill="#ffffff" stroke="#bfbfbf" points="314,-56.5 314,-75.5 355,-75.5 355,-56.5 314,-56.5"/>
<text text-anchor="middle" x="334.5" y="-63.5" font-family="Helvetica,sans-Serif" font-size="10.00" fill="#000000">string</text>
</g>
<!-- Node1&#45;&gt;Node7 -->
<g id="edge7" class="edge">
<title>Node1&#45;&gt;Node7</title>
<path fill="none" stroke="#191970" d="M113.5081,-235.2971C101.9513,-211.3254 76.546,-148.6009 106.5,-112 131.0668,-81.9817 247.1686,-71.1117 303.5826,-67.556"/>
<polygon fill="#191970" stroke="#191970" points="303.9303,-71.0416 313.7058,-66.9564 303.5164,-64.0538 303.9303,-71.0416"/>
</g>
<!-- Node3 -->
<g id="node4" class="node">
<title>Node3</title>
<polygon fill="#ffffff" stroke="#bfbfbf" points="199.5,-112.5 199.5,-131.5 257.5,-131.5 257.5,-112.5 199.5,-112.5"/>
<text text-anchor="middle" x="228.5" y="-119.5" font-family="Helvetica,sans-Serif" font-size="10.00" fill="#000000">../CImg.h</text>
</g>
<!-- Node2&#45;&gt;Node3 -->
<g id="edge3" class="edge">
<title>Node2&#45;&gt;Node3</title>
<path fill="none" stroke="#191970" d="M161,-173.8906C173.5636,-164.2324 193.1423,-149.1812 207.9849,-137.771"/>
<polygon fill="#191970" stroke="#191970" points="210.2928,-140.4115 216.0878,-131.5419 206.0265,-134.8618 210.2928,-140.4115"/>
</g>
<!-- Node4 -->
<g id="node5" class="node">
<title>Node4</title>
<g id="a_node5"><a xlink:href="_events_8hpp.html" target="_top" xlink:title="Events.hpp">
<polygon fill="#ffffff" stroke="#000000" points="115.5,-112.5 115.5,-131.5 181.5,-131.5 181.5,-112.5 115.5,-112.5"/>
<text text-anchor="middle" x="148.5" y="-119.5" font-family="Helvetica,sans-Serif" font-size="10.00" fill="#000000">Events.hpp</text>
</a>
</g>
</g>
<!-- Node2&#45;&gt;Node4 -->
<g id="edge4" class="edge">
<title>Node2&#45;&gt;Node4</title>
<path fill="none" stroke="#191970" d="M148.5,-173.8906C148.5,-165.3657 148.5,-152.6392 148.5,-141.9235"/>
<polygon fill="#191970" stroke="#191970" points="152.0001,-141.7448 148.5,-131.7449 145.0001,-141.7449 152.0001,-141.7448"/>
</g>
<!-- Node5 -->
<g id="node6" class="node">
<title>Node5</title>
<polygon fill="#ffffff" stroke="#bfbfbf" points="125.5,-56.5 125.5,-75.5 171.5,-75.5 171.5,-56.5 125.5,-56.5"/>
<text text-anchor="middle" x="148.5" y="-63.5" font-family="Helvetica,sans-Serif" font-size="10.00" fill="#000000">variant</text>
</g>
<!-- Node4&#45;&gt;Node5 -->
<g id="edge5" class="edge">
<title>Node4&#45;&gt;Node5</title>
<path fill="none" stroke="#191970" d="M148.5,-112.2455C148.5,-104.9382 148.5,-94.6944 148.5,-85.7046"/>
<polygon fill="#191970" stroke="#191970" points="152.0001,-85.6426 148.5,-75.6427 145.0001,-85.6427 152.0001,-85.6426"/>
</g>
<!-- Node9 -->
<g id="node10" class="node">
<title>Node9</title>
<g id="a_node10"><a xlink:href="_collection_pool_8hpp.html" target="_top" xlink:title="../Collection/Collection\lPool.hpp">
<polygon fill="#ffffff" stroke="#000000" points="594.5,-168.5 594.5,-198.5 710.5,-198.5 710.5,-168.5 594.5,-168.5"/>
<text text-anchor="start" x="602.5" y="-186.5" font-family="Helvetica,sans-Serif" font-size="10.00" fill="#000000">../Collection/Collection</text>
<text text-anchor="middle" x="652.5" y="-175.5" font-family="Helvetica,sans-Serif" font-size="10.00" fill="#000000">Pool.hpp</text>
</a>
</g>
</g>
<!-- Node8&#45;&gt;Node9 -->
<g id="edge9" class="edge">
<title>Node8&#45;&gt;Node9</title>
<path fill="none" stroke="#191970" d="M394.8216,-235.4581C445.5687,-225.2255 526.6122,-208.8839 584.2524,-197.2614"/>
<polygon fill="#191970" stroke="#191970" points="585.2591,-200.6289 594.37,-195.2213 583.8755,-193.767 585.2591,-200.6289"/>
</g>
<!-- Node16 -->
<g id="node17" class="node">
<title>Node16</title>
<g id="a_node17"><a xlink:href="_image_8hpp.html" target="_top" xlink:title="../Image/Image.hpp">
<polygon fill="#ffffff" stroke="#000000" points="297,-174 297,-193 398,-193 398,-174 297,-174"/>
<text text-anchor="middle" x="347.5" y="-181" font-family="Helvetica,sans-Serif" font-size="10.00" fill="#000000">../Image/Image.hpp</text>
</a>
</g>
</g>
<!-- Node8&#45;&gt;Node16 -->
<g id="edge17" class="edge">
<title>Node8&#45;&gt;Node16</title>
<path fill="none" stroke="#191970" d="M347.5,-235.3906C347.5,-226.8657 347.5,-214.1392 347.5,-203.4235"/>
<polygon fill="#191970" stroke="#191970" points="351.0001,-203.2448 347.5,-193.2449 344.0001,-203.2449 351.0001,-203.2448"/>
</g>
<!-- Node10 -->
<g id="node11" class="node">
<title>Node10</title>
<g id="a_node11"><a xlink:href="_collection_8hpp.html" target="_top" xlink:title="Collection.hpp">
<polygon fill="#ffffff" stroke="#000000" points="706,-112.5 706,-131.5 785,-131.5 785,-112.5 706,-112.5"/>
<text text-anchor="middle" x="745.5" y="-119.5" font-family="Helvetica,sans-Serif" font-size="10.00" fill="#000000">Collection.hpp</text>
</a>
</g>
</g>
<!-- Node9&#45;&gt;Node10 -->
<g id="edge10" class="edge">
<title>Node9&#45;&gt;Node10</title>
<path fill="none" stroke="#191970" d="M675.4888,-168.2977C689.6966,-158.9022 707.8785,-146.8787 722.1525,-137.4395"/>
<polygon fill="#191970" stroke="#191970" points="724.4767,-140.0986 730.8872,-131.6633 720.6155,-134.2598 724.4767,-140.0986"/>
</g>
<!-- Node11 -->
<g id="node12" class="node">
<title>Node11</title>
<g id="a_node12"><a xlink:href="_collection_iterator_8hpp.html" target="_top" xlink:title="CollectionIterator.hpp">
<polygon fill="#ffffff" stroke="#000000" points="622.5,-56.5 622.5,-75.5 732.5,-75.5 732.5,-56.5 622.5,-56.5"/>
<text text-anchor="middle" x="677.5" y="-63.5" font-family="Helvetica,sans-Serif" font-size="10.00" fill="#000000">CollectionIterator.hpp</text>
</a>
</g>
</g>
<!-- Node9&#45;&gt;Node11 -->
<g id="edge15" class="edge">
<title>Node9&#45;&gt;Node11</title>
<path fill="none" stroke="#191970" d="M655.7683,-168.1389C660.2725,-146.9692 668.3899,-108.8174 673.3274,-85.6112"/>
<polygon fill="#191970" stroke="#191970" points="676.8083,-86.0689 675.4661,-75.5595 669.9615,-84.6121 676.8083,-86.0689"/>
</g>
<!-- Node15 -->
<g id="node16" class="node">
<title>Node15</title>
<polygon fill="#ffffff" stroke="#bfbfbf" points="605.5,-112.5 605.5,-131.5 649.5,-131.5 649.5,-112.5 605.5,-112.5"/>
<text text-anchor="middle" x="627.5" y="-119.5" font-family="Helvetica,sans-Serif" font-size="10.00" fill="#000000">vector</text>
</g>
<!-- Node9&#45;&gt;Node15 -->
<g id="edge16" class="edge">
<title>Node9&#45;&gt;Node15</title>
<path fill="none" stroke="#191970" d="M646.3202,-168.2977C642.9946,-160.1166 638.8589,-149.943 635.3121,-141.2179"/>
<polygon fill="#191970" stroke="#191970" points="638.511,-139.7927 631.5028,-131.8469 632.0263,-142.4288 638.511,-139.7927"/>
</g>
<!-- Node10&#45;&gt;Node11 -->
<g id="edge11" class="edge">
<title>Node10&#45;&gt;Node11</title>
<path fill="none" stroke="#191970" d="M733.6553,-112.2455C723.612,-103.9746 709.0005,-91.9416 697.1996,-82.2232"/>
<polygon fill="#191970" stroke="#191970" points="699.1533,-79.298 689.209,-75.6427 694.7033,-84.7015 699.1533,-79.298"/>
</g>
<!-- Node12 -->
<g id="node13" class="node">
<title>Node12</title>
<polygon fill="#ffffff" stroke="#bfbfbf" points="609.5,-.5 609.5,-19.5 671.5,-19.5 671.5,-.5 609.5,-.5"/>
<text text-anchor="middle" x="640.5" y="-7.5" font-family="Helvetica,sans-Serif" font-size="10.00" fill="#000000">type_traits</text>
</g>
<!-- Node11&#45;&gt;Node12 -->
<g id="edge12" class="edge">
<title>Node11&#45;&gt;Node12</title>
<path fill="none" stroke="#191970" d="M671.0551,-56.2455C665.9618,-48.5367 658.7092,-37.5598 652.548,-28.2348"/>
<polygon fill="#191970" stroke="#191970" points="655.3038,-26.0566 646.8711,-19.6427 649.4635,-29.9155 655.3038,-26.0566"/>
</g>
<!-- Node13 -->
<g id="node14" class="node">
<title>Node13</title>
<polygon fill="#ffffff" stroke="#bfbfbf" points="690,-.5 690,-19.5 737,-19.5 737,-.5 690,-.5"/>
<text text-anchor="middle" x="713.5" y="-7.5" font-family="Helvetica,sans-Serif" font-size="10.00" fill="#000000">iterator</text>
</g>
<!-- Node11&#45;&gt;Node13 -->
<g id="edge13" class="edge">
<title>Node11&#45;&gt;Node13</title>
<path fill="none" stroke="#191970" d="M683.7707,-56.2455C688.7264,-48.5367 695.783,-37.5598 701.7776,-28.2348"/>
<polygon fill="#191970" stroke="#191970" points="704.8376,-29.9471 707.3011,-19.6427 698.9494,-26.1618 704.8376,-29.9471"/>
</g>
<!-- Node14 -->
<g id="node15" class="node">
<title>Node14</title>
<polygon fill="#ffffff" stroke="#bfbfbf" points="417.5,-.5 417.5,-19.5 469.5,-19.5 469.5,-.5 417.5,-.5"/>
<text text-anchor="middle" x="443.5" y="-7.5" font-family="Helvetica,sans-Serif" font-size="10.00" fill="#000000">memory</text>
</g>
<!-- Node11&#45;&gt;Node14 -->
<g id="edge14" class="edge">
<title>Node11&#45;&gt;Node14</title>
<path fill="none" stroke="#191970" d="M637.5398,-56.4369C593.1625,-45.8167 522.1666,-28.8262 479.4676,-18.6076"/>
<polygon fill="#191970" stroke="#191970" points="480.0536,-15.1491 469.5136,-16.2255 478.4243,-21.9569 480.0536,-15.1491"/>
</g>
<!-- Node16&#45;&gt;Node3 -->
<g id="edge22" class="edge">
<title>Node16&#45;&gt;Node3</title>
<path fill="none" stroke="#191970" d="M328.9063,-173.8906C309.3447,-163.7811 278.3499,-147.7628 255.9691,-136.1962"/>
<polygon fill="#191970" stroke="#191970" points="257.4539,-133.0238 246.9632,-131.5419 254.24,-139.2425 257.4539,-133.0238"/>
</g>
<!-- Node16&#45;&gt;Node14 -->
<g id="edge25" class="edge">
<title>Node16&#45;&gt;Node14</title>
<path fill="none" stroke="#191970" d="M335.7775,-173.8841C325.3065,-164.4695 310.6939,-149.0823 304.5,-132 299.0507,-116.971 291.7314,-74.7477 305.5,-56 317.7635,-39.3016 370.9938,-25.1122 407.641,-17.0749"/>
<polygon fill="#191970" stroke="#191970" points="408.4399,-20.4833 417.4898,-14.9742 406.9796,-13.6373 408.4399,-20.4833"/>
</g>
<!-- Node17 -->
<g id="node18" class="node">
<title>Node17</title>
<g id="a_node18"><a xlink:href="_tag_list_8hpp.html" target="_top" xlink:title="TagList.hpp">
<polygon fill="#ffffff" stroke="#000000" points="313.5,-112.5 313.5,-131.5 381.5,-131.5 381.5,-112.5 313.5,-112.5"/>
<text text-anchor="middle" x="347.5" y="-119.5" font-family="Helvetica,sans-Serif" font-size="10.00" fill="#000000">TagList.hpp</text>
</a>
</g>
</g>
<!-- Node16&#45;&gt;Node17 -->
<g id="edge18" class="edge">
<title>Node16&#45;&gt;Node17</title>
<path fill="none" stroke="#191970" d="M347.5,-173.8906C347.5,-165.3657 347.5,-152.6392 347.5,-141.9235"/>
<polygon fill="#191970" stroke="#191970" points="351.0001,-141.7448 347.5,-131.7449 344.0001,-141.7449 351.0001,-141.7448"/>
</g>
<!-- Node20 -->
<g id="node21" class="node">
<title>Node20</title>
<polygon fill="#ffffff" stroke="#bfbfbf" points="399.5,-112.5 399.5,-131.5 519.5,-131.5 519.5,-112.5 399.5,-112.5"/>
<text text-anchor="middle" x="459.5" y="-119.5" font-family="Helvetica,sans-Serif" font-size="10.00" fill="#000000">experimental/filesystem</text>
</g>
<!-- Node16&#45;&gt;Node20 -->
<g id="edge23" class="edge">
<title>Node16&#45;&gt;Node20</title>
<path fill="none" stroke="#191970" d="M365,-173.8906C383.2465,-163.8713 412.0624,-148.0483 433.0806,-136.5071"/>
<polygon fill="#191970" stroke="#191970" points="435.042,-139.423 442.1229,-131.5419 431.6728,-133.2872 435.042,-139.423"/>
</g>
<!-- Node21 -->
<g id="node22" class="node">
<title>Node21</title>
<polygon fill="#ffffff" stroke="#bfbfbf" points="537.5,-112.5 537.5,-131.5 587.5,-131.5 587.5,-112.5 537.5,-112.5"/>
<text text-anchor="middle" x="562.5" y="-119.5" font-family="Helvetica,sans-Serif" font-size="10.00" fill="#000000">fstream</text>
</g>
<!-- Node16&#45;&gt;Node21 -->
<g id="edge24" class="edge">
<title>Node16&#45;&gt;Node21</title>
<path fill="none" stroke="#191970" d="M381.5525,-173.908C415.9623,-164.1939 470.9173,-148.6216 527.4353,-132.2922"/>
<polygon fill="#191970" stroke="#191970" points="528.6225,-135.5924 537.2563,-129.4516 526.6775,-128.868 528.6225,-135.5924"/>
</g>
<!-- Node17&#45;&gt;Node7 -->
<g id="edge19" class="edge">
<title>Node17&#45;&gt;Node7</title>
<path fill="none" stroke="#191970" d="M345.2356,-112.2455C343.5206,-104.8579 341.1088,-94.4689 339.0056,-85.4087"/>
<polygon fill="#191970" stroke="#191970" points="342.4092,-84.5922 336.7385,-75.6427 335.5905,-86.1751 342.4092,-84.5922"/>
</g>
<!-- Node18 -->
<g id="node19" class="node">
<title>Node18</title>
<polygon fill="#ffffff" stroke="#bfbfbf" points="437.5,-56.5 437.5,-75.5 467.5,-75.5 467.5,-56.5 437.5,-56.5"/>
<text text-anchor="middle" x="452.5" y="-63.5" font-family="Helvetica,sans-Serif" font-size="10.00" fill="#000000">set</text>
</g>
<!-- Node17&#45;&gt;Node18 -->
<g id="edge20" class="edge">
<title>Node17&#45;&gt;Node18</title>
<path fill="none" stroke="#191970" d="M365.7896,-112.2455C383.181,-102.9701 409.4437,-88.9634 428.5081,-78.7957"/>
<polygon fill="#191970" stroke="#191970" points="430.3005,-81.8064 437.477,-74.0123 427.0064,-75.63 430.3005,-81.8064"/>
</g>
<!-- Node19 -->
<g id="node20" class="node">
<title>Node19</title>
<polygon fill="#ffffff" stroke="#bfbfbf" points="373.5,-56.5 373.5,-75.5 419.5,-75.5 419.5,-56.5 373.5,-56.5"/>
<text text-anchor="middle" x="396.5" y="-63.5" font-family="Helvetica,sans-Serif" font-size="10.00" fill="#000000">cctype</text>
</g>
<!-- Node17&#45;&gt;Node19 -->
<g id="edge21" class="edge">
<title>Node17&#45;&gt;Node19</title>
<path fill="none" stroke="#191970" d="M356.0351,-112.2455C362.9912,-104.2958 372.9883,-92.8706 381.3051,-83.3656"/>
<polygon fill="#191970" stroke="#191970" points="384.1116,-85.4732 388.0627,-75.6427 378.8436,-80.8637 384.1116,-85.4732"/>
</g>
</g>
</svg>
        <g id="navigator" transform="translate(0 0)" fill="#404254">
                <rect fill="#f2f5e9" fill-opacity="0.5" stroke="#606060" stroke-width=".5" x="0" y="0" width="60" height="60"/>
                <use id="zoomplus" xlink:href="#zoomPlus" x="17" y="9" onmousedown="handleZoom(evt,'in')"/>
                <use id="zoomminus" xlink:href="#zoomMin" x="42" y="9" onmousedown="handleZoom(evt,'out')"/>
                <use id="reset" xlink:href="#resetDef" x="30" y="36" onmousedown="handleReset()"/>
                <g id="arrowUp" xlink:href="#dirArrow" transform="translate(30 24)" onmousedown="handlePan(0,-1)">
                  <use xlink:href="#rim" fill="#404040">
                        <set attributeName="fill" to="#808080" begin="arrowUp.mouseover" end="arrowUp.mouseout"/>
                  </use>
                  <path fill="none" stroke="white" stroke-width="1.5" d="M0,-3.0v7 M-2.5,-0.5L0,-3.0L2.5,-0.5"/>
                </g>
                <g id="arrowRight" xlink:href="#dirArrow" transform="rotate(90) translate(36 -43)" onmousedown="handlePan(1,0)">
                  <use xlink:href="#rim" fill="#404040">
                        <set attributeName="fill" to="#808080" begin="arrowRight.mouseover" end="arrowRight.mouseout"/>
                  </use>
                  <path fill="none" stroke="white" stroke-width="1.5" d="M0,-3.0v7 M-2.5,-0.5L0,-3.0L2.5,-0.5"/>
                </g>
                <g id="arrowDown" xlink:href="#dirArrow" transform="rotate(180) translate(-30 -48)" onmousedown="handlePan(0,1)">
                  <use xlink:href="#rim" fill="#404040">
                        <set attributeName="fill" to="#808080" begin="arrowDown.mouseover" end="arrowDown.mouseout"/>
                  </use>
                  <path fill="none" stroke="white" stroke-width="1.5" d="M0,-3.0v7 M-2.5,-0.5L0,-3.0L2.5,-0.5"/>
                </g>
                <g id="arrowLeft" xlink:href="#dirArrow" transform="rotate(270) translate(-36 17)" onmousedown="handlePan(-1,0)">
                  <use xlink:href="#rim" fill="#404040">
                        <set attributeName="fill" to="#808080" begin="arrowLeft.mouseover" end="arrowLeft.mouseout"/>
                  </use>
                  <path fill="none" stroke="white" stroke-width="1.5" d="M0,-3.0v7 M-2.5,-0.5L0,-3.0L2.5,-0.5"/>
                </g>
        </g>
        <svg viewBox="0 0 15 15" width="100%" height="30px" preserveAspectRatio="xMaxYMin meet">
         <g id="arrow_out" transform="scale(0.3 0.3)">
          <a xlink:href="_button_widget_8cpp__incl_org.svg" target="_base">
           <rect id="button" ry="5" rx="5" y="6" x="6" height="38" width="38"
                fill="#f2f5e9" fill-opacity="0.5" stroke="#606060" stroke-width="1.0"/>
           <path id="arrow"
             d="M 11.500037,31.436501 C 11.940474,20.09759 22.043105,11.32322 32.158766,21.979434 L 37.068811,17.246167 C 37.068811,17.246167 37.088388,32 37.088388,32 L 22.160133,31.978069 C 22.160133,31.978069 26.997745,27.140456 26.997745,27.140456 C 18.528582,18.264221 13.291696,25.230495 11.500037,31.436501 z"
             style="fill:#404040;"/>
          </a>
         </g>
        </svg>
</svg>
