<?xml version="1.0" encoding="UTF-8" standalone="no"?>
<!DOCTYPE svg PUBLIC "-//W3C//DTD SVG 1.1//EN"
 "http://www.w3.org/Graphics/SVG/1.1/DTD/svg11.dtd">
<!-- Generated by graphviz version 2.40.1 (20161225.0304)
 -->
<!-- Title: src/CImg.h Pages: 1 -->
<svg width="705pt" height="84pt"
 viewBox="0.00 0.00 704.50 84.00" xmlns="http://www.w3.org/2000/svg" xmlns:xlink="http://www.w3.org/1999/xlink">
<g id="graph0" class="graph" transform="scale(1 1) rotate(0) translate(4 80)">
<title>src/CImg.h</title>
<polygon fill="#ffffff" stroke="transparent" points="-4,4 -4,-80 700.5,-80 700.5,4 -4,4"/>
<!-- Node0 -->
<g id="node1" class="node">
<title>Node0</title>
<polygon fill="#bfbfbf" stroke="#000000" points="306,-56.5 306,-75.5 371,-75.5 371,-56.5 306,-56.5"/>
<text text-anchor="middle" x="338.5" y="-63.5" font-family="Helvetica,sans-Serif" font-size="10.00" fill="#000000">src/CImg.h</text>
</g>
<!-- Node1 -->
<g id="node2" class="node">
<title>Node1</title>
<polygon fill="#ffffff" stroke="#bfbfbf" points="0,-.5 0,-19.5 43,-19.5 43,-.5 0,-.5"/>
<text text-anchor="middle" x="21.5" y="-7.5" font-family="Helvetica,sans-Serif" font-size="10.00" fill="#000000">cstdio</text>
</g>
<!-- Node0&#45;&gt;Node1 -->
<g id="edge1" class="edge">
<title>Node0&#45;&gt;Node1</title>
<path fill="none" stroke="#191970" d="M305.8756,-62.5251C254.0473,-56.6275 149.6498,-43.2119 52.9415,-20.0556"/>
<polygon fill="#191970" stroke="#191970" points="53.5516,-16.602 43.0073,-17.6353 51.8945,-23.403 53.5516,-16.602"/>
</g>
<!-- Node2 -->
<g id="node3" class="node">
<title>Node2</title>
<polygon fill="#ffffff" stroke="#bfbfbf" points="61,-.5 61,-19.5 106,-19.5 106,-.5 61,-.5"/>
<text text-anchor="middle" x="83.5" y="-7.5" font-family="Helvetica,sans-Serif" font-size="10.00" fill="#000000">cstdlib</text>
</g>
<!-- Node0&#45;&gt;Node2 -->
<g id="edge2" class="edge">
<title>Node0&#45;&gt;Node2</title>
<path fill="none" stroke="#191970" d="M305.9699,-60.4744C264.0333,-53.1001 188.7116,-39.0084 115.8924,-20.1725"/>
<polygon fill="#191970" stroke="#191970" points="116.6631,-16.7564 106.1024,-17.6069 114.8885,-23.5277 116.6631,-16.7564"/>
</g>
<!-- Node3 -->
<g id="node4" class="node">
<title>Node3</title>
<polygon fill="#ffffff" stroke="#bfbfbf" points="124,-.5 124,-19.5 173,-19.5 173,-.5 124,-.5"/>
<text text-anchor="middle" x="148.5" y="-7.5" font-family="Helvetica,sans-Serif" font-size="10.00" fill="#000000">cstdarg</text>
</g>
<!-- Node0&#45;&gt;Node3 -->
<g id="edge3" class="edge">
<title>Node0&#45;&gt;Node3</title>
<path fill="none" stroke="#191970" d="M305.8378,-56.3733C271.556,-46.2691 217.8835,-30.4499 182.9465,-20.1526"/>
<polygon fill="#191970" stroke="#191970" points="183.7662,-16.7455 173.1847,-17.2755 181.7872,-23.4599 183.7662,-16.7455"/>
</g>
<!-- Node4 -->
<g id="node5" class="node">
<title>Node4</title>
<polygon fill="#ffffff" stroke="#bfbfbf" points="191.5,-.5 191.5,-19.5 237.5,-19.5 237.5,-.5 191.5,-.5"/>
<text text-anchor="middle" x="214.5" y="-7.5" font-family="Helvetica,sans-Serif" font-size="10.00" fill="#000000">cstring</text>
</g>
<!-- Node0&#45;&gt;Node4 -->
<g id="edge4" class="edge">
<title>Node0&#45;&gt;Node4</title>
<path fill="none" stroke="#191970" d="M317.1836,-56.3733C297.2784,-47.3838 267.3564,-33.8706 244.94,-23.7471"/>
<polygon fill="#191970" stroke="#191970" points="246.0925,-20.4272 235.5382,-19.5011 243.2113,-26.8068 246.0925,-20.4272"/>
</g>
<!-- Node5 -->
<g id="node6" class="node">
<title>Node5</title>
<polygon fill="#ffffff" stroke="#bfbfbf" points="255.5,-.5 255.5,-19.5 299.5,-19.5 299.5,-.5 255.5,-.5"/>
<text text-anchor="middle" x="277.5" y="-7.5" font-family="Helvetica,sans-Serif" font-size="10.00" fill="#000000">cmath</text>
</g>
<!-- Node0&#45;&gt;Node5 -->
<g id="edge5" class="edge">
<title>Node0&#45;&gt;Node5</title>
<path fill="none" stroke="#191970" d="M327.8746,-56.2455C318.9527,-48.0549 306.012,-36.1749 295.4808,-26.5069"/>
<polygon fill="#191970" stroke="#191970" points="297.7371,-23.8271 288.0036,-19.6427 293.0032,-28.9837 297.7371,-23.8271"/>
</g>
<!-- Node6 -->
<g id="node7" class="node">
<title>Node6</title>
<polygon fill="#ffffff" stroke="#bfbfbf" points="318,-.5 318,-19.5 359,-19.5 359,-.5 318,-.5"/>
<text text-anchor="middle" x="338.5" y="-7.5" font-family="Helvetica,sans-Serif" font-size="10.00" fill="#000000">cfloat</text>
</g>
<!-- Node0&#45;&gt;Node6 -->
<g id="edge6" class="edge">
<title>Node0&#45;&gt;Node6</title>
<path fill="none" stroke="#191970" d="M338.5,-56.2455C338.5,-48.9382 338.5,-38.6944 338.5,-29.7046"/>
<polygon fill="#191970" stroke="#191970" points="342.0001,-29.6426 338.5,-19.6427 335.0001,-29.6427 342.0001,-29.6426"/>
</g>
<!-- Node7 -->
<g id="node8" class="node">
<title>Node7</title>
<polygon fill="#ffffff" stroke="#bfbfbf" points="377,-.5 377,-19.5 422,-19.5 422,-.5 377,-.5"/>
<text text-anchor="middle" x="399.5" y="-7.5" font-family="Helvetica,sans-Serif" font-size="10.00" fill="#000000">climits</text>
</g>
<!-- Node0&#45;&gt;Node7 -->
<g id="edge7" class="edge">
<title>Node0&#45;&gt;Node7</title>
<path fill="none" stroke="#191970" d="M349.1254,-56.2455C358.0473,-48.0549 370.988,-36.1749 381.5192,-26.5069"/>
<polygon fill="#191970" stroke="#191970" points="383.9968,-28.9837 388.9964,-19.6427 379.2629,-23.8271 383.9968,-28.9837"/>
</g>
<!-- Node8 -->
<g id="node9" class="node">
<title>Node8</title>
<polygon fill="#ffffff" stroke="#bfbfbf" points="440,-.5 440,-19.5 481,-19.5 481,-.5 440,-.5"/>
<text text-anchor="middle" x="460.5" y="-7.5" font-family="Helvetica,sans-Serif" font-size="10.00" fill="#000000">ctime</text>
</g>
<!-- Node0&#45;&gt;Node8 -->
<g id="edge8" class="edge">
<title>Node0&#45;&gt;Node8</title>
<path fill="none" stroke="#191970" d="M359.4725,-56.3733C379.0567,-47.3838 408.4961,-33.8706 430.551,-23.7471"/>
<polygon fill="#191970" stroke="#191970" points="432.1729,-26.8538 439.8011,-19.5011 429.2527,-20.4919 432.1729,-26.8538"/>
</g>
<!-- Node9 -->
<g id="node10" class="node">
<title>Node9</title>
<polygon fill="#ffffff" stroke="#bfbfbf" points="499,-.5 499,-19.5 558,-19.5 558,-.5 499,-.5"/>
<text text-anchor="middle" x="528.5" y="-7.5" font-family="Helvetica,sans-Serif" font-size="10.00" fill="#000000">exception</text>
</g>
<!-- Node0&#45;&gt;Node9 -->
<g id="edge9" class="edge">
<title>Node0&#45;&gt;Node9</title>
<path fill="none" stroke="#191970" d="M371.1622,-56.3733C403.8024,-46.753 454.0205,-31.9519 488.9097,-21.6687"/>
<polygon fill="#191970" stroke="#191970" points="490.1594,-24.9493 498.7619,-18.7649 488.1804,-18.2349 490.1594,-24.9493"/>
</g>
<!-- Node10 -->
<g id="node11" class="node">
<title>Node10</title>
<polygon fill="#ffffff" stroke="#bfbfbf" points="576.5,-.5 576.5,-19.5 632.5,-19.5 632.5,-.5 576.5,-.5"/>
<text text-anchor="middle" x="604.5" y="-7.5" font-family="Helvetica,sans-Serif" font-size="10.00" fill="#000000">algorithm</text>
</g>
<!-- Node0&#45;&gt;Node10 -->
<g id="edge10" class="edge">
<title>Node0&#45;&gt;Node10</title>
<path fill="none" stroke="#191970" d="M371.2595,-60.1203C413.9257,-52.3098 491.034,-37.675 566.1627,-20.2055"/>
<polygon fill="#191970" stroke="#191970" points="567.3302,-23.5267 576.2668,-17.8356 565.7317,-16.7116 567.3302,-23.5267"/>
</g>
<!-- Node11 -->
<g id="node12" class="node">
<title>Node11</title>
<polygon fill="#ffffff" stroke="#bfbfbf" points="650.5,-.5 650.5,-19.5 696.5,-19.5 696.5,-.5 650.5,-.5"/>
<text text-anchor="middle" x="673.5" y="-7.5" font-family="Helvetica,sans-Serif" font-size="10.00" fill="#000000">stdio.h</text>
</g>
<!-- Node0&#45;&gt;Node11 -->
<g id="edge11" class="edge">
<title>Node0&#45;&gt;Node11</title>
<path fill="none" stroke="#191970" d="M371.093,-62.6999C425.1912,-56.8682 537.0167,-43.3129 640.2342,-20.0183"/>
<polygon fill="#191970" stroke="#191970" points="641.2297,-23.3809 650.1939,-17.7335 639.6645,-16.5582 641.2297,-23.3809"/>
</g>
</g>
</svg>
