<?xml version="1.0" encoding="UTF-8" standalone="no"?>
<!DOCTYPE svg PUBLIC "-//W3C//DTD SVG 1.1//EN"
 "http://www.w3.org/Graphics/SVG/1.1/DTD/svg11.dtd">
<!-- Generated by graphviz version 2.40.1 (20161225.0304)
 -->
<!-- Title: src/Collection/CollectionIterator.hpp Pages: 1 -->
<!--zoomable 285 -->
<svg id="main" version="1.1" xmlns="http://www.w3.org/2000/svg" xmlns:xlink="http://www.w3.org/1999/xlink" xml:space="preserve" onload="init(evt)">
<style type="text/css"><![CDATA[
.edge:hover path { stroke: red; }
.edge:hover polygon { stroke: red; fill: red; }
]]></style>
<script type="text/javascript"><![CDATA[
var edges = document.getElementsByTagName('g');
if (edges && edges.length) {
  for (var i=0;i<edges.length;i++) {
    if (edges[i].id.substr(0,4)=='edge') {
      edges[i].setAttribute('class','edge');
    }
  }
}
]]></script>
        <defs>
                <circle id="rim" cx="0" cy="0" r="7"/>
                <circle id="rim2" cx="0" cy="0" r="3.5"/>
                <g id="zoomPlus">
                        <use xlink:href="#rim" fill="#404040">
                                <set attributeName="fill" to="#808080" begin="zoomplus.mouseover" end="zoomplus.mouseout"/>
                        </use>
                        <path d="M-4,0h8M0,-4v8" fill="none" stroke="white" stroke-width="1.5" pointer-events="none"/>
                </g>
                <g id="zoomMin">
                        <use xlink:href="#rim" fill="#404040">
                                <set attributeName="fill" to="#808080" begin="zoomminus.mouseover" end="zoomminus.mouseout"/>
                        </use>
                        <path d="M-4,0h8" fill="none" stroke="white" stroke-width="1.5" pointer-events="none"/>
                </g>
                <g id="dirArrow">
                        <path fill="none" stroke="white" stroke-width="1.5" d="M0,-3.0v7 M-2.5,-0.5L0,-3.0L2.5,-0.5"/>
                </g>
               <g id="resetDef">
                       <use xlink:href="#rim2" fill="#404040">
                               <set attributeName="fill" to="#808080" begin="reset.mouseover" end="reset.mouseout"/>
                       </use>
               </g>
        </defs>

<script type="text/javascript">
var viewWidth = 1332;
var viewHeight = 285;
var sectionId = 'dynsection-1';
</script>
<script xlink:href="svgpan.js"/>
<svg id="graph" class="graph">
<g id="viewport">
<title>src/Collection/CollectionIterator.hpp</title>
<polygon fill="#ffffff" stroke="transparent" points="-4,4 -4,-281 1328,-281 1328,4 -4,4"/>
<!-- Node4 -->
<g id="node1" class="node">
<title>Node4</title>
<polygon fill="#bfbfbf" stroke="#000000" points="767.5,-246.5 767.5,-276.5 890.5,-276.5 890.5,-246.5 767.5,-246.5"/>
<text text-anchor="start" x="775.5" y="-264.5" font-family="Helvetica,sans-Serif" font-size="10.00" fill="#000000">src/Collection/Collection</text>
<text text-anchor="middle" x="829" y="-253.5" font-family="Helvetica,sans-Serif" font-size="10.00" fill="#000000">Iterator.hpp</text>
</g>
<!-- Node5 -->
<g id="node2" class="node">
<title>Node5</title>
<g id="a_node2"><a xlink:href="_collection_8hpp.html" target="_top" xlink:title="src/Collection/Collection.hpp">
<polygon fill="#ffffff" stroke="#000000" points="815,-190.5 815,-209.5 957,-209.5 957,-190.5 815,-190.5"/>
<text text-anchor="middle" x="886" y="-197.5" font-family="Helvetica,sans-Serif" font-size="10.00" fill="#000000">src/Collection/Collection.hpp</text>
</a>
</g>
</g>
<!-- Node4&#45;&gt;Node5 -->
<g id="edge1" class="edge">
<title>Node4&#45;&gt;Node5</title>
<path fill="none" stroke="#191970" d="M849.889,-238.9618C859.1706,-228.9475 869.6143,-217.6794 876.8736,-209.8469"/>
<polygon fill="#191970" stroke="#191970" points="847.3206,-236.5842 843.0899,-246.2977 852.4546,-241.3426 847.3206,-236.5842"/>
</g>
<!-- Node12 -->
<g id="node9" class="node">
<title>Node12</title>
<g id="a_node9"><a xlink:href="_collection_pool_8hpp.html" target="_top" xlink:title="src/Collection/Collection\lPool.hpp">
<polygon fill="#ffffff" stroke="#000000" points="704.5,-123.5 704.5,-153.5 827.5,-153.5 827.5,-123.5 704.5,-123.5"/>
<text text-anchor="start" x="712.5" y="-141.5" font-family="Helvetica,sans-Serif" font-size="10.00" fill="#000000">src/Collection/Collection</text>
<text text-anchor="middle" x="766" y="-130.5" font-family="Helvetica,sans-Serif" font-size="10.00" fill="#000000">Pool.hpp</text>
</a>
</g>
</g>
<!-- Node4&#45;&gt;Node12 -->
<g id="edge26" class="edge">
<title>Node4&#45;&gt;Node12</title>
<path fill="none" stroke="#191970" d="M816.5996,-237.2898C803.8837,-212.4634 784.4969,-174.613 773.7882,-153.7056"/>
<polygon fill="#191970" stroke="#191970" points="813.601,-239.1129 821.275,-246.4178 819.8313,-235.9218 813.601,-239.1129"/>
</g>
<!-- Node6 -->
<g id="node3" class="node">
<title>Node6</title>
<g id="a_node3"><a xlink:href="_filtered_collection_8hpp.html" target="_top" xlink:title="src/Collection/FilteredCollection.hpp">
<polygon fill="#ffffff" stroke="#000000" points="935,-129 935,-148 1109,-148 1109,-129 935,-129"/>
<text text-anchor="middle" x="1022" y="-136" font-family="Helvetica,sans-Serif" font-size="10.00" fill="#000000">src/Collection/FilteredCollection.hpp</text>
</a>
</g>
</g>
<!-- Node5&#45;&gt;Node6 -->
<g id="edge2" class="edge">
<title>Node5&#45;&gt;Node6</title>
<path fill="none" stroke="#191970" d="M916.5402,-186.1895C942.2352,-174.5701 978.3028,-158.2601 1000.8992,-148.0419"/>
<polygon fill="#191970" stroke="#191970" points="914.9195,-183.0811 907.25,-190.3906 917.8038,-189.4593 914.9195,-183.0811"/>
</g>
<!-- Node10 -->
<g id="node7" class="node">
<title>Node10</title>
<g id="a_node7"><a xlink:href="_grid_widget_8hpp.html" target="_top" xlink:title="src/Interface/GridWidget.hpp">
<polygon fill="#ffffff" stroke="#000000" points="1090,-67.5 1090,-86.5 1232,-86.5 1232,-67.5 1090,-67.5"/>
<text text-anchor="middle" x="1161" y="-74.5" font-family="Helvetica,sans-Serif" font-size="10.00" fill="#000000">src/Interface/GridWidget.hpp</text>
</a>
</g>
</g>
<!-- Node5&#45;&gt;Node10 -->
<g id="edge22" class="edge">
<title>Node5&#45;&gt;Node10</title>
<path fill="none" stroke="#191970" d="M967.3568,-191.1771C1024.265,-183.6614 1094.1881,-171.3112 1118,-154 1141.4065,-136.9835 1153.6894,-103.1234 1158.5154,-86.5653"/>
<polygon fill="#191970" stroke="#191970" points="966.7303,-187.7288 957.2598,-192.4786 967.6252,-194.6714 966.7303,-187.7288"/>
</g>
<!-- Node5&#45;&gt;Node12 -->
<g id="edge9" class="edge">
<title>Node5&#45;&gt;Node12</title>
<path fill="none" stroke="#191970" d="M858.2729,-185.7899C839.4279,-176.1318 814.5359,-163.3747 795.3553,-153.5446"/>
<polygon fill="#191970" stroke="#191970" points="856.7543,-188.9444 867.25,-190.3906 859.947,-182.7149 856.7543,-188.9444"/>
</g>
<!-- Node20 -->
<g id="node17" class="node">
<title>Node20</title>
<g id="a_node17"><a xlink:href="_tag_setter_widget_8hpp.html" target="_top" xlink:title="src/Interface/TagSetterWidget.hpp">
<polygon fill="#ffffff" stroke="#000000" points="622.5,-67.5 622.5,-86.5 789.5,-86.5 789.5,-67.5 622.5,-67.5"/>
<text text-anchor="middle" x="706" y="-74.5" font-family="Helvetica,sans-Serif" font-size="10.00" fill="#000000">src/Interface/TagSetterWidget.hpp</text>
</a>
</g>
</g>
<!-- Node5&#45;&gt;Node20 -->
<g id="edge19" class="edge">
<title>Node5&#45;&gt;Node20</title>
<path fill="none" stroke="#191970" d="M878.0621,-181.084C869.8822,-163.7215 855.5686,-138.4235 836,-123 812.7789,-104.6977 781.7075,-93.3487 755.7644,-86.5036"/>
<polygon fill="#191970" stroke="#191970" points="874.8857,-182.5548 882.1628,-190.2551 881.276,-179.6974 874.8857,-182.5548"/>
</g>
<!-- Node21 -->
<g id="node18" class="node">
<title>Node21</title>
<g id="a_node18"><a xlink:href="_tag_selector_8hpp.html" target="_top" xlink:title="src/Interface/TagSelector.hpp">
<polygon fill="#ffffff" stroke="#000000" points="808,-67.5 808,-86.5 954,-86.5 954,-67.5 808,-67.5"/>
<text text-anchor="middle" x="881" y="-74.5" font-family="Helvetica,sans-Serif" font-size="10.00" fill="#000000">src/Interface/TagSelector.hpp</text>
</a>
</g>
</g>
<!-- Node5&#45;&gt;Node21 -->
<g id="edge23" class="edge">
<title>Node5&#45;&gt;Node21</title>
<path fill="none" stroke="#191970" d="M885.1964,-180.2305C884.1077,-153.4497 882.2067,-106.686 881.3905,-86.6068"/>
<polygon fill="#191970" stroke="#191970" points="881.7043,-180.4988 885.6077,-190.3484 888.6985,-180.2145 881.7043,-180.4988"/>
</g>
<!-- Node7 -->
<g id="node4" class="node">
<title>Node7</title>
<g id="a_node4"><a xlink:href="_application_8hpp.html" target="_top" xlink:title="src/Application.hpp">
<polygon fill="#ffffff" stroke="#000000" points="972,-67.5 972,-86.5 1072,-86.5 1072,-67.5 972,-67.5"/>
<text text-anchor="middle" x="1022" y="-74.5" font-family="Helvetica,sans-Serif" font-size="10.00" fill="#000000">src/Application.hpp</text>
</a>
</g>
</g>
<!-- Node6&#45;&gt;Node7 -->
<g id="edge3" class="edge">
<title>Node6&#45;&gt;Node7</title>
<path fill="none" stroke="#191970" d="M1022,-118.7462C1022,-108.0519 1022,-95.314 1022,-86.7449"/>
<polygon fill="#191970" stroke="#191970" points="1018.5001,-118.8906 1022,-128.8906 1025.5001,-118.8907 1018.5001,-118.8906"/>
</g>
<!-- Node6&#45;&gt;Node10 -->
<g id="edge6" class="edge">
<title>Node6&#45;&gt;Node10</title>
<path fill="none" stroke="#191970" d="M1052.8675,-124.8428C1079.1506,-113.2139 1116.2372,-96.8051 1139.4338,-86.5419"/>
<polygon fill="#191970" stroke="#191970" points="1051.4475,-121.6437 1043.7188,-128.8906 1054.2798,-128.0452 1051.4475,-121.6437"/>
</g>
<!-- Node8 -->
<g id="node5" class="node">
<title>Node8</title>
<g id="a_node5"><a xlink:href="_application_8cpp.html" target="_top" xlink:title="src/Application.cpp">
<polygon fill="#ffffff" stroke="#000000" points="972,-6 972,-25 1072,-25 1072,-6 972,-6"/>
<text text-anchor="middle" x="1022" y="-13" font-family="Helvetica,sans-Serif" font-size="10.00" fill="#000000">src/Application.cpp</text>
</a>
</g>
</g>
<!-- Node7&#45;&gt;Node8 -->
<g id="edge4" class="edge">
<title>Node7&#45;&gt;Node8</title>
<path fill="none" stroke="#191970" d="M1022,-57.2462C1022,-46.5519 1022,-33.814 1022,-25.2449"/>
<polygon fill="#191970" stroke="#191970" points="1018.5001,-57.3906 1022,-67.3906 1025.5001,-57.3907 1018.5001,-57.3906"/>
</g>
<!-- Node9 -->
<g id="node6" class="node">
<title>Node9</title>
<g id="a_node6"><a xlink:href="main_8cpp.html" target="_top" xlink:title="Contient la fonction main. ">
<polygon fill="#ffffff" stroke="#000000" points="1090.5,-6 1090.5,-25 1163.5,-25 1163.5,-6 1090.5,-6"/>
<text text-anchor="middle" x="1127" y="-13" font-family="Helvetica,sans-Serif" font-size="10.00" fill="#000000">src/main.cpp</text>
</a>
</g>
</g>
<!-- Node7&#45;&gt;Node9 -->
<g id="edge5" class="edge">
<title>Node7&#45;&gt;Node9</title>
<path fill="none" stroke="#191970" d="M1047.1684,-62.2585C1066.8817,-50.7122 1093.7243,-34.99 1110.709,-25.0419"/>
<polygon fill="#191970" stroke="#191970" points="1045.2662,-59.3164 1038.4063,-67.3906 1048.804,-65.3566 1045.2662,-59.3164"/>
</g>
<!-- Node10&#45;&gt;Node8 -->
<g id="edge7" class="edge">
<title>Node10&#45;&gt;Node8</title>
<path fill="none" stroke="#191970" d="M1130.1325,-63.3428C1103.8494,-51.7139 1066.7628,-35.3051 1043.5662,-25.0419"/>
<polygon fill="#191970" stroke="#191970" points="1128.7202,-66.5452 1139.2813,-67.3906 1131.5525,-60.1437 1128.7202,-66.5452"/>
</g>
<!-- Node11 -->
<g id="node8" class="node">
<title>Node11</title>
<g id="a_node8"><a xlink:href="_grid_widget_8cpp.html" target="_top" xlink:title="src/Interface/GridWidget.cpp">
<polygon fill="#ffffff" stroke="#000000" points="1182,-6 1182,-25 1324,-25 1324,-6 1182,-6"/>
<text text-anchor="middle" x="1253" y="-13" font-family="Helvetica,sans-Serif" font-size="10.00" fill="#000000">src/Interface/GridWidget.cpp</text>
</a>
</g>
</g>
<!-- Node10&#45;&gt;Node11 -->
<g id="edge8" class="edge">
<title>Node10&#45;&gt;Node11</title>
<path fill="none" stroke="#191970" d="M1183.7591,-61.786C1200.9618,-50.2864 1224.0462,-34.855 1238.7259,-25.0419"/>
<polygon fill="#191970" stroke="#191970" points="1181.7434,-58.9234 1175.375,-67.3906 1185.6337,-64.7429 1181.7434,-58.9234"/>
</g>
<!-- Node12&#45;&gt;Node7 -->
<g id="edge10" class="edge">
<title>Node12&#45;&gt;Node7</title>
<path fill="none" stroke="#191970" d="M837.4397,-121.3377C884.3012,-110.08 943.8231,-95.7808 982.4019,-86.5128"/>
<polygon fill="#191970" stroke="#191970" points="836.5499,-117.9518 827.6442,-123.691 838.1851,-124.7582 836.5499,-117.9518"/>
</g>
<!-- Node13 -->
<g id="node10" class="node">
<title>Node13</title>
<g id="a_node10"><a xlink:href="_utilities_8hpp.html" target="_top" xlink:title="src/Utilities/Utilities.hpp">
<polygon fill="#ffffff" stroke="#000000" points="471.5,-67.5 471.5,-86.5 592.5,-86.5 592.5,-67.5 471.5,-67.5"/>
<text text-anchor="middle" x="532" y="-74.5" font-family="Helvetica,sans-Serif" font-size="10.00" fill="#000000">src/Utilities/Utilities.hpp</text>
</a>
</g>
</g>
<!-- Node12&#45;&gt;Node13 -->
<g id="edge11" class="edge">
<title>Node12&#45;&gt;Node13</title>
<path fill="none" stroke="#191970" d="M699.0274,-120.8982C656.4844,-109.7171 603.0694,-95.6785 568.2617,-86.5303"/>
<polygon fill="#191970" stroke="#191970" points="698.1959,-124.2985 708.7572,-123.4554 699.9753,-117.5284 698.1959,-124.2985"/>
</g>
<!-- Node13&#45;&gt;Node8 -->
<g id="edge12" class="edge">
<title>Node13&#45;&gt;Node8</title>
<path fill="none" stroke="#191970" d="M602.5699,-68.2012C606.096,-67.7886 609.5879,-67.3861 613,-67 768.3848,-49.419 809.1419,-58.9501 963,-31 971.6487,-29.4289 980.8912,-27.2472 989.4333,-25.016"/>
<polygon fill="#191970" stroke="#191970" points="602.0989,-64.7324 592.5801,-69.3845 602.9224,-71.6838 602.0989,-64.7324"/>
</g>
<!-- Node14 -->
<g id="node11" class="node">
<title>Node14</title>
<g id="a_node11"><a xlink:href="_button_widget_8cpp.html" target="_top" xlink:title="src/Interface/ButtonWidget.cpp">
<polygon fill="#ffffff" stroke="#000000" points="264,-6 264,-25 416,-25 416,-6 264,-6"/>
<text text-anchor="middle" x="340" y="-13" font-family="Helvetica,sans-Serif" font-size="10.00" fill="#000000">src/Interface/ButtonWidget.cpp</text>
</a>
</g>
</g>
<!-- Node13&#45;&gt;Node14 -->
<g id="edge13" class="edge">
<title>Node13&#45;&gt;Node14</title>
<path fill="none" stroke="#191970" d="M492.1974,-64.2507C455.7676,-52.5818 402.6738,-35.5752 369.7893,-25.0419"/>
<polygon fill="#191970" stroke="#191970" points="491.4089,-67.6733 502,-67.3906 493.5443,-61.0069 491.4089,-67.6733"/>
</g>
<!-- Node15 -->
<g id="node12" class="node">
<title>Node15</title>
<g id="a_node12"><a xlink:href="_tag_selector_8cpp.html" target="_top" xlink:title="src/Interface/TagSelector.cpp">
<polygon fill="#ffffff" stroke="#000000" points="808,-6 808,-25 954,-25 954,-6 808,-6"/>
<text text-anchor="middle" x="881" y="-13" font-family="Helvetica,sans-Serif" font-size="10.00" fill="#000000">src/Interface/TagSelector.cpp</text>
</a>
</g>
</g>
<!-- Node13&#45;&gt;Node15 -->
<g id="edge14" class="edge">
<title>Node13&#45;&gt;Node15</title>
<path fill="none" stroke="#191970" d="M598.4424,-65.7636C652.2782,-56.5981 730.0751,-43.215 798,-31 808.532,-29.106 819.8065,-27.0318 830.5437,-25.0342"/>
<polygon fill="#191970" stroke="#191970" points="597.6126,-62.3544 588.341,-67.4817 598.7864,-69.2553 597.6126,-62.3544"/>
</g>
<!-- Node16 -->
<g id="node13" class="node">
<title>Node16</title>
<g id="a_node13"><a xlink:href="_tag_setter_widget_8cpp.html" target="_top" xlink:title="src/Interface/TagSetterWidget.cpp">
<polygon fill="#ffffff" stroke="#000000" points="622.5,-6 622.5,-25 789.5,-25 789.5,-6 622.5,-6"/>
<text text-anchor="middle" x="706" y="-13" font-family="Helvetica,sans-Serif" font-size="10.00" fill="#000000">src/Interface/TagSetterWidget.cpp</text>
</a>
</g>
</g>
<!-- Node13&#45;&gt;Node16 -->
<g id="edge15" class="edge">
<title>Node13&#45;&gt;Node16</title>
<path fill="none" stroke="#191970" d="M568.9209,-63.9504C601.9068,-52.2916 649.4566,-35.4852 679.0034,-25.0419"/>
<polygon fill="#191970" stroke="#191970" points="567.4495,-60.7582 559.1875,-67.3906 569.7823,-67.3581 567.4495,-60.7582"/>
</g>
<!-- Node17 -->
<g id="node14" class="node">
<title>Node17</title>
<g id="a_node14"><a xlink:href="_tag_viewer_widget_8cpp.html" target="_top" xlink:title="src/Interface/TagViewerWidget.cpp">
<polygon fill="#ffffff" stroke="#000000" points="434,-6 434,-25 604,-25 604,-6 434,-6"/>
<text text-anchor="middle" x="519" y="-13" font-family="Helvetica,sans-Serif" font-size="10.00" fill="#000000">src/Interface/TagViewerWidget.cpp</text>
</a>
</g>
</g>
<!-- Node13&#45;&gt;Node17 -->
<g id="edge16" class="edge">
<title>Node13&#45;&gt;Node17</title>
<path fill="none" stroke="#191970" d="M527.8956,-57.5832C525.6206,-46.8205 522.8903,-33.9042 521.0599,-25.2449"/>
<polygon fill="#191970" stroke="#191970" points="524.4762,-58.3307 529.9688,-67.3906 531.3249,-56.8829 524.4762,-58.3307"/>
</g>
<!-- Node18 -->
<g id="node15" class="node">
<title>Node18</title>
<g id="a_node15"><a xlink:href="_text_box_8cpp.html" target="_top" xlink:title="src/Utilities/TextBox\l/TextBox.cpp">
<polygon fill="#ffffff" stroke="#000000" points="0,-.5 0,-30.5 106,-30.5 106,-.5 0,-.5"/>
<text text-anchor="start" x="8" y="-18.5" font-family="Helvetica,sans-Serif" font-size="10.00" fill="#000000">src/Utilities/TextBox</text>
<text text-anchor="middle" x="53" y="-7.5" font-family="Helvetica,sans-Serif" font-size="10.00" fill="#000000">/TextBox.cpp</text>
</a>
</g>
</g>
<!-- Node13&#45;&gt;Node18 -->
<g id="edge17" class="edge">
<title>Node13&#45;&gt;Node18</title>
<path fill="none" stroke="#191970" d="M461.0953,-72.1127C377.7848,-65.6942 235.609,-52.6262 115,-31 112.1605,-30.4909 109.2583,-29.9253 106.3354,-29.3199"/>
<polygon fill="#191970" stroke="#191970" points="460.9702,-75.6132 471.2067,-72.8813 461.5008,-68.6334 460.9702,-75.6132"/>
</g>
<!-- Node19 -->
<g id="node16" class="node">
<title>Node19</title>
<g id="a_node16"><a xlink:href="_utilities_8cpp.html" target="_top" xlink:title="src/Utilities/Utilities.cpp">
<polygon fill="#ffffff" stroke="#000000" points="124.5,-6 124.5,-25 245.5,-25 245.5,-6 124.5,-6"/>
<text text-anchor="middle" x="185" y="-13" font-family="Helvetica,sans-Serif" font-size="10.00" fill="#000000">src/Utilities/Utilities.cpp</text>
</a>
</g>
</g>
<!-- Node13&#45;&gt;Node19 -->
<g id="edge18" class="edge">
<title>Node13&#45;&gt;Node19</title>
<path fill="none" stroke="#191970" d="M461.1315,-66.2981C405.0554,-57.5729 324.8366,-44.5206 255,-31 245.7126,-29.2019 235.7702,-27.1054 226.3802,-25.046"/>
<polygon fill="#191970" stroke="#191970" points="460.8952,-69.8032 471.3133,-67.876 461.9673,-62.8857 460.8952,-69.8032"/>
</g>
<!-- Node20&#45;&gt;Node8 -->
<g id="edge20" class="edge">
<title>Node20&#45;&gt;Node8</title>
<path fill="none" stroke="#191970" d="M777.104,-65.8395C828.8677,-57.3344 900.5462,-44.7699 963,-31 970.9635,-29.2442 979.4742,-27.1423 987.4824,-25.0614"/>
<polygon fill="#191970" stroke="#191970" points="776.3305,-62.4193 767.0254,-67.4855 777.4589,-69.3278 776.3305,-62.4193"/>
</g>
<!-- Node20&#45;&gt;Node16 -->
<g id="edge21" class="edge">
<title>Node20&#45;&gt;Node16</title>
<path fill="none" stroke="#191970" d="M706,-57.2462C706,-46.5519 706,-33.814 706,-25.2449"/>
<polygon fill="#191970" stroke="#191970" points="702.5001,-57.3906 706,-67.3906 709.5001,-57.3907 702.5001,-57.3906"/>
</g>
<!-- Node21&#45;&gt;Node8 -->
<g id="edge24" class="edge">
<title>Node21&#45;&gt;Node8</title>
<path fill="none" stroke="#191970" d="M912.3116,-63.3428C938.9729,-51.7139 976.5931,-35.3051 1000.1235,-25.0419"/>
<polygon fill="#191970" stroke="#191970" points="910.798,-60.1845 903.0313,-67.3906 913.5966,-66.6007 910.798,-60.1845"/>
</g>
<!-- Node21&#45;&gt;Node15 -->
<g id="edge25" class="edge">
<title>Node21&#45;&gt;Node15</title>
<path fill="none" stroke="#191970" d="M881,-57.2462C881,-46.5519 881,-33.814 881,-25.2449"/>
<polygon fill="#191970" stroke="#191970" points="877.5001,-57.3906 881,-67.3906 884.5001,-57.3907 877.5001,-57.3906"/>
</g>
</g>
</svg>
        <g id="navigator" transform="translate(0 0)" fill="#404254">
                <rect fill="#f2f5e9" fill-opacity="0.5" stroke="#606060" stroke-width=".5" x="0" y="0" width="60" height="60"/>
                <use id="zoomplus" xlink:href="#zoomPlus" x="17" y="9" onmousedown="handleZoom(evt,'in')"/>
                <use id="zoomminus" xlink:href="#zoomMin" x="42" y="9" onmousedown="handleZoom(evt,'out')"/>
                <use id="reset" xlink:href="#resetDef" x="30" y="36" onmousedown="handleReset()"/>
                <g id="arrowUp" xlink:href="#dirArrow" transform="translate(30 24)" onmousedown="handlePan(0,-1)">
                  <use xlink:href="#rim" fill="#404040">
                        <set attributeName="fill" to="#808080" begin="arrowUp.mouseover" end="arrowUp.mouseout"/>
                  </use>
                  <path fill="none" stroke="white" stroke-width="1.5" d="M0,-3.0v7 M-2.5,-0.5L0,-3.0L2.5,-0.5"/>
                </g>
                <g id="arrowRight" xlink:href="#dirArrow" transform="rotate(90) translate(36 -43)" onmousedown="handlePan(1,0)">
                  <use xlink:href="#rim" fill="#404040">
                        <set attributeName="fill" to="#808080" begin="arrowRight.mouseover" end="arrowRight.mouseout"/>
                  </use>
                  <path fill="none" stroke="white" stroke-width="1.5" d="M0,-3.0v7 M-2.5,-0.5L0,-3.0L2.5,-0.5"/>
                </g>
                <g id="arrowDown" xlink:href="#dirArrow" transform="rotate(180) translate(-30 -48)" onmousedown="handlePan(0,1)">
                  <use xlink:href="#rim" fill="#404040">
                        <set attributeName="fill" to="#808080" begin="arrowDown.mouseover" end="arrowDown.mouseout"/>
                  </use>
                  <path fill="none" stroke="white" stroke-width="1.5" d="M0,-3.0v7 M-2.5,-0.5L0,-3.0L2.5,-0.5"/>
                </g>
                <g id="arrowLeft" xlink:href="#dirArrow" transform="rotate(270) translate(-36 17)" onmousedown="handlePan(-1,0)">
                  <use xlink:href="#rim" fill="#404040">
                        <set attributeName="fill" to="#808080" begin="arrowLeft.mouseover" end="arrowLeft.mouseout"/>
                  </use>
                  <path fill="none" stroke="white" stroke-width="1.5" d="M0,-3.0v7 M-2.5,-0.5L0,-3.0L2.5,-0.5"/>
                </g>
        </g>
        <svg viewBox="0 0 15 15" width="100%" height="30px" preserveAspectRatio="xMaxYMin meet">
         <g id="arrow_out" transform="scale(0.3 0.3)">
          <a xlink:href="_collection_iterator_8hpp__dep__incl_org.svg" target="_base">
           <rect id="button" ry="5" rx="5" y="6" x="6" height="38" width="38"
                fill="#f2f5e9" fill-opacity="0.5" stroke="#606060" stroke-width="1.0"/>
           <path id="arrow"
             d="M 11.500037,31.436501 C 11.940474,20.09759 22.043105,11.32322 32.158766,21.979434 L 37.068811,17.246167 C 37.068811,17.246167 37.088388,32 37.088388,32 L 22.160133,31.978069 C 22.160133,31.978069 26.997745,27.140456 26.997745,27.140456 C 18.528582,18.264221 13.291696,25.230495 11.500037,31.436501 z"
             style="fill:#404040;"/>
          </a>
         </g>
        </svg>
</svg>
