<?xml version="1.0" encoding="UTF-8" standalone="no"?>
<!DOCTYPE svg PUBLIC "-//W3C//DTD SVG 1.1//EN"
 "http://www.w3.org/Graphics/SVG/1.1/DTD/svg11.dtd">
<!-- Generated by graphviz version 2.40.1 (20161225.0304)
 -->
<!-- Title: src/Collection/CollectionIterator.hpp Pages: 1 -->
<svg width="640pt" height="229pt"
 viewBox="0.00 0.00 640.08 229.00" xmlns="http://www.w3.org/2000/svg" xmlns:xlink="http://www.w3.org/1999/xlink">
<g id="graph0" class="graph" transform="scale(1 1) rotate(0) translate(4 225)">
<title>src/Collection/CollectionIterator.hpp</title>
<polygon fill="#ffffff" stroke="transparent" points="-4,4 -4,-225 636.0843,-225 636.0843,4 -4,4"/>
<!-- Node4 -->
<g id="node1" class="node">
<title>Node4</title>
<polygon fill="#bfbfbf" stroke="#000000" points="20.0843,-190.5 20.0843,-220.5 143.0843,-220.5 143.0843,-190.5 20.0843,-190.5"/>
<text text-anchor="start" x="28.0843" y="-208.5" font-family="Helvetica,sans-Serif" font-size="10.00" fill="#000000">src/Collection/Collection</text>
<text text-anchor="middle" x="81.5843" y="-197.5" font-family="Helvetica,sans-Serif" font-size="10.00" fill="#000000">Iterator.hpp</text>
</g>
<!-- Node5 -->
<g id="node2" class="node">
<title>Node5</title>
<g id="a_node2"><a xlink:href="_collection_8hpp.html" target="_top" xlink:title="src/Collection/Collection.hpp">
<polygon fill="#ffffff" stroke="#000000" points="187.5843,-134.5 187.5843,-153.5 329.5843,-153.5 329.5843,-134.5 187.5843,-134.5"/>
<text text-anchor="middle" x="258.5843" y="-141.5" font-family="Helvetica,sans-Serif" font-size="10.00" fill="#000000">src/Collection/Collection.hpp</text>
</a>
</g>
</g>
<!-- Node4&#45;&gt;Node5 -->
<g id="edge1" class="edge">
<title>Node4&#45;&gt;Node5</title>
<path fill="none" stroke="#191970" d="M134.4917,-187.1169C166.2868,-176.0695 205.4365,-162.4666 231.1556,-153.5303"/>
<polygon fill="#191970" stroke="#191970" points="133.1807,-183.8671 124.8834,-190.4554 135.4782,-190.4794 133.1807,-183.8671"/>
</g>
<!-- Node6 -->
<g id="node3" class="node">
<title>Node6</title>
<g id="a_node3"><a xlink:href="_collection_pool_8hpp.html" target="_top" xlink:title="src/Collection/Collection\lPool.hpp">
<polygon fill="#ffffff" stroke="#000000" points="20.0843,-67.5 20.0843,-97.5 143.0843,-97.5 143.0843,-67.5 20.0843,-67.5"/>
<text text-anchor="start" x="28.0843" y="-85.5" font-family="Helvetica,sans-Serif" font-size="10.00" fill="#000000">src/Collection/Collection</text>
<text text-anchor="middle" x="81.5843" y="-74.5" font-family="Helvetica,sans-Serif" font-size="10.00" fill="#000000">Pool.hpp</text>
</a>
</g>
</g>
<!-- Node4&#45;&gt;Node6 -->
<g id="edge14" class="edge">
<title>Node4&#45;&gt;Node6</title>
<path fill="none" stroke="#191970" d="M81.5843,-180.2943C81.5843,-155.4615 81.5843,-118.3355 81.5843,-97.7056"/>
<polygon fill="#191970" stroke="#191970" points="78.0844,-180.4178 81.5843,-190.4178 85.0844,-180.4178 78.0844,-180.4178"/>
</g>
<!-- Node7 -->
<g id="node4" class="node">
<title>Node7</title>
<g id="a_node4"><a xlink:href="main_8cpp.html" target="_top" xlink:title="src/main.cpp">
<polygon fill="#ffffff" stroke="#000000" points="264.0843,-6 264.0843,-25 337.0843,-25 337.0843,-6 264.0843,-6"/>
<text text-anchor="middle" x="300.5843" y="-13" font-family="Helvetica,sans-Serif" font-size="10.00" fill="#000000">src/main.cpp</text>
</a>
</g>
</g>
<!-- Node4&#45;&gt;Node7 -->
<g id="edge15" class="edge">
<title>Node4&#45;&gt;Node7</title>
<path fill="none" stroke="#191970" d="M55.5585,-183.5026C24.2818,-154.4579 -20.3536,-102.8161 10.5843,-67 46.5563,-25.3561 202.1169,-44.0167 255.5843,-31 262.1677,-29.3973 269.1506,-27.231 275.6016,-25.0266"/>
<polygon fill="#191970" stroke="#191970" points="53.4014,-186.2706 63.1682,-190.3766 58.0936,-181.0761 53.4014,-186.2706"/>
</g>
<!-- Node5&#45;&gt;Node6 -->
<g id="edge2" class="edge">
<title>Node5&#45;&gt;Node6</title>
<path fill="none" stroke="#191970" d="M221.4372,-131.0929C193.2611,-121.303 154.4667,-107.8235 124.8834,-97.5446"/>
<polygon fill="#191970" stroke="#191970" points="220.3333,-134.4146 230.9281,-134.3906 222.6308,-127.8023 220.3333,-134.4146"/>
</g>
<!-- Node5&#45;&gt;Node7 -->
<g id="edge13" class="edge">
<title>Node5&#45;&gt;Node7</title>
<path fill="none" stroke="#191970" d="M269.1469,-125.4008C273.4713,-117.1971 278.2353,-107.319 281.5843,-98 290.7306,-72.5495 296.5445,-41.0645 299.0914,-25.3673"/>
<polygon fill="#191970" stroke="#191970" points="265.9385,-123.9732 264.2147,-134.4269 272.0812,-127.3299 265.9385,-123.9732"/>
</g>
<!-- Node8 -->
<g id="node5" class="node">
<title>Node8</title>
<g id="a_node5"><a xlink:href="_filtered_collection_8hpp.html" target="_top" xlink:title="src/Collection/FilteredCollection.hpp">
<polygon fill="#ffffff" stroke="#000000" points="328.5843,-73 328.5843,-92 502.5843,-92 502.5843,-73 328.5843,-73"/>
<text text-anchor="middle" x="415.5843" y="-80" font-family="Helvetica,sans-Serif" font-size="10.00" fill="#000000">src/Collection/FilteredCollection.hpp</text>
</a>
</g>
</g>
<!-- Node5&#45;&gt;Node8 -->
<g id="edge4" class="edge">
<title>Node5&#45;&gt;Node8</title>
<path fill="none" stroke="#191970" d="M292.6706,-130.6477C322.3996,-119.0023 364.7951,-102.3952 391.2253,-92.0419"/>
<polygon fill="#191970" stroke="#191970" points="291.1501,-127.4843 283.1156,-134.3906 293.7033,-134.0021 291.1501,-127.4843"/>
</g>
<!-- Node10 -->
<g id="node7" class="node">
<title>Node10</title>
<g id="a_node7"><a xlink:href="menu_8hpp.html" target="_top" xlink:title="src/ConsolePrototype\l/menu.hpp">
<polygon fill="#ffffff" stroke="#000000" points="161.0843,-67.5 161.0843,-97.5 272.0843,-97.5 272.0843,-67.5 161.0843,-67.5"/>
<text text-anchor="start" x="169.0843" y="-85.5" font-family="Helvetica,sans-Serif" font-size="10.00" fill="#000000">src/ConsolePrototype</text>
<text text-anchor="middle" x="216.5843" y="-74.5" font-family="Helvetica,sans-Serif" font-size="10.00" fill="#000000">/menu.hpp</text>
</a>
</g>
</g>
<!-- Node5&#45;&gt;Node10 -->
<g id="edge7" class="edge">
<title>Node5&#45;&gt;Node10</title>
<path fill="none" stroke="#191970" d="M246.3515,-126.0877C240.1663,-117.0307 232.7443,-106.1627 226.8587,-97.5446"/>
<polygon fill="#191970" stroke="#191970" points="243.4919,-128.1065 252.0218,-134.3906 249.2725,-124.1587 243.4919,-128.1065"/>
</g>
<!-- Node12 -->
<g id="node9" class="node">
<title>Node12</title>
<g id="a_node9"><a xlink:href="save_8hpp.html" target="_top" xlink:title="src/ConsolePrototype\l/save.hpp">
<polygon fill="#ffffff" stroke="#000000" points="521.0843,-67.5 521.0843,-97.5 632.0843,-97.5 632.0843,-67.5 521.0843,-67.5"/>
<text text-anchor="start" x="529.0843" y="-85.5" font-family="Helvetica,sans-Serif" font-size="10.00" fill="#000000">src/ConsolePrototype</text>
<text text-anchor="middle" x="576.5843" y="-74.5" font-family="Helvetica,sans-Serif" font-size="10.00" fill="#000000">/save.hpp</text>
</a>
</g>
</g>
<!-- Node5&#45;&gt;Node12 -->
<g id="edge10" class="edge">
<title>Node5&#45;&gt;Node12</title>
<path fill="none" stroke="#191970" d="M325.9622,-132.7731C377.0468,-124.0133 448.9152,-111.1592 511.5843,-98 514.6498,-97.3563 517.7917,-96.676 520.9597,-95.9739"/>
<polygon fill="#191970" stroke="#191970" points="325.2992,-129.3355 316.0313,-134.4693 326.4779,-136.2356 325.2992,-129.3355"/>
</g>
<!-- Node6&#45;&gt;Node7 -->
<g id="edge3" class="edge">
<title>Node6&#45;&gt;Node7</title>
<path fill="none" stroke="#191970" d="M144.6979,-64.5444C177.8194,-54.9387 219.0116,-42.7047 255.5843,-31 261.4079,-29.1362 267.6249,-27.0548 273.5211,-25.0373"/>
<polygon fill="#191970" stroke="#191970" points="143.3262,-61.2976 134.6919,-67.4376 145.2706,-68.0221 143.3262,-61.2976"/>
</g>
<!-- Node8&#45;&gt;Node7 -->
<g id="edge6" class="edge">
<title>Node8&#45;&gt;Node7</title>
<path fill="none" stroke="#191970" d="M390.2003,-67.711C367.9119,-54.7256 336.1458,-36.2184 317.0305,-25.0817"/>
<polygon fill="#191970" stroke="#191970" points="388.7052,-70.8906 399.1076,-72.9005 392.229,-64.8423 388.7052,-70.8906"/>
</g>
<!-- Node9 -->
<g id="node6" class="node">
<title>Node9</title>
<g id="a_node6"><a xlink:href="save_8cpp.html" target="_top" xlink:title="src/ConsolePrototype\l/save.cpp">
<polygon fill="#ffffff" stroke="#000000" points="440.0843,-.5 440.0843,-30.5 551.0843,-30.5 551.0843,-.5 440.0843,-.5"/>
<text text-anchor="start" x="448.0843" y="-18.5" font-family="Helvetica,sans-Serif" font-size="10.00" fill="#000000">src/ConsolePrototype</text>
<text text-anchor="middle" x="495.5843" y="-7.5" font-family="Helvetica,sans-Serif" font-size="10.00" fill="#000000">/save.cpp</text>
</a>
</g>
</g>
<!-- Node8&#45;&gt;Node9 -->
<g id="edge5" class="edge">
<title>Node8&#45;&gt;Node9</title>
<path fill="none" stroke="#191970" d="M434.9261,-66.3012C447.9298,-55.4107 464.948,-41.1579 477.6479,-30.5218"/>
<polygon fill="#191970" stroke="#191970" points="432.4656,-63.7965 427.0464,-72.9005 436.9601,-69.1631 432.4656,-63.7965"/>
</g>
<!-- Node10&#45;&gt;Node7 -->
<g id="edge9" class="edge">
<title>Node10&#45;&gt;Node7</title>
<path fill="none" stroke="#191970" d="M243.6941,-60.8767C258.8393,-48.7967 276.9518,-34.3498 288.605,-25.055"/>
<polygon fill="#191970" stroke="#191970" points="241.2805,-58.3248 235.6452,-67.2967 245.6455,-63.7973 241.2805,-58.3248"/>
</g>
<!-- Node11 -->
<g id="node8" class="node">
<title>Node11</title>
<g id="a_node8"><a xlink:href="menu_8cpp.html" target="_top" xlink:title="src/ConsolePrototype\l/menu.cpp">
<polygon fill="#ffffff" stroke="#000000" points="135.0843,-.5 135.0843,-30.5 246.0843,-30.5 246.0843,-.5 135.0843,-.5"/>
<text text-anchor="start" x="143.0843" y="-18.5" font-family="Helvetica,sans-Serif" font-size="10.00" fill="#000000">src/ConsolePrototype</text>
<text text-anchor="middle" x="190.5843" y="-7.5" font-family="Helvetica,sans-Serif" font-size="10.00" fill="#000000">/menu.cpp</text>
</a>
</g>
</g>
<!-- Node10&#45;&gt;Node11 -->
<g id="edge8" class="edge">
<title>Node10&#45;&gt;Node11</title>
<path fill="none" stroke="#191970" d="M207.0389,-57.9021C203.4949,-48.7696 199.5816,-38.6854 196.4608,-30.6432"/>
<polygon fill="#191970" stroke="#191970" points="203.8038,-59.2402 210.6845,-67.2967 210.3296,-56.7078 203.8038,-59.2402"/>
</g>
<!-- Node12&#45;&gt;Node7 -->
<g id="edge12" class="edge">
<title>Node12&#45;&gt;Node7</title>
<path fill="none" stroke="#191970" d="M511.1647,-66.6192C456.7746,-53.4158 381.3589,-35.1083 337.0948,-24.363"/>
<polygon fill="#191970" stroke="#191970" points="510.5202,-70.0643 521.0636,-69.0221 512.1715,-63.2618 510.5202,-70.0643"/>
</g>
<!-- Node12&#45;&gt;Node9 -->
<g id="edge11" class="edge">
<title>Node12&#45;&gt;Node9</title>
<path fill="none" stroke="#191970" d="M550.3268,-60.7808C538.4276,-50.9383 524.6488,-39.541 513.8917,-30.6432"/>
<polygon fill="#191970" stroke="#191970" points="548.2678,-63.6198 558.2042,-67.2967 552.7294,-58.2259 548.2678,-63.6198"/>
</g>
</g>
</svg>
