<?xml version="1.0" encoding="UTF-8" standalone="no"?>
<!DOCTYPE svg PUBLIC "-//W3C//DTD SVG 1.1//EN"
 "http://www.w3.org/Graphics/SVG/1.1/DTD/svg11.dtd">
<!-- Generated by graphviz version 2.40.1 (20161225.0304)
 -->
<!-- Title: src/Collection/CollectionIterator.hpp Pages: 1 -->
<!--zoomable 229 -->
<svg id="main" version="1.1" xmlns="http://www.w3.org/2000/svg" xmlns:xlink="http://www.w3.org/1999/xlink" xml:space="preserve" onload="init(evt)">
<style type="text/css"><![CDATA[
.edge:hover path { stroke: red; }
.edge:hover polygon { stroke: red; fill: red; }
]]></style>
<script type="text/javascript"><![CDATA[
var edges = document.getElementsByTagName('g');
if (edges && edges.length) {
  for (var i=0;i<edges.length;i++) {
    if (edges[i].id.substr(0,4)=='edge') {
      edges[i].setAttribute('class','edge');
    }
  }
}
]]></script>
        <defs>
                <circle id="rim" cx="0" cy="0" r="7"/>
                <circle id="rim2" cx="0" cy="0" r="3.5"/>
                <g id="zoomPlus">
                        <use xlink:href="#rim" target="_top" fill="#404040">
                                <set attributeName="fill" to="#808080" begin="zoomplus.mouseover" end="zoomplus.mouseout"/>
                        </use>
                        <path d="M-4,0h8M0,-4v8" fill="none" stroke="white" stroke-width="1.5" pointer-events="none"/>
                </g>
                <g id="zoomMin">
                        <use xlink:href="#rim" target="_top" fill="#404040">
                                <set attributeName="fill" to="#808080" begin="zoomminus.mouseover" end="zoomminus.mouseout"/>
                        </use>
                        <path d="M-4,0h8" fill="none" stroke="white" stroke-width="1.5" pointer-events="none"/>
                </g>
                <g id="dirArrow">
                        <path fill="none" stroke="white" stroke-width="1.5" d="M0,-3.0v7 M-2.5,-0.5L0,-3.0L2.5,-0.5"/>
                </g>
               <g id="resetDef">
                       <use xlink:href="#rim2" target="_top" fill="#404040">
                               <set attributeName="fill" to="#808080" begin="reset.mouseover" end="reset.mouseout"/>
                       </use>
               </g>
        </defs>

<script type="text/javascript">
var viewWidth = 850;
var viewHeight = 229;
var sectionId = 'dynsection-1';
</script>
<script xlink:href="svgpan.js" target="_top"/>
<svg id="graph" class="graph">
<g id="viewport">
<title>src/Collection/CollectionIterator.hpp</title>
<polygon fill="#ffffff" stroke="transparent" points="-4,4 -4,-225 846.4236,-225 846.4236,4 -4,4"/>
<!-- Node4 -->
<g id="node1" class="node">
<title>Node4</title>
<polygon fill="#bfbfbf" stroke="#000000" points="574,-190.5 574,-220.5 697,-220.5 697,-190.5 574,-190.5"/>
<text text-anchor="start" x="582" y="-208.5" font-family="Helvetica,sans-Serif" font-size="10.00" fill="#000000">src/Collection/Collection</text>
<text text-anchor="middle" x="635.5" y="-197.5" font-family="Helvetica,sans-Serif" font-size="10.00" fill="#000000">Iterator.hpp</text>
</g>
<!-- Node5 -->
<g id="node2" class="node">
<title>Node5</title>
<g id="a_node2"><a xlink:href="_collection_8hpp.html" target="_top" target="_top" xlink:title="src/Collection/Collection.hpp">
<polygon fill="#ffffff" stroke="#000000" points="465.5,-134.5 465.5,-153.5 607.5,-153.5 607.5,-134.5 465.5,-134.5"/>
<text text-anchor="middle" x="536.5" y="-141.5" font-family="Helvetica,sans-Serif" font-size="10.00" fill="#000000">src/Collection/Collection.hpp</text>
</a>
</g>
</g>
<!-- Node4&#45;&gt;Node5 -->
<g id="edge1" class="edge">
<title>Node4&#45;&gt;Node5</title>
<path fill="none" stroke="#191970" d="M602.6459,-185.0906C585.5086,-174.4447 565.3587,-161.9274 551.8415,-153.5303"/>
<polygon fill="#191970" stroke="#191970" points="600.9405,-188.1516 611.2819,-190.4554 604.6344,-182.2055 600.9405,-188.1516"/>
</g>
<!-- Node6 -->
<g id="node3" class="node">
<title>Node6</title>
<g id="a_node3"><a xlink:href="_collection_pool_8hpp.html" target="_top" target="_top" xlink:title="src/Collection/Collection\lPool.hpp">
<polygon fill="#ffffff" stroke="#000000" points="570,-67.5 570,-97.5 693,-97.5 693,-67.5 570,-67.5"/>
<text text-anchor="start" x="578" y="-85.5" font-family="Helvetica,sans-Serif" font-size="10.00" fill="#000000">src/Collection/Collection</text>
<text text-anchor="middle" x="631.5" y="-74.5" font-family="Helvetica,sans-Serif" font-size="10.00" fill="#000000">Pool.hpp</text>
</a>
</g>
</g>
<!-- Node4&#45;&gt;Node6 -->
<g id="edge19" class="edge">
<title>Node4&#45;&gt;Node6</title>
<path fill="none" stroke="#191970" d="M634.6803,-180.2943C633.8727,-155.4615 632.6654,-118.3355 631.9945,-97.7056"/>
<polygon fill="#191970" stroke="#191970" points="631.1862,-180.5369 635.0095,-190.4178 638.1825,-180.3093 631.1862,-180.5369"/>
</g>
<!-- Node7 -->
<g id="node4" class="node">
<title>Node7</title>
<g id="a_node4"><a xlink:href="main_8cpp.html" target="_top" target="_top" xlink:title="src/main.cpp">
<polygon fill="#ffffff" stroke="#000000" points="505,-6 505,-25 578,-25 578,-6 505,-6"/>
<text text-anchor="middle" x="541.5" y="-13" font-family="Helvetica,sans-Serif" font-size="10.00" fill="#000000">src/main.cpp</text>
</a>
</g>
</g>
<!-- Node4&#45;&gt;Node7 -->
<g id="edge20" class="edge">
<title>Node4&#45;&gt;Node7</title>
<path fill="none" stroke="#191970" d="M701.9353,-187.4784C774.8293,-164.4929 875.8561,-121.1531 830.5,-67 814.4041,-47.7822 652.3439,-27.6844 578.19,-19.4108"/>
<polygon fill="#191970" stroke="#191970" points="700.8264,-184.1576 692.3028,-190.4504 702.8902,-190.8465 700.8264,-184.1576"/>
</g>
<!-- Node5&#45;&gt;Node6 -->
<g id="edge2" class="edge">
<title>Node5&#45;&gt;Node6</title>
<path fill="none" stroke="#191970" d="M559.8955,-128.8545C574.6247,-119.3193 593.5611,-107.0605 608.2604,-97.5446"/>
<polygon fill="#191970" stroke="#191970" points="557.8362,-126.0181 551.3438,-134.3906 561.6403,-131.8943 557.8362,-126.0181"/>
</g>
<!-- Node5&#45;&gt;Node7 -->
<g id="edge18" class="edge">
<title>Node5&#45;&gt;Node7</title>
<path fill="none" stroke="#191970" d="M537.2715,-124.1733C538.359,-96.2236 540.3014,-46.3037 541.1198,-25.2705"/>
<polygon fill="#191970" stroke="#191970" points="533.7674,-124.2131 536.8758,-134.3416 540.7621,-124.4853 533.7674,-124.2131"/>
</g>
<!-- Node8 -->
<g id="node5" class="node">
<title>Node8</title>
<g id="a_node5"><a xlink:href="_filtered_collection_8hpp.html" target="_top" target="_top" xlink:title="src/Collection/FilteredCollection.hpp">
<polygon fill="#ffffff" stroke="#000000" points="209.5,-73 209.5,-92 383.5,-92 383.5,-73 209.5,-73"/>
<text text-anchor="middle" x="296.5" y="-80" font-family="Helvetica,sans-Serif" font-size="10.00" fill="#000000">src/Collection/FilteredCollection.hpp</text>
</a>
</g>
</g>
<!-- Node5&#45;&gt;Node8 -->
<g id="edge4" class="edge">
<title>Node5&#45;&gt;Node8</title>
<path fill="none" stroke="#191970" d="M489.3365,-131.9144C443.7892,-120.2428 375.7232,-102.8009 333.824,-92.0643"/>
<polygon fill="#191970" stroke="#191970" points="488.7075,-135.3662 499.2633,-134.4581 490.4451,-128.5853 488.7075,-135.3662"/>
</g>
<!-- Node10 -->
<g id="node7" class="node">
<title>Node10</title>
<g id="a_node7"><a xlink:href="menu_8hpp.html" target="_top" target="_top" xlink:title="src/ConsolePrototype\l/menu.hpp">
<polygon fill="#ffffff" stroke="#000000" points="711,-67.5 711,-97.5 822,-97.5 822,-67.5 711,-67.5"/>
<text text-anchor="start" x="719" y="-85.5" font-family="Helvetica,sans-Serif" font-size="10.00" fill="#000000">src/ConsolePrototype</text>
<text text-anchor="middle" x="766.5" y="-74.5" font-family="Helvetica,sans-Serif" font-size="10.00" fill="#000000">/menu.hpp</text>
</a>
</g>
</g>
<!-- Node5&#45;&gt;Node10 -->
<g id="edge7" class="edge">
<title>Node5&#45;&gt;Node10</title>
<path fill="none" stroke="#191970" d="M582.2012,-131.7799C619.2331,-121.8779 671.5535,-107.8879 710.9918,-97.3424"/>
<polygon fill="#191970" stroke="#191970" points="580.9416,-128.4937 572.1851,-134.4581 582.7499,-135.2561 580.9416,-128.4937"/>
</g>
<!-- Node12 -->
<g id="node9" class="node">
<title>Node12</title>
<g id="a_node9"><a xlink:href="_parser_8hpp.html" target="_top" target="_top" xlink:title="src/Parser.hpp">
<polygon fill="#ffffff" stroke="#000000" points="111.5,-73 111.5,-92 191.5,-92 191.5,-73 111.5,-73"/>
<text text-anchor="middle" x="151.5" y="-80" font-family="Helvetica,sans-Serif" font-size="10.00" fill="#000000">src/Parser.hpp</text>
</a>
</g>
</g>
<!-- Node5&#45;&gt;Node12 -->
<g id="edge10" class="edge">
<title>Node5&#45;&gt;Node12</title>
<path fill="none" stroke="#191970" d="M455.1165,-136.778C386.6371,-129.7688 286.4181,-117.3224 200.5,-98 193.3619,-96.3947 185.7693,-94.2275 178.7456,-92.023"/>
<polygon fill="#191970" stroke="#191970" points="455.105,-140.2945 465.4055,-137.8147 455.8068,-133.3298 455.105,-140.2945"/>
</g>
<!-- Node15 -->
<g id="node12" class="node">
<title>Node15</title>
<g id="a_node12"><a xlink:href="save_8hpp.html" target="_top" target="_top" xlink:title="src/ConsolePrototype\l/save.hpp">
<polygon fill="#ffffff" stroke="#000000" points="402,-67.5 402,-97.5 513,-97.5 513,-67.5 402,-67.5"/>
<text text-anchor="start" x="410" y="-85.5" font-family="Helvetica,sans-Serif" font-size="10.00" fill="#000000">src/ConsolePrototype</text>
<text text-anchor="middle" x="457.5" y="-74.5" font-family="Helvetica,sans-Serif" font-size="10.00" fill="#000000">/save.hpp</text>
</a>
</g>
</g>
<!-- Node5&#45;&gt;Node15 -->
<g id="edge15" class="edge">
<title>Node5&#45;&gt;Node15</title>
<path fill="none" stroke="#191970" d="M515.9965,-128.0385C503.9078,-118.6276 488.7033,-106.7911 476.8256,-97.5446"/>
<polygon fill="#191970" stroke="#191970" points="514.1154,-131.0095 524.1563,-134.3906 518.4154,-125.4859 514.1154,-131.0095"/>
</g>
<!-- Node6&#45;&gt;Node7 -->
<g id="edge3" class="edge">
<title>Node6&#45;&gt;Node7</title>
<path fill="none" stroke="#191970" d="M602.9038,-61.2117C586.5868,-49.0646 566.9362,-34.4358 554.335,-25.055"/>
<polygon fill="#191970" stroke="#191970" points="600.9662,-64.1327 611.0776,-67.2967 605.1463,-58.5177 600.9662,-64.1327"/>
</g>
<!-- Node8&#45;&gt;Node7 -->
<g id="edge6" class="edge">
<title>Node8&#45;&gt;Node7</title>
<path fill="none" stroke="#191970" d="M341.054,-70.3158C388.566,-57.3228 462.8361,-37.0122 506.3812,-25.1039"/>
<polygon fill="#191970" stroke="#191970" points="340.0649,-66.9577 331.3423,-72.9717 341.9114,-73.7098 340.0649,-66.9577"/>
</g>
<!-- Node9 -->
<g id="node6" class="node">
<title>Node9</title>
<g id="a_node6"><a xlink:href="save_8cpp.html" target="_top" target="_top" xlink:title="src/ConsolePrototype\l/save.cpp">
<polygon fill="#ffffff" stroke="#000000" points="241,-.5 241,-30.5 352,-30.5 352,-.5 241,-.5"/>
<text text-anchor="start" x="249" y="-18.5" font-family="Helvetica,sans-Serif" font-size="10.00" fill="#000000">src/ConsolePrototype</text>
<text text-anchor="middle" x="296.5" y="-7.5" font-family="Helvetica,sans-Serif" font-size="10.00" fill="#000000">/save.cpp</text>
</a>
</g>
</g>
<!-- Node8&#45;&gt;Node9 -->
<g id="edge5" class="edge">
<title>Node8&#45;&gt;Node9</title>
<path fill="none" stroke="#191970" d="M296.5,-62.7758C296.5,-52.4641 296.5,-40.0437 296.5,-30.5218"/>
<polygon fill="#191970" stroke="#191970" points="293.0001,-62.9005 296.5,-72.9005 300.0001,-62.9006 293.0001,-62.9005"/>
</g>
<!-- Node10&#45;&gt;Node7 -->
<g id="edge9" class="edge">
<title>Node10&#45;&gt;Node7</title>
<path fill="none" stroke="#191970" d="M706.2717,-64.5654C663.5408,-51.841 607.8726,-35.2643 573.4207,-25.0053"/>
<polygon fill="#191970" stroke="#191970" points="705.4226,-67.9643 716.0056,-67.4639 707.4204,-61.2555 705.4226,-67.9643"/>
</g>
<!-- Node11 -->
<g id="node8" class="node">
<title>Node11</title>
<g id="a_node8"><a xlink:href="menu_8cpp.html" target="_top" target="_top" xlink:title="src/ConsolePrototype\l/menu.cpp">
<polygon fill="#ffffff" stroke="#000000" points="711,-.5 711,-30.5 822,-30.5 822,-.5 711,-.5"/>
<text text-anchor="start" x="719" y="-18.5" font-family="Helvetica,sans-Serif" font-size="10.00" fill="#000000">src/ConsolePrototype</text>
<text text-anchor="middle" x="766.5" y="-7.5" font-family="Helvetica,sans-Serif" font-size="10.00" fill="#000000">/menu.cpp</text>
</a>
</g>
</g>
<!-- Node10&#45;&gt;Node11 -->
<g id="edge8" class="edge">
<title>Node10&#45;&gt;Node11</title>
<path fill="none" stroke="#191970" d="M766.5,-57.0249C766.5,-48.128 766.5,-38.4287 766.5,-30.6432"/>
<polygon fill="#191970" stroke="#191970" points="763.0001,-57.2966 766.5,-67.2967 770.0001,-57.2967 763.0001,-57.2966"/>
</g>
<!-- Node12&#45;&gt;Node7 -->
<g id="edge13" class="edge">
<title>Node12&#45;&gt;Node7</title>
<path fill="none" stroke="#191970" d="M188.7078,-70.0655C192.6653,-68.9425 196.6501,-67.8939 200.5,-67 309.8528,-41.6113 441.9475,-25.7863 504.8093,-19.1353"/>
<polygon fill="#191970" stroke="#191970" points="187.5955,-66.7449 179.0184,-72.9646 189.6021,-73.4512 187.5955,-66.7449"/>
</g>
<!-- Node12&#45;&gt;Node9 -->
<g id="edge11" class="edge">
<title>Node12&#45;&gt;Node9</title>
<path fill="none" stroke="#191970" d="M181.6234,-68.5809C205.6797,-57.4653 239.3274,-41.9177 263.9902,-30.5218"/>
<polygon fill="#191970" stroke="#191970" points="179.8846,-65.5287 172.275,-72.9005 182.8208,-71.8831 179.8846,-65.5287"/>
</g>
<!-- Node13 -->
<g id="node10" class="node">
<title>Node13</title>
<g id="a_node10"><a xlink:href="_image_8cpp.html" target="_top" target="_top" xlink:title="src/Image/Image.cpp">
<polygon fill="#ffffff" stroke="#000000" points="0,-6 0,-25 109,-25 109,-6 0,-6"/>
<text text-anchor="middle" x="54.5" y="-13" font-family="Helvetica,sans-Serif" font-size="10.00" fill="#000000">src/Image/Image.cpp</text>
</a>
</g>
</g>
<!-- Node12&#45;&gt;Node13 -->
<g id="edge12" class="edge">
<title>Node12&#45;&gt;Node13</title>
<path fill="none" stroke="#191970" d="M129.3295,-67.1864C110.5736,-54.2312 84.2794,-36.0693 68.372,-25.0817"/>
<polygon fill="#191970" stroke="#191970" points="127.3851,-70.097 137.6023,-72.9005 131.3634,-64.3374 127.3851,-70.097"/>
</g>
<!-- Node14 -->
<g id="node11" class="node">
<title>Node14</title>
<g id="a_node11"><a xlink:href="_parser_8cpp.html" target="_top" target="_top" xlink:title="src/Parser.cpp">
<polygon fill="#ffffff" stroke="#000000" points="127.5,-6 127.5,-25 207.5,-25 207.5,-6 127.5,-6"/>
<text text-anchor="middle" x="167.5" y="-13" font-family="Helvetica,sans-Serif" font-size="10.00" fill="#000000">src/Parser.cpp</text>
</a>
</g>
</g>
<!-- Node12&#45;&gt;Node14 -->
<g id="edge14" class="edge">
<title>Node12&#45;&gt;Node14</title>
<path fill="none" stroke="#191970" d="M156.16,-62.9863C159.135,-50.5286 162.861,-34.9258 165.2118,-25.0817"/>
<polygon fill="#191970" stroke="#191970" points="152.711,-62.361 153.7924,-72.9005 159.5195,-63.987 152.711,-62.361"/>
</g>
<!-- Node15&#45;&gt;Node7 -->
<g id="edge17" class="edge">
<title>Node15&#45;&gt;Node7</title>
<path fill="none" stroke="#191970" d="M484.6097,-60.8767C499.7549,-48.7967 517.8675,-34.3498 529.5206,-25.055"/>
<polygon fill="#191970" stroke="#191970" points="482.1962,-58.3248 476.5609,-67.2967 486.5612,-63.7973 482.1962,-58.3248"/>
</g>
<!-- Node15&#45;&gt;Node9 -->
<g id="edge16" class="edge">
<title>Node15&#45;&gt;Node9</title>
<path fill="none" stroke="#191970" d="M412.0587,-63.5897C386.9767,-53.1518 356.2512,-40.3654 332.7891,-30.6017"/>
<polygon fill="#191970" stroke="#191970" points="410.7912,-66.8531 421.3685,-67.4639 413.4807,-60.3904 410.7912,-66.8531"/>
</g>
</g>
</svg>
        <g id="navigator" transform="translate(0 0)" fill="#404254">
                <rect fill="#f2f5e9" fill-opacity="0.5" stroke="#606060" stroke-width=".5" x="0" y="0" width="60" height="60"/>
                <use id="zoomplus" xlink:href="#zoomPlus" target="_top" x="17" y="9" onmousedown="handleZoom(evt,'in')"/>
                <use id="zoomminus" xlink:href="#zoomMin" target="_top" x="42" y="9" onmousedown="handleZoom(evt,'out')"/>
                <use id="reset" xlink:href="#resetDef" target="_top" x="30" y="36" onmousedown="handleReset()"/>
                <g id="arrowUp" xlink:href="#dirArrow" target="_top" transform="translate(30 24)" onmousedown="handlePan(0,-1)">
                  <use xlink:href="#rim" target="_top" fill="#404040">
                        <set attributeName="fill" to="#808080" begin="arrowUp.mouseover" end="arrowUp.mouseout"/>
                  </use>
                  <path fill="none" stroke="white" stroke-width="1.5" d="M0,-3.0v7 M-2.5,-0.5L0,-3.0L2.5,-0.5"/>
                </g>
                <g id="arrowRight" xlink:href="#dirArrow" target="_top" transform="rotate(90) translate(36 -43)" onmousedown="handlePan(1,0)">
                  <use xlink:href="#rim" target="_top" fill="#404040">
                        <set attributeName="fill" to="#808080" begin="arrowRight.mouseover" end="arrowRight.mouseout"/>
                  </use>
                  <path fill="none" stroke="white" stroke-width="1.5" d="M0,-3.0v7 M-2.5,-0.5L0,-3.0L2.5,-0.5"/>
                </g>
                <g id="arrowDown" xlink:href="#dirArrow" target="_top" transform="rotate(180) translate(-30 -48)" onmousedown="handlePan(0,1)">
                  <use xlink:href="#rim" target="_top" fill="#404040">
                        <set attributeName="fill" to="#808080" begin="arrowDown.mouseover" end="arrowDown.mouseout"/>
                  </use>
                  <path fill="none" stroke="white" stroke-width="1.5" d="M0,-3.0v7 M-2.5,-0.5L0,-3.0L2.5,-0.5"/>
                </g>
                <g id="arrowLeft" xlink:href="#dirArrow" target="_top" transform="rotate(270) translate(-36 17)" onmousedown="handlePan(-1,0)">
                  <use xlink:href="#rim" target="_top" fill="#404040">
                        <set attributeName="fill" to="#808080" begin="arrowLeft.mouseover" end="arrowLeft.mouseout"/>
                  </use>
                  <path fill="none" stroke="white" stroke-width="1.5" d="M0,-3.0v7 M-2.5,-0.5L0,-3.0L2.5,-0.5"/>
                </g>
        </g>
        <svg viewBox="0 0 15 15" width="100%" height="30px" preserveAspectRatio="xMaxYMin meet">
         <g id="arrow_out" transform="scale(0.3 0.3)">
          <a xlink:href="_collection_iterator_8hpp__dep__incl_org.svg" target="_top" target="_base">
           <rect id="button" ry="5" rx="5" y="6" x="6" height="38" width="38"
                fill="#f2f5e9" fill-opacity="0.5" stroke="#606060" stroke-width="1.0"/>
           <path id="arrow"
             d="M 11.500037,31.436501 C 11.940474,20.09759 22.043105,11.32322 32.158766,21.979434 L 37.068811,17.246167 C 37.068811,17.246167 37.088388,32 37.088388,32 L 22.160133,31.978069 C 22.160133,31.978069 26.997745,27.140456 26.997745,27.140456 C 18.528582,18.264221 13.291696,25.230495 11.500037,31.436501 z"
             style="fill:#404040;"/>
          </a>
         </g>
        </svg>
</svg>
