<?xml version="1.0" encoding="UTF-8" standalone="no"?>
<!DOCTYPE svg PUBLIC "-//W3C//DTD SVG 1.1//EN"
 "http://www.w3.org/Graphics/SVG/1.1/DTD/svg11.dtd">
<!-- Generated by graphviz version 2.40.1 (20161225.0304)
 -->
<!-- Title: src/Collection/CollectionPool.hpp Pages: 1 -->
<svg width="218pt" height="207pt"
 viewBox="0.00 0.00 218.00 207.00" xmlns="http://www.w3.org/2000/svg" xmlns:xlink="http://www.w3.org/1999/xlink">
<g id="graph0" class="graph" transform="scale(1 1) rotate(0) translate(4 203)">
<title>src/Collection/CollectionPool.hpp</title>
<polygon fill="#ffffff" stroke="transparent" points="-4,4 -4,-203 214,-203 214,4 -4,4"/>
<!-- Node0 -->
<g id="node1" class="node">
<title>Node0</title>
<polygon fill="#bfbfbf" stroke="#000000" points="76.5,-168.5 76.5,-198.5 199.5,-198.5 199.5,-168.5 76.5,-168.5"/>
<text text-anchor="start" x="84.5" y="-186.5" font-family="Helvetica,sans-Serif" font-size="10.00" fill="#000000">src/Collection/Collection</text>
<text text-anchor="middle" x="138" y="-175.5" font-family="Helvetica,sans-Serif" font-size="10.00" fill="#000000">Pool.hpp</text>
</g>
<!-- Node1 -->
<g id="node2" class="node">
<title>Node1</title>
<g id="a_node2"><a xlink:href="_collection_8hpp.html" target="_top" xlink:title="Collection.hpp">
<polygon fill="#ffffff" stroke="#000000" points="30.5,-112.5 30.5,-131.5 109.5,-131.5 109.5,-112.5 30.5,-112.5"/>
<text text-anchor="middle" x="70" y="-119.5" font-family="Helvetica,sans-Serif" font-size="10.00" fill="#000000">Collection.hpp</text>
</a>
</g>
</g>
<!-- Node0&#45;&gt;Node1 -->
<g id="edge1" class="edge">
<title>Node0&#45;&gt;Node1</title>
<path fill="none" stroke="#191970" d="M121.191,-168.2977C111.2603,-159.3163 98.6743,-147.9334 88.4673,-138.702"/>
<polygon fill="#191970" stroke="#191970" points="90.652,-135.9588 80.8877,-131.8469 85.9566,-141.1505 90.652,-135.9588"/>
</g>
<!-- Node2 -->
<g id="node3" class="node">
<title>Node2</title>
<g id="a_node3"><a xlink:href="_collection_iterator_8hpp.html" target="_top" xlink:title="CollectionIterator.hpp">
<polygon fill="#ffffff" stroke="#000000" points="49,-56.5 49,-75.5 159,-75.5 159,-56.5 49,-56.5"/>
<text text-anchor="middle" x="104" y="-63.5" font-family="Helvetica,sans-Serif" font-size="10.00" fill="#000000">CollectionIterator.hpp</text>
</a>
</g>
</g>
<!-- Node0&#45;&gt;Node2 -->
<g id="edge6" class="edge">
<title>Node0&#45;&gt;Node2</title>
<path fill="none" stroke="#191970" d="M133.8851,-168.4069C129.9093,-153.9166 123.6721,-131.4256 118,-112 115.4621,-103.3082 112.5614,-93.7237 110.0611,-85.5634"/>
<polygon fill="#191970" stroke="#191970" points="113.3581,-84.3774 107.0689,-75.8512 106.6684,-86.4385 113.3581,-84.3774"/>
</g>
<!-- Node6 -->
<g id="node7" class="node">
<title>Node6</title>
<polygon fill="#ffffff" stroke="#bfbfbf" points="166,-112.5 166,-131.5 210,-131.5 210,-112.5 166,-112.5"/>
<text text-anchor="middle" x="188" y="-119.5" font-family="Helvetica,sans-Serif" font-size="10.00" fill="#000000">vector</text>
</g>
<!-- Node0&#45;&gt;Node6 -->
<g id="edge7" class="edge">
<title>Node0&#45;&gt;Node6</title>
<path fill="none" stroke="#191970" d="M150.3596,-168.2977C157.3724,-159.672 166.186,-148.8312 173.5214,-139.8087"/>
<polygon fill="#191970" stroke="#191970" points="176.4018,-141.8141 179.9944,-131.8469 170.9703,-137.3982 176.4018,-141.8141"/>
</g>
<!-- Node1&#45;&gt;Node2 -->
<g id="edge2" class="edge">
<title>Node1&#45;&gt;Node2</title>
<path fill="none" stroke="#191970" d="M75.9223,-112.2455C80.6027,-104.5367 87.2673,-93.5598 92.9289,-84.2348"/>
<polygon fill="#191970" stroke="#191970" points="95.9475,-86.007 98.1455,-75.6427 89.9639,-82.3741 95.9475,-86.007"/>
</g>
<!-- Node3 -->
<g id="node4" class="node">
<title>Node3</title>
<polygon fill="#ffffff" stroke="#bfbfbf" points="0,-.5 0,-19.5 62,-19.5 62,-.5 0,-.5"/>
<text text-anchor="middle" x="31" y="-7.5" font-family="Helvetica,sans-Serif" font-size="10.00" fill="#000000">type_traits</text>
</g>
<!-- Node2&#45;&gt;Node3 -->
<g id="edge3" class="edge">
<title>Node2&#45;&gt;Node3</title>
<path fill="none" stroke="#191970" d="M91.2844,-56.2455C80.398,-47.8943 64.5117,-35.7076 51.78,-25.9408"/>
<polygon fill="#191970" stroke="#191970" points="53.6346,-22.9523 43.5699,-19.6427 49.3739,-28.5063 53.6346,-22.9523"/>
</g>
<!-- Node4 -->
<g id="node5" class="node">
<title>Node4</title>
<polygon fill="#ffffff" stroke="#bfbfbf" points="80.5,-.5 80.5,-19.5 127.5,-19.5 127.5,-.5 80.5,-.5"/>
<text text-anchor="middle" x="104" y="-7.5" font-family="Helvetica,sans-Serif" font-size="10.00" fill="#000000">iterator</text>
</g>
<!-- Node2&#45;&gt;Node4 -->
<g id="edge4" class="edge">
<title>Node2&#45;&gt;Node4</title>
<path fill="none" stroke="#191970" d="M104,-56.2455C104,-48.9382 104,-38.6944 104,-29.7046"/>
<polygon fill="#191970" stroke="#191970" points="107.5001,-29.6426 104,-19.6427 100.5001,-29.6427 107.5001,-29.6426"/>
</g>
<!-- Node5 -->
<g id="node6" class="node">
<title>Node5</title>
<polygon fill="#ffffff" stroke="#bfbfbf" points="146,-.5 146,-19.5 198,-19.5 198,-.5 146,-.5"/>
<text text-anchor="middle" x="172" y="-7.5" font-family="Helvetica,sans-Serif" font-size="10.00" fill="#000000">memory</text>
</g>
<!-- Node2&#45;&gt;Node5 -->
<g id="edge5" class="edge">
<title>Node2&#45;&gt;Node5</title>
<path fill="none" stroke="#191970" d="M115.8447,-56.2455C125.888,-47.9746 140.4995,-35.9416 152.3004,-26.2232"/>
<polygon fill="#191970" stroke="#191970" points="154.7967,-28.7015 160.291,-19.6427 150.3467,-23.298 154.7967,-28.7015"/>
</g>
</g>
</svg>
