<?xml version="1.0" encoding="UTF-8" standalone="no"?>
<!DOCTYPE svg PUBLIC "-//W3C//DTD SVG 1.1//EN"
 "http://www.w3.org/Graphics/SVG/1.1/DTD/svg11.dtd">
<!-- Generated by graphviz version 2.40.1 (20161225.0304)
 -->
<!-- Title: src/Collection/CollectionPool.hpp Pages: 1 -->
<svg width="279pt" height="207pt"
 viewBox="0.00 0.00 279.00 207.00" xmlns="http://www.w3.org/2000/svg" xmlns:xlink="http://www.w3.org/1999/xlink">
<g id="graph0" class="graph" transform="scale(1 1) rotate(0) translate(4 203)">
<title>src/Collection/CollectionPool.hpp</title>
<polygon fill="#ffffff" stroke="transparent" points="-4,4 -4,-203 275,-203 275,4 -4,4"/>
<!-- Node0 -->
<g id="node1" class="node">
<title>Node0</title>
<polygon fill="#bfbfbf" stroke="#000000" points="108.5,-168.5 108.5,-198.5 231.5,-198.5 231.5,-168.5 108.5,-168.5"/>
<text text-anchor="start" x="116.5" y="-186.5" font-family="Helvetica,sans-Serif" font-size="10.00" fill="#000000">src/Collection/Collection</text>
<text text-anchor="middle" x="170" y="-175.5" font-family="Helvetica,sans-Serif" font-size="10.00" fill="#000000">Pool.hpp</text>
</g>
<!-- Node1 -->
<g id="node2" class="node">
<title>Node1</title>
<g id="a_node2"><a xlink:href="_collection_8hpp.html" target="_top" xlink:title="Collection.hpp">
<polygon fill="#ffffff" stroke="#000000" points="130.5,-112.5 130.5,-131.5 209.5,-131.5 209.5,-112.5 130.5,-112.5"/>
<text text-anchor="middle" x="170" y="-119.5" font-family="Helvetica,sans-Serif" font-size="10.00" fill="#000000">Collection.hpp</text>
</a>
</g>
</g>
<!-- Node0&#45;&gt;Node1 -->
<g id="edge1" class="edge">
<title>Node0&#45;&gt;Node1</title>
<path fill="none" stroke="#191970" d="M170,-168.2977C170,-160.3834 170,-150.6043 170,-142.0759"/>
<polygon fill="#191970" stroke="#191970" points="173.5001,-141.8469 170,-131.8469 166.5001,-141.847 173.5001,-141.8469"/>
</g>
<!-- Node2 -->
<g id="node3" class="node">
<title>Node2</title>
<g id="a_node3"><a xlink:href="_collection_iterator_8hpp.html" target="_top" xlink:title="CollectionIterator.hpp">
<polygon fill="#ffffff" stroke="#000000" points="47,-56.5 47,-75.5 157,-75.5 157,-56.5 47,-56.5"/>
<text text-anchor="middle" x="102" y="-63.5" font-family="Helvetica,sans-Serif" font-size="10.00" fill="#000000">CollectionIterator.hpp</text>
</a>
</g>
</g>
<!-- Node0&#45;&gt;Node2 -->
<g id="edge7" class="edge">
<title>Node0&#45;&gt;Node2</title>
<path fill="none" stroke="#191970" d="M152.3225,-168.3616C142.1798,-158.8364 129.9258,-145.7711 122,-132 113.6948,-117.5695 108.511,-99.3414 105.5081,-85.6996"/>
<polygon fill="#191970" stroke="#191970" points="108.8634,-84.6273 103.478,-75.5033 101.9981,-85.9943 108.8634,-84.6273"/>
</g>
<!-- Node6 -->
<g id="node7" class="node">
<title>Node6</title>
<polygon fill="#ffffff" stroke="#bfbfbf" points="227,-112.5 227,-131.5 271,-131.5 271,-112.5 227,-112.5"/>
<text text-anchor="middle" x="249" y="-119.5" font-family="Helvetica,sans-Serif" font-size="10.00" fill="#000000">vector</text>
</g>
<!-- Node0&#45;&gt;Node6 -->
<g id="edge8" class="edge">
<title>Node0&#45;&gt;Node6</title>
<path fill="none" stroke="#191970" d="M189.5281,-168.2977C201.2937,-159.1384 216.2675,-147.4816 228.2465,-138.1562"/>
<polygon fill="#191970" stroke="#191970" points="230.6103,-140.7516 236.3511,-131.8469 226.3102,-135.228 230.6103,-140.7516"/>
</g>
<!-- Node1&#45;&gt;Node2 -->
<g id="edge2" class="edge">
<title>Node1&#45;&gt;Node2</title>
<path fill="none" stroke="#191970" d="M158.1553,-112.2455C148.112,-103.9746 133.5005,-91.9416 121.6996,-82.2232"/>
<polygon fill="#191970" stroke="#191970" points="123.6533,-79.298 113.709,-75.6427 119.2033,-84.7015 123.6533,-79.298"/>
</g>
<!-- Node4 -->
<g id="node5" class="node">
<title>Node4</title>
<polygon fill="#ffffff" stroke="#bfbfbf" points="157.5,-.5 157.5,-19.5 204.5,-19.5 204.5,-.5 157.5,-.5"/>
<text text-anchor="middle" x="181" y="-7.5" font-family="Helvetica,sans-Serif" font-size="10.00" fill="#000000">iterator</text>
</g>
<!-- Node1&#45;&gt;Node4 -->
<g id="edge6" class="edge">
<title>Node1&#45;&gt;Node4</title>
<path fill="none" stroke="#191970" d="M170.9379,-112.4509C172.7319,-94.184 176.683,-53.9553 179.0654,-29.6976"/>
<polygon fill="#191970" stroke="#191970" points="182.5702,-29.8191 180.0645,-19.5249 175.6038,-29.1349 182.5702,-29.8191"/>
</g>
<!-- Node3 -->
<g id="node4" class="node">
<title>Node3</title>
<polygon fill="#ffffff" stroke="#bfbfbf" points="0,-.5 0,-19.5 62,-19.5 62,-.5 0,-.5"/>
<text text-anchor="middle" x="31" y="-7.5" font-family="Helvetica,sans-Serif" font-size="10.00" fill="#000000">type_traits</text>
</g>
<!-- Node2&#45;&gt;Node3 -->
<g id="edge3" class="edge">
<title>Node2&#45;&gt;Node3</title>
<path fill="none" stroke="#191970" d="M89.6327,-56.2455C79.0446,-47.8943 63.5936,-35.7076 51.2107,-25.9408"/>
<polygon fill="#191970" stroke="#191970" points="53.2447,-23.0875 43.2255,-19.6427 48.9097,-28.5837 53.2447,-23.0875"/>
</g>
<!-- Node2&#45;&gt;Node4 -->
<g id="edge4" class="edge">
<title>Node2&#45;&gt;Node4</title>
<path fill="none" stroke="#191970" d="M115.7607,-56.2455C127.6552,-47.814 145.065,-35.4729 158.9085,-25.6598"/>
<polygon fill="#191970" stroke="#191970" points="161.2628,-28.2811 167.3969,-19.6427 157.2146,-22.5704 161.2628,-28.2811"/>
</g>
<!-- Node5 -->
<g id="node6" class="node">
<title>Node5</title>
<polygon fill="#ffffff" stroke="#bfbfbf" points="80,-.5 80,-19.5 132,-19.5 132,-.5 80,-.5"/>
<text text-anchor="middle" x="106" y="-7.5" font-family="Helvetica,sans-Serif" font-size="10.00" fill="#000000">memory</text>
</g>
<!-- Node2&#45;&gt;Node5 -->
<g id="edge5" class="edge">
<title>Node2&#45;&gt;Node5</title>
<path fill="none" stroke="#191970" d="M102.6967,-56.2455C103.2187,-48.9382 103.9504,-38.6944 104.5925,-29.7046"/>
<polygon fill="#191970" stroke="#191970" points="108.0898,-29.8667 105.3112,-19.6427 101.1076,-29.3679 108.0898,-29.8667"/>
</g>
</g>
</svg>
