<?xml version="1.0" encoding="UTF-8" standalone="no"?>
<!DOCTYPE svg PUBLIC "-//W3C//DTD SVG 1.1//EN"
 "http://www.w3.org/Graphics/SVG/1.1/DTD/svg11.dtd">
<!-- Generated by graphviz version 2.40.1 (20161225.0304)
 -->
<!-- Title: src/Collection/Collection.hpp Pages: 1 -->
<!--zoomable 162 -->
<svg id="main" version="1.1" xmlns="http://www.w3.org/2000/svg" xmlns:xlink="http://www.w3.org/1999/xlink" xml:space="preserve" onload="init(evt)">
<style type="text/css"><![CDATA[
.edge:hover path { stroke: red; }
.edge:hover polygon { stroke: red; fill: red; }
]]></style>
<script type="text/javascript"><![CDATA[
var edges = document.getElementsByTagName('g');
if (edges && edges.length) {
  for (var i=0;i<edges.length;i++) {
    if (edges[i].id.substr(0,4)=='edge') {
      edges[i].setAttribute('class','edge');
    }
  }
}
]]></script>
        <defs>
                <circle id="rim" cx="0" cy="0" r="7"/>
                <circle id="rim2" cx="0" cy="0" r="3.5"/>
                <g id="zoomPlus">
                        <use xlink:href="#rim" target="_top" fill="#404040">
                                <set attributeName="fill" to="#808080" begin="zoomplus.mouseover" end="zoomplus.mouseout"/>
                        </use>
                        <path d="M-4,0h8M0,-4v8" fill="none" stroke="white" stroke-width="1.5" pointer-events="none"/>
                </g>
                <g id="zoomMin">
                        <use xlink:href="#rim" target="_top" fill="#404040">
                                <set attributeName="fill" to="#808080" begin="zoomminus.mouseover" end="zoomminus.mouseout"/>
                        </use>
                        <path d="M-4,0h8" fill="none" stroke="white" stroke-width="1.5" pointer-events="none"/>
                </g>
                <g id="dirArrow">
                        <path fill="none" stroke="white" stroke-width="1.5" d="M0,-3.0v7 M-2.5,-0.5L0,-3.0L2.5,-0.5"/>
                </g>
               <g id="resetDef">
                       <use xlink:href="#rim2" target="_top" fill="#404040">
                               <set attributeName="fill" to="#808080" begin="reset.mouseover" end="reset.mouseout"/>
                       </use>
               </g>
        </defs>

<script type="text/javascript">
var viewWidth = 846;
var viewHeight = 162;
var sectionId = 'dynsection-1';
</script>
<script xlink:href="svgpan.js" target="_top"/>
<svg id="graph" class="graph">
<g id="viewport">
<title>src/Collection/Collection.hpp</title>
<polygon fill="#ffffff" stroke="transparent" points="-4,4 -4,-158 842,-158 842,4 -4,4"/>
<!-- Node5 -->
<g id="node1" class="node">
<title>Node5</title>
<polygon fill="#bfbfbf" stroke="#000000" points="266.5,-134.5 266.5,-153.5 408.5,-153.5 408.5,-134.5 266.5,-134.5"/>
<text text-anchor="middle" x="337.5" y="-141.5" font-family="Helvetica,sans-Serif" font-size="10.00" fill="#000000">src/Collection/Collection.hpp</text>
</g>
<!-- Node6 -->
<g id="node2" class="node">
<title>Node6</title>
<g id="a_node2"><a xlink:href="_collection_pool_8hpp.html" target="_top" target="_top" xlink:title="src/Collection/Collection\lPool.hpp">
<polygon fill="#ffffff" stroke="#000000" points="129,-67.5 129,-97.5 252,-97.5 252,-67.5 129,-67.5"/>
<text text-anchor="start" x="137" y="-85.5" font-family="Helvetica,sans-Serif" font-size="10.00" fill="#000000">src/Collection/Collection</text>
<text text-anchor="middle" x="190.5" y="-74.5" font-family="Helvetica,sans-Serif" font-size="10.00" fill="#000000">Pool.hpp</text>
</a>
</g>
</g>
<!-- Node5&#45;&gt;Node6 -->
<g id="edge1" class="edge">
<title>Node5&#45;&gt;Node6</title>
<path fill="none" stroke="#191970" d="M305.1038,-130.4465C281.8452,-120.7159 250.493,-107.5991 226.4602,-97.5446"/>
<polygon fill="#191970" stroke="#191970" points="303.9552,-133.7599 314.5313,-134.3906 306.6569,-127.3022 303.9552,-133.7599"/>
</g>
<!-- Node7 -->
<g id="node3" class="node">
<title>Node7</title>
<g id="a_node3"><a xlink:href="main_8cpp.html" target="_top" target="_top" xlink:title="src/main.cpp">
<polygon fill="#ffffff" stroke="#000000" points="301,-6 301,-25 374,-25 374,-6 301,-6"/>
<text text-anchor="middle" x="337.5" y="-13" font-family="Helvetica,sans-Serif" font-size="10.00" fill="#000000">src/main.cpp</text>
</a>
</g>
</g>
<!-- Node5&#45;&gt;Node7 -->
<g id="edge17" class="edge">
<title>Node5&#45;&gt;Node7</title>
<path fill="none" stroke="#191970" d="M318.7831,-127.1796C311.2597,-119.1773 303.4436,-108.9659 299.5,-98 294.8375,-85.0351 295.1942,-80.0877 299.5,-67 304.9866,-50.3233 318.1757,-34.6145 327.4695,-25.0313"/>
<polygon fill="#191970" stroke="#191970" points="316.4899,-129.8347 326.0547,-134.3916 321.4193,-124.8646 316.4899,-129.8347"/>
</g>
<!-- Node8 -->
<g id="node4" class="node">
<title>Node8</title>
<g id="a_node4"><a xlink:href="_filtered_collection_8hpp.html" target="_top" target="_top" xlink:title="src/Collection/FilteredCollection.hpp">
<polygon fill="#ffffff" stroke="#000000" points="308.5,-73 308.5,-92 482.5,-92 482.5,-73 308.5,-73"/>
<text text-anchor="middle" x="395.5" y="-80" font-family="Helvetica,sans-Serif" font-size="10.00" fill="#000000">src/Collection/FilteredCollection.hpp</text>
</a>
</g>
</g>
<!-- Node5&#45;&gt;Node8 -->
<g id="edge3" class="edge">
<title>Node5&#45;&gt;Node8</title>
<path fill="none" stroke="#191970" d="M353.6261,-126.9007C364.1642,-115.7268 377.5477,-101.5356 386.3097,-92.2449"/>
<polygon fill="#191970" stroke="#191970" points="350.8773,-124.7142 346.5625,-134.3906 355.9698,-129.5169 350.8773,-124.7142"/>
</g>
<!-- Node10 -->
<g id="node6" class="node">
<title>Node10</title>
<g id="a_node6"><a xlink:href="menu_8hpp.html" target="_top" target="_top" xlink:title="src/ConsolePrototype\l/menu.hpp">
<polygon fill="#ffffff" stroke="#000000" points="0,-67.5 0,-97.5 111,-97.5 111,-67.5 0,-67.5"/>
<text text-anchor="start" x="8" y="-85.5" font-family="Helvetica,sans-Serif" font-size="10.00" fill="#000000">src/ConsolePrototype</text>
<text text-anchor="middle" x="55.5" y="-74.5" font-family="Helvetica,sans-Serif" font-size="10.00" fill="#000000">/menu.hpp</text>
</a>
</g>
</g>
<!-- Node5&#45;&gt;Node10 -->
<g id="edge6" class="edge">
<title>Node5&#45;&gt;Node10</title>
<path fill="none" stroke="#191970" d="M280.2653,-132.4062C236.2365,-123.3706 173.9226,-110.3292 119.5,-98 116.8241,-97.3938 114.0873,-96.765 111.3248,-96.1232"/>
<polygon fill="#191970" stroke="#191970" points="279.7101,-135.8651 290.209,-134.4426 281.1145,-129.0074 279.7101,-135.8651"/>
</g>
<!-- Node12 -->
<g id="node8" class="node">
<title>Node12</title>
<g id="a_node8"><a xlink:href="_parser_8hpp.html" target="_top" target="_top" xlink:title="src/Parser.hpp">
<polygon fill="#ffffff" stroke="#000000" points="630.5,-73 630.5,-92 710.5,-92 710.5,-73 630.5,-73"/>
<text text-anchor="middle" x="670.5" y="-80" font-family="Helvetica,sans-Serif" font-size="10.00" fill="#000000">src/Parser.hpp</text>
</a>
</g>
</g>
<!-- Node5&#45;&gt;Node12 -->
<g id="edge9" class="edge">
<title>Node5&#45;&gt;Node12</title>
<path fill="none" stroke="#191970" d="M418.7356,-134.0473C475.8697,-126.2692 553.885,-114.0794 621.5,-98 628.4443,-96.3486 635.8335,-94.2156 642.7115,-92.0634"/>
<polygon fill="#191970" stroke="#191970" points="418.121,-130.5984 408.677,-135.4005 419.0544,-137.5359 418.121,-130.5984"/>
</g>
<!-- Node15 -->
<g id="node11" class="node">
<title>Node15</title>
<g id="a_node11"><a xlink:href="save_8hpp.html" target="_top" target="_top" xlink:title="src/ConsolePrototype\l/save.hpp">
<polygon fill="#ffffff" stroke="#000000" points="501,-67.5 501,-97.5 612,-97.5 612,-67.5 501,-67.5"/>
<text text-anchor="start" x="509" y="-85.5" font-family="Helvetica,sans-Serif" font-size="10.00" fill="#000000">src/ConsolePrototype</text>
<text text-anchor="middle" x="556.5" y="-74.5" font-family="Helvetica,sans-Serif" font-size="10.00" fill="#000000">/save.hpp</text>
</a>
</g>
</g>
<!-- Node5&#45;&gt;Node15 -->
<g id="edge14" class="edge">
<title>Node5&#45;&gt;Node15</title>
<path fill="none" stroke="#191970" d="M381.647,-131.6025C416.6433,-121.7748 465.6842,-108.0031 502.9266,-97.5446"/>
<polygon fill="#191970" stroke="#191970" points="380.4,-128.3173 371.7188,-134.3906 382.2926,-135.0566 380.4,-128.3173"/>
</g>
<!-- Node6&#45;&gt;Node7 -->
<g id="edge2" class="edge">
<title>Node6&#45;&gt;Node7</title>
<path fill="none" stroke="#191970" d="M232.8492,-63.198C260.2369,-50.7152 294.7051,-35.0051 316.4287,-25.1039"/>
<polygon fill="#191970" stroke="#191970" points="231.1375,-60.1317 223.4897,-67.4639 234.0407,-66.5013 231.1375,-60.1317"/>
</g>
<!-- Node8&#45;&gt;Node7 -->
<g id="edge5" class="edge">
<title>Node8&#45;&gt;Node7</title>
<path fill="none" stroke="#191970" d="M380.5366,-65.2147C369.4788,-52.441 354.8328,-35.5224 345.7946,-25.0817"/>
<polygon fill="#191970" stroke="#191970" points="377.9987,-67.6307 387.19,-72.9005 383.2912,-63.0491 377.9987,-67.6307"/>
</g>
<!-- Node9 -->
<g id="node5" class="node">
<title>Node9</title>
<g id="a_node5"><a xlink:href="save_8cpp.html" target="_top" target="_top" xlink:title="src/ConsolePrototype\l/save.cpp">
<polygon fill="#ffffff" stroke="#000000" points="501,-.5 501,-30.5 612,-30.5 612,-.5 501,-.5"/>
<text text-anchor="start" x="509" y="-18.5" font-family="Helvetica,sans-Serif" font-size="10.00" fill="#000000">src/ConsolePrototype</text>
<text text-anchor="middle" x="556.5" y="-7.5" font-family="Helvetica,sans-Serif" font-size="10.00" fill="#000000">/save.cpp</text>
</a>
</g>
</g>
<!-- Node8&#45;&gt;Node9 -->
<g id="edge4" class="edge">
<title>Node8&#45;&gt;Node9</title>
<path fill="none" stroke="#191970" d="M427.8847,-69.0231C454.66,-57.8806 492.6536,-42.0696 520.4029,-30.5218"/>
<polygon fill="#191970" stroke="#191970" points="426.4551,-65.827 418.5674,-72.9005 429.1446,-72.2898 426.4551,-65.827"/>
</g>
<!-- Node10&#45;&gt;Node7 -->
<g id="edge8" class="edge">
<title>Node10&#45;&gt;Node7</title>
<path fill="none" stroke="#191970" d="M121.4646,-66.5359C190.1257,-50.1317 259.541,-33.7904 300.8418,-24.0937"/>
<polygon fill="#191970" stroke="#191970" points="120.2552,-63.2264 111.3432,-68.9559 121.883,-70.0345 120.2552,-63.2264"/>
</g>
<!-- Node11 -->
<g id="node7" class="node">
<title>Node11</title>
<g id="a_node7"><a xlink:href="menu_8cpp.html" target="_top" target="_top" xlink:title="src/ConsolePrototype\l/menu.cpp">
<polygon fill="#ffffff" stroke="#000000" points="0,-.5 0,-30.5 111,-30.5 111,-.5 0,-.5"/>
<text text-anchor="start" x="8" y="-18.5" font-family="Helvetica,sans-Serif" font-size="10.00" fill="#000000">src/ConsolePrototype</text>
<text text-anchor="middle" x="55.5" y="-7.5" font-family="Helvetica,sans-Serif" font-size="10.00" fill="#000000">/menu.cpp</text>
</a>
</g>
</g>
<!-- Node10&#45;&gt;Node11 -->
<g id="edge7" class="edge">
<title>Node10&#45;&gt;Node11</title>
<path fill="none" stroke="#191970" d="M55.5,-57.0249C55.5,-48.128 55.5,-38.4287 55.5,-30.6432"/>
<polygon fill="#191970" stroke="#191970" points="52.0001,-57.2966 55.5,-67.2967 59.0001,-57.2967 52.0001,-57.2966"/>
</g>
<!-- Node12&#45;&gt;Node7 -->
<g id="edge12" class="edge">
<title>Node12&#45;&gt;Node7</title>
<path fill="none" stroke="#191970" d="M632.641,-70.0017C628.8946,-68.9224 625.1347,-67.9006 621.5,-67 533.7067,-45.2475 428.5293,-28.567 374.1272,-20.6201"/>
<polygon fill="#191970" stroke="#191970" points="631.8465,-73.4176 642.4309,-72.9483 633.864,-66.7146 631.8465,-73.4176"/>
</g>
<!-- Node12&#45;&gt;Node9 -->
<g id="edge10" class="edge">
<title>Node12&#45;&gt;Node9</title>
<path fill="none" stroke="#191970" d="M645.5449,-67.8334C626.7313,-56.7763 601.0186,-41.6644 582.0594,-30.5218"/>
<polygon fill="#191970" stroke="#191970" points="643.7718,-70.851 654.1666,-72.9005 647.3187,-64.8161 643.7718,-70.851"/>
</g>
<!-- Node13 -->
<g id="node9" class="node">
<title>Node13</title>
<g id="a_node9"><a xlink:href="_image_8cpp.html" target="_top" target="_top" xlink:title="src/Image/Image.cpp">
<polygon fill="#ffffff" stroke="#000000" points="729,-6 729,-25 838,-25 838,-6 729,-6"/>
<text text-anchor="middle" x="783.5" y="-13" font-family="Helvetica,sans-Serif" font-size="10.00" fill="#000000">src/Image/Image.cpp</text>
</a>
</g>
</g>
<!-- Node12&#45;&gt;Node13 -->
<g id="edge11" class="edge">
<title>Node12&#45;&gt;Node13</title>
<path fill="none" stroke="#191970" d="M695.4426,-67.711C717.3433,-54.7256 748.557,-36.2184 767.3399,-25.0817"/>
<polygon fill="#191970" stroke="#191970" points="693.5068,-64.7898 686.6901,-72.9005 697.0769,-70.811 693.5068,-64.7898"/>
</g>
<!-- Node14 -->
<g id="node10" class="node">
<title>Node14</title>
<g id="a_node10"><a xlink:href="_parser_8cpp.html" target="_top" target="_top" xlink:title="src/Parser.cpp">
<polygon fill="#ffffff" stroke="#000000" points="630.5,-6 630.5,-25 710.5,-25 710.5,-6 630.5,-6"/>
<text text-anchor="middle" x="670.5" y="-13" font-family="Helvetica,sans-Serif" font-size="10.00" fill="#000000">src/Parser.cpp</text>
</a>
</g>
</g>
<!-- Node12&#45;&gt;Node14 -->
<g id="edge13" class="edge">
<title>Node12&#45;&gt;Node14</title>
<path fill="none" stroke="#191970" d="M670.5,-62.6079C670.5,-50.214 670.5,-34.8263 670.5,-25.0817"/>
<polygon fill="#191970" stroke="#191970" points="667.0001,-62.9005 670.5,-72.9005 674.0001,-62.9006 667.0001,-62.9005"/>
</g>
<!-- Node15&#45;&gt;Node7 -->
<g id="edge16" class="edge">
<title>Node15&#45;&gt;Node7</title>
<path fill="none" stroke="#191970" d="M497.6149,-64.4849C456.0583,-51.7713 402.032,-35.2427 368.5695,-25.0053"/>
<polygon fill="#191970" stroke="#191970" points="496.7657,-67.8852 507.3521,-67.4639 498.8136,-61.1914 496.7657,-67.8852"/>
</g>
<!-- Node15&#45;&gt;Node9 -->
<g id="edge15" class="edge">
<title>Node15&#45;&gt;Node9</title>
<path fill="none" stroke="#191970" d="M556.5,-57.0249C556.5,-48.128 556.5,-38.4287 556.5,-30.6432"/>
<polygon fill="#191970" stroke="#191970" points="553.0001,-57.2966 556.5,-67.2967 560.0001,-57.2967 553.0001,-57.2966"/>
</g>
</g>
</svg>
        <g id="navigator" transform="translate(0 0)" fill="#404254">
                <rect fill="#f2f5e9" fill-opacity="0.5" stroke="#606060" stroke-width=".5" x="0" y="0" width="60" height="60"/>
                <use id="zoomplus" xlink:href="#zoomPlus" target="_top" x="17" y="9" onmousedown="handleZoom(evt,'in')"/>
                <use id="zoomminus" xlink:href="#zoomMin" target="_top" x="42" y="9" onmousedown="handleZoom(evt,'out')"/>
                <use id="reset" xlink:href="#resetDef" target="_top" x="30" y="36" onmousedown="handleReset()"/>
                <g id="arrowUp" xlink:href="#dirArrow" target="_top" transform="translate(30 24)" onmousedown="handlePan(0,-1)">
                  <use xlink:href="#rim" target="_top" fill="#404040">
                        <set attributeName="fill" to="#808080" begin="arrowUp.mouseover" end="arrowUp.mouseout"/>
                  </use>
                  <path fill="none" stroke="white" stroke-width="1.5" d="M0,-3.0v7 M-2.5,-0.5L0,-3.0L2.5,-0.5"/>
                </g>
                <g id="arrowRight" xlink:href="#dirArrow" target="_top" transform="rotate(90) translate(36 -43)" onmousedown="handlePan(1,0)">
                  <use xlink:href="#rim" target="_top" fill="#404040">
                        <set attributeName="fill" to="#808080" begin="arrowRight.mouseover" end="arrowRight.mouseout"/>
                  </use>
                  <path fill="none" stroke="white" stroke-width="1.5" d="M0,-3.0v7 M-2.5,-0.5L0,-3.0L2.5,-0.5"/>
                </g>
                <g id="arrowDown" xlink:href="#dirArrow" target="_top" transform="rotate(180) translate(-30 -48)" onmousedown="handlePan(0,1)">
                  <use xlink:href="#rim" target="_top" fill="#404040">
                        <set attributeName="fill" to="#808080" begin="arrowDown.mouseover" end="arrowDown.mouseout"/>
                  </use>
                  <path fill="none" stroke="white" stroke-width="1.5" d="M0,-3.0v7 M-2.5,-0.5L0,-3.0L2.5,-0.5"/>
                </g>
                <g id="arrowLeft" xlink:href="#dirArrow" target="_top" transform="rotate(270) translate(-36 17)" onmousedown="handlePan(-1,0)">
                  <use xlink:href="#rim" target="_top" fill="#404040">
                        <set attributeName="fill" to="#808080" begin="arrowLeft.mouseover" end="arrowLeft.mouseout"/>
                  </use>
                  <path fill="none" stroke="white" stroke-width="1.5" d="M0,-3.0v7 M-2.5,-0.5L0,-3.0L2.5,-0.5"/>
                </g>
        </g>
        <svg viewBox="0 0 15 15" width="100%" height="30px" preserveAspectRatio="xMaxYMin meet">
         <g id="arrow_out" transform="scale(0.3 0.3)">
          <a xlink:href="_collection_8hpp__dep__incl_org.svg" target="_top" target="_base">
           <rect id="button" ry="5" rx="5" y="6" x="6" height="38" width="38"
                fill="#f2f5e9" fill-opacity="0.5" stroke="#606060" stroke-width="1.0"/>
           <path id="arrow"
             d="M 11.500037,31.436501 C 11.940474,20.09759 22.043105,11.32322 32.158766,21.979434 L 37.068811,17.246167 C 37.068811,17.246167 37.088388,32 37.088388,32 L 22.160133,31.978069 C 22.160133,31.978069 26.997745,27.140456 26.997745,27.140456 C 18.528582,18.264221 13.291696,25.230495 11.500037,31.436501 z"
             style="fill:#404040;"/>
          </a>
         </g>
        </svg>
</svg>
