<?xml version="1.0" encoding="UTF-8" standalone="no"?>
<!DOCTYPE svg PUBLIC "-//W3C//DTD SVG 1.1//EN"
 "http://www.w3.org/Graphics/SVG/1.1/DTD/svg11.dtd">
<!-- Generated by graphviz version 2.40.1 (20161225.0304)
 -->
<!-- Title: src/Collection.hpp Pages: 1 -->
<svg width="308pt" height="140pt"
 viewBox="0.00 0.00 307.50 140.00" xmlns="http://www.w3.org/2000/svg" xmlns:xlink="http://www.w3.org/1999/xlink">
<g id="graph0" class="graph" transform="scale(1 1) rotate(0) translate(4 136)">
<title>src/Collection.hpp</title>
<polygon fill="#ffffff" stroke="transparent" points="-4,4 -4,-136 303.5,-136 303.5,4 -4,4"/>
<!-- Node5 -->
<g id="node1" class="node">
<title>Node5</title>
<polygon fill="#bfbfbf" stroke="#000000" points="96,-112.5 96,-131.5 191,-131.5 191,-112.5 96,-112.5"/>
<text text-anchor="middle" x="143.5" y="-119.5" font-family="Helvetica,sans-Serif" font-size="10.00" fill="#000000">src/Collection.hpp</text>
</g>
<!-- Node6 -->
<g id="node2" class="node">
<title>Node6</title>
<g id="a_node2"><a xlink:href="_collection_pool_8hpp.html" target="_top" xlink:title="src/CollectionPool.hpp">
<polygon fill="#ffffff" stroke="#000000" points="0,-56.5 0,-75.5 115,-75.5 115,-56.5 0,-56.5"/>
<text text-anchor="middle" x="57.5" y="-63.5" font-family="Helvetica,sans-Serif" font-size="10.00" fill="#000000">src/CollectionPool.hpp</text>
</a>
</g>
</g>
<!-- Node5&#45;&gt;Node6 -->
<g id="edge1" class="edge">
<title>Node5&#45;&gt;Node6</title>
<path fill="none" stroke="#191970" d="M120.1095,-106.769C104.8701,-96.8456 85.4491,-84.1994 72.3084,-75.6427"/>
<polygon fill="#191970" stroke="#191970" points="118.2301,-109.7218 128.5199,-112.2455 122.0498,-103.8558 118.2301,-109.7218"/>
</g>
<!-- Node7 -->
<g id="node3" class="node">
<title>Node7</title>
<g id="a_node3"><a xlink:href="main_8cpp.html" target="_top" xlink:title="src/main.cpp">
<polygon fill="#ffffff" stroke="#000000" points="107,-.5 107,-19.5 180,-19.5 180,-.5 107,-.5"/>
<text text-anchor="middle" x="143.5" y="-7.5" font-family="Helvetica,sans-Serif" font-size="10.00" fill="#000000">src/main.cpp</text>
</a>
</g>
</g>
<!-- Node5&#45;&gt;Node7 -->
<g id="edge5" class="edge">
<title>Node5&#45;&gt;Node7</title>
<path fill="none" stroke="#191970" d="M143.5,-102.2702C143.5,-77.9985 143.5,-37.7725 143.5,-19.5249"/>
<polygon fill="#191970" stroke="#191970" points="140.0001,-102.4509 143.5,-112.4509 147.0001,-102.451 140.0001,-102.4509"/>
</g>
<!-- Node8 -->
<g id="node4" class="node">
<title>Node8</title>
<g id="a_node4"><a xlink:href="_filtered_collection_8hpp.html" target="_top" xlink:title="src/FilteredCollection.hpp">
<polygon fill="#ffffff" stroke="#000000" points="171.5,-56.5 171.5,-75.5 299.5,-75.5 299.5,-56.5 171.5,-56.5"/>
<text text-anchor="middle" x="235.5" y="-63.5" font-family="Helvetica,sans-Serif" font-size="10.00" fill="#000000">src/FilteredCollection.hpp</text>
</a>
</g>
</g>
<!-- Node5&#45;&gt;Node8 -->
<g id="edge3" class="edge">
<title>Node5&#45;&gt;Node8</title>
<path fill="none" stroke="#191970" d="M168.5224,-106.769C184.825,-96.8456 205.601,-84.1994 219.6585,-75.6427"/>
<polygon fill="#191970" stroke="#191970" points="166.2473,-104.0563 159.5252,-112.2455 169.887,-110.0357 166.2473,-104.0563"/>
</g>
<!-- Node6&#45;&gt;Node7 -->
<g id="edge2" class="edge">
<title>Node6&#45;&gt;Node7</title>
<path fill="none" stroke="#191970" d="M80.8905,-50.769C96.1299,-40.8456 115.5509,-28.1994 128.6916,-19.6427"/>
<polygon fill="#191970" stroke="#191970" points="78.9502,-47.8558 72.4801,-56.2455 82.7699,-53.7218 78.9502,-47.8558"/>
</g>
<!-- Node8&#45;&gt;Node7 -->
<g id="edge4" class="edge">
<title>Node8&#45;&gt;Node7</title>
<path fill="none" stroke="#191970" d="M210.4776,-50.769C194.175,-40.8456 173.399,-28.1994 159.3415,-19.6427"/>
<polygon fill="#191970" stroke="#191970" points="209.113,-54.0357 219.4748,-56.2455 212.7527,-48.0563 209.113,-54.0357"/>
</g>
</g>
</svg>
