<?xml version="1.0" encoding="UTF-8" standalone="no"?>
<!DOCTYPE svg PUBLIC "-//W3C//DTD SVG 1.1//EN"
 "http://www.w3.org/Graphics/SVG/1.1/DTD/svg11.dtd">
<!-- Generated by graphviz version 2.40.1 (20161225.0304)
 -->
<!-- Title: src/Collection/CollectionIterator.hpp Pages: 1 -->
<svg width="206pt" height="95pt"
 viewBox="0.00 0.00 206.00 95.00" xmlns="http://www.w3.org/2000/svg" xmlns:xlink="http://www.w3.org/1999/xlink">
<g id="graph0" class="graph" transform="scale(1 1) rotate(0) translate(4 91)">
<title>src/Collection/CollectionIterator.hpp</title>
<polygon fill="#ffffff" stroke="transparent" points="-4,4 -4,-91 202,-91 202,4 -4,4"/>
<!-- Node0 -->
<g id="node1" class="node">
<title>Node0</title>
<polygon fill="#bfbfbf" stroke="#000000" points="42.5,-56.5 42.5,-86.5 165.5,-86.5 165.5,-56.5 42.5,-56.5"/>
<text text-anchor="start" x="50.5" y="-74.5" font-family="Helvetica,sans-Serif" font-size="10.00" fill="#000000">src/Collection/Collection</text>
<text text-anchor="middle" x="104" y="-63.5" font-family="Helvetica,sans-Serif" font-size="10.00" fill="#000000">Iterator.hpp</text>
</g>
<!-- Node1 -->
<g id="node2" class="node">
<title>Node1</title>
<polygon fill="#ffffff" stroke="#bfbfbf" points="0,-.5 0,-19.5 62,-19.5 62,-.5 0,-.5"/>
<text text-anchor="middle" x="31" y="-7.5" font-family="Helvetica,sans-Serif" font-size="10.00" fill="#000000">type_traits</text>
</g>
<!-- Node0&#45;&gt;Node1 -->
<g id="edge1" class="edge">
<title>Node0&#45;&gt;Node1</title>
<path fill="none" stroke="#191970" d="M85.9551,-56.2977C75.1886,-47.2274 61.5149,-35.7077 50.5005,-26.4285"/>
<polygon fill="#191970" stroke="#191970" points="52.5911,-23.6132 42.6882,-19.8469 48.0809,-28.9667 52.5911,-23.6132"/>
</g>
<!-- Node2 -->
<g id="node3" class="node">
<title>Node2</title>
<polygon fill="#ffffff" stroke="#bfbfbf" points="80.5,-.5 80.5,-19.5 127.5,-19.5 127.5,-.5 80.5,-.5"/>
<text text-anchor="middle" x="104" y="-7.5" font-family="Helvetica,sans-Serif" font-size="10.00" fill="#000000">iterator</text>
</g>
<!-- Node0&#45;&gt;Node2 -->
<g id="edge2" class="edge">
<title>Node0&#45;&gt;Node2</title>
<path fill="none" stroke="#191970" d="M104,-56.2977C104,-48.3834 104,-38.6043 104,-30.0759"/>
<polygon fill="#191970" stroke="#191970" points="107.5001,-29.8469 104,-19.8469 100.5001,-29.847 107.5001,-29.8469"/>
</g>
<!-- Node3 -->
<g id="node4" class="node">
<title>Node3</title>
<polygon fill="#ffffff" stroke="#bfbfbf" points="146,-.5 146,-19.5 198,-19.5 198,-.5 146,-.5"/>
<text text-anchor="middle" x="172" y="-7.5" font-family="Helvetica,sans-Serif" font-size="10.00" fill="#000000">memory</text>
</g>
<!-- Node0&#45;&gt;Node3 -->
<g id="edge3" class="edge">
<title>Node0&#45;&gt;Node3</title>
<path fill="none" stroke="#191970" d="M120.809,-56.2977C130.7397,-47.3163 143.3257,-35.9334 153.5327,-26.702"/>
<polygon fill="#191970" stroke="#191970" points="156.0434,-29.1505 161.1123,-19.8469 151.348,-23.9588 156.0434,-29.1505"/>
</g>
</g>
</svg>
