<?xml version="1.0" encoding="UTF-8" standalone="no"?>
<!DOCTYPE svg PUBLIC "-//W3C//DTD SVG 1.1//EN"
 "http://www.w3.org/Graphics/SVG/1.1/DTD/svg11.dtd">
<!-- Generated by graphviz version 2.40.1 (20161225.0304)
 -->
<!-- Title: src/CollectionPool.hpp Pages: 1 -->
<svg width="306pt" height="196pt"
 viewBox="0.00 0.00 306.00 196.00" xmlns="http://www.w3.org/2000/svg" xmlns:xlink="http://www.w3.org/1999/xlink">
<g id="graph0" class="graph" transform="scale(1 1) rotate(0) translate(4 192)">
<title>src/CollectionPool.hpp</title>
<polygon fill="#ffffff" stroke="transparent" points="-4,4 -4,-192 302,-192 302,4 -4,4"/>
<!-- Node0 -->
<g id="node1" class="node">
<title>Node0</title>
<polygon fill="#bfbfbf" stroke="#000000" points="134.5,-168.5 134.5,-187.5 249.5,-187.5 249.5,-168.5 134.5,-168.5"/>
<text text-anchor="middle" x="192" y="-175.5" font-family="Helvetica,sans-Serif" font-size="10.00" fill="#000000">src/CollectionPool.hpp</text>
</g>
<!-- Node1 -->
<g id="node2" class="node">
<title>Node1</title>
<g id="a_node2"><a xlink:href="_collection_8hpp.html" target="_top" xlink:title="Collection.hpp">
<polygon fill="#ffffff" stroke="#000000" points="118.5,-112.5 118.5,-131.5 197.5,-131.5 197.5,-112.5 118.5,-112.5"/>
<text text-anchor="middle" x="158" y="-119.5" font-family="Helvetica,sans-Serif" font-size="10.00" fill="#000000">Collection.hpp</text>
</a>
</g>
</g>
<!-- Node0&#45;&gt;Node1 -->
<g id="edge1" class="edge">
<title>Node0&#45;&gt;Node1</title>
<path fill="none" stroke="#191970" d="M186.0777,-168.2455C181.3973,-160.5367 174.7327,-149.5598 169.0711,-140.2348"/>
<polygon fill="#191970" stroke="#191970" points="172.0361,-138.3741 163.8545,-131.6427 166.0525,-142.007 172.0361,-138.3741"/>
</g>
<!-- Node2 -->
<g id="node3" class="node">
<title>Node2</title>
<g id="a_node3"><a xlink:href="_collection_iterator_8hpp.html" target="_top" xlink:title="CollectionIterator.hpp">
<polygon fill="#ffffff" stroke="#000000" points="43,-56.5 43,-75.5 153,-75.5 153,-56.5 43,-56.5"/>
<text text-anchor="middle" x="98" y="-63.5" font-family="Helvetica,sans-Serif" font-size="10.00" fill="#000000">CollectionIterator.hpp</text>
</a>
</g>
</g>
<!-- Node0&#45;&gt;Node2 -->
<g id="edge7" class="edge">
<title>Node0&#45;&gt;Node2</title>
<path fill="none" stroke="#191970" d="M161.7295,-168.4234C143.9244,-161.2218 122.5142,-149.5399 110,-132 100.4996,-118.6843 97.8118,-100.113 97.3209,-86.0612"/>
<polygon fill="#191970" stroke="#191970" points="100.8208,-85.9439 97.31,-75.9477 93.8208,-85.9515 100.8208,-85.9439"/>
</g>
<!-- Node4 -->
<g id="node5" class="node">
<title>Node4</title>
<polygon fill="#ffffff" stroke="#bfbfbf" points="157.5,-.5 157.5,-19.5 204.5,-19.5 204.5,-.5 157.5,-.5"/>
<text text-anchor="middle" x="181" y="-7.5" font-family="Helvetica,sans-Serif" font-size="10.00" fill="#000000">iterator</text>
</g>
<!-- Node0&#45;&gt;Node4 -->
<g id="edge9" class="edge">
<title>Node0&#45;&gt;Node4</title>
<path fill="none" stroke="#191970" d="M195.8624,-168.3228C199.3038,-159.1446 204.0833,-144.8807 206,-132 211.4609,-95.3018 198.3668,-52.9833 189.14,-29.0697"/>
<polygon fill="#191970" stroke="#191970" points="192.362,-27.7009 185.3706,-19.7403 185.8717,-30.3233 192.362,-27.7009"/>
</g>
<!-- Node6 -->
<g id="node7" class="node">
<title>Node6</title>
<polygon fill="#ffffff" stroke="#bfbfbf" points="254,-112.5 254,-131.5 298,-131.5 298,-112.5 254,-112.5"/>
<text text-anchor="middle" x="276" y="-119.5" font-family="Helvetica,sans-Serif" font-size="10.00" fill="#000000">vector</text>
</g>
<!-- Node0&#45;&gt;Node6 -->
<g id="edge8" class="edge">
<title>Node0&#45;&gt;Node6</title>
<path fill="none" stroke="#191970" d="M206.6317,-168.2455C219.3994,-159.7337 238.1438,-147.2375 252.9299,-137.3801"/>
<polygon fill="#191970" stroke="#191970" points="255.1569,-140.1019 261.536,-131.6427 251.274,-134.2775 255.1569,-140.1019"/>
</g>
<!-- Node1&#45;&gt;Node2 -->
<g id="edge2" class="edge">
<title>Node1&#45;&gt;Node2</title>
<path fill="none" stroke="#191970" d="M147.5488,-112.2455C138.7731,-104.0549 126.0446,-92.1749 115.686,-82.5069"/>
<polygon fill="#191970" stroke="#191970" points="118.0301,-79.9072 108.3314,-75.6427 113.2539,-85.0246 118.0301,-79.9072"/>
</g>
<!-- Node1&#45;&gt;Node4 -->
<g id="edge6" class="edge">
<title>Node1&#45;&gt;Node4</title>
<path fill="none" stroke="#191970" d="M159.961,-112.4509C163.7292,-94.1013 172.0483,-53.5908 177.0224,-29.3693"/>
<polygon fill="#191970" stroke="#191970" points="180.4608,-30.0246 179.044,-19.5249 173.6039,-28.6164 180.4608,-30.0246"/>
</g>
<!-- Node3 -->
<g id="node4" class="node">
<title>Node3</title>
<polygon fill="#ffffff" stroke="#bfbfbf" points="0,-.5 0,-19.5 62,-19.5 62,-.5 0,-.5"/>
<text text-anchor="middle" x="31" y="-7.5" font-family="Helvetica,sans-Serif" font-size="10.00" fill="#000000">type_traits</text>
</g>
<!-- Node2&#45;&gt;Node3 -->
<g id="edge3" class="edge">
<title>Node2&#45;&gt;Node3</title>
<path fill="none" stroke="#191970" d="M86.3295,-56.2455C76.4339,-47.9746 62.0373,-35.9416 50.4099,-26.2232"/>
<polygon fill="#191970" stroke="#191970" points="52.4542,-23.3703 42.5368,-19.6427 47.965,-28.7413 52.4542,-23.3703"/>
</g>
<!-- Node2&#45;&gt;Node4 -->
<g id="edge4" class="edge">
<title>Node2&#45;&gt;Node4</title>
<path fill="none" stroke="#191970" d="M112.4575,-56.2455C125.0732,-47.7337 143.5944,-35.2375 158.2045,-25.3801"/>
<polygon fill="#191970" stroke="#191970" points="160.3761,-28.1371 166.7082,-19.6427 156.4609,-22.3343 160.3761,-28.1371"/>
</g>
<!-- Node5 -->
<g id="node6" class="node">
<title>Node5</title>
<polygon fill="#ffffff" stroke="#bfbfbf" points="80,-.5 80,-19.5 132,-19.5 132,-.5 80,-.5"/>
<text text-anchor="middle" x="106" y="-7.5" font-family="Helvetica,sans-Serif" font-size="10.00" fill="#000000">memory</text>
</g>
<!-- Node2&#45;&gt;Node5 -->
<g id="edge5" class="edge">
<title>Node2&#45;&gt;Node5</title>
<path fill="none" stroke="#191970" d="M99.3935,-56.2455C100.4374,-48.9382 101.9008,-38.6944 103.1851,-29.7046"/>
<polygon fill="#191970" stroke="#191970" points="106.673,-30.0372 104.6225,-19.6427 99.7434,-29.0472 106.673,-30.0372"/>
</g>
</g>
</svg>
