<?xml version="1.0" encoding="UTF-8" standalone="no"?>
<!DOCTYPE svg PUBLIC "-//W3C//DTD SVG 1.1//EN"
 "http://www.w3.org/Graphics/SVG/1.1/DTD/svg11.dtd">
<!-- Generated by graphviz version 2.40.1 (20161225.0304)
 -->
<!-- Title: src/Interface/Events.hpp Pages: 1 -->
<svg width="1909pt" height="364pt"
 viewBox="0.00 0.00 1908.50 364.00" xmlns="http://www.w3.org/2000/svg" xmlns:xlink="http://www.w3.org/1999/xlink">
<g id="graph0" class="graph" transform="scale(1 1) rotate(0) translate(4 360)">
<title>src/Interface/Events.hpp</title>
<polygon fill="#ffffff" stroke="transparent" points="-4,4 -4,-360 1904.5,-360 1904.5,4 -4,4"/>
<!-- Node2 -->
<g id="node1" class="node">
<title>Node2</title>
<polygon fill="#bfbfbf" stroke="#000000" points="925.5,-336.5 925.5,-355.5 1049.5,-355.5 1049.5,-336.5 925.5,-336.5"/>
<text text-anchor="middle" x="987.5" y="-343.5" font-family="Helvetica,sans-Serif" font-size="10.00" fill="#000000">src/Interface/Events.hpp</text>
</g>
<!-- Node3 -->
<g id="node2" class="node">
<title>Node3</title>
<g id="a_node2"><a xlink:href="_widget_8hpp.html" target="_top" xlink:title="src/Interface/Widget.hpp">
<polygon fill="#ffffff" stroke="#000000" points="880.5,-280.5 880.5,-299.5 1004.5,-299.5 1004.5,-280.5 880.5,-280.5"/>
<text text-anchor="middle" x="942.5" y="-287.5" font-family="Helvetica,sans-Serif" font-size="10.00" fill="#000000">src/Interface/Widget.hpp</text>
</a>
</g>
</g>
<!-- Node2&#45;&gt;Node3 -->
<g id="edge1" class="edge">
<title>Node2&#45;&gt;Node3</title>
<path fill="none" stroke="#191970" d="M973.2054,-328.2112C965.6004,-318.7472 956.5462,-307.4797 950.2486,-299.6427"/>
<polygon fill="#191970" stroke="#191970" points="970.6694,-330.6428 979.6616,-336.2455 976.1259,-326.2581 970.6694,-330.6428"/>
</g>
<!-- Node21 -->
<g id="node20" class="node">
<title>Node21</title>
<g id="a_node20"><a xlink:href="_image_widget_8hpp.html" target="_top" xlink:title="src/Interface/ImageWidget.hpp">
<polygon fill="#ffffff" stroke="#000000" points="971,-224.5 971,-243.5 1122,-243.5 1122,-224.5 971,-224.5"/>
<text text-anchor="middle" x="1046.5" y="-231.5" font-family="Helvetica,sans-Serif" font-size="10.00" fill="#000000">src/Interface/ImageWidget.hpp</text>
</a>
</g>
</g>
<!-- Node2&#45;&gt;Node21 -->
<g id="edge40" class="edge">
<title>Node2&#45;&gt;Node21</title>
<path fill="none" stroke="#191970" d="M998.3273,-327.3472C1003.0809,-319.0306 1008.6679,-309.0801 1013.5,-300 1023.9719,-280.3221 1035.4538,-256.9035 1041.7349,-243.9199"/>
<polygon fill="#191970" stroke="#191970" points="995.1812,-325.7968 993.2249,-336.2095 1001.2477,-329.2895 995.1812,-325.7968"/>
</g>
<!-- Node4 -->
<g id="node3" class="node">
<title>Node4</title>
<g id="a_node3"><a xlink:href="_window_widget_8hpp.html" target="_top" xlink:title="src/Interface/WindowWidget.hpp">
<polygon fill="#ffffff" stroke="#000000" points="20,-112.5 20,-131.5 179,-131.5 179,-112.5 20,-112.5"/>
<text text-anchor="middle" x="99.5" y="-119.5" font-family="Helvetica,sans-Serif" font-size="10.00" fill="#000000">src/Interface/WindowWidget.hpp</text>
</a>
</g>
</g>
<!-- Node3&#45;&gt;Node4 -->
<g id="edge2" class="edge">
<title>Node3&#45;&gt;Node4</title>
<path fill="none" stroke="#191970" d="M870.2865,-288.4819C717.5288,-284.7362 366.2023,-273.1506 250.5,-244 192.2544,-229.3253 169.417,-231.0217 127.5,-188 111.8651,-171.9531 104.374,-145.8427 101.3042,-131.754"/>
<polygon fill="#191970" stroke="#191970" points="870.4151,-291.986 880.4965,-288.7279 870.5837,-284.988 870.4151,-291.986"/>
</g>
<!-- Node9 -->
<g id="node8" class="node">
<title>Node9</title>
<g id="a_node8"><a xlink:href="_list_widget_8hpp.html" target="_top" xlink:title="src/Interface/ListWidget.hpp">
<polygon fill="#ffffff" stroke="#000000" points="136.5,-168.5 136.5,-187.5 276.5,-187.5 276.5,-168.5 136.5,-168.5"/>
<text text-anchor="middle" x="206.5" y="-175.5" font-family="Helvetica,sans-Serif" font-size="10.00" fill="#000000">src/Interface/ListWidget.hpp</text>
</a>
</g>
</g>
<!-- Node3&#45;&gt;Node9 -->
<g id="edge7" class="edge">
<title>Node3&#45;&gt;Node9</title>
<path fill="none" stroke="#191970" d="M870.0993,-287.4467C710.5511,-281.4587 338.5906,-265.3864 285.5,-244 254.9977,-231.7128 227.5309,-202.9928 214.4936,-187.8097"/>
<polygon fill="#191970" stroke="#191970" points="870.1723,-290.9517 880.2956,-287.8264 870.4329,-283.9566 870.1723,-290.9517"/>
</g>
<!-- Node10 -->
<g id="node9" class="node">
<title>Node10</title>
<g id="a_node9"><a xlink:href="_menu_bar_widget_8hpp.html" target="_top" xlink:title="src/Interface/MenuBarWidget.hpp">
<polygon fill="#ffffff" stroke="#000000" points="393,-112.5 393,-131.5 556,-131.5 556,-112.5 393,-112.5"/>
<text text-anchor="middle" x="474.5" y="-119.5" font-family="Helvetica,sans-Serif" font-size="10.00" fill="#000000">src/Interface/MenuBarWidget.hpp</text>
</a>
</g>
</g>
<!-- Node3&#45;&gt;Node10 -->
<g id="edge17" class="edge">
<title>Node3&#45;&gt;Node10</title>
<path fill="none" stroke="#191970" d="M870.0751,-285.4757C759.4442,-278.0341 558.2045,-262.2074 530.5,-244 490.7692,-217.8889 478.7988,-155.9212 475.5751,-131.8241"/>
<polygon fill="#191970" stroke="#191970" points="869.9527,-288.9752 880.1634,-286.148 870.4182,-281.9907 869.9527,-288.9752"/>
</g>
<!-- Node13 -->
<g id="node12" class="node">
<title>Node13</title>
<g id="a_node12"><a xlink:href="_button_widget_8hpp.html" target="_top" xlink:title="src/Interface/ButtonWidget.hpp">
<polygon fill="#ffffff" stroke="#000000" points="294.5,-224.5 294.5,-243.5 446.5,-243.5 446.5,-224.5 294.5,-224.5"/>
<text text-anchor="middle" x="370.5" y="-231.5" font-family="Helvetica,sans-Serif" font-size="10.00" fill="#000000">src/Interface/ButtonWidget.hpp</text>
</a>
</g>
</g>
<!-- Node3&#45;&gt;Node13 -->
<g id="edge14" class="edge">
<title>Node3&#45;&gt;Node13</title>
<path fill="none" stroke="#191970" d="M870.4625,-283.4763C776.2076,-274.8601 605.9194,-259.017 460.5,-244 455.965,-243.5317 451.3025,-243.0411 446.5996,-242.5394"/>
<polygon fill="#191970" stroke="#191970" points="870.1811,-286.9651 880.4579,-284.389 870.8176,-279.9941 870.1811,-286.9651"/>
</g>
<!-- Node15 -->
<g id="node14" class="node">
<title>Node15</title>
<g id="a_node14"><a xlink:href="_tag_setter_widget_8hpp.html" target="_top" xlink:title="src/Interface/TagSetterWidget.hpp">
<polygon fill="#ffffff" stroke="#000000" points="540,-224.5 540,-243.5 707,-243.5 707,-224.5 540,-224.5"/>
<text text-anchor="middle" x="623.5" y="-231.5" font-family="Helvetica,sans-Serif" font-size="10.00" fill="#000000">src/Interface/TagSetterWidget.hpp</text>
</a>
</g>
</g>
<!-- Node3&#45;&gt;Node15 -->
<g id="edge18" class="edge">
<title>Node3&#45;&gt;Node15</title>
<path fill="none" stroke="#191970" d="M878.0945,-278.6937C819.2411,-268.3621 733.1802,-253.2542 677.7509,-243.5237"/>
<polygon fill="#191970" stroke="#191970" points="877.5698,-282.155 888.0244,-280.4369 878.7802,-275.2605 877.5698,-282.155"/>
</g>
<!-- Node17 -->
<g id="node16" class="node">
<title>Node17</title>
<g id="a_node16"><a xlink:href="_tag_viewer_widget_8hpp.html" target="_top" xlink:title="src/Interface/TagViewerWidget.hpp">
<polygon fill="#ffffff" stroke="#000000" points="744.5,-224.5 744.5,-243.5 914.5,-243.5 914.5,-224.5 744.5,-224.5"/>
<text text-anchor="middle" x="829.5" y="-231.5" font-family="Helvetica,sans-Serif" font-size="10.00" fill="#000000">src/Interface/TagViewerWidget.hpp</text>
</a>
</g>
</g>
<!-- Node3&#45;&gt;Node17 -->
<g id="edge21" class="edge">
<title>Node3&#45;&gt;Node17</title>
<path fill="none" stroke="#191970" d="M913.9208,-275.8368C893.4942,-265.7139 866.5638,-252.3679 848.6719,-243.5011"/>
<polygon fill="#191970" stroke="#191970" points="912.5604,-279.0688 923.0746,-280.3733 915.6687,-272.7968 912.5604,-279.0688"/>
</g>
<!-- Node19 -->
<g id="node18" class="node">
<title>Node19</title>
<g id="a_node18"><a xlink:href="_grid_widget_8hpp.html" target="_top" xlink:title="src/Interface/GridWidget.hpp">
<polygon fill="#ffffff" stroke="#000000" points="950.5,-168.5 950.5,-187.5 1092.5,-187.5 1092.5,-168.5 950.5,-168.5"/>
<text text-anchor="middle" x="1021.5" y="-175.5" font-family="Helvetica,sans-Serif" font-size="10.00" fill="#000000">src/Interface/GridWidget.hpp</text>
</a>
</g>
</g>
<!-- Node3&#45;&gt;Node19 -->
<g id="edge24" class="edge">
<title>Node3&#45;&gt;Node19</title>
<path fill="none" stroke="#191970" d="M944.8513,-270.2568C947.2632,-256.3568 952.0645,-237.8362 961.5,-224 972.223,-208.2759 990.0478,-195.6067 1003.4893,-187.5764"/>
<polygon fill="#191970" stroke="#191970" points="941.376,-269.8337 943.3864,-280.236 948.3018,-270.8504 941.376,-269.8337"/>
</g>
<!-- Node3&#45;&gt;Node21 -->
<g id="edge27" class="edge">
<title>Node3&#45;&gt;Node21</title>
<path fill="none" stroke="#191970" d="M969.5029,-275.46C988.1136,-265.4388 1012.3299,-252.3993 1028.5922,-243.6427"/>
<polygon fill="#191970" stroke="#191970" points="967.7608,-272.4228 960.6154,-280.2455 971.0795,-278.5861 967.7608,-272.4228"/>
</g>
<!-- Node23 -->
<g id="node22" class="node">
<title>Node23</title>
<g id="a_node22"><a xlink:href="_layout_widget_8hpp.html" target="_top" xlink:title="src/Interface/LayoutWidget.hpp">
<polygon fill="#ffffff" stroke="#000000" points="1214,-224.5 1214,-243.5 1367,-243.5 1367,-224.5 1214,-224.5"/>
<text text-anchor="middle" x="1290.5" y="-231.5" font-family="Helvetica,sans-Serif" font-size="10.00" fill="#000000">src/Interface/LayoutWidget.hpp</text>
</a>
</g>
</g>
<!-- Node3&#45;&gt;Node23 -->
<g id="edge30" class="edge">
<title>Node3&#45;&gt;Node23</title>
<path fill="none" stroke="#191970" d="M1011.9661,-278.8215C1076.1878,-268.487 1170.599,-253.2944 1231.3172,-243.5237"/>
<polygon fill="#191970" stroke="#191970" points="1011.2448,-275.3925 1001.9279,-280.4369 1012.357,-282.3036 1011.2448,-275.3925"/>
</g>
<!-- Node25 -->
<g id="node24" class="node">
<title>Node25</title>
<g id="a_node24"><a xlink:href="_scroll_widget_8hpp.html" target="_top" xlink:title="src/Interface/ScrollWidget.hpp">
<polygon fill="#ffffff" stroke="#000000" points="1426,-224.5 1426,-243.5 1575,-243.5 1575,-224.5 1426,-224.5"/>
<text text-anchor="middle" x="1500.5" y="-231.5" font-family="Helvetica,sans-Serif" font-size="10.00" fill="#000000">src/Interface/ScrollWidget.hpp</text>
</a>
</g>
</g>
<!-- Node3&#45;&gt;Node25 -->
<g id="edge33" class="edge">
<title>Node3&#45;&gt;Node25</title>
<path fill="none" stroke="#191970" d="M1014.5937,-282.7648C1120.6954,-272.1166 1317.9365,-252.3218 1425.6125,-241.5156"/>
<polygon fill="#191970" stroke="#191970" points="1014.2169,-279.2849 1004.6164,-283.7661 1014.9159,-286.2499 1014.2169,-279.2849"/>
</g>
<!-- Node27 -->
<g id="node26" class="node">
<title>Node27</title>
<g id="a_node26"><a xlink:href="_tag_selector_8hpp.html" target="_top" xlink:title="src/Interface/TagSelector.hpp">
<polygon fill="#ffffff" stroke="#000000" points="1612.5,-224.5 1612.5,-243.5 1758.5,-243.5 1758.5,-224.5 1612.5,-224.5"/>
<text text-anchor="middle" x="1685.5" y="-231.5" font-family="Helvetica,sans-Serif" font-size="10.00" fill="#000000">src/Interface/TagSelector.hpp</text>
</a>
</g>
</g>
<!-- Node3&#45;&gt;Node27 -->
<g id="edge36" class="edge">
<title>Node3&#45;&gt;Node27</title>
<path fill="none" stroke="#191970" d="M1014.9375,-285.4196C1133.7539,-277.7677 1377.4467,-261.4911 1583.5,-244 1592.808,-243.2099 1602.588,-242.3233 1612.2551,-241.413"/>
<polygon fill="#191970" stroke="#191970" points="1014.6257,-281.9323 1004.8708,-286.0665 1015.0747,-288.9179 1014.6257,-281.9323"/>
</g>
<!-- Node29 -->
<g id="node28" class="node">
<title>Node29</title>
<g id="a_node28"><a xlink:href="_widget_8cpp.html" target="_top" xlink:title="src/Interface/Widget.cpp">
<polygon fill="#ffffff" stroke="#000000" points="1776.5,-224.5 1776.5,-243.5 1900.5,-243.5 1900.5,-224.5 1776.5,-224.5"/>
<text text-anchor="middle" x="1838.5" y="-231.5" font-family="Helvetica,sans-Serif" font-size="10.00" fill="#000000">src/Interface/Widget.cpp</text>
</a>
</g>
</g>
<!-- Node3&#45;&gt;Node29 -->
<g id="edge39" class="edge">
<title>Node3&#45;&gt;Node29</title>
<path fill="none" stroke="#191970" d="M1014.7487,-288.0177C1158.4174,-283.6238 1490.0544,-271.2245 1767.5,-244 1770.3494,-243.7204 1773.2598,-243.4103 1776.1974,-243.0775"/>
<polygon fill="#191970" stroke="#191970" points="1014.6224,-284.5198 1004.7327,-288.3203 1014.8339,-291.5166 1014.6224,-284.5198"/>
</g>
<!-- Node5 -->
<g id="node4" class="node">
<title>Node5</title>
<g id="a_node4"><a xlink:href="_application_8hpp.html" target="_top" xlink:title="src/Application.hpp">
<polygon fill="#ffffff" stroke="#000000" points="177.5,-56.5 177.5,-75.5 277.5,-75.5 277.5,-56.5 177.5,-56.5"/>
<text text-anchor="middle" x="227.5" y="-63.5" font-family="Helvetica,sans-Serif" font-size="10.00" fill="#000000">src/Application.hpp</text>
</a>
</g>
</g>
<!-- Node4&#45;&gt;Node5 -->
<g id="edge3" class="edge">
<title>Node4&#45;&gt;Node5</title>
<path fill="none" stroke="#191970" d="M130.9348,-108.2473C154.1809,-98.0771 185.2411,-84.4883 205.7831,-75.5011"/>
<polygon fill="#191970" stroke="#191970" points="129.2627,-105.1585 121.504,-112.3733 132.0685,-111.5716 129.2627,-105.1585"/>
</g>
<!-- Node8 -->
<g id="node7" class="node">
<title>Node8</title>
<g id="a_node7"><a xlink:href="_window_widget_8cpp.html" target="_top" xlink:title="src/Interface/WindowWidget.cpp">
<polygon fill="#ffffff" stroke="#000000" points="0,-56.5 0,-75.5 159,-75.5 159,-56.5 0,-56.5"/>
<text text-anchor="middle" x="79.5" y="-63.5" font-family="Helvetica,sans-Serif" font-size="10.00" fill="#000000">src/Interface/WindowWidget.cpp</text>
</a>
</g>
</g>
<!-- Node4&#45;&gt;Node8 -->
<g id="edge6" class="edge">
<title>Node4&#45;&gt;Node8</title>
<path fill="none" stroke="#191970" d="M92.6247,-102.7493C89.3594,-93.6064 85.5999,-83.0798 82.9438,-75.6427"/>
<polygon fill="#191970" stroke="#191970" points="89.3567,-104.0053 96.0163,-112.2455 95.9489,-101.6509 89.3567,-104.0053"/>
</g>
<!-- Node6 -->
<g id="node5" class="node">
<title>Node6</title>
<g id="a_node5"><a xlink:href="_application_8cpp.html" target="_top" xlink:title="src/Application.cpp">
<polygon fill="#ffffff" stroke="#000000" points="740.5,-.5 740.5,-19.5 840.5,-19.5 840.5,-.5 740.5,-.5"/>
<text text-anchor="middle" x="790.5" y="-7.5" font-family="Helvetica,sans-Serif" font-size="10.00" fill="#000000">src/Application.cpp</text>
</a>
</g>
</g>
<!-- Node5&#45;&gt;Node6 -->
<g id="edge4" class="edge">
<title>Node5&#45;&gt;Node6</title>
<path fill="none" stroke="#191970" d="M288.0587,-59.9764C399.8982,-48.852 636.8519,-25.2829 740.3573,-14.9876"/>
<polygon fill="#191970" stroke="#191970" points="287.5624,-56.5084 277.958,-60.9811 288.2553,-63.474 287.5624,-56.5084"/>
</g>
<!-- Node7 -->
<g id="node6" class="node">
<title>Node7</title>
<g id="a_node6"><a xlink:href="main_8cpp.html" target="_top" xlink:title="Contient la fonction main. ">
<polygon fill="#ffffff" stroke="#000000" points="191,-.5 191,-19.5 264,-19.5 264,-.5 191,-.5"/>
<text text-anchor="middle" x="227.5" y="-7.5" font-family="Helvetica,sans-Serif" font-size="10.00" fill="#000000">src/main.cpp</text>
</a>
</g>
</g>
<!-- Node5&#45;&gt;Node7 -->
<g id="edge5" class="edge">
<title>Node5&#45;&gt;Node7</title>
<path fill="none" stroke="#191970" d="M227.5,-46.1575C227.5,-37.155 227.5,-26.9199 227.5,-19.6427"/>
<polygon fill="#191970" stroke="#191970" points="224.0001,-46.2455 227.5,-56.2455 231.0001,-46.2456 224.0001,-46.2455"/>
</g>
<!-- Node9&#45;&gt;Node4 -->
<g id="edge8" class="edge">
<title>Node9&#45;&gt;Node4</title>
<path fill="none" stroke="#191970" d="M178.9801,-163.5971C159.7983,-153.558 134.7322,-140.4393 117.9244,-131.6427"/>
<polygon fill="#191970" stroke="#191970" points="177.3791,-166.7095 187.862,-168.2455 180.625,-160.5075 177.3791,-166.7095"/>
</g>
<!-- Node9&#45;&gt;Node5 -->
<g id="edge9" class="edge">
<title>Node9&#45;&gt;Node5</title>
<path fill="none" stroke="#191970" d="M210.1377,-158.5987C214.6819,-134.363 222.2772,-93.8551 225.7141,-75.5249"/>
<polygon fill="#191970" stroke="#191970" points="206.6934,-157.9772 208.2904,-168.4509 213.5735,-159.2673 206.6934,-157.9772"/>
</g>
<!-- Node9&#45;&gt;Node10 -->
<g id="edge10" class="edge">
<title>Node9&#45;&gt;Node10</title>
<path fill="none" stroke="#191970" d="M262.1483,-166.372C311.5441,-156.0505 382.8359,-141.1537 428.9224,-131.5237"/>
<polygon fill="#191970" stroke="#191970" points="261.339,-162.9654 252.2663,-168.4369 262.7708,-169.8174 261.339,-162.9654"/>
</g>
<!-- Node12 -->
<g id="node11" class="node">
<title>Node12</title>
<g id="a_node11"><a xlink:href="_list_widget_8cpp.html" target="_top" xlink:title="src/Interface/ListWidget.cpp">
<polygon fill="#ffffff" stroke="#000000" points="234.5,-112.5 234.5,-131.5 374.5,-131.5 374.5,-112.5 234.5,-112.5"/>
<text text-anchor="middle" x="304.5" y="-119.5" font-family="Helvetica,sans-Serif" font-size="10.00" fill="#000000">src/Interface/ListWidget.cpp</text>
</a>
</g>
</g>
<!-- Node9&#45;&gt;Node12 -->
<g id="edge13" class="edge">
<title>Node9&#45;&gt;Node12</title>
<path fill="none" stroke="#191970" d="M232.6686,-163.0465C250.1058,-153.0824 272.5111,-140.2794 287.6253,-131.6427"/>
<polygon fill="#191970" stroke="#191970" points="230.5162,-160.2453 223.5703,-168.2455 233.9892,-166.323 230.5162,-160.2453"/>
</g>
<!-- Node10&#45;&gt;Node6 -->
<g id="edge11" class="edge">
<title>Node10&#45;&gt;Node6</title>
<path fill="none" stroke="#191970" d="M431.4427,-108.9715C399.2154,-97.0772 363.822,-78.0273 383.5,-56 406.8912,-29.8162 636.4321,-16.6545 740.118,-12.0065"/>
<polygon fill="#191970" stroke="#191970" points="430.6834,-112.4145 441.2782,-112.4285 433.0046,-105.8105 430.6834,-112.4145"/>
</g>
<!-- Node11 -->
<g id="node10" class="node">
<title>Node11</title>
<g id="a_node10"><a xlink:href="_menu_bar_widget_8cpp.html" target="_top" xlink:title="src/Interface/MenuBarWidget.cpp">
<polygon fill="#ffffff" stroke="#000000" points="393,-56.5 393,-75.5 556,-75.5 556,-56.5 393,-56.5"/>
<text text-anchor="middle" x="474.5" y="-63.5" font-family="Helvetica,sans-Serif" font-size="10.00" fill="#000000">src/Interface/MenuBarWidget.cpp</text>
</a>
</g>
</g>
<!-- Node10&#45;&gt;Node11 -->
<g id="edge12" class="edge">
<title>Node10&#45;&gt;Node11</title>
<path fill="none" stroke="#191970" d="M474.5,-102.1575C474.5,-93.155 474.5,-82.9199 474.5,-75.6427"/>
<polygon fill="#191970" stroke="#191970" points="471.0001,-102.2455 474.5,-112.2455 478.0001,-102.2456 471.0001,-102.2455"/>
</g>
<!-- Node13&#45;&gt;Node9 -->
<g id="edge15" class="edge">
<title>Node13&#45;&gt;Node9</title>
<path fill="none" stroke="#191970" d="M332.5956,-221.057C302.5816,-210.8084 261.3493,-196.729 234.3247,-187.5011"/>
<polygon fill="#191970" stroke="#191970" points="331.7129,-224.454 342.3074,-224.3733 333.9749,-217.8295 331.7129,-224.454"/>
</g>
<!-- Node14 -->
<g id="node13" class="node">
<title>Node14</title>
<g id="a_node13"><a xlink:href="_button_widget_8cpp.html" target="_top" xlink:title="src/Interface/ButtonWidget.cpp">
<polygon fill="#ffffff" stroke="#000000" points="294.5,-168.5 294.5,-187.5 446.5,-187.5 446.5,-168.5 294.5,-168.5"/>
<text text-anchor="middle" x="370.5" y="-175.5" font-family="Helvetica,sans-Serif" font-size="10.00" fill="#000000">src/Interface/ButtonWidget.cpp</text>
</a>
</g>
</g>
<!-- Node13&#45;&gt;Node14 -->
<g id="edge16" class="edge">
<title>Node13&#45;&gt;Node14</title>
<path fill="none" stroke="#191970" d="M370.5,-214.1575C370.5,-205.155 370.5,-194.9199 370.5,-187.6427"/>
<polygon fill="#191970" stroke="#191970" points="367.0001,-214.2455 370.5,-224.2455 374.0001,-214.2456 367.0001,-214.2455"/>
</g>
<!-- Node15&#45;&gt;Node6 -->
<g id="edge19" class="edge">
<title>Node15&#45;&gt;Node6</title>
<path fill="none" stroke="#191970" d="M577.0369,-221.2028C547.2745,-210.3836 516.6182,-192.6799 530.5,-168 557.4305,-120.1214 712.2396,-45.7408 769.3462,-19.5314"/>
<polygon fill="#191970" stroke="#191970" points="576.0164,-224.5527 586.611,-224.4738 578.2796,-217.9287 576.0164,-224.5527"/>
</g>
<!-- Node16 -->
<g id="node15" class="node">
<title>Node16</title>
<g id="a_node15"><a xlink:href="_tag_setter_widget_8cpp.html" target="_top" xlink:title="src/Interface/TagSetterWidget.cpp">
<polygon fill="#ffffff" stroke="#000000" points="540,-168.5 540,-187.5 707,-187.5 707,-168.5 540,-168.5"/>
<text text-anchor="middle" x="623.5" y="-175.5" font-family="Helvetica,sans-Serif" font-size="10.00" fill="#000000">src/Interface/TagSetterWidget.cpp</text>
</a>
</g>
</g>
<!-- Node15&#45;&gt;Node16 -->
<g id="edge20" class="edge">
<title>Node15&#45;&gt;Node16</title>
<path fill="none" stroke="#191970" d="M623.5,-214.1575C623.5,-205.155 623.5,-194.9199 623.5,-187.6427"/>
<polygon fill="#191970" stroke="#191970" points="620.0001,-214.2455 623.5,-224.2455 627.0001,-214.2456 620.0001,-214.2455"/>
</g>
<!-- Node17&#45;&gt;Node6 -->
<g id="edge22" class="edge">
<title>Node17&#45;&gt;Node6</title>
<path fill="none" stroke="#191970" d="M790.6516,-220.0943C776.3355,-212.8605 761.638,-202.4382 753.5,-188 720.9538,-130.2576 766.7015,-47.4704 784.1929,-19.5831"/>
<polygon fill="#191970" stroke="#191970" points="789.387,-223.3658 799.9315,-224.3976 792.3319,-217.0154 789.387,-223.3658"/>
</g>
<!-- Node18 -->
<g id="node17" class="node">
<title>Node18</title>
<g id="a_node17"><a xlink:href="_tag_viewer_widget_8cpp.html" target="_top" xlink:title="src/Interface/TagViewerWidget.cpp">
<polygon fill="#ffffff" stroke="#000000" points="762.5,-168.5 762.5,-187.5 932.5,-187.5 932.5,-168.5 762.5,-168.5"/>
<text text-anchor="middle" x="847.5" y="-175.5" font-family="Helvetica,sans-Serif" font-size="10.00" fill="#000000">src/Interface/TagViewerWidget.cpp</text>
</a>
</g>
</g>
<!-- Node17&#45;&gt;Node18 -->
<g id="edge23" class="edge">
<title>Node17&#45;&gt;Node18</title>
<path fill="none" stroke="#191970" d="M835.7827,-214.4538C838.6992,-205.3803 842.0358,-194.9998 844.4006,-187.6427"/>
<polygon fill="#191970" stroke="#191970" points="832.3634,-213.6542 832.6354,-224.2455 839.0276,-215.7963 832.3634,-213.6542"/>
</g>
<!-- Node19&#45;&gt;Node6 -->
<g id="edge25" class="edge">
<title>Node19&#45;&gt;Node6</title>
<path fill="none" stroke="#191970" d="M993.7072,-163.4309C978.0122,-154.858 958.2458,-143.4736 941.5,-132 886.173,-94.0918 825.6184,-41.3989 801.3956,-19.8134"/>
<polygon fill="#191970" stroke="#191970" points="992.4267,-166.7168 1002.89,-168.3811 995.7484,-160.5551 992.4267,-166.7168"/>
</g>
<!-- Node20 -->
<g id="node19" class="node">
<title>Node20</title>
<g id="a_node19"><a xlink:href="_grid_widget_8cpp.html" target="_top" xlink:title="src/Interface/GridWidget.cpp">
<polygon fill="#ffffff" stroke="#000000" points="950.5,-112.5 950.5,-131.5 1092.5,-131.5 1092.5,-112.5 950.5,-112.5"/>
<text text-anchor="middle" x="1021.5" y="-119.5" font-family="Helvetica,sans-Serif" font-size="10.00" fill="#000000">src/Interface/GridWidget.cpp</text>
</a>
</g>
</g>
<!-- Node19&#45;&gt;Node20 -->
<g id="edge26" class="edge">
<title>Node19&#45;&gt;Node20</title>
<path fill="none" stroke="#191970" d="M1021.5,-158.1575C1021.5,-149.155 1021.5,-138.9199 1021.5,-131.6427"/>
<polygon fill="#191970" stroke="#191970" points="1018.0001,-158.2455 1021.5,-168.2455 1025.0001,-158.2456 1018.0001,-158.2455"/>
</g>
<!-- Node21&#45;&gt;Node19 -->
<g id="edge28" class="edge">
<title>Node21&#45;&gt;Node19</title>
<path fill="none" stroke="#191970" d="M1038.0374,-215.0437C1033.9255,-205.8331 1029.1606,-195.1598 1025.8048,-187.6427"/>
<polygon fill="#191970" stroke="#191970" points="1034.8728,-216.541 1042.1453,-224.2455 1041.2648,-213.6874 1034.8728,-216.541"/>
</g>
<!-- Node22 -->
<g id="node21" class="node">
<title>Node22</title>
<g id="a_node21"><a xlink:href="_image_widget_8cpp.html" target="_top" xlink:title="src/Interface/ImageWidget.cpp">
<polygon fill="#ffffff" stroke="#000000" points="1111,-168.5 1111,-187.5 1262,-187.5 1262,-168.5 1111,-168.5"/>
<text text-anchor="middle" x="1186.5" y="-175.5" font-family="Helvetica,sans-Serif" font-size="10.00" fill="#000000">src/Interface/ImageWidget.cpp</text>
</a>
</g>
</g>
<!-- Node21&#45;&gt;Node22 -->
<g id="edge29" class="edge">
<title>Node21&#45;&gt;Node22</title>
<path fill="none" stroke="#191970" d="M1079.8649,-220.6541C1105.3952,-210.4419 1139.9784,-196.6086 1162.7472,-187.5011"/>
<polygon fill="#191970" stroke="#191970" points="1078.5517,-217.4096 1070.5669,-224.3733 1081.1515,-223.909 1078.5517,-217.4096"/>
</g>
<!-- Node23&#45;&gt;Node6 -->
<g id="edge31" class="edge">
<title>Node23&#45;&gt;Node6</title>
<path fill="none" stroke="#191970" d="M1289.2524,-214.0744C1287.3194,-199.5355 1282.4863,-180.2988 1270.5,-168 1208.5789,-104.4641 944.9003,-42.7024 836.9057,-19.5681"/>
<polygon fill="#191970" stroke="#191970" points="1285.7747,-214.474 1290.2356,-224.0839 1292.7411,-213.7896 1285.7747,-214.474"/>
</g>
<!-- Node24 -->
<g id="node23" class="node">
<title>Node24</title>
<g id="a_node23"><a xlink:href="_layout_widget_8cpp.html" target="_top" xlink:title="src/Interface/LayoutWidget.cpp">
<polygon fill="#ffffff" stroke="#000000" points="1319,-168.5 1319,-187.5 1472,-187.5 1472,-168.5 1319,-168.5"/>
<text text-anchor="middle" x="1395.5" y="-175.5" font-family="Helvetica,sans-Serif" font-size="10.00" fill="#000000">src/Interface/LayoutWidget.cpp</text>
</a>
</g>
</g>
<!-- Node23&#45;&gt;Node24 -->
<g id="edge32" class="edge">
<title>Node23&#45;&gt;Node24</title>
<path fill="none" stroke="#191970" d="M1317.7625,-219.46C1336.5522,-209.4388 1361.0013,-196.3993 1377.42,-187.6427"/>
<polygon fill="#191970" stroke="#191970" points="1315.9661,-216.4514 1308.7896,-224.2455 1319.2602,-222.6278 1315.9661,-216.4514"/>
</g>
<!-- Node25&#45;&gt;Node6 -->
<g id="edge34" class="edge">
<title>Node25&#45;&gt;Node6</title>
<path fill="none" stroke="#191970" d="M1499.5574,-214.3133C1497.7977,-199.5886 1493.0483,-180.0027 1480.5,-168 1334.9882,-28.8149 1238.2021,-99.0633 1041.5,-56 972.2565,-40.8408 891.5205,-26.6618 840.7059,-18.1594"/>
<polygon fill="#191970" stroke="#191970" points="1496.0812,-214.745 1500.4,-224.4196 1503.057,-214.1633 1496.0812,-214.745"/>
</g>
<!-- Node26 -->
<g id="node25" class="node">
<title>Node26</title>
<g id="a_node25"><a xlink:href="_scroll_widget_8cpp.html" target="_top" xlink:title="src/Interface/ScrollWidget.cpp">
<polygon fill="#ffffff" stroke="#000000" points="1528,-168.5 1528,-187.5 1677,-187.5 1677,-168.5 1528,-168.5"/>
<text text-anchor="middle" x="1602.5" y="-175.5" font-family="Helvetica,sans-Serif" font-size="10.00" fill="#000000">src/Interface/ScrollWidget.cpp</text>
</a>
</g>
</g>
<!-- Node25&#45;&gt;Node26 -->
<g id="edge35" class="edge">
<title>Node25&#45;&gt;Node26</title>
<path fill="none" stroke="#191970" d="M1527.234,-219.3225C1545.4532,-209.3198 1569.0598,-196.3593 1584.9366,-187.6427"/>
<polygon fill="#191970" stroke="#191970" points="1525.3484,-216.3649 1518.267,-224.2455 1528.7173,-222.5009 1525.3484,-216.3649"/>
</g>
<!-- Node27&#45;&gt;Node6 -->
<g id="edge37" class="edge">
<title>Node27&#45;&gt;Node6</title>
<path fill="none" stroke="#191970" d="M1691.4553,-214.3845C1694.5295,-200.0057 1695.7678,-180.8335 1685.5,-168 1680.8282,-162.1609 1180.0179,-56.7529 1175.5,-56 1055.9801,-36.0816 914.197,-21.4317 840.547,-14.4889"/>
<polygon fill="#191970" stroke="#191970" points="1688.0164,-213.7039 1688.9069,-224.2613 1694.7944,-215.4529 1688.0164,-213.7039"/>
</g>
<!-- Node28 -->
<g id="node27" class="node">
<title>Node28</title>
<g id="a_node27"><a xlink:href="_tag_selector_8cpp.html" target="_top" xlink:title="src/Interface/TagSelector.cpp">
<polygon fill="#ffffff" stroke="#000000" points="1732.5,-168.5 1732.5,-187.5 1878.5,-187.5 1878.5,-168.5 1732.5,-168.5"/>
<text text-anchor="middle" x="1805.5" y="-175.5" font-family="Helvetica,sans-Serif" font-size="10.00" fill="#000000">src/Interface/TagSelector.cpp</text>
</a>
</g>
</g>
<!-- Node27&#45;&gt;Node28 -->
<g id="edge38" class="edge">
<title>Node27&#45;&gt;Node28</title>
<path fill="none" stroke="#191970" d="M1715.2624,-220.1109C1737.0232,-209.9559 1765.9682,-196.4482 1785.1405,-187.5011"/>
<polygon fill="#191970" stroke="#191970" points="1713.7105,-216.9727 1706.1287,-224.3733 1716.6707,-223.316 1713.7105,-216.9727"/>
</g>
</g>
</svg>
