<?xml version="1.0" encoding="UTF-8" standalone="no"?>
<!DOCTYPE svg PUBLIC "-//W3C//DTD SVG 1.1//EN"
 "http://www.w3.org/Graphics/SVG/1.1/DTD/svg11.dtd">
<!-- Generated by graphviz version 2.40.1 (20161225.0304)
 -->
<!-- Title: src/FileDialog/FileDialogWindows.cpp Pages: 1 -->
<svg width="282pt" height="151pt"
 viewBox="0.00 0.00 281.50 151.00" xmlns="http://www.w3.org/2000/svg" xmlns:xlink="http://www.w3.org/1999/xlink">
<g id="graph0" class="graph" transform="scale(1 1) rotate(0) translate(4 147)">
<title>src/FileDialog/FileDialogWindows.cpp</title>
<polygon fill="#ffffff" stroke="transparent" points="-4,4 -4,-147 277.5,-147 277.5,4 -4,4"/>
<!-- Node0 -->
<g id="node1" class="node">
<title>Node0</title>
<polygon fill="#bfbfbf" stroke="#000000" points="102.5,-112.5 102.5,-142.5 225.5,-142.5 225.5,-112.5 102.5,-112.5"/>
<text text-anchor="start" x="110.5" y="-130.5" font-family="Helvetica,sans-Serif" font-size="10.00" fill="#000000">src/FileDialog/FileDialog</text>
<text text-anchor="middle" x="164" y="-119.5" font-family="Helvetica,sans-Serif" font-size="10.00" fill="#000000">Windows.cpp</text>
</g>
<!-- Node1 -->
<g id="node2" class="node">
<title>Node1</title>
<g id="a_node2"><a xlink:href="_file_dialog_8hpp.html" target="_top" xlink:title="FileDialog.hpp">
<polygon fill="#ffffff" stroke="#000000" points="69.5,-56.5 69.5,-75.5 148.5,-75.5 148.5,-56.5 69.5,-56.5"/>
<text text-anchor="middle" x="109" y="-63.5" font-family="Helvetica,sans-Serif" font-size="10.00" fill="#000000">FileDialog.hpp</text>
</a>
</g>
</g>
<!-- Node0&#45;&gt;Node1 -->
<g id="edge1" class="edge">
<title>Node0&#45;&gt;Node1</title>
<path fill="none" stroke="#191970" d="M150.4045,-112.2977C142.6109,-103.5831 132.7953,-92.6075 124.6774,-83.5302"/>
<polygon fill="#191970" stroke="#191970" points="127.0813,-80.9678 117.8062,-75.8469 121.8635,-85.6341 127.0813,-80.9678"/>
</g>
<!-- Node4 -->
<g id="node5" class="node">
<title>Node4</title>
<g id="a_node5"><a xlink:href="system__target_8hpp.html" target="_top" xlink:title="../system_target.hpp">
<polygon fill="#ffffff" stroke="#000000" points="166.5,-56.5 166.5,-75.5 273.5,-75.5 273.5,-56.5 166.5,-56.5"/>
<text text-anchor="middle" x="220" y="-63.5" font-family="Helvetica,sans-Serif" font-size="10.00" fill="#000000">../system_target.hpp</text>
</a>
</g>
</g>
<!-- Node0&#45;&gt;Node4 -->
<g id="edge4" class="edge">
<title>Node0&#45;&gt;Node4</title>
<path fill="none" stroke="#191970" d="M177.8427,-112.2977C185.859,-103.4941 195.9762,-92.3833 204.29,-83.2529"/>
<polygon fill="#191970" stroke="#191970" points="206.8888,-85.5974 211.0337,-75.8469 201.7131,-80.8845 206.8888,-85.5974"/>
</g>
<!-- Node2 -->
<g id="node3" class="node">
<title>Node2</title>
<polygon fill="#ffffff" stroke="#bfbfbf" points="0,-.5 0,-19.5 120,-19.5 120,-.5 0,-.5"/>
<text text-anchor="middle" x="60" y="-7.5" font-family="Helvetica,sans-Serif" font-size="10.00" fill="#000000">experimental/filesystem</text>
</g>
<!-- Node1&#45;&gt;Node2 -->
<g id="edge2" class="edge">
<title>Node1&#45;&gt;Node2</title>
<path fill="none" stroke="#191970" d="M100.4649,-56.2455C93.5088,-48.2958 83.5117,-36.8706 75.1949,-27.3656"/>
<polygon fill="#191970" stroke="#191970" points="77.6564,-24.8637 68.4373,-19.6427 72.3884,-29.4732 77.6564,-24.8637"/>
</g>
<!-- Node3 -->
<g id="node4" class="node">
<title>Node3</title>
<polygon fill="#ffffff" stroke="#bfbfbf" points="138.5,-.5 138.5,-19.5 179.5,-19.5 179.5,-.5 138.5,-.5"/>
<text text-anchor="middle" x="159" y="-7.5" font-family="Helvetica,sans-Serif" font-size="10.00" fill="#000000">string</text>
</g>
<!-- Node1&#45;&gt;Node3 -->
<g id="edge3" class="edge">
<title>Node1&#45;&gt;Node3</title>
<path fill="none" stroke="#191970" d="M117.7093,-56.2455C124.8073,-48.2958 135.0084,-36.8706 143.495,-27.3656"/>
<polygon fill="#191970" stroke="#191970" points="146.3411,-29.4331 150.3905,-19.6427 141.1195,-24.771 146.3411,-29.4331"/>
</g>
</g>
</svg>
