<?xml version="1.0" encoding="UTF-8" standalone="no"?>
<!DOCTYPE svg PUBLIC "-//W3C//DTD SVG 1.1//EN"
 "http://www.w3.org/Graphics/SVG/1.1/DTD/svg11.dtd">
<!-- Generated by graphviz version 2.40.1 (20161225.0304)
 -->
<!-- Title: src/Collection/FilteredCollection.hpp Pages: 1 -->
<svg width="242pt" height="196pt"
 viewBox="0.00 0.00 242.00 196.00" xmlns="http://www.w3.org/2000/svg" xmlns:xlink="http://www.w3.org/1999/xlink">
<g id="graph0" class="graph" transform="scale(1 1) rotate(0) translate(4 192)">
<title>src/Collection/FilteredCollection.hpp</title>
<polygon fill="#ffffff" stroke="transparent" points="-4,4 -4,-192 238,-192 238,4 -4,4"/>
<!-- Node0 -->
<g id="node1" class="node">
<title>Node0</title>
<polygon fill="#bfbfbf" stroke="#000000" points="60,-168.5 60,-187.5 234,-187.5 234,-168.5 60,-168.5"/>
<text text-anchor="middle" x="147" y="-175.5" font-family="Helvetica,sans-Serif" font-size="10.00" fill="#000000">src/Collection/FilteredCollection.hpp</text>
</g>
<!-- Node1 -->
<g id="node2" class="node">
<title>Node1</title>
<g id="a_node2"><a xlink:href="_collection_8hpp.html" target="_top" xlink:title="Collection.hpp">
<polygon fill="#ffffff" stroke="#000000" points="64.5,-112.5 64.5,-131.5 143.5,-131.5 143.5,-112.5 64.5,-112.5"/>
<text text-anchor="middle" x="104" y="-119.5" font-family="Helvetica,sans-Serif" font-size="10.00" fill="#000000">Collection.hpp</text>
</a>
</g>
</g>
<!-- Node0&#45;&gt;Node1 -->
<g id="edge1" class="edge">
<title>Node0&#45;&gt;Node1</title>
<path fill="none" stroke="#191970" d="M139.51,-168.2455C133.4674,-160.3761 124.8097,-149.101 117.5559,-139.6542"/>
<polygon fill="#191970" stroke="#191970" points="120.2705,-137.4426 111.4042,-131.6427 114.7185,-141.7058 120.2705,-137.4426"/>
</g>
<!-- Node6 -->
<g id="node7" class="node">
<title>Node6</title>
<polygon fill="#ffffff" stroke="#bfbfbf" points="161.5,-112.5 161.5,-131.5 220.5,-131.5 220.5,-112.5 161.5,-112.5"/>
<text text-anchor="middle" x="191" y="-119.5" font-family="Helvetica,sans-Serif" font-size="10.00" fill="#000000">functional</text>
</g>
<!-- Node0&#45;&gt;Node6 -->
<g id="edge6" class="edge">
<title>Node0&#45;&gt;Node6</title>
<path fill="none" stroke="#191970" d="M154.6642,-168.2455C160.8473,-160.3761 169.7063,-149.101 177.1289,-139.6542"/>
<polygon fill="#191970" stroke="#191970" points="179.9975,-141.6683 183.4236,-131.6427 174.4932,-137.3435 179.9975,-141.6683"/>
</g>
<!-- Node2 -->
<g id="node3" class="node">
<title>Node2</title>
<g id="a_node3"><a xlink:href="_collection_iterator_8hpp.html" target="_top" xlink:title="CollectionIterator.hpp">
<polygon fill="#ffffff" stroke="#000000" points="49,-56.5 49,-75.5 159,-75.5 159,-56.5 49,-56.5"/>
<text text-anchor="middle" x="104" y="-63.5" font-family="Helvetica,sans-Serif" font-size="10.00" fill="#000000">CollectionIterator.hpp</text>
</a>
</g>
</g>
<!-- Node1&#45;&gt;Node2 -->
<g id="edge2" class="edge">
<title>Node1&#45;&gt;Node2</title>
<path fill="none" stroke="#191970" d="M104,-112.2455C104,-104.9382 104,-94.6944 104,-85.7046"/>
<polygon fill="#191970" stroke="#191970" points="107.5001,-85.6426 104,-75.6427 100.5001,-85.6427 107.5001,-85.6426"/>
</g>
<!-- Node3 -->
<g id="node4" class="node">
<title>Node3</title>
<polygon fill="#ffffff" stroke="#bfbfbf" points="0,-.5 0,-19.5 62,-19.5 62,-.5 0,-.5"/>
<text text-anchor="middle" x="31" y="-7.5" font-family="Helvetica,sans-Serif" font-size="10.00" fill="#000000">type_traits</text>
</g>
<!-- Node2&#45;&gt;Node3 -->
<g id="edge3" class="edge">
<title>Node2&#45;&gt;Node3</title>
<path fill="none" stroke="#191970" d="M91.2844,-56.2455C80.398,-47.8943 64.5117,-35.7076 51.78,-25.9408"/>
<polygon fill="#191970" stroke="#191970" points="53.6346,-22.9523 43.5699,-19.6427 49.3739,-28.5063 53.6346,-22.9523"/>
</g>
<!-- Node4 -->
<g id="node5" class="node">
<title>Node4</title>
<polygon fill="#ffffff" stroke="#bfbfbf" points="80.5,-.5 80.5,-19.5 127.5,-19.5 127.5,-.5 80.5,-.5"/>
<text text-anchor="middle" x="104" y="-7.5" font-family="Helvetica,sans-Serif" font-size="10.00" fill="#000000">iterator</text>
</g>
<!-- Node2&#45;&gt;Node4 -->
<g id="edge4" class="edge">
<title>Node2&#45;&gt;Node4</title>
<path fill="none" stroke="#191970" d="M104,-56.2455C104,-48.9382 104,-38.6944 104,-29.7046"/>
<polygon fill="#191970" stroke="#191970" points="107.5001,-29.6426 104,-19.6427 100.5001,-29.6427 107.5001,-29.6426"/>
</g>
<!-- Node5 -->
<g id="node6" class="node">
<title>Node5</title>
<polygon fill="#ffffff" stroke="#bfbfbf" points="146,-.5 146,-19.5 198,-19.5 198,-.5 146,-.5"/>
<text text-anchor="middle" x="172" y="-7.5" font-family="Helvetica,sans-Serif" font-size="10.00" fill="#000000">memory</text>
</g>
<!-- Node2&#45;&gt;Node5 -->
<g id="edge5" class="edge">
<title>Node2&#45;&gt;Node5</title>
<path fill="none" stroke="#191970" d="M115.8447,-56.2455C125.888,-47.9746 140.4995,-35.9416 152.3004,-26.2232"/>
<polygon fill="#191970" stroke="#191970" points="154.7967,-28.7015 160.291,-19.6427 150.3467,-23.298 154.7967,-28.7015"/>
</g>
</g>
</svg>
