<?xml version="1.0" encoding="UTF-8" standalone="no"?>
<!DOCTYPE svg PUBLIC "-//W3C//DTD SVG 1.1//EN"
 "http://www.w3.org/Graphics/SVG/1.1/DTD/svg11.dtd">
<!-- Generated by graphviz version 2.40.1 (20161225.0304)
 -->
<!-- Title: src/Collection/FilteredCollection.hpp Pages: 1 -->
<svg width="210pt" height="95pt"
 viewBox="0.00 0.00 210.00 95.00" xmlns="http://www.w3.org/2000/svg" xmlns:xlink="http://www.w3.org/1999/xlink">
<g id="graph0" class="graph" transform="scale(1 1) rotate(0) translate(4 91)">
<title>src/Collection/FilteredCollection.hpp</title>
<polygon fill="#ffffff" stroke="transparent" points="-4,4 -4,-91 206,-91 206,4 -4,4"/>
<!-- Node8 -->
<g id="node1" class="node">
<title>Node8</title>
<polygon fill="#bfbfbf" stroke="#000000" points="23.5,-67.5 23.5,-86.5 197.5,-86.5 197.5,-67.5 23.5,-67.5"/>
<text text-anchor="middle" x="110.5" y="-74.5" font-family="Helvetica,sans-Serif" font-size="10.00" fill="#000000">src/Collection/FilteredCollection.hpp</text>
</g>
<!-- Node9 -->
<g id="node2" class="node">
<title>Node9</title>
<g id="a_node2"><a xlink:href="save_8cpp.html" target="_top" target="_top" xlink:title="src/ConsolePrototype\l/save.cpp">
<polygon fill="#ffffff" stroke="#000000" points="0,-.5 0,-30.5 111,-30.5 111,-.5 0,-.5"/>
<text text-anchor="start" x="8" y="-18.5" font-family="Helvetica,sans-Serif" font-size="10.00" fill="#000000">src/ConsolePrototype</text>
<text text-anchor="middle" x="55.5" y="-7.5" font-family="Helvetica,sans-Serif" font-size="10.00" fill="#000000">/save.cpp</text>
</a>
</g>
</g>
<!-- Node8&#45;&gt;Node9 -->
<g id="edge1" class="edge">
<title>Node8&#45;&gt;Node9</title>
<path fill="none" stroke="#191970" d="M95.2354,-59.9314C86.9905,-50.7122 76.9027,-39.4321 68.9545,-30.5446"/>
<polygon fill="#191970" stroke="#191970" points="92.6311,-62.2698 101.9063,-67.3906 97.8489,-57.6034 92.6311,-62.2698"/>
</g>
<!-- Node10 -->
<g id="node3" class="node">
<title>Node10</title>
<g id="a_node3"><a xlink:href="main_8cpp.html" target="_top" target="_top" xlink:title="src/main.cpp">
<polygon fill="#ffffff" stroke="#000000" points="129,-6 129,-25 202,-25 202,-6 129,-6"/>
<text text-anchor="middle" x="165.5" y="-13" font-family="Helvetica,sans-Serif" font-size="10.00" fill="#000000">src/main.cpp</text>
</a>
</g>
</g>
<!-- Node8&#45;&gt;Node10 -->
<g id="edge2" class="edge">
<title>Node8&#45;&gt;Node10</title>
<path fill="none" stroke="#191970" d="M125.792,-59.9007C135.785,-48.7268 148.4763,-34.5356 156.7851,-25.2449"/>
<polygon fill="#191970" stroke="#191970" points="123.1511,-57.6034 119.0938,-67.3906 128.3689,-62.2698 123.1511,-57.6034"/>
</g>
</g>
</svg>
