<?xml version="1.0" encoding="UTF-8" standalone="no"?>
<!DOCTYPE svg PUBLIC "-//W3C//DTD SVG 1.1//EN"
 "http://www.w3.org/Graphics/SVG/1.1/DTD/svg11.dtd">
<!-- Generated by graphviz version 2.40.1 (20161225.0304)
 -->
<!-- Title: src/Specifique/FileDialog.hpp Pages: 1 -->
<svg width="252pt" height="95pt"
 viewBox="0.00 0.00 251.50 95.00" xmlns="http://www.w3.org/2000/svg" xmlns:xlink="http://www.w3.org/1999/xlink">
<g id="graph0" class="graph" transform="scale(1 1) rotate(0) translate(4 91)">
<title>src/Specifique/FileDialog.hpp</title>
<polygon fill="#ffffff" stroke="transparent" points="-4,4 -4,-91 247.5,-91 247.5,4 -4,4"/>
<!-- Node3 -->
<g id="node1" class="node">
<title>Node3</title>
<polygon fill="#bfbfbf" stroke="#000000" points="43,-67.5 43,-86.5 187,-86.5 187,-67.5 43,-67.5"/>
<text text-anchor="middle" x="115" y="-74.5" font-family="Helvetica,sans-Serif" font-size="10.00" fill="#000000">src/Specifique/FileDialog.hpp</text>
</g>
<!-- Node4 -->
<g id="node2" class="node">
<title>Node4</title>
<g id="a_node2"><a xlink:href="_application_8cpp.html" target="_top" xlink:title="src/Application.cpp">
<polygon fill="#ffffff" stroke="#000000" points="0,-6 0,-25 100,-25 100,-6 0,-6"/>
<text text-anchor="middle" x="50" y="-13" font-family="Helvetica,sans-Serif" font-size="10.00" fill="#000000">src/Application.cpp</text>
</a>
</g>
</g>
<!-- Node3&#45;&gt;Node4 -->
<g id="edge1" class="edge">
<title>Node3&#45;&gt;Node4</title>
<path fill="none" stroke="#191970" d="M97.2707,-60.2253C85.4095,-49.0028 70.2143,-34.6258 60.2994,-25.2449"/>
<polygon fill="#191970" stroke="#191970" points="95.1743,-63.0602 104.8438,-67.3906 99.9853,-57.9754 95.1743,-63.0602"/>
</g>
<!-- Node5 -->
<g id="node3" class="node">
<title>Node5</title>
<g id="a_node3"><a xlink:href="_file_dialog_windows_8cpp.html" target="_top" xlink:title="src/Specifique/FileDialog\lWindows.cpp">
<polygon fill="#ffffff" stroke="#000000" points="118.5,-.5 118.5,-30.5 243.5,-30.5 243.5,-.5 118.5,-.5"/>
<text text-anchor="start" x="126.5" y="-18.5" font-family="Helvetica,sans-Serif" font-size="10.00" fill="#000000">src/Specifique/FileDialog</text>
<text text-anchor="middle" x="181" y="-7.5" font-family="Helvetica,sans-Serif" font-size="10.00" fill="#000000">Windows.cpp</text>
</a>
</g>
</g>
<!-- Node3&#45;&gt;Node5 -->
<g id="edge2" class="edge">
<title>Node3&#45;&gt;Node5</title>
<path fill="none" stroke="#191970" d="M132.7207,-60.4875C142.7212,-51.1689 155.1241,-39.6116 164.8546,-30.5446"/>
<polygon fill="#191970" stroke="#191970" points="130.2426,-58.0127 125.3125,-67.3906 135.0147,-63.134 130.2426,-58.0127"/>
</g>
</g>
</svg>
