<?xml version="1.0" encoding="UTF-8" standalone="no"?>
<!DOCTYPE svg PUBLIC "-//W3C//DTD SVG 1.1//EN"
 "http://www.w3.org/Graphics/SVG/1.1/DTD/svg11.dtd">
<!-- Generated by graphviz version 2.40.1 (20161225.0304)
 -->
<!-- Title: src/FileDialog.hpp Pages: 1 -->
<svg width="304pt" height="84pt"
 viewBox="0.00 0.00 303.50 84.00" xmlns="http://www.w3.org/2000/svg" xmlns:xlink="http://www.w3.org/1999/xlink">
<g id="graph0" class="graph" transform="scale(1 1) rotate(0) translate(4 80)">
<title>src/FileDialog.hpp</title>
<polygon fill="#ffffff" stroke="transparent" points="-4,4 -4,-80 299.5,-80 299.5,4 -4,4"/>
<!-- Node0 -->
<g id="node1" class="node">
<title>Node0</title>
<polygon fill="#bfbfbf" stroke="#000000" points="128.5,-56.5 128.5,-75.5 223.5,-75.5 223.5,-56.5 128.5,-56.5"/>
<text text-anchor="middle" x="176" y="-63.5" font-family="Helvetica,sans-Serif" font-size="10.00" fill="#000000">src/FileDialog.hpp</text>
</g>
<!-- Node1 -->
<g id="node2" class="node">
<title>Node1</title>
<g id="a_node2"><a xlink:href="system__target_8hpp.html" target="_top" xlink:title="system_target.hpp">
<polygon fill="#ffffff" stroke="#000000" points="0,-.5 0,-19.5 98,-19.5 98,-.5 0,-.5"/>
<text text-anchor="middle" x="49" y="-7.5" font-family="Helvetica,sans-Serif" font-size="10.00" fill="#000000">system_target.hpp</text>
</a>
</g>
</g>
<!-- Node0&#45;&gt;Node1 -->
<g id="edge1" class="edge">
<title>Node0&#45;&gt;Node1</title>
<path fill="none" stroke="#191970" d="M154.1679,-56.3733C133.6897,-47.3435 102.8601,-33.7494 79.8681,-23.6111"/>
<polygon fill="#191970" stroke="#191970" points="81.1093,-20.3333 70.5472,-19.5011 78.285,-26.7383 81.1093,-20.3333"/>
</g>
<!-- Node2 -->
<g id="node3" class="node">
<title>Node2</title>
<polygon fill="#ffffff" stroke="#bfbfbf" points="116,-.5 116,-19.5 236,-19.5 236,-.5 116,-.5"/>
<text text-anchor="middle" x="176" y="-7.5" font-family="Helvetica,sans-Serif" font-size="10.00" fill="#000000">experimental/filesystem</text>
</g>
<!-- Node0&#45;&gt;Node2 -->
<g id="edge2" class="edge">
<title>Node0&#45;&gt;Node2</title>
<path fill="none" stroke="#191970" d="M176,-56.2455C176,-48.9382 176,-38.6944 176,-29.7046"/>
<polygon fill="#191970" stroke="#191970" points="179.5001,-29.6426 176,-19.6427 172.5001,-29.6427 179.5001,-29.6426"/>
</g>
<!-- Node3 -->
<g id="node4" class="node">
<title>Node3</title>
<polygon fill="#ffffff" stroke="#bfbfbf" points="254.5,-.5 254.5,-19.5 295.5,-19.5 295.5,-.5 254.5,-.5"/>
<text text-anchor="middle" x="275" y="-7.5" font-family="Helvetica,sans-Serif" font-size="10.00" fill="#000000">string</text>
</g>
<!-- Node0&#45;&gt;Node3 -->
<g id="edge3" class="edge">
<title>Node0&#45;&gt;Node3</title>
<path fill="none" stroke="#191970" d="M193.2445,-56.2455C208.5761,-47.5731 231.2199,-34.7645 248.7916,-24.825"/>
<polygon fill="#191970" stroke="#191970" points="250.9724,-27.6126 257.9531,-19.6427 247.5259,-21.5198 250.9724,-27.6126"/>
</g>
</g>
</svg>
