<?xml version="1.0" encoding="UTF-8" standalone="no"?>
<!DOCTYPE svg PUBLIC "-//W3C//DTD SVG 1.1//EN"
 "http://www.w3.org/Graphics/SVG/1.1/DTD/svg11.dtd">
<!-- Generated by graphviz version 2.40.1 (20161225.0304)
 -->
<!-- Title: src/FileDialog/FileDialog.hpp Pages: 1 -->
<svg width="222pt" height="95pt"
 viewBox="0.00 0.00 222.00 95.00" xmlns="http://www.w3.org/2000/svg" xmlns:xlink="http://www.w3.org/1999/xlink">
<g id="graph0" class="graph" transform="scale(1 1) rotate(0) translate(4 91)">
<title>src/FileDialog/FileDialog.hpp</title>
<polygon fill="#ffffff" stroke="transparent" points="-4,4 -4,-91 218,-91 218,4 -4,4"/>
<!-- Node3 -->
<g id="node1" class="node">
<title>Node3</title>
<polygon fill="#bfbfbf" stroke="#000000" points="48.5,-67.5 48.5,-86.5 190.5,-86.5 190.5,-67.5 48.5,-67.5"/>
<text text-anchor="middle" x="119.5" y="-74.5" font-family="Helvetica,sans-Serif" font-size="10.00" fill="#000000">src/FileDialog/FileDialog.hpp</text>
</g>
<!-- Node4 -->
<g id="node2" class="node">
<title>Node4</title>
<g id="a_node2"><a xlink:href="_file_dialog_windows_8cpp.html" target="_top" xlink:title="src/FileDialog/FileDialog\lWindows.cpp">
<polygon fill="#ffffff" stroke="#000000" points="0,-.5 0,-30.5 123,-30.5 123,-.5 0,-.5"/>
<text text-anchor="start" x="8" y="-18.5" font-family="Helvetica,sans-Serif" font-size="10.00" fill="#000000">src/FileDialog/FileDialog</text>
<text text-anchor="middle" x="61.5" y="-7.5" font-family="Helvetica,sans-Serif" font-size="10.00" fill="#000000">Windows.cpp</text>
</a>
</g>
</g>
<!-- Node3&#45;&gt;Node4 -->
<g id="edge1" class="edge">
<title>Node3&#45;&gt;Node4</title>
<path fill="none" stroke="#191970" d="M103.4027,-59.9314C94.7082,-50.7122 84.0701,-39.4321 75.6884,-30.5446"/>
<polygon fill="#191970" stroke="#191970" points="101.0302,-62.5169 110.4375,-67.3906 106.1227,-57.7142 101.0302,-62.5169"/>
</g>
<!-- Node5 -->
<g id="node3" class="node">
<title>Node5</title>
<g id="a_node3"><a xlink:href="main_8cpp.html" target="_top" xlink:title="src/main.cpp">
<polygon fill="#ffffff" stroke="#000000" points="141,-6 141,-25 214,-25 214,-6 141,-6"/>
<text text-anchor="middle" x="177.5" y="-13" font-family="Helvetica,sans-Serif" font-size="10.00" fill="#000000">src/main.cpp</text>
</a>
</g>
</g>
<!-- Node3&#45;&gt;Node5 -->
<g id="edge2" class="edge">
<title>Node3&#45;&gt;Node5</title>
<path fill="none" stroke="#191970" d="M135.6261,-59.9007C146.1642,-48.7268 159.5477,-34.5356 168.3097,-25.2449"/>
<polygon fill="#191970" stroke="#191970" points="132.8773,-57.7142 128.5625,-67.3906 137.9698,-62.5169 132.8773,-57.7142"/>
</g>
</g>
</svg>
