<?xml version="1.0" encoding="UTF-8" standalone="no"?>
<!DOCTYPE svg PUBLIC "-//W3C//DTD SVG 1.1//EN"
 "http://www.w3.org/Graphics/SVG/1.1/DTD/svg11.dtd">
<!-- Generated by graphviz version 2.40.1 (20161225.0304)
 -->
<!-- Title: src/FileDialogWindows.cpp Pages: 1 -->
<svg width="188pt" height="140pt"
 viewBox="0.00 0.00 187.50 140.00" xmlns="http://www.w3.org/2000/svg" xmlns:xlink="http://www.w3.org/1999/xlink">
<g id="graph0" class="graph" transform="scale(1 1) rotate(0) translate(4 136)">
<title>src/FileDialogWindows.cpp</title>
<polygon fill="#ffffff" stroke="transparent" points="-4,4 -4,-136 183.5,-136 183.5,4 -4,4"/>
<!-- Node0 -->
<g id="node1" class="node">
<title>Node0</title>
<polygon fill="#bfbfbf" stroke="#000000" points="41,-112.5 41,-131.5 177,-131.5 177,-112.5 41,-112.5"/>
<text text-anchor="middle" x="109" y="-119.5" font-family="Helvetica,sans-Serif" font-size="10.00" fill="#000000">src/FileDialogWindows.cpp</text>
</g>
<!-- Node1 -->
<g id="node2" class="node">
<title>Node1</title>
<g id="a_node2"><a xlink:href="_file_dialog_8hpp.html" target="_top" xlink:title="FileDialog.hpp">
<polygon fill="#ffffff" stroke="#000000" points="69.5,-56.5 69.5,-75.5 148.5,-75.5 148.5,-56.5 69.5,-56.5"/>
<text text-anchor="middle" x="109" y="-63.5" font-family="Helvetica,sans-Serif" font-size="10.00" fill="#000000">FileDialog.hpp</text>
</a>
</g>
</g>
<!-- Node0&#45;&gt;Node1 -->
<g id="edge1" class="edge">
<title>Node0&#45;&gt;Node1</title>
<path fill="none" stroke="#191970" d="M109,-112.2455C109,-104.9382 109,-94.6944 109,-85.7046"/>
<polygon fill="#191970" stroke="#191970" points="112.5001,-85.6426 109,-75.6427 105.5001,-85.6427 112.5001,-85.6426"/>
</g>
<!-- Node2 -->
<g id="node3" class="node">
<title>Node2</title>
<polygon fill="#ffffff" stroke="#bfbfbf" points="0,-.5 0,-19.5 120,-19.5 120,-.5 0,-.5"/>
<text text-anchor="middle" x="60" y="-7.5" font-family="Helvetica,sans-Serif" font-size="10.00" fill="#000000">experimental/filesystem</text>
</g>
<!-- Node1&#45;&gt;Node2 -->
<g id="edge2" class="edge">
<title>Node1&#45;&gt;Node2</title>
<path fill="none" stroke="#191970" d="M100.4649,-56.2455C93.5088,-48.2958 83.5117,-36.8706 75.1949,-27.3656"/>
<polygon fill="#191970" stroke="#191970" points="77.6564,-24.8637 68.4373,-19.6427 72.3884,-29.4732 77.6564,-24.8637"/>
</g>
<!-- Node3 -->
<g id="node4" class="node">
<title>Node3</title>
<polygon fill="#ffffff" stroke="#bfbfbf" points="138.5,-.5 138.5,-19.5 179.5,-19.5 179.5,-.5 138.5,-.5"/>
<text text-anchor="middle" x="159" y="-7.5" font-family="Helvetica,sans-Serif" font-size="10.00" fill="#000000">string</text>
</g>
<!-- Node1&#45;&gt;Node3 -->
<g id="edge3" class="edge">
<title>Node1&#45;&gt;Node3</title>
<path fill="none" stroke="#191970" d="M117.7093,-56.2455C124.8073,-48.2958 135.0084,-36.8706 143.495,-27.3656"/>
<polygon fill="#191970" stroke="#191970" points="146.3411,-29.4331 150.3905,-19.6427 141.1195,-24.771 146.3411,-29.4331"/>
</g>
</g>
</svg>
