<?xml version="1.0" encoding="UTF-8" standalone="no"?>
<!DOCTYPE svg PUBLIC "-//W3C//DTD SVG 1.1//EN"
 "http://www.w3.org/Graphics/SVG/1.1/DTD/svg11.dtd">
<!-- Generated by graphviz version 2.40.1 (20161225.0304)
 -->
<!-- Title: src/Interface/GridWidget.hpp Pages: 1 -->
<svg width="655pt" height="252pt"
 viewBox="0.00 0.00 654.50 252.00" xmlns="http://www.w3.org/2000/svg" xmlns:xlink="http://www.w3.org/1999/xlink">
<g id="graph0" class="graph" transform="scale(1 1) rotate(0) translate(4 248)">
<title>src/Interface/GridWidget.hpp</title>
<polygon fill="#ffffff" stroke="transparent" points="-4,4 -4,-248 650.5,-248 650.5,4 -4,4"/>
<!-- Node0 -->
<g id="node1" class="node">
<title>Node0</title>
<polygon fill="#bfbfbf" stroke="#000000" points="352.5,-224.5 352.5,-243.5 494.5,-243.5 494.5,-224.5 352.5,-224.5"/>
<text text-anchor="middle" x="423.5" y="-231.5" font-family="Helvetica,sans-Serif" font-size="10.00" fill="#000000">src/Interface/GridWidget.hpp</text>
</g>
<!-- Node1 -->
<g id="node2" class="node">
<title>Node1</title>
<g id="a_node2"><a xlink:href="_widget_8hpp.html" target="_top" xlink:title="Widget.hpp">
<polygon fill="#ffffff" stroke="#000000" points="523.5,-112.5 523.5,-131.5 589.5,-131.5 589.5,-112.5 523.5,-112.5"/>
<text text-anchor="middle" x="556.5" y="-119.5" font-family="Helvetica,sans-Serif" font-size="10.00" fill="#000000">Widget.hpp</text>
</a>
</g>
</g>
<!-- Node0&#45;&gt;Node1 -->
<g id="edge1" class="edge">
<title>Node0&#45;&gt;Node1</title>
<path fill="none" stroke="#191970" d="M435.3181,-224.149C446.467,-214.8479 463.6399,-200.501 478.5,-188 498.5435,-171.1384 521.4144,-151.771 537.1831,-138.3979"/>
<polygon fill="#191970" stroke="#191970" points="539.7886,-140.7774 545.1497,-131.6391 535.26,-135.4396 539.7886,-140.7774"/>
</g>
<!-- Node5 -->
<g id="node6" class="node">
<title>Node5</title>
<g id="a_node6"><a xlink:href="_image_widget_8hpp.html" target="_top" xlink:title="ImageWidget.hpp">
<polygon fill="#ffffff" stroke="#000000" points="377,-168.5 377,-187.5 470,-187.5 470,-168.5 377,-168.5"/>
<text text-anchor="middle" x="423.5" y="-175.5" font-family="Helvetica,sans-Serif" font-size="10.00" fill="#000000">ImageWidget.hpp</text>
</a>
</g>
</g>
<!-- Node0&#45;&gt;Node5 -->
<g id="edge5" class="edge">
<title>Node0&#45;&gt;Node5</title>
<path fill="none" stroke="#191970" d="M423.5,-224.2455C423.5,-216.9382 423.5,-206.6944 423.5,-197.7046"/>
<polygon fill="#191970" stroke="#191970" points="427.0001,-197.6426 423.5,-187.6427 420.0001,-197.6427 427.0001,-197.6426"/>
</g>
<!-- Node16 -->
<g id="node17" class="node">
<title>Node16</title>
<g id="a_node17"><a xlink:href="_collection_8hpp.html" target="_top" xlink:title="../Collection/Collection.hpp">
<polygon fill="#ffffff" stroke="#000000" points="65.5,-112.5 65.5,-131.5 199.5,-131.5 199.5,-112.5 65.5,-112.5"/>
<text text-anchor="middle" x="132.5" y="-119.5" font-family="Helvetica,sans-Serif" font-size="10.00" fill="#000000">../Collection/Collection.hpp</text>
</a>
</g>
</g>
<!-- Node0&#45;&gt;Node16 -->
<g id="edge19" class="edge">
<title>Node0&#45;&gt;Node16</title>
<path fill="none" stroke="#191970" d="M352.2329,-229.0103C285.0498,-222.9967 190.4754,-210.735 161.5,-188 147.0795,-176.6852 139.6674,-156.7161 135.9644,-141.6976"/>
<polygon fill="#191970" stroke="#191970" points="139.3711,-140.89 133.8764,-131.8314 132.5228,-142.3394 139.3711,-140.89"/>
</g>
<!-- Node20 -->
<g id="node21" class="node">
<title>Node20</title>
<g id="a_node21"><a xlink:href="_filtered_collection_8hpp.html" target="_top" xlink:title="../Collection/FilteredCollection.hpp">
<polygon fill="#ffffff" stroke="#000000" points="171,-168.5 171,-187.5 338,-187.5 338,-168.5 171,-168.5"/>
<text text-anchor="middle" x="254.5" y="-175.5" font-family="Helvetica,sans-Serif" font-size="10.00" fill="#000000">../Collection/FilteredCollection.hpp</text>
</a>
</g>
</g>
<!-- Node0&#45;&gt;Node20 -->
<g id="edge25" class="edge">
<title>Node0&#45;&gt;Node20</title>
<path fill="none" stroke="#191970" d="M394.4479,-224.3733C366.3457,-215.0613 323.5946,-200.8953 292.7393,-190.671"/>
<polygon fill="#191970" stroke="#191970" points="293.7664,-187.3243 283.173,-187.5011 291.5645,-193.969 293.7664,-187.3243"/>
</g>
<!-- Node21 -->
<g id="node22" class="node">
<title>Node21</title>
<polygon fill="#ffffff" stroke="#bfbfbf" points="527,-168.5 527,-187.5 562,-187.5 562,-168.5 527,-168.5"/>
<text text-anchor="middle" x="544.5" y="-175.5" font-family="Helvetica,sans-Serif" font-size="10.00" fill="#000000">map</text>
</g>
<!-- Node0&#45;&gt;Node21 -->
<g id="edge28" class="edge">
<title>Node0&#45;&gt;Node21</title>
<path fill="none" stroke="#191970" d="M444.3006,-224.3733C464.5483,-215.0024 495.4174,-200.7159 517.5396,-190.4776"/>
<polygon fill="#191970" stroke="#191970" points="519.1181,-193.6037 526.7232,-186.2273 516.178,-187.2511 519.1181,-193.6037"/>
</g>
<!-- Node2 -->
<g id="node3" class="node">
<title>Node2</title>
<polygon fill="#ffffff" stroke="#bfbfbf" points="504.5,-56.5 504.5,-75.5 562.5,-75.5 562.5,-56.5 504.5,-56.5"/>
<text text-anchor="middle" x="533.5" y="-63.5" font-family="Helvetica,sans-Serif" font-size="10.00" fill="#000000">../CImg.h</text>
</g>
<!-- Node1&#45;&gt;Node2 -->
<g id="edge2" class="edge">
<title>Node1&#45;&gt;Node2</title>
<path fill="none" stroke="#191970" d="M552.4937,-112.2455C549.4265,-104.7776 545.0997,-94.2427 541.3503,-85.1137"/>
<polygon fill="#191970" stroke="#191970" points="544.4972,-83.5631 537.4604,-75.6427 538.0221,-86.2226 544.4972,-83.5631"/>
</g>
<!-- Node3 -->
<g id="node4" class="node">
<title>Node3</title>
<g id="a_node4"><a xlink:href="_events_8hpp.html" target="_top" xlink:title="Events.hpp">
<polygon fill="#ffffff" stroke="#000000" points="580.5,-56.5 580.5,-75.5 646.5,-75.5 646.5,-56.5 580.5,-56.5"/>
<text text-anchor="middle" x="613.5" y="-63.5" font-family="Helvetica,sans-Serif" font-size="10.00" fill="#000000">Events.hpp</text>
</a>
</g>
</g>
<!-- Node1&#45;&gt;Node3 -->
<g id="edge3" class="edge">
<title>Node1&#45;&gt;Node3</title>
<path fill="none" stroke="#191970" d="M566.4286,-112.2455C574.6838,-104.1352 586.6209,-92.4075 596.4082,-82.7919"/>
<polygon fill="#191970" stroke="#191970" points="599.0046,-85.1476 603.6851,-75.6427 594.0989,-80.1542 599.0046,-85.1476"/>
</g>
<!-- Node4 -->
<g id="node5" class="node">
<title>Node4</title>
<polygon fill="#ffffff" stroke="#bfbfbf" points="590.5,-.5 590.5,-19.5 636.5,-19.5 636.5,-.5 590.5,-.5"/>
<text text-anchor="middle" x="613.5" y="-7.5" font-family="Helvetica,sans-Serif" font-size="10.00" fill="#000000">variant</text>
</g>
<!-- Node3&#45;&gt;Node4 -->
<g id="edge4" class="edge">
<title>Node3&#45;&gt;Node4</title>
<path fill="none" stroke="#191970" d="M613.5,-56.2455C613.5,-48.9382 613.5,-38.6944 613.5,-29.7046"/>
<polygon fill="#191970" stroke="#191970" points="617.0001,-29.6426 613.5,-19.6427 610.0001,-29.6427 617.0001,-29.6426"/>
</g>
<!-- Node5&#45;&gt;Node1 -->
<g id="edge6" class="edge">
<title>Node5&#45;&gt;Node1</title>
<path fill="none" stroke="#191970" d="M446.3635,-168.3733C467.905,-159.3032 500.3838,-145.6279 524.4956,-135.4755"/>
<polygon fill="#191970" stroke="#191970" points="526.0767,-138.6075 533.9348,-131.5011 523.3603,-132.156 526.0767,-138.6075"/>
</g>
<!-- Node5&#45;&gt;Node3 -->
<g id="edge7" class="edge">
<title>Node5&#45;&gt;Node3</title>
<path fill="none" stroke="#191970" d="M435.0709,-168.4822C451.8905,-154.914 484.3801,-129.6975 514.5,-112 535.6078,-99.5977 560.6207,-87.9994 580.2234,-79.5515"/>
<polygon fill="#191970" stroke="#191970" points="581.8127,-82.6792 589.6508,-75.5508 579.0781,-76.2355 581.8127,-82.6792"/>
</g>
<!-- Node6 -->
<g id="node7" class="node">
<title>Node6</title>
<g id="a_node7"><a xlink:href="_image_8hpp.html" target="_top" xlink:title="../Image/Image.hpp">
<polygon fill="#ffffff" stroke="#000000" points="302,-112.5 302,-131.5 403,-131.5 403,-112.5 302,-112.5"/>
<text text-anchor="middle" x="352.5" y="-119.5" font-family="Helvetica,sans-Serif" font-size="10.00" fill="#000000">../Image/Image.hpp</text>
</a>
</g>
</g>
<!-- Node5&#45;&gt;Node6 -->
<g id="edge8" class="edge">
<title>Node5&#45;&gt;Node6</title>
<path fill="none" stroke="#191970" d="M411.1327,-168.2455C400.5446,-159.8943 385.0936,-147.7076 372.7107,-137.9408"/>
<polygon fill="#191970" stroke="#191970" points="374.7447,-135.0875 364.7255,-131.6427 370.4097,-140.5837 374.7447,-135.0875"/>
</g>
<!-- Node14 -->
<g id="node15" class="node">
<title>Node14</title>
<polygon fill="#ffffff" stroke="#bfbfbf" points="421.5,-112.5 421.5,-131.5 467.5,-131.5 467.5,-112.5 421.5,-112.5"/>
<text text-anchor="middle" x="444.5" y="-119.5" font-family="Helvetica,sans-Serif" font-size="10.00" fill="#000000">chrono</text>
</g>
<!-- Node5&#45;&gt;Node14 -->
<g id="edge17" class="edge">
<title>Node5&#45;&gt;Node14</title>
<path fill="none" stroke="#191970" d="M427.1579,-168.2455C429.9584,-160.7776 433.909,-150.2427 437.3324,-141.1137"/>
<polygon fill="#191970" stroke="#191970" points="440.6499,-142.2349 440.884,-131.6427 434.0955,-139.777 440.6499,-142.2349"/>
</g>
<!-- Node15 -->
<g id="node16" class="node">
<title>Node15</title>
<polygon fill="#ffffff" stroke="#bfbfbf" points="225,-112.5 225,-131.5 284,-131.5 284,-112.5 225,-112.5"/>
<text text-anchor="middle" x="254.5" y="-119.5" font-family="Helvetica,sans-Serif" font-size="10.00" fill="#000000">functional</text>
</g>
<!-- Node5&#45;&gt;Node15 -->
<g id="edge18" class="edge">
<title>Node5&#45;&gt;Node15</title>
<path fill="none" stroke="#191970" d="M394.4479,-168.3733C366.3457,-159.0613 323.5946,-144.8953 292.7393,-134.671"/>
<polygon fill="#191970" stroke="#191970" points="293.7664,-131.3243 283.173,-131.5011 291.5645,-137.969 293.7664,-131.3243"/>
</g>
<!-- Node6&#45;&gt;Node2 -->
<g id="edge13" class="edge">
<title>Node6&#45;&gt;Node2</title>
<path fill="none" stroke="#191970" d="M383.615,-112.3733C414.3008,-102.8793 461.2951,-88.3396 494.4684,-78.0761"/>
<polygon fill="#191970" stroke="#191970" points="495.7678,-81.3378 504.2865,-75.0384 493.6987,-74.6506 495.7678,-81.3378"/>
</g>
<!-- Node7 -->
<g id="node8" class="node">
<title>Node7</title>
<g id="a_node8"><a xlink:href="_tag_list_8hpp.html" target="_top" xlink:title="TagList.hpp">
<polygon fill="#ffffff" stroke="#000000" points="418.5,-56.5 418.5,-75.5 486.5,-75.5 486.5,-56.5 418.5,-56.5"/>
<text text-anchor="middle" x="452.5" y="-63.5" font-family="Helvetica,sans-Serif" font-size="10.00" fill="#000000">TagList.hpp</text>
</a>
</g>
</g>
<!-- Node6&#45;&gt;Node7 -->
<g id="edge9" class="edge">
<title>Node6&#45;&gt;Node7</title>
<path fill="none" stroke="#191970" d="M369.9187,-112.2455C385.5485,-103.4928 408.7019,-90.527 426.5185,-80.5496"/>
<polygon fill="#191970" stroke="#191970" points="428.266,-83.5825 435.2809,-75.6427 424.8457,-77.475 428.266,-83.5825"/>
</g>
<!-- Node11 -->
<g id="node12" class="node">
<title>Node11</title>
<polygon fill="#ffffff" stroke="#bfbfbf" points="212.5,-56.5 212.5,-75.5 332.5,-75.5 332.5,-56.5 212.5,-56.5"/>
<text text-anchor="middle" x="272.5" y="-63.5" font-family="Helvetica,sans-Serif" font-size="10.00" fill="#000000">experimental/filesystem</text>
</g>
<!-- Node6&#45;&gt;Node11 -->
<g id="edge14" class="edge">
<title>Node6&#45;&gt;Node11</title>
<path fill="none" stroke="#191970" d="M338.5651,-112.2455C326.4053,-103.7337 308.5536,-91.2375 294.4715,-81.3801"/>
<polygon fill="#191970" stroke="#191970" points="296.4747,-78.51 286.2752,-75.6427 292.4605,-84.2447 296.4747,-78.51"/>
</g>
<!-- Node12 -->
<g id="node13" class="node">
<title>Node12</title>
<polygon fill="#ffffff" stroke="#bfbfbf" points="350.5,-56.5 350.5,-75.5 400.5,-75.5 400.5,-56.5 350.5,-56.5"/>
<text text-anchor="middle" x="375.5" y="-63.5" font-family="Helvetica,sans-Serif" font-size="10.00" fill="#000000">fstream</text>
</g>
<!-- Node6&#45;&gt;Node12 -->
<g id="edge15" class="edge">
<title>Node6&#45;&gt;Node12</title>
<path fill="none" stroke="#191970" d="M356.5063,-112.2455C359.5735,-104.7776 363.9003,-94.2427 367.6497,-85.1137"/>
<polygon fill="#191970" stroke="#191970" points="370.9779,-86.2226 371.5396,-75.6427 364.5028,-83.5631 370.9779,-86.2226"/>
</g>
<!-- Node13 -->
<g id="node14" class="node">
<title>Node13</title>
<polygon fill="#ffffff" stroke="#bfbfbf" points="154.5,-.5 154.5,-19.5 206.5,-19.5 206.5,-.5 154.5,-.5"/>
<text text-anchor="middle" x="180.5" y="-7.5" font-family="Helvetica,sans-Serif" font-size="10.00" fill="#000000">memory</text>
</g>
<!-- Node6&#45;&gt;Node13 -->
<g id="edge16" class="edge">
<title>Node6&#45;&gt;Node13</title>
<path fill="none" stroke="#191970" d="M306.0391,-112.466C268.0595,-103.8238 218.3076,-90.2856 203.5,-76 190.8349,-63.7814 185.1381,-44.2241 182.5791,-29.565"/>
<polygon fill="#191970" stroke="#191970" points="186.0244,-28.93 181.1703,-19.5125 179.0921,-29.9015 186.0244,-28.93"/>
</g>
<!-- Node8 -->
<g id="node9" class="node">
<title>Node8</title>
<polygon fill="#ffffff" stroke="#bfbfbf" points="432,-.5 432,-19.5 473,-19.5 473,-.5 432,-.5"/>
<text text-anchor="middle" x="452.5" y="-7.5" font-family="Helvetica,sans-Serif" font-size="10.00" fill="#000000">string</text>
</g>
<!-- Node7&#45;&gt;Node8 -->
<g id="edge10" class="edge">
<title>Node7&#45;&gt;Node8</title>
<path fill="none" stroke="#191970" d="M452.5,-56.2455C452.5,-48.9382 452.5,-38.6944 452.5,-29.7046"/>
<polygon fill="#191970" stroke="#191970" points="456.0001,-29.6426 452.5,-19.6427 449.0001,-29.6427 456.0001,-29.6426"/>
</g>
<!-- Node9 -->
<g id="node10" class="node">
<title>Node9</title>
<polygon fill="#ffffff" stroke="#bfbfbf" points="491.5,-.5 491.5,-19.5 521.5,-19.5 521.5,-.5 491.5,-.5"/>
<text text-anchor="middle" x="506.5" y="-7.5" font-family="Helvetica,sans-Serif" font-size="10.00" fill="#000000">set</text>
</g>
<!-- Node7&#45;&gt;Node9 -->
<g id="edge11" class="edge">
<title>Node7&#45;&gt;Node9</title>
<path fill="none" stroke="#191970" d="M461.9061,-56.2455C469.6493,-48.2155 480.812,-36.6394 490.0318,-27.0781"/>
<polygon fill="#191970" stroke="#191970" points="492.7798,-29.2706 497.2017,-19.6427 487.7409,-24.4117 492.7798,-29.2706"/>
</g>
<!-- Node10 -->
<g id="node11" class="node">
<title>Node10</title>
<polygon fill="#ffffff" stroke="#bfbfbf" points="367.5,-.5 367.5,-19.5 413.5,-19.5 413.5,-.5 367.5,-.5"/>
<text text-anchor="middle" x="390.5" y="-7.5" font-family="Helvetica,sans-Serif" font-size="10.00" fill="#000000">cctype</text>
</g>
<!-- Node7&#45;&gt;Node10 -->
<g id="edge12" class="edge">
<title>Node7&#45;&gt;Node10</title>
<path fill="none" stroke="#191970" d="M441.7004,-56.2455C432.6322,-48.0549 419.4794,-36.1749 408.7755,-26.5069"/>
<polygon fill="#191970" stroke="#191970" points="410.9429,-23.7482 401.1758,-19.6427 406.2509,-28.9429 410.9429,-23.7482"/>
</g>
<!-- Node17 -->
<g id="node18" class="node">
<title>Node17</title>
<g id="a_node18"><a xlink:href="_collection_iterator_8hpp.html" target="_top" xlink:title="CollectionIterator.hpp">
<polygon fill="#ffffff" stroke="#000000" points="46.5,-56.5 46.5,-75.5 156.5,-75.5 156.5,-56.5 46.5,-56.5"/>
<text text-anchor="middle" x="101.5" y="-63.5" font-family="Helvetica,sans-Serif" font-size="10.00" fill="#000000">CollectionIterator.hpp</text>
</a>
</g>
</g>
<!-- Node16&#45;&gt;Node17 -->
<g id="edge20" class="edge">
<title>Node16&#45;&gt;Node17</title>
<path fill="none" stroke="#191970" d="M127.1002,-112.2455C122.8773,-104.617 116.8827,-93.7881 111.7559,-84.5267"/>
<polygon fill="#191970" stroke="#191970" points="114.7432,-82.6965 106.8379,-75.6427 108.619,-86.0867 114.7432,-82.6965"/>
</g>
<!-- Node19 -->
<g id="node20" class="node">
<title>Node19</title>
<polygon fill="#ffffff" stroke="#bfbfbf" points="0,-.5 0,-19.5 47,-19.5 47,-.5 0,-.5"/>
<text text-anchor="middle" x="23.5" y="-7.5" font-family="Helvetica,sans-Serif" font-size="10.00" fill="#000000">iterator</text>
</g>
<!-- Node16&#45;&gt;Node19 -->
<g id="edge24" class="edge">
<title>Node16&#45;&gt;Node19</title>
<path fill="none" stroke="#191970" d="M94.426,-112.3577C74.6051,-105.4229 51.6243,-94.033 37.5,-76 27.2416,-62.9027 24.0567,-44.0227 23.2541,-29.8082"/>
<polygon fill="#191970" stroke="#191970" points="26.749,-29.5294 23.0316,-19.6082 19.7506,-29.6822 26.749,-29.5294"/>
</g>
<!-- Node17&#45;&gt;Node13 -->
<g id="edge23" class="edge">
<title>Node17&#45;&gt;Node13</title>
<path fill="none" stroke="#191970" d="M115.2607,-56.2455C127.1552,-47.814 144.565,-35.4729 158.4085,-25.6598"/>
<polygon fill="#191970" stroke="#191970" points="160.7628,-28.2811 166.8969,-19.6427 156.7146,-22.5704 160.7628,-28.2811"/>
</g>
<!-- Node18 -->
<g id="node19" class="node">
<title>Node18</title>
<polygon fill="#ffffff" stroke="#bfbfbf" points="70.5,-.5 70.5,-19.5 132.5,-19.5 132.5,-.5 70.5,-.5"/>
<text text-anchor="middle" x="101.5" y="-7.5" font-family="Helvetica,sans-Serif" font-size="10.00" fill="#000000">type_traits</text>
</g>
<!-- Node17&#45;&gt;Node18 -->
<g id="edge21" class="edge">
<title>Node17&#45;&gt;Node18</title>
<path fill="none" stroke="#191970" d="M101.5,-56.2455C101.5,-48.9382 101.5,-38.6944 101.5,-29.7046"/>
<polygon fill="#191970" stroke="#191970" points="105.0001,-29.6426 101.5,-19.6427 98.0001,-29.6427 105.0001,-29.6426"/>
</g>
<!-- Node17&#45;&gt;Node19 -->
<g id="edge22" class="edge">
<title>Node17&#45;&gt;Node19</title>
<path fill="none" stroke="#191970" d="M87.9134,-56.2455C76.1695,-47.814 58.9801,-35.4729 45.3118,-25.6598"/>
<polygon fill="#191970" stroke="#191970" points="47.0954,-22.6316 36.9309,-19.6427 43.0129,-28.3179 47.0954,-22.6316"/>
</g>
<!-- Node20&#45;&gt;Node15 -->
<g id="edge27" class="edge">
<title>Node20&#45;&gt;Node15</title>
<path fill="none" stroke="#191970" d="M254.5,-168.2455C254.5,-160.9382 254.5,-150.6944 254.5,-141.7046"/>
<polygon fill="#191970" stroke="#191970" points="258.0001,-141.6426 254.5,-131.6427 251.0001,-141.6427 258.0001,-141.6426"/>
</g>
<!-- Node20&#45;&gt;Node16 -->
<g id="edge26" class="edge">
<title>Node20&#45;&gt;Node16</title>
<path fill="none" stroke="#191970" d="M233.5275,-168.3733C213.9433,-159.3838 184.5039,-145.8706 162.449,-135.7471"/>
<polygon fill="#191970" stroke="#191970" points="163.7473,-132.4919 153.1989,-131.5011 160.8271,-138.8538 163.7473,-132.4919"/>
</g>
</g>
</svg>
