<?xml version="1.0" encoding="UTF-8" standalone="no"?>
<!DOCTYPE svg PUBLIC "-//W3C//DTD SVG 1.1//EN"
 "http://www.w3.org/Graphics/SVG/1.1/DTD/svg11.dtd">
<!-- Generated by graphviz version 2.40.1 (20161225.0304)
 -->
<!-- Title: src/Image/Image.cpp Pages: 1 -->
<!--zoomable 252 -->
<svg id="main" version="1.1" xmlns="http://www.w3.org/2000/svg" xmlns:xlink="http://www.w3.org/1999/xlink" xml:space="preserve" onload="init(evt)">
<style type="text/css"><![CDATA[
.edge:hover path { stroke: red; }
.edge:hover polygon { stroke: red; fill: red; }
]]></style>
<script type="text/javascript"><![CDATA[
var edges = document.getElementsByTagName('g');
if (edges && edges.length) {
  for (var i=0;i<edges.length;i++) {
    if (edges[i].id.substr(0,4)=='edge') {
      edges[i].setAttribute('class','edge');
    }
  }
}
]]></script>
        <defs>
                <circle id="rim" cx="0" cy="0" r="7"/>
                <circle id="rim2" cx="0" cy="0" r="3.5"/>
                <g id="zoomPlus">
                        <use xlink:href="#rim" fill="#404040">
                                <set attributeName="fill" to="#808080" begin="zoomplus.mouseover" end="zoomplus.mouseout"/>
                        </use>
                        <path d="M-4,0h8M0,-4v8" fill="none" stroke="white" stroke-width="1.5" pointer-events="none"/>
                </g>
                <g id="zoomMin">
                        <use xlink:href="#rim" fill="#404040">
                                <set attributeName="fill" to="#808080" begin="zoomminus.mouseover" end="zoomminus.mouseout"/>
                        </use>
                        <path d="M-4,0h8" fill="none" stroke="white" stroke-width="1.5" pointer-events="none"/>
                </g>
                <g id="dirArrow">
                        <path fill="none" stroke="white" stroke-width="1.5" d="M0,-3.0v7 M-2.5,-0.5L0,-3.0L2.5,-0.5"/>
                </g>
               <g id="resetDef">
                       <use xlink:href="#rim2" fill="#404040">
                               <set attributeName="fill" to="#808080" begin="reset.mouseover" end="reset.mouseout"/>
                       </use>
               </g>
        </defs>

<script type="text/javascript">
var viewWidth = 1238;
var viewHeight = 252;
var sectionId = 'dynsection-0';
</script>
<script xlink:href="svgpan.js"/>
<svg id="graph" class="graph">
<g id="viewport">
<title>src/Image/Image.cpp</title>
<polygon fill="#ffffff" stroke="transparent" points="-4,4 -4,-248 1234,-248 1234,4 -4,4"/>
<!-- Node0 -->
<g id="node1" class="node">
<title>Node0</title>
<polygon fill="#bfbfbf" stroke="#000000" points="759,-224.5 759,-243.5 868,-243.5 868,-224.5 759,-224.5"/>
<text text-anchor="middle" x="813.5" y="-231.5" font-family="Helvetica,sans-Serif" font-size="10.00" fill="#000000">src/Image/Image.cpp</text>
</g>
<!-- Node1 -->
<g id="node2" class="node">
<title>Node1</title>
<g id="a_node2"><a xlink:href="_image_8hpp.html" target="_top" xlink:title="Image.hpp">
<polygon fill="#ffffff" stroke="#000000" points="699.5,-112.5 699.5,-131.5 761.5,-131.5 761.5,-112.5 699.5,-112.5"/>
<text text-anchor="middle" x="730.5" y="-119.5" font-family="Helvetica,sans-Serif" font-size="10.00" fill="#000000">Image.hpp</text>
</a>
</g>
</g>
<!-- Node0&#45;&gt;Node1 -->
<g id="edge1" class="edge">
<title>Node0&#45;&gt;Node1</title>
<path fill="none" stroke="#191970" d="M806.4235,-224.4509C792.5188,-205.688 761.4433,-163.7548 743.6599,-139.758"/>
<polygon fill="#191970" stroke="#191970" points="746.3247,-137.4753 737.5586,-131.5249 740.7006,-141.6431 746.3247,-137.4753"/>
</g>
<!-- Node20 -->
<g id="node21" class="node">
<title>Node20</title>
<g id="a_node21"><a xlink:href="_parser_8hpp.html" target="_top" xlink:title="../Parser.hpp">
<polygon fill="#ffffff" stroke="#000000" points="861,-168.5 861,-187.5 934,-187.5 934,-168.5 861,-168.5"/>
<text text-anchor="middle" x="897.5" y="-175.5" font-family="Helvetica,sans-Serif" font-size="10.00" fill="#000000">../Parser.hpp</text>
</a>
</g>
</g>
<!-- Node0&#45;&gt;Node20 -->
<g id="edge20" class="edge">
<title>Node0&#45;&gt;Node20</title>
<path fill="none" stroke="#191970" d="M828.1317,-224.2455C840.8994,-215.7337 859.6438,-203.2375 874.4299,-193.3801"/>
<polygon fill="#191970" stroke="#191970" points="876.6569,-196.1019 883.036,-187.6427 872.774,-190.2775 876.6569,-196.1019"/>
</g>
<!-- Node2 -->
<g id="node3" class="node">
<title>Node2</title>
<g id="a_node3"><a xlink:href="_tag_list_8hpp.html" target="_top" xlink:title="TagList.hpp">
<polygon fill="#ffffff" stroke="#000000" points="696.5,-56.5 696.5,-75.5 764.5,-75.5 764.5,-56.5 696.5,-56.5"/>
<text text-anchor="middle" x="730.5" y="-63.5" font-family="Helvetica,sans-Serif" font-size="10.00" fill="#000000">TagList.hpp</text>
</a>
</g>
</g>
<!-- Node1&#45;&gt;Node2 -->
<g id="edge2" class="edge">
<title>Node1&#45;&gt;Node2</title>
<path fill="none" stroke="#191970" d="M730.5,-112.2455C730.5,-104.9382 730.5,-94.6944 730.5,-85.7046"/>
<polygon fill="#191970" stroke="#191970" points="734.0001,-85.6426 730.5,-75.6427 727.0001,-85.6427 734.0001,-85.6426"/>
</g>
<!-- Node5 -->
<g id="node6" class="node">
<title>Node5</title>
<g id="a_node6"><a xlink:href="_c_img_8h.html" target="_top" xlink:title="../CImg.h">
<polygon fill="#ffffff" stroke="#000000" points="340.5,-56.5 340.5,-75.5 398.5,-75.5 398.5,-56.5 340.5,-56.5"/>
<text text-anchor="middle" x="369.5" y="-63.5" font-family="Helvetica,sans-Serif" font-size="10.00" fill="#000000">../CImg.h</text>
</a>
</g>
</g>
<!-- Node1&#45;&gt;Node5 -->
<g id="edge5" class="edge">
<title>Node1&#45;&gt;Node5</title>
<path fill="none" stroke="#191970" d="M699.4089,-117.177C633.7161,-106.9864 480.9111,-83.2826 408.6726,-72.0766"/>
<polygon fill="#191970" stroke="#191970" points="409.0374,-68.5914 398.6191,-70.5171 407.9643,-75.5087 409.0374,-68.5914"/>
</g>
<!-- Node17 -->
<g id="node18" class="node">
<title>Node17</title>
<polygon fill="#ffffff" stroke="#bfbfbf" points="893.5,-56.5 893.5,-75.5 1013.5,-75.5 1013.5,-56.5 893.5,-56.5"/>
<text text-anchor="middle" x="953.5" y="-63.5" font-family="Helvetica,sans-Serif" font-size="10.00" fill="#000000">experimental/filesystem</text>
</g>
<!-- Node1&#45;&gt;Node17 -->
<g id="edge17" class="edge">
<title>Node1&#45;&gt;Node17</title>
<path fill="none" stroke="#191970" d="M761.5072,-114.2134C798.8126,-104.8453 861.8587,-89.0131 905.4744,-78.0602"/>
<polygon fill="#191970" stroke="#191970" points="906.4453,-81.4252 915.2917,-75.5949 904.7404,-74.636 906.4453,-81.4252"/>
</g>
<!-- Node18 -->
<g id="node19" class="node">
<title>Node18</title>
<polygon fill="#ffffff" stroke="#bfbfbf" points="820.5,-56.5 820.5,-75.5 870.5,-75.5 870.5,-56.5 820.5,-56.5"/>
<text text-anchor="middle" x="845.5" y="-63.5" font-family="Helvetica,sans-Serif" font-size="10.00" fill="#000000">fstream</text>
</g>
<!-- Node1&#45;&gt;Node18 -->
<g id="edge18" class="edge">
<title>Node1&#45;&gt;Node18</title>
<path fill="none" stroke="#191970" d="M750.2692,-112.3733C768.6469,-103.4241 796.2312,-89.9917 816.9893,-79.8835"/>
<polygon fill="#191970" stroke="#191970" points="818.5304,-83.026 825.9888,-75.5011 815.4657,-76.7325 818.5304,-83.026"/>
</g>
<!-- Node19 -->
<g id="node20" class="node">
<title>Node19</title>
<polygon fill="#ffffff" stroke="#bfbfbf" points="1005.5,-.5 1005.5,-19.5 1057.5,-19.5 1057.5,-.5 1005.5,-.5"/>
<text text-anchor="middle" x="1031.5" y="-7.5" font-family="Helvetica,sans-Serif" font-size="10.00" fill="#000000">memory</text>
</g>
<!-- Node1&#45;&gt;Node19 -->
<g id="edge19" class="edge">
<title>Node1&#45;&gt;Node19</title>
<path fill="none" stroke="#191970" d="M739.4215,-112.2056C753.3318,-97.5729 781.6998,-70.2087 811.5,-56 843.6123,-40.6889 941.5942,-23.8516 995.3185,-15.4302"/>
<polygon fill="#191970" stroke="#191970" points="996.0948,-18.8518 1005.4406,-13.8611 995.0224,-11.9344 996.0948,-18.8518"/>
</g>
<!-- Node3 -->
<g id="node4" class="node">
<title>Node3</title>
<polygon fill="#ffffff" stroke="#bfbfbf" points="901,-.5 901,-19.5 942,-19.5 942,-.5 901,-.5"/>
<text text-anchor="middle" x="921.5" y="-7.5" font-family="Helvetica,sans-Serif" font-size="10.00" fill="#000000">string</text>
</g>
<!-- Node2&#45;&gt;Node3 -->
<g id="edge3" class="edge">
<title>Node2&#45;&gt;Node3</title>
<path fill="none" stroke="#191970" d="M763.3341,-56.3733C799.2525,-45.8422 856.3457,-29.1028 891.2204,-18.8778"/>
<polygon fill="#191970" stroke="#191970" points="892.2456,-22.2246 900.8569,-16.0524 890.2761,-15.5074 892.2456,-22.2246"/>
</g>
<!-- Node4 -->
<g id="node5" class="node">
<title>Node4</title>
<polygon fill="#ffffff" stroke="#bfbfbf" points="714.5,-.5 714.5,-19.5 792.5,-19.5 792.5,-.5 714.5,-.5"/>
<text text-anchor="middle" x="753.5" y="-7.5" font-family="Helvetica,sans-Serif" font-size="10.00" fill="#000000">unordered_set</text>
</g>
<!-- Node2&#45;&gt;Node4 -->
<g id="edge4" class="edge">
<title>Node2&#45;&gt;Node4</title>
<path fill="none" stroke="#191970" d="M734.5063,-56.2455C737.5735,-48.7776 741.9003,-38.2427 745.6497,-29.1137"/>
<polygon fill="#191970" stroke="#191970" points="748.9779,-30.2226 749.5396,-19.6427 742.5028,-27.5631 748.9779,-30.2226"/>
</g>
<!-- Node6 -->
<g id="node7" class="node">
<title>Node6</title>
<polygon fill="#ffffff" stroke="#bfbfbf" points="0,-.5 0,-19.5 43,-19.5 43,-.5 0,-.5"/>
<text text-anchor="middle" x="21.5" y="-7.5" font-family="Helvetica,sans-Serif" font-size="10.00" fill="#000000">cstdio</text>
</g>
<!-- Node5&#45;&gt;Node6 -->
<g id="edge6" class="edge">
<title>Node5&#45;&gt;Node6</title>
<path fill="none" stroke="#191970" d="M340.236,-63.5244C285.4576,-58.5163 163.6716,-45.6137 53.2864,-20.1179"/>
<polygon fill="#191970" stroke="#191970" points="53.8609,-16.6576 43.3251,-17.7749 52.2581,-23.4716 53.8609,-16.6576"/>
</g>
<!-- Node7 -->
<g id="node8" class="node">
<title>Node7</title>
<polygon fill="#ffffff" stroke="#bfbfbf" points="61,-.5 61,-19.5 106,-19.5 106,-.5 61,-.5"/>
<text text-anchor="middle" x="83.5" y="-7.5" font-family="Helvetica,sans-Serif" font-size="10.00" fill="#000000">cstdlib</text>
</g>
<!-- Node5&#45;&gt;Node7 -->
<g id="edge7" class="edge">
<title>Node5&#45;&gt;Node7</title>
<path fill="none" stroke="#191970" d="M340.1662,-62.0107C294.2212,-55.4828 202.3797,-41.3108 116.0409,-20.1488"/>
<polygon fill="#191970" stroke="#191970" points="116.6353,-16.69 106.086,-17.671 114.9445,-23.4828 116.6353,-16.69"/>
</g>
<!-- Node8 -->
<g id="node9" class="node">
<title>Node8</title>
<polygon fill="#ffffff" stroke="#bfbfbf" points="124,-.5 124,-19.5 173,-19.5 173,-.5 124,-.5"/>
<text text-anchor="middle" x="148.5" y="-7.5" font-family="Helvetica,sans-Serif" font-size="10.00" fill="#000000">cstdarg</text>
</g>
<!-- Node5&#45;&gt;Node8 -->
<g id="edge8" class="edge">
<title>Node5&#45;&gt;Node8</title>
<path fill="none" stroke="#191970" d="M340.2443,-59.2323C305.2222,-51.0373 244.58,-36.5526 183.1997,-20.1035"/>
<polygon fill="#191970" stroke="#191970" points="183.9123,-16.6707 173.346,-17.4473 182.0904,-23.4295 183.9123,-16.6707"/>
</g>
<!-- Node9 -->
<g id="node10" class="node">
<title>Node9</title>
<polygon fill="#ffffff" stroke="#bfbfbf" points="191.5,-.5 191.5,-19.5 237.5,-19.5 237.5,-.5 191.5,-.5"/>
<text text-anchor="middle" x="214.5" y="-7.5" font-family="Helvetica,sans-Serif" font-size="10.00" fill="#000000">cstring</text>
</g>
<!-- Node5&#45;&gt;Node9 -->
<g id="edge9" class="edge">
<title>Node5&#45;&gt;Node9</title>
<path fill="none" stroke="#191970" d="M342.8546,-56.3733C316.3744,-46.8062 275.7128,-32.1156 247.2712,-21.8399"/>
<polygon fill="#191970" stroke="#191970" points="248.3583,-18.5113 237.764,-18.4051 245.9797,-25.0948 248.3583,-18.5113"/>
</g>
<!-- Node10 -->
<g id="node11" class="node">
<title>Node10</title>
<polygon fill="#ffffff" stroke="#bfbfbf" points="255.5,-.5 255.5,-19.5 299.5,-19.5 299.5,-.5 255.5,-.5"/>
<text text-anchor="middle" x="277.5" y="-7.5" font-family="Helvetica,sans-Serif" font-size="10.00" fill="#000000">cmath</text>
</g>
<!-- Node5&#45;&gt;Node10 -->
<g id="edge10" class="edge">
<title>Node5&#45;&gt;Node10</title>
<path fill="none" stroke="#191970" d="M353.4748,-56.2455C339.3592,-47.6534 318.5737,-35.0014 302.3101,-25.1018"/>
<polygon fill="#191970" stroke="#191970" points="303.7034,-21.8525 293.3415,-19.6427 300.0637,-27.8319 303.7034,-21.8525"/>
</g>
<!-- Node11 -->
<g id="node12" class="node">
<title>Node11</title>
<polygon fill="#ffffff" stroke="#bfbfbf" points="318,-.5 318,-19.5 359,-19.5 359,-.5 318,-.5"/>
<text text-anchor="middle" x="338.5" y="-7.5" font-family="Helvetica,sans-Serif" font-size="10.00" fill="#000000">cfloat</text>
</g>
<!-- Node5&#45;&gt;Node11 -->
<g id="edge11" class="edge">
<title>Node5&#45;&gt;Node11</title>
<path fill="none" stroke="#191970" d="M364.1002,-56.2455C359.8773,-48.617 353.8827,-37.7881 348.7559,-28.5267"/>
<polygon fill="#191970" stroke="#191970" points="351.7432,-26.6965 343.8379,-19.6427 345.619,-30.0867 351.7432,-26.6965"/>
</g>
<!-- Node12 -->
<g id="node13" class="node">
<title>Node12</title>
<polygon fill="#ffffff" stroke="#bfbfbf" points="377,-.5 377,-19.5 422,-19.5 422,-.5 377,-.5"/>
<text text-anchor="middle" x="399.5" y="-7.5" font-family="Helvetica,sans-Serif" font-size="10.00" fill="#000000">climits</text>
</g>
<!-- Node5&#45;&gt;Node12 -->
<g id="edge12" class="edge">
<title>Node5&#45;&gt;Node12</title>
<path fill="none" stroke="#191970" d="M374.7256,-56.2455C378.8123,-48.617 384.6135,-37.7881 389.575,-28.5267"/>
<polygon fill="#191970" stroke="#191970" points="392.6972,-30.1103 394.3343,-19.6427 386.5268,-26.8047 392.6972,-30.1103"/>
</g>
<!-- Node13 -->
<g id="node14" class="node">
<title>Node13</title>
<polygon fill="#ffffff" stroke="#bfbfbf" points="440,-.5 440,-19.5 481,-19.5 481,-.5 440,-.5"/>
<text text-anchor="middle" x="460.5" y="-7.5" font-family="Helvetica,sans-Serif" font-size="10.00" fill="#000000">ctime</text>
</g>
<!-- Node5&#45;&gt;Node13 -->
<g id="edge13" class="edge">
<title>Node5&#45;&gt;Node13</title>
<path fill="none" stroke="#191970" d="M385.351,-56.2455C399.3132,-47.6534 419.8728,-35.0014 435.9596,-25.1018"/>
<polygon fill="#191970" stroke="#191970" points="438.1484,-27.8645 444.8307,-19.6427 434.4797,-21.9029 438.1484,-27.8645"/>
</g>
<!-- Node14 -->
<g id="node15" class="node">
<title>Node14</title>
<polygon fill="#ffffff" stroke="#bfbfbf" points="499,-.5 499,-19.5 558,-19.5 558,-.5 499,-.5"/>
<text text-anchor="middle" x="528.5" y="-7.5" font-family="Helvetica,sans-Serif" font-size="10.00" fill="#000000">exception</text>
</g>
<!-- Node5&#45;&gt;Node14 -->
<g id="edge14" class="edge">
<title>Node5&#45;&gt;Node14</title>
<path fill="none" stroke="#191970" d="M396.8331,-56.3733C423.0434,-47.1419 462.7984,-33.1402 491.7668,-22.9375"/>
<polygon fill="#191970" stroke="#191970" points="493.2542,-26.1244 501.5236,-19.5011 490.9288,-19.5219 493.2542,-26.1244"/>
</g>
<!-- Node15 -->
<g id="node16" class="node">
<title>Node15</title>
<polygon fill="#ffffff" stroke="#bfbfbf" points="576.5,-.5 576.5,-19.5 632.5,-19.5 632.5,-.5 576.5,-.5"/>
<text text-anchor="middle" x="604.5" y="-7.5" font-family="Helvetica,sans-Serif" font-size="10.00" fill="#000000">algorithm</text>
</g>
<!-- Node5&#45;&gt;Node15 -->
<g id="edge15" class="edge">
<title>Node5&#45;&gt;Node15</title>
<path fill="none" stroke="#191970" d="M398.6007,-59.4721C437.0945,-50.7761 507.019,-34.7679 566.5,-20 566.5993,-19.9753 566.6988,-19.9506 566.7984,-19.9259"/>
<polygon fill="#191970" stroke="#191970" points="567.4689,-23.3667 576.3008,-17.5145 565.7471,-16.5818 567.4689,-23.3667"/>
</g>
<!-- Node16 -->
<g id="node17" class="node">
<title>Node16</title>
<polygon fill="#ffffff" stroke="#bfbfbf" points="650.5,-.5 650.5,-19.5 696.5,-19.5 696.5,-.5 650.5,-.5"/>
<text text-anchor="middle" x="673.5" y="-7.5" font-family="Helvetica,sans-Serif" font-size="10.00" fill="#000000">stdio.h</text>
</g>
<!-- Node5&#45;&gt;Node16 -->
<g id="edge16" class="edge">
<title>Node5&#45;&gt;Node16</title>
<path fill="none" stroke="#191970" d="M398.7448,-62.3771C447.1418,-56.0979 547.0386,-41.9393 640.3082,-20.0411"/>
<polygon fill="#191970" stroke="#191970" points="641.2672,-23.4106 650.183,-17.6871 639.6439,-16.6014 641.2672,-23.4106"/>
</g>
<!-- Node20&#45;&gt;Node1 -->
<g id="edge21" class="edge">
<title>Node20&#45;&gt;Node1</title>
<path fill="none" stroke="#191970" d="M868.7917,-168.3733C841.1423,-159.1016 799.1424,-145.0178 768.6834,-134.804"/>
<polygon fill="#191970" stroke="#191970" points="769.4276,-131.3621 758.8337,-131.5011 767.2021,-137.9989 769.4276,-131.3621"/>
</g>
<!-- Node20&#45;&gt;Node3 -->
<g id="edge31" class="edge">
<title>Node20&#45;&gt;Node3</title>
<path fill="none" stroke="#191970" d="M934.115,-170.1631C956.8907,-163.5379 985.2223,-151.8482 1003.5,-132 1021.3038,-112.6664 1018.2207,-101.9317 1022.5,-76 1023.9473,-67.2297 1027.3095,-63.4753 1022.5,-56 1007.0617,-32.0046 975.688,-20.3776 951.9808,-14.839"/>
<polygon fill="#191970" stroke="#191970" points="952.5409,-11.3805 942.0363,-12.7598 951.1083,-18.2324 952.5409,-11.3805"/>
</g>
<!-- Node20&#45;&gt;Node17 -->
<g id="edge28" class="edge">
<title>Node20&#45;&gt;Node17</title>
<path fill="none" stroke="#191970" d="M934.0973,-169.4758C953.8797,-162.801 976.6297,-151.301 988.5,-132 998.4963,-115.7461 985.4426,-96.3756 972.5313,-82.8393"/>
<polygon fill="#191970" stroke="#191970" points="974.7235,-80.0883 965.121,-75.6111 969.8356,-85.0992 974.7235,-80.0883"/>
</g>
<!-- Node20&#45;&gt;Node18 -->
<g id="edge29" class="edge">
<title>Node20&#45;&gt;Node18</title>
<path fill="none" stroke="#191970" d="M860.7737,-168.9425C841.6347,-162.155 819.8965,-150.7191 808.5,-132 798.3559,-115.338 812.4307,-95.7981 826.0401,-82.3258"/>
<polygon fill="#191970" stroke="#191970" points="828.4313,-84.8817 833.3962,-75.5222 823.6783,-79.7427 828.4313,-84.8817"/>
</g>
<!-- Node21 -->
<g id="node22" class="node">
<title>Node21</title>
<g id="a_node22"><a xlink:href="_collection_8hpp.html" target="_top" xlink:title="Collection/Collection.hpp">
<polygon fill="#ffffff" stroke="#000000" points="1074,-112.5 1074,-131.5 1199,-131.5 1199,-112.5 1074,-112.5"/>
<text text-anchor="middle" x="1136.5" y="-119.5" font-family="Helvetica,sans-Serif" font-size="10.00" fill="#000000">Collection/Collection.hpp</text>
</a>
</g>
</g>
<!-- Node20&#45;&gt;Node21 -->
<g id="edge22" class="edge">
<title>Node20&#45;&gt;Node21</title>
<path fill="none" stroke="#191970" d="M934.0591,-169.4338C974.6633,-159.9199 1040.4769,-144.4991 1085.9875,-133.8356"/>
<polygon fill="#191970" stroke="#191970" points="1087.0075,-137.1915 1095.9453,-131.5024 1085.4105,-130.376 1087.0075,-137.1915"/>
</g>
<!-- Node25 -->
<g id="node26" class="node">
<title>Node25</title>
<polygon fill="#ffffff" stroke="#bfbfbf" points="817.5,-112.5 817.5,-131.5 859.5,-131.5 859.5,-112.5 817.5,-112.5"/>
<text text-anchor="middle" x="838.5" y="-119.5" font-family="Helvetica,sans-Serif" font-size="10.00" fill="#000000">locale</text>
</g>
<!-- Node20&#45;&gt;Node25 -->
<g id="edge30" class="edge">
<title>Node20&#45;&gt;Node25</title>
<path fill="none" stroke="#191970" d="M887.223,-168.2455C878.6782,-160.1352 866.3222,-148.4075 856.1915,-138.7919"/>
<polygon fill="#191970" stroke="#191970" points="858.3218,-135.9884 848.6592,-131.6427 853.5028,-141.0655 858.3218,-135.9884"/>
</g>
<!-- Node26 -->
<g id="node27" class="node">
<title>Node26</title>
<polygon fill="#ffffff" stroke="#bfbfbf" points="877.5,-112.5 877.5,-131.5 917.5,-131.5 917.5,-112.5 877.5,-112.5"/>
<text text-anchor="middle" x="897.5" y="-119.5" font-family="Helvetica,sans-Serif" font-size="10.00" fill="#000000">utility</text>
</g>
<!-- Node20&#45;&gt;Node26 -->
<g id="edge32" class="edge">
<title>Node20&#45;&gt;Node26</title>
<path fill="none" stroke="#191970" d="M897.5,-168.2455C897.5,-160.9382 897.5,-150.6944 897.5,-141.7046"/>
<polygon fill="#191970" stroke="#191970" points="901.0001,-141.6426 897.5,-131.6427 894.0001,-141.6427 901.0001,-141.6426"/>
</g>
<!-- Node27 -->
<g id="node28" class="node">
<title>Node27</title>
<polygon fill="#ffffff" stroke="#bfbfbf" points="935.5,-112.5 935.5,-131.5 979.5,-131.5 979.5,-112.5 935.5,-112.5"/>
<text text-anchor="middle" x="957.5" y="-119.5" font-family="Helvetica,sans-Serif" font-size="10.00" fill="#000000">vector</text>
</g>
<!-- Node20&#45;&gt;Node27 -->
<g id="edge33" class="edge">
<title>Node20&#45;&gt;Node27</title>
<path fill="none" stroke="#191970" d="M907.9512,-168.2455C916.7269,-160.0549 929.4554,-148.1749 939.814,-138.5069"/>
<polygon fill="#191970" stroke="#191970" points="942.2461,-141.0246 947.1686,-131.6427 937.4699,-135.9072 942.2461,-141.0246"/>
</g>
<!-- Node22 -->
<g id="node23" class="node">
<title>Node22</title>
<g id="a_node23"><a xlink:href="_collection_iterator_8hpp.html" target="_top" xlink:title="CollectionIterator.hpp">
<polygon fill="#ffffff" stroke="#000000" points="1073.5,-56.5 1073.5,-75.5 1183.5,-75.5 1183.5,-56.5 1073.5,-56.5"/>
<text text-anchor="middle" x="1128.5" y="-63.5" font-family="Helvetica,sans-Serif" font-size="10.00" fill="#000000">CollectionIterator.hpp</text>
</a>
</g>
</g>
<!-- Node21&#45;&gt;Node22 -->
<g id="edge23" class="edge">
<title>Node21&#45;&gt;Node22</title>
<path fill="none" stroke="#191970" d="M1135.1065,-112.2455C1134.0626,-104.9382 1132.5992,-94.6944 1131.3149,-85.7046"/>
<polygon fill="#191970" stroke="#191970" points="1134.7566,-85.0472 1129.8775,-75.6427 1127.827,-86.0372 1134.7566,-85.0472"/>
</g>
<!-- Node24 -->
<g id="node25" class="node">
<title>Node24</title>
<polygon fill="#ffffff" stroke="#bfbfbf" points="1183,-.5 1183,-19.5 1230,-19.5 1230,-.5 1183,-.5"/>
<text text-anchor="middle" x="1206.5" y="-7.5" font-family="Helvetica,sans-Serif" font-size="10.00" fill="#000000">iterator</text>
</g>
<!-- Node21&#45;&gt;Node24 -->
<g id="edge27" class="edge">
<title>Node21&#45;&gt;Node24</title>
<path fill="none" stroke="#191970" d="M1153.611,-112.3482C1166.3181,-104.2773 1183.0255,-91.5903 1192.5,-76 1200.9594,-62.0801 1204.3594,-43.8078 1205.7005,-30.0192"/>
<polygon fill="#191970" stroke="#191970" points="1209.2167,-29.9012 1206.4086,-19.6853 1202.233,-29.4226 1209.2167,-29.9012"/>
</g>
<!-- Node22&#45;&gt;Node19 -->
<g id="edge26" class="edge">
<title>Node22&#45;&gt;Node19</title>
<path fill="none" stroke="#191970" d="M1111.6039,-56.2455C1096.582,-47.5731 1074.3957,-34.7645 1057.179,-24.825"/>
<polygon fill="#191970" stroke="#191970" points="1058.6128,-21.6114 1048.2025,-19.6427 1055.1129,-27.6737 1058.6128,-21.6114"/>
</g>
<!-- Node23 -->
<g id="node24" class="node">
<title>Node23</title>
<polygon fill="#ffffff" stroke="#bfbfbf" points="1097.5,-.5 1097.5,-19.5 1159.5,-19.5 1159.5,-.5 1097.5,-.5"/>
<text text-anchor="middle" x="1128.5" y="-7.5" font-family="Helvetica,sans-Serif" font-size="10.00" fill="#000000">type_traits</text>
</g>
<!-- Node22&#45;&gt;Node23 -->
<g id="edge24" class="edge">
<title>Node22&#45;&gt;Node23</title>
<path fill="none" stroke="#191970" d="M1128.5,-56.2455C1128.5,-48.9382 1128.5,-38.6944 1128.5,-29.7046"/>
<polygon fill="#191970" stroke="#191970" points="1132.0001,-29.6426 1128.5,-19.6427 1125.0001,-29.6427 1132.0001,-29.6426"/>
</g>
<!-- Node22&#45;&gt;Node24 -->
<g id="edge25" class="edge">
<title>Node22&#45;&gt;Node24</title>
<path fill="none" stroke="#191970" d="M1142.0866,-56.2455C1153.8305,-47.814 1171.0199,-35.4729 1184.6882,-25.6598"/>
<polygon fill="#191970" stroke="#191970" points="1186.9871,-28.3179 1193.0691,-19.6427 1182.9046,-22.6316 1186.9871,-28.3179"/>
</g>
</g>
</svg>
        <g id="navigator" transform="translate(0 0)" fill="#404254">
                <rect fill="#f2f5e9" fill-opacity="0.5" stroke="#606060" stroke-width=".5" x="0" y="0" width="60" height="60"/>
                <use id="zoomplus" xlink:href="#zoomPlus" x="17" y="9" onmousedown="handleZoom(evt,'in')"/>
                <use id="zoomminus" xlink:href="#zoomMin" x="42" y="9" onmousedown="handleZoom(evt,'out')"/>
                <use id="reset" xlink:href="#resetDef" x="30" y="36" onmousedown="handleReset()"/>
                <g id="arrowUp" xlink:href="#dirArrow" transform="translate(30 24)" onmousedown="handlePan(0,-1)">
                  <use xlink:href="#rim" fill="#404040">
                        <set attributeName="fill" to="#808080" begin="arrowUp.mouseover" end="arrowUp.mouseout"/>
                  </use>
                  <path fill="none" stroke="white" stroke-width="1.5" d="M0,-3.0v7 M-2.5,-0.5L0,-3.0L2.5,-0.5"/>
                </g>
                <g id="arrowRight" xlink:href="#dirArrow" transform="rotate(90) translate(36 -43)" onmousedown="handlePan(1,0)">
                  <use xlink:href="#rim" fill="#404040">
                        <set attributeName="fill" to="#808080" begin="arrowRight.mouseover" end="arrowRight.mouseout"/>
                  </use>
                  <path fill="none" stroke="white" stroke-width="1.5" d="M0,-3.0v7 M-2.5,-0.5L0,-3.0L2.5,-0.5"/>
                </g>
                <g id="arrowDown" xlink:href="#dirArrow" transform="rotate(180) translate(-30 -48)" onmousedown="handlePan(0,1)">
                  <use xlink:href="#rim" fill="#404040">
                        <set attributeName="fill" to="#808080" begin="arrowDown.mouseover" end="arrowDown.mouseout"/>
                  </use>
                  <path fill="none" stroke="white" stroke-width="1.5" d="M0,-3.0v7 M-2.5,-0.5L0,-3.0L2.5,-0.5"/>
                </g>
                <g id="arrowLeft" xlink:href="#dirArrow" transform="rotate(270) translate(-36 17)" onmousedown="handlePan(-1,0)">
                  <use xlink:href="#rim" fill="#404040">
                        <set attributeName="fill" to="#808080" begin="arrowLeft.mouseover" end="arrowLeft.mouseout"/>
                  </use>
                  <path fill="none" stroke="white" stroke-width="1.5" d="M0,-3.0v7 M-2.5,-0.5L0,-3.0L2.5,-0.5"/>
                </g>
        </g>
        <svg viewBox="0 0 15 15" width="100%" height="30px" preserveAspectRatio="xMaxYMin meet">
         <g id="arrow_out" transform="scale(0.3 0.3)">
          <a xlink:href="_image_8cpp__incl_org.svg" target="_base">
           <rect id="button" ry="5" rx="5" y="6" x="6" height="38" width="38"
                fill="#f2f5e9" fill-opacity="0.5" stroke="#606060" stroke-width="1.0"/>
           <path id="arrow"
             d="M 11.500037,31.436501 C 11.940474,20.09759 22.043105,11.32322 32.158766,21.979434 L 37.068811,17.246167 C 37.068811,17.246167 37.088388,32 37.088388,32 L 22.160133,31.978069 C 22.160133,31.978069 26.997745,27.140456 26.997745,27.140456 C 18.528582,18.264221 13.291696,25.230495 11.500037,31.436501 z"
             style="fill:#404040;"/>
          </a>
         </g>
        </svg>
</svg>
