<?xml version="1.0" encoding="UTF-8" standalone="no"?>
<!DOCTYPE svg PUBLIC "-//W3C//DTD SVG 1.1//EN"
 "http://www.w3.org/Graphics/SVG/1.1/DTD/svg11.dtd">
<!-- Generated by graphviz version 2.40.1 (20161225.0304)
 -->
<!-- Title: src/Image/Image.hpp Pages: 1 -->
<!--zoomable 207 -->
<svg id="main" version="1.1" xmlns="http://www.w3.org/2000/svg" xmlns:xlink="http://www.w3.org/1999/xlink" xml:space="preserve" onload="init(evt)">
<style type="text/css"><![CDATA[
.edge:hover path { stroke: red; }
.edge:hover polygon { stroke: red; fill: red; }
]]></style>
<script type="text/javascript"><![CDATA[
var edges = document.getElementsByTagName('g');
if (edges && edges.length) {
  for (var i=0;i<edges.length;i++) {
    if (edges[i].id.substr(0,4)=='edge') {
      edges[i].setAttribute('class','edge');
    }
  }
}
]]></script>
        <defs>
                <circle id="rim" cx="0" cy="0" r="7"/>
                <circle id="rim2" cx="0" cy="0" r="3.5"/>
                <g id="zoomPlus">
                        <use xlink:href="#rim" fill="#404040">
                                <set attributeName="fill" to="#808080" begin="zoomplus.mouseover" end="zoomplus.mouseout"/>
                        </use>
                        <path d="M-4,0h8M0,-4v8" fill="none" stroke="white" stroke-width="1.5" pointer-events="none"/>
                </g>
                <g id="zoomMin">
                        <use xlink:href="#rim" fill="#404040">
                                <set attributeName="fill" to="#808080" begin="zoomminus.mouseover" end="zoomminus.mouseout"/>
                        </use>
                        <path d="M-4,0h8" fill="none" stroke="white" stroke-width="1.5" pointer-events="none"/>
                </g>
                <g id="dirArrow">
                        <path fill="none" stroke="white" stroke-width="1.5" d="M0,-3.0v7 M-2.5,-0.5L0,-3.0L2.5,-0.5"/>
                </g>
               <g id="resetDef">
                       <use xlink:href="#rim2" fill="#404040">
                               <set attributeName="fill" to="#808080" begin="reset.mouseover" end="reset.mouseout"/>
                       </use>
               </g>
        </defs>

<script type="text/javascript">
var viewWidth = 1510;
var viewHeight = 207;
var sectionId = 'dynsection-1';
</script>
<script xlink:href="svgpan.js"/>
<svg id="graph" class="graph">
<g id="viewport">
<title>src/Image/Image.hpp</title>
<polygon fill="#ffffff" stroke="transparent" points="-4,4 -4,-203 1506.2615,-203 1506.2615,4 -4,4"/>
<!-- Node9 -->
<g id="node1" class="node">
<title>Node9</title>
<polygon fill="#bfbfbf" stroke="#000000" points="486.2615,-179.5 486.2615,-198.5 595.2615,-198.5 595.2615,-179.5 486.2615,-179.5"/>
<text text-anchor="middle" x="540.7615" y="-186.5" font-family="Helvetica,sans-Serif" font-size="10.00" fill="#000000">src/Image/Image.hpp</text>
</g>
<!-- Node10 -->
<g id="node2" class="node">
<title>Node10</title>
<g id="a_node2"><a xlink:href="_application_8hpp.html" target="_top" xlink:title="src/Application.hpp">
<polygon fill="#ffffff" stroke="#000000" points="1.7615,-123.5 1.7615,-142.5 101.7615,-142.5 101.7615,-123.5 1.7615,-123.5"/>
<text text-anchor="middle" x="51.7615" y="-130.5" font-family="Helvetica,sans-Serif" font-size="10.00" fill="#000000">src/Application.hpp</text>
</a>
</g>
</g>
<!-- Node9&#45;&gt;Node10 -->
<g id="edge1" class="edge">
<title>Node9&#45;&gt;Node10</title>
<path fill="none" stroke="#191970" d="M475.8149,-181.785C395.6396,-172.8451 255.1239,-157.0691 134.7615,-143 124.0938,-141.7531 112.6582,-140.3914 101.7899,-139.0856"/>
<polygon fill="#191970" stroke="#191970" points="475.9157,-185.3178 486.2418,-182.947 476.6911,-178.3609 475.9157,-185.3178"/>
</g>
<!-- Node13 -->
<g id="node5" class="node">
<title>Node13</title>
<g id="a_node5"><a xlink:href="_tag_setter_widget_8hpp.html" target="_top" xlink:title="src/Interface/TagSetterWidget.hpp">
<polygon fill="#ffffff" stroke="#000000" points="144.2615,-123.5 144.2615,-142.5 311.2615,-142.5 311.2615,-123.5 144.2615,-123.5"/>
<text text-anchor="middle" x="227.7615" y="-130.5" font-family="Helvetica,sans-Serif" font-size="10.00" fill="#000000">src/Interface/TagSetterWidget.hpp</text>
</a>
</g>
</g>
<!-- Node9&#45;&gt;Node13 -->
<g id="edge4" class="edge">
<title>Node9&#45;&gt;Node13</title>
<path fill="none" stroke="#191970" d="M477.2092,-177.6296C419.4721,-167.2997 335.2664,-152.2341 280.992,-142.5237"/>
<polygon fill="#191970" stroke="#191970" points="476.8504,-181.1209 487.3105,-179.4369 478.0833,-174.2303 476.8504,-181.1209"/>
</g>
<!-- Node15 -->
<g id="node7" class="node">
<title>Node15</title>
<g id="a_node7"><a xlink:href="_tag_viewer_widget_8hpp.html" target="_top" xlink:title="src/Interface/TagViewerWidget.hpp">
<polygon fill="#ffffff" stroke="#000000" points="366.7615,-123.5 366.7615,-142.5 536.7615,-142.5 536.7615,-123.5 366.7615,-123.5"/>
<text text-anchor="middle" x="451.7615" y="-130.5" font-family="Helvetica,sans-Serif" font-size="10.00" fill="#000000">src/Interface/TagViewerWidget.hpp</text>
</a>
</g>
</g>
<!-- Node9&#45;&gt;Node15 -->
<g id="edge7" class="edge">
<title>Node9&#45;&gt;Node15</title>
<path fill="none" stroke="#191970" d="M516.5551,-173.769C500.784,-163.8456 480.6855,-151.1994 467.0865,-142.6427"/>
<polygon fill="#191970" stroke="#191970" points="514.931,-176.8823 525.2589,-179.2455 518.6589,-170.9575 514.931,-176.8823"/>
</g>
<!-- Node17 -->
<g id="node9" class="node">
<title>Node17</title>
<g id="a_node9"><a xlink:href="_image_widget_8hpp.html" target="_top" xlink:title="src/Interface/ImageWidget.hpp">
<polygon fill="#ffffff" stroke="#000000" points="1030.2615,-123.5 1030.2615,-142.5 1181.2615,-142.5 1181.2615,-123.5 1030.2615,-123.5"/>
<text text-anchor="middle" x="1105.7615" y="-130.5" font-family="Helvetica,sans-Serif" font-size="10.00" fill="#000000">src/Interface/ImageWidget.hpp</text>
</a>
</g>
</g>
<!-- Node9&#45;&gt;Node17 -->
<g id="edge10" class="edge">
<title>Node9&#45;&gt;Node17</title>
<path fill="none" stroke="#191970" d="M605.6169,-182.5718C710.8716,-172.1395 918.3431,-151.576 1030.1396,-140.4953"/>
<polygon fill="#191970" stroke="#191970" points="605.0554,-179.1103 595.4494,-183.5796 605.7459,-186.0761 605.0554,-179.1103"/>
</g>
<!-- Node21 -->
<g id="node13" class="node">
<title>Node21</title>
<g id="a_node13"><a xlink:href="_utilities_8hpp.html" target="_top" xlink:title="src/Utilities/Utilities.hpp">
<polygon fill="#ffffff" stroke="#000000" points="653.2615,-123.5 653.2615,-142.5 774.2615,-142.5 774.2615,-123.5 653.2615,-123.5"/>
<text text-anchor="middle" x="713.7615" y="-130.5" font-family="Helvetica,sans-Serif" font-size="10.00" fill="#000000">src/Utilities/Utilities.hpp</text>
</a>
</g>
</g>
<!-- Node9&#45;&gt;Node21 -->
<g id="edge15" class="edge">
<title>Node9&#45;&gt;Node21</title>
<path fill="none" stroke="#191970" d="M580.3338,-176.1905C612.0286,-165.9309 655.7783,-151.7691 684.4098,-142.5011"/>
<polygon fill="#191970" stroke="#191970" points="578.9373,-172.9636 570.5013,-179.3733 581.0931,-179.6234 578.9373,-172.9636"/>
</g>
<!-- Node26 -->
<g id="node18" class="node">
<title>Node26</title>
<g id="a_node18"><a xlink:href="_image_8cpp.html" target="_top" xlink:title="src/Image/Image.cpp">
<polygon fill="#ffffff" stroke="#000000" points="1199.2615,-123.5 1199.2615,-142.5 1308.2615,-142.5 1308.2615,-123.5 1199.2615,-123.5"/>
<text text-anchor="middle" x="1253.7615" y="-130.5" font-family="Helvetica,sans-Serif" font-size="10.00" fill="#000000">src/Image/Image.cpp</text>
</a>
</g>
</g>
<!-- Node9&#45;&gt;Node26 -->
<g id="edge23" class="edge">
<title>Node9&#45;&gt;Node26</title>
<path fill="none" stroke="#191970" d="M605.4856,-186.2823C722.5618,-180.9521 977.1946,-167.46 1190.7615,-143 1193.5121,-142.685 1196.3263,-142.3361 1199.1655,-141.963"/>
<polygon fill="#191970" stroke="#191970" points="605.0982,-182.7961 595.2659,-186.7427 605.4133,-189.789 605.0982,-182.7961"/>
</g>
<!-- Node11 -->
<g id="node3" class="node">
<title>Node11</title>
<g id="a_node3"><a xlink:href="_application_8cpp.html" target="_top" xlink:title="src/Application.cpp">
<polygon fill="#ffffff" stroke="#000000" points="288.7615,-.5 288.7615,-19.5 388.7615,-19.5 388.7615,-.5 288.7615,-.5"/>
<text text-anchor="middle" x="338.7615" y="-7.5" font-family="Helvetica,sans-Serif" font-size="10.00" fill="#000000">src/Application.cpp</text>
</a>
</g>
</g>
<!-- Node10&#45;&gt;Node11 -->
<g id="edge2" class="edge">
<title>Node10&#45;&gt;Node11</title>
<path fill="none" stroke="#191970" d="M30.6546,-116.8677C11.7316,-100.4839 -10.7086,-74.9017 5.7615,-56 24.0451,-35.0171 199.9633,-19.7645 288.4526,-13.3523"/>
<polygon fill="#191970" stroke="#191970" points="28.4847,-119.6149 38.4255,-123.2799 32.9399,-114.2157 28.4847,-119.6149"/>
</g>
<!-- Node12 -->
<g id="node4" class="node">
<title>Node12</title>
<g id="a_node4"><a xlink:href="main_8cpp.html" target="_top" xlink:title="Contient la fonction main. ">
<polygon fill="#ffffff" stroke="#000000" points="15.2615,-62 15.2615,-81 88.2615,-81 88.2615,-62 15.2615,-62"/>
<text text-anchor="middle" x="51.7615" y="-69" font-family="Helvetica,sans-Serif" font-size="10.00" fill="#000000">src/main.cpp</text>
</a>
</g>
</g>
<!-- Node10&#45;&gt;Node12 -->
<g id="edge3" class="edge">
<title>Node10&#45;&gt;Node12</title>
<path fill="none" stroke="#191970" d="M51.7615,-113.2462C51.7615,-102.5519 51.7615,-89.814 51.7615,-81.2449"/>
<polygon fill="#191970" stroke="#191970" points="48.2616,-113.3906 51.7615,-123.3906 55.2616,-113.3907 48.2616,-113.3906"/>
</g>
<!-- Node13&#45;&gt;Node11 -->
<g id="edge5" class="edge">
<title>Node13&#45;&gt;Node11</title>
<path fill="none" stroke="#191970" d="M176.9863,-119.6855C160.6357,-112.7334 144.2942,-102.3501 134.7615,-87 127.4929,-75.2956 126.1571,-66.7606 134.7615,-56 153.6372,-32.3941 234.2534,-20.0359 288.3146,-14.2802"/>
<polygon fill="#191970" stroke="#191970" points="175.9738,-123.0466 186.563,-123.3939 178.5016,-116.519 175.9738,-123.0466"/>
</g>
<!-- Node14 -->
<g id="node6" class="node">
<title>Node14</title>
<g id="a_node6"><a xlink:href="_tag_setter_widget_8cpp.html" target="_top" xlink:title="src/Interface/TagSetterWidget.cpp">
<polygon fill="#ffffff" stroke="#000000" points="144.2615,-62 144.2615,-81 311.2615,-81 311.2615,-62 144.2615,-62"/>
<text text-anchor="middle" x="227.7615" y="-69" font-family="Helvetica,sans-Serif" font-size="10.00" fill="#000000">src/Interface/TagSetterWidget.cpp</text>
</a>
</g>
</g>
<!-- Node13&#45;&gt;Node14 -->
<g id="edge6" class="edge">
<title>Node13&#45;&gt;Node14</title>
<path fill="none" stroke="#191970" d="M227.7615,-113.2462C227.7615,-102.5519 227.7615,-89.814 227.7615,-81.2449"/>
<polygon fill="#191970" stroke="#191970" points="224.2616,-113.3906 227.7615,-123.3906 231.2616,-113.3907 224.2616,-113.3906"/>
</g>
<!-- Node15&#45;&gt;Node11 -->
<g id="edge8" class="edge">
<title>Node15&#45;&gt;Node11</title>
<path fill="none" stroke="#191970" d="M405.7795,-119.7991C388.4455,-112.6802 369.9854,-102.1531 357.7615,-87 341.6816,-67.0669 338.9379,-35.4513 338.6396,-19.6519"/>
<polygon fill="#191970" stroke="#191970" points="404.6561,-123.1166 415.2468,-123.4112 407.1514,-116.5764 404.6561,-123.1166"/>
</g>
<!-- Node16 -->
<g id="node8" class="node">
<title>Node16</title>
<g id="a_node8"><a xlink:href="_tag_viewer_widget_8cpp.html" target="_top" xlink:title="src/Interface/TagViewerWidget.cpp">
<polygon fill="#ffffff" stroke="#000000" points="366.7615,-62 366.7615,-81 536.7615,-81 536.7615,-62 366.7615,-62"/>
<text text-anchor="middle" x="451.7615" y="-69" font-family="Helvetica,sans-Serif" font-size="10.00" fill="#000000">src/Interface/TagViewerWidget.cpp</text>
</a>
</g>
</g>
<!-- Node15&#45;&gt;Node16 -->
<g id="edge9" class="edge">
<title>Node15&#45;&gt;Node16</title>
<path fill="none" stroke="#191970" d="M451.7615,-113.2462C451.7615,-102.5519 451.7615,-89.814 451.7615,-81.2449"/>
<polygon fill="#191970" stroke="#191970" points="448.2616,-113.3906 451.7615,-123.3906 455.2616,-113.3907 448.2616,-113.3906"/>
</g>
<!-- Node18 -->
<g id="node10" class="node">
<title>Node18</title>
<g id="a_node10"><a xlink:href="_grid_widget_8hpp.html" target="_top" xlink:title="src/Interface/GridWidget.hpp">
<polygon fill="#ffffff" stroke="#000000" points="1190.7615,-62 1190.7615,-81 1332.7615,-81 1332.7615,-62 1190.7615,-62"/>
<text text-anchor="middle" x="1261.7615" y="-69" font-family="Helvetica,sans-Serif" font-size="10.00" fill="#000000">src/Interface/GridWidget.hpp</text>
</a>
</g>
</g>
<!-- Node17&#45;&gt;Node18 -->
<g id="edge11" class="edge">
<title>Node17&#45;&gt;Node18</title>
<path fill="none" stroke="#191970" d="M1139.6307,-119.6477C1169.1704,-108.0023 1211.2957,-91.3952 1237.5577,-81.0419"/>
<polygon fill="#191970" stroke="#191970" points="1138.156,-116.4669 1130.1365,-123.3906 1140.7233,-122.9791 1138.156,-116.4669"/>
</g>
<!-- Node20 -->
<g id="node12" class="node">
<title>Node20</title>
<g id="a_node12"><a xlink:href="_image_widget_8cpp.html" target="_top" xlink:title="src/Interface/ImageWidget.cpp">
<polygon fill="#ffffff" stroke="#000000" points="1351.2615,-62 1351.2615,-81 1502.2615,-81 1502.2615,-62 1351.2615,-62"/>
<text text-anchor="middle" x="1426.7615" y="-69" font-family="Helvetica,sans-Serif" font-size="10.00" fill="#000000">src/Interface/ImageWidget.cpp</text>
</a>
</g>
</g>
<!-- Node17&#45;&gt;Node20 -->
<g id="edge14" class="edge">
<title>Node17&#45;&gt;Node20</title>
<path fill="none" stroke="#191970" d="M1165.4347,-121.5673C1226.4163,-109.8839 1320.0341,-91.9478 1377.1047,-81.0137"/>
<polygon fill="#191970" stroke="#191970" points="1164.7283,-118.1389 1155.5656,-123.4581 1166.0455,-125.0138 1164.7283,-118.1389"/>
</g>
<!-- Node18&#45;&gt;Node11 -->
<g id="edge12" class="edge">
<title>Node18&#45;&gt;Node11</title>
<path fill="none" stroke="#191970" d="M1208.4587,-60.1215C1199.5757,-58.528 1190.4325,-57.0715 1181.7615,-56 1026.8407,-36.8566 546.1291,-17.7243 389.0109,-11.8372"/>
<polygon fill="#191970" stroke="#191970" points="1207.8657,-63.5712 1218.3382,-61.9656 1209.1502,-56.6901 1207.8657,-63.5712"/>
</g>
<!-- Node19 -->
<g id="node11" class="node">
<title>Node19</title>
<g id="a_node11"><a xlink:href="_grid_widget_8cpp.html" target="_top" xlink:title="src/Interface/GridWidget.cpp">
<polygon fill="#ffffff" stroke="#000000" points="1190.7615,-.5 1190.7615,-19.5 1332.7615,-19.5 1332.7615,-.5 1190.7615,-.5"/>
<text text-anchor="middle" x="1261.7615" y="-7.5" font-family="Helvetica,sans-Serif" font-size="10.00" fill="#000000">src/Interface/GridWidget.cpp</text>
</a>
</g>
</g>
<!-- Node18&#45;&gt;Node19 -->
<g id="edge13" class="edge">
<title>Node18&#45;&gt;Node19</title>
<path fill="none" stroke="#191970" d="M1261.7615,-51.7462C1261.7615,-41.0519 1261.7615,-28.314 1261.7615,-19.7449"/>
<polygon fill="#191970" stroke="#191970" points="1258.2616,-51.8906 1261.7615,-61.8906 1265.2616,-51.8907 1258.2616,-51.8906"/>
</g>
<!-- Node21&#45;&gt;Node11 -->
<g id="edge16" class="edge">
<title>Node21&#45;&gt;Node11</title>
<path fill="none" stroke="#191970" d="M784.5315,-123.7771C843.7038,-113.2881 913.4354,-92.6586 879.7615,-56 846.9212,-20.2488 516.6239,-12.2487 388.8542,-10.4874"/>
<polygon fill="#191970" stroke="#191970" points="783.664,-120.3742 774.39,-125.4969 784.8344,-127.2756 783.664,-120.3742"/>
</g>
<!-- Node21&#45;&gt;Node14 -->
<g id="edge19" class="edge">
<title>Node21&#45;&gt;Node14</title>
<path fill="none" stroke="#191970" d="M643.0115,-124.0471C552.3583,-112.5755 395.8762,-92.7738 303.0753,-81.0304"/>
<polygon fill="#191970" stroke="#191970" points="642.8316,-127.5521 653.1919,-125.3353 643.7105,-120.6075 642.8316,-127.5521"/>
</g>
<!-- Node21&#45;&gt;Node16 -->
<g id="edge20" class="edge">
<title>Node21&#45;&gt;Node16</title>
<path fill="none" stroke="#191970" d="M663.2119,-121.1343C613.4899,-109.463 538.5351,-91.8686 492.5069,-81.0643"/>
<polygon fill="#191970" stroke="#191970" points="662.5762,-124.5802 673.1115,-123.4581 664.1759,-117.7654 662.5762,-124.5802"/>
</g>
<!-- Node22 -->
<g id="node14" class="node">
<title>Node22</title>
<g id="a_node14"><a xlink:href="_button_widget_8cpp.html" target="_top" xlink:title="src/Interface/ButtonWidget.cpp">
<polygon fill="#ffffff" stroke="#000000" points="554.7615,-62 554.7615,-81 706.7615,-81 706.7615,-62 554.7615,-62"/>
<text text-anchor="middle" x="630.7615" y="-69" font-family="Helvetica,sans-Serif" font-size="10.00" fill="#000000">src/Interface/ButtonWidget.cpp</text>
</a>
</g>
</g>
<!-- Node21&#45;&gt;Node22 -->
<g id="edge17" class="edge">
<title>Node21&#45;&gt;Node22</title>
<path fill="none" stroke="#191970" d="M692.3692,-117.1491C676.9473,-105.722 656.6399,-90.6749 643.6392,-81.0419"/>
<polygon fill="#191970" stroke="#191970" points="690.6743,-120.2493 700.7928,-123.3906 694.8417,-114.625 690.6743,-120.2493"/>
</g>
<!-- Node23 -->
<g id="node15" class="node">
<title>Node23</title>
<g id="a_node15"><a xlink:href="_tag_selector_8cpp.html" target="_top" xlink:title="src/Interface/TagSelector.cpp">
<polygon fill="#ffffff" stroke="#000000" points="724.7615,-62 724.7615,-81 870.7615,-81 870.7615,-62 724.7615,-62"/>
<text text-anchor="middle" x="797.7615" y="-69" font-family="Helvetica,sans-Serif" font-size="10.00" fill="#000000">src/Interface/TagSelector.cpp</text>
</a>
</g>
</g>
<!-- Node21&#45;&gt;Node23 -->
<g id="edge18" class="edge">
<title>Node21&#45;&gt;Node23</title>
<path fill="none" stroke="#191970" d="M734.9752,-117.4685C750.6345,-106.0037 771.4484,-90.765 784.7287,-81.0419"/>
<polygon fill="#191970" stroke="#191970" points="732.8876,-114.6592 726.8865,-123.3906 737.0228,-120.3072 732.8876,-114.6592"/>
</g>
<!-- Node24 -->
<g id="node16" class="node">
<title>Node24</title>
<g id="a_node16"><a xlink:href="_text_box_8cpp.html" target="_top" xlink:title="src/Utilities/TextBox\l/TextBox.cpp">
<polygon fill="#ffffff" stroke="#000000" points="926.7615,-56.5 926.7615,-86.5 1032.7615,-86.5 1032.7615,-56.5 926.7615,-56.5"/>
<text text-anchor="start" x="934.7615" y="-74.5" font-family="Helvetica,sans-Serif" font-size="10.00" fill="#000000">src/Utilities/TextBox</text>
<text text-anchor="middle" x="979.7615" y="-63.5" font-family="Helvetica,sans-Serif" font-size="10.00" fill="#000000">/TextBox.cpp</text>
</a>
</g>
</g>
<!-- Node21&#45;&gt;Node24 -->
<g id="edge21" class="edge">
<title>Node21&#45;&gt;Node24</title>
<path fill="none" stroke="#191970" d="M764.7575,-121.2146C804.96,-111.923 862.4403,-98.6367 912.7615,-87 917.2981,-85.9509 922.0074,-84.8618 926.7315,-83.7691"/>
<polygon fill="#191970" stroke="#191970" points="763.8787,-117.8254 754.9237,-123.4874 765.455,-124.6456 763.8787,-117.8254"/>
</g>
<!-- Node25 -->
<g id="node17" class="node">
<title>Node25</title>
<g id="a_node17"><a xlink:href="_utilities_8cpp.html" target="_top" xlink:title="src/Utilities/Utilities.cpp">
<polygon fill="#ffffff" stroke="#000000" points="1051.2615,-62 1051.2615,-81 1172.2615,-81 1172.2615,-62 1051.2615,-62"/>
<text text-anchor="middle" x="1111.7615" y="-69" font-family="Helvetica,sans-Serif" font-size="10.00" fill="#000000">src/Utilities/Utilities.cpp</text>
</a>
</g>
</g>
<!-- Node21&#45;&gt;Node25 -->
<g id="edge22" class="edge">
<title>Node21&#45;&gt;Node25</title>
<path fill="none" stroke="#191970" d="M784.4081,-124.7211C851.0078,-116.5317 953.4905,-102.9372 1041.7615,-87 1051.3158,-85.275 1061.5464,-83.1622 1071.1541,-81.0581"/>
<polygon fill="#191970" stroke="#191970" points="783.9434,-121.2517 774.4419,-125.9391 784.7927,-128.2 783.9434,-121.2517"/>
</g>
</g>
</svg>
        <g id="navigator" transform="translate(0 0)" fill="#404254">
                <rect fill="#f2f5e9" fill-opacity="0.5" stroke="#606060" stroke-width=".5" x="0" y="0" width="60" height="60"/>
                <use id="zoomplus" xlink:href="#zoomPlus" x="17" y="9" onmousedown="handleZoom(evt,'in')"/>
                <use id="zoomminus" xlink:href="#zoomMin" x="42" y="9" onmousedown="handleZoom(evt,'out')"/>
                <use id="reset" xlink:href="#resetDef" x="30" y="36" onmousedown="handleReset()"/>
                <g id="arrowUp" xlink:href="#dirArrow" transform="translate(30 24)" onmousedown="handlePan(0,-1)">
                  <use xlink:href="#rim" fill="#404040">
                        <set attributeName="fill" to="#808080" begin="arrowUp.mouseover" end="arrowUp.mouseout"/>
                  </use>
                  <path fill="none" stroke="white" stroke-width="1.5" d="M0,-3.0v7 M-2.5,-0.5L0,-3.0L2.5,-0.5"/>
                </g>
                <g id="arrowRight" xlink:href="#dirArrow" transform="rotate(90) translate(36 -43)" onmousedown="handlePan(1,0)">
                  <use xlink:href="#rim" fill="#404040">
                        <set attributeName="fill" to="#808080" begin="arrowRight.mouseover" end="arrowRight.mouseout"/>
                  </use>
                  <path fill="none" stroke="white" stroke-width="1.5" d="M0,-3.0v7 M-2.5,-0.5L0,-3.0L2.5,-0.5"/>
                </g>
                <g id="arrowDown" xlink:href="#dirArrow" transform="rotate(180) translate(-30 -48)" onmousedown="handlePan(0,1)">
                  <use xlink:href="#rim" fill="#404040">
                        <set attributeName="fill" to="#808080" begin="arrowDown.mouseover" end="arrowDown.mouseout"/>
                  </use>
                  <path fill="none" stroke="white" stroke-width="1.5" d="M0,-3.0v7 M-2.5,-0.5L0,-3.0L2.5,-0.5"/>
                </g>
                <g id="arrowLeft" xlink:href="#dirArrow" transform="rotate(270) translate(-36 17)" onmousedown="handlePan(-1,0)">
                  <use xlink:href="#rim" fill="#404040">
                        <set attributeName="fill" to="#808080" begin="arrowLeft.mouseover" end="arrowLeft.mouseout"/>
                  </use>
                  <path fill="none" stroke="white" stroke-width="1.5" d="M0,-3.0v7 M-2.5,-0.5L0,-3.0L2.5,-0.5"/>
                </g>
        </g>
        <svg viewBox="0 0 15 15" width="100%" height="30px" preserveAspectRatio="xMaxYMin meet">
         <g id="arrow_out" transform="scale(0.3 0.3)">
          <a xlink:href="_image_8hpp__dep__incl_org.svg" target="_base">
           <rect id="button" ry="5" rx="5" y="6" x="6" height="38" width="38"
                fill="#f2f5e9" fill-opacity="0.5" stroke="#606060" stroke-width="1.0"/>
           <path id="arrow"
             d="M 11.500037,31.436501 C 11.940474,20.09759 22.043105,11.32322 32.158766,21.979434 L 37.068811,17.246167 C 37.068811,17.246167 37.088388,32 37.088388,32 L 22.160133,31.978069 C 22.160133,31.978069 26.997745,27.140456 26.997745,27.140456 C 18.528582,18.264221 13.291696,25.230495 11.500037,31.436501 z"
             style="fill:#404040;"/>
          </a>
         </g>
        </svg>
</svg>
