<?xml version="1.0" encoding="UTF-8" standalone="no"?>
<!DOCTYPE svg PUBLIC "-//W3C//DTD SVG 1.1//EN"
 "http://www.w3.org/Graphics/SVG/1.1/DTD/svg11.dtd">
<!-- Generated by graphviz version 2.40.1 (20161225.0304)
 -->
<!-- Title: src/Image/Image.hpp Pages: 1 -->
<svg width="861pt" height="140pt"
 viewBox="0.00 0.00 860.50 140.00" xmlns="http://www.w3.org/2000/svg" xmlns:xlink="http://www.w3.org/1999/xlink">
<g id="graph0" class="graph" transform="scale(1 1) rotate(0) translate(4 136)">
<title>src/Image/Image.hpp</title>
<polygon fill="#ffffff" stroke="transparent" points="-4,4 -4,-136 856.5,-136 856.5,4 -4,4"/>
<!-- Node0 -->
<g id="node1" class="node">
<title>Node0</title>
<polygon fill="#bfbfbf" stroke="#000000" points="516,-112.5 516,-131.5 625,-131.5 625,-112.5 516,-112.5"/>
<text text-anchor="middle" x="570.5" y="-119.5" font-family="Helvetica,sans-Serif" font-size="10.00" fill="#000000">src/Image/Image.hpp</text>
</g>
<!-- Node1 -->
<g id="node2" class="node">
<title>Node1</title>
<g id="a_node2"><a xlink:href="_tag_list_8hpp.html" target="_top" xlink:title="TagList.hpp">
<polygon fill="#ffffff" stroke="#000000" points="64.5,-56.5 64.5,-75.5 132.5,-75.5 132.5,-56.5 64.5,-56.5"/>
<text text-anchor="middle" x="98.5" y="-63.5" font-family="Helvetica,sans-Serif" font-size="10.00" fill="#000000">TagList.hpp</text>
</a>
</g>
</g>
<!-- Node0&#45;&gt;Node1 -->
<g id="edge1" class="edge">
<title>Node0&#45;&gt;Node1</title>
<path fill="none" stroke="#191970" d="M515.8945,-115.5214C421.4538,-104.3166 229.424,-81.5334 142.7289,-71.2475"/>
<polygon fill="#191970" stroke="#191970" points="143.0349,-67.7593 132.6921,-70.0567 142.2101,-74.7106 143.0349,-67.7593"/>
</g>
<!-- Node4 -->
<g id="node5" class="node">
<title>Node4</title>
<g id="a_node5"><a xlink:href="_c_img_8h.html" target="_top" xlink:title="../CImg.h">
<polygon fill="#ffffff" stroke="#000000" points="434.5,-56.5 434.5,-75.5 492.5,-75.5 492.5,-56.5 434.5,-56.5"/>
<text text-anchor="middle" x="463.5" y="-63.5" font-family="Helvetica,sans-Serif" font-size="10.00" fill="#000000">../CImg.h</text>
</a>
</g>
</g>
<!-- Node0&#45;&gt;Node4 -->
<g id="edge4" class="edge">
<title>Node0&#45;&gt;Node4</title>
<path fill="none" stroke="#191970" d="M551.862,-112.2455C535.0614,-103.4527 510.1366,-90.4079 491.0382,-80.4125"/>
<polygon fill="#191970" stroke="#191970" points="492.4073,-77.1787 481.9244,-75.6427 489.1614,-83.3807 492.4073,-77.1787"/>
</g>
<!-- Node16 -->
<g id="node17" class="node">
<title>Node16</title>
<polygon fill="#ffffff" stroke="#bfbfbf" points="510.5,-56.5 510.5,-75.5 630.5,-75.5 630.5,-56.5 510.5,-56.5"/>
<text text-anchor="middle" x="570.5" y="-63.5" font-family="Helvetica,sans-Serif" font-size="10.00" fill="#000000">experimental/filesystem</text>
</g>
<!-- Node0&#45;&gt;Node16 -->
<g id="edge16" class="edge">
<title>Node0&#45;&gt;Node16</title>
<path fill="none" stroke="#191970" d="M570.5,-112.2455C570.5,-104.9382 570.5,-94.6944 570.5,-85.7046"/>
<polygon fill="#191970" stroke="#191970" points="574.0001,-85.6426 570.5,-75.6427 567.0001,-85.6427 574.0001,-85.6426"/>
</g>
<!-- Node17 -->
<g id="node18" class="node">
<title>Node17</title>
<polygon fill="#ffffff" stroke="#bfbfbf" points="648.5,-56.5 648.5,-75.5 698.5,-75.5 698.5,-56.5 648.5,-56.5"/>
<text text-anchor="middle" x="673.5" y="-63.5" font-family="Helvetica,sans-Serif" font-size="10.00" fill="#000000">fstream</text>
</g>
<!-- Node0&#45;&gt;Node17 -->
<g id="edge17" class="edge">
<title>Node0&#45;&gt;Node17</title>
<path fill="none" stroke="#191970" d="M588.4412,-112.2455C604.54,-103.4928 628.3879,-90.527 646.7391,-80.5496"/>
<polygon fill="#191970" stroke="#191970" points="648.6507,-83.4942 655.7644,-75.6427 645.3071,-77.3444 648.6507,-83.4942"/>
</g>
<!-- Node18 -->
<g id="node19" class="node">
<title>Node18</title>
<polygon fill="#ffffff" stroke="#bfbfbf" points="716.5,-56.5 716.5,-75.5 768.5,-75.5 768.5,-56.5 716.5,-56.5"/>
<text text-anchor="middle" x="742.5" y="-63.5" font-family="Helvetica,sans-Serif" font-size="10.00" fill="#000000">memory</text>
</g>
<!-- Node0&#45;&gt;Node18 -->
<g id="edge18" class="edge">
<title>Node0&#45;&gt;Node18</title>
<path fill="none" stroke="#191970" d="M600.0679,-112.3733C629.6222,-102.7509 675.0961,-87.9455 706.6808,-77.6621"/>
<polygon fill="#191970" stroke="#191970" points="707.9846,-80.9185 716.4098,-74.4945 705.8175,-74.2624 707.9846,-80.9185"/>
</g>
<!-- Node2 -->
<g id="node3" class="node">
<title>Node2</title>
<polygon fill="#ffffff" stroke="#bfbfbf" points="0,-.5 0,-19.5 41,-19.5 41,-.5 0,-.5"/>
<text text-anchor="middle" x="20.5" y="-7.5" font-family="Helvetica,sans-Serif" font-size="10.00" fill="#000000">string</text>
</g>
<!-- Node1&#45;&gt;Node2 -->
<g id="edge2" class="edge">
<title>Node1&#45;&gt;Node2</title>
<path fill="none" stroke="#191970" d="M84.9134,-56.2455C73.1695,-47.814 55.9801,-35.4729 42.3118,-25.6598"/>
<polygon fill="#191970" stroke="#191970" points="44.0954,-22.6316 33.9309,-19.6427 40.0129,-28.3179 44.0954,-22.6316"/>
</g>
<!-- Node3 -->
<g id="node4" class="node">
<title>Node3</title>
<polygon fill="#ffffff" stroke="#bfbfbf" points="59.5,-.5 59.5,-19.5 137.5,-19.5 137.5,-.5 59.5,-.5"/>
<text text-anchor="middle" x="98.5" y="-7.5" font-family="Helvetica,sans-Serif" font-size="10.00" fill="#000000">unordered_set</text>
</g>
<!-- Node1&#45;&gt;Node3 -->
<g id="edge3" class="edge">
<title>Node1&#45;&gt;Node3</title>
<path fill="none" stroke="#191970" d="M98.5,-56.2455C98.5,-48.9382 98.5,-38.6944 98.5,-29.7046"/>
<polygon fill="#191970" stroke="#191970" points="102.0001,-29.6426 98.5,-19.6427 95.0001,-29.6427 102.0001,-29.6426"/>
</g>
<!-- Node5 -->
<g id="node6" class="node">
<title>Node5</title>
<polygon fill="#ffffff" stroke="#bfbfbf" points="156,-.5 156,-19.5 199,-19.5 199,-.5 156,-.5"/>
<text text-anchor="middle" x="177.5" y="-7.5" font-family="Helvetica,sans-Serif" font-size="10.00" fill="#000000">cstdio</text>
</g>
<!-- Node4&#45;&gt;Node5 -->
<g id="edge5" class="edge">
<title>Node4&#45;&gt;Node5</title>
<path fill="none" stroke="#191970" d="M434.4151,-62.1664C388.3465,-55.7955 295.6788,-41.7676 208.7669,-20.0593"/>
<polygon fill="#191970" stroke="#191970" points="209.5734,-16.653 199.0197,-17.5855 207.8514,-23.438 209.5734,-16.653"/>
</g>
<!-- Node6 -->
<g id="node7" class="node">
<title>Node6</title>
<polygon fill="#ffffff" stroke="#bfbfbf" points="217,-.5 217,-19.5 262,-19.5 262,-.5 217,-.5"/>
<text text-anchor="middle" x="239.5" y="-7.5" font-family="Helvetica,sans-Serif" font-size="10.00" fill="#000000">cstdlib</text>
</g>
<!-- Node4&#45;&gt;Node6 -->
<g id="edge6" class="edge">
<title>Node4&#45;&gt;Node6</title>
<path fill="none" stroke="#191970" d="M434.2173,-59.7677C398.0963,-51.9178 334.6369,-37.6009 271.7944,-20.2235"/>
<polygon fill="#191970" stroke="#191970" points="272.6979,-16.842 262.1251,-17.5236 270.8153,-23.5841 272.6979,-16.842"/>
</g>
<!-- Node7 -->
<g id="node8" class="node">
<title>Node7</title>
<polygon fill="#ffffff" stroke="#bfbfbf" points="280,-.5 280,-19.5 329,-19.5 329,-.5 280,-.5"/>
<text text-anchor="middle" x="304.5" y="-7.5" font-family="Helvetica,sans-Serif" font-size="10.00" fill="#000000">cstdarg</text>
</g>
<!-- Node4&#45;&gt;Node7 -->
<g id="edge7" class="edge">
<title>Node4&#45;&gt;Node7</title>
<path fill="none" stroke="#191970" d="M436.1669,-56.3733C409.2417,-46.8902 368.0231,-32.3729 338.8876,-22.1114"/>
<polygon fill="#191970" stroke="#191970" points="339.724,-18.6952 329.1292,-18.6744 337.3985,-25.2977 339.724,-18.6952"/>
</g>
<!-- Node8 -->
<g id="node9" class="node">
<title>Node8</title>
<polygon fill="#ffffff" stroke="#bfbfbf" points="347.5,-.5 347.5,-19.5 393.5,-19.5 393.5,-.5 347.5,-.5"/>
<text text-anchor="middle" x="370.5" y="-7.5" font-family="Helvetica,sans-Serif" font-size="10.00" fill="#000000">cstring</text>
</g>
<!-- Node4&#45;&gt;Node8 -->
<g id="edge8" class="edge">
<title>Node4&#45;&gt;Node8</title>
<path fill="none" stroke="#191970" d="M447.3006,-56.2455C432.8982,-47.5731 411.6268,-34.7645 395.1201,-24.825"/>
<polygon fill="#191970" stroke="#191970" points="396.886,-21.8028 386.5137,-19.6427 393.275,-27.7996 396.886,-21.8028"/>
</g>
<!-- Node9 -->
<g id="node10" class="node">
<title>Node9</title>
<polygon fill="#ffffff" stroke="#bfbfbf" points="411.5,-.5 411.5,-19.5 455.5,-19.5 455.5,-.5 411.5,-.5"/>
<text text-anchor="middle" x="433.5" y="-7.5" font-family="Helvetica,sans-Serif" font-size="10.00" fill="#000000">cmath</text>
</g>
<!-- Node4&#45;&gt;Node9 -->
<g id="edge9" class="edge">
<title>Node4&#45;&gt;Node9</title>
<path fill="none" stroke="#191970" d="M458.2744,-56.2455C454.1877,-48.617 448.3865,-37.7881 443.425,-28.5267"/>
<polygon fill="#191970" stroke="#191970" points="446.4732,-26.8047 438.6657,-19.6427 440.3028,-30.1103 446.4732,-26.8047"/>
</g>
<!-- Node10 -->
<g id="node11" class="node">
<title>Node10</title>
<polygon fill="#ffffff" stroke="#bfbfbf" points="474,-.5 474,-19.5 515,-19.5 515,-.5 474,-.5"/>
<text text-anchor="middle" x="494.5" y="-7.5" font-family="Helvetica,sans-Serif" font-size="10.00" fill="#000000">cfloat</text>
</g>
<!-- Node4&#45;&gt;Node10 -->
<g id="edge10" class="edge">
<title>Node4&#45;&gt;Node10</title>
<path fill="none" stroke="#191970" d="M468.8998,-56.2455C473.1227,-48.617 479.1173,-37.7881 484.2441,-28.5267"/>
<polygon fill="#191970" stroke="#191970" points="487.381,-30.0867 489.1621,-19.6427 481.2568,-26.6965 487.381,-30.0867"/>
</g>
<!-- Node11 -->
<g id="node12" class="node">
<title>Node11</title>
<polygon fill="#ffffff" stroke="#bfbfbf" points="533,-.5 533,-19.5 578,-19.5 578,-.5 533,-.5"/>
<text text-anchor="middle" x="555.5" y="-7.5" font-family="Helvetica,sans-Serif" font-size="10.00" fill="#000000">climits</text>
</g>
<!-- Node4&#45;&gt;Node11 -->
<g id="edge11" class="edge">
<title>Node4&#45;&gt;Node11</title>
<path fill="none" stroke="#191970" d="M479.5252,-56.2455C493.6408,-47.6534 514.4263,-35.0014 530.6899,-25.1018"/>
<polygon fill="#191970" stroke="#191970" points="532.9363,-27.8319 539.6585,-19.6427 529.2966,-21.8525 532.9363,-27.8319"/>
</g>
<!-- Node12 -->
<g id="node13" class="node">
<title>Node12</title>
<polygon fill="#ffffff" stroke="#bfbfbf" points="596,-.5 596,-19.5 637,-19.5 637,-.5 596,-.5"/>
<text text-anchor="middle" x="616.5" y="-7.5" font-family="Helvetica,sans-Serif" font-size="10.00" fill="#000000">ctime</text>
</g>
<!-- Node4&#45;&gt;Node12 -->
<g id="edge12" class="edge">
<title>Node4&#45;&gt;Node12</title>
<path fill="none" stroke="#191970" d="M489.8016,-56.3733C516.5869,-46.5695 558.072,-31.3854 586.2132,-21.0854"/>
<polygon fill="#191970" stroke="#191970" points="587.7376,-24.2546 595.9253,-17.5306 585.3316,-17.681 587.7376,-24.2546"/>
</g>
<!-- Node13 -->
<g id="node14" class="node">
<title>Node13</title>
<polygon fill="#ffffff" stroke="#bfbfbf" points="655,-.5 655,-19.5 714,-19.5 714,-.5 655,-.5"/>
<text text-anchor="middle" x="684.5" y="-7.5" font-family="Helvetica,sans-Serif" font-size="10.00" fill="#000000">exception</text>
</g>
<!-- Node4&#45;&gt;Node13 -->
<g id="edge13" class="edge">
<title>Node4&#45;&gt;Node13</title>
<path fill="none" stroke="#191970" d="M492.5353,-58.3145C495.561,-57.527 498.592,-56.7436 501.5,-56 562.8156,-40.3214 580.5318,-36.7697 644.8076,-20.4098"/>
<polygon fill="#191970" stroke="#191970" points="645.8158,-23.7647 654.6395,-17.9001 644.0845,-16.9822 645.8158,-23.7647"/>
</g>
<!-- Node14 -->
<g id="node15" class="node">
<title>Node14</title>
<polygon fill="#ffffff" stroke="#bfbfbf" points="732.5,-.5 732.5,-19.5 788.5,-19.5 788.5,-.5 732.5,-.5"/>
<text text-anchor="middle" x="760.5" y="-7.5" font-family="Helvetica,sans-Serif" font-size="10.00" fill="#000000">algorithm</text>
</g>
<!-- Node4&#45;&gt;Node14 -->
<g id="edge14" class="edge">
<title>Node4&#45;&gt;Node14</title>
<path fill="none" stroke="#191970" d="M492.8914,-57.9657C495.7912,-57.2632 498.6972,-56.5946 501.5,-56 596.1284,-35.9253 624.0072,-40.7207 722.2392,-20.0929"/>
<polygon fill="#191970" stroke="#191970" points="723.2433,-23.4574 732.2916,-17.9457 721.7811,-16.6118 723.2433,-23.4574"/>
</g>
<!-- Node15 -->
<g id="node16" class="node">
<title>Node15</title>
<polygon fill="#ffffff" stroke="#bfbfbf" points="806.5,-.5 806.5,-19.5 852.5,-19.5 852.5,-.5 806.5,-.5"/>
<text text-anchor="middle" x="829.5" y="-7.5" font-family="Helvetica,sans-Serif" font-size="10.00" fill="#000000">stdio.h</text>
</g>
<!-- Node4&#45;&gt;Node15 -->
<g id="edge15" class="edge">
<title>Node4&#45;&gt;Node15</title>
<path fill="none" stroke="#191970" d="M492.8678,-57.8487C495.7724,-57.17 498.6859,-56.5388 501.5,-56 628.4829,-31.6872 666.1133,-47.0841 796.2643,-19.9348"/>
<polygon fill="#191970" stroke="#191970" points="797.161,-23.3224 806.2121,-17.8153 795.7023,-16.476 797.161,-23.3224"/>
</g>
</g>
</svg>
