<?xml version="1.0" encoding="UTF-8" standalone="no"?>
<!DOCTYPE svg PUBLIC "-//W3C//DTD SVG 1.1//EN"
 "http://www.w3.org/Graphics/SVG/1.1/DTD/svg11.dtd">
<!-- Generated by graphviz version 2.40.1 (20161225.0304)
 -->
<!-- Title: src/Interface/ImageWidget.hpp Pages: 1 -->
<svg width="368pt" height="140pt"
 viewBox="0.00 0.00 367.50 140.00" xmlns="http://www.w3.org/2000/svg" xmlns:xlink="http://www.w3.org/1999/xlink">
<g id="graph0" class="graph" transform="scale(1 1) rotate(0) translate(4 136)">
<title>src/Interface/ImageWidget.hpp</title>
<polygon fill="#ffffff" stroke="transparent" points="-4,4 -4,-136 363.5,-136 363.5,4 -4,4"/>
<!-- Node15 -->
<g id="node1" class="node">
<title>Node15</title>
<polygon fill="#bfbfbf" stroke="#000000" points="125.5,-112.5 125.5,-131.5 276.5,-131.5 276.5,-112.5 125.5,-112.5"/>
<text text-anchor="middle" x="201" y="-119.5" font-family="Helvetica,sans-Serif" font-size="10.00" fill="#000000">src/Interface/ImageWidget.hpp</text>
</g>
<!-- Node16 -->
<g id="node2" class="node">
<title>Node16</title>
<g id="a_node2"><a xlink:href="_grid_widget_8hpp.html" target="_top" xlink:title="src/Interface/GridWidget.hpp">
<polygon fill="#ffffff" stroke="#000000" points="48,-56.5 48,-75.5 190,-75.5 190,-56.5 48,-56.5"/>
<text text-anchor="middle" x="119" y="-63.5" font-family="Helvetica,sans-Serif" font-size="10.00" fill="#000000">src/Interface/GridWidget.hpp</text>
</a>
</g>
</g>
<!-- Node15&#45;&gt;Node16 -->
<g id="edge1" class="edge">
<title>Node15&#45;&gt;Node16</title>
<path fill="none" stroke="#191970" d="M178.289,-106.49C163.8212,-96.6096 145.532,-84.1194 133.1196,-75.6427"/>
<polygon fill="#191970" stroke="#191970" points="176.4848,-109.4962 186.7167,-112.2455 180.4325,-103.7156 176.4848,-109.4962"/>
</g>
<!-- Node19 -->
<g id="node5" class="node">
<title>Node19</title>
<g id="a_node5"><a xlink:href="_image_widget_8cpp.html" target="_top" xlink:title="src/Interface/ImageWidget.cpp">
<polygon fill="#ffffff" stroke="#000000" points="208.5,-56.5 208.5,-75.5 359.5,-75.5 359.5,-56.5 208.5,-56.5"/>
<text text-anchor="middle" x="284" y="-63.5" font-family="Helvetica,sans-Serif" font-size="10.00" fill="#000000">src/Interface/ImageWidget.cpp</text>
</a>
</g>
</g>
<!-- Node15&#45;&gt;Node19 -->
<g id="edge4" class="edge">
<title>Node15&#45;&gt;Node19</title>
<path fill="none" stroke="#191970" d="M223.988,-106.49C238.6322,-96.6096 257.1444,-84.1194 269.7082,-75.6427"/>
<polygon fill="#191970" stroke="#191970" points="221.7896,-103.7511 215.4575,-112.2455 225.7047,-109.5539 221.7896,-103.7511"/>
</g>
<!-- Node17 -->
<g id="node3" class="node">
<title>Node17</title>
<g id="a_node3"><a xlink:href="_application_8cpp.html" target="_top" xlink:title="src/Application.cpp">
<polygon fill="#ffffff" stroke="#000000" points="0,-.5 0,-19.5 100,-19.5 100,-.5 0,-.5"/>
<text text-anchor="middle" x="50" y="-7.5" font-family="Helvetica,sans-Serif" font-size="10.00" fill="#000000">src/Application.cpp</text>
</a>
</g>
</g>
<!-- Node16&#45;&gt;Node17 -->
<g id="edge2" class="edge">
<title>Node16&#45;&gt;Node17</title>
<path fill="none" stroke="#191970" d="M99.197,-49.928C87.1364,-40.1397 72.1286,-27.9595 61.8812,-19.6427"/>
<polygon fill="#191970" stroke="#191970" points="97.0109,-52.6614 106.9811,-56.2455 101.4221,-47.2262 97.0109,-52.6614"/>
</g>
<!-- Node18 -->
<g id="node4" class="node">
<title>Node18</title>
<g id="a_node4"><a xlink:href="_grid_widget_8cpp.html" target="_top" xlink:title="src/Interface/GridWidget.cpp">
<polygon fill="#ffffff" stroke="#000000" points="118,-.5 118,-19.5 260,-19.5 260,-.5 118,-.5"/>
<text text-anchor="middle" x="189" y="-7.5" font-family="Helvetica,sans-Serif" font-size="10.00" fill="#000000">src/Interface/GridWidget.cpp</text>
</a>
</g>
</g>
<!-- Node16&#45;&gt;Node18 -->
<g id="edge3" class="edge">
<title>Node16&#45;&gt;Node18</title>
<path fill="none" stroke="#191970" d="M139.09,-49.928C151.3253,-40.1397 166.5507,-27.9595 176.9467,-19.6427"/>
<polygon fill="#191970" stroke="#191970" points="136.8153,-47.2655 131.1931,-56.2455 141.1882,-52.7316 136.8153,-47.2655"/>
</g>
</g>
</svg>
