<?xml version="1.0" encoding="UTF-8" standalone="no"?>
<!DOCTYPE svg PUBLIC "-//W3C//DTD SVG 1.1//EN"
 "http://www.w3.org/Graphics/SVG/1.1/DTD/svg11.dtd">
<!-- Generated by graphviz version 2.40.1 (20161225.0304)
 -->
<!-- Title: operator&gt;&gt; Pages: 1 -->
<svg width="203pt" height="66pt"
 viewBox="0.00 0.00 203.00 66.00" xmlns="http://www.w3.org/2000/svg" xmlns:xlink="http://www.w3.org/1999/xlink">
<g id="graph0" class="graph" transform="scale(1 1) rotate(0) translate(4 62)">
<title>operator&gt;&gt;</title>
<polygon fill="#ffffff" stroke="transparent" points="-4,4 -4,-62 199,-62 199,4 -4,4"/>
<!-- Node4 -->
<g id="node1" class="node">
<title>Node4</title>
<polygon fill="#bfbfbf" stroke="#000000" points="0,-19.5 0,-38.5 64,-38.5 64,-19.5 0,-19.5"/>
<text text-anchor="middle" x="32" y="-26.5" font-family="Helvetica,sans-Serif" font-size="10.00" fill="#000000">operator&gt;&gt;</text>
</g>
<!-- Node5 -->
<g id="node2" class="node">
<title>Node5</title>
<g id="a_node2"><a xlink:href="class_image.html#aa7e74a9b3f93aa445f5c4b83fe6a98ae" target="_top" xlink:title="Image::setPath">
<polygon fill="#ffffff" stroke="#000000" points="106,-38.5 106,-57.5 189,-57.5 189,-38.5 106,-38.5"/>
<text text-anchor="middle" x="147.5" y="-45.5" font-family="Helvetica,sans-Serif" font-size="10.00" fill="#000000">Image::setPath</text>
</a>
</g>
</g>
<!-- Node4&#45;&gt;Node5 -->
<g id="edge1" class="edge">
<title>Node4&#45;&gt;Node5</title>
<path fill="none" stroke="#191970" d="M64.1732,-34.2926C73.9863,-35.9068 85.0342,-37.7242 95.7987,-39.495"/>
<polygon fill="#191970" stroke="#191970" points="95.5473,-43.0006 105.9829,-41.1703 96.6836,-36.0935 95.5473,-43.0006"/>
</g>
<!-- Node6 -->
<g id="node3" class="node">
<title>Node6</title>
<g id="a_node3"><a xlink:href="class_image.html#ac4e0093c25838e5ca2e13e0cce4a7300" target="_top" xlink:title="Image::setTagList">
<polygon fill="#ffffff" stroke="#000000" points="100,-.5 100,-19.5 195,-19.5 195,-.5 100,-.5"/>
<text text-anchor="middle" x="147.5" y="-7.5" font-family="Helvetica,sans-Serif" font-size="10.00" fill="#000000">Image::setTagList</text>
</a>
</g>
</g>
<!-- Node4&#45;&gt;Node6 -->
<g id="edge2" class="edge">
<title>Node4&#45;&gt;Node6</title>
<path fill="none" stroke="#191970" d="M64.1732,-23.7074C72.2238,-22.3831 81.1053,-20.9221 89.9797,-19.4622"/>
<polygon fill="#191970" stroke="#191970" points="90.6521,-22.8987 99.9514,-17.8219 89.5158,-15.9916 90.6521,-22.8987"/>
</g>
</g>
</svg>
