<?xml version="1.0" encoding="UTF-8" standalone="no"?>
<!DOCTYPE svg PUBLIC "-//W3C//DTD SVG 1.1//EN"
 "http://www.w3.org/Graphics/SVG/1.1/DTD/svg11.dtd">
<!-- Generated by graphviz version 2.40.1 (20161225.0304)
 -->
<!-- Title: src/Image/Image.hpp Pages: 1 -->
<svg width="310pt" height="140pt"
 viewBox="0.00 0.00 309.50 140.00" xmlns="http://www.w3.org/2000/svg" xmlns:xlink="http://www.w3.org/1999/xlink">
<g id="graph0" class="graph" transform="scale(1 1) rotate(0) translate(4 136)">
<title>src/Image/Image.hpp</title>
<polygon fill="#ffffff" stroke="transparent" points="-4,4 -4,-136 305.5,-136 305.5,4 -4,4"/>
<!-- Node0 -->
<g id="node1" class="node">
<title>Node0</title>
<polygon fill="#bfbfbf" stroke="#000000" points="117,-112.5 117,-131.5 226,-131.5 226,-112.5 117,-112.5"/>
<text text-anchor="middle" x="171.5" y="-119.5" font-family="Helvetica,sans-Serif" font-size="10.00" fill="#000000">src/Image/Image.hpp</text>
</g>
<!-- Node1 -->
<g id="node2" class="node">
<title>Node1</title>
<g id="a_node2"><a xlink:href="_tag_list_8hpp.html" target="_top" xlink:title="TagList.hpp">
<polygon fill="#ffffff" stroke="#000000" points="25.5,-56.5 25.5,-75.5 93.5,-75.5 93.5,-56.5 25.5,-56.5"/>
<text text-anchor="middle" x="59.5" y="-63.5" font-family="Helvetica,sans-Serif" font-size="10.00" fill="#000000">TagList.hpp</text>
</a>
</g>
</g>
<!-- Node0&#45;&gt;Node1 -->
<g id="edge1" class="edge">
<title>Node0&#45;&gt;Node1</title>
<path fill="none" stroke="#191970" d="M152.2465,-112.3733C134.4288,-103.4644 107.7253,-90.1127 87.5406,-80.0203"/>
<polygon fill="#191970" stroke="#191970" points="89.0118,-76.8428 78.5022,-75.5011 85.8813,-83.1038 89.0118,-76.8428"/>
</g>
<!-- Node4 -->
<g id="node5" class="node">
<title>Node4</title>
<polygon fill="#ffffff" stroke="#bfbfbf" points="111.5,-56.5 111.5,-75.5 231.5,-75.5 231.5,-56.5 111.5,-56.5"/>
<text text-anchor="middle" x="171.5" y="-63.5" font-family="Helvetica,sans-Serif" font-size="10.00" fill="#000000">experimental/filesystem</text>
</g>
<!-- Node0&#45;&gt;Node4 -->
<g id="edge4" class="edge">
<title>Node0&#45;&gt;Node4</title>
<path fill="none" stroke="#191970" d="M171.5,-112.2455C171.5,-104.9382 171.5,-94.6944 171.5,-85.7046"/>
<polygon fill="#191970" stroke="#191970" points="175.0001,-85.6426 171.5,-75.6427 168.0001,-85.6427 175.0001,-85.6426"/>
</g>
<!-- Node5 -->
<g id="node6" class="node">
<title>Node5</title>
<polygon fill="#ffffff" stroke="#bfbfbf" points="249.5,-56.5 249.5,-75.5 301.5,-75.5 301.5,-56.5 249.5,-56.5"/>
<text text-anchor="middle" x="275.5" y="-63.5" font-family="Helvetica,sans-Serif" font-size="10.00" fill="#000000">memory</text>
</g>
<!-- Node0&#45;&gt;Node5 -->
<g id="edge5" class="edge">
<title>Node0&#45;&gt;Node5</title>
<path fill="none" stroke="#191970" d="M189.6154,-112.2455C205.945,-103.4527 230.171,-90.4079 248.7339,-80.4125"/>
<polygon fill="#191970" stroke="#191970" points="250.4468,-83.4654 257.5922,-75.6427 247.1281,-77.3021 250.4468,-83.4654"/>
</g>
<!-- Node2 -->
<g id="node3" class="node">
<title>Node2</title>
<polygon fill="#ffffff" stroke="#bfbfbf" points="0,-.5 0,-19.5 41,-19.5 41,-.5 0,-.5"/>
<text text-anchor="middle" x="20.5" y="-7.5" font-family="Helvetica,sans-Serif" font-size="10.00" fill="#000000">string</text>
</g>
<!-- Node1&#45;&gt;Node2 -->
<g id="edge2" class="edge">
<title>Node1&#45;&gt;Node2</title>
<path fill="none" stroke="#191970" d="M52.7067,-56.2455C47.2822,-48.4564 39.5339,-37.3308 32.9967,-27.9439"/>
<polygon fill="#191970" stroke="#191970" points="35.8025,-25.8485 27.2154,-19.6427 30.0583,-29.849 35.8025,-25.8485"/>
</g>
<!-- Node3 -->
<g id="node4" class="node">
<title>Node3</title>
<polygon fill="#ffffff" stroke="#bfbfbf" points="59.5,-.5 59.5,-19.5 137.5,-19.5 137.5,-.5 59.5,-.5"/>
<text text-anchor="middle" x="98.5" y="-7.5" font-family="Helvetica,sans-Serif" font-size="10.00" fill="#000000">unordered_set</text>
</g>
<!-- Node1&#45;&gt;Node3 -->
<g id="edge3" class="edge">
<title>Node1&#45;&gt;Node3</title>
<path fill="none" stroke="#191970" d="M66.2933,-56.2455C71.7178,-48.4564 79.4661,-37.3308 86.0033,-27.9439"/>
<polygon fill="#191970" stroke="#191970" points="88.9417,-29.849 91.7846,-19.6427 83.1975,-25.8485 88.9417,-29.849"/>
</g>
</g>
</svg>
