<?xml version="1.0" encoding="UTF-8" standalone="no"?>
<!DOCTYPE svg PUBLIC "-//W3C//DTD SVG 1.1//EN"
 "http://www.w3.org/Graphics/SVG/1.1/DTD/svg11.dtd">
<!-- Generated by graphviz version 2.40.1 (20161225.0304)
 -->
<!-- Title: src/Image/Image.cpp Pages: 1 -->
<svg width="469pt" height="196pt"
 viewBox="0.00 0.00 468.50 196.00" xmlns="http://www.w3.org/2000/svg" xmlns:xlink="http://www.w3.org/1999/xlink">
<g id="graph0" class="graph" transform="scale(1 1) rotate(0) translate(4 192)">
<title>src/Image/Image.cpp</title>
<polygon fill="#ffffff" stroke="transparent" points="-4,4 -4,-192 464.5,-192 464.5,4 -4,4"/>
<!-- Node0 -->
<g id="node1" class="node">
<title>Node0</title>
<polygon fill="#bfbfbf" stroke="#000000" points="246,-168.5 246,-187.5 355,-187.5 355,-168.5 246,-168.5"/>
<text text-anchor="middle" x="300.5" y="-175.5" font-family="Helvetica,sans-Serif" font-size="10.00" fill="#000000">src/Image/Image.cpp</text>
</g>
<!-- Node1 -->
<g id="node2" class="node">
<title>Node1</title>
<g id="a_node2"><a xlink:href="_image_8hpp.html" target="_top" xlink:title="Image.hpp">
<polygon fill="#ffffff" stroke="#000000" points="231.5,-112.5 231.5,-131.5 293.5,-131.5 293.5,-112.5 231.5,-112.5"/>
<text text-anchor="middle" x="262.5" y="-119.5" font-family="Helvetica,sans-Serif" font-size="10.00" fill="#000000">Image.hpp</text>
</a>
</g>
</g>
<!-- Node0&#45;&gt;Node1 -->
<g id="edge1" class="edge">
<title>Node0&#45;&gt;Node1</title>
<path fill="none" stroke="#191970" d="M293.8809,-168.2455C288.5954,-160.4564 281.0459,-149.3308 274.6762,-139.9439"/>
<polygon fill="#191970" stroke="#191970" points="277.5545,-137.9522 269.0432,-131.6427 271.7621,-141.8827 277.5545,-137.9522"/>
</g>
<!-- Node10 -->
<g id="node11" class="node">
<title>Node10</title>
<polygon fill="#ffffff" stroke="#bfbfbf" points="311.5,-112.5 311.5,-131.5 365.5,-131.5 365.5,-112.5 311.5,-112.5"/>
<text text-anchor="middle" x="338.5" y="-119.5" font-family="Helvetica,sans-Serif" font-size="10.00" fill="#000000">iostream</text>
</g>
<!-- Node0&#45;&gt;Node10 -->
<g id="edge10" class="edge">
<title>Node0&#45;&gt;Node10</title>
<path fill="none" stroke="#191970" d="M307.1191,-168.2455C312.4046,-160.4564 319.9541,-149.3308 326.3238,-139.9439"/>
<polygon fill="#191970" stroke="#191970" points="329.2379,-141.8827 331.9568,-131.6427 323.4455,-137.9522 329.2379,-141.8827"/>
</g>
<!-- Node2 -->
<g id="node3" class="node">
<title>Node2</title>
<g id="a_node3"><a xlink:href="_tag_list_8hpp.html" target="_top" xlink:title="TagList.hpp">
<polygon fill="#ffffff" stroke="#000000" points="40.5,-56.5 40.5,-75.5 108.5,-75.5 108.5,-56.5 40.5,-56.5"/>
<text text-anchor="middle" x="74.5" y="-63.5" font-family="Helvetica,sans-Serif" font-size="10.00" fill="#000000">TagList.hpp</text>
</a>
</g>
</g>
<!-- Node1&#45;&gt;Node2 -->
<g id="edge2" class="edge">
<title>Node1&#45;&gt;Node2</title>
<path fill="none" stroke="#191970" d="M231.4556,-112.7527C200.0366,-103.3939 151.2509,-88.862 116.4135,-78.4849"/>
<polygon fill="#191970" stroke="#191970" points="117.1178,-75.0428 106.5348,-75.5423 115.1194,-81.7515 117.1178,-75.0428"/>
</g>
<!-- Node6 -->
<g id="node7" class="node">
<title>Node6</title>
<polygon fill="#ffffff" stroke="#bfbfbf" points="126.5,-56.5 126.5,-75.5 184.5,-75.5 184.5,-56.5 126.5,-56.5"/>
<text text-anchor="middle" x="155.5" y="-63.5" font-family="Helvetica,sans-Serif" font-size="10.00" fill="#000000">../CImg.h</text>
</g>
<!-- Node1&#45;&gt;Node6 -->
<g id="edge6" class="edge">
<title>Node1&#45;&gt;Node6</title>
<path fill="none" stroke="#191970" d="M243.862,-112.2455C227.0614,-103.4527 202.1366,-90.4079 183.0382,-80.4125"/>
<polygon fill="#191970" stroke="#191970" points="184.4073,-77.1787 173.9244,-75.6427 181.1614,-83.3807 184.4073,-77.1787"/>
</g>
<!-- Node7 -->
<g id="node8" class="node">
<title>Node7</title>
<polygon fill="#ffffff" stroke="#bfbfbf" points="202.5,-56.5 202.5,-75.5 322.5,-75.5 322.5,-56.5 202.5,-56.5"/>
<text text-anchor="middle" x="262.5" y="-63.5" font-family="Helvetica,sans-Serif" font-size="10.00" fill="#000000">experimental/filesystem</text>
</g>
<!-- Node1&#45;&gt;Node7 -->
<g id="edge7" class="edge">
<title>Node1&#45;&gt;Node7</title>
<path fill="none" stroke="#191970" d="M262.5,-112.2455C262.5,-104.9382 262.5,-94.6944 262.5,-85.7046"/>
<polygon fill="#191970" stroke="#191970" points="266.0001,-85.6426 262.5,-75.6427 259.0001,-85.6427 266.0001,-85.6426"/>
</g>
<!-- Node8 -->
<g id="node9" class="node">
<title>Node8</title>
<polygon fill="#ffffff" stroke="#bfbfbf" points="340.5,-56.5 340.5,-75.5 390.5,-75.5 390.5,-56.5 340.5,-56.5"/>
<text text-anchor="middle" x="365.5" y="-63.5" font-family="Helvetica,sans-Serif" font-size="10.00" fill="#000000">fstream</text>
</g>
<!-- Node1&#45;&gt;Node8 -->
<g id="edge8" class="edge">
<title>Node1&#45;&gt;Node8</title>
<path fill="none" stroke="#191970" d="M280.4412,-112.2455C296.54,-103.4928 320.3879,-90.527 338.7391,-80.5496"/>
<polygon fill="#191970" stroke="#191970" points="340.6507,-83.4942 347.7644,-75.6427 337.3071,-77.3444 340.6507,-83.4942"/>
</g>
<!-- Node9 -->
<g id="node10" class="node">
<title>Node9</title>
<polygon fill="#ffffff" stroke="#bfbfbf" points="408.5,-56.5 408.5,-75.5 460.5,-75.5 460.5,-56.5 408.5,-56.5"/>
<text text-anchor="middle" x="434.5" y="-63.5" font-family="Helvetica,sans-Serif" font-size="10.00" fill="#000000">memory</text>
</g>
<!-- Node1&#45;&gt;Node9 -->
<g id="edge9" class="edge">
<title>Node1&#45;&gt;Node9</title>
<path fill="none" stroke="#191970" d="M292.0679,-112.3733C321.6222,-102.7509 367.0961,-87.9455 398.6808,-77.6621"/>
<polygon fill="#191970" stroke="#191970" points="399.9846,-80.9185 408.4098,-74.4945 397.8175,-74.2624 399.9846,-80.9185"/>
</g>
<!-- Node3 -->
<g id="node4" class="node">
<title>Node3</title>
<polygon fill="#ffffff" stroke="#bfbfbf" points="0,-.5 0,-19.5 41,-19.5 41,-.5 0,-.5"/>
<text text-anchor="middle" x="20.5" y="-7.5" font-family="Helvetica,sans-Serif" font-size="10.00" fill="#000000">string</text>
</g>
<!-- Node2&#45;&gt;Node3 -->
<g id="edge3" class="edge">
<title>Node2&#45;&gt;Node3</title>
<path fill="none" stroke="#191970" d="M65.0939,-56.2455C57.3507,-48.2155 46.188,-36.6394 36.9682,-27.0781"/>
<polygon fill="#191970" stroke="#191970" points="39.2591,-24.4117 29.7983,-19.6427 34.2202,-29.2706 39.2591,-24.4117"/>
</g>
<!-- Node4 -->
<g id="node5" class="node">
<title>Node4</title>
<polygon fill="#ffffff" stroke="#bfbfbf" points="59.5,-.5 59.5,-19.5 89.5,-19.5 89.5,-.5 59.5,-.5"/>
<text text-anchor="middle" x="74.5" y="-7.5" font-family="Helvetica,sans-Serif" font-size="10.00" fill="#000000">set</text>
</g>
<!-- Node2&#45;&gt;Node4 -->
<g id="edge4" class="edge">
<title>Node2&#45;&gt;Node4</title>
<path fill="none" stroke="#191970" d="M74.5,-56.2455C74.5,-48.9382 74.5,-38.6944 74.5,-29.7046"/>
<polygon fill="#191970" stroke="#191970" points="78.0001,-29.6426 74.5,-19.6427 71.0001,-29.6427 78.0001,-29.6426"/>
</g>
<!-- Node5 -->
<g id="node6" class="node">
<title>Node5</title>
<polygon fill="#ffffff" stroke="#bfbfbf" points="107.5,-.5 107.5,-19.5 153.5,-19.5 153.5,-.5 107.5,-.5"/>
<text text-anchor="middle" x="130.5" y="-7.5" font-family="Helvetica,sans-Serif" font-size="10.00" fill="#000000">cctype</text>
</g>
<!-- Node2&#45;&gt;Node5 -->
<g id="edge5" class="edge">
<title>Node2&#45;&gt;Node5</title>
<path fill="none" stroke="#191970" d="M84.2545,-56.2455C92.3648,-48.1352 104.0925,-36.4075 113.7081,-26.7919"/>
<polygon fill="#191970" stroke="#191970" points="116.2611,-29.1887 120.8573,-19.6427 111.3113,-24.2389 116.2611,-29.1887"/>
</g>
</g>
</svg>
