<?xml version="1.0" encoding="UTF-8" standalone="no"?>
<!DOCTYPE svg PUBLIC "-//W3C//DTD SVG 1.1//EN"
 "http://www.w3.org/Graphics/SVG/1.1/DTD/svg11.dtd">
<!-- Generated by graphviz version 2.40.1 (20161225.0304)
 -->
<!-- Title: src/Interface/ListWidget.cpp Pages: 1 -->
<svg width="467pt" height="308pt"
 viewBox="0.00 0.00 467.00 308.00" xmlns="http://www.w3.org/2000/svg" xmlns:xlink="http://www.w3.org/1999/xlink">
<g id="graph0" class="graph" transform="scale(1 1) rotate(0) translate(4 304)">
<title>src/Interface/ListWidget.cpp</title>
<polygon fill="#ffffff" stroke="transparent" points="-4,4 -4,-304 463,-304 463,4 -4,4"/>
<!-- Node0 -->
<g id="node1" class="node">
<title>Node0</title>
<polygon fill="#bfbfbf" stroke="#000000" points="261,-280.5 261,-299.5 401,-299.5 401,-280.5 261,-280.5"/>
<text text-anchor="middle" x="331" y="-287.5" font-family="Helvetica,sans-Serif" font-size="10.00" fill="#000000">src/Interface/ListWidget.cpp</text>
</g>
<!-- Node1 -->
<g id="node2" class="node">
<title>Node1</title>
<g id="a_node2"><a xlink:href="_list_widget_8hpp.html" target="_top" xlink:title="ListWidget.hpp">
<polygon fill="#ffffff" stroke="#000000" points="110,-224.5 110,-243.5 192,-243.5 192,-224.5 110,-224.5"/>
<text text-anchor="middle" x="151" y="-231.5" font-family="Helvetica,sans-Serif" font-size="10.00" fill="#000000">ListWidget.hpp</text>
</a>
</g>
</g>
<!-- Node0&#45;&gt;Node1 -->
<g id="edge1" class="edge">
<title>Node0&#45;&gt;Node1</title>
<path fill="none" stroke="#191970" d="M300.0569,-280.3733C269.9961,-271.021 224.1974,-256.7725 191.3022,-246.5385"/>
<polygon fill="#191970" stroke="#191970" points="192.1277,-243.1299 181.5393,-243.5011 190.0481,-249.8139 192.1277,-243.1299"/>
</g>
<!-- Node7 -->
<g id="node8" class="node">
<title>Node7</title>
<polygon fill="#ffffff" stroke="#bfbfbf" points="235.5,-112.5 235.5,-131.5 294.5,-131.5 294.5,-112.5 235.5,-112.5"/>
<text text-anchor="middle" x="265" y="-119.5" font-family="Helvetica,sans-Serif" font-size="10.00" fill="#000000">functional</text>
</g>
<!-- Node0&#45;&gt;Node7 -->
<g id="edge13" class="edge">
<title>Node0&#45;&gt;Node7</title>
<path fill="none" stroke="#191970" d="M327.4207,-280.4784C319.6637,-259.8949 300.6578,-209.7408 284,-168 280.4871,-159.1975 276.4964,-149.4933 273.0823,-141.2761"/>
<polygon fill="#191970" stroke="#191970" points="276.2269,-139.7233 269.1455,-131.8427 269.7669,-142.4193 276.2269,-139.7233"/>
</g>
<!-- Node10 -->
<g id="node11" class="node">
<title>Node10</title>
<polygon fill="#ffffff" stroke="#bfbfbf" points="331,-224.5 331,-243.5 387,-243.5 387,-224.5 331,-224.5"/>
<text text-anchor="middle" x="359" y="-231.5" font-family="Helvetica,sans-Serif" font-size="10.00" fill="#000000">algorithm</text>
</g>
<!-- Node0&#45;&gt;Node10 -->
<g id="edge12" class="edge">
<title>Node0&#45;&gt;Node10</title>
<path fill="none" stroke="#191970" d="M335.8772,-280.2455C339.6513,-272.6973 344.9921,-262.0158 349.5901,-252.8197"/>
<polygon fill="#191970" stroke="#191970" points="352.837,-254.1522 354.1787,-243.6427 346.576,-251.0217 352.837,-254.1522"/>
</g>
<!-- Node11 -->
<g id="node12" class="node">
<title>Node11</title>
<polygon fill="#ffffff" stroke="#bfbfbf" points="405,-224.5 405,-243.5 459,-243.5 459,-224.5 405,-224.5"/>
<text text-anchor="middle" x="432" y="-231.5" font-family="Helvetica,sans-Serif" font-size="10.00" fill="#000000">iostream</text>
</g>
<!-- Node0&#45;&gt;Node11 -->
<g id="edge14" class="edge">
<title>Node0&#45;&gt;Node11</title>
<path fill="none" stroke="#191970" d="M348.5929,-280.2455C364.379,-271.4928 387.7639,-258.527 405.7587,-248.5496"/>
<polygon fill="#191970" stroke="#191970" points="407.5603,-251.5528 414.6087,-243.6427 404.1659,-245.4308 407.5603,-251.5528"/>
</g>
<!-- Node2 -->
<g id="node3" class="node">
<title>Node2</title>
<g id="a_node3"><a xlink:href="_widget_8hpp.html" target="_top" xlink:title="Widget.hpp">
<polygon fill="#ffffff" stroke="#000000" points="36,-112.5 36,-131.5 102,-131.5 102,-112.5 36,-112.5"/>
<text text-anchor="middle" x="69" y="-119.5" font-family="Helvetica,sans-Serif" font-size="10.00" fill="#000000">Widget.hpp</text>
</a>
</g>
</g>
<!-- Node1&#45;&gt;Node2 -->
<g id="edge2" class="edge">
<title>Node1&#45;&gt;Node2</title>
<path fill="none" stroke="#191970" d="M118.4117,-224.3579C100.799,-217.3105 80.549,-205.8105 70,-188 61.7976,-174.1514 62.2946,-155.632 64.4143,-141.7356"/>
<polygon fill="#191970" stroke="#191970" points="67.8813,-142.2398 66.3269,-131.7596 61.0065,-140.9217 67.8813,-142.2398"/>
</g>
<!-- Node6 -->
<g id="node7" class="node">
<title>Node6</title>
<g id="a_node7"><a xlink:href="_button_widget_8hpp.html" target="_top" xlink:title="ButtonWidget.hpp">
<polygon fill="#ffffff" stroke="#000000" points="179.5,-168.5 179.5,-187.5 274.5,-187.5 274.5,-168.5 179.5,-168.5"/>
<text text-anchor="middle" x="227" y="-175.5" font-family="Helvetica,sans-Serif" font-size="10.00" fill="#000000">ButtonWidget.hpp</text>
</a>
</g>
</g>
<!-- Node1&#45;&gt;Node6 -->
<g id="edge6" class="edge">
<title>Node1&#45;&gt;Node6</title>
<path fill="none" stroke="#191970" d="M164.2382,-224.2455C175.681,-215.814 192.4296,-203.4729 205.7475,-193.6598"/>
<polygon fill="#191970" stroke="#191970" points="207.9391,-196.3924 213.9135,-187.6427 203.7867,-190.757 207.9391,-196.3924"/>
</g>
<!-- Node8 -->
<g id="node9" class="node">
<title>Node8</title>
<polygon fill="#ffffff" stroke="#bfbfbf" points="134.5,-112.5 134.5,-131.5 175.5,-131.5 175.5,-112.5 134.5,-112.5"/>
<text text-anchor="middle" x="155" y="-119.5" font-family="Helvetica,sans-Serif" font-size="10.00" fill="#000000">string</text>
</g>
<!-- Node1&#45;&gt;Node8 -->
<g id="edge10" class="edge">
<title>Node1&#45;&gt;Node8</title>
<path fill="none" stroke="#191970" d="M151.341,-224.4509C151.9934,-206.184 153.4302,-165.9553 154.2965,-141.6976"/>
<polygon fill="#191970" stroke="#191970" points="157.8006,-141.6435 154.6598,-131.5249 150.805,-141.3936 157.8006,-141.6435"/>
</g>
<!-- Node9 -->
<g id="node10" class="node">
<title>Node9</title>
<polygon fill="#ffffff" stroke="#bfbfbf" points="79,-168.5 79,-187.5 123,-187.5 123,-168.5 79,-168.5"/>
<text text-anchor="middle" x="101" y="-175.5" font-family="Helvetica,sans-Serif" font-size="10.00" fill="#000000">vector</text>
</g>
<!-- Node1&#45;&gt;Node9 -->
<g id="edge11" class="edge">
<title>Node1&#45;&gt;Node9</title>
<path fill="none" stroke="#191970" d="M142.2907,-224.2455C135.1927,-216.2958 124.9916,-204.8706 116.505,-195.3656"/>
<polygon fill="#191970" stroke="#191970" points="118.8805,-192.771 109.6095,-187.6427 113.6589,-197.4331 118.8805,-192.771"/>
</g>
<!-- Node3 -->
<g id="node4" class="node">
<title>Node3</title>
<polygon fill="#ffffff" stroke="#bfbfbf" points="0,-56.5 0,-75.5 58,-75.5 58,-56.5 0,-56.5"/>
<text text-anchor="middle" x="29" y="-63.5" font-family="Helvetica,sans-Serif" font-size="10.00" fill="#000000">../CImg.h</text>
</g>
<!-- Node2&#45;&gt;Node3 -->
<g id="edge3" class="edge">
<title>Node2&#45;&gt;Node3</title>
<path fill="none" stroke="#191970" d="M62.0325,-112.2455C56.4689,-104.4564 48.522,-93.3308 41.8171,-83.9439"/>
<polygon fill="#191970" stroke="#191970" points="44.5481,-81.7457 35.8876,-75.6427 38.852,-85.8144 44.5481,-81.7457"/>
</g>
<!-- Node4 -->
<g id="node5" class="node">
<title>Node4</title>
<g id="a_node5"><a xlink:href="_events_8hpp.html" target="_top" xlink:title="Events.hpp">
<polygon fill="#ffffff" stroke="#000000" points="76,-56.5 76,-75.5 142,-75.5 142,-56.5 76,-56.5"/>
<text text-anchor="middle" x="109" y="-63.5" font-family="Helvetica,sans-Serif" font-size="10.00" fill="#000000">Events.hpp</text>
</a>
</g>
</g>
<!-- Node2&#45;&gt;Node4 -->
<g id="edge4" class="edge">
<title>Node2&#45;&gt;Node4</title>
<path fill="none" stroke="#191970" d="M75.9675,-112.2455C81.5311,-104.4564 89.478,-93.3308 96.1829,-83.9439"/>
<polygon fill="#191970" stroke="#191970" points="99.148,-85.8144 102.1124,-75.6427 93.4519,-81.7457 99.148,-85.8144"/>
</g>
<!-- Node5 -->
<g id="node6" class="node">
<title>Node5</title>
<polygon fill="#ffffff" stroke="#bfbfbf" points="86,-.5 86,-19.5 132,-19.5 132,-.5 86,-.5"/>
<text text-anchor="middle" x="109" y="-7.5" font-family="Helvetica,sans-Serif" font-size="10.00" fill="#000000">variant</text>
</g>
<!-- Node4&#45;&gt;Node5 -->
<g id="edge5" class="edge">
<title>Node4&#45;&gt;Node5</title>
<path fill="none" stroke="#191970" d="M109,-56.2455C109,-48.9382 109,-38.6944 109,-29.7046"/>
<polygon fill="#191970" stroke="#191970" points="112.5001,-29.6426 109,-19.6427 105.5001,-29.6427 112.5001,-29.6426"/>
</g>
<!-- Node6&#45;&gt;Node2 -->
<g id="edge7" class="edge">
<title>Node6&#45;&gt;Node2</title>
<path fill="none" stroke="#191970" d="M199.8388,-168.3733C173.7933,-159.1419 134.2884,-145.1402 105.5021,-134.9375"/>
<polygon fill="#191970" stroke="#191970" points="106.4015,-131.5429 95.8067,-131.5011 104.063,-138.1408 106.4015,-131.5429"/>
</g>
<!-- Node6&#45;&gt;Node7 -->
<g id="edge8" class="edge">
<title>Node6&#45;&gt;Node7</title>
<path fill="none" stroke="#191970" d="M233.6191,-168.2455C238.9046,-160.4564 246.4541,-149.3308 252.8238,-139.9439"/>
<polygon fill="#191970" stroke="#191970" points="255.7379,-141.8827 258.4568,-131.6427 249.9455,-137.9522 255.7379,-141.8827"/>
</g>
<!-- Node6&#45;&gt;Node8 -->
<g id="edge9" class="edge">
<title>Node6&#45;&gt;Node8</title>
<path fill="none" stroke="#191970" d="M214.4586,-168.2455C203.7213,-159.8943 188.0527,-147.7076 175.4953,-137.9408"/>
<polygon fill="#191970" stroke="#191970" points="177.4401,-135.0194 167.3977,-131.6427 173.1425,-140.5449 177.4401,-135.0194"/>
</g>
</g>
</svg>
