<?xml version="1.0" encoding="UTF-8" standalone="no"?>
<!DOCTYPE svg PUBLIC "-//W3C//DTD SVG 1.1//EN"
 "http://www.w3.org/Graphics/SVG/1.1/DTD/svg11.dtd">
<!-- Generated by graphviz version 2.40.1 (20161225.0304)
 -->
<!-- Title: src/Interface/MenuBarWidget.cpp Pages: 1 -->
<svg width="304pt" height="364pt"
 viewBox="0.00 0.00 304.00 364.00" xmlns="http://www.w3.org/2000/svg" xmlns:xlink="http://www.w3.org/1999/xlink">
<g id="graph0" class="graph" transform="scale(1 1) rotate(0) translate(4 360)">
<title>src/Interface/MenuBarWidget.cpp</title>
<polygon fill="#ffffff" stroke="transparent" points="-4,4 -4,-360 300,-360 300,4 -4,4"/>
<!-- Node0 -->
<g id="node1" class="node">
<title>Node0</title>
<polygon fill="#bfbfbf" stroke="#000000" points="66.5,-336.5 66.5,-355.5 229.5,-355.5 229.5,-336.5 66.5,-336.5"/>
<text text-anchor="middle" x="148" y="-343.5" font-family="Helvetica,sans-Serif" font-size="10.00" fill="#000000">src/Interface/MenuBarWidget.cpp</text>
</g>
<!-- Node1 -->
<g id="node2" class="node">
<title>Node1</title>
<g id="a_node2"><a xlink:href="_menu_bar_widget_8hpp.html" target="_top" xlink:title="MenuBarWidget.hpp">
<polygon fill="#ffffff" stroke="#000000" points="95.5,-280.5 95.5,-299.5 200.5,-299.5 200.5,-280.5 95.5,-280.5"/>
<text text-anchor="middle" x="148" y="-287.5" font-family="Helvetica,sans-Serif" font-size="10.00" fill="#000000">MenuBarWidget.hpp</text>
</a>
</g>
</g>
<!-- Node0&#45;&gt;Node1 -->
<g id="edge1" class="edge">
<title>Node0&#45;&gt;Node1</title>
<path fill="none" stroke="#191970" d="M148,-336.2455C148,-328.9382 148,-318.6944 148,-309.7046"/>
<polygon fill="#191970" stroke="#191970" points="151.5001,-309.6426 148,-299.6427 144.5001,-309.6427 151.5001,-309.6426"/>
</g>
<!-- Node2 -->
<g id="node3" class="node">
<title>Node2</title>
<g id="a_node3"><a xlink:href="_widget_8hpp.html" target="_top" xlink:title="Widget.hpp">
<polygon fill="#ffffff" stroke="#000000" points="36,-112.5 36,-131.5 102,-131.5 102,-112.5 36,-112.5"/>
<text text-anchor="middle" x="69" y="-119.5" font-family="Helvetica,sans-Serif" font-size="10.00" fill="#000000">Widget.hpp</text>
</a>
</g>
</g>
<!-- Node1&#45;&gt;Node2 -->
<g id="edge2" class="edge">
<title>Node1&#45;&gt;Node2</title>
<path fill="none" stroke="#191970" d="M134.4073,-280.4581C123.2574,-272.0082 107.7705,-258.7506 98,-244 77.1487,-212.5209 71.2397,-167.6982 69.5971,-142.0609"/>
<polygon fill="#191970" stroke="#191970" points="73.0777,-141.57 69.1042,-131.7485 66.0857,-141.9042 73.0777,-141.57"/>
</g>
<!-- Node6 -->
<g id="node7" class="node">
<title>Node6</title>
<g id="a_node7"><a xlink:href="_list_widget_8hpp.html" target="_top" xlink:title="ListWidget.hpp">
<polygon fill="#ffffff" stroke="#000000" points="107,-224.5 107,-243.5 189,-243.5 189,-224.5 107,-224.5"/>
<text text-anchor="middle" x="148" y="-231.5" font-family="Helvetica,sans-Serif" font-size="10.00" fill="#000000">ListWidget.hpp</text>
</a>
</g>
</g>
<!-- Node1&#45;&gt;Node6 -->
<g id="edge6" class="edge">
<title>Node1&#45;&gt;Node6</title>
<path fill="none" stroke="#191970" d="M148,-280.2455C148,-272.9382 148,-262.6944 148,-253.7046"/>
<polygon fill="#191970" stroke="#191970" points="151.5001,-253.6426 148,-243.6427 144.5001,-253.6427 151.5001,-253.6426"/>
</g>
<!-- Node11 -->
<g id="node12" class="node">
<title>Node11</title>
<polygon fill="#ffffff" stroke="#bfbfbf" points="207,-224.5 207,-243.5 259,-243.5 259,-224.5 207,-224.5"/>
<text text-anchor="middle" x="233" y="-231.5" font-family="Helvetica,sans-Serif" font-size="10.00" fill="#000000">memory</text>
</g>
<!-- Node1&#45;&gt;Node11 -->
<g id="edge14" class="edge">
<title>Node1&#45;&gt;Node11</title>
<path fill="none" stroke="#191970" d="M162.8059,-280.2455C175.7256,-271.7337 194.6931,-259.2375 209.6552,-249.3801"/>
<polygon fill="#191970" stroke="#191970" points="211.9387,-252.067 218.3638,-243.6427 208.0876,-246.2216 211.9387,-252.067"/>
</g>
<!-- Node3 -->
<g id="node4" class="node">
<title>Node3</title>
<polygon fill="#ffffff" stroke="#bfbfbf" points="0,-56.5 0,-75.5 58,-75.5 58,-56.5 0,-56.5"/>
<text text-anchor="middle" x="29" y="-63.5" font-family="Helvetica,sans-Serif" font-size="10.00" fill="#000000">../CImg.h</text>
</g>
<!-- Node2&#45;&gt;Node3 -->
<g id="edge3" class="edge">
<title>Node2&#45;&gt;Node3</title>
<path fill="none" stroke="#191970" d="M62.0325,-112.2455C56.4689,-104.4564 48.522,-93.3308 41.8171,-83.9439"/>
<polygon fill="#191970" stroke="#191970" points="44.5481,-81.7457 35.8876,-75.6427 38.852,-85.8144 44.5481,-81.7457"/>
</g>
<!-- Node4 -->
<g id="node5" class="node">
<title>Node4</title>
<g id="a_node5"><a xlink:href="_events_8hpp.html" target="_top" xlink:title="Events.hpp">
<polygon fill="#ffffff" stroke="#000000" points="76,-56.5 76,-75.5 142,-75.5 142,-56.5 76,-56.5"/>
<text text-anchor="middle" x="109" y="-63.5" font-family="Helvetica,sans-Serif" font-size="10.00" fill="#000000">Events.hpp</text>
</a>
</g>
</g>
<!-- Node2&#45;&gt;Node4 -->
<g id="edge4" class="edge">
<title>Node2&#45;&gt;Node4</title>
<path fill="none" stroke="#191970" d="M75.9675,-112.2455C81.5311,-104.4564 89.478,-93.3308 96.1829,-83.9439"/>
<polygon fill="#191970" stroke="#191970" points="99.148,-85.8144 102.1124,-75.6427 93.4519,-81.7457 99.148,-85.8144"/>
</g>
<!-- Node5 -->
<g id="node6" class="node">
<title>Node5</title>
<polygon fill="#ffffff" stroke="#bfbfbf" points="86,-.5 86,-19.5 132,-19.5 132,-.5 86,-.5"/>
<text text-anchor="middle" x="109" y="-7.5" font-family="Helvetica,sans-Serif" font-size="10.00" fill="#000000">variant</text>
</g>
<!-- Node4&#45;&gt;Node5 -->
<g id="edge5" class="edge">
<title>Node4&#45;&gt;Node5</title>
<path fill="none" stroke="#191970" d="M109,-56.2455C109,-48.9382 109,-38.6944 109,-29.7046"/>
<polygon fill="#191970" stroke="#191970" points="112.5001,-29.6426 109,-19.6427 105.5001,-29.6427 112.5001,-29.6426"/>
</g>
<!-- Node6&#45;&gt;Node2 -->
<g id="edge7" class="edge">
<title>Node6&#45;&gt;Node2</title>
<path fill="none" stroke="#191970" d="M131.5962,-224.4352C118.8713,-216.2442 101.6591,-203.3562 91,-188 81.3268,-174.0641 75.6456,-155.5532 72.4878,-141.6822"/>
<polygon fill="#191970" stroke="#191970" points="75.887,-140.8331 70.4683,-131.7288 69.0267,-142.2251 75.887,-140.8331"/>
</g>
<!-- Node7 -->
<g id="node8" class="node">
<title>Node7</title>
<g id="a_node8"><a xlink:href="_button_widget_8hpp.html" target="_top" xlink:title="ButtonWidget.hpp">
<polygon fill="#ffffff" stroke="#000000" points="100.5,-168.5 100.5,-187.5 195.5,-187.5 195.5,-168.5 100.5,-168.5"/>
<text text-anchor="middle" x="148" y="-175.5" font-family="Helvetica,sans-Serif" font-size="10.00" fill="#000000">ButtonWidget.hpp</text>
</a>
</g>
</g>
<!-- Node6&#45;&gt;Node7 -->
<g id="edge8" class="edge">
<title>Node6&#45;&gt;Node7</title>
<path fill="none" stroke="#191970" d="M148,-224.2455C148,-216.9382 148,-206.6944 148,-197.7046"/>
<polygon fill="#191970" stroke="#191970" points="151.5001,-197.6426 148,-187.6427 144.5001,-197.6427 151.5001,-197.6426"/>
</g>
<!-- Node9 -->
<g id="node10" class="node">
<title>Node9</title>
<polygon fill="#ffffff" stroke="#bfbfbf" points="201.5,-112.5 201.5,-131.5 242.5,-131.5 242.5,-112.5 201.5,-112.5"/>
<text text-anchor="middle" x="222" y="-119.5" font-family="Helvetica,sans-Serif" font-size="10.00" fill="#000000">string</text>
</g>
<!-- Node6&#45;&gt;Node9 -->
<g id="edge12" class="edge">
<title>Node6&#45;&gt;Node9</title>
<path fill="none" stroke="#191970" d="M164.9618,-224.4665C177.8244,-216.3776 194.9509,-203.6111 205,-188 213.9953,-174.026 218.2373,-155.5188 220.2341,-141.6589"/>
<polygon fill="#191970" stroke="#191970" points="223.7115,-142.0554 221.4021,-131.7153 216.7593,-141.2387 223.7115,-142.0554"/>
</g>
<!-- Node10 -->
<g id="node11" class="node">
<title>Node10</title>
<polygon fill="#ffffff" stroke="#bfbfbf" points="252,-168.5 252,-187.5 296,-187.5 296,-168.5 252,-168.5"/>
<text text-anchor="middle" x="274" y="-175.5" font-family="Helvetica,sans-Serif" font-size="10.00" fill="#000000">vector</text>
</g>
<!-- Node6&#45;&gt;Node10 -->
<g id="edge13" class="edge">
<title>Node6&#45;&gt;Node10</title>
<path fill="none" stroke="#191970" d="M169.6602,-224.3733C189.9772,-215.3435 220.564,-201.7494 243.375,-191.6111"/>
<polygon fill="#191970" stroke="#191970" points="244.9059,-194.7609 252.6225,-187.5011 242.0628,-188.3642 244.9059,-194.7609"/>
</g>
<!-- Node7&#45;&gt;Node2 -->
<g id="edge9" class="edge">
<title>Node7&#45;&gt;Node2</title>
<path fill="none" stroke="#191970" d="M134.2393,-168.2455C122.3448,-159.814 104.935,-147.4729 91.0915,-137.6598"/>
<polygon fill="#191970" stroke="#191970" points="92.7854,-134.5704 82.6031,-131.6427 88.7372,-140.2811 92.7854,-134.5704"/>
</g>
<!-- Node8 -->
<g id="node9" class="node">
<title>Node8</title>
<polygon fill="#ffffff" stroke="#bfbfbf" points="120.5,-112.5 120.5,-131.5 179.5,-131.5 179.5,-112.5 120.5,-112.5"/>
<text text-anchor="middle" x="150" y="-119.5" font-family="Helvetica,sans-Serif" font-size="10.00" fill="#000000">functional</text>
</g>
<!-- Node7&#45;&gt;Node8 -->
<g id="edge10" class="edge">
<title>Node7&#45;&gt;Node8</title>
<path fill="none" stroke="#191970" d="M148.3484,-168.2455C148.6093,-160.9382 148.9752,-150.6944 149.2963,-141.7046"/>
<polygon fill="#191970" stroke="#191970" points="152.7964,-141.7613 149.6556,-131.6427 145.8008,-141.5113 152.7964,-141.7613"/>
</g>
<!-- Node7&#45;&gt;Node9 -->
<g id="edge11" class="edge">
<title>Node7&#45;&gt;Node9</title>
<path fill="none" stroke="#191970" d="M160.8898,-168.2455C171.9254,-159.8943 188.0292,-147.7076 200.9353,-137.9408"/>
<polygon fill="#191970" stroke="#191970" points="203.3959,-140.4681 209.2579,-131.6427 199.1717,-134.8862 203.3959,-140.4681"/>
</g>
</g>
</svg>
