<?xml version="1.0" encoding="UTF-8" standalone="no"?>
<!DOCTYPE svg PUBLIC "-//W3C//DTD SVG 1.1//EN"
 "http://www.w3.org/Graphics/SVG/1.1/DTD/svg11.dtd">
<!-- Generated by graphviz version 2.40.1 (20161225.0304)
 -->
<!-- Title: src/Interface/MenuBarWidget.hpp Pages: 1 -->
<svg width="290pt" height="84pt"
 viewBox="0.00 0.00 289.50 84.00" xmlns="http://www.w3.org/2000/svg" xmlns:xlink="http://www.w3.org/1999/xlink">
<g id="graph0" class="graph" transform="scale(1 1) rotate(0) translate(4 80)">
<title>src/Interface/MenuBarWidget.hpp</title>
<polygon fill="#ffffff" stroke="transparent" points="-4,4 -4,-80 285.5,-80 285.5,4 -4,4"/>
<!-- Node11 -->
<g id="node1" class="node">
<title>Node11</title>
<polygon fill="#bfbfbf" stroke="#000000" points="43.5,-56.5 43.5,-75.5 206.5,-75.5 206.5,-56.5 43.5,-56.5"/>
<text text-anchor="middle" x="125" y="-63.5" font-family="Helvetica,sans-Serif" font-size="10.00" fill="#000000">src/Interface/MenuBarWidget.hpp</text>
</g>
<!-- Node12 -->
<g id="node2" class="node">
<title>Node12</title>
<g id="a_node2"><a xlink:href="_application_8cpp.html" target="_top" xlink:title="src/Application.cpp">
<polygon fill="#ffffff" stroke="#000000" points="0,-.5 0,-19.5 100,-19.5 100,-.5 0,-.5"/>
<text text-anchor="middle" x="50" y="-7.5" font-family="Helvetica,sans-Serif" font-size="10.00" fill="#000000">src/Application.cpp</text>
</a>
</g>
</g>
<!-- Node11&#45;&gt;Node12 -->
<g id="edge1" class="edge">
<title>Node11&#45;&gt;Node12</title>
<path fill="none" stroke="#191970" d="M103.8523,-50.2097C90.6799,-40.3743 74.16,-28.0394 62.9143,-19.6427"/>
<polygon fill="#191970" stroke="#191970" points="101.8291,-53.0671 111.936,-56.2455 106.0172,-47.4581 101.8291,-53.0671"/>
</g>
<!-- Node13 -->
<g id="node3" class="node">
<title>Node13</title>
<g id="a_node3"><a xlink:href="_menu_bar_widget_8cpp.html" target="_top" xlink:title="src/Interface/MenuBarWidget.cpp">
<polygon fill="#ffffff" stroke="#000000" points="118.5,-.5 118.5,-19.5 281.5,-19.5 281.5,-.5 118.5,-.5"/>
<text text-anchor="middle" x="200" y="-7.5" font-family="Helvetica,sans-Serif" font-size="10.00" fill="#000000">src/Interface/MenuBarWidget.cpp</text>
</a>
</g>
</g>
<!-- Node11&#45;&gt;Node13 -->
<g id="edge2" class="edge">
<title>Node11&#45;&gt;Node13</title>
<path fill="none" stroke="#191970" d="M146.1477,-50.2097C159.3201,-40.3743 175.84,-28.0394 187.0857,-19.6427"/>
<polygon fill="#191970" stroke="#191970" points="143.9828,-47.4581 138.064,-56.2455 148.1709,-53.0671 143.9828,-47.4581"/>
</g>
</g>
</svg>
