<?xml version="1.0" encoding="UTF-8" standalone="no"?>
<!DOCTYPE svg PUBLIC "-//W3C//DTD SVG 1.1//EN"
 "http://www.w3.org/Graphics/SVG/1.1/DTD/svg11.dtd">
<!-- Generated by graphviz version 2.40.1 (20161225.0304)
 -->
<!-- Title: unparse Pages: 1 -->
<svg width="149pt" height="66pt"
 viewBox="0.00 0.00 149.00 66.00" xmlns="http://www.w3.org/2000/svg" xmlns:xlink="http://www.w3.org/1999/xlink">
<g id="graph0" class="graph" transform="scale(1 1) rotate(0) translate(4 62)">
<title>unparse</title>
<polygon fill="#ffffff" stroke="transparent" points="-4,4 -4,-62 145,-62 145,4 -4,4"/>
<!-- Node12 -->
<g id="node1" class="node">
<title>Node12</title>
<polygon fill="#bfbfbf" stroke="#000000" points="0,-19.5 0,-38.5 51,-38.5 51,-19.5 0,-19.5"/>
<text text-anchor="middle" x="25.5" y="-26.5" font-family="Helvetica,sans-Serif" font-size="10.00" fill="#000000">unparse</text>
</g>
<!-- Node13 -->
<g id="node2" class="node">
<title>Node13</title>
<g id="a_node2"><a xlink:href="_parser_8cpp.html#aefe0b427576c1d91fb6489758ef99108" target="_top" xlink:title="separate">
<polygon fill="#ffffff" stroke="#000000" points="87,-38.5 87,-57.5 141,-57.5 141,-38.5 87,-38.5"/>
<text text-anchor="middle" x="114" y="-45.5" font-family="Helvetica,sans-Serif" font-size="10.00" fill="#000000">separate</text>
</a>
</g>
</g>
<!-- Node12&#45;&gt;Node13 -->
<g id="edge1" class="edge">
<title>Node12&#45;&gt;Node13</title>
<path fill="none" stroke="#191970" d="M51.0979,-34.4956C59.1701,-36.2286 68.256,-38.1792 76.9594,-40.0478"/>
<polygon fill="#191970" stroke="#191970" points="76.4053,-43.5085 86.9172,-42.1856 77.8747,-36.6645 76.4053,-43.5085"/>
</g>
<!-- Node14 -->
<g id="node3" class="node">
<title>Node14</title>
<g id="a_node3"><a xlink:href="_parser_8cpp.html#a2ba65c5c860e2aef7c7d142784e3bf4e" target="_top" xlink:title="tokenize">
<polygon fill="#ffffff" stroke="#000000" points="87.5,-.5 87.5,-19.5 140.5,-19.5 140.5,-.5 87.5,-.5"/>
<text text-anchor="middle" x="114" y="-7.5" font-family="Helvetica,sans-Serif" font-size="10.00" fill="#000000">tokenize</text>
</a>
</g>
</g>
<!-- Node12&#45;&gt;Node14 -->
<g id="edge2" class="edge">
<title>Node12&#45;&gt;Node14</title>
<path fill="none" stroke="#191970" d="M51.0979,-23.5044C59.2435,-21.7556 68.4212,-19.7853 77.1967,-17.9013"/>
<polygon fill="#191970" stroke="#191970" points="78.1851,-21.2689 87.2276,-15.7478 76.7157,-14.4249 78.1851,-21.2689"/>
</g>
</g>
</svg>
