<?xml version="1.0" encoding="UTF-8" standalone="no"?>
<!DOCTYPE svg PUBLIC "-//W3C//DTD SVG 1.1//EN"
 "http://www.w3.org/Graphics/SVG/1.1/DTD/svg11.dtd">
<!-- Generated by graphviz version 2.40.1 (20161225.0304)
 -->
<!-- Title: src/Parser.hpp Pages: 1 -->
<svg width="1117pt" height="196pt"
 viewBox="0.00 0.00 1116.50 196.00" xmlns="http://www.w3.org/2000/svg" xmlns:xlink="http://www.w3.org/1999/xlink">
<g id="graph0" class="graph" transform="scale(1 1) rotate(0) translate(4 192)">
<title>src/Parser.hpp</title>
<polygon fill="#ffffff" stroke="transparent" points="-4,4 -4,-192 1112.5,-192 1112.5,4 -4,4"/>
<!-- Node0 -->
<g id="node1" class="node">
<title>Node0</title>
<polygon fill="#bfbfbf" stroke="#000000" points="779.5,-168.5 779.5,-187.5 859.5,-187.5 859.5,-168.5 779.5,-168.5"/>
<text text-anchor="middle" x="819.5" y="-175.5" font-family="Helvetica,sans-Serif" font-size="10.00" fill="#000000">src/Parser.hpp</text>
</g>
<!-- Node1 -->
<g id="node2" class="node">
<title>Node1</title>
<g id="a_node2"><a xlink:href="_image_8hpp.html" target="_top" xlink:title="Image/Image.hpp">
<polygon fill="#ffffff" stroke="#000000" points="561.5,-112.5 561.5,-131.5 653.5,-131.5 653.5,-112.5 561.5,-112.5"/>
<text text-anchor="middle" x="607.5" y="-119.5" font-family="Helvetica,sans-Serif" font-size="10.00" fill="#000000">Image/Image.hpp</text>
</a>
</g>
</g>
<!-- Node0&#45;&gt;Node1 -->
<g id="edge1" class="edge">
<title>Node0&#45;&gt;Node1</title>
<path fill="none" stroke="#191970" d="M783.0559,-168.3733C747.1931,-158.9001 692.3122,-144.4032 653.4718,-134.1435"/>
<polygon fill="#191970" stroke="#191970" points="654.0308,-130.6712 643.4685,-131.5011 652.243,-137.439 654.0308,-130.6712"/>
</g>
<!-- Node3 -->
<g id="node4" class="node">
<title>Node3</title>
<polygon fill="#ffffff" stroke="#bfbfbf" points="0,-.5 0,-19.5 41,-19.5 41,-.5 0,-.5"/>
<text text-anchor="middle" x="20.5" y="-7.5" font-family="Helvetica,sans-Serif" font-size="10.00" fill="#000000">string</text>
</g>
<!-- Node0&#45;&gt;Node3 -->
<g id="edge29" class="edge">
<title>Node0&#45;&gt;Node3</title>
<path fill="none" stroke="#191970" d="M779.0383,-177.3738C638.615,-174.4851 174.3994,-158.7409 55.5,-76 39.9089,-65.1503 30.7018,-45.1141 25.6771,-29.9531"/>
<polygon fill="#191970" stroke="#191970" points="28.9187,-28.5727 22.7259,-19.9763 22.2062,-30.5583 28.9187,-28.5727"/>
</g>
<!-- Node17 -->
<g id="node18" class="node">
<title>Node17</title>
<polygon fill="#ffffff" stroke="#bfbfbf" points="628.5,-56.5 628.5,-75.5 748.5,-75.5 748.5,-56.5 628.5,-56.5"/>
<text text-anchor="middle" x="688.5" y="-63.5" font-family="Helvetica,sans-Serif" font-size="10.00" fill="#000000">experimental/filesystem</text>
</g>
<!-- Node0&#45;&gt;Node17 -->
<g id="edge26" class="edge">
<title>Node0&#45;&gt;Node17</title>
<path fill="none" stroke="#191970" d="M808.331,-168.4509C785.9017,-149.2747 735.1643,-105.8962 707.4468,-82.1988"/>
<polygon fill="#191970" stroke="#191970" points="709.5159,-79.363 699.6407,-75.5249 704.9671,-84.6835 709.5159,-79.363"/>
</g>
<!-- Node18 -->
<g id="node19" class="node">
<title>Node18</title>
<polygon fill="#ffffff" stroke="#bfbfbf" points="766.5,-56.5 766.5,-75.5 816.5,-75.5 816.5,-56.5 766.5,-56.5"/>
<text text-anchor="middle" x="791.5" y="-63.5" font-family="Helvetica,sans-Serif" font-size="10.00" fill="#000000">fstream</text>
</g>
<!-- Node0&#45;&gt;Node18 -->
<g id="edge27" class="edge">
<title>Node0&#45;&gt;Node18</title>
<path fill="none" stroke="#191970" d="M812.2165,-168.3916C805.9373,-159.489 797.3005,-145.6064 793.5,-132 789.302,-116.9704 789.003,-99.2633 789.6435,-85.9756"/>
<polygon fill="#191970" stroke="#191970" points="793.1619,-85.836 790.3737,-75.6146 786.1792,-85.3437 793.1619,-85.836"/>
</g>
<!-- Node20 -->
<g id="node21" class="node">
<title>Node20</title>
<g id="a_node21"><a xlink:href="_collection_8hpp.html" target="_top" xlink:title="Collection/Collection.hpp">
<polygon fill="#ffffff" stroke="#000000" points="803,-112.5 803,-131.5 928,-131.5 928,-112.5 803,-112.5"/>
<text text-anchor="middle" x="865.5" y="-119.5" font-family="Helvetica,sans-Serif" font-size="10.00" fill="#000000">Collection/Collection.hpp</text>
</a>
</g>
</g>
<!-- Node0&#45;&gt;Node20 -->
<g id="edge20" class="edge">
<title>Node0&#45;&gt;Node20</title>
<path fill="none" stroke="#191970" d="M827.5126,-168.2455C833.9768,-160.3761 843.2385,-149.101 850.9983,-139.6542"/>
<polygon fill="#191970" stroke="#191970" points="853.9364,-141.5916 857.5792,-131.6427 848.5273,-137.1484 853.9364,-141.5916"/>
</g>
<!-- Node24 -->
<g id="node25" class="node">
<title>Node24</title>
<polygon fill="#ffffff" stroke="#bfbfbf" points="946.5,-112.5 946.5,-131.5 988.5,-131.5 988.5,-112.5 946.5,-112.5"/>
<text text-anchor="middle" x="967.5" y="-119.5" font-family="Helvetica,sans-Serif" font-size="10.00" fill="#000000">locale</text>
</g>
<!-- Node0&#45;&gt;Node24 -->
<g id="edge28" class="edge">
<title>Node0&#45;&gt;Node24</title>
<path fill="none" stroke="#191970" d="M844.9421,-168.3733C870.4104,-158.7366 909.6175,-143.9015 936.7999,-133.6163"/>
<polygon fill="#191970" stroke="#191970" points="938.1084,-136.8634 946.2226,-130.0509 935.6311,-130.3164 938.1084,-136.8634"/>
</g>
<!-- Node25 -->
<g id="node26" class="node">
<title>Node25</title>
<polygon fill="#ffffff" stroke="#bfbfbf" points="1006.5,-112.5 1006.5,-131.5 1046.5,-131.5 1046.5,-112.5 1006.5,-112.5"/>
<text text-anchor="middle" x="1026.5" y="-119.5" font-family="Helvetica,sans-Serif" font-size="10.00" fill="#000000">utility</text>
</g>
<!-- Node0&#45;&gt;Node25 -->
<g id="edge30" class="edge">
<title>Node0&#45;&gt;Node25</title>
<path fill="none" stroke="#191970" d="M859.6937,-168.576C893.8124,-160.3617 944.2453,-147.7174 996.5085,-132.1414"/>
<polygon fill="#191970" stroke="#191970" points="997.7178,-135.4326 1006.2849,-129.1993 995.7005,-128.7295 997.7178,-135.4326"/>
</g>
<!-- Node26 -->
<g id="node27" class="node">
<title>Node26</title>
<polygon fill="#ffffff" stroke="#bfbfbf" points="1064.5,-112.5 1064.5,-131.5 1108.5,-131.5 1108.5,-112.5 1064.5,-112.5"/>
<text text-anchor="middle" x="1086.5" y="-119.5" font-family="Helvetica,sans-Serif" font-size="10.00" fill="#000000">vector</text>
</g>
<!-- Node0&#45;&gt;Node26 -->
<g id="edge31" class="edge">
<title>Node0&#45;&gt;Node26</title>
<path fill="none" stroke="#191970" d="M859.9148,-171.6355C905.1451,-164.1796 980.7416,-150.7247 1054.3435,-132.0749"/>
<polygon fill="#191970" stroke="#191970" points="1055.4278,-135.4101 1064.2422,-129.5315 1053.6858,-128.6303 1055.4278,-135.4101"/>
</g>
<!-- Node2 -->
<g id="node3" class="node">
<title>Node2</title>
<g id="a_node3"><a xlink:href="_tag_list_8hpp.html" target="_top" xlink:title="TagList.hpp">
<polygon fill="#ffffff" stroke="#000000" points="64.5,-56.5 64.5,-75.5 132.5,-75.5 132.5,-56.5 64.5,-56.5"/>
<text text-anchor="middle" x="98.5" y="-63.5" font-family="Helvetica,sans-Serif" font-size="10.00" fill="#000000">TagList.hpp</text>
</a>
</g>
</g>
<!-- Node1&#45;&gt;Node2 -->
<g id="edge2" class="edge">
<title>Node1&#45;&gt;Node2</title>
<path fill="none" stroke="#191970" d="M561.4319,-116.9316C464.1337,-106.2269 238.7859,-81.4342 142.9373,-70.889"/>
<polygon fill="#191970" stroke="#191970" points="143.0404,-67.3793 132.7175,-69.7646 142.2748,-74.3373 143.0404,-67.3793"/>
</g>
<!-- Node5 -->
<g id="node6" class="node">
<title>Node5</title>
<g id="a_node6"><a xlink:href="_c_img_8h.html" target="_top" xlink:title="../CImg.h">
<polygon fill="#ffffff" stroke="#000000" points="486.5,-56.5 486.5,-75.5 544.5,-75.5 544.5,-56.5 486.5,-56.5"/>
<text text-anchor="middle" x="515.5" y="-63.5" font-family="Helvetica,sans-Serif" font-size="10.00" fill="#000000">../CImg.h</text>
</a>
</g>
</g>
<!-- Node1&#45;&gt;Node5 -->
<g id="edge5" class="edge">
<title>Node1&#45;&gt;Node5</title>
<path fill="none" stroke="#191970" d="M591.4748,-112.2455C577.3592,-103.6534 556.5737,-91.0014 540.3101,-81.1018"/>
<polygon fill="#191970" stroke="#191970" points="541.7034,-77.8525 531.3415,-75.6427 538.0637,-83.8319 541.7034,-77.8525"/>
</g>
<!-- Node1&#45;&gt;Node17 -->
<g id="edge17" class="edge">
<title>Node1&#45;&gt;Node17</title>
<path fill="none" stroke="#191970" d="M621.6091,-112.2455C633.9209,-103.7337 651.9958,-91.2375 666.2538,-81.3801"/>
<polygon fill="#191970" stroke="#191970" points="668.3174,-84.2085 674.5526,-75.6427 664.3366,-78.4506 668.3174,-84.2085"/>
</g>
<!-- Node1&#45;&gt;Node18 -->
<g id="edge18" class="edge">
<title>Node1&#45;&gt;Node18</title>
<path fill="none" stroke="#191970" d="M639.1307,-112.3733C671.8151,-102.4259 722.6996,-86.9393 756.5539,-76.6358"/>
<polygon fill="#191970" stroke="#191970" points="757.9271,-79.8764 766.4747,-73.6164 755.8889,-73.1797 757.9271,-79.8764"/>
</g>
<!-- Node19 -->
<g id="node20" class="node">
<title>Node19</title>
<polygon fill="#ffffff" stroke="#bfbfbf" points="870.5,-.5 870.5,-19.5 922.5,-19.5 922.5,-.5 870.5,-.5"/>
<text text-anchor="middle" x="896.5" y="-7.5" font-family="Helvetica,sans-Serif" font-size="10.00" fill="#000000">memory</text>
</g>
<!-- Node1&#45;&gt;Node19 -->
<g id="edge19" class="edge">
<title>Node1&#45;&gt;Node19</title>
<path fill="none" stroke="#191970" d="M606.1114,-112.34C604.6317,-97.8829 604.2729,-70.7448 619.5,-56 656.5751,-20.099 793.4305,-30.2724 860.1415,-19.7788"/>
<polygon fill="#191970" stroke="#191970" points="861.0272,-23.1742 870.2199,-17.9069 859.7489,-16.2919 861.0272,-23.1742"/>
</g>
<!-- Node2&#45;&gt;Node3 -->
<g id="edge3" class="edge">
<title>Node2&#45;&gt;Node3</title>
<path fill="none" stroke="#191970" d="M84.9134,-56.2455C73.1695,-47.814 55.9801,-35.4729 42.3118,-25.6598"/>
<polygon fill="#191970" stroke="#191970" points="44.0954,-22.6316 33.9309,-19.6427 40.0129,-28.3179 44.0954,-22.6316"/>
</g>
<!-- Node4 -->
<g id="node5" class="node">
<title>Node4</title>
<polygon fill="#ffffff" stroke="#bfbfbf" points="59.5,-.5 59.5,-19.5 137.5,-19.5 137.5,-.5 59.5,-.5"/>
<text text-anchor="middle" x="98.5" y="-7.5" font-family="Helvetica,sans-Serif" font-size="10.00" fill="#000000">unordered_set</text>
</g>
<!-- Node2&#45;&gt;Node4 -->
<g id="edge4" class="edge">
<title>Node2&#45;&gt;Node4</title>
<path fill="none" stroke="#191970" d="M98.5,-56.2455C98.5,-48.9382 98.5,-38.6944 98.5,-29.7046"/>
<polygon fill="#191970" stroke="#191970" points="102.0001,-29.6426 98.5,-19.6427 95.0001,-29.6427 102.0001,-29.6426"/>
</g>
<!-- Node6 -->
<g id="node7" class="node">
<title>Node6</title>
<polygon fill="#ffffff" stroke="#bfbfbf" points="615,-.5 615,-19.5 658,-19.5 658,-.5 615,-.5"/>
<text text-anchor="middle" x="636.5" y="-7.5" font-family="Helvetica,sans-Serif" font-size="10.00" fill="#000000">cstdio</text>
</g>
<!-- Node5&#45;&gt;Node6 -->
<g id="edge6" class="edge">
<title>Node5&#45;&gt;Node6</title>
<path fill="none" stroke="#191970" d="M536.3006,-56.3733C555.7243,-47.3838 584.9224,-33.8706 606.7964,-23.7471"/>
<polygon fill="#191970" stroke="#191970" points="608.3656,-26.8776 615.9708,-19.5011 605.4255,-20.5249 608.3656,-26.8776"/>
</g>
<!-- Node7 -->
<g id="node8" class="node">
<title>Node7</title>
<polygon fill="#ffffff" stroke="#bfbfbf" points="676,-.5 676,-19.5 721,-19.5 721,-.5 676,-.5"/>
<text text-anchor="middle" x="698.5" y="-7.5" font-family="Helvetica,sans-Serif" font-size="10.00" fill="#000000">cstdlib</text>
</g>
<!-- Node5&#45;&gt;Node7 -->
<g id="edge7" class="edge">
<title>Node5&#45;&gt;Node7</title>
<path fill="none" stroke="#191970" d="M544.7487,-57.1577C573.2797,-48.5175 618.1531,-34.8888 666.1447,-20.095"/>
<polygon fill="#191970" stroke="#191970" points="667.2571,-23.4147 675.7806,-17.1219 665.1932,-16.7259 667.2571,-23.4147"/>
</g>
<!-- Node8 -->
<g id="node9" class="node">
<title>Node8</title>
<polygon fill="#ffffff" stroke="#bfbfbf" points="739,-.5 739,-19.5 788,-19.5 788,-.5 739,-.5"/>
<text text-anchor="middle" x="763.5" y="-7.5" font-family="Helvetica,sans-Serif" font-size="10.00" fill="#000000">cstdarg</text>
</g>
<!-- Node5&#45;&gt;Node8 -->
<g id="edge8" class="edge">
<title>Node5&#45;&gt;Node8</title>
<path fill="none" stroke="#191970" d="M544.7354,-60.4316C584.2324,-52.7539 657.021,-38.0601 728.5894,-20.0896"/>
<polygon fill="#191970" stroke="#191970" points="729.843,-23.3826 738.6763,-17.5325 728.1228,-16.5972 729.843,-23.3826"/>
</g>
<!-- Node9 -->
<g id="node10" class="node">
<title>Node9</title>
<polygon fill="#ffffff" stroke="#bfbfbf" points="806.5,-.5 806.5,-19.5 852.5,-19.5 852.5,-.5 806.5,-.5"/>
<text text-anchor="middle" x="829.5" y="-7.5" font-family="Helvetica,sans-Serif" font-size="10.00" fill="#000000">cstring</text>
</g>
<!-- Node5&#45;&gt;Node9 -->
<g id="edge9" class="edge">
<title>Node5&#45;&gt;Node9</title>
<path fill="none" stroke="#191970" d="M544.895,-61.6916C603.5389,-53.0181 734.0731,-33.303 796.4138,-19.6989"/>
<polygon fill="#191970" stroke="#191970" points="797.189,-23.112 806.1671,-17.4866 795.6406,-16.2854 797.189,-23.112"/>
</g>
<!-- Node10 -->
<g id="node11" class="node">
<title>Node10</title>
<polygon fill="#ffffff" stroke="#bfbfbf" points="155.5,-.5 155.5,-19.5 199.5,-19.5 199.5,-.5 155.5,-.5"/>
<text text-anchor="middle" x="177.5" y="-7.5" font-family="Helvetica,sans-Serif" font-size="10.00" fill="#000000">cmath</text>
</g>
<!-- Node5&#45;&gt;Node10 -->
<g id="edge10" class="edge">
<title>Node5&#45;&gt;Node10</title>
<path fill="none" stroke="#191970" d="M486.4203,-63.2429C433.2192,-57.8577 316.5858,-44.4726 209.7075,-19.9773"/>
<polygon fill="#191970" stroke="#191970" points="210.2621,-16.5128 199.7285,-17.6506 208.6725,-23.3299 210.2621,-16.5128"/>
</g>
<!-- Node11 -->
<g id="node12" class="node">
<title>Node11</title>
<polygon fill="#ffffff" stroke="#bfbfbf" points="218,-.5 218,-19.5 259,-19.5 259,-.5 218,-.5"/>
<text text-anchor="middle" x="238.5" y="-7.5" font-family="Helvetica,sans-Serif" font-size="10.00" fill="#000000">cfloat</text>
</g>
<!-- Node5&#45;&gt;Node11 -->
<g id="edge11" class="edge">
<title>Node5&#45;&gt;Node11</title>
<path fill="none" stroke="#191970" d="M486.172,-62.0043C441.2225,-55.5705 352.5061,-41.651 269.166,-20.172"/>
<polygon fill="#191970" stroke="#191970" points="269.8557,-16.7346 259.2951,-17.5851 268.0811,-23.506 269.8557,-16.7346"/>
</g>
<!-- Node12 -->
<g id="node13" class="node">
<title>Node12</title>
<polygon fill="#ffffff" stroke="#bfbfbf" points="277,-.5 277,-19.5 322,-19.5 322,-.5 277,-.5"/>
<text text-anchor="middle" x="299.5" y="-7.5" font-family="Helvetica,sans-Serif" font-size="10.00" fill="#000000">climits</text>
</g>
<!-- Node5&#45;&gt;Node12 -->
<g id="edge12" class="edge">
<title>Node5&#45;&gt;Node12</title>
<path fill="none" stroke="#191970" d="M486.4981,-59.436C451.7928,-51.4404 391.7396,-37.1611 331.755,-20.2364"/>
<polygon fill="#191970" stroke="#191970" points="332.7085,-16.8688 322.1323,-17.4979 330.7924,-23.6015 332.7085,-16.8688"/>
</g>
<!-- Node13 -->
<g id="node14" class="node">
<title>Node13</title>
<polygon fill="#ffffff" stroke="#bfbfbf" points="340,-.5 340,-19.5 381,-19.5 381,-.5 340,-.5"/>
<text text-anchor="middle" x="360.5" y="-7.5" font-family="Helvetica,sans-Serif" font-size="10.00" fill="#000000">ctime</text>
</g>
<!-- Node5&#45;&gt;Node13 -->
<g id="edge13" class="edge">
<title>Node5&#45;&gt;Node13</title>
<path fill="none" stroke="#191970" d="M488.8546,-56.3733C461.6002,-46.5265 419.3228,-31.2521 390.8084,-20.9501"/>
<polygon fill="#191970" stroke="#191970" points="391.9379,-17.6368 381.3436,-17.5306 389.5593,-24.2204 391.9379,-17.6368"/>
</g>
<!-- Node14 -->
<g id="node15" class="node">
<title>Node14</title>
<polygon fill="#ffffff" stroke="#bfbfbf" points="399,-.5 399,-19.5 458,-19.5 458,-.5 399,-.5"/>
<text text-anchor="middle" x="428.5" y="-7.5" font-family="Helvetica,sans-Serif" font-size="10.00" fill="#000000">exception</text>
</g>
<!-- Node5&#45;&gt;Node14 -->
<g id="edge14" class="edge">
<title>Node5&#45;&gt;Node14</title>
<path fill="none" stroke="#191970" d="M500.3458,-56.2455C486.9973,-47.6534 467.3414,-35.0014 451.9617,-25.1018"/>
<polygon fill="#191970" stroke="#191970" points="453.7836,-22.1121 443.4806,-19.6427 449.9949,-27.9982 453.7836,-22.1121"/>
</g>
<!-- Node15 -->
<g id="node16" class="node">
<title>Node15</title>
<polygon fill="#ffffff" stroke="#bfbfbf" points="476.5,-.5 476.5,-19.5 532.5,-19.5 532.5,-.5 476.5,-.5"/>
<text text-anchor="middle" x="504.5" y="-7.5" font-family="Helvetica,sans-Serif" font-size="10.00" fill="#000000">algorithm</text>
</g>
<!-- Node5&#45;&gt;Node15 -->
<g id="edge15" class="edge">
<title>Node5&#45;&gt;Node15</title>
<path fill="none" stroke="#191970" d="M513.5839,-56.2455C512.1486,-48.9382 510.1364,-38.6944 508.3705,-29.7046"/>
<polygon fill="#191970" stroke="#191970" points="511.756,-28.7805 506.3941,-19.6427 504.8873,-30.1298 511.756,-28.7805"/>
</g>
<!-- Node16 -->
<g id="node17" class="node">
<title>Node16</title>
<polygon fill="#ffffff" stroke="#bfbfbf" points="550.5,-.5 550.5,-19.5 596.5,-19.5 596.5,-.5 550.5,-.5"/>
<text text-anchor="middle" x="573.5" y="-7.5" font-family="Helvetica,sans-Serif" font-size="10.00" fill="#000000">stdio.h</text>
</g>
<!-- Node5&#45;&gt;Node16 -->
<g id="edge16" class="edge">
<title>Node5&#45;&gt;Node16</title>
<path fill="none" stroke="#191970" d="M525.6028,-56.2455C534.0028,-48.1352 546.1494,-36.4075 556.1084,-26.7919"/>
<polygon fill="#191970" stroke="#191970" points="558.75,-29.1066 563.5129,-19.6427 553.8878,-24.0707 558.75,-29.1066"/>
</g>
<!-- Node21 -->
<g id="node22" class="node">
<title>Node21</title>
<g id="a_node22"><a xlink:href="_collection_iterator_8hpp.html" target="_top" xlink:title="CollectionIterator.hpp">
<polygon fill="#ffffff" stroke="#000000" points="857.5,-56.5 857.5,-75.5 967.5,-75.5 967.5,-56.5 857.5,-56.5"/>
<text text-anchor="middle" x="912.5" y="-63.5" font-family="Helvetica,sans-Serif" font-size="10.00" fill="#000000">CollectionIterator.hpp</text>
</a>
</g>
</g>
<!-- Node20&#45;&gt;Node21 -->
<g id="edge21" class="edge">
<title>Node20&#45;&gt;Node21</title>
<path fill="none" stroke="#191970" d="M873.6868,-112.2455C880.3589,-104.2958 889.9479,-92.8706 897.9253,-83.3656"/>
<polygon fill="#191970" stroke="#191970" points="900.6592,-85.5525 904.407,-75.6427 895.2974,-81.0524 900.6592,-85.5525"/>
</g>
<!-- Node23 -->
<g id="node24" class="node">
<title>Node23</title>
<polygon fill="#ffffff" stroke="#bfbfbf" points="1021,-.5 1021,-19.5 1068,-19.5 1068,-.5 1021,-.5"/>
<text text-anchor="middle" x="1044.5" y="-7.5" font-family="Helvetica,sans-Serif" font-size="10.00" fill="#000000">iterator</text>
</g>
<!-- Node20&#45;&gt;Node23 -->
<g id="edge25" class="edge">
<title>Node20&#45;&gt;Node23</title>
<path fill="none" stroke="#191970" d="M897.2069,-112.4403C920.3048,-104.6478 951.7501,-92.2746 976.5,-76 997.1839,-62.3991 1017.0452,-41.9854 1029.9052,-27.4664"/>
<polygon fill="#191970" stroke="#191970" points="1032.7307,-29.5497 1036.6212,-19.695 1027.4344,-24.9726 1032.7307,-29.5497"/>
</g>
<!-- Node21&#45;&gt;Node19 -->
<g id="edge24" class="edge">
<title>Node21&#45;&gt;Node19</title>
<path fill="none" stroke="#191970" d="M909.713,-56.2455C907.6023,-48.8579 904.634,-38.4689 902.0453,-29.4087"/>
<polygon fill="#191970" stroke="#191970" points="905.3677,-28.2964 899.255,-19.6427 898.637,-30.2195 905.3677,-28.2964"/>
</g>
<!-- Node22 -->
<g id="node23" class="node">
<title>Node22</title>
<polygon fill="#ffffff" stroke="#bfbfbf" points="940.5,-.5 940.5,-19.5 1002.5,-19.5 1002.5,-.5 940.5,-.5"/>
<text text-anchor="middle" x="971.5" y="-7.5" font-family="Helvetica,sans-Serif" font-size="10.00" fill="#000000">type_traits</text>
</g>
<!-- Node21&#45;&gt;Node22 -->
<g id="edge22" class="edge">
<title>Node21&#45;&gt;Node22</title>
<path fill="none" stroke="#191970" d="M922.777,-56.2455C931.3218,-48.1352 943.6778,-36.4075 953.8085,-26.7919"/>
<polygon fill="#191970" stroke="#191970" points="956.4972,-29.0655 961.3408,-19.6427 951.6782,-23.9884 956.4972,-29.0655"/>
</g>
<!-- Node21&#45;&gt;Node23 -->
<g id="edge23" class="edge">
<title>Node21&#45;&gt;Node23</title>
<path fill="none" stroke="#191970" d="M935.1916,-56.3733C956.5711,-47.3032 988.8057,-33.6279 1012.7362,-23.4755"/>
<polygon fill="#191970" stroke="#191970" points="1014.2656,-26.6287 1022.1045,-19.5011 1011.5317,-20.1846 1014.2656,-26.6287"/>
</g>
</g>
</svg>
