<?xml version="1.0" encoding="UTF-8" standalone="no"?>
<!DOCTYPE svg PUBLIC "-//W3C//DTD SVG 1.1//EN"
 "http://www.w3.org/Graphics/SVG/1.1/DTD/svg11.dtd">
<!-- Generated by graphviz version 2.40.1 (20161225.0304)
 -->
<!-- Title: src/Parser.cpp Pages: 1 -->
<svg width="1077pt" height="252pt"
 viewBox="0.00 0.00 1077.00 252.00" xmlns="http://www.w3.org/2000/svg" xmlns:xlink="http://www.w3.org/1999/xlink">
<g id="graph0" class="graph" transform="scale(1 1) rotate(0) translate(4 248)">
<title>src/Parser.cpp</title>
<polygon fill="#ffffff" stroke="transparent" points="-4,4 -4,-248 1073,-248 1073,4 -4,4"/>
<!-- Node0 -->
<g id="node1" class="node">
<title>Node0</title>
<polygon fill="#bfbfbf" stroke="#000000" points="328.5,-224.5 328.5,-243.5 408.5,-243.5 408.5,-224.5 328.5,-224.5"/>
<text text-anchor="middle" x="368.5" y="-231.5" font-family="Helvetica,sans-Serif" font-size="10.00" fill="#000000">src/Parser.cpp</text>
</g>
<!-- Node1 -->
<g id="node2" class="node">
<title>Node1</title>
<g id="a_node2"><a xlink:href="_parser_8hpp.html" target="_top" xlink:title="Parser.hpp">
<polygon fill="#ffffff" stroke="#000000" points="631.5,-168.5 631.5,-187.5 695.5,-187.5 695.5,-168.5 631.5,-168.5"/>
<text text-anchor="middle" x="663.5" y="-175.5" font-family="Helvetica,sans-Serif" font-size="10.00" fill="#000000">Parser.hpp</text>
</a>
</g>
</g>
<!-- Node0&#45;&gt;Node1 -->
<g id="edge1" class="edge">
<title>Node0&#45;&gt;Node1</title>
<path fill="none" stroke="#191970" d="M408.592,-226.3893C464.2066,-215.832 564.3161,-196.8281 621.1212,-186.0448"/>
<polygon fill="#191970" stroke="#191970" points="622.0318,-189.4345 631.2035,-184.1309 620.7262,-182.5573 622.0318,-189.4345"/>
</g>
<!-- Node15 -->
<g id="node16" class="node">
<title>Node15</title>
<polygon fill="#ffffff" stroke="#bfbfbf" points="0,-.5 0,-19.5 59,-19.5 59,-.5 0,-.5"/>
<text text-anchor="middle" x="29.5" y="-7.5" font-family="Helvetica,sans-Serif" font-size="10.00" fill="#000000">exception</text>
</g>
<!-- Node0&#45;&gt;Node15 -->
<g id="edge33" class="edge">
<title>Node0&#45;&gt;Node15</title>
<path fill="none" stroke="#191970" d="M353.9336,-224.375C300.9062,-189.3363 117.8721,-68.3933 52.7372,-25.3544"/>
<polygon fill="#191970" stroke="#191970" points="54.2848,-22.182 44.0121,-19.5891 50.4258,-28.0222 54.2848,-22.182"/>
</g>
<!-- Node2 -->
<g id="node3" class="node">
<title>Node2</title>
<g id="a_node3"><a xlink:href="_image_8hpp.html" target="_top" xlink:title="Image/Image.hpp">
<polygon fill="#ffffff" stroke="#000000" points="494.5,-112.5 494.5,-131.5 586.5,-131.5 586.5,-112.5 494.5,-112.5"/>
<text text-anchor="middle" x="540.5" y="-119.5" font-family="Helvetica,sans-Serif" font-size="10.00" fill="#000000">Image/Image.hpp</text>
</a>
</g>
</g>
<!-- Node1&#45;&gt;Node2 -->
<g id="edge2" class="edge">
<title>Node1&#45;&gt;Node2</title>
<path fill="none" stroke="#191970" d="M642.3555,-168.3733C622.6108,-159.3838 592.9302,-145.8706 570.6945,-135.7471"/>
<polygon fill="#191970" stroke="#191970" points="571.92,-132.4594 561.3685,-131.5011 569.0194,-138.8302 571.92,-132.4594"/>
</g>
<!-- Node4 -->
<g id="node5" class="node">
<title>Node4</title>
<polygon fill="#ffffff" stroke="#bfbfbf" points="812,-.5 812,-19.5 853,-19.5 853,-.5 812,-.5"/>
<text text-anchor="middle" x="832.5" y="-7.5" font-family="Helvetica,sans-Serif" font-size="10.00" fill="#000000">string</text>
</g>
<!-- Node1&#45;&gt;Node4 -->
<g id="edge30" class="edge">
<title>Node1&#45;&gt;Node4</title>
<path fill="none" stroke="#191970" d="M695.7137,-172.2452C734.9944,-164.5551 798.0729,-149.8086 813.5,-132 838.3075,-103.3629 837.9165,-56.1131 835.297,-29.6031"/>
<polygon fill="#191970" stroke="#191970" points="838.7667,-29.1404 834.1049,-19.6263 831.8162,-29.9709 838.7667,-29.1404"/>
</g>
<!-- Node18 -->
<g id="node19" class="node">
<title>Node18</title>
<polygon fill="#ffffff" stroke="#bfbfbf" points="270.5,-56.5 270.5,-75.5 390.5,-75.5 390.5,-56.5 270.5,-56.5"/>
<text text-anchor="middle" x="330.5" y="-63.5" font-family="Helvetica,sans-Serif" font-size="10.00" fill="#000000">experimental/filesystem</text>
</g>
<!-- Node1&#45;&gt;Node18 -->
<g id="edge27" class="edge">
<title>Node1&#45;&gt;Node18</title>
<path fill="none" stroke="#191970" d="M631.2432,-171.1932C595.2543,-163.2474 535.5129,-149.0036 485.5,-132 440.5237,-116.7088 390.2251,-94.2533 359.4625,-79.8797"/>
<polygon fill="#191970" stroke="#191970" points="360.731,-76.6085 350.1926,-75.5163 357.7497,-82.9419 360.731,-76.6085"/>
</g>
<!-- Node19 -->
<g id="node20" class="node">
<title>Node19</title>
<polygon fill="#ffffff" stroke="#bfbfbf" points="630.5,-56.5 630.5,-75.5 680.5,-75.5 680.5,-56.5 630.5,-56.5"/>
<text text-anchor="middle" x="655.5" y="-63.5" font-family="Helvetica,sans-Serif" font-size="10.00" fill="#000000">fstream</text>
</g>
<!-- Node1&#45;&gt;Node19 -->
<g id="edge28" class="edge">
<title>Node1&#45;&gt;Node19</title>
<path fill="none" stroke="#191970" d="M654.7139,-168.2709C647.4314,-159.5036 637.6295,-145.8915 633.5,-132 628.6812,-115.7898 635.7146,-97.5683 643.0769,-84.3847"/>
<polygon fill="#191970" stroke="#191970" points="646.1088,-86.1354 648.3312,-75.7762 640.1338,-82.4885 646.1088,-86.1354"/>
</g>
<!-- Node21 -->
<g id="node22" class="node">
<title>Node21</title>
<g id="a_node22"><a xlink:href="_collection_8hpp.html" target="_top" xlink:title="Collection/Collection.hpp">
<polygon fill="#ffffff" stroke="#000000" points="900,-112.5 900,-131.5 1025,-131.5 1025,-112.5 900,-112.5"/>
<text text-anchor="middle" x="962.5" y="-119.5" font-family="Helvetica,sans-Serif" font-size="10.00" fill="#000000">Collection/Collection.hpp</text>
</a>
</g>
</g>
<!-- Node1&#45;&gt;Node21 -->
<g id="edge21" class="edge">
<title>Node1&#45;&gt;Node21</title>
<path fill="none" stroke="#191970" d="M695.7823,-171.9538C744.9174,-162.7513 839.323,-145.0699 901.6137,-133.4034"/>
<polygon fill="#191970" stroke="#191970" points="902.5202,-136.7946 911.705,-131.5134 901.2315,-129.9142 902.5202,-136.7946"/>
</g>
<!-- Node25 -->
<g id="node26" class="node">
<title>Node25</title>
<polygon fill="#ffffff" stroke="#bfbfbf" points="642.5,-112.5 642.5,-131.5 684.5,-131.5 684.5,-112.5 642.5,-112.5"/>
<text text-anchor="middle" x="663.5" y="-119.5" font-family="Helvetica,sans-Serif" font-size="10.00" fill="#000000">locale</text>
</g>
<!-- Node1&#45;&gt;Node25 -->
<g id="edge29" class="edge">
<title>Node1&#45;&gt;Node25</title>
<path fill="none" stroke="#191970" d="M663.5,-168.2455C663.5,-160.9382 663.5,-150.6944 663.5,-141.7046"/>
<polygon fill="#191970" stroke="#191970" points="667.0001,-141.6426 663.5,-131.6427 660.0001,-141.6427 667.0001,-141.6426"/>
</g>
<!-- Node26 -->
<g id="node27" class="node">
<title>Node26</title>
<polygon fill="#ffffff" stroke="#bfbfbf" points="702.5,-112.5 702.5,-131.5 742.5,-131.5 742.5,-112.5 702.5,-112.5"/>
<text text-anchor="middle" x="722.5" y="-119.5" font-family="Helvetica,sans-Serif" font-size="10.00" fill="#000000">utility</text>
</g>
<!-- Node1&#45;&gt;Node26 -->
<g id="edge31" class="edge">
<title>Node1&#45;&gt;Node26</title>
<path fill="none" stroke="#191970" d="M673.777,-168.2455C682.3218,-160.1352 694.6778,-148.4075 704.8085,-138.7919"/>
<polygon fill="#191970" stroke="#191970" points="707.4972,-141.0655 712.3408,-131.6427 702.6782,-135.9884 707.4972,-141.0655"/>
</g>
<!-- Node27 -->
<g id="node28" class="node">
<title>Node27</title>
<polygon fill="#ffffff" stroke="#bfbfbf" points="760.5,-112.5 760.5,-131.5 804.5,-131.5 804.5,-112.5 760.5,-112.5"/>
<text text-anchor="middle" x="782.5" y="-119.5" font-family="Helvetica,sans-Serif" font-size="10.00" fill="#000000">vector</text>
</g>
<!-- Node1&#45;&gt;Node27 -->
<g id="edge32" class="edge">
<title>Node1&#45;&gt;Node27</title>
<path fill="none" stroke="#191970" d="M683.9568,-168.3733C702.9738,-159.4241 731.5175,-145.9917 752.9976,-135.8835"/>
<polygon fill="#191970" stroke="#191970" points="754.7522,-138.926 762.3101,-131.5011 751.7716,-132.5923 754.7522,-138.926"/>
</g>
<!-- Node3 -->
<g id="node4" class="node">
<title>Node3</title>
<g id="a_node4"><a xlink:href="_tag_list_8hpp.html" target="_top" xlink:title="TagList.hpp">
<polygon fill="#ffffff" stroke="#000000" points="506.5,-56.5 506.5,-75.5 574.5,-75.5 574.5,-56.5 506.5,-56.5"/>
<text text-anchor="middle" x="540.5" y="-63.5" font-family="Helvetica,sans-Serif" font-size="10.00" fill="#000000">TagList.hpp</text>
</a>
</g>
</g>
<!-- Node2&#45;&gt;Node3 -->
<g id="edge3" class="edge">
<title>Node2&#45;&gt;Node3</title>
<path fill="none" stroke="#191970" d="M540.5,-112.2455C540.5,-104.9382 540.5,-94.6944 540.5,-85.7046"/>
<polygon fill="#191970" stroke="#191970" points="544.0001,-85.6426 540.5,-75.6427 537.0001,-85.6427 544.0001,-85.6426"/>
</g>
<!-- Node6 -->
<g id="node7" class="node">
<title>Node6</title>
<g id="a_node7"><a xlink:href="_c_img_8h.html" target="_top" xlink:title="../CImg.h">
<polygon fill="#ffffff" stroke="#000000" points="408.5,-56.5 408.5,-75.5 466.5,-75.5 466.5,-56.5 408.5,-56.5"/>
<text text-anchor="middle" x="437.5" y="-63.5" font-family="Helvetica,sans-Serif" font-size="10.00" fill="#000000">../CImg.h</text>
</a>
</g>
</g>
<!-- Node2&#45;&gt;Node6 -->
<g id="edge6" class="edge">
<title>Node2&#45;&gt;Node6</title>
<path fill="none" stroke="#191970" d="M522.5588,-112.2455C506.46,-103.4928 482.6121,-90.527 464.2609,-80.5496"/>
<polygon fill="#191970" stroke="#191970" points="465.6929,-77.3444 455.2356,-75.6427 462.3493,-83.4942 465.6929,-77.3444"/>
</g>
<!-- Node2&#45;&gt;Node18 -->
<g id="edge18" class="edge">
<title>Node2&#45;&gt;Node18</title>
<path fill="none" stroke="#191970" d="M504.3997,-112.3733C468.8752,-102.9001 414.512,-88.4032 376.0381,-78.1435"/>
<polygon fill="#191970" stroke="#191970" points="376.6934,-74.696 366.1292,-75.5011 374.8897,-81.4596 376.6934,-74.696"/>
</g>
<!-- Node2&#45;&gt;Node19 -->
<g id="edge19" class="edge">
<title>Node2&#45;&gt;Node19</title>
<path fill="none" stroke="#191970" d="M560.2692,-112.3733C578.6469,-103.4241 606.2312,-89.9917 626.9893,-79.8835"/>
<polygon fill="#191970" stroke="#191970" points="628.5304,-83.026 635.9888,-75.5011 625.4657,-76.7325 628.5304,-83.026"/>
</g>
<!-- Node20 -->
<g id="node21" class="node">
<title>Node20</title>
<polygon fill="#ffffff" stroke="#bfbfbf" points="871.5,-.5 871.5,-19.5 923.5,-19.5 923.5,-.5 871.5,-.5"/>
<text text-anchor="middle" x="897.5" y="-7.5" font-family="Helvetica,sans-Serif" font-size="10.00" fill="#000000">memory</text>
</g>
<!-- Node2&#45;&gt;Node20 -->
<g id="edge20" class="edge">
<title>Node2&#45;&gt;Node20</title>
<path fill="none" stroke="#191970" d="M548.8736,-112.4774C562.4842,-97.6877 590.9737,-69.4969 621.5,-56 720.1478,-12.3837 756.0078,-42.4759 861.5,-20 861.5991,-19.9789 861.6984,-19.9576 861.7978,-19.9363"/>
<polygon fill="#191970" stroke="#191970" points="862.3253,-23.4085 871.2455,-17.6917 860.7073,-16.598 862.3253,-23.4085"/>
</g>
<!-- Node3&#45;&gt;Node4 -->
<g id="edge4" class="edge">
<title>Node3&#45;&gt;Node4</title>
<path fill="none" stroke="#191970" d="M574.5561,-58.7352C579.2354,-57.7866 583.9827,-56.8502 588.5,-56 680.2289,-38.7361 707.1903,-43.0112 802.2401,-19.7302"/>
<polygon fill="#191970" stroke="#191970" points="803.1074,-23.1212 811.9669,-17.311 801.4178,-16.3282 803.1074,-23.1212"/>
</g>
<!-- Node5 -->
<g id="node6" class="node">
<title>Node5</title>
<polygon fill="#ffffff" stroke="#bfbfbf" points="715.5,-.5 715.5,-19.5 793.5,-19.5 793.5,-.5 715.5,-.5"/>
<text text-anchor="middle" x="754.5" y="-7.5" font-family="Helvetica,sans-Serif" font-size="10.00" fill="#000000">unordered_set</text>
</g>
<!-- Node3&#45;&gt;Node5 -->
<g id="edge5" class="edge">
<title>Node3&#45;&gt;Node5</title>
<path fill="none" stroke="#191970" d="M574.8828,-57.0026C611.0441,-47.5399 668.1567,-32.5945 708.2504,-22.1027"/>
<polygon fill="#191970" stroke="#191970" points="709.2657,-25.4549 718.0539,-19.5373 707.4935,-18.683 709.2657,-25.4549"/>
</g>
<!-- Node7 -->
<g id="node8" class="node">
<title>Node7</title>
<polygon fill="#ffffff" stroke="#bfbfbf" points="654,-.5 654,-19.5 697,-19.5 697,-.5 654,-.5"/>
<text text-anchor="middle" x="675.5" y="-7.5" font-family="Helvetica,sans-Serif" font-size="10.00" fill="#000000">cstdio</text>
</g>
<!-- Node6&#45;&gt;Node7 -->
<g id="edge7" class="edge">
<title>Node6&#45;&gt;Node7</title>
<path fill="none" stroke="#191970" d="M466.5072,-60.4439C504.929,-52.8921 574.9618,-38.4613 644.144,-19.8994"/>
<polygon fill="#191970" stroke="#191970" points="645.1624,-23.2497 653.8969,-17.2531 643.3293,-16.494 645.1624,-23.2497"/>
</g>
<!-- Node8 -->
<g id="node9" class="node">
<title>Node8</title>
<polygon fill="#ffffff" stroke="#bfbfbf" points="77,-.5 77,-19.5 122,-19.5 122,-.5 77,-.5"/>
<text text-anchor="middle" x="99.5" y="-7.5" font-family="Helvetica,sans-Serif" font-size="10.00" fill="#000000">cstdlib</text>
</g>
<!-- Node6&#45;&gt;Node8 -->
<g id="edge8" class="edge">
<title>Node6&#45;&gt;Node8</title>
<path fill="none" stroke="#191970" d="M408.1253,-57.8841C405.2221,-57.1982 402.3108,-56.5557 399.5,-56 284.2889,-33.223 249.9476,-45.909 131.8401,-19.9849"/>
<polygon fill="#191970" stroke="#191970" points="132.5805,-16.5641 122.0571,-17.7923 131.0495,-23.3946 132.5805,-16.5641"/>
</g>
<!-- Node9 -->
<g id="node10" class="node">
<title>Node9</title>
<polygon fill="#ffffff" stroke="#bfbfbf" points="140,-.5 140,-19.5 189,-19.5 189,-.5 140,-.5"/>
<text text-anchor="middle" x="164.5" y="-7.5" font-family="Helvetica,sans-Serif" font-size="10.00" fill="#000000">cstdarg</text>
</g>
<!-- Node6&#45;&gt;Node9 -->
<g id="edge9" class="edge">
<title>Node6&#45;&gt;Node9</title>
<path fill="none" stroke="#191970" d="M408.0981,-58.014C405.2004,-57.3018 402.2978,-56.6176 399.5,-56 313.908,-37.1048 288.5503,-40.5621 199.0479,-19.9171"/>
<polygon fill="#191970" stroke="#191970" points="199.834,-16.5066 189.2992,-17.6327 198.2369,-23.3219 199.834,-16.5066"/>
</g>
<!-- Node10 -->
<g id="node11" class="node">
<title>Node10</title>
<polygon fill="#ffffff" stroke="#bfbfbf" points="207.5,-.5 207.5,-19.5 253.5,-19.5 253.5,-.5 207.5,-.5"/>
<text text-anchor="middle" x="230.5" y="-7.5" font-family="Helvetica,sans-Serif" font-size="10.00" fill="#000000">cstring</text>
</g>
<!-- Node6&#45;&gt;Node10 -->
<g id="edge10" class="edge">
<title>Node6&#45;&gt;Node10</title>
<path fill="none" stroke="#191970" d="M408.4542,-58.3552C405.4305,-57.5597 402.4029,-56.7634 399.5,-56 341.5869,-40.7708 324.6377,-37.6791 263.3368,-20.1535"/>
<polygon fill="#191970" stroke="#191970" points="264.1117,-16.7346 253.534,-17.3368 262.1785,-23.4624 264.1117,-16.7346"/>
</g>
<!-- Node11 -->
<g id="node12" class="node">
<title>Node11</title>
<polygon fill="#ffffff" stroke="#bfbfbf" points="271.5,-.5 271.5,-19.5 315.5,-19.5 315.5,-.5 271.5,-.5"/>
<text text-anchor="middle" x="293.5" y="-7.5" font-family="Helvetica,sans-Serif" font-size="10.00" fill="#000000">cmath</text>
</g>
<!-- Node6&#45;&gt;Node11 -->
<g id="edge11" class="edge">
<title>Node6&#45;&gt;Node11</title>
<path fill="none" stroke="#191970" d="M412.7455,-56.3733C388.5021,-46.9453 351.4637,-32.5414 325.1045,-22.2906"/>
<polygon fill="#191970" stroke="#191970" points="326.1625,-18.9468 315.5739,-18.5843 323.6253,-25.4708 326.1625,-18.9468"/>
</g>
<!-- Node12 -->
<g id="node13" class="node">
<title>Node12</title>
<polygon fill="#ffffff" stroke="#bfbfbf" points="334,-.5 334,-19.5 375,-19.5 375,-.5 334,-.5"/>
<text text-anchor="middle" x="354.5" y="-7.5" font-family="Helvetica,sans-Serif" font-size="10.00" fill="#000000">cfloat</text>
</g>
<!-- Node6&#45;&gt;Node12 -->
<g id="edge12" class="edge">
<title>Node6&#45;&gt;Node12</title>
<path fill="none" stroke="#191970" d="M423.0425,-56.2455C410.4268,-47.7337 391.9056,-35.2375 377.2955,-25.3801"/>
<polygon fill="#191970" stroke="#191970" points="379.0391,-22.3343 368.7918,-19.6427 375.1239,-28.1371 379.0391,-22.3343"/>
</g>
<!-- Node13 -->
<g id="node14" class="node">
<title>Node13</title>
<polygon fill="#ffffff" stroke="#bfbfbf" points="393,-.5 393,-19.5 438,-19.5 438,-.5 393,-.5"/>
<text text-anchor="middle" x="415.5" y="-7.5" font-family="Helvetica,sans-Serif" font-size="10.00" fill="#000000">climits</text>
</g>
<!-- Node6&#45;&gt;Node13 -->
<g id="edge13" class="edge">
<title>Node6&#45;&gt;Node13</title>
<path fill="none" stroke="#191970" d="M433.6679,-56.2455C430.7341,-48.7776 426.5953,-38.2427 423.009,-29.1137"/>
<polygon fill="#191970" stroke="#191970" points="426.2024,-27.6704 419.2882,-19.6427 419.6871,-30.23 426.2024,-27.6704"/>
</g>
<!-- Node14 -->
<g id="node15" class="node">
<title>Node14</title>
<polygon fill="#ffffff" stroke="#bfbfbf" points="456,-.5 456,-19.5 497,-19.5 497,-.5 456,-.5"/>
<text text-anchor="middle" x="476.5" y="-7.5" font-family="Helvetica,sans-Serif" font-size="10.00" fill="#000000">ctime</text>
</g>
<!-- Node6&#45;&gt;Node14 -->
<g id="edge14" class="edge">
<title>Node6&#45;&gt;Node14</title>
<path fill="none" stroke="#191970" d="M444.2933,-56.2455C449.7178,-48.4564 457.4661,-37.3308 464.0033,-27.9439"/>
<polygon fill="#191970" stroke="#191970" points="466.9417,-29.849 469.7846,-19.6427 461.1975,-25.8485 466.9417,-29.849"/>
</g>
<!-- Node6&#45;&gt;Node15 -->
<g id="edge15" class="edge">
<title>Node6&#45;&gt;Node15</title>
<path fill="none" stroke="#191970" d="M408.1394,-57.8103C405.2333,-57.1393 402.3175,-56.5205 399.5,-56 256.827,-29.6445 215.3058,-46.1787 69.4944,-20.148"/>
<polygon fill="#191970" stroke="#191970" points="69.7414,-16.6354 59.2758,-18.2852 68.486,-23.5219 69.7414,-16.6354"/>
</g>
<!-- Node16 -->
<g id="node17" class="node">
<title>Node16</title>
<polygon fill="#ffffff" stroke="#bfbfbf" points="515.5,-.5 515.5,-19.5 571.5,-19.5 571.5,-.5 515.5,-.5"/>
<text text-anchor="middle" x="543.5" y="-7.5" font-family="Helvetica,sans-Serif" font-size="10.00" fill="#000000">algorithm</text>
</g>
<!-- Node6&#45;&gt;Node16 -->
<g id="edge16" class="edge">
<title>Node6&#45;&gt;Node16</title>
<path fill="none" stroke="#191970" d="M455.9638,-56.2455C472.6074,-47.4527 497.2993,-34.4079 516.2192,-24.4125"/>
<polygon fill="#191970" stroke="#191970" points="518.0408,-27.4086 525.2478,-19.6427 514.7709,-21.2193 518.0408,-27.4086"/>
</g>
<!-- Node17 -->
<g id="node18" class="node">
<title>Node17</title>
<polygon fill="#ffffff" stroke="#bfbfbf" points="589.5,-.5 589.5,-19.5 635.5,-19.5 635.5,-.5 589.5,-.5"/>
<text text-anchor="middle" x="612.5" y="-7.5" font-family="Helvetica,sans-Serif" font-size="10.00" fill="#000000">stdio.h</text>
</g>
<!-- Node6&#45;&gt;Node17 -->
<g id="edge17" class="edge">
<title>Node6&#45;&gt;Node17</title>
<path fill="none" stroke="#191970" d="M466.7911,-56.6269C497.872,-46.681 546.8858,-30.9965 579.3587,-20.6052"/>
<polygon fill="#191970" stroke="#191970" points="580.8194,-23.8127 589.2769,-17.4314 578.6859,-17.1457 580.8194,-23.8127"/>
</g>
<!-- Node22 -->
<g id="node23" class="node">
<title>Node22</title>
<g id="a_node23"><a xlink:href="_collection_iterator_8hpp.html" target="_top" xlink:title="CollectionIterator.hpp">
<polygon fill="#ffffff" stroke="#000000" points="907.5,-56.5 907.5,-75.5 1017.5,-75.5 1017.5,-56.5 907.5,-56.5"/>
<text text-anchor="middle" x="962.5" y="-63.5" font-family="Helvetica,sans-Serif" font-size="10.00" fill="#000000">CollectionIterator.hpp</text>
</a>
</g>
</g>
<!-- Node21&#45;&gt;Node22 -->
<g id="edge22" class="edge">
<title>Node21&#45;&gt;Node22</title>
<path fill="none" stroke="#191970" d="M962.5,-112.2455C962.5,-104.9382 962.5,-94.6944 962.5,-85.7046"/>
<polygon fill="#191970" stroke="#191970" points="966.0001,-85.6426 962.5,-75.6427 959.0001,-85.6427 966.0001,-85.6426"/>
</g>
<!-- Node24 -->
<g id="node25" class="node">
<title>Node24</title>
<polygon fill="#ffffff" stroke="#bfbfbf" points="1022,-.5 1022,-19.5 1069,-19.5 1069,-.5 1022,-.5"/>
<text text-anchor="middle" x="1045.5" y="-7.5" font-family="Helvetica,sans-Serif" font-size="10.00" fill="#000000">iterator</text>
</g>
<!-- Node21&#45;&gt;Node24 -->
<g id="edge26" class="edge">
<title>Node21&#45;&gt;Node24</title>
<path fill="none" stroke="#191970" d="M982.3117,-112.3732C996.5786,-104.4728 1015.2273,-91.9939 1026.5,-76 1036.148,-62.3112 1040.9286,-43.7762 1043.2785,-29.8332"/>
<polygon fill="#191970" stroke="#191970" points="1046.7605,-30.2063 1044.6886,-19.816 1039.8288,-29.2305 1046.7605,-30.2063"/>
</g>
<!-- Node22&#45;&gt;Node20 -->
<g id="edge25" class="edge">
<title>Node22&#45;&gt;Node20</title>
<path fill="none" stroke="#191970" d="M951.1779,-56.2455C941.5777,-47.9746 927.6108,-35.9416 916.3305,-26.2232"/>
<polygon fill="#191970" stroke="#191970" points="918.553,-23.5182 908.6924,-19.6427 913.984,-28.8214 918.553,-23.5182"/>
</g>
<!-- Node23 -->
<g id="node24" class="node">
<title>Node23</title>
<polygon fill="#ffffff" stroke="#bfbfbf" points="941.5,-.5 941.5,-19.5 1003.5,-19.5 1003.5,-.5 941.5,-.5"/>
<text text-anchor="middle" x="972.5" y="-7.5" font-family="Helvetica,sans-Serif" font-size="10.00" fill="#000000">type_traits</text>
</g>
<!-- Node22&#45;&gt;Node23 -->
<g id="edge23" class="edge">
<title>Node22&#45;&gt;Node23</title>
<path fill="none" stroke="#191970" d="M964.2419,-56.2455C965.5467,-48.9382 967.376,-38.6944 968.9813,-29.7046"/>
<polygon fill="#191970" stroke="#191970" points="972.4656,-30.1022 970.7781,-19.6427 965.5746,-28.8717 972.4656,-30.1022"/>
</g>
<!-- Node22&#45;&gt;Node24 -->
<g id="edge24" class="edge">
<title>Node22&#45;&gt;Node24</title>
<path fill="none" stroke="#191970" d="M976.9575,-56.2455C989.5732,-47.7337 1008.0944,-35.2375 1022.7045,-25.3801"/>
<polygon fill="#191970" stroke="#191970" points="1024.8761,-28.1371 1031.2082,-19.6427 1020.9609,-22.3343 1024.8761,-28.1371"/>
</g>
</g>
</svg>
