<?xml version="1.0" encoding="UTF-8" standalone="no"?>
<!DOCTYPE svg PUBLIC "-//W3C//DTD SVG 1.1//EN"
 "http://www.w3.org/Graphics/SVG/1.1/DTD/svg11.dtd">
<!-- Generated by graphviz version 2.40.1 (20161225.0304)
 -->
<!-- Title: src/Parser.hpp Pages: 1 -->
<svg width="436pt" height="95pt"
 viewBox="0.00 0.00 435.50 95.00" xmlns="http://www.w3.org/2000/svg" xmlns:xlink="http://www.w3.org/1999/xlink">
<g id="graph0" class="graph" transform="scale(1 1) rotate(0) translate(4 91)">
<title>src/Parser.hpp</title>
<polygon fill="#ffffff" stroke="transparent" points="-4,4 -4,-91 431.5,-91 431.5,4 -4,4"/>
<!-- Node27 -->
<g id="node1" class="node">
<title>Node27</title>
<polygon fill="#bfbfbf" stroke="#000000" points="197.5,-67.5 197.5,-86.5 277.5,-86.5 277.5,-67.5 197.5,-67.5"/>
<text text-anchor="middle" x="237.5" y="-74.5" font-family="Helvetica,sans-Serif" font-size="10.00" fill="#000000">src/Parser.hpp</text>
</g>
<!-- Node28 -->
<g id="node2" class="node">
<title>Node28</title>
<g id="a_node2"><a xlink:href="save_8cpp.html" target="_top" xlink:title="src/ConsolePrototype\l/save.cpp">
<polygon fill="#ffffff" stroke="#000000" points="0,-.5 0,-30.5 111,-30.5 111,-.5 0,-.5"/>
<text text-anchor="start" x="8" y="-18.5" font-family="Helvetica,sans-Serif" font-size="10.00" fill="#000000">src/ConsolePrototype</text>
<text text-anchor="middle" x="55.5" y="-7.5" font-family="Helvetica,sans-Serif" font-size="10.00" fill="#000000">/save.cpp</text>
</a>
</g>
</g>
<!-- Node27&#45;&gt;Node28 -->
<g id="edge1" class="edge">
<title>Node27&#45;&gt;Node28</title>
<path fill="none" stroke="#191970" d="M199.3035,-64.0929C170.3315,-54.303 130.4412,-40.8235 100.0222,-30.5446"/>
<polygon fill="#191970" stroke="#191970" points="198.4683,-67.5051 209.0625,-67.3906 200.7092,-60.8735 198.4683,-67.5051"/>
</g>
<!-- Node29 -->
<g id="node3" class="node">
<title>Node29</title>
<g id="a_node3"><a xlink:href="_image_8cpp.html" target="_top" xlink:title="src/Image/Image.cpp">
<polygon fill="#ffffff" stroke="#000000" points="129,-6 129,-25 238,-25 238,-6 129,-6"/>
<text text-anchor="middle" x="183.5" y="-13" font-family="Helvetica,sans-Serif" font-size="10.00" fill="#000000">src/Image/Image.cpp</text>
</a>
</g>
</g>
<!-- Node27&#45;&gt;Node29 -->
<g id="edge2" class="edge">
<title>Node27&#45;&gt;Node29</title>
<path fill="none" stroke="#191970" d="M222.1995,-59.5744C212.4332,-48.4517 200.135,-34.4454 192.0565,-25.2449"/>
<polygon fill="#191970" stroke="#191970" points="219.8344,-62.1855 229.0625,-67.3906 225.0945,-57.5669 219.8344,-62.1855"/>
</g>
<!-- Node30 -->
<g id="node4" class="node">
<title>Node30</title>
<g id="a_node4"><a xlink:href="main_8cpp.html" target="_top" xlink:title="src/main.cpp">
<polygon fill="#ffffff" stroke="#000000" points="256,-6 256,-25 329,-25 329,-6 256,-6"/>
<text text-anchor="middle" x="292.5" y="-13" font-family="Helvetica,sans-Serif" font-size="10.00" fill="#000000">src/main.cpp</text>
</a>
</g>
</g>
<!-- Node27&#45;&gt;Node30 -->
<g id="edge3" class="edge">
<title>Node27&#45;&gt;Node30</title>
<path fill="none" stroke="#191970" d="M252.792,-59.9007C262.785,-48.7268 275.4763,-34.5356 283.7851,-25.2449"/>
<polygon fill="#191970" stroke="#191970" points="250.1511,-57.6034 246.0938,-67.3906 255.3689,-62.2698 250.1511,-57.6034"/>
</g>
<!-- Node31 -->
<g id="node5" class="node">
<title>Node31</title>
<g id="a_node5"><a xlink:href="_parser_8cpp.html" target="_top" xlink:title="src/Parser.cpp">
<polygon fill="#ffffff" stroke="#000000" points="347.5,-6 347.5,-25 427.5,-25 427.5,-6 347.5,-6"/>
<text text-anchor="middle" x="387.5" y="-13" font-family="Helvetica,sans-Serif" font-size="10.00" fill="#000000">src/Parser.cpp</text>
</a>
</g>
</g>
<!-- Node27&#45;&gt;Node31 -->
<g id="edge4" class="edge">
<title>Node27&#45;&gt;Node31</title>
<path fill="none" stroke="#191970" d="M270.4377,-63.4955C298.822,-51.858 339.085,-35.3501 364.2271,-25.0419"/>
<polygon fill="#191970" stroke="#191970" points="268.8623,-60.3586 260.9375,-67.3906 271.5178,-66.8354 268.8623,-60.3586"/>
</g>
</g>
</svg>
