<?xml version="1.0" encoding="UTF-8" standalone="no"?>
<!DOCTYPE svg PUBLIC "-//W3C//DTD SVG 1.1//EN"
 "http://www.w3.org/Graphics/SVG/1.1/DTD/svg11.dtd">
<!-- Generated by graphviz version 2.40.1 (20161225.0304)
 -->
<!-- Title: tokenize Pages: 1 -->
<svg width="235pt" height="28pt"
 viewBox="0.00 0.00 235.00 28.00" xmlns="http://www.w3.org/2000/svg" xmlns:xlink="http://www.w3.org/1999/xlink">
<g id="graph0" class="graph" transform="scale(1 1) rotate(0) translate(4 24)">
<title>tokenize</title>
<polygon fill="#ffffff" stroke="transparent" points="-4,4 -4,-24 231,-24 231,4 -4,4"/>
<!-- Node9 -->
<g id="node1" class="node">
<title>Node9</title>
<polygon fill="#bfbfbf" stroke="#000000" points="0,-.5 0,-19.5 53,-19.5 53,-.5 0,-.5"/>
<text text-anchor="middle" x="26.5" y="-7.5" font-family="Helvetica,sans-Serif" font-size="10.00" fill="#000000">tokenize</text>
</g>
<!-- Node10 -->
<g id="node2" class="node">
<title>Node10</title>
<g id="a_node2"><a xlink:href="_parser_8cpp.html#a2da3ece8f459c8bca8598e5565227ff9" target="_top" xlink:title="unparse">
<polygon fill="#ffffff" stroke="#000000" points="89,-.5 89,-19.5 140,-19.5 140,-.5 89,-.5"/>
<text text-anchor="middle" x="114.5" y="-7.5" font-family="Helvetica,sans-Serif" font-size="10.00" fill="#000000">unparse</text>
</a>
</g>
</g>
<!-- Node9&#45;&gt;Node10 -->
<g id="edge1" class="edge">
<title>Node9&#45;&gt;Node10</title>
<path fill="none" stroke="#191970" d="M63.5584,-10C72.1223,-10 81.046,-10 88.9877,-10"/>
<polygon fill="#191970" stroke="#191970" points="63.3811,-6.5001 53.3811,-10 63.381,-13.5001 63.3811,-6.5001"/>
</g>
<!-- Node11 -->
<g id="node3" class="node">
<title>Node11</title>
<g id="a_node3"><a xlink:href="_parser_8hpp.html#aedb7825e5621a36283896e845a380163" target="_top" xlink:title="unparse">
<polygon fill="#ffffff" stroke="#000000" points="176,-.5 176,-19.5 227,-19.5 227,-.5 176,-.5"/>
<text text-anchor="middle" x="201.5" y="-7.5" font-family="Helvetica,sans-Serif" font-size="10.00" fill="#000000">unparse</text>
</a>
</g>
</g>
<!-- Node10&#45;&gt;Node11 -->
<g id="edge2" class="edge">
<title>Node10&#45;&gt;Node11</title>
<path fill="none" stroke="#191970" d="M150.2579,-10C158.8024,-10 167.7587,-10 175.7503,-10"/>
<polygon fill="#191970" stroke="#191970" points="150.1324,-6.5001 140.1323,-10 150.1323,-13.5001 150.1324,-6.5001"/>
</g>
</g>
</svg>
