<?xml version="1.0" encoding="UTF-8" standalone="no"?>
<!DOCTYPE svg PUBLIC "-//W3C//DTD SVG 1.1//EN"
 "http://www.w3.org/Graphics/SVG/1.1/DTD/svg11.dtd">
<!-- Generated by graphviz version 2.40.1 (20161225.0304)
 -->
<!-- Title: src/Interface/ScrollWidget.cpp Pages: 1 -->
<svg width="361pt" height="252pt"
 viewBox="0.00 0.00 361.00 252.00" xmlns="http://www.w3.org/2000/svg" xmlns:xlink="http://www.w3.org/1999/xlink">
<g id="graph0" class="graph" transform="scale(1 1) rotate(0) translate(4 248)">
<title>src/Interface/ScrollWidget.cpp</title>
<polygon fill="#ffffff" stroke="transparent" points="-4,4 -4,-248 357,-248 357,4 -4,4"/>
<!-- Node0 -->
<g id="node1" class="node">
<title>Node0</title>
<polygon fill="#bfbfbf" stroke="#000000" points="158.5,-224.5 158.5,-243.5 307.5,-243.5 307.5,-224.5 158.5,-224.5"/>
<text text-anchor="middle" x="233" y="-231.5" font-family="Helvetica,sans-Serif" font-size="10.00" fill="#000000">src/Interface/ScrollWidget.cpp</text>
</g>
<!-- Node1 -->
<g id="node2" class="node">
<title>Node1</title>
<g id="a_node2"><a xlink:href="_scroll_widget_8hpp.html" target="_top" xlink:title="ScrollWidget.hpp">
<polygon fill="#ffffff" stroke="#000000" points="61.5,-168.5 61.5,-187.5 152.5,-187.5 152.5,-168.5 61.5,-168.5"/>
<text text-anchor="middle" x="107" y="-175.5" font-family="Helvetica,sans-Serif" font-size="10.00" fill="#000000">ScrollWidget.hpp</text>
</a>
</g>
</g>
<!-- Node0&#45;&gt;Node1 -->
<g id="edge1" class="edge">
<title>Node0&#45;&gt;Node1</title>
<path fill="none" stroke="#191970" d="M211.3398,-224.3733C191.0228,-215.3435 160.436,-201.7494 137.625,-191.6111"/>
<polygon fill="#191970" stroke="#191970" points="138.9372,-188.3642 128.3775,-187.5011 136.0941,-194.7609 138.9372,-188.3642"/>
</g>
<!-- Node7 -->
<g id="node8" class="node">
<title>Node7</title>
<polygon fill="#ffffff" stroke="#bfbfbf" points="171,-168.5 171,-187.5 227,-187.5 227,-168.5 171,-168.5"/>
<text text-anchor="middle" x="199" y="-175.5" font-family="Helvetica,sans-Serif" font-size="10.00" fill="#000000">algorithm</text>
</g>
<!-- Node0&#45;&gt;Node7 -->
<g id="edge7" class="edge">
<title>Node0&#45;&gt;Node7</title>
<path fill="none" stroke="#191970" d="M227.0777,-224.2455C222.3973,-216.5367 215.7327,-205.5598 210.0711,-196.2348"/>
<polygon fill="#191970" stroke="#191970" points="213.0361,-194.3741 204.8545,-187.6427 207.0525,-198.007 213.0361,-194.3741"/>
</g>
<!-- Node8 -->
<g id="node9" class="node">
<title>Node8</title>
<polygon fill="#ffffff" stroke="#bfbfbf" points="245,-168.5 245,-187.5 289,-187.5 289,-168.5 245,-168.5"/>
<text text-anchor="middle" x="267" y="-175.5" font-family="Helvetica,sans-Serif" font-size="10.00" fill="#000000">thread</text>
</g>
<!-- Node0&#45;&gt;Node8 -->
<g id="edge8" class="edge">
<title>Node0&#45;&gt;Node8</title>
<path fill="none" stroke="#191970" d="M238.9223,-224.2455C243.6027,-216.5367 250.2673,-205.5598 255.9289,-196.2348"/>
<polygon fill="#191970" stroke="#191970" points="258.9475,-198.007 261.1455,-187.6427 252.9639,-194.3741 258.9475,-198.007"/>
</g>
<!-- Node9 -->
<g id="node10" class="node">
<title>Node9</title>
<polygon fill="#ffffff" stroke="#bfbfbf" points="307,-168.5 307,-187.5 353,-187.5 353,-168.5 307,-168.5"/>
<text text-anchor="middle" x="330" y="-175.5" font-family="Helvetica,sans-Serif" font-size="10.00" fill="#000000">chrono</text>
</g>
<!-- Node0&#45;&gt;Node9 -->
<g id="edge9" class="edge">
<title>Node0&#45;&gt;Node9</title>
<path fill="none" stroke="#191970" d="M249.8961,-224.2455C264.918,-215.5731 287.1043,-202.7645 304.321,-192.825"/>
<polygon fill="#191970" stroke="#191970" points="306.3871,-195.6737 313.2975,-187.6427 302.8872,-189.6114 306.3871,-195.6737"/>
</g>
<!-- Node2 -->
<g id="node3" class="node">
<title>Node2</title>
<g id="a_node3"><a xlink:href="_widget_8hpp.html" target="_top" xlink:title="Widget.hpp">
<polygon fill="#ffffff" stroke="#000000" points="36,-112.5 36,-131.5 102,-131.5 102,-112.5 36,-112.5"/>
<text text-anchor="middle" x="69" y="-119.5" font-family="Helvetica,sans-Serif" font-size="10.00" fill="#000000">Widget.hpp</text>
</a>
</g>
</g>
<!-- Node1&#45;&gt;Node2 -->
<g id="edge2" class="edge">
<title>Node1&#45;&gt;Node2</title>
<path fill="none" stroke="#191970" d="M100.3809,-168.2455C95.0954,-160.4564 87.5459,-149.3308 81.1762,-139.9439"/>
<polygon fill="#191970" stroke="#191970" points="84.0545,-137.9522 75.5432,-131.6427 78.2621,-141.8827 84.0545,-137.9522"/>
</g>
<!-- Node6 -->
<g id="node7" class="node">
<title>Node6</title>
<polygon fill="#ffffff" stroke="#bfbfbf" points="120,-112.5 120,-131.5 172,-131.5 172,-112.5 120,-112.5"/>
<text text-anchor="middle" x="146" y="-119.5" font-family="Helvetica,sans-Serif" font-size="10.00" fill="#000000">memory</text>
</g>
<!-- Node1&#45;&gt;Node6 -->
<g id="edge6" class="edge">
<title>Node1&#45;&gt;Node6</title>
<path fill="none" stroke="#191970" d="M113.7933,-168.2455C119.2178,-160.4564 126.9661,-149.3308 133.5033,-139.9439"/>
<polygon fill="#191970" stroke="#191970" points="136.4417,-141.849 139.2846,-131.6427 130.6975,-137.8485 136.4417,-141.849"/>
</g>
<!-- Node3 -->
<g id="node4" class="node">
<title>Node3</title>
<polygon fill="#ffffff" stroke="#bfbfbf" points="0,-56.5 0,-75.5 58,-75.5 58,-56.5 0,-56.5"/>
<text text-anchor="middle" x="29" y="-63.5" font-family="Helvetica,sans-Serif" font-size="10.00" fill="#000000">../CImg.h</text>
</g>
<!-- Node2&#45;&gt;Node3 -->
<g id="edge3" class="edge">
<title>Node2&#45;&gt;Node3</title>
<path fill="none" stroke="#191970" d="M62.0325,-112.2455C56.4689,-104.4564 48.522,-93.3308 41.8171,-83.9439"/>
<polygon fill="#191970" stroke="#191970" points="44.5481,-81.7457 35.8876,-75.6427 38.852,-85.8144 44.5481,-81.7457"/>
</g>
<!-- Node4 -->
<g id="node5" class="node">
<title>Node4</title>
<g id="a_node5"><a xlink:href="_events_8hpp.html" target="_top" xlink:title="Events.hpp">
<polygon fill="#ffffff" stroke="#000000" points="76,-56.5 76,-75.5 142,-75.5 142,-56.5 76,-56.5"/>
<text text-anchor="middle" x="109" y="-63.5" font-family="Helvetica,sans-Serif" font-size="10.00" fill="#000000">Events.hpp</text>
</a>
</g>
</g>
<!-- Node2&#45;&gt;Node4 -->
<g id="edge4" class="edge">
<title>Node2&#45;&gt;Node4</title>
<path fill="none" stroke="#191970" d="M75.9675,-112.2455C81.5311,-104.4564 89.478,-93.3308 96.1829,-83.9439"/>
<polygon fill="#191970" stroke="#191970" points="99.148,-85.8144 102.1124,-75.6427 93.4519,-81.7457 99.148,-85.8144"/>
</g>
<!-- Node5 -->
<g id="node6" class="node">
<title>Node5</title>
<polygon fill="#ffffff" stroke="#bfbfbf" points="86,-.5 86,-19.5 132,-19.5 132,-.5 86,-.5"/>
<text text-anchor="middle" x="109" y="-7.5" font-family="Helvetica,sans-Serif" font-size="10.00" fill="#000000">variant</text>
</g>
<!-- Node4&#45;&gt;Node5 -->
<g id="edge5" class="edge">
<title>Node4&#45;&gt;Node5</title>
<path fill="none" stroke="#191970" d="M109,-56.2455C109,-48.9382 109,-38.6944 109,-29.7046"/>
<polygon fill="#191970" stroke="#191970" points="112.5001,-29.6426 109,-19.6427 105.5001,-29.6427 112.5001,-29.6426"/>
</g>
</g>
</svg>
