<?xml version="1.0" encoding="UTF-8" standalone="no"?>
<!DOCTYPE svg PUBLIC "-//W3C//DTD SVG 1.1//EN"
 "http://www.w3.org/Graphics/SVG/1.1/DTD/svg11.dtd">
<!-- Generated by graphviz version 2.40.1 (20161225.0304)
 -->
<!-- Title: src/Interface/TagSelector.hpp Pages: 1 -->
<svg width="363pt" height="196pt"
 viewBox="0.00 0.00 362.50 196.00" xmlns="http://www.w3.org/2000/svg" xmlns:xlink="http://www.w3.org/1999/xlink">
<g id="graph0" class="graph" transform="scale(1 1) rotate(0) translate(4 192)">
<title>src/Interface/TagSelector.hpp</title>
<polygon fill="#ffffff" stroke="transparent" points="-4,4 -4,-192 358.5,-192 358.5,4 -4,4"/>
<!-- Node0 -->
<g id="node1" class="node">
<title>Node0</title>
<polygon fill="#bfbfbf" stroke="#000000" points="151,-168.5 151,-187.5 297,-187.5 297,-168.5 151,-168.5"/>
<text text-anchor="middle" x="224" y="-175.5" font-family="Helvetica,sans-Serif" font-size="10.00" fill="#000000">src/Interface/TagSelector.hpp</text>
</g>
<!-- Node1 -->
<g id="node2" class="node">
<title>Node1</title>
<g id="a_node2"><a xlink:href="_widget_8hpp.html" target="_top" xlink:title="Widget.hpp">
<polygon fill="#ffffff" stroke="#000000" points="76,-112.5 76,-131.5 142,-131.5 142,-112.5 76,-112.5"/>
<text text-anchor="middle" x="109" y="-119.5" font-family="Helvetica,sans-Serif" font-size="10.00" fill="#000000">Widget.hpp</text>
</a>
</g>
</g>
<!-- Node0&#45;&gt;Node1 -->
<g id="edge1" class="edge">
<title>Node0&#45;&gt;Node1</title>
<path fill="none" stroke="#191970" d="M204.2308,-168.3733C185.8531,-159.4241 158.2688,-145.9917 137.5107,-135.8835"/>
<polygon fill="#191970" stroke="#191970" points="139.0343,-132.7325 128.5112,-131.5011 135.9696,-139.026 139.0343,-132.7325"/>
</g>
<!-- Node5 -->
<g id="node6" class="node">
<title>Node5</title>
<g id="a_node6"><a xlink:href="_tag_list_8hpp.html" target="_top" xlink:title="../Image/TagList.hpp">
<polygon fill="#ffffff" stroke="#000000" points="170.5,-112.5 170.5,-131.5 277.5,-131.5 277.5,-112.5 170.5,-112.5"/>
<text text-anchor="middle" x="224" y="-119.5" font-family="Helvetica,sans-Serif" font-size="10.00" fill="#000000">../Image/TagList.hpp</text>
</a>
</g>
</g>
<!-- Node0&#45;&gt;Node5 -->
<g id="edge5" class="edge">
<title>Node0&#45;&gt;Node5</title>
<path fill="none" stroke="#191970" d="M224,-168.2455C224,-160.9382 224,-150.6944 224,-141.7046"/>
<polygon fill="#191970" stroke="#191970" points="227.5001,-141.6426 224,-131.6427 220.5001,-141.6427 227.5001,-141.6426"/>
</g>
<!-- Node9 -->
<g id="node10" class="node">
<title>Node9</title>
<polygon fill="#ffffff" stroke="#bfbfbf" points="295.5,-112.5 295.5,-131.5 354.5,-131.5 354.5,-112.5 295.5,-112.5"/>
<text text-anchor="middle" x="325" y="-119.5" font-family="Helvetica,sans-Serif" font-size="10.00" fill="#000000">functional</text>
</g>
<!-- Node0&#45;&gt;Node9 -->
<g id="edge9" class="edge">
<title>Node0&#45;&gt;Node9</title>
<path fill="none" stroke="#191970" d="M241.5929,-168.2455C257.379,-159.4928 280.7639,-146.527 298.7587,-136.5496"/>
<polygon fill="#191970" stroke="#191970" points="300.5603,-139.5528 307.6087,-131.6427 297.1659,-133.4308 300.5603,-139.5528"/>
</g>
<!-- Node2 -->
<g id="node3" class="node">
<title>Node2</title>
<polygon fill="#ffffff" stroke="#bfbfbf" points="0,-56.5 0,-75.5 58,-75.5 58,-56.5 0,-56.5"/>
<text text-anchor="middle" x="29" y="-63.5" font-family="Helvetica,sans-Serif" font-size="10.00" fill="#000000">../CImg.h</text>
</g>
<!-- Node1&#45;&gt;Node2 -->
<g id="edge2" class="edge">
<title>Node1&#45;&gt;Node2</title>
<path fill="none" stroke="#191970" d="M95.0651,-112.2455C82.9053,-103.7337 65.0536,-91.2375 50.9715,-81.3801"/>
<polygon fill="#191970" stroke="#191970" points="52.9747,-78.51 42.7752,-75.6427 48.9605,-84.2447 52.9747,-78.51"/>
</g>
<!-- Node3 -->
<g id="node4" class="node">
<title>Node3</title>
<g id="a_node4"><a xlink:href="_events_8hpp.html" target="_top" xlink:title="Events.hpp">
<polygon fill="#ffffff" stroke="#000000" points="76,-56.5 76,-75.5 142,-75.5 142,-56.5 76,-56.5"/>
<text text-anchor="middle" x="109" y="-63.5" font-family="Helvetica,sans-Serif" font-size="10.00" fill="#000000">Events.hpp</text>
</a>
</g>
</g>
<!-- Node1&#45;&gt;Node3 -->
<g id="edge3" class="edge">
<title>Node1&#45;&gt;Node3</title>
<path fill="none" stroke="#191970" d="M109,-112.2455C109,-104.9382 109,-94.6944 109,-85.7046"/>
<polygon fill="#191970" stroke="#191970" points="112.5001,-85.6426 109,-75.6427 105.5001,-85.6427 112.5001,-85.6426"/>
</g>
<!-- Node4 -->
<g id="node5" class="node">
<title>Node4</title>
<polygon fill="#ffffff" stroke="#bfbfbf" points="86,-.5 86,-19.5 132,-19.5 132,-.5 86,-.5"/>
<text text-anchor="middle" x="109" y="-7.5" font-family="Helvetica,sans-Serif" font-size="10.00" fill="#000000">variant</text>
</g>
<!-- Node3&#45;&gt;Node4 -->
<g id="edge4" class="edge">
<title>Node3&#45;&gt;Node4</title>
<path fill="none" stroke="#191970" d="M109,-56.2455C109,-48.9382 109,-38.6944 109,-29.7046"/>
<polygon fill="#191970" stroke="#191970" points="112.5001,-29.6426 109,-19.6427 105.5001,-29.6427 112.5001,-29.6426"/>
</g>
<!-- Node6 -->
<g id="node7" class="node">
<title>Node6</title>
<polygon fill="#ffffff" stroke="#bfbfbf" points="160.5,-56.5 160.5,-75.5 201.5,-75.5 201.5,-56.5 160.5,-56.5"/>
<text text-anchor="middle" x="181" y="-63.5" font-family="Helvetica,sans-Serif" font-size="10.00" fill="#000000">string</text>
</g>
<!-- Node5&#45;&gt;Node6 -->
<g id="edge6" class="edge">
<title>Node5&#45;&gt;Node6</title>
<path fill="none" stroke="#191970" d="M216.51,-112.2455C210.4674,-104.3761 201.8097,-93.101 194.5559,-83.6542"/>
<polygon fill="#191970" stroke="#191970" points="197.2705,-81.4426 188.4042,-75.6427 191.7185,-85.7058 197.2705,-81.4426"/>
</g>
<!-- Node7 -->
<g id="node8" class="node">
<title>Node7</title>
<polygon fill="#ffffff" stroke="#bfbfbf" points="220,-56.5 220,-75.5 250,-75.5 250,-56.5 220,-56.5"/>
<text text-anchor="middle" x="235" y="-63.5" font-family="Helvetica,sans-Serif" font-size="10.00" fill="#000000">set</text>
</g>
<!-- Node5&#45;&gt;Node7 -->
<g id="edge7" class="edge">
<title>Node5&#45;&gt;Node7</title>
<path fill="none" stroke="#191970" d="M225.9161,-112.2455C227.3514,-104.9382 229.3636,-94.6944 231.1295,-85.7046"/>
<polygon fill="#191970" stroke="#191970" points="234.6127,-86.1298 233.1059,-75.6427 227.744,-84.7805 234.6127,-86.1298"/>
</g>
<!-- Node8 -->
<g id="node9" class="node">
<title>Node8</title>
<polygon fill="#ffffff" stroke="#bfbfbf" points="268,-56.5 268,-75.5 314,-75.5 314,-56.5 268,-56.5"/>
<text text-anchor="middle" x="291" y="-63.5" font-family="Helvetica,sans-Serif" font-size="10.00" fill="#000000">cctype</text>
</g>
<!-- Node5&#45;&gt;Node8 -->
<g id="edge8" class="edge">
<title>Node5&#45;&gt;Node8</title>
<path fill="none" stroke="#191970" d="M235.6705,-112.2455C245.5661,-103.9746 259.9627,-91.9416 271.5901,-82.2232"/>
<polygon fill="#191970" stroke="#191970" points="274.035,-84.7413 279.4632,-75.6427 269.5458,-79.3703 274.035,-84.7413"/>
</g>
</g>
</svg>
