<?xml version="1.0" encoding="UTF-8" standalone="no"?>
<!DOCTYPE svg PUBLIC "-//W3C//DTD SVG 1.1//EN"
 "http://www.w3.org/Graphics/SVG/1.1/DTD/svg11.dtd">
<!-- Generated by graphviz version 2.40.1 (20161225.0304)
 -->
<!-- Title: src/Image/TagList.hpp Pages: 1 -->
<!--zoomable 229 -->
<svg id="main" version="1.1" xmlns="http://www.w3.org/2000/svg" xmlns:xlink="http://www.w3.org/1999/xlink" xml:space="preserve" onload="init(evt)">
<style type="text/css"><![CDATA[
.edge:hover path { stroke: red; }
.edge:hover polygon { stroke: red; fill: red; }
]]></style>
<script type="text/javascript"><![CDATA[
var edges = document.getElementsByTagName('g');
if (edges && edges.length) {
  for (var i=0;i<edges.length;i++) {
    if (edges[i].id.substr(0,4)=='edge') {
      edges[i].setAttribute('class','edge');
    }
  }
}
]]></script>
        <defs>
                <circle id="rim" cx="0" cy="0" r="7"/>
                <circle id="rim2" cx="0" cy="0" r="3.5"/>
                <g id="zoomPlus">
                        <use xlink:href="#rim" fill="#404040">
                                <set attributeName="fill" to="#808080" begin="zoomplus.mouseover" end="zoomplus.mouseout"/>
                        </use>
                        <path d="M-4,0h8M0,-4v8" fill="none" stroke="white" stroke-width="1.5" pointer-events="none"/>
                </g>
                <g id="zoomMin">
                        <use xlink:href="#rim" fill="#404040">
                                <set attributeName="fill" to="#808080" begin="zoomminus.mouseover" end="zoomminus.mouseout"/>
                        </use>
                        <path d="M-4,0h8" fill="none" stroke="white" stroke-width="1.5" pointer-events="none"/>
                </g>
                <g id="dirArrow">
                        <path fill="none" stroke="white" stroke-width="1.5" d="M0,-3.0v7 M-2.5,-0.5L0,-3.0L2.5,-0.5"/>
                </g>
               <g id="resetDef">
                       <use xlink:href="#rim2" fill="#404040">
                               <set attributeName="fill" to="#808080" begin="reset.mouseover" end="reset.mouseout"/>
                       </use>
               </g>
        </defs>

<script type="text/javascript">
var viewWidth = 680;
var viewHeight = 229;
var sectionId = 'dynsection-1';
</script>
<script xlink:href="svgpan.js"/>
<svg id="graph" class="graph">
<g id="viewport">
<title>src/Image/TagList.hpp</title>
<polygon fill="#ffffff" stroke="transparent" points="-4,4 -4,-225 676,-225 676,4 -4,4"/>
<!-- Node3 -->
<g id="node1" class="node">
<title>Node3</title>
<polygon fill="#bfbfbf" stroke="#000000" points="146.5,-201.5 146.5,-220.5 260.5,-220.5 260.5,-201.5 146.5,-201.5"/>
<text text-anchor="middle" x="203.5" y="-208.5" font-family="Helvetica,sans-Serif" font-size="10.00" fill="#000000">src/Image/TagList.hpp</text>
</g>
<!-- Node4 -->
<g id="node2" class="node">
<title>Node4</title>
<g id="a_node2"><a xlink:href="config_8hpp.html" target="_top" xlink:title="src/ConsolePrototype\l/config.hpp">
<polygon fill="#ffffff" stroke="#000000" points="84,-134.5 84,-164.5 195,-164.5 195,-134.5 84,-134.5"/>
<text text-anchor="start" x="92" y="-152.5" font-family="Helvetica,sans-Serif" font-size="10.00" fill="#000000">src/ConsolePrototype</text>
<text text-anchor="middle" x="139.5" y="-141.5" font-family="Helvetica,sans-Serif" font-size="10.00" fill="#000000">/config.hpp</text>
</a>
</g>
</g>
<!-- Node3&#45;&gt;Node4 -->
<g id="edge1" class="edge">
<title>Node3&#45;&gt;Node4</title>
<path fill="none" stroke="#191970" d="M186.0276,-194.2101C176.3809,-184.9403 164.4983,-173.5218 155.1562,-164.5446"/>
<polygon fill="#191970" stroke="#191970" points="183.8644,-196.9854 193.5,-201.3906 188.7146,-191.9381 183.8644,-196.9854"/>
</g>
<!-- Node7 -->
<g id="node5" class="node">
<title>Node7</title>
<g id="a_node5"><a xlink:href="_image_8hpp.html" target="_top" xlink:title="src/Image/Image.hpp">
<polygon fill="#ffffff" stroke="#000000" points="274,-140 274,-159 383,-159 383,-140 274,-140"/>
<text text-anchor="middle" x="328.5" y="-147" font-family="Helvetica,sans-Serif" font-size="10.00" fill="#000000">src/Image/Image.hpp</text>
</a>
</g>
</g>
<!-- Node3&#45;&gt;Node7 -->
<g id="edge4" class="edge">
<title>Node3&#45;&gt;Node7</title>
<path fill="none" stroke="#191970" d="M232.1965,-196.8813C255.7699,-185.2832 288.5202,-169.1701 309.1059,-159.0419"/>
<polygon fill="#191970" stroke="#191970" points="230.4589,-193.8355 223.0313,-201.3906 233.5492,-200.1164 230.4589,-193.8355"/>
</g>
<!-- Node5 -->
<g id="node3" class="node">
<title>Node5</title>
<g id="a_node3"><a xlink:href="config_8cpp.html" target="_top" xlink:title="src/ConsolePrototype\l/config.cpp">
<polygon fill="#ffffff" stroke="#000000" points="0,-67.5 0,-97.5 111,-97.5 111,-67.5 0,-67.5"/>
<text text-anchor="start" x="8" y="-85.5" font-family="Helvetica,sans-Serif" font-size="10.00" fill="#000000">src/ConsolePrototype</text>
<text text-anchor="middle" x="55.5" y="-74.5" font-family="Helvetica,sans-Serif" font-size="10.00" fill="#000000">/config.cpp</text>
</a>
</g>
</g>
<!-- Node4&#45;&gt;Node5 -->
<g id="edge2" class="edge">
<title>Node4&#45;&gt;Node5</title>
<path fill="none" stroke="#191970" d="M112.27,-127.7808C99.9301,-117.9383 85.6409,-106.541 74.4855,-97.6432"/>
<polygon fill="#191970" stroke="#191970" points="110.4388,-130.7973 120.4391,-134.2967 114.8038,-125.3248 110.4388,-130.7973"/>
</g>
<!-- Node6 -->
<g id="node4" class="node">
<title>Node6</title>
<g id="a_node4"><a xlink:href="main_8cpp.html" target="_top" xlink:title="src/main.cpp">
<polygon fill="#ffffff" stroke="#000000" points="115,-6 115,-25 188,-25 188,-6 115,-6"/>
<text text-anchor="middle" x="151.5" y="-13" font-family="Helvetica,sans-Serif" font-size="10.00" fill="#000000">src/main.cpp</text>
</a>
</g>
</g>
<!-- Node4&#45;&gt;Node6 -->
<g id="edge3" class="edge">
<title>Node4&#45;&gt;Node6</title>
<path fill="none" stroke="#191970" d="M141.7607,-124.2559C144.4493,-94.2327 148.8038,-45.6073 150.6399,-25.1042"/>
<polygon fill="#191970" stroke="#191970" points="138.2592,-124.1166 140.8532,-134.389 145.2313,-124.741 138.2592,-124.1166"/>
</g>
<!-- Node7&#45;&gt;Node6 -->
<g id="edge17" class="edge">
<title>Node7&#45;&gt;Node6</title>
<path fill="none" stroke="#191970" d="M272.5237,-137.0724C247.0762,-129.213 217.9369,-116.8669 196.5,-98 173.2302,-77.52 159.7136,-41.9955 154.2908,-25.0394"/>
<polygon fill="#191970" stroke="#191970" points="271.8556,-140.5235 282.4359,-139.9699 273.8196,-133.8047 271.8556,-140.5235"/>
</g>
<!-- Node8 -->
<g id="node6" class="node">
<title>Node8</title>
<g id="a_node6"><a xlink:href="menu_8hpp.html" target="_top" xlink:title="src/ConsolePrototype\l/menu.hpp">
<polygon fill="#ffffff" stroke="#000000" points="206,-67.5 206,-97.5 317,-97.5 317,-67.5 206,-67.5"/>
<text text-anchor="start" x="214" y="-85.5" font-family="Helvetica,sans-Serif" font-size="10.00" fill="#000000">src/ConsolePrototype</text>
<text text-anchor="middle" x="261.5" y="-74.5" font-family="Helvetica,sans-Serif" font-size="10.00" fill="#000000">/menu.hpp</text>
</a>
</g>
</g>
<!-- Node7&#45;&gt;Node8 -->
<g id="edge5" class="edge">
<title>Node7&#45;&gt;Node8</title>
<path fill="none" stroke="#191970" d="M311.6753,-132.6753C300.8691,-121.8691 286.9553,-107.9553 276.5218,-97.5218"/>
<polygon fill="#191970" stroke="#191970" points="309.3546,-135.3043 318.9005,-139.9005 314.3043,-130.3546 309.3546,-135.3043"/>
</g>
<!-- Node10 -->
<g id="node8" class="node">
<title>Node10</title>
<g id="a_node8"><a xlink:href="_parser_8hpp.html" target="_top" xlink:title="src/Parser.hpp">
<polygon fill="#ffffff" stroke="#000000" points="464.5,-73 464.5,-92 544.5,-92 544.5,-73 464.5,-73"/>
<text text-anchor="middle" x="504.5" y="-80" font-family="Helvetica,sans-Serif" font-size="10.00" fill="#000000">src/Parser.hpp</text>
</a>
</g>
</g>
<!-- Node7&#45;&gt;Node10 -->
<g id="edge8" class="edge">
<title>Node7&#45;&gt;Node10</title>
<path fill="none" stroke="#191970" d="M363.3095,-136.2487C397.5216,-123.2247 448.9001,-103.6659 479.3303,-92.0817"/>
<polygon fill="#191970" stroke="#191970" points="361.817,-133.0717 353.7165,-139.9005 364.3075,-139.6137 361.817,-133.0717"/>
</g>
<!-- Node12 -->
<g id="node10" class="node">
<title>Node12</title>
<g id="a_node10"><a xlink:href="_image_8cpp.html" target="_top" xlink:title="src/Image/Image.cpp">
<polygon fill="#ffffff" stroke="#000000" points="563,-6 563,-25 672,-25 672,-6 563,-6"/>
<text text-anchor="middle" x="617.5" y="-13" font-family="Helvetica,sans-Serif" font-size="10.00" fill="#000000">src/Image/Image.cpp</text>
</a>
</g>
</g>
<!-- Node7&#45;&gt;Node12 -->
<g id="edge16" class="edge">
<title>Node7&#45;&gt;Node12</title>
<path fill="none" stroke="#191970" d="M392.9909,-139.6984C449.7087,-130.192 527.2099,-114.7775 553.5,-98 582.6865,-79.3741 603.9472,-42.6174 612.8621,-25.1527"/>
<polygon fill="#191970" stroke="#191970" points="392.3111,-136.2632 383.0151,-141.3459 393.4517,-143.1696 392.3111,-136.2632"/>
</g>
<!-- Node14 -->
<g id="node12" class="node">
<title>Node14</title>
<g id="a_node12"><a xlink:href="save_8hpp.html" target="_top" xlink:title="src/ConsolePrototype\l/save.hpp">
<polygon fill="#ffffff" stroke="#000000" points="335,-67.5 335,-97.5 446,-97.5 446,-67.5 335,-67.5"/>
<text text-anchor="start" x="343" y="-85.5" font-family="Helvetica,sans-Serif" font-size="10.00" fill="#000000">src/ConsolePrototype</text>
<text text-anchor="middle" x="390.5" y="-74.5" font-family="Helvetica,sans-Serif" font-size="10.00" fill="#000000">/save.hpp</text>
</a>
</g>
</g>
<!-- Node7&#45;&gt;Node14 -->
<g id="edge13" class="edge">
<title>Node7&#45;&gt;Node14</title>
<path fill="none" stroke="#191970" d="M344.3612,-132.3597C354.3186,-121.5992 367.038,-107.8541 376.5993,-97.5218"/>
<polygon fill="#191970" stroke="#191970" points="341.6061,-130.1837 337.3831,-139.9005 346.7439,-134.9381 341.6061,-130.1837"/>
</g>
<!-- Node8&#45;&gt;Node6 -->
<g id="edge7" class="edge">
<title>Node8&#45;&gt;Node6</title>
<path fill="none" stroke="#191970" d="M228.1886,-62.2103C207.9709,-49.8959 183.0975,-34.7457 167.2676,-25.1039"/>
<polygon fill="#191970" stroke="#191970" points="226.4527,-65.2511 236.8139,-67.4639 230.094,-59.2727 226.4527,-65.2511"/>
</g>
<!-- Node9 -->
<g id="node7" class="node">
<title>Node9</title>
<g id="a_node7"><a xlink:href="menu_8cpp.html" target="_top" xlink:title="src/ConsolePrototype\l/menu.cpp">
<polygon fill="#ffffff" stroke="#000000" points="206,-.5 206,-30.5 317,-30.5 317,-.5 206,-.5"/>
<text text-anchor="start" x="214" y="-18.5" font-family="Helvetica,sans-Serif" font-size="10.00" fill="#000000">src/ConsolePrototype</text>
<text text-anchor="middle" x="261.5" y="-7.5" font-family="Helvetica,sans-Serif" font-size="10.00" fill="#000000">/menu.cpp</text>
</a>
</g>
</g>
<!-- Node8&#45;&gt;Node9 -->
<g id="edge6" class="edge">
<title>Node8&#45;&gt;Node9</title>
<path fill="none" stroke="#191970" d="M261.5,-57.0249C261.5,-48.128 261.5,-38.4287 261.5,-30.6432"/>
<polygon fill="#191970" stroke="#191970" points="258.0001,-57.2966 261.5,-67.2967 265.0001,-57.2967 258.0001,-57.2966"/>
</g>
<!-- Node10&#45;&gt;Node6 -->
<g id="edge11" class="edge">
<title>Node10&#45;&gt;Node6</title>
<path fill="none" stroke="#191970" d="M467.4495,-70.0602C463.4417,-68.9305 459.4027,-67.8819 455.5,-67 342.1405,-41.3839 309.5258,-58.0508 196.5,-31 189.9105,-29.4229 182.9254,-27.2658 176.4742,-25.0622"/>
<polygon fill="#191970" stroke="#191970" points="466.6687,-73.4797 477.2521,-72.9871 468.6715,-66.7723 466.6687,-73.4797"/>
</g>
<!-- Node11 -->
<g id="node9" class="node">
<title>Node11</title>
<g id="a_node9"><a xlink:href="save_8cpp.html" target="_top" xlink:title="src/ConsolePrototype\l/save.cpp">
<polygon fill="#ffffff" stroke="#000000" points="335,-.5 335,-30.5 446,-30.5 446,-.5 335,-.5"/>
<text text-anchor="start" x="343" y="-18.5" font-family="Helvetica,sans-Serif" font-size="10.00" fill="#000000">src/ConsolePrototype</text>
<text text-anchor="middle" x="390.5" y="-7.5" font-family="Helvetica,sans-Serif" font-size="10.00" fill="#000000">/save.cpp</text>
</a>
</g>
</g>
<!-- Node10&#45;&gt;Node11 -->
<g id="edge9" class="edge">
<title>Node10&#45;&gt;Node11</title>
<path fill="none" stroke="#191970" d="M479.5449,-67.8334C460.7313,-56.7763 435.0186,-41.6644 416.0594,-30.5218"/>
<polygon fill="#191970" stroke="#191970" points="477.7718,-70.851 488.1666,-72.9005 481.3187,-64.8161 477.7718,-70.851"/>
</g>
<!-- Node10&#45;&gt;Node12 -->
<g id="edge10" class="edge">
<title>Node10&#45;&gt;Node12</title>
<path fill="none" stroke="#191970" d="M529.4426,-67.711C551.3433,-54.7256 582.557,-36.2184 601.3399,-25.0817"/>
<polygon fill="#191970" stroke="#191970" points="527.5068,-64.7898 520.6901,-72.9005 531.0769,-70.811 527.5068,-64.7898"/>
</g>
<!-- Node13 -->
<g id="node11" class="node">
<title>Node13</title>
<g id="a_node11"><a xlink:href="_parser_8cpp.html" target="_top" xlink:title="src/Parser.cpp">
<polygon fill="#ffffff" stroke="#000000" points="464.5,-6 464.5,-25 544.5,-25 544.5,-6 464.5,-6"/>
<text text-anchor="middle" x="504.5" y="-13" font-family="Helvetica,sans-Serif" font-size="10.00" fill="#000000">src/Parser.cpp</text>
</a>
</g>
</g>
<!-- Node10&#45;&gt;Node13 -->
<g id="edge12" class="edge">
<title>Node10&#45;&gt;Node13</title>
<path fill="none" stroke="#191970" d="M504.5,-62.6079C504.5,-50.214 504.5,-34.8263 504.5,-25.0817"/>
<polygon fill="#191970" stroke="#191970" points="501.0001,-62.9005 504.5,-72.9005 508.0001,-62.9006 501.0001,-62.9005"/>
</g>
<!-- Node14&#45;&gt;Node6 -->
<g id="edge15" class="edge">
<title>Node14&#45;&gt;Node6</title>
<path fill="none" stroke="#191970" d="M324.7371,-66.3006C287.0173,-56.6955 238.8826,-43.9063 196.5,-31 190.6506,-29.2187 184.4228,-27.1721 178.5242,-25.1624"/>
<polygon fill="#191970" stroke="#191970" points="324.0348,-69.7331 334.5882,-68.7971 325.7545,-62.9476 324.0348,-69.7331"/>
</g>
<!-- Node14&#45;&gt;Node11 -->
<g id="edge14" class="edge">
<title>Node14&#45;&gt;Node11</title>
<path fill="none" stroke="#191970" d="M390.5,-57.0249C390.5,-48.128 390.5,-38.4287 390.5,-30.6432"/>
<polygon fill="#191970" stroke="#191970" points="387.0001,-57.2966 390.5,-67.2967 394.0001,-57.2967 387.0001,-57.2966"/>
</g>
</g>
</svg>
        <g id="navigator" transform="translate(0 0)" fill="#404254">
                <rect fill="#f2f5e9" fill-opacity="0.5" stroke="#606060" stroke-width=".5" x="0" y="0" width="60" height="60"/>
                <use id="zoomplus" xlink:href="#zoomPlus" x="17" y="9" onmousedown="handleZoom(evt,'in')"/>
                <use id="zoomminus" xlink:href="#zoomMin" x="42" y="9" onmousedown="handleZoom(evt,'out')"/>
                <use id="reset" xlink:href="#resetDef" x="30" y="36" onmousedown="handleReset()"/>
                <g id="arrowUp" xlink:href="#dirArrow" transform="translate(30 24)" onmousedown="handlePan(0,-1)">
                  <use xlink:href="#rim" fill="#404040">
                        <set attributeName="fill" to="#808080" begin="arrowUp.mouseover" end="arrowUp.mouseout"/>
                  </use>
                  <path fill="none" stroke="white" stroke-width="1.5" d="M0,-3.0v7 M-2.5,-0.5L0,-3.0L2.5,-0.5"/>
                </g>
                <g id="arrowRight" xlink:href="#dirArrow" transform="rotate(90) translate(36 -43)" onmousedown="handlePan(1,0)">
                  <use xlink:href="#rim" fill="#404040">
                        <set attributeName="fill" to="#808080" begin="arrowRight.mouseover" end="arrowRight.mouseout"/>
                  </use>
                  <path fill="none" stroke="white" stroke-width="1.5" d="M0,-3.0v7 M-2.5,-0.5L0,-3.0L2.5,-0.5"/>
                </g>
                <g id="arrowDown" xlink:href="#dirArrow" transform="rotate(180) translate(-30 -48)" onmousedown="handlePan(0,1)">
                  <use xlink:href="#rim" fill="#404040">
                        <set attributeName="fill" to="#808080" begin="arrowDown.mouseover" end="arrowDown.mouseout"/>
                  </use>
                  <path fill="none" stroke="white" stroke-width="1.5" d="M0,-3.0v7 M-2.5,-0.5L0,-3.0L2.5,-0.5"/>
                </g>
                <g id="arrowLeft" xlink:href="#dirArrow" transform="rotate(270) translate(-36 17)" onmousedown="handlePan(-1,0)">
                  <use xlink:href="#rim" fill="#404040">
                        <set attributeName="fill" to="#808080" begin="arrowLeft.mouseover" end="arrowLeft.mouseout"/>
                  </use>
                  <path fill="none" stroke="white" stroke-width="1.5" d="M0,-3.0v7 M-2.5,-0.5L0,-3.0L2.5,-0.5"/>
                </g>
        </g>
        <svg viewBox="0 0 15 15" width="100%" height="30px" preserveAspectRatio="xMaxYMin meet">
         <g id="arrow_out" transform="scale(0.3 0.3)">
          <a xlink:href="_tag_list_8hpp__dep__incl_org.svg" target="_base">
           <rect id="button" ry="5" rx="5" y="6" x="6" height="38" width="38"
                fill="#f2f5e9" fill-opacity="0.5" stroke="#606060" stroke-width="1.0"/>
           <path id="arrow"
             d="M 11.500037,31.436501 C 11.940474,20.09759 22.043105,11.32322 32.158766,21.979434 L 37.068811,17.246167 C 37.068811,17.246167 37.088388,32 37.088388,32 L 22.160133,31.978069 C 22.160133,31.978069 26.997745,27.140456 26.997745,27.140456 C 18.528582,18.264221 13.291696,25.230495 11.500037,31.436501 z"
             style="fill:#404040;"/>
          </a>
         </g>
        </svg>
</svg>
