<?xml version="1.0" encoding="UTF-8" standalone="no"?>
<!DOCTYPE svg PUBLIC "-//W3C//DTD SVG 1.1//EN"
 "http://www.w3.org/Graphics/SVG/1.1/DTD/svg11.dtd">
<!-- Generated by graphviz version 2.40.1 (20161225.0304)
 -->
<!-- Title: src/Image/TagList.hpp Pages: 1 -->
<svg width="1549pt" height="263pt"
 viewBox="0.00 0.00 1549.33 263.00" xmlns="http://www.w3.org/2000/svg" xmlns:xlink="http://www.w3.org/1999/xlink">
<g id="graph0" class="graph" transform="scale(1 1) rotate(0) translate(4 259)">
<title>src/Image/TagList.hpp</title>
<polygon fill="#ffffff" stroke="transparent" points="-4,4 -4,-259 1545.3342,-259 1545.3342,4 -4,4"/>
<!-- Node4 -->
<g id="node1" class="node">
<title>Node4</title>
<polygon fill="#bfbfbf" stroke="#000000" points="485.3342,-235.5 485.3342,-254.5 599.3342,-254.5 599.3342,-235.5 485.3342,-235.5"/>
<text text-anchor="middle" x="542.3342" y="-242.5" font-family="Helvetica,sans-Serif" font-size="10.00" fill="#000000">src/Image/TagList.hpp</text>
</g>
<!-- Node5 -->
<g id="node2" class="node">
<title>Node5</title>
<g id="a_node2"><a xlink:href="_image_8hpp.html" target="_top" xlink:title="src/Image/Image.hpp">
<polygon fill="#ffffff" stroke="#000000" points="935.8342,-179.5 935.8342,-198.5 1044.8342,-198.5 1044.8342,-179.5 935.8342,-179.5"/>
<text text-anchor="middle" x="990.3342" y="-186.5" font-family="Helvetica,sans-Serif" font-size="10.00" fill="#000000">src/Image/Image.hpp</text>
</a>
</g>
</g>
<!-- Node4&#45;&gt;Node5 -->
<g id="edge1" class="edge">
<title>Node4&#45;&gt;Node5</title>
<path fill="none" stroke="#191970" d="M609.5034,-236.6038C698.3931,-225.4926 853.4152,-206.1149 935.5827,-195.8439"/>
<polygon fill="#191970" stroke="#191970" points="609.0174,-233.1373 599.5287,-237.8507 609.8857,-240.0832 609.0174,-233.1373"/>
</g>
<!-- Node23 -->
<g id="node20" class="node">
<title>Node23</title>
<g id="a_node20"><a xlink:href="_tag_selector_8hpp.html" target="_top" xlink:title="src/Interface/TagSelector.hpp">
<polygon fill="#ffffff" stroke="#000000" points="15.3342,-123.5 15.3342,-142.5 161.3342,-142.5 161.3342,-123.5 15.3342,-123.5"/>
<text text-anchor="middle" x="88.3342" y="-130.5" font-family="Helvetica,sans-Serif" font-size="10.00" fill="#000000">src/Interface/TagSelector.hpp</text>
</a>
</g>
</g>
<!-- Node4&#45;&gt;Node23 -->
<g id="edge25" class="edge">
<title>Node4&#45;&gt;Node23</title>
<path fill="none" stroke="#191970" d="M493.8721,-233.0446C403.1783,-210.6708 209.5303,-162.8986 126.944,-142.5249"/>
<polygon fill="#191970" stroke="#191970" points="493.0791,-236.4538 503.6264,-235.4509 494.7558,-229.6576 493.0791,-236.4538"/>
</g>
<!-- Node6 -->
<g id="node3" class="node">
<title>Node6</title>
<g id="a_node3"><a xlink:href="_application_8hpp.html" target="_top" xlink:title="src/Application.hpp">
<polygon fill="#ffffff" stroke="#000000" points="1092.3342,-123.5 1092.3342,-142.5 1192.3342,-142.5 1192.3342,-123.5 1092.3342,-123.5"/>
<text text-anchor="middle" x="1142.3342" y="-130.5" font-family="Helvetica,sans-Serif" font-size="10.00" fill="#000000">src/Application.hpp</text>
</a>
</g>
</g>
<!-- Node5&#45;&gt;Node6 -->
<g id="edge2" class="edge">
<title>Node5&#45;&gt;Node6</title>
<path fill="none" stroke="#191970" d="M1026.1931,-175.7888C1053.9465,-165.5639 1091.7161,-151.6488 1116.5454,-142.5011"/>
<polygon fill="#191970" stroke="#191970" points="1024.6373,-172.6319 1016.4639,-179.3733 1027.0573,-179.2003 1024.6373,-172.6319"/>
</g>
<!-- Node9 -->
<g id="node6" class="node">
<title>Node9</title>
<g id="a_node6"><a xlink:href="_tag_setter_widget_8hpp.html" target="_top" xlink:title="src/Interface/TagSetterWidget.hpp">
<polygon fill="#ffffff" stroke="#000000" points="906.8342,-123.5 906.8342,-142.5 1073.8342,-142.5 1073.8342,-123.5 906.8342,-123.5"/>
<text text-anchor="middle" x="990.3342" y="-130.5" font-family="Helvetica,sans-Serif" font-size="10.00" fill="#000000">src/Interface/TagSetterWidget.hpp</text>
</a>
</g>
</g>
<!-- Node5&#45;&gt;Node9 -->
<g id="edge5" class="edge">
<title>Node5&#45;&gt;Node9</title>
<path fill="none" stroke="#191970" d="M990.3342,-169.1575C990.3342,-160.155 990.3342,-149.9199 990.3342,-142.6427"/>
<polygon fill="#191970" stroke="#191970" points="986.8343,-169.2455 990.3342,-179.2455 993.8343,-169.2456 986.8343,-169.2455"/>
</g>
<!-- Node11 -->
<g id="node8" class="node">
<title>Node11</title>
<g id="a_node8"><a xlink:href="_tag_viewer_widget_8hpp.html" target="_top" xlink:title="src/Interface/TagViewerWidget.hpp">
<polygon fill="#ffffff" stroke="#000000" points="718.3342,-123.5 718.3342,-142.5 888.3342,-142.5 888.3342,-123.5 718.3342,-123.5"/>
<text text-anchor="middle" x="803.3342" y="-130.5" font-family="Helvetica,sans-Serif" font-size="10.00" fill="#000000">src/Interface/TagViewerWidget.hpp</text>
</a>
</g>
</g>
<!-- Node5&#45;&gt;Node11 -->
<g id="edge8" class="edge">
<title>Node5&#45;&gt;Node11</title>
<path fill="none" stroke="#191970" d="M948.4464,-176.4561C914.1199,-166.1765 866.2776,-151.8494 835.0611,-142.5011"/>
<polygon fill="#191970" stroke="#191970" points="947.604,-179.8573 958.1877,-179.3733 949.6121,-173.1515 947.604,-179.8573"/>
</g>
<!-- Node13 -->
<g id="node10" class="node">
<title>Node13</title>
<g id="a_node10"><a xlink:href="_image_widget_8hpp.html" target="_top" xlink:title="src/Interface/ImageWidget.hpp">
<polygon fill="#ffffff" stroke="#000000" points="1222.8342,-123.5 1222.8342,-142.5 1373.8342,-142.5 1373.8342,-123.5 1222.8342,-123.5"/>
<text text-anchor="middle" x="1298.3342" y="-130.5" font-family="Helvetica,sans-Serif" font-size="10.00" fill="#000000">src/Interface/ImageWidget.hpp</text>
</a>
</g>
</g>
<!-- Node5&#45;&gt;Node13 -->
<g id="edge11" class="edge">
<title>Node5&#45;&gt;Node13</title>
<path fill="none" stroke="#191970" d="M1052.8713,-177.6296C1109.686,-167.2997 1192.5466,-152.2341 1245.954,-142.5237"/>
<polygon fill="#191970" stroke="#191970" points="1052.1439,-174.2044 1042.9313,-179.4369 1053.3961,-181.0915 1052.1439,-174.2044"/>
</g>
<!-- Node17 -->
<g id="node14" class="node">
<title>Node17</title>
<g id="a_node14"><a xlink:href="_utilities_8hpp.html" target="_top" xlink:title="src/Utilities/Utilities.hpp">
<polygon fill="#ffffff" stroke="#000000" points="446.8342,-123.5 446.8342,-142.5 567.8342,-142.5 567.8342,-123.5 446.8342,-123.5"/>
<text text-anchor="middle" x="507.3342" y="-130.5" font-family="Helvetica,sans-Serif" font-size="10.00" fill="#000000">src/Utilities/Utilities.hpp</text>
</a>
</g>
</g>
<!-- Node5&#45;&gt;Node17 -->
<g id="edge16" class="edge">
<title>Node5&#45;&gt;Node17</title>
<path fill="none" stroke="#191970" d="M925.4604,-181.4784C831.6169,-170.598 659.2561,-150.6141 567.8911,-140.0211"/>
<polygon fill="#191970" stroke="#191970" points="925.0616,-184.9555 935.3982,-182.6306 925.8678,-178.0021 925.0616,-184.9555"/>
</g>
<!-- Node22 -->
<g id="node19" class="node">
<title>Node22</title>
<g id="a_node19"><a xlink:href="_image_8cpp.html" target="_top" xlink:title="src/Image/Image.cpp">
<polygon fill="#ffffff" stroke="#000000" points="1391.8342,-123.5 1391.8342,-142.5 1500.8342,-142.5 1500.8342,-123.5 1391.8342,-123.5"/>
<text text-anchor="middle" x="1446.3342" y="-130.5" font-family="Helvetica,sans-Serif" font-size="10.00" fill="#000000">src/Image/Image.cpp</text>
</a>
</g>
</g>
<!-- Node5&#45;&gt;Node22 -->
<g id="edge24" class="edge">
<title>Node5&#45;&gt;Node22</title>
<path fill="none" stroke="#191970" d="M1055.2571,-182.2234C1133.2656,-173.891 1268.0585,-158.8885 1383.3342,-143 1386.0768,-142.622 1388.8847,-142.2224 1391.7187,-141.8091"/>
<polygon fill="#191970" stroke="#191970" points="1054.6734,-178.7657 1045.1002,-183.3049 1055.4146,-185.7264 1054.6734,-178.7657"/>
</g>
<!-- Node7 -->
<g id="node4" class="node">
<title>Node7</title>
<g id="a_node4"><a xlink:href="_application_8cpp.html" target="_top" xlink:title="src/Application.cpp">
<polygon fill="#ffffff" stroke="#000000" points="910.3342,-.5 910.3342,-19.5 1010.3342,-19.5 1010.3342,-.5 910.3342,-.5"/>
<text text-anchor="middle" x="960.3342" y="-7.5" font-family="Helvetica,sans-Serif" font-size="10.00" fill="#000000">src/Application.cpp</text>
</a>
</g>
</g>
<!-- Node6&#45;&gt;Node7 -->
<g id="edge3" class="edge">
<title>Node6&#45;&gt;Node7</title>
<path fill="none" stroke="#191970" d="M1161.3685,-116.1695C1177.6857,-99.7063 1196.366,-74.4828 1181.3342,-56 1160.223,-30.0422 1068.9556,-18.2473 1010.5112,-13.2702"/>
<polygon fill="#191970" stroke="#191970" points="1158.5254,-114.0446 1153.7061,-123.4799 1163.3575,-119.1093 1158.5254,-114.0446"/>
</g>
<!-- Node8 -->
<g id="node5" class="node">
<title>Node8</title>
<g id="a_node5"><a xlink:href="main_8cpp.html" target="_top" xlink:title="Contient la fonction main. ">
<polygon fill="#ffffff" stroke="#000000" points="1099.8342,-62 1099.8342,-81 1172.8342,-81 1172.8342,-62 1099.8342,-62"/>
<text text-anchor="middle" x="1136.3342" y="-69" font-family="Helvetica,sans-Serif" font-size="10.00" fill="#000000">src/main.cpp</text>
</a>
</g>
</g>
<!-- Node6&#45;&gt;Node8 -->
<g id="edge4" class="edge">
<title>Node6&#45;&gt;Node8</title>
<path fill="none" stroke="#191970" d="M1140.407,-113.2462C1139.3636,-102.5519 1138.1209,-89.814 1137.2849,-81.2449"/>
<polygon fill="#191970" stroke="#191970" points="1136.9421,-113.7778 1141.3967,-123.3906 1143.909,-113.098 1136.9421,-113.7778"/>
</g>
<!-- Node9&#45;&gt;Node7 -->
<g id="edge6" class="edge">
<title>Node9&#45;&gt;Node7</title>
<path fill="none" stroke="#191970" d="M1021.1134,-118.1875C1033.1549,-110.6585 1045.6605,-100.2613 1052.3342,-87 1058.5277,-74.6928 1059.5776,-67.7201 1052.3342,-56 1040.9744,-37.6195 1019.8,-26.3377 1000.6267,-19.5505"/>
<polygon fill="#191970" stroke="#191970" points="1019.014,-115.3578 1012.1,-123.3857 1022.5112,-121.4217 1019.014,-115.3578"/>
</g>
<!-- Node10 -->
<g id="node7" class="node">
<title>Node10</title>
<g id="a_node7"><a xlink:href="_tag_setter_widget_8cpp.html" target="_top" xlink:title="src/Interface/TagSetterWidget.cpp">
<polygon fill="#ffffff" stroke="#000000" points="876.8342,-62 876.8342,-81 1043.8342,-81 1043.8342,-62 876.8342,-62"/>
<text text-anchor="middle" x="960.3342" y="-69" font-family="Helvetica,sans-Serif" font-size="10.00" fill="#000000">src/Interface/TagSetterWidget.cpp</text>
</a>
</g>
</g>
<!-- Node9&#45;&gt;Node10 -->
<g id="edge7" class="edge">
<title>Node9&#45;&gt;Node10</title>
<path fill="none" stroke="#191970" d="M981.1893,-114.253C975.8759,-103.3606 969.3998,-90.0846 965.0878,-81.2449"/>
<polygon fill="#191970" stroke="#191970" points="978.1167,-115.9374 985.6467,-123.3906 984.4081,-112.8684 978.1167,-115.9374"/>
</g>
<!-- Node11&#45;&gt;Node7 -->
<g id="edge9" class="edge">
<title>Node11&#45;&gt;Node7</title>
<path fill="none" stroke="#191970" d="M815.0493,-114.9274C826.7116,-98.0209 845.9233,-72.905 867.3342,-56 887.5508,-40.0379 914.2002,-27.5552 933.7876,-19.6454"/>
<polygon fill="#191970" stroke="#191970" points="812.0487,-113.1176 809.3808,-123.3711 817.8606,-117.0193 812.0487,-113.1176"/>
</g>
<!-- Node12 -->
<g id="node9" class="node">
<title>Node12</title>
<g id="a_node9"><a xlink:href="_tag_viewer_widget_8cpp.html" target="_top" xlink:title="src/Interface/TagViewerWidget.cpp">
<polygon fill="#ffffff" stroke="#000000" points="651.3342,-62 651.3342,-81 821.3342,-81 821.3342,-62 651.3342,-62"/>
<text text-anchor="middle" x="736.3342" y="-69" font-family="Helvetica,sans-Serif" font-size="10.00" fill="#000000">src/Interface/TagViewerWidget.cpp</text>
</a>
</g>
</g>
<!-- Node11&#45;&gt;Node12 -->
<g id="edge10" class="edge">
<title>Node11&#45;&gt;Node12</title>
<path fill="none" stroke="#191970" d="M785.411,-116.5482C773.1349,-105.2798 757.2687,-90.716 746.9505,-81.2449"/>
<polygon fill="#191970" stroke="#191970" points="783.1316,-119.2068 792.8654,-123.3906 787.8652,-114.0499 783.1316,-119.2068"/>
</g>
<!-- Node14 -->
<g id="node11" class="node">
<title>Node14</title>
<g id="a_node11"><a xlink:href="_grid_widget_8hpp.html" target="_top" xlink:title="src/Interface/GridWidget.hpp">
<polygon fill="#ffffff" stroke="#000000" points="1399.3342,-62 1399.3342,-81 1541.3342,-81 1541.3342,-62 1399.3342,-62"/>
<text text-anchor="middle" x="1470.3342" y="-69" font-family="Helvetica,sans-Serif" font-size="10.00" fill="#000000">src/Interface/GridWidget.hpp</text>
</a>
</g>
</g>
<!-- Node13&#45;&gt;Node14 -->
<g id="edge12" class="edge">
<title>Node13&#45;&gt;Node14</title>
<path fill="none" stroke="#191970" d="M1334.8307,-119.9504C1367.4374,-108.2916 1414.4407,-91.4852 1443.6479,-81.0419"/>
<polygon fill="#191970" stroke="#191970" points="1333.4469,-116.7281 1325.2092,-123.3906 1335.8038,-123.3194 1333.4469,-116.7281"/>
</g>
<!-- Node16 -->
<g id="node13" class="node">
<title>Node16</title>
<g id="a_node13"><a xlink:href="_image_widget_8cpp.html" target="_top" xlink:title="src/Interface/ImageWidget.cpp">
<polygon fill="#ffffff" stroke="#000000" points="1229.8342,-62 1229.8342,-81 1380.8342,-81 1380.8342,-62 1229.8342,-62"/>
<text text-anchor="middle" x="1305.3342" y="-69" font-family="Helvetica,sans-Serif" font-size="10.00" fill="#000000">src/Interface/ImageWidget.cpp</text>
</a>
</g>
</g>
<!-- Node13&#45;&gt;Node16 -->
<g id="edge15" class="edge">
<title>Node13&#45;&gt;Node16</title>
<path fill="none" stroke="#191970" d="M1300.5826,-113.2462C1301.7998,-102.5519 1303.2497,-89.814 1304.225,-81.2449"/>
<polygon fill="#191970" stroke="#191970" points="1297.0814,-113.0589 1299.4279,-123.3906 1304.0365,-113.8506 1297.0814,-113.0589"/>
</g>
<!-- Node14&#45;&gt;Node7 -->
<g id="edge13" class="edge">
<title>Node14&#45;&gt;Node7</title>
<path fill="none" stroke="#191970" d="M1414.8683,-60.1229C1406.6614,-58.6229 1398.2913,-57.1943 1390.3342,-56 1253.5338,-35.468 1090.9084,-20.6626 1010.4954,-13.9763"/>
<polygon fill="#191970" stroke="#191970" points="1414.2856,-63.5745 1424.7593,-61.9769 1415.5754,-56.6944 1414.2856,-63.5745"/>
</g>
<!-- Node15 -->
<g id="node12" class="node">
<title>Node15</title>
<g id="a_node12"><a xlink:href="_grid_widget_8cpp.html" target="_top" xlink:title="src/Interface/GridWidget.cpp">
<polygon fill="#ffffff" stroke="#000000" points="1399.3342,-.5 1399.3342,-19.5 1541.3342,-19.5 1541.3342,-.5 1399.3342,-.5"/>
<text text-anchor="middle" x="1470.3342" y="-7.5" font-family="Helvetica,sans-Serif" font-size="10.00" fill="#000000">src/Interface/GridWidget.cpp</text>
</a>
</g>
</g>
<!-- Node14&#45;&gt;Node15 -->
<g id="edge14" class="edge">
<title>Node14&#45;&gt;Node15</title>
<path fill="none" stroke="#191970" d="M1470.3342,-51.7462C1470.3342,-41.0519 1470.3342,-28.314 1470.3342,-19.7449"/>
<polygon fill="#191970" stroke="#191970" points="1466.8343,-51.8906 1470.3342,-61.8906 1473.8343,-51.8907 1466.8343,-51.8906"/>
</g>
<!-- Node17&#45;&gt;Node7 -->
<g id="edge17" class="edge">
<title>Node17&#45;&gt;Node7</title>
<path fill="none" stroke="#191970" d="M436.6867,-122.6125C380.4742,-111.5233 316.1615,-90.6816 348.3342,-56 367.3672,-35.4827 767.4685,-17.6558 910.253,-11.9255"/>
<polygon fill="#191970" stroke="#191970" points="436.2256,-126.0873 446.7016,-124.5054 437.5256,-119.2091 436.2256,-126.0873"/>
</g>
<!-- Node17&#45;&gt;Node10 -->
<g id="edge20" class="edge">
<title>Node17&#45;&gt;Node10</title>
<path fill="none" stroke="#191970" d="M578.0447,-123.4002C663.1338,-111.8484 805.124,-92.5716 890.031,-81.0445"/>
<polygon fill="#191970" stroke="#191970" points="577.3959,-119.9561 567.9577,-124.7697 578.3377,-126.8925 577.3959,-119.9561"/>
</g>
<!-- Node17&#45;&gt;Node12 -->
<g id="edge21" class="edge">
<title>Node17&#45;&gt;Node12</title>
<path fill="none" stroke="#191970" d="M552.8708,-120.7707C596.3574,-109.092 660.9959,-91.7328 700.8042,-81.0419"/>
<polygon fill="#191970" stroke="#191970" points="551.8654,-117.4166 543.1154,-123.3906 553.681,-124.1771 551.8654,-117.4166"/>
</g>
<!-- Node18 -->
<g id="node15" class="node">
<title>Node18</title>
<g id="a_node15"><a xlink:href="_button_widget_8cpp.html" target="_top" xlink:title="src/Interface/ButtonWidget.cpp">
<polygon fill="#ffffff" stroke="#000000" points="357.3342,-62 357.3342,-81 509.3342,-81 509.3342,-62 357.3342,-62"/>
<text text-anchor="middle" x="433.3342" y="-69" font-family="Helvetica,sans-Serif" font-size="10.00" fill="#000000">src/Interface/ButtonWidget.cpp</text>
</a>
</g>
</g>
<!-- Node17&#45;&gt;Node18 -->
<g id="edge18" class="edge">
<title>Node17&#45;&gt;Node18</title>
<path fill="none" stroke="#191970" d="M487.9248,-116.8692C474.3141,-105.5576 456.5644,-90.8062 445.0597,-81.2449"/>
<polygon fill="#191970" stroke="#191970" points="485.8438,-119.6907 495.7717,-123.3906 490.318,-114.3072 485.8438,-119.6907"/>
</g>
<!-- Node19 -->
<g id="node16" class="node">
<title>Node19</title>
<g id="a_node16"><a xlink:href="_tag_selector_8cpp.html" target="_top" xlink:title="src/Interface/TagSelector.cpp">
<polygon fill="#ffffff" stroke="#000000" points="15.3342,-62 15.3342,-81 161.3342,-81 161.3342,-62 15.3342,-62"/>
<text text-anchor="middle" x="88.3342" y="-69" font-family="Helvetica,sans-Serif" font-size="10.00" fill="#000000">src/Interface/TagSelector.cpp</text>
</a>
</g>
</g>
<!-- Node17&#45;&gt;Node19 -->
<g id="edge19" class="edge">
<title>Node17&#45;&gt;Node19</title>
<path fill="none" stroke="#191970" d="M436.4085,-124.3898C368.1028,-115.8448 261.9449,-101.9007 170.3342,-87 159.323,-85.209 147.5172,-83.0931 136.391,-81.0098"/>
<polygon fill="#191970" stroke="#191970" points="436.2655,-127.8989 446.6216,-125.6625 437.1311,-120.9527 436.2655,-127.8989"/>
</g>
<!-- Node20 -->
<g id="node17" class="node">
<title>Node20</title>
<g id="a_node17"><a xlink:href="_text_box_8cpp.html" target="_top" xlink:title="src/Utilities/TextBox\l/TextBox.cpp">
<polygon fill="#ffffff" stroke="#000000" points="527.3342,-56.5 527.3342,-86.5 633.3342,-86.5 633.3342,-56.5 527.3342,-56.5"/>
<text text-anchor="start" x="535.3342" y="-74.5" font-family="Helvetica,sans-Serif" font-size="10.00" fill="#000000">src/Utilities/TextBox</text>
<text text-anchor="middle" x="580.3342" y="-63.5" font-family="Helvetica,sans-Serif" font-size="10.00" fill="#000000">/TextBox.cpp</text>
</a>
</g>
</g>
<!-- Node17&#45;&gt;Node20 -->
<g id="edge22" class="edge">
<title>Node17&#45;&gt;Node20</title>
<path fill="none" stroke="#191970" d="M526.6066,-116.7637C537.7235,-107.398 551.6073,-95.7014 562.4764,-86.5446"/>
<polygon fill="#191970" stroke="#191970" points="524.1331,-114.2709 518.7404,-123.3906 528.6432,-119.6243 524.1331,-114.2709"/>
</g>
<!-- Node21 -->
<g id="node18" class="node">
<title>Node21</title>
<g id="a_node18"><a xlink:href="_utilities_8cpp.html" target="_top" xlink:title="src/Utilities/Utilities.cpp">
<polygon fill="#ffffff" stroke="#000000" points="179.8342,-62 179.8342,-81 300.8342,-81 300.8342,-62 179.8342,-62"/>
<text text-anchor="middle" x="240.3342" y="-69" font-family="Helvetica,sans-Serif" font-size="10.00" fill="#000000">src/Utilities/Utilities.cpp</text>
</a>
</g>
</g>
<!-- Node17&#45;&gt;Node21 -->
<g id="edge23" class="edge">
<title>Node17&#45;&gt;Node21</title>
<path fill="none" stroke="#191970" d="M456.1369,-121.2074C405.4681,-109.5365 328.8616,-91.8912 281.8572,-81.0643"/>
<polygon fill="#191970" stroke="#191970" points="455.3779,-124.6241 465.9084,-123.4581 456.9492,-117.8027 455.3779,-124.6241"/>
</g>
<!-- Node23&#45;&gt;Node7 -->
<g id="edge26" class="edge">
<title>Node23&#45;&gt;Node7</title>
<path fill="none" stroke="#191970" d="M45.5166,-119.3392C30.3967,-112.2198 15.0096,-101.814 6.3342,-87 -.6284,-75.1109 -3.1707,-65.9742 6.3342,-56 37.7563,-23.0263 718.1859,-12.7667 910.2556,-10.5224"/>
<polygon fill="#191970" stroke="#191970" points="44.2654,-122.6112 54.834,-123.3574 47.0375,-116.1834 44.2654,-122.6112"/>
</g>
<!-- Node23&#45;&gt;Node19 -->
<g id="edge27" class="edge">
<title>Node23&#45;&gt;Node19</title>
<path fill="none" stroke="#191970" d="M88.3342,-113.2462C88.3342,-102.5519 88.3342,-89.814 88.3342,-81.2449"/>
<polygon fill="#191970" stroke="#191970" points="84.8343,-113.3906 88.3342,-123.3906 91.8343,-113.3907 84.8343,-113.3906"/>
</g>
</g>
</svg>
