<?xml version="1.0" encoding="UTF-8" standalone="no"?>
<!DOCTYPE svg PUBLIC "-//W3C//DTD SVG 1.1//EN"
 "http://www.w3.org/Graphics/SVG/1.1/DTD/svg11.dtd">
<!-- Generated by graphviz version 2.40.1 (20161225.0304)
 -->
<!-- Title: src/Interface/TagSelector.hpp Pages: 1 -->
<svg width="272pt" height="84pt"
 viewBox="0.00 0.00 272.00 84.00" xmlns="http://www.w3.org/2000/svg" xmlns:xlink="http://www.w3.org/1999/xlink">
<g id="graph0" class="graph" transform="scale(1 1) rotate(0) translate(4 80)">
<title>src/Interface/TagSelector.hpp</title>
<polygon fill="#ffffff" stroke="transparent" points="-4,4 -4,-80 268,-80 268,4 -4,4"/>
<!-- Node10 -->
<g id="node1" class="node">
<title>Node10</title>
<polygon fill="#bfbfbf" stroke="#000000" points="47,-56.5 47,-75.5 193,-75.5 193,-56.5 47,-56.5"/>
<text text-anchor="middle" x="120" y="-63.5" font-family="Helvetica,sans-Serif" font-size="10.00" fill="#000000">src/Interface/TagSelector.hpp</text>
</g>
<!-- Node11 -->
<g id="node2" class="node">
<title>Node11</title>
<g id="a_node2"><a xlink:href="_application_8cpp.html" target="_top" xlink:title="src/Application.cpp">
<polygon fill="#ffffff" stroke="#000000" points="0,-.5 0,-19.5 100,-19.5 100,-.5 0,-.5"/>
<text text-anchor="middle" x="50" y="-7.5" font-family="Helvetica,sans-Serif" font-size="10.00" fill="#000000">src/Application.cpp</text>
</a>
</g>
</g>
<!-- Node10&#45;&gt;Node11 -->
<g id="edge1" class="edge">
<title>Node10&#45;&gt;Node11</title>
<path fill="none" stroke="#191970" d="M99.91,-49.928C87.6747,-40.1397 72.4493,-27.9595 62.0533,-19.6427"/>
<polygon fill="#191970" stroke="#191970" points="97.8118,-52.7316 107.8069,-56.2455 102.1847,-47.2655 97.8118,-52.7316"/>
</g>
<!-- Node12 -->
<g id="node3" class="node">
<title>Node12</title>
<g id="a_node3"><a xlink:href="_tag_selector_8cpp.html" target="_top" xlink:title="src/Interface/TagSelector.cpp">
<polygon fill="#ffffff" stroke="#000000" points="118,-.5 118,-19.5 264,-19.5 264,-.5 118,-.5"/>
<text text-anchor="middle" x="191" y="-7.5" font-family="Helvetica,sans-Serif" font-size="10.00" fill="#000000">src/Interface/TagSelector.cpp</text>
</a>
</g>
</g>
<!-- Node10&#45;&gt;Node12 -->
<g id="edge2" class="edge">
<title>Node10&#45;&gt;Node12</title>
<path fill="none" stroke="#191970" d="M140.377,-49.928C152.7871,-40.1397 168.23,-27.9595 178.7745,-19.6427"/>
<polygon fill="#191970" stroke="#191970" points="138.0514,-47.3046 132.3673,-56.2455 142.3864,-52.8007 138.0514,-47.3046"/>
</g>
</g>
</svg>
