<?xml version="1.0" encoding="UTF-8" standalone="no"?>
<!DOCTYPE svg PUBLIC "-//W3C//DTD SVG 1.1//EN"
 "http://www.w3.org/Graphics/SVG/1.1/DTD/svg11.dtd">
<!-- Generated by graphviz version 2.40.1 (20161225.0304)
 -->
<!-- Title: src/Interface/TagViewerWidget.cpp Pages: 1 -->
<!--zoomable 319 -->
<svg id="main" version="1.1" xmlns="http://www.w3.org/2000/svg" xmlns:xlink="http://www.w3.org/1999/xlink" xml:space="preserve" onload="init(evt)">
<style type="text/css"><![CDATA[
.edge:hover path { stroke: red; }
.edge:hover polygon { stroke: red; fill: red; }
]]></style>
<script type="text/javascript"><![CDATA[
var edges = document.getElementsByTagName('g');
if (edges && edges.length) {
  for (var i=0;i<edges.length;i++) {
    if (edges[i].id.substr(0,4)=='edge') {
      edges[i].setAttribute('class','edge');
    }
  }
}
]]></script>
        <defs>
                <circle id="rim" cx="0" cy="0" r="7"/>
                <circle id="rim2" cx="0" cy="0" r="3.5"/>
                <g id="zoomPlus">
                        <use xlink:href="#rim" fill="#404040">
                                <set attributeName="fill" to="#808080" begin="zoomplus.mouseover" end="zoomplus.mouseout"/>
                        </use>
                        <path d="M-4,0h8M0,-4v8" fill="none" stroke="white" stroke-width="1.5" pointer-events="none"/>
                </g>
                <g id="zoomMin">
                        <use xlink:href="#rim" fill="#404040">
                                <set attributeName="fill" to="#808080" begin="zoomminus.mouseover" end="zoomminus.mouseout"/>
                        </use>
                        <path d="M-4,0h8" fill="none" stroke="white" stroke-width="1.5" pointer-events="none"/>
                </g>
                <g id="dirArrow">
                        <path fill="none" stroke="white" stroke-width="1.5" d="M0,-3.0v7 M-2.5,-0.5L0,-3.0L2.5,-0.5"/>
                </g>
               <g id="resetDef">
                       <use xlink:href="#rim2" fill="#404040">
                               <set attributeName="fill" to="#808080" begin="reset.mouseover" end="reset.mouseout"/>
                       </use>
               </g>
        </defs>

<script type="text/javascript">
var viewWidth = 711;
var viewHeight = 319;
var sectionId = 'dynsection-0';
</script>
<script xlink:href="svgpan.js"/>
<svg id="graph" class="graph">
<g id="viewport">
<title>src/Interface/TagViewerWidget.cpp</title>
<polygon fill="#ffffff" stroke="transparent" points="-4,4 -4,-315 707,-315 707,4 -4,4"/>
<!-- Node0 -->
<g id="node1" class="node">
<title>Node0</title>
<polygon fill="#bfbfbf" stroke="#000000" points="237,-291.5 237,-310.5 407,-310.5 407,-291.5 237,-291.5"/>
<text text-anchor="middle" x="322" y="-298.5" font-family="Helvetica,sans-Serif" font-size="10.00" fill="#000000">src/Interface/TagViewerWidget.cpp</text>
</g>
<!-- Node1 -->
<g id="node2" class="node">
<title>Node1</title>
<g id="a_node2"><a xlink:href="_tag_viewer_widget_8hpp.html" target="_top" xlink:title="TagViewerWidget.hpp">
<polygon fill="#ffffff" stroke="#000000" points="200.5,-235.5 200.5,-254.5 313.5,-254.5 313.5,-235.5 200.5,-235.5"/>
<text text-anchor="middle" x="257" y="-242.5" font-family="Helvetica,sans-Serif" font-size="10.00" fill="#000000">TagViewerWidget.hpp</text>
</a>
</g>
</g>
<!-- Node0&#45;&gt;Node1 -->
<g id="edge1" class="edge">
<title>Node0&#45;&gt;Node1</title>
<path fill="none" stroke="#191970" d="M310.6779,-291.2455C301.0777,-282.9746 287.1108,-270.9416 275.8305,-261.2232"/>
<polygon fill="#191970" stroke="#191970" points="278.053,-258.5182 268.1924,-254.6427 273.484,-263.8214 278.053,-258.5182"/>
</g>
<!-- Node14 -->
<g id="node15" class="node">
<title>Node14</title>
<g id="a_node15"><a xlink:href="_utilities_8hpp.html" target="_top" xlink:title="../Utilities/Utilities.hpp">
<polygon fill="#ffffff" stroke="#000000" points="331.5,-235.5 331.5,-254.5 444.5,-254.5 444.5,-235.5 331.5,-235.5"/>
<text text-anchor="middle" x="388" y="-242.5" font-family="Helvetica,sans-Serif" font-size="10.00" fill="#000000">../Utilities/Utilities.hpp</text>
</a>
</g>
</g>
<!-- Node0&#45;&gt;Node14 -->
<g id="edge15" class="edge">
<title>Node0&#45;&gt;Node14</title>
<path fill="none" stroke="#191970" d="M333.4963,-291.2455C343.2442,-282.9746 357.4259,-270.9416 368.8798,-261.2232"/>
<polygon fill="#191970" stroke="#191970" points="371.2747,-263.7813 376.6354,-254.6427 366.7459,-258.4437 371.2747,-263.7813"/>
</g>
<!-- Node2 -->
<g id="node3" class="node">
<title>Node2</title>
<g id="a_node3"><a xlink:href="_image_8hpp.html" target="_top" xlink:title="../Image/Image.hpp">
<polygon fill="#ffffff" stroke="#000000" points="272.5,-174 272.5,-193 373.5,-193 373.5,-174 272.5,-174"/>
<text text-anchor="middle" x="323" y="-181" font-family="Helvetica,sans-Serif" font-size="10.00" fill="#000000">../Image/Image.hpp</text>
</a>
</g>
</g>
<!-- Node1&#45;&gt;Node2 -->
<g id="edge2" class="edge">
<title>Node1&#45;&gt;Node2</title>
<path fill="none" stroke="#191970" d="M267.3125,-235.3906C277.4242,-225.9683 293.0442,-211.4134 305.1707,-200.1137"/>
<polygon fill="#191970" stroke="#191970" points="307.612,-202.6228 312.5421,-193.2449 302.8399,-197.5015 307.612,-202.6228"/>
</g>
<!-- Node11 -->
<g id="node12" class="node">
<title>Node11</title>
<g id="a_node12"><a xlink:href="_widget_8hpp.html" target="_top" xlink:title="Widget.hpp">
<polygon fill="#ffffff" stroke="#000000" points="80,-174 80,-193 146,-193 146,-174 80,-174"/>
<text text-anchor="middle" x="113" y="-181" font-family="Helvetica,sans-Serif" font-size="10.00" fill="#000000">Widget.hpp</text>
</a>
</g>
</g>
<!-- Node1&#45;&gt;Node11 -->
<g id="edge11" class="edge">
<title>Node1&#45;&gt;Node11</title>
<path fill="none" stroke="#191970" d="M234.5,-235.3906C210.4062,-225.1005 171.9787,-208.6888 144.7992,-197.0809"/>
<polygon fill="#191970" stroke="#191970" points="145.9131,-193.7508 135.342,-193.0419 143.1637,-200.1883 145.9131,-193.7508"/>
</g>
<!-- Node3 -->
<g id="node4" class="node">
<title>Node3</title>
<g id="a_node4"><a xlink:href="_tag_list_8hpp.html" target="_top" xlink:title="TagList.hpp">
<polygon fill="#ffffff" stroke="#000000" points="421,-112.5 421,-131.5 489,-131.5 489,-112.5 421,-112.5"/>
<text text-anchor="middle" x="455" y="-119.5" font-family="Helvetica,sans-Serif" font-size="10.00" fill="#000000">TagList.hpp</text>
</a>
</g>
</g>
<!-- Node2&#45;&gt;Node3 -->
<g id="edge3" class="edge">
<title>Node2&#45;&gt;Node3</title>
<path fill="none" stroke="#191970" d="M343.625,-173.8906C365.5173,-163.6908 400.3193,-147.4763 425.1927,-135.8875"/>
<polygon fill="#191970" stroke="#191970" points="426.9335,-138.9377 434.5198,-131.5419 423.9772,-132.5926 426.9335,-138.9377"/>
</g>
<!-- Node7 -->
<g id="node8" class="node">
<title>Node7</title>
<polygon fill="#ffffff" stroke="#bfbfbf" points="84,-112.5 84,-131.5 142,-131.5 142,-112.5 84,-112.5"/>
<text text-anchor="middle" x="113" y="-119.5" font-family="Helvetica,sans-Serif" font-size="10.00" fill="#000000">../CImg.h</text>
</g>
<!-- Node2&#45;&gt;Node7 -->
<g id="edge7" class="edge">
<title>Node2&#45;&gt;Node7</title>
<path fill="none" stroke="#191970" d="M290.1875,-173.8906C252.7543,-162.9281 191.5964,-145.0175 151.8232,-133.3697"/>
<polygon fill="#191970" stroke="#191970" points="152.7802,-130.003 142.1996,-130.5513 150.8128,-136.7208 152.7802,-130.003"/>
</g>
<!-- Node8 -->
<g id="node9" class="node">
<title>Node8</title>
<polygon fill="#ffffff" stroke="#bfbfbf" points="160,-112.5 160,-131.5 280,-131.5 280,-112.5 160,-112.5"/>
<text text-anchor="middle" x="220" y="-119.5" font-family="Helvetica,sans-Serif" font-size="10.00" fill="#000000">experimental/filesystem</text>
</g>
<!-- Node2&#45;&gt;Node8 -->
<g id="edge8" class="edge">
<title>Node2&#45;&gt;Node8</title>
<path fill="none" stroke="#191970" d="M306.9063,-173.8906C290.2772,-163.9616 264.1024,-148.333 244.8206,-136.8201"/>
<polygon fill="#191970" stroke="#191970" points="246.361,-133.6634 235.9807,-131.5419 242.7724,-139.6736 246.361,-133.6634"/>
</g>
<!-- Node9 -->
<g id="node10" class="node">
<title>Node9</title>
<polygon fill="#ffffff" stroke="#bfbfbf" points="298,-112.5 298,-131.5 348,-131.5 348,-112.5 298,-112.5"/>
<text text-anchor="middle" x="323" y="-119.5" font-family="Helvetica,sans-Serif" font-size="10.00" fill="#000000">fstream</text>
</g>
<!-- Node2&#45;&gt;Node9 -->
<g id="edge9" class="edge">
<title>Node2&#45;&gt;Node9</title>
<path fill="none" stroke="#191970" d="M323,-173.8906C323,-165.3657 323,-152.6392 323,-141.9235"/>
<polygon fill="#191970" stroke="#191970" points="326.5001,-141.7448 323,-131.7449 319.5001,-141.7449 326.5001,-141.7448"/>
</g>
<!-- Node10 -->
<g id="node11" class="node">
<title>Node10</title>
<polygon fill="#ffffff" stroke="#bfbfbf" points="443,-.5 443,-19.5 495,-19.5 495,-.5 443,-.5"/>
<text text-anchor="middle" x="469" y="-7.5" font-family="Helvetica,sans-Serif" font-size="10.00" fill="#000000">memory</text>
</g>
<!-- Node2&#45;&gt;Node10 -->
<g id="edge10" class="edge">
<title>Node2&#45;&gt;Node10</title>
<path fill="none" stroke="#191970" d="M329.8441,-173.8298C336.9542,-163.6282 348.2436,-146.9855 357,-132 376.154,-99.2203 370.3634,-84.0027 396,-56 407.9487,-42.9485 424.4133,-32.1475 438.6821,-24.2991"/>
<polygon fill="#191970" stroke="#191970" points="440.4488,-27.3246 447.6722,-19.5739 437.192,-21.1283 440.4488,-27.3246"/>
</g>
<!-- Node4 -->
<g id="node5" class="node">
<title>Node4</title>
<polygon fill="#ffffff" stroke="#bfbfbf" points="404.5,-56.5 404.5,-75.5 445.5,-75.5 445.5,-56.5 404.5,-56.5"/>
<text text-anchor="middle" x="425" y="-63.5" font-family="Helvetica,sans-Serif" font-size="10.00" fill="#000000">string</text>
</g>
<!-- Node3&#45;&gt;Node4 -->
<g id="edge4" class="edge">
<title>Node3&#45;&gt;Node4</title>
<path fill="none" stroke="#191970" d="M449.7744,-112.2455C445.6877,-104.617 439.8865,-93.7881 434.925,-84.5267"/>
<polygon fill="#191970" stroke="#191970" points="437.9732,-82.8047 430.1657,-75.6427 431.8028,-86.1103 437.9732,-82.8047"/>
</g>
<!-- Node5 -->
<g id="node6" class="node">
<title>Node5</title>
<polygon fill="#ffffff" stroke="#bfbfbf" points="464,-56.5 464,-75.5 494,-75.5 494,-56.5 464,-56.5"/>
<text text-anchor="middle" x="479" y="-63.5" font-family="Helvetica,sans-Serif" font-size="10.00" fill="#000000">set</text>
</g>
<!-- Node3&#45;&gt;Node5 -->
<g id="edge5" class="edge">
<title>Node3&#45;&gt;Node5</title>
<path fill="none" stroke="#191970" d="M459.1805,-112.2455C462.381,-104.7776 466.896,-94.2427 470.8084,-85.1137"/>
<polygon fill="#191970" stroke="#191970" points="474.1452,-86.2129 474.8674,-75.6427 467.7112,-83.4554 474.1452,-86.2129"/>
</g>
<!-- Node6 -->
<g id="node7" class="node">
<title>Node6</title>
<polygon fill="#ffffff" stroke="#bfbfbf" points="512,-56.5 512,-75.5 558,-75.5 558,-56.5 512,-56.5"/>
<text text-anchor="middle" x="535" y="-63.5" font-family="Helvetica,sans-Serif" font-size="10.00" fill="#000000">cctype</text>
</g>
<!-- Node3&#45;&gt;Node6 -->
<g id="edge6" class="edge">
<title>Node3&#45;&gt;Node6</title>
<path fill="none" stroke="#191970" d="M468.9349,-112.2455C481.0947,-103.7337 498.9464,-91.2375 513.0285,-81.3801"/>
<polygon fill="#191970" stroke="#191970" points="515.0395,-84.2447 521.2248,-75.6427 511.0253,-78.51 515.0395,-84.2447"/>
</g>
<!-- Node11&#45;&gt;Node7 -->
<g id="edge12" class="edge">
<title>Node11&#45;&gt;Node7</title>
<path fill="none" stroke="#191970" d="M113,-173.8906C113,-165.3657 113,-152.6392 113,-141.9235"/>
<polygon fill="#191970" stroke="#191970" points="116.5001,-141.7448 113,-131.7449 109.5001,-141.7449 116.5001,-141.7448"/>
</g>
<!-- Node12 -->
<g id="node13" class="node">
<title>Node12</title>
<g id="a_node13"><a xlink:href="_events_8hpp.html" target="_top" xlink:title="Events.hpp">
<polygon fill="#ffffff" stroke="#000000" points="0,-112.5 0,-131.5 66,-131.5 66,-112.5 0,-112.5"/>
<text text-anchor="middle" x="33" y="-119.5" font-family="Helvetica,sans-Serif" font-size="10.00" fill="#000000">Events.hpp</text>
</a>
</g>
</g>
<!-- Node11&#45;&gt;Node12 -->
<g id="edge13" class="edge">
<title>Node11&#45;&gt;Node12</title>
<path fill="none" stroke="#191970" d="M100.5,-173.8906C87.9364,-164.2324 68.3577,-149.1812 53.5151,-137.771"/>
<polygon fill="#191970" stroke="#191970" points="55.4735,-134.8618 45.4122,-131.5419 51.2072,-140.4115 55.4735,-134.8618"/>
</g>
<!-- Node13 -->
<g id="node14" class="node">
<title>Node13</title>
<polygon fill="#ffffff" stroke="#bfbfbf" points="10,-56.5 10,-75.5 56,-75.5 56,-56.5 10,-56.5"/>
<text text-anchor="middle" x="33" y="-63.5" font-family="Helvetica,sans-Serif" font-size="10.00" fill="#000000">variant</text>
</g>
<!-- Node12&#45;&gt;Node13 -->
<g id="edge14" class="edge">
<title>Node12&#45;&gt;Node13</title>
<path fill="none" stroke="#191970" d="M33,-112.2455C33,-104.9382 33,-94.6944 33,-85.7046"/>
<polygon fill="#191970" stroke="#191970" points="36.5001,-85.6426 33,-75.6427 29.5001,-85.6427 36.5001,-85.6426"/>
</g>
<!-- Node14&#45;&gt;Node2 -->
<g id="edge24" class="edge">
<title>Node14&#45;&gt;Node2</title>
<path fill="none" stroke="#191970" d="M377.8438,-235.3906C367.9801,-226.0581 352.7945,-211.6902 340.9013,-200.4374"/>
<polygon fill="#191970" stroke="#191970" points="342.9689,-197.5753 333.2994,-193.2449 338.1579,-202.6601 342.9689,-197.5753"/>
</g>
<!-- Node15 -->
<g id="node16" class="node">
<title>Node15</title>
<g id="a_node16"><a xlink:href="_collection_pool_8hpp.html" target="_top" xlink:title="../Collection/Collection\lPool.hpp">
<polygon fill="#ffffff" stroke="#000000" points="539,-168.5 539,-198.5 655,-198.5 655,-168.5 539,-168.5"/>
<text text-anchor="start" x="547" y="-186.5" font-family="Helvetica,sans-Serif" font-size="10.00" fill="#000000">../Collection/Collection</text>
<text text-anchor="middle" x="597" y="-175.5" font-family="Helvetica,sans-Serif" font-size="10.00" fill="#000000">Pool.hpp</text>
</a>
</g>
</g>
<!-- Node14&#45;&gt;Node15 -->
<g id="edge16" class="edge">
<title>Node14&#45;&gt;Node15</title>
<path fill="none" stroke="#191970" d="M420.6563,-235.3906C451.4299,-226.3352 498.3146,-212.539 536.0065,-201.4479"/>
<polygon fill="#191970" stroke="#191970" points="537.2676,-204.7252 545.8728,-198.5446 535.2915,-198.0099 537.2676,-204.7252"/>
</g>
<!-- Node16 -->
<g id="node17" class="node">
<title>Node16</title>
<g id="a_node17"><a xlink:href="_collection_8hpp.html" target="_top" xlink:title="Collection.hpp">
<polygon fill="#ffffff" stroke="#000000" points="523.5,-112.5 523.5,-131.5 602.5,-131.5 602.5,-112.5 523.5,-112.5"/>
<text text-anchor="middle" x="563" y="-119.5" font-family="Helvetica,sans-Serif" font-size="10.00" fill="#000000">Collection.hpp</text>
</a>
</g>
</g>
<!-- Node15&#45;&gt;Node16 -->
<g id="edge17" class="edge">
<title>Node15&#45;&gt;Node16</title>
<path fill="none" stroke="#191970" d="M588.5955,-168.2977C583.9743,-159.9388 578.2031,-149.4997 573.3111,-140.6509"/>
<polygon fill="#191970" stroke="#191970" points="576.3452,-138.9051 568.4438,-131.8469 570.2191,-142.292 576.3452,-138.9051"/>
</g>
<!-- Node17 -->
<g id="node18" class="node">
<title>Node17</title>
<g id="a_node18"><a xlink:href="_collection_iterator_8hpp.html" target="_top" xlink:title="CollectionIterator.hpp">
<polygon fill="#ffffff" stroke="#000000" points="576,-56.5 576,-75.5 686,-75.5 686,-56.5 576,-56.5"/>
<text text-anchor="middle" x="631" y="-63.5" font-family="Helvetica,sans-Serif" font-size="10.00" fill="#000000">CollectionIterator.hpp</text>
</a>
</g>
</g>
<!-- Node15&#45;&gt;Node17 -->
<g id="edge22" class="edge">
<title>Node15&#45;&gt;Node17</title>
<path fill="none" stroke="#191970" d="M601.4757,-168.18C604.4641,-157.9396 608.4773,-144.1652 612,-132 616.5084,-116.4308 621.5862,-98.7865 625.3574,-85.6608"/>
<polygon fill="#191970" stroke="#191970" points="628.7807,-86.4204 628.1769,-75.8428 622.0526,-84.4882 628.7807,-86.4204"/>
</g>
<!-- Node20 -->
<g id="node21" class="node">
<title>Node20</title>
<polygon fill="#ffffff" stroke="#bfbfbf" points="659,-112.5 659,-131.5 703,-131.5 703,-112.5 659,-112.5"/>
<text text-anchor="middle" x="681" y="-119.5" font-family="Helvetica,sans-Serif" font-size="10.00" fill="#000000">vector</text>
</g>
<!-- Node15&#45;&gt;Node20 -->
<g id="edge23" class="edge">
<title>Node15&#45;&gt;Node20</title>
<path fill="none" stroke="#191970" d="M617.7641,-168.2977C630.3958,-159.0495 646.5053,-147.2551 659.3031,-137.8853"/>
<polygon fill="#191970" stroke="#191970" points="661.5495,-140.5784 667.5505,-131.8469 657.4143,-134.9303 661.5495,-140.5784"/>
</g>
<!-- Node16&#45;&gt;Node17 -->
<g id="edge18" class="edge">
<title>Node16&#45;&gt;Node17</title>
<path fill="none" stroke="#191970" d="M574.8447,-112.2455C584.888,-103.9746 599.4995,-91.9416 611.3004,-82.2232"/>
<polygon fill="#191970" stroke="#191970" points="613.7967,-84.7015 619.291,-75.6427 609.3467,-79.298 613.7967,-84.7015"/>
</g>
<!-- Node17&#45;&gt;Node10 -->
<g id="edge21" class="edge">
<title>Node17&#45;&gt;Node10</title>
<path fill="none" stroke="#191970" d="M603.1512,-56.3733C575.9233,-46.9611 534.3495,-32.5899 504.705,-22.3425"/>
<polygon fill="#191970" stroke="#191970" points="505.7417,-18.9977 495.1469,-19.0384 503.4547,-25.6135 505.7417,-18.9977"/>
</g>
<!-- Node18 -->
<g id="node19" class="node">
<title>Node18</title>
<polygon fill="#ffffff" stroke="#bfbfbf" points="636,-.5 636,-19.5 698,-19.5 698,-.5 636,-.5"/>
<text text-anchor="middle" x="667" y="-7.5" font-family="Helvetica,sans-Serif" font-size="10.00" fill="#000000">type_traits</text>
</g>
<!-- Node17&#45;&gt;Node18 -->
<g id="edge19" class="edge">
<title>Node17&#45;&gt;Node18</title>
<path fill="none" stroke="#191970" d="M637.2707,-56.2455C642.2264,-48.5367 649.283,-37.5598 655.2776,-28.2348"/>
<polygon fill="#191970" stroke="#191970" points="658.3376,-29.9471 660.8011,-19.6427 652.4494,-26.1618 658.3376,-29.9471"/>
</g>
<!-- Node19 -->
<g id="node20" class="node">
<title>Node19</title>
<polygon fill="#ffffff" stroke="#bfbfbf" points="570.5,-.5 570.5,-19.5 617.5,-19.5 617.5,-.5 570.5,-.5"/>
<text text-anchor="middle" x="594" y="-7.5" font-family="Helvetica,sans-Serif" font-size="10.00" fill="#000000">iterator</text>
</g>
<!-- Node17&#45;&gt;Node19 -->
<g id="edge20" class="edge">
<title>Node17&#45;&gt;Node19</title>
<path fill="none" stroke="#191970" d="M624.5551,-56.2455C619.4618,-48.5367 612.2092,-37.5598 606.048,-28.2348"/>
<polygon fill="#191970" stroke="#191970" points="608.8038,-26.0566 600.3711,-19.6427 602.9635,-29.9155 608.8038,-26.0566"/>
</g>
</g>
</svg>
        <g id="navigator" transform="translate(0 0)" fill="#404254">
                <rect fill="#f2f5e9" fill-opacity="0.5" stroke="#606060" stroke-width=".5" x="0" y="0" width="60" height="60"/>
                <use id="zoomplus" xlink:href="#zoomPlus" x="17" y="9" onmousedown="handleZoom(evt,'in')"/>
                <use id="zoomminus" xlink:href="#zoomMin" x="42" y="9" onmousedown="handleZoom(evt,'out')"/>
                <use id="reset" xlink:href="#resetDef" x="30" y="36" onmousedown="handleReset()"/>
                <g id="arrowUp" xlink:href="#dirArrow" transform="translate(30 24)" onmousedown="handlePan(0,-1)">
                  <use xlink:href="#rim" fill="#404040">
                        <set attributeName="fill" to="#808080" begin="arrowUp.mouseover" end="arrowUp.mouseout"/>
                  </use>
                  <path fill="none" stroke="white" stroke-width="1.5" d="M0,-3.0v7 M-2.5,-0.5L0,-3.0L2.5,-0.5"/>
                </g>
                <g id="arrowRight" xlink:href="#dirArrow" transform="rotate(90) translate(36 -43)" onmousedown="handlePan(1,0)">
                  <use xlink:href="#rim" fill="#404040">
                        <set attributeName="fill" to="#808080" begin="arrowRight.mouseover" end="arrowRight.mouseout"/>
                  </use>
                  <path fill="none" stroke="white" stroke-width="1.5" d="M0,-3.0v7 M-2.5,-0.5L0,-3.0L2.5,-0.5"/>
                </g>
                <g id="arrowDown" xlink:href="#dirArrow" transform="rotate(180) translate(-30 -48)" onmousedown="handlePan(0,1)">
                  <use xlink:href="#rim" fill="#404040">
                        <set attributeName="fill" to="#808080" begin="arrowDown.mouseover" end="arrowDown.mouseout"/>
                  </use>
                  <path fill="none" stroke="white" stroke-width="1.5" d="M0,-3.0v7 M-2.5,-0.5L0,-3.0L2.5,-0.5"/>
                </g>
                <g id="arrowLeft" xlink:href="#dirArrow" transform="rotate(270) translate(-36 17)" onmousedown="handlePan(-1,0)">
                  <use xlink:href="#rim" fill="#404040">
                        <set attributeName="fill" to="#808080" begin="arrowLeft.mouseover" end="arrowLeft.mouseout"/>
                  </use>
                  <path fill="none" stroke="white" stroke-width="1.5" d="M0,-3.0v7 M-2.5,-0.5L0,-3.0L2.5,-0.5"/>
                </g>
        </g>
        <svg viewBox="0 0 15 15" width="100%" height="30px" preserveAspectRatio="xMaxYMin meet">
         <g id="arrow_out" transform="scale(0.3 0.3)">
          <a xlink:href="_tag_viewer_widget_8cpp__incl_org.svg" target="_base">
           <rect id="button" ry="5" rx="5" y="6" x="6" height="38" width="38"
                fill="#f2f5e9" fill-opacity="0.5" stroke="#606060" stroke-width="1.0"/>
           <path id="arrow"
             d="M 11.500037,31.436501 C 11.940474,20.09759 22.043105,11.32322 32.158766,21.979434 L 37.068811,17.246167 C 37.068811,17.246167 37.088388,32 37.088388,32 L 22.160133,31.978069 C 22.160133,31.978069 26.997745,27.140456 26.997745,27.140456 C 18.528582,18.264221 13.291696,25.230495 11.500037,31.436501 z"
             style="fill:#404040;"/>
          </a>
         </g>
        </svg>
</svg>
