<?xml version="1.0" encoding="UTF-8" standalone="no"?>
<!DOCTYPE svg PUBLIC "-//W3C//DTD SVG 1.1//EN"
 "http://www.w3.org/Graphics/SVG/1.1/DTD/svg11.dtd">
<!-- Generated by graphviz version 2.40.1 (20161225.0304)
 -->
<!-- Title: src/Interface/TagViewerWidget.cpp Pages: 1 -->
<svg width="774pt" height="319pt"
 viewBox="0.00 0.00 774.00 319.00" xmlns="http://www.w3.org/2000/svg" xmlns:xlink="http://www.w3.org/1999/xlink">
<g id="graph0" class="graph" transform="scale(1 1) rotate(0) translate(4 315)">
<title>src/Interface/TagViewerWidget.cpp</title>
<polygon fill="#ffffff" stroke="transparent" points="-4,4 -4,-315 770,-315 770,4 -4,4"/>
<!-- Node0 -->
<g id="node1" class="node">
<title>Node0</title>
<polygon fill="#bfbfbf" stroke="#000000" points="237,-291.5 237,-310.5 407,-310.5 407,-291.5 237,-291.5"/>
<text text-anchor="middle" x="322" y="-298.5" font-family="Helvetica,sans-Serif" font-size="10.00" fill="#000000">src/Interface/TagViewerWidget.cpp</text>
</g>
<!-- Node1 -->
<g id="node2" class="node">
<title>Node1</title>
<g id="a_node2"><a xlink:href="_tag_viewer_widget_8hpp.html" target="_top" xlink:title="TagViewerWidget.hpp">
<polygon fill="#ffffff" stroke="#000000" points="200.5,-235.5 200.5,-254.5 313.5,-254.5 313.5,-235.5 200.5,-235.5"/>
<text text-anchor="middle" x="257" y="-242.5" font-family="Helvetica,sans-Serif" font-size="10.00" fill="#000000">TagViewerWidget.hpp</text>
</a>
</g>
</g>
<!-- Node0&#45;&gt;Node1 -->
<g id="edge1" class="edge">
<title>Node0&#45;&gt;Node1</title>
<path fill="none" stroke="#191970" d="M310.6779,-291.2455C301.0777,-282.9746 287.1108,-270.9416 275.8305,-261.2232"/>
<polygon fill="#191970" stroke="#191970" points="278.053,-258.5182 268.1924,-254.6427 273.484,-263.8214 278.053,-258.5182"/>
</g>
<!-- Node14 -->
<g id="node15" class="node">
<title>Node14</title>
<g id="a_node15"><a xlink:href="_utilities_8hpp.html" target="_top" xlink:title="../Utilities/Utilities.hpp">
<polygon fill="#ffffff" stroke="#000000" points="331.5,-235.5 331.5,-254.5 444.5,-254.5 444.5,-235.5 331.5,-235.5"/>
<text text-anchor="middle" x="388" y="-242.5" font-family="Helvetica,sans-Serif" font-size="10.00" fill="#000000">../Utilities/Utilities.hpp</text>
</a>
</g>
</g>
<!-- Node0&#45;&gt;Node14 -->
<g id="edge15" class="edge">
<title>Node0&#45;&gt;Node14</title>
<path fill="none" stroke="#191970" d="M333.4963,-291.2455C343.2442,-282.9746 357.4259,-270.9416 368.8798,-261.2232"/>
<polygon fill="#191970" stroke="#191970" points="371.2747,-263.7813 376.6354,-254.6427 366.7459,-258.4437 371.2747,-263.7813"/>
</g>
<!-- Node2 -->
<g id="node3" class="node">
<title>Node2</title>
<g id="a_node3"><a xlink:href="_image_8hpp.html" target="_top" xlink:title="../Image/Image.hpp">
<polygon fill="#ffffff" stroke="#000000" points="272.5,-174 272.5,-193 373.5,-193 373.5,-174 272.5,-174"/>
<text text-anchor="middle" x="323" y="-181" font-family="Helvetica,sans-Serif" font-size="10.00" fill="#000000">../Image/Image.hpp</text>
</a>
</g>
</g>
<!-- Node1&#45;&gt;Node2 -->
<g id="edge2" class="edge">
<title>Node1&#45;&gt;Node2</title>
<path fill="none" stroke="#191970" d="M267.3125,-235.3906C277.4242,-225.9683 293.0442,-211.4134 305.1707,-200.1137"/>
<polygon fill="#191970" stroke="#191970" points="307.612,-202.6228 312.5421,-193.2449 302.8399,-197.5015 307.612,-202.6228"/>
</g>
<!-- Node11 -->
<g id="node12" class="node">
<title>Node11</title>
<g id="a_node12"><a xlink:href="_widget_8hpp.html" target="_top" xlink:title="Widget.hpp">
<polygon fill="#ffffff" stroke="#000000" points="80,-174 80,-193 146,-193 146,-174 80,-174"/>
<text text-anchor="middle" x="113" y="-181" font-family="Helvetica,sans-Serif" font-size="10.00" fill="#000000">Widget.hpp</text>
</a>
</g>
</g>
<!-- Node1&#45;&gt;Node11 -->
<g id="edge11" class="edge">
<title>Node1&#45;&gt;Node11</title>
<path fill="none" stroke="#191970" d="M234.5,-235.3906C210.4062,-225.1005 171.9787,-208.6888 144.7992,-197.0809"/>
<polygon fill="#191970" stroke="#191970" points="145.9131,-193.7508 135.342,-193.0419 143.1637,-200.1883 145.9131,-193.7508"/>
</g>
<!-- Node3 -->
<g id="node4" class="node">
<title>Node3</title>
<g id="a_node4"><a xlink:href="_tag_list_8hpp.html" target="_top" xlink:title="TagList.hpp">
<polygon fill="#ffffff" stroke="#000000" points="423,-112.5 423,-131.5 491,-131.5 491,-112.5 423,-112.5"/>
<text text-anchor="middle" x="457" y="-119.5" font-family="Helvetica,sans-Serif" font-size="10.00" fill="#000000">TagList.hpp</text>
</a>
</g>
</g>
<!-- Node2&#45;&gt;Node3 -->
<g id="edge3" class="edge">
<title>Node2&#45;&gt;Node3</title>
<path fill="none" stroke="#191970" d="M343.9375,-173.8906C366.2598,-163.6457 401.8037,-147.3326 427.0757,-135.7339"/>
<polygon fill="#191970" stroke="#191970" points="428.581,-138.8942 436.2095,-131.5419 425.6611,-132.5322 428.581,-138.8942"/>
</g>
<!-- Node7 -->
<g id="node8" class="node">
<title>Node7</title>
<polygon fill="#ffffff" stroke="#bfbfbf" points="84,-112.5 84,-131.5 142,-131.5 142,-112.5 84,-112.5"/>
<text text-anchor="middle" x="113" y="-119.5" font-family="Helvetica,sans-Serif" font-size="10.00" fill="#000000">../CImg.h</text>
</g>
<!-- Node2&#45;&gt;Node7 -->
<g id="edge7" class="edge">
<title>Node2&#45;&gt;Node7</title>
<path fill="none" stroke="#191970" d="M290.1875,-173.8906C252.7543,-162.9281 191.5964,-145.0175 151.8232,-133.3697"/>
<polygon fill="#191970" stroke="#191970" points="152.7802,-130.003 142.1996,-130.5513 150.8128,-136.7208 152.7802,-130.003"/>
</g>
<!-- Node8 -->
<g id="node9" class="node">
<title>Node8</title>
<polygon fill="#ffffff" stroke="#bfbfbf" points="160,-112.5 160,-131.5 280,-131.5 280,-112.5 160,-112.5"/>
<text text-anchor="middle" x="220" y="-119.5" font-family="Helvetica,sans-Serif" font-size="10.00" fill="#000000">experimental/filesystem</text>
</g>
<!-- Node2&#45;&gt;Node8 -->
<g id="edge8" class="edge">
<title>Node2&#45;&gt;Node8</title>
<path fill="none" stroke="#191970" d="M306.9063,-173.8906C290.2772,-163.9616 264.1024,-148.333 244.8206,-136.8201"/>
<polygon fill="#191970" stroke="#191970" points="246.361,-133.6634 235.9807,-131.5419 242.7724,-139.6736 246.361,-133.6634"/>
</g>
<!-- Node9 -->
<g id="node10" class="node">
<title>Node9</title>
<polygon fill="#ffffff" stroke="#bfbfbf" points="298,-112.5 298,-131.5 348,-131.5 348,-112.5 298,-112.5"/>
<text text-anchor="middle" x="323" y="-119.5" font-family="Helvetica,sans-Serif" font-size="10.00" fill="#000000">fstream</text>
</g>
<!-- Node2&#45;&gt;Node9 -->
<g id="edge9" class="edge">
<title>Node2&#45;&gt;Node9</title>
<path fill="none" stroke="#191970" d="M323,-173.8906C323,-165.3657 323,-152.6392 323,-141.9235"/>
<polygon fill="#191970" stroke="#191970" points="326.5001,-141.7448 323,-131.7449 319.5001,-141.7449 326.5001,-141.7448"/>
</g>
<!-- Node10 -->
<g id="node11" class="node">
<title>Node10</title>
<polygon fill="#ffffff" stroke="#bfbfbf" points="440,-.5 440,-19.5 492,-19.5 492,-.5 440,-.5"/>
<text text-anchor="middle" x="466" y="-7.5" font-family="Helvetica,sans-Serif" font-size="10.00" fill="#000000">memory</text>
</g>
<!-- Node2&#45;&gt;Node10 -->
<g id="edge10" class="edge">
<title>Node2&#45;&gt;Node10</title>
<path fill="none" stroke="#191970" d="M329.8759,-173.8483C337.0119,-163.6617 348.3222,-147.0311 357,-132 375.8817,-99.2944 369.8221,-84.1469 395,-56 406.4568,-43.1922 422.2716,-32.4832 436.068,-24.6298"/>
<polygon fill="#191970" stroke="#191970" points="438.1024,-27.5077 445.2184,-19.6583 434.7606,-21.3569 438.1024,-27.5077"/>
</g>
<!-- Node4 -->
<g id="node5" class="node">
<title>Node4</title>
<polygon fill="#ffffff" stroke="#bfbfbf" points="516.5,-56.5 516.5,-75.5 557.5,-75.5 557.5,-56.5 516.5,-56.5"/>
<text text-anchor="middle" x="537" y="-63.5" font-family="Helvetica,sans-Serif" font-size="10.00" fill="#000000">string</text>
</g>
<!-- Node3&#45;&gt;Node4 -->
<g id="edge4" class="edge">
<title>Node3&#45;&gt;Node4</title>
<path fill="none" stroke="#191970" d="M470.9349,-112.2455C483.0947,-103.7337 500.9464,-91.2375 515.0285,-81.3801"/>
<polygon fill="#191970" stroke="#191970" points="517.0395,-84.2447 523.2248,-75.6427 513.0253,-78.51 517.0395,-84.2447"/>
</g>
<!-- Node5 -->
<g id="node6" class="node">
<title>Node5</title>
<polygon fill="#ffffff" stroke="#bfbfbf" points="404,-56.5 404,-75.5 434,-75.5 434,-56.5 404,-56.5"/>
<text text-anchor="middle" x="419" y="-63.5" font-family="Helvetica,sans-Serif" font-size="10.00" fill="#000000">set</text>
</g>
<!-- Node3&#45;&gt;Node5 -->
<g id="edge5" class="edge">
<title>Node3&#45;&gt;Node5</title>
<path fill="none" stroke="#191970" d="M450.3809,-112.2455C445.0954,-104.4564 437.5459,-93.3308 431.1762,-83.9439"/>
<polygon fill="#191970" stroke="#191970" points="434.0545,-81.9522 425.5432,-75.6427 428.2621,-85.8827 434.0545,-81.9522"/>
</g>
<!-- Node6 -->
<g id="node7" class="node">
<title>Node6</title>
<polygon fill="#ffffff" stroke="#bfbfbf" points="452,-56.5 452,-75.5 498,-75.5 498,-56.5 452,-56.5"/>
<text text-anchor="middle" x="475" y="-63.5" font-family="Helvetica,sans-Serif" font-size="10.00" fill="#000000">cctype</text>
</g>
<!-- Node3&#45;&gt;Node6 -->
<g id="edge6" class="edge">
<title>Node3&#45;&gt;Node6</title>
<path fill="none" stroke="#191970" d="M460.1354,-112.2455C462.51,-104.8579 465.8493,-94.4689 468.7615,-85.4087"/>
<polygon fill="#191970" stroke="#191970" points="472.1725,-86.234 471.9006,-75.6427 465.5083,-84.0919 472.1725,-86.234"/>
</g>
<!-- Node11&#45;&gt;Node7 -->
<g id="edge12" class="edge">
<title>Node11&#45;&gt;Node7</title>
<path fill="none" stroke="#191970" d="M113,-173.8906C113,-165.3657 113,-152.6392 113,-141.9235"/>
<polygon fill="#191970" stroke="#191970" points="116.5001,-141.7448 113,-131.7449 109.5001,-141.7449 116.5001,-141.7448"/>
</g>
<!-- Node12 -->
<g id="node13" class="node">
<title>Node12</title>
<g id="a_node13"><a xlink:href="_events_8hpp.html" target="_top" xlink:title="Events.hpp">
<polygon fill="#ffffff" stroke="#000000" points="0,-112.5 0,-131.5 66,-131.5 66,-112.5 0,-112.5"/>
<text text-anchor="middle" x="33" y="-119.5" font-family="Helvetica,sans-Serif" font-size="10.00" fill="#000000">Events.hpp</text>
</a>
</g>
</g>
<!-- Node11&#45;&gt;Node12 -->
<g id="edge13" class="edge">
<title>Node11&#45;&gt;Node12</title>
<path fill="none" stroke="#191970" d="M100.5,-173.8906C87.9364,-164.2324 68.3577,-149.1812 53.5151,-137.771"/>
<polygon fill="#191970" stroke="#191970" points="55.4735,-134.8618 45.4122,-131.5419 51.2072,-140.4115 55.4735,-134.8618"/>
</g>
<!-- Node13 -->
<g id="node14" class="node">
<title>Node13</title>
<polygon fill="#ffffff" stroke="#bfbfbf" points="10,-56.5 10,-75.5 56,-75.5 56,-56.5 10,-56.5"/>
<text text-anchor="middle" x="33" y="-63.5" font-family="Helvetica,sans-Serif" font-size="10.00" fill="#000000">variant</text>
</g>
<!-- Node12&#45;&gt;Node13 -->
<g id="edge14" class="edge">
<title>Node12&#45;&gt;Node13</title>
<path fill="none" stroke="#191970" d="M33,-112.2455C33,-104.9382 33,-94.6944 33,-85.7046"/>
<polygon fill="#191970" stroke="#191970" points="36.5001,-85.6426 33,-75.6427 29.5001,-85.6427 36.5001,-85.6426"/>
</g>
<!-- Node14&#45;&gt;Node2 -->
<g id="edge25" class="edge">
<title>Node14&#45;&gt;Node2</title>
<path fill="none" stroke="#191970" d="M377.8438,-235.3906C367.9801,-226.0581 352.7945,-211.6902 340.9013,-200.4374"/>
<polygon fill="#191970" stroke="#191970" points="342.9689,-197.5753 333.2994,-193.2449 338.1579,-202.6601 342.9689,-197.5753"/>
</g>
<!-- Node15 -->
<g id="node16" class="node">
<title>Node15</title>
<g id="a_node16"><a xlink:href="_collection_pool_8hpp.html" target="_top" xlink:title="../Collection/Collection\lPool.hpp">
<polygon fill="#ffffff" stroke="#000000" points="573,-168.5 573,-198.5 689,-198.5 689,-168.5 573,-168.5"/>
<text text-anchor="start" x="581" y="-186.5" font-family="Helvetica,sans-Serif" font-size="10.00" fill="#000000">../Collection/Collection</text>
<text text-anchor="middle" x="631" y="-175.5" font-family="Helvetica,sans-Serif" font-size="10.00" fill="#000000">Pool.hpp</text>
</a>
</g>
</g>
<!-- Node14&#45;&gt;Node15 -->
<g id="edge16" class="edge">
<title>Node14&#45;&gt;Node15</title>
<path fill="none" stroke="#191970" d="M425.7021,-235.4581C462.2632,-226.205 518.562,-211.9565 562.9627,-200.7193"/>
<polygon fill="#191970" stroke="#191970" points="563.9834,-204.0714 572.819,-198.2248 562.2659,-197.2854 563.9834,-204.0714"/>
</g>
<!-- Node16 -->
<g id="node17" class="node">
<title>Node16</title>
<g id="a_node17"><a xlink:href="_collection_8hpp.html" target="_top" xlink:title="Collection.hpp">
<polygon fill="#ffffff" stroke="#000000" points="625.5,-112.5 625.5,-131.5 704.5,-131.5 704.5,-112.5 625.5,-112.5"/>
<text text-anchor="middle" x="665" y="-119.5" font-family="Helvetica,sans-Serif" font-size="10.00" fill="#000000">Collection.hpp</text>
</a>
</g>
</g>
<!-- Node15&#45;&gt;Node16 -->
<g id="edge17" class="edge">
<title>Node15&#45;&gt;Node16</title>
<path fill="none" stroke="#191970" d="M639.4045,-168.2977C644.0257,-159.9388 649.7969,-149.4997 654.6889,-140.6509"/>
<polygon fill="#191970" stroke="#191970" points="657.7809,-142.292 659.5562,-131.8469 651.6548,-138.9051 657.7809,-142.292"/>
</g>
<!-- Node17 -->
<g id="node18" class="node">
<title>Node17</title>
<g id="a_node18"><a xlink:href="_collection_iterator_8hpp.html" target="_top" xlink:title="CollectionIterator.hpp">
<polygon fill="#ffffff" stroke="#000000" points="576,-56.5 576,-75.5 686,-75.5 686,-56.5 576,-56.5"/>
<text text-anchor="middle" x="631" y="-63.5" font-family="Helvetica,sans-Serif" font-size="10.00" fill="#000000">CollectionIterator.hpp</text>
</a>
</g>
</g>
<!-- Node15&#45;&gt;Node17 -->
<g id="edge23" class="edge">
<title>Node15&#45;&gt;Node17</title>
<path fill="none" stroke="#191970" d="M624.9308,-168.2277C619.9298,-153.7986 614.0957,-131.5174 617,-112 618.3327,-103.0439 621.0494,-93.419 623.7381,-85.3"/>
<polygon fill="#191970" stroke="#191970" points="627.1067,-86.272 627.1376,-75.6772 620.5064,-83.9402 627.1067,-86.272"/>
</g>
<!-- Node20 -->
<g id="node21" class="node">
<title>Node20</title>
<polygon fill="#ffffff" stroke="#bfbfbf" points="722,-112.5 722,-131.5 766,-131.5 766,-112.5 722,-112.5"/>
<text text-anchor="middle" x="744" y="-119.5" font-family="Helvetica,sans-Serif" font-size="10.00" fill="#000000">vector</text>
</g>
<!-- Node15&#45;&gt;Node20 -->
<g id="edge24" class="edge">
<title>Node15&#45;&gt;Node20</title>
<path fill="none" stroke="#191970" d="M658.6429,-168.4554C676.5049,-158.734 699.6268,-146.15 717.2995,-136.5317"/>
<polygon fill="#191970" stroke="#191970" points="719.3787,-139.3849 726.489,-131.5303 716.0325,-133.2365 719.3787,-139.3849"/>
</g>
<!-- Node16&#45;&gt;Node17 -->
<g id="edge18" class="edge">
<title>Node16&#45;&gt;Node17</title>
<path fill="none" stroke="#191970" d="M659.0777,-112.2455C654.3973,-104.5367 647.7327,-93.5598 642.0711,-84.2348"/>
<polygon fill="#191970" stroke="#191970" points="645.0361,-82.3741 636.8545,-75.6427 639.0525,-86.007 645.0361,-82.3741"/>
</g>
<!-- Node19 -->
<g id="node20" class="node">
<title>Node19</title>
<polygon fill="#ffffff" stroke="#bfbfbf" points="685.5,-.5 685.5,-19.5 732.5,-19.5 732.5,-.5 685.5,-.5"/>
<text text-anchor="middle" x="709" y="-7.5" font-family="Helvetica,sans-Serif" font-size="10.00" fill="#000000">iterator</text>
</g>
<!-- Node16&#45;&gt;Node19 -->
<g id="edge22" class="edge">
<title>Node16&#45;&gt;Node19</title>
<path fill="none" stroke="#191970" d="M672.8116,-112.37C679.6578,-103.4528 689.3707,-89.561 695,-76 701.1748,-61.1249 704.7553,-43.1888 706.747,-29.7712"/>
<polygon fill="#191970" stroke="#191970" points="710.2338,-30.1007 708.0685,-19.7295 703.2936,-29.1873 710.2338,-30.1007"/>
</g>
<!-- Node17&#45;&gt;Node10 -->
<g id="edge21" class="edge">
<title>Node17&#45;&gt;Node10</title>
<path fill="none" stroke="#191970" d="M602.6355,-56.3733C574.7378,-46.9049 532.0535,-32.4182 501.8267,-22.1594"/>
<polygon fill="#191970" stroke="#191970" points="502.6872,-18.7554 492.0928,-18.8557 500.4374,-25.384 502.6872,-18.7554"/>
</g>
<!-- Node18 -->
<g id="node19" class="node">
<title>Node18</title>
<polygon fill="#ffffff" stroke="#bfbfbf" points="600,-.5 600,-19.5 662,-19.5 662,-.5 600,-.5"/>
<text text-anchor="middle" x="631" y="-7.5" font-family="Helvetica,sans-Serif" font-size="10.00" fill="#000000">type_traits</text>
</g>
<!-- Node17&#45;&gt;Node18 -->
<g id="edge19" class="edge">
<title>Node17&#45;&gt;Node18</title>
<path fill="none" stroke="#191970" d="M631,-56.2455C631,-48.9382 631,-38.6944 631,-29.7046"/>
<polygon fill="#191970" stroke="#191970" points="634.5001,-29.6426 631,-19.6427 627.5001,-29.6427 634.5001,-29.6426"/>
</g>
<!-- Node17&#45;&gt;Node19 -->
<g id="edge20" class="edge">
<title>Node17&#45;&gt;Node19</title>
<path fill="none" stroke="#191970" d="M644.5866,-56.2455C656.3305,-47.814 673.5199,-35.4729 687.1882,-25.6598"/>
<polygon fill="#191970" stroke="#191970" points="689.4871,-28.3179 695.5691,-19.6427 685.4046,-22.6316 689.4871,-28.3179"/>
</g>
</g>
</svg>
