<?xml version="1.0" encoding="UTF-8" standalone="no"?>
<!DOCTYPE svg PUBLIC "-//W3C//DTD SVG 1.1//EN"
 "http://www.w3.org/Graphics/SVG/1.1/DTD/svg11.dtd">
<!-- Generated by graphviz version 2.40.1 (20161225.0304)
 -->
<!-- Title: src/Utilities/TextBox/TextBox.cpp Pages: 1 -->
<!--zoomable 330 -->
<svg id="main" version="1.1" xmlns="http://www.w3.org/2000/svg" xmlns:xlink="http://www.w3.org/1999/xlink" xml:space="preserve" onload="init(evt)">
<style type="text/css"><![CDATA[
.edge:hover path { stroke: red; }
.edge:hover polygon { stroke: red; fill: red; }
]]></style>
<script type="text/javascript"><![CDATA[
var edges = document.getElementsByTagName('g');
if (edges && edges.length) {
  for (var i=0;i<edges.length;i++) {
    if (edges[i].id.substr(0,4)=='edge') {
      edges[i].setAttribute('class','edge');
    }
  }
}
]]></script>
        <defs>
                <circle id="rim" cx="0" cy="0" r="7"/>
                <circle id="rim2" cx="0" cy="0" r="3.5"/>
                <g id="zoomPlus">
                        <use xlink:href="#rim" fill="#404040">
                                <set attributeName="fill" to="#808080" begin="zoomplus.mouseover" end="zoomplus.mouseout"/>
                        </use>
                        <path d="M-4,0h8M0,-4v8" fill="none" stroke="white" stroke-width="1.5" pointer-events="none"/>
                </g>
                <g id="zoomMin">
                        <use xlink:href="#rim" fill="#404040">
                                <set attributeName="fill" to="#808080" begin="zoomminus.mouseover" end="zoomminus.mouseout"/>
                        </use>
                        <path d="M-4,0h8" fill="none" stroke="white" stroke-width="1.5" pointer-events="none"/>
                </g>
                <g id="dirArrow">
                        <path fill="none" stroke="white" stroke-width="1.5" d="M0,-3.0v7 M-2.5,-0.5L0,-3.0L2.5,-0.5"/>
                </g>
               <g id="resetDef">
                       <use xlink:href="#rim2" fill="#404040">
                               <set attributeName="fill" to="#808080" begin="reset.mouseover" end="reset.mouseout"/>
                       </use>
               </g>
        </defs>

<script type="text/javascript">
var viewWidth = 672;
var viewHeight = 330;
var sectionId = 'dynsection-0';
</script>
<script xlink:href="svgpan.js"/>
<svg id="graph" class="graph">
<g id="viewport">
<title>src/Utilities/TextBox/TextBox.cpp</title>
<polygon fill="#ffffff" stroke="transparent" points="-4,4 -4,-326 668,-326 668,4 -4,4"/>
<!-- Node0 -->
<g id="node1" class="node">
<title>Node0</title>
<polygon fill="#bfbfbf" stroke="#000000" points="105,-291.5 105,-321.5 211,-321.5 211,-291.5 105,-291.5"/>
<text text-anchor="start" x="113" y="-309.5" font-family="Helvetica,sans-Serif" font-size="10.00" fill="#000000">src/Utilities/TextBox</text>
<text text-anchor="middle" x="158" y="-298.5" font-family="Helvetica,sans-Serif" font-size="10.00" fill="#000000">/TextBox.cpp</text>
</g>
<!-- Node1 -->
<g id="node2" class="node">
<title>Node1</title>
<g id="a_node2"><a xlink:href="_text_box_8hpp.html" target="_top" xlink:title="TextBox.hpp">
<polygon fill="#ffffff" stroke="#000000" points="0,-174 0,-193 72,-193 72,-174 0,-174"/>
<text text-anchor="middle" x="36" y="-181" font-family="Helvetica,sans-Serif" font-size="10.00" fill="#000000">TextBox.hpp</text>
</a>
</g>
</g>
<!-- Node0&#45;&gt;Node1 -->
<g id="edge1" class="edge">
<title>Node0&#45;&gt;Node1</title>
<path fill="none" stroke="#191970" d="M135.3996,-291.3737C121.8183,-281.7547 104.5925,-268.5876 91,-255 74.49,-238.4959 58.5592,-216.97 48.1308,-201.866"/>
<polygon fill="#191970" stroke="#191970" points="50.8984,-199.7109 42.3927,-193.3939 45.1026,-203.6363 50.8984,-199.7109"/>
</g>
<!-- Node3 -->
<g id="node4" class="node">
<title>Node3</title>
<g id="a_node4"><a xlink:href="system__target_8hpp.html" target="_top" xlink:title="../../system_target.hpp">
<polygon fill="#ffffff" stroke="#000000" points="100,-235.5 100,-254.5 216,-254.5 216,-235.5 100,-235.5"/>
<text text-anchor="middle" x="158" y="-242.5" font-family="Helvetica,sans-Serif" font-size="10.00" fill="#000000">../../system_target.hpp</text>
</a>
</g>
</g>
<!-- Node0&#45;&gt;Node3 -->
<g id="edge3" class="edge">
<title>Node0&#45;&gt;Node3</title>
<path fill="none" stroke="#191970" d="M158,-291.2977C158,-283.3834 158,-273.6043 158,-265.0759"/>
<polygon fill="#191970" stroke="#191970" points="161.5001,-264.8469 158,-254.8469 154.5001,-264.847 161.5001,-264.8469"/>
</g>
<!-- Node4 -->
<g id="node5" class="node">
<title>Node4</title>
<g id="a_node5"><a xlink:href="_utilities_8hpp.html" target="_top" xlink:title="../Utilities.hpp">
<polygon fill="#ffffff" stroke="#000000" points="240.5,-235.5 240.5,-254.5 317.5,-254.5 317.5,-235.5 240.5,-235.5"/>
<text text-anchor="middle" x="279" y="-242.5" font-family="Helvetica,sans-Serif" font-size="10.00" fill="#000000">../Utilities.hpp</text>
</a>
</g>
</g>
<!-- Node0&#45;&gt;Node4 -->
<g id="edge4" class="edge">
<title>Node0&#45;&gt;Node4</title>
<path fill="none" stroke="#191970" d="M187.5999,-291.4554C206.9922,-281.599 232.1742,-268.7999 251.1943,-259.1327"/>
<polygon fill="#191970" stroke="#191970" points="252.9205,-262.1815 260.2493,-254.5303 249.7488,-255.9412 252.9205,-262.1815"/>
</g>
<!-- Node2 -->
<g id="node3" class="node">
<title>Node2</title>
<polygon fill="#ffffff" stroke="#bfbfbf" points="8.5,-56.5 8.5,-75.5 49.5,-75.5 49.5,-56.5 8.5,-56.5"/>
<text text-anchor="middle" x="29" y="-63.5" font-family="Helvetica,sans-Serif" font-size="10.00" fill="#000000">string</text>
</g>
<!-- Node1&#45;&gt;Node2 -->
<g id="edge2" class="edge">
<title>Node1&#45;&gt;Node2</title>
<path fill="none" stroke="#191970" d="M35.4272,-173.8845C34.2837,-154.6913 31.6979,-111.286 30.1776,-85.7663"/>
<polygon fill="#191970" stroke="#191970" points="33.6693,-85.5225 29.5808,-75.7484 26.6817,-85.9389 33.6693,-85.5225"/>
</g>
<!-- Node5 -->
<g id="node6" class="node">
<title>Node5</title>
<g id="a_node6"><a xlink:href="_collection_pool_8hpp.html" target="_top" xlink:title="../Collection/Collection\lPool.hpp">
<polygon fill="#ffffff" stroke="#000000" points="471,-168.5 471,-198.5 587,-198.5 587,-168.5 471,-168.5"/>
<text text-anchor="start" x="479" y="-186.5" font-family="Helvetica,sans-Serif" font-size="10.00" fill="#000000">../Collection/Collection</text>
<text text-anchor="middle" x="529" y="-175.5" font-family="Helvetica,sans-Serif" font-size="10.00" fill="#000000">Pool.hpp</text>
</a>
</g>
</g>
<!-- Node4&#45;&gt;Node5 -->
<g id="edge5" class="edge">
<title>Node4&#45;&gt;Node5</title>
<path fill="none" stroke="#191970" d="M317.5146,-235.5254C355.6682,-226.1396 414.9066,-211.567 460.9932,-200.2297"/>
<polygon fill="#191970" stroke="#191970" points="462.0377,-203.5772 470.9121,-197.7896 460.3655,-196.7798 462.0377,-203.5772"/>
</g>
<!-- Node12 -->
<g id="node13" class="node">
<title>Node12</title>
<g id="a_node13"><a xlink:href="_image_8hpp.html" target="_top" xlink:title="../Image/Image.hpp">
<polygon fill="#ffffff" stroke="#000000" points="228.5,-174 228.5,-193 329.5,-193 329.5,-174 228.5,-174"/>
<text text-anchor="middle" x="279" y="-181" font-family="Helvetica,sans-Serif" font-size="10.00" fill="#000000">../Image/Image.hpp</text>
</a>
</g>
</g>
<!-- Node4&#45;&gt;Node12 -->
<g id="edge14" class="edge">
<title>Node4&#45;&gt;Node12</title>
<path fill="none" stroke="#191970" d="M279,-235.3906C279,-226.8657 279,-214.1392 279,-203.4235"/>
<polygon fill="#191970" stroke="#191970" points="282.5001,-203.2448 279,-193.2449 275.5001,-203.2449 282.5001,-203.2448"/>
</g>
<!-- Node6 -->
<g id="node7" class="node">
<title>Node6</title>
<g id="a_node7"><a xlink:href="_collection_8hpp.html" target="_top" xlink:title="Collection.hpp">
<polygon fill="#ffffff" stroke="#000000" points="523.5,-112.5 523.5,-131.5 602.5,-131.5 602.5,-112.5 523.5,-112.5"/>
<text text-anchor="middle" x="563" y="-119.5" font-family="Helvetica,sans-Serif" font-size="10.00" fill="#000000">Collection.hpp</text>
</a>
</g>
</g>
<!-- Node5&#45;&gt;Node6 -->
<g id="edge6" class="edge">
<title>Node5&#45;&gt;Node6</title>
<path fill="none" stroke="#191970" d="M537.4045,-168.2977C542.0257,-159.9388 547.7969,-149.4997 552.6889,-140.6509"/>
<polygon fill="#191970" stroke="#191970" points="555.7809,-142.292 557.5562,-131.8469 549.6548,-138.9051 555.7809,-142.292"/>
</g>
<!-- Node7 -->
<g id="node8" class="node">
<title>Node7</title>
<g id="a_node8"><a xlink:href="_collection_iterator_8hpp.html" target="_top" xlink:title="CollectionIterator.hpp">
<polygon fill="#ffffff" stroke="#000000" points="463,-56.5 463,-75.5 573,-75.5 573,-56.5 463,-56.5"/>
<text text-anchor="middle" x="518" y="-63.5" font-family="Helvetica,sans-Serif" font-size="10.00" fill="#000000">CollectionIterator.hpp</text>
</a>
</g>
</g>
<!-- Node5&#45;&gt;Node7 -->
<g id="edge12" class="edge">
<title>Node5&#45;&gt;Node7</title>
<path fill="none" stroke="#191970" d="M523.7545,-168.3942C520.5144,-158.2442 516.6674,-144.4902 515,-132 513.8238,-123.1893 514.7106,-120.8842 515,-112 515.283,-103.3113 515.866,-93.714 516.4434,-85.5436"/>
<polygon fill="#191970" stroke="#191970" points="519.9384,-85.7404 517.1987,-75.5059 512.9582,-85.2151 519.9384,-85.7404"/>
</g>
<!-- Node11 -->
<g id="node12" class="node">
<title>Node11</title>
<polygon fill="#ffffff" stroke="#bfbfbf" points="620,-112.5 620,-131.5 664,-131.5 664,-112.5 620,-112.5"/>
<text text-anchor="middle" x="642" y="-119.5" font-family="Helvetica,sans-Serif" font-size="10.00" fill="#000000">vector</text>
</g>
<!-- Node5&#45;&gt;Node11 -->
<g id="edge13" class="edge">
<title>Node5&#45;&gt;Node11</title>
<path fill="none" stroke="#191970" d="M556.6429,-168.4554C574.5049,-158.734 597.6268,-146.15 615.2995,-136.5317"/>
<polygon fill="#191970" stroke="#191970" points="617.3787,-139.3849 624.489,-131.5303 614.0325,-133.2365 617.3787,-139.3849"/>
</g>
<!-- Node6&#45;&gt;Node7 -->
<g id="edge7" class="edge">
<title>Node6&#45;&gt;Node7</title>
<path fill="none" stroke="#191970" d="M555.1616,-112.2455C548.838,-104.3761 539.7776,-93.101 532.1864,-83.6542"/>
<polygon fill="#191970" stroke="#191970" points="534.7408,-81.2454 525.7486,-75.6427 529.2842,-85.6302 534.7408,-81.2454"/>
</g>
<!-- Node9 -->
<g id="node10" class="node">
<title>Node9</title>
<polygon fill="#ffffff" stroke="#bfbfbf" points="572.5,-.5 572.5,-19.5 619.5,-19.5 619.5,-.5 572.5,-.5"/>
<text text-anchor="middle" x="596" y="-7.5" font-family="Helvetica,sans-Serif" font-size="10.00" fill="#000000">iterator</text>
</g>
<!-- Node6&#45;&gt;Node9 -->
<g id="edge11" class="edge">
<title>Node6&#45;&gt;Node9</title>
<path fill="none" stroke="#191970" d="M567.607,-112.3206C571.8289,-103.1407 578.012,-88.8758 582,-76 586.7651,-60.6153 590.4503,-42.717 592.8409,-29.4436"/>
<polygon fill="#191970" stroke="#191970" points="596.2989,-29.9861 594.5399,-19.5384 589.3996,-28.8027 596.2989,-29.9861"/>
</g>
<!-- Node8 -->
<g id="node9" class="node">
<title>Node8</title>
<polygon fill="#ffffff" stroke="#bfbfbf" points="487,-.5 487,-19.5 549,-19.5 549,-.5 487,-.5"/>
<text text-anchor="middle" x="518" y="-7.5" font-family="Helvetica,sans-Serif" font-size="10.00" fill="#000000">type_traits</text>
</g>
<!-- Node7&#45;&gt;Node8 -->
<g id="edge8" class="edge">
<title>Node7&#45;&gt;Node8</title>
<path fill="none" stroke="#191970" d="M518,-56.2455C518,-48.9382 518,-38.6944 518,-29.7046"/>
<polygon fill="#191970" stroke="#191970" points="521.5001,-29.6426 518,-19.6427 514.5001,-29.6427 521.5001,-29.6426"/>
</g>
<!-- Node7&#45;&gt;Node9 -->
<g id="edge9" class="edge">
<title>Node7&#45;&gt;Node9</title>
<path fill="none" stroke="#191970" d="M531.5866,-56.2455C543.3305,-47.814 560.5199,-35.4729 574.1882,-25.6598"/>
<polygon fill="#191970" stroke="#191970" points="576.4871,-28.3179 582.5691,-19.6427 572.4046,-22.6316 576.4871,-28.3179"/>
</g>
<!-- Node10 -->
<g id="node11" class="node">
<title>Node10</title>
<polygon fill="#ffffff" stroke="#bfbfbf" points="413,-.5 413,-19.5 465,-19.5 465,-.5 413,-.5"/>
<text text-anchor="middle" x="439" y="-7.5" font-family="Helvetica,sans-Serif" font-size="10.00" fill="#000000">memory</text>
</g>
<!-- Node7&#45;&gt;Node10 -->
<g id="edge10" class="edge">
<title>Node7&#45;&gt;Node10</title>
<path fill="none" stroke="#191970" d="M504.2393,-56.2455C492.3448,-47.814 474.935,-35.4729 461.0915,-25.6598"/>
<polygon fill="#191970" stroke="#191970" points="462.7854,-22.5704 452.6031,-19.6427 458.7372,-28.2811 462.7854,-22.5704"/>
</g>
<!-- Node12&#45;&gt;Node10 -->
<g id="edge22" class="edge">
<title>Node12&#45;&gt;Node10</title>
<path fill="none" stroke="#191970" d="M329.7766,-176.8835C359.2147,-170.3735 394.5871,-157.4852 416,-132 440.3973,-102.9628 442.122,-56.2044 440.8156,-29.8046"/>
<polygon fill="#191970" stroke="#191970" points="444.2875,-29.2776 440.1002,-19.5454 437.3044,-29.7647 444.2875,-29.2776"/>
</g>
<!-- Node13 -->
<g id="node14" class="node">
<title>Node13</title>
<g id="a_node14"><a xlink:href="_tag_list_8hpp.html" target="_top" xlink:title="TagList.hpp">
<polygon fill="#ffffff" stroke="#000000" points="57,-112.5 57,-131.5 125,-131.5 125,-112.5 57,-112.5"/>
<text text-anchor="middle" x="91" y="-119.5" font-family="Helvetica,sans-Serif" font-size="10.00" fill="#000000">TagList.hpp</text>
</a>
</g>
</g>
<!-- Node12&#45;&gt;Node13 -->
<g id="edge15" class="edge">
<title>Node12&#45;&gt;Node13</title>
<path fill="none" stroke="#191970" d="M249.625,-173.8906C217.3414,-163.3298 165.3465,-146.3208 129.7453,-134.6747"/>
<polygon fill="#191970" stroke="#191970" points="130.7613,-131.3246 120.1687,-131.5419 128.5849,-137.9776 130.7613,-131.3246"/>
</g>
<!-- Node16 -->
<g id="node17" class="node">
<title>Node16</title>
<polygon fill="#ffffff" stroke="#bfbfbf" points="143,-112.5 143,-131.5 201,-131.5 201,-112.5 143,-112.5"/>
<text text-anchor="middle" x="172" y="-119.5" font-family="Helvetica,sans-Serif" font-size="10.00" fill="#000000">../CImg.h</text>
</g>
<!-- Node12&#45;&gt;Node16 -->
<g id="edge19" class="edge">
<title>Node12&#45;&gt;Node16</title>
<path fill="none" stroke="#191970" d="M262.2813,-173.8906C244.9278,-163.9165 217.5677,-148.1908 197.5118,-136.6633"/>
<polygon fill="#191970" stroke="#191970" points="199.0154,-133.4907 188.6013,-131.5419 195.5272,-139.5596 199.0154,-133.4907"/>
</g>
<!-- Node17 -->
<g id="node18" class="node">
<title>Node17</title>
<polygon fill="#ffffff" stroke="#bfbfbf" points="219,-112.5 219,-131.5 339,-131.5 339,-112.5 219,-112.5"/>
<text text-anchor="middle" x="279" y="-119.5" font-family="Helvetica,sans-Serif" font-size="10.00" fill="#000000">experimental/filesystem</text>
</g>
<!-- Node12&#45;&gt;Node17 -->
<g id="edge20" class="edge">
<title>Node12&#45;&gt;Node17</title>
<path fill="none" stroke="#191970" d="M279,-173.8906C279,-165.3657 279,-152.6392 279,-141.9235"/>
<polygon fill="#191970" stroke="#191970" points="282.5001,-141.7448 279,-131.7449 275.5001,-141.7449 282.5001,-141.7448"/>
</g>
<!-- Node18 -->
<g id="node19" class="node">
<title>Node18</title>
<polygon fill="#ffffff" stroke="#bfbfbf" points="357,-112.5 357,-131.5 407,-131.5 407,-112.5 357,-112.5"/>
<text text-anchor="middle" x="382" y="-119.5" font-family="Helvetica,sans-Serif" font-size="10.00" fill="#000000">fstream</text>
</g>
<!-- Node12&#45;&gt;Node18 -->
<g id="edge21" class="edge">
<title>Node12&#45;&gt;Node18</title>
<path fill="none" stroke="#191970" d="M295.0938,-173.8906C311.7228,-163.9616 337.8976,-148.333 357.1794,-136.8201"/>
<polygon fill="#191970" stroke="#191970" points="359.2276,-139.6736 366.0193,-131.5419 355.639,-133.6634 359.2276,-139.6736"/>
</g>
<!-- Node13&#45;&gt;Node2 -->
<g id="edge16" class="edge">
<title>Node13&#45;&gt;Node2</title>
<path fill="none" stroke="#191970" d="M80.2004,-112.2455C71.1322,-104.0549 57.9794,-92.1749 47.2755,-82.5069"/>
<polygon fill="#191970" stroke="#191970" points="49.4429,-79.7482 39.6758,-75.6427 44.7509,-84.9429 49.4429,-79.7482"/>
</g>
<!-- Node14 -->
<g id="node15" class="node">
<title>Node14</title>
<polygon fill="#ffffff" stroke="#bfbfbf" points="132,-56.5 132,-75.5 162,-75.5 162,-56.5 132,-56.5"/>
<text text-anchor="middle" x="147" y="-63.5" font-family="Helvetica,sans-Serif" font-size="10.00" fill="#000000">set</text>
</g>
<!-- Node13&#45;&gt;Node14 -->
<g id="edge17" class="edge">
<title>Node13&#45;&gt;Node14</title>
<path fill="none" stroke="#191970" d="M100.7545,-112.2455C108.8648,-104.1352 120.5925,-92.4075 130.2081,-82.7919"/>
<polygon fill="#191970" stroke="#191970" points="132.7611,-85.1887 137.3573,-75.6427 127.8113,-80.2389 132.7611,-85.1887"/>
</g>
<!-- Node15 -->
<g id="node16" class="node">
<title>Node15</title>
<polygon fill="#ffffff" stroke="#bfbfbf" points="68,-56.5 68,-75.5 114,-75.5 114,-56.5 68,-56.5"/>
<text text-anchor="middle" x="91" y="-63.5" font-family="Helvetica,sans-Serif" font-size="10.00" fill="#000000">cctype</text>
</g>
<!-- Node13&#45;&gt;Node15 -->
<g id="edge18" class="edge">
<title>Node13&#45;&gt;Node15</title>
<path fill="none" stroke="#191970" d="M91,-112.2455C91,-104.9382 91,-94.6944 91,-85.7046"/>
<polygon fill="#191970" stroke="#191970" points="94.5001,-85.6426 91,-75.6427 87.5001,-85.6427 94.5001,-85.6426"/>
</g>
</g>
</svg>
        <g id="navigator" transform="translate(0 0)" fill="#404254">
                <rect fill="#f2f5e9" fill-opacity="0.5" stroke="#606060" stroke-width=".5" x="0" y="0" width="60" height="60"/>
                <use id="zoomplus" xlink:href="#zoomPlus" x="17" y="9" onmousedown="handleZoom(evt,'in')"/>
                <use id="zoomminus" xlink:href="#zoomMin" x="42" y="9" onmousedown="handleZoom(evt,'out')"/>
                <use id="reset" xlink:href="#resetDef" x="30" y="36" onmousedown="handleReset()"/>
                <g id="arrowUp" xlink:href="#dirArrow" transform="translate(30 24)" onmousedown="handlePan(0,-1)">
                  <use xlink:href="#rim" fill="#404040">
                        <set attributeName="fill" to="#808080" begin="arrowUp.mouseover" end="arrowUp.mouseout"/>
                  </use>
                  <path fill="none" stroke="white" stroke-width="1.5" d="M0,-3.0v7 M-2.5,-0.5L0,-3.0L2.5,-0.5"/>
                </g>
                <g id="arrowRight" xlink:href="#dirArrow" transform="rotate(90) translate(36 -43)" onmousedown="handlePan(1,0)">
                  <use xlink:href="#rim" fill="#404040">
                        <set attributeName="fill" to="#808080" begin="arrowRight.mouseover" end="arrowRight.mouseout"/>
                  </use>
                  <path fill="none" stroke="white" stroke-width="1.5" d="M0,-3.0v7 M-2.5,-0.5L0,-3.0L2.5,-0.5"/>
                </g>
                <g id="arrowDown" xlink:href="#dirArrow" transform="rotate(180) translate(-30 -48)" onmousedown="handlePan(0,1)">
                  <use xlink:href="#rim" fill="#404040">
                        <set attributeName="fill" to="#808080" begin="arrowDown.mouseover" end="arrowDown.mouseout"/>
                  </use>
                  <path fill="none" stroke="white" stroke-width="1.5" d="M0,-3.0v7 M-2.5,-0.5L0,-3.0L2.5,-0.5"/>
                </g>
                <g id="arrowLeft" xlink:href="#dirArrow" transform="rotate(270) translate(-36 17)" onmousedown="handlePan(-1,0)">
                  <use xlink:href="#rim" fill="#404040">
                        <set attributeName="fill" to="#808080" begin="arrowLeft.mouseover" end="arrowLeft.mouseout"/>
                  </use>
                  <path fill="none" stroke="white" stroke-width="1.5" d="M0,-3.0v7 M-2.5,-0.5L0,-3.0L2.5,-0.5"/>
                </g>
        </g>
        <svg viewBox="0 0 15 15" width="100%" height="30px" preserveAspectRatio="xMaxYMin meet">
         <g id="arrow_out" transform="scale(0.3 0.3)">
          <a xlink:href="_text_box_8cpp__incl_org.svg" target="_base">
           <rect id="button" ry="5" rx="5" y="6" x="6" height="38" width="38"
                fill="#f2f5e9" fill-opacity="0.5" stroke="#606060" stroke-width="1.0"/>
           <path id="arrow"
             d="M 11.500037,31.436501 C 11.940474,20.09759 22.043105,11.32322 32.158766,21.979434 L 37.068811,17.246167 C 37.068811,17.246167 37.088388,32 37.088388,32 L 22.160133,31.978069 C 22.160133,31.978069 26.997745,27.140456 26.997745,27.140456 C 18.528582,18.264221 13.291696,25.230495 11.500037,31.436501 z"
             style="fill:#404040;"/>
          </a>
         </g>
        </svg>
</svg>
