<?xml version="1.0" encoding="UTF-8" standalone="no"?>
<!DOCTYPE svg PUBLIC "-//W3C//DTD SVG 1.1//EN"
 "http://www.w3.org/Graphics/SVG/1.1/DTD/svg11.dtd">
<!-- Generated by graphviz version 2.40.1 (20161225.0304)
 -->
<!-- Title: src/Utilities/Utilities.hpp Pages: 1 -->
<svg width="594pt" height="263pt"
 viewBox="0.00 0.00 593.50 263.00" xmlns="http://www.w3.org/2000/svg" xmlns:xlink="http://www.w3.org/1999/xlink">
<g id="graph0" class="graph" transform="scale(1 1) rotate(0) translate(4 259)">
<title>src/Utilities/Utilities.hpp</title>
<polygon fill="#ffffff" stroke="transparent" points="-4,4 -4,-259 589.5,-259 589.5,4 -4,4"/>
<!-- Node0 -->
<g id="node1" class="node">
<title>Node0</title>
<polygon fill="#bfbfbf" stroke="#000000" points="144,-235.5 144,-254.5 265,-254.5 265,-235.5 144,-235.5"/>
<text text-anchor="middle" x="204.5" y="-242.5" font-family="Helvetica,sans-Serif" font-size="10.00" fill="#000000">src/Utilities/Utilities.hpp</text>
</g>
<!-- Node1 -->
<g id="node2" class="node">
<title>Node1</title>
<g id="a_node2"><a xlink:href="_collection_pool_8hpp.html" target="_top" xlink:title="../Collection/Collection\lPool.hpp">
<polygon fill="#ffffff" stroke="#000000" points="83.5,-168.5 83.5,-198.5 199.5,-198.5 199.5,-168.5 83.5,-168.5"/>
<text text-anchor="start" x="91.5" y="-186.5" font-family="Helvetica,sans-Serif" font-size="10.00" fill="#000000">../Collection/Collection</text>
<text text-anchor="middle" x="141.5" y="-175.5" font-family="Helvetica,sans-Serif" font-size="10.00" fill="#000000">Pool.hpp</text>
</a>
</g>
</g>
<!-- Node0&#45;&gt;Node1 -->
<g id="edge1" class="edge">
<title>Node0&#45;&gt;Node1</title>
<path fill="none" stroke="#191970" d="M194.6563,-235.3906C186.5247,-227.4527 174.6614,-215.8718 164.2041,-205.6635"/>
<polygon fill="#191970" stroke="#191970" points="166.5122,-203.0255 156.9115,-198.5446 161.6224,-208.0345 166.5122,-203.0255"/>
</g>
<!-- Node8 -->
<g id="node9" class="node">
<title>Node8</title>
<g id="a_node9"><a xlink:href="_image_8hpp.html" target="_top" xlink:title="../Image/Image.hpp">
<polygon fill="#ffffff" stroke="#000000" points="235,-174 235,-193 336,-193 336,-174 235,-174"/>
<text text-anchor="middle" x="285.5" y="-181" font-family="Helvetica,sans-Serif" font-size="10.00" fill="#000000">../Image/Image.hpp</text>
</a>
</g>
</g>
<!-- Node0&#45;&gt;Node8 -->
<g id="edge9" class="edge">
<title>Node0&#45;&gt;Node8</title>
<path fill="none" stroke="#191970" d="M217.1563,-235.3906C229.8768,-225.7324 249.7004,-210.6812 264.7284,-199.271"/>
<polygon fill="#191970" stroke="#191970" points="267.0846,-201.8766 272.9326,-193.0419 262.8516,-196.3015 267.0846,-201.8766"/>
</g>
<!-- Node2 -->
<g id="node3" class="node">
<title>Node2</title>
<g id="a_node3"><a xlink:href="_collection_8hpp.html" target="_top" xlink:title="Collection.hpp">
<polygon fill="#ffffff" stroke="#000000" points="0,-112.5 0,-131.5 79,-131.5 79,-112.5 0,-112.5"/>
<text text-anchor="middle" x="39.5" y="-119.5" font-family="Helvetica,sans-Serif" font-size="10.00" fill="#000000">Collection.hpp</text>
</a>
</g>
</g>
<!-- Node1&#45;&gt;Node2 -->
<g id="edge2" class="edge">
<title>Node1&#45;&gt;Node2</title>
<path fill="none" stroke="#191970" d="M116.548,-168.4554C100.5741,-158.8241 79.9398,-146.3828 64.0457,-136.7996"/>
<polygon fill="#191970" stroke="#191970" points="65.6774,-133.6965 55.3064,-131.5303 62.063,-139.6912 65.6774,-133.6965"/>
</g>
<!-- Node3 -->
<g id="node4" class="node">
<title>Node3</title>
<g id="a_node4"><a xlink:href="_collection_iterator_8hpp.html" target="_top" xlink:title="CollectionIterator.hpp">
<polygon fill="#ffffff" stroke="#000000" points="52.5,-56.5 52.5,-75.5 162.5,-75.5 162.5,-56.5 52.5,-56.5"/>
<text text-anchor="middle" x="107.5" y="-63.5" font-family="Helvetica,sans-Serif" font-size="10.00" fill="#000000">CollectionIterator.hpp</text>
</a>
</g>
</g>
<!-- Node1&#45;&gt;Node3 -->
<g id="edge7" class="edge">
<title>Node1&#45;&gt;Node3</title>
<path fill="none" stroke="#191970" d="M137.0243,-168.18C134.0359,-157.9396 130.0227,-144.1652 126.5,-132 121.9916,-116.4308 116.9138,-98.7865 113.1426,-85.6608"/>
<polygon fill="#191970" stroke="#191970" points="116.4474,-84.4882 110.3231,-75.8428 109.7193,-86.4204 116.4474,-84.4882"/>
</g>
<!-- Node7 -->
<g id="node8" class="node">
<title>Node7</title>
<polygon fill="#ffffff" stroke="#bfbfbf" points="135.5,-112.5 135.5,-131.5 179.5,-131.5 179.5,-112.5 135.5,-112.5"/>
<text text-anchor="middle" x="157.5" y="-119.5" font-family="Helvetica,sans-Serif" font-size="10.00" fill="#000000">vector</text>
</g>
<!-- Node1&#45;&gt;Node7 -->
<g id="edge8" class="edge">
<title>Node1&#45;&gt;Node7</title>
<path fill="none" stroke="#191970" d="M145.4551,-168.2977C147.5372,-160.2945 150.1155,-150.3843 152.3517,-141.7889"/>
<polygon fill="#191970" stroke="#191970" points="155.8076,-142.406 154.9382,-131.8469 149.0331,-140.6435 155.8076,-142.406"/>
</g>
<!-- Node2&#45;&gt;Node3 -->
<g id="edge3" class="edge">
<title>Node2&#45;&gt;Node3</title>
<path fill="none" stroke="#191970" d="M51.3447,-112.2455C61.388,-103.9746 75.9995,-91.9416 87.8004,-82.2232"/>
<polygon fill="#191970" stroke="#191970" points="90.2967,-84.7015 95.791,-75.6427 85.8467,-79.298 90.2967,-84.7015"/>
</g>
<!-- Node4 -->
<g id="node5" class="node">
<title>Node4</title>
<polygon fill="#ffffff" stroke="#bfbfbf" points="11.5,-.5 11.5,-19.5 73.5,-19.5 73.5,-.5 11.5,-.5"/>
<text text-anchor="middle" x="42.5" y="-7.5" font-family="Helvetica,sans-Serif" font-size="10.00" fill="#000000">type_traits</text>
</g>
<!-- Node3&#45;&gt;Node4 -->
<g id="edge4" class="edge">
<title>Node3&#45;&gt;Node4</title>
<path fill="none" stroke="#191970" d="M96.1779,-56.2455C86.5777,-47.9746 72.6108,-35.9416 61.3305,-26.2232"/>
<polygon fill="#191970" stroke="#191970" points="63.553,-23.5182 53.6924,-19.6427 58.984,-28.8214 63.553,-23.5182"/>
</g>
<!-- Node5 -->
<g id="node6" class="node">
<title>Node5</title>
<polygon fill="#ffffff" stroke="#bfbfbf" points="92,-.5 92,-19.5 139,-19.5 139,-.5 92,-.5"/>
<text text-anchor="middle" x="115.5" y="-7.5" font-family="Helvetica,sans-Serif" font-size="10.00" fill="#000000">iterator</text>
</g>
<!-- Node3&#45;&gt;Node5 -->
<g id="edge5" class="edge">
<title>Node3&#45;&gt;Node5</title>
<path fill="none" stroke="#191970" d="M108.8935,-56.2455C109.9374,-48.9382 111.4008,-38.6944 112.6851,-29.7046"/>
<polygon fill="#191970" stroke="#191970" points="116.173,-30.0372 114.1225,-19.6427 109.2434,-29.0472 116.173,-30.0372"/>
</g>
<!-- Node6 -->
<g id="node7" class="node">
<title>Node6</title>
<polygon fill="#ffffff" stroke="#bfbfbf" points="173.5,-.5 173.5,-19.5 225.5,-19.5 225.5,-.5 173.5,-.5"/>
<text text-anchor="middle" x="199.5" y="-7.5" font-family="Helvetica,sans-Serif" font-size="10.00" fill="#000000">memory</text>
</g>
<!-- Node3&#45;&gt;Node6 -->
<g id="edge6" class="edge">
<title>Node3&#45;&gt;Node6</title>
<path fill="none" stroke="#191970" d="M123.5252,-56.2455C137.6408,-47.6534 158.4263,-35.0014 174.6899,-25.1018"/>
<polygon fill="#191970" stroke="#191970" points="176.9363,-27.8319 183.6585,-19.6427 173.2966,-21.8525 176.9363,-27.8319"/>
</g>
<!-- Node8&#45;&gt;Node6 -->
<g id="edge17" class="edge">
<title>Node8&#45;&gt;Node6</title>
<path fill="none" stroke="#191970" d="M269.6876,-173.8864C256.1158,-164.7917 237.1146,-149.8905 226.5,-132 207.3021,-99.6426 201.7242,-55.1317 200.1231,-29.7869"/>
<polygon fill="#191970" stroke="#191970" points="203.6098,-29.4232 199.6327,-19.6031 196.6179,-29.76 203.6098,-29.4232"/>
</g>
<!-- Node9 -->
<g id="node10" class="node">
<title>Node9</title>
<g id="a_node10"><a xlink:href="_tag_list_8hpp.html" target="_top" xlink:title="TagList.hpp">
<polygon fill="#ffffff" stroke="#000000" points="235.5,-112.5 235.5,-131.5 303.5,-131.5 303.5,-112.5 235.5,-112.5"/>
<text text-anchor="middle" x="269.5" y="-119.5" font-family="Helvetica,sans-Serif" font-size="10.00" fill="#000000">TagList.hpp</text>
</a>
</g>
</g>
<!-- Node8&#45;&gt;Node9 -->
<g id="edge10" class="edge">
<title>Node8&#45;&gt;Node9</title>
<path fill="none" stroke="#191970" d="M283,-173.8906C280.7588,-165.276 277.4014,-152.3708 274.5955,-141.5858"/>
<polygon fill="#191970" stroke="#191970" points="277.9404,-140.5414 272.0352,-131.7449 271.1659,-142.304 277.9404,-140.5414"/>
</g>
<!-- Node13 -->
<g id="node14" class="node">
<title>Node13</title>
<polygon fill="#ffffff" stroke="#bfbfbf" points="321.5,-112.5 321.5,-131.5 379.5,-131.5 379.5,-112.5 321.5,-112.5"/>
<text text-anchor="middle" x="350.5" y="-119.5" font-family="Helvetica,sans-Serif" font-size="10.00" fill="#000000">../CImg.h</text>
</g>
<!-- Node8&#45;&gt;Node13 -->
<g id="edge14" class="edge">
<title>Node8&#45;&gt;Node13</title>
<path fill="none" stroke="#191970" d="M295.6563,-173.8906C305.5199,-164.5581 320.7055,-150.1902 332.5987,-138.9374"/>
<polygon fill="#191970" stroke="#191970" points="335.3421,-141.1601 340.2006,-131.7449 330.5311,-136.0753 335.3421,-141.1601"/>
</g>
<!-- Node14 -->
<g id="node15" class="node">
<title>Node14</title>
<polygon fill="#ffffff" stroke="#bfbfbf" points="397.5,-112.5 397.5,-131.5 517.5,-131.5 517.5,-112.5 397.5,-112.5"/>
<text text-anchor="middle" x="457.5" y="-119.5" font-family="Helvetica,sans-Serif" font-size="10.00" fill="#000000">experimental/filesystem</text>
</g>
<!-- Node8&#45;&gt;Node14 -->
<g id="edge15" class="edge">
<title>Node8&#45;&gt;Node14</title>
<path fill="none" stroke="#191970" d="M312.375,-173.8906C341.6586,-163.42 388.669,-146.6111 421.2137,-134.9745"/>
<polygon fill="#191970" stroke="#191970" points="422.5759,-138.2045 430.8137,-131.5419 420.2191,-131.6131 422.5759,-138.2045"/>
</g>
<!-- Node15 -->
<g id="node16" class="node">
<title>Node15</title>
<polygon fill="#ffffff" stroke="#bfbfbf" points="535.5,-112.5 535.5,-131.5 585.5,-131.5 585.5,-112.5 535.5,-112.5"/>
<text text-anchor="middle" x="560.5" y="-119.5" font-family="Helvetica,sans-Serif" font-size="10.00" fill="#000000">fstream</text>
</g>
<!-- Node8&#45;&gt;Node15 -->
<g id="edge16" class="edge">
<title>Node8&#45;&gt;Node15</title>
<path fill="none" stroke="#191970" d="M335.6043,-173.9404C382.3312,-164.7677 454.1604,-150.0128 525.2795,-132.1767"/>
<polygon fill="#191970" stroke="#191970" points="526.4712,-135.4856 535.3073,-129.6398 524.7543,-128.6994 526.4712,-135.4856"/>
</g>
<!-- Node10 -->
<g id="node11" class="node">
<title>Node10</title>
<polygon fill="#ffffff" stroke="#bfbfbf" points="236,-56.5 236,-75.5 277,-75.5 277,-56.5 236,-56.5"/>
<text text-anchor="middle" x="256.5" y="-63.5" font-family="Helvetica,sans-Serif" font-size="10.00" fill="#000000">string</text>
</g>
<!-- Node9&#45;&gt;Node10 -->
<g id="edge11" class="edge">
<title>Node9&#45;&gt;Node10</title>
<path fill="none" stroke="#191970" d="M267.2356,-112.2455C265.5206,-104.8579 263.1088,-94.4689 261.0056,-85.4087"/>
<polygon fill="#191970" stroke="#191970" points="264.4092,-84.5922 258.7385,-75.6427 257.5905,-86.1751 264.4092,-84.5922"/>
</g>
<!-- Node11 -->
<g id="node12" class="node">
<title>Node11</title>
<polygon fill="#ffffff" stroke="#bfbfbf" points="295.5,-56.5 295.5,-75.5 325.5,-75.5 325.5,-56.5 295.5,-56.5"/>
<text text-anchor="middle" x="310.5" y="-63.5" font-family="Helvetica,sans-Serif" font-size="10.00" fill="#000000">set</text>
</g>
<!-- Node9&#45;&gt;Node11 -->
<g id="edge12" class="edge">
<title>Node9&#45;&gt;Node11</title>
<path fill="none" stroke="#191970" d="M276.6417,-112.2455C282.3444,-104.4564 290.49,-93.3308 297.3625,-83.9439"/>
<polygon fill="#191970" stroke="#191970" points="300.3568,-85.7789 303.4402,-75.6427 294.7087,-81.6437 300.3568,-85.7789"/>
</g>
<!-- Node12 -->
<g id="node13" class="node">
<title>Node12</title>
<polygon fill="#ffffff" stroke="#bfbfbf" points="343.5,-56.5 343.5,-75.5 389.5,-75.5 389.5,-56.5 343.5,-56.5"/>
<text text-anchor="middle" x="366.5" y="-63.5" font-family="Helvetica,sans-Serif" font-size="10.00" fill="#000000">cctype</text>
</g>
<!-- Node9&#45;&gt;Node12 -->
<g id="edge13" class="edge">
<title>Node9&#45;&gt;Node12</title>
<path fill="none" stroke="#191970" d="M286.3961,-112.2455C301.418,-103.5731 323.6043,-90.7645 340.821,-80.825"/>
<polygon fill="#191970" stroke="#191970" points="342.8871,-83.6737 349.7975,-75.6427 339.3872,-77.6114 342.8871,-83.6737"/>
</g>
</g>
</svg>
