<?xml version="1.0" encoding="UTF-8" standalone="no"?>
<!DOCTYPE svg PUBLIC "-//W3C//DTD SVG 1.1//EN"
 "http://www.w3.org/Graphics/SVG/1.1/DTD/svg11.dtd">
<!-- Generated by graphviz version 2.40.1 (20161225.0304)
 -->
<!-- Title: UTF8toISO8859_1 Pages: 1 -->
<svg width="459pt" height="180pt"
 viewBox="0.00 0.00 459.00 180.00" xmlns="http://www.w3.org/2000/svg" xmlns:xlink="http://www.w3.org/1999/xlink">
<g id="graph0" class="graph" transform="scale(1 1) rotate(0) translate(4 176)">
<title>UTF8toISO8859_1</title>
<polygon fill="#ffffff" stroke="transparent" points="-4,4 -4,-176 455,-176 455,4 -4,4"/>
<!-- Node23 -->
<g id="node1" class="node">
<title>Node23</title>
<polygon fill="#bfbfbf" stroke="#000000" points="0,-76.5 0,-95.5 98,-95.5 98,-76.5 0,-76.5"/>
<text text-anchor="middle" x="49" y="-83.5" font-family="Helvetica,sans-Serif" font-size="10.00" fill="#000000">UTF8toISO8859_1</text>
</g>
<!-- Node24 -->
<g id="node2" class="node">
<title>Node24</title>
<g id="a_node2"><a xlink:href="class_tag_viewer_widget.html#a4604a3d47ac1b722fdfe0e1ad6823bc9" target="_top" xlink:title="TagViewerWidget::actualRender">
<polygon fill="#ffffff" stroke="#000000" points="134,-152.5 134,-171.5 292,-171.5 292,-152.5 134,-152.5"/>
<text text-anchor="middle" x="213" y="-159.5" font-family="Helvetica,sans-Serif" font-size="10.00" fill="#000000">TagViewerWidget::actualRender</text>
</a>
</g>
</g>
<!-- Node23&#45;&gt;Node24 -->
<g id="edge1" class="edge">
<title>Node23&#45;&gt;Node24</title>
<path fill="none" stroke="#191970" d="M68.5951,-102.105C85.1053,-114.9187 109.8372,-132.4012 134,-143 142.6552,-146.7965 152.1912,-149.9073 161.5541,-152.4311"/>
<polygon fill="#191970" stroke="#191970" points="70.3329,-99.0159 60.3245,-95.5401 65.9809,-104.4986 70.3329,-99.0159"/>
</g>
<!-- Node25 -->
<g id="node3" class="node">
<title>Node25</title>
<g id="a_node3"><a xlink:href="class_tag_selector.html#add853733030378d7fb475343f40d2e33" target="_top" xlink:title="TagSelector::actualRender">
<polygon fill="#ffffff" stroke="#000000" points="146.5,-114.5 146.5,-133.5 279.5,-133.5 279.5,-114.5 146.5,-114.5"/>
<text text-anchor="middle" x="213" y="-121.5" font-family="Helvetica,sans-Serif" font-size="10.00" fill="#000000">TagSelector::actualRender</text>
</a>
</g>
</g>
<!-- Node23&#45;&gt;Node25 -->
<g id="edge2" class="edge">
<title>Node23&#45;&gt;Node25</title>
<path fill="none" stroke="#191970" d="M100.341,-97.8961C123.3929,-103.2374 150.2211,-109.4537 171.9135,-114.4799"/>
<polygon fill="#191970" stroke="#191970" points="100.9161,-94.4367 90.3841,-95.589 99.336,-101.256 100.9161,-94.4367"/>
</g>
<!-- Node26 -->
<g id="node4" class="node">
<title>Node26</title>
<g id="a_node4"><a xlink:href="class_tag_setter_widget.html#a8e33c61e9806b27241df2e3c69ed9584" target="_top" xlink:title="TagSetterWidget::actualRender">
<polygon fill="#ffffff" stroke="#000000" points="136,-76.5 136,-95.5 290,-95.5 290,-76.5 136,-76.5"/>
<text text-anchor="middle" x="213" y="-83.5" font-family="Helvetica,sans-Serif" font-size="10.00" fill="#000000">TagSetterWidget::actualRender</text>
</a>
</g>
</g>
<!-- Node23&#45;&gt;Node26 -->
<g id="edge3" class="edge">
<title>Node23&#45;&gt;Node26</title>
<path fill="none" stroke="#191970" d="M108.4692,-86C117.3872,-86 126.6906,-86 135.9109,-86"/>
<polygon fill="#191970" stroke="#191970" points="108.2054,-82.5001 98.2054,-86 108.2054,-89.5001 108.2054,-82.5001"/>
</g>
<!-- Node27 -->
<g id="node5" class="node">
<title>Node27</title>
<g id="a_node5"><a xlink:href="class_button_widget.html#a982bd9ccd6e7b8cb632efafd76309125" target="_top" xlink:title="ButtonWidget::actualRender">
<polygon fill="#ffffff" stroke="#000000" points="143,-38.5 143,-57.5 283,-57.5 283,-38.5 143,-38.5"/>
<text text-anchor="middle" x="213" y="-45.5" font-family="Helvetica,sans-Serif" font-size="10.00" fill="#000000">ButtonWidget::actualRender</text>
</a>
</g>
</g>
<!-- Node23&#45;&gt;Node27 -->
<g id="edge4" class="edge">
<title>Node23&#45;&gt;Node27</title>
<path fill="none" stroke="#191970" d="M100.341,-74.1039C123.3929,-68.7626 150.2211,-62.5463 171.9135,-57.5201"/>
<polygon fill="#191970" stroke="#191970" points="99.336,-70.744 90.3841,-76.411 100.9161,-77.5633 99.336,-70.744"/>
</g>
<!-- Node29 -->
<g id="node7" class="node">
<title>Node29</title>
<g id="a_node7"><a xlink:href="class_button_widget.html#ac3002e3094a1b6c4e8e55da896f397c6" target="_top" xlink:title="ButtonWidget::ButtonWidget">
<polygon fill="#ffffff" stroke="#000000" points="142.5,-.5 142.5,-19.5 283.5,-19.5 283.5,-.5 142.5,-.5"/>
<text text-anchor="middle" x="213" y="-7.5" font-family="Helvetica,sans-Serif" font-size="10.00" fill="#000000">ButtonWidget::ButtonWidget</text>
</a>
</g>
</g>
<!-- Node23&#45;&gt;Node29 -->
<g id="edge6" class="edge">
<title>Node23&#45;&gt;Node29</title>
<path fill="none" stroke="#191970" d="M68.5951,-69.895C85.1053,-57.0813 109.8372,-39.5988 134,-29 142.6552,-25.2035 152.1912,-22.0927 161.5541,-19.5689"/>
<polygon fill="#191970" stroke="#191970" points="65.9809,-67.5014 60.3245,-76.4599 70.3329,-72.9841 65.9809,-67.5014"/>
</g>
<!-- Node28 -->
<g id="node6" class="node">
<title>Node28</title>
<g id="a_node6"><a xlink:href="class_button_widget.html#a5239cdc7bf6ea60722aa0620611be239" target="_top" xlink:title="ButtonWidget::isColored">
<polygon fill="#ffffff" stroke="#000000" points="328,-38.5 328,-57.5 451,-57.5 451,-38.5 328,-38.5"/>
<text text-anchor="middle" x="389.5" y="-45.5" font-family="Helvetica,sans-Serif" font-size="10.00" fill="#000000">ButtonWidget::isColored</text>
</a>
</g>
</g>
<!-- Node27&#45;&gt;Node28 -->
<g id="edge5" class="edge">
<title>Node27&#45;&gt;Node28</title>
<path fill="none" stroke="#191970" d="M293.1751,-48C304.82,-48 316.654,-48 327.857,-48"/>
<polygon fill="#191970" stroke="#191970" points="293.011,-44.5001 283.011,-48 293.0109,-51.5001 293.011,-44.5001"/>
</g>
</g>
</svg>
