<?xml version="1.0" encoding="UTF-8" standalone="no"?>
<!DOCTYPE svg PUBLIC "-//W3C//DTD SVG 1.1//EN"
 "http://www.w3.org/Graphics/SVG/1.1/DTD/svg11.dtd">
<!-- Generated by graphviz version 2.40.1 (20161225.0304)
 -->
<!-- Title: createPoolFromSave Pages: 1 -->
<svg width="285pt" height="66pt"
 viewBox="0.00 0.00 285.00 66.00" xmlns="http://www.w3.org/2000/svg" xmlns:xlink="http://www.w3.org/1999/xlink">
<g id="graph0" class="graph" transform="scale(1 1) rotate(0) translate(4 62)">
<title>createPoolFromSave</title>
<polygon fill="#ffffff" stroke="transparent" points="-4,4 -4,-62 281,-62 281,4 -4,4"/>
<!-- Node5 -->
<g id="node1" class="node">
<title>Node5</title>
<polygon fill="#bfbfbf" stroke="#000000" points="0,-19.5 0,-38.5 108,-38.5 108,-19.5 0,-19.5"/>
<text text-anchor="middle" x="54" y="-26.5" font-family="Helvetica,sans-Serif" font-size="10.00" fill="#000000">createPoolFromSave</text>
</g>
<!-- Node6 -->
<g id="node2" class="node">
<title>Node6</title>
<g id="a_node2"><a xlink:href="class_image.html#ad6c6fc59aaffc9c101047e8ef32abc9d" target="_top" xlink:title="Image::loadImage">
<polygon fill="#ffffff" stroke="#000000" points="163,-38.5 163,-57.5 258,-57.5 258,-38.5 163,-38.5"/>
<text text-anchor="middle" x="210.5" y="-45.5" font-family="Helvetica,sans-Serif" font-size="10.00" fill="#000000">Image::loadImage</text>
</a>
</g>
</g>
<!-- Node5&#45;&gt;Node6 -->
<g id="edge1" class="edge">
<title>Node5&#45;&gt;Node6</title>
<path fill="none" stroke="#191970" d="M108.2969,-35.592C122.576,-37.3255 138.0328,-39.2021 152.4982,-40.9583"/>
<polygon fill="#191970" stroke="#191970" points="152.4761,-44.4812 162.8251,-42.212 153.3198,-37.5322 152.4761,-44.4812"/>
</g>
<!-- Node7 -->
<g id="node3" class="node">
<title>Node7</title>
<g id="a_node3"><a xlink:href="class_collection_pool.html#a67fc04c58d9da40ef52e4e58aa386557" target="_top" xlink:title="CollectionPool::push_back">
<polygon fill="#ffffff" stroke="#000000" points="144,-.5 144,-19.5 277,-19.5 277,-.5 144,-.5"/>
<text text-anchor="middle" x="210.5" y="-7.5" font-family="Helvetica,sans-Serif" font-size="10.00" fill="#000000">CollectionPool::push_back</text>
</a>
</g>
</g>
<!-- Node5&#45;&gt;Node7 -->
<g id="edge2" class="edge">
<title>Node5&#45;&gt;Node7</title>
<path fill="none" stroke="#191970" d="M108.2969,-22.408C116.5458,-21.4066 125.1878,-20.3574 133.8047,-19.3113"/>
<polygon fill="#191970" stroke="#191970" points="134.3782,-22.7674 143.8835,-18.0876 133.5345,-15.8184 134.3782,-22.7674"/>
</g>
</g>
</svg>
