<?xml version="1.0" encoding="UTF-8" standalone="no"?>
<!DOCTYPE svg PUBLIC "-//W3C//DTD SVG 1.1//EN"
 "http://www.w3.org/Graphics/SVG/1.1/DTD/svg11.dtd">
<!-- Generated by graphviz version 2.40.1 (20161225.0304)
 -->
<!-- Title: src/Utilities/Utilities.hpp Pages: 1 -->
<svg width="1080pt" height="95pt"
 viewBox="0.00 0.00 1079.50 95.00" xmlns="http://www.w3.org/2000/svg" xmlns:xlink="http://www.w3.org/1999/xlink">
<g id="graph0" class="graph" transform="scale(1 1) rotate(0) translate(4 91)">
<title>src/Utilities/Utilities.hpp</title>
<polygon fill="#ffffff" stroke="transparent" points="-4,4 -4,-91 1075.5,-91 1075.5,4 -4,4"/>
<!-- Node16 -->
<g id="node1" class="node">
<title>Node16</title>
<polygon fill="#bfbfbf" stroke="#000000" points="475.5,-67.5 475.5,-86.5 596.5,-86.5 596.5,-67.5 475.5,-67.5"/>
<text text-anchor="middle" x="536" y="-74.5" font-family="Helvetica,sans-Serif" font-size="10.00" fill="#000000">src/Utilities/Utilities.hpp</text>
</g>
<!-- Node17 -->
<g id="node2" class="node">
<title>Node17</title>
<g id="a_node2"><a xlink:href="_application_8cpp.html" target="_top" xlink:title="src/Application.cpp">
<polygon fill="#ffffff" stroke="#000000" points="0,-6 0,-25 100,-25 100,-6 0,-6"/>
<text text-anchor="middle" x="50" y="-13" font-family="Helvetica,sans-Serif" font-size="10.00" fill="#000000">src/Application.cpp</text>
</a>
</g>
</g>
<!-- Node16&#45;&gt;Node17 -->
<g id="edge1" class="edge">
<title>Node16&#45;&gt;Node17</title>
<path fill="none" stroke="#191970" d="M465.4225,-72.6443C380.3682,-66.6492 233.3681,-53.9025 109,-31 100.4593,-29.4272 91.3366,-27.2717 82.881,-25.0681"/>
<polygon fill="#191970" stroke="#191970" points="465.2639,-76.1416 475.4822,-73.3421 465.7484,-69.1584 465.2639,-76.1416"/>
</g>
<!-- Node18 -->
<g id="node3" class="node">
<title>Node18</title>
<g id="a_node3"><a xlink:href="_button_widget_8cpp.html" target="_top" xlink:title="src/Interface/ButtonWidget.cpp">
<polygon fill="#ffffff" stroke="#000000" points="118,-6 118,-25 270,-25 270,-6 118,-6"/>
<text text-anchor="middle" x="194" y="-13" font-family="Helvetica,sans-Serif" font-size="10.00" fill="#000000">src/Interface/ButtonWidget.cpp</text>
</a>
</g>
</g>
<!-- Node16&#45;&gt;Node18 -->
<g id="edge2" class="edge">
<title>Node16&#45;&gt;Node18</title>
<path fill="none" stroke="#191970" d="M472.2572,-65.6503C420.2462,-56.3752 344.862,-42.8993 279,-31 268.3719,-29.0798 256.9984,-27.0137 246.1396,-25.0355"/>
<polygon fill="#191970" stroke="#191970" points="471.8789,-69.138 482.338,-67.4476 473.1076,-62.2466 471.8789,-69.138"/>
</g>
<!-- Node19 -->
<g id="node4" class="node">
<title>Node19</title>
<g id="a_node4"><a xlink:href="_tag_selector_8cpp.html" target="_top" xlink:title="src/Interface/TagSelector.cpp">
<polygon fill="#ffffff" stroke="#000000" points="288,-6 288,-25 434,-25 434,-6 288,-6"/>
<text text-anchor="middle" x="361" y="-13" font-family="Helvetica,sans-Serif" font-size="10.00" fill="#000000">src/Interface/TagSelector.cpp</text>
</a>
</g>
</g>
<!-- Node16&#45;&gt;Node19 -->
<g id="edge3" class="edge">
<title>Node16&#45;&gt;Node19</title>
<path fill="none" stroke="#191970" d="M498.8669,-63.9504C465.6915,-52.2916 417.8684,-35.4852 388.1517,-25.0419"/>
<polygon fill="#191970" stroke="#191970" points="498.0614,-67.3771 508.6563,-67.3906 500.3823,-60.773 498.0614,-67.3771"/>
</g>
<!-- Node20 -->
<g id="node5" class="node">
<title>Node20</title>
<g id="a_node5"><a xlink:href="_tag_setter_widget_8cpp.html" target="_top" xlink:title="src/Interface/TagSetterWidget.cpp">
<polygon fill="#ffffff" stroke="#000000" points="452.5,-6 452.5,-25 619.5,-25 619.5,-6 452.5,-6"/>
<text text-anchor="middle" x="536" y="-13" font-family="Helvetica,sans-Serif" font-size="10.00" fill="#000000">src/Interface/TagSetterWidget.cpp</text>
</a>
</g>
</g>
<!-- Node16&#45;&gt;Node20 -->
<g id="edge4" class="edge">
<title>Node16&#45;&gt;Node20</title>
<path fill="none" stroke="#191970" d="M536,-57.2462C536,-46.5519 536,-33.814 536,-25.2449"/>
<polygon fill="#191970" stroke="#191970" points="532.5001,-57.3906 536,-67.3906 539.5001,-57.3907 532.5001,-57.3906"/>
</g>
<!-- Node21 -->
<g id="node6" class="node">
<title>Node21</title>
<g id="a_node6"><a xlink:href="_tag_viewer_widget_8cpp.html" target="_top" xlink:title="src/Interface/TagViewerWidget.cpp">
<polygon fill="#ffffff" stroke="#000000" points="638,-6 638,-25 808,-25 808,-6 638,-6"/>
<text text-anchor="middle" x="723" y="-13" font-family="Helvetica,sans-Serif" font-size="10.00" fill="#000000">src/Interface/TagViewerWidget.cpp</text>
</a>
</g>
</g>
<!-- Node16&#45;&gt;Node21 -->
<g id="edge5" class="edge">
<title>Node16&#45;&gt;Node21</title>
<path fill="none" stroke="#191970" d="M574.766,-64.2507C610.2472,-52.5818 661.9583,-35.5752 693.9864,-25.0419"/>
<polygon fill="#191970" stroke="#191970" points="573.6247,-60.9416 565.2188,-67.3906 575.8117,-67.5912 573.6247,-60.9416"/>
</g>
<!-- Node22 -->
<g id="node7" class="node">
<title>Node22</title>
<g id="a_node7"><a xlink:href="_text_box_8cpp.html" target="_top" xlink:title="src/Utilities/TextBox\l/TextBox.cpp">
<polygon fill="#ffffff" stroke="#000000" points="826,-.5 826,-30.5 932,-30.5 932,-.5 826,-.5"/>
<text text-anchor="start" x="834" y="-18.5" font-family="Helvetica,sans-Serif" font-size="10.00" fill="#000000">src/Utilities/TextBox</text>
<text text-anchor="middle" x="879" y="-7.5" font-family="Helvetica,sans-Serif" font-size="10.00" fill="#000000">/TextBox.cpp</text>
</a>
</g>
</g>
<!-- Node16&#45;&gt;Node22 -->
<g id="edge6" class="edge">
<title>Node16&#45;&gt;Node22</title>
<path fill="none" stroke="#191970" d="M606.5504,-67.1035C663.5604,-58.7099 745.7537,-45.7111 817,-31 819.9338,-30.3942 822.9384,-29.7438 825.9663,-29.0649"/>
<polygon fill="#191970" stroke="#191970" points="605.9496,-63.6541 596.5616,-68.565 606.963,-70.5803 605.9496,-63.6541"/>
</g>
<!-- Node23 -->
<g id="node8" class="node">
<title>Node23</title>
<g id="a_node8"><a xlink:href="_utilities_8cpp.html" target="_top" xlink:title="src/Utilities/Utilities.cpp">
<polygon fill="#ffffff" stroke="#000000" points="950.5,-6 950.5,-25 1071.5,-25 1071.5,-6 950.5,-6"/>
<text text-anchor="middle" x="1011" y="-13" font-family="Helvetica,sans-Serif" font-size="10.00" fill="#000000">src/Utilities/Utilities.cpp</text>
</a>
</g>
</g>
<!-- Node16&#45;&gt;Node23 -->
<g id="edge7" class="edge">
<title>Node16&#45;&gt;Node23</title>
<path fill="none" stroke="#191970" d="M606.7495,-71.2285C687.8283,-64.0905 824.5334,-50.4536 941,-31 950.8216,-29.3595 961.3407,-27.2306 971.1621,-25.0788"/>
<polygon fill="#191970" stroke="#191970" points="606.3156,-67.7529 596.6575,-72.1086 606.9238,-74.7265 606.3156,-67.7529"/>
</g>
</g>
</svg>
