<?xml version="1.0" encoding="UTF-8" standalone="no"?>
<!DOCTYPE svg PUBLIC "-//W3C//DTD SVG 1.1//EN"
 "http://www.w3.org/Graphics/SVG/1.1/DTD/svg11.dtd">
<!-- Generated by graphviz version 2.40.1 (20161225.0304)
 -->
<!-- Title: createPoolFromSave Pages: 1 -->
<svg width="464pt" height="66pt"
 viewBox="0.00 0.00 464.00 66.00" xmlns="http://www.w3.org/2000/svg" xmlns:xlink="http://www.w3.org/1999/xlink">
<g id="graph0" class="graph" transform="scale(1 1) rotate(0) translate(4 62)">
<title>createPoolFromSave</title>
<polygon fill="#ffffff" stroke="transparent" points="-4,4 -4,-62 460,-62 460,4 -4,4"/>
<!-- Node8 -->
<g id="node1" class="node">
<title>Node8</title>
<polygon fill="#bfbfbf" stroke="#000000" points="0,-19.5 0,-38.5 108,-38.5 108,-19.5 0,-19.5"/>
<text text-anchor="middle" x="54" y="-26.5" font-family="Helvetica,sans-Serif" font-size="10.00" fill="#000000">createPoolFromSave</text>
</g>
<!-- Node9 -->
<g id="node2" class="node">
<title>Node9</title>
<g id="a_node2"><a xlink:href="_utilities_8cpp.html#a46270f4fab8fe8d4f01b9c7cb8fdb75c" target="_top" xlink:title="createPoolFromDirectory">
<polygon fill="#ffffff" stroke="#000000" points="157,-38.5 157,-57.5 282,-57.5 282,-38.5 157,-38.5"/>
<text text-anchor="middle" x="219.5" y="-45.5" font-family="Helvetica,sans-Serif" font-size="10.00" fill="#000000">createPoolFromDirectory</text>
</a>
</g>
</g>
<!-- Node8&#45;&gt;Node9 -->
<g id="edge1" class="edge">
<title>Node8&#45;&gt;Node9</title>
<path fill="none" stroke="#191970" d="M118.2145,-36.3721C130.9075,-37.8293 144.2139,-39.3569 156.8541,-40.808"/>
<polygon fill="#191970" stroke="#191970" points="118.5249,-32.8848 108.1909,-35.2213 117.7264,-39.8391 118.5249,-32.8848"/>
</g>
<!-- Node10 -->
<g id="node3" class="node">
<title>Node10</title>
<g id="a_node3"><a xlink:href="class_application.html#a8f9f948d5439efe526f3219d85b29d7f" target="_top" xlink:title="Application::savePossibleTags">
<polygon fill="#ffffff" stroke="#000000" points="144,-.5 144,-19.5 295,-19.5 295,-.5 144,-.5"/>
<text text-anchor="middle" x="219.5" y="-7.5" font-family="Helvetica,sans-Serif" font-size="10.00" fill="#000000">Application::savePossibleTags</text>
</a>
</g>
</g>
<!-- Node8&#45;&gt;Node10 -->
<g id="edge2" class="edge">
<title>Node8&#45;&gt;Node10</title>
<path fill="none" stroke="#191970" d="M118.2648,-21.6222C126.6525,-20.6592 135.3072,-19.6656 143.8598,-18.6838"/>
<polygon fill="#191970" stroke="#191970" points="117.7264,-18.1609 108.1909,-22.7787 118.5249,-25.1152 117.7264,-18.1609"/>
</g>
<!-- Node11 -->
<g id="node4" class="node">
<title>Node11</title>
<g id="a_node4"><a xlink:href="class_application.html#a748bca84fefb9c12661cfaa2f623748d" target="_top" xlink:title="Application::~Application">
<polygon fill="#ffffff" stroke="#000000" points="331,-.5 331,-19.5 456,-19.5 456,-.5 331,-.5"/>
<text text-anchor="middle" x="393.5" y="-7.5" font-family="Helvetica,sans-Serif" font-size="10.00" fill="#000000">Application::~Application</text>
</a>
</g>
</g>
<!-- Node10&#45;&gt;Node11 -->
<g id="edge3" class="edge">
<title>Node10&#45;&gt;Node11</title>
<path fill="none" stroke="#191970" d="M305.1685,-10C313.8039,-10 322.4568,-10 330.7867,-10"/>
<polygon fill="#191970" stroke="#191970" points="305.0598,-6.5001 295.0598,-10 305.0598,-13.5001 305.0598,-6.5001"/>
</g>
</g>
</svg>
