<?xml version="1.0" encoding="UTF-8" standalone="no"?>
<!DOCTYPE svg PUBLIC "-//W3C//DTD SVG 1.1//EN"
 "http://www.w3.org/Graphics/SVG/1.1/DTD/svg11.dtd">
<!-- Generated by graphviz version 2.40.1 (20161225.0304)
 -->
<!-- Title: src/Utilities/Utilities.hpp Pages: 1 -->
<!--zoomable 95 -->
<svg id="main" version="1.1" xmlns="http://www.w3.org/2000/svg" xmlns:xlink="http://www.w3.org/1999/xlink" xml:space="preserve" onload="init(evt)">
<style type="text/css"><![CDATA[
.edge:hover path { stroke: red; }
.edge:hover polygon { stroke: red; fill: red; }
]]></style>
<script type="text/javascript"><![CDATA[
var edges = document.getElementsByTagName('g');
if (edges && edges.length) {
  for (var i=0;i<edges.length;i++) {
    if (edges[i].id.substr(0,4)=='edge') {
      edges[i].setAttribute('class','edge');
    }
  }
}
]]></script>
        <defs>
                <circle id="rim" cx="0" cy="0" r="7"/>
                <circle id="rim2" cx="0" cy="0" r="3.5"/>
                <g id="zoomPlus">
                        <use xlink:href="#rim" fill="#404040">
                                <set attributeName="fill" to="#808080" begin="zoomplus.mouseover" end="zoomplus.mouseout"/>
                        </use>
                        <path d="M-4,0h8M0,-4v8" fill="none" stroke="white" stroke-width="1.5" pointer-events="none"/>
                </g>
                <g id="zoomMin">
                        <use xlink:href="#rim" fill="#404040">
                                <set attributeName="fill" to="#808080" begin="zoomminus.mouseover" end="zoomminus.mouseout"/>
                        </use>
                        <path d="M-4,0h8" fill="none" stroke="white" stroke-width="1.5" pointer-events="none"/>
                </g>
                <g id="dirArrow">
                        <path fill="none" stroke="white" stroke-width="1.5" d="M0,-3.0v7 M-2.5,-0.5L0,-3.0L2.5,-0.5"/>
                </g>
               <g id="resetDef">
                       <use xlink:href="#rim2" fill="#404040">
                               <set attributeName="fill" to="#808080" begin="reset.mouseover" end="reset.mouseout"/>
                       </use>
               </g>
        </defs>

<script type="text/javascript">
var viewWidth = 1080;
var viewHeight = 95;
var sectionId = 'dynsection-1';
</script>
<script xlink:href="svgpan.js"/>
<svg id="graph" class="graph">
<g id="viewport">
<title>src/Utilities/Utilities.hpp</title>
<polygon fill="#ffffff" stroke="transparent" points="-4,4 -4,-91 1075.5,-91 1075.5,4 -4,4"/>
<!-- Node16 -->
<g id="node1" class="node">
<title>Node16</title>
<polygon fill="#bfbfbf" stroke="#000000" points="475.5,-67.5 475.5,-86.5 596.5,-86.5 596.5,-67.5 475.5,-67.5"/>
<text text-anchor="middle" x="536" y="-74.5" font-family="Helvetica,sans-Serif" font-size="10.00" fill="#000000">src/Utilities/Utilities.hpp</text>
</g>
<!-- Node17 -->
<g id="node2" class="node">
<title>Node17</title>
<g id="a_node2"><a xlink:href="_application_8cpp.html" target="_top" xlink:title="src/Application.cpp">
<polygon fill="#ffffff" stroke="#000000" points="0,-6 0,-25 100,-25 100,-6 0,-6"/>
<text text-anchor="middle" x="50" y="-13" font-family="Helvetica,sans-Serif" font-size="10.00" fill="#000000">src/Application.cpp</text>
</a>
</g>
</g>
<!-- Node16&#45;&gt;Node17 -->
<g id="edge1" class="edge">
<title>Node16&#45;&gt;Node17</title>
<path fill="none" stroke="#191970" d="M465.4225,-72.6443C380.3682,-66.6492 233.3681,-53.9025 109,-31 100.4593,-29.4272 91.3366,-27.2717 82.881,-25.0681"/>
<polygon fill="#191970" stroke="#191970" points="465.2639,-76.1416 475.4822,-73.3421 465.7484,-69.1584 465.2639,-76.1416"/>
</g>
<!-- Node18 -->
<g id="node3" class="node">
<title>Node18</title>
<g id="a_node3"><a xlink:href="_button_widget_8cpp.html" target="_top" xlink:title="src/Interface/ButtonWidget.cpp">
<polygon fill="#ffffff" stroke="#000000" points="118,-6 118,-25 270,-25 270,-6 118,-6"/>
<text text-anchor="middle" x="194" y="-13" font-family="Helvetica,sans-Serif" font-size="10.00" fill="#000000">src/Interface/ButtonWidget.cpp</text>
</a>
</g>
</g>
<!-- Node16&#45;&gt;Node18 -->
<g id="edge2" class="edge">
<title>Node16&#45;&gt;Node18</title>
<path fill="none" stroke="#191970" d="M472.2572,-65.6503C420.2462,-56.3752 344.862,-42.8993 279,-31 268.3719,-29.0798 256.9984,-27.0137 246.1396,-25.0355"/>
<polygon fill="#191970" stroke="#191970" points="471.8789,-69.138 482.338,-67.4476 473.1076,-62.2466 471.8789,-69.138"/>
</g>
<!-- Node19 -->
<g id="node4" class="node">
<title>Node19</title>
<g id="a_node4"><a xlink:href="_tag_selector_8cpp.html" target="_top" xlink:title="src/Interface/TagSelector.cpp">
<polygon fill="#ffffff" stroke="#000000" points="288,-6 288,-25 434,-25 434,-6 288,-6"/>
<text text-anchor="middle" x="361" y="-13" font-family="Helvetica,sans-Serif" font-size="10.00" fill="#000000">src/Interface/TagSelector.cpp</text>
</a>
</g>
</g>
<!-- Node16&#45;&gt;Node19 -->
<g id="edge3" class="edge">
<title>Node16&#45;&gt;Node19</title>
<path fill="none" stroke="#191970" d="M498.8669,-63.9504C465.6915,-52.2916 417.8684,-35.4852 388.1517,-25.0419"/>
<polygon fill="#191970" stroke="#191970" points="498.0614,-67.3771 508.6563,-67.3906 500.3823,-60.773 498.0614,-67.3771"/>
</g>
<!-- Node20 -->
<g id="node5" class="node">
<title>Node20</title>
<g id="a_node5"><a xlink:href="_tag_setter_widget_8cpp.html" target="_top" xlink:title="src/Interface/TagSetterWidget.cpp">
<polygon fill="#ffffff" stroke="#000000" points="452.5,-6 452.5,-25 619.5,-25 619.5,-6 452.5,-6"/>
<text text-anchor="middle" x="536" y="-13" font-family="Helvetica,sans-Serif" font-size="10.00" fill="#000000">src/Interface/TagSetterWidget.cpp</text>
</a>
</g>
</g>
<!-- Node16&#45;&gt;Node20 -->
<g id="edge4" class="edge">
<title>Node16&#45;&gt;Node20</title>
<path fill="none" stroke="#191970" d="M536,-57.2462C536,-46.5519 536,-33.814 536,-25.2449"/>
<polygon fill="#191970" stroke="#191970" points="532.5001,-57.3906 536,-67.3906 539.5001,-57.3907 532.5001,-57.3906"/>
</g>
<!-- Node21 -->
<g id="node6" class="node">
<title>Node21</title>
<g id="a_node6"><a xlink:href="_tag_viewer_widget_8cpp.html" target="_top" xlink:title="src/Interface/TagViewerWidget.cpp">
<polygon fill="#ffffff" stroke="#000000" points="638,-6 638,-25 808,-25 808,-6 638,-6"/>
<text text-anchor="middle" x="723" y="-13" font-family="Helvetica,sans-Serif" font-size="10.00" fill="#000000">src/Interface/TagViewerWidget.cpp</text>
</a>
</g>
</g>
<!-- Node16&#45;&gt;Node21 -->
<g id="edge5" class="edge">
<title>Node16&#45;&gt;Node21</title>
<path fill="none" stroke="#191970" d="M574.766,-64.2507C610.2472,-52.5818 661.9583,-35.5752 693.9864,-25.0419"/>
<polygon fill="#191970" stroke="#191970" points="573.6247,-60.9416 565.2188,-67.3906 575.8117,-67.5912 573.6247,-60.9416"/>
</g>
<!-- Node22 -->
<g id="node7" class="node">
<title>Node22</title>
<g id="a_node7"><a xlink:href="_text_box_8cpp.html" target="_top" xlink:title="src/Utilities/TextBox\l/TextBox.cpp">
<polygon fill="#ffffff" stroke="#000000" points="826,-.5 826,-30.5 932,-30.5 932,-.5 826,-.5"/>
<text text-anchor="start" x="834" y="-18.5" font-family="Helvetica,sans-Serif" font-size="10.00" fill="#000000">src/Utilities/TextBox</text>
<text text-anchor="middle" x="879" y="-7.5" font-family="Helvetica,sans-Serif" font-size="10.00" fill="#000000">/TextBox.cpp</text>
</a>
</g>
</g>
<!-- Node16&#45;&gt;Node22 -->
<g id="edge6" class="edge">
<title>Node16&#45;&gt;Node22</title>
<path fill="none" stroke="#191970" d="M606.5504,-67.1035C663.5604,-58.7099 745.7537,-45.7111 817,-31 819.9338,-30.3942 822.9384,-29.7438 825.9663,-29.0649"/>
<polygon fill="#191970" stroke="#191970" points="605.9496,-63.6541 596.5616,-68.565 606.963,-70.5803 605.9496,-63.6541"/>
</g>
<!-- Node23 -->
<g id="node8" class="node">
<title>Node23</title>
<g id="a_node8"><a xlink:href="_utilities_8cpp.html" target="_top" xlink:title="src/Utilities/Utilities.cpp">
<polygon fill="#ffffff" stroke="#000000" points="950.5,-6 950.5,-25 1071.5,-25 1071.5,-6 950.5,-6"/>
<text text-anchor="middle" x="1011" y="-13" font-family="Helvetica,sans-Serif" font-size="10.00" fill="#000000">src/Utilities/Utilities.cpp</text>
</a>
</g>
</g>
<!-- Node16&#45;&gt;Node23 -->
<g id="edge7" class="edge">
<title>Node16&#45;&gt;Node23</title>
<path fill="none" stroke="#191970" d="M606.7495,-71.2285C687.8283,-64.0905 824.5334,-50.4536 941,-31 950.8216,-29.3595 961.3407,-27.2306 971.1621,-25.0788"/>
<polygon fill="#191970" stroke="#191970" points="606.3156,-67.7529 596.6575,-72.1086 606.9238,-74.7265 606.3156,-67.7529"/>
</g>
</g>
</svg>
        <g id="navigator" transform="translate(0 0)" fill="#404254">
                <rect fill="#f2f5e9" fill-opacity="0.5" stroke="#606060" stroke-width=".5" x="0" y="0" width="60" height="60"/>
                <use id="zoomplus" xlink:href="#zoomPlus" x="17" y="9" onmousedown="handleZoom(evt,'in')"/>
                <use id="zoomminus" xlink:href="#zoomMin" x="42" y="9" onmousedown="handleZoom(evt,'out')"/>
                <use id="reset" xlink:href="#resetDef" x="30" y="36" onmousedown="handleReset()"/>
                <g id="arrowUp" xlink:href="#dirArrow" transform="translate(30 24)" onmousedown="handlePan(0,-1)">
                  <use xlink:href="#rim" fill="#404040">
                        <set attributeName="fill" to="#808080" begin="arrowUp.mouseover" end="arrowUp.mouseout"/>
                  </use>
                  <path fill="none" stroke="white" stroke-width="1.5" d="M0,-3.0v7 M-2.5,-0.5L0,-3.0L2.5,-0.5"/>
                </g>
                <g id="arrowRight" xlink:href="#dirArrow" transform="rotate(90) translate(36 -43)" onmousedown="handlePan(1,0)">
                  <use xlink:href="#rim" fill="#404040">
                        <set attributeName="fill" to="#808080" begin="arrowRight.mouseover" end="arrowRight.mouseout"/>
                  </use>
                  <path fill="none" stroke="white" stroke-width="1.5" d="M0,-3.0v7 M-2.5,-0.5L0,-3.0L2.5,-0.5"/>
                </g>
                <g id="arrowDown" xlink:href="#dirArrow" transform="rotate(180) translate(-30 -48)" onmousedown="handlePan(0,1)">
                  <use xlink:href="#rim" fill="#404040">
                        <set attributeName="fill" to="#808080" begin="arrowDown.mouseover" end="arrowDown.mouseout"/>
                  </use>
                  <path fill="none" stroke="white" stroke-width="1.5" d="M0,-3.0v7 M-2.5,-0.5L0,-3.0L2.5,-0.5"/>
                </g>
                <g id="arrowLeft" xlink:href="#dirArrow" transform="rotate(270) translate(-36 17)" onmousedown="handlePan(-1,0)">
                  <use xlink:href="#rim" fill="#404040">
                        <set attributeName="fill" to="#808080" begin="arrowLeft.mouseover" end="arrowLeft.mouseout"/>
                  </use>
                  <path fill="none" stroke="white" stroke-width="1.5" d="M0,-3.0v7 M-2.5,-0.5L0,-3.0L2.5,-0.5"/>
                </g>
        </g>
        <svg viewBox="0 0 15 15" width="100%" height="30px" preserveAspectRatio="xMaxYMin meet">
         <g id="arrow_out" transform="scale(0.3 0.3)">
          <a xlink:href="_utilities_8hpp__dep__incl_org.svg" target="_base">
           <rect id="button" ry="5" rx="5" y="6" x="6" height="38" width="38"
                fill="#f2f5e9" fill-opacity="0.5" stroke="#606060" stroke-width="1.0"/>
           <path id="arrow"
             d="M 11.500037,31.436501 C 11.940474,20.09759 22.043105,11.32322 32.158766,21.979434 L 37.068811,17.246167 C 37.068811,17.246167 37.088388,32 37.088388,32 L 22.160133,31.978069 C 22.160133,31.978069 26.997745,27.140456 26.997745,27.140456 C 18.528582,18.264221 13.291696,25.230495 11.500037,31.436501 z"
             style="fill:#404040;"/>
          </a>
         </g>
        </svg>
</svg>
