<?xml version="1.0" encoding="UTF-8" standalone="no"?>
<!DOCTYPE svg PUBLIC "-//W3C//DTD SVG 1.1//EN"
 "http://www.w3.org/Graphics/SVG/1.1/DTD/svg11.dtd">
<!-- Generated by graphviz version 2.40.1 (20161225.0304)
 -->
<!-- Title: createPoolFromDirectory Pages: 1 -->
<svg width="446pt" height="66pt"
 viewBox="0.00 0.00 446.00 66.00" xmlns="http://www.w3.org/2000/svg" xmlns:xlink="http://www.w3.org/1999/xlink">
<g id="graph0" class="graph" transform="scale(1 1) rotate(0) translate(4 62)">
<title>createPoolFromDirectory</title>
<polygon fill="#ffffff" stroke="transparent" points="-4,4 -4,-62 442,-62 442,4 -4,4"/>
<!-- Node0 -->
<g id="node1" class="node">
<title>Node0</title>
<polygon fill="#bfbfbf" stroke="#000000" points="0,-19.5 0,-38.5 125,-38.5 125,-19.5 0,-19.5"/>
<text text-anchor="middle" x="62.5" y="-26.5" font-family="Helvetica,sans-Serif" font-size="10.00" fill="#000000">createPoolFromDirectory</text>
</g>
<!-- Node1 -->
<g id="node2" class="node">
<title>Node1</title>
<g id="a_node2"><a xlink:href="_utilities_8cpp.html#a6d03d2391c95cb176a80f11be628e6a9" target="_top" xlink:title="createPoolFromSave">
<polygon fill="#ffffff" stroke="#000000" points="161,-19.5 161,-38.5 269,-38.5 269,-19.5 161,-19.5"/>
<text text-anchor="middle" x="215" y="-26.5" font-family="Helvetica,sans-Serif" font-size="10.00" fill="#000000">createPoolFromSave</text>
</a>
</g>
</g>
<!-- Node0&#45;&gt;Node1 -->
<g id="edge1" class="edge">
<title>Node0&#45;&gt;Node1</title>
<path fill="none" stroke="#191970" d="M125.408,-29C133.8076,-29 142.43,-29 150.8504,-29"/>
<polygon fill="#191970" stroke="#191970" points="150.9928,-32.5001 160.9928,-29 150.9927,-25.5001 150.9928,-32.5001"/>
</g>
<!-- Node2 -->
<g id="node3" class="node">
<title>Node2</title>
<g id="a_node3"><a xlink:href="class_image.html#ad6c6fc59aaffc9c101047e8ef32abc9d" target="_top" xlink:title="Image::loadImage">
<polygon fill="#ffffff" stroke="#000000" points="324,-38.5 324,-57.5 419,-57.5 419,-38.5 324,-38.5"/>
<text text-anchor="middle" x="371.5" y="-45.5" font-family="Helvetica,sans-Serif" font-size="10.00" fill="#000000">Image::loadImage</text>
</a>
</g>
</g>
<!-- Node1&#45;&gt;Node2 -->
<g id="edge2" class="edge">
<title>Node1&#45;&gt;Node2</title>
<path fill="none" stroke="#191970" d="M269.2969,-35.592C283.576,-37.3255 299.0328,-39.2021 313.4982,-40.9583"/>
<polygon fill="#191970" stroke="#191970" points="313.4761,-44.4812 323.8251,-42.212 314.3198,-37.5322 313.4761,-44.4812"/>
</g>
<!-- Node3 -->
<g id="node4" class="node">
<title>Node3</title>
<g id="a_node4"><a xlink:href="class_collection_pool.html#a67fc04c58d9da40ef52e4e58aa386557" target="_top" xlink:title="CollectionPool::push_back">
<polygon fill="#ffffff" stroke="#000000" points="305,-.5 305,-19.5 438,-19.5 438,-.5 305,-.5"/>
<text text-anchor="middle" x="371.5" y="-7.5" font-family="Helvetica,sans-Serif" font-size="10.00" fill="#000000">CollectionPool::push_back</text>
</a>
</g>
</g>
<!-- Node1&#45;&gt;Node3 -->
<g id="edge3" class="edge">
<title>Node1&#45;&gt;Node3</title>
<path fill="none" stroke="#191970" d="M269.2969,-22.408C277.5458,-21.4066 286.1878,-20.3574 294.8047,-19.3113"/>
<polygon fill="#191970" stroke="#191970" points="295.3782,-22.7674 304.8835,-18.0876 294.5345,-15.8184 295.3782,-22.7674"/>
</g>
</g>
</svg>
