<?xml version="1.0" encoding="UTF-8" standalone="no"?>
<!DOCTYPE svg PUBLIC "-//W3C//DTD SVG 1.1//EN"
 "http://www.w3.org/Graphics/SVG/1.1/DTD/svg11.dtd">
<!-- Generated by graphviz version 2.40.1 (20161225.0304)
 -->
<!-- Title: src/Interface/Window.hpp Pages: 1 -->
<svg width="705pt" height="140pt"
 viewBox="0.00 0.00 704.50 140.00" xmlns="http://www.w3.org/2000/svg" xmlns:xlink="http://www.w3.org/1999/xlink">
<g id="graph0" class="graph" transform="scale(1 1) rotate(0) translate(4 136)">
<title>src/Interface/Window.hpp</title>
<polygon fill="#ffffff" stroke="transparent" points="-4,4 -4,-136 700.5,-136 700.5,4 -4,4"/>
<!-- Node0 -->
<g id="node1" class="node">
<title>Node0</title>
<polygon fill="#bfbfbf" stroke="#000000" points="308.5,-112.5 308.5,-131.5 436.5,-131.5 436.5,-112.5 308.5,-112.5"/>
<text text-anchor="middle" x="372.5" y="-119.5" font-family="Helvetica,sans-Serif" font-size="10.00" fill="#000000">src/Interface/Window.hpp</text>
</g>
<!-- Node1 -->
<g id="node2" class="node">
<title>Node1</title>
<g id="a_node2"><a xlink:href="_c_img_8h.html" target="_top" xlink:title="../CImg.h">
<polygon fill="#ffffff" stroke="#000000" points="309.5,-56.5 309.5,-75.5 367.5,-75.5 367.5,-56.5 309.5,-56.5"/>
<text text-anchor="middle" x="338.5" y="-63.5" font-family="Helvetica,sans-Serif" font-size="10.00" fill="#000000">../CImg.h</text>
</a>
</g>
</g>
<!-- Node0&#45;&gt;Node1 -->
<g id="edge1" class="edge">
<title>Node0&#45;&gt;Node1</title>
<path fill="none" stroke="#191970" d="M366.5777,-112.2455C361.8973,-104.5367 355.2327,-93.5598 349.5711,-84.2348"/>
<polygon fill="#191970" stroke="#191970" points="352.5361,-82.3741 344.3545,-75.6427 346.5525,-86.007 352.5361,-82.3741"/>
</g>
<!-- Node13 -->
<g id="node14" class="node">
<title>Node13</title>
<polygon fill="#ffffff" stroke="#bfbfbf" points="385.5,-56.5 385.5,-75.5 429.5,-75.5 429.5,-56.5 385.5,-56.5"/>
<text text-anchor="middle" x="407.5" y="-63.5" font-family="Helvetica,sans-Serif" font-size="10.00" fill="#000000">vector</text>
</g>
<!-- Node0&#45;&gt;Node13 -->
<g id="edge13" class="edge">
<title>Node0&#45;&gt;Node13</title>
<path fill="none" stroke="#191970" d="M378.5965,-112.2455C383.4145,-104.5367 390.2751,-93.5598 396.1032,-84.2348"/>
<polygon fill="#191970" stroke="#191970" points="399.1413,-85.9777 401.4733,-75.6427 393.2053,-82.2677 399.1413,-85.9777"/>
</g>
<!-- Node2 -->
<g id="node3" class="node">
<title>Node2</title>
<polygon fill="#ffffff" stroke="#bfbfbf" points="0,-.5 0,-19.5 43,-19.5 43,-.5 0,-.5"/>
<text text-anchor="middle" x="21.5" y="-7.5" font-family="Helvetica,sans-Serif" font-size="10.00" fill="#000000">cstdio</text>
</g>
<!-- Node1&#45;&gt;Node2 -->
<g id="edge2" class="edge">
<title>Node1&#45;&gt;Node2</title>
<path fill="none" stroke="#191970" d="M309.2643,-62.9085C258.6974,-57.2206 151.5746,-43.673 52.8404,-20.0308"/>
<polygon fill="#191970" stroke="#191970" points="53.5515,-16.6017 43.0073,-17.6353 51.8946,-23.4028 53.5515,-16.6017"/>
</g>
<!-- Node3 -->
<g id="node4" class="node">
<title>Node3</title>
<polygon fill="#ffffff" stroke="#bfbfbf" points="61,-.5 61,-19.5 106,-19.5 106,-.5 61,-.5"/>
<text text-anchor="middle" x="83.5" y="-7.5" font-family="Helvetica,sans-Serif" font-size="10.00" fill="#000000">cstdlib</text>
</g>
<!-- Node1&#45;&gt;Node3 -->
<g id="edge3" class="edge">
<title>Node1&#45;&gt;Node3</title>
<path fill="none" stroke="#191970" d="M309.2679,-61.0525C268.1227,-53.8614 190.6394,-39.4891 116.1185,-20.2303"/>
<polygon fill="#191970" stroke="#191970" points="116.663,-16.7549 106.1024,-17.6069 114.8893,-23.5265 116.663,-16.7549"/>
</g>
<!-- Node4 -->
<g id="node5" class="node">
<title>Node4</title>
<polygon fill="#ffffff" stroke="#bfbfbf" points="124,-.5 124,-19.5 173,-19.5 173,-.5 124,-.5"/>
<text text-anchor="middle" x="148.5" y="-7.5" font-family="Helvetica,sans-Serif" font-size="10.00" fill="#000000">cstdarg</text>
</g>
<!-- Node1&#45;&gt;Node4 -->
<g id="edge4" class="edge">
<title>Node1&#45;&gt;Node4</title>
<path fill="none" stroke="#191970" d="M309.2289,-57.3727C275.1655,-47.333 218.9883,-30.7755 182.879,-20.1328"/>
<polygon fill="#191970" stroke="#191970" points="183.8431,-16.7681 173.2615,-17.2981 181.864,-23.4825 183.8431,-16.7681"/>
</g>
<!-- Node5 -->
<g id="node6" class="node">
<title>Node5</title>
<polygon fill="#ffffff" stroke="#bfbfbf" points="191.5,-.5 191.5,-19.5 237.5,-19.5 237.5,-.5 191.5,-.5"/>
<text text-anchor="middle" x="214.5" y="-7.5" font-family="Helvetica,sans-Serif" font-size="10.00" fill="#000000">cstring</text>
</g>
<!-- Node1&#45;&gt;Node5 -->
<g id="edge5" class="edge">
<title>Node1&#45;&gt;Node5</title>
<path fill="none" stroke="#191970" d="M317.1836,-56.3733C297.2784,-47.3838 267.3564,-33.8706 244.94,-23.7471"/>
<polygon fill="#191970" stroke="#191970" points="246.0925,-20.4272 235.5382,-19.5011 243.2113,-26.8068 246.0925,-20.4272"/>
</g>
<!-- Node6 -->
<g id="node7" class="node">
<title>Node6</title>
<polygon fill="#ffffff" stroke="#bfbfbf" points="255.5,-.5 255.5,-19.5 299.5,-19.5 299.5,-.5 255.5,-.5"/>
<text text-anchor="middle" x="277.5" y="-7.5" font-family="Helvetica,sans-Serif" font-size="10.00" fill="#000000">cmath</text>
</g>
<!-- Node1&#45;&gt;Node6 -->
<g id="edge6" class="edge">
<title>Node1&#45;&gt;Node6</title>
<path fill="none" stroke="#191970" d="M327.8746,-56.2455C318.9527,-48.0549 306.012,-36.1749 295.4808,-26.5069"/>
<polygon fill="#191970" stroke="#191970" points="297.7371,-23.8271 288.0036,-19.6427 293.0032,-28.9837 297.7371,-23.8271"/>
</g>
<!-- Node7 -->
<g id="node8" class="node">
<title>Node7</title>
<polygon fill="#ffffff" stroke="#bfbfbf" points="318,-.5 318,-19.5 359,-19.5 359,-.5 318,-.5"/>
<text text-anchor="middle" x="338.5" y="-7.5" font-family="Helvetica,sans-Serif" font-size="10.00" fill="#000000">cfloat</text>
</g>
<!-- Node1&#45;&gt;Node7 -->
<g id="edge7" class="edge">
<title>Node1&#45;&gt;Node7</title>
<path fill="none" stroke="#191970" d="M338.5,-56.2455C338.5,-48.9382 338.5,-38.6944 338.5,-29.7046"/>
<polygon fill="#191970" stroke="#191970" points="342.0001,-29.6426 338.5,-19.6427 335.0001,-29.6427 342.0001,-29.6426"/>
</g>
<!-- Node8 -->
<g id="node9" class="node">
<title>Node8</title>
<polygon fill="#ffffff" stroke="#bfbfbf" points="377,-.5 377,-19.5 422,-19.5 422,-.5 377,-.5"/>
<text text-anchor="middle" x="399.5" y="-7.5" font-family="Helvetica,sans-Serif" font-size="10.00" fill="#000000">climits</text>
</g>
<!-- Node1&#45;&gt;Node8 -->
<g id="edge8" class="edge">
<title>Node1&#45;&gt;Node8</title>
<path fill="none" stroke="#191970" d="M349.1254,-56.2455C358.0473,-48.0549 370.988,-36.1749 381.5192,-26.5069"/>
<polygon fill="#191970" stroke="#191970" points="383.9968,-28.9837 388.9964,-19.6427 379.2629,-23.8271 383.9968,-28.9837"/>
</g>
<!-- Node9 -->
<g id="node10" class="node">
<title>Node9</title>
<polygon fill="#ffffff" stroke="#bfbfbf" points="440,-.5 440,-19.5 481,-19.5 481,-.5 440,-.5"/>
<text text-anchor="middle" x="460.5" y="-7.5" font-family="Helvetica,sans-Serif" font-size="10.00" fill="#000000">ctime</text>
</g>
<!-- Node1&#45;&gt;Node9 -->
<g id="edge9" class="edge">
<title>Node1&#45;&gt;Node9</title>
<path fill="none" stroke="#191970" d="M359.4725,-56.3733C379.0567,-47.3838 408.4961,-33.8706 430.551,-23.7471"/>
<polygon fill="#191970" stroke="#191970" points="432.1729,-26.8538 439.8011,-19.5011 429.2527,-20.4919 432.1729,-26.8538"/>
</g>
<!-- Node10 -->
<g id="node11" class="node">
<title>Node10</title>
<polygon fill="#ffffff" stroke="#bfbfbf" points="499,-.5 499,-19.5 558,-19.5 558,-.5 499,-.5"/>
<text text-anchor="middle" x="528.5" y="-7.5" font-family="Helvetica,sans-Serif" font-size="10.00" fill="#000000">exception</text>
</g>
<!-- Node1&#45;&gt;Node10 -->
<g id="edge10" class="edge">
<title>Node1&#45;&gt;Node10</title>
<path fill="none" stroke="#191970" d="M367.7711,-57.3727C400.3121,-47.7817 453.0344,-32.2425 489.163,-21.594"/>
<polygon fill="#191970" stroke="#191970" points="490.2801,-24.9138 498.8826,-18.7293 488.301,-18.1993 490.2801,-24.9138"/>
</g>
<!-- Node11 -->
<g id="node12" class="node">
<title>Node11</title>
<polygon fill="#ffffff" stroke="#bfbfbf" points="576.5,-.5 576.5,-19.5 632.5,-19.5 632.5,-.5 576.5,-.5"/>
<text text-anchor="middle" x="604.5" y="-7.5" font-family="Helvetica,sans-Serif" font-size="10.00" fill="#000000">algorithm</text>
</g>
<!-- Node1&#45;&gt;Node11 -->
<g id="edge11" class="edge">
<title>Node1&#45;&gt;Node11</title>
<path fill="none" stroke="#191970" d="M367.9078,-58.0406C370.8043,-57.323 373.705,-56.6303 376.5,-56 457.7224,-37.6827 481.5876,-39.1461 566.4659,-20.1011"/>
<polygon fill="#191970" stroke="#191970" points="567.2999,-23.5009 576.2749,-17.8707 565.7477,-16.6751 567.2999,-23.5009"/>
</g>
<!-- Node12 -->
<g id="node13" class="node">
<title>Node12</title>
<polygon fill="#ffffff" stroke="#bfbfbf" points="650.5,-.5 650.5,-19.5 696.5,-19.5 696.5,-.5 650.5,-.5"/>
<text text-anchor="middle" x="673.5" y="-7.5" font-family="Helvetica,sans-Serif" font-size="10.00" fill="#000000">stdio.h</text>
</g>
<!-- Node1&#45;&gt;Node12 -->
<g id="edge12" class="edge">
<title>Node1&#45;&gt;Node12</title>
<path fill="none" stroke="#191970" d="M367.8759,-57.8899C370.7788,-57.2029 373.6898,-56.5585 376.5,-56 489.8921,-33.4657 523.6434,-45.1342 640.1758,-19.9864"/>
<polygon fill="#191970" stroke="#191970" points="641.1912,-23.3467 650.2037,-17.7766 639.6847,-16.5107 641.1912,-23.3467"/>
</g>
</g>
</svg>
