<?xml version="1.0" encoding="UTF-8" standalone="no"?>
<!DOCTYPE svg PUBLIC "-//W3C//DTD SVG 1.1//EN"
 "http://www.w3.org/Graphics/SVG/1.1/DTD/svg11.dtd">
<!-- Generated by graphviz version 2.40.1 (20161225.0304)
 -->
<!-- Title: src/Interface/WindowWidget.hpp Pages: 1 -->
<svg width="338pt" height="140pt"
 viewBox="0.00 0.00 337.50 140.00" xmlns="http://www.w3.org/2000/svg" xmlns:xlink="http://www.w3.org/1999/xlink">
<g id="graph0" class="graph" transform="scale(1 1) rotate(0) translate(4 136)">
<title>src/Interface/WindowWidget.hpp</title>
<polygon fill="#ffffff" stroke="transparent" points="-4,4 -4,-136 333.5,-136 333.5,4 -4,4"/>
<!-- Node11 -->
<g id="node1" class="node">
<title>Node11</title>
<polygon fill="#bfbfbf" stroke="#000000" points="96.5,-112.5 96.5,-131.5 255.5,-131.5 255.5,-112.5 96.5,-112.5"/>
<text text-anchor="middle" x="176" y="-119.5" font-family="Helvetica,sans-Serif" font-size="10.00" fill="#000000">src/Interface/WindowWidget.hpp</text>
</g>
<!-- Node12 -->
<g id="node2" class="node">
<title>Node12</title>
<g id="a_node2"><a xlink:href="_application_8hpp.html" target="_top" xlink:title="src/Application.hpp">
<polygon fill="#ffffff" stroke="#000000" points="52,-56.5 52,-75.5 152,-75.5 152,-56.5 52,-56.5"/>
<text text-anchor="middle" x="102" y="-63.5" font-family="Helvetica,sans-Serif" font-size="10.00" fill="#000000">src/Application.hpp</text>
</a>
</g>
</g>
<!-- Node11&#45;&gt;Node12 -->
<g id="edge1" class="edge">
<title>Node11&#45;&gt;Node12</title>
<path fill="none" stroke="#191970" d="M155.1343,-106.2097C142.1375,-96.3743 125.8378,-84.0394 114.7421,-75.6427"/>
<polygon fill="#191970" stroke="#191970" points="153.024,-109.002 163.1102,-112.2455 157.2482,-103.4201 153.024,-109.002"/>
</g>
<!-- Node15 -->
<g id="node5" class="node">
<title>Node15</title>
<g id="a_node5"><a xlink:href="_window_widget_8cpp.html" target="_top" xlink:title="src/Interface/WindowWidget.cpp">
<polygon fill="#ffffff" stroke="#000000" points="170.5,-56.5 170.5,-75.5 329.5,-75.5 329.5,-56.5 170.5,-56.5"/>
<text text-anchor="middle" x="250" y="-63.5" font-family="Helvetica,sans-Serif" font-size="10.00" fill="#000000">src/Interface/WindowWidget.cpp</text>
</a>
</g>
</g>
<!-- Node11&#45;&gt;Node15 -->
<g id="edge4" class="edge">
<title>Node11&#45;&gt;Node15</title>
<path fill="none" stroke="#191970" d="M196.8657,-106.2097C209.8625,-96.3743 226.1622,-84.0394 237.2579,-75.6427"/>
<polygon fill="#191970" stroke="#191970" points="194.7518,-103.4201 188.8898,-112.2455 198.976,-109.002 194.7518,-103.4201"/>
</g>
<!-- Node13 -->
<g id="node3" class="node">
<title>Node13</title>
<g id="a_node3"><a xlink:href="_application_8cpp.html" target="_top" xlink:title="src/Application.cpp">
<polygon fill="#ffffff" stroke="#000000" points="0,-.5 0,-19.5 100,-19.5 100,-.5 0,-.5"/>
<text text-anchor="middle" x="50" y="-7.5" font-family="Helvetica,sans-Serif" font-size="10.00" fill="#000000">src/Application.cpp</text>
</a>
</g>
</g>
<!-- Node12&#45;&gt;Node13 -->
<g id="edge2" class="edge">
<title>Node12&#45;&gt;Node13</title>
<path fill="none" stroke="#191970" d="M86.0178,-48.7884C77.1222,-39.2085 66.3796,-27.6396 58.9539,-19.6427"/>
<polygon fill="#191970" stroke="#191970" points="83.573,-51.2992 92.9423,-56.2455 88.7025,-46.536 83.573,-51.2992"/>
</g>
<!-- Node14 -->
<g id="node4" class="node">
<title>Node14</title>
<g id="a_node4"><a xlink:href="main_8cpp.html" target="_top" xlink:title="Contient la fonction main. ">
<polygon fill="#ffffff" stroke="#000000" points="118.5,-.5 118.5,-19.5 191.5,-19.5 191.5,-.5 118.5,-.5"/>
<text text-anchor="middle" x="155" y="-7.5" font-family="Helvetica,sans-Serif" font-size="10.00" fill="#000000">src/main.cpp</text>
</a>
</g>
</g>
<!-- Node12&#45;&gt;Node14 -->
<g id="edge3" class="edge">
<title>Node12&#45;&gt;Node14</title>
<path fill="none" stroke="#191970" d="M118.2896,-48.7884C127.3562,-39.2085 138.3054,-27.6396 145.8739,-19.6427"/>
<polygon fill="#191970" stroke="#191970" points="115.5637,-46.5767 111.2319,-56.2455 120.6478,-51.3884 115.5637,-46.5767"/>
</g>
</g>
</svg>
