<?xml version="1.0" encoding="UTF-8" standalone="no"?>
<!DOCTYPE svg PUBLIC "-//W3C//DTD SVG 1.1//EN"
 "http://www.w3.org/Graphics/SVG/1.1/DTD/svg11.dtd">
<!-- Generated by graphviz version 2.40.1 (20161225.0304)
 -->
<!-- Title: src/Interface/WindowWidget.cpp Pages: 1 -->
<svg width="409pt" height="364pt"
 viewBox="0.00 0.00 409.00 364.00" xmlns="http://www.w3.org/2000/svg" xmlns:xlink="http://www.w3.org/1999/xlink">
<g id="graph0" class="graph" transform="scale(1 1) rotate(0) translate(4 360)">
<title>src/Interface/WindowWidget.cpp</title>
<polygon fill="#ffffff" stroke="transparent" points="-4,4 -4,-360 405,-360 405,4 -4,4"/>
<!-- Node0 -->
<g id="node1" class="node">
<title>Node0</title>
<polygon fill="#bfbfbf" stroke="#000000" points="197.5,-336.5 197.5,-355.5 356.5,-355.5 356.5,-336.5 197.5,-336.5"/>
<text text-anchor="middle" x="277" y="-343.5" font-family="Helvetica,sans-Serif" font-size="10.00" fill="#000000">src/Interface/WindowWidget.cpp</text>
</g>
<!-- Node1 -->
<g id="node2" class="node">
<title>Node1</title>
<g id="a_node2"><a xlink:href="_window_widget_8hpp.html" target="_top" xlink:title="WindowWidget.hpp">
<polygon fill="#ffffff" stroke="#000000" points="226.5,-280.5 226.5,-299.5 327.5,-299.5 327.5,-280.5 226.5,-280.5"/>
<text text-anchor="middle" x="277" y="-287.5" font-family="Helvetica,sans-Serif" font-size="10.00" fill="#000000">WindowWidget.hpp</text>
</a>
</g>
</g>
<!-- Node0&#45;&gt;Node1 -->
<g id="edge1" class="edge">
<title>Node0&#45;&gt;Node1</title>
<path fill="none" stroke="#191970" d="M277,-336.2455C277,-328.9382 277,-318.6944 277,-309.7046"/>
<polygon fill="#191970" stroke="#191970" points="280.5001,-309.6426 277,-299.6427 273.5001,-309.6427 280.5001,-309.6426"/>
</g>
<!-- Node2 -->
<g id="node3" class="node">
<title>Node2</title>
<g id="a_node3"><a xlink:href="_widget_8hpp.html" target="_top" xlink:title="Widget.hpp">
<polygon fill="#ffffff" stroke="#000000" points="36,-112.5 36,-131.5 102,-131.5 102,-112.5 36,-112.5"/>
<text text-anchor="middle" x="69" y="-119.5" font-family="Helvetica,sans-Serif" font-size="10.00" fill="#000000">Widget.hpp</text>
</a>
</g>
</g>
<!-- Node1&#45;&gt;Node2 -->
<g id="edge2" class="edge">
<title>Node1&#45;&gt;Node2</title>
<path fill="none" stroke="#191970" d="M228.4599,-280.4281C180.0708,-268.0802 108.0573,-241.4835 73,-188 64.1612,-174.5155 63.8171,-155.9607 65.3071,-141.9581"/>
<polygon fill="#191970" stroke="#191970" points="68.7959,-142.2871 66.768,-131.8881 61.8685,-141.282 68.7959,-142.2871"/>
</g>
<!-- Node6 -->
<g id="node7" class="node">
<title>Node6</title>
<g id="a_node7"><a xlink:href="_list_widget_8hpp.html" target="_top" xlink:title="ListWidget.hpp">
<polygon fill="#ffffff" stroke="#000000" points="192,-224.5 192,-243.5 274,-243.5 274,-224.5 192,-224.5"/>
<text text-anchor="middle" x="233" y="-231.5" font-family="Helvetica,sans-Serif" font-size="10.00" fill="#000000">ListWidget.hpp</text>
</a>
</g>
</g>
<!-- Node1&#45;&gt;Node6 -->
<g id="edge6" class="edge">
<title>Node1&#45;&gt;Node6</title>
<path fill="none" stroke="#191970" d="M269.3358,-280.2455C263.1527,-272.3761 254.2937,-261.101 246.8711,-251.6542"/>
<polygon fill="#191970" stroke="#191970" points="249.5068,-249.3435 240.5764,-243.6427 244.0025,-253.6683 249.5068,-249.3435"/>
</g>
<!-- Node8 -->
<g id="node9" class="node">
<title>Node8</title>
<polygon fill="#ffffff" stroke="#bfbfbf" points="264.5,-112.5 264.5,-131.5 323.5,-131.5 323.5,-112.5 264.5,-112.5"/>
<text text-anchor="middle" x="294" y="-119.5" font-family="Helvetica,sans-Serif" font-size="10.00" fill="#000000">functional</text>
</g>
<!-- Node1&#45;&gt;Node8 -->
<g id="edge15" class="edge">
<title>Node1&#45;&gt;Node8</title>
<path fill="none" stroke="#191970" d="M278.3515,-280.4985C279.6468,-271.2062 281.6055,-256.6483 283,-244 286.9837,-207.8682 290.5516,-165.5969 292.4829,-141.4928"/>
<polygon fill="#191970" stroke="#191970" points="295.9735,-141.749 293.2726,-131.5042 288.9953,-141.1972 295.9735,-141.749"/>
</g>
<!-- Node11 -->
<g id="node12" class="node">
<title>Node11</title>
<polygon fill="#ffffff" stroke="#bfbfbf" points="349,-224.5 349,-243.5 401,-243.5 401,-224.5 349,-224.5"/>
<text text-anchor="middle" x="375" y="-231.5" font-family="Helvetica,sans-Serif" font-size="10.00" fill="#000000">memory</text>
</g>
<!-- Node1&#45;&gt;Node11 -->
<g id="edge14" class="edge">
<title>Node1&#45;&gt;Node11</title>
<path fill="none" stroke="#191970" d="M294.0703,-280.2455C309.247,-271.5731 331.6621,-258.7645 349.0563,-248.825"/>
<polygon fill="#191970" stroke="#191970" points="351.1794,-251.643 358.1253,-243.6427 347.7064,-245.5653 351.1794,-251.643"/>
</g>
<!-- Node3 -->
<g id="node4" class="node">
<title>Node3</title>
<polygon fill="#ffffff" stroke="#bfbfbf" points="0,-56.5 0,-75.5 58,-75.5 58,-56.5 0,-56.5"/>
<text text-anchor="middle" x="29" y="-63.5" font-family="Helvetica,sans-Serif" font-size="10.00" fill="#000000">../CImg.h</text>
</g>
<!-- Node2&#45;&gt;Node3 -->
<g id="edge3" class="edge">
<title>Node2&#45;&gt;Node3</title>
<path fill="none" stroke="#191970" d="M62.0325,-112.2455C56.4689,-104.4564 48.522,-93.3308 41.8171,-83.9439"/>
<polygon fill="#191970" stroke="#191970" points="44.5481,-81.7457 35.8876,-75.6427 38.852,-85.8144 44.5481,-81.7457"/>
</g>
<!-- Node4 -->
<g id="node5" class="node">
<title>Node4</title>
<g id="a_node5"><a xlink:href="_events_8hpp.html" target="_top" xlink:title="Events.hpp">
<polygon fill="#ffffff" stroke="#000000" points="76,-56.5 76,-75.5 142,-75.5 142,-56.5 76,-56.5"/>
<text text-anchor="middle" x="109" y="-63.5" font-family="Helvetica,sans-Serif" font-size="10.00" fill="#000000">Events.hpp</text>
</a>
</g>
</g>
<!-- Node2&#45;&gt;Node4 -->
<g id="edge4" class="edge">
<title>Node2&#45;&gt;Node4</title>
<path fill="none" stroke="#191970" d="M75.9675,-112.2455C81.5311,-104.4564 89.478,-93.3308 96.1829,-83.9439"/>
<polygon fill="#191970" stroke="#191970" points="99.148,-85.8144 102.1124,-75.6427 93.4519,-81.7457 99.148,-85.8144"/>
</g>
<!-- Node5 -->
<g id="node6" class="node">
<title>Node5</title>
<polygon fill="#ffffff" stroke="#bfbfbf" points="86,-.5 86,-19.5 132,-19.5 132,-.5 86,-.5"/>
<text text-anchor="middle" x="109" y="-7.5" font-family="Helvetica,sans-Serif" font-size="10.00" fill="#000000">variant</text>
</g>
<!-- Node4&#45;&gt;Node5 -->
<g id="edge5" class="edge">
<title>Node4&#45;&gt;Node5</title>
<path fill="none" stroke="#191970" d="M109,-56.2455C109,-48.9382 109,-38.6944 109,-29.7046"/>
<polygon fill="#191970" stroke="#191970" points="112.5001,-29.6426 109,-19.6427 105.5001,-29.6427 112.5001,-29.6426"/>
</g>
<!-- Node6&#45;&gt;Node2 -->
<g id="edge7" class="edge">
<title>Node6&#45;&gt;Node2</title>
<path fill="none" stroke="#191970" d="M191.9197,-225.5105C154.3758,-216.9685 102.5533,-202.9501 88,-188 76.0701,-175.7448 71.544,-156.5028 69.8703,-141.9509"/>
<polygon fill="#191970" stroke="#191970" points="73.3552,-141.6206 69.071,-131.9306 66.3774,-142.1773 73.3552,-141.6206"/>
</g>
<!-- Node7 -->
<g id="node8" class="node">
<title>Node7</title>
<g id="a_node8"><a xlink:href="_button_widget_8hpp.html" target="_top" xlink:title="ButtonWidget.hpp">
<polygon fill="#ffffff" stroke="#000000" points="97.5,-168.5 97.5,-187.5 192.5,-187.5 192.5,-168.5 97.5,-168.5"/>
<text text-anchor="middle" x="145" y="-175.5" font-family="Helvetica,sans-Serif" font-size="10.00" fill="#000000">ButtonWidget.hpp</text>
</a>
</g>
</g>
<!-- Node6&#45;&gt;Node7 -->
<g id="edge8" class="edge">
<title>Node6&#45;&gt;Node7</title>
<path fill="none" stroke="#191970" d="M217.6716,-224.2455C204.1697,-215.6534 184.2878,-203.0014 168.7314,-193.1018"/>
<polygon fill="#191970" stroke="#191970" points="170.4685,-190.0587 160.1528,-187.6427 166.7103,-195.9643 170.4685,-190.0587"/>
</g>
<!-- Node9 -->
<g id="node10" class="node">
<title>Node9</title>
<polygon fill="#ffffff" stroke="#bfbfbf" points="151.5,-112.5 151.5,-131.5 192.5,-131.5 192.5,-112.5 151.5,-112.5"/>
<text text-anchor="middle" x="172" y="-119.5" font-family="Helvetica,sans-Serif" font-size="10.00" fill="#000000">string</text>
</g>
<!-- Node6&#45;&gt;Node9 -->
<g id="edge12" class="edge">
<title>Node6&#45;&gt;Node9</title>
<path fill="none" stroke="#191970" d="M243.6216,-224.245C256.6686,-211.0409 275.7135,-186.9529 264,-168 250.6878,-146.4604 223.8972,-134.6693 202.6436,-128.4359"/>
<polygon fill="#191970" stroke="#191970" points="203.3016,-124.9893 192.7381,-125.8039 201.504,-131.7546 203.3016,-124.9893"/>
</g>
<!-- Node10 -->
<g id="node11" class="node">
<title>Node10</title>
<polygon fill="#ffffff" stroke="#bfbfbf" points="211,-168.5 211,-187.5 255,-187.5 255,-168.5 211,-168.5"/>
<text text-anchor="middle" x="233" y="-175.5" font-family="Helvetica,sans-Serif" font-size="10.00" fill="#000000">vector</text>
</g>
<!-- Node6&#45;&gt;Node10 -->
<g id="edge13" class="edge">
<title>Node6&#45;&gt;Node10</title>
<path fill="none" stroke="#191970" d="M233,-224.2455C233,-216.9382 233,-206.6944 233,-197.7046"/>
<polygon fill="#191970" stroke="#191970" points="236.5001,-197.6426 233,-187.6427 229.5001,-197.6427 236.5001,-197.6426"/>
</g>
<!-- Node7&#45;&gt;Node2 -->
<g id="edge9" class="edge">
<title>Node7&#45;&gt;Node2</title>
<path fill="none" stroke="#191970" d="M131.7618,-168.2455C120.319,-159.814 103.5704,-147.4729 90.2525,-137.6598"/>
<polygon fill="#191970" stroke="#191970" points="92.2133,-134.757 82.0865,-131.6427 88.0609,-140.3924 92.2133,-134.757"/>
</g>
<!-- Node7&#45;&gt;Node8 -->
<g id="edge10" class="edge">
<title>Node7&#45;&gt;Node8</title>
<path fill="none" stroke="#191970" d="M170.614,-168.3733C195.0687,-159.1822 232.1054,-145.2624 259.2209,-135.0713"/>
<polygon fill="#191970" stroke="#191970" points="260.5909,-138.2956 268.7202,-131.5011 258.1281,-131.7431 260.5909,-138.2956"/>
</g>
<!-- Node7&#45;&gt;Node9 -->
<g id="edge11" class="edge">
<title>Node7&#45;&gt;Node9</title>
<path fill="none" stroke="#191970" d="M149.703,-168.2455C153.3424,-160.6973 158.4924,-150.0158 162.9262,-140.8197"/>
<polygon fill="#191970" stroke="#191970" points="166.1605,-142.1704 167.3509,-131.6427 159.8551,-139.1303 166.1605,-142.1704"/>
</g>
</g>
</svg>
