<?xml version="1.0" encoding="UTF-8" standalone="no"?>
<!DOCTYPE svg PUBLIC "-//W3C//DTD SVG 1.1//EN"
 "http://www.w3.org/Graphics/SVG/1.1/DTD/svg11.dtd">
<!-- Generated by graphviz version 2.40.1 (20161225.0304)
 -->
<!-- Title: ButtonWidget::actualSize Pages: 1 -->
<svg width="854pt" height="84pt"
 viewBox="0.00 0.00 854.00 84.00" xmlns="http://www.w3.org/2000/svg" xmlns:xlink="http://www.w3.org/1999/xlink">
<g id="graph0" class="graph" transform="scale(1 1) rotate(0) translate(4 80)">
<title>ButtonWidget::actualSize</title>
<polygon fill="#ffffff" stroke="transparent" points="-4,4 -4,-80 850,-80 850,4 -4,4"/>
<!-- Node25 -->
<g id="node1" class="node">
<title>Node25</title>
<polygon fill="#bfbfbf" stroke="#000000" points="0,-19.5 0,-38.5 128,-38.5 128,-19.5 0,-19.5"/>
<text text-anchor="middle" x="64" y="-26.5" font-family="Helvetica,sans-Serif" font-size="10.00" fill="#000000">ButtonWidget::actualSize</text>
</g>
<!-- Node26 -->
<g id="node2" class="node">
<title>Node26</title>
<g id="a_node2"><a xlink:href="class_button_widget.html#aae069846bf4c475a475a47daf4178f3d" target="_top" xlink:title="ButtonWidget::actualPropagate\lEvent">
<polygon fill="#ffffff" stroke="#000000" points="164,-14 164,-44 316,-44 316,-14 164,-14"/>
<text text-anchor="start" x="172" y="-32" font-family="Helvetica,sans-Serif" font-size="10.00" fill="#000000">ButtonWidget::actualPropagate</text>
<text text-anchor="middle" x="240" y="-21" font-family="Helvetica,sans-Serif" font-size="10.00" fill="#000000">Event</text>
</a>
</g>
</g>
<!-- Node25&#45;&gt;Node26 -->
<g id="edge1" class="edge">
<title>Node25&#45;&gt;Node26</title>
<path fill="none" stroke="#191970" d="M128.0379,-29C136.3738,-29 145.0203,-29 153.6457,-29"/>
<polygon fill="#191970" stroke="#191970" points="153.7416,-32.5001 163.7416,-29 153.7415,-25.5001 153.7416,-32.5001"/>
</g>
<!-- Node27 -->
<g id="node3" class="node">
<title>Node27</title>
<g id="a_node3"><a xlink:href="class_widget.html#a210d4c8e3ea02cb777c6e3ad7fdc22b3" target="_top" xlink:title="Widget::callRedraw">
<polygon fill="#ffffff" stroke="#000000" points="352,-38.5 352,-57.5 454,-57.5 454,-38.5 352,-38.5"/>
<text text-anchor="middle" x="403" y="-45.5" font-family="Helvetica,sans-Serif" font-size="10.00" fill="#000000">Widget::callRedraw</text>
</a>
</g>
</g>
<!-- Node26&#45;&gt;Node27 -->
<g id="edge2" class="edge">
<title>Node26&#45;&gt;Node27</title>
<path fill="none" stroke="#191970" d="M316.2503,-37.8881C324.8505,-38.8906 333.5291,-39.9022 341.9007,-40.878"/>
<polygon fill="#191970" stroke="#191970" points="341.5961,-44.3661 351.9341,-42.0475 342.4066,-37.4132 341.5961,-44.3661"/>
</g>
<!-- Node28 -->
<g id="node4" class="node">
<title>Node28</title>
<g id="a_node4"><a xlink:href="class_widget.html#ae5b0e7b391d855a3f75f166bb20253a8" target="_top" xlink:title="Widget::isInside">
<polygon fill="#ffffff" stroke="#000000" points="359.5,-.5 359.5,-19.5 446.5,-19.5 446.5,-.5 359.5,-.5"/>
<text text-anchor="middle" x="403" y="-7.5" font-family="Helvetica,sans-Serif" font-size="10.00" fill="#000000">Widget::isInside</text>
</a>
</g>
</g>
<!-- Node26&#45;&gt;Node28 -->
<g id="edge4" class="edge">
<title>Node26&#45;&gt;Node28</title>
<path fill="none" stroke="#191970" d="M316.2503,-20.1119C327.3116,-18.8226 338.5025,-17.5181 349.0032,-16.2941"/>
<polygon fill="#191970" stroke="#191970" points="349.7162,-19.7348 359.2436,-15.1004 348.9056,-12.7819 349.7162,-19.7348"/>
</g>
<!-- Node27&#45;&gt;Node27 -->
<g id="edge3" class="edge">
<title>Node27&#45;&gt;Node27</title>
<path fill="none" stroke="#191970" d="M380.8054,-57.7571C370.0081,-66.5653 377.4063,-76 403,-76 419.7959,-76 428.7556,-71.9368 429.8792,-66.6539"/>
<polygon fill="#191970" stroke="#191970" points="432.9506,-64.9747 425.1946,-57.7571 426.7567,-68.2361 432.9506,-64.9747"/>
</g>
<!-- Node29 -->
<g id="node5" class="node">
<title>Node29</title>
<g id="a_node5"><a xlink:href="class_widget.html#af5851078b2f0c2f14a9bf377e535340f" target="_top" xlink:title="Widget::actualIsInside">
<polygon fill="#ffffff" stroke="#000000" points="490,-.5 490,-19.5 604,-19.5 604,-.5 490,-.5"/>
<text text-anchor="middle" x="547" y="-7.5" font-family="Helvetica,sans-Serif" font-size="10.00" fill="#000000">Widget::actualIsInside</text>
</a>
</g>
</g>
<!-- Node28&#45;&gt;Node29 -->
<g id="edge5" class="edge">
<title>Node28&#45;&gt;Node29</title>
<path fill="none" stroke="#191970" d="M446.5955,-10C457.0529,-10 468.4622,-10 479.7172,-10"/>
<polygon fill="#191970" stroke="#191970" points="479.9784,-13.5001 489.9783,-10 479.9783,-6.5001 479.9784,-13.5001"/>
</g>
<!-- Node30 -->
<g id="node6" class="node">
<title>Node30</title>
<g id="a_node6"><a xlink:href="class_widget.html#aea985c025ef9b1210d0e3ab7d9c075ea" target="_top" xlink:title="Widget::size">
<polygon fill="#ffffff" stroke="#000000" points="640,-.5 640,-19.5 711,-19.5 711,-.5 640,-.5"/>
<text text-anchor="middle" x="675.5" y="-7.5" font-family="Helvetica,sans-Serif" font-size="10.00" fill="#000000">Widget::size</text>
</a>
</g>
</g>
<!-- Node29&#45;&gt;Node30 -->
<g id="edge6" class="edge">
<title>Node29&#45;&gt;Node30</title>
<path fill="none" stroke="#191970" d="M604.1103,-10C612.688,-10 621.4376,-10 629.7373,-10"/>
<polygon fill="#191970" stroke="#191970" points="629.9628,-13.5001 639.9628,-10 629.9628,-6.5001 629.9628,-13.5001"/>
</g>
<!-- Node31 -->
<g id="node7" class="node">
<title>Node31</title>
<g id="a_node7"><a xlink:href="class_widget.html#aa6225b5a14e5861cc2cd98c737841854" target="_top" xlink:title="Widget::actualSize">
<polygon fill="#ffffff" stroke="#000000" points="747,-.5 747,-19.5 846,-19.5 846,-.5 747,-.5"/>
<text text-anchor="middle" x="796.5" y="-7.5" font-family="Helvetica,sans-Serif" font-size="10.00" fill="#000000">Widget::actualSize</text>
</a>
</g>
</g>
<!-- Node30&#45;&gt;Node31 -->
<g id="edge7" class="edge">
<title>Node30&#45;&gt;Node31</title>
<path fill="none" stroke="#191970" d="M711.1495,-10C719.1663,-10 727.8877,-10 736.5927,-10"/>
<polygon fill="#191970" stroke="#191970" points="736.7609,-13.5001 746.7609,-10 736.7608,-6.5001 736.7609,-13.5001"/>
</g>
</g>
</svg>
