<?xml version="1.0" encoding="UTF-8" standalone="no"?>
<!DOCTYPE svg PUBLIC "-//W3C//DTD SVG 1.1//EN"
 "http://www.w3.org/Graphics/SVG/1.1/DTD/svg11.dtd">
<!-- Generated by graphviz version 2.40.1 (20161225.0304)
 -->
<!-- Title: Widget::~Widget Pages: 1 -->
<!--zoomable 178 -->
<svg id="main" version="1.1" xmlns="http://www.w3.org/2000/svg" xmlns:xlink="http://www.w3.org/1999/xlink" xml:space="preserve" onload="init(evt)">
<style type="text/css"><![CDATA[
.edge:hover path { stroke: red; }
.edge:hover polygon { stroke: red; fill: red; }
]]></style>
<script type="text/javascript"><![CDATA[
var edges = document.getElementsByTagName('g');
if (edges && edges.length) {
  for (var i=0;i<edges.length;i++) {
    if (edges[i].id.substr(0,4)=='edge') {
      edges[i].setAttribute('class','edge');
    }
  }
}
]]></script>
        <defs>
                <circle id="rim" cx="0" cy="0" r="7"/>
                <circle id="rim2" cx="0" cy="0" r="3.5"/>
                <g id="zoomPlus">
                        <use xlink:href="#rim" fill="#404040">
                                <set attributeName="fill" to="#808080" begin="zoomplus.mouseover" end="zoomplus.mouseout"/>
                        </use>
                        <path d="M-4,0h8M0,-4v8" fill="none" stroke="white" stroke-width="1.5" pointer-events="none"/>
                </g>
                <g id="zoomMin">
                        <use xlink:href="#rim" fill="#404040">
                                <set attributeName="fill" to="#808080" begin="zoomminus.mouseover" end="zoomminus.mouseout"/>
                        </use>
                        <path d="M-4,0h8" fill="none" stroke="white" stroke-width="1.5" pointer-events="none"/>
                </g>
                <g id="dirArrow">
                        <path fill="none" stroke="white" stroke-width="1.5" d="M0,-3.0v7 M-2.5,-0.5L0,-3.0L2.5,-0.5"/>
                </g>
               <g id="resetDef">
                       <use xlink:href="#rim2" fill="#404040">
                               <set attributeName="fill" to="#808080" begin="reset.mouseover" end="reset.mouseout"/>
                       </use>
               </g>
        </defs>

<script type="text/javascript">
var viewWidth = 755;
var viewHeight = 178;
var sectionId = 'dynsection-2';
</script>
<script xlink:href="svgpan.js"/>
<svg id="graph" class="graph">
<g id="viewport">
<title>Widget::~Widget</title>
<polygon fill="#ffffff" stroke="transparent" points="-4,4 -4,-174 751,-174 751,4 -4,4"/>
<!-- Node1 -->
<g id="node1" class="node">
<title>Node1</title>
<polygon fill="#bfbfbf" stroke="#000000" points="0,-90.5 0,-109.5 90,-109.5 90,-90.5 0,-90.5"/>
<text text-anchor="middle" x="45" y="-97.5" font-family="Helvetica,sans-Serif" font-size="10.00" fill="#000000">Widget::~Widget</text>
</g>
<!-- Node2 -->
<g id="node2" class="node">
<title>Node2</title>
<g id="a_node2"><a xlink:href="class_widget.html#a0dd3c167cde2b8ef9ffbd95067fbb3f6" target="_top" xlink:title="Widget::setParent">
<polygon fill="#ffffff" stroke="#000000" points="126,-90.5 126,-109.5 221,-109.5 221,-90.5 126,-90.5"/>
<text text-anchor="middle" x="173.5" y="-97.5" font-family="Helvetica,sans-Serif" font-size="10.00" fill="#000000">Widget::setParent</text>
</a>
</g>
</g>
<!-- Node1&#45;&gt;Node2 -->
<g id="edge1" class="edge">
<title>Node1&#45;&gt;Node2</title>
<path fill="none" stroke="#191970" d="M100.5145,-100C109.0028,-100 117.6984,-100 125.9936,-100"/>
<polygon fill="#191970" stroke="#191970" points="100.3043,-96.5001 90.3043,-100 100.3043,-103.5001 100.3043,-96.5001"/>
</g>
<!-- Node3 -->
<g id="node3" class="node">
<title>Node3</title>
<g id="a_node3"><a xlink:href="class_grid_widget.html#ad2b2565b4ef8046f6886d09698567a18" target="_top" xlink:title="GridWidget::actualRender">
<polygon fill="#ffffff" stroke="#000000" points="263.5,-150.5 263.5,-169.5 392.5,-169.5 392.5,-150.5 263.5,-150.5"/>
<text text-anchor="middle" x="328" y="-157.5" font-family="Helvetica,sans-Serif" font-size="10.00" fill="#000000">GridWidget::actualRender</text>
</a>
</g>
</g>
<!-- Node2&#45;&gt;Node3 -->
<g id="edge2" class="edge">
<title>Node2&#45;&gt;Node3</title>
<path fill="none" stroke="#191970" d="M203.8305,-113.7804C219.568,-120.7508 239.1809,-129.16 257,-136 270.3621,-141.1292 285.35,-146.2816 298.0994,-150.4903"/>
<polygon fill="#191970" stroke="#191970" points="205.1413,-110.5328 194.5831,-109.6532 202.2883,-116.925 205.1413,-110.5328"/>
</g>
<!-- Node4 -->
<g id="node4" class="node">
<title>Node4</title>
<g id="a_node4"><a xlink:href="class_grid_widget.html#abfc54e477706b66bd09f6f3c459fcfa4" target="_top" xlink:title="GridWidget::GridWidget">
<polygon fill="#ffffff" stroke="#000000" points="450.5,-112.5 450.5,-131.5 570.5,-131.5 570.5,-112.5 450.5,-112.5"/>
<text text-anchor="middle" x="510.5" y="-119.5" font-family="Helvetica,sans-Serif" font-size="10.00" fill="#000000">GridWidget::GridWidget</text>
</a>
</g>
</g>
<!-- Node2&#45;&gt;Node4 -->
<g id="edge6" class="edge">
<title>Node2&#45;&gt;Node4</title>
<path fill="none" stroke="#191970" d="M231.3132,-103.7742C292.4313,-107.7641 388.393,-114.0286 450.3734,-118.0748"/>
<polygon fill="#191970" stroke="#191970" points="231.2759,-100.2644 221.0691,-103.1054 230.8198,-107.2495 231.2759,-100.2644"/>
</g>
<!-- Node5 -->
<g id="node5" class="node">
<title>Node5</title>
<g id="a_node5"><a xlink:href="class_grid_widget.html#a9c57f1ca2311d3caa936a481fa7fbef0" target="_top" xlink:title="GridWidget::actualPropagate\lEvent">
<polygon fill="#ffffff" stroke="#000000" points="257,-63 257,-93 399,-93 399,-63 257,-63"/>
<text text-anchor="start" x="265" y="-81" font-family="Helvetica,sans-Serif" font-size="10.00" fill="#000000">GridWidget::actualPropagate</text>
<text text-anchor="middle" x="328" y="-70" font-family="Helvetica,sans-Serif" font-size="10.00" fill="#000000">Event</text>
</a>
</g>
</g>
<!-- Node2&#45;&gt;Node5 -->
<g id="edge4" class="edge">
<title>Node2&#45;&gt;Node5</title>
<path fill="none" stroke="#191970" d="M231.1803,-91.7866C239.59,-90.5891 248.3311,-89.3444 256.9678,-88.1146"/>
<polygon fill="#191970" stroke="#191970" points="230.5225,-88.3449 221.1158,-93.2198 231.5093,-95.275 230.5225,-88.3449"/>
</g>
<!-- Node6 -->
<g id="node6" class="node">
<title>Node6</title>
<g id="a_node6"><a xlink:href="class_window_widget.html#a010f6706afa1a7221312e1b9d854731a" target="_top" xlink:title="WindowWidget::spawnRight\lClickMenu">
<polygon fill="#ffffff" stroke="#000000" points="258,-14 258,-44 398,-44 398,-14 258,-14"/>
<text text-anchor="start" x="266" y="-32" font-family="Helvetica,sans-Serif" font-size="10.00" fill="#000000">WindowWidget::spawnRight</text>
<text text-anchor="middle" x="328" y="-21" font-family="Helvetica,sans-Serif" font-size="10.00" fill="#000000">ClickMenu</text>
</a>
</g>
</g>
<!-- Node2&#45;&gt;Node6 -->
<g id="edge7" class="edge">
<title>Node2&#45;&gt;Node6</title>
<path fill="none" stroke="#191970" d="M198.0086,-85.095C214.3643,-75.5018 236.5442,-63.1606 257,-54 264.8717,-50.4748 273.4038,-47.1057 281.7324,-44.0463"/>
<polygon fill="#191970" stroke="#191970" points="195.9192,-82.2651 189.1086,-90.381 199.4938,-88.2836 195.9192,-82.2651"/>
</g>
<!-- Node3&#45;&gt;Node4 -->
<g id="edge3" class="edge">
<title>Node3&#45;&gt;Node4</title>
<path fill="none" stroke="#191970" d="M384.0995,-148.319C409.9804,-142.9301 440.3146,-136.6139 464.7787,-131.5201"/>
<polygon fill="#191970" stroke="#191970" points="383.129,-144.9459 374.0525,-150.411 384.556,-151.799 383.129,-144.9459"/>
</g>
<!-- Node5&#45;&gt;Node4 -->
<g id="edge5" class="edge">
<title>Node5&#45;&gt;Node4</title>
<path fill="none" stroke="#191970" d="M400.1554,-95.3964C424.3126,-101.2206 450.3389,-107.4954 471.0451,-112.4876"/>
<polygon fill="#191970" stroke="#191970" points="400.8375,-91.9606 390.2957,-93.0192 399.1968,-98.7656 400.8375,-91.9606"/>
</g>
<!-- Node7 -->
<g id="node7" class="node">
<title>Node7</title>
<g id="a_node7"><a xlink:href="class_application.html#a8f9f948d5439efe526f3219d85b29d7f" target="_top" xlink:title="Enregistre la liste des tags accéssibles à l&#39;utilisateur. ">
<polygon fill="#ffffff" stroke="#000000" points="435,-38.5 435,-57.5 586,-57.5 586,-38.5 435,-38.5"/>
<text text-anchor="middle" x="510.5" y="-45.5" font-family="Helvetica,sans-Serif" font-size="10.00" fill="#000000">Application::savePossibleTags</text>
</a>
</g>
</g>
<!-- Node6&#45;&gt;Node7 -->
<g id="edge8" class="edge">
<title>Node6&#45;&gt;Node7</title>
<path fill="none" stroke="#191970" d="M408.0311,-37.332C416.9538,-38.2609 426.0219,-39.205 434.8869,-40.128"/>
<polygon fill="#191970" stroke="#191970" points="408.346,-33.846 398.0373,-36.2916 407.6211,-40.8083 408.346,-33.846"/>
</g>
<!-- Node9 -->
<g id="node9" class="node">
<title>Node9</title>
<g id="a_node9"><a xlink:href="class_window_widget.html#a7bee581e186647a29667a09eaab61035" target="_top" xlink:title="WindowWidget::setCallBack">
<polygon fill="#ffffff" stroke="#000000" points="439.5,-.5 439.5,-19.5 581.5,-19.5 581.5,-.5 439.5,-.5"/>
<text text-anchor="middle" x="510.5" y="-7.5" font-family="Helvetica,sans-Serif" font-size="10.00" fill="#000000">WindowWidget::setCallBack</text>
</a>
</g>
</g>
<!-- Node6&#45;&gt;Node9 -->
<g id="edge10" class="edge">
<title>Node6&#45;&gt;Node9</title>
<path fill="none" stroke="#191970" d="M407.9951,-20.6717C418.4645,-19.5818 429.1345,-18.4709 439.4427,-17.3977"/>
<polygon fill="#191970" stroke="#191970" points="407.6211,-17.1917 398.0373,-21.7084 408.346,-24.154 407.6211,-17.1917"/>
</g>
<!-- Node8 -->
<g id="node8" class="node">
<title>Node8</title>
<g id="a_node8"><a xlink:href="class_application.html#a748bca84fefb9c12661cfaa2f623748d" target="_top" xlink:title="Effectue une sauvegarde de la collection et enregistre les tags. ">
<polygon fill="#ffffff" stroke="#000000" points="622,-38.5 622,-57.5 747,-57.5 747,-38.5 622,-38.5"/>
<text text-anchor="middle" x="684.5" y="-45.5" font-family="Helvetica,sans-Serif" font-size="10.00" fill="#000000">Application::~Application</text>
</a>
</g>
</g>
<!-- Node7&#45;&gt;Node8 -->
<g id="edge9" class="edge">
<title>Node7&#45;&gt;Node8</title>
<path fill="none" stroke="#191970" d="M596.1685,-48C604.8039,-48 613.4568,-48 621.7867,-48"/>
<polygon fill="#191970" stroke="#191970" points="596.0598,-44.5001 586.0598,-48 596.0598,-51.5001 596.0598,-44.5001"/>
</g>
<!-- Node10 -->
<g id="node10" class="node">
<title>Node10</title>
<g id="a_node10"><a xlink:href="class_application.html#afa8cc05ce6b6092be5ecdfdae44e05f8" target="_top" xlink:title="Initialise les données du programme. ">
<polygon fill="#ffffff" stroke="#000000" points="625,-.5 625,-19.5 744,-19.5 744,-.5 625,-.5"/>
<text text-anchor="middle" x="684.5" y="-7.5" font-family="Helvetica,sans-Serif" font-size="10.00" fill="#000000">Application::Application</text>
</a>
</g>
</g>
<!-- Node9&#45;&gt;Node10 -->
<g id="edge11" class="edge">
<title>Node9&#45;&gt;Node10</title>
<path fill="none" stroke="#191970" d="M591.7108,-10C602.8657,-10 614.1482,-10 624.8202,-10"/>
<polygon fill="#191970" stroke="#191970" points="591.5235,-6.5001 581.5234,-10 591.5234,-13.5001 591.5235,-6.5001"/>
</g>
</g>
</svg>
        <g id="navigator" transform="translate(0 0)" fill="#404254">
                <rect fill="#f2f5e9" fill-opacity="0.5" stroke="#606060" stroke-width=".5" x="0" y="0" width="60" height="60"/>
                <use id="zoomplus" xlink:href="#zoomPlus" x="17" y="9" onmousedown="handleZoom(evt,'in')"/>
                <use id="zoomminus" xlink:href="#zoomMin" x="42" y="9" onmousedown="handleZoom(evt,'out')"/>
                <use id="reset" xlink:href="#resetDef" x="30" y="36" onmousedown="handleReset()"/>
                <g id="arrowUp" xlink:href="#dirArrow" transform="translate(30 24)" onmousedown="handlePan(0,-1)">
                  <use xlink:href="#rim" fill="#404040">
                        <set attributeName="fill" to="#808080" begin="arrowUp.mouseover" end="arrowUp.mouseout"/>
                  </use>
                  <path fill="none" stroke="white" stroke-width="1.5" d="M0,-3.0v7 M-2.5,-0.5L0,-3.0L2.5,-0.5"/>
                </g>
                <g id="arrowRight" xlink:href="#dirArrow" transform="rotate(90) translate(36 -43)" onmousedown="handlePan(1,0)">
                  <use xlink:href="#rim" fill="#404040">
                        <set attributeName="fill" to="#808080" begin="arrowRight.mouseover" end="arrowRight.mouseout"/>
                  </use>
                  <path fill="none" stroke="white" stroke-width="1.5" d="M0,-3.0v7 M-2.5,-0.5L0,-3.0L2.5,-0.5"/>
                </g>
                <g id="arrowDown" xlink:href="#dirArrow" transform="rotate(180) translate(-30 -48)" onmousedown="handlePan(0,1)">
                  <use xlink:href="#rim" fill="#404040">
                        <set attributeName="fill" to="#808080" begin="arrowDown.mouseover" end="arrowDown.mouseout"/>
                  </use>
                  <path fill="none" stroke="white" stroke-width="1.5" d="M0,-3.0v7 M-2.5,-0.5L0,-3.0L2.5,-0.5"/>
                </g>
                <g id="arrowLeft" xlink:href="#dirArrow" transform="rotate(270) translate(-36 17)" onmousedown="handlePan(-1,0)">
                  <use xlink:href="#rim" fill="#404040">
                        <set attributeName="fill" to="#808080" begin="arrowLeft.mouseover" end="arrowLeft.mouseout"/>
                  </use>
                  <path fill="none" stroke="white" stroke-width="1.5" d="M0,-3.0v7 M-2.5,-0.5L0,-3.0L2.5,-0.5"/>
                </g>
        </g>
        <svg viewBox="0 0 15 15" width="100%" height="30px" preserveAspectRatio="xMaxYMin meet">
         <g id="arrow_out" transform="scale(0.3 0.3)">
          <a xlink:href="class_widget_abe38c3c1fbcde4c705d76d58208ceb52_icgraph_org.svg" target="_base">
           <rect id="button" ry="5" rx="5" y="6" x="6" height="38" width="38"
                fill="#f2f5e9" fill-opacity="0.5" stroke="#606060" stroke-width="1.0"/>
           <path id="arrow"
             d="M 11.500037,31.436501 C 11.940474,20.09759 22.043105,11.32322 32.158766,21.979434 L 37.068811,17.246167 C 37.068811,17.246167 37.088388,32 37.088388,32 L 22.160133,31.978069 C 22.160133,31.978069 26.997745,27.140456 26.997745,27.140456 C 18.528582,18.264221 13.291696,25.230495 11.500037,31.436501 z"
             style="fill:#404040;"/>
          </a>
         </g>
        </svg>
</svg>
