<?xml version="1.0" encoding="UTF-8" standalone="no"?>
<!DOCTYPE svg PUBLIC "-//W3C//DTD SVG 1.1//EN"
 "http://www.w3.org/Graphics/SVG/1.1/DTD/svg11.dtd">
<!-- Generated by graphviz version 2.40.1 (20161225.0304)
 -->
<!-- Title: Application::Application Pages: 1 -->
<svg width="744pt" height="72pt"
 viewBox="0.00 0.00 744.00 71.50" xmlns="http://www.w3.org/2000/svg" xmlns:xlink="http://www.w3.org/1999/xlink">
<g id="graph0" class="graph" transform="scale(1 1) rotate(0) translate(4 67.5)">
<title>Application::Application</title>
<polygon fill="#ffffff" stroke="transparent" points="-4,4 -4,-67.5 740,-67.5 740,4 -4,4"/>
<!-- Node0 -->
<g id="node1" class="node">
<title>Node0</title>
<polygon fill="#bfbfbf" stroke="#000000" points="0,-25 0,-44 119,-44 119,-25 0,-25"/>
<text text-anchor="middle" x="59.5" y="-32" font-family="Helvetica,sans-Serif" font-size="10.00" fill="#000000">Application::Application</text>
</g>
<!-- Node1 -->
<g id="node2" class="node">
<title>Node1</title>
<g id="a_node2"><a xlink:href="class_application.html#ad219c68e8f592d72df7150764cc71b91" target="_top" xlink:title="Application::loadPossibleTags">
<polygon fill="#ffffff" stroke="#000000" points="155,-44 155,-63 303,-63 303,-44 155,-44"/>
<text text-anchor="middle" x="229" y="-51" font-family="Helvetica,sans-Serif" font-size="10.00" fill="#000000">Application::loadPossibleTags</text>
</a>
</g>
</g>
<!-- Node0&#45;&gt;Node1 -->
<g id="edge1" class="edge">
<title>Node0&#45;&gt;Node1</title>
<path fill="none" stroke="#191970" d="M119.2594,-41.1987C127.5486,-42.1279 136.1881,-43.0963 144.8197,-44.0639"/>
<polygon fill="#191970" stroke="#191970" points="144.5997,-47.561 154.9274,-45.1969 145.3796,-40.6046 144.5997,-47.561"/>
</g>
<!-- Node2 -->
<g id="node3" class="node">
<title>Node2</title>
<g id="a_node3"><a xlink:href="class_window_widget.html#a7bee581e186647a29667a09eaab61035" target="_top" xlink:title="WindowWidget::setCallBack">
<polygon fill="#ffffff" stroke="#000000" points="158,-6 158,-25 300,-25 300,-6 158,-6"/>
<text text-anchor="middle" x="229" y="-13" font-family="Helvetica,sans-Serif" font-size="10.00" fill="#000000">WindowWidget::setCallBack</text>
</a>
</g>
</g>
<!-- Node0&#45;&gt;Node2 -->
<g id="edge2" class="edge">
<title>Node0&#45;&gt;Node2</title>
<path fill="none" stroke="#191970" d="M119.2594,-27.8013C128.5263,-26.7625 138.231,-25.6747 147.8731,-24.5939"/>
<polygon fill="#191970" stroke="#191970" points="148.3296,-28.0647 157.8774,-23.4724 147.5498,-21.1083 148.3296,-28.0647"/>
</g>
<!-- Node3 -->
<g id="node4" class="node">
<title>Node3</title>
<g id="a_node4"><a xlink:href="class_window_widget.html#a010f6706afa1a7221312e1b9d854731a" target="_top" xlink:title="WindowWidget::spawnRight\lClickMenu">
<polygon fill="#ffffff" stroke="#000000" points="339,-.5 339,-30.5 479,-30.5 479,-.5 339,-.5"/>
<text text-anchor="start" x="347" y="-18.5" font-family="Helvetica,sans-Serif" font-size="10.00" fill="#000000">WindowWidget::spawnRight</text>
<text text-anchor="middle" x="409" y="-7.5" font-family="Helvetica,sans-Serif" font-size="10.00" fill="#000000">ClickMenu</text>
</a>
</g>
</g>
<!-- Node2&#45;&gt;Node3 -->
<g id="edge3" class="edge">
<title>Node2&#45;&gt;Node3</title>
<path fill="none" stroke="#191970" d="M300.1408,-15.5C309.5223,-15.5 319.19,-15.5 328.7111,-15.5"/>
<polygon fill="#191970" stroke="#191970" points="328.9644,-19.0001 338.9644,-15.5 328.9644,-12.0001 328.9644,-19.0001"/>
</g>
<!-- Node4 -->
<g id="node5" class="node">
<title>Node4</title>
<g id="a_node5"><a xlink:href="class_widget.html#a0dd3c167cde2b8ef9ffbd95067fbb3f6" target="_top" xlink:title="Widget::setParent">
<polygon fill="#ffffff" stroke="#000000" points="515,-6 515,-25 610,-25 610,-6 515,-6"/>
<text text-anchor="middle" x="562.5" y="-13" font-family="Helvetica,sans-Serif" font-size="10.00" fill="#000000">Widget::setParent</text>
</a>
</g>
</g>
<!-- Node3&#45;&gt;Node4 -->
<g id="edge4" class="edge">
<title>Node3&#45;&gt;Node4</title>
<path fill="none" stroke="#191970" d="M479.0121,-15.5C487.6691,-15.5 496.4413,-15.5 504.8836,-15.5"/>
<polygon fill="#191970" stroke="#191970" points="504.9878,-19.0001 514.9878,-15.5 504.9877,-12.0001 504.9878,-19.0001"/>
</g>
<!-- Node5 -->
<g id="node6" class="node">
<title>Node5</title>
<g id="a_node6"><a xlink:href="class_widget.html#abe38c3c1fbcde4c705d76d58208ceb52" target="_top" xlink:title="Widget::~Widget">
<polygon fill="#ffffff" stroke="#000000" points="646,-6 646,-25 736,-25 736,-6 646,-6"/>
<text text-anchor="middle" x="691" y="-13" font-family="Helvetica,sans-Serif" font-size="10.00" fill="#000000">Widget::~Widget</text>
</a>
</g>
</g>
<!-- Node4&#45;&gt;Node5 -->
<g id="edge5" class="edge">
<title>Node4&#45;&gt;Node5</title>
<path fill="none" stroke="#191970" d="M610.3487,-15.5C618.5669,-15.5 627.1688,-15.5 635.5659,-15.5"/>
<polygon fill="#191970" stroke="#191970" points="635.6675,-19.0001 645.6675,-15.5 635.6674,-12.0001 635.6675,-19.0001"/>
</g>
</g>
</svg>
