<?xml version="1.0" encoding="UTF-8" standalone="no"?>
<!DOCTYPE svg PUBLIC "-//W3C//DTD SVG 1.1//EN"
 "http://www.w3.org/Graphics/SVG/1.1/DTD/svg11.dtd">
<!-- Generated by graphviz version 2.40.1 (20161225.0304)
 -->
<!-- Title: IteratorBase::operator* Pages: 1 -->
<svg width="282pt" height="78pt"
 viewBox="0.00 0.00 282.00 77.50" xmlns="http://www.w3.org/2000/svg" xmlns:xlink="http://www.w3.org/1999/xlink">
<g id="graph0" class="graph" transform="scale(1 1) rotate(0) translate(4 73.5)">
<title>IteratorBase::operator*</title>
<polygon fill="#ffffff" stroke="transparent" points="-4,4 -4,-73.5 278,-73.5 278,4 -4,4"/>
<!-- Node13 -->
<g id="node1" class="node">
<title>Node13</title>
<polygon fill="#bfbfbf" stroke="#000000" points="0,-28 0,-47 115,-47 115,-28 0,-28"/>
<text text-anchor="middle" x="57.5" y="-35" font-family="Helvetica,sans-Serif" font-size="10.00" fill="#000000">IteratorBase::operator*</text>
</g>
<!-- Node14 -->
<g id="node2" class="node">
<title>Node14</title>
<g id="a_node2"><a xlink:href="class_iterator_base.html#a7475728422cb73f91d1c4cb4c3d07499" target="_top" xlink:title="IteratorBase::operator==">
<polygon fill="#ffffff" stroke="#000000" points="151,-50 151,-69 274,-69 274,-50 151,-50"/>
<text text-anchor="middle" x="212.5" y="-57" font-family="Helvetica,sans-Serif" font-size="10.00" fill="#000000">IteratorBase::operator==</text>
</a>
</g>
</g>
<!-- Node13&#45;&gt;Node14 -->
<g id="edge1" class="edge">
<title>Node13&#45;&gt;Node14</title>
<path fill="none" stroke="#191970" d="M125.1458,-47.1013C133.6896,-48.314 142.3957,-49.5497 150.8398,-50.7482"/>
<polygon fill="#191970" stroke="#191970" points="125.6089,-43.6321 115.2163,-45.692 124.6252,-50.5626 125.6089,-43.6321"/>
</g>
<!-- Node15 -->
<g id="node3" class="node">
<title>Node15</title>
<g id="a_node3"><a xlink:href="class_const_iterator_base.html#a584d54dbb1730a6d066a6935474ded25" target="_top" xlink:title="ConstIteratorBase::\loperator==">
<polygon fill="#ffffff" stroke="#000000" points="161.5,-.5 161.5,-30.5 263.5,-30.5 263.5,-.5 161.5,-.5"/>
<text text-anchor="start" x="169.5" y="-18.5" font-family="Helvetica,sans-Serif" font-size="10.00" fill="#000000">ConstIteratorBase::</text>
<text text-anchor="middle" x="212.5" y="-7.5" font-family="Helvetica,sans-Serif" font-size="10.00" fill="#000000">operator==</text>
</a>
</g>
</g>
<!-- Node13&#45;&gt;Node15 -->
<g id="edge2" class="edge">
<title>Node13&#45;&gt;Node15</title>
<path fill="none" stroke="#191970" d="M125.2862,-27.8787C137.3958,-26.16 149.8268,-24.3956 161.3714,-22.757"/>
<polygon fill="#191970" stroke="#191970" points="124.6252,-24.4374 115.2163,-29.308 125.6089,-31.3679 124.6252,-24.4374"/>
</g>
</g>
</svg>
