<?xml version="1.0" encoding="UTF-8" standalone="no"?>
<!DOCTYPE svg PUBLIC "-//W3C//DTD SVG 1.1//EN"
 "http://www.w3.org/Graphics/SVG/1.1/DTD/svg11.dtd">
<!-- Generated by graphviz version 2.40.1 (20161225.0304)
 -->
<!-- Title: WindowWidget::setContent Pages: 1 -->
<svg width="283pt" height="46pt"
 viewBox="0.00 0.00 283.00 46.00" xmlns="http://www.w3.org/2000/svg" xmlns:xlink="http://www.w3.org/1999/xlink">
<g id="graph0" class="graph" transform="scale(1 1) rotate(0) translate(4 42)">
<title>WindowWidget::setContent</title>
<polygon fill="#ffffff" stroke="transparent" points="-4,4 -4,-42 279,-42 279,4 -4,4"/>
<!-- Node68 -->
<g id="node1" class="node">
<title>Node68</title>
<polygon fill="#bfbfbf" stroke="#000000" points="0,-.5 0,-19.5 137,-19.5 137,-.5 0,-.5"/>
<text text-anchor="middle" x="68.5" y="-7.5" font-family="Helvetica,sans-Serif" font-size="10.00" fill="#000000">WindowWidget::setContent</text>
</g>
<!-- Node69 -->
<g id="node2" class="node">
<title>Node69</title>
<g id="a_node2"><a xlink:href="class_widget.html#a210d4c8e3ea02cb777c6e3ad7fdc22b3" target="_top" xlink:title="Widget::callRedraw">
<polygon fill="#ffffff" stroke="#000000" points="173,-.5 173,-19.5 275,-19.5 275,-.5 173,-.5"/>
<text text-anchor="middle" x="224" y="-7.5" font-family="Helvetica,sans-Serif" font-size="10.00" fill="#000000">Widget::callRedraw</text>
</a>
</g>
</g>
<!-- Node68&#45;&gt;Node69 -->
<g id="edge1" class="edge">
<title>Node68&#45;&gt;Node69</title>
<path fill="none" stroke="#191970" d="M137.1572,-10C145.7178,-10 154.4275,-10 162.8634,-10"/>
<polygon fill="#191970" stroke="#191970" points="162.9893,-13.5001 172.9893,-10 162.9892,-6.5001 162.9893,-13.5001"/>
</g>
<!-- Node69&#45;&gt;Node69 -->
<g id="edge2" class="edge">
<title>Node69&#45;&gt;Node69</title>
<path fill="none" stroke="#191970" d="M200.2641,-19.7571C188.7169,-28.5653 196.6289,-38 224,-38 241.9623,-38 251.5442,-33.9368 252.7458,-28.6539"/>
<polygon fill="#191970" stroke="#191970" points="255.6923,-26.7532 247.7359,-19.7571 249.5928,-30.1879 255.6923,-26.7532"/>
</g>
</g>
</svg>
