<?xml version="1.0" encoding="UTF-8" standalone="no"?>
<!DOCTYPE svg PUBLIC "-//W3C//DTD SVG 1.1//EN"
 "http://www.w3.org/Graphics/SVG/1.1/DTD/svg11.dtd">
<!-- Generated by graphviz version 2.40.1 (20161225.0304)
 -->
<!-- Title: Widget::getWindow Pages: 1 -->
<svg width="537pt" height="274pt"
 viewBox="0.00 0.00 537.00 274.00" xmlns="http://www.w3.org/2000/svg" xmlns:xlink="http://www.w3.org/1999/xlink">
<g id="graph0" class="graph" transform="scale(1 1) rotate(0) translate(4 270)">
<title>Widget::getWindow</title>
<polygon fill="#ffffff" stroke="transparent" points="-4,4 -4,-270 533,-270 533,4 -4,4"/>
<!-- Node122 -->
<g id="node1" class="node">
<title>Node122</title>
<polygon fill="#bfbfbf" stroke="#000000" points="0,-132.5 0,-151.5 102,-151.5 102,-132.5 0,-132.5"/>
<text text-anchor="middle" x="51" y="-139.5" font-family="Helvetica,sans-Serif" font-size="10.00" fill="#000000">Widget::getWindow</text>
</g>
<!-- Node123 -->
<g id="node2" class="node">
<title>Node123</title>
<g id="a_node2"><a xlink:href="class_widget.html#af5851078b2f0c2f14a9bf377e535340f" target="_top" xlink:title="Widget::actualIsInside">
<polygon fill="#ffffff" stroke="#000000" points="155.5,-246.5 155.5,-265.5 269.5,-265.5 269.5,-246.5 155.5,-246.5"/>
<text text-anchor="middle" x="212.5" y="-253.5" font-family="Helvetica,sans-Serif" font-size="10.00" fill="#000000">Widget::actualIsInside</text>
</a>
</g>
</g>
<!-- Node122&#45;&gt;Node123 -->
<g id="edge1" class="edge">
<title>Node122&#45;&gt;Node123</title>
<path fill="none" stroke="#191970" d="M57.7449,-151.6406C71.0281,-169.9332 102.3972,-209.8275 138,-232 145.1298,-236.4403 153.16,-240.1355 161.24,-243.1866"/>
<polygon fill="#191970" stroke="#191970" points="160.1024,-246.4966 170.6972,-246.4786 162.4036,-239.8856 160.1024,-246.4966"/>
</g>
<!-- Node124 -->
<g id="node3" class="node">
<title>Node124</title>
<g id="a_node3"><a xlink:href="class_widget.html#aea985c025ef9b1210d0e3ab7d9c075ea" target="_top" xlink:title="Widget::size">
<polygon fill="#ffffff" stroke="#000000" points="323,-208.5 323,-227.5 394,-227.5 394,-208.5 323,-208.5"/>
<text text-anchor="middle" x="358.5" y="-215.5" font-family="Helvetica,sans-Serif" font-size="10.00" fill="#000000">Widget::size</text>
</a>
</g>
</g>
<!-- Node122&#45;&gt;Node124 -->
<g id="edge10" class="edge">
<title>Node122&#45;&gt;Node124</title>
<path fill="none" stroke="#191970" d="M63.1251,-151.5913C79.2115,-163.7407 108.971,-184.2649 138,-194 196.0882,-213.4804 267.1451,-218.0169 312.6124,-218.6602"/>
<polygon fill="#191970" stroke="#191970" points="312.7244,-222.1612 322.7534,-218.7449 312.783,-215.1614 312.7244,-222.1612"/>
</g>
<!-- Node125 -->
<g id="node4" class="node">
<title>Node125</title>
<g id="a_node4"><a xlink:href="class_widget.html#aa6225b5a14e5861cc2cd98c737841854" target="_top" xlink:title="Widget::actualSize">
<polygon fill="#ffffff" stroke="#000000" points="430,-189.5 430,-208.5 529,-208.5 529,-189.5 430,-189.5"/>
<text text-anchor="middle" x="479.5" y="-196.5" font-family="Helvetica,sans-Serif" font-size="10.00" fill="#000000">Widget::actualSize</text>
</a>
</g>
</g>
<!-- Node122&#45;&gt;Node125 -->
<g id="edge7" class="edge">
<title>Node122&#45;&gt;Node125</title>
<path fill="none" stroke="#191970" d="M90.6786,-151.578C105.4672,-154.9064 122.4394,-158.4423 138,-161 236.1224,-177.1287 351.2533,-188.3648 419.6399,-194.2414"/>
<polygon fill="#191970" stroke="#191970" points="419.5331,-197.7449 429.7935,-195.104 420.1257,-190.77 419.5331,-197.7449"/>
</g>
<!-- Node126 -->
<g id="node5" class="node">
<title>Node126</title>
<g id="a_node5"><a xlink:href="class_widget.html#a92906f698fd94c2f777e46c1480967fc" target="_top" xlink:title="Widget::actualPropagateEvent">
<polygon fill="#ffffff" stroke="#000000" points="138,-132.5 138,-151.5 287,-151.5 287,-132.5 138,-132.5"/>
<text text-anchor="middle" x="212.5" y="-139.5" font-family="Helvetica,sans-Serif" font-size="10.00" fill="#000000">Widget::actualPropagateEvent</text>
</a>
</g>
</g>
<!-- Node122&#45;&gt;Node126 -->
<g id="edge4" class="edge">
<title>Node122&#45;&gt;Node126</title>
<path fill="none" stroke="#191970" d="M102.0996,-142C110.2693,-142 118.9093,-142 127.6134,-142"/>
<polygon fill="#191970" stroke="#191970" points="127.8366,-145.5001 137.8366,-142 127.8366,-138.5001 127.8366,-145.5001"/>
</g>
<!-- Node127 -->
<g id="node6" class="node">
<title>Node127</title>
<g id="a_node6"><a xlink:href="class_widget.html#a5ff4883144670b8c93b41e440e3d4446" target="_top" xlink:title="Widget::actualRender">
<polygon fill="#ffffff" stroke="#000000" points="157,-94.5 157,-113.5 268,-113.5 268,-94.5 157,-94.5"/>
<text text-anchor="middle" x="212.5" y="-101.5" font-family="Helvetica,sans-Serif" font-size="10.00" fill="#000000">Widget::actualRender</text>
</a>
</g>
</g>
<!-- Node122&#45;&gt;Node127 -->
<g id="edge5" class="edge">
<title>Node122&#45;&gt;Node127</title>
<path fill="none" stroke="#191970" d="M91.7533,-132.411C113.1609,-127.3739 139.5862,-121.1562 162.2525,-115.8229"/>
<polygon fill="#191970" stroke="#191970" points="163.1073,-119.2175 172.0398,-113.5201 161.5039,-112.4036 163.1073,-119.2175"/>
</g>
<!-- Node128 -->
<g id="node7" class="node">
<title>Node128</title>
<g id="a_node7"><a xlink:href="class_widget.html#a1a3ac9ff4f7c19c19a9886219b6dda2e" target="_top" xlink:title="Widget::actualResize">
<polygon fill="#ffffff" stroke="#000000" points="157.5,-56.5 157.5,-75.5 267.5,-75.5 267.5,-56.5 157.5,-56.5"/>
<text text-anchor="middle" x="212.5" y="-63.5" font-family="Helvetica,sans-Serif" font-size="10.00" fill="#000000">Widget::actualResize</text>
</a>
</g>
</g>
<!-- Node122&#45;&gt;Node128 -->
<g id="edge6" class="edge">
<title>Node122&#45;&gt;Node128</title>
<path fill="none" stroke="#191970" d="M62.9321,-132.3171C79.0442,-119.6961 109.0804,-97.7367 138,-85 143.478,-82.5874 149.3229,-80.437 155.238,-78.531"/>
<polygon fill="#191970" stroke="#191970" points="156.628,-81.7686 165.2066,-75.5509 154.623,-75.0619 156.628,-81.7686"/>
</g>
<!-- Node129 -->
<g id="node8" class="node">
<title>Node129</title>
<g id="a_node8"><a xlink:href="class_widget.html#aadb11a1dfa9f73aa5379914a37b8b5fd" target="_top" xlink:title="Widget::getWindow">
<polygon fill="#ffffff" stroke="#000000" points="161.5,-.5 161.5,-19.5 263.5,-19.5 263.5,-.5 161.5,-.5"/>
<text text-anchor="middle" x="212.5" y="-7.5" font-family="Helvetica,sans-Serif" font-size="10.00" fill="#000000">Widget::getWindow</text>
</a>
</g>
</g>
<!-- Node122&#45;&gt;Node129 -->
<g id="edge8" class="edge">
<title>Node122&#45;&gt;Node129</title>
<path fill="none" stroke="#191970" d="M57.9475,-132.2871C71.577,-113.77 103.5123,-72.9544 138,-47 150.2564,-37.7762 165.1676,-29.8369 178.4206,-23.704"/>
<polygon fill="#191970" stroke="#191970" points="180.0045,-26.8301 187.7161,-19.5651 177.1571,-20.4354 180.0045,-26.8301"/>
</g>
<!-- Node123&#45;&gt;Node124 -->
<g id="edge2" class="edge">
<title>Node123&#45;&gt;Node124</title>
<path fill="none" stroke="#191970" d="M249.342,-246.411C268.7251,-241.3661 292.6583,-235.1369 313.1704,-229.7981"/>
<polygon fill="#191970" stroke="#191970" points="314.1343,-233.1639 322.9303,-227.2579 312.3711,-226.3896 314.1343,-233.1639"/>
</g>
<!-- Node124&#45;&gt;Node125 -->
<g id="edge3" class="edge">
<title>Node124&#45;&gt;Node125</title>
<path fill="none" stroke="#191970" d="M394.1495,-212.4021C402.2534,-211.1296 411.0773,-209.7441 419.8765,-208.3624"/>
<polygon fill="#191970" stroke="#191970" points="420.4249,-211.8192 429.7609,-206.8103 419.3389,-204.904 420.4249,-211.8192"/>
</g>
<!-- Node129&#45;&gt;Node129 -->
<g id="edge9" class="edge">
<title>Node129&#45;&gt;Node129</title>
<path fill="none" stroke="#191970" d="M189.9972,-19.7571C179.0498,-28.5653 186.5508,-38 212.5,-38 229.5292,-38 238.6133,-33.9368 239.7525,-28.6539"/>
<polygon fill="#191970" stroke="#191970" points="242.7999,-26.9303 235.0028,-19.7571 236.6248,-30.227 242.7999,-26.9303"/>
</g>
</g>
</svg>
