<?xml version="1.0" encoding="UTF-8" standalone="no"?>
<!DOCTYPE svg PUBLIC "-//W3C//DTD SVG 1.1//EN"
 "http://www.w3.org/Graphics/SVG/1.1/DTD/svg11.dtd">
<!-- Generated by graphviz version 2.40.1 (20161225.0304)
 -->
<!-- Title: Image::getPath Pages: 1 -->
<svg width="349pt" height="28pt"
 viewBox="0.00 0.00 349.00 28.00" xmlns="http://www.w3.org/2000/svg" xmlns:xlink="http://www.w3.org/1999/xlink">
<g id="graph0" class="graph" transform="scale(1 1) rotate(0) translate(4 24)">
<title>Image::getPath</title>
<polygon fill="#ffffff" stroke="transparent" points="-4,4 -4,-24 345,-24 345,4 -4,4"/>
<!-- Node5 -->
<g id="node1" class="node">
<title>Node5</title>
<polygon fill="#bfbfbf" stroke="#000000" points="0,-.5 0,-19.5 83,-19.5 83,-.5 0,-.5"/>
<text text-anchor="middle" x="41.5" y="-7.5" font-family="Helvetica,sans-Serif" font-size="10.00" fill="#000000">Image::getPath</text>
</g>
<!-- Node6 -->
<g id="node2" class="node">
<title>Node6</title>
<g id="a_node2"><a xlink:href="save_8hpp.html#a2f7a5989de5158a79ed463cd910745ab" target="_top" xlink:title="updateCollec">
<polygon fill="#ffffff" stroke="#000000" points="119,-.5 119,-19.5 193,-19.5 193,-.5 119,-.5"/>
<text text-anchor="middle" x="156" y="-7.5" font-family="Helvetica,sans-Serif" font-size="10.00" fill="#000000">updateCollec</text>
</a>
</g>
</g>
<!-- Node5&#45;&gt;Node6 -->
<g id="edge1" class="edge">
<title>Node5&#45;&gt;Node6</title>
<path fill="none" stroke="#191970" d="M93.4346,-10C101.9638,-10 110.6518,-10 118.7324,-10"/>
<polygon fill="#191970" stroke="#191970" points="93.1611,-6.5001 83.161,-10 93.161,-13.5001 93.1611,-6.5001"/>
</g>
<!-- Node7 -->
<g id="node3" class="node">
<title>Node7</title>
<g id="a_node3"><a xlink:href="main_8cpp.html#a488239235ee56bb3811141c5f6e96797" target="_top" xlink:title="getPoolFromDirectory">
<polygon fill="#ffffff" stroke="#000000" points="229,-.5 229,-19.5 341,-19.5 341,-.5 229,-.5"/>
<text text-anchor="middle" x="285" y="-7.5" font-family="Helvetica,sans-Serif" font-size="10.00" fill="#000000">getPoolFromDirectory</text>
</a>
</g>
</g>
<!-- Node6&#45;&gt;Node7 -->
<g id="edge2" class="edge">
<title>Node6&#45;&gt;Node7</title>
<path fill="none" stroke="#191970" d="M203.4191,-10C211.5995,-10 220.1749,-10 228.5653,-10"/>
<polygon fill="#191970" stroke="#191970" points="203.3122,-6.5001 193.3121,-10 203.3121,-13.5001 203.3122,-6.5001"/>
</g>
</g>
</svg>
