<?xml version="1.0" encoding="UTF-8" standalone="no"?>
<!DOCTYPE svg PUBLIC "-//W3C//DTD SVG 1.1//EN"
 "http://www.w3.org/Graphics/SVG/1.1/DTD/svg11.dtd">
<!-- Generated by graphviz version 2.40.1 (20161225.0304)
 -->
<!-- Title: TagSelector::actualResize Pages: 1 -->
<svg width="278pt" height="46pt"
 viewBox="0.00 0.00 278.00 46.00" xmlns="http://www.w3.org/2000/svg" xmlns:xlink="http://www.w3.org/1999/xlink">
<g id="graph0" class="graph" transform="scale(1 1) rotate(0) translate(4 42)">
<title>TagSelector::actualResize</title>
<polygon fill="#ffffff" stroke="transparent" points="-4,4 -4,-42 274,-42 274,4 -4,4"/>
<!-- Node10 -->
<g id="node1" class="node">
<title>Node10</title>
<polygon fill="#bfbfbf" stroke="#000000" points="0,-.5 0,-19.5 132,-19.5 132,-.5 0,-.5"/>
<text text-anchor="middle" x="66" y="-7.5" font-family="Helvetica,sans-Serif" font-size="10.00" fill="#000000">TagSelector::actualResize</text>
</g>
<!-- Node11 -->
<g id="node2" class="node">
<title>Node11</title>
<g id="a_node2"><a xlink:href="class_widget.html#a210d4c8e3ea02cb777c6e3ad7fdc22b3" target="_top" xlink:title="Widget::callRedraw">
<polygon fill="#ffffff" stroke="#000000" points="168,-.5 168,-19.5 270,-19.5 270,-.5 168,-.5"/>
<text text-anchor="middle" x="219" y="-7.5" font-family="Helvetica,sans-Serif" font-size="10.00" fill="#000000">Widget::callRedraw</text>
</a>
</g>
</g>
<!-- Node10&#45;&gt;Node11 -->
<g id="edge1" class="edge">
<title>Node10&#45;&gt;Node11</title>
<path fill="none" stroke="#191970" d="M132.2182,-10C140.7158,-10 149.3859,-10 157.7986,-10"/>
<polygon fill="#191970" stroke="#191970" points="157.9037,-13.5001 167.9037,-10 157.9036,-6.5001 157.9037,-13.5001"/>
</g>
<!-- Node11&#45;&gt;Node11 -->
<g id="edge2" class="edge">
<title>Node11&#45;&gt;Node11</title>
<path fill="none" stroke="#191970" d="M195.5724,-19.7571C184.1752,-28.5653 191.9844,-38 219,-38 236.729,-38 246.1865,-33.9368 247.3725,-28.6539"/>
<polygon fill="#191970" stroke="#191970" points="250.3449,-26.7974 242.4276,-19.7571 244.2265,-30.1981 250.3449,-26.7974"/>
</g>
</g>
</svg>
