<?xml version="1.0" encoding="UTF-8" standalone="no"?>
<!DOCTYPE svg PUBLIC "-//W3C//DTD SVG 1.1//EN"
 "http://www.w3.org/Graphics/SVG/1.1/DTD/svg11.dtd">
<!-- Generated by graphviz version 2.40.1 (20161225.0304)
 -->
<!-- Title: WindowWidget::actualSize Pages: 1 -->
<svg width="475pt" height="52pt"
 viewBox="0.00 0.00 475.00 51.50" xmlns="http://www.w3.org/2000/svg" xmlns:xlink="http://www.w3.org/1999/xlink">
<g id="graph0" class="graph" transform="scale(1 1) rotate(0) translate(4 47.5)">
<title>WindowWidget::actualSize</title>
<polygon fill="#ffffff" stroke="transparent" points="-4,4 -4,-47.5 471,-47.5 471,4 -4,4"/>
<!-- Node23 -->
<g id="node1" class="node">
<title>Node23</title>
<polygon fill="#bfbfbf" stroke="#000000" points="0,-6 0,-25 134,-25 134,-6 0,-6"/>
<text text-anchor="middle" x="67" y="-13" font-family="Helvetica,sans-Serif" font-size="10.00" fill="#000000">WindowWidget::actualSize</text>
</g>
<!-- Node24 -->
<g id="node2" class="node">
<title>Node24</title>
<g id="a_node2"><a xlink:href="class_window_widget.html#a78dedcff8ae2df9a9f86fc0ba17a1998" target="_top" xlink:title="WindowWidget::actualPropagate\lEvent">
<polygon fill="#ffffff" stroke="#000000" points="170,-.5 170,-30.5 329,-30.5 329,-.5 170,-.5"/>
<text text-anchor="start" x="178" y="-18.5" font-family="Helvetica,sans-Serif" font-size="10.00" fill="#000000">WindowWidget::actualPropagate</text>
<text text-anchor="middle" x="249.5" y="-7.5" font-family="Helvetica,sans-Serif" font-size="10.00" fill="#000000">Event</text>
</a>
</g>
</g>
<!-- Node23&#45;&gt;Node24 -->
<g id="edge1" class="edge">
<title>Node23&#45;&gt;Node24</title>
<path fill="none" stroke="#191970" d="M134.1788,-15.5C142.5064,-15.5 151.1221,-15.5 159.7204,-15.5"/>
<polygon fill="#191970" stroke="#191970" points="159.7878,-19.0001 169.7878,-15.5 159.7878,-12.0001 159.7878,-19.0001"/>
</g>
<!-- Node25 -->
<g id="node3" class="node">
<title>Node25</title>
<g id="a_node3"><a xlink:href="class_widget.html#a210d4c8e3ea02cb777c6e3ad7fdc22b3" target="_top" xlink:title="Widget::callRedraw">
<polygon fill="#ffffff" stroke="#000000" points="365,-6 365,-25 467,-25 467,-6 365,-6"/>
<text text-anchor="middle" x="416" y="-13" font-family="Helvetica,sans-Serif" font-size="10.00" fill="#000000">Widget::callRedraw</text>
</a>
</g>
</g>
<!-- Node24&#45;&gt;Node25 -->
<g id="edge2" class="edge">
<title>Node24&#45;&gt;Node25</title>
<path fill="none" stroke="#191970" d="M329.3363,-15.5C337.7866,-15.5 346.2838,-15.5 354.479,-15.5"/>
<polygon fill="#191970" stroke="#191970" points="354.6718,-19.0001 364.6717,-15.5 354.6717,-12.0001 354.6718,-19.0001"/>
</g>
<!-- Node25&#45;&gt;Node25 -->
<g id="edge3" class="edge">
<title>Node25&#45;&gt;Node25</title>
<path fill="none" stroke="#191970" d="M390.4146,-25.2571C377.9676,-34.0653 386.4961,-43.5 416,-43.5 435.8229,-43.5 446.1772,-39.241 447.0629,-33.7746"/>
<polygon fill="#191970" stroke="#191970" points="449.9382,-31.7749 441.5854,-25.2571 444.0505,-35.5611 449.9382,-31.7749"/>
</g>
</g>
</svg>
