<?xml version="1.0" encoding="UTF-8" standalone="no"?>
<!DOCTYPE svg PUBLIC "-//W3C//DTD SVG 1.1//EN"
 "http://www.w3.org/Graphics/SVG/1.1/DTD/svg11.dtd">
<!-- Generated by graphviz version 2.40.1 (20161225.0304)
 -->
<!-- Title: CollectionPool::begin Pages: 1 -->
<svg width="611pt" height="66pt"
 viewBox="0.00 0.00 611.00 66.00" xmlns="http://www.w3.org/2000/svg" xmlns:xlink="http://www.w3.org/1999/xlink">
<g id="graph0" class="graph" transform="scale(1 1) rotate(0) translate(4 62)">
<title>CollectionPool::begin</title>
<polygon fill="#ffffff" stroke="transparent" points="-4,4 -4,-62 607,-62 607,4 -4,4"/>
<!-- Node11 -->
<g id="node1" class="node">
<title>Node11</title>
<polygon fill="#bfbfbf" stroke="#000000" points="0,-19.5 0,-38.5 109,-38.5 109,-19.5 0,-19.5"/>
<text text-anchor="middle" x="54.5" y="-26.5" font-family="Helvetica,sans-Serif" font-size="10.00" fill="#000000">CollectionPool::begin</text>
</g>
<!-- Node12 -->
<g id="node2" class="node">
<title>Node12</title>
<g id="a_node2"><a xlink:href="class_collection_pool.html#a649bc221521a7bdef3277788077ae666" target="_top" xlink:title="CollectionPool::erase">
<polygon fill="#ffffff" stroke="#000000" points="145,-38.5 145,-57.5 255,-57.5 255,-38.5 145,-38.5"/>
<text text-anchor="middle" x="200" y="-45.5" font-family="Helvetica,sans-Serif" font-size="10.00" fill="#000000">CollectionPool::erase</text>
</a>
</g>
</g>
<!-- Node11&#45;&gt;Node12 -->
<g id="edge1" class="edge">
<title>Node11&#45;&gt;Node12</title>
<path fill="none" stroke="#191970" d="M119.018,-37.425C127.5572,-38.5401 136.2496,-39.6752 144.6166,-40.7678"/>
<polygon fill="#191970" stroke="#191970" points="119.4618,-33.9534 109.0928,-36.129 118.5554,-40.8944 119.4618,-33.9534"/>
</g>
<!-- Node13 -->
<g id="node3" class="node">
<title>Node13</title>
<g id="a_node3"><a xlink:href="_utilities_8cpp.html#a5ce6411f7ab365cdf958f8f16e773d05" target="_top" xlink:title="importFromDirectory">
<polygon fill="#ffffff" stroke="#000000" points="147,-.5 147,-19.5 253,-19.5 253,-.5 147,-.5"/>
<text text-anchor="middle" x="200" y="-7.5" font-family="Helvetica,sans-Serif" font-size="10.00" fill="#000000">importFromDirectory</text>
</a>
</g>
</g>
<!-- Node11&#45;&gt;Node13 -->
<g id="edge2" class="edge">
<title>Node11&#45;&gt;Node13</title>
<path fill="none" stroke="#191970" d="M119.281,-20.5406C128.3959,-19.3504 137.6796,-18.1381 146.5507,-16.9796"/>
<polygon fill="#191970" stroke="#191970" points="118.5554,-17.1056 109.0928,-21.871 119.4618,-24.0466 118.5554,-17.1056"/>
</g>
<!-- Node14 -->
<g id="node4" class="node">
<title>Node14</title>
<g id="a_node4"><a xlink:href="class_application.html#a8f9f948d5439efe526f3219d85b29d7f" target="_top" xlink:title="Application::savePossibleTags">
<polygon fill="#ffffff" stroke="#000000" points="291,-.5 291,-19.5 442,-19.5 442,-.5 291,-.5"/>
<text text-anchor="middle" x="366.5" y="-7.5" font-family="Helvetica,sans-Serif" font-size="10.00" fill="#000000">Application::savePossibleTags</text>
</a>
</g>
</g>
<!-- Node13&#45;&gt;Node14 -->
<g id="edge3" class="edge">
<title>Node13&#45;&gt;Node14</title>
<path fill="none" stroke="#191970" d="M263.1677,-10C272.1979,-10 281.5632,-10 290.8035,-10"/>
<polygon fill="#191970" stroke="#191970" points="263.1395,-6.5001 253.1394,-10 263.1394,-13.5001 263.1395,-6.5001"/>
</g>
<!-- Node15 -->
<g id="node5" class="node">
<title>Node15</title>
<g id="a_node5"><a xlink:href="class_application.html#a748bca84fefb9c12661cfaa2f623748d" target="_top" xlink:title="Application::~Application">
<polygon fill="#ffffff" stroke="#000000" points="478,-.5 478,-19.5 603,-19.5 603,-.5 478,-.5"/>
<text text-anchor="middle" x="540.5" y="-7.5" font-family="Helvetica,sans-Serif" font-size="10.00" fill="#000000">Application::~Application</text>
</a>
</g>
</g>
<!-- Node14&#45;&gt;Node15 -->
<g id="edge4" class="edge">
<title>Node14&#45;&gt;Node15</title>
<path fill="none" stroke="#191970" d="M452.1685,-10C460.8039,-10 469.4568,-10 477.7867,-10"/>
<polygon fill="#191970" stroke="#191970" points="452.0598,-6.5001 442.0598,-10 452.0598,-13.5001 452.0598,-6.5001"/>
</g>
</g>
</svg>
