<?xml version="1.0" encoding="UTF-8" standalone="no"?>
<!DOCTYPE svg PUBLIC "-//W3C//DTD SVG 1.1//EN"
 "http://www.w3.org/Graphics/SVG/1.1/DTD/svg11.dtd">
<!-- Generated by graphviz version 2.40.1 (20161225.0304)
 -->
<!-- Title: ButtonWidget::isColored Pages: 1 -->
<svg width="592pt" height="160pt"
 viewBox="0.00 0.00 592.00 160.00" xmlns="http://www.w3.org/2000/svg" xmlns:xlink="http://www.w3.org/1999/xlink">
<g id="graph0" class="graph" transform="scale(1 1) rotate(0) translate(4 156)">
<title>ButtonWidget::isColored</title>
<polygon fill="#ffffff" stroke="transparent" points="-4,4 -4,-156 588,-156 588,4 -4,4"/>
<!-- Node35 -->
<g id="node1" class="node">
<title>Node35</title>
<polygon fill="#bfbfbf" stroke="#000000" points="0,-38.5 0,-57.5 123,-57.5 123,-38.5 0,-38.5"/>
<text text-anchor="middle" x="61.5" y="-45.5" font-family="Helvetica,sans-Serif" font-size="10.00" fill="#000000">ButtonWidget::isColored</text>
</g>
<!-- Node36 -->
<g id="node2" class="node">
<title>Node36</title>
<g id="a_node2"><a xlink:href="class_button_widget.html#a982bd9ccd6e7b8cb632efafd76309125" target="_top" xlink:title="ButtonWidget::actualRender">
<polygon fill="#ffffff" stroke="#000000" points="159,-94.5 159,-113.5 299,-113.5 299,-94.5 159,-94.5"/>
<text text-anchor="middle" x="229" y="-101.5" font-family="Helvetica,sans-Serif" font-size="10.00" fill="#000000">ButtonWidget::actualRender</text>
</a>
</g>
</g>
<!-- Node35&#45;&gt;Node36 -->
<g id="edge1" class="edge">
<title>Node35&#45;&gt;Node36</title>
<path fill="none" stroke="#191970" d="M90.2943,-57.6267C118.0264,-66.8984 160.152,-80.9822 190.7022,-91.196"/>
<polygon fill="#191970" stroke="#191970" points="189.9877,-94.6474 200.5815,-94.4989 192.2073,-88.0086 189.9877,-94.6474"/>
</g>
<!-- Node40 -->
<g id="node6" class="node">
<title>Node40</title>
<g id="a_node6"><a xlink:href="class_button_widget.html#a66e8bfd9bc9a56b3a7cb2a8efc38347e" target="_top" xlink:title="ButtonWidget::actualResize">
<polygon fill="#ffffff" stroke="#000000" points="159.5,-38.5 159.5,-57.5 298.5,-57.5 298.5,-38.5 159.5,-38.5"/>
<text text-anchor="middle" x="229" y="-45.5" font-family="Helvetica,sans-Serif" font-size="10.00" fill="#000000">ButtonWidget::actualResize</text>
</a>
</g>
</g>
<!-- Node35&#45;&gt;Node40 -->
<g id="edge5" class="edge">
<title>Node35&#45;&gt;Node40</title>
<path fill="none" stroke="#191970" d="M123.3949,-48C131.8347,-48 140.5928,-48 149.2926,-48"/>
<polygon fill="#191970" stroke="#191970" points="149.4561,-51.5001 159.456,-48 149.456,-44.5001 149.4561,-51.5001"/>
</g>
<!-- Node42 -->
<g id="node8" class="node">
<title>Node42</title>
<g id="a_node8"><a xlink:href="class_widget.html#aea985c025ef9b1210d0e3ab7d9c075ea" target="_top" xlink:title="Widget::size">
<polygon fill="#ffffff" stroke="#000000" points="350.5,-.5 350.5,-19.5 421.5,-19.5 421.5,-.5 350.5,-.5"/>
<text text-anchor="middle" x="386" y="-7.5" font-family="Helvetica,sans-Serif" font-size="10.00" fill="#000000">Widget::size</text>
</a>
</g>
</g>
<!-- Node35&#45;&gt;Node42 -->
<g id="edge10" class="edge">
<title>Node35&#45;&gt;Node42</title>
<path fill="none" stroke="#191970" d="M105.0119,-38.4685C121.8129,-35.0652 141.2352,-31.4669 159,-29 221.5063,-20.32 294.2858,-15.0788 340.2459,-12.3619"/>
<polygon fill="#191970" stroke="#191970" points="340.6982,-15.8417 350.4804,-11.7725 340.2957,-8.8533 340.6982,-15.8417"/>
</g>
<!-- Node37 -->
<g id="node3" class="node">
<title>Node37</title>
<g id="a_node3"><a xlink:href="class_widget.html#a2516fd56cac645cb3aacef37937c49d3" target="_top" xlink:title="Widget::render">
<polygon fill="#ffffff" stroke="#000000" points="346,-132.5 346,-151.5 426,-151.5 426,-132.5 346,-132.5"/>
<text text-anchor="middle" x="386" y="-139.5" font-family="Helvetica,sans-Serif" font-size="10.00" fill="#000000">Widget::render</text>
</a>
</g>
</g>
<!-- Node36&#45;&gt;Node37 -->
<g id="edge2" class="edge">
<title>Node36&#45;&gt;Node37</title>
<path fill="none" stroke="#191970" d="M268.6177,-113.589C289.3356,-118.6035 314.8875,-124.7881 336.856,-130.1053"/>
<polygon fill="#191970" stroke="#191970" points="336.1244,-133.5292 346.6672,-132.4799 337.7712,-126.7256 336.1244,-133.5292"/>
</g>
<!-- Node39 -->
<g id="node5" class="node">
<title>Node39</title>
<g id="a_node5"><a xlink:href="_utilities_8cpp.html#a59a3b645b654e776f33e3f4dccbd5fb1" target="_top" xlink:title="Convertit de l&#39;UTF&#45;8 vers l&#39;ISO&#45;8859&#45;1. ">
<polygon fill="#ffffff" stroke="#000000" points="337,-94.5 337,-113.5 435,-113.5 435,-94.5 337,-94.5"/>
<text text-anchor="middle" x="386" y="-101.5" font-family="Helvetica,sans-Serif" font-size="10.00" fill="#000000">UTF8toISO8859_1</text>
</a>
</g>
</g>
<!-- Node36&#45;&gt;Node39 -->
<g id="edge4" class="edge">
<title>Node36&#45;&gt;Node39</title>
<path fill="none" stroke="#191970" d="M299.2343,-104C308.4883,-104 317.8971,-104 326.9388,-104"/>
<polygon fill="#191970" stroke="#191970" points="326.9633,-107.5001 336.9633,-104 326.9633,-100.5001 326.9633,-107.5001"/>
</g>
<!-- Node38 -->
<g id="node4" class="node">
<title>Node38</title>
<g id="a_node4"><a xlink:href="class_widget.html#a5ff4883144670b8c93b41e440e3d4446" target="_top" xlink:title="Widget::actualRender">
<polygon fill="#ffffff" stroke="#000000" points="473,-132.5 473,-151.5 584,-151.5 584,-132.5 473,-132.5"/>
<text text-anchor="middle" x="528.5" y="-139.5" font-family="Helvetica,sans-Serif" font-size="10.00" fill="#000000">Widget::actualRender</text>
</a>
</g>
</g>
<!-- Node37&#45;&gt;Node38 -->
<g id="edge3" class="edge">
<title>Node37&#45;&gt;Node38</title>
<path fill="none" stroke="#191970" d="M426.0734,-142C437.3924,-142 450.0191,-142 462.4347,-142"/>
<polygon fill="#191970" stroke="#191970" points="462.7808,-145.5001 472.7808,-142 462.7807,-138.5001 462.7808,-145.5001"/>
</g>
<!-- Node41 -->
<g id="node7" class="node">
<title>Node41</title>
<g id="a_node7"><a xlink:href="class_widget.html#a210d4c8e3ea02cb777c6e3ad7fdc22b3" target="_top" xlink:title="Widget::callRedraw">
<polygon fill="#ffffff" stroke="#000000" points="335,-38.5 335,-57.5 437,-57.5 437,-38.5 335,-38.5"/>
<text text-anchor="middle" x="386" y="-45.5" font-family="Helvetica,sans-Serif" font-size="10.00" fill="#000000">Widget::callRedraw</text>
</a>
</g>
</g>
<!-- Node40&#45;&gt;Node41 -->
<g id="edge6" class="edge">
<title>Node40&#45;&gt;Node41</title>
<path fill="none" stroke="#191970" d="M298.7768,-48C307.3938,-48 316.1528,-48 324.6315,-48"/>
<polygon fill="#191970" stroke="#191970" points="324.8062,-51.5001 334.8062,-48 324.8061,-44.5001 324.8062,-51.5001"/>
</g>
<!-- Node40&#45;&gt;Node42 -->
<g id="edge8" class="edge">
<title>Node40&#45;&gt;Node42</title>
<path fill="none" stroke="#191970" d="M268.6177,-38.411C290.5367,-33.1058 317.8666,-26.4909 340.6391,-20.9791"/>
<polygon fill="#191970" stroke="#191970" points="341.5212,-24.3667 350.4172,-18.6124 339.8744,-17.5632 341.5212,-24.3667"/>
</g>
<!-- Node41&#45;&gt;Node41 -->
<g id="edge7" class="edge">
<title>Node41&#45;&gt;Node41</title>
<path fill="none" stroke="#191970" d="M364.1137,-57.7571C353.4663,-66.5653 360.7617,-76 386,-76 402.5626,-76 411.3979,-71.9368 412.5059,-66.6539"/>
<polygon fill="#191970" stroke="#191970" points="415.6008,-65.0192 407.8863,-57.7571 409.3883,-68.2449 415.6008,-65.0192"/>
</g>
<!-- Node43 -->
<g id="node9" class="node">
<title>Node43</title>
<g id="a_node9"><a xlink:href="class_widget.html#aa6225b5a14e5861cc2cd98c737841854" target="_top" xlink:title="Widget::actualSize">
<polygon fill="#ffffff" stroke="#000000" points="479,-.5 479,-19.5 578,-19.5 578,-.5 479,-.5"/>
<text text-anchor="middle" x="528.5" y="-7.5" font-family="Helvetica,sans-Serif" font-size="10.00" fill="#000000">Widget::actualSize</text>
</a>
</g>
</g>
<!-- Node42&#45;&gt;Node43 -->
<g id="edge9" class="edge">
<title>Node42&#45;&gt;Node43</title>
<path fill="none" stroke="#191970" d="M421.5912,-10C435.7922,-10 452.5395,-10 468.5121,-10"/>
<polygon fill="#191970" stroke="#191970" points="468.8621,-13.5001 478.862,-10 468.862,-6.5001 468.8621,-13.5001"/>
</g>
</g>
</svg>
