<?xml version="1.0" encoding="UTF-8" standalone="no"?>
<!DOCTYPE svg PUBLIC "-//W3C//DTD SVG 1.1//EN"
 "http://www.w3.org/Graphics/SVG/1.1/DTD/svg11.dtd">
<!-- Generated by graphviz version 2.40.1 (20161225.0304)
 -->
<!-- Title: LayoutWidget::LayoutWidget Pages: 1 -->
<svg width="393pt" height="28pt"
 viewBox="0.00 0.00 393.00 28.00" xmlns="http://www.w3.org/2000/svg" xmlns:xlink="http://www.w3.org/1999/xlink">
<g id="graph0" class="graph" transform="scale(1 1) rotate(0) translate(4 24)">
<title>LayoutWidget::LayoutWidget</title>
<polygon fill="#ffffff" stroke="transparent" points="-4,4 -4,-24 389,-24 389,4 -4,4"/>
<!-- Node0 -->
<g id="node1" class="node">
<title>Node0</title>
<polygon fill="#bfbfbf" stroke="#000000" points="0,-.5 0,-19.5 143,-19.5 143,-.5 0,-.5"/>
<text text-anchor="middle" x="71.5" y="-7.5" font-family="Helvetica,sans-Serif" font-size="10.00" fill="#000000">LayoutWidget::LayoutWidget</text>
</g>
<!-- Node1 -->
<g id="node2" class="node">
<title>Node1</title>
<g id="a_node2"><a xlink:href="class_widget.html#aea985c025ef9b1210d0e3ab7d9c075ea" target="_top" xlink:title="Widget::size">
<polygon fill="#ffffff" stroke="#000000" points="179,-.5 179,-19.5 250,-19.5 250,-.5 179,-.5"/>
<text text-anchor="middle" x="214.5" y="-7.5" font-family="Helvetica,sans-Serif" font-size="10.00" fill="#000000">Widget::size</text>
</a>
</g>
</g>
<!-- Node0&#45;&gt;Node1 -->
<g id="edge1" class="edge">
<title>Node0&#45;&gt;Node1</title>
<path fill="none" stroke="#191970" d="M143.4189,-10C151.9302,-10 160.4335,-10 168.4464,-10"/>
<polygon fill="#191970" stroke="#191970" points="168.6573,-13.5001 178.6573,-10 168.6572,-6.5001 168.6573,-13.5001"/>
</g>
<!-- Node2 -->
<g id="node3" class="node">
<title>Node2</title>
<g id="a_node3"><a xlink:href="class_widget.html#aa6225b5a14e5861cc2cd98c737841854" target="_top" xlink:title="Widget::actualSize">
<polygon fill="#ffffff" stroke="#000000" points="286,-.5 286,-19.5 385,-19.5 385,-.5 286,-.5"/>
<text text-anchor="middle" x="335.5" y="-7.5" font-family="Helvetica,sans-Serif" font-size="10.00" fill="#000000">Widget::actualSize</text>
</a>
</g>
</g>
<!-- Node1&#45;&gt;Node2 -->
<g id="edge2" class="edge">
<title>Node1&#45;&gt;Node2</title>
<path fill="none" stroke="#191970" d="M250.1495,-10C258.1663,-10 266.8877,-10 275.5927,-10"/>
<polygon fill="#191970" stroke="#191970" points="275.7609,-13.5001 285.7609,-10 275.7608,-6.5001 275.7609,-13.5001"/>
</g>
</g>
</svg>
