<?xml version="1.0" encoding="UTF-8" standalone="no"?>
<!DOCTYPE svg PUBLIC "-//W3C//DTD SVG 1.1//EN"
 "http://www.w3.org/Graphics/SVG/1.1/DTD/svg11.dtd">
<!-- Generated by graphviz version 2.40.1 (20161225.0304)
 -->
<!-- Title: GridWidget::actualResize Pages: 1 -->
<svg width="274pt" height="46pt"
 viewBox="0.00 0.00 274.00 46.00" xmlns="http://www.w3.org/2000/svg" xmlns:xlink="http://www.w3.org/1999/xlink">
<g id="graph0" class="graph" transform="scale(1 1) rotate(0) translate(4 42)">
<title>GridWidget::actualResize</title>
<polygon fill="#ffffff" stroke="transparent" points="-4,4 -4,-42 270,-42 270,4 -4,4"/>
<!-- Node42 -->
<g id="node1" class="node">
<title>Node42</title>
<polygon fill="#bfbfbf" stroke="#000000" points="0,-.5 0,-19.5 128,-19.5 128,-.5 0,-.5"/>
<text text-anchor="middle" x="64" y="-7.5" font-family="Helvetica,sans-Serif" font-size="10.00" fill="#000000">GridWidget::actualResize</text>
</g>
<!-- Node43 -->
<g id="node2" class="node">
<title>Node43</title>
<g id="a_node2"><a xlink:href="class_widget.html#a210d4c8e3ea02cb777c6e3ad7fdc22b3" target="_top" xlink:title="Widget::callRedraw">
<polygon fill="#ffffff" stroke="#000000" points="164,-.5 164,-19.5 266,-19.5 266,-.5 164,-.5"/>
<text text-anchor="middle" x="215" y="-7.5" font-family="Helvetica,sans-Serif" font-size="10.00" fill="#000000">Widget::callRedraw</text>
</a>
</g>
</g>
<!-- Node42&#45;&gt;Node43 -->
<g id="edge1" class="edge">
<title>Node42&#45;&gt;Node43</title>
<path fill="none" stroke="#191970" d="M128.0376,-10C136.4952,-10 145.1492,-10 153.5618,-10"/>
<polygon fill="#191970" stroke="#191970" points="153.6742,-13.5001 163.6742,-10 153.6741,-6.5001 153.6742,-13.5001"/>
</g>
<!-- Node43&#45;&gt;Node43 -->
<g id="edge2" class="edge">
<title>Node43&#45;&gt;Node43</title>
<path fill="none" stroke="#191970" d="M191.8806,-19.7571C180.6334,-28.5653 188.3398,-38 215,-38 232.4957,-38 241.8288,-33.9368 242.9991,-28.6539"/>
<polygon fill="#191970" stroke="#191970" points="245.9971,-26.8417 238.1194,-19.7571 239.8597,-30.208 245.9971,-26.8417"/>
</g>
</g>
</svg>
