<?xml version="1.0" encoding="UTF-8" standalone="no"?>
<!DOCTYPE svg PUBLIC "-//W3C//DTD SVG 1.1//EN"
 "http://www.w3.org/Graphics/SVG/1.1/DTD/svg11.dtd">
<!-- Generated by graphviz version 2.40.1 (20161225.0304)
 -->
<!-- Title: Image::getImgPtr Pages: 1 -->
<svg width="798pt" height="28pt"
 viewBox="0.00 0.00 798.00 28.00" xmlns="http://www.w3.org/2000/svg" xmlns:xlink="http://www.w3.org/1999/xlink">
<g id="graph0" class="graph" transform="scale(1 1) rotate(0) translate(4 24)">
<title>Image::getImgPtr</title>
<polygon fill="#ffffff" stroke="transparent" points="-4,4 -4,-24 794,-24 794,4 -4,4"/>
<!-- Node5 -->
<g id="node1" class="node">
<title>Node5</title>
<polygon fill="#bfbfbf" stroke="#000000" points="0,-.5 0,-19.5 92,-19.5 92,-.5 0,-.5"/>
<text text-anchor="middle" x="46" y="-7.5" font-family="Helvetica,sans-Serif" font-size="10.00" fill="#000000">Image::getImgPtr</text>
</g>
<!-- Node6 -->
<g id="node2" class="node">
<title>Node6</title>
<g id="a_node2"><a xlink:href="class_image_widget.html#ac80b8e013edc3cda5e1413cbd174b2cb" target="_top" xlink:title="ImageWidget::actualRender">
<polygon fill="#ffffff" stroke="#000000" points="128,-.5 128,-19.5 266,-19.5 266,-.5 128,-.5"/>
<text text-anchor="middle" x="197" y="-7.5" font-family="Helvetica,sans-Serif" font-size="10.00" fill="#000000">ImageWidget::actualRender</text>
</a>
</g>
</g>
<!-- Node5&#45;&gt;Node6 -->
<g id="edge1" class="edge">
<title>Node5&#45;&gt;Node6</title>
<path fill="none" stroke="#191970" d="M102.1324,-10C110.4994,-10 119.2068,-10 127.8043,-10"/>
<polygon fill="#191970" stroke="#191970" points="102.1255,-6.5001 92.1255,-10 102.1254,-13.5001 102.1255,-6.5001"/>
</g>
<!-- Node7 -->
<g id="node3" class="node">
<title>Node7</title>
<g id="a_node3"><a xlink:href="class_image_widget.html#a5973a50de2ac39437934a09313af6af9" target="_top" xlink:title="ImageWidget::setSelectable">
<polygon fill="#ffffff" stroke="#000000" points="302,-.5 302,-19.5 442,-19.5 442,-.5 302,-.5"/>
<text text-anchor="middle" x="372" y="-7.5" font-family="Helvetica,sans-Serif" font-size="10.00" fill="#000000">ImageWidget::setSelectable</text>
</a>
</g>
</g>
<!-- Node6&#45;&gt;Node7 -->
<g id="edge2" class="edge">
<title>Node6&#45;&gt;Node7</title>
<path fill="none" stroke="#191970" d="M276.1693,-10C284.751,-10 293.4407,-10 301.9039,-10"/>
<polygon fill="#191970" stroke="#191970" points="276.1647,-6.5001 266.1646,-10 276.1646,-13.5001 276.1647,-6.5001"/>
</g>
<!-- Node8 -->
<g id="node4" class="node">
<title>Node8</title>
<g id="a_node4"><a xlink:href="class_application.html#a8f9f948d5439efe526f3219d85b29d7f" target="_top" xlink:title="Application::savePossibleTags">
<polygon fill="#ffffff" stroke="#000000" points="478,-.5 478,-19.5 629,-19.5 629,-.5 478,-.5"/>
<text text-anchor="middle" x="553.5" y="-7.5" font-family="Helvetica,sans-Serif" font-size="10.00" fill="#000000">Application::savePossibleTags</text>
</a>
</g>
</g>
<!-- Node7&#45;&gt;Node8 -->
<g id="edge3" class="edge">
<title>Node7&#45;&gt;Node8</title>
<path fill="none" stroke="#191970" d="M452.3939,-10C460.8392,-10 469.4057,-10 477.7958,-10"/>
<polygon fill="#191970" stroke="#191970" points="452.1727,-6.5001 442.1726,-10 452.1726,-13.5001 452.1727,-6.5001"/>
</g>
<!-- Node9 -->
<g id="node5" class="node">
<title>Node9</title>
<g id="a_node5"><a xlink:href="class_application.html#a748bca84fefb9c12661cfaa2f623748d" target="_top" xlink:title="Application::~Application">
<polygon fill="#ffffff" stroke="#000000" points="665,-.5 665,-19.5 790,-19.5 790,-.5 665,-.5"/>
<text text-anchor="middle" x="727.5" y="-7.5" font-family="Helvetica,sans-Serif" font-size="10.00" fill="#000000">Application::~Application</text>
</a>
</g>
</g>
<!-- Node8&#45;&gt;Node9 -->
<g id="edge4" class="edge">
<title>Node8&#45;&gt;Node9</title>
<path fill="none" stroke="#191970" d="M639.1685,-10C647.8039,-10 656.4568,-10 664.7867,-10"/>
<polygon fill="#191970" stroke="#191970" points="639.0598,-6.5001 629.0598,-10 639.0598,-13.5001 639.0598,-6.5001"/>
</g>
</g>
</svg>
