<?xml version="1.0" encoding="UTF-8" standalone="no"?>
<!DOCTYPE svg PUBLIC "-//W3C//DTD SVG 1.1//EN"
 "http://www.w3.org/Graphics/SVG/1.1/DTD/svg11.dtd">
<!-- Generated by graphviz version 2.40.1 (20161225.0304)
 -->
<!-- Title: WindowWidget::setCallBack Pages: 1 -->
<svg width="583pt" height="39pt"
 viewBox="0.00 0.00 583.00 39.00" xmlns="http://www.w3.org/2000/svg" xmlns:xlink="http://www.w3.org/1999/xlink">
<g id="graph0" class="graph" transform="scale(1 1) rotate(0) translate(4 35)">
<title>WindowWidget::setCallBack</title>
<polygon fill="#ffffff" stroke="transparent" points="-4,4 -4,-35 579,-35 579,4 -4,4"/>
<!-- Node62 -->
<g id="node1" class="node">
<title>Node62</title>
<polygon fill="#bfbfbf" stroke="#000000" points="0,-6 0,-25 142,-25 142,-6 0,-6"/>
<text text-anchor="middle" x="71" y="-13" font-family="Helvetica,sans-Serif" font-size="10.00" fill="#000000">WindowWidget::setCallBack</text>
</g>
<!-- Node63 -->
<g id="node2" class="node">
<title>Node63</title>
<g id="a_node2"><a xlink:href="class_window_widget.html#a010f6706afa1a7221312e1b9d854731a" target="_top" xlink:title="WindowWidget::spawnRight\lClickMenu">
<polygon fill="#ffffff" stroke="#000000" points="178,-.5 178,-30.5 318,-30.5 318,-.5 178,-.5"/>
<text text-anchor="start" x="186" y="-18.5" font-family="Helvetica,sans-Serif" font-size="10.00" fill="#000000">WindowWidget::spawnRight</text>
<text text-anchor="middle" x="248" y="-7.5" font-family="Helvetica,sans-Serif" font-size="10.00" fill="#000000">ClickMenu</text>
</a>
</g>
</g>
<!-- Node62&#45;&gt;Node63 -->
<g id="edge1" class="edge">
<title>Node62&#45;&gt;Node63</title>
<path fill="none" stroke="#191970" d="M142.2276,-15.5C150.5594,-15.5 159.1038,-15.5 167.5496,-15.5"/>
<polygon fill="#191970" stroke="#191970" points="167.7818,-19.0001 177.7818,-15.5 167.7817,-12.0001 167.7818,-19.0001"/>
</g>
<!-- Node64 -->
<g id="node3" class="node">
<title>Node64</title>
<g id="a_node3"><a xlink:href="class_widget.html#a0dd3c167cde2b8ef9ffbd95067fbb3f6" target="_top" xlink:title="Widget::setParent">
<polygon fill="#ffffff" stroke="#000000" points="354,-6 354,-25 449,-25 449,-6 354,-6"/>
<text text-anchor="middle" x="401.5" y="-13" font-family="Helvetica,sans-Serif" font-size="10.00" fill="#000000">Widget::setParent</text>
</a>
</g>
</g>
<!-- Node63&#45;&gt;Node64 -->
<g id="edge2" class="edge">
<title>Node63&#45;&gt;Node64</title>
<path fill="none" stroke="#191970" d="M318.0121,-15.5C326.6691,-15.5 335.4413,-15.5 343.8836,-15.5"/>
<polygon fill="#191970" stroke="#191970" points="343.9878,-19.0001 353.9878,-15.5 343.9877,-12.0001 343.9878,-19.0001"/>
</g>
<!-- Node65 -->
<g id="node4" class="node">
<title>Node65</title>
<g id="a_node4"><a xlink:href="class_widget.html#abe38c3c1fbcde4c705d76d58208ceb52" target="_top" xlink:title="Widget::~Widget">
<polygon fill="#ffffff" stroke="#000000" points="485,-6 485,-25 575,-25 575,-6 485,-6"/>
<text text-anchor="middle" x="530" y="-13" font-family="Helvetica,sans-Serif" font-size="10.00" fill="#000000">Widget::~Widget</text>
</a>
</g>
</g>
<!-- Node64&#45;&gt;Node65 -->
<g id="edge3" class="edge">
<title>Node64&#45;&gt;Node65</title>
<path fill="none" stroke="#191970" d="M449.3487,-15.5C457.5669,-15.5 466.1688,-15.5 474.5659,-15.5"/>
<polygon fill="#191970" stroke="#191970" points="474.6675,-19.0001 484.6675,-15.5 474.6674,-12.0001 474.6675,-19.0001"/>
</g>
</g>
</svg>
