<?xml version="1.0" encoding="UTF-8" standalone="no"?>
<!DOCTYPE svg PUBLIC "-//W3C//DTD SVG 1.1//EN"
 "http://www.w3.org/Graphics/SVG/1.1/DTD/svg11.dtd">
<!-- Generated by graphviz version 2.40.1 (20161225.0304)
 -->
<!-- Title: LayoutWidget Pages: 1 -->
<svg width="194pt" height="359pt"
 viewBox="0.00 0.00 194.00 359.00" xmlns="http://www.w3.org/2000/svg" xmlns:xlink="http://www.w3.org/1999/xlink">
<g id="graph0" class="graph" transform="scale(1 1) rotate(0) translate(4 355)">
<title>LayoutWidget</title>
<polygon fill="#ffffff" stroke="transparent" points="-4,4 -4,-355 190,-355 190,4 -4,4"/>
<!-- Node2 -->
<g id="node1" class="node">
<title>Node2</title>
<polygon fill="#bfbfbf" stroke="#000000" points="0,-.5 0,-101.5 127,-101.5 127,-.5 0,-.5"/>
<text text-anchor="middle" x="63.5" y="-89.5" font-family="Helvetica,sans-Serif" font-size="10.00" fill="#000000">LayoutWidget</text>
<polyline fill="none" stroke="#000000" points="0,-82.5 127,-82.5 "/>
<text text-anchor="middle" x="63.5" y="-70.5" font-family="Helvetica,sans-Serif" font-size="10.00" fill="#000000"> </text>
<polyline fill="none" stroke="#000000" points="0,-63.5 127,-63.5 "/>
<text text-anchor="start" x="8" y="-51.5" font-family="Helvetica,sans-Serif" font-size="10.00" fill="#000000">+ LayoutWidget()</text>
<text text-anchor="start" x="8" y="-40.5" font-family="Helvetica,sans-Serif" font-size="10.00" fill="#000000"># actualRender()</text>
<text text-anchor="start" x="8" y="-29.5" font-family="Helvetica,sans-Serif" font-size="10.00" fill="#000000"># actualResize()</text>
<text text-anchor="start" x="8" y="-18.5" font-family="Helvetica,sans-Serif" font-size="10.00" fill="#000000"># actualSize()</text>
<text text-anchor="start" x="8" y="-7.5" font-family="Helvetica,sans-Serif" font-size="10.00" fill="#000000"># actualPropagateEvent()</text>
</g>
<!-- Node3 -->
<g id="node2" class="node">
<title>Node3</title>
<g id="a_node2"><a xlink:href="class_widget.html" target="_top" xlink:title="API permettant la création d&#39;une interface graphique. ">
<polygon fill="#ffffff" stroke="#000000" points="0,-139.5 0,-350.5 127,-350.5 127,-139.5 0,-139.5"/>
<text text-anchor="middle" x="63.5" y="-338.5" font-family="Helvetica,sans-Serif" font-size="10.00" fill="#000000">Widget</text>
<polyline fill="none" stroke="#000000" points="0,-331.5 127,-331.5 "/>
<text text-anchor="middle" x="63.5" y="-319.5" font-family="Helvetica,sans-Serif" font-size="10.00" fill="#000000"> </text>
<polyline fill="none" stroke="#000000" points="0,-312.5 127,-312.5 "/>
<text text-anchor="start" x="8" y="-300.5" font-family="Helvetica,sans-Serif" font-size="10.00" fill="#000000">+ render()</text>
<text text-anchor="start" x="8" y="-289.5" font-family="Helvetica,sans-Serif" font-size="10.00" fill="#000000">+ resize()</text>
<text text-anchor="start" x="8" y="-278.5" font-family="Helvetica,sans-Serif" font-size="10.00" fill="#000000">+ size()</text>
<text text-anchor="start" x="8" y="-267.5" font-family="Helvetica,sans-Serif" font-size="10.00" fill="#000000">+ propagateEvent()</text>
<text text-anchor="start" x="8" y="-256.5" font-family="Helvetica,sans-Serif" font-size="10.00" fill="#000000">+ isInside()</text>
<text text-anchor="start" x="8" y="-245.5" font-family="Helvetica,sans-Serif" font-size="10.00" fill="#000000">+ setParent()</text>
<text text-anchor="start" x="8" y="-234.5" font-family="Helvetica,sans-Serif" font-size="10.00" fill="#000000">+ ~Widget()</text>
<text text-anchor="start" x="8" y="-223.5" font-family="Helvetica,sans-Serif" font-size="10.00" fill="#000000">+ callRedraw()</text>
<text text-anchor="start" x="8" y="-212.5" font-family="Helvetica,sans-Serif" font-size="10.00" fill="#000000">+ getWindow()</text>
<text text-anchor="start" x="8" y="-201.5" font-family="Helvetica,sans-Serif" font-size="10.00" fill="#000000">+ getWindow()</text>
<text text-anchor="start" x="8" y="-190.5" font-family="Helvetica,sans-Serif" font-size="10.00" fill="#000000"># actualRender()</text>
<text text-anchor="start" x="8" y="-179.5" font-family="Helvetica,sans-Serif" font-size="10.00" fill="#000000"># actualResize()</text>
<text text-anchor="start" x="8" y="-168.5" font-family="Helvetica,sans-Serif" font-size="10.00" fill="#000000"># actualSize()</text>
<text text-anchor="start" x="8" y="-157.5" font-family="Helvetica,sans-Serif" font-size="10.00" fill="#000000"># actualPropagateEvent()</text>
<text text-anchor="start" x="8" y="-146.5" font-family="Helvetica,sans-Serif" font-size="10.00" fill="#000000"># actualIsInside()</text>
</a>
</g>
</g>
<!-- Node3&#45;&gt;Node2 -->
<g id="edge1" class="edge">
<title>Node3&#45;&gt;Node2</title>
<path fill="none" stroke="#191970" d="M63.5,-129.3702C63.5,-119.7372 63.5,-110.3588 63.5,-101.6347"/>
<polygon fill="none" stroke="#191970" points="60.0001,-129.4843 63.5,-139.4844 67.0001,-129.4844 60.0001,-129.4843"/>
</g>
<!-- Node3&#45;&gt;Node3 -->
<g id="edge2" class="edge">
<title>Node3&#45;&gt;Node3</title>
<path fill="none" stroke="#404040" d="M127.058,-266.6096C137.6744,-263.586 145,-256.3828 145,-245 145,-238.0636 142.2797,-232.6793 137.7522,-228.847"/>
<polygon fill="none" stroke="#404040" points="137.7471,-228.8444 130.5846,-229.6804 127.058,-223.3904 134.2205,-222.5544 137.7471,-228.8444"/>
<text text-anchor="middle" x="165.5" y="-242.5" font-family="Helvetica,sans-Serif" font-size="10.00" fill="#000000"> #parent_</text>
</g>
</g>
</svg>
