<?xml version="1.0" encoding="UTF-8" standalone="no"?>
<!DOCTYPE svg PUBLIC "-//W3C//DTD SVG 1.1//EN"
 "http://www.w3.org/Graphics/SVG/1.1/DTD/svg11.dtd">
<!-- Generated by graphviz version 2.40.1 (20161225.0304)
 -->
<!-- Title: TagViewerWidget Pages: 1 -->
<svg width="195pt" height="359pt"
 viewBox="0.00 0.00 194.50 359.00" xmlns="http://www.w3.org/2000/svg" xmlns:xlink="http://www.w3.org/1999/xlink">
<g id="graph0" class="graph" transform="scale(1 1) rotate(0) translate(4 355)">
<title>TagViewerWidget</title>
<polygon fill="#ffffff" stroke="transparent" points="-4,4 -4,-355 190.5,-355 190.5,4 -4,4"/>
<!-- Node2 -->
<g id="node1" class="node">
<title>Node2</title>
<polygon fill="#bfbfbf" stroke="#000000" points="0,-.5 0,-101.5 128,-101.5 128,-.5 0,-.5"/>
<text text-anchor="middle" x="64" y="-89.5" font-family="Helvetica,sans-Serif" font-size="10.00" fill="#000000">TagViewerWidget</text>
<polyline fill="none" stroke="#000000" points="0,-82.5 128,-82.5 "/>
<text text-anchor="middle" x="64" y="-70.5" font-family="Helvetica,sans-Serif" font-size="10.00" fill="#000000"> </text>
<polyline fill="none" stroke="#000000" points="0,-63.5 128,-63.5 "/>
<text text-anchor="start" x="8" y="-51.5" font-family="Helvetica,sans-Serif" font-size="10.00" fill="#000000">+ TagViewerWidget()</text>
<text text-anchor="start" x="8" y="-40.5" font-family="Helvetica,sans-Serif" font-size="10.00" fill="#000000">+ actualRender()</text>
<text text-anchor="start" x="8" y="-29.5" font-family="Helvetica,sans-Serif" font-size="10.00" fill="#000000">+ actualResize()</text>
<text text-anchor="start" x="8" y="-18.5" font-family="Helvetica,sans-Serif" font-size="10.00" fill="#000000">+ actualSize()</text>
<text text-anchor="start" x="8" y="-7.5" font-family="Helvetica,sans-Serif" font-size="10.00" fill="#000000">+ actualPropagateEvent()</text>
</g>
<!-- Node3 -->
<g id="node2" class="node">
<title>Node3</title>
<g id="a_node2"><a xlink:href="class_widget.html" target="_top" xlink:title="API permettant la création d&#39;une interface graphique. ">
<polygon fill="#ffffff" stroke="#000000" points=".5,-139.5 .5,-350.5 127.5,-350.5 127.5,-139.5 .5,-139.5"/>
<text text-anchor="middle" x="64" y="-338.5" font-family="Helvetica,sans-Serif" font-size="10.00" fill="#000000">Widget</text>
<polyline fill="none" stroke="#000000" points=".5,-331.5 127.5,-331.5 "/>
<text text-anchor="middle" x="64" y="-319.5" font-family="Helvetica,sans-Serif" font-size="10.00" fill="#000000"> </text>
<polyline fill="none" stroke="#000000" points=".5,-312.5 127.5,-312.5 "/>
<text text-anchor="start" x="8.5" y="-300.5" font-family="Helvetica,sans-Serif" font-size="10.00" fill="#000000">+ render()</text>
<text text-anchor="start" x="8.5" y="-289.5" font-family="Helvetica,sans-Serif" font-size="10.00" fill="#000000">+ resize()</text>
<text text-anchor="start" x="8.5" y="-278.5" font-family="Helvetica,sans-Serif" font-size="10.00" fill="#000000">+ size()</text>
<text text-anchor="start" x="8.5" y="-267.5" font-family="Helvetica,sans-Serif" font-size="10.00" fill="#000000">+ propagateEvent()</text>
<text text-anchor="start" x="8.5" y="-256.5" font-family="Helvetica,sans-Serif" font-size="10.00" fill="#000000">+ isInside()</text>
<text text-anchor="start" x="8.5" y="-245.5" font-family="Helvetica,sans-Serif" font-size="10.00" fill="#000000">+ setParent()</text>
<text text-anchor="start" x="8.5" y="-234.5" font-family="Helvetica,sans-Serif" font-size="10.00" fill="#000000">+ ~Widget()</text>
<text text-anchor="start" x="8.5" y="-223.5" font-family="Helvetica,sans-Serif" font-size="10.00" fill="#000000">+ callRedraw()</text>
<text text-anchor="start" x="8.5" y="-212.5" font-family="Helvetica,sans-Serif" font-size="10.00" fill="#000000">+ getWindow()</text>
<text text-anchor="start" x="8.5" y="-201.5" font-family="Helvetica,sans-Serif" font-size="10.00" fill="#000000">+ getWindow()</text>
<text text-anchor="start" x="8.5" y="-190.5" font-family="Helvetica,sans-Serif" font-size="10.00" fill="#000000"># actualRender()</text>
<text text-anchor="start" x="8.5" y="-179.5" font-family="Helvetica,sans-Serif" font-size="10.00" fill="#000000"># actualResize()</text>
<text text-anchor="start" x="8.5" y="-168.5" font-family="Helvetica,sans-Serif" font-size="10.00" fill="#000000"># actualSize()</text>
<text text-anchor="start" x="8.5" y="-157.5" font-family="Helvetica,sans-Serif" font-size="10.00" fill="#000000"># actualPropagateEvent()</text>
<text text-anchor="start" x="8.5" y="-146.5" font-family="Helvetica,sans-Serif" font-size="10.00" fill="#000000"># actualIsInside()</text>
</a>
</g>
</g>
<!-- Node3&#45;&gt;Node2 -->
<g id="edge1" class="edge">
<title>Node3&#45;&gt;Node2</title>
<path fill="none" stroke="#191970" d="M64,-129.3702C64,-119.7372 64,-110.3588 64,-101.6347"/>
<polygon fill="none" stroke="#191970" points="60.5001,-129.4843 64,-139.4844 67.5001,-129.4844 60.5001,-129.4843"/>
</g>
<!-- Node3&#45;&gt;Node3 -->
<g id="edge2" class="edge">
<title>Node3&#45;&gt;Node3</title>
<path fill="none" stroke="#404040" d="M127.558,-266.6096C138.1744,-263.586 145.5,-256.3828 145.5,-245 145.5,-238.0636 142.7797,-232.6793 138.2522,-228.847"/>
<polygon fill="none" stroke="#404040" points="138.2471,-228.8444 131.0846,-229.6804 127.558,-223.3904 134.7205,-222.5544 138.2471,-228.8444"/>
<text text-anchor="middle" x="166" y="-242.5" font-family="Helvetica,sans-Serif" font-size="10.00" fill="#000000"> #parent_</text>
</g>
</g>
</svg>
