<?xml version="1.0" encoding="UTF-8" standalone="no"?>
<!DOCTYPE svg PUBLIC "-//W3C//DTD SVG 1.1//EN"
 "http://www.w3.org/Graphics/SVG/1.1/DTD/svg11.dtd">
<!-- Generated by graphviz version 2.40.1 (20161225.0304)
 -->
<!-- Title: IteratorBase::operator++ Pages: 1 -->
<svg width="290pt" height="78pt"
 viewBox="0.00 0.00 290.00 77.50" xmlns="http://www.w3.org/2000/svg" xmlns:xlink="http://www.w3.org/1999/xlink">
<g id="graph0" class="graph" transform="scale(1 1) rotate(0) translate(4 73.5)">
<title>IteratorBase::operator++</title>
<polygon fill="#ffffff" stroke="transparent" points="-4,4 -4,-73.5 286,-73.5 286,4 -4,4"/>
<!-- Node19 -->
<g id="node1" class="node">
<title>Node19</title>
<polygon fill="#bfbfbf" stroke="#000000" points="0,-28 0,-47 123,-47 123,-28 0,-28"/>
<text text-anchor="middle" x="61.5" y="-35" font-family="Helvetica,sans-Serif" font-size="10.00" fill="#000000">IteratorBase::operator++</text>
</g>
<!-- Node20 -->
<g id="node2" class="node">
<title>Node20</title>
<g id="a_node2"><a xlink:href="class_iterator_base.html#a7475728422cb73f91d1c4cb4c3d07499" target="_top" xlink:title="IteratorBase::operator==">
<polygon fill="#ffffff" stroke="#000000" points="159,-50 159,-69 282,-69 282,-50 159,-50"/>
<text text-anchor="middle" x="220.5" y="-57" font-family="Helvetica,sans-Serif" font-size="10.00" fill="#000000">IteratorBase::operator==</text>
</a>
</g>
</g>
<!-- Node19&#45;&gt;Node20 -->
<g id="edge1" class="edge">
<title>Node19&#45;&gt;Node20</title>
<path fill="none" stroke="#191970" d="M133.5919,-47.475C141.9898,-48.637 150.499,-49.8143 158.7402,-50.9546"/>
<polygon fill="#191970" stroke="#191970" points="133.8142,-43.9725 123.4288,-46.0688 132.8547,-50.9064 133.8142,-43.9725"/>
</g>
<!-- Node21 -->
<g id="node3" class="node">
<title>Node21</title>
<g id="a_node3"><a xlink:href="class_const_iterator_base.html#a584d54dbb1730a6d066a6935474ded25" target="_top" xlink:title="ConstIteratorBase::\loperator==">
<polygon fill="#ffffff" stroke="#000000" points="169.5,-.5 169.5,-30.5 271.5,-30.5 271.5,-.5 169.5,-.5"/>
<text text-anchor="start" x="177.5" y="-18.5" font-family="Helvetica,sans-Serif" font-size="10.00" fill="#000000">ConstIteratorBase::</text>
<text text-anchor="middle" x="220.5" y="-7.5" font-family="Helvetica,sans-Serif" font-size="10.00" fill="#000000">operator==</text>
</a>
</g>
</g>
<!-- Node19&#45;&gt;Node21 -->
<g id="edge2" class="edge">
<title>Node19&#45;&gt;Node21</title>
<path fill="none" stroke="#191970" d="M133.4899,-27.5391C145.562,-25.8688 157.8671,-24.1662 169.2785,-22.5873"/>
<polygon fill="#191970" stroke="#191970" points="132.8547,-24.0936 123.4288,-28.9312 133.8142,-31.0275 132.8547,-24.0936"/>
</g>
</g>
</svg>
