<?xml version="1.0" encoding="UTF-8" standalone="no"?>
<!DOCTYPE svg PUBLIC "-//W3C//DTD SVG 1.1//EN"
 "http://www.w3.org/Graphics/SVG/1.1/DTD/svg11.dtd">
<!-- Generated by graphviz version 2.40.1 (20161225.0304)
 -->
<!-- Title: Image::loadImage Pages: 1 -->
<svg width="595pt" height="104pt"
 viewBox="0.00 0.00 595.00 104.00" xmlns="http://www.w3.org/2000/svg" xmlns:xlink="http://www.w3.org/1999/xlink">
<g id="graph0" class="graph" transform="scale(1 1) rotate(0) translate(4 100)">
<title>Image::loadImage</title>
<polygon fill="#ffffff" stroke="transparent" points="-4,4 -4,-100 591,-100 591,4 -4,4"/>
<!-- Node34 -->
<g id="node1" class="node">
<title>Node34</title>
<polygon fill="#bfbfbf" stroke="#000000" points="0,-38.5 0,-57.5 95,-57.5 95,-38.5 0,-38.5"/>
<text text-anchor="middle" x="47.5" y="-45.5" font-family="Helvetica,sans-Serif" font-size="10.00" fill="#000000">Image::loadImage</text>
</g>
<!-- Node35 -->
<g id="node2" class="node">
<title>Node35</title>
<g id="a_node2"><a xlink:href="_utilities_8cpp.html#a6d03d2391c95cb176a80f11be628e6a9" target="_top" xlink:title="createPoolFromSave">
<polygon fill="#ffffff" stroke="#000000" points="131,-76.5 131,-95.5 239,-95.5 239,-76.5 131,-76.5"/>
<text text-anchor="middle" x="185" y="-83.5" font-family="Helvetica,sans-Serif" font-size="10.00" fill="#000000">createPoolFromSave</text>
</a>
</g>
</g>
<!-- Node34&#45;&gt;Node35 -->
<g id="edge1" class="edge">
<title>Node34&#45;&gt;Node35</title>
<path fill="none" stroke="#191970" d="M92.0729,-60.3183C110.9645,-65.5393 132.6472,-71.5316 150.314,-76.4141"/>
<polygon fill="#191970" stroke="#191970" points="92.7681,-56.8793 82.1971,-57.589 90.9034,-63.6264 92.7681,-56.8793"/>
</g>
<!-- Node39 -->
<g id="node6" class="node">
<title>Node39</title>
<g id="a_node6"><a xlink:href="_utilities_8cpp.html#a5ce6411f7ab365cdf958f8f16e773d05" target="_top" xlink:title="importFromDirectory">
<polygon fill="#ffffff" stroke="#000000" points="132,-38.5 132,-57.5 238,-57.5 238,-38.5 132,-38.5"/>
<text text-anchor="middle" x="185" y="-45.5" font-family="Helvetica,sans-Serif" font-size="10.00" fill="#000000">importFromDirectory</text>
</a>
</g>
</g>
<!-- Node34&#45;&gt;Node39 -->
<g id="edge5" class="edge">
<title>Node34&#45;&gt;Node39</title>
<path fill="none" stroke="#191970" d="M105.3343,-48C114.0878,-48 123.0836,-48 131.7344,-48"/>
<polygon fill="#191970" stroke="#191970" points="105.205,-44.5001 95.2049,-48 105.2049,-51.5001 105.205,-44.5001"/>
</g>
<!-- Node40 -->
<g id="node7" class="node">
<title>Node40</title>
<g id="a_node7"><a xlink:href="class_image.html#a1d3c73cbf4af1f1973fdf6c3c00e2301" target="_top" xlink:title="Image::setImgPtr">
<polygon fill="#ffffff" stroke="#000000" points="139,-.5 139,-19.5 231,-19.5 231,-.5 139,-.5"/>
<text text-anchor="middle" x="185" y="-7.5" font-family="Helvetica,sans-Serif" font-size="10.00" fill="#000000">Image::setImgPtr</text>
</a>
</g>
</g>
<!-- Node34&#45;&gt;Node40 -->
<g id="edge7" class="edge">
<title>Node34&#45;&gt;Node40</title>
<path fill="none" stroke="#191970" d="M92.0729,-35.6817C110.9645,-30.4607 132.6472,-24.4684 150.314,-19.5859"/>
<polygon fill="#191970" stroke="#191970" points="90.9034,-32.3736 82.1971,-38.411 92.7681,-39.1207 90.9034,-32.3736"/>
</g>
<!-- Node36 -->
<g id="node3" class="node">
<title>Node36</title>
<g id="a_node3"><a xlink:href="_utilities_8cpp.html#a46270f4fab8fe8d4f01b9c7cb8fdb75c" target="_top" xlink:title="createPoolFromDirectory">
<polygon fill="#ffffff" stroke="#000000" points="288,-76.5 288,-95.5 413,-95.5 413,-76.5 288,-76.5"/>
<text text-anchor="middle" x="350.5" y="-83.5" font-family="Helvetica,sans-Serif" font-size="10.00" fill="#000000">createPoolFromDirectory</text>
</a>
</g>
</g>
<!-- Node35&#45;&gt;Node36 -->
<g id="edge2" class="edge">
<title>Node35&#45;&gt;Node36</title>
<path fill="none" stroke="#191970" d="M249.2145,-86C261.9075,-86 275.2139,-86 287.8541,-86"/>
<polygon fill="#191970" stroke="#191970" points="249.1909,-82.5001 239.1909,-86 249.1909,-89.5001 249.1909,-82.5001"/>
</g>
<!-- Node37 -->
<g id="node4" class="node">
<title>Node37</title>
<g id="a_node4"><a xlink:href="class_application.html#a8f9f948d5439efe526f3219d85b29d7f" target="_top" xlink:title="Enregistre la liste des tags accéssibles à l&#39;utilisateur. ">
<polygon fill="#ffffff" stroke="#000000" points="275,-38.5 275,-57.5 426,-57.5 426,-38.5 275,-38.5"/>
<text text-anchor="middle" x="350.5" y="-45.5" font-family="Helvetica,sans-Serif" font-size="10.00" fill="#000000">Application::savePossibleTags</text>
</a>
</g>
</g>
<!-- Node35&#45;&gt;Node37 -->
<g id="edge3" class="edge">
<title>Node35&#45;&gt;Node37</title>
<path fill="none" stroke="#191970" d="M236.8105,-74.1039C260.0733,-68.7626 287.1469,-62.5463 309.0377,-57.5201"/>
<polygon fill="#191970" stroke="#191970" points="235.7258,-70.7618 226.7626,-76.411 237.2923,-77.5843 235.7258,-70.7618"/>
</g>
<!-- Node38 -->
<g id="node5" class="node">
<title>Node38</title>
<g id="a_node5"><a xlink:href="class_application.html#a748bca84fefb9c12661cfaa2f623748d" target="_top" xlink:title="Effectue une sauvegarde de la collection et enregistre les tags. ">
<polygon fill="#ffffff" stroke="#000000" points="462,-38.5 462,-57.5 587,-57.5 587,-38.5 462,-38.5"/>
<text text-anchor="middle" x="524.5" y="-45.5" font-family="Helvetica,sans-Serif" font-size="10.00" fill="#000000">Application::~Application</text>
</a>
</g>
</g>
<!-- Node37&#45;&gt;Node38 -->
<g id="edge4" class="edge">
<title>Node37&#45;&gt;Node38</title>
<path fill="none" stroke="#191970" d="M436.1685,-48C444.8039,-48 453.4568,-48 461.7867,-48"/>
<polygon fill="#191970" stroke="#191970" points="436.0598,-44.5001 426.0598,-48 436.0598,-51.5001 436.0598,-44.5001"/>
</g>
<!-- Node39&#45;&gt;Node37 -->
<g id="edge6" class="edge">
<title>Node39&#45;&gt;Node37</title>
<path fill="none" stroke="#191970" d="M248.5525,-48C257.117,-48 265.9719,-48 274.722,-48"/>
<polygon fill="#191970" stroke="#191970" points="248.2763,-44.5001 238.2762,-48 248.2762,-51.5001 248.2763,-44.5001"/>
</g>
</g>
</svg>
