<?xml version="1.0" encoding="UTF-8" standalone="no"?>
<!DOCTYPE svg PUBLIC "-//W3C//DTD SVG 1.1//EN"
 "http://www.w3.org/Graphics/SVG/1.1/DTD/svg11.dtd">
<!-- Generated by graphviz version 2.40.1 (20161225.0304)
 -->
<!-- Title: Collection&lt; T &gt; Pages: 1 -->
<svg width="246pt" height="325pt"
 viewBox="0.00 0.00 246.00 325.00" xmlns="http://www.w3.org/2000/svg" xmlns:xlink="http://www.w3.org/1999/xlink">
<g id="graph0" class="graph" transform="scale(1 1) rotate(0) translate(4 321)">
<title>Collection&lt; T &gt;</title>
<polygon fill="#ffffff" stroke="transparent" points="-4,4 -4,-321 242,-321 242,4 -4,4"/>
<!-- Node0 -->
<g id="node1" class="node">
<title>Node0</title>
<polygon fill="#bfbfbf" stroke="#000000" points="74,-226.5 74,-316.5 158,-316.5 158,-226.5 74,-226.5"/>
<text text-anchor="middle" x="116" y="-304.5" font-family="Helvetica,sans-Serif" font-size="10.00" fill="#000000">Collection&lt; T &gt;</text>
<polyline fill="none" stroke="#000000" points="74,-297.5 158,-297.5 "/>
<text text-anchor="middle" x="116" y="-285.5" font-family="Helvetica,sans-Serif" font-size="10.00" fill="#000000"> </text>
<polyline fill="none" stroke="#000000" points="74,-278.5 158,-278.5 "/>
<text text-anchor="start" x="82" y="-266.5" font-family="Helvetica,sans-Serif" font-size="10.00" fill="#000000">+ Collection()</text>
<text text-anchor="start" x="82" y="-255.5" font-family="Helvetica,sans-Serif" font-size="10.00" fill="#000000">+ ~Collection()</text>
<text text-anchor="start" x="82" y="-244.5" font-family="Helvetica,sans-Serif" font-size="10.00" fill="#000000">+ begin()</text>
<text text-anchor="start" x="82" y="-233.5" font-family="Helvetica,sans-Serif" font-size="10.00" fill="#000000">+ end()</text>
</g>
<!-- Node1 -->
<g id="node2" class="node">
<title>Node1</title>
<g id="a_node2"><a xlink:href="class_collection_pool.html" target="_top" xlink:title="{CollectionPool\&lt; T \&gt;\n||+ CollectionPool()\l+ CollectionPool()\l+ CollectionPool()\l+ empty()\l+ size()\l+ max_size()\l+ reserve()\l+ capacity()\l+ shrink_to_fit()\l+ push_back()\l+ push_back()\l+ begin()\l+ end()\l}">
<polygon fill="#ffffff" stroke="#000000" points="0,-.5 0,-189.5 104,-189.5 104,-.5 0,-.5"/>
<text text-anchor="middle" x="52" y="-177.5" font-family="Helvetica,sans-Serif" font-size="10.00" fill="#000000">CollectionPool&lt; T &gt;</text>
<polyline fill="none" stroke="#000000" points="0,-170.5 104,-170.5 "/>
<text text-anchor="middle" x="52" y="-158.5" font-family="Helvetica,sans-Serif" font-size="10.00" fill="#000000"> </text>
<polyline fill="none" stroke="#000000" points="0,-151.5 104,-151.5 "/>
<text text-anchor="start" x="8" y="-139.5" font-family="Helvetica,sans-Serif" font-size="10.00" fill="#000000">+ CollectionPool()</text>
<text text-anchor="start" x="8" y="-128.5" font-family="Helvetica,sans-Serif" font-size="10.00" fill="#000000">+ CollectionPool()</text>
<text text-anchor="start" x="8" y="-117.5" font-family="Helvetica,sans-Serif" font-size="10.00" fill="#000000">+ CollectionPool()</text>
<text text-anchor="start" x="8" y="-106.5" font-family="Helvetica,sans-Serif" font-size="10.00" fill="#000000">+ empty()</text>
<text text-anchor="start" x="8" y="-95.5" font-family="Helvetica,sans-Serif" font-size="10.00" fill="#000000">+ size()</text>
<text text-anchor="start" x="8" y="-84.5" font-family="Helvetica,sans-Serif" font-size="10.00" fill="#000000">+ max_size()</text>
<text text-anchor="start" x="8" y="-73.5" font-family="Helvetica,sans-Serif" font-size="10.00" fill="#000000">+ reserve()</text>
<text text-anchor="start" x="8" y="-62.5" font-family="Helvetica,sans-Serif" font-size="10.00" fill="#000000">+ capacity()</text>
<text text-anchor="start" x="8" y="-51.5" font-family="Helvetica,sans-Serif" font-size="10.00" fill="#000000">+ shrink_to_fit()</text>
<text text-anchor="start" x="8" y="-40.5" font-family="Helvetica,sans-Serif" font-size="10.00" fill="#000000">+ push_back()</text>
<text text-anchor="start" x="8" y="-29.5" font-family="Helvetica,sans-Serif" font-size="10.00" fill="#000000">+ push_back()</text>
<text text-anchor="start" x="8" y="-18.5" font-family="Helvetica,sans-Serif" font-size="10.00" fill="#000000">+ begin()</text>
<text text-anchor="start" x="8" y="-7.5" font-family="Helvetica,sans-Serif" font-size="10.00" fill="#000000">+ end()</text>
</a>
</g>
</g>
<!-- Node0&#45;&gt;Node1 -->
<g id="edge1" class="edge">
<title>Node0&#45;&gt;Node1</title>
<path fill="none" stroke="#191970" d="M96.0848,-216.5777C92.9694,-207.986 89.6749,-198.9002 86.3463,-189.7206"/>
<polygon fill="none" stroke="#191970" points="92.8191,-217.8389 99.5184,-226.0469 99.3998,-215.4527 92.8191,-217.8389"/>
</g>
<!-- Node2 -->
<g id="node3" class="node">
<title>Node2</title>
<g id="a_node3"><a xlink:href="class_filtered_collection.html" target="_top" xlink:title="{FilteredCollection\&lt; T \&gt;\n||+ FilteredCollection()\l+ begin()\l+ end()\l}">
<polygon fill="#ffffff" stroke="#000000" points="122,-55.5 122,-134.5 238,-134.5 238,-55.5 122,-55.5"/>
<text text-anchor="middle" x="180" y="-122.5" font-family="Helvetica,sans-Serif" font-size="10.00" fill="#000000">FilteredCollection&lt; T &gt;</text>
<polyline fill="none" stroke="#000000" points="122,-115.5 238,-115.5 "/>
<text text-anchor="middle" x="180" y="-103.5" font-family="Helvetica,sans-Serif" font-size="10.00" fill="#000000"> </text>
<polyline fill="none" stroke="#000000" points="122,-96.5 238,-96.5 "/>
<text text-anchor="start" x="130" y="-84.5" font-family="Helvetica,sans-Serif" font-size="10.00" fill="#000000">+ FilteredCollection()</text>
<text text-anchor="start" x="130" y="-73.5" font-family="Helvetica,sans-Serif" font-size="10.00" fill="#000000">+ begin()</text>
<text text-anchor="start" x="130" y="-62.5" font-family="Helvetica,sans-Serif" font-size="10.00" fill="#000000">+ end()</text>
</a>
</g>
</g>
<!-- Node0&#45;&gt;Node2 -->
<g id="edge2" class="edge">
<title>Node0&#45;&gt;Node2</title>
<path fill="none" stroke="#191970" d="M135.9407,-216.5072C145.5605,-189.9778 156.8833,-158.7516 165.6415,-134.598"/>
<polygon fill="none" stroke="#191970" points="132.6002,-215.4527 132.4816,-226.0469 139.1809,-217.8389 132.6002,-215.4527"/>
</g>
</g>
</svg>
