<?xml version="1.0" encoding="UTF-8" standalone="no"?>
<!DOCTYPE svg PUBLIC "-//W3C//DTD SVG 1.1//EN"
 "http://www.w3.org/Graphics/SVG/1.1/DTD/svg11.dtd">
<!-- Generated by graphviz version 2.40.1 (20161225.0304)
 -->
<!-- Title: MenuBarWidget::actualResize Pages: 1 -->
<svg width="430pt" height="84pt"
 viewBox="0.00 0.00 430.00 84.00" xmlns="http://www.w3.org/2000/svg" xmlns:xlink="http://www.w3.org/1999/xlink">
<g id="graph0" class="graph" transform="scale(1 1) rotate(0) translate(4 80)">
<title>MenuBarWidget::actualResize</title>
<polygon fill="#ffffff" stroke="transparent" points="-4,4 -4,-80 426,-80 426,4 -4,4"/>
<!-- Node11 -->
<g id="node1" class="node">
<title>Node11</title>
<polygon fill="#bfbfbf" stroke="#000000" points="0,-19.5 0,-38.5 149,-38.5 149,-19.5 0,-19.5"/>
<text text-anchor="middle" x="74.5" y="-26.5" font-family="Helvetica,sans-Serif" font-size="10.00" fill="#000000">MenuBarWidget::actualResize</text>
</g>
<!-- Node12 -->
<g id="node2" class="node">
<title>Node12</title>
<g id="a_node2"><a xlink:href="class_widget.html#a210d4c8e3ea02cb777c6e3ad7fdc22b3" target="_top" xlink:title="Widget::callRedraw">
<polygon fill="#ffffff" stroke="#000000" points="185,-38.5 185,-57.5 287,-57.5 287,-38.5 185,-38.5"/>
<text text-anchor="middle" x="236" y="-45.5" font-family="Helvetica,sans-Serif" font-size="10.00" fill="#000000">Widget::callRedraw</text>
</a>
</g>
</g>
<!-- Node11&#45;&gt;Node12 -->
<g id="edge1" class="edge">
<title>Node11&#45;&gt;Node12</title>
<path fill="none" stroke="#191970" d="M149.1044,-37.777C157.683,-38.7862 166.3547,-39.8064 174.7291,-40.7917"/>
<polygon fill="#191970" stroke="#191970" points="174.4299,-44.2805 184.7704,-41.973 175.2479,-37.3285 174.4299,-44.2805"/>
</g>
<!-- Node13 -->
<g id="node3" class="node">
<title>Node13</title>
<g id="a_node3"><a xlink:href="class_widget.html#aea985c025ef9b1210d0e3ab7d9c075ea" target="_top" xlink:title="Widget::size">
<polygon fill="#ffffff" stroke="#000000" points="200.5,-.5 200.5,-19.5 271.5,-19.5 271.5,-.5 200.5,-.5"/>
<text text-anchor="middle" x="236" y="-7.5" font-family="Helvetica,sans-Serif" font-size="10.00" fill="#000000">Widget::size</text>
</a>
</g>
</g>
<!-- Node11&#45;&gt;Node13 -->
<g id="edge3" class="edge">
<title>Node11&#45;&gt;Node13</title>
<path fill="none" stroke="#191970" d="M149.1044,-20.223C163.1908,-18.5658 177.528,-16.8791 190.3881,-15.3661"/>
<polygon fill="#191970" stroke="#191970" points="190.8294,-18.8384 200.352,-14.1939 190.0115,-11.8864 190.8294,-18.8384"/>
</g>
<!-- Node12&#45;&gt;Node12 -->
<g id="edge2" class="edge">
<title>Node12&#45;&gt;Node12</title>
<path fill="none" stroke="#191970" d="M215.0385,-57.7571C204.8409,-66.5653 211.8281,-76 236,-76 251.4851,-76 259.9176,-72.128 261.2975,-67.0292"/>
<polygon fill="#191970" stroke="#191970" points="264.3681,-65.3329 256.9615,-57.7571 258.0272,-68.2982 264.3681,-65.3329"/>
</g>
<!-- Node14 -->
<g id="node4" class="node">
<title>Node14</title>
<g id="a_node4"><a xlink:href="class_widget.html#aa6225b5a14e5861cc2cd98c737841854" target="_top" xlink:title="Widget::actualSize">
<polygon fill="#ffffff" stroke="#000000" points="323,-.5 323,-19.5 422,-19.5 422,-.5 323,-.5"/>
<text text-anchor="middle" x="372.5" y="-7.5" font-family="Helvetica,sans-Serif" font-size="10.00" fill="#000000">Widget::actualSize</text>
</a>
</g>
</g>
<!-- Node13&#45;&gt;Node14 -->
<g id="edge4" class="edge">
<title>Node13&#45;&gt;Node14</title>
<path fill="none" stroke="#191970" d="M271.5074,-10C284.0932,-10 298.6258,-10 312.6748,-10"/>
<polygon fill="#191970" stroke="#191970" points="312.7845,-13.5001 322.7844,-10 312.7844,-6.5001 312.7845,-13.5001"/>
</g>
</g>
</svg>
