<?xml version="1.0" encoding="UTF-8" standalone="no"?>
<!DOCTYPE svg PUBLIC "-//W3C//DTD SVG 1.1//EN"
 "http://www.w3.org/Graphics/SVG/1.1/DTD/svg11.dtd">
<!-- Generated by graphviz version 2.40.1 (20161225.0304)
 -->
<!-- Title: Collection::begin Pages: 1 -->
<svg width="456pt" height="203pt"
 viewBox="0.00 0.00 456.00 202.50" xmlns="http://www.w3.org/2000/svg" xmlns:xlink="http://www.w3.org/1999/xlink">
<g id="graph0" class="graph" transform="scale(1 1) rotate(0) translate(4 198.5)">
<title>Collection::begin</title>
<polygon fill="#ffffff" stroke="transparent" points="-4,4 -4,-198.5 452,-198.5 452,4 -4,4"/>
<!-- Node5 -->
<g id="node1" class="node">
<title>Node5</title>
<polygon fill="#bfbfbf" stroke="#000000" points="0,-76.5 0,-95.5 89,-95.5 89,-76.5 0,-76.5"/>
<text text-anchor="middle" x="44.5" y="-83.5" font-family="Helvetica,sans-Serif" font-size="10.00" fill="#000000">Collection::begin</text>
</g>
<!-- Node6 -->
<g id="node2" class="node">
<title>Node6</title>
<g id="a_node2"><a xlink:href="class_tag_setter_widget.html#abe01670c331fe101bc3977e1de15ae5d" target="_top" xlink:title="TagSetterWidget::actualPropagate\lEvent">
<polygon fill="#ffffff" stroke="#000000" points="125,-164 125,-194 292,-194 292,-164 125,-164"/>
<text text-anchor="start" x="133" y="-182" font-family="Helvetica,sans-Serif" font-size="10.00" fill="#000000">TagSetterWidget::actualPropagate</text>
<text text-anchor="middle" x="208.5" y="-171" font-family="Helvetica,sans-Serif" font-size="10.00" fill="#000000">Event</text>
</a>
</g>
</g>
<!-- Node5&#45;&gt;Node6 -->
<g id="edge1" class="edge">
<title>Node5&#45;&gt;Node6</title>
<path fill="none" stroke="#191970" d="M60.4796,-103.4305C75.6757,-119.0302 99.8861,-141.467 125,-155 131.2408,-158.3629 138.0046,-161.3 144.8889,-163.8542"/>
<polygon fill="#191970" stroke="#191970" points="62.8239,-100.8166 53.3977,-95.9795 57.7501,-105.6391 62.8239,-100.8166"/>
</g>
<!-- Node7 -->
<g id="node3" class="node">
<title>Node7</title>
<g id="a_node3"><a xlink:href="class_grid_widget.html#a9c57f1ca2311d3caa936a481fa7fbef0" target="_top" xlink:title="GridWidget::actualPropagate\lEvent">
<polygon fill="#ffffff" stroke="#000000" points="137.5,-115 137.5,-145 279.5,-145 279.5,-115 137.5,-115"/>
<text text-anchor="start" x="145.5" y="-133" font-family="Helvetica,sans-Serif" font-size="10.00" fill="#000000">GridWidget::actualPropagate</text>
<text text-anchor="middle" x="208.5" y="-122" font-family="Helvetica,sans-Serif" font-size="10.00" fill="#000000">Event</text>
</a>
</g>
</g>
<!-- Node5&#45;&gt;Node7 -->
<g id="edge2" class="edge">
<title>Node5&#45;&gt;Node7</title>
<path fill="none" stroke="#191970" d="M89.8561,-98.1687C109.1957,-103.3574 131.9589,-109.4646 152.3473,-114.9346"/>
<polygon fill="#191970" stroke="#191970" points="90.651,-94.7583 80.0856,-95.5473 88.837,-101.5192 90.651,-94.7583"/>
</g>
<!-- Node9 -->
<g id="node5" class="node">
<title>Node9</title>
<g id="a_node5"><a xlink:href="class_tag_setter_widget.html#a8e33c61e9806b27241df2e3c69ed9584" target="_top" xlink:title="TagSetterWidget::actualRender">
<polygon fill="#ffffff" stroke="#000000" points="131.5,-76.5 131.5,-95.5 285.5,-95.5 285.5,-76.5 131.5,-76.5"/>
<text text-anchor="middle" x="208.5" y="-83.5" font-family="Helvetica,sans-Serif" font-size="10.00" fill="#000000">TagSetterWidget::actualRender</text>
</a>
</g>
</g>
<!-- Node5&#45;&gt;Node9 -->
<g id="edge4" class="edge">
<title>Node5&#45;&gt;Node9</title>
<path fill="none" stroke="#191970" d="M99.3269,-86C109.581,-86 120.4742,-86 131.2573,-86"/>
<polygon fill="#191970" stroke="#191970" points="99.3138,-82.5001 89.3137,-86 99.3137,-89.5001 99.3138,-82.5001"/>
</g>
<!-- Node10 -->
<g id="node6" class="node">
<title>Node10</title>
<g id="a_node6"><a xlink:href="class_grid_widget.html#ad2b2565b4ef8046f6886d09698567a18" target="_top" xlink:title="GridWidget::actualRender">
<polygon fill="#ffffff" stroke="#000000" points="144,-38.5 144,-57.5 273,-57.5 273,-38.5 144,-38.5"/>
<text text-anchor="middle" x="208.5" y="-45.5" font-family="Helvetica,sans-Serif" font-size="10.00" fill="#000000">GridWidget::actualRender</text>
</a>
</g>
</g>
<!-- Node5&#45;&gt;Node10 -->
<g id="edge5" class="edge">
<title>Node5&#45;&gt;Node10</title>
<path fill="none" stroke="#191970" d="M94.5126,-74.1299C104.6025,-71.7537 115.1379,-69.2859 125,-67 138.4693,-63.8781 153.1721,-60.5169 166.4346,-57.5024"/>
<polygon fill="#191970" stroke="#191970" points="93.5419,-70.7627 84.6127,-76.4654 95.1492,-77.5757 93.5419,-70.7627"/>
</g>
<!-- Node11 -->
<g id="node7" class="node">
<title>Node11</title>
<g id="a_node7"><a xlink:href="class_grid_widget.html#a99ea6778447aae0b74170d613201b920" target="_top" xlink:title="GridWidget::actualSize">
<polygon fill="#ffffff" stroke="#000000" points="150,-.5 150,-19.5 267,-19.5 267,-.5 150,-.5"/>
<text text-anchor="middle" x="208.5" y="-7.5" font-family="Helvetica,sans-Serif" font-size="10.00" fill="#000000">GridWidget::actualSize</text>
</a>
</g>
</g>
<!-- Node5&#45;&gt;Node11 -->
<g id="edge7" class="edge">
<title>Node5&#45;&gt;Node11</title>
<path fill="none" stroke="#191970" d="M62.8796,-69.7727C78.411,-56.8872 101.7796,-39.3677 125,-29 133.5525,-25.1814 142.9525,-22.0916 152.2649,-19.6031"/>
<polygon fill="#191970" stroke="#191970" points="60.4598,-67.2359 55.108,-76.3797 64.9939,-72.5691 60.4598,-67.2359"/>
</g>
<!-- Node8 -->
<g id="node4" class="node">
<title>Node8</title>
<g id="a_node4"><a xlink:href="class_grid_widget.html#abfc54e477706b66bd09f6f3c459fcfa4" target="_top" xlink:title="GridWidget::GridWidget">
<polygon fill="#ffffff" stroke="#000000" points="328,-38.5 328,-57.5 448,-57.5 448,-38.5 328,-38.5"/>
<text text-anchor="middle" x="388" y="-45.5" font-family="Helvetica,sans-Serif" font-size="10.00" fill="#000000">GridWidget::GridWidget</text>
</a>
</g>
</g>
<!-- Node7&#45;&gt;Node8 -->
<g id="edge3" class="edge">
<title>Node7&#45;&gt;Node8</title>
<path fill="none" stroke="#191970" d="M275.3766,-111.584C281.0639,-109.5348 286.6734,-107.3364 292,-105 322.8861,-91.4524 356.136,-69.9885 374.2678,-57.6282"/>
<polygon fill="#191970" stroke="#191970" points="274.0853,-108.3268 265.7679,-114.8897 276.3626,-114.946 274.0853,-108.3268"/>
</g>
<!-- Node10&#45;&gt;Node8 -->
<g id="edge6" class="edge">
<title>Node10&#45;&gt;Node8</title>
<path fill="none" stroke="#191970" d="M283.246,-48C298.1345,-48 313.5899,-48 327.9103,-48"/>
<polygon fill="#191970" stroke="#191970" points="283.0501,-44.5001 273.05,-48 283.05,-51.5001 283.0501,-44.5001"/>
</g>
<!-- Node11&#45;&gt;Node8 -->
<g id="edge8" class="edge">
<title>Node11&#45;&gt;Node8</title>
<path fill="none" stroke="#191970" d="M263.6773,-21.681C289.1328,-27.0699 318.9684,-33.3861 343.0303,-38.4799"/>
<polygon fill="#191970" stroke="#191970" points="264.3035,-18.2361 253.7954,-19.589 262.8537,-25.0843 264.3035,-18.2361"/>
</g>
</g>
</svg>
