<?xml version="1.0" encoding="UTF-8" standalone="no"?>
<!DOCTYPE svg PUBLIC "-//W3C//DTD SVG 1.1//EN"
 "http://www.w3.org/Graphics/SVG/1.1/DTD/svg11.dtd">
<!-- Generated by graphviz version 2.40.1 (20161225.0304)
 -->
<!-- Title: Application::saveAs Pages: 1 -->
<!--zoomable 66 -->
<svg id="main" version="1.1" xmlns="http://www.w3.org/2000/svg" xmlns:xlink="http://www.w3.org/1999/xlink" xml:space="preserve" onload="init(evt)">
<style type="text/css"><![CDATA[
.edge:hover path { stroke: red; }
.edge:hover polygon { stroke: red; fill: red; }
]]></style>
<script type="text/javascript"><![CDATA[
var edges = document.getElementsByTagName('g');
if (edges && edges.length) {
  for (var i=0;i<edges.length;i++) {
    if (edges[i].id.substr(0,4)=='edge') {
      edges[i].setAttribute('class','edge');
    }
  }
}
]]></script>
        <defs>
                <circle id="rim" cx="0" cy="0" r="7"/>
                <circle id="rim2" cx="0" cy="0" r="3.5"/>
                <g id="zoomPlus">
                        <use xlink:href="#rim" fill="#404040">
                                <set attributeName="fill" to="#808080" begin="zoomplus.mouseover" end="zoomplus.mouseout"/>
                        </use>
                        <path d="M-4,0h8M0,-4v8" fill="none" stroke="white" stroke-width="1.5" pointer-events="none"/>
                </g>
                <g id="zoomMin">
                        <use xlink:href="#rim" fill="#404040">
                                <set attributeName="fill" to="#808080" begin="zoomminus.mouseover" end="zoomminus.mouseout"/>
                        </use>
                        <path d="M-4,0h8" fill="none" stroke="white" stroke-width="1.5" pointer-events="none"/>
                </g>
                <g id="dirArrow">
                        <path fill="none" stroke="white" stroke-width="1.5" d="M0,-3.0v7 M-2.5,-0.5L0,-3.0L2.5,-0.5"/>
                </g>
               <g id="resetDef">
                       <use xlink:href="#rim2" fill="#404040">
                               <set attributeName="fill" to="#808080" begin="reset.mouseover" end="reset.mouseout"/>
                       </use>
               </g>
        </defs>

<script type="text/javascript">
var viewWidth = 588;
var viewHeight = 66;
var sectionId = 'dynsection-9';
</script>
<script xlink:href="svgpan.js"/>
<svg id="graph" class="graph">
<g id="viewport">
<title>Application::saveAs</title>
<polygon fill="#ffffff" stroke="transparent" points="-4,4 -4,-62 584,-62 584,4 -4,4"/>
<!-- Node71 -->
<g id="node1" class="node">
<title>Node71</title>
<polygon fill="#bfbfbf" stroke="#000000" points="0,-19.5 0,-38.5 104,-38.5 104,-19.5 0,-19.5"/>
<text text-anchor="middle" x="52" y="-26.5" font-family="Helvetica,sans-Serif" font-size="10.00" fill="#000000">Application::saveAs</text>
</g>
<!-- Node72 -->
<g id="node2" class="node">
<title>Node72</title>
<g id="a_node2"><a xlink:href="class_application.html#a45f71b866fbbae7dcf028a88b2af4cc7" target="_top" xlink:title="Application::save">
<polygon fill="#ffffff" stroke="#000000" points="140,-.5 140,-19.5 232,-19.5 232,-.5 140,-.5"/>
<text text-anchor="middle" x="186" y="-7.5" font-family="Helvetica,sans-Serif" font-size="10.00" fill="#000000">Application::save</text>
</a>
</g>
</g>
<!-- Node71&#45;&gt;Node72 -->
<g id="edge1" class="edge">
<title>Node71&#45;&gt;Node72</title>
<path fill="none" stroke="#191970" d="M114.2298,-20.1764C122.8516,-18.9539 131.5793,-17.7164 139.8379,-16.5454"/>
<polygon fill="#191970" stroke="#191970" points="113.6012,-16.7304 104.1916,-21.5997 114.5839,-23.6611 113.6012,-16.7304"/>
</g>
<!-- Node73 -->
<g id="node3" class="node">
<title>Node73</title>
<g id="a_node3"><a xlink:href="class_application.html#a8f9f948d5439efe526f3219d85b29d7f" target="_top" xlink:title="Application::savePossibleTags">
<polygon fill="#ffffff" stroke="#000000" points="268,-38.5 268,-57.5 419,-57.5 419,-38.5 268,-38.5"/>
<text text-anchor="middle" x="343.5" y="-45.5" font-family="Helvetica,sans-Serif" font-size="10.00" fill="#000000">Application::savePossibleTags</text>
</a>
</g>
</g>
<!-- Node71&#45;&gt;Node73 -->
<g id="edge5" class="edge">
<title>Node71&#45;&gt;Node73</title>
<path fill="none" stroke="#191970" d="M114.3016,-33.0608C159.1952,-35.987 220.0183,-39.9515 267.7262,-43.0611"/>
<polygon fill="#191970" stroke="#191970" points="114.3209,-29.5547 104.1144,-32.3968 113.8655,-36.5399 114.3209,-29.5547"/>
</g>
<!-- Node72&#45;&gt;Node73 -->
<g id="edge2" class="edge">
<title>Node72&#45;&gt;Node73</title>
<path fill="none" stroke="#191970" d="M235.6041,-21.968C257.6753,-27.2931 283.3027,-33.4762 304.0419,-38.4799"/>
<polygon fill="#191970" stroke="#191970" points="236.2859,-18.5321 225.7439,-19.589 234.6441,-25.3369 236.2859,-18.5321"/>
</g>
<!-- Node74 -->
<g id="node4" class="node">
<title>Node74</title>
<g id="a_node4"><a xlink:href="class_application.html#a748bca84fefb9c12661cfaa2f623748d" target="_top" xlink:title="Application::~Application">
<polygon fill="#ffffff" stroke="#000000" points="455,-19.5 455,-38.5 580,-38.5 580,-19.5 455,-19.5"/>
<text text-anchor="middle" x="517.5" y="-26.5" font-family="Helvetica,sans-Serif" font-size="10.00" fill="#000000">Application::~Application</text>
</a>
</g>
</g>
<!-- Node72&#45;&gt;Node74 -->
<g id="edge4" class="edge">
<title>Node72&#45;&gt;Node74</title>
<path fill="none" stroke="#191970" d="M242.3374,-13.229C301.2893,-16.6078 393.6143,-21.8995 454.8308,-25.4081"/>
<polygon fill="#191970" stroke="#191970" points="242.2776,-9.7199 232.0937,-12.6419 241.877,-16.7084 242.2776,-9.7199"/>
</g>
<!-- Node73&#45;&gt;Node74 -->
<g id="edge3" class="edge">
<title>Node73&#45;&gt;Node74</title>
<path fill="none" stroke="#191970" d="M429.1685,-38.6454C437.8039,-37.7024 446.4568,-36.7576 454.7867,-35.848"/>
<polygon fill="#191970" stroke="#191970" points="428.6208,-35.1843 419.0598,-39.7492 429.3807,-42.1429 428.6208,-35.1843"/>
</g>
</g>
</svg>
        <g id="navigator" transform="translate(0 0)" fill="#404254">
                <rect fill="#f2f5e9" fill-opacity="0.5" stroke="#606060" stroke-width=".5" x="0" y="0" width="60" height="60"/>
                <use id="zoomplus" xlink:href="#zoomPlus" x="17" y="9" onmousedown="handleZoom(evt,'in')"/>
                <use id="zoomminus" xlink:href="#zoomMin" x="42" y="9" onmousedown="handleZoom(evt,'out')"/>
                <use id="reset" xlink:href="#resetDef" x="30" y="36" onmousedown="handleReset()"/>
                <g id="arrowUp" xlink:href="#dirArrow" transform="translate(30 24)" onmousedown="handlePan(0,-1)">
                  <use xlink:href="#rim" fill="#404040">
                        <set attributeName="fill" to="#808080" begin="arrowUp.mouseover" end="arrowUp.mouseout"/>
                  </use>
                  <path fill="none" stroke="white" stroke-width="1.5" d="M0,-3.0v7 M-2.5,-0.5L0,-3.0L2.5,-0.5"/>
                </g>
                <g id="arrowRight" xlink:href="#dirArrow" transform="rotate(90) translate(36 -43)" onmousedown="handlePan(1,0)">
                  <use xlink:href="#rim" fill="#404040">
                        <set attributeName="fill" to="#808080" begin="arrowRight.mouseover" end="arrowRight.mouseout"/>
                  </use>
                  <path fill="none" stroke="white" stroke-width="1.5" d="M0,-3.0v7 M-2.5,-0.5L0,-3.0L2.5,-0.5"/>
                </g>
                <g id="arrowDown" xlink:href="#dirArrow" transform="rotate(180) translate(-30 -48)" onmousedown="handlePan(0,1)">
                  <use xlink:href="#rim" fill="#404040">
                        <set attributeName="fill" to="#808080" begin="arrowDown.mouseover" end="arrowDown.mouseout"/>
                  </use>
                  <path fill="none" stroke="white" stroke-width="1.5" d="M0,-3.0v7 M-2.5,-0.5L0,-3.0L2.5,-0.5"/>
                </g>
                <g id="arrowLeft" xlink:href="#dirArrow" transform="rotate(270) translate(-36 17)" onmousedown="handlePan(-1,0)">
                  <use xlink:href="#rim" fill="#404040">
                        <set attributeName="fill" to="#808080" begin="arrowLeft.mouseover" end="arrowLeft.mouseout"/>
                  </use>
                  <path fill="none" stroke="white" stroke-width="1.5" d="M0,-3.0v7 M-2.5,-0.5L0,-3.0L2.5,-0.5"/>
                </g>
        </g>
        <svg viewBox="0 0 15 15" width="100%" height="30px" preserveAspectRatio="xMaxYMin meet">
         <g id="arrow_out" transform="scale(0.3 0.3)">
          <a xlink:href="class_application_ae22fc39c79b4efa62e80f548805410e5_icgraph_org.svg" target="_base">
           <rect id="button" ry="5" rx="5" y="6" x="6" height="38" width="38"
                fill="#f2f5e9" fill-opacity="0.5" stroke="#606060" stroke-width="1.0"/>
           <path id="arrow"
             d="M 11.500037,31.436501 C 11.940474,20.09759 22.043105,11.32322 32.158766,21.979434 L 37.068811,17.246167 C 37.068811,17.246167 37.088388,32 37.088388,32 L 22.160133,31.978069 C 22.160133,31.978069 26.997745,27.140456 26.997745,27.140456 C 18.528582,18.264221 13.291696,25.230495 11.500037,31.436501 z"
             style="fill:#404040;"/>
          </a>
         </g>
        </svg>
</svg>
