<?xml version="1.0" encoding="UTF-8" standalone="no"?>
<!DOCTYPE svg PUBLIC "-//W3C//DTD SVG 1.1//EN"
 "http://www.w3.org/Graphics/SVG/1.1/DTD/svg11.dtd">
<!-- Generated by graphviz version 2.40.1 (20161225.0304)
 -->
<!-- Title: CollectionPool::end Pages: 1 -->
<svg width="599pt" height="28pt"
 viewBox="0.00 0.00 599.00 28.00" xmlns="http://www.w3.org/2000/svg" xmlns:xlink="http://www.w3.org/1999/xlink">
<g id="graph0" class="graph" transform="scale(1 1) rotate(0) translate(4 24)">
<title>CollectionPool::end</title>
<polygon fill="#ffffff" stroke="transparent" points="-4,4 -4,-24 595,-24 595,4 -4,4"/>
<!-- Node27 -->
<g id="node1" class="node">
<title>Node27</title>
<polygon fill="#bfbfbf" stroke="#000000" points="0,-.5 0,-19.5 101,-19.5 101,-.5 0,-.5"/>
<text text-anchor="middle" x="50.5" y="-7.5" font-family="Helvetica,sans-Serif" font-size="10.00" fill="#000000">CollectionPool::end</text>
</g>
<!-- Node28 -->
<g id="node2" class="node">
<title>Node28</title>
<g id="a_node2"><a xlink:href="_utilities_8cpp.html#a5ce6411f7ab365cdf958f8f16e773d05" target="_top" xlink:title="importFromDirectory">
<polygon fill="#ffffff" stroke="#000000" points="137,-.5 137,-19.5 243,-19.5 243,-.5 137,-.5"/>
<text text-anchor="middle" x="190" y="-7.5" font-family="Helvetica,sans-Serif" font-size="10.00" fill="#000000">importFromDirectory</text>
</a>
</g>
</g>
<!-- Node27&#45;&gt;Node28 -->
<g id="edge1" class="edge">
<title>Node27&#45;&gt;Node28</title>
<path fill="none" stroke="#191970" d="M111.4099,-10C119.8318,-10 128.4285,-10 136.6982,-10"/>
<polygon fill="#191970" stroke="#191970" points="111.2574,-6.5001 101.2573,-10 111.2573,-13.5001 111.2574,-6.5001"/>
</g>
<!-- Node29 -->
<g id="node3" class="node">
<title>Node29</title>
<g id="a_node3"><a xlink:href="class_application.html#a8f9f948d5439efe526f3219d85b29d7f" target="_top" xlink:title="Application::savePossibleTags">
<polygon fill="#ffffff" stroke="#000000" points="279,-.5 279,-19.5 430,-19.5 430,-.5 279,-.5"/>
<text text-anchor="middle" x="354.5" y="-7.5" font-family="Helvetica,sans-Serif" font-size="10.00" fill="#000000">Application::savePossibleTags</text>
</a>
</g>
</g>
<!-- Node28&#45;&gt;Node29 -->
<g id="edge2" class="edge">
<title>Node28&#45;&gt;Node29</title>
<path fill="none" stroke="#191970" d="M253.4378,-10C261.7917,-10 270.4192,-10 278.95,-10"/>
<polygon fill="#191970" stroke="#191970" points="253.4085,-6.5001 243.4084,-10 253.4084,-13.5001 253.4085,-6.5001"/>
</g>
<!-- Node30 -->
<g id="node4" class="node">
<title>Node30</title>
<g id="a_node4"><a xlink:href="class_application.html#a748bca84fefb9c12661cfaa2f623748d" target="_top" xlink:title="Application::~Application">
<polygon fill="#ffffff" stroke="#000000" points="466,-.5 466,-19.5 591,-19.5 591,-.5 466,-.5"/>
<text text-anchor="middle" x="528.5" y="-7.5" font-family="Helvetica,sans-Serif" font-size="10.00" fill="#000000">Application::~Application</text>
</a>
</g>
</g>
<!-- Node29&#45;&gt;Node30 -->
<g id="edge3" class="edge">
<title>Node29&#45;&gt;Node30</title>
<path fill="none" stroke="#191970" d="M440.1685,-10C448.8039,-10 457.4568,-10 465.7867,-10"/>
<polygon fill="#191970" stroke="#191970" points="440.0598,-6.5001 430.0598,-10 440.0598,-13.5001 440.0598,-6.5001"/>
</g>
</g>
</svg>
