<?xml version="1.0" encoding="UTF-8" standalone="no"?>
<!DOCTYPE svg PUBLIC "-//W3C//DTD SVG 1.1//EN"
 "http://www.w3.org/Graphics/SVG/1.1/DTD/svg11.dtd">
<!-- Generated by graphviz version 2.40.1 (20161225.0304)
 -->
<!-- Title: GridWidget::actualPropagateEvent Pages: 1 -->
<svg width="735pt" height="236pt"
 viewBox="0.00 0.00 735.00 236.00" xmlns="http://www.w3.org/2000/svg" xmlns:xlink="http://www.w3.org/1999/xlink">
<g id="graph0" class="graph" transform="scale(1 1) rotate(0) translate(4 232)">
<title>GridWidget::actualPropagateEvent</title>
<polygon fill="#ffffff" stroke="transparent" points="-4,4 -4,-232 731,-232 731,4 -4,4"/>
<!-- Node19 -->
<g id="node1" class="node">
<title>Node19</title>
<polygon fill="#bfbfbf" stroke="#000000" points="0,-90 0,-120 142,-120 142,-90 0,-90"/>
<text text-anchor="start" x="8" y="-108" font-family="Helvetica,sans-Serif" font-size="10.00" fill="#000000">GridWidget::actualPropagate</text>
<text text-anchor="middle" x="71" y="-97" font-family="Helvetica,sans-Serif" font-size="10.00" fill="#000000">Event</text>
</g>
<!-- Node20 -->
<g id="node2" class="node">
<title>Node20</title>
<g id="a_node2"><a xlink:href="class_collection.html#a4abc73f8e31a499a22b25d42b7a4fe8c" target="_top" xlink:title="Collection::begin">
<polygon fill="#ffffff" stroke="#000000" points="194.5,-208.5 194.5,-227.5 283.5,-227.5 283.5,-208.5 194.5,-208.5"/>
<text text-anchor="middle" x="239" y="-215.5" font-family="Helvetica,sans-Serif" font-size="10.00" fill="#000000">Collection::begin</text>
</a>
</g>
</g>
<!-- Node19&#45;&gt;Node20 -->
<g id="edge1" class="edge">
<title>Node19&#45;&gt;Node20</title>
<path fill="none" stroke="#191970" d="M84.376,-120.211C103.2932,-140.8448 139.8329,-177.5816 178,-199 181.7544,-201.1069 185.7725,-203.0116 189.888,-204.7271"/>
<polygon fill="#191970" stroke="#191970" points="188.9981,-208.1322 199.5897,-208.3925 191.4721,-201.584 188.9981,-208.1322"/>
</g>
<!-- Node21 -->
<g id="node3" class="node">
<title>Node21</title>
<g id="a_node3"><a xlink:href="class_widget.html#a210d4c8e3ea02cb777c6e3ad7fdc22b3" target="_top" xlink:title="Widget::callRedraw">
<polygon fill="#ffffff" stroke="#000000" points="188,-152.5 188,-171.5 290,-171.5 290,-152.5 188,-152.5"/>
<text text-anchor="middle" x="239" y="-159.5" font-family="Helvetica,sans-Serif" font-size="10.00" fill="#000000">Widget::callRedraw</text>
</a>
</g>
</g>
<!-- Node19&#45;&gt;Node21 -->
<g id="edge2" class="edge">
<title>Node19&#45;&gt;Node21</title>
<path fill="none" stroke="#191970" d="M112.2811,-120.0871C132.0949,-127.2191 156.2117,-135.7409 178,-143 184.4341,-145.1436 191.2743,-147.3471 197.9597,-149.4595"/>
<polygon fill="#191970" stroke="#191970" points="196.9893,-152.8232 207.5783,-152.4718 199.0814,-146.1431 196.9893,-152.8232"/>
</g>
<!-- Node22 -->
<g id="node4" class="node">
<title>Node22</title>
<g id="a_node4"><a xlink:href="class_collection.html#ab5b98f651d0f49cde1be067c69c52e89" target="_top" xlink:title="Collection::end">
<polygon fill="#ffffff" stroke="#000000" points="198,-114.5 198,-133.5 280,-133.5 280,-114.5 198,-114.5"/>
<text text-anchor="middle" x="239" y="-121.5" font-family="Helvetica,sans-Serif" font-size="10.00" fill="#000000">Collection::end</text>
</a>
</g>
</g>
<!-- Node19&#45;&gt;Node22 -->
<g id="edge4" class="edge">
<title>Node19&#45;&gt;Node22</title>
<path fill="none" stroke="#191970" d="M142.2471,-113.0577C157.5034,-114.7831 173.3343,-116.5735 187.6632,-118.1941"/>
<polygon fill="#191970" stroke="#191970" points="187.4717,-121.6946 197.8018,-119.3407 188.2585,-114.739 187.4717,-121.6946"/>
</g>
<!-- Node23 -->
<g id="node5" class="node">
<title>Node23</title>
<g id="a_node5"><a xlink:href="class_widget.html#ae5b0e7b391d855a3f75f166bb20253a8" target="_top" xlink:title="Widget::isInside">
<polygon fill="#ffffff" stroke="#000000" points="195.5,-76.5 195.5,-95.5 282.5,-95.5 282.5,-76.5 195.5,-76.5"/>
<text text-anchor="middle" x="239" y="-83.5" font-family="Helvetica,sans-Serif" font-size="10.00" fill="#000000">Widget::isInside</text>
</a>
</g>
</g>
<!-- Node19&#45;&gt;Node23 -->
<g id="edge5" class="edge">
<title>Node19&#45;&gt;Node23</title>
<path fill="none" stroke="#191970" d="M142.2471,-96.9423C156.6426,-95.3142 171.5498,-93.6283 185.2239,-92.0818"/>
<polygon fill="#191970" stroke="#191970" points="185.8681,-95.5314 195.4114,-90.9297 185.0814,-88.5757 185.8681,-95.5314"/>
</g>
<!-- Node27 -->
<g id="node9" class="node">
<title>Node27</title>
<g id="a_node9"><a xlink:href="class_widget.html#aa36c39c4ce428813dcbb13060b5d8ab0" target="_top" xlink:title="Widget::propagateEvent">
<polygon fill="#ffffff" stroke="#000000" points="178,-38.5 178,-57.5 300,-57.5 300,-38.5 178,-38.5"/>
<text text-anchor="middle" x="239" y="-45.5" font-family="Helvetica,sans-Serif" font-size="10.00" fill="#000000">Widget::propagateEvent</text>
</a>
</g>
</g>
<!-- Node19&#45;&gt;Node27 -->
<g id="edge9" class="edge">
<title>Node19&#45;&gt;Node27</title>
<path fill="none" stroke="#191970" d="M112.2811,-89.9129C132.0949,-82.7809 156.2117,-74.2591 178,-67 184.4341,-64.8564 191.2743,-62.6529 197.9597,-60.5405"/>
<polygon fill="#191970" stroke="#191970" points="199.0814,-63.8569 207.5783,-57.5282 196.9893,-57.1768 199.0814,-63.8569"/>
</g>
<!-- Node29 -->
<g id="node11" class="node">
<title>Node29</title>
<g id="a_node11"><a xlink:href="class_widget.html#a0dd3c167cde2b8ef9ffbd95067fbb3f6" target="_top" xlink:title="Widget::setParent">
<polygon fill="#ffffff" stroke="#000000" points="191.5,-.5 191.5,-19.5 286.5,-19.5 286.5,-.5 191.5,-.5"/>
<text text-anchor="middle" x="239" y="-7.5" font-family="Helvetica,sans-Serif" font-size="10.00" fill="#000000">Widget::setParent</text>
</a>
</g>
</g>
<!-- Node19&#45;&gt;Node29 -->
<g id="edge11" class="edge">
<title>Node19&#45;&gt;Node29</title>
<path fill="none" stroke="#191970" d="M88.4409,-89.9522C108.7556,-73.0825 143.8999,-45.8852 178,-29 182.543,-26.7505 187.4081,-24.6986 192.3355,-22.8454"/>
<polygon fill="#191970" stroke="#191970" points="193.5366,-26.1333 201.8196,-19.5271 191.2248,-19.5261 193.5366,-26.1333"/>
</g>
<!-- Node21&#45;&gt;Node21 -->
<g id="edge3" class="edge">
<title>Node21&#45;&gt;Node21</title>
<path fill="none" stroke="#191970" d="M213.1063,-171.7571C200.5094,-180.5653 209.1406,-190 239,-190 259.0618,-190 269.5408,-185.741 270.4371,-180.2746"/>
<polygon fill="#191970" stroke="#191970" points="273.2819,-178.2291 264.8937,-171.7571 267.415,-182.0475 273.2819,-178.2291"/>
</g>
<!-- Node24 -->
<g id="node6" class="node">
<title>Node24</title>
<g id="a_node6"><a xlink:href="class_widget.html#af5851078b2f0c2f14a9bf377e535340f" target="_top" xlink:title="Widget::actualIsInside">
<polygon fill="#ffffff" stroke="#000000" points="353.5,-76.5 353.5,-95.5 467.5,-95.5 467.5,-76.5 353.5,-76.5"/>
<text text-anchor="middle" x="410.5" y="-83.5" font-family="Helvetica,sans-Serif" font-size="10.00" fill="#000000">Widget::actualIsInside</text>
</a>
</g>
</g>
<!-- Node23&#45;&gt;Node24 -->
<g id="edge6" class="edge">
<title>Node23&#45;&gt;Node24</title>
<path fill="none" stroke="#191970" d="M282.7204,-86C301.0582,-86 322.803,-86 343.1071,-86"/>
<polygon fill="#191970" stroke="#191970" points="343.2515,-89.5001 353.2514,-86 343.2514,-82.5001 343.2515,-89.5001"/>
</g>
<!-- Node25 -->
<g id="node7" class="node">
<title>Node25</title>
<g id="a_node7"><a xlink:href="class_widget.html#aea985c025ef9b1210d0e3ab7d9c075ea" target="_top" xlink:title="Widget::size">
<polygon fill="#ffffff" stroke="#000000" points="521,-76.5 521,-95.5 592,-95.5 592,-76.5 521,-76.5"/>
<text text-anchor="middle" x="556.5" y="-83.5" font-family="Helvetica,sans-Serif" font-size="10.00" fill="#000000">Widget::size</text>
</a>
</g>
</g>
<!-- Node24&#45;&gt;Node25 -->
<g id="edge7" class="edge">
<title>Node24&#45;&gt;Node25</title>
<path fill="none" stroke="#191970" d="M467.784,-86C482.0441,-86 497.144,-86 510.765,-86"/>
<polygon fill="#191970" stroke="#191970" points="510.8545,-89.5001 520.8544,-86 510.8544,-82.5001 510.8545,-89.5001"/>
</g>
<!-- Node26 -->
<g id="node8" class="node">
<title>Node26</title>
<g id="a_node8"><a xlink:href="class_widget.html#aa6225b5a14e5861cc2cd98c737841854" target="_top" xlink:title="Widget::actualSize">
<polygon fill="#ffffff" stroke="#000000" points="628,-76.5 628,-95.5 727,-95.5 727,-76.5 628,-76.5"/>
<text text-anchor="middle" x="677.5" y="-83.5" font-family="Helvetica,sans-Serif" font-size="10.00" fill="#000000">Widget::actualSize</text>
</a>
</g>
</g>
<!-- Node25&#45;&gt;Node26 -->
<g id="edge8" class="edge">
<title>Node25&#45;&gt;Node26</title>
<path fill="none" stroke="#191970" d="M592.1495,-86C600.1663,-86 608.8877,-86 617.5927,-86"/>
<polygon fill="#191970" stroke="#191970" points="617.7609,-89.5001 627.7609,-86 617.7608,-82.5001 617.7609,-89.5001"/>
</g>
<!-- Node28 -->
<g id="node10" class="node">
<title>Node28</title>
<g id="a_node10"><a xlink:href="class_widget.html#a92906f698fd94c2f777e46c1480967fc" target="_top" xlink:title="Widget::actualPropagateEvent">
<polygon fill="#ffffff" stroke="#000000" points="336,-38.5 336,-57.5 485,-57.5 485,-38.5 336,-38.5"/>
<text text-anchor="middle" x="410.5" y="-45.5" font-family="Helvetica,sans-Serif" font-size="10.00" fill="#000000">Widget::actualPropagateEvent</text>
</a>
</g>
</g>
<!-- Node27&#45;&gt;Node28 -->
<g id="edge10" class="edge">
<title>Node27&#45;&gt;Node28</title>
<path fill="none" stroke="#191970" d="M300.431,-48C308.5624,-48 317.0118,-48 325.4521,-48"/>
<polygon fill="#191970" stroke="#191970" points="325.721,-51.5001 335.721,-48 325.7209,-44.5001 325.721,-51.5001"/>
</g>
<!-- Node30 -->
<g id="node12" class="node">
<title>Node30</title>
<g id="a_node12"><a xlink:href="class_widget.html#abe38c3c1fbcde4c705d76d58208ceb52" target="_top" xlink:title="Widget::~Widget">
<polygon fill="#ffffff" stroke="#000000" points="365.5,-.5 365.5,-19.5 455.5,-19.5 455.5,-.5 365.5,-.5"/>
<text text-anchor="middle" x="410.5" y="-7.5" font-family="Helvetica,sans-Serif" font-size="10.00" fill="#000000">Widget::~Widget</text>
</a>
</g>
</g>
<!-- Node29&#45;&gt;Node30 -->
<g id="edge12" class="edge">
<title>Node29&#45;&gt;Node30</title>
<path fill="none" stroke="#191970" d="M286.7723,-10C307.9916,-10 333.099,-10 355.1327,-10"/>
<polygon fill="#191970" stroke="#191970" points="355.3423,-13.5001 365.3423,-10 355.3423,-6.5001 355.3423,-13.5001"/>
</g>
</g>
</svg>
