<?xml version="1.0" encoding="UTF-8" standalone="no"?>
<!DOCTYPE svg PUBLIC "-//W3C//DTD SVG 1.1//EN"
 "http://www.w3.org/Graphics/SVG/1.1/DTD/svg11.dtd">
<!-- Generated by graphviz version 2.40.1 (20161225.0304)
 -->
<!-- Title: GridWidget::GridWidget Pages: 1 -->
<!--zoomable 311 -->
<svg id="main" version="1.1" xmlns="http://www.w3.org/2000/svg" xmlns:xlink="http://www.w3.org/1999/xlink" xml:space="preserve" onload="init(evt)">
<style type="text/css"><![CDATA[
.edge:hover path { stroke: red; }
.edge:hover polygon { stroke: red; fill: red; }
]]></style>
<script type="text/javascript"><![CDATA[
var edges = document.getElementsByTagName('g');
if (edges && edges.length) {
  for (var i=0;i<edges.length;i++) {
    if (edges[i].id.substr(0,4)=='edge') {
      edges[i].setAttribute('class','edge');
    }
  }
}
]]></script>
        <defs>
                <circle id="rim" cx="0" cy="0" r="7"/>
                <circle id="rim2" cx="0" cy="0" r="3.5"/>
                <g id="zoomPlus">
                        <use xlink:href="#rim" fill="#404040">
                                <set attributeName="fill" to="#808080" begin="zoomplus.mouseover" end="zoomplus.mouseout"/>
                        </use>
                        <path d="M-4,0h8M0,-4v8" fill="none" stroke="white" stroke-width="1.5" pointer-events="none"/>
                </g>
                <g id="zoomMin">
                        <use xlink:href="#rim" fill="#404040">
                                <set attributeName="fill" to="#808080" begin="zoomminus.mouseover" end="zoomminus.mouseout"/>
                        </use>
                        <path d="M-4,0h8" fill="none" stroke="white" stroke-width="1.5" pointer-events="none"/>
                </g>
                <g id="dirArrow">
                        <path fill="none" stroke="white" stroke-width="1.5" d="M0,-3.0v7 M-2.5,-0.5L0,-3.0L2.5,-0.5"/>
                </g>
               <g id="resetDef">
                       <use xlink:href="#rim2" fill="#404040">
                               <set attributeName="fill" to="#808080" begin="reset.mouseover" end="reset.mouseout"/>
                       </use>
               </g>
        </defs>

<script type="text/javascript">
var viewWidth = 891;
var viewHeight = 311;
var sectionId = 'dynsection-2';
</script>
<script xlink:href="svgpan.js"/>
<svg id="graph" class="graph">
<g id="viewport">
<title>GridWidget::GridWidget</title>
<polygon fill="#ffffff" stroke="transparent" points="-4,4 -4,-306.763 887,-306.763 887,4 -4,4"/>
<!-- Node0 -->
<g id="node1" class="node">
<title>Node0</title>
<polygon fill="#bfbfbf" stroke="#000000" points="0,-147.263 0,-166.263 120,-166.263 120,-147.263 0,-147.263"/>
<text text-anchor="middle" x="60" y="-154.263" font-family="Helvetica,sans-Serif" font-size="10.00" fill="#000000">GridWidget::GridWidget</text>
</g>
<!-- Node1 -->
<g id="node2" class="node">
<title>Node1</title>
<g id="a_node2"><a xlink:href="class_grid_widget.html#a9c57f1ca2311d3caa936a481fa7fbef0" target="_top" xlink:title="GridWidget::actualPropagate\lEvent">
<polygon fill="#ffffff" stroke="#000000" points="156,-119.763 156,-149.763 298,-149.763 298,-119.763 156,-119.763"/>
<text text-anchor="start" x="164" y="-137.763" font-family="Helvetica,sans-Serif" font-size="10.00" fill="#000000">GridWidget::actualPropagate</text>
<text text-anchor="middle" x="227" y="-126.763" font-family="Helvetica,sans-Serif" font-size="10.00" fill="#000000">Event</text>
</a>
</g>
</g>
<!-- Node0&#45;&gt;Node1 -->
<g id="edge1" class="edge">
<title>Node0&#45;&gt;Node1</title>
<path fill="none" stroke="#191970" d="M120.2908,-148.8205C128.6176,-147.7235 137.2789,-146.5825 145.9059,-145.446"/>
<polygon fill="#191970" stroke="#191970" points="146.5382,-148.8931 155.9954,-144.1169 145.6239,-141.953 146.5382,-148.8931"/>
</g>
<!-- Node4 -->
<g id="node5" class="node">
<title>Node4</title>
<g id="a_node5"><a xlink:href="class_widget.html#a0dd3c167cde2b8ef9ffbd95067fbb3f6" target="_top" xlink:title="Widget::setParent">
<polygon fill="#ffffff" stroke="#000000" points="347.5,-169.263 347.5,-188.263 442.5,-188.263 442.5,-169.263 347.5,-169.263"/>
<text text-anchor="middle" x="395" y="-176.263" font-family="Helvetica,sans-Serif" font-size="10.00" fill="#000000">Widget::setParent</text>
</a>
</g>
</g>
<!-- Node0&#45;&gt;Node4 -->
<g id="edge25" class="edge">
<title>Node0&#45;&gt;Node4</title>
<path fill="none" stroke="#191970" d="M120.2782,-160.7216C181.8029,-164.762 276.6235,-170.989 337.2255,-174.9688"/>
<polygon fill="#191970" stroke="#191970" points="337.1786,-178.4732 347.3865,-175.6361 337.6374,-171.4883 337.1786,-178.4732"/>
</g>
<!-- Node8 -->
<g id="node9" class="node">
<title>Node8</title>
<g id="a_node9"><a xlink:href="class_widget.html#aea985c025ef9b1210d0e3ab7d9c075ea" target="_top" xlink:title="Widget::size">
<polygon fill="#ffffff" stroke="#000000" points="677,-46.263 677,-65.263 748,-65.263 748,-46.263 677,-46.263"/>
<text text-anchor="middle" x="712.5" y="-53.263" font-family="Helvetica,sans-Serif" font-size="10.00" fill="#000000">Widget::size</text>
</a>
</g>
</g>
<!-- Node0&#45;&gt;Node8 -->
<g id="edge26" class="edge">
<title>Node0&#45;&gt;Node8</title>
<path fill="none" stroke="#191970" d="M65.4199,-146.9595C78.0491,-125.179 111.7551,-72.8678 156,-49.763 329.7395,40.9644 577.5701,-15.8634 672.975,-43.366"/>
<polygon fill="#191970" stroke="#191970" points="672.2047,-46.7876 682.7858,-46.247 674.1771,-40.0712 672.2047,-46.7876"/>
</g>
<!-- Node13 -->
<g id="node14" class="node">
<title>Node13</title>
<g id="a_node14"><a xlink:href="class_grid_widget.html#ad2b2565b4ef8046f6886d09698567a18" target="_top" xlink:title="GridWidget::actualRender">
<polygon fill="#ffffff" stroke="#000000" points="162.5,-207.263 162.5,-226.263 291.5,-226.263 291.5,-207.263 162.5,-207.263"/>
<text text-anchor="middle" x="227" y="-214.263" font-family="Helvetica,sans-Serif" font-size="10.00" fill="#000000">GridWidget::actualRender</text>
</a>
</g>
</g>
<!-- Node0&#45;&gt;Node13 -->
<g id="edge14" class="edge">
<title>Node0&#45;&gt;Node13</title>
<path fill="none" stroke="#191970" d="M84.7815,-166.311C104.1186,-173.6995 131.688,-184.098 156,-192.763 166.4026,-196.4705 177.7118,-200.3578 188.1829,-203.898"/>
<polygon fill="#191970" stroke="#191970" points="187.3145,-207.2985 197.9085,-207.1687 189.5458,-200.6636 187.3145,-207.2985"/>
</g>
<!-- Node16 -->
<g id="node17" class="node">
<title>Node16</title>
<g id="a_node17"><a xlink:href="class_grid_widget.html#a640c641444f6a5dae5a66af01d036777" target="_top" xlink:title="GridWidget::actualResize">
<polygon fill="#ffffff" stroke="#000000" points="163,-59.263 163,-78.263 291,-78.263 291,-59.263 163,-59.263"/>
<text text-anchor="middle" x="227" y="-66.263" font-family="Helvetica,sans-Serif" font-size="10.00" fill="#000000">GridWidget::actualResize</text>
</a>
</g>
</g>
<!-- Node0&#45;&gt;Node16 -->
<g id="edge20" class="edge">
<title>Node0&#45;&gt;Node16</title>
<path fill="none" stroke="#191970" d="M78.1898,-147.1779C107.5531,-131.7051 165.5635,-101.1367 199.8383,-83.0757"/>
<polygon fill="#191970" stroke="#191970" points="201.6174,-86.0945 208.8326,-78.3362 198.354,-79.9017 201.6174,-86.0945"/>
</g>
<!-- Node17 -->
<g id="node18" class="node">
<title>Node17</title>
<g id="a_node18"><a xlink:href="class_grid_widget.html#a99ea6778447aae0b74170d613201b920" target="_top" xlink:title="GridWidget::actualSize">
<polygon fill="#ffffff" stroke="#000000" points="168.5,-245.263 168.5,-264.263 285.5,-264.263 285.5,-245.263 168.5,-245.263"/>
<text text-anchor="middle" x="227" y="-252.263" font-family="Helvetica,sans-Serif" font-size="10.00" fill="#000000">GridWidget::actualSize</text>
</a>
</g>
</g>
<!-- Node0&#45;&gt;Node17 -->
<g id="edge22" class="edge">
<title>Node0&#45;&gt;Node17</title>
<path fill="none" stroke="#191970" d="M68.8303,-166.3303C84.6851,-182.9372 119.7221,-217.1054 156,-235.763 160.4946,-238.0746 165.2981,-240.1257 170.2073,-241.9416"/>
<polygon fill="#191970" stroke="#191970" points="169.1306,-245.2721 179.7247,-245.1504 171.367,-238.6389 169.1306,-245.2721"/>
</g>
<!-- Node2 -->
<g id="node3" class="node">
<title>Node2</title>
<g id="a_node3"><a xlink:href="class_collection.html#a4abc73f8e31a499a22b25d42b7a4fe8c" target="_top" xlink:title="Collection::begin">
<polygon fill="#ffffff" stroke="#000000" points="350.5,-283.263 350.5,-302.263 439.5,-302.263 439.5,-283.263 350.5,-283.263"/>
<text text-anchor="middle" x="395" y="-290.263" font-family="Helvetica,sans-Serif" font-size="10.00" fill="#000000">Collection::begin</text>
</a>
</g>
</g>
<!-- Node1&#45;&gt;Node2 -->
<g id="edge2" class="edge">
<title>Node1&#45;&gt;Node2</title>
<path fill="none" stroke="#191970" d="M248.344,-149.9803C263.6468,-161.7088 283.9558,-179.0453 298,-197.763 320.4314,-227.659 305.7825,-249.2536 334,-273.763 336.2375,-275.7064 338.6724,-277.4512 341.2392,-279.0175"/>
<polygon fill="#191970" stroke="#191970" points="339.881,-282.2539 350.3787,-283.6852 343.0648,-276.0198 339.881,-282.2539"/>
</g>
<!-- Node3 -->
<g id="node4" class="node">
<title>Node3</title>
<g id="a_node4"><a xlink:href="class_collection.html#ab5b98f651d0f49cde1be067c69c52e89" target="_top" xlink:title="Collection::end">
<polygon fill="#ffffff" stroke="#000000" points="354,-207.263 354,-226.263 436,-226.263 436,-207.263 354,-207.263"/>
<text text-anchor="middle" x="395" y="-214.263" font-family="Helvetica,sans-Serif" font-size="10.00" fill="#000000">Collection::end</text>
</a>
</g>
</g>
<!-- Node1&#45;&gt;Node3 -->
<g id="edge3" class="edge">
<title>Node1&#45;&gt;Node3</title>
<path fill="none" stroke="#191970" d="M249.1505,-149.8564C270.2459,-163.7267 303.2531,-184.1412 334,-197.763 339.0073,-199.9814 344.3523,-202.0508 349.7183,-203.9463"/>
<polygon fill="#191970" stroke="#191970" points="348.7378,-207.3089 359.3317,-207.1647 350.9602,-200.671 348.7378,-207.3089"/>
</g>
<!-- Node1&#45;&gt;Node4 -->
<g id="edge4" class="edge">
<title>Node1&#45;&gt;Node4</title>
<path fill="none" stroke="#191970" d="M284.3462,-149.7822C305.4072,-155.2982 328.9622,-161.4674 348.9085,-166.6914"/>
<polygon fill="#191970" stroke="#191970" points="348.1193,-170.1027 358.6799,-169.2506 349.8929,-163.3311 348.1193,-170.1027"/>
</g>
<!-- Node6 -->
<g id="node7" class="node">
<title>Node6</title>
<g id="a_node7"><a xlink:href="class_widget.html#ae5b0e7b391d855a3f75f166bb20253a8" target="_top" xlink:title="Widget::isInside">
<polygon fill="#ffffff" stroke="#000000" points="351.5,-93.263 351.5,-112.263 438.5,-112.263 438.5,-93.263 351.5,-93.263"/>
<text text-anchor="middle" x="395" y="-100.263" font-family="Helvetica,sans-Serif" font-size="10.00" fill="#000000">Widget::isInside</text>
</a>
</g>
</g>
<!-- Node1&#45;&gt;Node6 -->
<g id="edge6" class="edge">
<title>Node1&#45;&gt;Node6</title>
<path fill="none" stroke="#191970" d="M298.2471,-121.1921C312.6426,-118.4501 327.5498,-115.6107 341.2239,-113.006"/>
<polygon fill="#191970" stroke="#191970" points="342.2429,-116.375 351.4114,-111.0656 340.9331,-109.4986 342.2429,-116.375"/>
</g>
<!-- Node10 -->
<g id="node11" class="node">
<title>Node10</title>
<g id="a_node11"><a xlink:href="class_widget.html#aa36c39c4ce428813dcbb13060b5d8ab0" target="_top" xlink:title="Widget::propagateEvent">
<polygon fill="#ffffff" stroke="#000000" points="334,-131.263 334,-150.263 456,-150.263 456,-131.263 334,-131.263"/>
<text text-anchor="middle" x="395" y="-138.263" font-family="Helvetica,sans-Serif" font-size="10.00" fill="#000000">Widget::propagateEvent</text>
</a>
</g>
</g>
<!-- Node1&#45;&gt;Node10 -->
<g id="edge10" class="edge">
<title>Node1&#45;&gt;Node10</title>
<path fill="none" stroke="#191970" d="M298.2471,-137.3075C306.7032,-137.6095 315.3358,-137.9178 323.7913,-138.2198"/>
<polygon fill="#191970" stroke="#191970" points="323.8751,-141.7249 333.9936,-138.5842 324.125,-134.7294 323.8751,-141.7249"/>
</g>
<!-- Node12 -->
<g id="node13" class="node">
<title>Node12</title>
<g id="a_node13"><a xlink:href="class_widget.html#a210d4c8e3ea02cb777c6e3ad7fdc22b3" target="_top" xlink:title="Widget::callRedraw">
<polygon fill="#ffffff" stroke="#000000" points="344,-37.263 344,-56.263 446,-56.263 446,-37.263 344,-37.263"/>
<text text-anchor="middle" x="395" y="-44.263" font-family="Helvetica,sans-Serif" font-size="10.00" fill="#000000">Widget::callRedraw</text>
</a>
</g>
</g>
<!-- Node1&#45;&gt;Node12 -->
<g id="edge12" class="edge">
<title>Node1&#45;&gt;Node12</title>
<path fill="none" stroke="#191970" d="M255.8802,-119.6352C287.3378,-103.1575 337.2608,-77.0073 367.9706,-60.9212"/>
<polygon fill="#191970" stroke="#191970" points="369.6084,-64.0145 376.8427,-56.274 366.3603,-57.8137 369.6084,-64.0145"/>
</g>
<!-- Node5 -->
<g id="node6" class="node">
<title>Node5</title>
<g id="a_node6"><a xlink:href="class_widget.html#abe38c3c1fbcde4c705d76d58208ceb52" target="_top" xlink:title="Widget::~Widget">
<polygon fill="#ffffff" stroke="#000000" points="521.5,-169.263 521.5,-188.263 611.5,-188.263 611.5,-169.263 521.5,-169.263"/>
<text text-anchor="middle" x="566.5" y="-176.263" font-family="Helvetica,sans-Serif" font-size="10.00" fill="#000000">Widget::~Widget</text>
</a>
</g>
</g>
<!-- Node4&#45;&gt;Node5 -->
<g id="edge5" class="edge">
<title>Node4&#45;&gt;Node5</title>
<path fill="none" stroke="#191970" d="M442.7723,-178.763C463.9916,-178.763 489.099,-178.763 511.1327,-178.763"/>
<polygon fill="#191970" stroke="#191970" points="511.3423,-182.2631 521.3423,-178.763 511.3423,-175.2631 511.3423,-182.2631"/>
</g>
<!-- Node7 -->
<g id="node8" class="node">
<title>Node7</title>
<g id="a_node8"><a xlink:href="class_widget.html#af5851078b2f0c2f14a9bf377e535340f" target="_top" xlink:title="Widget::actualIsInside">
<polygon fill="#ffffff" stroke="#000000" points="509.5,-70.263 509.5,-89.263 623.5,-89.263 623.5,-70.263 509.5,-70.263"/>
<text text-anchor="middle" x="566.5" y="-77.263" font-family="Helvetica,sans-Serif" font-size="10.00" fill="#000000">Widget::actualIsInside</text>
</a>
</g>
</g>
<!-- Node6&#45;&gt;Node7 -->
<g id="edge7" class="edge">
<title>Node6&#45;&gt;Node7</title>
<path fill="none" stroke="#191970" d="M438.7204,-96.8996C457.0582,-94.4403 478.803,-91.5241 499.1071,-88.8011"/>
<polygon fill="#191970" stroke="#191970" points="499.8054,-92.2389 509.2514,-87.4406 498.8749,-85.301 499.8054,-92.2389"/>
</g>
<!-- Node7&#45;&gt;Node8 -->
<g id="edge8" class="edge">
<title>Node7&#45;&gt;Node8</title>
<path fill="none" stroke="#191970" d="M623.784,-70.3464C638.0441,-68.0023 653.144,-65.5201 666.765,-63.2811"/>
<polygon fill="#191970" stroke="#191970" points="667.5546,-66.6983 676.8544,-61.6225 666.4191,-59.791 667.5546,-66.6983"/>
</g>
<!-- Node9 -->
<g id="node10" class="node">
<title>Node9</title>
<g id="a_node10"><a xlink:href="class_widget.html#aa6225b5a14e5861cc2cd98c737841854" target="_top" xlink:title="Widget::actualSize">
<polygon fill="#ffffff" stroke="#000000" points="784,-46.263 784,-65.263 883,-65.263 883,-46.263 784,-46.263"/>
<text text-anchor="middle" x="833.5" y="-53.263" font-family="Helvetica,sans-Serif" font-size="10.00" fill="#000000">Widget::actualSize</text>
</a>
</g>
</g>
<!-- Node8&#45;&gt;Node9 -->
<g id="edge9" class="edge">
<title>Node8&#45;&gt;Node9</title>
<path fill="none" stroke="#191970" d="M748.1495,-55.763C756.1663,-55.763 764.8877,-55.763 773.5927,-55.763"/>
<polygon fill="#191970" stroke="#191970" points="773.7609,-59.2631 783.7609,-55.763 773.7608,-52.2631 773.7609,-59.2631"/>
</g>
<!-- Node11 -->
<g id="node12" class="node">
<title>Node11</title>
<g id="a_node12"><a xlink:href="class_widget.html#a92906f698fd94c2f777e46c1480967fc" target="_top" xlink:title="Widget::actualPropagateEvent">
<polygon fill="#ffffff" stroke="#000000" points="492,-131.263 492,-150.263 641,-150.263 641,-131.263 492,-131.263"/>
<text text-anchor="middle" x="566.5" y="-138.263" font-family="Helvetica,sans-Serif" font-size="10.00" fill="#000000">Widget::actualPropagateEvent</text>
</a>
</g>
</g>
<!-- Node10&#45;&gt;Node11 -->
<g id="edge11" class="edge">
<title>Node10&#45;&gt;Node11</title>
<path fill="none" stroke="#191970" d="M456.431,-140.763C464.5624,-140.763 473.0118,-140.763 481.4521,-140.763"/>
<polygon fill="#191970" stroke="#191970" points="481.721,-144.2631 491.721,-140.763 481.7209,-137.2631 481.721,-144.2631"/>
</g>
<!-- Node12&#45;&gt;Node12 -->
<g id="edge13" class="edge">
<title>Node12&#45;&gt;Node12</title>
<path fill="none" stroke="#191970" d="M369.1063,-56.52C356.5094,-65.3283 365.1406,-74.763 395,-74.763 415.0618,-74.763 425.5408,-70.504 426.4371,-65.0375"/>
<polygon fill="#191970" stroke="#191970" points="429.2819,-62.9921 420.8937,-56.52 423.415,-66.8105 429.2819,-62.9921"/>
</g>
<!-- Node13&#45;&gt;Node2 -->
<g id="edge15" class="edge">
<title>Node13&#45;&gt;Node2</title>
<path fill="none" stroke="#191970" d="M276.9322,-226.3592C284.2726,-228.827 291.531,-231.912 298,-235.763 317.9905,-247.6631 314.2544,-261.4608 334,-273.763 337.3465,-275.848 340.9398,-277.7203 344.6468,-279.3988"/>
<polygon fill="#191970" stroke="#191970" points="343.4367,-282.6847 354.0198,-283.1825 346.0571,-276.1936 343.4367,-282.6847"/>
</g>
<!-- Node13&#45;&gt;Node3 -->
<g id="edge16" class="edge">
<title>Node13&#45;&gt;Node3</title>
<path fill="none" stroke="#191970" d="M291.9532,-216.763C309.0711,-216.763 327.303,-216.763 343.5978,-216.763"/>
<polygon fill="#191970" stroke="#191970" points="343.995,-220.2631 353.9949,-216.763 343.9949,-213.2631 343.995,-220.2631"/>
</g>
<!-- Node13&#45;&gt;Node4 -->
<g id="edge17" class="edge">
<title>Node13&#45;&gt;Node4</title>
<path fill="none" stroke="#191970" d="M269.3935,-207.174C291.7626,-202.1143 319.3982,-195.8634 343.0472,-190.5142"/>
<polygon fill="#191970" stroke="#191970" points="343.9299,-193.903 352.9114,-188.283 342.3856,-187.0755 343.9299,-193.903"/>
</g>
<!-- Node14 -->
<g id="node15" class="node">
<title>Node14</title>
<g id="a_node15"><a xlink:href="class_widget.html#a2516fd56cac645cb3aacef37937c49d3" target="_top" xlink:title="Widget::render">
<polygon fill="#ffffff" stroke="#000000" points="355,-245.263 355,-264.263 435,-264.263 435,-245.263 355,-245.263"/>
<text text-anchor="middle" x="395" y="-252.263" font-family="Helvetica,sans-Serif" font-size="10.00" fill="#000000">Widget::render</text>
</a>
</g>
</g>
<!-- Node13&#45;&gt;Node14 -->
<g id="edge18" class="edge">
<title>Node13&#45;&gt;Node14</title>
<path fill="none" stroke="#191970" d="M269.3935,-226.352C292.358,-231.5463 320.873,-237.9962 344.9268,-243.4369"/>
<polygon fill="#191970" stroke="#191970" points="344.4075,-246.9078 354.9333,-245.7003 345.9518,-240.0803 344.4075,-246.9078"/>
</g>
<!-- Node15 -->
<g id="node16" class="node">
<title>Node15</title>
<g id="a_node16"><a xlink:href="class_widget.html#a5ff4883144670b8c93b41e440e3d4446" target="_top" xlink:title="Widget::actualRender">
<polygon fill="#ffffff" stroke="#000000" points="511,-245.263 511,-264.263 622,-264.263 622,-245.263 511,-245.263"/>
<text text-anchor="middle" x="566.5" y="-252.263" font-family="Helvetica,sans-Serif" font-size="10.00" fill="#000000">Widget::actualRender</text>
</a>
</g>
</g>
<!-- Node14&#45;&gt;Node15 -->
<g id="edge19" class="edge">
<title>Node14&#45;&gt;Node15</title>
<path fill="none" stroke="#191970" d="M435.2091,-254.763C454.7842,-254.763 478.8196,-254.763 500.9514,-254.763"/>
<polygon fill="#191970" stroke="#191970" points="500.9633,-258.2631 510.9632,-254.763 500.9632,-251.2631 500.9633,-258.2631"/>
</g>
<!-- Node16&#45;&gt;Node12 -->
<g id="edge21" class="edge">
<title>Node16&#45;&gt;Node12</title>
<path fill="none" stroke="#191970" d="M291.4727,-60.3201C305.3353,-58.5048 319.9491,-56.5911 333.6875,-54.792"/>
<polygon fill="#191970" stroke="#191970" points="334.535,-58.211 343.9959,-53.4421 333.626,-51.2702 334.535,-58.211"/>
</g>
<!-- Node17&#45;&gt;Node2 -->
<g id="edge23" class="edge">
<title>Node17&#45;&gt;Node2</title>
<path fill="none" stroke="#191970" d="M269.3935,-264.352C291.7626,-269.4117 319.3982,-275.6626 343.0472,-281.0117"/>
<polygon fill="#191970" stroke="#191970" points="342.3856,-284.4504 352.9114,-283.2429 343.9299,-277.6229 342.3856,-284.4504"/>
</g>
<!-- Node17&#45;&gt;Node3 -->
<g id="edge24" class="edge">
<title>Node17&#45;&gt;Node3</title>
<path fill="none" stroke="#191970" d="M269.3935,-245.174C292.0178,-240.0566 320.0294,-233.7206 343.8549,-228.3315"/>
<polygon fill="#191970" stroke="#191970" points="344.8002,-231.7062 353.7816,-226.0862 343.2558,-224.8787 344.8002,-231.7062"/>
</g>
</g>
</svg>
        <g id="navigator" transform="translate(0 0)" fill="#404254">
                <rect fill="#f2f5e9" fill-opacity="0.5" stroke="#606060" stroke-width=".5" x="0" y="0" width="60" height="60"/>
                <use id="zoomplus" xlink:href="#zoomPlus" x="17" y="9" onmousedown="handleZoom(evt,'in')"/>
                <use id="zoomminus" xlink:href="#zoomMin" x="42" y="9" onmousedown="handleZoom(evt,'out')"/>
                <use id="reset" xlink:href="#resetDef" x="30" y="36" onmousedown="handleReset()"/>
                <g id="arrowUp" xlink:href="#dirArrow" transform="translate(30 24)" onmousedown="handlePan(0,-1)">
                  <use xlink:href="#rim" fill="#404040">
                        <set attributeName="fill" to="#808080" begin="arrowUp.mouseover" end="arrowUp.mouseout"/>
                  </use>
                  <path fill="none" stroke="white" stroke-width="1.5" d="M0,-3.0v7 M-2.5,-0.5L0,-3.0L2.5,-0.5"/>
                </g>
                <g id="arrowRight" xlink:href="#dirArrow" transform="rotate(90) translate(36 -43)" onmousedown="handlePan(1,0)">
                  <use xlink:href="#rim" fill="#404040">
                        <set attributeName="fill" to="#808080" begin="arrowRight.mouseover" end="arrowRight.mouseout"/>
                  </use>
                  <path fill="none" stroke="white" stroke-width="1.5" d="M0,-3.0v7 M-2.5,-0.5L0,-3.0L2.5,-0.5"/>
                </g>
                <g id="arrowDown" xlink:href="#dirArrow" transform="rotate(180) translate(-30 -48)" onmousedown="handlePan(0,1)">
                  <use xlink:href="#rim" fill="#404040">
                        <set attributeName="fill" to="#808080" begin="arrowDown.mouseover" end="arrowDown.mouseout"/>
                  </use>
                  <path fill="none" stroke="white" stroke-width="1.5" d="M0,-3.0v7 M-2.5,-0.5L0,-3.0L2.5,-0.5"/>
                </g>
                <g id="arrowLeft" xlink:href="#dirArrow" transform="rotate(270) translate(-36 17)" onmousedown="handlePan(-1,0)">
                  <use xlink:href="#rim" fill="#404040">
                        <set attributeName="fill" to="#808080" begin="arrowLeft.mouseover" end="arrowLeft.mouseout"/>
                  </use>
                  <path fill="none" stroke="white" stroke-width="1.5" d="M0,-3.0v7 M-2.5,-0.5L0,-3.0L2.5,-0.5"/>
                </g>
        </g>
        <svg viewBox="0 0 15 15" width="100%" height="30px" preserveAspectRatio="xMaxYMin meet">
         <g id="arrow_out" transform="scale(0.3 0.3)">
          <a xlink:href="class_grid_widget_abfc54e477706b66bd09f6f3c459fcfa4_cgraph_org.svg" target="_base">
           <rect id="button" ry="5" rx="5" y="6" x="6" height="38" width="38"
                fill="#f2f5e9" fill-opacity="0.5" stroke="#606060" stroke-width="1.0"/>
           <path id="arrow"
             d="M 11.500037,31.436501 C 11.940474,20.09759 22.043105,11.32322 32.158766,21.979434 L 37.068811,17.246167 C 37.068811,17.246167 37.088388,32 37.088388,32 L 22.160133,31.978069 C 22.160133,31.978069 26.997745,27.140456 26.997745,27.140456 C 18.528582,18.264221 13.291696,25.230495 11.500037,31.436501 z"
             style="fill:#404040;"/>
          </a>
         </g>
        </svg>
</svg>
