<?xml version="1.0" encoding="UTF-8" standalone="no"?>
<!DOCTYPE svg PUBLIC "-//W3C//DTD SVG 1.1//EN"
 "http://www.w3.org/Graphics/SVG/1.1/DTD/svg11.dtd">
<!-- Generated by graphviz version 2.40.1 (20161225.0304)
 -->
<!-- Title: WindowWidget::actualRender Pages: 1 -->
<svg width="417pt" height="28pt"
 viewBox="0.00 0.00 417.00 28.00" xmlns="http://www.w3.org/2000/svg" xmlns:xlink="http://www.w3.org/1999/xlink">
<g id="graph0" class="graph" transform="scale(1 1) rotate(0) translate(4 24)">
<title>WindowWidget::actualRender</title>
<polygon fill="#ffffff" stroke="transparent" points="-4,4 -4,-24 413,-24 413,4 -4,4"/>
<!-- Node8 -->
<g id="node1" class="node">
<title>Node8</title>
<polygon fill="#bfbfbf" stroke="#000000" points="0,-.5 0,-19.5 146,-19.5 146,-.5 0,-.5"/>
<text text-anchor="middle" x="73" y="-7.5" font-family="Helvetica,sans-Serif" font-size="10.00" fill="#000000">WindowWidget::actualRender</text>
</g>
<!-- Node9 -->
<g id="node2" class="node">
<title>Node9</title>
<g id="a_node2"><a xlink:href="class_widget.html#a2516fd56cac645cb3aacef37937c49d3" target="_top" xlink:title="Widget::render">
<polygon fill="#ffffff" stroke="#000000" points="182,-.5 182,-19.5 262,-19.5 262,-.5 182,-.5"/>
<text text-anchor="middle" x="222" y="-7.5" font-family="Helvetica,sans-Serif" font-size="10.00" fill="#000000">Widget::render</text>
</a>
</g>
</g>
<!-- Node8&#45;&gt;Node9 -->
<g id="edge1" class="edge">
<title>Node8&#45;&gt;Node9</title>
<path fill="none" stroke="#191970" d="M146.1905,-10C154.7806,-10 163.3939,-10 171.5734,-10"/>
<polygon fill="#191970" stroke="#191970" points="171.6677,-13.5001 181.6677,-10 171.6677,-6.5001 171.6677,-13.5001"/>
</g>
<!-- Node10 -->
<g id="node3" class="node">
<title>Node10</title>
<g id="a_node3"><a xlink:href="class_widget.html#a5ff4883144670b8c93b41e440e3d4446" target="_top" xlink:title="Widget::actualRender">
<polygon fill="#ffffff" stroke="#000000" points="298,-.5 298,-19.5 409,-19.5 409,-.5 298,-.5"/>
<text text-anchor="middle" x="353.5" y="-7.5" font-family="Helvetica,sans-Serif" font-size="10.00" fill="#000000">Widget::actualRender</text>
</a>
</g>
</g>
<!-- Node9&#45;&gt;Node10 -->
<g id="edge2" class="edge">
<title>Node9&#45;&gt;Node10</title>
<path fill="none" stroke="#191970" d="M262.1689,-10C270.2034,-10 278.8418,-10 287.4863,-10"/>
<polygon fill="#191970" stroke="#191970" points="287.6011,-13.5001 297.6011,-10 287.601,-6.5001 287.6011,-13.5001"/>
</g>
</g>
</svg>
