<?xml version="1.0" encoding="UTF-8" standalone="no"?>
<!DOCTYPE svg PUBLIC "-//W3C//DTD SVG 1.1//EN"
 "http://www.w3.org/Graphics/SVG/1.1/DTD/svg11.dtd">
<!-- Generated by graphviz version 2.40.1 (20161225.0304)
 -->
<!-- Title: Widget::actualRender Pages: 1 -->
<svg width="975pt" height="408pt"
 viewBox="0.00 0.00 975.00 408.00" xmlns="http://www.w3.org/2000/svg" xmlns:xlink="http://www.w3.org/1999/xlink">
<g id="graph0" class="graph" transform="scale(1 1) rotate(0) translate(4 404)">
<title>Widget::actualRender</title>
<polygon fill="#ffffff" stroke="transparent" points="-4,4 -4,-404 971,-404 971,4 -4,4"/>
<!-- Node33 -->
<g id="node1" class="node">
<title>Node33</title>
<polygon fill="#bfbfbf" stroke="#000000" points="0,-209.5 0,-228.5 111,-228.5 111,-209.5 0,-209.5"/>
<text text-anchor="middle" x="55.5" y="-216.5" font-family="Helvetica,sans-Serif" font-size="10.00" fill="#000000">Widget::actualRender</text>
</g>
<!-- Node34 -->
<g id="node2" class="node">
<title>Node34</title>
<g id="a_node2"><a xlink:href="class_widget.html#a1d36bcdc5a64ead5403be88654a5559f" target="_top" xlink:title="Widget::getWindow">
<polygon fill="#ffffff" stroke="#000000" points="147,-228.5 147,-247.5 249,-247.5 249,-228.5 147,-228.5"/>
<text text-anchor="middle" x="198" y="-235.5" font-family="Helvetica,sans-Serif" font-size="10.00" fill="#000000">Widget::getWindow</text>
</a>
</g>
</g>
<!-- Node33&#45;&gt;Node34 -->
<g id="edge1" class="edge">
<title>Node33&#45;&gt;Node34</title>
<path fill="none" stroke="#191970" d="M121.0047,-227.734C129.5949,-228.8793 138.2972,-230.0396 146.6077,-231.1477"/>
<polygon fill="#191970" stroke="#191970" points="121.3771,-224.2527 111.0023,-226.4003 120.4519,-231.1913 121.3771,-224.2527"/>
</g>
<!-- Node35 -->
<g id="node3" class="node">
<title>Node35</title>
<g id="a_node3"><a xlink:href="class_widget.html#a2516fd56cac645cb3aacef37937c49d3" target="_top" xlink:title="Widget::render">
<polygon fill="#ffffff" stroke="#000000" points="158,-190.5 158,-209.5 238,-209.5 238,-190.5 158,-190.5"/>
<text text-anchor="middle" x="198" y="-197.5" font-family="Helvetica,sans-Serif" font-size="10.00" fill="#000000">Widget::render</text>
</a>
</g>
</g>
<!-- Node33&#45;&gt;Node35 -->
<g id="edge2" class="edge">
<title>Node33&#45;&gt;Node35</title>
<path fill="none" stroke="#191970" d="M121.0047,-210.266C133.5787,-208.5895 146.3929,-206.8809 157.8672,-205.351"/>
<polygon fill="#191970" stroke="#191970" points="120.4519,-206.8087 111.0023,-211.5997 121.3771,-213.7473 120.4519,-206.8087"/>
</g>
<!-- Node36 -->
<g id="node4" class="node">
<title>Node36</title>
<g id="a_node4"><a xlink:href="class_button_widget.html#a982bd9ccd6e7b8cb632efafd76309125" target="_top" xlink:title="ButtonWidget::actualRender">
<polygon fill="#ffffff" stroke="#000000" points="294,-380.5 294,-399.5 434,-399.5 434,-380.5 294,-380.5"/>
<text text-anchor="middle" x="364" y="-387.5" font-family="Helvetica,sans-Serif" font-size="10.00" fill="#000000">ButtonWidget::actualRender</text>
</a>
</g>
</g>
<!-- Node35&#45;&gt;Node36 -->
<g id="edge3" class="edge">
<title>Node35&#45;&gt;Node36</title>
<path fill="none" stroke="#191970" d="M245.1639,-215.2587C246.5316,-216.4161 247.8176,-217.661 249,-219 294.9529,-271.0393 235.9947,-321.8245 285,-371 288.7838,-374.797 293.185,-377.8853 297.9368,-380.3918"/>
<polygon fill="#191970" stroke="#191970" points="246.8498,-212.1762 236.5878,-209.5416 242.9671,-218.0007 246.8498,-212.1762"/>
</g>
<!-- Node38 -->
<g id="node6" class="node">
<title>Node38</title>
<g id="a_node6"><a xlink:href="class_grid_widget.html#ad2b2565b4ef8046f6886d09698567a18" target="_top" xlink:title="GridWidget::actualRender">
<polygon fill="#ffffff" stroke="#000000" points="299.5,-342.5 299.5,-361.5 428.5,-361.5 428.5,-342.5 299.5,-342.5"/>
<text text-anchor="middle" x="364" y="-349.5" font-family="Helvetica,sans-Serif" font-size="10.00" fill="#000000">GridWidget::actualRender</text>
</a>
</g>
</g>
<!-- Node35&#45;&gt;Node38 -->
<g id="edge5" class="edge">
<title>Node35&#45;&gt;Node38</title>
<path fill="none" stroke="#191970" d="M244.4864,-214.9359C246.094,-216.1842 247.6086,-217.5361 249,-219 285.6055,-257.5117 246.1403,-296.7642 285,-333 289.2299,-336.9443 294.1313,-340.1126 299.3806,-342.6522"/>
<polygon fill="#191970" stroke="#191970" points="246.1498,-211.8481 235.8145,-209.5171 242.4403,-217.7845 246.1498,-211.8481"/>
</g>
<!-- Node40 -->
<g id="node8" class="node">
<title>Node40</title>
<g id="a_node8"><a xlink:href="class_image_widget.html#ac80b8e013edc3cda5e1413cbd174b2cb" target="_top" xlink:title="ImageWidget::actualRender">
<polygon fill="#ffffff" stroke="#000000" points="295,-304.5 295,-323.5 433,-323.5 433,-304.5 295,-304.5"/>
<text text-anchor="middle" x="364" y="-311.5" font-family="Helvetica,sans-Serif" font-size="10.00" fill="#000000">ImageWidget::actualRender</text>
</a>
</g>
</g>
<!-- Node35&#45;&gt;Node40 -->
<g id="edge7" class="edge">
<title>Node35&#45;&gt;Node40</title>
<path fill="none" stroke="#191970" d="M243.5337,-214.6916C245.4671,-216.0098 247.3031,-217.4428 249,-219 276.5371,-244.2714 255.99,-271.4339 285,-295 289.7081,-298.8246 295.0634,-301.9004 300.7157,-304.3711"/>
<polygon fill="#191970" stroke="#191970" points="244.9906,-211.4946 234.5635,-209.6173 241.544,-217.5874 244.9906,-211.4946"/>
</g>
<!-- Node44 -->
<g id="node12" class="node">
<title>Node44</title>
<g id="a_node12"><a xlink:href="class_layout_widget.html#a4c5e202310725b09ff40ea0a8e2a7572" target="_top" xlink:title="LayoutWidget::actualRender">
<polygon fill="#ffffff" stroke="#000000" points="294,-266.5 294,-285.5 434,-285.5 434,-266.5 294,-266.5"/>
<text text-anchor="middle" x="364" y="-273.5" font-family="Helvetica,sans-Serif" font-size="10.00" fill="#000000">LayoutWidget::actualRender</text>
</a>
</g>
</g>
<!-- Node35&#45;&gt;Node44 -->
<g id="edge11" class="edge">
<title>Node35&#45;&gt;Node44</title>
<path fill="none" stroke="#191970" d="M239.678,-213.6724C242.9251,-215.2906 246.0746,-217.0644 249,-219 268.402,-231.8373 264.8596,-245.3552 285,-257 291.7166,-260.8834 299.1937,-263.9752 306.7944,-266.4362"/>
<polygon fill="#191970" stroke="#191970" points="240.9319,-210.3993 230.3738,-209.5188 238.0784,-216.7913 240.9319,-210.3993"/>
</g>
<!-- Node45 -->
<g id="node13" class="node">
<title>Node45</title>
<g id="a_node13"><a xlink:href="class_list_widget.html#a8fbbe5bd2879acc726ec4ecbb87a3da8" target="_top" xlink:title="ListWidget::actualRender">
<polygon fill="#ffffff" stroke="#000000" points="300.5,-228.5 300.5,-247.5 427.5,-247.5 427.5,-228.5 300.5,-228.5"/>
<text text-anchor="middle" x="364" y="-235.5" font-family="Helvetica,sans-Serif" font-size="10.00" fill="#000000">ListWidget::actualRender</text>
</a>
</g>
</g>
<!-- Node35&#45;&gt;Node45 -->
<g id="edge12" class="edge">
<title>Node35&#45;&gt;Node45</title>
<path fill="none" stroke="#191970" d="M248.0755,-211.4631C271.836,-216.9022 299.8927,-223.3248 322.4525,-228.4891"/>
<polygon fill="#191970" stroke="#191970" points="248.7129,-208.0185 238.184,-209.1987 247.1508,-214.842 248.7129,-208.0185"/>
</g>
<!-- Node46 -->
<g id="node14" class="node">
<title>Node46</title>
<g id="a_node14"><a xlink:href="class_menu_bar_widget.html#a889dfb7e60370bf27cf4e5522ef0b454" target="_top" xlink:title="MenuBarWidget::actualRender">
<polygon fill="#ffffff" stroke="#000000" points="289,-190.5 289,-209.5 439,-209.5 439,-190.5 289,-190.5"/>
<text text-anchor="middle" x="364" y="-197.5" font-family="Helvetica,sans-Serif" font-size="10.00" fill="#000000">MenuBarWidget::actualRender</text>
</a>
</g>
</g>
<!-- Node35&#45;&gt;Node46 -->
<g id="edge13" class="edge">
<title>Node35&#45;&gt;Node46</title>
<path fill="none" stroke="#191970" d="M248.545,-200C261.2559,-200 275.1722,-200 288.8052,-200"/>
<polygon fill="#191970" stroke="#191970" points="248.184,-196.5001 238.184,-200 248.1839,-203.5001 248.184,-196.5001"/>
</g>
<!-- Node47 -->
<g id="node15" class="node">
<title>Node47</title>
<g id="a_node15"><a xlink:href="class_tag_selector.html#add853733030378d7fb475343f40d2e33" target="_top" xlink:title="TagSelector::actualRender">
<polygon fill="#ffffff" stroke="#000000" points="297.5,-152.5 297.5,-171.5 430.5,-171.5 430.5,-152.5 297.5,-152.5"/>
<text text-anchor="middle" x="364" y="-159.5" font-family="Helvetica,sans-Serif" font-size="10.00" fill="#000000">TagSelector::actualRender</text>
</a>
</g>
</g>
<!-- Node35&#45;&gt;Node47 -->
<g id="edge14" class="edge">
<title>Node35&#45;&gt;Node47</title>
<path fill="none" stroke="#191970" d="M248.0755,-188.5369C271.836,-183.0978 299.8927,-176.6752 322.4525,-171.5109"/>
<polygon fill="#191970" stroke="#191970" points="247.1508,-185.158 238.184,-190.8013 248.7129,-191.9815 247.1508,-185.158"/>
</g>
<!-- Node48 -->
<g id="node16" class="node">
<title>Node48</title>
<g id="a_node16"><a xlink:href="class_tag_setter_widget.html#a8e33c61e9806b27241df2e3c69ed9584" target="_top" xlink:title="TagSetterWidget::actualRender">
<polygon fill="#ffffff" stroke="#000000" points="287,-114.5 287,-133.5 441,-133.5 441,-114.5 287,-114.5"/>
<text text-anchor="middle" x="364" y="-121.5" font-family="Helvetica,sans-Serif" font-size="10.00" fill="#000000">TagSetterWidget::actualRender</text>
</a>
</g>
</g>
<!-- Node35&#45;&gt;Node48 -->
<g id="edge15" class="edge">
<title>Node35&#45;&gt;Node48</title>
<path fill="none" stroke="#191970" d="M217.6501,-184.271C234.5844,-171.44 260.1583,-153.7383 285,-143 293.8049,-139.1939 303.5062,-136.0692 313.0064,-133.5325"/>
<polygon fill="#191970" stroke="#191970" points="215.3996,-181.5869 209.6318,-190.4742 219.6829,-187.1235 215.3996,-181.5869"/>
</g>
<!-- Node49 -->
<g id="node17" class="node">
<title>Node49</title>
<g id="a_node17"><a xlink:href="class_tag_viewer_widget.html#a4604a3d47ac1b722fdfe0e1ad6823bc9" target="_top" xlink:title="TagViewerWidget::actualRender">
<polygon fill="#ffffff" stroke="#000000" points="285,-76.5 285,-95.5 443,-95.5 443,-76.5 285,-76.5"/>
<text text-anchor="middle" x="364" y="-83.5" font-family="Helvetica,sans-Serif" font-size="10.00" fill="#000000">TagViewerWidget::actualRender</text>
</a>
</g>
</g>
<!-- Node35&#45;&gt;Node49 -->
<g id="edge16" class="edge">
<title>Node35&#45;&gt;Node49</title>
<path fill="none" stroke="#191970" d="M209.5779,-181.8573C224.3913,-160.1728 252.1069,-124.391 285,-105 291.5621,-101.1316 298.8708,-98.0497 306.3193,-95.5948"/>
<polygon fill="#191970" stroke="#191970" points="206.4836,-180.1906 203.8742,-190.4591 212.3175,-184.059 206.4836,-180.1906"/>
</g>
<!-- Node50 -->
<g id="node18" class="node">
<title>Node50</title>
<g id="a_node18"><a xlink:href="class_window_widget.html#aaec9f66e42abae3db2c28b4d153f4102" target="_top" xlink:title="WindowWidget::actualRender">
<polygon fill="#ffffff" stroke="#000000" points="291,-38.5 291,-57.5 437,-57.5 437,-38.5 291,-38.5"/>
<text text-anchor="middle" x="364" y="-45.5" font-family="Helvetica,sans-Serif" font-size="10.00" fill="#000000">WindowWidget::actualRender</text>
</a>
</g>
</g>
<!-- Node35&#45;&gt;Node50 -->
<g id="edge17" class="edge">
<title>Node35&#45;&gt;Node50</title>
<path fill="none" stroke="#191970" d="M205.2017,-180.6148C217.1255,-151.2931 243.8184,-96.0144 285,-67 290.5352,-63.1002 296.7721,-59.9948 303.2528,-57.5231"/>
<polygon fill="#191970" stroke="#191970" points="201.8568,-179.5584 201.4774,-190.1464 208.3768,-182.106 201.8568,-179.5584"/>
</g>
<!-- Node52 -->
<g id="node20" class="node">
<title>Node52</title>
<g id="a_node20"><a xlink:href="class_window_widget.html#aaeb6c16306f82469d443182594a8ef8e" target="_top" xlink:title="WindowWidget::display">
<polygon fill="#ffffff" stroke="#000000" points="304.5,-.5 304.5,-19.5 423.5,-19.5 423.5,-.5 304.5,-.5"/>
<text text-anchor="middle" x="364" y="-7.5" font-family="Helvetica,sans-Serif" font-size="10.00" fill="#000000">WindowWidget::display</text>
</a>
</g>
</g>
<!-- Node35&#45;&gt;Node52 -->
<g id="edge20" class="edge">
<title>Node35&#45;&gt;Node52</title>
<path fill="none" stroke="#191970" d="M202.2776,-180.3157C211.1356,-144.4377 234.9802,-68.4731 285,-29 290.7583,-24.4559 297.4368,-20.9738 304.4241,-18.31"/>
<polygon fill="#191970" stroke="#191970" points="198.7749,-179.9253 199.9141,-190.4587 205.5923,-181.514 198.7749,-179.9253"/>
</g>
<!-- Node37 -->
<g id="node5" class="node">
<title>Node37</title>
<g id="a_node5"><a xlink:href="class_button_widget.html#a5239cdc7bf6ea60722aa0620611be239" target="_top" xlink:title="ButtonWidget::isColored">
<polygon fill="#ffffff" stroke="#000000" points="487.5,-380.5 487.5,-399.5 610.5,-399.5 610.5,-380.5 487.5,-380.5"/>
<text text-anchor="middle" x="549" y="-387.5" font-family="Helvetica,sans-Serif" font-size="10.00" fill="#000000">ButtonWidget::isColored</text>
</a>
</g>
</g>
<!-- Node36&#45;&gt;Node37 -->
<g id="edge4" class="edge">
<title>Node36&#45;&gt;Node37</title>
<path fill="none" stroke="#191970" d="M444.5551,-390C458.8924,-390 473.6189,-390 487.3259,-390"/>
<polygon fill="#191970" stroke="#191970" points="444.2044,-386.5001 434.2044,-390 444.2043,-393.5001 444.2044,-386.5001"/>
</g>
<!-- Node39 -->
<g id="node7" class="node">
<title>Node39</title>
<g id="a_node7"><a xlink:href="class_grid_widget.html#abfc54e477706b66bd09f6f3c459fcfa4" target="_top" xlink:title="GridWidget::GridWidget">
<polygon fill="#ffffff" stroke="#000000" points="489,-342.5 489,-361.5 609,-361.5 609,-342.5 489,-342.5"/>
<text text-anchor="middle" x="549" y="-349.5" font-family="Helvetica,sans-Serif" font-size="10.00" fill="#000000">GridWidget::GridWidget</text>
</a>
</g>
</g>
<!-- Node38&#45;&gt;Node39 -->
<g id="edge6" class="edge">
<title>Node38&#45;&gt;Node39</title>
<path fill="none" stroke="#191970" d="M438.9468,-352C455.5933,-352 473.0271,-352 488.9837,-352"/>
<polygon fill="#191970" stroke="#191970" points="438.7041,-348.5001 428.704,-352 438.704,-355.5001 438.7041,-348.5001"/>
</g>
<!-- Node41 -->
<g id="node9" class="node">
<title>Node41</title>
<g id="a_node9"><a xlink:href="class_image_widget.html#a5973a50de2ac39437934a09313af6af9" target="_top" xlink:title="ImageWidget::setSelectable">
<polygon fill="#ffffff" stroke="#000000" points="479,-266.5 479,-285.5 619,-285.5 619,-266.5 479,-266.5"/>
<text text-anchor="middle" x="549" y="-273.5" font-family="Helvetica,sans-Serif" font-size="10.00" fill="#000000">ImageWidget::setSelectable</text>
</a>
</g>
</g>
<!-- Node40&#45;&gt;Node41 -->
<g id="edge8" class="edge">
<title>Node40&#45;&gt;Node41</title>
<path fill="none" stroke="#191970" d="M420.52,-302.3905C446.8312,-296.986 477.7435,-290.6365 502.6524,-285.5201"/>
<polygon fill="#191970" stroke="#191970" points="419.7746,-298.9704 410.6833,-304.411 421.183,-305.8273 419.7746,-298.9704"/>
</g>
<!-- Node42 -->
<g id="node10" class="node">
<title>Node42</title>
<g id="a_node10"><a xlink:href="class_application.html#a8f9f948d5439efe526f3219d85b29d7f" target="_top" xlink:title="Application::savePossibleTags">
<polygon fill="#ffffff" stroke="#000000" points="655,-228.5 655,-247.5 806,-247.5 806,-228.5 655,-228.5"/>
<text text-anchor="middle" x="730.5" y="-235.5" font-family="Helvetica,sans-Serif" font-size="10.00" fill="#000000">Application::savePossibleTags</text>
</a>
</g>
</g>
<!-- Node41&#45;&gt;Node42 -->
<g id="edge9" class="edge">
<title>Node41&#45;&gt;Node42</title>
<path fill="none" stroke="#191970" d="M604.7921,-264.319C630.5312,-258.9301 660.6992,-252.6139 685.0292,-247.5201"/>
<polygon fill="#191970" stroke="#191970" points="603.8706,-260.936 594.8001,-266.411 605.3052,-267.7874 603.8706,-260.936"/>
</g>
<!-- Node43 -->
<g id="node11" class="node">
<title>Node43</title>
<g id="a_node11"><a xlink:href="class_application.html#a748bca84fefb9c12661cfaa2f623748d" target="_top" xlink:title="Application::~Application">
<polygon fill="#ffffff" stroke="#000000" points="842,-228.5 842,-247.5 967,-247.5 967,-228.5 842,-228.5"/>
<text text-anchor="middle" x="904.5" y="-235.5" font-family="Helvetica,sans-Serif" font-size="10.00" fill="#000000">Application::~Application</text>
</a>
</g>
</g>
<!-- Node42&#45;&gt;Node43 -->
<g id="edge10" class="edge">
<title>Node42&#45;&gt;Node43</title>
<path fill="none" stroke="#191970" d="M816.1685,-238C824.8039,-238 833.4568,-238 841.7867,-238"/>
<polygon fill="#191970" stroke="#191970" points="816.0598,-234.5001 806.0598,-238 816.0598,-241.5001 816.0598,-234.5001"/>
</g>
<!-- Node51 -->
<g id="node19" class="node">
<title>Node51</title>
<g id="a_node19"><a xlink:href="class_window_widget.html#abdbf63bb8a663c46bfdd2c117aa55e4d" target="_top" xlink:title="WindowWidget::close">
<polygon fill="#ffffff" stroke="#000000" points="493,-152.5 493,-171.5 605,-171.5 605,-152.5 493,-152.5"/>
<text text-anchor="middle" x="549" y="-159.5" font-family="Helvetica,sans-Serif" font-size="10.00" fill="#000000">WindowWidget::close</text>
</a>
</g>
</g>
<!-- Node50&#45;&gt;Node51 -->
<g id="edge18" class="edge">
<title>Node50&#45;&gt;Node51</title>
<path fill="none" stroke="#191970" d="M428.8095,-60.7563C433.7219,-62.573 438.5094,-64.6428 443,-67 485.6675,-89.3965 524.8366,-132.7938 541.0805,-152.2037"/>
<polygon fill="#191970" stroke="#191970" points="429.8478,-57.4131 419.254,-57.5656 427.6307,-64.0527 429.8478,-57.4131"/>
</g>
<!-- Node51&#45;&gt;Node42 -->
<g id="edge19" class="edge">
<title>Node51&#45;&gt;Node42</title>
<path fill="none" stroke="#191970" d="M581.6372,-175.6662C618.0126,-190.8978 675.8891,-215.1326 707.6995,-228.4527"/>
<polygon fill="#191970" stroke="#191970" points="582.563,-172.2595 571.9871,-171.6255 579.8592,-178.7163 582.563,-172.2595"/>
</g>
<!-- Node53 -->
<g id="node21" class="node">
<title>Node53</title>
<g id="a_node21"><a xlink:href="class_application.html#a81d5b51e54511185c84ee300e752a85f" target="_top" xlink:title="Application::execute">
<polygon fill="#ffffff" stroke="#000000" points="496.5,-.5 496.5,-19.5 601.5,-19.5 601.5,-.5 496.5,-.5"/>
<text text-anchor="middle" x="549" y="-7.5" font-family="Helvetica,sans-Serif" font-size="10.00" fill="#000000">Application::execute</text>
</a>
</g>
</g>
<!-- Node52&#45;&gt;Node53 -->
<g id="edge21" class="edge">
<title>Node52&#45;&gt;Node53</title>
<path fill="none" stroke="#191970" d="M433.6189,-10C454.4332,-10 476.8968,-10 496.4233,-10"/>
<polygon fill="#191970" stroke="#191970" points="433.5535,-6.5001 423.5535,-10 433.5535,-13.5001 433.5535,-6.5001"/>
</g>
<!-- Node54 -->
<g id="node22" class="node">
<title>Node54</title>
<g id="a_node22"><a xlink:href="main_8cpp.html#adc4096c0dfd003425c219daa30db4e1e" target="_top" xlink:title="main">
<polygon fill="#ffffff" stroke="#000000" points="711.5,-.5 711.5,-19.5 749.5,-19.5 749.5,-.5 711.5,-.5"/>
<text text-anchor="middle" x="730.5" y="-7.5" font-family="Helvetica,sans-Serif" font-size="10.00" fill="#000000">main</text>
</a>
</g>
</g>
<!-- Node53&#45;&gt;Node54 -->
<g id="edge22" class="edge">
<title>Node53&#45;&gt;Node54</title>
<path fill="none" stroke="#191970" d="M612.1342,-10C647.0781,-10 688.06,-10 711.4834,-10"/>
<polygon fill="#191970" stroke="#191970" points="611.9853,-6.5001 601.9852,-10 611.9852,-13.5001 611.9853,-6.5001"/>
</g>
</g>
</svg>
