<?xml version="1.0" encoding="UTF-8" standalone="no"?>
<!DOCTYPE svg PUBLIC "-//W3C//DTD SVG 1.1//EN"
 "http://www.w3.org/Graphics/SVG/1.1/DTD/svg11.dtd">
<!-- Generated by graphviz version 2.40.1 (20161225.0304)
 -->
<!-- Title: Widget::actualResize Pages: 1 -->
<svg width="661pt" height="66pt"
 viewBox="0.00 0.00 661.00 66.00" xmlns="http://www.w3.org/2000/svg" xmlns:xlink="http://www.w3.org/1999/xlink">
<g id="graph0" class="graph" transform="scale(1 1) rotate(0) translate(4 62)">
<title>Widget::actualResize</title>
<polygon fill="#ffffff" stroke="transparent" points="-4,4 -4,-62 657,-62 657,4 -4,4"/>
<!-- Node56 -->
<g id="node1" class="node">
<title>Node56</title>
<polygon fill="#bfbfbf" stroke="#000000" points="0,-19.5 0,-38.5 110,-38.5 110,-19.5 0,-19.5"/>
<text text-anchor="middle" x="55" y="-26.5" font-family="Helvetica,sans-Serif" font-size="10.00" fill="#000000">Widget::actualResize</text>
</g>
<!-- Node57 -->
<g id="node2" class="node">
<title>Node57</title>
<g id="a_node2"><a xlink:href="class_widget.html#a1d36bcdc5a64ead5403be88654a5559f" target="_top" xlink:title="Widget::getWindow">
<polygon fill="#ffffff" stroke="#000000" points="146,-38.5 146,-57.5 248,-57.5 248,-38.5 146,-38.5"/>
<text text-anchor="middle" x="197" y="-45.5" font-family="Helvetica,sans-Serif" font-size="10.00" fill="#000000">Widget::getWindow</text>
</a>
</g>
</g>
<!-- Node56&#45;&gt;Node57 -->
<g id="edge1" class="edge">
<title>Node56&#45;&gt;Node57</title>
<path fill="none" stroke="#191970" d="M120.2749,-37.734C128.8349,-38.8793 137.5066,-40.0396 145.788,-41.1477"/>
<polygon fill="#191970" stroke="#191970" points="120.6834,-34.2575 110.3075,-36.4003 119.755,-41.1957 120.6834,-34.2575"/>
</g>
<!-- Node58 -->
<g id="node3" class="node">
<title>Node58</title>
<g id="a_node3"><a xlink:href="class_widget.html#a0809c3a396f9d1cedb1446d7b0750ef2" target="_top" xlink:title="Widget::resize">
<polygon fill="#ffffff" stroke="#000000" points="157,-.5 157,-19.5 237,-19.5 237,-.5 157,-.5"/>
<text text-anchor="middle" x="197" y="-7.5" font-family="Helvetica,sans-Serif" font-size="10.00" fill="#000000">Widget::resize</text>
</a>
</g>
</g>
<!-- Node56&#45;&gt;Node58 -->
<g id="edge2" class="edge">
<title>Node56&#45;&gt;Node58</title>
<path fill="none" stroke="#191970" d="M120.5429,-20.2302C132.8279,-18.5864 145.3322,-16.9133 156.5727,-15.4093"/>
<polygon fill="#191970" stroke="#191970" points="119.755,-16.8043 110.3075,-21.5997 120.6834,-23.7425 119.755,-16.8043"/>
</g>
<!-- Node59 -->
<g id="node4" class="node">
<title>Node59</title>
<g id="a_node4"><a xlink:href="class_window_widget.html#a541a8f556d865da798786e2601cf031e" target="_top" xlink:title="WindowWidget::manageEvents">
<polygon fill="#ffffff" stroke="#000000" points="284,-.5 284,-19.5 438,-19.5 438,-.5 284,-.5"/>
<text text-anchor="middle" x="361" y="-7.5" font-family="Helvetica,sans-Serif" font-size="10.00" fill="#000000">WindowWidget::manageEvents</text>
</a>
</g>
</g>
<!-- Node58&#45;&gt;Node59 -->
<g id="edge3" class="edge">
<title>Node58&#45;&gt;Node59</title>
<path fill="none" stroke="#191970" d="M247.395,-10C258.9208,-10 271.4302,-10 283.7938,-10"/>
<polygon fill="#191970" stroke="#191970" points="247.1189,-6.5001 237.1189,-10 247.1189,-13.5001 247.1189,-6.5001"/>
</g>
<!-- Node60 -->
<g id="node5" class="node">
<title>Node60</title>
<g id="a_node5"><a xlink:href="class_application.html#a81d5b51e54511185c84ee300e752a85f" target="_top" xlink:title="Lance l&#39;application. ">
<polygon fill="#ffffff" stroke="#000000" points="474,-.5 474,-19.5 579,-19.5 579,-.5 474,-.5"/>
<text text-anchor="middle" x="526.5" y="-7.5" font-family="Helvetica,sans-Serif" font-size="10.00" fill="#000000">Application::execute</text>
</a>
</g>
</g>
<!-- Node59&#45;&gt;Node60 -->
<g id="edge4" class="edge">
<title>Node59&#45;&gt;Node60</title>
<path fill="none" stroke="#191970" d="M448.5123,-10C457.1018,-10 465.6225,-10 473.7029,-10"/>
<polygon fill="#191970" stroke="#191970" points="448.4198,-6.5001 438.4198,-10 448.4198,-13.5001 448.4198,-6.5001"/>
</g>
<!-- Node61 -->
<g id="node6" class="node">
<title>Node61</title>
<g id="a_node6"><a xlink:href="main_8cpp.html#adc4096c0dfd003425c219daa30db4e1e" target="_top" xlink:title="main">
<polygon fill="#ffffff" stroke="#000000" points="615,-.5 615,-19.5 653,-19.5 653,-.5 615,-.5"/>
<text text-anchor="middle" x="634" y="-7.5" font-family="Helvetica,sans-Serif" font-size="10.00" fill="#000000">main</text>
</a>
</g>
</g>
<!-- Node60&#45;&gt;Node61 -->
<g id="edge5" class="edge">
<title>Node60&#45;&gt;Node61</title>
<path fill="none" stroke="#191970" d="M589.4215,-10C598.6591,-10 607.5243,-10 614.8818,-10"/>
<polygon fill="#191970" stroke="#191970" points="589.3053,-6.5001 579.3052,-10 589.3052,-13.5001 589.3053,-6.5001"/>
</g>
</g>
</svg>
