<?xml version="1.0" encoding="UTF-8" standalone="no"?>
<!DOCTYPE svg PUBLIC "-//W3C//DTD SVG 1.1//EN"
 "http://www.w3.org/Graphics/SVG/1.1/DTD/svg11.dtd">
<!-- Generated by graphviz version 2.40.1 (20161225.0304)
 -->
<!-- Title: ListWidget::actualRender Pages: 1 -->
<svg width="398pt" height="28pt"
 viewBox="0.00 0.00 398.00 28.00" xmlns="http://www.w3.org/2000/svg" xmlns:xlink="http://www.w3.org/1999/xlink">
<g id="graph0" class="graph" transform="scale(1 1) rotate(0) translate(4 24)">
<title>ListWidget::actualRender</title>
<polygon fill="#ffffff" stroke="transparent" points="-4,4 -4,-24 394,-24 394,4 -4,4"/>
<!-- Node14 -->
<g id="node1" class="node">
<title>Node14</title>
<polygon fill="#bfbfbf" stroke="#000000" points="0,-.5 0,-19.5 127,-19.5 127,-.5 0,-.5"/>
<text text-anchor="middle" x="63.5" y="-7.5" font-family="Helvetica,sans-Serif" font-size="10.00" fill="#000000">ListWidget::actualRender</text>
</g>
<!-- Node15 -->
<g id="node2" class="node">
<title>Node15</title>
<g id="a_node2"><a xlink:href="class_widget.html#a2516fd56cac645cb3aacef37937c49d3" target="_top" xlink:title="Widget::render">
<polygon fill="#ffffff" stroke="#000000" points="163,-.5 163,-19.5 243,-19.5 243,-.5 163,-.5"/>
<text text-anchor="middle" x="203" y="-7.5" font-family="Helvetica,sans-Serif" font-size="10.00" fill="#000000">Widget::render</text>
</a>
</g>
</g>
<!-- Node14&#45;&gt;Node15 -->
<g id="edge1" class="edge">
<title>Node14&#45;&gt;Node15</title>
<path fill="none" stroke="#191970" d="M127.1266,-10C135.615,-10 144.2252,-10 152.4492,-10"/>
<polygon fill="#191970" stroke="#191970" points="152.6216,-13.5001 162.6216,-10 152.6215,-6.5001 152.6216,-13.5001"/>
</g>
<!-- Node16 -->
<g id="node3" class="node">
<title>Node16</title>
<g id="a_node3"><a xlink:href="class_widget.html#a5ff4883144670b8c93b41e440e3d4446" target="_top" xlink:title="Widget::actualRender">
<polygon fill="#ffffff" stroke="#000000" points="279,-.5 279,-19.5 390,-19.5 390,-.5 279,-.5"/>
<text text-anchor="middle" x="334.5" y="-7.5" font-family="Helvetica,sans-Serif" font-size="10.00" fill="#000000">Widget::actualRender</text>
</a>
</g>
</g>
<!-- Node15&#45;&gt;Node16 -->
<g id="edge2" class="edge">
<title>Node15&#45;&gt;Node16</title>
<path fill="none" stroke="#191970" d="M243.1689,-10C251.2034,-10 259.8418,-10 268.4863,-10"/>
<polygon fill="#191970" stroke="#191970" points="268.6011,-13.5001 278.6011,-10 268.601,-6.5001 268.6011,-13.5001"/>
</g>
</g>
</svg>
