<?xml version="1.0" encoding="UTF-8" standalone="no"?>
<!DOCTYPE svg PUBLIC "-//W3C//DTD SVG 1.1//EN"
 "http://www.w3.org/Graphics/SVG/1.1/DTD/svg11.dtd">
<!-- Generated by graphviz version 2.40.1 (20161225.0304)
 -->
<!-- Title: Widget::render Pages: 1 -->
<svg width="806pt" height="408pt"
 viewBox="0.00 0.00 806.00 408.00" xmlns="http://www.w3.org/2000/svg" xmlns:xlink="http://www.w3.org/1999/xlink">
<g id="graph0" class="graph" transform="scale(1 1) rotate(0) translate(4 404)">
<title>Widget::render</title>
<polygon fill="#ffffff" stroke="transparent" points="-4,4 -4,-404 802,-404 802,4 -4,4"/>
<!-- Node152 -->
<g id="node1" class="node">
<title>Node152</title>
<polygon fill="#bfbfbf" stroke="#000000" points="0,-190.5 0,-209.5 80,-209.5 80,-190.5 0,-190.5"/>
<text text-anchor="middle" x="40" y="-197.5" font-family="Helvetica,sans-Serif" font-size="10.00" fill="#000000">Widget::render</text>
</g>
<!-- Node153 -->
<g id="node2" class="node">
<title>Node153</title>
<g id="a_node2"><a xlink:href="class_tag_viewer_widget.html#a4604a3d47ac1b722fdfe0e1ad6823bc9" target="_top" xlink:title="TagViewerWidget::actualRender">
<polygon fill="#ffffff" stroke="#000000" points="116,-380.5 116,-399.5 274,-399.5 274,-380.5 116,-380.5"/>
<text text-anchor="middle" x="195" y="-387.5" font-family="Helvetica,sans-Serif" font-size="10.00" fill="#000000">TagViewerWidget::actualRender</text>
</a>
</g>
</g>
<!-- Node152&#45;&gt;Node153 -->
<g id="edge1" class="edge">
<title>Node152&#45;&gt;Node153</title>
<path fill="none" stroke="#191970" d="M42.9577,-219.6284C49.4198,-255.4148 68.2393,-331.2351 116,-371 120.6615,-374.8811 125.986,-377.9945 131.6191,-380.4885"/>
<polygon fill="#191970" stroke="#191970" points="46.3683,-218.8016 41.2728,-209.5126 39.4634,-219.9518 46.3683,-218.8016"/>
</g>
<!-- Node154 -->
<g id="node3" class="node">
<title>Node154</title>
<g id="a_node3"><a xlink:href="class_layout_widget.html#a4c5e202310725b09ff40ea0a8e2a7572" target="_top" xlink:title="LayoutWidget::actualRender">
<polygon fill="#ffffff" stroke="#000000" points="125,-342.5 125,-361.5 265,-361.5 265,-342.5 125,-342.5"/>
<text text-anchor="middle" x="195" y="-349.5" font-family="Helvetica,sans-Serif" font-size="10.00" fill="#000000">LayoutWidget::actualRender</text>
</a>
</g>
</g>
<!-- Node152&#45;&gt;Node154 -->
<g id="edge2" class="edge">
<title>Node152&#45;&gt;Node154</title>
<path fill="none" stroke="#191970" d="M45.7109,-219.7394C55.2611,-249.1152 77.3359,-303.9816 116,-333 121.1898,-336.8951 127.0653,-340.0039 133.2124,-342.4831"/>
<polygon fill="#191970" stroke="#191970" points="48.9481,-218.3596 42.6555,-209.8359 42.2592,-220.4234 48.9481,-218.3596"/>
</g>
<!-- Node155 -->
<g id="node4" class="node">
<title>Node155</title>
<g id="a_node4"><a xlink:href="class_menu_bar_widget.html#a889dfb7e60370bf27cf4e5522ef0b454" target="_top" xlink:title="MenuBarWidget::actualRender">
<polygon fill="#ffffff" stroke="#000000" points="120,-304.5 120,-323.5 270,-323.5 270,-304.5 120,-304.5"/>
<text text-anchor="middle" x="195" y="-311.5" font-family="Helvetica,sans-Serif" font-size="10.00" fill="#000000">MenuBarWidget::actualRender</text>
</a>
</g>
</g>
<!-- Node152&#45;&gt;Node155 -->
<g id="edge3" class="edge">
<title>Node152&#45;&gt;Node155</title>
<path fill="none" stroke="#191970" d="M49.7144,-218.4526C62.1323,-240.1822 85.6994,-275.7472 116,-295 122.0722,-298.8582 128.8603,-301.9333 135.8382,-304.384"/>
<polygon fill="#191970" stroke="#191970" points="52.7008,-216.62 44.8093,-209.5507 46.5699,-219.9982 52.7008,-216.62"/>
</g>
<!-- Node156 -->
<g id="node5" class="node">
<title>Node156</title>
<g id="a_node5"><a xlink:href="class_tag_selector.html#add853733030378d7fb475343f40d2e33" target="_top" xlink:title="TagSelector::actualRender">
<polygon fill="#ffffff" stroke="#000000" points="128.5,-266.5 128.5,-285.5 261.5,-285.5 261.5,-266.5 128.5,-266.5"/>
<text text-anchor="middle" x="195" y="-273.5" font-family="Helvetica,sans-Serif" font-size="10.00" fill="#000000">TagSelector::actualRender</text>
</a>
</g>
</g>
<!-- Node152&#45;&gt;Node156 -->
<g id="edge4" class="edge">
<title>Node152&#45;&gt;Node156</title>
<path fill="none" stroke="#191970" d="M57.6326,-216.5546C72.2221,-229.3867 94.0434,-246.6696 116,-257 124.1691,-260.8435 133.1911,-263.9527 142.1291,-266.4546"/>
<polygon fill="#191970" stroke="#191970" points="59.6991,-213.7048 49.9319,-209.5998 55.0074,-218.8998 59.6991,-213.7048"/>
</g>
<!-- Node157 -->
<g id="node6" class="node">
<title>Node157</title>
<g id="a_node6"><a xlink:href="class_tag_setter_widget.html#a8e33c61e9806b27241df2e3c69ed9584" target="_top" xlink:title="TagSetterWidget::actualRender">
<polygon fill="#ffffff" stroke="#000000" points="118,-228.5 118,-247.5 272,-247.5 272,-228.5 118,-228.5"/>
<text text-anchor="middle" x="195" y="-235.5" font-family="Helvetica,sans-Serif" font-size="10.00" fill="#000000">TagSetterWidget::actualRender</text>
</a>
</g>
</g>
<!-- Node152&#45;&gt;Node157 -->
<g id="edge5" class="edge">
<title>Node152&#45;&gt;Node157</title>
<path fill="none" stroke="#191970" d="M87.8103,-212.0219C97.1546,-214.352 106.8816,-216.7637 116,-219 128.6043,-222.0912 142.3522,-225.4144 154.7938,-228.4037"/>
<polygon fill="#191970" stroke="#191970" points="88.4181,-208.5662 77.8679,-209.5379 86.7212,-215.3575 88.4181,-208.5662"/>
</g>
<!-- Node158 -->
<g id="node7" class="node">
<title>Node158</title>
<g id="a_node7"><a xlink:href="class_image_widget.html#ac80b8e013edc3cda5e1413cbd174b2cb" target="_top" xlink:title="ImageWidget::actualRender">
<polygon fill="#ffffff" stroke="#000000" points="126,-190.5 126,-209.5 264,-209.5 264,-190.5 126,-190.5"/>
<text text-anchor="middle" x="195" y="-197.5" font-family="Helvetica,sans-Serif" font-size="10.00" fill="#000000">ImageWidget::actualRender</text>
</a>
</g>
</g>
<!-- Node152&#45;&gt;Node158 -->
<g id="edge6" class="edge">
<title>Node152&#45;&gt;Node158</title>
<path fill="none" stroke="#191970" d="M90.4076,-200C101.6964,-200 113.8624,-200 125.7654,-200"/>
<polygon fill="#191970" stroke="#191970" points="90.3198,-196.5001 80.3198,-200 90.3198,-203.5001 90.3198,-196.5001"/>
</g>
<!-- Node162 -->
<g id="node11" class="node">
<title>Node162</title>
<g id="a_node11"><a xlink:href="class_window_widget.html#aaec9f66e42abae3db2c28b4d153f4102" target="_top" xlink:title="WindowWidget::actualRender">
<polygon fill="#ffffff" stroke="#000000" points="122,-152.5 122,-171.5 268,-171.5 268,-152.5 122,-152.5"/>
<text text-anchor="middle" x="195" y="-159.5" font-family="Helvetica,sans-Serif" font-size="10.00" fill="#000000">WindowWidget::actualRender</text>
</a>
</g>
</g>
<!-- Node152&#45;&gt;Node162 -->
<g id="edge10" class="edge">
<title>Node152&#45;&gt;Node162</title>
<path fill="none" stroke="#191970" d="M87.8103,-187.9781C97.1546,-185.648 106.8816,-183.2363 116,-181 128.6043,-177.9088 142.3522,-174.5856 154.7938,-171.5963"/>
<polygon fill="#191970" stroke="#191970" points="86.7212,-184.6425 77.8679,-190.4621 88.4181,-191.4338 86.7212,-184.6425"/>
</g>
<!-- Node164 -->
<g id="node13" class="node">
<title>Node164</title>
<g id="a_node13"><a xlink:href="class_button_widget.html#a982bd9ccd6e7b8cb632efafd76309125" target="_top" xlink:title="ButtonWidget::actualRender">
<polygon fill="#ffffff" stroke="#000000" points="125,-114.5 125,-133.5 265,-133.5 265,-114.5 125,-114.5"/>
<text text-anchor="middle" x="195" y="-121.5" font-family="Helvetica,sans-Serif" font-size="10.00" fill="#000000">ButtonWidget::actualRender</text>
</a>
</g>
</g>
<!-- Node152&#45;&gt;Node164 -->
<g id="edge13" class="edge">
<title>Node152&#45;&gt;Node164</title>
<path fill="none" stroke="#191970" d="M57.6326,-183.4454C72.2221,-170.6133 94.0434,-153.3304 116,-143 124.1691,-139.1565 133.1911,-136.0473 142.1291,-133.5454"/>
<polygon fill="#191970" stroke="#191970" points="55.0074,-181.1002 49.9319,-190.4002 59.6991,-186.2952 55.0074,-181.1002"/>
</g>
<!-- Node166 -->
<g id="node15" class="node">
<title>Node166</title>
<g id="a_node15"><a xlink:href="class_grid_widget.html#ad2b2565b4ef8046f6886d09698567a18" target="_top" xlink:title="GridWidget::actualRender">
<polygon fill="#ffffff" stroke="#000000" points="130.5,-76.5 130.5,-95.5 259.5,-95.5 259.5,-76.5 130.5,-76.5"/>
<text text-anchor="middle" x="195" y="-83.5" font-family="Helvetica,sans-Serif" font-size="10.00" fill="#000000">GridWidget::actualRender</text>
</a>
</g>
</g>
<!-- Node152&#45;&gt;Node166 -->
<g id="edge15" class="edge">
<title>Node152&#45;&gt;Node166</title>
<path fill="none" stroke="#191970" d="M49.7144,-181.5474C62.1323,-159.8178 85.6994,-124.2528 116,-105 122.0722,-101.1418 128.8603,-98.0667 135.8382,-95.616"/>
<polygon fill="#191970" stroke="#191970" points="46.5699,-180.0018 44.8093,-190.4493 52.7008,-183.38 46.5699,-180.0018"/>
</g>
<!-- Node168 -->
<g id="node17" class="node">
<title>Node168</title>
<g id="a_node17"><a xlink:href="class_list_widget.html#a8fbbe5bd2879acc726ec4ecbb87a3da8" target="_top" xlink:title="ListWidget::actualRender">
<polygon fill="#ffffff" stroke="#000000" points="131.5,-38.5 131.5,-57.5 258.5,-57.5 258.5,-38.5 131.5,-38.5"/>
<text text-anchor="middle" x="195" y="-45.5" font-family="Helvetica,sans-Serif" font-size="10.00" fill="#000000">ListWidget::actualRender</text>
</a>
</g>
</g>
<!-- Node152&#45;&gt;Node168 -->
<g id="edge17" class="edge">
<title>Node152&#45;&gt;Node168</title>
<path fill="none" stroke="#191970" d="M45.7109,-180.2606C55.2611,-150.8848 77.3359,-96.0184 116,-67 121.1898,-63.1049 127.0653,-59.9961 133.2124,-57.5169"/>
<polygon fill="#191970" stroke="#191970" points="42.2592,-179.5766 42.6555,-190.1641 48.9481,-181.6404 42.2592,-179.5766"/>
</g>
<!-- Node169 -->
<g id="node18" class="node">
<title>Node169</title>
<g id="a_node18"><a xlink:href="class_window_widget.html#aaeb6c16306f82469d443182594a8ef8e" target="_top" xlink:title="WindowWidget::display">
<polygon fill="#ffffff" stroke="#000000" points="135.5,-.5 135.5,-19.5 254.5,-19.5 254.5,-.5 135.5,-.5"/>
<text text-anchor="middle" x="195" y="-7.5" font-family="Helvetica,sans-Serif" font-size="10.00" fill="#000000">WindowWidget::display</text>
</a>
</g>
</g>
<!-- Node152&#45;&gt;Node169 -->
<g id="edge18" class="edge">
<title>Node152&#45;&gt;Node169</title>
<path fill="none" stroke="#191970" d="M42.9577,-180.3716C49.4198,-144.5852 68.2393,-68.7649 116,-29 121.6372,-24.3065 128.2438,-20.7358 135.1934,-18.0255"/>
<polygon fill="#191970" stroke="#191970" points="39.4634,-180.0482 41.2728,-190.4874 46.3683,-181.1984 39.4634,-180.0482"/>
</g>
<!-- Node159 -->
<g id="node8" class="node">
<title>Node159</title>
<g id="a_node8"><a xlink:href="class_image_widget.html#a5973a50de2ac39437934a09313af6af9" target="_top" xlink:title="ImageWidget::setSelectable">
<polygon fill="#ffffff" stroke="#000000" points="310,-190.5 310,-209.5 450,-209.5 450,-190.5 310,-190.5"/>
<text text-anchor="middle" x="380" y="-197.5" font-family="Helvetica,sans-Serif" font-size="10.00" fill="#000000">ImageWidget::setSelectable</text>
</a>
</g>
</g>
<!-- Node158&#45;&gt;Node159 -->
<g id="edge7" class="edge">
<title>Node158&#45;&gt;Node159</title>
<path fill="none" stroke="#191970" d="M274.3782,-200C286.1236,-200 298.157,-200 309.7003,-200"/>
<polygon fill="#191970" stroke="#191970" points="274.1503,-196.5001 264.1503,-200 274.1502,-203.5001 274.1503,-196.5001"/>
</g>
<!-- Node160 -->
<g id="node9" class="node">
<title>Node160</title>
<g id="a_node9"><a xlink:href="class_application.html#a8f9f948d5439efe526f3219d85b29d7f" target="_top" xlink:title="Application::savePossibleTags">
<polygon fill="#ffffff" stroke="#000000" points="486,-171.5 486,-190.5 637,-190.5 637,-171.5 486,-171.5"/>
<text text-anchor="middle" x="561.5" y="-178.5" font-family="Helvetica,sans-Serif" font-size="10.00" fill="#000000">Application::savePossibleTags</text>
</a>
</g>
</g>
<!-- Node159&#45;&gt;Node160 -->
<g id="edge8" class="edge">
<title>Node159&#45;&gt;Node160</title>
<path fill="none" stroke="#191970" d="M460.3939,-191.5841C468.8392,-190.7 477.4057,-189.8033 485.7958,-188.925"/>
<polygon fill="#191970" stroke="#191970" points="459.7539,-188.1319 450.1726,-192.6541 460.4827,-195.0939 459.7539,-188.1319"/>
</g>
<!-- Node161 -->
<g id="node10" class="node">
<title>Node161</title>
<g id="a_node10"><a xlink:href="class_application.html#a748bca84fefb9c12661cfaa2f623748d" target="_top" xlink:title="Application::~Application">
<polygon fill="#ffffff" stroke="#000000" points="673,-171.5 673,-190.5 798,-190.5 798,-171.5 673,-171.5"/>
<text text-anchor="middle" x="735.5" y="-178.5" font-family="Helvetica,sans-Serif" font-size="10.00" fill="#000000">Application::~Application</text>
</a>
</g>
</g>
<!-- Node160&#45;&gt;Node161 -->
<g id="edge9" class="edge">
<title>Node160&#45;&gt;Node161</title>
<path fill="none" stroke="#191970" d="M647.1685,-181C655.8039,-181 664.4568,-181 672.7867,-181"/>
<polygon fill="#191970" stroke="#191970" points="647.0598,-177.5001 637.0598,-181 647.0598,-184.5001 647.0598,-177.5001"/>
</g>
<!-- Node163 -->
<g id="node12" class="node">
<title>Node163</title>
<g id="a_node12"><a xlink:href="class_window_widget.html#abdbf63bb8a663c46bfdd2c117aa55e4d" target="_top" xlink:title="WindowWidget::close">
<polygon fill="#ffffff" stroke="#000000" points="324,-152.5 324,-171.5 436,-171.5 436,-152.5 324,-152.5"/>
<text text-anchor="middle" x="380" y="-159.5" font-family="Helvetica,sans-Serif" font-size="10.00" fill="#000000">WindowWidget::close</text>
</a>
</g>
</g>
<!-- Node162&#45;&gt;Node163 -->
<g id="edge11" class="edge">
<title>Node162&#45;&gt;Node163</title>
<path fill="none" stroke="#191970" d="M278.222,-162C293.704,-162 309.5363,-162 323.9604,-162"/>
<polygon fill="#191970" stroke="#191970" points="278.1169,-158.5001 268.1169,-162 278.1169,-165.5001 278.1169,-158.5001"/>
</g>
<!-- Node163&#45;&gt;Node160 -->
<g id="edge12" class="edge">
<title>Node163&#45;&gt;Node160</title>
<path fill="none" stroke="#191970" d="M446.5013,-168.9616C459.2671,-170.2979 472.7238,-171.7066 485.7558,-173.0709"/>
<polygon fill="#191970" stroke="#191970" points="446.7429,-165.4678 436.4328,-167.9076 446.014,-172.4298 446.7429,-165.4678"/>
</g>
<!-- Node165 -->
<g id="node14" class="node">
<title>Node165</title>
<g id="a_node14"><a xlink:href="class_button_widget.html#a5239cdc7bf6ea60722aa0620611be239" target="_top" xlink:title="ButtonWidget::isColored">
<polygon fill="#ffffff" stroke="#000000" points="318.5,-114.5 318.5,-133.5 441.5,-133.5 441.5,-114.5 318.5,-114.5"/>
<text text-anchor="middle" x="380" y="-121.5" font-family="Helvetica,sans-Serif" font-size="10.00" fill="#000000">ButtonWidget::isColored</text>
</a>
</g>
</g>
<!-- Node164&#45;&gt;Node165 -->
<g id="edge14" class="edge">
<title>Node164&#45;&gt;Node165</title>
<path fill="none" stroke="#191970" d="M275.5551,-124C289.8924,-124 304.6189,-124 318.3259,-124"/>
<polygon fill="#191970" stroke="#191970" points="275.2044,-120.5001 265.2044,-124 275.2043,-127.5001 275.2044,-120.5001"/>
</g>
<!-- Node167 -->
<g id="node16" class="node">
<title>Node167</title>
<g id="a_node16"><a xlink:href="class_grid_widget.html#abfc54e477706b66bd09f6f3c459fcfa4" target="_top" xlink:title="GridWidget::GridWidget">
<polygon fill="#ffffff" stroke="#000000" points="320,-76.5 320,-95.5 440,-95.5 440,-76.5 320,-76.5"/>
<text text-anchor="middle" x="380" y="-83.5" font-family="Helvetica,sans-Serif" font-size="10.00" fill="#000000">GridWidget::GridWidget</text>
</a>
</g>
</g>
<!-- Node166&#45;&gt;Node167 -->
<g id="edge16" class="edge">
<title>Node166&#45;&gt;Node167</title>
<path fill="none" stroke="#191970" d="M269.9468,-86C286.5933,-86 304.0271,-86 319.9837,-86"/>
<polygon fill="#191970" stroke="#191970" points="269.7041,-82.5001 259.704,-86 269.704,-89.5001 269.7041,-82.5001"/>
</g>
<!-- Node170 -->
<g id="node19" class="node">
<title>Node170</title>
<g id="a_node19"><a xlink:href="class_application.html#a81d5b51e54511185c84ee300e752a85f" target="_top" xlink:title="Application::execute">
<polygon fill="#ffffff" stroke="#000000" points="327.5,-.5 327.5,-19.5 432.5,-19.5 432.5,-.5 327.5,-.5"/>
<text text-anchor="middle" x="380" y="-7.5" font-family="Helvetica,sans-Serif" font-size="10.00" fill="#000000">Application::execute</text>
</a>
</g>
</g>
<!-- Node169&#45;&gt;Node170 -->
<g id="edge19" class="edge">
<title>Node169&#45;&gt;Node170</title>
<path fill="none" stroke="#191970" d="M264.6189,-10C285.4332,-10 307.8968,-10 327.4233,-10"/>
<polygon fill="#191970" stroke="#191970" points="264.5535,-6.5001 254.5535,-10 264.5535,-13.5001 264.5535,-6.5001"/>
</g>
<!-- Node171 -->
<g id="node20" class="node">
<title>Node171</title>
<g id="a_node20"><a xlink:href="main_8cpp.html#adc4096c0dfd003425c219daa30db4e1e" target="_top" xlink:title="main">
<polygon fill="#ffffff" stroke="#000000" points="542.5,-.5 542.5,-19.5 580.5,-19.5 580.5,-.5 542.5,-.5"/>
<text text-anchor="middle" x="561.5" y="-7.5" font-family="Helvetica,sans-Serif" font-size="10.00" fill="#000000">main</text>
</a>
</g>
</g>
<!-- Node170&#45;&gt;Node171 -->
<g id="edge20" class="edge">
<title>Node170&#45;&gt;Node171</title>
<path fill="none" stroke="#191970" d="M443.1342,-10C478.0781,-10 519.06,-10 542.4834,-10"/>
<polygon fill="#191970" stroke="#191970" points="442.9853,-6.5001 432.9852,-10 442.9852,-13.5001 442.9853,-6.5001"/>
</g>
</g>
</svg>
