<?xml version="1.0" encoding="UTF-8" standalone="no"?>
<!DOCTYPE svg PUBLIC "-//W3C//DTD SVG 1.1//EN"
 "http://www.w3.org/Graphics/SVG/1.1/DTD/svg11.dtd">
<!-- Generated by graphviz version 2.40.1 (20161225.0304)
 -->
<!-- Title: Widget::actualSize Pages: 1 -->
<svg width="933pt" height="594pt"
 viewBox="0.00 0.00 933.00 593.50" xmlns="http://www.w3.org/2000/svg" xmlns:xlink="http://www.w3.org/1999/xlink">
<g id="graph0" class="graph" transform="scale(1 1) rotate(0) translate(4 589.5)">
<title>Widget::actualSize</title>
<polygon fill="#ffffff" stroke="transparent" points="-4,4 -4,-589.5 929,-589.5 929,4 -4,4"/>
<!-- Node63 -->
<g id="node1" class="node">
<title>Node63</title>
<polygon fill="#bfbfbf" stroke="#000000" points="0,-418.5 0,-437.5 99,-437.5 99,-418.5 0,-418.5"/>
<text text-anchor="middle" x="49.5" y="-425.5" font-family="Helvetica,sans-Serif" font-size="10.00" fill="#000000">Widget::actualSize</text>
</g>
<!-- Node64 -->
<g id="node2" class="node">
<title>Node64</title>
<g id="a_node2"><a xlink:href="class_widget.html#a1d36bcdc5a64ead5403be88654a5559f" target="_top" xlink:title="Widget::getWindow">
<polygon fill="#ffffff" stroke="#000000" points="452,-500.5 452,-519.5 554,-519.5 554,-500.5 452,-500.5"/>
<text text-anchor="middle" x="503" y="-507.5" font-family="Helvetica,sans-Serif" font-size="10.00" fill="#000000">Widget::getWindow</text>
</a>
</g>
</g>
<!-- Node63&#45;&gt;Node64 -->
<g id="edge1" class="edge">
<title>Node63&#45;&gt;Node64</title>
<path fill="none" stroke="#191970" d="M66.1339,-444.9311C97.2774,-475.276 167.9563,-537.9089 242,-561 307.7651,-581.5093 329.8355,-576.3172 397,-561 431.8439,-553.0537 468.5835,-532.1392 488.3445,-519.6997"/>
<polygon fill="#191970" stroke="#191970" points="68.3243,-442.1742 58.7577,-437.6209 63.3968,-447.1462 68.3243,-442.1742"/>
</g>
<!-- Node65 -->
<g id="node3" class="node">
<title>Node65</title>
<g id="a_node3"><a xlink:href="class_widget.html#aea985c025ef9b1210d0e3ab7d9c075ea" target="_top" xlink:title="Widget::size">
<polygon fill="#ffffff" stroke="#000000" points="135,-285.5 135,-304.5 206,-304.5 206,-285.5 135,-285.5"/>
<text text-anchor="middle" x="170.5" y="-292.5" font-family="Helvetica,sans-Serif" font-size="10.00" fill="#000000">Widget::size</text>
</a>
</g>
</g>
<!-- Node63&#45;&gt;Node65 -->
<g id="edge2" class="edge">
<title>Node63&#45;&gt;Node65</title>
<path fill="none" stroke="#191970" d="M65.0197,-410.9411C90.6652,-382.7523 141.0854,-327.3317 161.5504,-304.8372"/>
<polygon fill="#191970" stroke="#191970" points="62.3426,-408.6827 58.202,-418.435 67.5205,-413.3934 62.3426,-408.6827"/>
</g>
<!-- Node65&#45;&gt;Node64 -->
<g id="edge26" class="edge">
<title>Node65&#45;&gt;Node64</title>
<path fill="none" stroke="#191970" d="M175.0926,-314.5814C185.8442,-358.6539 213.8749,-463.4776 242,-485 273.8118,-509.3436 385.2457,-512.0312 451.7852,-511.3336"/>
<polygon fill="#191970" stroke="#191970" points="178.4762,-313.682 172.7419,-304.7731 171.669,-315.3135 178.4762,-313.682"/>
</g>
<!-- Node66 -->
<g id="node4" class="node">
<title>Node66</title>
<g id="a_node4"><a xlink:href="class_application.html#a8f9f948d5439efe526f3219d85b29d7f" target="_top" xlink:title="Enregistre la liste des tags accéssibles à l&#39;utilisateur. ">
<polygon fill="#ffffff" stroke="#000000" points="609.5,-342.5 609.5,-361.5 760.5,-361.5 760.5,-342.5 609.5,-342.5"/>
<text text-anchor="middle" x="685" y="-349.5" font-family="Helvetica,sans-Serif" font-size="10.00" fill="#000000">Application::savePossibleTags</text>
</a>
</g>
</g>
<!-- Node65&#45;&gt;Node66 -->
<g id="edge3" class="edge">
<title>Node65&#45;&gt;Node66</title>
<path fill="none" stroke="#191970" d="M192.5972,-310.0675C206.2041,-318.4774 224.3666,-328.2016 242,-333 367.3465,-367.1089 519.9327,-364.5058 609.3816,-358.7695"/>
<polygon fill="#191970" stroke="#191970" points="194.2742,-306.9851 183.9672,-304.532 190.4948,-312.8772 194.2742,-306.9851"/>
</g>
<!-- Node68 -->
<g id="node6" class="node">
<title>Node68</title>
<g id="a_node6"><a xlink:href="class_button_widget.html#ac3002e3094a1b6c4e8e55da896f397c6" target="_top" xlink:title="ButtonWidget::ButtonWidget">
<polygon fill="#ffffff" stroke="#000000" points="249,-304.5 249,-323.5 390,-323.5 390,-304.5 249,-304.5"/>
<text text-anchor="middle" x="319.5" y="-311.5" font-family="Helvetica,sans-Serif" font-size="10.00" fill="#000000">ButtonWidget::ButtonWidget</text>
</a>
</g>
</g>
<!-- Node65&#45;&gt;Node68 -->
<g id="edge5" class="edge">
<title>Node65&#45;&gt;Node68</title>
<path fill="none" stroke="#191970" d="M216.1733,-300.8241C226.484,-302.1389 237.6658,-303.5648 248.7372,-304.9766"/>
<polygon fill="#191970" stroke="#191970" points="216.5516,-297.3441 206.1892,-299.551 215.6661,-304.2879 216.5516,-297.3441"/>
</g>
<!-- Node69 -->
<g id="node7" class="node">
<title>Node69</title>
<g id="a_node7"><a xlink:href="class_button_widget.html#a66e8bfd9bc9a56b3a7cb2a8efc38347e" target="_top" xlink:title="ButtonWidget::actualResize">
<polygon fill="#ffffff" stroke="#000000" points="250,-228.5 250,-247.5 389,-247.5 389,-228.5 250,-228.5"/>
<text text-anchor="middle" x="319.5" y="-235.5" font-family="Helvetica,sans-Serif" font-size="10.00" fill="#000000">ButtonWidget::actualResize</text>
</a>
</g>
</g>
<!-- Node65&#45;&gt;Node69 -->
<g id="edge6" class="edge">
<title>Node65&#45;&gt;Node69</title>
<path fill="none" stroke="#191970" d="M198.6766,-280.9494C211.6915,-274.7318 227.4547,-267.5807 242,-262 255.9396,-256.6517 271.6226,-251.6177 285.2154,-247.5547"/>
<polygon fill="#191970" stroke="#191970" points="196.7983,-277.9702 189.3254,-285.4807 199.8508,-284.2697 196.7983,-277.9702"/>
</g>
<!-- Node70 -->
<g id="node8" class="node">
<title>Node70</title>
<g id="a_node8"><a xlink:href="class_button_widget.html#a5239cdc7bf6ea60722aa0620611be239" target="_top" xlink:title="ButtonWidget::isColored">
<polygon fill="#ffffff" stroke="#000000" points="441.5,-247.5 441.5,-266.5 564.5,-266.5 564.5,-247.5 441.5,-247.5"/>
<text text-anchor="middle" x="503" y="-254.5" font-family="Helvetica,sans-Serif" font-size="10.00" fill="#000000">ButtonWidget::isColored</text>
</a>
</g>
</g>
<!-- Node65&#45;&gt;Node70 -->
<g id="edge8" class="edge">
<title>Node65&#45;&gt;Node70</title>
<path fill="none" stroke="#191970" d="M216.1192,-289.7864C274.5134,-283.1128 375.9181,-271.5236 441.2021,-264.0626"/>
<polygon fill="#191970" stroke="#191970" points="215.6212,-286.3204 206.0833,-290.9333 216.4161,-293.2751 215.6212,-286.3204"/>
</g>
<!-- Node71 -->
<g id="node9" class="node">
<title>Node71</title>
<g id="a_node9"><a xlink:href="class_grid_widget.html#abfc54e477706b66bd09f6f3c459fcfa4" target="_top" xlink:title="GridWidget::GridWidget">
<polygon fill="#ffffff" stroke="#000000" points="801,-440.5 801,-459.5 921,-459.5 921,-440.5 801,-440.5"/>
<text text-anchor="middle" x="861" y="-447.5" font-family="Helvetica,sans-Serif" font-size="10.00" fill="#000000">GridWidget::GridWidget</text>
</a>
</g>
</g>
<!-- Node65&#45;&gt;Node71 -->
<g id="edge9" class="edge">
<title>Node65&#45;&gt;Node71</title>
<path fill="none" stroke="#191970" d="M176.36,-314.1753C185.5798,-340.6724 206.2138,-387.6274 242,-409 265.7376,-423.1768 649.7761,-440.9946 800.738,-447.4873"/>
<polygon fill="#191970" stroke="#191970" points="179.6317,-312.9198 173.1893,-304.5087 172.9803,-315.1015 179.6317,-312.9198"/>
</g>
<!-- Node72 -->
<g id="node10" class="node">
<title>Node72</title>
<g id="a_node10"><a xlink:href="class_image_widget.html#a3b5f1a6cf3f2fcde08f50f0b91eaff70" target="_top" xlink:title="ImageWidget::actualResize">
<polygon fill="#ffffff" stroke="#000000" points="251,-190.5 251,-209.5 388,-209.5 388,-190.5 251,-190.5"/>
<text text-anchor="middle" x="319.5" y="-197.5" font-family="Helvetica,sans-Serif" font-size="10.00" fill="#000000">ImageWidget::actualResize</text>
</a>
</g>
</g>
<!-- Node65&#45;&gt;Node72 -->
<g id="edge10" class="edge">
<title>Node65&#45;&gt;Node72</title>
<path fill="none" stroke="#191970" d="M182.5388,-277.1461C195.2682,-259.6732 216.9497,-233.6155 242,-219 248.7007,-215.0905 256.1784,-211.9822 263.7724,-209.5117"/>
<polygon fill="#191970" stroke="#191970" points="179.6257,-275.2039 176.7277,-285.3947 185.3483,-279.2354 179.6257,-275.2039"/>
</g>
<!-- Node74 -->
<g id="node12" class="node">
<title>Node74</title>
<g id="a_node12"><a xlink:href="class_layout_widget.html#ab27c4c576f3a9351b4efdde91433b7a1" target="_top" xlink:title="LayoutWidget::LayoutWidget">
<polygon fill="#ffffff" stroke="#000000" points="248,-152.5 248,-171.5 391,-171.5 391,-152.5 248,-152.5"/>
<text text-anchor="middle" x="319.5" y="-159.5" font-family="Helvetica,sans-Serif" font-size="10.00" fill="#000000">LayoutWidget::LayoutWidget</text>
</a>
</g>
</g>
<!-- Node65&#45;&gt;Node74 -->
<g id="edge13" class="edge">
<title>Node65&#45;&gt;Node74</title>
<path fill="none" stroke="#191970" d="M177.2052,-275.901C187.2128,-250.2666 208.5426,-205.1655 242,-181 247.3905,-177.1065 253.4842,-174.0052 259.8279,-171.5357"/>
<polygon fill="#191970" stroke="#191970" points="173.9216,-274.6896 173.7115,-285.2824 180.4815,-277.1326 173.9216,-274.6896"/>
</g>
<!-- Node75 -->
<g id="node13" class="node">
<title>Node75</title>
<g id="a_node13"><a xlink:href="class_layout_widget.html#a2e5614796b2a04340ddc69997ce72a7b" target="_top" xlink:title="LayoutWidget::actualResize">
<polygon fill="#ffffff" stroke="#000000" points="249.5,-114.5 249.5,-133.5 389.5,-133.5 389.5,-114.5 249.5,-114.5"/>
<text text-anchor="middle" x="319.5" y="-121.5" font-family="Helvetica,sans-Serif" font-size="10.00" fill="#000000">LayoutWidget::actualResize</text>
</a>
</g>
</g>
<!-- Node65&#45;&gt;Node75 -->
<g id="edge14" class="edge">
<title>Node65&#45;&gt;Node75</title>
<path fill="none" stroke="#191970" d="M174.0892,-275.3295C181.1057,-242.6912 199.8038,-177.5267 242,-143 246.7175,-139.14 252.1028,-136.0455 257.7869,-133.5676"/>
<polygon fill="#191970" stroke="#191970" points="170.6015,-274.9222 172.0752,-285.414 177.4659,-276.2931 170.6015,-274.9222"/>
</g>
<!-- Node76 -->
<g id="node14" class="node">
<title>Node76</title>
<g id="a_node14"><a xlink:href="class_list_widget.html#ac785b259033fc933d977e7584f8541b2" target="_top" xlink:title="ListWidget::ListWidget">
<polygon fill="#ffffff" stroke="#000000" points="261.5,-76.5 261.5,-95.5 377.5,-95.5 377.5,-76.5 261.5,-76.5"/>
<text text-anchor="middle" x="319.5" y="-83.5" font-family="Helvetica,sans-Serif" font-size="10.00" fill="#000000">ListWidget::ListWidget</text>
</a>
</g>
</g>
<!-- Node65&#45;&gt;Node76 -->
<g id="edge15" class="edge">
<title>Node65&#45;&gt;Node76</title>
<path fill="none" stroke="#191970" d="M172.001,-275.4116C176.0473,-236.7755 190.6473,-150.5553 242,-105 247.5962,-100.0356 254.2798,-96.3202 261.3431,-93.5477"/>
<polygon fill="#191970" stroke="#191970" points="168.5151,-275.0992 171.0861,-285.3774 175.4857,-275.7393 168.5151,-275.0992"/>
</g>
<!-- Node77 -->
<g id="node15" class="node">
<title>Node77</title>
<g id="a_node15"><a xlink:href="class_menu_bar_widget.html#aad48ccf1f2c742665aa24cd8ea45d1b1" target="_top" xlink:title="MenuBarWidget::actualResize">
<polygon fill="#ffffff" stroke="#000000" points="245,-38.5 245,-57.5 394,-57.5 394,-38.5 245,-38.5"/>
<text text-anchor="middle" x="319.5" y="-45.5" font-family="Helvetica,sans-Serif" font-size="10.00" fill="#000000">MenuBarWidget::actualResize</text>
</a>
</g>
</g>
<!-- Node65&#45;&gt;Node77 -->
<g id="edge16" class="edge">
<title>Node65&#45;&gt;Node77</title>
<path fill="none" stroke="#191970" d="M174.1217,-275.2837C183.6659,-225.4187 210.9196,-96.1679 242,-67 246.0406,-63.208 250.7107,-60.1371 255.7148,-57.6546"/>
<polygon fill="#191970" stroke="#191970" points="170.6266,-274.9322 172.2204,-285.4065 177.5063,-276.2245 170.6266,-274.9322"/>
</g>
<!-- Node78 -->
<g id="node16" class="node">
<title>Node78</title>
<g id="a_node16"><a xlink:href="class_scroll_widget.html#a1e0228552b93ace3479b176641261796" target="_top" xlink:title="ScrollWidget::ScrollWidget">
<polygon fill="#ffffff" stroke="#000000" points="252.5,-.5 252.5,-19.5 386.5,-19.5 386.5,-.5 252.5,-.5"/>
<text text-anchor="middle" x="319.5" y="-7.5" font-family="Helvetica,sans-Serif" font-size="10.00" fill="#000000">ScrollWidget::ScrollWidget</text>
</a>
</g>
</g>
<!-- Node65&#45;&gt;Node78 -->
<g id="edge17" class="edge">
<title>Node65&#45;&gt;Node78</title>
<path fill="none" stroke="#191970" d="M173.1685,-275.376C181.0914,-219.9603 206.179,-64.0355 242,-29 245.8625,-25.2222 250.3468,-22.1545 255.1738,-19.6683"/>
<polygon fill="#191970" stroke="#191970" points="169.6958,-274.9374 171.7775,-285.3257 176.6284,-275.9067 169.6958,-274.9374"/>
</g>
<!-- Node79 -->
<g id="node17" class="node">
<title>Node79</title>
<g id="a_node17"><a xlink:href="class_widget.html#af5851078b2f0c2f14a9bf377e535340f" target="_top" xlink:title="Widget::actualIsInside">
<polygon fill="#ffffff" stroke="#000000" points="262.5,-456.5 262.5,-475.5 376.5,-475.5 376.5,-456.5 262.5,-456.5"/>
<text text-anchor="middle" x="319.5" y="-463.5" font-family="Helvetica,sans-Serif" font-size="10.00" fill="#000000">Widget::actualIsInside</text>
</a>
</g>
</g>
<!-- Node65&#45;&gt;Node79 -->
<g id="edge18" class="edge">
<title>Node65&#45;&gt;Node79</title>
<path fill="none" stroke="#191970" d="M174.7229,-314.6322C182.5071,-346.1002 202.1032,-407.7629 242,-442 249.3754,-448.3292 258.4052,-452.9901 267.6617,-456.4222"/>
<polygon fill="#191970" stroke="#191970" points="178.0442,-313.4612 172.3738,-304.5115 171.2255,-315.0439 178.0442,-313.4612"/>
</g>
<!-- Node85 -->
<g id="node23" class="node">
<title>Node85</title>
<g id="a_node23"><a xlink:href="class_window_widget.html#a04db7bfbafe9a5fd603ddaa5b838ded5" target="_top" xlink:title="WindowWidget::WindowWidget">
<polygon fill="#ffffff" stroke="#000000" points="242,-532.5 242,-551.5 397,-551.5 397,-532.5 242,-532.5"/>
<text text-anchor="middle" x="319.5" y="-539.5" font-family="Helvetica,sans-Serif" font-size="10.00" fill="#000000">WindowWidget::WindowWidget</text>
</a>
</g>
</g>
<!-- Node65&#45;&gt;Node85 -->
<g id="edge27" class="edge">
<title>Node65&#45;&gt;Node85</title>
<path fill="none" stroke="#191970" d="M174.3522,-314.5131C184.3434,-363.283 212.3821,-488.6757 242,-518 248.4059,-524.3424 256.4526,-529.0136 264.9194,-532.4529"/>
<polygon fill="#191970" stroke="#191970" points="177.7598,-313.7045 172.3538,-304.5927 170.8976,-315.087 177.7598,-313.7045"/>
</g>
<!-- Node86 -->
<g id="node24" class="node">
<title>Node86</title>
<g id="a_node24"><a xlink:href="class_window_widget.html#a89a68a5d4dc9fd5da10ac75c1121a453" target="_top" xlink:title="WindowWidget::actualResize">
<polygon fill="#ffffff" stroke="#000000" points="246.5,-380.5 246.5,-399.5 392.5,-399.5 392.5,-380.5 246.5,-380.5"/>
<text text-anchor="middle" x="319.5" y="-387.5" font-family="Helvetica,sans-Serif" font-size="10.00" fill="#000000">WindowWidget::actualResize</text>
</a>
</g>
</g>
<!-- Node65&#45;&gt;Node86 -->
<g id="edge28" class="edge">
<title>Node65&#45;&gt;Node86</title>
<path fill="none" stroke="#191970" d="M184.1895,-312.8348C197.3809,-328.8771 218.721,-352.011 242,-366 252.2621,-372.1668 264.2535,-376.8843 275.6945,-380.4351"/>
<polygon fill="#191970" stroke="#191970" points="186.7132,-310.3862 177.7387,-304.7551 181.2429,-314.7537 186.7132,-310.3862"/>
</g>
<!-- Node67 -->
<g id="node5" class="node">
<title>Node67</title>
<g id="a_node5"><a xlink:href="class_application.html#a748bca84fefb9c12661cfaa2f623748d" target="_top" xlink:title="Effectue une sauvegarde de la collection et enregistre les tags. ">
<polygon fill="#ffffff" stroke="#000000" points="798.5,-342.5 798.5,-361.5 923.5,-361.5 923.5,-342.5 798.5,-342.5"/>
<text text-anchor="middle" x="861" y="-349.5" font-family="Helvetica,sans-Serif" font-size="10.00" fill="#000000">Application::~Application</text>
</a>
</g>
</g>
<!-- Node66&#45;&gt;Node67 -->
<g id="edge4" class="edge">
<title>Node66&#45;&gt;Node67</title>
<path fill="none" stroke="#191970" d="M770.7369,-352C780.0528,-352 789.4026,-352 798.3682,-352"/>
<polygon fill="#191970" stroke="#191970" points="770.6613,-348.5001 760.6613,-352 770.6612,-355.5001 770.6613,-348.5001"/>
</g>
<!-- Node69&#45;&gt;Node70 -->
<g id="edge7" class="edge">
<title>Node69&#45;&gt;Node70</title>
<path fill="none" stroke="#191970" d="M399.2809,-246.2607C413.3334,-247.7157 427.7669,-249.2102 441.2325,-250.6045"/>
<polygon fill="#191970" stroke="#191970" points="399.4425,-242.7588 389.1351,-245.2102 398.7215,-249.7216 399.4425,-242.7588"/>
</g>
<!-- Node73 -->
<g id="node11" class="node">
<title>Node73</title>
<g id="a_node11"><a xlink:href="class_image_widget.html#a5973a50de2ac39437934a09313af6af9" target="_top" xlink:title="ImageWidget::setSelectable">
<polygon fill="#ffffff" stroke="#000000" points="433,-200.5 433,-219.5 573,-219.5 573,-200.5 433,-200.5"/>
<text text-anchor="middle" x="503" y="-207.5" font-family="Helvetica,sans-Serif" font-size="10.00" fill="#000000">ImageWidget::setSelectable</text>
</a>
</g>
</g>
<!-- Node72&#45;&gt;Node73 -->
<g id="edge11" class="edge">
<title>Node72&#45;&gt;Node73</title>
<path fill="none" stroke="#191970" d="M398.164,-204.2869C409.7326,-204.9173 421.5846,-205.5632 432.9639,-206.1833"/>
<polygon fill="#191970" stroke="#191970" points="398.2652,-200.7873 388.0896,-203.7379 397.8843,-207.7769 398.2652,-200.7873"/>
</g>
<!-- Node73&#45;&gt;Node66 -->
<g id="edge12" class="edge">
<title>Node73&#45;&gt;Node66</title>
<path fill="none" stroke="#191970" d="M544.3138,-223.24C554.1162,-227.256 564.2566,-232.179 573,-238 619.1901,-268.7516 661.5675,-321.0339 677.8974,-342.4359"/>
<polygon fill="#191970" stroke="#191970" points="545.2779,-219.8605 534.6883,-219.5267 542.7584,-226.3914 545.2779,-219.8605"/>
</g>
<!-- Node79&#45;&gt;Node64 -->
<g id="edge19" class="edge">
<title>Node79&#45;&gt;Node64</title>
<path fill="none" stroke="#191970" d="M369.4161,-477.969C398.9112,-485.0414 435.7456,-493.8736 463.2609,-500.4713"/>
<polygon fill="#191970" stroke="#191970" points="369.8573,-474.4756 359.3168,-475.5473 368.225,-481.2827 369.8573,-474.4756"/>
</g>
<!-- Node80 -->
<g id="node18" class="node">
<title>Node80</title>
<g id="a_node18"><a xlink:href="class_widget.html#ae5b0e7b391d855a3f75f166bb20253a8" target="_top" xlink:title="Widget::isInside">
<polygon fill="#ffffff" stroke="#000000" points="459.5,-462.5 459.5,-481.5 546.5,-481.5 546.5,-462.5 459.5,-462.5"/>
<text text-anchor="middle" x="503" y="-469.5" font-family="Helvetica,sans-Serif" font-size="10.00" fill="#000000">Widget::isInside</text>
</a>
</g>
</g>
<!-- Node79&#45;&gt;Node80 -->
<g id="edge20" class="edge">
<title>Node79&#45;&gt;Node80</title>
<path fill="none" stroke="#191970" d="M386.7699,-468.1996C411.0075,-468.9921 437.7042,-469.865 459.3931,-470.5742"/>
<polygon fill="#191970" stroke="#191970" points="386.6637,-464.6943 376.5547,-467.8655 386.4349,-471.6906 386.6637,-464.6943"/>
</g>
<!-- Node81 -->
<g id="node19" class="node">
<title>Node81</title>
<g id="a_node19"><a xlink:href="class_button_widget.html#aae069846bf4c475a475a47daf4178f3d" target="_top" xlink:title="ButtonWidget::actualPropagate\lEvent">
<polygon fill="#ffffff" stroke="#000000" points="609,-555 609,-585 761,-585 761,-555 609,-555"/>
<text text-anchor="start" x="617" y="-573" font-family="Helvetica,sans-Serif" font-size="10.00" fill="#000000">ButtonWidget::actualPropagate</text>
<text text-anchor="middle" x="685" y="-562" font-family="Helvetica,sans-Serif" font-size="10.00" fill="#000000">Event</text>
</a>
</g>
</g>
<!-- Node80&#45;&gt;Node81 -->
<g id="edge21" class="edge">
<title>Node80&#45;&gt;Node81</title>
<path fill="none" stroke="#191970" d="M556.1809,-481.9394C562.1597,-484.3356 567.9183,-487.3093 573,-491 596.6387,-508.168 585.7167,-528.3529 609,-546 613.5212,-549.4267 618.5436,-552.3714 623.7907,-554.9006"/>
<polygon fill="#191970" stroke="#191970" points="557.2647,-478.6108 546.6699,-478.6295 554.964,-485.2219 557.2647,-478.6108"/>
</g>
<!-- Node83 -->
<g id="node21" class="node">
<title>Node83</title>
<g id="a_node21"><a xlink:href="class_grid_widget.html#a9c57f1ca2311d3caa936a481fa7fbef0" target="_top" xlink:title="GridWidget::actualPropagate\lEvent">
<polygon fill="#ffffff" stroke="#000000" points="614,-457 614,-487 756,-487 756,-457 614,-457"/>
<text text-anchor="start" x="622" y="-475" font-family="Helvetica,sans-Serif" font-size="10.00" fill="#000000">GridWidget::actualPropagate</text>
<text text-anchor="middle" x="685" y="-464" font-family="Helvetica,sans-Serif" font-size="10.00" fill="#000000">Event</text>
</a>
</g>
</g>
<!-- Node80&#45;&gt;Node83 -->
<g id="edge23" class="edge">
<title>Node80&#45;&gt;Node83</title>
<path fill="none" stroke="#191970" d="M556.7984,-472C574.627,-472 594.7569,-472 613.6921,-472"/>
<polygon fill="#191970" stroke="#191970" points="556.5936,-468.5001 546.5935,-472 556.5935,-475.5001 556.5936,-468.5001"/>
</g>
<!-- Node84 -->
<g id="node22" class="node">
<title>Node84</title>
<g id="a_node22"><a xlink:href="class_list_widget.html#a91b56e252a550deda1d97a2992e3a9f7" target="_top" xlink:title="ListWidget::actualPropagate\lEvent">
<polygon fill="#ffffff" stroke="#000000" points="615,-506 615,-536 755,-536 755,-506 615,-506"/>
<text text-anchor="start" x="623" y="-524" font-family="Helvetica,sans-Serif" font-size="10.00" fill="#000000">ListWidget::actualPropagate</text>
<text text-anchor="middle" x="685" y="-513" font-family="Helvetica,sans-Serif" font-size="10.00" fill="#000000">Event</text>
</a>
</g>
</g>
<!-- Node80&#45;&gt;Node84 -->
<g id="edge25" class="edge">
<title>Node80&#45;&gt;Node84</title>
<path fill="none" stroke="#191970" d="M548.2756,-484.1896C572.7574,-490.7808 603.2047,-498.9782 629.1484,-505.963"/>
<polygon fill="#191970" stroke="#191970" points="549.0896,-480.7842 538.5235,-481.564 547.2697,-487.5435 549.0896,-480.7842"/>
</g>
<!-- Node82 -->
<g id="node20" class="node">
<title>Node82</title>
<g id="a_node20"><a xlink:href="class_button_widget.html#a050618b949448e783b589ddd4ccfedf0" target="_top" xlink:title="ButtonWidget::actualSize">
<polygon fill="#ffffff" stroke="#000000" points="797,-560.5 797,-579.5 925,-579.5 925,-560.5 797,-560.5"/>
<text text-anchor="middle" x="861" y="-567.5" font-family="Helvetica,sans-Serif" font-size="10.00" fill="#000000">ButtonWidget::actualSize</text>
</a>
</g>
</g>
<!-- Node81&#45;&gt;Node82 -->
<g id="edge22" class="edge">
<title>Node81&#45;&gt;Node82</title>
<path fill="none" stroke="#191970" d="M771.2558,-570C779.8709,-570 788.5083,-570 796.8375,-570"/>
<polygon fill="#191970" stroke="#191970" points="771.1726,-566.5001 761.1725,-570 771.1725,-573.5001 771.1726,-566.5001"/>
</g>
<!-- Node83&#45;&gt;Node71 -->
<g id="edge24" class="edge">
<title>Node83&#45;&gt;Node71</title>
<path fill="none" stroke="#191970" d="M766.2769,-461.8404C777.952,-460.381 789.7858,-458.9018 800.9499,-457.5063"/>
<polygon fill="#191970" stroke="#191970" points="765.5673,-458.4018 756.0786,-463.1152 766.4356,-465.3477 765.5673,-458.4018"/>
</g>
<!-- Node87 -->
<g id="node25" class="node">
<title>Node87</title>
<g id="a_node25"><a xlink:href="class_window_widget.html#abdbf63bb8a663c46bfdd2c117aa55e4d" target="_top" xlink:title="WindowWidget::close">
<polygon fill="#ffffff" stroke="#000000" points="447,-380.5 447,-399.5 559,-399.5 559,-380.5 447,-380.5"/>
<text text-anchor="middle" x="503" y="-387.5" font-family="Helvetica,sans-Serif" font-size="10.00" fill="#000000">WindowWidget::close</text>
</a>
</g>
</g>
<!-- Node86&#45;&gt;Node87 -->
<g id="edge29" class="edge">
<title>Node86&#45;&gt;Node87</title>
<path fill="none" stroke="#191970" d="M402.8142,-390C417.7361,-390 432.958,-390 446.8834,-390"/>
<polygon fill="#191970" stroke="#191970" points="402.5514,-386.5001 392.5513,-390 402.5513,-393.5001 402.5514,-386.5001"/>
</g>
<!-- Node87&#45;&gt;Node66 -->
<g id="edge30" class="edge">
<title>Node87&#45;&gt;Node66</title>
<path fill="none" stroke="#191970" d="M558.9458,-378.319C584.7558,-372.9301 615.0069,-366.6139 639.404,-361.5201"/>
<polygon fill="#191970" stroke="#191970" points="557.9998,-374.941 548.9263,-380.411 559.4306,-381.7932 557.9998,-374.941"/>
</g>
</g>
</svg>
