<?xml version="1.0" encoding="UTF-8" standalone="no"?>
<!DOCTYPE svg PUBLIC "-//W3C//DTD SVG 1.1//EN"
 "http://www.w3.org/Graphics/SVG/1.1/DTD/svg11.dtd">
<!-- Generated by graphviz version 2.40.1 (20161225.0304)
 -->
<!-- Title: ButtonWidget::ButtonWidget Pages: 1 -->
<svg width="418pt" height="66pt"
 viewBox="0.00 0.00 418.00 66.00" xmlns="http://www.w3.org/2000/svg" xmlns:xlink="http://www.w3.org/1999/xlink">
<g id="graph0" class="graph" transform="scale(1 1) rotate(0) translate(4 62)">
<title>ButtonWidget::ButtonWidget</title>
<polygon fill="#ffffff" stroke="transparent" points="-4,4 -4,-62 414,-62 414,4 -4,4"/>
<!-- Node0 -->
<g id="node1" class="node">
<title>Node0</title>
<polygon fill="#bfbfbf" stroke="#000000" points="0,-19.5 0,-38.5 141,-38.5 141,-19.5 0,-19.5"/>
<text text-anchor="middle" x="70.5" y="-26.5" font-family="Helvetica,sans-Serif" font-size="10.00" fill="#000000">ButtonWidget::ButtonWidget</text>
</g>
<!-- Node1 -->
<g id="node2" class="node">
<title>Node1</title>
<g id="a_node2"><a xlink:href="class_widget.html#aea985c025ef9b1210d0e3ab7d9c075ea" target="_top" xlink:title="Widget::size">
<polygon fill="#ffffff" stroke="#000000" points="190.5,-38.5 190.5,-57.5 261.5,-57.5 261.5,-38.5 190.5,-38.5"/>
<text text-anchor="middle" x="226" y="-45.5" font-family="Helvetica,sans-Serif" font-size="10.00" fill="#000000">Widget::size</text>
</a>
</g>
</g>
<!-- Node0&#45;&gt;Node1 -->
<g id="edge1" class="edge">
<title>Node0&#45;&gt;Node1</title>
<path fill="none" stroke="#191970" d="M141.4243,-37.666C154.691,-39.287 168.2248,-40.9406 180.4646,-42.4362"/>
<polygon fill="#191970" stroke="#191970" points="180.0567,-45.9123 190.4074,-43.6511 180.9058,-38.964 180.0567,-45.9123"/>
</g>
<!-- Node3 -->
<g id="node4" class="node">
<title>Node3</title>
<g id="a_node4"><a xlink:href="_utilities_8cpp.html#a59a3b645b654e776f33e3f4dccbd5fb1" target="_top" xlink:title="Convertit de l&#39;UTF&#45;8 vers l&#39;ISO&#45;8859&#45;1. ">
<polygon fill="#ffffff" stroke="#000000" points="177,-.5 177,-19.5 275,-19.5 275,-.5 177,-.5"/>
<text text-anchor="middle" x="226" y="-7.5" font-family="Helvetica,sans-Serif" font-size="10.00" fill="#000000">UTF8toISO8859_1</text>
</a>
</g>
</g>
<!-- Node0&#45;&gt;Node3 -->
<g id="edge3" class="edge">
<title>Node0&#45;&gt;Node3</title>
<path fill="none" stroke="#191970" d="M141.4243,-20.334C149.9663,-19.2903 158.619,-18.233 166.9658,-17.2132"/>
<polygon fill="#191970" stroke="#191970" points="167.4656,-20.6782 176.9673,-15.9911 166.6166,-13.7299 167.4656,-20.6782"/>
</g>
<!-- Node2 -->
<g id="node3" class="node">
<title>Node2</title>
<g id="a_node3"><a xlink:href="class_widget.html#aa6225b5a14e5861cc2cd98c737841854" target="_top" xlink:title="Widget::actualSize">
<polygon fill="#ffffff" stroke="#000000" points="311,-38.5 311,-57.5 410,-57.5 410,-38.5 311,-38.5"/>
<text text-anchor="middle" x="360.5" y="-45.5" font-family="Helvetica,sans-Serif" font-size="10.00" fill="#000000">Widget::actualSize</text>
</a>
</g>
</g>
<!-- Node1&#45;&gt;Node2 -->
<g id="edge2" class="edge">
<title>Node1&#45;&gt;Node2</title>
<path fill="none" stroke="#191970" d="M261.6904,-48C273.7216,-48 287.4957,-48 300.8633,-48"/>
<polygon fill="#191970" stroke="#191970" points="300.9708,-51.5001 310.9708,-48 300.9708,-44.5001 300.9708,-51.5001"/>
</g>
</g>
</svg>
