<?xml version="1.0" encoding="UTF-8" standalone="no"?>
<!DOCTYPE svg PUBLIC "-//W3C//DTD SVG 1.1//EN"
 "http://www.w3.org/Graphics/SVG/1.1/DTD/svg11.dtd">
<!-- Generated by graphviz version 2.40.1 (20161225.0304)
 -->
<!-- Title: WindowWidget::setContent Pages: 1 -->
<svg width="567pt" height="66pt"
 viewBox="0.00 0.00 567.00 66.00" xmlns="http://www.w3.org/2000/svg" xmlns:xlink="http://www.w3.org/1999/xlink">
<g id="graph0" class="graph" transform="scale(1 1) rotate(0) translate(4 62)">
<title>WindowWidget::setContent</title>
<polygon fill="#ffffff" stroke="transparent" points="-4,4 -4,-62 563,-62 563,4 -4,4"/>
<!-- Node70 -->
<g id="node1" class="node">
<title>Node70</title>
<polygon fill="#bfbfbf" stroke="#000000" points="0,-19.5 0,-38.5 137,-38.5 137,-19.5 0,-19.5"/>
<text text-anchor="middle" x="68.5" y="-26.5" font-family="Helvetica,sans-Serif" font-size="10.00" fill="#000000">WindowWidget::setContent</text>
</g>
<!-- Node71 -->
<g id="node2" class="node">
<title>Node71</title>
<g id="a_node2"><a xlink:href="class_window_widget.html#aaeb6c16306f82469d443182594a8ef8e" target="_top" xlink:title="WindowWidget::display">
<polygon fill="#ffffff" stroke="#000000" points="189,-38.5 189,-57.5 308,-57.5 308,-38.5 189,-38.5"/>
<text text-anchor="middle" x="248.5" y="-45.5" font-family="Helvetica,sans-Serif" font-size="10.00" fill="#000000">WindowWidget::display</text>
</a>
</g>
</g>
<!-- Node70&#45;&gt;Node71 -->
<g id="edge1" class="edge">
<title>Node70&#45;&gt;Node71</title>
<path fill="none" stroke="#191970" d="M147.182,-37.3053C161.1951,-38.7845 175.5803,-40.3029 188.9493,-41.7141"/>
<polygon fill="#191970" stroke="#191970" points="147.376,-33.8064 137.0638,-36.2373 146.6411,-40.7678 147.376,-33.8064"/>
</g>
<!-- Node74 -->
<g id="node5" class="node">
<title>Node74</title>
<g id="a_node5"><a xlink:href="class_application.html#a8f9f948d5439efe526f3219d85b29d7f" target="_top" xlink:title="Application::savePossibleTags">
<polygon fill="#ffffff" stroke="#000000" points="173,-.5 173,-19.5 324,-19.5 324,-.5 173,-.5"/>
<text text-anchor="middle" x="248.5" y="-7.5" font-family="Helvetica,sans-Serif" font-size="10.00" fill="#000000">Application::savePossibleTags</text>
</a>
</g>
</g>
<!-- Node70&#45;&gt;Node74 -->
<g id="edge4" class="edge">
<title>Node70&#45;&gt;Node74</title>
<path fill="none" stroke="#191970" d="M147.0586,-20.7077C155.6442,-19.8014 164.3711,-18.8803 172.9197,-17.9779"/>
<polygon fill="#191970" stroke="#191970" points="146.6411,-17.2322 137.0638,-21.7627 147.376,-24.1936 146.6411,-17.2322"/>
</g>
<!-- Node72 -->
<g id="node3" class="node">
<title>Node72</title>
<g id="a_node3"><a xlink:href="class_application.html#a81d5b51e54511185c84ee300e752a85f" target="_top" xlink:title="Application::execute">
<polygon fill="#ffffff" stroke="#000000" points="370,-38.5 370,-57.5 475,-57.5 475,-38.5 370,-38.5"/>
<text text-anchor="middle" x="422.5" y="-45.5" font-family="Helvetica,sans-Serif" font-size="10.00" fill="#000000">Application::execute</text>
</a>
</g>
</g>
<!-- Node71&#45;&gt;Node72 -->
<g id="edge2" class="edge">
<title>Node71&#45;&gt;Node72</title>
<path fill="none" stroke="#191970" d="M318.8337,-48C335.8439,-48 353.7373,-48 369.7796,-48"/>
<polygon fill="#191970" stroke="#191970" points="318.381,-44.5001 308.3809,-48 318.3809,-51.5001 318.381,-44.5001"/>
</g>
<!-- Node73 -->
<g id="node4" class="node">
<title>Node73</title>
<g id="a_node4"><a xlink:href="main_8cpp.html#adc4096c0dfd003425c219daa30db4e1e" target="_top" xlink:title="main">
<polygon fill="#ffffff" stroke="#000000" points="521,-38.5 521,-57.5 559,-57.5 559,-38.5 521,-38.5"/>
<text text-anchor="middle" x="540" y="-45.5" font-family="Helvetica,sans-Serif" font-size="10.00" fill="#000000">main</text>
</a>
</g>
</g>
<!-- Node72&#45;&gt;Node73 -->
<g id="edge3" class="edge">
<title>Node72&#45;&gt;Node73</title>
<path fill="none" stroke="#191970" d="M485.0798,-48C498.1693,-48 511.0041,-48 520.9706,-48"/>
<polygon fill="#191970" stroke="#191970" points="485.064,-44.5001 475.0639,-48 485.0639,-51.5001 485.064,-44.5001"/>
</g>
<!-- Node75 -->
<g id="node6" class="node">
<title>Node75</title>
<g id="a_node6"><a xlink:href="class_application.html#a748bca84fefb9c12661cfaa2f623748d" target="_top" xlink:title="Application::~Application">
<polygon fill="#ffffff" stroke="#000000" points="360,-.5 360,-19.5 485,-19.5 485,-.5 360,-.5"/>
<text text-anchor="middle" x="422.5" y="-7.5" font-family="Helvetica,sans-Serif" font-size="10.00" fill="#000000">Application::~Application</text>
</a>
</g>
</g>
<!-- Node74&#45;&gt;Node75 -->
<g id="edge5" class="edge">
<title>Node74&#45;&gt;Node75</title>
<path fill="none" stroke="#191970" d="M334.1685,-10C342.8039,-10 351.4568,-10 359.7867,-10"/>
<polygon fill="#191970" stroke="#191970" points="334.0598,-6.5001 324.0598,-10 334.0598,-13.5001 334.0598,-6.5001"/>
</g>
</g>
</svg>
