<?xml version="1.0" encoding="UTF-8" standalone="no"?>
<!DOCTYPE svg PUBLIC "-//W3C//DTD SVG 1.1//EN"
 "http://www.w3.org/Graphics/SVG/1.1/DTD/svg11.dtd">
<!-- Generated by graphviz version 2.40.1 (20161225.0304)
 -->
<!-- Title: Widget::getWindow Pages: 1 -->
<svg width="458pt" height="46pt"
 viewBox="0.00 0.00 458.00 46.00" xmlns="http://www.w3.org/2000/svg" xmlns:xlink="http://www.w3.org/1999/xlink">
<g id="graph0" class="graph" transform="scale(1 1) rotate(0) translate(4 42)">
<title>Widget::getWindow</title>
<polygon fill="#ffffff" stroke="transparent" points="-4,4 -4,-42 454,-42 454,4 -4,4"/>
<!-- Node118 -->
<g id="node1" class="node">
<title>Node118</title>
<polygon fill="#bfbfbf" stroke="#000000" points="0,-.5 0,-19.5 102,-19.5 102,-.5 0,-.5"/>
<text text-anchor="middle" x="51" y="-7.5" font-family="Helvetica,sans-Serif" font-size="10.00" fill="#000000">Widget::getWindow</text>
</g>
<!-- Node118&#45;&gt;Node118 -->
<g id="edge1" class="edge">
<title>Node118&#45;&gt;Node118</title>
<path fill="none" stroke="#191970" d="M20.6856,-28.2746C21.5499,-33.741 31.6547,-38 51,-38 79.793,-38 88.1159,-28.5653 75.9689,-19.7571"/>
<polygon fill="#191970" stroke="#191970" points="23.6799,-30.0877 26.0311,-19.7571 17.7508,-26.3667 23.6799,-30.0877"/>
</g>
<!-- Node119 -->
<g id="node2" class="node">
<title>Node119</title>
<g id="a_node2"><a xlink:href="class_application.html#a8f9f948d5439efe526f3219d85b29d7f" target="_top" xlink:title="Enregistre la liste des tags accéssibles à l&#39;utilisateur. ">
<polygon fill="#ffffff" stroke="#000000" points="138,-.5 138,-19.5 289,-19.5 289,-.5 138,-.5"/>
<text text-anchor="middle" x="213.5" y="-7.5" font-family="Helvetica,sans-Serif" font-size="10.00" fill="#000000">Application::savePossibleTags</text>
</a>
</g>
</g>
<!-- Node118&#45;&gt;Node119 -->
<g id="edge2" class="edge">
<title>Node118&#45;&gt;Node119</title>
<path fill="none" stroke="#191970" d="M112.6434,-10C120.8593,-10 129.3597,-10 137.7806,-10"/>
<polygon fill="#191970" stroke="#191970" points="112.416,-6.5001 102.416,-10 112.416,-13.5001 112.416,-6.5001"/>
</g>
<!-- Node120 -->
<g id="node3" class="node">
<title>Node120</title>
<g id="a_node3"><a xlink:href="class_application.html#a748bca84fefb9c12661cfaa2f623748d" target="_top" xlink:title="Effectue une sauvegarde de la collection et enregistre les tags. ">
<polygon fill="#ffffff" stroke="#000000" points="325,-.5 325,-19.5 450,-19.5 450,-.5 325,-.5"/>
<text text-anchor="middle" x="387.5" y="-7.5" font-family="Helvetica,sans-Serif" font-size="10.00" fill="#000000">Application::~Application</text>
</a>
</g>
</g>
<!-- Node119&#45;&gt;Node120 -->
<g id="edge3" class="edge">
<title>Node119&#45;&gt;Node120</title>
<path fill="none" stroke="#191970" d="M299.1685,-10C307.8039,-10 316.4568,-10 324.7867,-10"/>
<polygon fill="#191970" stroke="#191970" points="299.0598,-6.5001 289.0598,-10 299.0598,-13.5001 299.0598,-6.5001"/>
</g>
</g>
</svg>
