<?xml version="1.0" encoding="UTF-8" standalone="no"?>
<!DOCTYPE svg PUBLIC "-//W3C//DTD SVG 1.1//EN"
 "http://www.w3.org/Graphics/SVG/1.1/DTD/svg11.dtd">
<!-- Generated by graphviz version 2.40.1 (20161225.0304)
 -->
<!-- Title: ConstIteratorBase::operator== Pages: 1 -->
<svg width="269pt" height="218pt"
 viewBox="0.00 0.00 269.00 218.00" xmlns="http://www.w3.org/2000/svg" xmlns:xlink="http://www.w3.org/1999/xlink">
<g id="graph0" class="graph" transform="scale(1 1) rotate(0) translate(4 214)">
<title>ConstIteratorBase::operator==</title>
<polygon fill="#ffffff" stroke="transparent" points="-4,4 -4,-214 265,-214 265,4 -4,4"/>
<!-- Node16 -->
<g id="node1" class="node">
<title>Node16</title>
<polygon fill="#bfbfbf" stroke="#000000" points="0,-90 0,-120 102,-120 102,-90 0,-90"/>
<text text-anchor="start" x="8" y="-108" font-family="Helvetica,sans-Serif" font-size="10.00" fill="#000000">ConstIteratorBase::</text>
<text text-anchor="middle" x="51" y="-97" font-family="Helvetica,sans-Serif" font-size="10.00" fill="#000000">operator==</text>
</g>
<!-- Node17 -->
<g id="node2" class="node">
<title>Node17</title>
<g id="a_node2"><a xlink:href="class_iterator_base.html#a541fdf8cc48f31c8ddfdc3f319a37100" target="_top" xlink:title="IteratorBase::clone">
<polygon fill="#ffffff" stroke="#000000" points="150,-190.5 150,-209.5 249,-209.5 249,-190.5 150,-190.5"/>
<text text-anchor="middle" x="199.5" y="-197.5" font-family="Helvetica,sans-Serif" font-size="10.00" fill="#000000">IteratorBase::clone</text>
</a>
</g>
</g>
<!-- Node16&#45;&gt;Node17 -->
<g id="edge1" class="edge">
<title>Node16&#45;&gt;Node17</title>
<path fill="none" stroke="#191970" d="M64.6285,-120.2541C80.6391,-137.3131 108.7501,-164.6838 138,-181 141.8931,-183.1716 146.0661,-185.1278 150.3374,-186.883"/>
<polygon fill="#191970" stroke="#191970" points="149.1818,-190.1875 159.7743,-190.4098 151.6324,-183.6304 149.1818,-190.1875"/>
</g>
<!-- Node18 -->
<g id="node3" class="node">
<title>Node18</title>
<g id="a_node3"><a xlink:href="class_iterator_base.html#a08430515a17384d098eb62ecce1b64c6" target="_top" xlink:title="IteratorBase::equal">
<polygon fill="#ffffff" stroke="#000000" points="150,-152.5 150,-171.5 249,-171.5 249,-152.5 150,-152.5"/>
<text text-anchor="middle" x="199.5" y="-159.5" font-family="Helvetica,sans-Serif" font-size="10.00" fill="#000000">IteratorBase::equal</text>
</a>
</g>
</g>
<!-- Node16&#45;&gt;Node18 -->
<g id="edge2" class="edge">
<title>Node16&#45;&gt;Node18</title>
<path fill="none" stroke="#191970" d="M83.2837,-120.1317C99.5226,-127.4778 119.6142,-136.1692 138,-143 143.9121,-145.1965 150.2064,-147.348 156.4272,-149.3675"/>
<polygon fill="#191970" stroke="#191970" points="155.4866,-152.7408 166.0765,-152.42 157.5979,-146.0668 155.4866,-152.7408"/>
</g>
<!-- Node19 -->
<g id="node4" class="node">
<title>Node19</title>
<g id="a_node4"><a xlink:href="class_iterator_base.html#a532583e58bce168648bdbdedb3a7d5ab" target="_top" xlink:title="IteratorBase::operator*">
<polygon fill="#ffffff" stroke="#000000" points="142,-114.5 142,-133.5 257,-133.5 257,-114.5 142,-114.5"/>
<text text-anchor="middle" x="199.5" y="-121.5" font-family="Helvetica,sans-Serif" font-size="10.00" fill="#000000">IteratorBase::operator*</text>
</a>
</g>
</g>
<!-- Node16&#45;&gt;Node19 -->
<g id="edge3" class="edge">
<title>Node16&#45;&gt;Node19</title>
<path fill="none" stroke="#191970" d="M102.1053,-111.5387C111.7326,-112.7705 121.9367,-114.0761 131.9754,-115.3605"/>
<polygon fill="#191970" stroke="#191970" points="131.5682,-118.8368 141.9316,-116.6343 132.4567,-111.8934 131.5682,-118.8368"/>
</g>
<!-- Node20 -->
<g id="node5" class="node">
<title>Node20</title>
<g id="a_node5"><a xlink:href="class_iterator_base.html#a816f35e9020716d212124a34f1c033fb" target="_top" xlink:title="IteratorBase::operator++">
<polygon fill="#ffffff" stroke="#000000" points="138,-76.5 138,-95.5 261,-95.5 261,-76.5 138,-76.5"/>
<text text-anchor="middle" x="199.5" y="-83.5" font-family="Helvetica,sans-Serif" font-size="10.00" fill="#000000">IteratorBase::operator++</text>
</a>
</g>
</g>
<!-- Node16&#45;&gt;Node20 -->
<g id="edge4" class="edge">
<title>Node16&#45;&gt;Node20</title>
<path fill="none" stroke="#191970" d="M102.1053,-98.4613C110.3666,-97.4043 119.0527,-96.2929 127.6945,-95.1872"/>
<polygon fill="#191970" stroke="#191970" points="128.316,-98.6363 137.7909,-93.8954 127.4276,-91.6929 128.316,-98.6363"/>
</g>
<!-- Node21 -->
<g id="node6" class="node">
<title>Node21</title>
<g id="a_node6"><a xlink:href="class_iterator_base.html#aa9bf0f75a8bb7e4d416a9b88ccacd9c7" target="_top" xlink:title="IteratorBase::operator&#45;&#45;">
<polygon fill="#ffffff" stroke="#000000" points="141,-38.5 141,-57.5 258,-57.5 258,-38.5 141,-38.5"/>
<text text-anchor="middle" x="199.5" y="-45.5" font-family="Helvetica,sans-Serif" font-size="10.00" fill="#000000">IteratorBase::operator&#45;&#45;</text>
</a>
</g>
</g>
<!-- Node16&#45;&gt;Node21 -->
<g id="edge5" class="edge">
<title>Node16&#45;&gt;Node21</title>
<path fill="none" stroke="#191970" d="M83.2837,-89.8683C99.5226,-82.5222 119.6142,-73.8308 138,-67 143.9121,-64.8035 150.2064,-62.652 156.4272,-60.6325"/>
<polygon fill="#191970" stroke="#191970" points="157.5979,-63.9332 166.0765,-57.58 155.4866,-57.2592 157.5979,-63.9332"/>
</g>
<!-- Node22 -->
<g id="node7" class="node">
<title>Node22</title>
<g id="a_node7"><a xlink:href="class_iterator_base.html#aad2254f7877e4647f699ceb455e893ff" target="_top" xlink:title="IteratorBase::operator&#45;\&gt;">
<polygon fill="#ffffff" stroke="#000000" points="139.5,-.5 139.5,-19.5 259.5,-19.5 259.5,-.5 139.5,-.5"/>
<text text-anchor="middle" x="199.5" y="-7.5" font-family="Helvetica,sans-Serif" font-size="10.00" fill="#000000">IteratorBase::operator&#45;&gt;</text>
</a>
</g>
</g>
<!-- Node16&#45;&gt;Node22 -->
<g id="edge6" class="edge">
<title>Node16&#45;&gt;Node22</title>
<path fill="none" stroke="#191970" d="M64.6285,-89.7459C80.6391,-72.6869 108.7501,-45.3162 138,-29 141.8931,-26.8284 146.0661,-24.8722 150.3374,-23.117"/>
<polygon fill="#191970" stroke="#191970" points="151.6324,-26.3696 159.7743,-19.5902 149.1818,-19.8125 151.6324,-26.3696"/>
</g>
</g>
</svg>
