<?xml version="1.0" encoding="UTF-8" standalone="no"?>
<!DOCTYPE svg PUBLIC "-//W3C//DTD SVG 1.1//EN"
 "http://www.w3.org/Graphics/SVG/1.1/DTD/svg11.dtd">
<!-- Generated by graphviz version 2.40.1 (20161225.0304)
 -->
<!-- Title: Image::select Pages: 1 -->
<svg width="795pt" height="39pt"
 viewBox="0.00 0.00 795.00 39.00" xmlns="http://www.w3.org/2000/svg" xmlns:xlink="http://www.w3.org/1999/xlink">
<g id="graph0" class="graph" transform="scale(1 1) rotate(0) translate(4 35)">
<title>Image::select</title>
<polygon fill="#ffffff" stroke="transparent" points="-4,4 -4,-35 791,-35 791,4 -4,4"/>
<!-- Node42 -->
<g id="node1" class="node">
<title>Node42</title>
<polygon fill="#bfbfbf" stroke="#000000" points="0,-6 0,-25 76,-25 76,-6 0,-6"/>
<text text-anchor="middle" x="38" y="-13" font-family="Helvetica,sans-Serif" font-size="10.00" fill="#000000">Image::select</text>
</g>
<!-- Node43 -->
<g id="node2" class="node">
<title>Node43</title>
<g id="a_node2"><a xlink:href="class_image_widget.html#a08c72c6888bf10e0941443ea67c72498" target="_top" xlink:title="ImageWidget::actualPropagate\lEvent">
<polygon fill="#ffffff" stroke="#000000" points="112,-.5 112,-30.5 263,-30.5 263,-.5 112,-.5"/>
<text text-anchor="start" x="120" y="-18.5" font-family="Helvetica,sans-Serif" font-size="10.00" fill="#000000">ImageWidget::actualPropagate</text>
<text text-anchor="middle" x="187.5" y="-7.5" font-family="Helvetica,sans-Serif" font-size="10.00" fill="#000000">Event</text>
</a>
</g>
</g>
<!-- Node42&#45;&gt;Node43 -->
<g id="edge1" class="edge">
<title>Node42&#45;&gt;Node43</title>
<path fill="none" stroke="#191970" d="M86.2321,-15.5C94.4579,-15.5 103.1758,-15.5 111.9091,-15.5"/>
<polygon fill="#191970" stroke="#191970" points="86.112,-12.0001 76.112,-15.5 86.1119,-19.0001 86.112,-12.0001"/>
</g>
<!-- Node44 -->
<g id="node3" class="node">
<title>Node44</title>
<g id="a_node3"><a xlink:href="class_image_widget.html#a5973a50de2ac39437934a09313af6af9" target="_top" xlink:title="ImageWidget::setSelectable">
<polygon fill="#ffffff" stroke="#000000" points="299,-6 299,-25 439,-25 439,-6 299,-6"/>
<text text-anchor="middle" x="369" y="-13" font-family="Helvetica,sans-Serif" font-size="10.00" fill="#000000">ImageWidget::setSelectable</text>
</a>
</g>
</g>
<!-- Node43&#45;&gt;Node44 -->
<g id="edge2" class="edge">
<title>Node43&#45;&gt;Node44</title>
<path fill="none" stroke="#191970" d="M273.236,-15.5C281.8605,-15.5 290.5456,-15.5 298.9785,-15.5"/>
<polygon fill="#191970" stroke="#191970" points="273.1581,-12.0001 263.1581,-15.5 273.158,-19.0001 273.1581,-12.0001"/>
</g>
<!-- Node45 -->
<g id="node4" class="node">
<title>Node45</title>
<g id="a_node4"><a xlink:href="class_application.html#a8f9f948d5439efe526f3219d85b29d7f" target="_top" xlink:title="Application::savePossibleTags">
<polygon fill="#ffffff" stroke="#000000" points="475,-6 475,-25 626,-25 626,-6 475,-6"/>
<text text-anchor="middle" x="550.5" y="-13" font-family="Helvetica,sans-Serif" font-size="10.00" fill="#000000">Application::savePossibleTags</text>
</a>
</g>
</g>
<!-- Node44&#45;&gt;Node45 -->
<g id="edge3" class="edge">
<title>Node44&#45;&gt;Node45</title>
<path fill="none" stroke="#191970" d="M449.3939,-15.5C457.8392,-15.5 466.4057,-15.5 474.7958,-15.5"/>
<polygon fill="#191970" stroke="#191970" points="449.1727,-12.0001 439.1726,-15.5 449.1726,-19.0001 449.1727,-12.0001"/>
</g>
<!-- Node46 -->
<g id="node5" class="node">
<title>Node46</title>
<g id="a_node5"><a xlink:href="class_application.html#a748bca84fefb9c12661cfaa2f623748d" target="_top" xlink:title="Application::~Application">
<polygon fill="#ffffff" stroke="#000000" points="662,-6 662,-25 787,-25 787,-6 662,-6"/>
<text text-anchor="middle" x="724.5" y="-13" font-family="Helvetica,sans-Serif" font-size="10.00" fill="#000000">Application::~Application</text>
</a>
</g>
</g>
<!-- Node45&#45;&gt;Node46 -->
<g id="edge4" class="edge">
<title>Node45&#45;&gt;Node46</title>
<path fill="none" stroke="#191970" d="M636.1685,-15.5C644.8039,-15.5 653.4568,-15.5 661.7867,-15.5"/>
<polygon fill="#191970" stroke="#191970" points="636.0598,-12.0001 626.0598,-15.5 636.0598,-19.0001 636.0598,-12.0001"/>
</g>
</g>
</svg>
