<?xml version="1.0" encoding="UTF-8" standalone="no"?>
<!DOCTYPE svg PUBLIC "-//W3C//DTD SVG 1.1//EN"
 "http://www.w3.org/Graphics/SVG/1.1/DTD/svg11.dtd">
<!-- Generated by graphviz version 2.40.1 (20161225.0304)
 -->
<!-- Title: Collection&lt; T &gt; Pages: 1 -->
<svg width="246pt" height="303pt"
 viewBox="0.00 0.00 246.00 303.00" xmlns="http://www.w3.org/2000/svg" xmlns:xlink="http://www.w3.org/1999/xlink">
<g id="graph0" class="graph" transform="scale(1 1) rotate(0) translate(4 299)">
<title>Collection&lt; T &gt;</title>
<polygon fill="#ffffff" stroke="transparent" points="-4,4 -4,-299 242,-299 242,4 -4,4"/>
<!-- Node0 -->
<g id="node1" class="node">
<title>Node0</title>
<polygon fill="#bfbfbf" stroke="#000000" points="74,-204.5 74,-294.5 158,-294.5 158,-204.5 74,-204.5"/>
<text text-anchor="middle" x="116" y="-282.5" font-family="Helvetica,sans-Serif" font-size="10.00" fill="#000000">Collection&lt; T &gt;</text>
<polyline fill="none" stroke="#000000" points="74,-275.5 158,-275.5 "/>
<text text-anchor="middle" x="116" y="-263.5" font-family="Helvetica,sans-Serif" font-size="10.00" fill="#000000"> </text>
<polyline fill="none" stroke="#000000" points="74,-256.5 158,-256.5 "/>
<text text-anchor="start" x="82" y="-244.5" font-family="Helvetica,sans-Serif" font-size="10.00" fill="#000000">+ Collection()</text>
<text text-anchor="start" x="82" y="-233.5" font-family="Helvetica,sans-Serif" font-size="10.00" fill="#000000">+ ~Collection()</text>
<text text-anchor="start" x="82" y="-222.5" font-family="Helvetica,sans-Serif" font-size="10.00" fill="#000000">+ begin()</text>
<text text-anchor="start" x="82" y="-211.5" font-family="Helvetica,sans-Serif" font-size="10.00" fill="#000000">+ end()</text>
</g>
<!-- Node1 -->
<g id="node2" class="node">
<title>Node1</title>
<g id="a_node2"><a xlink:href="class_collection_pool.html" target="_top" xlink:title="{CollectionPool\&lt; T \&gt;\n||+ CollectionPool()\l+ CollectionPool()\l+ CollectionPool()\l+ empty()\l+ size()\l+ max_size()\l+ reserve()\l+ capacity()\l+ shrink_to_fit()\l+ begin()\l+ end()\l}">
<polygon fill="#ffffff" stroke="#000000" points="0,-.5 0,-167.5 104,-167.5 104,-.5 0,-.5"/>
<text text-anchor="middle" x="52" y="-155.5" font-family="Helvetica,sans-Serif" font-size="10.00" fill="#000000">CollectionPool&lt; T &gt;</text>
<polyline fill="none" stroke="#000000" points="0,-148.5 104,-148.5 "/>
<text text-anchor="middle" x="52" y="-136.5" font-family="Helvetica,sans-Serif" font-size="10.00" fill="#000000"> </text>
<polyline fill="none" stroke="#000000" points="0,-129.5 104,-129.5 "/>
<text text-anchor="start" x="8" y="-117.5" font-family="Helvetica,sans-Serif" font-size="10.00" fill="#000000">+ CollectionPool()</text>
<text text-anchor="start" x="8" y="-106.5" font-family="Helvetica,sans-Serif" font-size="10.00" fill="#000000">+ CollectionPool()</text>
<text text-anchor="start" x="8" y="-95.5" font-family="Helvetica,sans-Serif" font-size="10.00" fill="#000000">+ CollectionPool()</text>
<text text-anchor="start" x="8" y="-84.5" font-family="Helvetica,sans-Serif" font-size="10.00" fill="#000000">+ empty()</text>
<text text-anchor="start" x="8" y="-73.5" font-family="Helvetica,sans-Serif" font-size="10.00" fill="#000000">+ size()</text>
<text text-anchor="start" x="8" y="-62.5" font-family="Helvetica,sans-Serif" font-size="10.00" fill="#000000">+ max_size()</text>
<text text-anchor="start" x="8" y="-51.5" font-family="Helvetica,sans-Serif" font-size="10.00" fill="#000000">+ reserve()</text>
<text text-anchor="start" x="8" y="-40.5" font-family="Helvetica,sans-Serif" font-size="10.00" fill="#000000">+ capacity()</text>
<text text-anchor="start" x="8" y="-29.5" font-family="Helvetica,sans-Serif" font-size="10.00" fill="#000000">+ shrink_to_fit()</text>
<text text-anchor="start" x="8" y="-18.5" font-family="Helvetica,sans-Serif" font-size="10.00" fill="#000000">+ begin()</text>
<text text-anchor="start" x="8" y="-7.5" font-family="Helvetica,sans-Serif" font-size="10.00" fill="#000000">+ end()</text>
</a>
</g>
</g>
<!-- Node0&#45;&gt;Node1 -->
<g id="edge1" class="edge">
<title>Node0&#45;&gt;Node1</title>
<path fill="none" stroke="#191970" d="M94.8038,-194.688C91.4437,-185.9989 87.9035,-176.8441 84.3574,-167.6743"/>
<polygon fill="none" stroke="#191970" points="91.6405,-196.2119 98.5117,-204.2764 98.1693,-193.6871 91.6405,-196.2119"/>
</g>
<!-- Node2 -->
<g id="node3" class="node">
<title>Node2</title>
<g id="a_node3"><a xlink:href="class_filtered_collection.html" target="_top" xlink:title="{FilteredCollection\&lt; T \&gt;\n||+ FilteredCollection()\l+ begin()\l+ end()\l}">
<polygon fill="#ffffff" stroke="#000000" points="122,-44.5 122,-123.5 238,-123.5 238,-44.5 122,-44.5"/>
<text text-anchor="middle" x="180" y="-111.5" font-family="Helvetica,sans-Serif" font-size="10.00" fill="#000000">FilteredCollection&lt; T &gt;</text>
<polyline fill="none" stroke="#000000" points="122,-104.5 238,-104.5 "/>
<text text-anchor="middle" x="180" y="-92.5" font-family="Helvetica,sans-Serif" font-size="10.00" fill="#000000"> </text>
<polyline fill="none" stroke="#000000" points="122,-85.5 238,-85.5 "/>
<text text-anchor="start" x="130" y="-73.5" font-family="Helvetica,sans-Serif" font-size="10.00" fill="#000000">+ FilteredCollection()</text>
<text text-anchor="start" x="130" y="-62.5" font-family="Helvetica,sans-Serif" font-size="10.00" fill="#000000">+ begin()</text>
<text text-anchor="start" x="130" y="-51.5" font-family="Helvetica,sans-Serif" font-size="10.00" fill="#000000">+ end()</text>
</a>
</g>
</g>
<!-- Node0&#45;&gt;Node2 -->
<g id="edge2" class="edge">
<title>Node0&#45;&gt;Node2</title>
<path fill="none" stroke="#191970" d="M137.1297,-194.8599C146.1408,-171.5578 156.4569,-144.881 164.7111,-123.5362"/>
<polygon fill="none" stroke="#191970" points="133.8307,-193.6871 133.4883,-204.2764 140.3595,-196.2119 133.8307,-193.6871"/>
</g>
</g>
</svg>
