<?xml version="1.0" encoding="UTF-8" standalone="no"?>
<!DOCTYPE svg PUBLIC "-//W3C//DTD SVG 1.1//EN"
 "http://www.w3.org/Graphics/SVG/1.1/DTD/svg11.dtd">
<!-- Generated by graphviz version 2.40.1 (20161225.0304)
 -->
<!-- Title: ButtonWidget::actualRender Pages: 1 -->
<svg width="429pt" height="66pt"
 viewBox="0.00 0.00 429.00 66.00" xmlns="http://www.w3.org/2000/svg" xmlns:xlink="http://www.w3.org/1999/xlink">
<g id="graph0" class="graph" transform="scale(1 1) rotate(0) translate(4 62)">
<title>ButtonWidget::actualRender</title>
<polygon fill="#ffffff" stroke="transparent" points="-4,4 -4,-62 425,-62 425,4 -4,4"/>
<!-- Node13 -->
<g id="node1" class="node">
<title>Node13</title>
<polygon fill="#bfbfbf" stroke="#000000" points="0,-19.5 0,-38.5 140,-38.5 140,-19.5 0,-19.5"/>
<text text-anchor="middle" x="70" y="-26.5" font-family="Helvetica,sans-Serif" font-size="10.00" fill="#000000">ButtonWidget::actualRender</text>
</g>
<!-- Node14 -->
<g id="node2" class="node">
<title>Node14</title>
<g id="a_node2"><a xlink:href="class_widget.html#a2516fd56cac645cb3aacef37937c49d3" target="_top" xlink:title="Widget::render">
<polygon fill="#ffffff" stroke="#000000" points="185,-38.5 185,-57.5 265,-57.5 265,-38.5 185,-38.5"/>
<text text-anchor="middle" x="225" y="-45.5" font-family="Helvetica,sans-Serif" font-size="10.00" fill="#000000">Widget::render</text>
</a>
</g>
</g>
<!-- Node13&#45;&gt;Node14 -->
<g id="edge1" class="edge">
<title>Node13&#45;&gt;Node14</title>
<path fill="none" stroke="#191970" d="M140.2438,-37.6105C151.7769,-39.0243 163.5263,-40.4645 174.4581,-41.8045"/>
<polygon fill="#191970" stroke="#191970" points="174.3034,-45.3117 184.6549,-43.0545 175.1551,-38.3637 174.3034,-45.3117"/>
</g>
<!-- Node16 -->
<g id="node4" class="node">
<title>Node16</title>
<g id="a_node4"><a xlink:href="_utilities_8cpp.html#a59a3b645b654e776f33e3f4dccbd5fb1" target="_top" xlink:title="Convertit de l&#39;UTF&#45;8 vers l&#39;ISO&#45;8859&#45;1. ">
<polygon fill="#ffffff" stroke="#000000" points="176,-.5 176,-19.5 274,-19.5 274,-.5 176,-.5"/>
<text text-anchor="middle" x="225" y="-7.5" font-family="Helvetica,sans-Serif" font-size="10.00" fill="#000000">UTF8toISO8859_1</text>
</a>
</g>
</g>
<!-- Node13&#45;&gt;Node16 -->
<g id="edge3" class="edge">
<title>Node13&#45;&gt;Node16</title>
<path fill="none" stroke="#191970" d="M140.2438,-20.3895C148.7857,-19.3424 157.4462,-18.2808 165.8053,-17.2561"/>
<polygon fill="#191970" stroke="#191970" points="166.3241,-20.7188 175.824,-16.028 165.4724,-13.7708 166.3241,-20.7188"/>
</g>
<!-- Node15 -->
<g id="node3" class="node">
<title>Node15</title>
<g id="a_node3"><a xlink:href="class_widget.html#a5ff4883144670b8c93b41e440e3d4446" target="_top" xlink:title="Widget::actualRender">
<polygon fill="#ffffff" stroke="#000000" points="310,-38.5 310,-57.5 421,-57.5 421,-38.5 310,-38.5"/>
<text text-anchor="middle" x="365.5" y="-45.5" font-family="Helvetica,sans-Serif" font-size="10.00" fill="#000000">Widget::actualRender</text>
</a>
</g>
</g>
<!-- Node14&#45;&gt;Node15 -->
<g id="edge2" class="edge">
<title>Node14&#45;&gt;Node15</title>
<path fill="none" stroke="#191970" d="M265.2617,-48C275.9863,-48 287.8589,-48 299.5707,-48"/>
<polygon fill="#191970" stroke="#191970" points="299.7886,-51.5001 309.7886,-48 299.7886,-44.5001 299.7886,-51.5001"/>
</g>
</g>
</svg>
