<?xml version="1.0" encoding="UTF-8" standalone="no"?>
<!DOCTYPE svg PUBLIC "-//W3C//DTD SVG 1.1//EN"
 "http://www.w3.org/Graphics/SVG/1.1/DTD/svg11.dtd">
<!-- Generated by graphviz version 2.40.1 (20161225.0304)
 -->
<!-- Title: Application::save Pages: 1 -->
<svg width="448pt" height="47pt"
 viewBox="0.00 0.00 448.00 47.00" xmlns="http://www.w3.org/2000/svg" xmlns:xlink="http://www.w3.org/1999/xlink">
<g id="graph0" class="graph" transform="scale(1 1) rotate(0) translate(4 43)">
<title>Application::save</title>
<polygon fill="#ffffff" stroke="transparent" points="-4,4 -4,-43 444,-43 444,4 -4,4"/>
<!-- Node66 -->
<g id="node1" class="node">
<title>Node66</title>
<polygon fill="#bfbfbf" stroke="#000000" points="0,-.5 0,-19.5 92,-19.5 92,-.5 0,-.5"/>
<text text-anchor="middle" x="46" y="-7.5" font-family="Helvetica,sans-Serif" font-size="10.00" fill="#000000">Application::save</text>
</g>
<!-- Node67 -->
<g id="node2" class="node">
<title>Node67</title>
<g id="a_node2"><a xlink:href="class_application.html#a8f9f948d5439efe526f3219d85b29d7f" target="_top" xlink:title="Enregistre la liste des tags accéssibles à l&#39;utilisateur. ">
<polygon fill="#ffffff" stroke="#000000" points="128,-19.5 128,-38.5 279,-38.5 279,-19.5 128,-19.5"/>
<text text-anchor="middle" x="203.5" y="-26.5" font-family="Helvetica,sans-Serif" font-size="10.00" fill="#000000">Application::savePossibleTags</text>
</a>
</g>
</g>
<!-- Node66&#45;&gt;Node67 -->
<g id="edge1" class="edge">
<title>Node66&#45;&gt;Node67</title>
<path fill="none" stroke="#191970" d="M102.5909,-16.8268C110.8053,-17.8178 119.3699,-18.851 127.8855,-19.8783"/>
<polygon fill="#191970" stroke="#191970" points="102.7506,-13.3208 92.4033,-15.5979 101.9121,-20.2704 102.7506,-13.3208"/>
</g>
<!-- Node68 -->
<g id="node3" class="node">
<title>Node68</title>
<g id="a_node3"><a xlink:href="class_application.html#a748bca84fefb9c12661cfaa2f623748d" target="_top" xlink:title="Effectue une sauvegarde de la collection et enregistre les tags. ">
<polygon fill="#ffffff" stroke="#000000" points="315,-.5 315,-19.5 440,-19.5 440,-.5 315,-.5"/>
<text text-anchor="middle" x="377.5" y="-7.5" font-family="Helvetica,sans-Serif" font-size="10.00" fill="#000000">Application::~Application</text>
</a>
</g>
</g>
<!-- Node66&#45;&gt;Node68 -->
<g id="edge3" class="edge">
<title>Node66&#45;&gt;Node68</title>
<path fill="none" stroke="#191970" d="M102.3374,-10C161.2893,-10 253.6143,-10 314.8308,-10"/>
<polygon fill="#191970" stroke="#191970" points="102.0937,-6.5001 92.0937,-10 102.0936,-13.5001 102.0937,-6.5001"/>
</g>
<!-- Node67&#45;&gt;Node68 -->
<g id="edge2" class="edge">
<title>Node67&#45;&gt;Node68</title>
<path fill="none" stroke="#191970" d="M289.1685,-19.6454C297.8039,-18.7024 306.4568,-17.7576 314.7867,-16.848"/>
<polygon fill="#191970" stroke="#191970" points="288.6208,-16.1843 279.0598,-20.7492 289.3807,-23.1429 288.6208,-16.1843"/>
</g>
</g>
</svg>
