<?xml version="1.0" encoding="UTF-8" standalone="no"?>
<!DOCTYPE svg PUBLIC "-//W3C//DTD SVG 1.1//EN"
 "http://www.w3.org/Graphics/SVG/1.1/DTD/svg11.dtd">
<!-- Generated by graphviz version 2.40.1 (20161225.0304)
 -->
<!-- Title: TagViewerWidget::actualResize Pages: 1 -->
<svg width="303pt" height="46pt"
 viewBox="0.00 0.00 303.00 46.00" xmlns="http://www.w3.org/2000/svg" xmlns:xlink="http://www.w3.org/1999/xlink">
<g id="graph0" class="graph" transform="scale(1 1) rotate(0) translate(4 42)">
<title>TagViewerWidget::actualResize</title>
<polygon fill="#ffffff" stroke="transparent" points="-4,4 -4,-42 299,-42 299,4 -4,4"/>
<!-- Node10 -->
<g id="node1" class="node">
<title>Node10</title>
<polygon fill="#bfbfbf" stroke="#000000" points="0,-.5 0,-19.5 157,-19.5 157,-.5 0,-.5"/>
<text text-anchor="middle" x="78.5" y="-7.5" font-family="Helvetica,sans-Serif" font-size="10.00" fill="#000000">TagViewerWidget::actualResize</text>
</g>
<!-- Node11 -->
<g id="node2" class="node">
<title>Node11</title>
<g id="a_node2"><a xlink:href="class_widget.html#a210d4c8e3ea02cb777c6e3ad7fdc22b3" target="_top" xlink:title="Widget::callRedraw">
<polygon fill="#ffffff" stroke="#000000" points="193,-.5 193,-19.5 295,-19.5 295,-.5 193,-.5"/>
<text text-anchor="middle" x="244" y="-7.5" font-family="Helvetica,sans-Serif" font-size="10.00" fill="#000000">Widget::callRedraw</text>
</a>
</g>
</g>
<!-- Node10&#45;&gt;Node11 -->
<g id="edge1" class="edge">
<title>Node10&#45;&gt;Node11</title>
<path fill="none" stroke="#191970" d="M157.3724,-10C165.8019,-10 174.2852,-10 182.4713,-10"/>
<polygon fill="#191970" stroke="#191970" points="182.6551,-13.5001 192.6551,-10 182.6551,-6.5001 182.6551,-13.5001"/>
</g>
<!-- Node11&#45;&gt;Node11 -->
<g id="edge2" class="edge">
<title>Node11&#45;&gt;Node11</title>
<path fill="none" stroke="#191970" d="M218.7228,-19.7571C206.4258,-28.5653 214.8516,-38 244,-38 263.5841,-38 273.8136,-33.741 274.6886,-28.2746"/>
<polygon fill="#191970" stroke="#191970" points="277.594,-26.3207 269.2772,-19.7571 271.6856,-30.0745 277.594,-26.3207"/>
</g>
</g>
</svg>
