<?xml version="1.0" encoding="UTF-8" standalone="no"?>
<!DOCTYPE svg PUBLIC "-//W3C//DTD SVG 1.1//EN"
 "http://www.w3.org/Graphics/SVG/1.1/DTD/svg11.dtd">
<!-- Generated by graphviz version 2.40.1 (20161225.0304)
 -->
<!-- Title: Widget::propagateEvent Pages: 1 -->
<svg width="550pt" height="127pt"
 viewBox="0.00 0.00 550.00 126.50" xmlns="http://www.w3.org/2000/svg" xmlns:xlink="http://www.w3.org/1999/xlink">
<g id="graph0" class="graph" transform="scale(1 1) rotate(0) translate(4 122.5)">
<title>Widget::propagateEvent</title>
<polygon fill="#ffffff" stroke="transparent" points="-4,4 -4,-122.5 546,-122.5 546,4 -4,4"/>
<!-- Node143 -->
<g id="node1" class="node">
<title>Node143</title>
<polygon fill="#bfbfbf" stroke="#000000" points="0,-44.5 0,-63.5 122,-63.5 122,-44.5 0,-44.5"/>
<text text-anchor="middle" x="61" y="-51.5" font-family="Helvetica,sans-Serif" font-size="10.00" fill="#000000">Widget::propagateEvent</text>
</g>
<!-- Node144 -->
<g id="node2" class="node">
<title>Node144</title>
<g id="a_node2"><a xlink:href="class_grid_widget.html#a9c57f1ca2311d3caa936a481fa7fbef0" target="_top" xlink:title="GridWidget::actualPropagate\lEvent">
<polygon fill="#ffffff" stroke="#000000" points="164,-88 164,-118 306,-118 306,-88 164,-88"/>
<text text-anchor="start" x="172" y="-106" font-family="Helvetica,sans-Serif" font-size="10.00" fill="#000000">GridWidget::actualPropagate</text>
<text text-anchor="middle" x="235" y="-95" font-family="Helvetica,sans-Serif" font-size="10.00" fill="#000000">Event</text>
</a>
</g>
</g>
<!-- Node143&#45;&gt;Node144 -->
<g id="edge1" class="edge">
<title>Node143&#45;&gt;Node144</title>
<path fill="none" stroke="#191970" d="M104.5978,-66.2776C127.9498,-72.8537 156.9103,-81.0092 181.6034,-87.963"/>
<polygon fill="#191970" stroke="#191970" points="105.5364,-62.9058 94.962,-63.564 103.6389,-69.6437 105.5364,-62.9058"/>
</g>
<!-- Node146 -->
<g id="node4" class="node">
<title>Node146</title>
<g id="a_node4"><a xlink:href="class_list_widget.html#a91b56e252a550deda1d97a2992e3a9f7" target="_top" xlink:title="ListWidget::actualPropagate\lEvent">
<polygon fill="#ffffff" stroke="#000000" points="165,-39 165,-69 305,-69 305,-39 165,-39"/>
<text text-anchor="start" x="173" y="-57" font-family="Helvetica,sans-Serif" font-size="10.00" fill="#000000">ListWidget::actualPropagate</text>
<text text-anchor="middle" x="235" y="-46" font-family="Helvetica,sans-Serif" font-size="10.00" fill="#000000">Event</text>
</a>
</g>
</g>
<!-- Node143&#45;&gt;Node146 -->
<g id="edge3" class="edge">
<title>Node143&#45;&gt;Node146</title>
<path fill="none" stroke="#191970" d="M132.4405,-54C143.0949,-54 154.0712,-54 164.7017,-54"/>
<polygon fill="#191970" stroke="#191970" points="132.3459,-50.5001 122.3459,-54 132.3459,-57.5001 132.3459,-50.5001"/>
</g>
<!-- Node147 -->
<g id="node5" class="node">
<title>Node147</title>
<g id="a_node5"><a xlink:href="class_window_widget.html#a541a8f556d865da798786e2601cf031e" target="_top" xlink:title="WindowWidget::manageEvents">
<polygon fill="#ffffff" stroke="#000000" points="158,-.5 158,-19.5 312,-19.5 312,-.5 158,-.5"/>
<text text-anchor="middle" x="235" y="-7.5" font-family="Helvetica,sans-Serif" font-size="10.00" fill="#000000">WindowWidget::manageEvents</text>
</a>
</g>
</g>
<!-- Node143&#45;&gt;Node147 -->
<g id="edge4" class="edge">
<title>Node143&#45;&gt;Node147</title>
<path fill="none" stroke="#191970" d="M107.9456,-41.7965C123.8307,-37.6949 141.6777,-33.1171 158,-29 170.2828,-25.9018 183.6819,-22.5766 195.8087,-19.5877"/>
<polygon fill="#191970" stroke="#191970" points="106.6312,-38.5212 97.8259,-44.4134 108.3837,-45.2983 106.6312,-38.5212"/>
</g>
<!-- Node145 -->
<g id="node3" class="node">
<title>Node145</title>
<g id="a_node3"><a xlink:href="class_grid_widget.html#abfc54e477706b66bd09f6f3c459fcfa4" target="_top" xlink:title="GridWidget::GridWidget">
<polygon fill="#ffffff" stroke="#000000" points="348,-93.5 348,-112.5 468,-112.5 468,-93.5 348,-93.5"/>
<text text-anchor="middle" x="408" y="-100.5" font-family="Helvetica,sans-Serif" font-size="10.00" fill="#000000">GridWidget::GridWidget</text>
</a>
</g>
</g>
<!-- Node144&#45;&gt;Node145 -->
<g id="edge2" class="edge">
<title>Node144&#45;&gt;Node145</title>
<path fill="none" stroke="#191970" d="M316.4454,-103C327.0137,-103 337.683,-103 347.8193,-103"/>
<polygon fill="#191970" stroke="#191970" points="316.3646,-99.5001 306.3645,-103 316.3645,-106.5001 316.3646,-99.5001"/>
</g>
<!-- Node148 -->
<g id="node6" class="node">
<title>Node148</title>
<g id="a_node6"><a xlink:href="class_application.html#a81d5b51e54511185c84ee300e752a85f" target="_top" xlink:title="Application::execute">
<polygon fill="#ffffff" stroke="#000000" points="355.5,-.5 355.5,-19.5 460.5,-19.5 460.5,-.5 355.5,-.5"/>
<text text-anchor="middle" x="408" y="-7.5" font-family="Helvetica,sans-Serif" font-size="10.00" fill="#000000">Application::execute</text>
</a>
</g>
</g>
<!-- Node147&#45;&gt;Node148 -->
<g id="edge5" class="edge">
<title>Node147&#45;&gt;Node148</title>
<path fill="none" stroke="#191970" d="M322.4408,-10C333.6746,-10 344.8873,-10 355.3207,-10"/>
<polygon fill="#191970" stroke="#191970" points="322.1399,-6.5001 312.1399,-10 322.1398,-13.5001 322.1399,-6.5001"/>
</g>
<!-- Node149 -->
<g id="node7" class="node">
<title>Node149</title>
<g id="a_node7"><a xlink:href="main_8cpp.html#adc4096c0dfd003425c219daa30db4e1e" target="_top" xlink:title="main">
<polygon fill="#ffffff" stroke="#000000" points="504,-.5 504,-19.5 542,-19.5 542,-.5 504,-.5"/>
<text text-anchor="middle" x="523" y="-7.5" font-family="Helvetica,sans-Serif" font-size="10.00" fill="#000000">main</text>
</a>
</g>
</g>
<!-- Node148&#45;&gt;Node149 -->
<g id="edge6" class="edge">
<title>Node148&#45;&gt;Node149</title>
<path fill="none" stroke="#191970" d="M470.8811,-10C482.8639,-10 494.5322,-10 503.7799,-10"/>
<polygon fill="#191970" stroke="#191970" points="470.7879,-6.5001 460.7879,-10 470.7879,-13.5001 470.7879,-6.5001"/>
</g>
</g>
</svg>
