<?xml version="1.0" encoding="UTF-8" standalone="no"?>
<!DOCTYPE svg PUBLIC "-//W3C//DTD SVG 1.1//EN"
 "http://www.w3.org/Graphics/SVG/1.1/DTD/svg11.dtd">
<!-- Generated by graphviz version 2.40.1 (20161225.0304)
 -->
<!-- Title: Image::isSelected Pages: 1 -->
<svg width="814pt" height="78pt"
 viewBox="0.00 0.00 814.00 77.50" xmlns="http://www.w3.org/2000/svg" xmlns:xlink="http://www.w3.org/1999/xlink">
<g id="graph0" class="graph" transform="scale(1 1) rotate(0) translate(4 73.5)">
<title>Image::isSelected</title>
<polygon fill="#ffffff" stroke="transparent" points="-4,4 -4,-73.5 810,-73.5 810,4 -4,4"/>
<!-- Node27 -->
<g id="node1" class="node">
<title>Node27</title>
<polygon fill="#bfbfbf" stroke="#000000" points="0,-22.5 0,-41.5 95,-41.5 95,-22.5 0,-22.5"/>
<text text-anchor="middle" x="47.5" y="-29.5" font-family="Helvetica,sans-Serif" font-size="10.00" fill="#000000">Image::isSelected</text>
</g>
<!-- Node28 -->
<g id="node2" class="node">
<title>Node28</title>
<g id="a_node2"><a xlink:href="class_image_widget.html#a08c72c6888bf10e0941443ea67c72498" target="_top" xlink:title="ImageWidget::actualPropagate\lEvent">
<polygon fill="#ffffff" stroke="#000000" points="131,-39 131,-69 282,-69 282,-39 131,-39"/>
<text text-anchor="start" x="139" y="-57" font-family="Helvetica,sans-Serif" font-size="10.00" fill="#000000">ImageWidget::actualPropagate</text>
<text text-anchor="middle" x="206.5" y="-46" font-family="Helvetica,sans-Serif" font-size="10.00" fill="#000000">Event</text>
</a>
</g>
</g>
<!-- Node27&#45;&gt;Node28 -->
<g id="edge1" class="edge">
<title>Node27&#45;&gt;Node28</title>
<path fill="none" stroke="#191970" d="M105.1897,-39.9822C113.5391,-41.1375 122.2364,-42.3409 130.8726,-43.5358"/>
<polygon fill="#191970" stroke="#191970" points="105.5906,-36.5044 95.2052,-38.6007 104.6311,-43.4384 105.5906,-36.5044"/>
</g>
<!-- Node32 -->
<g id="node6" class="node">
<title>Node32</title>
<g id="a_node6"><a xlink:href="class_image_widget.html#ac80b8e013edc3cda5e1413cbd174b2cb" target="_top" xlink:title="ImageWidget::actualRender">
<polygon fill="#ffffff" stroke="#000000" points="137.5,-.5 137.5,-19.5 275.5,-19.5 275.5,-.5 137.5,-.5"/>
<text text-anchor="middle" x="206.5" y="-7.5" font-family="Helvetica,sans-Serif" font-size="10.00" fill="#000000">ImageWidget::actualRender</text>
</a>
</g>
</g>
<!-- Node27&#45;&gt;Node32 -->
<g id="edge5" class="edge">
<title>Node27&#45;&gt;Node32</title>
<path fill="none" stroke="#191970" d="M105.1337,-24.0255C115.6959,-22.5641 126.8164,-21.0254 137.667,-19.5241"/>
<polygon fill="#191970" stroke="#191970" points="104.6311,-20.5616 95.2052,-25.3993 105.5906,-27.4956 104.6311,-20.5616"/>
</g>
<!-- Node29 -->
<g id="node3" class="node">
<title>Node29</title>
<g id="a_node3"><a xlink:href="class_image_widget.html#a5973a50de2ac39437934a09313af6af9" target="_top" xlink:title="ImageWidget::setSelectable">
<polygon fill="#ffffff" stroke="#000000" points="318,-22.5 318,-41.5 458,-41.5 458,-22.5 318,-22.5"/>
<text text-anchor="middle" x="388" y="-29.5" font-family="Helvetica,sans-Serif" font-size="10.00" fill="#000000">ImageWidget::setSelectable</text>
</a>
</g>
</g>
<!-- Node28&#45;&gt;Node29 -->
<g id="edge2" class="edge">
<title>Node28&#45;&gt;Node29</title>
<path fill="none" stroke="#191970" d="M292.236,-43.6078C300.8605,-42.5624 309.5456,-41.5096 317.9785,-40.4875"/>
<polygon fill="#191970" stroke="#191970" points="291.6642,-40.1514 282.1581,-44.8293 292.5066,-47.1005 291.6642,-40.1514"/>
</g>
<!-- Node30 -->
<g id="node4" class="node">
<title>Node30</title>
<g id="a_node4"><a xlink:href="class_application.html#a8f9f948d5439efe526f3219d85b29d7f" target="_top" xlink:title="Application::savePossibleTags">
<polygon fill="#ffffff" stroke="#000000" points="494,-22.5 494,-41.5 645,-41.5 645,-22.5 494,-22.5"/>
<text text-anchor="middle" x="569.5" y="-29.5" font-family="Helvetica,sans-Serif" font-size="10.00" fill="#000000">Application::savePossibleTags</text>
</a>
</g>
</g>
<!-- Node29&#45;&gt;Node30 -->
<g id="edge3" class="edge">
<title>Node29&#45;&gt;Node30</title>
<path fill="none" stroke="#191970" d="M468.3939,-32C476.8392,-32 485.4057,-32 493.7958,-32"/>
<polygon fill="#191970" stroke="#191970" points="468.1727,-28.5001 458.1726,-32 468.1726,-35.5001 468.1727,-28.5001"/>
</g>
<!-- Node31 -->
<g id="node5" class="node">
<title>Node31</title>
<g id="a_node5"><a xlink:href="class_application.html#a748bca84fefb9c12661cfaa2f623748d" target="_top" xlink:title="Application::~Application">
<polygon fill="#ffffff" stroke="#000000" points="681,-22.5 681,-41.5 806,-41.5 806,-22.5 681,-22.5"/>
<text text-anchor="middle" x="743.5" y="-29.5" font-family="Helvetica,sans-Serif" font-size="10.00" fill="#000000">Application::~Application</text>
</a>
</g>
</g>
<!-- Node30&#45;&gt;Node31 -->
<g id="edge4" class="edge">
<title>Node30&#45;&gt;Node31</title>
<path fill="none" stroke="#191970" d="M655.1685,-32C663.8039,-32 672.4568,-32 680.7867,-32"/>
<polygon fill="#191970" stroke="#191970" points="655.0598,-28.5001 645.0598,-32 655.0598,-35.5001 655.0598,-28.5001"/>
</g>
<!-- Node32&#45;&gt;Node29 -->
<g id="edge6" class="edge">
<title>Node32&#45;&gt;Node29</title>
<path fill="none" stroke="#191970" d="M285.785,-19.6103C296.4607,-20.9043 307.3516,-22.2244 317.8537,-23.4974"/>
<polygon fill="#191970" stroke="#191970" points="285.9837,-16.1088 275.6351,-18.38 285.1413,-23.058 285.9837,-16.1088"/>
</g>
</g>
</svg>
