<?xml version="1.0" encoding="UTF-8" standalone="no"?>
<!DOCTYPE svg PUBLIC "-//W3C//DTD SVG 1.1//EN"
 "http://www.w3.org/Graphics/SVG/1.1/DTD/svg11.dtd">
<!-- Generated by graphviz version 2.40.1 (20161225.0304)
 -->
<!-- Title: Widget::callRedraw Pages: 1 -->
<svg width="837pt" height="666pt"
 viewBox="0.00 0.00 837.00 665.50" xmlns="http://www.w3.org/2000/svg" xmlns:xlink="http://www.w3.org/1999/xlink">
<g id="graph0" class="graph" transform="scale(1 1) rotate(0) translate(4 661.5)">
<title>Widget::callRedraw</title>
<polygon fill="#ffffff" stroke="transparent" points="-4,4 -4,-661.5 833,-661.5 833,4 -4,4"/>
<!-- Node90 -->
<g id="node1" class="node">
<title>Node90</title>
<polygon fill="#bfbfbf" stroke="#000000" points="0,-296.5 0,-315.5 102,-315.5 102,-296.5 0,-296.5"/>
<text text-anchor="middle" x="51" y="-303.5" font-family="Helvetica,sans-Serif" font-size="10.00" fill="#000000">Widget::callRedraw</text>
</g>
<!-- Node90&#45;&gt;Node90 -->
<g id="edge27" class="edge">
<title>Node90&#45;&gt;Node90</title>
<path fill="none" stroke="#191970" d="M19.1886,-324.2746C20.0956,-329.741 30.6994,-334 51,-334 81.2148,-334 89.9488,-324.5653 77.2019,-315.7571"/>
<polygon fill="#191970" stroke="#191970" points="22.2209,-326.0337 24.7981,-315.7571 16.3748,-322.1836 22.2209,-326.0337"/>
</g>
<!-- Node91 -->
<g id="node2" class="node">
<title>Node91</title>
<g id="a_node2"><a xlink:href="class_tag_selector.html#ae5dfc8890e99c275d8908155be6bcb70" target="_top" xlink:title="TagSelector::actualPropagate\lEvent">
<polygon fill="#ffffff" stroke="#000000" points="148.5,-627 148.5,-657 294.5,-657 294.5,-627 148.5,-627"/>
<text text-anchor="start" x="156.5" y="-645" font-family="Helvetica,sans-Serif" font-size="10.00" fill="#000000">TagSelector::actualPropagate</text>
<text text-anchor="middle" x="221.5" y="-634" font-family="Helvetica,sans-Serif" font-size="10.00" fill="#000000">Event</text>
</a>
</g>
</g>
<!-- Node90&#45;&gt;Node91 -->
<g id="edge1" class="edge">
<title>Node90&#45;&gt;Node91</title>
<path fill="none" stroke="#191970" d="M53.9382,-325.6535C63.5334,-387.3244 95.7758,-575.4392 138,-618 141.3994,-621.4265 145.2537,-624.3714 149.3959,-626.9015"/>
<polygon fill="#191970" stroke="#191970" points="57.3836,-325.0296 52.4128,-315.6732 50.4639,-326.0873 57.3836,-325.0296"/>
</g>
<!-- Node92 -->
<g id="node3" class="node">
<title>Node92</title>
<g id="a_node3"><a xlink:href="class_tag_setter_widget.html#abe01670c331fe101bc3977e1de15ae5d" target="_top" xlink:title="TagSetterWidget::actualPropagate\lEvent">
<polygon fill="#ffffff" stroke="#000000" points="138,-578 138,-608 305,-608 305,-578 138,-578"/>
<text text-anchor="start" x="146" y="-596" font-family="Helvetica,sans-Serif" font-size="10.00" fill="#000000">TagSetterWidget::actualPropagate</text>
<text text-anchor="middle" x="221.5" y="-585" font-family="Helvetica,sans-Serif" font-size="10.00" fill="#000000">Event</text>
</a>
</g>
</g>
<!-- Node90&#45;&gt;Node92 -->
<g id="edge2" class="edge">
<title>Node90&#45;&gt;Node92</title>
<path fill="none" stroke="#191970" d="M54.9632,-325.375C66.5196,-380.0916 101.6688,-534.0793 138,-569 141.5886,-572.4493 145.6396,-575.4081 149.974,-577.9456"/>
<polygon fill="#191970" stroke="#191970" points="58.3827,-324.6278 52.9179,-315.5511 51.5297,-326.0546 58.3827,-324.6278"/>
</g>
<!-- Node93 -->
<g id="node4" class="node">
<title>Node93</title>
<g id="a_node4"><a xlink:href="class_image_widget.html#a08c72c6888bf10e0941443ea67c72498" target="_top" xlink:title="ImageWidget::actualPropagate\lEvent">
<polygon fill="#ffffff" stroke="#000000" points="146,-529 146,-559 297,-559 297,-529 146,-529"/>
<text text-anchor="start" x="154" y="-547" font-family="Helvetica,sans-Serif" font-size="10.00" fill="#000000">ImageWidget::actualPropagate</text>
<text text-anchor="middle" x="221.5" y="-536" font-family="Helvetica,sans-Serif" font-size="10.00" fill="#000000">Event</text>
</a>
</g>
</g>
<!-- Node90&#45;&gt;Node93 -->
<g id="edge3" class="edge">
<title>Node90&#45;&gt;Node93</title>
<path fill="none" stroke="#191970" d="M53.3677,-325.7502C59.4461,-367.6371 79.474,-465.8851 138,-519 142.2581,-522.8644 147.092,-526.1325 152.2367,-528.896"/>
<polygon fill="#191970" stroke="#191970" points="56.8223,-325.177 52.0287,-315.7286 49.884,-326.1041 56.8223,-325.177"/>
</g>
<!-- Node97 -->
<g id="node8" class="node">
<title>Node97</title>
<g id="a_node8"><a xlink:href="class_window_widget.html#a78dedcff8ae2df9a9f86fc0ba17a1998" target="_top" xlink:title="WindowWidget::actualPropagate\lEvent">
<polygon fill="#ffffff" stroke="#000000" points="142,-365 142,-395 301,-395 301,-365 142,-365"/>
<text text-anchor="start" x="150" y="-383" font-family="Helvetica,sans-Serif" font-size="10.00" fill="#000000">WindowWidget::actualPropagate</text>
<text text-anchor="middle" x="221.5" y="-372" font-family="Helvetica,sans-Serif" font-size="10.00" fill="#000000">Event</text>
</a>
</g>
</g>
<!-- Node90&#45;&gt;Node97 -->
<g id="edge7" class="edge">
<title>Node90&#45;&gt;Node97</title>
<path fill="none" stroke="#191970" d="M73.9315,-321.231C91.0311,-332.0717 115.2624,-346.3666 138,-356 145.7775,-359.2951 154.1479,-362.2971 162.4797,-364.9765"/>
<polygon fill="#191970" stroke="#191970" points="75.5215,-318.0918 65.2202,-315.6154 71.7288,-323.9753 75.5215,-318.0918"/>
</g>
<!-- Node99 -->
<g id="node10" class="node">
<title>Node99</title>
<g id="a_node10"><a xlink:href="class_button_widget.html#aae069846bf4c475a475a47daf4178f3d" target="_top" xlink:title="ButtonWidget::actualPropagate\lEvent">
<polygon fill="#ffffff" stroke="#000000" points="145.5,-316 145.5,-346 297.5,-346 297.5,-316 145.5,-316"/>
<text text-anchor="start" x="153.5" y="-334" font-family="Helvetica,sans-Serif" font-size="10.00" fill="#000000">ButtonWidget::actualPropagate</text>
<text text-anchor="middle" x="221.5" y="-323" font-family="Helvetica,sans-Serif" font-size="10.00" fill="#000000">Event</text>
</a>
</g>
</g>
<!-- Node90&#45;&gt;Node99 -->
<g id="edge9" class="edge">
<title>Node90&#45;&gt;Node99</title>
<path fill="none" stroke="#191970" d="M112.282,-314.9856C123.0474,-316.5641 134.3679,-318.224 145.4768,-319.8529"/>
<polygon fill="#191970" stroke="#191970" points="112.5576,-311.4887 102.1556,-313.5008 111.542,-318.4146 112.5576,-311.4887"/>
</g>
<!-- Node101 -->
<g id="node12" class="node">
<title>Node101</title>
<g id="a_node12"><a xlink:href="class_grid_widget.html#a9c57f1ca2311d3caa936a481fa7fbef0" target="_top" xlink:title="GridWidget::actualPropagate\lEvent">
<polygon fill="#ffffff" stroke="#000000" points="150.5,-267 150.5,-297 292.5,-297 292.5,-267 150.5,-267"/>
<text text-anchor="start" x="158.5" y="-285" font-family="Helvetica,sans-Serif" font-size="10.00" fill="#000000">GridWidget::actualPropagate</text>
<text text-anchor="middle" x="221.5" y="-274" font-family="Helvetica,sans-Serif" font-size="10.00" fill="#000000">Event</text>
</a>
</g>
</g>
<!-- Node90&#45;&gt;Node101 -->
<g id="edge11" class="edge">
<title>Node90&#45;&gt;Node101</title>
<path fill="none" stroke="#191970" d="M112.2892,-297.3728C124.5855,-295.6419 137.6057,-293.8092 150.2075,-292.0353"/>
<polygon fill="#191970" stroke="#191970" points="111.5701,-293.9394 102.1556,-298.7992 112.5459,-300.8711 111.5701,-293.9394"/>
</g>
<!-- Node103 -->
<g id="node14" class="node">
<title>Node103</title>
<g id="a_node14"><a xlink:href="class_tag_viewer_widget.html#a9a10f2a36c24054166245d2e7f5644ff" target="_top" xlink:title="TagViewerWidget::actualResize">
<polygon fill="#ffffff" stroke="#000000" points="143,-190.5 143,-209.5 300,-209.5 300,-190.5 143,-190.5"/>
<text text-anchor="middle" x="221.5" y="-197.5" font-family="Helvetica,sans-Serif" font-size="10.00" fill="#000000">TagViewerWidget::actualResize</text>
</a>
</g>
</g>
<!-- Node90&#45;&gt;Node103 -->
<g id="edge13" class="edge">
<title>Node90&#45;&gt;Node103</title>
<path fill="none" stroke="#191970" d="M63.8106,-288.1503C79.1436,-268.1534 106.7046,-236.2828 138,-219 145.0278,-215.1189 152.806,-212.0298 160.7054,-209.5712"/>
<polygon fill="#191970" stroke="#191970" points="60.8261,-286.2979 57.6567,-296.4075 66.4388,-290.4809 60.8261,-286.2979"/>
</g>
<!-- Node104 -->
<g id="node15" class="node">
<title>Node104</title>
<g id="a_node15"><a xlink:href="class_layout_widget.html#a2e5614796b2a04340ddc69997ce72a7b" target="_top" xlink:title="LayoutWidget::actualResize">
<polygon fill="#ffffff" stroke="#000000" points="151.5,-152.5 151.5,-171.5 291.5,-171.5 291.5,-152.5 151.5,-152.5"/>
<text text-anchor="middle" x="221.5" y="-159.5" font-family="Helvetica,sans-Serif" font-size="10.00" fill="#000000">LayoutWidget::actualResize</text>
</a>
</g>
</g>
<!-- Node90&#45;&gt;Node104 -->
<g id="edge14" class="edge">
<title>Node90&#45;&gt;Node104</title>
<path fill="none" stroke="#191970" d="M58.8319,-286.9386C71.2923,-259.1011 98.3445,-207.7385 138,-181 143.7936,-177.0936 150.2743,-173.9811 156.9946,-171.5028"/>
<polygon fill="#191970" stroke="#191970" points="55.5173,-285.7865 54.7749,-296.3553 61.946,-288.5562 55.5173,-285.7865"/>
</g>
<!-- Node105 -->
<g id="node16" class="node">
<title>Node105</title>
<g id="a_node16"><a xlink:href="class_menu_bar_widget.html#aad48ccf1f2c742665aa24cd8ea45d1b1" target="_top" xlink:title="MenuBarWidget::actualResize">
<polygon fill="#ffffff" stroke="#000000" points="147,-114.5 147,-133.5 296,-133.5 296,-114.5 147,-114.5"/>
<text text-anchor="middle" x="221.5" y="-121.5" font-family="Helvetica,sans-Serif" font-size="10.00" fill="#000000">MenuBarWidget::actualResize</text>
</a>
</g>
</g>
<!-- Node90&#45;&gt;Node105 -->
<g id="edge15" class="edge">
<title>Node90&#45;&gt;Node105</title>
<path fill="none" stroke="#191970" d="M55.6489,-286.6743C64.9983,-252.1575 89.4593,-180.0641 138,-143 143.081,-139.1203 148.8109,-136.0079 154.8284,-133.5145"/>
<polygon fill="#191970" stroke="#191970" points="52.2311,-285.9122 53.133,-296.4686 59.011,-287.6538 52.2311,-285.9122"/>
</g>
<!-- Node106 -->
<g id="node17" class="node">
<title>Node106</title>
<g id="a_node17"><a xlink:href="class_tag_selector.html#a0c23aa2729c7c04773a9897ca1655b18" target="_top" xlink:title="TagSelector::actualResize">
<polygon fill="#ffffff" stroke="#000000" points="155.5,-76.5 155.5,-95.5 287.5,-95.5 287.5,-76.5 155.5,-76.5"/>
<text text-anchor="middle" x="221.5" y="-83.5" font-family="Helvetica,sans-Serif" font-size="10.00" fill="#000000">TagSelector::actualResize</text>
</a>
</g>
</g>
<!-- Node90&#45;&gt;Node106 -->
<g id="edge16" class="edge">
<title>Node90&#45;&gt;Node106</title>
<path fill="none" stroke="#191970" d="M53.5967,-286.2236C60.0167,-245.6357 80.5112,-152.7403 138,-105 143.1469,-100.7259 149.0644,-97.3673 155.3226,-94.7344"/>
<polygon fill="#191970" stroke="#191970" points="50.1212,-285.8028 52.1402,-296.2035 57.0478,-286.8138 50.1212,-285.8028"/>
</g>
<!-- Node107 -->
<g id="node18" class="node">
<title>Node107</title>
<g id="a_node18"><a xlink:href="class_tag_setter_widget.html#af662bb4af5739709f87c8a89735ff1b0" target="_top" xlink:title="TagSetterWidget::actualResize">
<polygon fill="#ffffff" stroke="#000000" points="145,-38.5 145,-57.5 298,-57.5 298,-38.5 145,-38.5"/>
<text text-anchor="middle" x="221.5" y="-45.5" font-family="Helvetica,sans-Serif" font-size="10.00" fill="#000000">TagSetterWidget::actualResize</text>
</a>
</g>
</g>
<!-- Node90&#45;&gt;Node107 -->
<g id="edge17" class="edge">
<title>Node90&#45;&gt;Node107</title>
<path fill="none" stroke="#191970" d="M52.0559,-286.3843C55.626,-240.571 71.1376,-125.9645 138,-67 142.3487,-63.165 147.3103,-60.0575 152.5972,-57.5448"/>
<polygon fill="#191970" stroke="#191970" points="48.5563,-286.2627 51.3816,-296.4739 55.5407,-286.7296 48.5563,-286.2627"/>
</g>
<!-- Node108 -->
<g id="node19" class="node">
<title>Node108</title>
<g id="a_node19"><a xlink:href="class_image_widget.html#a3b5f1a6cf3f2fcde08f50f0b91eaff70" target="_top" xlink:title="ImageWidget::actualResize">
<polygon fill="#ffffff" stroke="#000000" points="153,-490.5 153,-509.5 290,-509.5 290,-490.5 153,-490.5"/>
<text text-anchor="middle" x="221.5" y="-497.5" font-family="Helvetica,sans-Serif" font-size="10.00" fill="#000000">ImageWidget::actualResize</text>
</a>
</g>
</g>
<!-- Node90&#45;&gt;Node108 -->
<g id="edge18" class="edge">
<title>Node90&#45;&gt;Node108</title>
<path fill="none" stroke="#191970" d="M54.9774,-325.7199C63.4325,-362.321 86.7674,-440.6946 138,-481 142.9075,-484.8608 148.4523,-487.9662 154.2931,-490.4601"/>
<polygon fill="#191970" stroke="#191970" points="58.363,-324.8176 52.8167,-315.7905 51.5231,-326.306 58.363,-324.8176"/>
</g>
<!-- Node109 -->
<g id="node20" class="node">
<title>Node109</title>
<g id="a_node20"><a xlink:href="class_window_widget.html#a89a68a5d4dc9fd5da10ac75c1121a453" target="_top" xlink:title="WindowWidget::actualResize">
<polygon fill="#ffffff" stroke="#000000" points="148.5,-452.5 148.5,-471.5 294.5,-471.5 294.5,-452.5 148.5,-452.5"/>
<text text-anchor="middle" x="221.5" y="-459.5" font-family="Helvetica,sans-Serif" font-size="10.00" fill="#000000">WindowWidget::actualResize</text>
</a>
</g>
</g>
<!-- Node90&#45;&gt;Node109 -->
<g id="edge20" class="edge">
<title>Node90&#45;&gt;Node109</title>
<path fill="none" stroke="#191970" d="M57.8217,-325.5846C69.3795,-355.7485 95.7599,-413.2018 138,-443 143.4668,-446.8565 149.5917,-449.9443 155.9745,-452.4145"/>
<polygon fill="#191970" stroke="#191970" points="60.9644,-323.9891 54.2323,-315.808 54.3933,-326.4016 60.9644,-323.9891"/>
</g>
<!-- Node111 -->
<g id="node22" class="node">
<title>Node111</title>
<g id="a_node22"><a xlink:href="class_button_widget.html#a66e8bfd9bc9a56b3a7cb2a8efc38347e" target="_top" xlink:title="ButtonWidget::actualResize">
<polygon fill="#ffffff" stroke="#000000" points="152,-.5 152,-19.5 291,-19.5 291,-.5 152,-.5"/>
<text text-anchor="middle" x="221.5" y="-7.5" font-family="Helvetica,sans-Serif" font-size="10.00" fill="#000000">ButtonWidget::actualResize</text>
</a>
</g>
</g>
<!-- Node90&#45;&gt;Node111 -->
<g id="edge23" class="edge">
<title>Node90&#45;&gt;Node111</title>
<path fill="none" stroke="#191970" d="M54.5058,-286.6239C65.1761,-229.7552 98.9242,-65.0471 138,-29 142.1525,-25.1694 146.912,-22.0573 152.0069,-19.5349"/>
<polygon fill="#191970" stroke="#191970" points="51.0581,-286.0204 52.6847,-296.4897 57.9418,-287.2911 51.0581,-286.0204"/>
</g>
<!-- Node113 -->
<g id="node24" class="node">
<title>Node113</title>
<g id="a_node24"><a xlink:href="class_grid_widget.html#a640c641444f6a5dae5a66af01d036777" target="_top" xlink:title="GridWidget::actualResize">
<polygon fill="#ffffff" stroke="#000000" points="157.5,-228.5 157.5,-247.5 285.5,-247.5 285.5,-228.5 157.5,-228.5"/>
<text text-anchor="middle" x="221.5" y="-235.5" font-family="Helvetica,sans-Serif" font-size="10.00" fill="#000000">GridWidget::actualResize</text>
</a>
</g>
</g>
<!-- Node90&#45;&gt;Node113 -->
<g id="edge25" class="edge">
<title>Node90&#45;&gt;Node113</title>
<path fill="none" stroke="#191970" d="M74.1993,-290.9424C91.2627,-280.4379 115.3346,-266.7814 138,-258 148.7028,-253.8533 160.5214,-250.3918 171.8163,-247.5783"/>
<polygon fill="#191970" stroke="#191970" points="72.1055,-288.1242 65.4941,-296.4031 75.8253,-294.0541 72.1055,-288.1242"/>
</g>
<!-- Node114 -->
<g id="node25" class="node">
<title>Node114</title>
<g id="a_node25"><a xlink:href="class_window_widget.html#a4d1f999183262930b2472bcd212644aa" target="_top" xlink:title="WindowWidget::setContent">
<polygon fill="#ffffff" stroke="#000000" points="153,-414.5 153,-433.5 290,-433.5 290,-414.5 153,-414.5"/>
<text text-anchor="middle" x="221.5" y="-421.5" font-family="Helvetica,sans-Serif" font-size="10.00" fill="#000000">WindowWidget::setContent</text>
</a>
</g>
</g>
<!-- Node90&#45;&gt;Node114 -->
<g id="edge28" class="edge">
<title>Node90&#45;&gt;Node114</title>
<path fill="none" stroke="#191970" d="M61.9351,-324.3337C76.4115,-346.9378 104.1057,-384.8308 138,-405 144.5158,-408.8773 151.7495,-411.9639 159.1563,-414.4208"/>
<polygon fill="#191970" stroke="#191970" points="64.8094,-322.3276 56.5607,-315.6785 58.8626,-326.0203 64.8094,-322.3276"/>
</g>
<!-- Node94 -->
<g id="node5" class="node">
<title>Node94</title>
<g id="a_node5"><a xlink:href="class_image_widget.html#a5973a50de2ac39437934a09313af6af9" target="_top" xlink:title="ImageWidget::setSelectable">
<polygon fill="#ffffff" stroke="#000000" points="341,-516.5 341,-535.5 481,-535.5 481,-516.5 341,-516.5"/>
<text text-anchor="middle" x="411" y="-523.5" font-family="Helvetica,sans-Serif" font-size="10.00" fill="#000000">ImageWidget::setSelectable</text>
</a>
</g>
</g>
<!-- Node93&#45;&gt;Node94 -->
<g id="edge4" class="edge">
<title>Node93&#45;&gt;Node94</title>
<path fill="none" stroke="#191970" d="M307.4436,-535.8365C318.6549,-534.7716 330.032,-533.6909 340.9399,-532.6548"/>
<polygon fill="#191970" stroke="#191970" points="306.8366,-532.3783 297.2124,-536.8083 307.4986,-539.3469 306.8366,-532.3783"/>
</g>
<!-- Node95 -->
<g id="node6" class="node">
<title>Node95</title>
<g id="a_node6"><a xlink:href="class_application.html#a8f9f948d5439efe526f3219d85b29d7f" target="_top" xlink:title="Application::savePossibleTags">
<polygon fill="#ffffff" stroke="#000000" points="517,-478.5 517,-497.5 668,-497.5 668,-478.5 517,-478.5"/>
<text text-anchor="middle" x="592.5" y="-485.5" font-family="Helvetica,sans-Serif" font-size="10.00" fill="#000000">Application::savePossibleTags</text>
</a>
</g>
</g>
<!-- Node94&#45;&gt;Node95 -->
<g id="edge5" class="edge">
<title>Node94&#45;&gt;Node95</title>
<path fill="none" stroke="#191970" d="M466.7921,-514.319C492.5312,-508.9301 522.6992,-502.6139 547.0292,-497.5201"/>
<polygon fill="#191970" stroke="#191970" points="465.8706,-510.936 456.8001,-516.411 467.3052,-517.7874 465.8706,-510.936"/>
</g>
<!-- Node96 -->
<g id="node7" class="node">
<title>Node96</title>
<g id="a_node7"><a xlink:href="class_application.html#a748bca84fefb9c12661cfaa2f623748d" target="_top" xlink:title="Application::~Application">
<polygon fill="#ffffff" stroke="#000000" points="704,-478.5 704,-497.5 829,-497.5 829,-478.5 704,-478.5"/>
<text text-anchor="middle" x="766.5" y="-485.5" font-family="Helvetica,sans-Serif" font-size="10.00" fill="#000000">Application::~Application</text>
</a>
</g>
</g>
<!-- Node95&#45;&gt;Node96 -->
<g id="edge6" class="edge">
<title>Node95&#45;&gt;Node96</title>
<path fill="none" stroke="#191970" d="M678.1685,-488C686.8039,-488 695.4568,-488 703.7867,-488"/>
<polygon fill="#191970" stroke="#191970" points="678.0598,-484.5001 668.0598,-488 678.0598,-491.5001 678.0598,-484.5001"/>
</g>
<!-- Node98 -->
<g id="node9" class="node">
<title>Node98</title>
<g id="a_node9"><a xlink:href="class_window_widget.html#ab7ed87b677d814d58e7f5aebefa7df70" target="_top" xlink:title="WindowWidget::actualSize">
<polygon fill="#ffffff" stroke="#000000" points="344,-364.5 344,-383.5 478,-383.5 478,-364.5 344,-364.5"/>
<text text-anchor="middle" x="411" y="-371.5" font-family="Helvetica,sans-Serif" font-size="10.00" fill="#000000">WindowWidget::actualSize</text>
</a>
</g>
</g>
<!-- Node97&#45;&gt;Node98 -->
<g id="edge8" class="edge">
<title>Node97&#45;&gt;Node98</title>
<path fill="none" stroke="#191970" d="M311.1437,-377.1617C322.1913,-376.8119 333.3316,-376.4592 343.9618,-376.1226"/>
<polygon fill="#191970" stroke="#191970" points="310.9256,-373.6667 301.0414,-377.4815 311.1472,-380.6632 310.9256,-373.6667"/>
</g>
<!-- Node100 -->
<g id="node11" class="node">
<title>Node100</title>
<g id="a_node11"><a xlink:href="class_button_widget.html#a050618b949448e783b589ddd4ccfedf0" target="_top" xlink:title="ButtonWidget::actualSize">
<polygon fill="#ffffff" stroke="#000000" points="347,-321.5 347,-340.5 475,-340.5 475,-321.5 347,-321.5"/>
<text text-anchor="middle" x="411" y="-328.5" font-family="Helvetica,sans-Serif" font-size="10.00" fill="#000000">ButtonWidget::actualSize</text>
</a>
</g>
</g>
<!-- Node99&#45;&gt;Node100 -->
<g id="edge10" class="edge">
<title>Node99&#45;&gt;Node100</title>
<path fill="none" stroke="#191970" d="M308.1226,-331C321.1252,-331 334.3335,-331 346.7582,-331"/>
<polygon fill="#191970" stroke="#191970" points="307.7578,-327.5001 297.7578,-331 307.7577,-334.5001 307.7578,-327.5001"/>
</g>
<!-- Node102 -->
<g id="node13" class="node">
<title>Node102</title>
<g id="a_node13"><a xlink:href="class_grid_widget.html#abfc54e477706b66bd09f6f3c459fcfa4" target="_top" xlink:title="GridWidget::GridWidget">
<polygon fill="#ffffff" stroke="#000000" points="351,-250.5 351,-269.5 471,-269.5 471,-250.5 351,-250.5"/>
<text text-anchor="middle" x="411" y="-257.5" font-family="Helvetica,sans-Serif" font-size="10.00" fill="#000000">GridWidget::GridWidget</text>
</a>
</g>
</g>
<!-- Node101&#45;&gt;Node102 -->
<g id="edge12" class="edge">
<title>Node101&#45;&gt;Node102</title>
<path fill="none" stroke="#191970" d="M302.6172,-272.5827C318.8434,-270.6989 335.6145,-268.7519 350.9729,-266.9688"/>
<polygon fill="#191970" stroke="#191970" points="302.1316,-269.1155 292.602,-273.7454 302.9389,-276.0688 302.1316,-269.1155"/>
</g>
<!-- Node108&#45;&gt;Node94 -->
<g id="edge19" class="edge">
<title>Node108&#45;&gt;Node94</title>
<path fill="none" stroke="#191970" d="M300.1051,-510.7849C313.8706,-512.6735 328.1046,-514.6265 341.5982,-516.4779"/>
<polygon fill="#191970" stroke="#191970" points="300.5647,-507.3152 290.1818,-509.4234 299.6132,-514.2503 300.5647,-507.3152"/>
</g>
<!-- Node110 -->
<g id="node21" class="node">
<title>Node110</title>
<g id="a_node21"><a xlink:href="class_window_widget.html#abdbf63bb8a663c46bfdd2c117aa55e4d" target="_top" xlink:title="WindowWidget::close">
<polygon fill="#ffffff" stroke="#000000" points="355,-478.5 355,-497.5 467,-497.5 467,-478.5 355,-478.5"/>
<text text-anchor="middle" x="411" y="-485.5" font-family="Helvetica,sans-Serif" font-size="10.00" fill="#000000">WindowWidget::close</text>
</a>
</g>
</g>
<!-- Node109&#45;&gt;Node110 -->
<g id="edge21" class="edge">
<title>Node109&#45;&gt;Node110</title>
<path fill="none" stroke="#191970" d="M300.9538,-472.9013C319.0678,-475.3866 337.9479,-477.977 354.8509,-480.2962"/>
<polygon fill="#191970" stroke="#191970" points="301.3697,-469.4257 290.9868,-471.5338 300.4182,-476.3607 301.3697,-469.4257"/>
</g>
<!-- Node110&#45;&gt;Node95 -->
<g id="edge22" class="edge">
<title>Node110&#45;&gt;Node95</title>
<path fill="none" stroke="#191970" d="M477.5013,-488C490.2671,-488 503.7238,-488 516.7558,-488"/>
<polygon fill="#191970" stroke="#191970" points="477.4329,-484.5001 467.4328,-488 477.4328,-491.5001 477.4329,-484.5001"/>
</g>
<!-- Node112 -->
<g id="node23" class="node">
<title>Node112</title>
<g id="a_node23"><a xlink:href="class_button_widget.html#a5239cdc7bf6ea60722aa0620611be239" target="_top" xlink:title="ButtonWidget::isColored">
<polygon fill="#ffffff" stroke="#000000" points="349.5,-.5 349.5,-19.5 472.5,-19.5 472.5,-.5 349.5,-.5"/>
<text text-anchor="middle" x="411" y="-7.5" font-family="Helvetica,sans-Serif" font-size="10.00" fill="#000000">ButtonWidget::isColored</text>
</a>
</g>
</g>
<!-- Node111&#45;&gt;Node112 -->
<g id="edge24" class="edge">
<title>Node111&#45;&gt;Node112</title>
<path fill="none" stroke="#191970" d="M301.6158,-10C317.5348,-10 334.0185,-10 349.2108,-10"/>
<polygon fill="#191970" stroke="#191970" points="301.2555,-6.5001 291.2555,-10 301.2555,-13.5001 301.2555,-6.5001"/>
</g>
<!-- Node113&#45;&gt;Node102 -->
<g id="edge26" class="edge">
<title>Node113&#45;&gt;Node102</title>
<path fill="none" stroke="#191970" d="M295.6679,-246.6105C313.9205,-248.7296 333.2439,-250.9729 350.7481,-253.0051"/>
<polygon fill="#191970" stroke="#191970" points="295.993,-243.1248 285.6561,-245.4482 295.1857,-250.0781 295.993,-243.1248"/>
</g>
<!-- Node114&#45;&gt;Node95 -->
<g id="edge29" class="edge">
<title>Node114&#45;&gt;Node95</title>
<path fill="none" stroke="#191970" d="M286.827,-435.2693C357.9657,-447.5413 470.5026,-466.9546 537.3585,-478.4877"/>
<polygon fill="#191970" stroke="#191970" points="287.0913,-431.7633 276.6418,-433.5123 285.9013,-438.6614 287.0913,-431.7633"/>
</g>
<!-- Node115 -->
<g id="node26" class="node">
<title>Node115</title>
<g id="a_node26"><a xlink:href="class_window_widget.html#aaeb6c16306f82469d443182594a8ef8e" target="_top" xlink:title="WindowWidget::display">
<polygon fill="#ffffff" stroke="#000000" points="351.5,-402.5 351.5,-421.5 470.5,-421.5 470.5,-402.5 351.5,-402.5"/>
<text text-anchor="middle" x="411" y="-409.5" font-family="Helvetica,sans-Serif" font-size="10.00" fill="#000000">WindowWidget::display</text>
</a>
</g>
</g>
<!-- Node114&#45;&gt;Node115 -->
<g id="edge30" class="edge">
<title>Node114&#45;&gt;Node115</title>
<path fill="none" stroke="#191970" d="M300.6332,-418.9889C317.5936,-417.9149 335.2405,-416.7974 351.3189,-415.7793"/>
<polygon fill="#191970" stroke="#191970" points="299.9406,-415.5257 290.1818,-419.6508 300.383,-422.5117 299.9406,-415.5257"/>
</g>
<!-- Node116 -->
<g id="node27" class="node">
<title>Node116</title>
<g id="a_node27"><a xlink:href="class_application.html#a81d5b51e54511185c84ee300e752a85f" target="_top" xlink:title="Application::execute">
<polygon fill="#ffffff" stroke="#000000" points="540,-402.5 540,-421.5 645,-421.5 645,-402.5 540,-402.5"/>
<text text-anchor="middle" x="592.5" y="-409.5" font-family="Helvetica,sans-Serif" font-size="10.00" fill="#000000">Application::execute</text>
</a>
</g>
</g>
<!-- Node115&#45;&gt;Node116 -->
<g id="edge31" class="edge">
<title>Node115&#45;&gt;Node116</title>
<path fill="none" stroke="#191970" d="M480.787,-412C500.3927,-412 521.3792,-412 539.8084,-412"/>
<polygon fill="#191970" stroke="#191970" points="480.6813,-408.5001 470.6813,-412 480.6812,-415.5001 480.6813,-408.5001"/>
</g>
<!-- Node117 -->
<g id="node28" class="node">
<title>Node117</title>
<g id="a_node28"><a xlink:href="main_8cpp.html#adc4096c0dfd003425c219daa30db4e1e" target="_top" xlink:title="main">
<polygon fill="#ffffff" stroke="#000000" points="747.5,-402.5 747.5,-421.5 785.5,-421.5 785.5,-402.5 747.5,-402.5"/>
<text text-anchor="middle" x="766.5" y="-409.5" font-family="Helvetica,sans-Serif" font-size="10.00" fill="#000000">main</text>
</a>
</g>
</g>
<!-- Node116&#45;&gt;Node117 -->
<g id="edge32" class="edge">
<title>Node116&#45;&gt;Node117</title>
<path fill="none" stroke="#191970" d="M655.5385,-412C688.0518,-412 725.4076,-412 747.4242,-412"/>
<polygon fill="#191970" stroke="#191970" points="655.178,-408.5001 645.1779,-412 655.1779,-415.5001 655.178,-408.5001"/>
</g>
</g>
</svg>
