<?xml version="1.0" encoding="UTF-8" standalone="no"?>
<!DOCTYPE svg PUBLIC "-//W3C//DTD SVG 1.1//EN"
 "http://www.w3.org/Graphics/SVG/1.1/DTD/svg11.dtd">
<!-- Generated by graphviz version 2.40.1 (20161225.0304)
 -->
<!-- Title: CollectionPool::push_back Pages: 1 -->
<svg width="633pt" height="66pt"
 viewBox="0.00 0.00 633.00 66.00" xmlns="http://www.w3.org/2000/svg" xmlns:xlink="http://www.w3.org/1999/xlink">
<g id="graph0" class="graph" transform="scale(1 1) rotate(0) translate(4 62)">
<title>CollectionPool::push_back</title>
<polygon fill="#ffffff" stroke="transparent" points="-4,4 -4,-62 629,-62 629,4 -4,4"/>
<!-- Node46 -->
<g id="node1" class="node">
<title>Node46</title>
<polygon fill="#bfbfbf" stroke="#000000" points="0,-19.5 0,-38.5 133,-38.5 133,-19.5 0,-19.5"/>
<text text-anchor="middle" x="66.5" y="-26.5" font-family="Helvetica,sans-Serif" font-size="10.00" fill="#000000">CollectionPool::push_back</text>
</g>
<!-- Node47 -->
<g id="node2" class="node">
<title>Node47</title>
<g id="a_node2"><a xlink:href="_utilities_8cpp.html#a6d03d2391c95cb176a80f11be628e6a9" target="_top" xlink:title="createPoolFromSave">
<polygon fill="#ffffff" stroke="#000000" points="169,-38.5 169,-57.5 277,-57.5 277,-38.5 169,-38.5"/>
<text text-anchor="middle" x="223" y="-45.5" font-family="Helvetica,sans-Serif" font-size="10.00" fill="#000000">createPoolFromSave</text>
</a>
</g>
</g>
<!-- Node46&#45;&gt;Node47 -->
<g id="edge1" class="edge">
<title>Node46&#45;&gt;Node47</title>
<path fill="none" stroke="#191970" d="M143.3374,-38.3285C151.897,-39.3677 160.4791,-40.4096 168.674,-41.4045"/>
<polygon fill="#191970" stroke="#191970" points="143.673,-34.8436 133.324,-37.1128 142.8293,-41.7926 143.673,-34.8436"/>
</g>
<!-- Node51 -->
<g id="node6" class="node">
<title>Node51</title>
<g id="a_node6"><a xlink:href="_utilities_8cpp.html#a5ce6411f7ab365cdf958f8f16e773d05" target="_top" xlink:title="importFromDirectory">
<polygon fill="#ffffff" stroke="#000000" points="170,-.5 170,-19.5 276,-19.5 276,-.5 170,-.5"/>
<text text-anchor="middle" x="223" y="-7.5" font-family="Helvetica,sans-Serif" font-size="10.00" fill="#000000">importFromDirectory</text>
</a>
</g>
</g>
<!-- Node46&#45;&gt;Node51 -->
<g id="edge5" class="edge">
<title>Node46&#45;&gt;Node51</title>
<path fill="none" stroke="#191970" d="M143.3334,-19.672C152.2298,-18.5919 161.1506,-17.5089 169.6357,-16.4787"/>
<polygon fill="#191970" stroke="#191970" points="142.8293,-16.2074 133.324,-20.8872 143.673,-23.1564 142.8293,-16.2074"/>
</g>
<!-- Node48 -->
<g id="node3" class="node">
<title>Node48</title>
<g id="a_node3"><a xlink:href="_utilities_8cpp.html#a46270f4fab8fe8d4f01b9c7cb8fdb75c" target="_top" xlink:title="createPoolFromDirectory">
<polygon fill="#ffffff" stroke="#000000" points="326,-38.5 326,-57.5 451,-57.5 451,-38.5 326,-38.5"/>
<text text-anchor="middle" x="388.5" y="-45.5" font-family="Helvetica,sans-Serif" font-size="10.00" fill="#000000">createPoolFromDirectory</text>
</a>
</g>
</g>
<!-- Node47&#45;&gt;Node48 -->
<g id="edge2" class="edge">
<title>Node47&#45;&gt;Node48</title>
<path fill="none" stroke="#191970" d="M287.2145,-48C299.9075,-48 313.2139,-48 325.8541,-48"/>
<polygon fill="#191970" stroke="#191970" points="287.1909,-44.5001 277.1909,-48 287.1909,-51.5001 287.1909,-44.5001"/>
</g>
<!-- Node49 -->
<g id="node4" class="node">
<title>Node49</title>
<g id="a_node4"><a xlink:href="class_application.html#a8f9f948d5439efe526f3219d85b29d7f" target="_top" xlink:title="Enregistre la liste des tags accéssibles à l&#39;utilisateur. ">
<polygon fill="#ffffff" stroke="#000000" points="313,-.5 313,-19.5 464,-19.5 464,-.5 313,-.5"/>
<text text-anchor="middle" x="388.5" y="-7.5" font-family="Helvetica,sans-Serif" font-size="10.00" fill="#000000">Application::savePossibleTags</text>
</a>
</g>
</g>
<!-- Node47&#45;&gt;Node49 -->
<g id="edge3" class="edge">
<title>Node47&#45;&gt;Node49</title>
<path fill="none" stroke="#191970" d="M274.8105,-36.1039C298.0733,-30.7626 325.1469,-24.5463 347.0377,-19.5201"/>
<polygon fill="#191970" stroke="#191970" points="273.7258,-32.7618 264.7626,-38.411 275.2923,-39.5843 273.7258,-32.7618"/>
</g>
<!-- Node50 -->
<g id="node5" class="node">
<title>Node50</title>
<g id="a_node5"><a xlink:href="class_application.html#a748bca84fefb9c12661cfaa2f623748d" target="_top" xlink:title="Effectue une sauvegarde de la collection et enregistre les tags. ">
<polygon fill="#ffffff" stroke="#000000" points="500,-.5 500,-19.5 625,-19.5 625,-.5 500,-.5"/>
<text text-anchor="middle" x="562.5" y="-7.5" font-family="Helvetica,sans-Serif" font-size="10.00" fill="#000000">Application::~Application</text>
</a>
</g>
</g>
<!-- Node49&#45;&gt;Node50 -->
<g id="edge4" class="edge">
<title>Node49&#45;&gt;Node50</title>
<path fill="none" stroke="#191970" d="M474.1685,-10C482.8039,-10 491.4568,-10 499.7867,-10"/>
<polygon fill="#191970" stroke="#191970" points="474.0598,-6.5001 464.0598,-10 474.0598,-13.5001 474.0598,-6.5001"/>
</g>
<!-- Node51&#45;&gt;Node49 -->
<g id="edge6" class="edge">
<title>Node51&#45;&gt;Node49</title>
<path fill="none" stroke="#191970" d="M286.5525,-10C295.117,-10 303.9719,-10 312.722,-10"/>
<polygon fill="#191970" stroke="#191970" points="286.2763,-6.5001 276.2762,-10 286.2762,-13.5001 286.2763,-6.5001"/>
</g>
</g>
</svg>
