<?xml version="1.0" encoding="UTF-8" standalone="no"?>
<!DOCTYPE svg PUBLIC "-//W3C//DTD SVG 1.1//EN"
 "http://www.w3.org/Graphics/SVG/1.1/DTD/svg11.dtd">
<!-- Generated by graphviz version 2.40.1 (20161225.0304)
 -->
<!-- Title: FilteredCollection::cbegin Pages: 1 -->
<svg width="228pt" height="39pt"
 viewBox="0.00 0.00 228.00 39.00" xmlns="http://www.w3.org/2000/svg" xmlns:xlink="http://www.w3.org/1999/xlink">
<g id="graph0" class="graph" transform="scale(1 1) rotate(0) translate(4 35)">
<title>FilteredCollection::cbegin</title>
<polygon fill="#ffffff" stroke="transparent" points="-4,4 -4,-35 224,-35 224,4 -4,4"/>
<!-- Node15 -->
<g id="node1" class="node">
<title>Node15</title>
<polygon fill="#bfbfbf" stroke="#000000" points="0,-.5 0,-30.5 92,-30.5 92,-.5 0,-.5"/>
<text text-anchor="start" x="8" y="-18.5" font-family="Helvetica,sans-Serif" font-size="10.00" fill="#000000">FilteredCollection</text>
<text text-anchor="middle" x="46" y="-7.5" font-family="Helvetica,sans-Serif" font-size="10.00" fill="#000000">::cbegin</text>
</g>
<!-- Node16 -->
<g id="node2" class="node">
<title>Node16</title>
<g id="a_node2"><a xlink:href="class_filtered_collection.html#a7ff366d577365b84c947da90a605d66a" target="_top" xlink:title="FilteredCollection\l::begin">
<polygon fill="#ffffff" stroke="#000000" points="128,-.5 128,-30.5 220,-30.5 220,-.5 128,-.5"/>
<text text-anchor="start" x="136" y="-18.5" font-family="Helvetica,sans-Serif" font-size="10.00" fill="#000000">FilteredCollection</text>
<text text-anchor="middle" x="174" y="-7.5" font-family="Helvetica,sans-Serif" font-size="10.00" fill="#000000">::begin</text>
</a>
</g>
</g>
<!-- Node15&#45;&gt;Node16 -->
<g id="edge1" class="edge">
<title>Node15&#45;&gt;Node16</title>
<path fill="none" stroke="#191970" d="M102.4423,-15.5C110.937,-15.5 119.6118,-15.5 127.8569,-15.5"/>
<polygon fill="#191970" stroke="#191970" points="102.211,-12.0001 92.2109,-15.5 102.2109,-19.0001 102.211,-12.0001"/>
</g>
</g>
</svg>
