<?xml version="1.0" encoding="UTF-8" standalone="no"?>
<!DOCTYPE svg PUBLIC "-//W3C//DTD SVG 1.1//EN"
 "http://www.w3.org/Graphics/SVG/1.1/DTD/svg11.dtd">
<!-- Generated by graphviz version 2.40.1 (20161225.0304)
 -->
<!-- Title: TagViewerWidget::actualRender Pages: 1 -->
<svg width="447pt" height="104pt"
 viewBox="0.00 0.00 447.00 104.00" xmlns="http://www.w3.org/2000/svg" xmlns:xlink="http://www.w3.org/1999/xlink">
<g id="graph0" class="graph" transform="scale(1 1) rotate(0) translate(4 100)">
<title>TagViewerWidget::actualRender</title>
<polygon fill="#ffffff" stroke="transparent" points="-4,4 -4,-100 443,-100 443,4 -4,4"/>
<!-- Node4 -->
<g id="node1" class="node">
<title>Node4</title>
<polygon fill="#bfbfbf" stroke="#000000" points="0,-38.5 0,-57.5 158,-57.5 158,-38.5 0,-38.5"/>
<text text-anchor="middle" x="79" y="-45.5" font-family="Helvetica,sans-Serif" font-size="10.00" fill="#000000">TagViewerWidget::actualRender</text>
</g>
<!-- Node5 -->
<g id="node2" class="node">
<title>Node5</title>
<g id="a_node2"><a xlink:href="class_image.html#ab9615cd8d9ea8a1bcc844c3d1d8c0e47" target="_top" xlink:title="Image::getTagList">
<polygon fill="#ffffff" stroke="#000000" points="195.5,-76.5 195.5,-95.5 290.5,-95.5 290.5,-76.5 195.5,-76.5"/>
<text text-anchor="middle" x="243" y="-83.5" font-family="Helvetica,sans-Serif" font-size="10.00" fill="#000000">Image::getTagList</text>
</a>
</g>
</g>
<!-- Node4&#45;&gt;Node5 -->
<g id="edge1" class="edge">
<title>Node4&#45;&gt;Node5</title>
<path fill="none" stroke="#191970" d="M120.3841,-57.589C142.1232,-62.6261 168.9575,-68.8438 191.9747,-74.1771"/>
<polygon fill="#191970" stroke="#191970" points="191.3815,-77.6323 201.9135,-76.4799 192.9616,-70.8129 191.3815,-77.6323"/>
</g>
<!-- Node6 -->
<g id="node3" class="node">
<title>Node6</title>
<g id="a_node3"><a xlink:href="class_widget.html#a2516fd56cac645cb3aacef37937c49d3" target="_top" xlink:title="Widget::render">
<polygon fill="#ffffff" stroke="#000000" points="203,-38.5 203,-57.5 283,-57.5 283,-38.5 203,-38.5"/>
<text text-anchor="middle" x="243" y="-45.5" font-family="Helvetica,sans-Serif" font-size="10.00" fill="#000000">Widget::render</text>
</a>
</g>
</g>
<!-- Node4&#45;&gt;Node6 -->
<g id="edge2" class="edge">
<title>Node4&#45;&gt;Node6</title>
<path fill="none" stroke="#191970" d="M158.1177,-48C169.9115,-48 181.7848,-48 192.7603,-48"/>
<polygon fill="#191970" stroke="#191970" points="192.9762,-51.5001 202.9762,-48 192.9761,-44.5001 192.9762,-51.5001"/>
</g>
<!-- Node8 -->
<g id="node5" class="node">
<title>Node8</title>
<g id="a_node5"><a xlink:href="_utilities_8cpp.html#a59a3b645b654e776f33e3f4dccbd5fb1" target="_top" xlink:title="Convertit de l&#39;UTF&#45;8 vers l&#39;ISO&#45;8859&#45;1. ">
<polygon fill="#ffffff" stroke="#000000" points="194,-.5 194,-19.5 292,-19.5 292,-.5 194,-.5"/>
<text text-anchor="middle" x="243" y="-7.5" font-family="Helvetica,sans-Serif" font-size="10.00" fill="#000000">UTF8toISO8859_1</text>
</a>
</g>
</g>
<!-- Node4&#45;&gt;Node8 -->
<g id="edge4" class="edge">
<title>Node4&#45;&gt;Node8</title>
<path fill="none" stroke="#191970" d="M120.3841,-38.411C142.1232,-33.3739 168.9575,-27.1562 191.9747,-21.8229"/>
<polygon fill="#191970" stroke="#191970" points="192.9616,-25.1871 201.9135,-19.5201 191.3815,-18.3677 192.9616,-25.1871"/>
</g>
<!-- Node7 -->
<g id="node4" class="node">
<title>Node7</title>
<g id="a_node4"><a xlink:href="class_widget.html#a5ff4883144670b8c93b41e440e3d4446" target="_top" xlink:title="Widget::actualRender">
<polygon fill="#ffffff" stroke="#000000" points="328,-38.5 328,-57.5 439,-57.5 439,-38.5 328,-38.5"/>
<text text-anchor="middle" x="383.5" y="-45.5" font-family="Helvetica,sans-Serif" font-size="10.00" fill="#000000">Widget::actualRender</text>
</a>
</g>
</g>
<!-- Node6&#45;&gt;Node7 -->
<g id="edge3" class="edge">
<title>Node6&#45;&gt;Node7</title>
<path fill="none" stroke="#191970" d="M283.2617,-48C293.9863,-48 305.8589,-48 317.5707,-48"/>
<polygon fill="#191970" stroke="#191970" points="317.7886,-51.5001 327.7886,-48 317.7886,-44.5001 317.7886,-51.5001"/>
</g>
</g>
</svg>
