<?xml version="1.0" encoding="UTF-8" standalone="no"?>
<!DOCTYPE svg PUBLIC "-//W3C//DTD SVG 1.1//EN"
 "http://www.w3.org/Graphics/SVG/1.1/DTD/svg11.dtd">
<!-- Generated by graphviz version 2.40.1 (20161225.0304)
 -->
<!-- Title: TagSetterWidget::actualPropagateEvent Pages: 1 -->
<svg width="313pt" height="122pt"
 viewBox="0.00 0.00 313.00 122.00" xmlns="http://www.w3.org/2000/svg" xmlns:xlink="http://www.w3.org/1999/xlink">
<g id="graph0" class="graph" transform="scale(1 1) rotate(0) translate(4 118)">
<title>TagSetterWidget::actualPropagateEvent</title>
<polygon fill="#ffffff" stroke="transparent" points="-4,4 -4,-118 309,-118 309,4 -4,4"/>
<!-- Node2 -->
<g id="node1" class="node">
<title>Node2</title>
<polygon fill="#bfbfbf" stroke="#000000" points="0,-33 0,-63 167,-63 167,-33 0,-33"/>
<text text-anchor="start" x="8" y="-51" font-family="Helvetica,sans-Serif" font-size="10.00" fill="#000000">TagSetterWidget::actualPropagate</text>
<text text-anchor="middle" x="83.5" y="-40" font-family="Helvetica,sans-Serif" font-size="10.00" fill="#000000">Event</text>
</g>
<!-- Node3 -->
<g id="node2" class="node">
<title>Node3</title>
<g id="a_node2"><a xlink:href="class_collection.html#a4abc73f8e31a499a22b25d42b7a4fe8c" target="_top" xlink:title="Collection::begin">
<polygon fill="#ffffff" stroke="#000000" points="209.5,-94.5 209.5,-113.5 298.5,-113.5 298.5,-94.5 209.5,-94.5"/>
<text text-anchor="middle" x="254" y="-101.5" font-family="Helvetica,sans-Serif" font-size="10.00" fill="#000000">Collection::begin</text>
</a>
</g>
</g>
<!-- Node2&#45;&gt;Node3 -->
<g id="edge1" class="edge">
<title>Node2&#45;&gt;Node3</title>
<path fill="none" stroke="#191970" d="M129.1909,-63.007C156.099,-71.8448 189.7635,-82.9018 215.3465,-91.3044"/>
<polygon fill="#191970" stroke="#191970" points="214.4796,-94.7036 225.0725,-94.4989 216.664,-88.0531 214.4796,-94.7036"/>
</g>
<!-- Node4 -->
<g id="node3" class="node">
<title>Node4</title>
<g id="a_node3"><a xlink:href="class_widget.html#a210d4c8e3ea02cb777c6e3ad7fdc22b3" target="_top" xlink:title="Widget::callRedraw">
<polygon fill="#ffffff" stroke="#000000" points="203,-38.5 203,-57.5 305,-57.5 305,-38.5 203,-38.5"/>
<text text-anchor="middle" x="254" y="-45.5" font-family="Helvetica,sans-Serif" font-size="10.00" fill="#000000">Widget::callRedraw</text>
</a>
</g>
</g>
<!-- Node2&#45;&gt;Node4 -->
<g id="edge2" class="edge">
<title>Node2&#45;&gt;Node4</title>
<path fill="none" stroke="#191970" d="M167.2515,-48C175.7784,-48 184.3253,-48 192.5508,-48"/>
<polygon fill="#191970" stroke="#191970" points="192.7722,-51.5001 202.7722,-48 192.7721,-44.5001 192.7722,-51.5001"/>
</g>
<!-- Node5 -->
<g id="node4" class="node">
<title>Node5</title>
<g id="a_node4"><a xlink:href="class_collection.html#ab5b98f651d0f49cde1be067c69c52e89" target="_top" xlink:title="Collection::end">
<polygon fill="#ffffff" stroke="#000000" points="213,-.5 213,-19.5 295,-19.5 295,-.5 213,-.5"/>
<text text-anchor="middle" x="254" y="-7.5" font-family="Helvetica,sans-Serif" font-size="10.00" fill="#000000">Collection::end</text>
</a>
</g>
</g>
<!-- Node2&#45;&gt;Node5 -->
<g id="edge4" class="edge">
<title>Node2&#45;&gt;Node5</title>
<path fill="none" stroke="#191970" d="M150.8861,-32.9814C168.1527,-29.1331 186.443,-25.0567 202.7487,-21.4226"/>
<polygon fill="#191970" stroke="#191970" points="203.6188,-24.8146 212.6179,-19.223 202.096,-17.9822 203.6188,-24.8146"/>
</g>
<!-- Node4&#45;&gt;Node4 -->
<g id="edge3" class="edge">
<title>Node4&#45;&gt;Node4</title>
<path fill="none" stroke="#191970" d="M227.7981,-57.7571C215.0512,-66.5653 223.7852,-76 254,-76 274.3006,-76 284.9044,-71.741 285.8114,-66.2746"/>
<polygon fill="#191970" stroke="#191970" points="288.6252,-64.1836 280.2019,-57.7571 282.7791,-68.0337 288.6252,-64.1836"/>
</g>
</g>
</svg>
