<?xml version="1.0" encoding="UTF-8" standalone="no"?>
<!DOCTYPE svg PUBLIC "-//W3C//DTD SVG 1.1//EN"
 "http://www.w3.org/Graphics/SVG/1.1/DTD/svg11.dtd">
<!-- Generated by graphviz version 2.40.1 (20161225.0304)
 -->
<!-- Title: ButtonWidget Pages: 1 -->
<svg width="194pt" height="403pt"
 viewBox="0.00 0.00 194.00 403.00" xmlns="http://www.w3.org/2000/svg" xmlns:xlink="http://www.w3.org/1999/xlink">
<g id="graph0" class="graph" transform="scale(1 1) rotate(0) translate(4 399)">
<title>ButtonWidget</title>
<polygon fill="#ffffff" stroke="transparent" points="-4,4 -4,-399 190,-399 190,4 -4,4"/>
<!-- Node2 -->
<g id="node1" class="node">
<title>Node2</title>
<polygon fill="#bfbfbf" stroke="#000000" points="0,-.5 0,-145.5 127,-145.5 127,-.5 0,-.5"/>
<text text-anchor="middle" x="63.5" y="-133.5" font-family="Helvetica,sans-Serif" font-size="10.00" fill="#000000">ButtonWidget</text>
<polyline fill="none" stroke="#000000" points="0,-126.5 127,-126.5 "/>
<text text-anchor="middle" x="63.5" y="-114.5" font-family="Helvetica,sans-Serif" font-size="10.00" fill="#000000"> </text>
<polyline fill="none" stroke="#000000" points="0,-107.5 127,-107.5 "/>
<text text-anchor="start" x="8" y="-95.5" font-family="Helvetica,sans-Serif" font-size="10.00" fill="#000000">+ ButtonWidget()</text>
<text text-anchor="start" x="8" y="-84.5" font-family="Helvetica,sans-Serif" font-size="10.00" fill="#000000">+ setCallBack()</text>
<text text-anchor="start" x="8" y="-73.5" font-family="Helvetica,sans-Serif" font-size="10.00" fill="#000000">+ setClickable()</text>
<text text-anchor="start" x="8" y="-62.5" font-family="Helvetica,sans-Serif" font-size="10.00" fill="#000000">+ getBackgroundColor()</text>
<text text-anchor="start" x="8" y="-51.5" font-family="Helvetica,sans-Serif" font-size="10.00" fill="#000000">+ isColored()</text>
<text text-anchor="start" x="8" y="-40.5" font-family="Helvetica,sans-Serif" font-size="10.00" fill="#000000"># actualRender()</text>
<text text-anchor="start" x="8" y="-29.5" font-family="Helvetica,sans-Serif" font-size="10.00" fill="#000000"># actualResize()</text>
<text text-anchor="start" x="8" y="-18.5" font-family="Helvetica,sans-Serif" font-size="10.00" fill="#000000"># actualSize()</text>
<text text-anchor="start" x="8" y="-7.5" font-family="Helvetica,sans-Serif" font-size="10.00" fill="#000000"># actualPropagateEvent()</text>
</g>
<!-- Node3 -->
<g id="node2" class="node">
<title>Node3</title>
<g id="a_node2"><a xlink:href="class_widget.html" target="_top" xlink:title="API permettant la création d&#39;une interface graphique. ">
<polygon fill="#ffffff" stroke="#000000" points="0,-183.5 0,-394.5 127,-394.5 127,-183.5 0,-183.5"/>
<text text-anchor="middle" x="63.5" y="-382.5" font-family="Helvetica,sans-Serif" font-size="10.00" fill="#000000">Widget</text>
<polyline fill="none" stroke="#000000" points="0,-375.5 127,-375.5 "/>
<text text-anchor="middle" x="63.5" y="-363.5" font-family="Helvetica,sans-Serif" font-size="10.00" fill="#000000"> </text>
<polyline fill="none" stroke="#000000" points="0,-356.5 127,-356.5 "/>
<text text-anchor="start" x="8" y="-344.5" font-family="Helvetica,sans-Serif" font-size="10.00" fill="#000000">+ render()</text>
<text text-anchor="start" x="8" y="-333.5" font-family="Helvetica,sans-Serif" font-size="10.00" fill="#000000">+ resize()</text>
<text text-anchor="start" x="8" y="-322.5" font-family="Helvetica,sans-Serif" font-size="10.00" fill="#000000">+ size()</text>
<text text-anchor="start" x="8" y="-311.5" font-family="Helvetica,sans-Serif" font-size="10.00" fill="#000000">+ propagateEvent()</text>
<text text-anchor="start" x="8" y="-300.5" font-family="Helvetica,sans-Serif" font-size="10.00" fill="#000000">+ isInside()</text>
<text text-anchor="start" x="8" y="-289.5" font-family="Helvetica,sans-Serif" font-size="10.00" fill="#000000">+ setParent()</text>
<text text-anchor="start" x="8" y="-278.5" font-family="Helvetica,sans-Serif" font-size="10.00" fill="#000000">+ ~Widget()</text>
<text text-anchor="start" x="8" y="-267.5" font-family="Helvetica,sans-Serif" font-size="10.00" fill="#000000">+ callRedraw()</text>
<text text-anchor="start" x="8" y="-256.5" font-family="Helvetica,sans-Serif" font-size="10.00" fill="#000000">+ getWindow()</text>
<text text-anchor="start" x="8" y="-245.5" font-family="Helvetica,sans-Serif" font-size="10.00" fill="#000000">+ getWindow()</text>
<text text-anchor="start" x="8" y="-234.5" font-family="Helvetica,sans-Serif" font-size="10.00" fill="#000000"># actualRender()</text>
<text text-anchor="start" x="8" y="-223.5" font-family="Helvetica,sans-Serif" font-size="10.00" fill="#000000"># actualResize()</text>
<text text-anchor="start" x="8" y="-212.5" font-family="Helvetica,sans-Serif" font-size="10.00" fill="#000000"># actualSize()</text>
<text text-anchor="start" x="8" y="-201.5" font-family="Helvetica,sans-Serif" font-size="10.00" fill="#000000"># actualPropagateEvent()</text>
<text text-anchor="start" x="8" y="-190.5" font-family="Helvetica,sans-Serif" font-size="10.00" fill="#000000"># actualIsInside()</text>
</a>
</g>
</g>
<!-- Node3&#45;&gt;Node2 -->
<g id="edge1" class="edge">
<title>Node3&#45;&gt;Node2</title>
<path fill="none" stroke="#191970" d="M63.5,-173.083C63.5,-163.7624 63.5,-154.5208 63.5,-145.638"/>
<polygon fill="none" stroke="#191970" points="60.0001,-173.2147 63.5,-183.2147 67.0001,-173.2147 60.0001,-173.2147"/>
</g>
<!-- Node3&#45;&gt;Node3 -->
<g id="edge2" class="edge">
<title>Node3&#45;&gt;Node3</title>
<path fill="none" stroke="#404040" d="M127.058,-310.6096C137.6744,-307.586 145,-300.3828 145,-289 145,-282.0636 142.2797,-276.6793 137.7522,-272.847"/>
<polygon fill="none" stroke="#404040" points="137.7471,-272.8444 130.5846,-273.6804 127.058,-267.3904 134.2205,-266.5544 137.7471,-272.8444"/>
<text text-anchor="middle" x="165.5" y="-286.5" font-family="Helvetica,sans-Serif" font-size="10.00" fill="#000000"> #parent_</text>
</g>
</g>
</svg>
