<?xml version="1.0" encoding="UTF-8" standalone="no"?>
<!DOCTYPE svg PUBLIC "-//W3C//DTD SVG 1.1//EN"
 "http://www.w3.org/Graphics/SVG/1.1/DTD/svg11.dtd">
<!-- Generated by graphviz version 2.40.1 (20161225.0304)
 -->
<!-- Title: Widget::isInside Pages: 1 -->
<svg width="447pt" height="137pt"
 viewBox="0.00 0.00 447.00 137.00" xmlns="http://www.w3.org/2000/svg" xmlns:xlink="http://www.w3.org/1999/xlink">
<g id="graph0" class="graph" transform="scale(1 1) rotate(0) translate(4 133)">
<title>Widget::isInside</title>
<polygon fill="#ffffff" stroke="transparent" points="-4,4 -4,-133 443,-133 443,4 -4,4"/>
<!-- Node135 -->
<g id="node1" class="node">
<title>Node135</title>
<polygon fill="#bfbfbf" stroke="#000000" points="0,-55 0,-74 87,-74 87,-55 0,-55"/>
<text text-anchor="middle" x="43.5" y="-62" font-family="Helvetica,sans-Serif" font-size="10.00" fill="#000000">Widget::isInside</text>
</g>
<!-- Node136 -->
<g id="node2" class="node">
<title>Node136</title>
<g id="a_node2"><a xlink:href="class_button_widget.html#aae069846bf4c475a475a47daf4178f3d" target="_top" xlink:title="ButtonWidget::actualPropagate\lEvent">
<polygon fill="#ffffff" stroke="#000000" points="123,-98.5 123,-128.5 275,-128.5 275,-98.5 123,-98.5"/>
<text text-anchor="start" x="131" y="-116.5" font-family="Helvetica,sans-Serif" font-size="10.00" fill="#000000">ButtonWidget::actualPropagate</text>
<text text-anchor="middle" x="199" y="-105.5" font-family="Helvetica,sans-Serif" font-size="10.00" fill="#000000">Event</text>
</a>
</g>
</g>
<!-- Node135&#45;&gt;Node136 -->
<g id="edge1" class="edge">
<title>Node135&#45;&gt;Node136</title>
<path fill="none" stroke="#191970" d="M83.5852,-77.1313C104.2547,-83.6446 129.607,-91.6334 151.2807,-98.463"/>
<polygon fill="#191970" stroke="#191970" points="84.4407,-73.7313 73.8511,-74.064 82.3369,-80.4077 84.4407,-73.7313"/>
</g>
<!-- Node138 -->
<g id="node4" class="node">
<title>Node138</title>
<g id="a_node4"><a xlink:href="class_grid_widget.html#a9c57f1ca2311d3caa936a481fa7fbef0" target="_top" xlink:title="GridWidget::actualPropagate\lEvent">
<polygon fill="#ffffff" stroke="#000000" points="128,-49.5 128,-79.5 270,-79.5 270,-49.5 128,-49.5"/>
<text text-anchor="start" x="136" y="-67.5" font-family="Helvetica,sans-Serif" font-size="10.00" fill="#000000">GridWidget::actualPropagate</text>
<text text-anchor="middle" x="199" y="-56.5" font-family="Helvetica,sans-Serif" font-size="10.00" fill="#000000">Event</text>
</a>
</g>
</g>
<!-- Node135&#45;&gt;Node138 -->
<g id="edge3" class="edge">
<title>Node135&#45;&gt;Node138</title>
<path fill="none" stroke="#191970" d="M97.2942,-64.5C107.1808,-64.5 117.6402,-64.5 127.9418,-64.5"/>
<polygon fill="#191970" stroke="#191970" points="97.2293,-61.0001 87.2292,-64.5 97.2292,-68.0001 97.2293,-61.0001"/>
</g>
<!-- Node140 -->
<g id="node6" class="node">
<title>Node140</title>
<g id="a_node6"><a xlink:href="class_list_widget.html#a91b56e252a550deda1d97a2992e3a9f7" target="_top" xlink:title="ListWidget::actualPropagate\lEvent">
<polygon fill="#ffffff" stroke="#000000" points="129,-.5 129,-30.5 269,-30.5 269,-.5 129,-.5"/>
<text text-anchor="start" x="137" y="-18.5" font-family="Helvetica,sans-Serif" font-size="10.00" fill="#000000">ListWidget::actualPropagate</text>
<text text-anchor="middle" x="199" y="-7.5" font-family="Helvetica,sans-Serif" font-size="10.00" fill="#000000">Event</text>
</a>
</g>
</g>
<!-- Node135&#45;&gt;Node140 -->
<g id="edge5" class="edge">
<title>Node135&#45;&gt;Node140</title>
<path fill="none" stroke="#191970" d="M83.5852,-51.8687C104.2547,-45.3554 129.607,-37.3666 151.2807,-30.537"/>
<polygon fill="#191970" stroke="#191970" points="82.3369,-48.5923 73.8511,-54.936 84.4407,-55.2687 82.3369,-48.5923"/>
</g>
<!-- Node137 -->
<g id="node3" class="node">
<title>Node137</title>
<g id="a_node3"><a xlink:href="class_button_widget.html#a050618b949448e783b589ddd4ccfedf0" target="_top" xlink:title="ButtonWidget::actualSize">
<polygon fill="#ffffff" stroke="#000000" points="311,-104 311,-123 439,-123 439,-104 311,-104"/>
<text text-anchor="middle" x="375" y="-111" font-family="Helvetica,sans-Serif" font-size="10.00" fill="#000000">ButtonWidget::actualSize</text>
</a>
</g>
</g>
<!-- Node136&#45;&gt;Node137 -->
<g id="edge2" class="edge">
<title>Node136&#45;&gt;Node137</title>
<path fill="none" stroke="#191970" d="M285.2558,-113.5C293.8709,-113.5 302.5083,-113.5 310.8375,-113.5"/>
<polygon fill="#191970" stroke="#191970" points="285.1726,-110.0001 275.1725,-113.5 285.1725,-117.0001 285.1726,-110.0001"/>
</g>
<!-- Node139 -->
<g id="node5" class="node">
<title>Node139</title>
<g id="a_node5"><a xlink:href="class_grid_widget.html#abfc54e477706b66bd09f6f3c459fcfa4" target="_top" xlink:title="GridWidget::GridWidget">
<polygon fill="#ffffff" stroke="#000000" points="315,-55 315,-74 435,-74 435,-55 315,-55"/>
<text text-anchor="middle" x="375" y="-62" font-family="Helvetica,sans-Serif" font-size="10.00" fill="#000000">GridWidget::GridWidget</text>
</a>
</g>
</g>
<!-- Node138&#45;&gt;Node139 -->
<g id="edge4" class="edge">
<title>Node138&#45;&gt;Node139</title>
<path fill="none" stroke="#191970" d="M280.2769,-64.5C291.952,-64.5 303.7858,-64.5 314.9499,-64.5"/>
<polygon fill="#191970" stroke="#191970" points="280.0787,-61.0001 270.0786,-64.5 280.0786,-68.0001 280.0787,-61.0001"/>
</g>
</g>
</svg>
