<?xml version="1.0" encoding="UTF-8" standalone="no"?>
<!DOCTYPE svg PUBLIC "-//W3C//DTD SVG 1.1//EN"
 "http://www.w3.org/Graphics/SVG/1.1/DTD/svg11.dtd">
<!-- Generated by graphviz version 2.40.1 (20161225.0304)
 -->
<!-- Title: WindowWidget::actualResize Pages: 1 -->
<svg width="427pt" height="84pt"
 viewBox="0.00 0.00 427.00 84.00" xmlns="http://www.w3.org/2000/svg" xmlns:xlink="http://www.w3.org/1999/xlink">
<g id="graph0" class="graph" transform="scale(1 1) rotate(0) translate(4 80)">
<title>WindowWidget::actualResize</title>
<polygon fill="#ffffff" stroke="transparent" points="-4,4 -4,-80 423,-80 423,4 -4,4"/>
<!-- Node15 -->
<g id="node1" class="node">
<title>Node15</title>
<polygon fill="#bfbfbf" stroke="#000000" points="0,-19.5 0,-38.5 146,-38.5 146,-19.5 0,-19.5"/>
<text text-anchor="middle" x="73" y="-26.5" font-family="Helvetica,sans-Serif" font-size="10.00" fill="#000000">WindowWidget::actualResize</text>
</g>
<!-- Node16 -->
<g id="node2" class="node">
<title>Node16</title>
<g id="a_node2"><a xlink:href="class_widget.html#a210d4c8e3ea02cb777c6e3ad7fdc22b3" target="_top" xlink:title="Widget::callRedraw">
<polygon fill="#ffffff" stroke="#000000" points="182,-38.5 182,-57.5 284,-57.5 284,-38.5 182,-38.5"/>
<text text-anchor="middle" x="233" y="-45.5" font-family="Helvetica,sans-Serif" font-size="10.00" fill="#000000">Widget::callRedraw</text>
</a>
</g>
</g>
<!-- Node15&#45;&gt;Node16 -->
<g id="edge1" class="edge">
<title>Node15&#45;&gt;Node16</title>
<path fill="none" stroke="#191970" d="M146.444,-37.7215C154.9711,-38.7341 163.5981,-39.7585 171.9341,-40.7484"/>
<polygon fill="#191970" stroke="#191970" points="171.5887,-44.2319 181.9317,-41.9356 172.4142,-37.2808 171.5887,-44.2319"/>
</g>
<!-- Node17 -->
<g id="node3" class="node">
<title>Node17</title>
<g id="a_node3"><a xlink:href="class_widget.html#aea985c025ef9b1210d0e3ab7d9c075ea" target="_top" xlink:title="Widget::size">
<polygon fill="#ffffff" stroke="#000000" points="197.5,-.5 197.5,-19.5 268.5,-19.5 268.5,-.5 197.5,-.5"/>
<text text-anchor="middle" x="233" y="-7.5" font-family="Helvetica,sans-Serif" font-size="10.00" fill="#000000">Widget::size</text>
</a>
</g>
</g>
<!-- Node15&#45;&gt;Node17 -->
<g id="edge3" class="edge">
<title>Node15&#45;&gt;Node17</title>
<path fill="none" stroke="#191970" d="M146.444,-20.2785C160.307,-18.6323 174.4343,-16.9547 187.1458,-15.4452"/>
<polygon fill="#191970" stroke="#191970" points="187.9361,-18.876 197.4536,-14.2211 187.1106,-11.9249 187.9361,-18.876"/>
</g>
<!-- Node16&#45;&gt;Node16 -->
<g id="edge2" class="edge">
<title>Node16&#45;&gt;Node16</title>
<path fill="none" stroke="#191970" d="M212.0385,-57.7571C201.8409,-66.5653 208.8281,-76 233,-76 248.4851,-76 256.9176,-72.128 258.2975,-67.0292"/>
<polygon fill="#191970" stroke="#191970" points="261.3681,-65.3329 253.9615,-57.7571 255.0272,-68.2982 261.3681,-65.3329"/>
</g>
<!-- Node18 -->
<g id="node4" class="node">
<title>Node18</title>
<g id="a_node4"><a xlink:href="class_widget.html#aa6225b5a14e5861cc2cd98c737841854" target="_top" xlink:title="Widget::actualSize">
<polygon fill="#ffffff" stroke="#000000" points="320,-.5 320,-19.5 419,-19.5 419,-.5 320,-.5"/>
<text text-anchor="middle" x="369.5" y="-7.5" font-family="Helvetica,sans-Serif" font-size="10.00" fill="#000000">Widget::actualSize</text>
</a>
</g>
</g>
<!-- Node17&#45;&gt;Node18 -->
<g id="edge4" class="edge">
<title>Node17&#45;&gt;Node18</title>
<path fill="none" stroke="#191970" d="M268.5074,-10C281.0932,-10 295.6258,-10 309.6748,-10"/>
<polygon fill="#191970" stroke="#191970" points="309.7845,-13.5001 319.7844,-10 309.7844,-6.5001 309.7845,-13.5001"/>
</g>
</g>
</svg>
