<?xml version="1.0" encoding="UTF-8" standalone="no"?>
<!DOCTYPE svg PUBLIC "-//W3C//DTD SVG 1.1//EN"
 "http://www.w3.org/Graphics/SVG/1.1/DTD/svg11.dtd">
<!-- Generated by graphviz version 2.40.1 (20161225.0304)
 -->
<!-- Title: GridWidget::actualRender Pages: 1 -->
<svg width="415pt" height="142pt"
 viewBox="0.00 0.00 415.00 142.00" xmlns="http://www.w3.org/2000/svg" xmlns:xlink="http://www.w3.org/1999/xlink">
<g id="graph0" class="graph" transform="scale(1 1) rotate(0) translate(4 138)">
<title>GridWidget::actualRender</title>
<polygon fill="#ffffff" stroke="transparent" points="-4,4 -4,-138 411,-138 411,4 -4,4"/>
<!-- Node33 -->
<g id="node1" class="node">
<title>Node33</title>
<polygon fill="#bfbfbf" stroke="#000000" points="0,-57.5 0,-76.5 129,-76.5 129,-57.5 0,-57.5"/>
<text text-anchor="middle" x="64.5" y="-64.5" font-family="Helvetica,sans-Serif" font-size="10.00" fill="#000000">GridWidget::actualRender</text>
</g>
<!-- Node34 -->
<g id="node2" class="node">
<title>Node34</title>
<g id="a_node2"><a xlink:href="class_collection.html#a4abc73f8e31a499a22b25d42b7a4fe8c" target="_top" xlink:title="Collection::begin">
<polygon fill="#ffffff" stroke="#000000" points="168,-114.5 168,-133.5 257,-133.5 257,-114.5 168,-114.5"/>
<text text-anchor="middle" x="212.5" y="-121.5" font-family="Helvetica,sans-Serif" font-size="10.00" fill="#000000">Collection::begin</text>
</a>
</g>
</g>
<!-- Node33&#45;&gt;Node34 -->
<g id="edge1" class="edge">
<title>Node33&#45;&gt;Node34</title>
<path fill="none" stroke="#191970" d="M89.2719,-76.5405C113.6037,-85.9116 150.931,-100.2876 178.1284,-110.7623"/>
<polygon fill="#191970" stroke="#191970" points="177.0575,-114.1004 187.6473,-114.4284 179.5734,-107.5681 177.0575,-114.1004"/>
</g>
<!-- Node35 -->
<g id="node3" class="node">
<title>Node35</title>
<g id="a_node3"><a xlink:href="class_collection.html#ab5b98f651d0f49cde1be067c69c52e89" target="_top" xlink:title="Collection::end">
<polygon fill="#ffffff" stroke="#000000" points="171.5,-76.5 171.5,-95.5 253.5,-95.5 253.5,-76.5 171.5,-76.5"/>
<text text-anchor="middle" x="212.5" y="-83.5" font-family="Helvetica,sans-Serif" font-size="10.00" fill="#000000">Collection::end</text>
</a>
</g>
</g>
<!-- Node33&#45;&gt;Node35 -->
<g id="edge2" class="edge">
<title>Node33&#45;&gt;Node35</title>
<path fill="none" stroke="#191970" d="M129.415,-75.3337C140.1331,-76.7097 151.1093,-78.1188 161.426,-79.4432"/>
<polygon fill="#191970" stroke="#191970" points="161.1244,-82.9331 171.4887,-80.735 162.0158,-75.9901 161.1244,-82.9331"/>
</g>
<!-- Node36 -->
<g id="node4" class="node">
<title>Node36</title>
<g id="a_node4"><a xlink:href="class_widget.html#a2516fd56cac645cb3aacef37937c49d3" target="_top" xlink:title="Widget::render">
<polygon fill="#ffffff" stroke="#000000" points="172.5,-38.5 172.5,-57.5 252.5,-57.5 252.5,-38.5 172.5,-38.5"/>
<text text-anchor="middle" x="212.5" y="-45.5" font-family="Helvetica,sans-Serif" font-size="10.00" fill="#000000">Widget::render</text>
</a>
</g>
</g>
<!-- Node33&#45;&gt;Node36 -->
<g id="edge3" class="edge">
<title>Node33&#45;&gt;Node36</title>
<path fill="none" stroke="#191970" d="M129.415,-58.6663C140.3661,-57.2604 151.5867,-55.82 162.0978,-54.4705"/>
<polygon fill="#191970" stroke="#191970" points="162.8633,-57.9011 172.3362,-53.1562 161.9719,-50.9581 162.8633,-57.9011"/>
</g>
<!-- Node38 -->
<g id="node6" class="node">
<title>Node38</title>
<g id="a_node6"><a xlink:href="class_widget.html#a0dd3c167cde2b8ef9ffbd95067fbb3f6" target="_top" xlink:title="Widget::setParent">
<polygon fill="#ffffff" stroke="#000000" points="165,-.5 165,-19.5 260,-19.5 260,-.5 165,-.5"/>
<text text-anchor="middle" x="212.5" y="-7.5" font-family="Helvetica,sans-Serif" font-size="10.00" fill="#000000">Widget::setParent</text>
</a>
</g>
</g>
<!-- Node33&#45;&gt;Node38 -->
<g id="edge5" class="edge">
<title>Node33&#45;&gt;Node38</title>
<path fill="none" stroke="#191970" d="M89.2719,-57.4595C113.6037,-48.0884 150.931,-33.7124 178.1284,-23.2377"/>
<polygon fill="#191970" stroke="#191970" points="179.5734,-26.4319 187.6473,-19.5716 177.0575,-19.8996 179.5734,-26.4319"/>
</g>
<!-- Node37 -->
<g id="node5" class="node">
<title>Node37</title>
<g id="a_node5"><a xlink:href="class_widget.html#a5ff4883144670b8c93b41e440e3d4446" target="_top" xlink:title="Widget::actualRender">
<polygon fill="#ffffff" stroke="#000000" points="296,-38.5 296,-57.5 407,-57.5 407,-38.5 296,-38.5"/>
<text text-anchor="middle" x="351.5" y="-45.5" font-family="Helvetica,sans-Serif" font-size="10.00" fill="#000000">Widget::actualRender</text>
</a>
</g>
</g>
<!-- Node36&#45;&gt;Node37 -->
<g id="edge4" class="edge">
<title>Node36&#45;&gt;Node37</title>
<path fill="none" stroke="#191970" d="M252.7046,-48C263.0177,-48 274.3842,-48 285.624,-48"/>
<polygon fill="#191970" stroke="#191970" points="285.8768,-51.5001 295.8768,-48 285.8768,-44.5001 285.8768,-51.5001"/>
</g>
<!-- Node39 -->
<g id="node7" class="node">
<title>Node39</title>
<g id="a_node7"><a xlink:href="class_widget.html#abe38c3c1fbcde4c705d76d58208ceb52" target="_top" xlink:title="Widget::~Widget">
<polygon fill="#ffffff" stroke="#000000" points="306.5,-.5 306.5,-19.5 396.5,-19.5 396.5,-.5 306.5,-.5"/>
<text text-anchor="middle" x="351.5" y="-7.5" font-family="Helvetica,sans-Serif" font-size="10.00" fill="#000000">Widget::~Widget</text>
</a>
</g>
</g>
<!-- Node38&#45;&gt;Node39 -->
<g id="edge6" class="edge">
<title>Node38&#45;&gt;Node39</title>
<path fill="none" stroke="#191970" d="M260.3359,-10C271.8763,-10 284.3021,-10 296.1543,-10"/>
<polygon fill="#191970" stroke="#191970" points="296.3857,-13.5001 306.3857,-10 296.3857,-6.5001 296.3857,-13.5001"/>
</g>
</g>
</svg>
