<?xml version="1.0" encoding="UTF-8" standalone="no"?>
<!DOCTYPE svg PUBLIC "-//W3C//DTD SVG 1.1//EN"
 "http://www.w3.org/Graphics/SVG/1.1/DTD/svg11.dtd">
<!-- Generated by graphviz version 2.40.1 (20161225.0304)
 -->
<!-- Title: Widget::callRedraw Pages: 1 -->
<!--zoomable 667 -->
<svg id="main" version="1.1" xmlns="http://www.w3.org/2000/svg" xmlns:xlink="http://www.w3.org/1999/xlink" xml:space="preserve" onload="init(evt)">
<style type="text/css"><![CDATA[
.edge:hover path { stroke: red; }
.edge:hover polygon { stroke: red; fill: red; }
]]></style>
<script type="text/javascript"><![CDATA[
var edges = document.getElementsByTagName('g');
if (edges && edges.length) {
  for (var i=0;i<edges.length;i++) {
    if (edges[i].id.substr(0,4)=='edge') {
      edges[i].setAttribute('class','edge');
    }
  }
}
]]></script>
        <defs>
                <circle id="rim" cx="0" cy="0" r="7"/>
                <circle id="rim2" cx="0" cy="0" r="3.5"/>
                <g id="zoomPlus">
                        <use xlink:href="#rim" fill="#404040">
                                <set attributeName="fill" to="#808080" begin="zoomplus.mouseover" end="zoomplus.mouseout"/>
                        </use>
                        <path d="M-4,0h8M0,-4v8" fill="none" stroke="white" stroke-width="1.5" pointer-events="none"/>
                </g>
                <g id="zoomMin">
                        <use xlink:href="#rim" fill="#404040">
                                <set attributeName="fill" to="#808080" begin="zoomminus.mouseover" end="zoomminus.mouseout"/>
                        </use>
                        <path d="M-4,0h8" fill="none" stroke="white" stroke-width="1.5" pointer-events="none"/>
                </g>
                <g id="dirArrow">
                        <path fill="none" stroke="white" stroke-width="1.5" d="M0,-3.0v7 M-2.5,-0.5L0,-3.0L2.5,-0.5"/>
                </g>
               <g id="resetDef">
                       <use xlink:href="#rim2" fill="#404040">
                               <set attributeName="fill" to="#808080" begin="reset.mouseover" end="reset.mouseout"/>
                       </use>
               </g>
        </defs>

<script type="text/javascript">
var viewWidth = 837;
var viewHeight = 667;
var sectionId = 'dynsection-10';
</script>
<script xlink:href="svgpan.js"/>
<svg id="graph" class="graph">
<g id="viewport">
<title>Widget::callRedraw</title>
<polygon fill="#ffffff" stroke="transparent" points="-4,4 -4,-662.5 833,-662.5 833,4 -4,4"/>
<!-- Node89 -->
<g id="node1" class="node">
<title>Node89</title>
<polygon fill="#bfbfbf" stroke="#000000" points="0,-309.5 0,-328.5 102,-328.5 102,-309.5 0,-309.5"/>
<text text-anchor="middle" x="51" y="-316.5" font-family="Helvetica,sans-Serif" font-size="10.00" fill="#000000">Widget::callRedraw</text>
</g>
<!-- Node89&#45;&gt;Node89 -->
<g id="edge27" class="edge">
<title>Node89&#45;&gt;Node89</title>
<path fill="none" stroke="#191970" d="M19.1886,-337.2746C20.0956,-342.741 30.6994,-347 51,-347 81.2148,-347 89.9488,-337.5653 77.2019,-328.7571"/>
<polygon fill="#191970" stroke="#191970" points="22.2209,-339.0337 24.7981,-328.7571 16.3748,-335.1836 22.2209,-339.0337"/>
</g>
<!-- Node90 -->
<g id="node2" class="node">
<title>Node90</title>
<g id="a_node2"><a xlink:href="class_tag_selector.html#ae5dfc8890e99c275d8908155be6bcb70" target="_top" xlink:title="TagSelector::actualPropagate\lEvent">
<polygon fill="#ffffff" stroke="#000000" points="148.5,-628 148.5,-658 294.5,-658 294.5,-628 148.5,-628"/>
<text text-anchor="start" x="156.5" y="-646" font-family="Helvetica,sans-Serif" font-size="10.00" fill="#000000">TagSelector::actualPropagate</text>
<text text-anchor="middle" x="221.5" y="-635" font-family="Helvetica,sans-Serif" font-size="10.00" fill="#000000">Event</text>
</a>
</g>
</g>
<!-- Node89&#45;&gt;Node90 -->
<g id="edge1" class="edge">
<title>Node89&#45;&gt;Node90</title>
<path fill="none" stroke="#191970" d="M54.175,-338.6731C64.249,-398.7721 97.2444,-578.3411 138,-619 141.417,-622.4089 145.2845,-625.3406 149.4364,-627.8612"/>
<polygon fill="#191970" stroke="#191970" points="57.5964,-337.9088 52.517,-328.611 50.6895,-339.047 57.5964,-337.9088"/>
</g>
<!-- Node91 -->
<g id="node3" class="node">
<title>Node91</title>
<g id="a_node3"><a xlink:href="class_tag_setter_widget.html#abe01670c331fe101bc3977e1de15ae5d" target="_top" xlink:title="TagSetterWidget::actualPropagate\lEvent">
<polygon fill="#ffffff" stroke="#000000" points="138,-579 138,-609 305,-609 305,-579 138,-579"/>
<text text-anchor="start" x="146" y="-597" font-family="Helvetica,sans-Serif" font-size="10.00" fill="#000000">TagSetterWidget::actualPropagate</text>
<text text-anchor="middle" x="221.5" y="-586" font-family="Helvetica,sans-Serif" font-size="10.00" fill="#000000">Event</text>
</a>
</g>
</g>
<!-- Node89&#45;&gt;Node91 -->
<g id="edge2" class="edge">
<title>Node89&#45;&gt;Node91</title>
<path fill="none" stroke="#191970" d="M51.9152,-338.6925C55.1881,-385.7665 70.1161,-505.6718 138,-570 141.613,-573.4238 145.682,-576.3636 150.0295,-578.8875"/>
<polygon fill="#191970" stroke="#191970" points="55.403,-338.3823 51.3201,-328.6058 48.4152,-338.7946 55.403,-338.3823"/>
</g>
<!-- Node92 -->
<g id="node4" class="node">
<title>Node92</title>
<g id="a_node4"><a xlink:href="class_image_widget.html#a08c72c6888bf10e0941443ea67c72498" target="_top" xlink:title="ImageWidget::actualPropagate\lEvent">
<polygon fill="#ffffff" stroke="#000000" points="146,-77 146,-107 297,-107 297,-77 146,-77"/>
<text text-anchor="start" x="154" y="-95" font-family="Helvetica,sans-Serif" font-size="10.00" fill="#000000">ImageWidget::actualPropagate</text>
<text text-anchor="middle" x="221.5" y="-84" font-family="Helvetica,sans-Serif" font-size="10.00" fill="#000000">Event</text>
</a>
</g>
</g>
<!-- Node89&#45;&gt;Node92 -->
<g id="edge3" class="edge">
<title>Node89&#45;&gt;Node92</title>
<path fill="none" stroke="#191970" d="M53.831,-299.4369C60.6888,-259.2298 81.9576,-166.9026 138,-117 142.2945,-113.176 147.1539,-109.9364 152.3158,-107.192"/>
<polygon fill="#191970" stroke="#191970" points="50.3738,-298.8915 52.262,-309.3168 57.2872,-299.9895 50.3738,-298.8915"/>
</g>
<!-- Node96 -->
<g id="node8" class="node">
<title>Node96</title>
<g id="a_node8"><a xlink:href="class_window_widget.html#a78dedcff8ae2df9a9f86fc0ba17a1998" target="_top" xlink:title="WindowWidget::actualPropagate\lEvent">
<polygon fill="#ffffff" stroke="#000000" points="142,-530 142,-560 301,-560 301,-530 142,-530"/>
<text text-anchor="start" x="150" y="-548" font-family="Helvetica,sans-Serif" font-size="10.00" fill="#000000">WindowWidget::actualPropagate</text>
<text text-anchor="middle" x="221.5" y="-537" font-family="Helvetica,sans-Serif" font-size="10.00" fill="#000000">Event</text>
</a>
</g>
</g>
<!-- Node89&#45;&gt;Node96 -->
<g id="edge7" class="edge">
<title>Node89&#45;&gt;Node96</title>
<path fill="none" stroke="#191970" d="M53.7866,-338.6132C60.5613,-378.9142 81.6834,-471.4071 138,-521 141.8488,-524.3893 146.1481,-527.3016 150.7104,-529.8039"/>
<polygon fill="#191970" stroke="#191970" points="57.241,-338.049 52.2389,-328.7093 50.3249,-339.1298 57.241,-338.049"/>
</g>
<!-- Node98 -->
<g id="node10" class="node">
<title>Node98</title>
<g id="a_node10"><a xlink:href="class_button_widget.html#aae069846bf4c475a475a47daf4178f3d" target="_top" xlink:title="ButtonWidget::actualPropagate\lEvent">
<polygon fill="#ffffff" stroke="#000000" points="145.5,-481 145.5,-511 297.5,-511 297.5,-481 145.5,-481"/>
<text text-anchor="start" x="153.5" y="-499" font-family="Helvetica,sans-Serif" font-size="10.00" fill="#000000">ButtonWidget::actualPropagate</text>
<text text-anchor="middle" x="221.5" y="-488" font-family="Helvetica,sans-Serif" font-size="10.00" fill="#000000">Event</text>
</a>
</g>
</g>
<!-- Node89&#45;&gt;Node98 -->
<g id="edge9" class="edge">
<title>Node89&#45;&gt;Node98</title>
<path fill="none" stroke="#191970" d="M56.8695,-338.5354C67.6059,-370.9261 93.4953,-435.674 138,-471 142.8595,-474.8572 148.3042,-478.1202 154.022,-480.8803"/>
<polygon fill="#191970" stroke="#191970" points="60.1662,-337.3525 53.8043,-328.8804 53.4943,-339.4707 60.1662,-337.3525"/>
</g>
<!-- Node100 -->
<g id="node12" class="node">
<title>Node100</title>
<g id="a_node12"><a xlink:href="class_grid_widget.html#a9c57f1ca2311d3caa936a481fa7fbef0" target="_top" xlink:title="GridWidget::actualPropagate\lEvent">
<polygon fill="#ffffff" stroke="#000000" points="150.5,-165 150.5,-195 292.5,-195 292.5,-165 150.5,-165"/>
<text text-anchor="start" x="158.5" y="-183" font-family="Helvetica,sans-Serif" font-size="10.00" fill="#000000">GridWidget::actualPropagate</text>
<text text-anchor="middle" x="221.5" y="-172" font-family="Helvetica,sans-Serif" font-size="10.00" fill="#000000">Event</text>
</a>
</g>
</g>
<!-- Node89&#45;&gt;Node100 -->
<g id="edge11" class="edge">
<title>Node89&#45;&gt;Node100</title>
<path fill="none" stroke="#191970" d="M60.2833,-300.482C73.8994,-275.1901 101.6614,-230.1238 138,-205 143.6012,-201.1275 149.8133,-197.8439 156.2484,-195.0619"/>
<polygon fill="#191970" stroke="#191970" points="57.1449,-298.931 55.6218,-309.4158 63.3508,-302.1693 57.1449,-298.931"/>
</g>
<!-- Node102 -->
<g id="node14" class="node">
<title>Node102</title>
<g id="a_node14"><a xlink:href="class_tag_viewer_widget.html#a9a10f2a36c24054166245d2e7f5644ff" target="_top" xlink:title="TagViewerWidget::actualResize">
<polygon fill="#ffffff" stroke="#000000" points="143,-366.5 143,-385.5 300,-385.5 300,-366.5 143,-366.5"/>
<text text-anchor="middle" x="221.5" y="-373.5" font-family="Helvetica,sans-Serif" font-size="10.00" fill="#000000">TagViewerWidget::actualResize</text>
</a>
</g>
</g>
<!-- Node89&#45;&gt;Node102 -->
<g id="edge13" class="edge">
<title>Node89&#45;&gt;Node102</title>
<path fill="none" stroke="#191970" d="M79.1818,-332.9212C95.9595,-340.7991 117.8442,-350.3704 138,-357 149.0157,-360.6233 161.0704,-363.8025 172.5084,-366.4718"/>
<polygon fill="#191970" stroke="#191970" points="80.4775,-329.6615 69.945,-328.5135 77.4628,-335.979 80.4775,-329.6615"/>
</g>
<!-- Node103 -->
<g id="node15" class="node">
<title>Node103</title>
<g id="a_node15"><a xlink:href="class_tag_selector.html#a0c23aa2729c7c04773a9897ca1655b18" target="_top" xlink:title="TagSelector::actualResize">
<polygon fill="#ffffff" stroke="#000000" points="155.5,-328.5 155.5,-347.5 287.5,-347.5 287.5,-328.5 155.5,-328.5"/>
<text text-anchor="middle" x="221.5" y="-335.5" font-family="Helvetica,sans-Serif" font-size="10.00" fill="#000000">TagSelector::actualResize</text>
</a>
</g>
</g>
<!-- Node89&#45;&gt;Node103 -->
<g id="edge14" class="edge">
<title>Node89&#45;&gt;Node103</title>
<path fill="none" stroke="#191970" d="M112.1407,-325.8133C126.1151,-327.3706 141.0313,-329.0328 155.2103,-330.6129"/>
<polygon fill="#191970" stroke="#191970" points="112.4818,-322.3298 102.1556,-324.7006 111.7064,-329.2867 112.4818,-322.3298"/>
</g>
<!-- Node104 -->
<g id="node16" class="node">
<title>Node104</title>
<g id="a_node16"><a xlink:href="class_layout_widget.html#a2e5614796b2a04340ddc69997ce72a7b" target="_top" xlink:title="LayoutWidget::actualResize">
<polygon fill="#ffffff" stroke="#000000" points="151.5,-290.5 151.5,-309.5 291.5,-309.5 291.5,-290.5 151.5,-290.5"/>
<text text-anchor="middle" x="221.5" y="-297.5" font-family="Helvetica,sans-Serif" font-size="10.00" fill="#000000">LayoutWidget::actualResize</text>
</a>
</g>
</g>
<!-- Node89&#45;&gt;Node104 -->
<g id="edge15" class="edge">
<title>Node89&#45;&gt;Node104</title>
<path fill="none" stroke="#191970" d="M112.179,-312.1824C124.9164,-310.763 138.4347,-309.2565 151.463,-307.8047"/>
<polygon fill="#191970" stroke="#191970" points="111.7064,-308.7133 102.1556,-313.2994 112.4818,-315.6702 111.7064,-308.7133"/>
</g>
<!-- Node105 -->
<g id="node17" class="node">
<title>Node105</title>
<g id="a_node17"><a xlink:href="class_menu_bar_widget.html#aad48ccf1f2c742665aa24cd8ea45d1b1" target="_top" xlink:title="MenuBarWidget::actualResize">
<polygon fill="#ffffff" stroke="#000000" points="147,-252.5 147,-271.5 296,-271.5 296,-252.5 147,-252.5"/>
<text text-anchor="middle" x="221.5" y="-259.5" font-family="Helvetica,sans-Serif" font-size="10.00" fill="#000000">MenuBarWidget::actualResize</text>
</a>
</g>
</g>
<!-- Node89&#45;&gt;Node105 -->
<g id="edge16" class="edge">
<title>Node89&#45;&gt;Node105</title>
<path fill="none" stroke="#191970" d="M79.1818,-305.0788C95.9595,-297.2009 117.8442,-287.6296 138,-281 149.0157,-277.3767 161.0704,-274.1975 172.5084,-271.5282"/>
<polygon fill="#191970" stroke="#191970" points="77.4628,-302.021 69.945,-309.4865 80.4775,-308.3385 77.4628,-302.021"/>
</g>
<!-- Node106 -->
<g id="node18" class="node">
<title>Node106</title>
<g id="a_node18"><a xlink:href="class_tag_setter_widget.html#af662bb4af5739709f87c8a89735ff1b0" target="_top" xlink:title="TagSetterWidget::actualResize">
<polygon fill="#ffffff" stroke="#000000" points="145,-214.5 145,-233.5 298,-233.5 298,-214.5 145,-214.5"/>
<text text-anchor="middle" x="221.5" y="-221.5" font-family="Helvetica,sans-Serif" font-size="10.00" fill="#000000">TagSetterWidget::actualResize</text>
</a>
</g>
</g>
<!-- Node89&#45;&gt;Node106 -->
<g id="edge17" class="edge">
<title>Node89&#45;&gt;Node106</title>
<path fill="none" stroke="#191970" d="M65.9943,-301.6046C82.044,-284.1156 109.1239,-257.6999 138,-243 145.552,-239.1555 153.8806,-236.0811 162.2655,-233.6244"/>
<polygon fill="#191970" stroke="#191970" points="63.0968,-299.5943 59.0419,-309.3825 68.3157,-304.2594 63.0968,-299.5943"/>
</g>
<!-- Node107 -->
<g id="node19" class="node">
<title>Node107</title>
<g id="a_node19"><a xlink:href="class_image_widget.html#a3b5f1a6cf3f2fcde08f50f0b91eaff70" target="_top" xlink:title="ImageWidget::actualResize">
<polygon fill="#ffffff" stroke="#000000" points="153,-38.5 153,-57.5 290,-57.5 290,-38.5 153,-38.5"/>
<text text-anchor="middle" x="221.5" y="-45.5" font-family="Helvetica,sans-Serif" font-size="10.00" fill="#000000">ImageWidget::actualResize</text>
</a>
</g>
</g>
<!-- Node89&#45;&gt;Node107 -->
<g id="edge18" class="edge">
<title>Node89&#45;&gt;Node107</title>
<path fill="none" stroke="#191970" d="M55.2166,-299.2817C67.0637,-245.6803 102.1317,-99.1672 138,-67 142.4273,-63.0296 147.5096,-59.836 152.9341,-57.2736"/>
<polygon fill="#191970" stroke="#191970" points="51.7571,-298.7191 53.049,-309.2349 58.5968,-300.2087 51.7571,-298.7191"/>
</g>
<!-- Node108 -->
<g id="node20" class="node">
<title>Node108</title>
<g id="a_node20"><a xlink:href="class_button_widget.html#a66e8bfd9bc9a56b3a7cb2a8efc38347e" target="_top" xlink:title="ButtonWidget::actualResize">
<polygon fill="#ffffff" stroke="#000000" points="152,-126.5 152,-145.5 291,-145.5 291,-126.5 152,-126.5"/>
<text text-anchor="middle" x="221.5" y="-133.5" font-family="Helvetica,sans-Serif" font-size="10.00" fill="#000000">ButtonWidget::actualResize</text>
</a>
</g>
</g>
<!-- Node89&#45;&gt;Node108 -->
<g id="edge20" class="edge">
<title>Node89&#45;&gt;Node108</title>
<path fill="none" stroke="#191970" d="M55.6125,-299.558C64.9037,-264.8331 89.2747,-192.303 138,-155 143.0761,-151.1139 148.8027,-147.9972 154.8182,-145.5011"/>
<polygon fill="#191970" stroke="#191970" points="52.1794,-298.8578 53.1141,-309.4113 58.9647,-300.5784 52.1794,-298.8578"/>
</g>
<!-- Node110 -->
<g id="node22" class="node">
<title>Node110</title>
<g id="a_node22"><a xlink:href="class_window_widget.html#a89a68a5d4dc9fd5da10ac75c1121a453" target="_top" xlink:title="WindowWidget::actualResize">
<polygon fill="#ffffff" stroke="#000000" points="148.5,-442.5 148.5,-461.5 294.5,-461.5 294.5,-442.5 148.5,-442.5"/>
<text text-anchor="middle" x="221.5" y="-449.5" font-family="Helvetica,sans-Serif" font-size="10.00" fill="#000000">WindowWidget::actualResize</text>
</a>
</g>
</g>
<!-- Node89&#45;&gt;Node110 -->
<g id="edge22" class="edge">
<title>Node89&#45;&gt;Node110</title>
<path fill="none" stroke="#191970" d="M60.0508,-337.8667C73.3943,-363.5675 100.8382,-409.1106 138,-433 144.0028,-436.8589 150.6902,-439.9387 157.5943,-442.3959"/>
<polygon fill="#191970" stroke="#191970" points="63.1043,-336.1476 55.4927,-328.7778 56.847,-339.2857 63.1043,-336.1476"/>
</g>
<!-- Node112 -->
<g id="node24" class="node">
<title>Node112</title>
<g id="a_node24"><a xlink:href="class_grid_widget.html#a640c641444f6a5dae5a66af01d036777" target="_top" xlink:title="GridWidget::actualResize">
<polygon fill="#ffffff" stroke="#000000" points="157.5,-404.5 157.5,-423.5 285.5,-423.5 285.5,-404.5 157.5,-404.5"/>
<text text-anchor="middle" x="221.5" y="-411.5" font-family="Helvetica,sans-Serif" font-size="10.00" fill="#000000">GridWidget::actualResize</text>
</a>
</g>
</g>
<!-- Node89&#45;&gt;Node112 -->
<g id="edge25" class="edge">
<title>Node89&#45;&gt;Node112</title>
<path fill="none" stroke="#191970" d="M65.9943,-336.3954C82.044,-353.8844 109.1239,-380.3001 138,-395 145.552,-398.8445 153.8806,-401.9189 162.2655,-404.3756"/>
<polygon fill="#191970" stroke="#191970" points="68.3157,-333.7406 59.0419,-328.6175 63.0968,-338.4057 68.3157,-333.7406"/>
</g>
<!-- Node113 -->
<g id="node25" class="node">
<title>Node113</title>
<g id="a_node25"><a xlink:href="class_window_widget.html#a4d1f999183262930b2472bcd212644aa" target="_top" xlink:title="WindowWidget::setContent">
<polygon fill="#ffffff" stroke="#000000" points="153,-.5 153,-19.5 290,-19.5 290,-.5 153,-.5"/>
<text text-anchor="middle" x="221.5" y="-7.5" font-family="Helvetica,sans-Serif" font-size="10.00" fill="#000000">WindowWidget::setContent</text>
</a>
</g>
</g>
<!-- Node89&#45;&gt;Node113 -->
<g id="edge28" class="edge">
<title>Node89&#45;&gt;Node113</title>
<path fill="none" stroke="#191970" d="M54.2409,-299.4881C64.3899,-240.7049 97.3197,-67.0146 138,-29 142.345,-24.9397 147.3708,-21.6844 152.7585,-19.0817"/>
<polygon fill="#191970" stroke="#191970" points="50.7891,-298.9101 52.5666,-309.3548 57.6904,-300.0813 50.7891,-298.9101"/>
</g>
<!-- Node93 -->
<g id="node5" class="node">
<title>Node93</title>
<g id="a_node5"><a xlink:href="class_image_widget.html#a5973a50de2ac39437934a09313af6af9" target="_top" xlink:title="ImageWidget::setSelectable">
<polygon fill="#ffffff" stroke="#000000" points="341,-80.5 341,-99.5 481,-99.5 481,-80.5 341,-80.5"/>
<text text-anchor="middle" x="411" y="-87.5" font-family="Helvetica,sans-Serif" font-size="10.00" fill="#000000">ImageWidget::setSelectable</text>
</a>
</g>
</g>
<!-- Node92&#45;&gt;Node93 -->
<g id="edge4" class="edge">
<title>Node92&#45;&gt;Node93</title>
<path fill="none" stroke="#191970" d="M307.4436,-91.0929C318.6549,-90.9746 330.032,-90.8545 340.9399,-90.7394"/>
<polygon fill="#191970" stroke="#191970" points="307.1749,-87.5955 297.2124,-91.2009 307.2488,-94.5951 307.1749,-87.5955"/>
</g>
<!-- Node94 -->
<g id="node6" class="node">
<title>Node94</title>
<g id="a_node6"><a xlink:href="class_application.html#a8f9f948d5439efe526f3219d85b29d7f" target="_top" xlink:title="Enregistre la liste des tags accéssibles à l&#39;utilisateur. ">
<polygon fill="#ffffff" stroke="#000000" points="517,-80.5 517,-99.5 668,-99.5 668,-80.5 517,-80.5"/>
<text text-anchor="middle" x="592.5" y="-87.5" font-family="Helvetica,sans-Serif" font-size="10.00" fill="#000000">Application::savePossibleTags</text>
</a>
</g>
</g>
<!-- Node93&#45;&gt;Node94 -->
<g id="edge5" class="edge">
<title>Node93&#45;&gt;Node94</title>
<path fill="none" stroke="#191970" d="M491.3939,-90C499.8392,-90 508.4057,-90 516.7958,-90"/>
<polygon fill="#191970" stroke="#191970" points="491.1727,-86.5001 481.1726,-90 491.1726,-93.5001 491.1727,-86.5001"/>
</g>
<!-- Node95 -->
<g id="node7" class="node">
<title>Node95</title>
<g id="a_node7"><a xlink:href="class_application.html#a748bca84fefb9c12661cfaa2f623748d" target="_top" xlink:title="Effectue une sauvegarde de la collection et enregistre les tags. ">
<polygon fill="#ffffff" stroke="#000000" points="704,-80.5 704,-99.5 829,-99.5 829,-80.5 704,-80.5"/>
<text text-anchor="middle" x="766.5" y="-87.5" font-family="Helvetica,sans-Serif" font-size="10.00" fill="#000000">Application::~Application</text>
</a>
</g>
</g>
<!-- Node94&#45;&gt;Node95 -->
<g id="edge6" class="edge">
<title>Node94&#45;&gt;Node95</title>
<path fill="none" stroke="#191970" d="M678.1685,-90C686.8039,-90 695.4568,-90 703.7867,-90"/>
<polygon fill="#191970" stroke="#191970" points="678.0598,-86.5001 668.0598,-90 678.0598,-93.5001 678.0598,-86.5001"/>
</g>
<!-- Node97 -->
<g id="node9" class="node">
<title>Node97</title>
<g id="a_node9"><a xlink:href="class_window_widget.html#ab7ed87b677d814d58e7f5aebefa7df70" target="_top" xlink:title="WindowWidget::actualSize">
<polygon fill="#ffffff" stroke="#000000" points="344,-535.5 344,-554.5 478,-554.5 478,-535.5 344,-535.5"/>
<text text-anchor="middle" x="411" y="-542.5" font-family="Helvetica,sans-Serif" font-size="10.00" fill="#000000">WindowWidget::actualSize</text>
</a>
</g>
</g>
<!-- Node96&#45;&gt;Node97 -->
<g id="edge8" class="edge">
<title>Node96&#45;&gt;Node97</title>
<path fill="none" stroke="#191970" d="M311.1437,-545C322.1913,-545 333.3316,-545 343.9618,-545"/>
<polygon fill="#191970" stroke="#191970" points="311.0414,-541.5001 301.0414,-545 311.0414,-548.5001 311.0414,-541.5001"/>
</g>
<!-- Node99 -->
<g id="node11" class="node">
<title>Node99</title>
<g id="a_node11"><a xlink:href="class_button_widget.html#a050618b949448e783b589ddd4ccfedf0" target="_top" xlink:title="ButtonWidget::actualSize">
<polygon fill="#ffffff" stroke="#000000" points="347,-486.5 347,-505.5 475,-505.5 475,-486.5 347,-486.5"/>
<text text-anchor="middle" x="411" y="-493.5" font-family="Helvetica,sans-Serif" font-size="10.00" fill="#000000">ButtonWidget::actualSize</text>
</a>
</g>
</g>
<!-- Node98&#45;&gt;Node99 -->
<g id="edge10" class="edge">
<title>Node98&#45;&gt;Node99</title>
<path fill="none" stroke="#191970" d="M308.1226,-496C321.1252,-496 334.3335,-496 346.7582,-496"/>
<polygon fill="#191970" stroke="#191970" points="307.7578,-492.5001 297.7578,-496 307.7577,-499.5001 307.7578,-492.5001"/>
</g>
<!-- Node101 -->
<g id="node13" class="node">
<title>Node101</title>
<g id="a_node13"><a xlink:href="class_grid_widget.html#abfc54e477706b66bd09f6f3c459fcfa4" target="_top" xlink:title="GridWidget::GridWidget">
<polygon fill="#ffffff" stroke="#000000" points="351,-228.5 351,-247.5 471,-247.5 471,-228.5 351,-228.5"/>
<text text-anchor="middle" x="411" y="-235.5" font-family="Helvetica,sans-Serif" font-size="10.00" fill="#000000">GridWidget::GridWidget</text>
</a>
</g>
</g>
<!-- Node100&#45;&gt;Node101 -->
<g id="edge12" class="edge">
<title>Node100&#45;&gt;Node101</title>
<path fill="none" stroke="#191970" d="M282.0309,-198.0383C289.765,-200.368 297.5715,-202.7317 305,-205 330.4386,-212.7677 359.2535,-221.7503 380.4126,-228.3807"/>
<polygon fill="#191970" stroke="#191970" points="282.8911,-194.6422 272.3068,-195.1153 280.876,-201.3459 282.8911,-194.6422"/>
</g>
<!-- Node107&#45;&gt;Node93 -->
<g id="edge19" class="edge">
<title>Node107&#45;&gt;Node93</title>
<path fill="none" stroke="#191970" d="M274.6073,-59.7705C304.0402,-66.2939 340.1657,-74.3006 367.8421,-80.4347"/>
<polygon fill="#191970" stroke="#191970" points="275.0209,-56.2773 264.5005,-57.5305 273.5062,-63.1115 275.0209,-56.2773"/>
</g>
<!-- Node109 -->
<g id="node21" class="node">
<title>Node109</title>
<g id="a_node21"><a xlink:href="class_button_widget.html#a5239cdc7bf6ea60722aa0620611be239" target="_top" xlink:title="ButtonWidget::isColored">
<polygon fill="#ffffff" stroke="#000000" points="349.5,-126.5 349.5,-145.5 472.5,-145.5 472.5,-126.5 349.5,-126.5"/>
<text text-anchor="middle" x="411" y="-133.5" font-family="Helvetica,sans-Serif" font-size="10.00" fill="#000000">ButtonWidget::isColored</text>
</a>
</g>
</g>
<!-- Node108&#45;&gt;Node109 -->
<g id="edge21" class="edge">
<title>Node108&#45;&gt;Node109</title>
<path fill="none" stroke="#191970" d="M301.6158,-136C317.5348,-136 334.0185,-136 349.2108,-136"/>
<polygon fill="#191970" stroke="#191970" points="301.2555,-132.5001 291.2555,-136 301.2555,-139.5001 301.2555,-132.5001"/>
</g>
<!-- Node111 -->
<g id="node23" class="node">
<title>Node111</title>
<g id="a_node23"><a xlink:href="class_window_widget.html#abdbf63bb8a663c46bfdd2c117aa55e4d" target="_top" xlink:title="WindowWidget::close">
<polygon fill="#ffffff" stroke="#000000" points="355,-325.5 355,-344.5 467,-344.5 467,-325.5 355,-325.5"/>
<text text-anchor="middle" x="411" y="-332.5" font-family="Helvetica,sans-Serif" font-size="10.00" fill="#000000">WindowWidget::close</text>
</a>
</g>
</g>
<!-- Node110&#45;&gt;Node111 -->
<g id="edge23" class="edge">
<title>Node110&#45;&gt;Node111</title>
<path fill="none" stroke="#191970" d="M290.8298,-439.2526C295.7361,-437.4373 300.5116,-435.3651 305,-433 348.6801,-409.9831 387.9047,-364.3572 403.6647,-344.549"/>
<polygon fill="#191970" stroke="#191970" points="289.6553,-435.9547 281.2746,-442.4365 291.8682,-442.5958 289.6553,-435.9547"/>
</g>
<!-- Node111&#45;&gt;Node94 -->
<g id="edge24" class="edge">
<title>Node111&#45;&gt;Node94</title>
<path fill="none" stroke="#191970" d="M427.506,-318.0454C442.1813,-302.6441 463.8992,-279.032 481,-257 525.2469,-199.9937 570.8396,-125.9887 586.6721,-99.7472"/>
<polygon fill="#191970" stroke="#191970" points="424.9409,-315.6634 420.5355,-325.299 429.9882,-320.5137 424.9409,-315.6634"/>
</g>
<!-- Node112&#45;&gt;Node101 -->
<g id="edge26" class="edge">
<title>Node112&#45;&gt;Node101</title>
<path fill="none" stroke="#191970" d="M295.0182,-401.631C298.5537,-399.7131 301.9109,-397.5158 305,-395 334.918,-370.634 319.8711,-348.2856 341,-316 358.7353,-288.9 385.6496,-261.7761 400.4041,-247.7633"/>
<polygon fill="#191970" stroke="#191970" points="293.5188,-398.4682 285.9142,-405.8452 296.4594,-404.8207 293.5188,-398.4682"/>
</g>
<!-- Node113&#45;&gt;Node94 -->
<g id="edge29" class="edge">
<title>Node113&#45;&gt;Node94</title>
<path fill="none" stroke="#191970" d="M275.913,-21.7333C349.7498,-37.655 480.2566,-65.7966 548.3545,-80.4807"/>
<polygon fill="#191970" stroke="#191970" points="276.3959,-18.257 265.8828,-19.5704 274.9203,-25.0997 276.3959,-18.257"/>
</g>
<!-- Node114 -->
<g id="node26" class="node">
<title>Node114</title>
<g id="a_node26"><a xlink:href="class_window_widget.html#aaeb6c16306f82469d443182594a8ef8e" target="_top" xlink:title="WindowWidget::display">
<polygon fill="#ffffff" stroke="#000000" points="351.5,-.5 351.5,-19.5 470.5,-19.5 470.5,-.5 351.5,-.5"/>
<text text-anchor="middle" x="411" y="-7.5" font-family="Helvetica,sans-Serif" font-size="10.00" fill="#000000">WindowWidget::display</text>
</a>
</g>
</g>
<!-- Node113&#45;&gt;Node114 -->
<g id="edge30" class="edge">
<title>Node113&#45;&gt;Node114</title>
<path fill="none" stroke="#191970" d="M300.6332,-10C317.5936,-10 335.2405,-10 351.3189,-10"/>
<polygon fill="#191970" stroke="#191970" points="300.1818,-6.5001 290.1818,-10 300.1817,-13.5001 300.1818,-6.5001"/>
</g>
<!-- Node115 -->
<g id="node27" class="node">
<title>Node115</title>
<g id="a_node27"><a xlink:href="class_application.html#a81d5b51e54511185c84ee300e752a85f" target="_top" xlink:title="Lance l&#39;application. ">
<polygon fill="#ffffff" stroke="#000000" points="540,-.5 540,-19.5 645,-19.5 645,-.5 540,-.5"/>
<text text-anchor="middle" x="592.5" y="-7.5" font-family="Helvetica,sans-Serif" font-size="10.00" fill="#000000">Application::execute</text>
</a>
</g>
</g>
<!-- Node114&#45;&gt;Node115 -->
<g id="edge31" class="edge">
<title>Node114&#45;&gt;Node115</title>
<path fill="none" stroke="#191970" d="M480.787,-10C500.3927,-10 521.3792,-10 539.8084,-10"/>
<polygon fill="#191970" stroke="#191970" points="480.6813,-6.5001 470.6813,-10 480.6812,-13.5001 480.6813,-6.5001"/>
</g>
<!-- Node116 -->
<g id="node28" class="node">
<title>Node116</title>
<g id="a_node28"><a xlink:href="main_8cpp.html#adc4096c0dfd003425c219daa30db4e1e" target="_top" xlink:title="main">
<polygon fill="#ffffff" stroke="#000000" points="747.5,-.5 747.5,-19.5 785.5,-19.5 785.5,-.5 747.5,-.5"/>
<text text-anchor="middle" x="766.5" y="-7.5" font-family="Helvetica,sans-Serif" font-size="10.00" fill="#000000">main</text>
</a>
</g>
</g>
<!-- Node115&#45;&gt;Node116 -->
<g id="edge32" class="edge">
<title>Node115&#45;&gt;Node116</title>
<path fill="none" stroke="#191970" d="M655.5385,-10C688.0518,-10 725.4076,-10 747.4242,-10"/>
<polygon fill="#191970" stroke="#191970" points="655.178,-6.5001 645.1779,-10 655.1779,-13.5001 655.178,-6.5001"/>
</g>
</g>
</svg>
        <g id="navigator" transform="translate(0 0)" fill="#404254">
                <rect fill="#f2f5e9" fill-opacity="0.5" stroke="#606060" stroke-width=".5" x="0" y="0" width="60" height="60"/>
                <use id="zoomplus" xlink:href="#zoomPlus" x="17" y="9" onmousedown="handleZoom(evt,'in')"/>
                <use id="zoomminus" xlink:href="#zoomMin" x="42" y="9" onmousedown="handleZoom(evt,'out')"/>
                <use id="reset" xlink:href="#resetDef" x="30" y="36" onmousedown="handleReset()"/>
                <g id="arrowUp" xlink:href="#dirArrow" transform="translate(30 24)" onmousedown="handlePan(0,-1)">
                  <use xlink:href="#rim" fill="#404040">
                        <set attributeName="fill" to="#808080" begin="arrowUp.mouseover" end="arrowUp.mouseout"/>
                  </use>
                  <path fill="none" stroke="white" stroke-width="1.5" d="M0,-3.0v7 M-2.5,-0.5L0,-3.0L2.5,-0.5"/>
                </g>
                <g id="arrowRight" xlink:href="#dirArrow" transform="rotate(90) translate(36 -43)" onmousedown="handlePan(1,0)">
                  <use xlink:href="#rim" fill="#404040">
                        <set attributeName="fill" to="#808080" begin="arrowRight.mouseover" end="arrowRight.mouseout"/>
                  </use>
                  <path fill="none" stroke="white" stroke-width="1.5" d="M0,-3.0v7 M-2.5,-0.5L0,-3.0L2.5,-0.5"/>
                </g>
                <g id="arrowDown" xlink:href="#dirArrow" transform="rotate(180) translate(-30 -48)" onmousedown="handlePan(0,1)">
                  <use xlink:href="#rim" fill="#404040">
                        <set attributeName="fill" to="#808080" begin="arrowDown.mouseover" end="arrowDown.mouseout"/>
                  </use>
                  <path fill="none" stroke="white" stroke-width="1.5" d="M0,-3.0v7 M-2.5,-0.5L0,-3.0L2.5,-0.5"/>
                </g>
                <g id="arrowLeft" xlink:href="#dirArrow" transform="rotate(270) translate(-36 17)" onmousedown="handlePan(-1,0)">
                  <use xlink:href="#rim" fill="#404040">
                        <set attributeName="fill" to="#808080" begin="arrowLeft.mouseover" end="arrowLeft.mouseout"/>
                  </use>
                  <path fill="none" stroke="white" stroke-width="1.5" d="M0,-3.0v7 M-2.5,-0.5L0,-3.0L2.5,-0.5"/>
                </g>
        </g>
        <svg viewBox="0 0 15 15" width="100%" height="30px" preserveAspectRatio="xMaxYMin meet">
         <g id="arrow_out" transform="scale(0.3 0.3)">
          <a xlink:href="class_widget_a210d4c8e3ea02cb777c6e3ad7fdc22b3_icgraph_org.svg" target="_base">
           <rect id="button" ry="5" rx="5" y="6" x="6" height="38" width="38"
                fill="#f2f5e9" fill-opacity="0.5" stroke="#606060" stroke-width="1.0"/>
           <path id="arrow"
             d="M 11.500037,31.436501 C 11.940474,20.09759 22.043105,11.32322 32.158766,21.979434 L 37.068811,17.246167 C 37.068811,17.246167 37.088388,32 37.088388,32 L 22.160133,31.978069 C 22.160133,31.978069 26.997745,27.140456 26.997745,27.140456 C 18.528582,18.264221 13.291696,25.230495 11.500037,31.436501 z"
             style="fill:#404040;"/>
          </a>
         </g>
        </svg>
</svg>
