<?xml version="1.0" encoding="UTF-8" standalone="no"?>
<!DOCTYPE svg PUBLIC "-//W3C//DTD SVG 1.1//EN"
 "http://www.w3.org/Graphics/SVG/1.1/DTD/svg11.dtd">
<!-- Generated by graphviz version 2.40.1 (20161225.0304)
 -->
<!-- Title: IteratorBase::operator== Pages: 1 -->
<svg width="290pt" height="218pt"
 viewBox="0.00 0.00 290.00 218.00" xmlns="http://www.w3.org/2000/svg" xmlns:xlink="http://www.w3.org/1999/xlink">
<g id="graph0" class="graph" transform="scale(1 1) rotate(0) translate(4 214)">
<title>IteratorBase::operator==</title>
<polygon fill="#ffffff" stroke="transparent" points="-4,4 -4,-214 286,-214 286,4 -4,4"/>
<!-- Node32 -->
<g id="node1" class="node">
<title>Node32</title>
<polygon fill="#bfbfbf" stroke="#000000" points="0,-95.5 0,-114.5 123,-114.5 123,-95.5 0,-95.5"/>
<text text-anchor="middle" x="61.5" y="-102.5" font-family="Helvetica,sans-Serif" font-size="10.00" fill="#000000">IteratorBase::operator==</text>
</g>
<!-- Node33 -->
<g id="node2" class="node">
<title>Node33</title>
<g id="a_node2"><a xlink:href="class_iterator_base.html#a541fdf8cc48f31c8ddfdc3f319a37100" target="_top" xlink:title="IteratorBase::clone">
<polygon fill="#ffffff" stroke="#000000" points="171,-190.5 171,-209.5 270,-209.5 270,-190.5 171,-190.5"/>
<text text-anchor="middle" x="220.5" y="-197.5" font-family="Helvetica,sans-Serif" font-size="10.00" fill="#000000">IteratorBase::clone</text>
</a>
</g>
</g>
<!-- Node32&#45;&gt;Node33 -->
<g id="edge1" class="edge">
<title>Node32&#45;&gt;Node33</title>
<path fill="none" stroke="#191970" d="M71.1762,-114.5414C87.7943,-130.4403 123.4175,-162.4358 159,-181 163.2355,-183.2098 167.7715,-185.2114 172.3894,-187.0127"/>
<polygon fill="#191970" stroke="#191970" points="171.3189,-190.347 181.9134,-190.4313 173.6839,-183.7586 171.3189,-190.347"/>
</g>
<!-- Node34 -->
<g id="node3" class="node">
<title>Node34</title>
<g id="a_node3"><a xlink:href="class_iterator_base.html#a08430515a17384d098eb62ecce1b64c6" target="_top" xlink:title="IteratorBase::equal">
<polygon fill="#ffffff" stroke="#000000" points="171,-152.5 171,-171.5 270,-171.5 270,-152.5 171,-152.5"/>
<text text-anchor="middle" x="220.5" y="-159.5" font-family="Helvetica,sans-Serif" font-size="10.00" fill="#000000">IteratorBase::equal</text>
</a>
</g>
</g>
<!-- Node32&#45;&gt;Node34 -->
<g id="edge2" class="edge">
<title>Node32&#45;&gt;Node34</title>
<path fill="none" stroke="#191970" d="M84.5712,-114.5332C104.2181,-122.5208 133.2697,-134.0243 159,-143 165.1627,-145.1498 171.7146,-147.3076 178.1573,-149.3579"/>
<polygon fill="#191970" stroke="#191970" points="177.5311,-152.8292 188.12,-152.4747 179.6212,-146.1485 177.5311,-152.8292"/>
</g>
<!-- Node35 -->
<g id="node4" class="node">
<title>Node35</title>
<g id="a_node4"><a xlink:href="class_iterator_base.html#a532583e58bce168648bdbdedb3a7d5ab" target="_top" xlink:title="IteratorBase::operator*">
<polygon fill="#ffffff" stroke="#000000" points="163,-114.5 163,-133.5 278,-133.5 278,-114.5 163,-114.5"/>
<text text-anchor="middle" x="220.5" y="-121.5" font-family="Helvetica,sans-Serif" font-size="10.00" fill="#000000">IteratorBase::operator*</text>
</a>
</g>
</g>
<!-- Node32&#45;&gt;Node35 -->
<g id="edge3" class="edge">
<title>Node32&#45;&gt;Node35</title>
<path fill="none" stroke="#191970" d="M123.4288,-112.4003C133.0715,-113.5526 143.0773,-114.7482 152.8394,-115.9148"/>
<polygon fill="#191970" stroke="#191970" points="152.5542,-119.4055 162.8989,-117.1168 153.3849,-112.455 152.5542,-119.4055"/>
</g>
<!-- Node36 -->
<g id="node5" class="node">
<title>Node36</title>
<g id="a_node5"><a xlink:href="class_iterator_base.html#a816f35e9020716d212124a34f1c033fb" target="_top" xlink:title="IteratorBase::operator++">
<polygon fill="#ffffff" stroke="#000000" points="159,-76.5 159,-95.5 282,-95.5 282,-76.5 159,-76.5"/>
<text text-anchor="middle" x="220.5" y="-83.5" font-family="Helvetica,sans-Serif" font-size="10.00" fill="#000000">IteratorBase::operator++</text>
</a>
</g>
</g>
<!-- Node32&#45;&gt;Node36 -->
<g id="edge4" class="edge">
<title>Node32&#45;&gt;Node36</title>
<path fill="none" stroke="#191970" d="M123.4288,-97.5997C131.6737,-96.6145 140.1839,-95.5975 148.5803,-94.5942"/>
<polygon fill="#191970" stroke="#191970" points="149.2261,-98.042 158.7402,-93.3801 148.3955,-91.0914 149.2261,-98.042"/>
</g>
<!-- Node37 -->
<g id="node6" class="node">
<title>Node37</title>
<g id="a_node6"><a xlink:href="class_iterator_base.html#aa9bf0f75a8bb7e4d416a9b88ccacd9c7" target="_top" xlink:title="IteratorBase::operator&#45;&#45;">
<polygon fill="#ffffff" stroke="#000000" points="162,-38.5 162,-57.5 279,-57.5 279,-38.5 162,-38.5"/>
<text text-anchor="middle" x="220.5" y="-45.5" font-family="Helvetica,sans-Serif" font-size="10.00" fill="#000000">IteratorBase::operator&#45;&#45;</text>
</a>
</g>
</g>
<!-- Node32&#45;&gt;Node37 -->
<g id="edge5" class="edge">
<title>Node32&#45;&gt;Node37</title>
<path fill="none" stroke="#191970" d="M84.5712,-95.4668C104.2181,-87.4792 133.2697,-75.9757 159,-67 165.1627,-64.8502 171.7146,-62.6924 178.1573,-60.6421"/>
<polygon fill="#191970" stroke="#191970" points="179.6212,-63.8515 188.12,-57.5253 177.5311,-57.1708 179.6212,-63.8515"/>
</g>
<!-- Node38 -->
<g id="node7" class="node">
<title>Node38</title>
<g id="a_node7"><a xlink:href="class_iterator_base.html#aad2254f7877e4647f699ceb455e893ff" target="_top" xlink:title="IteratorBase::operator&#45;\&gt;">
<polygon fill="#ffffff" stroke="#000000" points="160.5,-.5 160.5,-19.5 280.5,-19.5 280.5,-.5 160.5,-.5"/>
<text text-anchor="middle" x="220.5" y="-7.5" font-family="Helvetica,sans-Serif" font-size="10.00" fill="#000000">IteratorBase::operator&#45;&gt;</text>
</a>
</g>
</g>
<!-- Node32&#45;&gt;Node38 -->
<g id="edge6" class="edge">
<title>Node32&#45;&gt;Node38</title>
<path fill="none" stroke="#191970" d="M71.1762,-95.4586C87.7943,-79.5597 123.4175,-47.5642 159,-29 163.2355,-26.7902 167.7715,-24.7886 172.3894,-22.9873"/>
<polygon fill="#191970" stroke="#191970" points="173.6839,-26.2414 181.9134,-19.5687 171.3189,-19.653 173.6839,-26.2414"/>
</g>
</g>
</svg>
