<?xml version="1.0" encoding="UTF-8" standalone="no"?>
<!DOCTYPE svg PUBLIC "-//W3C//DTD SVG 1.1//EN"
 "http://www.w3.org/Graphics/SVG/1.1/DTD/svg11.dtd">
<!-- Generated by graphviz version 2.40.1 (20161225.0304)
 -->
<!-- Title: CollectionPool::push_back Pages: 1 -->
<svg width="363pt" height="66pt"
 viewBox="0.00 0.00 363.00 66.00" xmlns="http://www.w3.org/2000/svg" xmlns:xlink="http://www.w3.org/1999/xlink">
<g id="graph0" class="graph" transform="scale(1 1) rotate(0) translate(4 62)">
<title>CollectionPool::push_back</title>
<polygon fill="#ffffff" stroke="transparent" points="-4,4 -4,-62 359,-62 359,4 -4,4"/>
<!-- Node17 -->
<g id="node1" class="node">
<title>Node17</title>
<polygon fill="#bfbfbf" stroke="#000000" points="0,-19.5 0,-38.5 133,-38.5 133,-19.5 0,-19.5"/>
<text text-anchor="middle" x="66.5" y="-26.5" font-family="Helvetica,sans-Serif" font-size="10.00" fill="#000000">CollectionPool::push_back</text>
</g>
<!-- Node18 -->
<g id="node2" class="node">
<title>Node18</title>
<g id="a_node2"><a xlink:href="main_8cpp.html#afd1494ba2ddabdc117d066157e838462" target="_top" xlink:title="getPoolFromDirectory">
<polygon fill="#ffffff" stroke="#000000" points="169,-38.5 169,-57.5 281,-57.5 281,-38.5 169,-38.5"/>
<text text-anchor="middle" x="225" y="-45.5" font-family="Helvetica,sans-Serif" font-size="10.00" fill="#000000">getPoolFromDirectory</text>
</a>
</g>
</g>
<!-- Node17&#45;&gt;Node18 -->
<g id="edge1" class="edge">
<title>Node17&#45;&gt;Node18</title>
<path fill="none" stroke="#191970" d="M143.3189,-38.2086C151.9243,-39.2401 160.5679,-40.2763 168.8435,-41.2683"/>
<polygon fill="#191970" stroke="#191970" points="143.6044,-34.7178 133.2589,-37.0026 142.7712,-41.6681 143.6044,-34.7178"/>
</g>
<!-- Node20 -->
<g id="node4" class="node">
<title>Node20</title>
<g id="a_node4"><a xlink:href="main_8cpp.html#addb7c669fb11a52b3d2dd9e221fdea2f" target="_top" xlink:title="getPoolFromSave">
<polygon fill="#ffffff" stroke="#000000" points="177.5,-.5 177.5,-19.5 272.5,-19.5 272.5,-.5 177.5,-.5"/>
<text text-anchor="middle" x="225" y="-7.5" font-family="Helvetica,sans-Serif" font-size="10.00" fill="#000000">getPoolFromSave</text>
</a>
</g>
</g>
<!-- Node17&#45;&gt;Node20 -->
<g id="edge3" class="edge">
<title>Node17&#45;&gt;Node20</title>
<path fill="none" stroke="#191970" d="M143.331,-19.79C154.84,-18.4103 166.4172,-17.0225 177.0903,-15.7431"/>
<polygon fill="#191970" stroke="#191970" points="142.7712,-16.3319 133.2589,-20.9974 143.6044,-23.2822 142.7712,-16.3319"/>
</g>
<!-- Node19 -->
<g id="node3" class="node">
<title>Node19</title>
<g id="a_node3"><a xlink:href="main_8cpp.html#ae66f6b31b5ad750f1fe042a706a4e3d4" target="_top" xlink:title="main">
<polygon fill="#ffffff" stroke="#000000" points="317,-19.5 317,-38.5 355,-38.5 355,-19.5 317,-19.5"/>
<text text-anchor="middle" x="336" y="-26.5" font-family="Helvetica,sans-Serif" font-size="10.00" fill="#000000">main</text>
</a>
</g>
</g>
<!-- Node18&#45;&gt;Node19 -->
<g id="edge2" class="edge">
<title>Node18&#45;&gt;Node19</title>
<path fill="none" stroke="#191970" d="M290.7934,-36.7381C300.2613,-35.1174 309.3151,-33.5677 316.7999,-32.2865"/>
<polygon fill="#191970" stroke="#191970" points="290.0913,-33.3073 280.8252,-38.4443 291.2724,-40.2069 290.0913,-33.3073"/>
</g>
<!-- Node20&#45;&gt;Node19 -->
<g id="edge4" class="edge">
<title>Node20&#45;&gt;Node19</title>
<path fill="none" stroke="#191970" d="M282.5984,-19.8592C294.9394,-21.9716 307.1419,-24.0603 316.7603,-25.7067"/>
<polygon fill="#191970" stroke="#191970" points="283.1654,-16.4054 272.7182,-18.168 281.9843,-23.3051 283.1654,-16.4054"/>
</g>
</g>
</svg>
