<?xml version="1.0" encoding="UTF-8" standalone="no"?>
<!DOCTYPE svg PUBLIC "-//W3C//DTD SVG 1.1//EN"
 "http://www.w3.org/Graphics/SVG/1.1/DTD/svg11.dtd">
<!-- Generated by graphviz version 2.40.1 (20161225.0304)
 -->
<!-- Title: Image::getPath Pages: 1 -->
<svg width="201pt" height="66pt"
 viewBox="0.00 0.00 201.00 66.00" xmlns="http://www.w3.org/2000/svg" xmlns:xlink="http://www.w3.org/1999/xlink">
<g id="graph0" class="graph" transform="scale(1 1) rotate(0) translate(4 62)">
<title>Image::getPath</title>
<polygon fill="#ffffff" stroke="transparent" points="-4,4 -4,-62 197,-62 197,4 -4,4"/>
<!-- Node9 -->
<g id="node1" class="node">
<title>Node9</title>
<polygon fill="#bfbfbf" stroke="#000000" points="0,-19.5 0,-38.5 83,-38.5 83,-19.5 0,-19.5"/>
<text text-anchor="middle" x="41.5" y="-26.5" font-family="Helvetica,sans-Serif" font-size="10.00" fill="#000000">Image::getPath</text>
</g>
<!-- Node10 -->
<g id="node2" class="node">
<title>Node10</title>
<g id="a_node2"><a xlink:href="_image_8cpp.html#a2d6d264c420ab6eecf731ead84a8eb99" target="_top" xlink:title="operator\&lt;\&lt;">
<polygon fill="#ffffff" stroke="#000000" points="124,-38.5 124,-57.5 188,-57.5 188,-38.5 124,-38.5"/>
<text text-anchor="middle" x="156" y="-45.5" font-family="Helvetica,sans-Serif" font-size="10.00" fill="#000000">operator&lt;&lt;</text>
</a>
</g>
</g>
<!-- Node9&#45;&gt;Node10 -->
<g id="edge1" class="edge">
<title>Node9&#45;&gt;Node10</title>
<path fill="none" stroke="#191970" d="M93.0886,-37.5606C103.5735,-39.3004 114.3141,-41.0827 123.8852,-42.6709"/>
<polygon fill="#191970" stroke="#191970" points="93.5991,-34.0975 83.161,-35.9132 92.4531,-41.0031 93.5991,-34.0975"/>
</g>
<!-- Node11 -->
<g id="node3" class="node">
<title>Node11</title>
<g id="a_node3"><a xlink:href="save_8hpp.html#acf9e210cbc04992e5f26938c940a95e0" target="_top" xlink:title="updateCollec">
<polygon fill="#ffffff" stroke="#000000" points="119,-.5 119,-19.5 193,-19.5 193,-.5 119,-.5"/>
<text text-anchor="middle" x="156" y="-7.5" font-family="Helvetica,sans-Serif" font-size="10.00" fill="#000000">updateCollec</text>
</a>
</g>
</g>
<!-- Node9&#45;&gt;Node11 -->
<g id="edge2" class="edge">
<title>Node9&#45;&gt;Node11</title>
<path fill="none" stroke="#191970" d="M93.1535,-20.4287C101.7728,-18.9984 110.563,-17.5398 118.7324,-16.1841"/>
<polygon fill="#191970" stroke="#191970" points="92.4531,-16.9969 83.161,-22.0868 93.5991,-23.9025 92.4531,-16.9969"/>
</g>
</g>
</svg>
