<?xml version="1.0" encoding="UTF-8" standalone="no"?>
<!DOCTYPE svg PUBLIC "-//W3C//DTD SVG 1.1//EN"
 "http://www.w3.org/Graphics/SVG/1.1/DTD/svg11.dtd">
<!-- Generated by graphviz version 2.40.1 (20161225.0304)
 -->
<!-- Title: WindowWidget::manageEvents Pages: 1 -->
<svg width="505pt" height="66pt"
 viewBox="0.00 0.00 505.00 66.00" xmlns="http://www.w3.org/2000/svg" xmlns:xlink="http://www.w3.org/1999/xlink">
<g id="graph0" class="graph" transform="scale(1 1) rotate(0) translate(4 62)">
<title>WindowWidget::manageEvents</title>
<polygon fill="#ffffff" stroke="transparent" points="-4,4 -4,-62 501,-62 501,4 -4,4"/>
<!-- Node54 -->
<g id="node1" class="node">
<title>Node54</title>
<polygon fill="#bfbfbf" stroke="#000000" points="0,-19.5 0,-38.5 154,-38.5 154,-19.5 0,-19.5"/>
<text text-anchor="middle" x="77" y="-26.5" font-family="Helvetica,sans-Serif" font-size="10.00" fill="#000000">WindowWidget::manageEvents</text>
</g>
<!-- Node55 -->
<g id="node2" class="node">
<title>Node55</title>
<g id="a_node2"><a xlink:href="class_widget.html#aa36c39c4ce428813dcbb13060b5d8ab0" target="_top" xlink:title="Widget::propagateEvent">
<polygon fill="#ffffff" stroke="#000000" points="190,-38.5 190,-57.5 312,-57.5 312,-38.5 190,-38.5"/>
<text text-anchor="middle" x="251" y="-45.5" font-family="Helvetica,sans-Serif" font-size="10.00" fill="#000000">Widget::propagateEvent</text>
</a>
</g>
</g>
<!-- Node54&#45;&gt;Node55 -->
<g id="edge1" class="edge">
<title>Node54&#45;&gt;Node55</title>
<path fill="none" stroke="#191970" d="M154.0788,-37.4167C162.6094,-38.3482 171.2689,-39.2937 179.7235,-40.2169"/>
<polygon fill="#191970" stroke="#191970" points="179.5913,-43.7232 189.9122,-41.3295 180.3512,-36.7646 179.5913,-43.7232"/>
</g>
<!-- Node57 -->
<g id="node4" class="node">
<title>Node57</title>
<g id="a_node4"><a xlink:href="class_widget.html#a0809c3a396f9d1cedb1446d7b0750ef2" target="_top" xlink:title="Widget::resize">
<polygon fill="#ffffff" stroke="#000000" points="211,-.5 211,-19.5 291,-19.5 291,-.5 211,-.5"/>
<text text-anchor="middle" x="251" y="-7.5" font-family="Helvetica,sans-Serif" font-size="10.00" fill="#000000">Widget::resize</text>
</a>
</g>
</g>
<!-- Node54&#45;&gt;Node57 -->
<g id="edge3" class="edge">
<title>Node54&#45;&gt;Node57</title>
<path fill="none" stroke="#191970" d="M154.0788,-20.5833C169.8787,-18.8581 186.1209,-17.0845 200.6842,-15.4943"/>
<polygon fill="#191970" stroke="#191970" points="201.4005,-18.9369 210.9615,-14.372 200.6406,-11.9783 201.4005,-18.9369"/>
</g>
<!-- Node56 -->
<g id="node3" class="node">
<title>Node56</title>
<g id="a_node3"><a xlink:href="class_widget.html#a92906f698fd94c2f777e46c1480967fc" target="_top" xlink:title="Widget::actualPropagateEvent">
<polygon fill="#ffffff" stroke="#000000" points="348,-38.5 348,-57.5 497,-57.5 497,-38.5 348,-38.5"/>
<text text-anchor="middle" x="422.5" y="-45.5" font-family="Helvetica,sans-Serif" font-size="10.00" fill="#000000">Widget::actualPropagateEvent</text>
</a>
</g>
</g>
<!-- Node55&#45;&gt;Node56 -->
<g id="edge2" class="edge">
<title>Node55&#45;&gt;Node56</title>
<path fill="none" stroke="#191970" d="M312.431,-48C320.5624,-48 329.0118,-48 337.4521,-48"/>
<polygon fill="#191970" stroke="#191970" points="337.721,-51.5001 347.721,-48 337.7209,-44.5001 337.721,-51.5001"/>
</g>
<!-- Node58 -->
<g id="node5" class="node">
<title>Node58</title>
<g id="a_node5"><a xlink:href="class_widget.html#a1a3ac9ff4f7c19c19a9886219b6dda2e" target="_top" xlink:title="Widget::actualResize">
<polygon fill="#ffffff" stroke="#000000" points="367.5,-.5 367.5,-19.5 477.5,-19.5 477.5,-.5 367.5,-.5"/>
<text text-anchor="middle" x="422.5" y="-7.5" font-family="Helvetica,sans-Serif" font-size="10.00" fill="#000000">Widget::actualResize</text>
</a>
</g>
</g>
<!-- Node57&#45;&gt;Node58 -->
<g id="edge4" class="edge">
<title>Node57&#45;&gt;Node58</title>
<path fill="none" stroke="#191970" d="M291.2091,-10C310.87,-10 335.0305,-10 357.2425,-10"/>
<polygon fill="#191970" stroke="#191970" points="357.2877,-13.5001 367.2877,-10 357.2877,-6.5001 357.2877,-13.5001"/>
</g>
</g>
</svg>
