<?xml version="1.0" encoding="UTF-8" standalone="no"?>
<!DOCTYPE svg PUBLIC "-//W3C//DTD SVG 1.1//EN"
 "http://www.w3.org/Graphics/SVG/1.1/DTD/svg11.dtd">
<!-- Generated by graphviz version 2.40.1 (20161225.0304)
 -->
<!-- Title: ImageWidget::actualRender Pages: 1 -->
<svg width="424pt" height="104pt"
 viewBox="0.00 0.00 424.00 104.00" xmlns="http://www.w3.org/2000/svg" xmlns:xlink="http://www.w3.org/1999/xlink">
<g id="graph0" class="graph" transform="scale(1 1) rotate(0) translate(4 100)">
<title>ImageWidget::actualRender</title>
<polygon fill="#ffffff" stroke="transparent" points="-4,4 -4,-100 420,-100 420,4 -4,4"/>
<!-- Node10 -->
<g id="node1" class="node">
<title>Node10</title>
<polygon fill="#bfbfbf" stroke="#000000" points="0,-38.5 0,-57.5 138,-57.5 138,-38.5 0,-38.5"/>
<text text-anchor="middle" x="69" y="-45.5" font-family="Helvetica,sans-Serif" font-size="10.00" fill="#000000">ImageWidget::actualRender</text>
</g>
<!-- Node11 -->
<g id="node2" class="node">
<title>Node11</title>
<g id="a_node2"><a xlink:href="class_image.html#a657a199518956ca160b1100c2147b41d" target="_top" xlink:title="Image::getImgPtr">
<polygon fill="#ffffff" stroke="#000000" points="175.5,-76.5 175.5,-95.5 267.5,-95.5 267.5,-76.5 175.5,-76.5"/>
<text text-anchor="middle" x="221.5" y="-83.5" font-family="Helvetica,sans-Serif" font-size="10.00" fill="#000000">Image::getImgPtr</text>
</a>
</g>
</g>
<!-- Node10&#45;&gt;Node11 -->
<g id="edge1" class="edge">
<title>Node10&#45;&gt;Node11</title>
<path fill="none" stroke="#191970" d="M107.4822,-57.589C127.5156,-62.5809 152.2023,-68.7324 173.476,-74.0334"/>
<polygon fill="#191970" stroke="#191970" points="172.745,-77.4582 183.2945,-76.4799 174.4375,-70.6659 172.745,-77.4582"/>
</g>
<!-- Node12 -->
<g id="node3" class="node">
<title>Node12</title>
<g id="a_node3"><a xlink:href="class_image.html#aa0342748b3c981c6c06e0bf82a397895" target="_top" xlink:title="Image::isSelected">
<polygon fill="#ffffff" stroke="#000000" points="174,-38.5 174,-57.5 269,-57.5 269,-38.5 174,-38.5"/>
<text text-anchor="middle" x="221.5" y="-45.5" font-family="Helvetica,sans-Serif" font-size="10.00" fill="#000000">Image::isSelected</text>
</a>
</g>
</g>
<!-- Node10&#45;&gt;Node12 -->
<g id="edge2" class="edge">
<title>Node10&#45;&gt;Node12</title>
<path fill="none" stroke="#191970" d="M138.1109,-48C146.5335,-48 155.0732,-48 163.3143,-48"/>
<polygon fill="#191970" stroke="#191970" points="163.562,-51.5001 173.5619,-48 163.5619,-44.5001 163.562,-51.5001"/>
</g>
<!-- Node13 -->
<g id="node4" class="node">
<title>Node13</title>
<g id="a_node4"><a xlink:href="class_widget.html#a2516fd56cac645cb3aacef37937c49d3" target="_top" xlink:title="Widget::render">
<polygon fill="#ffffff" stroke="#000000" points="181.5,-.5 181.5,-19.5 261.5,-19.5 261.5,-.5 181.5,-.5"/>
<text text-anchor="middle" x="221.5" y="-7.5" font-family="Helvetica,sans-Serif" font-size="10.00" fill="#000000">Widget::render</text>
</a>
</g>
</g>
<!-- Node10&#45;&gt;Node13 -->
<g id="edge3" class="edge">
<title>Node10&#45;&gt;Node13</title>
<path fill="none" stroke="#191970" d="M107.4822,-38.411C127.5156,-33.4191 152.2023,-27.2676 173.476,-21.9666"/>
<polygon fill="#191970" stroke="#191970" points="174.4375,-25.3341 183.2945,-19.5201 172.745,-18.5418 174.4375,-25.3341"/>
</g>
<!-- Node14 -->
<g id="node5" class="node">
<title>Node14</title>
<g id="a_node5"><a xlink:href="class_widget.html#a5ff4883144670b8c93b41e440e3d4446" target="_top" xlink:title="Widget::actualRender">
<polygon fill="#ffffff" stroke="#000000" points="305,-.5 305,-19.5 416,-19.5 416,-.5 305,-.5"/>
<text text-anchor="middle" x="360.5" y="-7.5" font-family="Helvetica,sans-Serif" font-size="10.00" fill="#000000">Widget::actualRender</text>
</a>
</g>
</g>
<!-- Node13&#45;&gt;Node14 -->
<g id="edge4" class="edge">
<title>Node13&#45;&gt;Node14</title>
<path fill="none" stroke="#191970" d="M261.7046,-10C272.0177,-10 283.3842,-10 294.624,-10"/>
<polygon fill="#191970" stroke="#191970" points="294.8768,-13.5001 304.8768,-10 294.8768,-6.5001 294.8768,-13.5001"/>
</g>
</g>
</svg>
