<?xml version="1.0" encoding="UTF-8" standalone="no"?>
<!DOCTYPE svg PUBLIC "-//W3C//DTD SVG 1.1//EN"
 "http://www.w3.org/Graphics/SVG/1.1/DTD/svg11.dtd">
<!-- Generated by graphviz version 2.40.1 (20161225.0304)
 -->
<!-- Title: Widget::actualSize Pages: 1 -->
<!--zoomable 632 -->
<svg id="main" version="1.1" xmlns="http://www.w3.org/2000/svg" xmlns:xlink="http://www.w3.org/1999/xlink" xml:space="preserve" onload="init(evt)">
<style type="text/css"><![CDATA[
.edge:hover path { stroke: red; }
.edge:hover polygon { stroke: red; fill: red; }
]]></style>
<script type="text/javascript"><![CDATA[
var edges = document.getElementsByTagName('g');
if (edges && edges.length) {
  for (var i=0;i<edges.length;i++) {
    if (edges[i].id.substr(0,4)=='edge') {
      edges[i].setAttribute('class','edge');
    }
  }
}
]]></script>
        <defs>
                <circle id="rim" cx="0" cy="0" r="7"/>
                <circle id="rim2" cx="0" cy="0" r="3.5"/>
                <g id="zoomPlus">
                        <use xlink:href="#rim" fill="#404040">
                                <set attributeName="fill" to="#808080" begin="zoomplus.mouseover" end="zoomplus.mouseout"/>
                        </use>
                        <path d="M-4,0h8M0,-4v8" fill="none" stroke="white" stroke-width="1.5" pointer-events="none"/>
                </g>
                <g id="zoomMin">
                        <use xlink:href="#rim" fill="#404040">
                                <set attributeName="fill" to="#808080" begin="zoomminus.mouseover" end="zoomminus.mouseout"/>
                        </use>
                        <path d="M-4,0h8" fill="none" stroke="white" stroke-width="1.5" pointer-events="none"/>
                </g>
                <g id="dirArrow">
                        <path fill="none" stroke="white" stroke-width="1.5" d="M0,-3.0v7 M-2.5,-0.5L0,-3.0L2.5,-0.5"/>
                </g>
               <g id="resetDef">
                       <use xlink:href="#rim2" fill="#404040">
                               <set attributeName="fill" to="#808080" begin="reset.mouseover" end="reset.mouseout"/>
                       </use>
               </g>
        </defs>

<script type="text/javascript">
var viewWidth = 940;
var viewHeight = 632;
var sectionId = 'dynsection-8';
</script>
<script xlink:href="svgpan.js"/>
<svg id="graph" class="graph">
<g id="viewport">
<title>Widget::actualSize</title>
<polygon fill="#ffffff" stroke="transparent" points="-4,4 -4,-627.5 936,-627.5 936,4 -4,4"/>
<!-- Node63 -->
<g id="node1" class="node">
<title>Node63</title>
<polygon fill="#bfbfbf" stroke="#000000" points="0,-456.5 0,-475.5 99,-475.5 99,-456.5 0,-456.5"/>
<text text-anchor="middle" x="49.5" y="-463.5" font-family="Helvetica,sans-Serif" font-size="10.00" fill="#000000">Widget::actualSize</text>
</g>
<!-- Node64 -->
<g id="node2" class="node">
<title>Node64</title>
<g id="a_node2"><a xlink:href="class_widget.html#a1d36bcdc5a64ead5403be88654a5559f" target="_top" xlink:title="Widget::getWindow">
<polygon fill="#ffffff" stroke="#000000" points="459,-570.5 459,-589.5 561,-589.5 561,-570.5 459,-570.5"/>
<text text-anchor="middle" x="510" y="-577.5" font-family="Helvetica,sans-Serif" font-size="10.00" fill="#000000">Widget::getWindow</text>
</a>
</g>
</g>
<!-- Node63&#45;&gt;Node64 -->
<g id="edge1" class="edge">
<title>Node63&#45;&gt;Node64</title>
<path fill="none" stroke="#191970" d="M66.7222,-482.73C98.3099,-512.1085 168.9967,-571.9442 242,-594 321.8343,-618.1196 421.0524,-601.6648 473.5157,-589.584"/>
<polygon fill="#191970" stroke="#191970" points="68.8875,-479.9605 59.217,-475.6324 64.0778,-485.0464 68.8875,-479.9605"/>
</g>
<!-- Node65 -->
<g id="node3" class="node">
<title>Node65</title>
<g id="a_node3"><a xlink:href="class_widget.html#aea985c025ef9b1210d0e3ab7d9c075ea" target="_top" xlink:title="Widget::size">
<polygon fill="#ffffff" stroke="#000000" points="135,-304.5 135,-323.5 206,-323.5 206,-304.5 135,-304.5"/>
<text text-anchor="middle" x="170.5" y="-311.5" font-family="Helvetica,sans-Serif" font-size="10.00" fill="#000000">Widget::size</text>
</a>
</g>
</g>
<!-- Node63&#45;&gt;Node65 -->
<g id="edge2" class="edge">
<title>Node63&#45;&gt;Node65</title>
<path fill="none" stroke="#191970" d="M63.521,-448.3869C89.225,-416.0975 143.0745,-348.4519 162.9338,-323.5047"/>
<polygon fill="#191970" stroke="#191970" points="60.5589,-446.4881 57.0691,-456.4917 66.0355,-450.8478 60.5589,-446.4881"/>
</g>
<!-- Node65&#45;&gt;Node64 -->
<g id="edge27" class="edge">
<title>Node65&#45;&gt;Node64</title>
<path fill="none" stroke="#191970" d="M173.3187,-333.9038C181.3176,-387.3349 205.9382,-531.8441 242,-561 308.0159,-614.3736 415.6212,-601.4598 472.3145,-589.5343"/>
<polygon fill="#191970" stroke="#191970" points="176.7362,-333.0844 171.8284,-323.6948 169.8096,-334.0955 176.7362,-333.0844"/>
</g>
<!-- Node66 -->
<g id="node4" class="node">
<title>Node66</title>
<g id="a_node4"><a xlink:href="class_application.html#a8f9f948d5439efe526f3219d85b29d7f" target="_top" xlink:title="Application::savePossibleTags">
<polygon fill="#ffffff" stroke="#000000" points="616.5,-380.5 616.5,-399.5 767.5,-399.5 767.5,-380.5 616.5,-380.5"/>
<text text-anchor="middle" x="692" y="-387.5" font-family="Helvetica,sans-Serif" font-size="10.00" fill="#000000">Application::savePossibleTags</text>
</a>
</g>
</g>
<!-- Node65&#45;&gt;Node66 -->
<g id="edge3" class="edge">
<title>Node65&#45;&gt;Node66</title>
<path fill="none" stroke="#191970" d="M185.9732,-331.2654C199.3127,-344.8182 219.873,-362.7315 242,-371 371.6482,-419.4473 537.1364,-409.9839 626.9273,-399.5295"/>
<polygon fill="#191970" stroke="#191970" points="188.4128,-328.7513 178.9963,-323.8954 183.3293,-333.5637 188.4128,-328.7513"/>
</g>
<!-- Node68 -->
<g id="node6" class="node">
<title>Node68</title>
<g id="a_node6"><a xlink:href="class_button_widget.html#ac3002e3094a1b6c4e8e55da896f397c6" target="_top" xlink:title="ButtonWidget::ButtonWidget">
<polygon fill="#ffffff" stroke="#000000" points="252.5,-342.5 252.5,-361.5 393.5,-361.5 393.5,-342.5 252.5,-342.5"/>
<text text-anchor="middle" x="323" y="-349.5" font-family="Helvetica,sans-Serif" font-size="10.00" fill="#000000">ButtonWidget::ButtonWidget</text>
</a>
</g>
</g>
<!-- Node65&#45;&gt;Node68 -->
<g id="edge5" class="edge">
<title>Node65&#45;&gt;Node68</title>
<path fill="none" stroke="#191970" d="M215.4457,-326.1589C224.239,-328.4768 233.3995,-330.8491 242,-333 254.7515,-336.1891 268.6725,-339.5117 281.3202,-342.47"/>
<polygon fill="#191970" stroke="#191970" points="216.2864,-322.7609 205.7232,-323.5797 214.4914,-329.5269 216.2864,-322.7609"/>
</g>
<!-- Node69 -->
<g id="node7" class="node">
<title>Node69</title>
<g id="a_node7"><a xlink:href="class_button_widget.html#a66e8bfd9bc9a56b3a7cb2a8efc38347e" target="_top" xlink:title="ButtonWidget::actualResize">
<polygon fill="#ffffff" stroke="#000000" points="253.5,-304.5 253.5,-323.5 392.5,-323.5 392.5,-304.5 253.5,-304.5"/>
<text text-anchor="middle" x="323" y="-311.5" font-family="Helvetica,sans-Serif" font-size="10.00" fill="#000000">ButtonWidget::actualResize</text>
</a>
</g>
</g>
<!-- Node65&#45;&gt;Node69 -->
<g id="edge6" class="edge">
<title>Node65&#45;&gt;Node69</title>
<path fill="none" stroke="#191970" d="M216.5479,-314C228.1384,-314 240.8393,-314 253.3048,-314"/>
<polygon fill="#191970" stroke="#191970" points="216.2545,-310.5001 206.2545,-314 216.2544,-317.5001 216.2545,-310.5001"/>
</g>
<!-- Node70 -->
<g id="node8" class="node">
<title>Node70</title>
<g id="a_node8"><a xlink:href="class_button_widget.html#a5239cdc7bf6ea60722aa0620611be239" target="_top" xlink:title="ButtonWidget::isColored">
<polygon fill="#ffffff" stroke="#000000" points="448.5,-285.5 448.5,-304.5 571.5,-304.5 571.5,-285.5 448.5,-285.5"/>
<text text-anchor="middle" x="510" y="-292.5" font-family="Helvetica,sans-Serif" font-size="10.00" fill="#000000">ButtonWidget::isColored</text>
</a>
</g>
</g>
<!-- Node65&#45;&gt;Node70 -->
<g id="edge8" class="edge">
<title>Node65&#45;&gt;Node70</title>
<path fill="none" stroke="#191970" d="M209.1432,-301.7731C219.6892,-298.9759 231.1905,-296.4117 242,-295 312.242,-285.8263 393.726,-287.5643 448.2355,-290.4798"/>
<polygon fill="#191970" stroke="#191970" points="208.0706,-298.4386 199.3784,-304.4963 209.9511,-305.1813 208.0706,-298.4386"/>
</g>
<!-- Node71 -->
<g id="node9" class="node">
<title>Node71</title>
<g id="a_node9"><a xlink:href="class_grid_widget.html#abfc54e477706b66bd09f6f3c459fcfa4" target="_top" xlink:title="GridWidget::GridWidget">
<polygon fill="#ffffff" stroke="#000000" points="808,-478.5 808,-497.5 928,-497.5 928,-478.5 808,-478.5"/>
<text text-anchor="middle" x="868" y="-485.5" font-family="Helvetica,sans-Serif" font-size="10.00" fill="#000000">GridWidget::GridWidget</text>
</a>
</g>
</g>
<!-- Node65&#45;&gt;Node71 -->
<g id="edge9" class="edge">
<title>Node65&#45;&gt;Node71</title>
<path fill="none" stroke="#191970" d="M174.6137,-333.2762C182.1663,-363.3928 201.3487,-420.8597 242,-447 265.5605,-462.1503 655.6148,-479.4317 807.8339,-485.6322"/>
<polygon fill="#191970" stroke="#191970" points="178.0197,-332.4699 172.3391,-323.5267 171.2027,-334.0604 178.0197,-332.4699"/>
</g>
<!-- Node72 -->
<g id="node10" class="node">
<title>Node72</title>
<g id="a_node10"><a xlink:href="class_image_widget.html#a3b5f1a6cf3f2fcde08f50f0b91eaff70" target="_top" xlink:title="ImageWidget::actualResize">
<polygon fill="#ffffff" stroke="#000000" points="254.5,-228.5 254.5,-247.5 391.5,-247.5 391.5,-228.5 254.5,-228.5"/>
<text text-anchor="middle" x="323" y="-235.5" font-family="Helvetica,sans-Serif" font-size="10.00" fill="#000000">ImageWidget::actualResize</text>
</a>
</g>
</g>
<!-- Node65&#45;&gt;Node72 -->
<g id="edge10" class="edge">
<title>Node65&#45;&gt;Node72</title>
<path fill="none" stroke="#191970" d="M189.1376,-297.6925C202.9346,-286.3335 222.6227,-271.5625 242,-262 254.1003,-256.0286 267.9646,-251.2496 280.7624,-247.5771"/>
<polygon fill="#191970" stroke="#191970" points="186.7528,-295.1251 181.3638,-304.247 191.2651,-300.4767 186.7528,-295.1251"/>
</g>
<!-- Node74 -->
<g id="node12" class="node">
<title>Node74</title>
<g id="a_node12"><a xlink:href="class_layout_widget.html#ab27c4c576f3a9351b4efdde91433b7a1" target="_top" xlink:title="LayoutWidget::LayoutWidget">
<polygon fill="#ffffff" stroke="#000000" points="251.5,-190.5 251.5,-209.5 394.5,-209.5 394.5,-190.5 251.5,-190.5"/>
<text text-anchor="middle" x="323" y="-197.5" font-family="Helvetica,sans-Serif" font-size="10.00" fill="#000000">LayoutWidget::LayoutWidget</text>
</a>
</g>
</g>
<!-- Node65&#45;&gt;Node74 -->
<g id="edge13" class="edge">
<title>Node65&#45;&gt;Node74</title>
<path fill="none" stroke="#191970" d="M179.4958,-295.2242C190.928,-273.4413 212.7463,-238.0829 242,-219 247.9279,-215.1331 254.5541,-212.0504 261.394,-209.5933"/>
<polygon fill="#191970" stroke="#191970" points="176.2298,-293.9279 174.8574,-304.4335 182.4817,-297.0767 176.2298,-293.9279"/>
</g>
<!-- Node75 -->
<g id="node13" class="node">
<title>Node75</title>
<g id="a_node13"><a xlink:href="class_layout_widget.html#a2e5614796b2a04340ddc69997ce72a7b" target="_top" xlink:title="LayoutWidget::actualResize">
<polygon fill="#ffffff" stroke="#000000" points="253,-152.5 253,-171.5 393,-171.5 393,-152.5 253,-152.5"/>
<text text-anchor="middle" x="323" y="-159.5" font-family="Helvetica,sans-Serif" font-size="10.00" fill="#000000">LayoutWidget::actualResize</text>
</a>
</g>
</g>
<!-- Node65&#45;&gt;Node75 -->
<g id="edge14" class="edge">
<title>Node65&#45;&gt;Node75</title>
<path fill="none" stroke="#191970" d="M175.5079,-294.2534C184.0185,-264.8681 204.1783,-209.9896 242,-181 247.0442,-177.1337 252.7472,-174.0352 258.7337,-171.5548"/>
<polygon fill="#191970" stroke="#191970" points="172.0606,-293.5915 172.8039,-304.1602 178.8136,-295.4347 172.0606,-293.5915"/>
</g>
<!-- Node76 -->
<g id="node14" class="node">
<title>Node76</title>
<g id="a_node14"><a xlink:href="class_list_widget.html#ac785b259033fc933d977e7584f8541b2" target="_top" xlink:title="ListWidget::ListWidget">
<polygon fill="#ffffff" stroke="#000000" points="265,-114.5 265,-133.5 381,-133.5 381,-114.5 265,-114.5"/>
<text text-anchor="middle" x="323" y="-121.5" font-family="Helvetica,sans-Serif" font-size="10.00" fill="#000000">ListWidget::ListWidget</text>
</a>
</g>
</g>
<!-- Node65&#45;&gt;Node76 -->
<g id="edge15" class="edge">
<title>Node65&#45;&gt;Node76</title>
<path fill="none" stroke="#191970" d="M172.8906,-294.3739C178.3282,-258.5912 195.022,-182.7768 242,-143 248.6141,-137.3998 256.5773,-133.381 264.8939,-130.5099"/>
<polygon fill="#191970" stroke="#191970" points="169.3948,-294.1043 171.4966,-304.4886 176.3292,-295.0601 169.3948,-294.1043"/>
</g>
<!-- Node77 -->
<g id="node15" class="node">
<title>Node77</title>
<g id="a_node15"><a xlink:href="class_menu_bar_widget.html#a091cd67b87a4b34d08b97163f7f48257" target="_top" xlink:title="MenuBarWidget::MenuBarWidget">
<polygon fill="#ffffff" stroke="#000000" points="242,-76.5 242,-95.5 404,-95.5 404,-76.5 242,-76.5"/>
<text text-anchor="middle" x="323" y="-83.5" font-family="Helvetica,sans-Serif" font-size="10.00" fill="#000000">MenuBarWidget::MenuBarWidget</text>
</a>
</g>
</g>
<!-- Node65&#45;&gt;Node77 -->
<g id="edge16" class="edge">
<title>Node65&#45;&gt;Node77</title>
<path fill="none" stroke="#191970" d="M174.6121,-294.6581C184.9074,-248.0061 213.0496,-131.2115 242,-105 246.1759,-101.2191 250.9594,-98.1493 256.0684,-95.6616"/>
<polygon fill="#191970" stroke="#191970" points="171.1892,-293.9281 172.4889,-304.4429 178.03,-295.4126 171.1892,-293.9281"/>
</g>
<!-- Node78 -->
<g id="node16" class="node">
<title>Node78</title>
<g id="a_node16"><a xlink:href="class_menu_bar_widget.html#aad48ccf1f2c742665aa24cd8ea45d1b1" target="_top" xlink:title="MenuBarWidget::actualResize">
<polygon fill="#ffffff" stroke="#000000" points="248.5,-38.5 248.5,-57.5 397.5,-57.5 397.5,-38.5 248.5,-38.5"/>
<text text-anchor="middle" x="323" y="-45.5" font-family="Helvetica,sans-Serif" font-size="10.00" fill="#000000">MenuBarWidget::actualResize</text>
</a>
</g>
</g>
<!-- Node65&#45;&gt;Node78 -->
<g id="edge17" class="edge">
<title>Node65&#45;&gt;Node78</title>
<path fill="none" stroke="#191970" d="M173.5786,-294.3927C182.237,-241.7138 208.3776,-98.9382 242,-67 245.9796,-63.2198 250.5624,-60.1432 255.4818,-57.6446"/>
<polygon fill="#191970" stroke="#191970" points="170.0928,-294.0249 171.9589,-304.454 177.0038,-295.1374 170.0928,-294.0249"/>
</g>
<!-- Node79 -->
<g id="node17" class="node">
<title>Node79</title>
<g id="a_node17"><a xlink:href="class_scroll_widget.html#a1e0228552b93ace3479b176641261796" target="_top" xlink:title="ScrollWidget::ScrollWidget">
<polygon fill="#ffffff" stroke="#000000" points="256,-.5 256,-19.5 390,-19.5 390,-.5 256,-.5"/>
<text text-anchor="middle" x="323" y="-7.5" font-family="Helvetica,sans-Serif" font-size="10.00" fill="#000000">ScrollWidget::ScrollWidget</text>
</a>
</g>
</g>
<!-- Node65&#45;&gt;Node79 -->
<g id="edge18" class="edge">
<title>Node65&#45;&gt;Node79</title>
<path fill="none" stroke="#191970" d="M172.8028,-294.1258C179.9601,-235.7861 203.6642,-66.7498 242,-29 246.0139,-25.0475 250.6846,-21.8583 255.719,-19.2916"/>
<polygon fill="#191970" stroke="#191970" points="169.3048,-293.9012 171.5926,-304.246 176.2553,-294.7324 169.3048,-293.9012"/>
</g>
<!-- Node80 -->
<g id="node18" class="node">
<title>Node80</title>
<g id="a_node18"><a xlink:href="class_widget.html#af5851078b2f0c2f14a9bf377e535340f" target="_top" xlink:title="Widget::actualIsInside">
<polygon fill="#ffffff" stroke="#000000" points="266,-494.5 266,-513.5 380,-513.5 380,-494.5 266,-494.5"/>
<text text-anchor="middle" x="323" y="-501.5" font-family="Helvetica,sans-Serif" font-size="10.00" fill="#000000">Widget::actualIsInside</text>
</a>
</g>
</g>
<!-- Node65&#45;&gt;Node80 -->
<g id="edge19" class="edge">
<title>Node65&#45;&gt;Node80</title>
<path fill="none" stroke="#191970" d="M173.4591,-333.7539C179.7071,-368.4763 197.5175,-440.5054 242,-480 249.129,-486.3296 257.8597,-490.9922 266.9192,-494.4262"/>
<polygon fill="#191970" stroke="#191970" points="176.8493,-332.8029 171.7616,-323.5096 169.9435,-333.9472 176.8493,-332.8029"/>
</g>
<!-- Node86 -->
<g id="node24" class="node">
<title>Node86</title>
<g id="a_node24"><a xlink:href="class_window_widget.html#a04db7bfbafe9a5fd603ddaa5b838ded5" target="_top" xlink:title="WindowWidget::WindowWidget">
<polygon fill="#ffffff" stroke="#000000" points="245.5,-532.5 245.5,-551.5 400.5,-551.5 400.5,-532.5 245.5,-532.5"/>
<text text-anchor="middle" x="323" y="-539.5" font-family="Helvetica,sans-Serif" font-size="10.00" fill="#000000">WindowWidget::WindowWidget</text>
</a>
</g>
</g>
<!-- Node65&#45;&gt;Node86 -->
<g id="edge28" class="edge">
<title>Node65&#45;&gt;Node86</title>
<path fill="none" stroke="#191970" d="M174.6121,-333.3419C184.9074,-379.9939 213.0496,-496.7885 242,-523 246.1759,-526.7809 250.9594,-529.8507 256.0684,-532.3384"/>
<polygon fill="#191970" stroke="#191970" points="178.03,-332.5874 172.4889,-323.5571 171.1892,-334.0719 178.03,-332.5874"/>
</g>
<!-- Node87 -->
<g id="node25" class="node">
<title>Node87</title>
<g id="a_node25"><a xlink:href="class_window_widget.html#a89a68a5d4dc9fd5da10ac75c1121a453" target="_top" xlink:title="WindowWidget::actualResize">
<polygon fill="#ffffff" stroke="#000000" points="250,-418.5 250,-437.5 396,-437.5 396,-418.5 250,-418.5"/>
<text text-anchor="middle" x="323" y="-425.5" font-family="Helvetica,sans-Serif" font-size="10.00" fill="#000000">WindowWidget::actualResize</text>
</a>
</g>
</g>
<!-- Node65&#45;&gt;Node87 -->
<g id="edge29" class="edge">
<title>Node65&#45;&gt;Node87</title>
<path fill="none" stroke="#191970" d="M180.6477,-332.7297C192.668,-353.1811 214.5666,-385.4823 242,-404 251.3605,-410.3184 262.4181,-415.0072 273.3051,-418.475"/>
<polygon fill="#191970" stroke="#191970" points="183.5359,-330.7273 175.5594,-323.7541 177.4464,-334.1796 183.5359,-330.7273"/>
</g>
<!-- Node67 -->
<g id="node5" class="node">
<title>Node67</title>
<g id="a_node5"><a xlink:href="class_application.html#a748bca84fefb9c12661cfaa2f623748d" target="_top" xlink:title="Application::~Application">
<polygon fill="#ffffff" stroke="#000000" points="805.5,-380.5 805.5,-399.5 930.5,-399.5 930.5,-380.5 805.5,-380.5"/>
<text text-anchor="middle" x="868" y="-387.5" font-family="Helvetica,sans-Serif" font-size="10.00" fill="#000000">Application::~Application</text>
</a>
</g>
</g>
<!-- Node66&#45;&gt;Node67 -->
<g id="edge4" class="edge">
<title>Node66&#45;&gt;Node67</title>
<path fill="none" stroke="#191970" d="M777.7369,-390C787.0528,-390 796.4026,-390 805.3682,-390"/>
<polygon fill="#191970" stroke="#191970" points="777.6613,-386.5001 767.6613,-390 777.6612,-393.5001 777.6613,-386.5001"/>
</g>
<!-- Node69&#45;&gt;Node70 -->
<g id="edge7" class="edge">
<title>Node69&#45;&gt;Node70</title>
<path fill="none" stroke="#191970" d="M402.5924,-305.9131C417.8879,-304.359 433.6914,-302.7533 448.3158,-301.2674"/>
<polygon fill="#191970" stroke="#191970" points="402.2269,-302.4321 392.6319,-306.9251 402.9345,-309.3962 402.2269,-302.4321"/>
</g>
<!-- Node73 -->
<g id="node11" class="node">
<title>Node73</title>
<g id="a_node11"><a xlink:href="class_image_widget.html#a5973a50de2ac39437934a09313af6af9" target="_top" xlink:title="ImageWidget::setSelectable">
<polygon fill="#ffffff" stroke="#000000" points="440,-238.5 440,-257.5 580,-257.5 580,-238.5 440,-238.5"/>
<text text-anchor="middle" x="510" y="-245.5" font-family="Helvetica,sans-Serif" font-size="10.00" fill="#000000">ImageWidget::setSelectable</text>
</a>
</g>
</g>
<!-- Node72&#45;&gt;Node73 -->
<g id="edge11" class="edge">
<title>Node72&#45;&gt;Node73</title>
<path fill="none" stroke="#191970" d="M401.6477,-242.2058C414.3368,-242.8843 427.4005,-243.5829 439.8714,-244.2498"/>
<polygon fill="#191970" stroke="#191970" points="401.7427,-238.7059 391.5701,-241.6668 401.3689,-245.6959 401.7427,-238.7059"/>
</g>
<!-- Node73&#45;&gt;Node66 -->
<g id="edge12" class="edge">
<title>Node73&#45;&gt;Node66</title>
<path fill="none" stroke="#191970" d="M551.3138,-261.24C561.1162,-265.256 571.2566,-270.179 580,-276 626.1901,-306.7516 668.5675,-359.0339 684.8974,-380.4359"/>
<polygon fill="#191970" stroke="#191970" points="552.2779,-257.8605 541.6883,-257.5267 549.7584,-264.3914 552.2779,-257.8605"/>
</g>
<!-- Node80&#45;&gt;Node64 -->
<g id="edge20" class="edge">
<title>Node80&#45;&gt;Node64</title>
<path fill="none" stroke="#191970" d="M384.5303,-516.2411C391.1978,-518.2126 397.8053,-520.4574 404,-523 421.3468,-530.1199 423.5995,-535.91 440,-545 456.5187,-554.1555 475.7362,-563.6872 489.8518,-570.4874"/>
<polygon fill="#191970" stroke="#191970" points="385.3305,-512.8312 374.7597,-513.5454 383.4687,-519.5791 385.3305,-512.8312"/>
</g>
<!-- Node81 -->
<g id="node19" class="node">
<title>Node81</title>
<g id="a_node19"><a xlink:href="class_widget.html#ae5b0e7b391d855a3f75f166bb20253a8" target="_top" xlink:title="Widget::isInside">
<polygon fill="#ffffff" stroke="#000000" points="466.5,-516.5 466.5,-535.5 553.5,-535.5 553.5,-516.5 466.5,-516.5"/>
<text text-anchor="middle" x="510" y="-523.5" font-family="Helvetica,sans-Serif" font-size="10.00" fill="#000000">Widget::isInside</text>
</a>
</g>
</g>
<!-- Node80&#45;&gt;Node81 -->
<g id="edge21" class="edge">
<title>Node80&#45;&gt;Node81</title>
<path fill="none" stroke="#191970" d="M390.39,-511.9282C415.6646,-514.9017 443.7064,-518.2008 466.2822,-520.8567"/>
<polygon fill="#191970" stroke="#191970" points="390.4627,-508.4127 380.1223,-510.7203 389.6448,-515.3648 390.4627,-508.4127"/>
</g>
<!-- Node82 -->
<g id="node20" class="node">
<title>Node82</title>
<g id="a_node20"><a xlink:href="class_button_widget.html#aae069846bf4c475a475a47daf4178f3d" target="_top" xlink:title="ButtonWidget::actualPropagate\lEvent">
<polygon fill="#ffffff" stroke="#000000" points="616,-593 616,-623 768,-623 768,-593 616,-593"/>
<text text-anchor="start" x="624" y="-611" font-family="Helvetica,sans-Serif" font-size="10.00" fill="#000000">ButtonWidget::actualPropagate</text>
<text text-anchor="middle" x="692" y="-600" font-family="Helvetica,sans-Serif" font-size="10.00" fill="#000000">Event</text>
</a>
</g>
</g>
<!-- Node81&#45;&gt;Node82 -->
<g id="edge22" class="edge">
<title>Node81&#45;&gt;Node82</title>
<path fill="none" stroke="#191970" d="M539.6605,-539.9755C552.2568,-546.1295 567.0044,-553.6266 580,-561 596.5138,-570.3695 598.7992,-575.9609 616,-584 623.0197,-587.2808 630.605,-590.2747 638.1726,-592.9502"/>
<polygon fill="#191970" stroke="#191970" points="541.0389,-536.7544 530.5121,-535.5557 537.9937,-543.0574 541.0389,-536.7544"/>
</g>
<!-- Node84 -->
<g id="node22" class="node">
<title>Node84</title>
<g id="a_node22"><a xlink:href="class_grid_widget.html#a9c57f1ca2311d3caa936a481fa7fbef0" target="_top" xlink:title="GridWidget::actualPropagate\lEvent">
<polygon fill="#ffffff" stroke="#000000" points="621,-495 621,-525 763,-525 763,-495 621,-495"/>
<text text-anchor="start" x="629" y="-513" font-family="Helvetica,sans-Serif" font-size="10.00" fill="#000000">GridWidget::actualPropagate</text>
<text text-anchor="middle" x="692" y="-502" font-family="Helvetica,sans-Serif" font-size="10.00" fill="#000000">Event</text>
</a>
</g>
</g>
<!-- Node81&#45;&gt;Node84 -->
<g id="edge24" class="edge">
<title>Node81&#45;&gt;Node84</title>
<path fill="none" stroke="#191970" d="M563.7984,-521.2705C581.627,-519.7031 601.7569,-517.9335 620.6921,-516.2688"/>
<polygon fill="#191970" stroke="#191970" points="563.2486,-517.8052 553.5935,-522.1676 563.8617,-524.7783 563.2486,-517.8052"/>
</g>
<!-- Node85 -->
<g id="node23" class="node">
<title>Node85</title>
<g id="a_node23"><a xlink:href="class_list_widget.html#a91b56e252a550deda1d97a2992e3a9f7" target="_top" xlink:title="ListWidget::actualPropagate\lEvent">
<polygon fill="#ffffff" stroke="#000000" points="622,-544 622,-574 762,-574 762,-544 622,-544"/>
<text text-anchor="start" x="630" y="-562" font-family="Helvetica,sans-Serif" font-size="10.00" fill="#000000">ListWidget::actualPropagate</text>
<text text-anchor="middle" x="692" y="-551" font-family="Helvetica,sans-Serif" font-size="10.00" fill="#000000">Event</text>
</a>
</g>
</g>
<!-- Node81&#45;&gt;Node85 -->
<g id="edge26" class="edge">
<title>Node81&#45;&gt;Node85</title>
<path fill="none" stroke="#191970" d="M563.4558,-535.6925C581.7033,-539.0012 602.3931,-542.7526 621.7581,-546.2638"/>
<polygon fill="#191970" stroke="#191970" points="564.0576,-532.2447 553.5935,-533.9043 562.8086,-539.1323 564.0576,-532.2447"/>
</g>
<!-- Node83 -->
<g id="node21" class="node">
<title>Node83</title>
<g id="a_node21"><a xlink:href="class_button_widget.html#a050618b949448e783b589ddd4ccfedf0" target="_top" xlink:title="ButtonWidget::actualSize">
<polygon fill="#ffffff" stroke="#000000" points="804,-598.5 804,-617.5 932,-617.5 932,-598.5 804,-598.5"/>
<text text-anchor="middle" x="868" y="-605.5" font-family="Helvetica,sans-Serif" font-size="10.00" fill="#000000">ButtonWidget::actualSize</text>
</a>
</g>
</g>
<!-- Node82&#45;&gt;Node83 -->
<g id="edge23" class="edge">
<title>Node82&#45;&gt;Node83</title>
<path fill="none" stroke="#191970" d="M778.2558,-608C786.8709,-608 795.5083,-608 803.8375,-608"/>
<polygon fill="#191970" stroke="#191970" points="778.1726,-604.5001 768.1725,-608 778.1725,-611.5001 778.1726,-604.5001"/>
</g>
<!-- Node84&#45;&gt;Node71 -->
<g id="edge25" class="edge">
<title>Node84&#45;&gt;Node71</title>
<path fill="none" stroke="#191970" d="M773.2769,-499.8404C784.952,-498.381 796.7858,-496.9018 807.9499,-495.5063"/>
<polygon fill="#191970" stroke="#191970" points="772.5673,-496.4018 763.0786,-501.1152 773.4356,-503.3477 772.5673,-496.4018"/>
</g>
<!-- Node88 -->
<g id="node26" class="node">
<title>Node88</title>
<g id="a_node26"><a xlink:href="class_window_widget.html#abdbf63bb8a663c46bfdd2c117aa55e4d" target="_top" xlink:title="WindowWidget::close">
<polygon fill="#ffffff" stroke="#000000" points="454,-418.5 454,-437.5 566,-437.5 566,-418.5 454,-418.5"/>
<text text-anchor="middle" x="510" y="-425.5" font-family="Helvetica,sans-Serif" font-size="10.00" fill="#000000">WindowWidget::close</text>
</a>
</g>
</g>
<!-- Node87&#45;&gt;Node88 -->
<g id="edge30" class="edge">
<title>Node87&#45;&gt;Node88</title>
<path fill="none" stroke="#191970" d="M406.5251,-428C422.5019,-428 438.8717,-428 453.7398,-428"/>
<polygon fill="#191970" stroke="#191970" points="406.1025,-424.5001 396.1025,-428 406.1025,-431.5001 406.1025,-424.5001"/>
</g>
<!-- Node88&#45;&gt;Node66 -->
<g id="edge31" class="edge">
<title>Node88&#45;&gt;Node66</title>
<path fill="none" stroke="#191970" d="M565.9458,-416.319C591.7558,-410.9301 622.0069,-404.6139 646.404,-399.5201"/>
<polygon fill="#191970" stroke="#191970" points="564.9998,-412.941 555.9263,-418.411 566.4306,-419.7932 564.9998,-412.941"/>
</g>
</g>
</svg>
        <g id="navigator" transform="translate(0 0)" fill="#404254">
                <rect fill="#f2f5e9" fill-opacity="0.5" stroke="#606060" stroke-width=".5" x="0" y="0" width="60" height="60"/>
                <use id="zoomplus" xlink:href="#zoomPlus" x="17" y="9" onmousedown="handleZoom(evt,'in')"/>
                <use id="zoomminus" xlink:href="#zoomMin" x="42" y="9" onmousedown="handleZoom(evt,'out')"/>
                <use id="reset" xlink:href="#resetDef" x="30" y="36" onmousedown="handleReset()"/>
                <g id="arrowUp" xlink:href="#dirArrow" transform="translate(30 24)" onmousedown="handlePan(0,-1)">
                  <use xlink:href="#rim" fill="#404040">
                        <set attributeName="fill" to="#808080" begin="arrowUp.mouseover" end="arrowUp.mouseout"/>
                  </use>
                  <path fill="none" stroke="white" stroke-width="1.5" d="M0,-3.0v7 M-2.5,-0.5L0,-3.0L2.5,-0.5"/>
                </g>
                <g id="arrowRight" xlink:href="#dirArrow" transform="rotate(90) translate(36 -43)" onmousedown="handlePan(1,0)">
                  <use xlink:href="#rim" fill="#404040">
                        <set attributeName="fill" to="#808080" begin="arrowRight.mouseover" end="arrowRight.mouseout"/>
                  </use>
                  <path fill="none" stroke="white" stroke-width="1.5" d="M0,-3.0v7 M-2.5,-0.5L0,-3.0L2.5,-0.5"/>
                </g>
                <g id="arrowDown" xlink:href="#dirArrow" transform="rotate(180) translate(-30 -48)" onmousedown="handlePan(0,1)">
                  <use xlink:href="#rim" fill="#404040">
                        <set attributeName="fill" to="#808080" begin="arrowDown.mouseover" end="arrowDown.mouseout"/>
                  </use>
                  <path fill="none" stroke="white" stroke-width="1.5" d="M0,-3.0v7 M-2.5,-0.5L0,-3.0L2.5,-0.5"/>
                </g>
                <g id="arrowLeft" xlink:href="#dirArrow" transform="rotate(270) translate(-36 17)" onmousedown="handlePan(-1,0)">
                  <use xlink:href="#rim" fill="#404040">
                        <set attributeName="fill" to="#808080" begin="arrowLeft.mouseover" end="arrowLeft.mouseout"/>
                  </use>
                  <path fill="none" stroke="white" stroke-width="1.5" d="M0,-3.0v7 M-2.5,-0.5L0,-3.0L2.5,-0.5"/>
                </g>
        </g>
        <svg viewBox="0 0 15 15" width="100%" height="30px" preserveAspectRatio="xMaxYMin meet">
         <g id="arrow_out" transform="scale(0.3 0.3)">
          <a xlink:href="class_widget_aa6225b5a14e5861cc2cd98c737841854_icgraph_org.svg" target="_base">
           <rect id="button" ry="5" rx="5" y="6" x="6" height="38" width="38"
                fill="#f2f5e9" fill-opacity="0.5" stroke="#606060" stroke-width="1.0"/>
           <path id="arrow"
             d="M 11.500037,31.436501 C 11.940474,20.09759 22.043105,11.32322 32.158766,21.979434 L 37.068811,17.246167 C 37.068811,17.246167 37.088388,32 37.088388,32 L 22.160133,31.978069 C 22.160133,31.978069 26.997745,27.140456 26.997745,27.140456 C 18.528582,18.264221 13.291696,25.230495 11.500037,31.436501 z"
             style="fill:#404040;"/>
          </a>
         </g>
        </svg>
</svg>
