<?xml version="1.0" encoding="UTF-8" standalone="no"?>
<!DOCTYPE svg PUBLIC "-//W3C//DTD SVG 1.1//EN"
 "http://www.w3.org/Graphics/SVG/1.1/DTD/svg11.dtd">
<!-- Generated by graphviz version 2.40.1 (20161225.0304)
 -->
<!-- Title: Image::loadImage Pages: 1 -->
<svg width="308pt" height="66pt"
 viewBox="0.00 0.00 308.00 66.00" xmlns="http://www.w3.org/2000/svg" xmlns:xlink="http://www.w3.org/1999/xlink">
<g id="graph0" class="graph" transform="scale(1 1) rotate(0) translate(4 62)">
<title>Image::loadImage</title>
<polygon fill="#ffffff" stroke="transparent" points="-4,4 -4,-62 304,-62 304,4 -4,4"/>
<!-- Node21 -->
<g id="node1" class="node">
<title>Node21</title>
<polygon fill="#bfbfbf" stroke="#000000" points="0,-19.5 0,-38.5 95,-38.5 95,-19.5 0,-19.5"/>
<text text-anchor="middle" x="47.5" y="-26.5" font-family="Helvetica,sans-Serif" font-size="10.00" fill="#000000">Image::loadImage</text>
</g>
<!-- Node22 -->
<g id="node2" class="node">
<title>Node22</title>
<g id="a_node2"><a xlink:href="main_8cpp.html#addb7c669fb11a52b3d2dd9e221fdea2f" target="_top" xlink:title="getPoolFromSave">
<polygon fill="#ffffff" stroke="#000000" points="131,-38.5 131,-57.5 226,-57.5 226,-38.5 131,-38.5"/>
<text text-anchor="middle" x="178.5" y="-45.5" font-family="Helvetica,sans-Serif" font-size="10.00" fill="#000000">getPoolFromSave</text>
</a>
</g>
</g>
<!-- Node21&#45;&gt;Node22 -->
<g id="edge1" class="edge">
<title>Node21&#45;&gt;Node22</title>
<path fill="none" stroke="#191970" d="M105.0721,-37.3502C113.6135,-38.589 122.3375,-39.8543 130.6514,-41.0601"/>
<polygon fill="#191970" stroke="#191970" points="105.5634,-33.8849 95.1646,-35.9132 104.5586,-40.8124 105.5634,-33.8849"/>
</g>
<!-- Node24 -->
<g id="node4" class="node">
<title>Node24</title>
<g id="a_node4"><a xlink:href="class_image.html#a1d3c73cbf4af1f1973fdf6c3c00e2301" target="_top" xlink:title="Image::setImgPtr">
<polygon fill="#ffffff" stroke="#000000" points="132.5,-.5 132.5,-19.5 224.5,-19.5 224.5,-.5 132.5,-.5"/>
<text text-anchor="middle" x="178.5" y="-7.5" font-family="Helvetica,sans-Serif" font-size="10.00" fill="#000000">Image::setImgPtr</text>
</a>
</g>
</g>
<!-- Node21&#45;&gt;Node24 -->
<g id="edge3" class="edge">
<title>Node21&#45;&gt;Node24</title>
<path fill="none" stroke="#191970" d="M105.2872,-20.6186C114.3618,-19.3025 123.6368,-17.9573 132.4021,-16.686"/>
<polygon fill="#191970" stroke="#191970" points="104.5586,-17.1876 95.1646,-22.0868 105.5634,-24.1151 104.5586,-17.1876"/>
</g>
<!-- Node23 -->
<g id="node3" class="node">
<title>Node23</title>
<g id="a_node3"><a xlink:href="main_8cpp.html#ae66f6b31b5ad750f1fe042a706a4e3d4" target="_top" xlink:title="main">
<polygon fill="#ffffff" stroke="#000000" points="262,-38.5 262,-57.5 300,-57.5 300,-38.5 262,-38.5"/>
<text text-anchor="middle" x="281" y="-45.5" font-family="Helvetica,sans-Serif" font-size="10.00" fill="#000000">main</text>
</a>
</g>
</g>
<!-- Node22&#45;&gt;Node23 -->
<g id="edge2" class="edge">
<title>Node22&#45;&gt;Node23</title>
<path fill="none" stroke="#191970" d="M236.1521,-48C245.3223,-48 254.2148,-48 261.6302,-48"/>
<polygon fill="#191970" stroke="#191970" points="236.1492,-44.5001 226.1491,-48 236.1491,-51.5001 236.1492,-44.5001"/>
</g>
</g>
</svg>
