<?xml version="1.0" encoding="UTF-8" standalone="no"?>
<!DOCTYPE svg PUBLIC "-//W3C//DTD SVG 1.1//EN"
 "http://www.w3.org/Graphics/SVG/1.1/DTD/svg11.dtd">
<!-- Generated by graphviz version 2.40.1 (20161225.0304)
 -->
<!-- Title: Application::execute Pages: 1 -->
<svg width="661pt" height="164pt"
 viewBox="0.00 0.00 661.00 164.00" xmlns="http://www.w3.org/2000/svg" xmlns:xlink="http://www.w3.org/1999/xlink">
<g id="graph0" class="graph" transform="scale(1 1) rotate(0) translate(4 160)">
<title>Application::execute</title>
<polygon fill="#ffffff" stroke="transparent" points="-4,4 -4,-160 657,-160 657,4 -4,4"/>
<!-- Node46 -->
<g id="node1" class="node">
<title>Node46</title>
<polygon fill="#bfbfbf" stroke="#000000" points="0,-57.5 0,-76.5 105,-76.5 105,-57.5 0,-57.5"/>
<text text-anchor="middle" x="52.5" y="-64.5" font-family="Helvetica,sans-Serif" font-size="10.00" fill="#000000">Application::execute</text>
</g>
<!-- Node47 -->
<g id="node2" class="node">
<title>Node47</title>
<g id="a_node2"><a xlink:href="class_window_widget.html#aaeb6c16306f82469d443182594a8ef8e" target="_top" xlink:title="WindowWidget::display">
<polygon fill="#ffffff" stroke="#000000" points="158.5,-95.5 158.5,-114.5 277.5,-114.5 277.5,-95.5 158.5,-95.5"/>
<text text-anchor="middle" x="218" y="-102.5" font-family="Helvetica,sans-Serif" font-size="10.00" fill="#000000">WindowWidget::display</text>
</a>
</g>
</g>
<!-- Node46&#45;&gt;Node47 -->
<g id="edge1" class="edge">
<title>Node46&#45;&gt;Node47</title>
<path fill="none" stroke="#191970" d="M94.2626,-76.589C116.2005,-81.6261 143.2803,-87.8438 166.508,-93.1771"/>
<polygon fill="#191970" stroke="#191970" points="166.008,-96.6533 176.5377,-95.4799 167.5746,-89.8308 166.008,-96.6533"/>
</g>
<!-- Node52 -->
<g id="node7" class="node">
<title>Node52</title>
<g id="a_node7"><a xlink:href="class_window_widget.html#a556741682ef738cc417f707cc288d7ec" target="_top" xlink:title="WindowWidget::is_open">
<polygon fill="#ffffff" stroke="#000000" points="157,-57.5 157,-76.5 279,-76.5 279,-57.5 157,-57.5"/>
<text text-anchor="middle" x="218" y="-64.5" font-family="Helvetica,sans-Serif" font-size="10.00" fill="#000000">WindowWidget::is_open</text>
</a>
</g>
</g>
<!-- Node46&#45;&gt;Node52 -->
<g id="edge7" class="edge">
<title>Node46&#45;&gt;Node52</title>
<path fill="none" stroke="#191970" d="M105.3203,-67C118.4895,-67 132.8275,-67 146.7252,-67"/>
<polygon fill="#191970" stroke="#191970" points="146.7441,-70.5001 156.7441,-67 146.744,-63.5001 146.7441,-70.5001"/>
</g>
<!-- Node53 -->
<g id="node8" class="node">
<title>Node53</title>
<g id="a_node8"><a xlink:href="class_window_widget.html#a541a8f556d865da798786e2601cf031e" target="_top" xlink:title="WindowWidget::manageEvents">
<polygon fill="#ffffff" stroke="#000000" points="141,-19.5 141,-38.5 295,-38.5 295,-19.5 141,-19.5"/>
<text text-anchor="middle" x="218" y="-26.5" font-family="Helvetica,sans-Serif" font-size="10.00" fill="#000000">WindowWidget::manageEvents</text>
</a>
</g>
</g>
<!-- Node46&#45;&gt;Node53 -->
<g id="edge8" class="edge">
<title>Node46&#45;&gt;Node53</title>
<path fill="none" stroke="#191970" d="M94.2626,-57.411C116.2005,-52.3739 143.2803,-46.1562 166.508,-40.8229"/>
<polygon fill="#191970" stroke="#191970" points="167.5746,-44.1692 176.5377,-38.5201 166.008,-37.3467 167.5746,-44.1692"/>
</g>
<!-- Node48 -->
<g id="node3" class="node">
<title>Node48</title>
<g id="a_node3"><a xlink:href="class_widget.html#a2516fd56cac645cb3aacef37937c49d3" target="_top" xlink:title="Widget::render">
<polygon fill="#ffffff" stroke="#000000" points="359.5,-129.5 359.5,-148.5 439.5,-148.5 439.5,-129.5 359.5,-129.5"/>
<text text-anchor="middle" x="399.5" y="-136.5" font-family="Helvetica,sans-Serif" font-size="10.00" fill="#000000">Widget::render</text>
</a>
</g>
</g>
<!-- Node47&#45;&gt;Node48 -->
<g id="edge2" class="edge">
<title>Node47&#45;&gt;Node48</title>
<path fill="none" stroke="#191970" d="M269.0409,-114.5614C294.1987,-119.2741 324.4282,-124.937 349.4506,-129.6244"/>
<polygon fill="#191970" stroke="#191970" points="348.9963,-133.1001 359.4698,-131.5012 350.2853,-126.2197 348.9963,-133.1001"/>
</g>
<!-- Node50 -->
<g id="node5" class="node">
<title>Node50</title>
<g id="a_node5"><a xlink:href="class_window_widget.html#a4d1f999183262930b2472bcd212644aa" target="_top" xlink:title="WindowWidget::setContent">
<polygon fill="#ffffff" stroke="#000000" points="331,-85.5 331,-104.5 468,-104.5 468,-85.5 331,-85.5"/>
<text text-anchor="middle" x="399.5" y="-92.5" font-family="Helvetica,sans-Serif" font-size="10.00" fill="#000000">WindowWidget::setContent</text>
</a>
</g>
</g>
<!-- Node47&#45;&gt;Node50 -->
<g id="edge4" class="edge">
<title>Node47&#45;&gt;Node50</title>
<path fill="none" stroke="#191970" d="M277.6813,-101.7118C291.3995,-100.9559 306.195,-100.1408 320.5864,-99.3479"/>
<polygon fill="#191970" stroke="#191970" points="321.1808,-102.8205 330.9731,-98.7756 320.7956,-95.8311 321.1808,-102.8205"/>
</g>
<!-- Node49 -->
<g id="node4" class="node">
<title>Node49</title>
<g id="a_node4"><a xlink:href="class_widget.html#a5ff4883144670b8c93b41e440e3d4446" target="_top" xlink:title="Widget::actualRender">
<polygon fill="#ffffff" stroke="#000000" points="523,-136.5 523,-155.5 634,-155.5 634,-136.5 523,-136.5"/>
<text text-anchor="middle" x="578.5" y="-143.5" font-family="Helvetica,sans-Serif" font-size="10.00" fill="#000000">Widget::actualRender</text>
</a>
</g>
</g>
<!-- Node48&#45;&gt;Node49 -->
<g id="edge3" class="edge">
<title>Node48&#45;&gt;Node49</title>
<path fill="none" stroke="#191970" d="M439.6711,-140.5709C461.1368,-141.4104 488.1079,-142.4651 512.5548,-143.4211"/>
<polygon fill="#191970" stroke="#191970" points="512.7249,-146.9304 522.854,-143.8239 512.9985,-139.9357 512.7249,-146.9304"/>
</g>
<!-- Node51 -->
<g id="node6" class="node">
<title>Node51</title>
<g id="a_node6"><a xlink:href="class_widget.html#a210d4c8e3ea02cb777c6e3ad7fdc22b3" target="_top" xlink:title="Widget::callRedraw">
<polygon fill="#ffffff" stroke="#000000" points="527.5,-80.5 527.5,-99.5 629.5,-99.5 629.5,-80.5 527.5,-80.5"/>
<text text-anchor="middle" x="578.5" y="-87.5" font-family="Helvetica,sans-Serif" font-size="10.00" fill="#000000">Widget::callRedraw</text>
</a>
</g>
</g>
<!-- Node50&#45;&gt;Node51 -->
<g id="edge5" class="edge">
<title>Node50&#45;&gt;Node51</title>
<path fill="none" stroke="#191970" d="M468.1941,-93.0812C484.2885,-92.6316 501.3331,-92.1555 517.0859,-91.7155"/>
<polygon fill="#191970" stroke="#191970" points="517.3299,-95.2101 527.2283,-91.4322 517.1344,-88.2129 517.3299,-95.2101"/>
</g>
<!-- Node51&#45;&gt;Node51 -->
<g id="edge6" class="edge">
<title>Node51&#45;&gt;Node51</title>
<path fill="none" stroke="#191970" d="M551.065,-99.7571C537.7183,-108.5653 546.8633,-118 578.5,-118 600.2502,-118 611.3696,-113.5406 611.8582,-107.8913"/>
<polygon fill="#191970" stroke="#191970" points="614.6509,-105.7806 605.935,-99.7571 608.9922,-109.9012 614.6509,-105.7806"/>
</g>
<!-- Node54 -->
<g id="node9" class="node">
<title>Node54</title>
<g id="a_node9"><a xlink:href="class_widget.html#aa36c39c4ce428813dcbb13060b5d8ab0" target="_top" xlink:title="Widget::propagateEvent">
<polygon fill="#ffffff" stroke="#000000" points="338.5,-38.5 338.5,-57.5 460.5,-57.5 460.5,-38.5 338.5,-38.5"/>
<text text-anchor="middle" x="399.5" y="-45.5" font-family="Helvetica,sans-Serif" font-size="10.00" fill="#000000">Widget::propagateEvent</text>
</a>
</g>
</g>
<!-- Node53&#45;&gt;Node54 -->
<g id="edge9" class="edge">
<title>Node53&#45;&gt;Node54</title>
<path fill="none" stroke="#191970" d="M295.2355,-37.0853C306.1299,-38.2257 317.2901,-39.394 328.069,-40.5224"/>
<polygon fill="#191970" stroke="#191970" points="327.9553,-44.0295 338.2654,-41.5898 328.6842,-37.0676 327.9553,-44.0295"/>
</g>
<!-- Node56 -->
<g id="node11" class="node">
<title>Node56</title>
<g id="a_node11"><a xlink:href="class_widget.html#a0809c3a396f9d1cedb1446d7b0750ef2" target="_top" xlink:title="Widget::resize">
<polygon fill="#ffffff" stroke="#000000" points="359.5,-.5 359.5,-19.5 439.5,-19.5 439.5,-.5 359.5,-.5"/>
<text text-anchor="middle" x="399.5" y="-7.5" font-family="Helvetica,sans-Serif" font-size="10.00" fill="#000000">Widget::resize</text>
</a>
</g>
</g>
<!-- Node53&#45;&gt;Node56 -->
<g id="edge11" class="edge">
<title>Node53&#45;&gt;Node56</title>
<path fill="none" stroke="#191970" d="M295.2355,-20.9147C313.4529,-19.0077 332.4134,-17.0228 349.0916,-15.2769"/>
<polygon fill="#191970" stroke="#191970" points="349.5729,-18.7457 359.1541,-14.2235 348.844,-11.7838 349.5729,-18.7457"/>
</g>
<!-- Node55 -->
<g id="node10" class="node">
<title>Node55</title>
<g id="a_node10"><a xlink:href="class_widget.html#a92906f698fd94c2f777e46c1480967fc" target="_top" xlink:title="Widget::actualPropagateEvent">
<polygon fill="#ffffff" stroke="#000000" points="504,-38.5 504,-57.5 653,-57.5 653,-38.5 504,-38.5"/>
<text text-anchor="middle" x="578.5" y="-45.5" font-family="Helvetica,sans-Serif" font-size="10.00" fill="#000000">Widget::actualPropagateEvent</text>
</a>
</g>
</g>
<!-- Node54&#45;&gt;Node55 -->
<g id="edge10" class="edge">
<title>Node54&#45;&gt;Node55</title>
<path fill="none" stroke="#191970" d="M460.601,-48C471.2242,-48 482.443,-48 493.5674,-48"/>
<polygon fill="#191970" stroke="#191970" points="493.7374,-51.5001 503.7374,-48 493.7373,-44.5001 493.7374,-51.5001"/>
</g>
<!-- Node57 -->
<g id="node12" class="node">
<title>Node57</title>
<g id="a_node12"><a xlink:href="class_widget.html#a1a3ac9ff4f7c19c19a9886219b6dda2e" target="_top" xlink:title="Widget::actualResize">
<polygon fill="#ffffff" stroke="#000000" points="523.5,-.5 523.5,-19.5 633.5,-19.5 633.5,-.5 523.5,-.5"/>
<text text-anchor="middle" x="578.5" y="-7.5" font-family="Helvetica,sans-Serif" font-size="10.00" fill="#000000">Widget::actualResize</text>
</a>
</g>
</g>
<!-- Node56&#45;&gt;Node57 -->
<g id="edge12" class="edge">
<title>Node56&#45;&gt;Node57</title>
<path fill="none" stroke="#191970" d="M439.6711,-10C461.3232,-10 488.5768,-10 513.1911,-10"/>
<polygon fill="#191970" stroke="#191970" points="513.1933,-13.5001 523.1932,-10 513.1932,-6.5001 513.1933,-13.5001"/>
</g>
</g>
</svg>
