<?xml version="1.0" encoding="UTF-8" standalone="no"?>
<!DOCTYPE svg PUBLIC "-//W3C//DTD SVG 1.1//EN"
 "http://www.w3.org/Graphics/SVG/1.1/DTD/svg11.dtd">
<!-- Generated by graphviz version 2.40.1 (20161225.0304)
 -->
<!-- Title: IteratorBase::equal Pages: 1 -->
<svg width="266pt" height="78pt"
 viewBox="0.00 0.00 266.00 77.50" xmlns="http://www.w3.org/2000/svg" xmlns:xlink="http://www.w3.org/1999/xlink">
<g id="graph0" class="graph" transform="scale(1 1) rotate(0) translate(4 73.5)">
<title>IteratorBase::equal</title>
<polygon fill="#ffffff" stroke="transparent" points="-4,4 -4,-73.5 262,-73.5 262,4 -4,4"/>
<!-- Node9 -->
<g id="node1" class="node">
<title>Node9</title>
<polygon fill="#bfbfbf" stroke="#000000" points="0,-28 0,-47 99,-47 99,-28 0,-28"/>
<text text-anchor="middle" x="49.5" y="-35" font-family="Helvetica,sans-Serif" font-size="10.00" fill="#000000">IteratorBase::equal</text>
</g>
<!-- Node10 -->
<g id="node2" class="node">
<title>Node10</title>
<g id="a_node2"><a xlink:href="class_iterator_base.html#a7475728422cb73f91d1c4cb4c3d07499" target="_top" xlink:title="IteratorBase::operator==">
<polygon fill="#ffffff" stroke="#000000" points="135,-50 135,-69 258,-69 258,-50 135,-50"/>
<text text-anchor="middle" x="196.5" y="-57" font-family="Helvetica,sans-Serif" font-size="10.00" fill="#000000">IteratorBase::operator==</text>
</a>
</g>
</g>
<!-- Node9&#45;&gt;Node10 -->
<g id="edge1" class="edge">
<title>Node9&#45;&gt;Node10</title>
<path fill="none" stroke="#191970" d="M109.3466,-46.4566C117.7348,-47.712 126.369,-49.0042 134.7911,-50.2646"/>
<polygon fill="#191970" stroke="#191970" points="109.6754,-42.9669 99.2675,-44.9482 108.6393,-49.8898 109.6754,-42.9669"/>
</g>
<!-- Node11 -->
<g id="node3" class="node">
<title>Node11</title>
<g id="a_node3"><a xlink:href="class_const_iterator_base.html#a584d54dbb1730a6d066a6935474ded25" target="_top" xlink:title="ConstIteratorBase::\loperator==">
<polygon fill="#ffffff" stroke="#000000" points="145.5,-.5 145.5,-30.5 247.5,-30.5 247.5,-.5 145.5,-.5"/>
<text text-anchor="start" x="153.5" y="-18.5" font-family="Helvetica,sans-Serif" font-size="10.00" fill="#000000">ConstIteratorBase::</text>
<text text-anchor="middle" x="196.5" y="-7.5" font-family="Helvetica,sans-Serif" font-size="10.00" fill="#000000">operator==</text>
</a>
</g>
</g>
<!-- Node9&#45;&gt;Node11 -->
<g id="edge2" class="edge">
<title>Node9&#45;&gt;Node11</title>
<path fill="none" stroke="#191970" d="M109.175,-28.569C121.1467,-26.7774 133.626,-24.9097 145.28,-23.1656"/>
<polygon fill="#191970" stroke="#191970" points="108.6393,-25.1102 99.2675,-30.0518 109.6754,-32.0331 108.6393,-25.1102"/>
</g>
</g>
</svg>
