<?xml version="1.0" encoding="UTF-8" standalone="no"?>
<!DOCTYPE svg PUBLIC "-//W3C//DTD SVG 1.1//EN"
 "http://www.w3.org/Graphics/SVG/1.1/DTD/svg11.dtd">
<!-- Generated by graphviz version 2.40.1 (20161225.0304)
 -->
<!-- Title: Widget::size Pages: 1 -->
<!--zoomable 632 -->
<svg id="main" version="1.1" xmlns="http://www.w3.org/2000/svg" xmlns:xlink="http://www.w3.org/1999/xlink" xml:space="preserve" onload="init(evt)">
<style type="text/css"><![CDATA[
.edge:hover path { stroke: red; }
.edge:hover polygon { stroke: red; fill: red; }
]]></style>
<script type="text/javascript"><![CDATA[
var edges = document.getElementsByTagName('g');
if (edges && edges.length) {
  for (var i=0;i<edges.length;i++) {
    if (edges[i].id.substr(0,4)=='edge') {
      edges[i].setAttribute('class','edge');
    }
  }
}
]]></script>
        <defs>
                <circle id="rim" cx="0" cy="0" r="7"/>
                <circle id="rim2" cx="0" cy="0" r="3.5"/>
                <g id="zoomPlus">
                        <use xlink:href="#rim" fill="#404040">
                                <set attributeName="fill" to="#808080" begin="zoomplus.mouseover" end="zoomplus.mouseout"/>
                        </use>
                        <path d="M-4,0h8M0,-4v8" fill="none" stroke="white" stroke-width="1.5" pointer-events="none"/>
                </g>
                <g id="zoomMin">
                        <use xlink:href="#rim" fill="#404040">
                                <set attributeName="fill" to="#808080" begin="zoomminus.mouseover" end="zoomminus.mouseout"/>
                        </use>
                        <path d="M-4,0h8" fill="none" stroke="white" stroke-width="1.5" pointer-events="none"/>
                </g>
                <g id="dirArrow">
                        <path fill="none" stroke="white" stroke-width="1.5" d="M0,-3.0v7 M-2.5,-0.5L0,-3.0L2.5,-0.5"/>
                </g>
               <g id="resetDef">
                       <use xlink:href="#rim2" fill="#404040">
                               <set attributeName="fill" to="#808080" begin="reset.mouseover" end="reset.mouseout"/>
                       </use>
               </g>
        </defs>

<script type="text/javascript">
var viewWidth = 798;
var viewHeight = 632;
var sectionId = 'dynsection-25';
</script>
<script xlink:href="svgpan.js"/>
<svg id="graph" class="graph">
<g id="viewport">
<title>Widget::size</title>
<polygon fill="#ffffff" stroke="transparent" points="-4,4 -4,-627.5 794,-627.5 794,4 -4,4"/>
<!-- Node190 -->
<g id="node1" class="node">
<title>Node190</title>
<polygon fill="#bfbfbf" stroke="#000000" points="0,-266.5 0,-285.5 71,-285.5 71,-266.5 0,-266.5"/>
<text text-anchor="middle" x="35.5" y="-273.5" font-family="Helvetica,sans-Serif" font-size="10.00" fill="#000000">Widget::size</text>
</g>
<!-- Node191 -->
<g id="node2" class="node">
<title>Node191</title>
<g id="a_node2"><a xlink:href="class_widget.html#af5851078b2f0c2f14a9bf377e535340f" target="_top" xlink:title="Widget::actualIsInside">
<polygon fill="#ffffff" stroke="#000000" points="127.5,-500.5 127.5,-519.5 241.5,-519.5 241.5,-500.5 127.5,-500.5"/>
<text text-anchor="middle" x="184.5" y="-507.5" font-family="Helvetica,sans-Serif" font-size="10.00" fill="#000000">Widget::actualIsInside</text>
</a>
</g>
</g>
<!-- Node190&#45;&gt;Node191 -->
<g id="edge1" class="edge">
<title>Node190&#45;&gt;Node191</title>
<path fill="none" stroke="#191970" d="M37.0031,-295.5936C41.0875,-335.5518 55.8051,-427.1283 107,-480 116.133,-489.4321 128.5658,-495.9494 140.7983,-500.4322"/>
<polygon fill="#191970" stroke="#191970" points="40.4823,-295.2052 36.0954,-285.5612 33.5108,-295.836 40.4823,-295.2052"/>
</g>
<!-- Node192 -->
<g id="node3" class="node">
<title>Node192</title>
<g id="a_node3"><a xlink:href="class_widget.html#a1d36bcdc5a64ead5403be88654a5559f" target="_top" xlink:title="Widget::getWindow">
<polygon fill="#ffffff" stroke="#000000" points="317,-538.5 317,-557.5 419,-557.5 419,-538.5 317,-538.5"/>
<text text-anchor="middle" x="368" y="-545.5" font-family="Helvetica,sans-Serif" font-size="10.00" fill="#000000">Widget::getWindow</text>
</a>
</g>
</g>
<!-- Node190&#45;&gt;Node192 -->
<g id="edge21" class="edge">
<title>Node190&#45;&gt;Node192</title>
<path fill="none" stroke="#191970" d="M38.1447,-295.6694C45.8492,-349.7921 70.0927,-498.9083 107,-529 170.5575,-580.8204 274.2412,-569.0115 329.8703,-557.5388"/>
<polygon fill="#191970" stroke="#191970" points="41.5942,-295.0632 36.7531,-285.6391 34.6606,-296.0252 41.5942,-295.0632"/>
</g>
<!-- Node197 -->
<g id="node8" class="node">
<title>Node197</title>
<g id="a_node8"><a xlink:href="class_grid_widget.html#abfc54e477706b66bd09f6f3c459fcfa4" target="_top" xlink:title="GridWidget::GridWidget">
<polygon fill="#ffffff" stroke="#000000" points="666,-502.5 666,-521.5 786,-521.5 786,-502.5 666,-502.5"/>
<text text-anchor="middle" x="726" y="-509.5" font-family="Helvetica,sans-Serif" font-size="10.00" fill="#000000">GridWidget::GridWidget</text>
</a>
</g>
</g>
<!-- Node190&#45;&gt;Node197 -->
<g id="edge22" class="edge">
<title>Node190&#45;&gt;Node197</title>
<path fill="none" stroke="#191970" d="M37.2681,-295.8702C41.7079,-332.6395 56.8601,-410.8339 107,-447 200.8028,-514.6604 511.9064,-467.0387 626,-486 649.5352,-489.9113 675.6071,-496.7763 695.2275,-502.4701"/>
<polygon fill="#191970" stroke="#191970" points="40.7438,-295.4558 36.2073,-285.8814 33.783,-296.1951 40.7438,-295.4558"/>
</g>
<!-- Node199 -->
<g id="node10" class="node">
<title>Node199</title>
<g id="a_node10"><a xlink:href="class_layout_widget.html#a2e5614796b2a04340ddc69997ce72a7b" target="_top" xlink:title="LayoutWidget::actualResize">
<polygon fill="#ffffff" stroke="#000000" points="114.5,-418.5 114.5,-437.5 254.5,-437.5 254.5,-418.5 114.5,-418.5"/>
<text text-anchor="middle" x="184.5" y="-425.5" font-family="Helvetica,sans-Serif" font-size="10.00" fill="#000000">LayoutWidget::actualResize</text>
</a>
</g>
</g>
<!-- Node190&#45;&gt;Node199 -->
<g id="edge9" class="edge">
<title>Node190&#45;&gt;Node199</title>
<path fill="none" stroke="#191970" d="M40.5446,-295.699C49.103,-325.0223 69.324,-379.8214 107,-409 112.0383,-412.9019 117.7682,-416.0151 123.7785,-418.4969"/>
<polygon fill="#191970" stroke="#191970" points="43.8522,-294.5268 37.8235,-285.8144 37.1033,-296.3848 43.8522,-294.5268"/>
</g>
<!-- Node200 -->
<g id="node11" class="node">
<title>Node200</title>
<g id="a_node11"><a xlink:href="class_menu_bar_widget.html#aad48ccf1f2c742665aa24cd8ea45d1b1" target="_top" xlink:title="MenuBarWidget::actualResize">
<polygon fill="#ffffff" stroke="#000000" points="110,-380.5 110,-399.5 259,-399.5 259,-380.5 110,-380.5"/>
<text text-anchor="middle" x="184.5" y="-387.5" font-family="Helvetica,sans-Serif" font-size="10.00" fill="#000000">MenuBarWidget::actualResize</text>
</a>
</g>
</g>
<!-- Node190&#45;&gt;Node200 -->
<g id="edge10" class="edge">
<title>Node190&#45;&gt;Node200</title>
<path fill="none" stroke="#191970" d="M44.5289,-294.7254C55.993,-316.4595 77.8423,-351.7708 107,-371 112.8981,-374.8897 119.5219,-377.9837 126.3484,-380.4446"/>
<polygon fill="#191970" stroke="#191970" points="47.5166,-292.8781 39.8757,-285.5386 41.272,-296.0411 47.5166,-292.8781"/>
</g>
<!-- Node201 -->
<g id="node12" class="node">
<title>Node201</title>
<g id="a_node12"><a xlink:href="class_image_widget.html#a3b5f1a6cf3f2fcde08f50f0b91eaff70" target="_top" xlink:title="ImageWidget::actualResize">
<polygon fill="#ffffff" stroke="#000000" points="116,-342.5 116,-361.5 253,-361.5 253,-342.5 116,-342.5"/>
<text text-anchor="middle" x="184.5" y="-349.5" font-family="Helvetica,sans-Serif" font-size="10.00" fill="#000000">ImageWidget::actualResize</text>
</a>
</g>
</g>
<!-- Node190&#45;&gt;Node201 -->
<g id="edge11" class="edge">
<title>Node190&#45;&gt;Node201</title>
<path fill="none" stroke="#191970" d="M54.1734,-292.2355C67.9877,-303.5598 87.6817,-318.3189 107,-328 118.837,-333.9319 132.4302,-338.7434 144.8941,-342.4575"/>
<polygon fill="#191970" stroke="#191970" points="56.2986,-289.4498 46.3879,-285.7045 51.7998,-294.8128 56.2986,-289.4498"/>
</g>
<!-- Node203 -->
<g id="node14" class="node">
<title>Node203</title>
<g id="a_node14"><a xlink:href="class_application.html#a8f9f948d5439efe526f3219d85b29d7f" target="_top" xlink:title="Enregistre la liste des tags accéssibles à l&#39;utilisateur. ">
<polygon fill="#ffffff" stroke="#000000" points="474.5,-304.5 474.5,-323.5 625.5,-323.5 625.5,-304.5 474.5,-304.5"/>
<text text-anchor="middle" x="550" y="-311.5" font-family="Helvetica,sans-Serif" font-size="10.00" fill="#000000">Application::savePossibleTags</text>
</a>
</g>
</g>
<!-- Node190&#45;&gt;Node203 -->
<g id="edge26" class="edge">
<title>Node190&#45;&gt;Node203</title>
<path fill="none" stroke="#191970" d="M75.3557,-288.2252C85.5781,-290.9081 96.62,-293.4174 107,-295 234.8497,-314.4923 385.6809,-316.5836 474.27,-315.718"/>
<polygon fill="#191970" stroke="#191970" points="76.0308,-284.7812 65.4612,-285.5124 74.1798,-291.5321 76.0308,-284.7812"/>
</g>
<!-- Node205 -->
<g id="node16" class="node">
<title>Node205</title>
<g id="a_node16"><a xlink:href="class_button_widget.html#a66e8bfd9bc9a56b3a7cb2a8efc38347e" target="_top" xlink:title="ButtonWidget::actualResize">
<polygon fill="#ffffff" stroke="#000000" points="115,-266.5 115,-285.5 254,-285.5 254,-266.5 115,-266.5"/>
<text text-anchor="middle" x="184.5" y="-273.5" font-family="Helvetica,sans-Serif" font-size="10.00" fill="#000000">ButtonWidget::actualResize</text>
</a>
</g>
</g>
<!-- Node190&#45;&gt;Node205 -->
<g id="edge15" class="edge">
<title>Node190&#45;&gt;Node205</title>
<path fill="none" stroke="#191970" d="M81.4503,-276C92.0538,-276 103.5664,-276 114.9256,-276"/>
<polygon fill="#191970" stroke="#191970" points="81.1892,-272.5001 71.1892,-276 81.1892,-279.5001 81.1892,-272.5001"/>
</g>
<!-- Node206 -->
<g id="node17" class="node">
<title>Node206</title>
<g id="a_node17"><a xlink:href="class_button_widget.html#a5239cdc7bf6ea60722aa0620611be239" target="_top" xlink:title="ButtonWidget::isColored">
<polygon fill="#ffffff" stroke="#000000" points="306.5,-257.5 306.5,-276.5 429.5,-276.5 429.5,-257.5 306.5,-257.5"/>
<text text-anchor="middle" x="368" y="-264.5" font-family="Helvetica,sans-Serif" font-size="10.00" fill="#000000">ButtonWidget::isColored</text>
</a>
</g>
</g>
<!-- Node190&#45;&gt;Node206 -->
<g id="edge23" class="edge">
<title>Node190&#45;&gt;Node206</title>
<path fill="none" stroke="#191970" d="M74.1432,-263.7731C84.6892,-260.9759 96.1905,-258.4117 107,-257 174.7831,-248.1475 253.2413,-253.1885 306.2973,-258.8299"/>
<polygon fill="#191970" stroke="#191970" points="73.0706,-260.4386 64.3784,-266.4963 74.9511,-267.1813 73.0706,-260.4386"/>
</g>
<!-- Node207 -->
<g id="node18" class="node">
<title>Node207</title>
<g id="a_node18"><a xlink:href="class_window_widget.html#a89a68a5d4dc9fd5da10ac75c1121a453" target="_top" xlink:title="WindowWidget::actualResize">
<polygon fill="#ffffff" stroke="#000000" points="111.5,-190.5 111.5,-209.5 257.5,-209.5 257.5,-190.5 111.5,-190.5"/>
<text text-anchor="middle" x="184.5" y="-197.5" font-family="Helvetica,sans-Serif" font-size="10.00" fill="#000000">WindowWidget::actualResize</text>
</a>
</g>
</g>
<!-- Node190&#45;&gt;Node207 -->
<g id="edge17" class="edge">
<title>Node190&#45;&gt;Node207</title>
<path fill="none" stroke="#191970" d="M54.1734,-259.7645C67.9877,-248.4402 87.6817,-233.6811 107,-224 118.837,-218.0681 132.4302,-213.2566 144.8941,-209.5425"/>
<polygon fill="#191970" stroke="#191970" points="51.7998,-257.1872 46.3879,-266.2955 56.2986,-262.5502 51.7998,-257.1872"/>
</g>
<!-- Node209 -->
<g id="node20" class="node">
<title>Node209</title>
<g id="a_node20"><a xlink:href="class_button_widget.html#ac3002e3094a1b6c4e8e55da896f397c6" target="_top" xlink:title="ButtonWidget::ButtonWidget">
<polygon fill="#ffffff" stroke="#000000" points="114,-152.5 114,-171.5 255,-171.5 255,-152.5 114,-152.5"/>
<text text-anchor="middle" x="184.5" y="-159.5" font-family="Helvetica,sans-Serif" font-size="10.00" fill="#000000">ButtonWidget::ButtonWidget</text>
</a>
</g>
</g>
<!-- Node190&#45;&gt;Node209 -->
<g id="edge20" class="edge">
<title>Node190&#45;&gt;Node209</title>
<path fill="none" stroke="#191970" d="M44.5289,-257.2746C55.993,-235.5405 77.8423,-200.2292 107,-181 112.8981,-177.1103 119.5219,-174.0163 126.3484,-171.5554"/>
<polygon fill="#191970" stroke="#191970" points="41.272,-255.9589 39.8757,-266.4614 47.5166,-259.1219 41.272,-255.9589"/>
</g>
<!-- Node210 -->
<g id="node21" class="node">
<title>Node210</title>
<g id="a_node21"><a xlink:href="class_layout_widget.html#ab27c4c576f3a9351b4efdde91433b7a1" target="_top" xlink:title="LayoutWidget::LayoutWidget">
<polygon fill="#ffffff" stroke="#000000" points="113,-114.5 113,-133.5 256,-133.5 256,-114.5 113,-114.5"/>
<text text-anchor="middle" x="184.5" y="-121.5" font-family="Helvetica,sans-Serif" font-size="10.00" fill="#000000">LayoutWidget::LayoutWidget</text>
</a>
</g>
</g>
<!-- Node190&#45;&gt;Node210 -->
<g id="edge24" class="edge">
<title>Node190&#45;&gt;Node210</title>
<path fill="none" stroke="#191970" d="M40.5446,-256.301C49.103,-226.9777 69.324,-172.1786 107,-143 112.0383,-139.0981 117.7682,-135.9849 123.7785,-133.5031"/>
<polygon fill="#191970" stroke="#191970" points="37.1033,-255.6152 37.8235,-266.1856 43.8522,-257.4732 37.1033,-255.6152"/>
</g>
<!-- Node211 -->
<g id="node22" class="node">
<title>Node211</title>
<g id="a_node22"><a xlink:href="class_list_widget.html#ac785b259033fc933d977e7584f8541b2" target="_top" xlink:title="ListWidget::ListWidget">
<polygon fill="#ffffff" stroke="#000000" points="126.5,-76.5 126.5,-95.5 242.5,-95.5 242.5,-76.5 126.5,-76.5"/>
<text text-anchor="middle" x="184.5" y="-83.5" font-family="Helvetica,sans-Serif" font-size="10.00" fill="#000000">ListWidget::ListWidget</text>
</a>
</g>
</g>
<!-- Node190&#45;&gt;Node211 -->
<g id="edge25" class="edge">
<title>Node190&#45;&gt;Node211</title>
<path fill="none" stroke="#191970" d="M38.0075,-255.9109C43.5883,-219.9965 60.4425,-144.8228 107,-105 112.5796,-100.2275 119.1707,-96.6167 126.1153,-93.8912"/>
<polygon fill="#191970" stroke="#191970" points="34.5018,-255.706 36.5683,-266.0973 41.4329,-256.6853 34.5018,-255.706"/>
</g>
<!-- Node212 -->
<g id="node23" class="node">
<title>Node212</title>
<g id="a_node23"><a xlink:href="class_scroll_widget.html#a1e0228552b93ace3479b176641261796" target="_top" xlink:title="ScrollWidget::ScrollWidget">
<polygon fill="#ffffff" stroke="#000000" points="117.5,-38.5 117.5,-57.5 251.5,-57.5 251.5,-38.5 117.5,-38.5"/>
<text text-anchor="middle" x="184.5" y="-45.5" font-family="Helvetica,sans-Serif" font-size="10.00" fill="#000000">ScrollWidget::ScrollWidget</text>
</a>
</g>
</g>
<!-- Node190&#45;&gt;Node212 -->
<g id="edge27" class="edge">
<title>Node190&#45;&gt;Node212</title>
<path fill="none" stroke="#191970" d="M39.6286,-256.6762C49.9613,-210.0652 78.1813,-93.3562 107,-67 111.1913,-63.1668 116.028,-60.0741 121.1958,-57.583"/>
<polygon fill="#191970" stroke="#191970" points="36.2078,-255.9362 37.4974,-266.4522 43.0472,-257.4273 36.2078,-255.9362"/>
</g>
<!-- Node213 -->
<g id="node24" class="node">
<title>Node213</title>
<g id="a_node24"><a xlink:href="class_window_widget.html#a04db7bfbafe9a5fd603ddaa5b838ded5" target="_top" xlink:title="WindowWidget::WindowWidget">
<polygon fill="#ffffff" stroke="#000000" points="107,-.5 107,-19.5 262,-19.5 262,-.5 107,-.5"/>
<text text-anchor="middle" x="184.5" y="-7.5" font-family="Helvetica,sans-Serif" font-size="10.00" fill="#000000">WindowWidget::WindowWidget</text>
</a>
</g>
</g>
<!-- Node190&#45;&gt;Node213 -->
<g id="edge28" class="edge">
<title>Node190&#45;&gt;Node213</title>
<path fill="none" stroke="#191970" d="M38.5956,-256.4106C47.2975,-203.7771 73.5379,-61.1062 107,-29 110.9985,-25.1635 115.6395,-22.0621 120.6247,-19.5597"/>
<polygon fill="#191970" stroke="#191970" points="35.1114,-256.0321 36.9675,-266.463 42.0214,-257.1513 35.1114,-256.0321"/>
</g>
<!-- Node191&#45;&gt;Node192 -->
<g id="edge2" class="edge">
<title>Node191&#45;&gt;Node192</title>
<path fill="none" stroke="#191970" d="M240.9069,-521.681C266.9296,-527.0699 297.4301,-533.3861 322.0282,-538.4799"/>
<polygon fill="#191970" stroke="#191970" points="241.3068,-518.1896 230.8048,-519.589 239.8873,-525.0442 241.3068,-518.1896"/>
</g>
<!-- Node193 -->
<g id="node4" class="node">
<title>Node193</title>
<g id="a_node4"><a xlink:href="class_widget.html#ae5b0e7b391d855a3f75f166bb20253a8" target="_top" xlink:title="Widget::isInside">
<polygon fill="#ffffff" stroke="#000000" points="324.5,-500.5 324.5,-519.5 411.5,-519.5 411.5,-500.5 324.5,-500.5"/>
<text text-anchor="middle" x="368" y="-507.5" font-family="Helvetica,sans-Serif" font-size="10.00" fill="#000000">Widget::isInside</text>
</a>
</g>
</g>
<!-- Node191&#45;&gt;Node193 -->
<g id="edge3" class="edge">
<title>Node191&#45;&gt;Node193</title>
<path fill="none" stroke="#191970" d="M251.7699,-510C276.0075,-510 302.7042,-510 324.3931,-510"/>
<polygon fill="#191970" stroke="#191970" points="251.5547,-506.5001 241.5547,-510 251.5546,-513.5001 251.5547,-506.5001"/>
</g>
<!-- Node194 -->
<g id="node5" class="node">
<title>Node194</title>
<g id="a_node5"><a xlink:href="class_button_widget.html#aae069846bf4c475a475a47daf4178f3d" target="_top" xlink:title="ButtonWidget::actualPropagate\lEvent">
<polygon fill="#ffffff" stroke="#000000" points="474,-593 474,-623 626,-623 626,-593 474,-593"/>
<text text-anchor="start" x="482" y="-611" font-family="Helvetica,sans-Serif" font-size="10.00" fill="#000000">ButtonWidget::actualPropagate</text>
<text text-anchor="middle" x="550" y="-600" font-family="Helvetica,sans-Serif" font-size="10.00" fill="#000000">Event</text>
</a>
</g>
</g>
<!-- Node193&#45;&gt;Node194 -->
<g id="edge4" class="edge">
<title>Node193&#45;&gt;Node194</title>
<path fill="none" stroke="#191970" d="M421.1809,-519.9394C427.1597,-522.3356 432.9183,-525.3093 438,-529 461.6387,-546.168 450.7167,-566.3529 474,-584 478.5212,-587.4267 483.5436,-590.3714 488.7907,-592.9006"/>
<polygon fill="#191970" stroke="#191970" points="422.2647,-516.6108 411.6699,-516.6295 419.964,-523.2219 422.2647,-516.6108"/>
</g>
<!-- Node196 -->
<g id="node7" class="node">
<title>Node196</title>
<g id="a_node7"><a xlink:href="class_grid_widget.html#a9c57f1ca2311d3caa936a481fa7fbef0" target="_top" xlink:title="GridWidget::actualPropagate\lEvent">
<polygon fill="#ffffff" stroke="#000000" points="479,-544 479,-574 621,-574 621,-544 479,-544"/>
<text text-anchor="start" x="487" y="-562" font-family="Helvetica,sans-Serif" font-size="10.00" fill="#000000">GridWidget::actualPropagate</text>
<text text-anchor="middle" x="550" y="-551" font-family="Helvetica,sans-Serif" font-size="10.00" fill="#000000">Event</text>
</a>
</g>
</g>
<!-- Node193&#45;&gt;Node196 -->
<g id="edge6" class="edge">
<title>Node193&#45;&gt;Node196</title>
<path fill="none" stroke="#191970" d="M413.2756,-522.1896C437.7574,-528.7808 468.2047,-536.9782 494.1484,-543.963"/>
<polygon fill="#191970" stroke="#191970" points="414.0896,-518.7842 403.5235,-519.564 412.2697,-525.5435 414.0896,-518.7842"/>
</g>
<!-- Node198 -->
<g id="node9" class="node">
<title>Node198</title>
<g id="a_node9"><a xlink:href="class_list_widget.html#a91b56e252a550deda1d97a2992e3a9f7" target="_top" xlink:title="ListWidget::actualPropagate\lEvent">
<polygon fill="#ffffff" stroke="#000000" points="480,-495 480,-525 620,-525 620,-495 480,-495"/>
<text text-anchor="start" x="488" y="-513" font-family="Helvetica,sans-Serif" font-size="10.00" fill="#000000">ListWidget::actualPropagate</text>
<text text-anchor="middle" x="550" y="-502" font-family="Helvetica,sans-Serif" font-size="10.00" fill="#000000">Event</text>
</a>
</g>
</g>
<!-- Node193&#45;&gt;Node198 -->
<g id="edge8" class="edge">
<title>Node193&#45;&gt;Node198</title>
<path fill="none" stroke="#191970" d="M421.7094,-510C439.8949,-510 460.4828,-510 479.7581,-510"/>
<polygon fill="#191970" stroke="#191970" points="421.5936,-506.5001 411.5935,-510 421.5935,-513.5001 421.5936,-506.5001"/>
</g>
<!-- Node195 -->
<g id="node6" class="node">
<title>Node195</title>
<g id="a_node6"><a xlink:href="class_button_widget.html#a050618b949448e783b589ddd4ccfedf0" target="_top" xlink:title="ButtonWidget::actualSize">
<polygon fill="#ffffff" stroke="#000000" points="662,-598.5 662,-617.5 790,-617.5 790,-598.5 662,-598.5"/>
<text text-anchor="middle" x="726" y="-605.5" font-family="Helvetica,sans-Serif" font-size="10.00" fill="#000000">ButtonWidget::actualSize</text>
</a>
</g>
</g>
<!-- Node194&#45;&gt;Node195 -->
<g id="edge5" class="edge">
<title>Node194&#45;&gt;Node195</title>
<path fill="none" stroke="#191970" d="M636.2558,-608C644.8709,-608 653.5083,-608 661.8375,-608"/>
<polygon fill="#191970" stroke="#191970" points="636.1726,-604.5001 626.1725,-608 636.1725,-611.5001 636.1726,-604.5001"/>
</g>
<!-- Node196&#45;&gt;Node197 -->
<g id="edge7" class="edge">
<title>Node196&#45;&gt;Node197</title>
<path fill="none" stroke="#191970" d="M616.0395,-541.3645C641.212,-534.6423 668.9456,-527.2361 690.2628,-521.5434"/>
<polygon fill="#191970" stroke="#191970" points="614.9298,-538.0381 606.1714,-543.9997 616.7359,-544.8011 614.9298,-538.0381"/>
</g>
<!-- Node202 -->
<g id="node13" class="node">
<title>Node202</title>
<g id="a_node13"><a xlink:href="class_image_widget.html#a5973a50de2ac39437934a09313af6af9" target="_top" xlink:title="ImageWidget::setSelectable">
<polygon fill="#ffffff" stroke="#000000" points="298,-342.5 298,-361.5 438,-361.5 438,-342.5 298,-342.5"/>
<text text-anchor="middle" x="368" y="-349.5" font-family="Helvetica,sans-Serif" font-size="10.00" fill="#000000">ImageWidget::setSelectable</text>
</a>
</g>
</g>
<!-- Node201&#45;&gt;Node202 -->
<g id="edge12" class="edge">
<title>Node201&#45;&gt;Node202</title>
<path fill="none" stroke="#191970" d="M263.164,-352C274.7326,-352 286.5846,-352 297.9639,-352"/>
<polygon fill="#191970" stroke="#191970" points="263.0896,-348.5001 253.0896,-352 263.0895,-355.5001 263.0896,-348.5001"/>
</g>
<!-- Node202&#45;&gt;Node203 -->
<g id="edge13" class="edge">
<title>Node202&#45;&gt;Node203</title>
<path fill="none" stroke="#191970" d="M423.9458,-340.319C449.7558,-334.9301 480.0069,-328.6139 504.404,-323.5201"/>
<polygon fill="#191970" stroke="#191970" points="422.9998,-336.941 413.9263,-342.411 424.4306,-343.7932 422.9998,-336.941"/>
</g>
<!-- Node204 -->
<g id="node15" class="node">
<title>Node204</title>
<g id="a_node15"><a xlink:href="class_application.html#a748bca84fefb9c12661cfaa2f623748d" target="_top" xlink:title="Effectue une sauvegarde de la collection et enregistre les tags. ">
<polygon fill="#ffffff" stroke="#000000" points="663.5,-304.5 663.5,-323.5 788.5,-323.5 788.5,-304.5 663.5,-304.5"/>
<text text-anchor="middle" x="726" y="-311.5" font-family="Helvetica,sans-Serif" font-size="10.00" fill="#000000">Application::~Application</text>
</a>
</g>
</g>
<!-- Node203&#45;&gt;Node204 -->
<g id="edge14" class="edge">
<title>Node203&#45;&gt;Node204</title>
<path fill="none" stroke="#191970" d="M635.7369,-314C645.0528,-314 654.4026,-314 663.3682,-314"/>
<polygon fill="#191970" stroke="#191970" points="635.6613,-310.5001 625.6613,-314 635.6612,-317.5001 635.6613,-310.5001"/>
</g>
<!-- Node205&#45;&gt;Node206 -->
<g id="edge16" class="edge">
<title>Node205&#45;&gt;Node206</title>
<path fill="none" stroke="#191970" d="M264.2809,-272.087C278.3334,-271.3978 292.7669,-270.6899 306.2325,-270.0295"/>
<polygon fill="#191970" stroke="#191970" points="263.9516,-268.5989 254.1351,-272.5847 264.2946,-275.5905 263.9516,-268.5989"/>
</g>
<!-- Node208 -->
<g id="node19" class="node">
<title>Node208</title>
<g id="a_node19"><a xlink:href="class_window_widget.html#abdbf63bb8a663c46bfdd2c117aa55e4d" target="_top" xlink:title="WindowWidget::close">
<polygon fill="#ffffff" stroke="#000000" points="312,-200.5 312,-219.5 424,-219.5 424,-200.5 312,-200.5"/>
<text text-anchor="middle" x="368" y="-207.5" font-family="Helvetica,sans-Serif" font-size="10.00" fill="#000000">WindowWidget::close</text>
</a>
</g>
</g>
<!-- Node207&#45;&gt;Node208 -->
<g id="edge18" class="edge">
<title>Node207&#45;&gt;Node208</title>
<path fill="none" stroke="#191970" d="M267.8142,-204.5403C282.7361,-205.3535 297.958,-206.183 311.8834,-206.9419"/>
<polygon fill="#191970" stroke="#191970" points="267.727,-201.0304 257.5513,-203.981 267.346,-208.0201 267.727,-201.0304"/>
</g>
<!-- Node208&#45;&gt;Node203 -->
<g id="edge19" class="edge">
<title>Node208&#45;&gt;Node203</title>
<path fill="none" stroke="#191970" d="M394.885,-224.3093C407.9565,-231.339 423.8608,-239.9995 438,-248 472.5715,-267.5619 512.5447,-291.4215 534.1518,-304.4234"/>
<polygon fill="#191970" stroke="#191970" points="396.4007,-221.1507 385.9334,-219.5116 393.0939,-227.3204 396.4007,-221.1507"/>
</g>
</g>
</svg>
        <g id="navigator" transform="translate(0 0)" fill="#404254">
                <rect fill="#f2f5e9" fill-opacity="0.5" stroke="#606060" stroke-width=".5" x="0" y="0" width="60" height="60"/>
                <use id="zoomplus" xlink:href="#zoomPlus" x="17" y="9" onmousedown="handleZoom(evt,'in')"/>
                <use id="zoomminus" xlink:href="#zoomMin" x="42" y="9" onmousedown="handleZoom(evt,'out')"/>
                <use id="reset" xlink:href="#resetDef" x="30" y="36" onmousedown="handleReset()"/>
                <g id="arrowUp" xlink:href="#dirArrow" transform="translate(30 24)" onmousedown="handlePan(0,-1)">
                  <use xlink:href="#rim" fill="#404040">
                        <set attributeName="fill" to="#808080" begin="arrowUp.mouseover" end="arrowUp.mouseout"/>
                  </use>
                  <path fill="none" stroke="white" stroke-width="1.5" d="M0,-3.0v7 M-2.5,-0.5L0,-3.0L2.5,-0.5"/>
                </g>
                <g id="arrowRight" xlink:href="#dirArrow" transform="rotate(90) translate(36 -43)" onmousedown="handlePan(1,0)">
                  <use xlink:href="#rim" fill="#404040">
                        <set attributeName="fill" to="#808080" begin="arrowRight.mouseover" end="arrowRight.mouseout"/>
                  </use>
                  <path fill="none" stroke="white" stroke-width="1.5" d="M0,-3.0v7 M-2.5,-0.5L0,-3.0L2.5,-0.5"/>
                </g>
                <g id="arrowDown" xlink:href="#dirArrow" transform="rotate(180) translate(-30 -48)" onmousedown="handlePan(0,1)">
                  <use xlink:href="#rim" fill="#404040">
                        <set attributeName="fill" to="#808080" begin="arrowDown.mouseover" end="arrowDown.mouseout"/>
                  </use>
                  <path fill="none" stroke="white" stroke-width="1.5" d="M0,-3.0v7 M-2.5,-0.5L0,-3.0L2.5,-0.5"/>
                </g>
                <g id="arrowLeft" xlink:href="#dirArrow" transform="rotate(270) translate(-36 17)" onmousedown="handlePan(-1,0)">
                  <use xlink:href="#rim" fill="#404040">
                        <set attributeName="fill" to="#808080" begin="arrowLeft.mouseover" end="arrowLeft.mouseout"/>
                  </use>
                  <path fill="none" stroke="white" stroke-width="1.5" d="M0,-3.0v7 M-2.5,-0.5L0,-3.0L2.5,-0.5"/>
                </g>
        </g>
        <svg viewBox="0 0 15 15" width="100%" height="30px" preserveAspectRatio="xMaxYMin meet">
         <g id="arrow_out" transform="scale(0.3 0.3)">
          <a xlink:href="class_widget_aea985c025ef9b1210d0e3ab7d9c075ea_icgraph_org.svg" target="_base">
           <rect id="button" ry="5" rx="5" y="6" x="6" height="38" width="38"
                fill="#f2f5e9" fill-opacity="0.5" stroke="#606060" stroke-width="1.0"/>
           <path id="arrow"
             d="M 11.500037,31.436501 C 11.940474,20.09759 22.043105,11.32322 32.158766,21.979434 L 37.068811,17.246167 C 37.068811,17.246167 37.088388,32 37.088388,32 L 22.160133,31.978069 C 22.160133,31.978069 26.997745,27.140456 26.997745,27.140456 C 18.528582,18.264221 13.291696,25.230495 11.500037,31.436501 z"
             style="fill:#404040;"/>
          </a>
         </g>
        </svg>
</svg>
