<?xml version="1.0" encoding="UTF-8" standalone="no"?>
<!DOCTYPE svg PUBLIC "-//W3C//DTD SVG 1.1//EN"
 "http://www.w3.org/Graphics/SVG/1.1/DTD/svg11.dtd">
<!-- Generated by graphviz version 2.40.1 (20161225.0304)
 -->
<!-- Title: Application::save Pages: 1 -->
<svg width="371pt" height="28pt"
 viewBox="0.00 0.00 371.00 28.00" xmlns="http://www.w3.org/2000/svg" xmlns:xlink="http://www.w3.org/1999/xlink">
<g id="graph0" class="graph" transform="scale(1 1) rotate(0) translate(4 24)">
<title>Application::save</title>
<polygon fill="#ffffff" stroke="transparent" points="-4,4 -4,-24 367,-24 367,4 -4,4"/>
<!-- Node63 -->
<g id="node1" class="node">
<title>Node63</title>
<polygon fill="#bfbfbf" stroke="#000000" points="0,-.5 0,-19.5 92,-19.5 92,-.5 0,-.5"/>
<text text-anchor="middle" x="46" y="-7.5" font-family="Helvetica,sans-Serif" font-size="10.00" fill="#000000">Application::save</text>
</g>
<!-- Node64 -->
<g id="node2" class="node">
<title>Node64</title>
<g id="a_node2"><a xlink:href="class_application.html#ae22fc39c79b4efa62e80f548805410e5" target="_top" xlink:title="Lance la fenêtre modale qui demande un fichier d&#39;enregistre ment puis appelle la fonction actualSave...">
<polygon fill="#ffffff" stroke="#000000" points="128,-.5 128,-19.5 232,-19.5 232,-.5 128,-.5"/>
<text text-anchor="middle" x="180" y="-7.5" font-family="Helvetica,sans-Serif" font-size="10.00" fill="#000000">Application::saveAs</text>
</a>
</g>
</g>
<!-- Node63&#45;&gt;Node64 -->
<g id="edge1" class="edge">
<title>Node63&#45;&gt;Node64</title>
<path fill="none" stroke="#191970" d="M92.1152,-10C100.3861,-10 109.1287,-10 117.7652,-10"/>
<polygon fill="#191970" stroke="#191970" points="117.8204,-13.5001 127.8204,-10 117.8204,-6.5001 117.8204,-13.5001"/>
</g>
<!-- Node65 -->
<g id="node3" class="node">
<title>Node65</title>
<g id="a_node3"><a xlink:href="_file_dialog_8hpp.html#a2781b8e73494c1ffed0cbf1060545c8f" target="_top" xlink:title="Ouvre une boîte de dialogue qui demande un nom de sauvegarde pour un fichier. ">
<polygon fill="#ffffff" stroke="#000000" points="268,-.5 268,-19.5 363,-19.5 363,-.5 268,-.5"/>
<text text-anchor="middle" x="315.5" y="-7.5" font-family="Helvetica,sans-Serif" font-size="10.00" fill="#000000">getSaveFileName</text>
</a>
</g>
</g>
<!-- Node64&#45;&gt;Node65 -->
<g id="edge2" class="edge">
<title>Node64&#45;&gt;Node65</title>
<path fill="none" stroke="#191970" d="M232.0003,-10C240.3836,-10 249.1075,-10 257.6191,-10"/>
<polygon fill="#191970" stroke="#191970" points="257.8588,-13.5001 267.8588,-10 257.8587,-6.5001 257.8588,-13.5001"/>
</g>
</g>
</svg>
