<?xml version="1.0" encoding="UTF-8" standalone="no"?>
<!DOCTYPE svg PUBLIC "-//W3C//DTD SVG 1.1//EN"
 "http://www.w3.org/Graphics/SVG/1.1/DTD/svg11.dtd">
<!-- Generated by graphviz version 2.40.1 (20161225.0304)
 -->
<!-- Title: src/ConsolePrototype/config.hpp Pages: 1 -->
<svg width="260pt" height="151pt"
 viewBox="0.00 0.00 259.50 151.00" xmlns="http://www.w3.org/2000/svg" xmlns:xlink="http://www.w3.org/1999/xlink">
<g id="graph0" class="graph" transform="scale(1 1) rotate(0) translate(4 147)">
<title>src/ConsolePrototype/config.hpp</title>
<polygon fill="#ffffff" stroke="transparent" points="-4,4 -4,-147 255.5,-147 255.5,4 -4,4"/>
<!-- Node0 -->
<g id="node1" class="node">
<title>Node0</title>
<polygon fill="#bfbfbf" stroke="#000000" points="70,-112.5 70,-142.5 181,-142.5 181,-112.5 70,-112.5"/>
<text text-anchor="start" x="78" y="-130.5" font-family="Helvetica,sans-Serif" font-size="10.00" fill="#000000">src/ConsolePrototype</text>
<text text-anchor="middle" x="125.5" y="-119.5" font-family="Helvetica,sans-Serif" font-size="10.00" fill="#000000">/config.hpp</text>
</g>
<!-- Node1 -->
<g id="node2" class="node">
<title>Node1</title>
<g id="a_node2"><a xlink:href="_tag_list_8hpp.html" target="_top" xlink:title="../Image/TagList.hpp">
<polygon fill="#ffffff" stroke="#000000" points="6,-56.5 6,-75.5 113,-75.5 113,-56.5 6,-56.5"/>
<text text-anchor="middle" x="59.5" y="-63.5" font-family="Helvetica,sans-Serif" font-size="10.00" fill="#000000">../Image/TagList.hpp</text>
</a>
</g>
</g>
<!-- Node0&#45;&gt;Node1 -->
<g id="edge1" class="edge">
<title>Node0&#45;&gt;Node1</title>
<path fill="none" stroke="#191970" d="M109.1854,-112.2977C99.5467,-103.3163 87.3309,-91.9334 77.4241,-82.702"/>
<polygon fill="#191970" stroke="#191970" points="79.7696,-80.1036 70.0674,-75.8469 74.9975,-85.2249 79.7696,-80.1036"/>
</g>
<!-- Node4 -->
<g id="node5" class="node">
<title>Node4</title>
<polygon fill="#ffffff" stroke="#bfbfbf" points="131.5,-56.5 131.5,-75.5 251.5,-75.5 251.5,-56.5 131.5,-56.5"/>
<text text-anchor="middle" x="191.5" y="-63.5" font-family="Helvetica,sans-Serif" font-size="10.00" fill="#000000">experimental/filesystem</text>
</g>
<!-- Node0&#45;&gt;Node4 -->
<g id="edge4" class="edge">
<title>Node0&#45;&gt;Node4</title>
<path fill="none" stroke="#191970" d="M141.8146,-112.2977C151.4533,-103.3163 163.6691,-91.9334 173.5759,-82.702"/>
<polygon fill="#191970" stroke="#191970" points="176.0025,-85.2249 180.9326,-75.8469 171.2304,-80.1036 176.0025,-85.2249"/>
</g>
<!-- Node2 -->
<g id="node3" class="node">
<title>Node2</title>
<polygon fill="#ffffff" stroke="#bfbfbf" points="0,-.5 0,-19.5 41,-19.5 41,-.5 0,-.5"/>
<text text-anchor="middle" x="20.5" y="-7.5" font-family="Helvetica,sans-Serif" font-size="10.00" fill="#000000">string</text>
</g>
<!-- Node1&#45;&gt;Node2 -->
<g id="edge2" class="edge">
<title>Node1&#45;&gt;Node2</title>
<path fill="none" stroke="#191970" d="M52.7067,-56.2455C47.2822,-48.4564 39.5339,-37.3308 32.9967,-27.9439"/>
<polygon fill="#191970" stroke="#191970" points="35.8025,-25.8485 27.2154,-19.6427 30.0583,-29.849 35.8025,-25.8485"/>
</g>
<!-- Node3 -->
<g id="node4" class="node">
<title>Node3</title>
<polygon fill="#ffffff" stroke="#bfbfbf" points="59.5,-.5 59.5,-19.5 137.5,-19.5 137.5,-.5 59.5,-.5"/>
<text text-anchor="middle" x="98.5" y="-7.5" font-family="Helvetica,sans-Serif" font-size="10.00" fill="#000000">unordered_set</text>
</g>
<!-- Node1&#45;&gt;Node3 -->
<g id="edge3" class="edge">
<title>Node1&#45;&gt;Node3</title>
<path fill="none" stroke="#191970" d="M66.2933,-56.2455C71.7178,-48.4564 79.4661,-37.3308 86.0033,-27.9439"/>
<polygon fill="#191970" stroke="#191970" points="88.9417,-29.849 91.7846,-19.6427 83.1975,-25.8485 88.9417,-29.849"/>
</g>
</g>
</svg>
