<?xml version="1.0" encoding="UTF-8" standalone="no"?>
<!DOCTYPE svg PUBLIC "-//W3C//DTD SVG 1.1//EN"
 "http://www.w3.org/Graphics/SVG/1.1/DTD/svg11.dtd">
<!-- Generated by graphviz version 2.40.1 (20161225.0304)
 -->
<!-- Title: src/ConsolePrototype/config.cpp Pages: 1 -->
<svg width="260pt" height="207pt"
 viewBox="0.00 0.00 259.50 207.00" xmlns="http://www.w3.org/2000/svg" xmlns:xlink="http://www.w3.org/1999/xlink">
<g id="graph0" class="graph" transform="scale(1 1) rotate(0) translate(4 203)">
<title>src/ConsolePrototype/config.cpp</title>
<polygon fill="#ffffff" stroke="transparent" points="-4,4 -4,-203 255.5,-203 255.5,4 -4,4"/>
<!-- Node0 -->
<g id="node1" class="node">
<title>Node0</title>
<polygon fill="#bfbfbf" stroke="#000000" points="107,-168.5 107,-198.5 218,-198.5 218,-168.5 107,-168.5"/>
<text text-anchor="start" x="115" y="-186.5" font-family="Helvetica,sans-Serif" font-size="10.00" fill="#000000">src/ConsolePrototype</text>
<text text-anchor="middle" x="162.5" y="-175.5" font-family="Helvetica,sans-Serif" font-size="10.00" fill="#000000">/config.cpp</text>
</g>
<!-- Node1 -->
<g id="node2" class="node">
<title>Node1</title>
<g id="a_node2"><a xlink:href="config_8hpp.html" target="_top" xlink:title="config.hpp">
<polygon fill="#ffffff" stroke="#000000" points="94.5,-112.5 94.5,-131.5 156.5,-131.5 156.5,-112.5 94.5,-112.5"/>
<text text-anchor="middle" x="125.5" y="-119.5" font-family="Helvetica,sans-Serif" font-size="10.00" fill="#000000">config.hpp</text>
</a>
</g>
</g>
<!-- Node0&#45;&gt;Node1 -->
<g id="edge1" class="edge">
<title>Node0&#45;&gt;Node1</title>
<path fill="none" stroke="#191970" d="M153.3539,-168.2977C148.3249,-159.9388 142.0445,-149.4997 136.7209,-140.6509"/>
<polygon fill="#191970" stroke="#191970" points="139.5785,-138.6114 131.4242,-131.8469 133.5803,-142.2201 139.5785,-138.6114"/>
</g>
<!-- Node6 -->
<g id="node7" class="node">
<title>Node6</title>
<polygon fill="#ffffff" stroke="#bfbfbf" points="174.5,-112.5 174.5,-131.5 224.5,-131.5 224.5,-112.5 174.5,-112.5"/>
<text text-anchor="middle" x="199.5" y="-119.5" font-family="Helvetica,sans-Serif" font-size="10.00" fill="#000000">fstream</text>
</g>
<!-- Node0&#45;&gt;Node6 -->
<g id="edge6" class="edge">
<title>Node0&#45;&gt;Node6</title>
<path fill="none" stroke="#191970" d="M171.6461,-168.2977C176.6751,-159.9388 182.9555,-149.4997 188.2791,-140.6509"/>
<polygon fill="#191970" stroke="#191970" points="191.4197,-142.2201 193.5758,-131.8469 185.4215,-138.6114 191.4197,-142.2201"/>
</g>
<!-- Node2 -->
<g id="node3" class="node">
<title>Node2</title>
<g id="a_node3"><a xlink:href="_tag_list_8hpp.html" target="_top" xlink:title="../Image/TagList.hpp">
<polygon fill="#ffffff" stroke="#000000" points="6,-56.5 6,-75.5 113,-75.5 113,-56.5 6,-56.5"/>
<text text-anchor="middle" x="59.5" y="-63.5" font-family="Helvetica,sans-Serif" font-size="10.00" fill="#000000">../Image/TagList.hpp</text>
</a>
</g>
</g>
<!-- Node1&#45;&gt;Node2 -->
<g id="edge2" class="edge">
<title>Node1&#45;&gt;Node2</title>
<path fill="none" stroke="#191970" d="M114.0037,-112.2455C104.2558,-103.9746 90.0741,-91.9416 78.6202,-82.2232"/>
<polygon fill="#191970" stroke="#191970" points="80.7541,-79.4437 70.8646,-75.6427 76.2253,-84.7813 80.7541,-79.4437"/>
</g>
<!-- Node5 -->
<g id="node6" class="node">
<title>Node5</title>
<polygon fill="#ffffff" stroke="#bfbfbf" points="131.5,-56.5 131.5,-75.5 251.5,-75.5 251.5,-56.5 131.5,-56.5"/>
<text text-anchor="middle" x="191.5" y="-63.5" font-family="Helvetica,sans-Serif" font-size="10.00" fill="#000000">experimental/filesystem</text>
</g>
<!-- Node1&#45;&gt;Node5 -->
<g id="edge5" class="edge">
<title>Node1&#45;&gt;Node5</title>
<path fill="none" stroke="#191970" d="M136.9963,-112.2455C146.7442,-103.9746 160.9259,-91.9416 172.3798,-82.2232"/>
<polygon fill="#191970" stroke="#191970" points="174.7747,-84.7813 180.1354,-75.6427 170.2459,-79.4437 174.7747,-84.7813"/>
</g>
<!-- Node3 -->
<g id="node4" class="node">
<title>Node3</title>
<polygon fill="#ffffff" stroke="#bfbfbf" points="0,-.5 0,-19.5 41,-19.5 41,-.5 0,-.5"/>
<text text-anchor="middle" x="20.5" y="-7.5" font-family="Helvetica,sans-Serif" font-size="10.00" fill="#000000">string</text>
</g>
<!-- Node2&#45;&gt;Node3 -->
<g id="edge3" class="edge">
<title>Node2&#45;&gt;Node3</title>
<path fill="none" stroke="#191970" d="M52.7067,-56.2455C47.2822,-48.4564 39.5339,-37.3308 32.9967,-27.9439"/>
<polygon fill="#191970" stroke="#191970" points="35.8025,-25.8485 27.2154,-19.6427 30.0583,-29.849 35.8025,-25.8485"/>
</g>
<!-- Node4 -->
<g id="node5" class="node">
<title>Node4</title>
<polygon fill="#ffffff" stroke="#bfbfbf" points="59.5,-.5 59.5,-19.5 137.5,-19.5 137.5,-.5 59.5,-.5"/>
<text text-anchor="middle" x="98.5" y="-7.5" font-family="Helvetica,sans-Serif" font-size="10.00" fill="#000000">unordered_set</text>
</g>
<!-- Node2&#45;&gt;Node4 -->
<g id="edge4" class="edge">
<title>Node2&#45;&gt;Node4</title>
<path fill="none" stroke="#191970" d="M66.2933,-56.2455C71.7178,-48.4564 79.4661,-37.3308 86.0033,-27.9439"/>
<polygon fill="#191970" stroke="#191970" points="88.9417,-29.849 91.7846,-19.6427 83.1975,-25.8485 88.9417,-29.849"/>
</g>
</g>
</svg>
