<?xml version="1.0" encoding="UTF-8" standalone="no"?>
<!DOCTYPE svg PUBLIC "-//W3C//DTD SVG 1.1//EN"
 "http://www.w3.org/Graphics/SVG/1.1/DTD/svg11.dtd">
<!-- Generated by graphviz version 2.40.1 (20161225.0304)
 -->
<!-- Title: src/Interface Pages: 1 -->
<svg width="149pt" height="223pt"
 viewBox="0.00 0.00 149.00 223.00" xmlns="http://www.w3.org/2000/svg" xmlns:xlink="http://www.w3.org/1999/xlink">
<g id="graph0" class="graph" transform="scale(1 1) rotate(0) translate(4 219)">
<title>src/Interface</title>
<polygon fill="#ffffff" stroke="transparent" points="-4,4 -4,-219 145,-219 145,4 -4,4"/>
<g id="clust1" class="cluster">
<title>clusterdir_68267d1309a1af8e8297ef4c3efbcdba</title>
<g id="a_clust1"><a xlink:href="dir_68267d1309a1af8e8297ef4c3efbcdba.html" target="_top" xlink:title="src">
<polygon fill="#ddddee" stroke="#000000" points="29,-136 29,-207 101,-207 101,-136 29,-136"/>
<text text-anchor="middle" x="65" y="-195" font-family="Helvetica,sans-Serif" font-size="10.00" fill="#000000">src</text>
</a>
</g>
</g>
<!-- dir_bba04cfeda2ebb06ea600493f2bb1319 -->
<g id="node1" class="node">
<title>dir_bba04cfeda2ebb06ea600493f2bb1319</title>
<g id="a_node1"><a xlink:href="dir_bba04cfeda2ebb06ea600493f2bb1319.html" target="_top" xlink:title="Interface">
<polygon fill="#eeeeff" stroke="#000000" points="92.5,-180 37.5,-180 37.5,-144 92.5,-144 92.5,-180"/>
<text text-anchor="middle" x="65" y="-159.5" font-family="Helvetica,sans-Serif" font-size="10.00" fill="#000000">Interface</text>
</a>
</g>
</g>
<!-- dir_fdbdd9841f9a730f284bb666ff3d8cfe -->
<g id="node2" class="node">
<title>dir_fdbdd9841f9a730f284bb666ff3d8cfe</title>
<g id="a_node2"><a xlink:href="dir_fdbdd9841f9a730f284bb666ff3d8cfe.html" target="_top" xlink:title="Image">
<polygon fill="none" stroke="#000000" points="54,-36 0,-36 0,0 54,0 54,-36"/>
<text text-anchor="middle" x="27" y="-15.5" font-family="Helvetica,sans-Serif" font-size="10.00" fill="#000000">Image</text>
</a>
</g>
</g>
<!-- dir_bba04cfeda2ebb06ea600493f2bb1319&#45;&gt;dir_fdbdd9841f9a730f284bb666ff3d8cfe -->
<g id="edge3" class="edge">
<title>dir_bba04cfeda2ebb06ea600493f2bb1319&#45;&gt;dir_fdbdd9841f9a730f284bb666ff3d8cfe</title>
<path fill="none" stroke="#000000" d="M49.1294,-143.8799C41.4989,-133.9899 33.1293,-121.1113 29,-108 22.7109,-88.031 22.4559,-64.3173 23.6422,-46.2457"/>
<polygon fill="#000000" stroke="#000000" points="27.1477,-46.3263 24.4991,-36.0679 20.1724,-45.739 27.1477,-46.3263"/>
<g id="a_edge3&#45;headlabel"><a xlink:href="dir_000003_000002.html" target="_top" xlink:title="4">
<text text-anchor="middle" x="29.6755" y="-47.6464" font-family="Helvetica,sans-Serif" font-size="10.00" fill="#000000">4</text>
</a>
</g>
</g>
<!-- dir_659a8b1a10b8174f9cdda162b3bf05fc -->
<g id="node3" class="node">
<title>dir_659a8b1a10b8174f9cdda162b3bf05fc</title>
<g id="a_node3"><a xlink:href="dir_659a8b1a10b8174f9cdda162b3bf05fc.html" target="_top" xlink:title="Collection">
<polygon fill="none" stroke="#000000" points="141,-36 81,-36 81,0 141,0 141,-36"/>
<text text-anchor="middle" x="111" y="-15.5" font-family="Helvetica,sans-Serif" font-size="10.00" fill="#000000">Collection</text>
</a>
</g>
</g>
<!-- dir_bba04cfeda2ebb06ea600493f2bb1319&#45;&gt;dir_659a8b1a10b8174f9cdda162b3bf05fc -->
<g id="edge4" class="edge">
<title>dir_bba04cfeda2ebb06ea600493f2bb1319&#45;&gt;dir_659a8b1a10b8174f9cdda162b3bf05fc</title>
<path fill="none" stroke="#000000" d="M80.3975,-143.7193C87.8986,-133.7854 96.2951,-120.9159 101,-108 108.208,-88.2124 110.6107,-64.4903 111.2633,-46.3693"/>
<polygon fill="#000000" stroke="#000000" points="114.7668,-46.2267 111.4698,-36.158 107.7683,-46.0852 114.7668,-46.2267"/>
<g id="a_edge4&#45;headlabel"><a xlink:href="dir_000003_000001.html" target="_top" xlink:title="4">
<text text-anchor="middle" x="117.533" y="-47.378" font-family="Helvetica,sans-Serif" font-size="10.00" fill="#000000">4</text>
</a>
</g>
</g>
<!-- dir_ff383ddf1aa4eab0c4ce7910366d05a5 -->
<g id="node4" class="node">
<title>dir_ff383ddf1aa4eab0c4ce7910366d05a5</title>
<g id="a_node4"><a xlink:href="dir_ff383ddf1aa4eab0c4ce7910366d05a5.html" target="_top" xlink:title="Utilities">
<polygon fill="#ffffff" stroke="#ff0000" points="92,-108 38,-108 38,-72 92,-72 92,-108"/>
<text text-anchor="middle" x="65" y="-87.5" font-family="Helvetica,sans-Serif" font-size="10.00" fill="#000000">Utilities</text>
</a>
</g>
</g>
<!-- dir_bba04cfeda2ebb06ea600493f2bb1319&#45;&gt;dir_ff383ddf1aa4eab0c4ce7910366d05a5 -->
<g id="edge5" class="edge">
<title>dir_bba04cfeda2ebb06ea600493f2bb1319&#45;&gt;dir_ff383ddf1aa4eab0c4ce7910366d05a5</title>
<path fill="none" stroke="#000000" d="M65,-143.8314C65,-136.131 65,-126.9743 65,-118.4166"/>
<polygon fill="#000000" stroke="#000000" points="68.5001,-118.4132 65,-108.4133 61.5001,-118.4133 68.5001,-118.4132"/>
<g id="a_edge5&#45;headlabel"><a xlink:href="dir_000003_000005.html" target="_top" xlink:title="4">
<text text-anchor="middle" x="71.3393" y="-119.5079" font-family="Helvetica,sans-Serif" font-size="10.00" fill="#000000">4</text>
</a>
</g>
</g>
<!-- dir_ff383ddf1aa4eab0c4ce7910366d05a5&#45;&gt;dir_fdbdd9841f9a730f284bb666ff3d8cfe -->
<g id="edge1" class="edge">
<title>dir_ff383ddf1aa4eab0c4ce7910366d05a5&#45;&gt;dir_fdbdd9841f9a730f284bb666ff3d8cfe</title>
<path fill="none" stroke="#000000" d="M55.411,-71.8314C51.1683,-63.7925 46.0879,-54.1666 41.404,-45.2918"/>
<polygon fill="#000000" stroke="#000000" points="44.4811,-43.6235 36.7181,-36.4133 38.2904,-46.8908 44.4811,-43.6235"/>
<g id="a_edge1&#45;headlabel"><a xlink:href="dir_000005_000002.html" target="_top" xlink:title="1">
<text text-anchor="middle" x="48.6699" y="-42.9772" font-family="Helvetica,sans-Serif" font-size="10.00" fill="#000000">1</text>
</a>
</g>
</g>
<!-- dir_ff383ddf1aa4eab0c4ce7910366d05a5&#45;&gt;dir_659a8b1a10b8174f9cdda162b3bf05fc -->
<g id="edge2" class="edge">
<title>dir_ff383ddf1aa4eab0c4ce7910366d05a5&#45;&gt;dir_659a8b1a10b8174f9cdda162b3bf05fc</title>
<path fill="none" stroke="#000000" d="M76.6077,-71.8314C81.7978,-63.7079 88.0232,-53.9637 93.7425,-45.0118"/>
<polygon fill="#000000" stroke="#000000" points="96.8015,-46.7246 99.236,-36.4133 90.9026,-42.9559 96.8015,-46.7246"/>
<g id="a_edge2&#45;headlabel"><a xlink:href="dir_000005_000001.html" target="_top" xlink:title="1">
<text text-anchor="middle" x="97.2589" y="-48.7824" font-family="Helvetica,sans-Serif" font-size="10.00" fill="#000000">1</text>
</a>
</g>
</g>
</g>
</svg>
