<?xml version="1.0" encoding="UTF-8" standalone="no"?>
<!DOCTYPE svg PUBLIC "-//W3C//DTD SVG 1.1//EN"
 "http://www.w3.org/Graphics/SVG/1.1/DTD/svg11.dtd">
<!-- Generated by graphviz version 2.40.1 (20161225.0304)
 -->
<!-- Title: src/Utilities Pages: 1 -->
<svg width="199pt" height="159pt"
 viewBox="0.00 0.00 199.00 159.00" xmlns="http://www.w3.org/2000/svg" xmlns:xlink="http://www.w3.org/1999/xlink">
<g id="graph0" class="graph" transform="scale(1 1) rotate(0) translate(4 155)">
<title>src/Utilities</title>
<polygon fill="#ffffff" stroke="transparent" points="-4,4 -4,-155 195,-155 195,4 -4,4"/>
<g id="clust1" class="cluster">
<title>clusterdir_68267d1309a1af8e8297ef4c3efbcdba</title>
<g id="a_clust1"><a xlink:href="dir_68267d1309a1af8e8297ef4c3efbcdba.html" target="_top" xlink:title="src">
<polygon fill="#ddddee" stroke="#000000" points="8,-56 8,-143 166,-143 166,-56 8,-56"/>
<text text-anchor="middle" x="87" y="-131" font-family="Helvetica,sans-Serif" font-size="10.00" fill="#000000">src</text>
</a>
</g>
</g>
<g id="clust2" class="cluster">
<title>clusterdir_ff383ddf1aa4eab0c4ce7910366d05a5</title>
<g id="a_clust2"><a xlink:href="dir_ff383ddf1aa4eab0c4ce7910366d05a5.html" target="_top">
<polygon fill="#eeeeff" stroke="#000000" points="16,-64 16,-116 158,-116 158,-64 16,-64"/>
</a>
</g>
</g>
<!-- dir_ff383ddf1aa4eab0c4ce7910366d05a5 -->
<g id="node1" class="node">
<title>dir_ff383ddf1aa4eab0c4ce7910366d05a5</title>
<text text-anchor="middle" x="123" y="-87.5" font-family="Helvetica,sans-Serif" font-size="10.00" fill="#000000">Utilities</text>
</g>
<!-- dir_fdbdd9841f9a730f284bb666ff3d8cfe -->
<g id="node3" class="node">
<title>dir_fdbdd9841f9a730f284bb666ff3d8cfe</title>
<g id="a_node3"><a xlink:href="dir_fdbdd9841f9a730f284bb666ff3d8cfe.html" target="_top" xlink:title="Image">
<polygon fill="none" stroke="#000000" points="113,-36 59,-36 59,0 113,0 113,-36"/>
<text text-anchor="middle" x="86" y="-15.5" font-family="Helvetica,sans-Serif" font-size="10.00" fill="#000000">Image</text>
</a>
</g>
</g>
<!-- dir_ff383ddf1aa4eab0c4ce7910366d05a5&#45;&gt;dir_fdbdd9841f9a730f284bb666ff3d8cfe -->
<g id="edge1" class="edge">
<title>dir_ff383ddf1aa4eab0c4ce7910366d05a5&#45;&gt;dir_fdbdd9841f9a730f284bb666ff3d8cfe</title>
<path fill="none" stroke="#000000" d="M113.6633,-71.8314C109.5757,-63.8771 104.6896,-54.369 100.1691,-45.5723"/>
<polygon fill="#000000" stroke="#000000" points="103.1461,-43.7078 95.4624,-36.4133 96.9201,-46.9074 103.1461,-43.7078"/>
<g id="a_edge1&#45;headlabel"><a xlink:href="dir_000005_000002.html" target="_top" xlink:title="1">
<text text-anchor="middle" x="107.3144" y="-43.1073" font-family="Helvetica,sans-Serif" font-size="10.00" fill="#000000">1</text>
</a>
</g>
</g>
<!-- dir_659a8b1a10b8174f9cdda162b3bf05fc -->
<g id="node4" class="node">
<title>dir_659a8b1a10b8174f9cdda162b3bf05fc</title>
<g id="a_node4"><a xlink:href="dir_659a8b1a10b8174f9cdda162b3bf05fc.html" target="_top" xlink:title="Collection">
<polygon fill="none" stroke="#000000" points="191,-36 131,-36 131,0 191,0 191,-36"/>
<text text-anchor="middle" x="161" y="-15.5" font-family="Helvetica,sans-Serif" font-size="10.00" fill="#000000">Collection</text>
</a>
</g>
</g>
<!-- dir_ff383ddf1aa4eab0c4ce7910366d05a5&#45;&gt;dir_659a8b1a10b8174f9cdda162b3bf05fc -->
<g id="edge2" class="edge">
<title>dir_ff383ddf1aa4eab0c4ce7910366d05a5&#45;&gt;dir_659a8b1a10b8174f9cdda162b3bf05fc</title>
<path fill="none" stroke="#000000" d="M132.589,-71.8314C136.8317,-63.7925 141.9121,-54.1666 146.596,-45.2918"/>
<polygon fill="#000000" stroke="#000000" points="149.7096,-46.8908 151.2819,-36.4133 143.5189,-43.6235 149.7096,-46.8908"/>
<g id="a_edge2&#45;headlabel"><a xlink:href="dir_000005_000001.html" target="_top" xlink:title="1">
<text text-anchor="middle" x="150.5428" y="-48.895" font-family="Helvetica,sans-Serif" font-size="10.00" fill="#000000">1</text>
</a>
</g>
</g>
<!-- dir_688ca17cd8706167d2a7a81dc66c8549 -->
<g id="node2" class="node">
<title>dir_688ca17cd8706167d2a7a81dc66c8549</title>
<g id="a_node2"><a xlink:href="dir_688ca17cd8706167d2a7a81dc66c8549.html" target="_top" xlink:title="TextBox">
<polygon fill="#ffffff" stroke="#000000" points="78,-108 24,-108 24,-72 78,-72 78,-108"/>
<text text-anchor="middle" x="51" y="-87.5" font-family="Helvetica,sans-Serif" font-size="10.00" fill="#000000">TextBox</text>
</a>
</g>
</g>
</g>
</svg>
