<?xml version="1.0" encoding="UTF-8" standalone="no"?>
<!DOCTYPE svg PUBLIC "-//W3C//DTD SVG 1.1//EN"
 "http://www.w3.org/Graphics/SVG/1.1/DTD/svg11.dtd">
<!-- Generated by graphviz version 2.40.1 (20161225.0304)
 -->
<!-- Title: src Pages: 1 -->
<svg width="176pt" height="292pt"
 viewBox="0.00 0.00 176.00 292.00" xmlns="http://www.w3.org/2000/svg" xmlns:xlink="http://www.w3.org/1999/xlink">
<g id="graph0" class="graph" transform="scale(1 1) rotate(0) translate(4 288)">
<title>src</title>
<polygon fill="#ffffff" stroke="transparent" points="-4,4 -4,-288 172,-288 172,4 -4,4"/>
<g id="clust1" class="cluster">
<title>clusterdir_68267d1309a1af8e8297ef4c3efbcdba</title>
<g id="a_clust1"><a xlink:href="dir_68267d1309a1af8e8297ef4c3efbcdba.html" target="_top">
<polygon fill="#eeeeff" stroke="#000000" points="8,-8 8,-276 160,-276 160,-8 8,-8"/>
</a>
</g>
</g>
<!-- dir_68267d1309a1af8e8297ef4c3efbcdba -->
<g id="node1" class="node">
<title>dir_68267d1309a1af8e8297ef4c3efbcdba</title>
<text text-anchor="middle" x="82" y="-247.5" font-family="Helvetica,sans-Serif" font-size="10.00" fill="#000000">src</text>
</g>
<!-- dir_bba04cfeda2ebb06ea600493f2bb1319 -->
<g id="node4" class="node">
<title>dir_bba04cfeda2ebb06ea600493f2bb1319</title>
<g id="a_node4"><a xlink:href="dir_bba04cfeda2ebb06ea600493f2bb1319.html" target="_top" xlink:title="Interface">
<polygon fill="#ffffff" stroke="#000000" points="71.5,-196 16.5,-196 16.5,-160 71.5,-160 71.5,-196"/>
<text text-anchor="middle" x="44" y="-175.5" font-family="Helvetica,sans-Serif" font-size="10.00" fill="#000000">Interface</text>
</a>
</g>
</g>
<!-- dir_68267d1309a1af8e8297ef4c3efbcdba&#45;&gt;dir_bba04cfeda2ebb06ea600493f2bb1319 -->
<g id="edge2" class="edge">
<title>dir_68267d1309a1af8e8297ef4c3efbcdba&#45;&gt;dir_bba04cfeda2ebb06ea600493f2bb1319</title>
<path fill="none" stroke="#000000" d="M72.411,-231.8314C68.1683,-223.7925 63.0879,-214.1666 58.404,-205.2918"/>
<polygon fill="#000000" stroke="#000000" points="61.4811,-203.6235 53.7181,-196.4133 55.2904,-206.8908 61.4811,-203.6235"/>
<g id="a_edge2&#45;headlabel"><a xlink:href="dir_000000_000003.html" target="_top" xlink:title="9">
<text text-anchor="middle" x="65.6699" y="-202.9772" font-family="Helvetica,sans-Serif" font-size="10.00" fill="#000000">9</text>
</a>
</g>
</g>
<!-- dir_7b54d5a46b55fcb5323dec7f02aaa086 -->
<g id="node5" class="node">
<title>dir_7b54d5a46b55fcb5323dec7f02aaa086</title>
<g id="a_node5"><a xlink:href="dir_7b54d5a46b55fcb5323dec7f02aaa086.html" target="_top" xlink:title="Specifique">
<polygon fill="#ffffff" stroke="#000000" points="152,-196 90,-196 90,-160 152,-160 152,-196"/>
<text text-anchor="middle" x="121" y="-175.5" font-family="Helvetica,sans-Serif" font-size="10.00" fill="#000000">Specifique</text>
</a>
</g>
</g>
<!-- dir_68267d1309a1af8e8297ef4c3efbcdba&#45;&gt;dir_7b54d5a46b55fcb5323dec7f02aaa086 -->
<g id="edge1" class="edge">
<title>dir_68267d1309a1af8e8297ef4c3efbcdba&#45;&gt;dir_7b54d5a46b55fcb5323dec7f02aaa086</title>
<path fill="none" stroke="#000000" d="M91.8413,-231.8314C96.1957,-223.7925 101.4098,-214.1666 106.2169,-205.2918"/>
<polygon fill="#000000" stroke="#000000" points="109.3408,-206.8732 111.0261,-196.4133 103.1857,-203.5392 109.3408,-206.8732"/>
<g id="a_edge1&#45;headlabel"><a xlink:href="dir_000000_000004.html" target="_top" xlink:title="1">
<text text-anchor="middle" x="110.1253" y="-208.8862" font-family="Helvetica,sans-Serif" font-size="10.00" fill="#000000">1</text>
</a>
</g>
</g>
<!-- dir_659a8b1a10b8174f9cdda162b3bf05fc -->
<g id="node2" class="node">
<title>dir_659a8b1a10b8174f9cdda162b3bf05fc</title>
<g id="a_node2"><a xlink:href="dir_659a8b1a10b8174f9cdda162b3bf05fc.html" target="_top" xlink:title="Collection">
<polygon fill="#ffffff" stroke="#000000" points="76,-52 16,-52 16,-16 76,-16 76,-52"/>
<text text-anchor="middle" x="46" y="-31.5" font-family="Helvetica,sans-Serif" font-size="10.00" fill="#000000">Collection</text>
</a>
</g>
</g>
<!-- dir_fdbdd9841f9a730f284bb666ff3d8cfe -->
<g id="node3" class="node">
<title>dir_fdbdd9841f9a730f284bb666ff3d8cfe</title>
<g id="a_node3"><a xlink:href="dir_fdbdd9841f9a730f284bb666ff3d8cfe.html" target="_top" xlink:title="Image">
<polygon fill="#ffffff" stroke="#000000" points="148,-52 94,-52 94,-16 148,-16 148,-52"/>
<text text-anchor="middle" x="121" y="-31.5" font-family="Helvetica,sans-Serif" font-size="10.00" fill="#000000">Image</text>
</a>
</g>
</g>
<!-- dir_bba04cfeda2ebb06ea600493f2bb1319&#45;&gt;dir_659a8b1a10b8174f9cdda162b3bf05fc -->
<g id="edge6" class="edge">
<title>dir_bba04cfeda2ebb06ea600493f2bb1319&#45;&gt;dir_659a8b1a10b8174f9cdda162b3bf05fc</title>
<path fill="none" stroke="#000000" d="M41.7002,-159.7227C39.7143,-141.535 37.3973,-112.8304 39,-88 39.5395,-79.6422 40.5439,-70.6019 41.6268,-62.3525"/>
<polygon fill="#000000" stroke="#000000" points="45.0947,-62.825 43.0115,-52.437 38.162,-61.8568 45.0947,-62.825"/>
<g id="a_edge6&#45;headlabel"><a xlink:href="dir_000003_000001.html" target="_top" xlink:title="4">
<text text-anchor="middle" x="47.4096" y="-64.2778" font-family="Helvetica,sans-Serif" font-size="10.00" fill="#000000">4</text>
</a>
</g>
</g>
<!-- dir_bba04cfeda2ebb06ea600493f2bb1319&#45;&gt;dir_fdbdd9841f9a730f284bb666ff3d8cfe -->
<g id="edge5" class="edge">
<title>dir_bba04cfeda2ebb06ea600493f2bb1319&#45;&gt;dir_fdbdd9841f9a730f284bb666ff3d8cfe</title>
<path fill="none" stroke="#000000" d="M71.6244,-162.9143C85.8372,-153.633 102.0217,-140.3746 111,-124 121.2989,-105.2169 123.4674,-80.9319 123.2429,-62.323"/>
<polygon fill="#000000" stroke="#000000" points="126.7328,-61.9753 122.8775,-52.1068 119.7372,-62.2256 126.7328,-61.9753"/>
<g id="a_edge5&#45;headlabel"><a xlink:href="dir_000003_000002.html" target="_top" xlink:title="4">
<text text-anchor="middle" x="129.6986" y="-62.9662" font-family="Helvetica,sans-Serif" font-size="10.00" fill="#000000">4</text>
</a>
</g>
</g>
<!-- dir_ff383ddf1aa4eab0c4ce7910366d05a5 -->
<g id="node6" class="node">
<title>dir_ff383ddf1aa4eab0c4ce7910366d05a5</title>
<g id="a_node6"><a xlink:href="dir_ff383ddf1aa4eab0c4ce7910366d05a5.html" target="_top" xlink:title="Utilities">
<polygon fill="#ffffff" stroke="#ff0000" points="102,-124 48,-124 48,-88 102,-88 102,-124"/>
<text text-anchor="middle" x="75" y="-103.5" font-family="Helvetica,sans-Serif" font-size="10.00" fill="#000000">Utilities</text>
</a>
</g>
</g>
<!-- dir_bba04cfeda2ebb06ea600493f2bb1319&#45;&gt;dir_ff383ddf1aa4eab0c4ce7910366d05a5 -->
<g id="edge7" class="edge">
<title>dir_bba04cfeda2ebb06ea600493f2bb1319&#45;&gt;dir_ff383ddf1aa4eab0c4ce7910366d05a5</title>
<path fill="none" stroke="#000000" d="M51.8226,-159.8314C55.2109,-151.9617 59.2541,-142.5712 63.0076,-133.8533"/>
<polygon fill="#000000" stroke="#000000" points="66.3321,-134.9822 67.0721,-124.4133 59.9027,-132.214 66.3321,-134.9822"/>
<g id="a_edge7&#45;headlabel"><a xlink:href="dir_000003_000005.html" target="_top" xlink:title="4">
<text text-anchor="middle" x="67.5185" y="-136.9066" font-family="Helvetica,sans-Serif" font-size="10.00" fill="#000000">4</text>
</a>
</g>
</g>
<!-- dir_ff383ddf1aa4eab0c4ce7910366d05a5&#45;&gt;dir_659a8b1a10b8174f9cdda162b3bf05fc -->
<g id="edge4" class="edge">
<title>dir_ff383ddf1aa4eab0c4ce7910366d05a5&#45;&gt;dir_659a8b1a10b8174f9cdda162b3bf05fc</title>
<path fill="none" stroke="#000000" d="M67.6821,-87.8314C64.5124,-79.9617 60.73,-70.5712 57.2187,-61.8533"/>
<polygon fill="#000000" stroke="#000000" points="60.3992,-60.3815 53.4165,-52.4133 53.9061,-62.9968 60.3992,-60.3815"/>
<g id="a_edge4&#45;headlabel"><a xlink:href="dir_000005_000001.html" target="_top" xlink:title="1">
<text text-anchor="middle" x="64.3758" y="-60.155" font-family="Helvetica,sans-Serif" font-size="10.00" fill="#000000">1</text>
</a>
</g>
</g>
<!-- dir_ff383ddf1aa4eab0c4ce7910366d05a5&#45;&gt;dir_fdbdd9841f9a730f284bb666ff3d8cfe -->
<g id="edge3" class="edge">
<title>dir_ff383ddf1aa4eab0c4ce7910366d05a5&#45;&gt;dir_fdbdd9841f9a730f284bb666ff3d8cfe</title>
<path fill="none" stroke="#000000" d="M86.6077,-87.8314C91.7978,-79.7079 98.0232,-69.9637 103.7425,-61.0118"/>
<polygon fill="#000000" stroke="#000000" points="106.8015,-62.7246 109.236,-52.4133 100.9026,-58.9559 106.8015,-62.7246"/>
<g id="a_edge3&#45;headlabel"><a xlink:href="dir_000005_000002.html" target="_top" xlink:title="1">
<text text-anchor="middle" x="107.2589" y="-64.7824" font-family="Helvetica,sans-Serif" font-size="10.00" fill="#000000">1</text>
</a>
</g>
</g>
</g>
</svg>
