<?xml version="1.0" encoding="UTF-8" standalone="no"?>
<!DOCTYPE svg PUBLIC "-//W3C//DTD SVG 1.1//EN"
 "http://www.w3.org/Graphics/SVG/1.1/DTD/svg11.dtd">
<!-- Generated by graphviz version 2.40.1 (20161225.0304)
 -->
<!-- Title: Graphe hiérarchique des classes Pages: 1 -->
<svg width="185pt" height="408pt"
 viewBox="0.00 0.00 185.00 408.00" xmlns="http://www.w3.org/2000/svg" xmlns:xlink="http://www.w3.org/1999/xlink">
<g id="graph0" class="graph" transform="scale(1 1) rotate(0) translate(4 404)">
<title>Graphe hiérarchique des classes</title>
<polygon fill="#ffffff" stroke="transparent" points="-4,4 -4,-404 181,-404 181,4 -4,4"/>
<!-- Node0 -->
<g id="node1" class="node">
<title>Node0</title>
<g id="a_node1"><a xlink:href="class_widget.html" target="_top" xlink:title="API permettant la création d&#39;une interface graphique. ">
<polygon fill="#ffffff" stroke="#000000" points="0,-190.5 0,-209.5 47,-209.5 47,-190.5 0,-190.5"/>
<text text-anchor="middle" x="23.5" y="-197.5" font-family="Helvetica,sans-Serif" font-size="10.00" fill="#000000">Widget</text>
</a>
</g>
</g>
<!-- Node1 -->
<g id="node2" class="node">
<title>Node1</title>
<g id="a_node2"><a xlink:href="class_button_widget.html" target="_top" xlink:title="Bouton qui lance une action configurable au clic. ">
<polygon fill="#ffffff" stroke="#000000" points="92,-380.5 92,-399.5 168,-399.5 168,-380.5 92,-380.5"/>
<text text-anchor="middle" x="130" y="-387.5" font-family="Helvetica,sans-Serif" font-size="10.00" fill="#000000">ButtonWidget</text>
</a>
</g>
</g>
<!-- Node0&#45;&gt;Node1 -->
<g id="edge1" class="edge">
<title>Node0&#45;&gt;Node1</title>
<path fill="none" stroke="#191970" d="M25.141,-219.8485C29.0514,-254.8316 41.9165,-327.8386 83,-371 86.6408,-374.825 91.1568,-377.9007 95.9377,-380.3683"/>
<polygon fill="#191970" stroke="#191970" points="28.5895,-219.1512 24.1303,-209.5404 21.6229,-219.8343 28.5895,-219.1512"/>
</g>
<!-- Node2 -->
<g id="node3" class="node">
<title>Node2</title>
<g id="a_node3"><a xlink:href="class_grid_widget.html" target="_top" xlink:title="Gère une grille d&#39; ImageWidget Il gère le zoom. ">
<polygon fill="#ffffff" stroke="#000000" points="97.5,-342.5 97.5,-361.5 162.5,-361.5 162.5,-342.5 97.5,-342.5"/>
<text text-anchor="middle" x="130" y="-349.5" font-family="Helvetica,sans-Serif" font-size="10.00" fill="#000000">GridWidget</text>
</a>
</g>
</g>
<!-- Node0&#45;&gt;Node2 -->
<g id="edge2" class="edge">
<title>Node0&#45;&gt;Node2</title>
<path fill="none" stroke="#191970" d="M27.4413,-219.8051C34.1053,-248.4273 50.2048,-301.3803 83,-333 87.055,-336.9097 92.02,-340.052 97.1866,-342.5663"/>
<polygon fill="#191970" stroke="#191970" points="30.8112,-218.8298 25.2693,-209.7999 23.9705,-220.3148 30.8112,-218.8298"/>
</g>
<!-- Node3 -->
<g id="node4" class="node">
<title>Node3</title>
<g id="a_node4"><a xlink:href="class_image_widget.html" target="_top" xlink:title="Gère une Image sélectionnable. ">
<polygon fill="#ffffff" stroke="#000000" points="93,-304.5 93,-323.5 167,-323.5 167,-304.5 93,-304.5"/>
<text text-anchor="middle" x="130" y="-311.5" font-family="Helvetica,sans-Serif" font-size="10.00" fill="#000000">ImageWidget</text>
</a>
</g>
</g>
<!-- Node0&#45;&gt;Node3 -->
<g id="edge3" class="edge">
<title>Node0&#45;&gt;Node3</title>
<path fill="none" stroke="#191970" d="M31.0908,-218.9989C40.4226,-240.1692 58.1369,-274.1552 83,-295 87.4514,-298.732 92.7315,-301.8025 98.1171,-304.3046"/>
<polygon fill="#191970" stroke="#191970" points="34.3005,-217.6025 27.1885,-209.7494 27.851,-220.3235 34.3005,-217.6025"/>
</g>
<!-- Node4 -->
<g id="node5" class="node">
<title>Node4</title>
<g id="a_node5"><a xlink:href="class_layout_widget.html" target="_top" xlink:title="Gère deux Widget disposés côte à côte. ">
<polygon fill="#ffffff" stroke="#000000" points="91.5,-266.5 91.5,-285.5 168.5,-285.5 168.5,-266.5 91.5,-266.5"/>
<text text-anchor="middle" x="130" y="-273.5" font-family="Helvetica,sans-Serif" font-size="10.00" fill="#000000">LayoutWidget</text>
</a>
</g>
</g>
<!-- Node0&#45;&gt;Node4 -->
<g id="edge4" class="edge">
<title>Node0&#45;&gt;Node4</title>
<path fill="none" stroke="#191970" d="M38.3902,-217.4439C49.6465,-229.7816 66.018,-246.0177 83,-257 88.6167,-260.6324 95.0409,-263.7826 101.298,-266.4168"/>
<polygon fill="#191970" stroke="#191970" points="40.7227,-214.7989 31.47,-209.6377 35.4846,-219.4424 40.7227,-214.7989"/>
</g>
<!-- Node5 -->
<g id="node6" class="node">
<title>Node5</title>
<g id="a_node6"><a xlink:href="class_list_widget.html" target="_top" xlink:title="Gère un menu de ButtonWidget Le menu peut être affiché en ligne où en colonne. La taille est gérée se...">
<polygon fill="#ffffff" stroke="#000000" points="98.5,-228.5 98.5,-247.5 161.5,-247.5 161.5,-228.5 98.5,-228.5"/>
<text text-anchor="middle" x="130" y="-235.5" font-family="Helvetica,sans-Serif" font-size="10.00" fill="#000000">ListWidget</text>
</a>
</g>
</g>
<!-- Node0&#45;&gt;Node5 -->
<g id="edge5" class="edge">
<title>Node0&#45;&gt;Node5</title>
<path fill="none" stroke="#191970" d="M56.9635,-211.94C71.8112,-217.2378 89.0516,-223.3893 103.0524,-228.3849"/>
<polygon fill="#191970" stroke="#191970" points="57.7304,-208.4976 47.1358,-208.4334 55.378,-215.0905 57.7304,-208.4976"/>
</g>
<!-- Node6 -->
<g id="node7" class="node">
<title>Node6</title>
<g id="a_node7"><a xlink:href="class_menu_bar_widget.html" target="_top" xlink:title="Gère une ListWidget et un Widget quelconque l&#39;un dessus l&#39;autre. ">
<polygon fill="#ffffff" stroke="#000000" points="87,-190.5 87,-209.5 173,-209.5 173,-190.5 87,-190.5"/>
<text text-anchor="middle" x="130" y="-197.5" font-family="Helvetica,sans-Serif" font-size="10.00" fill="#000000">MenuBarWidget</text>
</a>
</g>
</g>
<!-- Node0&#45;&gt;Node6 -->
<g id="edge6" class="edge">
<title>Node0&#45;&gt;Node6</title>
<path fill="none" stroke="#191970" d="M57.2334,-200C66.5948,-200 76.8901,-200 86.716,-200"/>
<polygon fill="#191970" stroke="#191970" points="57.1358,-196.5001 47.1358,-200 57.1358,-203.5001 57.1358,-196.5001"/>
</g>
<!-- Node7 -->
<g id="node8" class="node">
<title>Node7</title>
<g id="a_node8"><a xlink:href="class_scroll_widget.html" target="_top" xlink:title="Ascenseur permettant de déplacer le contenu d&#39;un Widget juxtaposé ">
<polygon fill="#ffffff" stroke="#000000" points="94,-152.5 94,-171.5 166,-171.5 166,-152.5 94,-152.5"/>
<text text-anchor="middle" x="130" y="-159.5" font-family="Helvetica,sans-Serif" font-size="10.00" fill="#000000">ScrollWidget</text>
</a>
</g>
</g>
<!-- Node0&#45;&gt;Node7 -->
<g id="edge7" class="edge">
<title>Node0&#45;&gt;Node7</title>
<path fill="none" stroke="#191970" d="M56.9635,-188.06C71.8112,-182.7622 89.0516,-176.6107 103.0524,-171.6151"/>
<polygon fill="#191970" stroke="#191970" points="55.378,-184.9095 47.1358,-191.5666 57.7304,-191.5024 55.378,-184.9095"/>
</g>
<!-- Node8 -->
<g id="node9" class="node">
<title>Node8</title>
<g id="a_node9"><a xlink:href="class_tag_selector.html" target="_top" xlink:title="Gère une liste de Tags sélectionnables pour la recherche. ">
<polygon fill="#ffffff" stroke="#000000" points="95.5,-114.5 95.5,-133.5 164.5,-133.5 164.5,-114.5 95.5,-114.5"/>
<text text-anchor="middle" x="130" y="-121.5" font-family="Helvetica,sans-Serif" font-size="10.00" fill="#000000">TagSelector</text>
</a>
</g>
</g>
<!-- Node0&#45;&gt;Node8 -->
<g id="edge8" class="edge">
<title>Node0&#45;&gt;Node8</title>
<path fill="none" stroke="#191970" d="M38.3902,-182.5561C49.6465,-170.2184 66.018,-153.9823 83,-143 88.6167,-139.3676 95.0409,-136.2174 101.298,-133.5832"/>
<polygon fill="#191970" stroke="#191970" points="35.4846,-180.5576 31.47,-190.3623 40.7227,-185.2011 35.4846,-180.5576"/>
</g>
<!-- Node9 -->
<g id="node10" class="node">
<title>Node9</title>
<g id="a_node10"><a xlink:href="class_tag_setter_widget.html" target="_top" xlink:title="Gère une liste de Tags pour modifier ceux des Images. ">
<polygon fill="#ffffff" stroke="#000000" points="85,-76.5 85,-95.5 175,-95.5 175,-76.5 85,-76.5"/>
<text text-anchor="middle" x="130" y="-83.5" font-family="Helvetica,sans-Serif" font-size="10.00" fill="#000000">TagSetterWidget</text>
</a>
</g>
</g>
<!-- Node0&#45;&gt;Node9 -->
<g id="edge9" class="edge">
<title>Node0&#45;&gt;Node9</title>
<path fill="none" stroke="#191970" d="M31.0908,-181.0011C40.4226,-159.8308 58.1369,-125.8448 83,-105 87.4514,-101.268 92.7315,-98.1975 98.1171,-95.6954"/>
<polygon fill="#191970" stroke="#191970" points="27.851,-179.6765 27.1885,-190.2506 34.3005,-182.3975 27.851,-179.6765"/>
</g>
<!-- Node10 -->
<g id="node11" class="node">
<title>Node10</title>
<g id="a_node11"><a xlink:href="class_tag_viewer_widget.html" target="_top" xlink:title="Gère une liste de Tags sans interactions. ">
<polygon fill="#ffffff" stroke="#000000" points="83,-38.5 83,-57.5 177,-57.5 177,-38.5 83,-38.5"/>
<text text-anchor="middle" x="130" y="-45.5" font-family="Helvetica,sans-Serif" font-size="10.00" fill="#000000">TagViewerWidget</text>
</a>
</g>
</g>
<!-- Node0&#45;&gt;Node10 -->
<g id="edge10" class="edge">
<title>Node0&#45;&gt;Node10</title>
<path fill="none" stroke="#191970" d="M27.4413,-180.1949C34.1053,-151.5727 50.2048,-98.6197 83,-67 86.9283,-63.2125 91.7106,-60.1452 96.7028,-57.6713"/>
<polygon fill="#191970" stroke="#191970" points="23.9705,-179.6852 25.2693,-190.2001 30.8112,-181.1702 23.9705,-179.6852"/>
</g>
<!-- Node11 -->
<g id="node12" class="node">
<title>Node11</title>
<g id="a_node12"><a xlink:href="class_window_widget.html" target="_top" xlink:title="Gère une fenêtre contenant un unique Widget. ">
<polygon fill="#ffffff" stroke="#000000" points="88.5,-.5 88.5,-19.5 171.5,-19.5 171.5,-.5 88.5,-.5"/>
<text text-anchor="middle" x="130" y="-7.5" font-family="Helvetica,sans-Serif" font-size="10.00" fill="#000000">WindowWidget</text>
</a>
</g>
</g>
<!-- Node0&#45;&gt;Node11 -->
<g id="edge11" class="edge">
<title>Node0&#45;&gt;Node11</title>
<path fill="none" stroke="#191970" d="M25.141,-180.1515C29.0514,-145.1684 41.9165,-72.1614 83,-29 86.6408,-25.175 91.1568,-22.0993 95.9377,-19.6317"/>
<polygon fill="#191970" stroke="#191970" points="21.6229,-180.1657 24.1303,-190.4596 28.5895,-180.8488 21.6229,-180.1657"/>
</g>
</g>
</svg>
