<?xml version="1.0" encoding="UTF-8" standalone="no"?>
<!DOCTYPE svg PUBLIC "-//W3C//DTD SVG 1.1//EN"
 "http://www.w3.org/Graphics/SVG/1.1/DTD/svg11.dtd">
<!-- Generated by graphviz version 2.40.1 (20161225.0304)
 -->
<!-- Title: Graphe hiérarchique des classes Pages: 1 -->
<svg width="244pt" height="66pt"
 viewBox="0.00 0.00 244.00 66.00" xmlns="http://www.w3.org/2000/svg" xmlns:xlink="http://www.w3.org/1999/xlink">
<g id="graph0" class="graph" transform="scale(1 1) rotate(0) translate(4 62)">
<title>Graphe hiérarchique des classes</title>
<polygon fill="#ffffff" stroke="transparent" points="-4,4 -4,-62 240,-62 240,4 -4,4"/>
<!-- Node0 -->
<g id="node1" class="node">
<title>Node0</title>
<g id="a_node1"><a xlink:href="class_collection.html" target="_top" xlink:title="Collection abstraite d&#39;éléments. ">
<polygon fill="#ffffff" stroke="#000000" points="0,-19.5 0,-38.5 84,-38.5 84,-19.5 0,-19.5"/>
<text text-anchor="middle" x="42" y="-26.5" font-family="Helvetica,sans-Serif" font-size="10.00" fill="#000000">Collection&lt; T &gt;</text>
</a>
</g>
</g>
<!-- Node1 -->
<g id="node2" class="node">
<title>Node1</title>
<g id="a_node2"><a xlink:href="class_collection_pool.html" target="_top" xlink:title="Collection qui stocke effectivement des éléments. ">
<polygon fill="#ffffff" stroke="#000000" points="126,-38.5 126,-57.5 230,-57.5 230,-38.5 126,-38.5"/>
<text text-anchor="middle" x="178" y="-45.5" font-family="Helvetica,sans-Serif" font-size="10.00" fill="#000000">CollectionPool&lt; T &gt;</text>
</a>
</g>
</g>
<!-- Node0&#45;&gt;Node1 -->
<g id="edge1" class="edge">
<title>Node0&#45;&gt;Node1</title>
<path fill="none" stroke="#191970" d="M94.3532,-36.314C104.6259,-37.7492 115.4023,-39.2547 125.6742,-40.6898"/>
<polygon fill="#191970" stroke="#191970" points="94.6739,-32.8249 84.2858,-34.9076 93.7053,-39.7576 94.6739,-32.8249"/>
</g>
<!-- Node2 -->
<g id="node3" class="node">
<title>Node2</title>
<g id="a_node3"><a xlink:href="class_filtered_collection.html" target="_top" xlink:title="Collection filtrée ">
<polygon fill="#ffffff" stroke="#000000" points="120,-.5 120,-19.5 236,-19.5 236,-.5 120,-.5"/>
<text text-anchor="middle" x="178" y="-7.5" font-family="Helvetica,sans-Serif" font-size="10.00" fill="#000000">FilteredCollection&lt; T &gt;</text>
</a>
</g>
</g>
<!-- Node0&#45;&gt;Node2 -->
<g id="edge2" class="edge">
<title>Node0&#45;&gt;Node2</title>
<path fill="none" stroke="#191970" d="M94.2615,-21.6988C102.6056,-20.533 111.2843,-19.3206 119.7566,-18.1369"/>
<polygon fill="#191970" stroke="#191970" points="93.7053,-18.2424 84.2858,-23.0924 94.6739,-25.1751 93.7053,-18.2424"/>
</g>
</g>
</svg>
