<?xml version="1.0" encoding="UTF-8" standalone="no"?>
<!DOCTYPE svg PUBLIC "-//W3C//DTD SVG 1.1//EN"
 "http://www.w3.org/Graphics/SVG/1.1/DTD/svg11.dtd">
<!-- Generated by graphviz version 2.40.1 (20161225.0304)
 -->
<!-- Title: getPoolFromSave Pages: 1 -->
<svg width="272pt" height="66pt"
 viewBox="0.00 0.00 272.00 66.00" xmlns="http://www.w3.org/2000/svg" xmlns:xlink="http://www.w3.org/1999/xlink">
<g id="graph0" class="graph" transform="scale(1 1) rotate(0) translate(4 62)">
<title>getPoolFromSave</title>
<polygon fill="#ffffff" stroke="transparent" points="-4,4 -4,-62 268,-62 268,4 -4,4"/>
<!-- Node5 -->
<g id="node1" class="node">
<title>Node5</title>
<polygon fill="#bfbfbf" stroke="#000000" points="0,-19.5 0,-38.5 95,-38.5 95,-19.5 0,-19.5"/>
<text text-anchor="middle" x="47.5" y="-26.5" font-family="Helvetica,sans-Serif" font-size="10.00" fill="#000000">getPoolFromSave</text>
</g>
<!-- Node6 -->
<g id="node2" class="node">
<title>Node6</title>
<g id="a_node2"><a xlink:href="class_image.html#ad6c6fc59aaffc9c101047e8ef32abc9d" target="_top" xlink:title="Image::loadImage">
<polygon fill="#ffffff" stroke="#000000" points="150,-38.5 150,-57.5 245,-57.5 245,-38.5 150,-38.5"/>
<text text-anchor="middle" x="197.5" y="-45.5" font-family="Helvetica,sans-Serif" font-size="10.00" fill="#000000">Image::loadImage</text>
</a>
</g>
</g>
<!-- Node5&#45;&gt;Node6 -->
<g id="edge1" class="edge">
<title>Node5&#45;&gt;Node6</title>
<path fill="none" stroke="#191970" d="M95.3734,-35.064C109.515,-36.8552 125.1437,-38.8349 139.8338,-40.6956"/>
<polygon fill="#191970" stroke="#191970" points="139.4635,-44.1766 149.8241,-41.9611 140.3432,-37.2321 139.4635,-44.1766"/>
</g>
<!-- Node7 -->
<g id="node3" class="node">
<title>Node7</title>
<g id="a_node3"><a xlink:href="class_collection_pool.html#a67fc04c58d9da40ef52e4e58aa386557" target="_top" xlink:title="CollectionPool::push_back">
<polygon fill="#ffffff" stroke="#000000" points="131,-.5 131,-19.5 264,-19.5 264,-.5 131,-.5"/>
<text text-anchor="middle" x="197.5" y="-7.5" font-family="Helvetica,sans-Serif" font-size="10.00" fill="#000000">CollectionPool::push_back</text>
</a>
</g>
</g>
<!-- Node5&#45;&gt;Node7 -->
<g id="edge2" class="edge">
<title>Node5&#45;&gt;Node7</title>
<path fill="none" stroke="#191970" d="M95.3734,-22.936C103.5079,-21.9057 112.1344,-20.813 120.7913,-19.7164"/>
<polygon fill="#191970" stroke="#191970" points="121.4592,-23.1599 130.9401,-18.4309 120.5795,-16.2154 121.4592,-23.1599"/>
</g>
</g>
</svg>
