<?xml version="1.0" encoding="UTF-8" standalone="no"?>
<!DOCTYPE svg PUBLIC "-//W3C//DTD SVG 1.1//EN"
 "http://www.w3.org/Graphics/SVG/1.1/DTD/svg11.dtd">
<!-- Generated by graphviz version 2.40.1 (20161225.0304)
 -->
<!-- Title: src/main.cpp Pages: 1 -->
<svg width="655pt" height="252pt"
 viewBox="0.00 0.00 655.00 252.00" xmlns="http://www.w3.org/2000/svg" xmlns:xlink="http://www.w3.org/1999/xlink">
<g id="graph0" class="graph" transform="scale(1 1) rotate(0) translate(4 248)">
<title>src/main.cpp</title>
<polygon fill="#ffffff" stroke="transparent" points="-4,4 -4,-248 651,-248 651,4 -4,4"/>
<!-- Node0 -->
<g id="node1" class="node">
<title>Node0</title>
<polygon fill="#bfbfbf" stroke="#000000" points="318.5,-224.5 318.5,-243.5 391.5,-243.5 391.5,-224.5 318.5,-224.5"/>
<text text-anchor="middle" x="355" y="-231.5" font-family="Helvetica,sans-Serif" font-size="10.00" fill="#000000">src/main.cpp</text>
</g>
<!-- Node1 -->
<g id="node2" class="node">
<title>Node1</title>
<g id="a_node2"><a xlink:href="_collection_iterator_8hpp.html" target="_top" xlink:title="CollectionIterator.hpp">
<polygon fill="#ffffff" stroke="#000000" points="0,-56.5 0,-75.5 110,-75.5 110,-56.5 0,-56.5"/>
<text text-anchor="middle" x="55" y="-63.5" font-family="Helvetica,sans-Serif" font-size="10.00" fill="#000000">CollectionIterator.hpp</text>
</a>
</g>
</g>
<!-- Node0&#45;&gt;Node1 -->
<g id="edge1" class="edge">
<title>Node0&#45;&gt;Node1</title>
<path fill="none" stroke="#191970" d="M318.3761,-229.8473C259.0213,-222.6723 144.8409,-206.8934 109,-188 77.8631,-171.5863 66.4698,-164.5189 53,-132 46.968,-117.4374 47.9926,-99.4781 50.2337,-85.972"/>
<polygon fill="#191970" stroke="#191970" points="53.7296,-86.341 52.2741,-75.8466 46.8676,-84.9582 53.7296,-86.341"/>
</g>
<!-- Node5 -->
<g id="node6" class="node">
<title>Node5</title>
<g id="a_node6"><a xlink:href="_file_dialog_8hpp.html" target="_top" xlink:title="FileDialog.hpp">
<polygon fill="#ffffff" stroke="#000000" points="495.5,-168.5 495.5,-187.5 574.5,-187.5 574.5,-168.5 495.5,-168.5"/>
<text text-anchor="middle" x="535" y="-175.5" font-family="Helvetica,sans-Serif" font-size="10.00" fill="#000000">FileDialog.hpp</text>
</a>
</g>
</g>
<!-- Node0&#45;&gt;Node5 -->
<g id="edge5" class="edge">
<title>Node0&#45;&gt;Node5</title>
<path fill="none" stroke="#191970" d="M385.9431,-224.3733C416.0039,-215.021 461.8026,-200.7725 494.6978,-190.5385"/>
<polygon fill="#191970" stroke="#191970" points="495.9519,-193.8139 504.4607,-187.5011 493.8723,-187.1299 495.9519,-193.8139"/>
</g>
<!-- Node6 -->
<g id="node7" class="node">
<title>Node6</title>
<polygon fill="#ffffff" stroke="#bfbfbf" points="475,-112.5 475,-131.5 595,-131.5 595,-112.5 475,-112.5"/>
<text text-anchor="middle" x="535" y="-119.5" font-family="Helvetica,sans-Serif" font-size="10.00" fill="#000000">experimental/filesystem</text>
</g>
<!-- Node0&#45;&gt;Node6 -->
<g id="edge27" class="edge">
<title>Node0&#45;&gt;Node6</title>
<path fill="none" stroke="#191970" d="M377.4289,-224.3562C396.671,-215.7455 424.8712,-202.3133 448,-188 472.4363,-172.8775 498.4359,-152.5246 515.5806,-138.4368"/>
<polygon fill="#191970" stroke="#191970" points="518.2305,-140.7854 523.6838,-131.7017 513.7561,-135.4021 518.2305,-140.7854"/>
</g>
<!-- Node8 -->
<g id="node9" class="node">
<title>Node8</title>
<g id="a_node9"><a xlink:href="_filtered_collection_8hpp.html" target="_top" xlink:title="FilteredCollection.hpp">
<polygon fill="#ffffff" stroke="#000000" points="247.5,-168.5 247.5,-187.5 358.5,-187.5 358.5,-168.5 247.5,-168.5"/>
<text text-anchor="middle" x="303" y="-175.5" font-family="Helvetica,sans-Serif" font-size="10.00" fill="#000000">FilteredCollection.hpp</text>
</a>
</g>
</g>
<!-- Node0&#45;&gt;Node8 -->
<g id="edge8" class="edge">
<title>Node0&#45;&gt;Node8</title>
<path fill="none" stroke="#191970" d="M345.9423,-224.2455C338.4858,-216.2155 327.7366,-204.6394 318.8583,-195.0781"/>
<polygon fill="#191970" stroke="#191970" points="321.3232,-192.589 311.9539,-187.6427 316.1937,-197.3522 321.3232,-192.589"/>
</g>
<!-- Node9 -->
<g id="node10" class="node">
<title>Node9</title>
<g id="a_node10"><a xlink:href="_collection_8hpp.html" target="_top" xlink:title="Collection.hpp">
<polygon fill="#ffffff" stroke="#000000" points="75.5,-112.5 75.5,-131.5 154.5,-131.5 154.5,-112.5 75.5,-112.5"/>
<text text-anchor="middle" x="115" y="-119.5" font-family="Helvetica,sans-Serif" font-size="10.00" fill="#000000">Collection.hpp</text>
</a>
</g>
</g>
<!-- Node0&#45;&gt;Node9 -->
<g id="edge14" class="edge">
<title>Node0&#45;&gt;Node9</title>
<path fill="none" stroke="#191970" d="M318.0688,-231.9101C259.1511,-227.7582 147.878,-216.2973 122,-188 110.8461,-175.8034 109.9938,-156.5544 111.4006,-141.9849"/>
<polygon fill="#191970" stroke="#191970" points="114.8855,-142.3343 112.7837,-131.9501 107.951,-141.3785 114.8855,-142.3343"/>
</g>
<!-- Node12 -->
<g id="node13" class="node">
<title>Node12</title>
<g id="a_node13"><a xlink:href="_collection_pool_8hpp.html" target="_top" xlink:title="CollectionPool.hpp">
<polygon fill="#ffffff" stroke="#000000" points="131,-168.5 131,-187.5 229,-187.5 229,-168.5 131,-168.5"/>
<text text-anchor="middle" x="180" y="-175.5" font-family="Helvetica,sans-Serif" font-size="10.00" fill="#000000">CollectionPool.hpp</text>
</a>
</g>
</g>
<!-- Node0&#45;&gt;Node12 -->
<g id="edge15" class="edge">
<title>Node0&#45;&gt;Node12</title>
<path fill="none" stroke="#191970" d="M324.9164,-224.3733C295.8166,-215.0613 251.5477,-200.8953 219.597,-190.671"/>
<polygon fill="#191970" stroke="#191970" points="220.282,-187.2155 209.691,-187.5011 218.1485,-193.8824 220.282,-187.2155"/>
</g>
<!-- Node13 -->
<g id="node14" class="node">
<title>Node13</title>
<g id="a_node14"><a xlink:href="_image_8hpp.html" target="_top" xlink:title="Image.hpp">
<polygon fill="#ffffff" stroke="#000000" points="377,-168.5 377,-187.5 439,-187.5 439,-168.5 377,-168.5"/>
<text text-anchor="middle" x="408" y="-175.5" font-family="Helvetica,sans-Serif" font-size="10.00" fill="#000000">Image.hpp</text>
</a>
</g>
</g>
<!-- Node0&#45;&gt;Node13 -->
<g id="edge20" class="edge">
<title>Node0&#45;&gt;Node13</title>
<path fill="none" stroke="#191970" d="M364.2319,-224.2455C371.8317,-216.2155 382.7877,-204.6394 391.8368,-195.0781"/>
<polygon fill="#191970" stroke="#191970" points="394.5421,-197.3115 398.8739,-187.6427 389.458,-192.4998 394.5421,-197.3115"/>
</g>
<!-- Node16 -->
<g id="node17" class="node">
<title>Node16</title>
<polygon fill="#ffffff" stroke="#bfbfbf" points="593,-168.5 593,-187.5 647,-187.5 647,-168.5 593,-168.5"/>
<text text-anchor="middle" x="620" y="-175.5" font-family="Helvetica,sans-Serif" font-size="10.00" fill="#000000">iostream</text>
</g>
<!-- Node0&#45;&gt;Node16 -->
<g id="edge26" class="edge">
<title>Node0&#45;&gt;Node16</title>
<path fill="none" stroke="#191970" d="M391.6675,-227.4847C435.0883,-219.5827 509.7863,-205.4041 583.0688,-188.097"/>
<polygon fill="#191970" stroke="#191970" points="584.0119,-191.4704 592.928,-185.7472 582.389,-184.6611 584.0119,-191.4704"/>
</g>
<!-- Node2 -->
<g id="node3" class="node">
<title>Node2</title>
<polygon fill="#ffffff" stroke="#bfbfbf" points="24,-.5 24,-19.5 86,-19.5 86,-.5 24,-.5"/>
<text text-anchor="middle" x="55" y="-7.5" font-family="Helvetica,sans-Serif" font-size="10.00" fill="#000000">type_traits</text>
</g>
<!-- Node1&#45;&gt;Node2 -->
<g id="edge2" class="edge">
<title>Node1&#45;&gt;Node2</title>
<path fill="none" stroke="#191970" d="M55,-56.2455C55,-48.9382 55,-38.6944 55,-29.7046"/>
<polygon fill="#191970" stroke="#191970" points="58.5001,-29.6426 55,-19.6427 51.5001,-29.6427 58.5001,-29.6426"/>
</g>
<!-- Node3 -->
<g id="node4" class="node">
<title>Node3</title>
<polygon fill="#ffffff" stroke="#bfbfbf" points="114.5,-.5 114.5,-19.5 161.5,-19.5 161.5,-.5 114.5,-.5"/>
<text text-anchor="middle" x="138" y="-7.5" font-family="Helvetica,sans-Serif" font-size="10.00" fill="#000000">iterator</text>
</g>
<!-- Node1&#45;&gt;Node3 -->
<g id="edge3" class="edge">
<title>Node1&#45;&gt;Node3</title>
<path fill="none" stroke="#191970" d="M69.4575,-56.2455C82.0732,-47.7337 100.5944,-35.2375 115.2045,-25.3801"/>
<polygon fill="#191970" stroke="#191970" points="117.3761,-28.1371 123.7082,-19.6427 113.4609,-22.3343 117.3761,-28.1371"/>
</g>
<!-- Node4 -->
<g id="node5" class="node">
<title>Node4</title>
<polygon fill="#ffffff" stroke="#bfbfbf" points="254,-.5 254,-19.5 306,-19.5 306,-.5 254,-.5"/>
<text text-anchor="middle" x="280" y="-7.5" font-family="Helvetica,sans-Serif" font-size="10.00" fill="#000000">memory</text>
</g>
<!-- Node1&#45;&gt;Node4 -->
<g id="edge4" class="edge">
<title>Node1&#45;&gt;Node4</title>
<path fill="none" stroke="#191970" d="M93.4232,-56.4369C135.5407,-45.9543 202.5938,-29.2656 243.8058,-19.0083"/>
<polygon fill="#191970" stroke="#191970" points="244.8372,-22.3585 253.6958,-16.5468 243.1465,-15.5657 244.8372,-22.3585"/>
</g>
<!-- Node5&#45;&gt;Node6 -->
<g id="edge6" class="edge">
<title>Node5&#45;&gt;Node6</title>
<path fill="none" stroke="#191970" d="M535,-168.2455C535,-160.9382 535,-150.6944 535,-141.7046"/>
<polygon fill="#191970" stroke="#191970" points="538.5001,-141.6426 535,-131.6427 531.5001,-141.6427 538.5001,-141.6426"/>
</g>
<!-- Node7 -->
<g id="node8" class="node">
<title>Node7</title>
<polygon fill="#ffffff" stroke="#bfbfbf" points="543.5,-56.5 543.5,-75.5 584.5,-75.5 584.5,-56.5 543.5,-56.5"/>
<text text-anchor="middle" x="564" y="-63.5" font-family="Helvetica,sans-Serif" font-size="10.00" fill="#000000">string</text>
</g>
<!-- Node5&#45;&gt;Node7 -->
<g id="edge7" class="edge">
<title>Node5&#45;&gt;Node7</title>
<path fill="none" stroke="#191970" d="M560.5262,-168.3698C576.1421,-160.9914 594.8289,-149.1364 604,-132 613.2817,-114.6569 598.7621,-95.4994 584.688,-82.3124"/>
<polygon fill="#191970" stroke="#191970" points="586.9007,-79.5979 577.0689,-75.65 582.2929,-84.8674 586.9007,-79.5979"/>
</g>
<!-- Node8&#45;&gt;Node9 -->
<g id="edge9" class="edge">
<title>Node8&#45;&gt;Node9</title>
<path fill="none" stroke="#191970" d="M270.6816,-168.3733C239.1494,-158.9807 191.0379,-144.6496 156.6499,-134.4064"/>
<polygon fill="#191970" stroke="#191970" points="157.4797,-131.0016 146.8966,-131.5011 155.4813,-137.7103 157.4797,-131.0016"/>
</g>
<!-- Node10 -->
<g id="node11" class="node">
<title>Node10</title>
<polygon fill="#ffffff" stroke="#bfbfbf" points="211,-112.5 211,-131.5 255,-131.5 255,-112.5 211,-112.5"/>
<text text-anchor="middle" x="233" y="-119.5" font-family="Helvetica,sans-Serif" font-size="10.00" fill="#000000">vector</text>
</g>
<!-- Node8&#45;&gt;Node10 -->
<g id="edge12" class="edge">
<title>Node8&#45;&gt;Node10</title>
<path fill="none" stroke="#191970" d="M290.8069,-168.2455C280.3679,-159.8943 265.1345,-147.7076 252.926,-137.9408"/>
<polygon fill="#191970" stroke="#191970" points="255.0485,-135.1566 245.0533,-131.6427 250.6756,-140.6227 255.0485,-135.1566"/>
</g>
<!-- Node11 -->
<g id="node12" class="node">
<title>Node11</title>
<polygon fill="#ffffff" stroke="#bfbfbf" points="273.5,-112.5 273.5,-131.5 332.5,-131.5 332.5,-112.5 273.5,-112.5"/>
<text text-anchor="middle" x="303" y="-119.5" font-family="Helvetica,sans-Serif" font-size="10.00" fill="#000000">functional</text>
</g>
<!-- Node8&#45;&gt;Node11 -->
<g id="edge13" class="edge">
<title>Node8&#45;&gt;Node11</title>
<path fill="none" stroke="#191970" d="M303,-168.2455C303,-160.9382 303,-150.6944 303,-141.7046"/>
<polygon fill="#191970" stroke="#191970" points="306.5001,-141.6426 303,-131.6427 299.5001,-141.6427 306.5001,-141.6426"/>
</g>
<!-- Node9&#45;&gt;Node1 -->
<g id="edge10" class="edge">
<title>Node9&#45;&gt;Node1</title>
<path fill="none" stroke="#191970" d="M104.5488,-112.2455C95.7731,-104.0549 83.0446,-92.1749 72.686,-82.5069"/>
<polygon fill="#191970" stroke="#191970" points="75.0301,-79.9072 65.3314,-75.6427 70.2539,-85.0246 75.0301,-79.9072"/>
</g>
<!-- Node9&#45;&gt;Node3 -->
<g id="edge11" class="edge">
<title>Node9&#45;&gt;Node3</title>
<path fill="none" stroke="#191970" d="M116.961,-112.4509C120.7292,-94.1013 129.0483,-53.5908 134.0224,-29.3693"/>
<polygon fill="#191970" stroke="#191970" points="137.4608,-30.0246 136.044,-19.5249 130.6039,-28.6164 137.4608,-30.0246"/>
</g>
<!-- Node12&#45;&gt;Node1 -->
<g id="edge17" class="edge">
<title>Node12&#45;&gt;Node1</title>
<path fill="none" stroke="#191970" d="M130.9443,-169.6784C107.8618,-163.2361 81.9614,-151.8918 66,-132 55.6743,-119.1317 53.4203,-100.2266 53.4598,-85.9443"/>
<polygon fill="#191970" stroke="#191970" points="56.9676,-85.8176 53.8728,-75.6849 49.9733,-85.536 56.9676,-85.8176"/>
</g>
<!-- Node12&#45;&gt;Node3 -->
<g id="edge19" class="edge">
<title>Node12&#45;&gt;Node3</title>
<path fill="none" stroke="#191970" d="M177.6216,-168.4862C170.9536,-141.8144 151.9779,-65.9117 142.9238,-29.695"/>
<polygon fill="#191970" stroke="#191970" points="146.2779,-28.6804 140.457,-19.8279 139.4869,-30.3782 146.2779,-28.6804"/>
</g>
<!-- Node12&#45;&gt;Node9 -->
<g id="edge16" class="edge">
<title>Node12&#45;&gt;Node9</title>
<path fill="none" stroke="#191970" d="M168.6779,-168.2455C159.0777,-159.9746 145.1108,-147.9416 133.8305,-138.2232"/>
<polygon fill="#191970" stroke="#191970" points="136.053,-135.5182 126.1924,-131.6427 131.484,-140.8214 136.053,-135.5182"/>
</g>
<!-- Node12&#45;&gt;Node10 -->
<g id="edge18" class="edge">
<title>Node12&#45;&gt;Node10</title>
<path fill="none" stroke="#191970" d="M189.2319,-168.2455C196.8317,-160.2155 207.7877,-148.6394 216.8368,-139.0781"/>
<polygon fill="#191970" stroke="#191970" points="219.5421,-141.3115 223.8739,-131.6427 214.458,-136.4998 219.5421,-141.3115"/>
</g>
<!-- Node13&#45;&gt;Node4 -->
<g id="edge25" class="edge">
<title>Node13&#45;&gt;Node4</title>
<path fill="none" stroke="#191970" d="M400.7514,-168.4862C380.0796,-141.3545 320.5941,-63.2798 293.6058,-27.8576"/>
<polygon fill="#191970" stroke="#191970" points="296.3324,-25.6611 287.4879,-19.8279 290.7644,-29.9034 296.3324,-25.6611"/>
</g>
<!-- Node13&#45;&gt;Node6 -->
<g id="edge24" class="edge">
<title>Node13&#45;&gt;Node6</title>
<path fill="none" stroke="#191970" d="M429.8321,-168.3733C450.3103,-159.3435 481.1399,-145.7494 504.1319,-135.6111"/>
<polygon fill="#191970" stroke="#191970" points="505.715,-138.7383 513.4528,-131.5011 502.8907,-132.3333 505.715,-138.7383"/>
</g>
<!-- Node14 -->
<g id="node15" class="node">
<title>Node14</title>
<g id="a_node15"><a xlink:href="_tag_list_8hpp.html" target="_top" xlink:title="TagList.hpp">
<polygon fill="#ffffff" stroke="#000000" points="389,-112.5 389,-131.5 457,-131.5 457,-112.5 389,-112.5"/>
<text text-anchor="middle" x="423" y="-119.5" font-family="Helvetica,sans-Serif" font-size="10.00" fill="#000000">TagList.hpp</text>
</a>
</g>
</g>
<!-- Node13&#45;&gt;Node14 -->
<g id="edge21" class="edge">
<title>Node13&#45;&gt;Node14</title>
<path fill="none" stroke="#191970" d="M410.6128,-168.2455C412.5916,-160.8579 415.3744,-150.4689 417.8012,-141.4087"/>
<polygon fill="#191970" stroke="#191970" points="421.2105,-142.2078 420.4171,-131.6427 414.4489,-140.3966 421.2105,-142.2078"/>
</g>
<!-- Node14&#45;&gt;Node7 -->
<g id="edge22" class="edge">
<title>Node14&#45;&gt;Node7</title>
<path fill="none" stroke="#191970" d="M447.2388,-112.3733C471.2564,-102.8343 508.099,-88.2018 533.9605,-77.9306"/>
<polygon fill="#191970" stroke="#191970" points="535.283,-81.1713 543.2849,-74.2273 532.6992,-74.6657 535.283,-81.1713"/>
</g>
<!-- Node15 -->
<g id="node16" class="node">
<title>Node15</title>
<polygon fill="#ffffff" stroke="#bfbfbf" points="389,-56.5 389,-75.5 467,-75.5 467,-56.5 389,-56.5"/>
<text text-anchor="middle" x="428" y="-63.5" font-family="Helvetica,sans-Serif" font-size="10.00" fill="#000000">unordered_set</text>
</g>
<!-- Node14&#45;&gt;Node15 -->
<g id="edge23" class="edge">
<title>Node14&#45;&gt;Node15</title>
<path fill="none" stroke="#191970" d="M423.8709,-112.2455C424.5234,-104.9382 425.438,-94.6944 426.2407,-85.7046"/>
<polygon fill="#191970" stroke="#191970" points="429.7358,-85.9143 427.139,-75.6427 422.7635,-85.2918 429.7358,-85.9143"/>
</g>
</g>
</svg>
