<?xml version="1.0" encoding="UTF-8" standalone="no"?>
<!DOCTYPE svg PUBLIC "-//W3C//DTD SVG 1.1//EN"
 "http://www.w3.org/Graphics/SVG/1.1/DTD/svg11.dtd">
<!-- Generated by graphviz version 2.40.1 (20161225.0304)
 -->
<!-- Title: main Pages: 1 -->
<svg width="259pt" height="408pt"
 viewBox="0.00 0.00 259.00 408.00" xmlns="http://www.w3.org/2000/svg" xmlns:xlink="http://www.w3.org/1999/xlink">
<g id="graph0" class="graph" transform="scale(1 1) rotate(0) translate(4 404)">
<title>main</title>
<polygon fill="#ffffff" stroke="transparent" points="-4,4 -4,-404 255,-404 255,4 -4,4"/>
<!-- Node7 -->
<g id="node1" class="node">
<title>Node7</title>
<polygon fill="#bfbfbf" stroke="#000000" points="0,-190.5 0,-209.5 38,-209.5 38,-190.5 0,-190.5"/>
<text text-anchor="middle" x="19" y="-197.5" font-family="Helvetica,sans-Serif" font-size="10.00" fill="#000000">main</text>
</g>
<!-- Node8 -->
<g id="node2" class="node">
<title>Node8</title>
<g id="a_node2"><a xlink:href="menu_8cpp.html#a6127d81352b5656c477805dc7bfcc9c5" target="_top" xlink:title="affTags">
<polygon fill="#ffffff" stroke="#000000" points="99.5,-380.5 99.5,-399.5 149.5,-399.5 149.5,-380.5 99.5,-380.5"/>
<text text-anchor="middle" x="124.5" y="-387.5" font-family="Helvetica,sans-Serif" font-size="10.00" fill="#000000">affTags</text>
</a>
</g>
</g>
<!-- Node7&#45;&gt;Node8 -->
<g id="edge1" class="edge">
<title>Node7&#45;&gt;Node8</title>
<path fill="none" stroke="#191970" d="M19.6007,-209.5247C21.8208,-237.1245 31.7905,-318.217 74,-366 78.3861,-370.9653 84.0229,-374.9889 89.9317,-378.22"/>
<polygon fill="#191970" stroke="#191970" points="88.7655,-381.5407 99.3003,-382.6666 91.767,-375.2168 88.7655,-381.5407"/>
</g>
<!-- Node9 -->
<g id="node3" class="node">
<title>Node9</title>
<g id="a_node3"><a xlink:href="menu_8cpp.html#ab8e0d5fe33cf41a4201057a6954e5368" target="_top" xlink:title="choix">
<polygon fill="#ffffff" stroke="#000000" points="211,-304.5 211,-323.5 251,-323.5 251,-304.5 211,-304.5"/>
<text text-anchor="middle" x="231" y="-311.5" font-family="Helvetica,sans-Serif" font-size="10.00" fill="#000000">choix</text>
</a>
</g>
</g>
<!-- Node7&#45;&gt;Node9 -->
<g id="edge2" class="edge">
<title>Node7&#45;&gt;Node9</title>
<path fill="none" stroke="#191970" d="M19.5478,-209.5929C21.5798,-235.0363 31.0026,-304.252 74,-333 112.8467,-358.9728 169.4357,-342.0118 203.0047,-327.725"/>
<polygon fill="#191970" stroke="#191970" points="204.5216,-330.8809 212.2336,-323.6161 201.6745,-324.486 204.5216,-330.8809"/>
</g>
<!-- Node10 -->
<g id="node4" class="node">
<title>Node10</title>
<g id="a_node4"><a xlink:href="menu_8cpp.html#afaae2e9405f2d4e853b4666e534191c3" target="_top" xlink:title="choix_image">
<polygon fill="#ffffff" stroke="#000000" points="89,-304.5 89,-323.5 160,-323.5 160,-304.5 89,-304.5"/>
<text text-anchor="middle" x="124.5" y="-311.5" font-family="Helvetica,sans-Serif" font-size="10.00" fill="#000000">choix_image</text>
</a>
</g>
</g>
<!-- Node7&#45;&gt;Node10 -->
<g id="edge3" class="edge">
<title>Node7&#45;&gt;Node10</title>
<path fill="none" stroke="#191970" d="M22.0506,-209.5191C28.576,-228.4306 45.6467,-270.9761 74,-295 75.9699,-296.6691 78.1009,-298.199 80.3357,-299.6003"/>
<polygon fill="#191970" stroke="#191970" points="78.8744,-302.7873 89.3472,-304.3908 82.1601,-296.6064 78.8744,-302.7873"/>
</g>
<!-- Node11 -->
<g id="node5" class="node">
<title>Node11</title>
<g id="a_node5"><a xlink:href="menu_8cpp.html#a3cb5d03d7c8003abc6637a91f7a1cceb" target="_top" xlink:title="choix_tag">
<polygon fill="#ffffff" stroke="#000000" points="95,-266.5 95,-285.5 154,-285.5 154,-266.5 95,-266.5"/>
<text text-anchor="middle" x="124.5" y="-273.5" font-family="Helvetica,sans-Serif" font-size="10.00" fill="#000000">choix_tag</text>
</a>
</g>
</g>
<!-- Node7&#45;&gt;Node11 -->
<g id="edge5" class="edge">
<title>Node7&#45;&gt;Node11</title>
<path fill="none" stroke="#191970" d="M26.1598,-209.7524C35.7826,-222.2471 54.0059,-243.856 74,-257 77.5664,-259.3445 81.4629,-261.4563 85.4592,-263.344"/>
<polygon fill="#191970" stroke="#191970" points="84.2844,-266.6478 94.8562,-267.3459 87.0271,-260.2075 84.2844,-266.6478"/>
</g>
<!-- Node12 -->
<g id="node6" class="node">
<title>Node12</title>
<g id="a_node6"><a xlink:href="class_collection_pool.html#a870a85422595d6533688704ebe43b520" target="_top" xlink:title="CollectionPool::end">
<polygon fill="#ffffff" stroke="#000000" points="74,-228.5 74,-247.5 175,-247.5 175,-228.5 74,-228.5"/>
<text text-anchor="middle" x="124.5" y="-235.5" font-family="Helvetica,sans-Serif" font-size="10.00" fill="#000000">CollectionPool::end</text>
</a>
</g>
</g>
<!-- Node7&#45;&gt;Node12 -->
<g id="edge7" class="edge">
<title>Node7&#45;&gt;Node12</title>
<path fill="none" stroke="#191970" d="M38.3503,-206.9698C52.3733,-212.0207 71.7458,-218.9985 88.5692,-225.0581"/>
<polygon fill="#191970" stroke="#191970" points="87.5259,-228.4024 98.1203,-228.4983 89.8981,-221.8166 87.5259,-228.4024"/>
</g>
<!-- Node13 -->
<g id="node7" class="node">
<title>Node13</title>
<g id="a_node7"><a xlink:href="_file_dialog_8hpp.html#aacfc4cd968b61ef119f34806c6af4a13" target="_top" xlink:title="Ouvre une boîte de dialogue qui demande un nom de sauvegarde pour un fichier. ">
<polygon fill="#ffffff" stroke="#000000" points="77,-190.5 77,-209.5 172,-209.5 172,-190.5 77,-190.5"/>
<text text-anchor="middle" x="124.5" y="-197.5" font-family="Helvetica,sans-Serif" font-size="10.00" fill="#000000">getSaveFileName</text>
</a>
</g>
</g>
<!-- Node7&#45;&gt;Node13 -->
<g id="edge8" class="edge">
<title>Node7&#45;&gt;Node13</title>
<path fill="none" stroke="#191970" d="M38.3503,-200C46.4702,-200 56.3837,-200 66.5574,-200"/>
<polygon fill="#191970" stroke="#191970" points="66.7611,-203.5001 76.761,-200 66.761,-196.5001 66.7611,-203.5001"/>
</g>
<!-- Node14 -->
<g id="node8" class="node">
<title>Node14</title>
<g id="a_node8"><a xlink:href="menu_8cpp.html#a678c21c572ee928dc71b7699f94327a1" target="_top" xlink:title="listImg">
<polygon fill="#ffffff" stroke="#000000" points="101.5,-152.5 101.5,-171.5 147.5,-171.5 147.5,-152.5 101.5,-152.5"/>
<text text-anchor="middle" x="124.5" y="-159.5" font-family="Helvetica,sans-Serif" font-size="10.00" fill="#000000">listImg</text>
</a>
</g>
</g>
<!-- Node7&#45;&gt;Node14 -->
<g id="edge9" class="edge">
<title>Node7&#45;&gt;Node14</title>
<path fill="none" stroke="#191970" d="M38.3503,-193.0302C53.1689,-187.6927 73.9614,-180.2035 91.4067,-173.9199"/>
<polygon fill="#191970" stroke="#191970" points="92.9988,-177.0666 101.2211,-170.3848 90.6267,-170.4808 92.9988,-177.0666"/>
</g>
<!-- Node15 -->
<g id="node9" class="node">
<title>Node15</title>
<g id="a_node9"><a xlink:href="config_8cpp.html#ac4088916e2b96189b38f3d1b73db20ab" target="_top" xlink:title="loadTagList">
<polygon fill="#ffffff" stroke="#000000" points="91,-114.5 91,-133.5 158,-133.5 158,-114.5 91,-114.5"/>
<text text-anchor="middle" x="124.5" y="-121.5" font-family="Helvetica,sans-Serif" font-size="10.00" fill="#000000">loadTagList</text>
</a>
</g>
</g>
<!-- Node7&#45;&gt;Node15 -->
<g id="edge10" class="edge">
<title>Node7&#45;&gt;Node15</title>
<path fill="none" stroke="#191970" d="M26.1598,-190.2476C35.7826,-177.7529 54.0059,-156.144 74,-143 76.9059,-141.0897 80.0311,-139.3338 83.2508,-137.7278"/>
<polygon fill="#191970" stroke="#191970" points="84.7777,-140.879 92.4713,-133.5947 81.9144,-134.4913 84.7777,-140.879"/>
</g>
<!-- Node16 -->
<g id="node10" class="node">
<title>Node16</title>
<g id="a_node10"><a xlink:href="menu_8cpp.html#a2a0e843767aeea4f433a28b9c54f573a" target="_top" xlink:title="menu">
<polygon fill="#ffffff" stroke="#000000" points="104,-76.5 104,-95.5 145,-95.5 145,-76.5 104,-76.5"/>
<text text-anchor="middle" x="124.5" y="-83.5" font-family="Helvetica,sans-Serif" font-size="10.00" fill="#000000">menu</text>
</a>
</g>
</g>
<!-- Node7&#45;&gt;Node16 -->
<g id="edge11" class="edge">
<title>Node7&#45;&gt;Node16</title>
<path fill="none" stroke="#191970" d="M22.0506,-190.4809C28.576,-171.5694 45.6467,-129.0239 74,-105 79.847,-100.0458 87.1145,-96.3176 94.2974,-93.5378"/>
<polygon fill="#191970" stroke="#191970" points="95.5357,-96.8141 103.8984,-90.309 93.3043,-90.1792 95.5357,-96.8141"/>
</g>
<!-- Node17 -->
<g id="node11" class="node">
<title>Node17</title>
<g id="a_node11"><a xlink:href="save_8cpp.html#a6696e82f5b014da4667cbb52625d50e0" target="_top" xlink:title="saveCollec">
<polygon fill="#ffffff" stroke="#000000" points="92,-38.5 92,-57.5 157,-57.5 157,-38.5 92,-38.5"/>
<text text-anchor="middle" x="124.5" y="-45.5" font-family="Helvetica,sans-Serif" font-size="10.00" fill="#000000">saveCollec</text>
</a>
</g>
</g>
<!-- Node7&#45;&gt;Node17 -->
<g id="edge12" class="edge">
<title>Node7&#45;&gt;Node17</title>
<path fill="none" stroke="#191970" d="M20.3532,-190.1555C24.1976,-165.8608 37.38,-102.4572 74,-67 76.5678,-64.5137 79.492,-62.3465 82.6094,-60.4585"/>
<polygon fill="#191970" stroke="#191970" points="84.4142,-63.4684 91.7706,-55.8437 81.2651,-57.2167 84.4142,-63.4684"/>
</g>
<!-- Node18 -->
<g id="node12" class="node">
<title>Node18</title>
<g id="a_node12"><a xlink:href="config_8cpp.html#ae4020cd17b8b070a8e414fbacbd7456b" target="_top" xlink:title="saveTagList">
<polygon fill="#ffffff" stroke="#000000" points="89.5,-.5 89.5,-19.5 159.5,-19.5 159.5,-.5 89.5,-.5"/>
<text text-anchor="middle" x="124.5" y="-7.5" font-family="Helvetica,sans-Serif" font-size="10.00" fill="#000000">saveTagList</text>
</a>
</g>
</g>
<!-- Node7&#45;&gt;Node18 -->
<g id="edge13" class="edge">
<title>Node7&#45;&gt;Node18</title>
<path fill="none" stroke="#191970" d="M21.0012,-190.1144C27.8004,-157.3883 50.8786,-53.275 74,-29 75.9987,-26.9015 78.2519,-25.0328 80.6689,-23.3689"/>
<polygon fill="#191970" stroke="#191970" points="82.3864,-26.4185 89.3854,-18.4646 78.9539,-20.3178 82.3864,-26.4185"/>
</g>
<!-- Node10&#45;&gt;Node9 -->
<g id="edge4" class="edge">
<title>Node10&#45;&gt;Node9</title>
<path fill="none" stroke="#191970" d="M160.2592,-314C173.3835,-314 188.1025,-314 200.7016,-314"/>
<polygon fill="#191970" stroke="#191970" points="200.7048,-317.5001 210.7047,-314 200.7047,-310.5001 200.7048,-317.5001"/>
</g>
<!-- Node11&#45;&gt;Node9 -->
<g id="edge6" class="edge">
<title>Node11&#45;&gt;Node9</title>
<path fill="none" stroke="#191970" d="M151.3744,-285.589C166.5389,-290.9998 185.5213,-297.7729 201.148,-303.3486"/>
<polygon fill="#191970" stroke="#191970" points="200.264,-306.7492 210.8586,-306.8134 202.6164,-300.1563 200.264,-306.7492"/>
</g>
</g>
</svg>
