<?xml version="1.0" encoding="UTF-8" standalone="no"?>
<!DOCTYPE svg PUBLIC "-//W3C//DTD SVG 1.1//EN"
 "http://www.w3.org/Graphics/SVG/1.1/DTD/svg11.dtd">
<!-- Generated by graphviz version 2.40.1 (20161225.0304)
 -->
<!-- Title: main Pages: 1 -->
<svg width="653pt" height="496pt"
 viewBox="0.00 0.00 653.00 496.00" xmlns="http://www.w3.org/2000/svg" xmlns:xlink="http://www.w3.org/1999/xlink">
<g id="graph0" class="graph" transform="scale(1 1) rotate(0) translate(4 492)">
<title>main</title>
<polygon fill="#ffffff" stroke="transparent" points="-4,4 -4,-492 649,-492 649,4 -4,4"/>
<!-- Node10 -->
<g id="node1" class="node">
<title>Node10</title>
<polygon fill="#bfbfbf" stroke="#000000" points="0,-228.5 0,-247.5 38,-247.5 38,-228.5 0,-228.5"/>
<text text-anchor="middle" x="19" y="-235.5" font-family="Helvetica,sans-Serif" font-size="10.00" fill="#000000">main</text>
</g>
<!-- Node11 -->
<g id="node2" class="node">
<title>Node11</title>
<g id="a_node2"><a xlink:href="menu_8cpp.html#a6127d81352b5656c477805dc7bfcc9c5" target="_top" xlink:title="affTags">
<polygon fill="#ffffff" stroke="#000000" points="105,-468.5 105,-487.5 155,-487.5 155,-468.5 105,-468.5"/>
<text text-anchor="middle" x="130" y="-475.5" font-family="Helvetica,sans-Serif" font-size="10.00" fill="#000000">affTags</text>
</a>
</g>
</g>
<!-- Node10&#45;&gt;Node11 -->
<g id="edge1" class="edge">
<title>Node10&#45;&gt;Node11</title>
<path fill="none" stroke="#191970" d="M20.1769,-247.7202C25.0104,-286.1464 44.4848,-426.9215 74,-459 79.572,-465.0559 87.1448,-469.1822 94.9193,-471.9936"/>
<polygon fill="#191970" stroke="#191970" points="94.1572,-475.418 104.7393,-474.8976 96.1424,-468.7053 94.1572,-475.418"/>
</g>
<!-- Node12 -->
<g id="node3" class="node">
<title>Node12</title>
<g id="a_node3"><a xlink:href="_file_dialog_8hpp.html#ad37a6364c30c0ac2187911992d6c239e" target="_top" xlink:title="Ouvre une boîte de dialogue qui demande un répertoire à ouvrir. ">
<polygon fill="#ffffff" stroke="#000000" points="92.5,-430.5 92.5,-449.5 167.5,-449.5 167.5,-430.5 92.5,-430.5"/>
<text text-anchor="middle" x="130" y="-437.5" font-family="Helvetica,sans-Serif" font-size="10.00" fill="#000000">browseFolder</text>
</a>
</g>
</g>
<!-- Node10&#45;&gt;Node12 -->
<g id="edge2" class="edge">
<title>Node10&#45;&gt;Node12</title>
<path fill="none" stroke="#191970" d="M20.6998,-247.6445C26.8639,-281.6207 48.9991,-395.1048 74,-421 76.7688,-423.8678 79.9859,-426.3028 83.4517,-428.3703"/>
<polygon fill="#191970" stroke="#191970" points="81.9456,-431.5298 92.4653,-432.7896 85.0272,-425.2446 81.9456,-431.5298"/>
</g>
<!-- Node13 -->
<g id="node4" class="node">
<title>Node13</title>
<g id="a_node4"><a xlink:href="menu_8cpp.html#a0cebd2716215ca7253af746486a7e1c0" target="_top" xlink:title="choix_image">
<polygon fill="#ffffff" stroke="#000000" points="94.5,-392.5 94.5,-411.5 165.5,-411.5 165.5,-392.5 94.5,-392.5"/>
<text text-anchor="middle" x="130" y="-399.5" font-family="Helvetica,sans-Serif" font-size="10.00" fill="#000000">choix_image</text>
</a>
</g>
</g>
<!-- Node10&#45;&gt;Node13 -->
<g id="edge3" class="edge">
<title>Node10&#45;&gt;Node13</title>
<path fill="none" stroke="#191970" d="M19.8662,-247.6493C22.6886,-273.3792 33.8992,-344.296 74,-383 77.2884,-386.1739 81.1265,-388.8184 85.2236,-391.0218"/>
<polygon fill="#191970" stroke="#191970" points="83.9369,-394.2805 94.4939,-395.1749 86.7989,-387.8923 83.9369,-394.2805"/>
</g>
<!-- Node17 -->
<g id="node8" class="node">
<title>Node17</title>
<g id="a_node8"><a xlink:href="menu_8cpp.html#a3cb5d03d7c8003abc6637a91f7a1cceb" target="_top" xlink:title="choix_tag">
<polygon fill="#ffffff" stroke="#000000" points="100.5,-354.5 100.5,-373.5 159.5,-373.5 159.5,-354.5 100.5,-354.5"/>
<text text-anchor="middle" x="130" y="-361.5" font-family="Helvetica,sans-Serif" font-size="10.00" fill="#000000">choix_tag</text>
</a>
</g>
</g>
<!-- Node10&#45;&gt;Node17 -->
<g id="edge7" class="edge">
<title>Node10&#45;&gt;Node17</title>
<path fill="none" stroke="#191970" d="M21.284,-247.5149C26.7475,-268.2571 42.5209,-317.858 74,-345 78.8985,-349.2236 84.7775,-352.5191 90.8578,-355.0875"/>
<polygon fill="#191970" stroke="#191970" points="89.8717,-358.4525 100.4661,-358.5539 92.2473,-351.8679 89.8717,-358.4525"/>
</g>
<!-- Node18 -->
<g id="node9" class="node">
<title>Node18</title>
<g id="a_node9"><a xlink:href="namespacecimg__library__suffixed_1_1cimg.html#a89ad6cacc2ade7f8077d34fc6f455dc3" target="_top" xlink:title="Display a simple dialog box, and wait for the user&#39;s response . ">
<polygon fill="#ffffff" stroke="#000000" points="75.5,-305 75.5,-335 184.5,-335 184.5,-305 75.5,-305"/>
<text text-anchor="start" x="83.5" y="-323" font-family="Helvetica,sans-Serif" font-size="10.00" fill="#000000">cimg_library_suffixed</text>
<text text-anchor="middle" x="130" y="-312" font-family="Helvetica,sans-Serif" font-size="10.00" fill="#000000">::cimg::dialog</text>
</a>
</g>
</g>
<!-- Node10&#45;&gt;Node18 -->
<g id="edge9" class="edge">
<title>Node10&#45;&gt;Node18</title>
<path fill="none" stroke="#191970" d="M26.2839,-247.5695C36.0411,-259.8665 54.4093,-281.262 74,-295 76.5335,-296.7766 79.2134,-298.472 81.974,-300.0818"/>
<polygon fill="#191970" stroke="#191970" points="80.5192,-303.2734 90.9844,-304.9261 83.834,-297.108 80.5192,-303.2734"/>
</g>
<!-- Node19 -->
<g id="node10" class="node">
<title>Node19</title>
<g id="a_node10"><a xlink:href="_file_dialog_8hpp.html#ab8faee849788ba51e2d0d4691a2462e1" target="_top" xlink:title="Ouvre une boîte de dialogue qui demande un fichier à ouvrir. ">
<polygon fill="#ffffff" stroke="#000000" points="82.5,-266.5 82.5,-285.5 177.5,-285.5 177.5,-266.5 82.5,-266.5"/>
<text text-anchor="middle" x="130" y="-273.5" font-family="Helvetica,sans-Serif" font-size="10.00" fill="#000000">getOpenFileName</text>
</a>
</g>
</g>
<!-- Node10&#45;&gt;Node19 -->
<g id="edge10" class="edge">
<title>Node10&#45;&gt;Node19</title>
<path fill="none" stroke="#191970" d="M38.0814,-244.6207C48.6599,-248.2839 62.0529,-252.9097 74,-257 79.7869,-258.9812 85.9133,-261.0694 91.9078,-263.1073"/>
<polygon fill="#191970" stroke="#191970" points="91.1939,-266.5611 101.7883,-266.462 93.4444,-259.9328 91.1939,-266.5611"/>
</g>
<!-- Node20 -->
<g id="node11" class="node">
<title>Node20</title>
<g id="a_node11"><a xlink:href="main_8cpp.html#afd1494ba2ddabdc117d066157e838462" target="_top" xlink:title="getPoolFromDirectory">
<polygon fill="#ffffff" stroke="#000000" points="74,-228.5 74,-247.5 186,-247.5 186,-228.5 74,-228.5"/>
<text text-anchor="middle" x="130" y="-235.5" font-family="Helvetica,sans-Serif" font-size="10.00" fill="#000000">getPoolFromDirectory</text>
</a>
</g>
</g>
<!-- Node10&#45;&gt;Node20 -->
<g id="edge11" class="edge">
<title>Node10&#45;&gt;Node20</title>
<path fill="none" stroke="#191970" d="M38.0816,-238C45.4559,-238 54.366,-238 63.7001,-238"/>
<polygon fill="#191970" stroke="#191970" points="63.9424,-241.5001 73.9423,-238 63.9423,-234.5001 63.9424,-241.5001"/>
</g>
<!-- Node23 -->
<g id="node14" class="node">
<title>Node23</title>
<g id="a_node14"><a xlink:href="main_8cpp.html#addb7c669fb11a52b3d2dd9e221fdea2f" target="_top" xlink:title="getPoolFromSave">
<polygon fill="#ffffff" stroke="#000000" points="82.5,-190.5 82.5,-209.5 177.5,-209.5 177.5,-190.5 82.5,-190.5"/>
<text text-anchor="middle" x="130" y="-197.5" font-family="Helvetica,sans-Serif" font-size="10.00" fill="#000000">getPoolFromSave</text>
</a>
</g>
</g>
<!-- Node10&#45;&gt;Node23 -->
<g id="edge14" class="edge">
<title>Node10&#45;&gt;Node23</title>
<path fill="none" stroke="#191970" d="M38.0814,-231.3793C48.6599,-227.7161 62.0529,-223.0903 74,-219 79.7869,-217.0188 85.9133,-214.9306 91.9078,-212.8927"/>
<polygon fill="#191970" stroke="#191970" points="93.4444,-216.0672 101.7883,-209.538 91.1939,-209.4389 93.4444,-216.0672"/>
</g>
<!-- Node25 -->
<g id="node16" class="node">
<title>Node25</title>
<g id="a_node16"><a xlink:href="_file_dialog_8hpp.html#aacfc4cd968b61ef119f34806c6af4a13" target="_top" xlink:title="Ouvre une boîte de dialogue qui demande un nom de sauvegarde pour un fichier. ">
<polygon fill="#ffffff" stroke="#000000" points="82.5,-152.5 82.5,-171.5 177.5,-171.5 177.5,-152.5 82.5,-152.5"/>
<text text-anchor="middle" x="130" y="-159.5" font-family="Helvetica,sans-Serif" font-size="10.00" fill="#000000">getSaveFileName</text>
</a>
</g>
</g>
<!-- Node10&#45;&gt;Node25 -->
<g id="edge17" class="edge">
<title>Node10&#45;&gt;Node25</title>
<path fill="none" stroke="#191970" d="M26.0943,-228.1463C35.6464,-215.542 53.7933,-193.8148 74,-181 77.1781,-178.9845 80.5943,-177.1566 84.1151,-175.504"/>
<polygon fill="#191970" stroke="#191970" points="85.7205,-178.6261 93.5879,-171.5301 83.0125,-172.1711 85.7205,-178.6261"/>
</g>
<!-- Node26 -->
<g id="node17" class="node">
<title>Node26</title>
<g id="a_node17"><a xlink:href="menu_8cpp.html#a8e5619d636621af1c4735ab4bd54c626" target="_top" xlink:title="listImg">
<polygon fill="#ffffff" stroke="#000000" points="107,-114.5 107,-133.5 153,-133.5 153,-114.5 107,-114.5"/>
<text text-anchor="middle" x="130" y="-121.5" font-family="Helvetica,sans-Serif" font-size="10.00" fill="#000000">listImg</text>
</a>
</g>
</g>
<!-- Node10&#45;&gt;Node26 -->
<g id="edge18" class="edge">
<title>Node10&#45;&gt;Node26</title>
<path fill="none" stroke="#191970" d="M21.9843,-228.4013C28.3903,-209.3465 45.2571,-166.5563 74,-143 80.6614,-137.5407 88.9705,-133.619 97.1322,-130.8135"/>
<polygon fill="#191970" stroke="#191970" points="98.3027,-134.1171 106.8937,-127.9167 96.3112,-127.4063 98.3027,-134.1171"/>
</g>
<!-- Node27 -->
<g id="node18" class="node">
<title>Node27</title>
<g id="a_node18"><a xlink:href="config_8cpp.html#ac4088916e2b96189b38f3d1b73db20ab" target="_top" xlink:title="loadTagList">
<polygon fill="#ffffff" stroke="#000000" points="96.5,-76.5 96.5,-95.5 163.5,-95.5 163.5,-76.5 96.5,-76.5"/>
<text text-anchor="middle" x="130" y="-83.5" font-family="Helvetica,sans-Serif" font-size="10.00" fill="#000000">loadTagList</text>
</a>
</g>
</g>
<!-- Node10&#45;&gt;Node27 -->
<g id="edge19" class="edge">
<title>Node10&#45;&gt;Node27</title>
<path fill="none" stroke="#191970" d="M20.2284,-228.4377C23.8384,-204.241 36.6218,-140.0235 74,-105 77.7892,-101.4495 82.267,-98.5604 87.0134,-96.2098"/>
<polygon fill="#191970" stroke="#191970" points="88.4731,-99.3934 96.3618,-92.321 85.7845,-92.9303 88.4731,-99.3934"/>
</g>
<!-- Node28 -->
<g id="node19" class="node">
<title>Node28</title>
<g id="a_node19"><a xlink:href="save_8cpp.html#a5b4162e2a65c758c17d482f849e36b30" target="_top" xlink:title="saveCollec">
<polygon fill="#ffffff" stroke="#000000" points="97.5,-38.5 97.5,-57.5 162.5,-57.5 162.5,-38.5 97.5,-38.5"/>
<text text-anchor="middle" x="130" y="-45.5" font-family="Helvetica,sans-Serif" font-size="10.00" fill="#000000">saveCollec</text>
</a>
</g>
</g>
<!-- Node10&#45;&gt;Node28 -->
<g id="edge20" class="edge">
<title>Node10&#45;&gt;Node28</title>
<path fill="none" stroke="#191970" d="M20.9708,-228.085C27.674,-195.266 50.4841,-90.893 74,-67 77.9609,-62.9756 82.8046,-59.8034 87.9691,-57.3031"/>
<polygon fill="#191970" stroke="#191970" points="89.5088,-60.4567 97.4901,-53.489 86.9057,-53.9587 89.5088,-60.4567"/>
</g>
<!-- Node29 -->
<g id="node20" class="node">
<title>Node29</title>
<g id="a_node20"><a xlink:href="config_8cpp.html#ae4020cd17b8b070a8e414fbacbd7456b" target="_top" xlink:title="saveTagList">
<polygon fill="#ffffff" stroke="#000000" points="95,-.5 95,-19.5 165,-19.5 165,-.5 95,-.5"/>
<text text-anchor="middle" x="130" y="-7.5" font-family="Helvetica,sans-Serif" font-size="10.00" fill="#000000">saveTagList</text>
</a>
</g>
</g>
<!-- Node10&#45;&gt;Node29 -->
<g id="edge21" class="edge">
<title>Node10&#45;&gt;Node29</title>
<path fill="none" stroke="#191970" d="M20.3227,-228.3022C25.5572,-191.2386 45.9159,-59.1154 74,-29 77.3259,-25.4335 81.3456,-22.5364 85.687,-20.1831"/>
<polygon fill="#191970" stroke="#191970" points="87.2136,-23.3348 94.9311,-16.076 84.3714,-16.9378 87.2136,-23.3348"/>
</g>
<!-- Node14 -->
<g id="node5" class="node">
<title>Node14</title>
<g id="a_node5"><a xlink:href="menu_8cpp.html#ab8e0d5fe33cf41a4201057a6954e5368" target="_top" xlink:title="choix">
<polygon fill="#ffffff" stroke="#000000" points="268.5,-373.5 268.5,-392.5 308.5,-392.5 308.5,-373.5 268.5,-373.5"/>
<text text-anchor="middle" x="288.5" y="-380.5" font-family="Helvetica,sans-Serif" font-size="10.00" fill="#000000">choix</text>
</a>
</g>
</g>
<!-- Node13&#45;&gt;Node14 -->
<g id="edge4" class="edge">
<title>Node13&#45;&gt;Node14</title>
<path fill="none" stroke="#191970" d="M165.5705,-397.736C193.3263,-394.4088 231.4775,-389.8355 257.8839,-386.6701"/>
<polygon fill="#191970" stroke="#191970" points="258.5595,-390.1142 268.0718,-385.4488 257.7263,-383.164 258.5595,-390.1142"/>
</g>
<!-- Node15 -->
<g id="node6" class="node">
<title>Node15</title>
<g id="a_node6"><a xlink:href="namespacecimg__library__suffixed_1_1cimg.html#aae5df5731fe5a367cec402071108c11c" target="_top" xlink:title="Return the maximum between three values. ">
<polygon fill="#ffffff" stroke="#000000" points="391,-368 391,-398 500,-398 500,-368 391,-368"/>
<text text-anchor="start" x="399" y="-386" font-family="Helvetica,sans-Serif" font-size="10.00" fill="#000000">cimg_library_suffixed</text>
<text text-anchor="middle" x="445.5" y="-375" font-family="Helvetica,sans-Serif" font-size="10.00" fill="#000000">::cimg::max</text>
</a>
</g>
</g>
<!-- Node14&#45;&gt;Node15 -->
<g id="edge5" class="edge">
<title>Node14&#45;&gt;Node15</title>
<path fill="none" stroke="#191970" d="M308.7036,-383C326.982,-383 354.9207,-383 380.7951,-383"/>
<polygon fill="#191970" stroke="#191970" points="380.9626,-386.5001 390.9626,-383 380.9625,-379.5001 380.9626,-386.5001"/>
</g>
<!-- Node16 -->
<g id="node7" class="node">
<title>Node16</title>
<g id="a_node7"><a xlink:href="namespacecimg__library__suffixed_1_1cimg.html#a4b4cabc621d732787bca13016ea8026a" target="_top" xlink:title="Return the maximum between four values. ">
<polygon fill="#ffffff" stroke="#000000" points="536,-368 536,-398 645,-398 645,-368 536,-368"/>
<text text-anchor="start" x="544" y="-386" font-family="Helvetica,sans-Serif" font-size="10.00" fill="#000000">cimg_library_suffixed</text>
<text text-anchor="middle" x="590.5" y="-375" font-family="Helvetica,sans-Serif" font-size="10.00" fill="#000000">::cimg::max</text>
</a>
</g>
</g>
<!-- Node15&#45;&gt;Node16 -->
<g id="edge6" class="edge">
<title>Node15&#45;&gt;Node16</title>
<path fill="none" stroke="#191970" d="M500.3183,-383C508.5286,-383 517.0611,-383 525.4586,-383"/>
<polygon fill="#191970" stroke="#191970" points="525.6042,-386.5001 535.6042,-383 525.6042,-379.5001 525.6042,-386.5001"/>
</g>
<!-- Node17&#45;&gt;Node14 -->
<g id="edge8" class="edge">
<title>Node17&#45;&gt;Node14</title>
<path fill="none" stroke="#191970" d="M159.8126,-367.5738C187.9615,-370.9481 229.965,-375.9832 258.2547,-379.3744"/>
<polygon fill="#191970" stroke="#191970" points="258.0225,-382.8715 268.3681,-380.5867 258.8558,-375.9213 258.0225,-382.8715"/>
</g>
<!-- Node21 -->
<g id="node12" class="node">
<title>Node21</title>
<g id="a_node12"><a xlink:href="namespacecimg__library__suffixed_1_1cimg.html#aca0e45a04eb1607f2e25101aae4b8572" target="_top" xlink:title="Check if a path is a directory. ">
<polygon fill="#ffffff" stroke="#000000" points="234,-248 234,-278 343,-278 343,-248 234,-248"/>
<text text-anchor="start" x="242" y="-266" font-family="Helvetica,sans-Serif" font-size="10.00" fill="#000000">cimg_library_suffixed</text>
<text text-anchor="middle" x="288.5" y="-255" font-family="Helvetica,sans-Serif" font-size="10.00" fill="#000000">::cimg::is_directory</text>
</a>
</g>
</g>
<!-- Node20&#45;&gt;Node21 -->
<g id="edge12" class="edge">
<title>Node20&#45;&gt;Node21</title>
<path fill="none" stroke="#191970" d="M186.3275,-246.8845C198.544,-248.8114 211.5558,-250.8637 224.0577,-252.8356"/>
<polygon fill="#191970" stroke="#191970" points="223.5266,-256.295 233.9498,-254.3959 224.6173,-249.3805 223.5266,-256.295"/>
</g>
<!-- Node22 -->
<g id="node13" class="node">
<title>Node22</title>
<g id="a_node13"><a xlink:href="class_collection_pool.html#a67fc04c58d9da40ef52e4e58aa386557" target="_top" xlink:title="CollectionPool::push_back">
<polygon fill="#ffffff" stroke="#000000" points="222,-209.5 222,-228.5 355,-228.5 355,-209.5 222,-209.5"/>
<text text-anchor="middle" x="288.5" y="-216.5" font-family="Helvetica,sans-Serif" font-size="10.00" fill="#000000">CollectionPool::push_back</text>
</a>
</g>
</g>
<!-- Node20&#45;&gt;Node22 -->
<g id="edge13" class="edge">
<title>Node20&#45;&gt;Node22</title>
<path fill="none" stroke="#191970" d="M186.3275,-231.2478C194.5775,-230.2588 203.1902,-229.2264 211.7636,-228.1987"/>
<polygon fill="#191970" stroke="#191970" points="212.2736,-231.6627 221.786,-226.9973 211.4404,-224.7125 212.2736,-231.6627"/>
</g>
<!-- Node23&#45;&gt;Node22 -->
<g id="edge16" class="edge">
<title>Node23&#45;&gt;Node22</title>
<path fill="none" stroke="#191970" d="M177.5552,-205.7006C188.3458,-206.9941 200.0749,-208.4002 211.7324,-209.7976"/>
<polygon fill="#191970" stroke="#191970" points="211.5875,-213.3052 221.933,-211.0204 212.4207,-206.3549 211.5875,-213.3052"/>
</g>
<!-- Node24 -->
<g id="node15" class="node">
<title>Node24</title>
<g id="a_node15"><a xlink:href="class_image.html#ad6c6fc59aaffc9c101047e8ef32abc9d" target="_top" xlink:title="Image::loadImage">
<polygon fill="#ffffff" stroke="#000000" points="241,-171.5 241,-190.5 336,-190.5 336,-171.5 241,-171.5"/>
<text text-anchor="middle" x="288.5" y="-178.5" font-family="Helvetica,sans-Serif" font-size="10.00" fill="#000000">Image::loadImage</text>
</a>
</g>
</g>
<!-- Node23&#45;&gt;Node24 -->
<g id="edge15" class="edge">
<title>Node23&#45;&gt;Node24</title>
<path fill="none" stroke="#191970" d="M177.5552,-194.2994C194.3249,-192.2891 213.3614,-190.0071 230.8728,-187.908"/>
<polygon fill="#191970" stroke="#191970" points="231.466,-191.362 240.9783,-186.6966 230.6328,-184.4118 231.466,-191.362"/>
</g>
</g>
</svg>
