<?xml version="1.0" encoding="UTF-8" standalone="no"?>
<!DOCTYPE svg PUBLIC "-//W3C//DTD SVG 1.1//EN"
 "http://www.w3.org/Graphics/SVG/1.1/DTD/svg11.dtd">
<!-- Generated by graphviz version 2.40.1 (20161225.0304)
 -->
<!-- Title: getPoolFromDirectory Pages: 1 -->
<svg width="420pt" height="123pt"
 viewBox="0.00 0.00 420.00 123.00" xmlns="http://www.w3.org/2000/svg" xmlns:xlink="http://www.w3.org/1999/xlink">
<g id="graph0" class="graph" transform="scale(1 1) rotate(0) translate(4 119)">
<title>getPoolFromDirectory</title>
<polygon fill="#ffffff" stroke="transparent" points="-4,4 -4,-119 416,-119 416,4 -4,4"/>
<!-- Node0 -->
<g id="node1" class="node">
<title>Node0</title>
<polygon fill="#bfbfbf" stroke="#000000" points="0,-57.5 0,-76.5 112,-76.5 112,-57.5 0,-57.5"/>
<text text-anchor="middle" x="56" y="-64.5" font-family="Helvetica,sans-Serif" font-size="10.00" fill="#000000">getPoolFromDirectory</text>
</g>
<!-- Node1 -->
<g id="node2" class="node">
<title>Node1</title>
<g id="a_node2"><a xlink:href="_file_dialog_8hpp.html#a79d86cc4131e945502a7bf000eca7537" target="_top" xlink:title="Ouvre une boîte de dialogue qui demande un répertoire à ouvrir. ">
<polygon fill="#ffffff" stroke="#000000" points="177,-95.5 177,-114.5 252,-114.5 252,-95.5 177,-95.5"/>
<text text-anchor="middle" x="214.5" y="-102.5" font-family="Helvetica,sans-Serif" font-size="10.00" fill="#000000">browseFolder</text>
</a>
</g>
</g>
<!-- Node0&#45;&gt;Node1 -->
<g id="edge1" class="edge">
<title>Node0&#45;&gt;Node1</title>
<path fill="none" stroke="#191970" d="M95.9962,-76.589C117.6453,-81.7793 144.5229,-88.2232 167.2054,-93.6612"/>
<polygon fill="#191970" stroke="#191970" points="166.4286,-97.0741 176.9691,-96.0021 168.0607,-90.267 166.4286,-97.0741"/>
</g>
<!-- Node2 -->
<g id="node3" class="node">
<title>Node2</title>
<g id="a_node3"><a xlink:href="class_collection_pool.html#a67fc04c58d9da40ef52e4e58aa386557" target="_top" xlink:title="CollectionPool::push_back">
<polygon fill="#ffffff" stroke="#000000" points="148,-57.5 148,-76.5 281,-76.5 281,-57.5 148,-57.5"/>
<text text-anchor="middle" x="214.5" y="-64.5" font-family="Helvetica,sans-Serif" font-size="10.00" fill="#000000">CollectionPool::push_back</text>
</a>
</g>
</g>
<!-- Node0&#45;&gt;Node2 -->
<g id="edge2" class="edge">
<title>Node0&#45;&gt;Node2</title>
<path fill="none" stroke="#191970" d="M112.3275,-67C120.5775,-67 129.1902,-67 137.7636,-67"/>
<polygon fill="#191970" stroke="#191970" points="137.786,-70.5001 147.786,-67 137.7859,-63.5001 137.786,-70.5001"/>
</g>
<!-- Node3 -->
<g id="node4" class="node">
<title>Node3</title>
<g id="a_node4"><a xlink:href="save_8cpp.html#a2f7a5989de5158a79ed463cd910745ab" target="_top" xlink:title="updateCollec">
<polygon fill="#ffffff" stroke="#000000" points="177.5,-19.5 177.5,-38.5 251.5,-38.5 251.5,-19.5 177.5,-19.5"/>
<text text-anchor="middle" x="214.5" y="-26.5" font-family="Helvetica,sans-Serif" font-size="10.00" fill="#000000">updateCollec</text>
</a>
</g>
</g>
<!-- Node0&#45;&gt;Node3 -->
<g id="edge3" class="edge">
<title>Node0&#45;&gt;Node3</title>
<path fill="none" stroke="#191970" d="M95.9962,-57.411C117.7252,-52.2015 144.7214,-45.7293 167.4564,-40.2786"/>
<polygon fill="#191970" stroke="#191970" points="168.3302,-43.6684 177.2386,-37.9333 166.6982,-36.8613 168.3302,-43.6684"/>
</g>
<!-- Node4 -->
<g id="node5" class="node">
<title>Node4</title>
<g id="a_node5"><a xlink:href="class_image.html#a47222478e8a915767150d24965e5e223" target="_top" xlink:title="Image::getPath">
<polygon fill="#ffffff" stroke="#000000" points="323,-38.5 323,-57.5 406,-57.5 406,-38.5 323,-38.5"/>
<text text-anchor="middle" x="364.5" y="-45.5" font-family="Helvetica,sans-Serif" font-size="10.00" fill="#000000">Image::getPath</text>
</a>
</g>
</g>
<!-- Node3&#45;&gt;Node4 -->
<g id="edge4" class="edge">
<title>Node3&#45;&gt;Node4</title>
<path fill="none" stroke="#191970" d="M251.5787,-33.6966C270.0588,-36.0374 292.7074,-38.9063 312.8572,-41.4586"/>
<polygon fill="#191970" stroke="#191970" points="312.4635,-44.9366 322.824,-42.721 313.3432,-37.9921 312.4635,-44.9366"/>
</g>
<!-- Node5 -->
<g id="node6" class="node">
<title>Node5</title>
<g id="a_node6"><a xlink:href="class_image.html#a74e8e906e9ebe86e0e4cb1e0590af3b3" target="_top" xlink:title="Image::getTagList">
<polygon fill="#ffffff" stroke="#000000" points="317,-.5 317,-19.5 412,-19.5 412,-.5 317,-.5"/>
<text text-anchor="middle" x="364.5" y="-7.5" font-family="Helvetica,sans-Serif" font-size="10.00" fill="#000000">Image::getTagList</text>
</a>
</g>
</g>
<!-- Node3&#45;&gt;Node5 -->
<g id="edge5" class="edge">
<title>Node3&#45;&gt;Node5</title>
<path fill="none" stroke="#191970" d="M251.5787,-24.3034C268.1952,-22.1986 288.1819,-19.667 306.692,-17.3223"/>
<polygon fill="#191970" stroke="#191970" points="307.3118,-20.7719 316.7927,-16.0429 306.4321,-13.8274 307.3118,-20.7719"/>
</g>
</g>
</svg>
