<?xml version="1.0" encoding="UTF-8" standalone="no"?>
<!DOCTYPE svg PUBLIC "-//W3C//DTD SVG 1.1//EN"
 "http://www.w3.org/Graphics/SVG/1.1/DTD/svg11.dtd">
<!-- Generated by graphviz version 2.40.1 (20161225.0304)
 -->
<!-- Title: choix Pages: 1 -->
<svg width="229pt" height="104pt"
 viewBox="0.00 0.00 229.00 104.00" xmlns="http://www.w3.org/2000/svg" xmlns:xlink="http://www.w3.org/1999/xlink">
<g id="graph0" class="graph" transform="scale(1 1) rotate(0) translate(4 100)">
<title>choix</title>
<polygon fill="#ffffff" stroke="transparent" points="-4,4 -4,-100 225,-100 225,4 -4,4"/>
<!-- Node4 -->
<g id="node1" class="node">
<title>Node4</title>
<polygon fill="#bfbfbf" stroke="#000000" points="0,-38.5 0,-57.5 40,-57.5 40,-38.5 0,-38.5"/>
<text text-anchor="middle" x="20" y="-45.5" font-family="Helvetica,sans-Serif" font-size="10.00" fill="#000000">choix</text>
</g>
<!-- Node5 -->
<g id="node2" class="node">
<title>Node5</title>
<g id="a_node2"><a xlink:href="menu_8hpp.html#afaae2e9405f2d4e853b4666e534191c3" target="_top" xlink:title="choix_image">
<polygon fill="#ffffff" stroke="#000000" points="76,-76.5 76,-95.5 147,-95.5 147,-76.5 76,-76.5"/>
<text text-anchor="middle" x="111.5" y="-83.5" font-family="Helvetica,sans-Serif" font-size="10.00" fill="#000000">choix_image</text>
</a>
</g>
</g>
<!-- Node4&#45;&gt;Node5 -->
<g id="edge1" class="edge">
<title>Node4&#45;&gt;Node5</title>
<path fill="none" stroke="#191970" d="M49.8593,-60.4006C62.359,-65.5917 76.6659,-71.5334 88.3479,-76.3849"/>
<polygon fill="#191970" stroke="#191970" points="50.8845,-57.0366 40.3068,-56.4334 48.1997,-63.5012 50.8845,-57.0366"/>
</g>
<!-- Node6 -->
<g id="node3" class="node">
<title>Node6</title>
<g id="a_node3"><a xlink:href="main_8cpp.html#ae66f6b31b5ad750f1fe042a706a4e3d4" target="_top" xlink:title="main">
<polygon fill="#ffffff" stroke="#000000" points="183,-38.5 183,-57.5 221,-57.5 221,-38.5 183,-38.5"/>
<text text-anchor="middle" x="202" y="-45.5" font-family="Helvetica,sans-Serif" font-size="10.00" fill="#000000">main</text>
</a>
</g>
</g>
<!-- Node4&#45;&gt;Node6 -->
<g id="edge5" class="edge">
<title>Node4&#45;&gt;Node6</title>
<path fill="none" stroke="#191970" d="M50.5509,-48C88.2797,-48 151.3194,-48 182.8373,-48"/>
<polygon fill="#191970" stroke="#191970" points="50.1726,-44.5001 40.1726,-48 50.1725,-51.5001 50.1726,-44.5001"/>
</g>
<!-- Node7 -->
<g id="node4" class="node">
<title>Node7</title>
<g id="a_node4"><a xlink:href="menu_8hpp.html#a3cb5d03d7c8003abc6637a91f7a1cceb" target="_top" xlink:title="choix_tag">
<polygon fill="#ffffff" stroke="#000000" points="82,-.5 82,-19.5 141,-19.5 141,-.5 82,-.5"/>
<text text-anchor="middle" x="111.5" y="-7.5" font-family="Helvetica,sans-Serif" font-size="10.00" fill="#000000">choix_tag</text>
</a>
</g>
</g>
<!-- Node4&#45;&gt;Node7 -->
<g id="edge3" class="edge">
<title>Node4&#45;&gt;Node7</title>
<path fill="none" stroke="#191970" d="M49.8593,-35.5994C62.359,-30.4083 76.6659,-24.4666 88.3479,-19.6151"/>
<polygon fill="#191970" stroke="#191970" points="48.1997,-32.4988 40.3068,-39.5666 50.8845,-38.9634 48.1997,-32.4988"/>
</g>
<!-- Node5&#45;&gt;Node6 -->
<g id="edge2" class="edge">
<title>Node5&#45;&gt;Node6</title>
<path fill="none" stroke="#191970" d="M143.9251,-72.3851C156.9629,-66.9106 171.5491,-60.786 182.8419,-56.0443"/>
<polygon fill="#191970" stroke="#191970" points="142.2021,-69.3124 134.337,-76.411 144.9122,-75.7665 142.2021,-69.3124"/>
</g>
<!-- Node7&#45;&gt;Node6 -->
<g id="edge4" class="edge">
<title>Node7&#45;&gt;Node6</title>
<path fill="none" stroke="#191970" d="M143.9251,-23.6149C156.9629,-29.0894 171.5491,-35.214 182.8419,-39.9557"/>
<polygon fill="#191970" stroke="#191970" points="144.9122,-20.2335 134.337,-19.589 142.2021,-26.6876 144.9122,-20.2335"/>
</g>
</g>
</svg>
