<?xml version="1.0" encoding="UTF-8" standalone="no"?>
<!DOCTYPE svg PUBLIC "-//W3C//DTD SVG 1.1//EN"
 "http://www.w3.org/Graphics/SVG/1.1/DTD/svg11.dtd">
<!-- Generated by graphviz version 2.40.1 (20161225.0304)
 -->
<!-- Title: src/ConsolePrototype/menu.hpp Pages: 1 -->
<svg width="1076pt" height="207pt"
 viewBox="0.00 0.00 1076.00 207.00" xmlns="http://www.w3.org/2000/svg" xmlns:xlink="http://www.w3.org/1999/xlink">
<g id="graph0" class="graph" transform="scale(1 1) rotate(0) translate(4 203)">
<title>src/ConsolePrototype/menu.hpp</title>
<polygon fill="#ffffff" stroke="transparent" points="-4,4 -4,-203 1072,-203 1072,4 -4,4"/>
<!-- Node0 -->
<g id="node1" class="node">
<title>Node0</title>
<polygon fill="#bfbfbf" stroke="#000000" points="126,-168.5 126,-198.5 237,-198.5 237,-168.5 126,-168.5"/>
<text text-anchor="start" x="134" y="-186.5" font-family="Helvetica,sans-Serif" font-size="10.00" fill="#000000">src/ConsolePrototype</text>
<text text-anchor="middle" x="181.5" y="-175.5" font-family="Helvetica,sans-Serif" font-size="10.00" fill="#000000">/menu.hpp</text>
</g>
<!-- Node1 -->
<g id="node2" class="node">
<title>Node1</title>
<g id="a_node2"><a xlink:href="_collection_8hpp.html" target="_top" xlink:title="../Collection/Collection.hpp">
<polygon fill="#ffffff" stroke="#000000" points="39.5,-112.5 39.5,-131.5 173.5,-131.5 173.5,-112.5 39.5,-112.5"/>
<text text-anchor="middle" x="106.5" y="-119.5" font-family="Helvetica,sans-Serif" font-size="10.00" fill="#000000">../Collection/Collection.hpp</text>
</a>
</g>
</g>
<!-- Node0&#45;&gt;Node1 -->
<g id="edge1" class="edge">
<title>Node0&#45;&gt;Node1</title>
<path fill="none" stroke="#191970" d="M162.9607,-168.2977C151.8992,-159.2274 137.8509,-147.7077 126.5347,-138.4285"/>
<polygon fill="#191970" stroke="#191970" points="128.4604,-135.4813 118.5084,-131.8469 124.0219,-140.8942 128.4604,-135.4813"/>
</g>
<!-- Node6 -->
<g id="node7" class="node">
<title>Node6</title>
<g id="a_node7"><a xlink:href="_image_8hpp.html" target="_top" xlink:title="../Image/Image.hpp">
<polygon fill="#ffffff" stroke="#000000" points="244,-112.5 244,-131.5 345,-131.5 345,-112.5 244,-112.5"/>
<text text-anchor="middle" x="294.5" y="-119.5" font-family="Helvetica,sans-Serif" font-size="10.00" fill="#000000">../Image/Image.hpp</text>
</a>
</g>
</g>
<!-- Node0&#45;&gt;Node6 -->
<g id="edge7" class="edge">
<title>Node0&#45;&gt;Node6</title>
<path fill="none" stroke="#191970" d="M209.1429,-168.4554C227.0049,-158.734 250.1268,-146.15 267.7995,-136.5317"/>
<polygon fill="#191970" stroke="#191970" points="269.8787,-139.3849 276.989,-131.5303 266.5325,-133.2365 269.8787,-139.3849"/>
</g>
<!-- Node2 -->
<g id="node3" class="node">
<title>Node2</title>
<g id="a_node3"><a xlink:href="_collection_iterator_8hpp.html" target="_top" xlink:title="CollectionIterator.hpp">
<polygon fill="#ffffff" stroke="#000000" points="51.5,-56.5 51.5,-75.5 161.5,-75.5 161.5,-56.5 51.5,-56.5"/>
<text text-anchor="middle" x="106.5" y="-63.5" font-family="Helvetica,sans-Serif" font-size="10.00" fill="#000000">CollectionIterator.hpp</text>
</a>
</g>
</g>
<!-- Node1&#45;&gt;Node2 -->
<g id="edge2" class="edge">
<title>Node1&#45;&gt;Node2</title>
<path fill="none" stroke="#191970" d="M106.5,-112.2455C106.5,-104.9382 106.5,-94.6944 106.5,-85.7046"/>
<polygon fill="#191970" stroke="#191970" points="110.0001,-85.6426 106.5,-75.6427 103.0001,-85.6427 110.0001,-85.6426"/>
</g>
<!-- Node4 -->
<g id="node5" class="node">
<title>Node4</title>
<polygon fill="#ffffff" stroke="#bfbfbf" points="0,-.5 0,-19.5 47,-19.5 47,-.5 0,-.5"/>
<text text-anchor="middle" x="23.5" y="-7.5" font-family="Helvetica,sans-Serif" font-size="10.00" fill="#000000">iterator</text>
</g>
<!-- Node1&#45;&gt;Node4 -->
<g id="edge6" class="edge">
<title>Node1&#45;&gt;Node4</title>
<path fill="none" stroke="#191970" d="M86.6883,-112.3732C72.4214,-104.4728 53.7727,-91.9939 42.5,-76 32.852,-62.3112 28.0714,-43.7762 25.7215,-29.8332"/>
<polygon fill="#191970" stroke="#191970" points="29.1712,-29.2305 24.3114,-19.816 22.2395,-30.2063 29.1712,-29.2305"/>
</g>
<!-- Node3 -->
<g id="node4" class="node">
<title>Node3</title>
<polygon fill="#ffffff" stroke="#bfbfbf" points="65.5,-.5 65.5,-19.5 127.5,-19.5 127.5,-.5 65.5,-.5"/>
<text text-anchor="middle" x="96.5" y="-7.5" font-family="Helvetica,sans-Serif" font-size="10.00" fill="#000000">type_traits</text>
</g>
<!-- Node2&#45;&gt;Node3 -->
<g id="edge3" class="edge">
<title>Node2&#45;&gt;Node3</title>
<path fill="none" stroke="#191970" d="M104.7581,-56.2455C103.4533,-48.9382 101.624,-38.6944 100.0187,-29.7046"/>
<polygon fill="#191970" stroke="#191970" points="103.4254,-28.8717 98.2219,-19.6427 96.5344,-30.1022 103.4254,-28.8717"/>
</g>
<!-- Node2&#45;&gt;Node4 -->
<g id="edge4" class="edge">
<title>Node2&#45;&gt;Node4</title>
<path fill="none" stroke="#191970" d="M92.0425,-56.2455C79.4268,-47.7337 60.9056,-35.2375 46.2955,-25.3801"/>
<polygon fill="#191970" stroke="#191970" points="48.0391,-22.3343 37.7918,-19.6427 44.1239,-28.1371 48.0391,-22.3343"/>
</g>
<!-- Node5 -->
<g id="node6" class="node">
<title>Node5</title>
<polygon fill="#ffffff" stroke="#bfbfbf" points="145.5,-.5 145.5,-19.5 197.5,-19.5 197.5,-.5 145.5,-.5"/>
<text text-anchor="middle" x="171.5" y="-7.5" font-family="Helvetica,sans-Serif" font-size="10.00" fill="#000000">memory</text>
</g>
<!-- Node2&#45;&gt;Node5 -->
<g id="edge5" class="edge">
<title>Node2&#45;&gt;Node5</title>
<path fill="none" stroke="#191970" d="M117.8221,-56.2455C127.4223,-47.9746 141.3892,-35.9416 152.6695,-26.2232"/>
<polygon fill="#191970" stroke="#191970" points="155.016,-28.8214 160.3076,-19.6427 150.447,-23.5182 155.016,-28.8214"/>
</g>
<!-- Node6&#45;&gt;Node5 -->
<g id="edge25" class="edge">
<title>Node6&#45;&gt;Node5</title>
<path fill="none" stroke="#191970" d="M288.6545,-112.1701C280.1626,-98.4495 263.3548,-73.2984 244.5,-56 231.0989,-43.7052 213.9904,-32.7261 199.7049,-24.58"/>
<polygon fill="#191970" stroke="#191970" points="201.237,-21.4278 190.7923,-19.6506 197.8491,-27.5533 201.237,-21.4278"/>
</g>
<!-- Node7 -->
<g id="node8" class="node">
<title>Node7</title>
<g id="a_node8"><a xlink:href="_tag_list_8hpp.html" target="_top" xlink:title="TagList.hpp">
<polygon fill="#ffffff" stroke="#000000" points="291.5,-56.5 291.5,-75.5 359.5,-75.5 359.5,-56.5 291.5,-56.5"/>
<text text-anchor="middle" x="325.5" y="-63.5" font-family="Helvetica,sans-Serif" font-size="10.00" fill="#000000">TagList.hpp</text>
</a>
</g>
</g>
<!-- Node6&#45;&gt;Node7 -->
<g id="edge8" class="edge">
<title>Node6&#45;&gt;Node7</title>
<path fill="none" stroke="#191970" d="M299.8998,-112.2455C304.1227,-104.617 310.1173,-93.7881 315.2441,-84.5267"/>
<polygon fill="#191970" stroke="#191970" points="318.381,-86.0867 320.1621,-75.6427 312.2568,-82.6965 318.381,-86.0867"/>
</g>
<!-- Node10 -->
<g id="node11" class="node">
<title>Node10</title>
<g id="a_node11"><a xlink:href="_c_img_8h.html" target="_top" xlink:title="../CImg.h">
<polygon fill="#ffffff" stroke="#000000" points="638.5,-56.5 638.5,-75.5 696.5,-75.5 696.5,-56.5 638.5,-56.5"/>
<text text-anchor="middle" x="667.5" y="-63.5" font-family="Helvetica,sans-Serif" font-size="10.00" fill="#000000">../CImg.h</text>
</a>
</g>
</g>
<!-- Node6&#45;&gt;Node10 -->
<g id="edge11" class="edge">
<title>Node6&#45;&gt;Node10</title>
<path fill="none" stroke="#191970" d="M345.1926,-114.3893C420.4443,-103.0915 560.1248,-82.1207 628.1831,-71.9028"/>
<polygon fill="#191970" stroke="#191970" points="629.1008,-75.3043 638.4703,-70.3583 628.0614,-68.3819 629.1008,-75.3043"/>
</g>
<!-- Node22 -->
<g id="node23" class="node">
<title>Node22</title>
<polygon fill="#ffffff" stroke="#bfbfbf" points="714.5,-56.5 714.5,-75.5 834.5,-75.5 834.5,-56.5 714.5,-56.5"/>
<text text-anchor="middle" x="774.5" y="-63.5" font-family="Helvetica,sans-Serif" font-size="10.00" fill="#000000">experimental/filesystem</text>
</g>
<!-- Node6&#45;&gt;Node22 -->
<g id="edge23" class="edge">
<title>Node6&#45;&gt;Node22</title>
<path fill="none" stroke="#191970" d="M345.1821,-116.8626C420.9399,-109.0655 568.4601,-93.4284 704.1422,-76.1421"/>
<polygon fill="#191970" stroke="#191970" points="704.8303,-79.5827 714.305,-74.8413 703.9415,-72.6393 704.8303,-79.5827"/>
</g>
<!-- Node23 -->
<g id="node24" class="node">
<title>Node23</title>
<polygon fill="#ffffff" stroke="#bfbfbf" points="185.5,-56.5 185.5,-75.5 235.5,-75.5 235.5,-56.5 185.5,-56.5"/>
<text text-anchor="middle" x="210.5" y="-63.5" font-family="Helvetica,sans-Serif" font-size="10.00" fill="#000000">fstream</text>
</g>
<!-- Node6&#45;&gt;Node23 -->
<g id="edge24" class="edge">
<title>Node6&#45;&gt;Node23</title>
<path fill="none" stroke="#191970" d="M279.8683,-112.2455C267.1006,-103.7337 248.3562,-91.2375 233.5701,-81.3801"/>
<polygon fill="#191970" stroke="#191970" points="235.226,-78.2775 224.964,-75.6427 231.3431,-84.1019 235.226,-78.2775"/>
</g>
<!-- Node8 -->
<g id="node9" class="node">
<title>Node8</title>
<polygon fill="#ffffff" stroke="#bfbfbf" points="312,-.5 312,-19.5 353,-19.5 353,-.5 312,-.5"/>
<text text-anchor="middle" x="332.5" y="-7.5" font-family="Helvetica,sans-Serif" font-size="10.00" fill="#000000">string</text>
</g>
<!-- Node7&#45;&gt;Node8 -->
<g id="edge9" class="edge">
<title>Node7&#45;&gt;Node8</title>
<path fill="none" stroke="#191970" d="M326.7193,-56.2455C327.6327,-48.9382 328.9132,-38.6944 330.0369,-29.7046"/>
<polygon fill="#191970" stroke="#191970" points="333.5272,-29.9996 331.2947,-19.6427 326.5813,-29.1313 333.5272,-29.9996"/>
</g>
<!-- Node9 -->
<g id="node10" class="node">
<title>Node9</title>
<polygon fill="#ffffff" stroke="#bfbfbf" points="215.5,-.5 215.5,-19.5 293.5,-19.5 293.5,-.5 215.5,-.5"/>
<text text-anchor="middle" x="254.5" y="-7.5" font-family="Helvetica,sans-Serif" font-size="10.00" fill="#000000">unordered_set</text>
</g>
<!-- Node7&#45;&gt;Node9 -->
<g id="edge10" class="edge">
<title>Node7&#45;&gt;Node9</title>
<path fill="none" stroke="#191970" d="M313.1327,-56.2455C302.5446,-47.8943 287.0936,-35.7076 274.7107,-25.9408"/>
<polygon fill="#191970" stroke="#191970" points="276.7447,-23.0875 266.7255,-19.6427 272.4097,-28.5837 276.7447,-23.0875"/>
</g>
<!-- Node11 -->
<g id="node12" class="node">
<title>Node11</title>
<polygon fill="#ffffff" stroke="#bfbfbf" points="646,-.5 646,-19.5 689,-19.5 689,-.5 646,-.5"/>
<text text-anchor="middle" x="667.5" y="-7.5" font-family="Helvetica,sans-Serif" font-size="10.00" fill="#000000">cstdio</text>
</g>
<!-- Node10&#45;&gt;Node11 -->
<g id="edge12" class="edge">
<title>Node10&#45;&gt;Node11</title>
<path fill="none" stroke="#191970" d="M667.5,-56.2455C667.5,-48.9382 667.5,-38.6944 667.5,-29.7046"/>
<polygon fill="#191970" stroke="#191970" points="671.0001,-29.6426 667.5,-19.6427 664.0001,-29.6427 671.0001,-29.6426"/>
</g>
<!-- Node12 -->
<g id="node13" class="node">
<title>Node12</title>
<polygon fill="#ffffff" stroke="#bfbfbf" points="707,-.5 707,-19.5 752,-19.5 752,-.5 707,-.5"/>
<text text-anchor="middle" x="729.5" y="-7.5" font-family="Helvetica,sans-Serif" font-size="10.00" fill="#000000">cstdlib</text>
</g>
<!-- Node10&#45;&gt;Node12 -->
<g id="edge13" class="edge">
<title>Node10&#45;&gt;Node12</title>
<path fill="none" stroke="#191970" d="M678.2996,-56.2455C687.3678,-48.0549 700.5206,-36.1749 711.2245,-26.5069"/>
<polygon fill="#191970" stroke="#191970" points="713.7491,-28.9429 718.8242,-19.6427 709.0571,-23.7482 713.7491,-28.9429"/>
</g>
<!-- Node13 -->
<g id="node14" class="node">
<title>Node13</title>
<polygon fill="#ffffff" stroke="#bfbfbf" points="770,-.5 770,-19.5 819,-19.5 819,-.5 770,-.5"/>
<text text-anchor="middle" x="794.5" y="-7.5" font-family="Helvetica,sans-Serif" font-size="10.00" fill="#000000">cstdarg</text>
</g>
<!-- Node10&#45;&gt;Node13 -->
<g id="edge14" class="edge">
<title>Node10&#45;&gt;Node13</title>
<path fill="none" stroke="#191970" d="M689.3321,-56.3733C709.8103,-47.3435 740.6399,-33.7494 763.6319,-23.6111"/>
<polygon fill="#191970" stroke="#191970" points="765.215,-26.7383 772.9528,-19.5011 762.3907,-20.3333 765.215,-26.7383"/>
</g>
<!-- Node14 -->
<g id="node15" class="node">
<title>Node14</title>
<polygon fill="#ffffff" stroke="#bfbfbf" points="837.5,-.5 837.5,-19.5 883.5,-19.5 883.5,-.5 837.5,-.5"/>
<text text-anchor="middle" x="860.5" y="-7.5" font-family="Helvetica,sans-Serif" font-size="10.00" fill="#000000">cstring</text>
</g>
<!-- Node10&#45;&gt;Node14 -->
<g id="edge15" class="edge">
<title>Node10&#45;&gt;Node14</title>
<path fill="none" stroke="#191970" d="M696.6478,-57.9045C727.0541,-49.4086 776.3377,-35.4959 827.8152,-20.1574"/>
<polygon fill="#191970" stroke="#191970" points="828.87,-23.4952 837.4487,-17.2778 826.8652,-16.7884 828.87,-23.4952"/>
</g>
<!-- Node15 -->
<g id="node16" class="node">
<title>Node15</title>
<polygon fill="#ffffff" stroke="#bfbfbf" points="901.5,-.5 901.5,-19.5 945.5,-19.5 945.5,-.5 901.5,-.5"/>
<text text-anchor="middle" x="923.5" y="-7.5" font-family="Helvetica,sans-Serif" font-size="10.00" fill="#000000">cmath</text>
</g>
<!-- Node10&#45;&gt;Node15 -->
<g id="edge16" class="edge">
<title>Node10&#45;&gt;Node15</title>
<path fill="none" stroke="#191970" d="M696.9104,-58.052C699.8064,-57.3321 702.7063,-56.6358 705.5,-56 784.9648,-37.9165 808.7655,-40.7792 891.4188,-20.043"/>
<polygon fill="#191970" stroke="#191970" points="892.4186,-23.4001 901.2438,-17.5378 890.6891,-16.6172 892.4186,-23.4001"/>
</g>
<!-- Node16 -->
<g id="node17" class="node">
<title>Node16</title>
<polygon fill="#ffffff" stroke="#bfbfbf" points="964,-.5 964,-19.5 1005,-19.5 1005,-.5 964,-.5"/>
<text text-anchor="middle" x="984.5" y="-7.5" font-family="Helvetica,sans-Serif" font-size="10.00" fill="#000000">cfloat</text>
</g>
<!-- Node10&#45;&gt;Node16 -->
<g id="edge17" class="edge">
<title>Node10&#45;&gt;Node16</title>
<path fill="none" stroke="#191970" d="M696.8809,-57.9151C699.7829,-57.223 702.6922,-56.5705 705.5,-56 811.975,-34.3662 843.8981,-45.1273 954.1399,-19.6929"/>
<polygon fill="#191970" stroke="#191970" points="955.051,-23.0742 963.9825,-17.3751 953.4464,-16.2605 955.051,-23.0742"/>
</g>
<!-- Node17 -->
<g id="node18" class="node">
<title>Node17</title>
<polygon fill="#ffffff" stroke="#bfbfbf" points="1023,-.5 1023,-19.5 1068,-19.5 1068,-.5 1023,-.5"/>
<text text-anchor="middle" x="1045.5" y="-7.5" font-family="Helvetica,sans-Serif" font-size="10.00" fill="#000000">climits</text>
</g>
<!-- Node10&#45;&gt;Node17 -->
<g id="edge18" class="edge">
<title>Node10&#45;&gt;Node17</title>
<path fill="none" stroke="#191970" d="M696.865,-57.8338C699.7702,-57.1581 702.6846,-56.5317 705.5,-56 838.1765,-30.9439 877.5555,-48.4973 1013.0302,-19.9727"/>
<polygon fill="#191970" stroke="#191970" points="1013.9128,-23.363 1022.9531,-17.8381 1012.4406,-16.5195 1013.9128,-23.363"/>
</g>
<!-- Node18 -->
<g id="node19" class="node">
<title>Node18</title>
<polygon fill="#ffffff" stroke="#bfbfbf" points="371,-.5 371,-19.5 412,-19.5 412,-.5 371,-.5"/>
<text text-anchor="middle" x="391.5" y="-7.5" font-family="Helvetica,sans-Serif" font-size="10.00" fill="#000000">ctime</text>
</g>
<!-- Node10&#45;&gt;Node18 -->
<g id="edge19" class="edge">
<title>Node10&#45;&gt;Node18</title>
<path fill="none" stroke="#191970" d="M638.291,-61.992C593.5237,-55.5419 505.1663,-41.6009 422.1306,-20.1647"/>
<polygon fill="#191970" stroke="#191970" points="422.8565,-16.7368 412.2956,-17.5833 421.0793,-23.5074 422.8565,-16.7368"/>
</g>
<!-- Node19 -->
<g id="node20" class="node">
<title>Node19</title>
<polygon fill="#ffffff" stroke="#bfbfbf" points="430,-.5 430,-19.5 489,-19.5 489,-.5 430,-.5"/>
<text text-anchor="middle" x="459.5" y="-7.5" font-family="Helvetica,sans-Serif" font-size="10.00" fill="#000000">exception</text>
</g>
<!-- Node10&#45;&gt;Node19 -->
<g id="edge20" class="edge">
<title>Node10&#45;&gt;Node19</title>
<path fill="none" stroke="#191970" d="M638.1398,-58.0953C601.6981,-48.2841 539.4145,-31.5154 498.8601,-20.597"/>
<polygon fill="#191970" stroke="#191970" points="499.6129,-17.1751 489.0468,-17.9549 497.7931,-23.9344 499.6129,-17.1751"/>
</g>
<!-- Node20 -->
<g id="node21" class="node">
<title>Node20</title>
<polygon fill="#ffffff" stroke="#bfbfbf" points="507.5,-.5 507.5,-19.5 563.5,-19.5 563.5,-.5 507.5,-.5"/>
<text text-anchor="middle" x="535.5" y="-7.5" font-family="Helvetica,sans-Serif" font-size="10.00" fill="#000000">algorithm</text>
</g>
<!-- Node10&#45;&gt;Node20 -->
<g id="edge21" class="edge">
<title>Node10&#45;&gt;Node20</title>
<path fill="none" stroke="#191970" d="M644.8084,-56.3733C623.4289,-47.3032 591.1943,-33.6279 567.2638,-23.4755"/>
<polygon fill="#191970" stroke="#191970" points="568.4683,-20.1846 557.8955,-19.5011 565.7344,-26.6287 568.4683,-20.1846"/>
</g>
<!-- Node21 -->
<g id="node22" class="node">
<title>Node21</title>
<polygon fill="#ffffff" stroke="#bfbfbf" points="581.5,-.5 581.5,-19.5 627.5,-19.5 627.5,-.5 581.5,-.5"/>
<text text-anchor="middle" x="604.5" y="-7.5" font-family="Helvetica,sans-Serif" font-size="10.00" fill="#000000">stdio.h</text>
</g>
<!-- Node10&#45;&gt;Node21 -->
<g id="edge22" class="edge">
<title>Node10&#45;&gt;Node21</title>
<path fill="none" stroke="#191970" d="M656.5262,-56.2455C647.3118,-48.0549 633.9468,-36.1749 623.0703,-26.5069"/>
<polygon fill="#191970" stroke="#191970" points="625.1474,-23.6704 615.348,-19.6427 620.4968,-28.9023 625.1474,-23.6704"/>
</g>
</g>
</svg>
