<?xml version="1.0" encoding="UTF-8" standalone="no"?>
<!DOCTYPE svg PUBLIC "-//W3C//DTD SVG 1.1//EN"
 "http://www.w3.org/Graphics/SVG/1.1/DTD/svg11.dtd">
<!-- Generated by graphviz version 2.40.1 (20161225.0304)
 -->
<!-- Title: src/ConsolePrototype/menu.cpp Pages: 1 -->
<svg width="452pt" height="263pt"
 viewBox="0.00 0.00 452.00 263.00" xmlns="http://www.w3.org/2000/svg" xmlns:xlink="http://www.w3.org/1999/xlink">
<g id="graph0" class="graph" transform="scale(1 1) rotate(0) translate(4 259)">
<title>src/ConsolePrototype/menu.cpp</title>
<polygon fill="#ffffff" stroke="transparent" points="-4,4 -4,-259 448,-259 448,4 -4,4"/>
<!-- Node0 -->
<g id="node1" class="node">
<title>Node0</title>
<polygon fill="#bfbfbf" stroke="#000000" points="151,-224.5 151,-254.5 262,-254.5 262,-224.5 151,-224.5"/>
<text text-anchor="start" x="159" y="-242.5" font-family="Helvetica,sans-Serif" font-size="10.00" fill="#000000">src/ConsolePrototype</text>
<text text-anchor="middle" x="206.5" y="-231.5" font-family="Helvetica,sans-Serif" font-size="10.00" fill="#000000">/menu.cpp</text>
</g>
<!-- Node1 -->
<g id="node2" class="node">
<title>Node1</title>
<g id="a_node2"><a xlink:href="menu_8hpp.html" target="_top" xlink:title="menu.hpp">
<polygon fill="#ffffff" stroke="#000000" points="140,-168.5 140,-187.5 199,-187.5 199,-168.5 140,-168.5"/>
<text text-anchor="middle" x="169.5" y="-175.5" font-family="Helvetica,sans-Serif" font-size="10.00" fill="#000000">menu.hpp</text>
</a>
</g>
</g>
<!-- Node0&#45;&gt;Node1 -->
<g id="edge1" class="edge">
<title>Node0&#45;&gt;Node1</title>
<path fill="none" stroke="#191970" d="M197.3539,-224.2977C192.3249,-215.9388 186.0445,-205.4997 180.7209,-196.6509"/>
<polygon fill="#191970" stroke="#191970" points="183.5785,-194.6114 175.4242,-187.8469 177.5803,-198.2201 183.5785,-194.6114"/>
</g>
<!-- Node12 -->
<g id="node13" class="node">
<title>Node12</title>
<polygon fill="#ffffff" stroke="#bfbfbf" points="217.5,-168.5 217.5,-187.5 271.5,-187.5 271.5,-168.5 217.5,-168.5"/>
<text text-anchor="middle" x="244.5" y="-175.5" font-family="Helvetica,sans-Serif" font-size="10.00" fill="#000000">iostream</text>
</g>
<!-- Node0&#45;&gt;Node12 -->
<g id="edge14" class="edge">
<title>Node0&#45;&gt;Node12</title>
<path fill="none" stroke="#191970" d="M215.8933,-224.2977C221.1131,-215.8498 227.6457,-205.2773 233.15,-196.369"/>
<polygon fill="#191970" stroke="#191970" points="236.1368,-198.1938 238.4157,-187.8469 230.1818,-194.5143 236.1368,-198.1938"/>
</g>
<!-- Node2 -->
<g id="node3" class="node">
<title>Node2</title>
<g id="a_node3"><a xlink:href="_collection_8hpp.html" target="_top" xlink:title="../Collection/Collection.hpp">
<polygon fill="#ffffff" stroke="#000000" points="34.5,-112.5 34.5,-131.5 168.5,-131.5 168.5,-112.5 34.5,-112.5"/>
<text text-anchor="middle" x="101.5" y="-119.5" font-family="Helvetica,sans-Serif" font-size="10.00" fill="#000000">../Collection/Collection.hpp</text>
</a>
</g>
</g>
<!-- Node1&#45;&gt;Node2 -->
<g id="edge2" class="edge">
<title>Node1&#45;&gt;Node2</title>
<path fill="none" stroke="#191970" d="M157.6553,-168.2455C147.612,-159.9746 133.0005,-147.9416 121.1996,-138.2232"/>
<polygon fill="#191970" stroke="#191970" points="123.1533,-135.298 113.209,-131.6427 118.7033,-140.7015 123.1533,-135.298"/>
</g>
<!-- Node7 -->
<g id="node8" class="node">
<title>Node7</title>
<g id="a_node8"><a xlink:href="_image_8hpp.html" target="_top" xlink:title="../Image/Image.hpp">
<polygon fill="#ffffff" stroke="#000000" points="229,-112.5 229,-131.5 330,-131.5 330,-112.5 229,-112.5"/>
<text text-anchor="middle" x="279.5" y="-119.5" font-family="Helvetica,sans-Serif" font-size="10.00" fill="#000000">../Image/Image.hpp</text>
</a>
</g>
</g>
<!-- Node1&#45;&gt;Node7 -->
<g id="edge8" class="edge">
<title>Node1&#45;&gt;Node7</title>
<path fill="none" stroke="#191970" d="M188.6605,-168.2455C206.0111,-159.4125 231.7901,-146.2887 251.4583,-136.2758"/>
<polygon fill="#191970" stroke="#191970" points="253.2353,-139.2986 260.559,-131.6427 250.0595,-133.0605 253.2353,-139.2986"/>
</g>
<!-- Node3 -->
<g id="node4" class="node">
<title>Node3</title>
<g id="a_node4"><a xlink:href="_collection_iterator_8hpp.html" target="_top" xlink:title="CollectionIterator.hpp">
<polygon fill="#ffffff" stroke="#000000" points="46.5,-56.5 46.5,-75.5 156.5,-75.5 156.5,-56.5 46.5,-56.5"/>
<text text-anchor="middle" x="101.5" y="-63.5" font-family="Helvetica,sans-Serif" font-size="10.00" fill="#000000">CollectionIterator.hpp</text>
</a>
</g>
</g>
<!-- Node2&#45;&gt;Node3 -->
<g id="edge3" class="edge">
<title>Node2&#45;&gt;Node3</title>
<path fill="none" stroke="#191970" d="M101.5,-112.2455C101.5,-104.9382 101.5,-94.6944 101.5,-85.7046"/>
<polygon fill="#191970" stroke="#191970" points="105.0001,-85.6426 101.5,-75.6427 98.0001,-85.6427 105.0001,-85.6426"/>
</g>
<!-- Node5 -->
<g id="node6" class="node">
<title>Node5</title>
<polygon fill="#ffffff" stroke="#bfbfbf" points="0,-.5 0,-19.5 47,-19.5 47,-.5 0,-.5"/>
<text text-anchor="middle" x="23.5" y="-7.5" font-family="Helvetica,sans-Serif" font-size="10.00" fill="#000000">iterator</text>
</g>
<!-- Node2&#45;&gt;Node5 -->
<g id="edge7" class="edge">
<title>Node2&#45;&gt;Node5</title>
<path fill="none" stroke="#191970" d="M81.0475,-112.438C66.6506,-104.6444 48.1208,-92.2708 37.5,-76 28.5074,-62.2236 25.1681,-43.6971 23.9857,-29.7797"/>
<polygon fill="#191970" stroke="#191970" points="27.4799,-29.5766 23.4331,-19.7851 20.4906,-29.9631 27.4799,-29.5766"/>
</g>
<!-- Node4 -->
<g id="node5" class="node">
<title>Node4</title>
<polygon fill="#ffffff" stroke="#bfbfbf" points="70.5,-.5 70.5,-19.5 132.5,-19.5 132.5,-.5 70.5,-.5"/>
<text text-anchor="middle" x="101.5" y="-7.5" font-family="Helvetica,sans-Serif" font-size="10.00" fill="#000000">type_traits</text>
</g>
<!-- Node3&#45;&gt;Node4 -->
<g id="edge4" class="edge">
<title>Node3&#45;&gt;Node4</title>
<path fill="none" stroke="#191970" d="M101.5,-56.2455C101.5,-48.9382 101.5,-38.6944 101.5,-29.7046"/>
<polygon fill="#191970" stroke="#191970" points="105.0001,-29.6426 101.5,-19.6427 98.0001,-29.6427 105.0001,-29.6426"/>
</g>
<!-- Node3&#45;&gt;Node5 -->
<g id="edge5" class="edge">
<title>Node3&#45;&gt;Node5</title>
<path fill="none" stroke="#191970" d="M87.9134,-56.2455C76.1695,-47.814 58.9801,-35.4729 45.3118,-25.6598"/>
<polygon fill="#191970" stroke="#191970" points="47.0954,-22.6316 36.9309,-19.6427 43.0129,-28.3179 47.0954,-22.6316"/>
</g>
<!-- Node6 -->
<g id="node7" class="node">
<title>Node6</title>
<polygon fill="#ffffff" stroke="#bfbfbf" points="213.5,-.5 213.5,-19.5 265.5,-19.5 265.5,-.5 213.5,-.5"/>
<text text-anchor="middle" x="239.5" y="-7.5" font-family="Helvetica,sans-Serif" font-size="10.00" fill="#000000">memory</text>
</g>
<!-- Node3&#45;&gt;Node6 -->
<g id="edge6" class="edge">
<title>Node3&#45;&gt;Node6</title>
<path fill="none" stroke="#191970" d="M125.223,-56.3733C147.6737,-47.2629 181.5739,-33.5062 206.6255,-23.3404"/>
<polygon fill="#191970" stroke="#191970" points="208.1365,-26.5045 216.0865,-19.5011 205.5043,-20.0182 208.1365,-26.5045"/>
</g>
<!-- Node7&#45;&gt;Node6 -->
<g id="edge13" class="edge">
<title>Node7&#45;&gt;Node6</title>
<path fill="none" stroke="#191970" d="M287.9348,-112.2866C298.2756,-99.1295 313.2909,-75.0948 303.5,-56 296.567,-42.4789 283.6064,-32.0326 271.1519,-24.5377"/>
<polygon fill="#191970" stroke="#191970" points="272.7072,-21.3979 262.266,-19.6001 269.3072,-27.5168 272.7072,-21.3979"/>
</g>
<!-- Node8 -->
<g id="node9" class="node">
<title>Node8</title>
<g id="a_node9"><a xlink:href="_tag_list_8hpp.html" target="_top" xlink:title="TagList.hpp">
<polygon fill="#ffffff" stroke="#000000" points="350.5,-56.5 350.5,-75.5 418.5,-75.5 418.5,-56.5 350.5,-56.5"/>
<text text-anchor="middle" x="384.5" y="-63.5" font-family="Helvetica,sans-Serif" font-size="10.00" fill="#000000">TagList.hpp</text>
</a>
</g>
</g>
<!-- Node7&#45;&gt;Node8 -->
<g id="edge9" class="edge">
<title>Node7&#45;&gt;Node8</title>
<path fill="none" stroke="#191970" d="M297.7896,-112.2455C314.2762,-103.4527 338.7352,-90.4079 357.4765,-80.4125"/>
<polygon fill="#191970" stroke="#191970" points="359.2435,-83.4368 366.42,-75.6427 355.9494,-77.2604 359.2435,-83.4368"/>
</g>
<!-- Node11 -->
<g id="node12" class="node">
<title>Node11</title>
<polygon fill="#ffffff" stroke="#bfbfbf" points="174.5,-56.5 174.5,-75.5 294.5,-75.5 294.5,-56.5 174.5,-56.5"/>
<text text-anchor="middle" x="234.5" y="-63.5" font-family="Helvetica,sans-Serif" font-size="10.00" fill="#000000">experimental/filesystem</text>
</g>
<!-- Node7&#45;&gt;Node11 -->
<g id="edge12" class="edge">
<title>Node7&#45;&gt;Node11</title>
<path fill="none" stroke="#191970" d="M271.6616,-112.2455C265.338,-104.3761 256.2776,-93.101 248.6864,-83.6542"/>
<polygon fill="#191970" stroke="#191970" points="251.2408,-81.2454 242.2486,-75.6427 245.7842,-85.6302 251.2408,-81.2454"/>
</g>
<!-- Node9 -->
<g id="node10" class="node">
<title>Node9</title>
<polygon fill="#ffffff" stroke="#bfbfbf" points="403,-.5 403,-19.5 444,-19.5 444,-.5 403,-.5"/>
<text text-anchor="middle" x="423.5" y="-7.5" font-family="Helvetica,sans-Serif" font-size="10.00" fill="#000000">string</text>
</g>
<!-- Node8&#45;&gt;Node9 -->
<g id="edge10" class="edge">
<title>Node8&#45;&gt;Node9</title>
<path fill="none" stroke="#191970" d="M391.2933,-56.2455C396.7178,-48.4564 404.4661,-37.3308 411.0033,-27.9439"/>
<polygon fill="#191970" stroke="#191970" points="413.9417,-29.849 416.7846,-19.6427 408.1975,-25.8485 413.9417,-29.849"/>
</g>
<!-- Node10 -->
<g id="node11" class="node">
<title>Node10</title>
<polygon fill="#ffffff" stroke="#bfbfbf" points="306.5,-.5 306.5,-19.5 384.5,-19.5 384.5,-.5 306.5,-.5"/>
<text text-anchor="middle" x="345.5" y="-7.5" font-family="Helvetica,sans-Serif" font-size="10.00" fill="#000000">unordered_set</text>
</g>
<!-- Node8&#45;&gt;Node10 -->
<g id="edge11" class="edge">
<title>Node8&#45;&gt;Node10</title>
<path fill="none" stroke="#191970" d="M377.7067,-56.2455C372.2822,-48.4564 364.5339,-37.3308 357.9967,-27.9439"/>
<polygon fill="#191970" stroke="#191970" points="360.8025,-25.8485 352.2154,-19.6427 355.0583,-29.849 360.8025,-25.8485"/>
</g>
</g>
</svg>
