<?xml version="1.0" encoding="UTF-8" standalone="no"?>
<!DOCTYPE svg PUBLIC "-//W3C//DTD SVG 1.1//EN"
 "http://www.w3.org/Graphics/SVG/1.1/DTD/svg11.dtd">
<!-- Generated by graphviz version 2.40.1 (20161225.0304)
 -->
<!-- Title: choix Pages: 1 -->
<svg width="229pt" height="66pt"
 viewBox="0.00 0.00 229.00 66.00" xmlns="http://www.w3.org/2000/svg" xmlns:xlink="http://www.w3.org/1999/xlink">
<g id="graph0" class="graph" transform="scale(1 1) rotate(0) translate(4 62)">
<title>choix</title>
<polygon fill="#ffffff" stroke="transparent" points="-4,4 -4,-62 225,-62 225,4 -4,4"/>
<!-- Node6 -->
<g id="node1" class="node">
<title>Node6</title>
<polygon fill="#bfbfbf" stroke="#000000" points="0,-19.5 0,-38.5 40,-38.5 40,-19.5 0,-19.5"/>
<text text-anchor="middle" x="20" y="-26.5" font-family="Helvetica,sans-Serif" font-size="10.00" fill="#000000">choix</text>
</g>
<!-- Node7 -->
<g id="node2" class="node">
<title>Node7</title>
<g id="a_node2"><a xlink:href="menu_8hpp.html#a0cebd2716215ca7253af746486a7e1c0" target="_top" xlink:title="choix_image">
<polygon fill="#ffffff" stroke="#000000" points="76,-38.5 76,-57.5 147,-57.5 147,-38.5 76,-38.5"/>
<text text-anchor="middle" x="111.5" y="-45.5" font-family="Helvetica,sans-Serif" font-size="10.00" fill="#000000">choix_image</text>
</a>
</g>
</g>
<!-- Node6&#45;&gt;Node7 -->
<g id="edge1" class="edge">
<title>Node6&#45;&gt;Node7</title>
<path fill="none" stroke="#191970" d="M50.1815,-35.2672C58.3697,-36.9675 67.3133,-38.8246 75.7757,-40.5818"/>
<polygon fill="#191970" stroke="#191970" points="50.8096,-31.823 40.3068,-33.2167 49.3863,-38.6768 50.8096,-31.823"/>
</g>
<!-- Node9 -->
<g id="node4" class="node">
<title>Node9</title>
<g id="a_node4"><a xlink:href="menu_8hpp.html#a3cb5d03d7c8003abc6637a91f7a1cceb" target="_top" xlink:title="choix_tag">
<polygon fill="#ffffff" stroke="#000000" points="82,-.5 82,-19.5 141,-19.5 141,-.5 82,-.5"/>
<text text-anchor="middle" x="111.5" y="-7.5" font-family="Helvetica,sans-Serif" font-size="10.00" fill="#000000">choix_tag</text>
</a>
</g>
</g>
<!-- Node6&#45;&gt;Node9 -->
<g id="edge3" class="edge">
<title>Node6&#45;&gt;Node9</title>
<path fill="none" stroke="#191970" d="M50.3635,-22.695C60.5046,-20.5892 71.7872,-18.2464 81.8716,-16.1524"/>
<polygon fill="#191970" stroke="#191970" points="49.3863,-19.3232 40.3068,-24.7833 50.8096,-26.177 49.3863,-19.3232"/>
</g>
<!-- Node8 -->
<g id="node3" class="node">
<title>Node8</title>
<g id="a_node3"><a xlink:href="main_8cpp.html#ae66f6b31b5ad750f1fe042a706a4e3d4" target="_top" xlink:title="main">
<polygon fill="#ffffff" stroke="#000000" points="183,-19.5 183,-38.5 221,-38.5 221,-19.5 183,-19.5"/>
<text text-anchor="middle" x="202" y="-26.5" font-family="Helvetica,sans-Serif" font-size="10.00" fill="#000000">main</text>
</a>
</g>
</g>
<!-- Node7&#45;&gt;Node8 -->
<g id="edge2" class="edge">
<title>Node7&#45;&gt;Node8</title>
<path fill="none" stroke="#191970" d="M156.8545,-38.4781C165.9913,-36.5598 175.1226,-34.6428 182.758,-33.0398"/>
<polygon fill="#191970" stroke="#191970" points="156.0757,-35.0652 147.0082,-40.5452 157.5141,-41.9158 156.0757,-35.0652"/>
</g>
<!-- Node9&#45;&gt;Node8 -->
<g id="edge4" class="edge">
<title>Node9&#45;&gt;Node8</title>
<path fill="none" stroke="#191970" d="M151.0571,-18.3048C162.0873,-20.6205 173.576,-23.0325 182.8453,-24.9786"/>
<polygon fill="#191970" stroke="#191970" points="151.6389,-14.8507 141.1331,-16.2213 150.2006,-21.7014 151.6389,-14.8507"/>
</g>
</g>
</svg>
