<?xml version="1.0" encoding="UTF-8" standalone="no"?>
<!DOCTYPE svg PUBLIC "-//W3C//DTD SVG 1.1//EN"
 "http://www.w3.org/Graphics/SVG/1.1/DTD/svg11.dtd">
<!-- Generated by graphviz version 2.40.1 (20161225.0304)
 -->
<!-- Title: choix_image Pages: 1 -->
<svg width="445pt" height="39pt"
 viewBox="0.00 0.00 445.00 39.00" xmlns="http://www.w3.org/2000/svg" xmlns:xlink="http://www.w3.org/1999/xlink">
<g id="graph0" class="graph" transform="scale(1 1) rotate(0) translate(4 35)">
<title>choix_image</title>
<polygon fill="#ffffff" stroke="transparent" points="-4,4 -4,-35 441,-35 441,4 -4,4"/>
<!-- Node10 -->
<g id="node1" class="node">
<title>Node10</title>
<polygon fill="#bfbfbf" stroke="#000000" points="0,-6 0,-25 71,-25 71,-6 0,-6"/>
<text text-anchor="middle" x="35.5" y="-13" font-family="Helvetica,sans-Serif" font-size="10.00" fill="#000000">choix_image</text>
</g>
<!-- Node11 -->
<g id="node2" class="node">
<title>Node11</title>
<g id="a_node2"><a xlink:href="menu_8cpp.html#ab8e0d5fe33cf41a4201057a6954e5368" target="_top" xlink:title="choix">
<polygon fill="#ffffff" stroke="#000000" points="107,-6 107,-25 147,-25 147,-6 107,-6"/>
<text text-anchor="middle" x="127" y="-13" font-family="Helvetica,sans-Serif" font-size="10.00" fill="#000000">choix</text>
</a>
</g>
</g>
<!-- Node10&#45;&gt;Node11 -->
<g id="edge1" class="edge">
<title>Node10&#45;&gt;Node11</title>
<path fill="none" stroke="#191970" d="M71.1383,-15.5C79.5817,-15.5 88.5088,-15.5 96.6897,-15.5"/>
<polygon fill="#191970" stroke="#191970" points="96.9111,-19.0001 106.9111,-15.5 96.9111,-12.0001 96.9111,-19.0001"/>
</g>
<!-- Node12 -->
<g id="node3" class="node">
<title>Node12</title>
<g id="a_node3"><a xlink:href="namespacecimg__library__suffixed_1_1cimg.html#aae5df5731fe5a367cec402071108c11c" target="_top" xlink:title="Return the maximum between three values. ">
<polygon fill="#ffffff" stroke="#000000" points="183,-.5 183,-30.5 292,-30.5 292,-.5 183,-.5"/>
<text text-anchor="start" x="191" y="-18.5" font-family="Helvetica,sans-Serif" font-size="10.00" fill="#000000">cimg_library_suffixed</text>
<text text-anchor="middle" x="237.5" y="-7.5" font-family="Helvetica,sans-Serif" font-size="10.00" fill="#000000">::cimg::max</text>
</a>
</g>
</g>
<!-- Node11&#45;&gt;Node12 -->
<g id="edge2" class="edge">
<title>Node11&#45;&gt;Node12</title>
<path fill="none" stroke="#191970" d="M147.0107,-15.5C154.4098,-15.5 163.256,-15.5 172.4774,-15.5"/>
<polygon fill="#191970" stroke="#191970" points="172.5801,-19.0001 182.5801,-15.5 172.58,-12.0001 172.5801,-19.0001"/>
</g>
<!-- Node13 -->
<g id="node4" class="node">
<title>Node13</title>
<g id="a_node4"><a xlink:href="namespacecimg__library__suffixed_1_1cimg.html#a4b4cabc621d732787bca13016ea8026a" target="_top" xlink:title="Return the maximum between four values. ">
<polygon fill="#ffffff" stroke="#000000" points="328,-.5 328,-30.5 437,-30.5 437,-.5 328,-.5"/>
<text text-anchor="start" x="336" y="-18.5" font-family="Helvetica,sans-Serif" font-size="10.00" fill="#000000">cimg_library_suffixed</text>
<text text-anchor="middle" x="382.5" y="-7.5" font-family="Helvetica,sans-Serif" font-size="10.00" fill="#000000">::cimg::max</text>
</a>
</g>
</g>
<!-- Node12&#45;&gt;Node13 -->
<g id="edge3" class="edge">
<title>Node12&#45;&gt;Node13</title>
<path fill="none" stroke="#191970" d="M292.3183,-15.5C300.5286,-15.5 309.0611,-15.5 317.4586,-15.5"/>
<polygon fill="#191970" stroke="#191970" points="317.6042,-19.0001 327.6042,-15.5 317.6042,-12.0001 317.6042,-19.0001"/>
</g>
</g>
</svg>
