<?xml version="1.0" encoding="UTF-8" standalone="no"?>
<!DOCTYPE svg PUBLIC "-//W3C//DTD SVG 1.1//EN"
 "http://www.w3.org/Graphics/SVG/1.1/DTD/svg11.dtd">
<!-- Generated by graphviz version 2.40.1 (20161225.0304)
 -->
<!-- Title: cimg_library_suffixed::cimg::ffmpeg_path Pages: 1 -->
<svg width="266pt" height="160pt"
 viewBox="0.00 0.00 266.00 159.50" xmlns="http://www.w3.org/2000/svg" xmlns:xlink="http://www.w3.org/1999/xlink">
<g id="graph0" class="graph" transform="scale(1 1) rotate(0) translate(4 155.5)">
<title>cimg_library_suffixed::cimg::ffmpeg_path</title>
<polygon fill="#ffffff" stroke="transparent" points="-4,4 -4,-155.5 262,-155.5 262,4 -4,4"/>
<!-- Node1395 -->
<g id="node1" class="node">
<title>Node1395</title>
<polygon fill="#bfbfbf" stroke="#000000" points="0,-66 0,-96 109,-96 109,-66 0,-66"/>
<text text-anchor="start" x="8" y="-84" font-family="Helvetica,sans-Serif" font-size="10.00" fill="#000000">cimg_library_suffixed</text>
<text text-anchor="middle" x="54.5" y="-73" font-family="Helvetica,sans-Serif" font-size="10.00" fill="#000000">::cimg::ffmpeg_path</text>
</g>
<!-- Node1396 -->
<g id="node2" class="node">
<title>Node1396</title>
<g id="a_node2"><a xlink:href="namespacecimg__library__suffixed_1_1cimg.html#aac739bf544269324a04504ebe92b93e9" target="_top" xlink:title="Get current local time (single&#45;attribute version). ">
<polygon fill="#ffffff" stroke="#000000" points="147,-121 147,-151 256,-151 256,-121 147,-121"/>
<text text-anchor="start" x="155" y="-139" font-family="Helvetica,sans-Serif" font-size="10.00" fill="#000000">cimg_library_suffixed</text>
<text text-anchor="middle" x="201.5" y="-128" font-family="Helvetica,sans-Serif" font-size="10.00" fill="#000000">::cimg::date</text>
</a>
</g>
</g>
<!-- Node1395&#45;&gt;Node1396 -->
<g id="edge1" class="edge">
<title>Node1395&#45;&gt;Node1396</title>
<path fill="none" stroke="#191970" d="M104.1726,-99.585C122.8028,-106.5555 143.7231,-114.3828 161.3802,-120.9892"/>
<polygon fill="#191970" stroke="#191970" points="105.2608,-96.2552 94.6684,-96.029 102.8078,-102.8114 105.2608,-96.2552"/>
</g>
<!-- Node1397 -->
<g id="node3" class="node">
<title>Node1397</title>
<g id="a_node3"><a xlink:href="structcimg__library__suffixed_1_1_c_img_list.html#aa1c97a6c05ba746d02440eec0ad2e602" target="_top" xlink:title="Load an image from a video file using the external tool &#39;ffmpeg&#39;. ">
<polygon fill="#ffffff" stroke="#000000" points="146,-60.5 146,-101.5 257,-101.5 257,-60.5 146,-60.5"/>
<text text-anchor="start" x="154" y="-89.5" font-family="Helvetica,sans-Serif" font-size="10.00" fill="#000000">cimg_library_suffixed</text>
<text text-anchor="start" x="154" y="-78.5" font-family="Helvetica,sans-Serif" font-size="10.00" fill="#000000">::CImgList&lt; charT &gt;::</text>
<text text-anchor="middle" x="201.5" y="-67.5" font-family="Helvetica,sans-Serif" font-size="10.00" fill="#000000">load_ffmpeg_external</text>
</a>
</g>
</g>
<!-- Node1395&#45;&gt;Node1397 -->
<g id="edge2" class="edge">
<title>Node1395&#45;&gt;Node1397</title>
<path fill="none" stroke="#191970" d="M119.43,-81C128.2031,-81 137.1414,-81 145.7357,-81"/>
<polygon fill="#191970" stroke="#191970" points="119.2374,-77.5001 109.2374,-81 119.2373,-84.5001 119.2374,-77.5001"/>
</g>
<!-- Node1398 -->
<g id="node4" class="node">
<title>Node1398</title>
<g id="a_node4"><a xlink:href="structcimg__library__suffixed_1_1_c_img_list.html#af09a45345581747984f4df0607418f2c" target="_top" xlink:title="Save image sequence, using the external tool &#39;ffmpeg&#39;. ">
<polygon fill="#ffffff" stroke="#000000" points="145,-.5 145,-41.5 258,-41.5 258,-.5 145,-.5"/>
<text text-anchor="start" x="153" y="-29.5" font-family="Helvetica,sans-Serif" font-size="10.00" fill="#000000">cimg_library_suffixed</text>
<text text-anchor="start" x="153" y="-18.5" font-family="Helvetica,sans-Serif" font-size="10.00" fill="#000000">::CImgList&lt; charT &gt;::</text>
<text text-anchor="middle" x="201.5" y="-7.5" font-family="Helvetica,sans-Serif" font-size="10.00" fill="#000000">save_ffmpeg_external</text>
</a>
</g>
</g>
<!-- Node1395&#45;&gt;Node1398 -->
<g id="edge3" class="edge">
<title>Node1395&#45;&gt;Node1398</title>
<path fill="none" stroke="#191970" d="M101.2062,-61.9362C117.0969,-55.4503 134.9235,-48.1741 151.0909,-41.5751"/>
<polygon fill="#191970" stroke="#191970" points="99.5301,-58.84 91.5943,-65.8595 102.1755,-65.3209 99.5301,-58.84"/>
</g>
</g>
</svg>
