<?xml version="1.0" encoding="UTF-8" standalone="no"?>
<!DOCTYPE svg PUBLIC "-//W3C//DTD SVG 1.1//EN"
 "http://www.w3.org/Graphics/SVG/1.1/DTD/svg11.dtd">
<!-- Generated by graphviz version 2.40.1 (20161225.0304)
 -->
<!-- Title: cimg_library_suffixed::cimg::_wait Pages: 1 -->
<svg width="596pt" height="467pt"
 viewBox="0.00 0.00 596.00 467.00" xmlns="http://www.w3.org/2000/svg" xmlns:xlink="http://www.w3.org/1999/xlink">
<g id="graph0" class="graph" transform="scale(1 1) rotate(0) translate(4 463)">
<title>cimg_library_suffixed::cimg::_wait</title>
<polygon fill="#ffffff" stroke="transparent" points="-4,4 -4,-463 592,-463 592,4 -4,4"/>
<!-- Node678 -->
<g id="node1" class="node">
<title>Node678</title>
<polygon fill="#bfbfbf" stroke="#000000" points="0,-144.5 0,-174.5 109,-174.5 109,-144.5 0,-144.5"/>
<text text-anchor="start" x="8" y="-162.5" font-family="Helvetica,sans-Serif" font-size="10.00" fill="#000000">cimg_library_suffixed</text>
<text text-anchor="middle" x="54.5" y="-151.5" font-family="Helvetica,sans-Serif" font-size="10.00" fill="#000000">::cimg::_wait</text>
</g>
<!-- Node679 -->
<g id="node2" class="node">
<title>Node679</title>
<g id="a_node2"><a xlink:href="namespacecimg__library__suffixed_1_1cimg.html#a8431f8cf0989f40df3b6ac7d9dc90abd" target="_top" xlink:title="Wait for a given number of milliseconds since the last call to wait(). ">
<polygon fill="#ffffff" stroke="#000000" points="145,-169.5 145,-199.5 254,-199.5 254,-169.5 145,-169.5"/>
<text text-anchor="start" x="153" y="-187.5" font-family="Helvetica,sans-Serif" font-size="10.00" fill="#000000">cimg_library_suffixed</text>
<text text-anchor="middle" x="199.5" y="-176.5" font-family="Helvetica,sans-Serif" font-size="10.00" fill="#000000">::cimg::wait</text>
</a>
</g>
</g>
<!-- Node678&#45;&gt;Node679 -->
<g id="edge1" class="edge">
<title>Node678&#45;&gt;Node679</title>
<path fill="none" stroke="#191970" d="M119.1853,-170.6526C127.6712,-172.1157 136.3016,-173.6037 144.6042,-175.0352"/>
<polygon fill="#191970" stroke="#191970" points="119.7676,-167.2015 109.3183,-168.9514 118.5782,-174.0997 119.7676,-167.2015"/>
</g>
<!-- Node691 -->
<g id="node14" class="node">
<title>Node691</title>
<g id="a_node14"><a xlink:href="structcimg__library__suffixed_1_1_c_img_display.html#a6a6bf6d5a43424d8e9728563dc79aa3f" target="_top" xlink:title="Wait for a given number of milliseconds since the last call to wait(). ">
<polygon fill="#ffffff" stroke="#000000" points="145,-120.5 145,-150.5 254,-150.5 254,-120.5 145,-120.5"/>
<text text-anchor="start" x="153" y="-138.5" font-family="Helvetica,sans-Serif" font-size="10.00" fill="#000000">cimg_library_suffixed</text>
<text text-anchor="middle" x="199.5" y="-127.5" font-family="Helvetica,sans-Serif" font-size="10.00" fill="#000000">::CImgDisplay::wait</text>
</a>
</g>
</g>
<!-- Node678&#45;&gt;Node691 -->
<g id="edge13" class="edge">
<title>Node678&#45;&gt;Node691</title>
<path fill="none" stroke="#191970" d="M119.1853,-148.7935C127.6712,-147.3889 136.3016,-145.9604 144.6042,-144.5862"/>
<polygon fill="#191970" stroke="#191970" points="118.6125,-145.3406 109.3183,-150.4266 119.7556,-152.2466 118.6125,-145.3406"/>
</g>
<!-- Node680 -->
<g id="node3" class="node">
<title>Node680</title>
<g id="a_node3"><a xlink:href="structcimg__library__suffixed_1_1_c_img_display.html#a6ba54ea916f502d782ccb787ce02ccbd" target="_top" xlink:title="Wait for any user event occuring on the current display. ">
<polygon fill="#ffffff" stroke="#000000" points="298,-263.5 298,-293.5 407,-293.5 407,-263.5 298,-263.5"/>
<text text-anchor="start" x="306" y="-281.5" font-family="Helvetica,sans-Serif" font-size="10.00" fill="#000000">cimg_library_suffixed</text>
<text text-anchor="middle" x="352.5" y="-270.5" font-family="Helvetica,sans-Serif" font-size="10.00" fill="#000000">::CImgDisplay::wait</text>
</a>
</g>
</g>
<!-- Node679&#45;&gt;Node680 -->
<g id="edge2" class="edge">
<title>Node679&#45;&gt;Node680</title>
<path fill="none" stroke="#191970" d="M232.9354,-205.042C261.6036,-222.6552 302.2392,-247.6208 327.9789,-263.4348"/>
<polygon fill="#191970" stroke="#191970" points="234.4347,-201.8554 224.0821,-199.6027 230.7703,-207.8197 234.4347,-201.8554"/>
</g>
<!-- Node687 -->
<g id="node10" class="node">
<title>Node687</title>
<g id="a_node10"><a xlink:href="structcimg__library__suffixed_1_1_c_img_display.html#a914ee0515249db301dc66275861a6b3e" target="_top" xlink:title="Take a snapshot of the associated window content. ">
<polygon fill="#ffffff" stroke="#000000" points="290,-74.5 290,-104.5 415,-104.5 415,-74.5 290,-74.5"/>
<text text-anchor="start" x="298" y="-92.5" font-family="Helvetica,sans-Serif" font-size="10.00" fill="#000000">cimg_library_suffixed</text>
<text text-anchor="middle" x="352.5" y="-81.5" font-family="Helvetica,sans-Serif" font-size="10.00" fill="#000000">::CImgDisplay::snapshot</text>
</a>
</g>
</g>
<!-- Node679&#45;&gt;Node687 -->
<g id="edge9" class="edge">
<title>Node679&#45;&gt;Node687</title>
<path fill="none" stroke="#191970" d="M245.7654,-164.9464C248.5832,-163.5035 251.3486,-162.017 254,-160.5 283.4583,-143.6456 314.8226,-119.9087 334.0441,-104.6126"/>
<polygon fill="#191970" stroke="#191970" points="244.1141,-161.8577 236.6633,-169.3901 247.1851,-168.1481 244.1141,-161.8577"/>
</g>
<!-- Node681 -->
<g id="node4" class="node">
<title>Node681</title>
<g id="a_node4"><a xlink:href="structcimg__library__suffixed_1_1_c_img.html#adf9d80c60e82b079056c31cb0fe61faf" target="_top" xlink:title="cimg_library_suffixed\l::CImg\&lt; charT \&gt;::_display">
<polygon fill="#ffffff" stroke="#000000" points="454,-428.5 454,-458.5 585,-458.5 585,-428.5 454,-428.5"/>
<text text-anchor="start" x="462" y="-446.5" font-family="Helvetica,sans-Serif" font-size="10.00" fill="#000000">cimg_library_suffixed</text>
<text text-anchor="middle" x="519.5" y="-435.5" font-family="Helvetica,sans-Serif" font-size="10.00" fill="#000000">::CImg&lt; charT &gt;::_display</text>
</a>
</g>
</g>
<!-- Node680&#45;&gt;Node681 -->
<g id="edge3" class="edge">
<title>Node680&#45;&gt;Node681</title>
<path fill="none" stroke="#191970" d="M363.9112,-303.1111C379.4655,-334.1349 410.1307,-387.1846 451,-418.5 456.0244,-422.3499 461.6993,-425.6496 467.5788,-428.4672"/>
<polygon fill="#191970" stroke="#191970" points="366.9309,-301.3184 359.3983,-293.8679 360.6406,-304.3897 366.9309,-301.3184"/>
</g>
<!-- Node682 -->
<g id="node5" class="node">
<title>Node682</title>
<g id="a_node5"><a xlink:href="structcimg__library__suffixed_1_1_c_img.html#a8b40db5a9818c3f961a90840b271de6c" target="_top" xlink:title="cimg_library_suffixed\l::CImg\&lt; charT \&gt;::_display\l_object3d">
<polygon fill="#ffffff" stroke="#000000" points="454,-368 454,-409 585,-409 585,-368 454,-368"/>
<text text-anchor="start" x="462" y="-397" font-family="Helvetica,sans-Serif" font-size="10.00" fill="#000000">cimg_library_suffixed</text>
<text text-anchor="start" x="462" y="-386" font-family="Helvetica,sans-Serif" font-size="10.00" fill="#000000">::CImg&lt; charT &gt;::_display</text>
<text text-anchor="middle" x="519.5" y="-375" font-family="Helvetica,sans-Serif" font-size="10.00" fill="#000000">_object3d</text>
</a>
</g>
</g>
<!-- Node680&#45;&gt;Node682 -->
<g id="edge4" class="edge">
<title>Node680&#45;&gt;Node682</title>
<path fill="none" stroke="#191970" d="M375.8259,-300.4913C394.9748,-317.7672 423.3484,-341.6432 451,-358.5 456.4319,-361.8113 462.2939,-364.9542 468.2225,-367.8716"/>
<polygon fill="#191970" stroke="#191970" points="377.9551,-297.6956 368.213,-293.5311 373.2317,-302.8618 377.9551,-297.6956"/>
</g>
<!-- Node683 -->
<g id="node6" class="node">
<title>Node683</title>
<g id="a_node6"><a xlink:href="structcimg__library__suffixed_1_1_c_img.html#ad9b7141242d0b6e861a8014112ddb5b5" target="_top" xlink:title="cimg_library_suffixed\l::CImg\&lt; charT \&gt;::_select">
<polygon fill="#ffffff" stroke="#000000" points="456,-318.5 456,-348.5 583,-348.5 583,-318.5 456,-318.5"/>
<text text-anchor="start" x="464" y="-336.5" font-family="Helvetica,sans-Serif" font-size="10.00" fill="#000000">cimg_library_suffixed</text>
<text text-anchor="middle" x="519.5" y="-325.5" font-family="Helvetica,sans-Serif" font-size="10.00" fill="#000000">::CImg&lt; charT &gt;::_select</text>
</a>
</g>
</g>
<!-- Node680&#45;&gt;Node683 -->
<g id="edge5" class="edge">
<title>Node680&#45;&gt;Node683</title>
<path fill="none" stroke="#191970" d="M407.7684,-296.7022C429.2223,-303.7678 453.4943,-311.7616 473.9217,-318.4892"/>
<polygon fill="#191970" stroke="#191970" points="408.7265,-293.3328 398.1335,-293.529 406.5368,-299.9815 408.7265,-293.3328"/>
</g>
<!-- Node684 -->
<g id="node7" class="node">
<title>Node684</title>
<g id="a_node7"><a xlink:href="structcimg__library__suffixed_1_1_c_img_list.html#af8a6b01f20b2d459e5abe6b99836ea9a" target="_top" xlink:title="cimg_library_suffixed\l::CImgList\&lt; charT \&gt;::\l_select">
<polygon fill="#ffffff" stroke="#000000" points="464,-258 464,-299 575,-299 575,-258 464,-258"/>
<text text-anchor="start" x="472" y="-287" font-family="Helvetica,sans-Serif" font-size="10.00" fill="#000000">cimg_library_suffixed</text>
<text text-anchor="start" x="472" y="-276" font-family="Helvetica,sans-Serif" font-size="10.00" fill="#000000">::CImgList&lt; charT &gt;::</text>
<text text-anchor="middle" x="519.5" y="-265" font-family="Helvetica,sans-Serif" font-size="10.00" fill="#000000">_select</text>
</a>
</g>
</g>
<!-- Node680&#45;&gt;Node684 -->
<g id="edge6" class="edge">
<title>Node680&#45;&gt;Node684</title>
<path fill="none" stroke="#191970" d="M417.5941,-278.5C432.8721,-278.5 449.0152,-278.5 463.837,-278.5"/>
<polygon fill="#191970" stroke="#191970" points="417.1821,-275.0001 407.182,-278.5 417.182,-282.0001 417.1821,-275.0001"/>
</g>
<!-- Node685 -->
<g id="node8" class="node">
<title>Node685</title>
<g id="a_node8"><a xlink:href="namespacecimg__library__suffixed_1_1cimg.html#a11aed0e6b30d75bf50946ee78d1aed94" target="_top" xlink:title="Display a simple dialog box, and wait for the user&#39;s response. ">
<polygon fill="#ffffff" stroke="#000000" points="465,-208.5 465,-238.5 574,-238.5 574,-208.5 465,-208.5"/>
<text text-anchor="start" x="473" y="-226.5" font-family="Helvetica,sans-Serif" font-size="10.00" fill="#000000">cimg_library_suffixed</text>
<text text-anchor="middle" x="519.5" y="-215.5" font-family="Helvetica,sans-Serif" font-size="10.00" fill="#000000">::cimg::dialog</text>
</a>
</g>
</g>
<!-- Node680&#45;&gt;Node685 -->
<g id="edge7" class="edge">
<title>Node680&#45;&gt;Node685</title>
<path fill="none" stroke="#191970" d="M407.7684,-260.2978C429.2223,-253.2322 453.4943,-245.2384 473.9217,-238.5108"/>
<polygon fill="#191970" stroke="#191970" points="406.5368,-257.0185 398.1335,-263.471 408.7265,-263.6672 406.5368,-257.0185"/>
</g>
<!-- Node686 -->
<g id="node9" class="node">
<title>Node686</title>
<g id="a_node9"><a xlink:href="structcimg__library__suffixed_1_1_c_img.html#a689f47424dc7c548ebfe53e431409199" target="_top" xlink:title="Select sub&#45;graph in a graph. ">
<polygon fill="#ffffff" stroke="#000000" points="465,-148 465,-189 574,-189 574,-148 465,-148"/>
<text text-anchor="start" x="473" y="-177" font-family="Helvetica,sans-Serif" font-size="10.00" fill="#000000">cimg_library_suffixed</text>
<text text-anchor="start" x="473" y="-166" font-family="Helvetica,sans-Serif" font-size="10.00" fill="#000000">::CImg&lt; charT &gt;::get</text>
<text text-anchor="middle" x="519.5" y="-155" font-family="Helvetica,sans-Serif" font-size="10.00" fill="#000000">_select_graph</text>
</a>
</g>
</g>
<!-- Node680&#45;&gt;Node686 -->
<g id="edge8" class="edge">
<title>Node680&#45;&gt;Node686</title>
<path fill="none" stroke="#191970" d="M376.2719,-256.5938C395.4727,-239.6226 423.6995,-216.256 451,-199.5 457.0076,-195.8128 463.5286,-192.3018 470.0791,-189.0567"/>
<polygon fill="#191970" stroke="#191970" points="373.7422,-254.1608 368.6246,-263.4377 378.4104,-259.3769 373.7422,-254.1608"/>
</g>
<!-- Node688 -->
<g id="node11" class="node">
<title>Node688</title>
<g id="a_node11"><a xlink:href="structcimg__library__suffixed_1_1_c_img.html#a668fe887682e7cbb469409842bb98cd2" target="_top" xlink:title="Construct image from a display window . ">
<polygon fill="#ffffff" stroke="#000000" points="457.5,-98.5 457.5,-128.5 581.5,-128.5 581.5,-98.5 457.5,-98.5"/>
<text text-anchor="start" x="465.5" y="-116.5" font-family="Helvetica,sans-Serif" font-size="10.00" fill="#000000">cimg_library_suffixed</text>
<text text-anchor="middle" x="519.5" y="-105.5" font-family="Helvetica,sans-Serif" font-size="10.00" fill="#000000">::CImg&lt; charT &gt;::assign</text>
</a>
</g>
</g>
<!-- Node687&#45;&gt;Node688 -->
<g id="edge10" class="edge">
<title>Node687&#45;&gt;Node688</title>
<path fill="none" stroke="#191970" d="M425.2986,-99.9621C435.9736,-101.4962 446.8858,-103.0644 457.3219,-104.5642"/>
<polygon fill="#191970" stroke="#191970" points="425.556,-96.4632 415.1598,-98.505 424.5602,-103.392 425.556,-96.4632"/>
</g>
<!-- Node689 -->
<g id="node12" class="node">
<title>Node689</title>
<g id="a_node12"><a xlink:href="structcimg__library__suffixed_1_1_c_img.html#a015159d8cee61c2f2316c3e128470a71" target="_top" xlink:title="Construct image from a display window. ">
<polygon fill="#ffffff" stroke="#000000" points="460,-49.5 460,-79.5 579,-79.5 579,-49.5 460,-49.5"/>
<text text-anchor="start" x="468" y="-67.5" font-family="Helvetica,sans-Serif" font-size="10.00" fill="#000000">cimg_library_suffixed</text>
<text text-anchor="middle" x="519.5" y="-56.5" font-family="Helvetica,sans-Serif" font-size="10.00" fill="#000000">::CImg&lt; charT &gt;::CImg</text>
</a>
</g>
</g>
<!-- Node687&#45;&gt;Node689 -->
<g id="edge11" class="edge">
<title>Node687&#45;&gt;Node689</title>
<path fill="none" stroke="#191970" d="M425.2166,-78.6143C436.7685,-76.885 448.6004,-75.1137 459.8079,-73.4359"/>
<polygon fill="#191970" stroke="#191970" points="424.5314,-75.1778 415.1598,-80.1198 425.5678,-82.1006 424.5314,-75.1778"/>
</g>
<!-- Node690 -->
<g id="node13" class="node">
<title>Node690</title>
<g id="a_node13"><a xlink:href="structcimg__library__suffixed_1_1_c_img.html#a75e18966d8e02a9cee85642038e30a08" target="_top" xlink:title="Copy the content of a display window to the current image instance. ">
<polygon fill="#ffffff" stroke="#000000" points="451,-.5 451,-30.5 588,-30.5 588,-.5 451,-.5"/>
<text text-anchor="start" x="459" y="-18.5" font-family="Helvetica,sans-Serif" font-size="10.00" fill="#000000">cimg_library_suffixed</text>
<text text-anchor="middle" x="519.5" y="-7.5" font-family="Helvetica,sans-Serif" font-size="10.00" fill="#000000">::CImg&lt; charT &gt;::operator=</text>
</a>
</g>
</g>
<!-- Node687&#45;&gt;Node690 -->
<g id="edge12" class="edge">
<title>Node687&#45;&gt;Node690</title>
<path fill="none" stroke="#191970" d="M388.548,-69.7503C406.9573,-60.0387 429.8749,-48.5153 451,-39.5 458.3016,-36.384 466.158,-33.3481 473.8539,-30.5417"/>
<polygon fill="#191970" stroke="#191970" points="386.8156,-66.7075 379.6337,-74.4967 390.1055,-72.8863 386.8156,-66.7075"/>
</g>
</g>
</svg>
