<?xml version="1.0" encoding="UTF-8" standalone="no"?>
<!DOCTYPE svg PUBLIC "-//W3C//DTD SVG 1.1//EN"
 "http://www.w3.org/Graphics/SVG/1.1/DTD/svg11.dtd">
<!-- Generated by graphviz version 2.40.1 (20161225.0304)
 -->
<!-- Title: cimg_library_suffixed::cimg::_fibonacci Pages: 1 -->
<svg width="436pt" height="110pt"
 viewBox="0.00 0.00 436.00 110.00" xmlns="http://www.w3.org/2000/svg" xmlns:xlink="http://www.w3.org/1999/xlink">
<g id="graph0" class="graph" transform="scale(1 1) rotate(0) translate(4 106)">
<title>cimg_library_suffixed::cimg::_fibonacci</title>
<polygon fill="#ffffff" stroke="transparent" points="-4,4 -4,-106 432,-106 432,4 -4,4"/>
<!-- Node162 -->
<g id="node1" class="node">
<title>Node162</title>
<polygon fill="#bfbfbf" stroke="#000000" points="0,-36 0,-66 109,-66 109,-36 0,-36"/>
<text text-anchor="start" x="8" y="-54" font-family="Helvetica,sans-Serif" font-size="10.00" fill="#000000">cimg_library_suffixed</text>
<text text-anchor="middle" x="54.5" y="-43" font-family="Helvetica,sans-Serif" font-size="10.00" fill="#000000">::cimg::_fibonacci</text>
</g>
<!-- Node163 -->
<g id="node2" class="node">
<title>Node163</title>
<g id="a_node2"><a xlink:href="namespacecimg__library__suffixed_1_1cimg.html#aa9c0e571bc9644b4d838630f9a79534f" target="_top" xlink:title="Calculate fibonacci number. ">
<polygon fill="#ffffff" stroke="#000000" points="145,-36 145,-66 254,-66 254,-36 145,-36"/>
<text text-anchor="start" x="153" y="-54" font-family="Helvetica,sans-Serif" font-size="10.00" fill="#000000">cimg_library_suffixed</text>
<text text-anchor="middle" x="199.5" y="-43" font-family="Helvetica,sans-Serif" font-size="10.00" fill="#000000">::cimg::fibonacci</text>
</a>
</g>
</g>
<!-- Node162&#45;&gt;Node163 -->
<g id="edge1" class="edge">
<title>Node162&#45;&gt;Node163</title>
<path fill="none" stroke="#191970" d="M119.4621,-51C127.8588,-51 136.3919,-51 144.6042,-51"/>
<polygon fill="#191970" stroke="#191970" points="119.3183,-47.5001 109.3183,-51 119.3182,-54.5001 119.3183,-47.5001"/>
</g>
<!-- Node164 -->
<g id="node3" class="node">
<title>Node164</title>
<g id="a_node3"><a xlink:href="structcimg__library__suffixed_1_1_c_img_1_1__cimg__math__parser.html#a318c44c5d1f4f0114355f37ace87a4ae" target="_top" xlink:title="cimg_library_suffixed\l::CImg::_cimg_math_parser\l::compile">
<polygon fill="#ffffff" stroke="#000000" points="290,-60.5 290,-101.5 428,-101.5 428,-60.5 290,-60.5"/>
<text text-anchor="start" x="298" y="-89.5" font-family="Helvetica,sans-Serif" font-size="10.00" fill="#000000">cimg_library_suffixed</text>
<text text-anchor="start" x="298" y="-78.5" font-family="Helvetica,sans-Serif" font-size="10.00" fill="#000000">::CImg::_cimg_math_parser</text>
<text text-anchor="middle" x="359" y="-67.5" font-family="Helvetica,sans-Serif" font-size="10.00" fill="#000000">::compile</text>
</a>
</g>
</g>
<!-- Node163&#45;&gt;Node164 -->
<g id="edge2" class="edge">
<title>Node163&#45;&gt;Node164</title>
<path fill="none" stroke="#191970" d="M264.4793,-63.2218C272.8632,-64.7987 281.4728,-66.4181 289.9198,-68.0069"/>
<polygon fill="#191970" stroke="#191970" points="264.8655,-59.7332 254.3909,-61.3243 263.5715,-66.6125 264.8655,-59.7332"/>
</g>
<!-- Node165 -->
<g id="node4" class="node">
<title>Node165</title>
<g id="a_node4"><a xlink:href="structcimg__library__suffixed_1_1_c_img_1_1__cimg__math__parser.html#a3921ade620d5dee6734c0b8cd586a1c4" target="_top" xlink:title="cimg_library_suffixed\l::CImg::_cimg_math_parser\l::mp_fibonacci">
<polygon fill="#ffffff" stroke="#000000" points="290,-.5 290,-41.5 428,-41.5 428,-.5 290,-.5"/>
<text text-anchor="start" x="298" y="-29.5" font-family="Helvetica,sans-Serif" font-size="10.00" fill="#000000">cimg_library_suffixed</text>
<text text-anchor="start" x="298" y="-18.5" font-family="Helvetica,sans-Serif" font-size="10.00" fill="#000000">::CImg::_cimg_math_parser</text>
<text text-anchor="middle" x="359" y="-7.5" font-family="Helvetica,sans-Serif" font-size="10.00" fill="#000000">::mp_fibonacci</text>
</a>
</g>
</g>
<!-- Node163&#45;&gt;Node165 -->
<g id="edge3" class="edge">
<title>Node163&#45;&gt;Node165</title>
<path fill="none" stroke="#191970" d="M264.4793,-38.7782C272.8632,-37.2013 281.4728,-35.5819 289.9198,-33.9931"/>
<polygon fill="#191970" stroke="#191970" points="263.5715,-35.3875 254.3909,-40.6757 264.8655,-42.2668 263.5715,-35.3875"/>
</g>
</g>
</svg>
