<?xml version="1.0" encoding="UTF-8" standalone="no"?>
<!DOCTYPE svg PUBLIC "-//W3C//DTD SVG 1.1//EN"
 "http://www.w3.org/Graphics/SVG/1.1/DTD/svg11.dtd">
<!-- Generated by graphviz version 2.40.1 (20161225.0304)
 -->
<!-- Title: cimg_library_suffixed::cimg::basename Pages: 1 -->
<svg width="296pt" height="88pt"
 viewBox="0.00 0.00 296.00 88.00" xmlns="http://www.w3.org/2000/svg" xmlns:xlink="http://www.w3.org/1999/xlink">
<g id="graph0" class="graph" transform="scale(1 1) rotate(0) translate(4 84)">
<title>cimg_library_suffixed::cimg::basename</title>
<polygon fill="#ffffff" stroke="transparent" points="-4,4 -4,-84 292,-84 292,4 -4,4"/>
<!-- Node759 -->
<g id="node1" class="node">
<title>Node759</title>
<polygon fill="#bfbfbf" stroke="#000000" points="0,-24.5 0,-54.5 109,-54.5 109,-24.5 0,-24.5"/>
<text text-anchor="start" x="8" y="-42.5" font-family="Helvetica,sans-Serif" font-size="10.00" fill="#000000">cimg_library_suffixed</text>
<text text-anchor="middle" x="54.5" y="-31.5" font-family="Helvetica,sans-Serif" font-size="10.00" fill="#000000">::cimg::basename</text>
</g>
<!-- Node760 -->
<g id="node2" class="node">
<title>Node760</title>
<g id="a_node2"><a xlink:href="structcimg__library__suffixed_1_1_c_img.html#abf6cb6e30f7f153977e062875d7be85e" target="_top" xlink:title="cimg_library_suffixed\l::CImg\&lt; charT \&gt;::_save_cpp">
<polygon fill="#ffffff" stroke="#000000" points="145,-49.5 145,-79.5 288,-79.5 288,-49.5 145,-49.5"/>
<text text-anchor="start" x="153" y="-67.5" font-family="Helvetica,sans-Serif" font-size="10.00" fill="#000000">cimg_library_suffixed</text>
<text text-anchor="middle" x="216.5" y="-56.5" font-family="Helvetica,sans-Serif" font-size="10.00" fill="#000000">::CImg&lt; charT &gt;::_save_cpp</text>
</a>
</g>
</g>
<!-- Node759&#45;&gt;Node760 -->
<g id="edge1" class="edge">
<title>Node759&#45;&gt;Node760</title>
<path fill="none" stroke="#191970" d="M119.3846,-49.5131C127.732,-50.8012 136.3174,-52.1261 144.7665,-53.43"/>
<polygon fill="#191970" stroke="#191970" points="119.7627,-46.03 109.3458,-47.9639 118.695,-52.9482 119.7627,-46.03"/>
</g>
<!-- Node761 -->
<g id="node3" class="node">
<title>Node761</title>
<g id="a_node3"><a xlink:href="namespacecimg__library__suffixed_1_1cimg.html#a9f8980f1308177adebab5f8f52a79835" target="_top" xlink:title="Return list of files/directories in specified directory. ">
<polygon fill="#ffffff" stroke="#000000" points="162,-.5 162,-30.5 271,-30.5 271,-.5 162,-.5"/>
<text text-anchor="start" x="170" y="-18.5" font-family="Helvetica,sans-Serif" font-size="10.00" fill="#000000">cimg_library_suffixed</text>
<text text-anchor="middle" x="216.5" y="-7.5" font-family="Helvetica,sans-Serif" font-size="10.00" fill="#000000">::cimg::files</text>
</a>
</g>
</g>
<!-- Node759&#45;&gt;Node761 -->
<g id="edge2" class="edge">
<title>Node759&#45;&gt;Node761</title>
<path fill="none" stroke="#191970" d="M119.4668,-29.8753C133.5654,-27.7866 148.3392,-25.5979 161.9858,-23.5762"/>
<polygon fill="#191970" stroke="#191970" points="118.7249,-26.4469 109.3458,-31.3747 119.7508,-33.3713 118.7249,-26.4469"/>
</g>
</g>
</svg>
