<?xml version="1.0" encoding="UTF-8" standalone="no"?>
<!DOCTYPE svg PUBLIC "-//W3C//DTD SVG 1.1//EN"
 "http://www.w3.org/Graphics/SVG/1.1/DTD/svg11.dtd">
<!-- Generated by graphviz version 2.40.1 (20161225.0304)
 -->
<!-- Title: cimg_library_suffixed::cimg::ftype Pages: 1 -->
<svg width="1185pt" height="210pt"
 viewBox="0.00 0.00 1185.00 210.00" xmlns="http://www.w3.org/2000/svg" xmlns:xlink="http://www.w3.org/1999/xlink">
<g id="graph0" class="graph" transform="scale(1 1) rotate(0) translate(4 206)">
<title>cimg_library_suffixed::cimg::ftype</title>
<polygon fill="#ffffff" stroke="transparent" points="-4,4 -4,-206 1181,-206 1181,4 -4,4"/>
<!-- Node1685 -->
<g id="node1" class="node">
<title>Node1685</title>
<polygon fill="#bfbfbf" stroke="#000000" points="0,-97.5 0,-127.5 109,-127.5 109,-97.5 0,-97.5"/>
<text text-anchor="start" x="8" y="-115.5" font-family="Helvetica,sans-Serif" font-size="10.00" fill="#000000">cimg_library_suffixed</text>
<text text-anchor="middle" x="54.5" y="-104.5" font-family="Helvetica,sans-Serif" font-size="10.00" fill="#000000">::cimg::ftype</text>
</g>
<!-- Node1686 -->
<g id="node2" class="node">
<title>Node1686</title>
<g id="a_node2"><a xlink:href="structcimg__library__suffixed_1_1_c_img.html#ac35f14b0a2ad7b9a7921a150c1056fd5" target="_top" xlink:title="cimg_library_suffixed\l::CImg::_load_raw">
<polygon fill="#ffffff" stroke="#000000" points="151,-171.5 151,-201.5 260,-201.5 260,-171.5 151,-171.5"/>
<text text-anchor="start" x="159" y="-189.5" font-family="Helvetica,sans-Serif" font-size="10.00" fill="#000000">cimg_library_suffixed</text>
<text text-anchor="middle" x="205.5" y="-178.5" font-family="Helvetica,sans-Serif" font-size="10.00" fill="#000000">::CImg::_load_raw</text>
</a>
</g>
</g>
<!-- Node1685&#45;&gt;Node1686 -->
<g id="edge1" class="edge">
<title>Node1685&#45;&gt;Node1686</title>
<path fill="none" stroke="#191970" d="M79.7935,-127.6087C97.6965,-138.0202 122.4384,-151.8453 145,-162.5 148.5762,-164.1888 152.3054,-165.8645 156.0789,-167.499"/>
<polygon fill="#191970" stroke="#191970" points="154.9136,-170.806 165.4882,-171.4613 157.6304,-164.3546 154.9136,-170.806"/>
</g>
<!-- Node1687 -->
<g id="node3" class="node">
<title>Node1687</title>
<g id="a_node3"><a xlink:href="structcimg__library__suffixed_1_1_c_img.html#a5a062592b78f33dd2813cc59985e61a2" target="_top" xlink:title="Return a pointer to the first pixel value. ">
<polygon fill="#ffffff" stroke="#000000" points="151,-122.5 151,-152.5 260,-152.5 260,-122.5 151,-122.5"/>
<text text-anchor="start" x="159" y="-140.5" font-family="Helvetica,sans-Serif" font-size="10.00" fill="#000000">cimg_library_suffixed</text>
<text text-anchor="middle" x="205.5" y="-129.5" font-family="Helvetica,sans-Serif" font-size="10.00" fill="#000000">::CImg::data</text>
</a>
</g>
</g>
<!-- Node1685&#45;&gt;Node1687 -->
<g id="edge2" class="edge">
<title>Node1685&#45;&gt;Node1687</title>
<path fill="none" stroke="#191970" d="M109.0145,-121.5256C119.3213,-123.232 130.1949,-125.0323 140.7799,-126.7848"/>
<polygon fill="#191970" stroke="#191970" points="140.3747,-130.2652 150.8121,-128.4457 141.5181,-123.3592 140.3747,-130.2652"/>
</g>
<!-- Node1688 -->
<g id="node4" class="node">
<title>Node1688</title>
<g id="a_node4"><a xlink:href="namespacecimg__library__suffixed_1_1cimg.html#aeafab144366eddd11360f32f468fa4af" target="_top" xlink:title="Set current &#160;exception mode. ">
<polygon fill="#ffffff" stroke="#000000" points="145,-73.5 145,-103.5 266,-103.5 266,-73.5 145,-73.5"/>
<text text-anchor="start" x="153" y="-91.5" font-family="Helvetica,sans-Serif" font-size="10.00" fill="#000000">cimg_library_suffixed</text>
<text text-anchor="middle" x="205.5" y="-80.5" font-family="Helvetica,sans-Serif" font-size="10.00" fill="#000000">::cimg::exception_mode</text>
</a>
</g>
</g>
<!-- Node1685&#45;&gt;Node1688 -->
<g id="edge3" class="edge">
<title>Node1685&#45;&gt;Node1688</title>
<path fill="none" stroke="#191970" d="M109.0145,-103.8354C117.3935,-102.5037 126.1471,-101.1124 134.8158,-99.7346"/>
<polygon fill="#191970" stroke="#191970" points="135.5988,-103.1541 144.9254,-98.1277 134.5,-96.2409 135.5988,-103.1541"/>
</g>
<!-- Node1699 -->
<g id="node15" class="node">
<title>Node1699</title>
<g id="a_node15"><a xlink:href="structcimg__library__suffixed_1_1_c_img.html#acae5385f7b2692787b1c50fa1663e587" target="_top" xlink:title="Split image into a list along specified axis. ">
<polygon fill="#ffffff" stroke="#000000" points="151,-24.5 151,-54.5 260,-54.5 260,-24.5 151,-24.5"/>
<text text-anchor="start" x="159" y="-42.5" font-family="Helvetica,sans-Serif" font-size="10.00" fill="#000000">cimg_library_suffixed</text>
<text text-anchor="middle" x="205.5" y="-31.5" font-family="Helvetica,sans-Serif" font-size="10.00" fill="#000000">::CImg::get_split</text>
</a>
</g>
</g>
<!-- Node1685&#45;&gt;Node1699 -->
<g id="edge21" class="edge">
<title>Node1685&#45;&gt;Node1699</title>
<path fill="none" stroke="#191970" d="M81.4812,-97.3173C99.2955,-87.5108 123.2747,-74.7214 145,-64.5 149.2741,-62.4891 153.7551,-60.4722 158.2631,-58.5042"/>
<polygon fill="#191970" stroke="#191970" points="159.6814,-61.7044 167.4968,-54.551 156.9263,-55.2693 159.6814,-61.7044"/>
</g>
<!-- Node1689 -->
<g id="node5" class="node">
<title>Node1689</title>
<g id="a_node5"><a xlink:href="namespacecimg__library__suffixed_1_1cimg.html#a6c578f866de2be9be7e385d693c758c8" target="_top" xlink:title="cimg_library_suffixed\l::cimg::_exception_mode">
<polygon fill="#ffffff" stroke="#000000" points="302,-95.5 302,-125.5 428,-125.5 428,-95.5 302,-95.5"/>
<text text-anchor="start" x="310" y="-113.5" font-family="Helvetica,sans-Serif" font-size="10.00" fill="#000000">cimg_library_suffixed</text>
<text text-anchor="middle" x="365" y="-102.5" font-family="Helvetica,sans-Serif" font-size="10.00" fill="#000000">::cimg::_exception_mode</text>
</a>
</g>
</g>
<!-- Node1688&#45;&gt;Node1689 -->
<g id="edge4" class="edge">
<title>Node1688&#45;&gt;Node1689</title>
<path fill="none" stroke="#191970" d="M266.2551,-96.88C274.6076,-98.0321 283.2552,-99.2249 291.8017,-100.4037"/>
<polygon fill="#191970" stroke="#191970" points="291.38,-103.8786 301.7645,-101.7779 292.3366,-96.9442 291.38,-103.8786"/>
</g>
<!-- Node1690 -->
<g id="node6" class="node">
<title>Node1690</title>
<g id="a_node6"><a xlink:href="namespacecimg__library__suffixed_1_1cimg.html#aab8db7528c32a8fd3a3dc471e662782e" target="_top" xlink:title="cimg_library_suffixed\l::cimg::_stderr">
<polygon fill="#ffffff" stroke="#000000" points="464,-139.5 464,-169.5 573,-169.5 573,-139.5 464,-139.5"/>
<text text-anchor="start" x="472" y="-157.5" font-family="Helvetica,sans-Serif" font-size="10.00" fill="#000000">cimg_library_suffixed</text>
<text text-anchor="middle" x="518.5" y="-146.5" font-family="Helvetica,sans-Serif" font-size="10.00" fill="#000000">::cimg::_stderr</text>
</a>
</g>
</g>
<!-- Node1689&#45;&gt;Node1690 -->
<g id="edge5" class="edge">
<title>Node1689&#45;&gt;Node1690</title>
<path fill="none" stroke="#191970" d="M417.3967,-125.5192C429.9236,-129.11 443.4161,-132.9776 456.3361,-136.681"/>
<polygon fill="#191970" stroke="#191970" points="455.5017,-140.0827 466.079,-139.4738 457.4306,-133.3537 455.5017,-140.0827"/>
</g>
<!-- Node1692 -->
<g id="node8" class="node">
<title>Node1692</title>
<g id="a_node8"><a xlink:href="namespacecimg__library__suffixed_1_1cimg.html#a9e739e4b4ac058abfba069466617b914" target="_top" xlink:title="cimg_library_suffixed\l::cimg::mutex">
<polygon fill="#ffffff" stroke="#000000" points="754,-73.5 754,-103.5 863,-103.5 863,-73.5 754,-73.5"/>
<text text-anchor="start" x="762" y="-91.5" font-family="Helvetica,sans-Serif" font-size="10.00" fill="#000000">cimg_library_suffixed</text>
<text text-anchor="middle" x="808.5" y="-80.5" font-family="Helvetica,sans-Serif" font-size="10.00" fill="#000000">::cimg::mutex</text>
</a>
</g>
</g>
<!-- Node1689&#45;&gt;Node1692 -->
<g id="edge20" class="edge">
<title>Node1689&#45;&gt;Node1692</title>
<path fill="none" stroke="#191970" d="M428.0717,-107.3713C511.8352,-103.2162 659.0329,-95.9144 743.6723,-91.7158"/>
<polygon fill="#191970" stroke="#191970" points="743.8613,-95.2108 753.6756,-91.2196 743.5144,-88.2194 743.8613,-95.2108"/>
</g>
<!-- Node1697 -->
<g id="node13" class="node">
<title>Node1697</title>
<g id="a_node13"><a xlink:href="namespacecimg__library__suffixed_1_1cimg.html#a01a3b743897290604513ea6d847c9886" target="_top" xlink:title="cimg_library_suffixed\l::cimg::_stdin">
<polygon fill="#ffffff" stroke="#000000" points="464,-2.5 464,-32.5 573,-32.5 573,-2.5 464,-2.5"/>
<text text-anchor="start" x="472" y="-20.5" font-family="Helvetica,sans-Serif" font-size="10.00" fill="#000000">cimg_library_suffixed</text>
<text text-anchor="middle" x="518.5" y="-9.5" font-family="Helvetica,sans-Serif" font-size="10.00" fill="#000000">::cimg::_stdin</text>
</a>
</g>
</g>
<!-- Node1689&#45;&gt;Node1697 -->
<g id="edge14" class="edge">
<title>Node1689&#45;&gt;Node1697</title>
<path fill="none" stroke="#191970" d="M384.3599,-95.3141C403.8006,-80.4791 434.9567,-57.8125 464,-41.5 466.7071,-39.9796 469.529,-38.4856 472.4016,-37.0327"/>
<polygon fill="#191970" stroke="#191970" points="474.1912,-40.0551 481.6702,-32.5508 471.1438,-33.7533 474.1912,-40.0551"/>
</g>
<!-- Node1698 -->
<g id="node14" class="node">
<title>Node1698</title>
<g id="a_node14"><a xlink:href="namespacecimg__library__suffixed_1_1cimg.html#a493220746e5df3466568bd7862825008" target="_top" xlink:title="cimg_library_suffixed\l::cimg::_stdout">
<polygon fill="#ffffff" stroke="#000000" points="464,-51.5 464,-81.5 573,-81.5 573,-51.5 464,-51.5"/>
<text text-anchor="start" x="472" y="-69.5" font-family="Helvetica,sans-Serif" font-size="10.00" fill="#000000">cimg_library_suffixed</text>
<text text-anchor="middle" x="518.5" y="-58.5" font-family="Helvetica,sans-Serif" font-size="10.00" fill="#000000">::cimg::_stdout</text>
</a>
</g>
</g>
<!-- Node1689&#45;&gt;Node1698 -->
<g id="edge17" class="edge">
<title>Node1689&#45;&gt;Node1698</title>
<path fill="none" stroke="#191970" d="M417.3967,-95.4808C429.9236,-91.89 443.4161,-88.0224 456.3361,-84.319"/>
<polygon fill="#191970" stroke="#191970" points="457.4306,-87.6463 466.079,-81.5262 455.5017,-80.9173 457.4306,-87.6463"/>
</g>
<!-- Node1690&#45;&gt;Node1688 -->
<g id="edge6" class="edge">
<title>Node1690&#45;&gt;Node1688</title>
<path fill="none" stroke="#191970" d="M463.7355,-156.5322C419.1145,-156.5842 355.0418,-152.9623 302,-135.5 284.1892,-129.6364 282.7162,-121.9955 266,-113.5 262.1817,-111.5595 258.1764,-109.6484 254.1219,-107.8003"/>
<polygon fill="#191970" stroke="#191970" points="255.1993,-104.4503 244.6372,-103.618 252.3749,-110.8552 255.1993,-104.4503"/>
</g>
<!-- Node1691 -->
<g id="node7" class="node">
<title>Node1691</title>
<g id="a_node7"><a xlink:href="namespacecimg__library__suffixed_1_1cimg.html#a79aef0cbcf66ceb71c2b74cb66b4deb2" target="_top" xlink:title="Avoid warning messages due to unused parameters. Do nothing actually. ">
<polygon fill="#ffffff" stroke="#000000" points="609,-51.5 609,-81.5 718,-81.5 718,-51.5 609,-51.5"/>
<text text-anchor="start" x="617" y="-69.5" font-family="Helvetica,sans-Serif" font-size="10.00" fill="#000000">cimg_library_suffixed</text>
<text text-anchor="middle" x="663.5" y="-58.5" font-family="Helvetica,sans-Serif" font-size="10.00" fill="#000000">::cimg::unused</text>
</a>
</g>
</g>
<!-- Node1690&#45;&gt;Node1691 -->
<g id="edge7" class="edge">
<title>Node1690&#45;&gt;Node1691</title>
<path fill="none" stroke="#191970" d="M543.4264,-139.3723C567.2878,-124.8908 603.4587,-102.9388 629.8648,-86.9131"/>
<polygon fill="#191970" stroke="#191970" points="631.6807,-89.9052 638.4136,-81.7248 628.0489,-83.921 631.6807,-89.9052"/>
</g>
<!-- Node1691&#45;&gt;Node1692 -->
<g id="edge8" class="edge">
<title>Node1691&#45;&gt;Node1692</title>
<path fill="none" stroke="#191970" d="M718.3183,-74.8173C726.5286,-76.063 735.0611,-77.3575 743.4586,-78.6317"/>
<polygon fill="#191970" stroke="#191970" points="743.1923,-82.1312 753.6042,-80.171 744.2424,-75.2104 743.1923,-82.1312"/>
</g>
<!-- Node1693 -->
<g id="node9" class="node">
<title>Node1693</title>
<g id="a_node9"><a xlink:href="namespacecimg__library__suffixed_1_1cimg.html#aa0e1bc96ae6e235dc5b67b8b0a466166" target="_top" xlink:title="cimg_library_suffixed\l::cimg::Mutex_attr">
<polygon fill="#ffffff" stroke="#000000" points="1068,-120.5 1068,-150.5 1177,-150.5 1177,-120.5 1068,-120.5"/>
<text text-anchor="start" x="1076" y="-138.5" font-family="Helvetica,sans-Serif" font-size="10.00" fill="#000000">cimg_library_suffixed</text>
<text text-anchor="middle" x="1122.5" y="-127.5" font-family="Helvetica,sans-Serif" font-size="10.00" fill="#000000">::cimg::Mutex_attr</text>
</a>
</g>
</g>
<!-- Node1692&#45;&gt;Node1693 -->
<g id="edge9" class="edge">
<title>Node1692&#45;&gt;Node1693</title>
<path fill="none" stroke="#191970" d="M828.7886,-103.66C846.338,-115.766 872.9275,-131.7766 899,-138.5 951.2267,-151.9679 1012.6233,-149.9274 1057.8381,-145.2484"/>
<polygon fill="#191970" stroke="#191970" points="1058.253,-148.724 1067.8082,-144.1471 1057.4844,-141.7663 1058.253,-148.724"/>
</g>
<!-- Node1694 -->
<g id="node10" class="node">
<title>Node1694</title>
<g id="a_node10"><a xlink:href="structcimg__library__suffixed_1_1cimg_1_1_mutex__info.html#afac3fa5f107ad4795fb867050f616555" target="_top" xlink:title="cimg_library_suffixed\l::cimg::Mutex_info::unlock">
<polygon fill="#ffffff" stroke="#000000" points="899.5,-49.5 899.5,-79.5 1031.5,-79.5 1031.5,-49.5 899.5,-49.5"/>
<text text-anchor="start" x="907.5" y="-67.5" font-family="Helvetica,sans-Serif" font-size="10.00" fill="#000000">cimg_library_suffixed</text>
<text text-anchor="middle" x="965.5" y="-56.5" font-family="Helvetica,sans-Serif" font-size="10.00" fill="#000000">::cimg::Mutex_info::unlock</text>
</a>
</g>
</g>
<!-- Node1692&#45;&gt;Node1694 -->
<g id="edge10" class="edge">
<title>Node1692&#45;&gt;Node1694</title>
<path fill="none" stroke="#191970" d="M863.411,-80.106C871.7369,-78.8332 880.453,-77.5008 889.1344,-76.1737"/>
<polygon fill="#191970" stroke="#191970" points="889.9278,-79.5932 899.2841,-74.6222 888.87,-72.6736 889.9278,-79.5932"/>
</g>
<!-- Node1695 -->
<g id="node11" class="node">
<title>Node1695</title>
<g id="a_node11"><a xlink:href="structcimg__library__suffixed_1_1cimg_1_1_mutex__info.html#a6cc8e26847a1aa649febed03d70182e7" target="_top" xlink:title="cimg_library_suffixed\l::cimg::Mutex_info::lock">
<polygon fill="#ffffff" stroke="#000000" points="904.5,-.5 904.5,-30.5 1026.5,-30.5 1026.5,-.5 904.5,-.5"/>
<text text-anchor="start" x="912.5" y="-18.5" font-family="Helvetica,sans-Serif" font-size="10.00" fill="#000000">cimg_library_suffixed</text>
<text text-anchor="middle" x="965.5" y="-7.5" font-family="Helvetica,sans-Serif" font-size="10.00" fill="#000000">::cimg::Mutex_info::lock</text>
</a>
</g>
</g>
<!-- Node1692&#45;&gt;Node1695 -->
<g id="edge11" class="edge">
<title>Node1692&#45;&gt;Node1695</title>
<path fill="none" stroke="#191970" d="M834.1165,-73.2922C851.9592,-63.0342 876.4996,-49.5832 899,-39.5 903.0148,-37.7009 907.209,-35.935 911.4536,-34.2284"/>
<polygon fill="#191970" stroke="#191970" points="912.7287,-37.488 920.7765,-30.5972 910.1881,-30.9653 912.7287,-37.488"/>
</g>
<!-- Node1696 -->
<g id="node12" class="node">
<title>Node1696</title>
<g id="a_node12"><a xlink:href="structcimg__library__suffixed_1_1cimg_1_1_mutex__info.html#a9bf4ed1e1dfe6f28fa6250cd04f3c900" target="_top" xlink:title="cimg_library_suffixed\l::cimg::Mutex_info::trylock">
<polygon fill="#ffffff" stroke="#000000" points="899,-98.5 899,-128.5 1032,-128.5 1032,-98.5 899,-98.5"/>
<text text-anchor="start" x="907" y="-116.5" font-family="Helvetica,sans-Serif" font-size="10.00" fill="#000000">cimg_library_suffixed</text>
<text text-anchor="middle" x="965.5" y="-105.5" font-family="Helvetica,sans-Serif" font-size="10.00" fill="#000000">::cimg::Mutex_info::trylock</text>
</a>
</g>
</g>
<!-- Node1692&#45;&gt;Node1696 -->
<g id="edge12" class="edge">
<title>Node1692&#45;&gt;Node1696</title>
<path fill="none" stroke="#191970" d="M863.411,-97.2438C871.6098,-98.5493 880.187,-99.9151 888.7367,-101.2766"/>
<polygon fill="#191970" stroke="#191970" points="888.3105,-104.7527 898.7365,-102.8689 889.4113,-97.8398 888.3105,-104.7527"/>
</g>
<!-- Node1696&#45;&gt;Node1693 -->
<g id="edge13" class="edge">
<title>Node1696&#45;&gt;Node1693</title>
<path fill="none" stroke="#191970" d="M1032.0821,-122.83C1040.5193,-124.0123 1049.1445,-125.2209 1057.5556,-126.3995"/>
<polygon fill="#191970" stroke="#191970" points="1057.293,-129.8968 1067.682,-127.8185 1058.2645,-122.9646 1057.293,-129.8968"/>
</g>
<!-- Node1697&#45;&gt;Node1688 -->
<g id="edge15" class="edge">
<title>Node1697&#45;&gt;Node1688</title>
<path fill="none" stroke="#191970" d="M463.9666,-29.8702C411.8805,-41.6853 333.1092,-59.5535 276.2205,-72.458"/>
<polygon fill="#191970" stroke="#191970" points="275.1986,-69.1008 266.2207,-74.7263 276.7472,-75.9273 275.1986,-69.1008"/>
</g>
<!-- Node1697&#45;&gt;Node1691 -->
<g id="edge16" class="edge">
<title>Node1697&#45;&gt;Node1691</title>
<path fill="none" stroke="#191970" d="M563.1879,-32.6014C577.659,-37.4917 593.8725,-42.9707 608.9752,-48.0744"/>
<polygon fill="#191970" stroke="#191970" points="608.1158,-51.4783 618.71,-51.3641 610.3569,-44.8468 608.1158,-51.4783"/>
</g>
<!-- Node1698&#45;&gt;Node1688 -->
<g id="edge18" class="edge">
<title>Node1698&#45;&gt;Node1688</title>
<path fill="none" stroke="#191970" d="M463.9666,-70.333C411.8805,-73.994 333.1092,-79.5307 276.2205,-83.5292"/>
<polygon fill="#191970" stroke="#191970" points="275.9506,-80.0395 266.2207,-84.2321 276.4415,-87.0222 275.9506,-80.0395"/>
</g>
<!-- Node1698&#45;&gt;Node1691 -->
<g id="edge19" class="edge">
<title>Node1698&#45;&gt;Node1691</title>
<path fill="none" stroke="#191970" d="M573.3183,-66.5C581.5286,-66.5 590.0611,-66.5 598.4586,-66.5"/>
<polygon fill="#191970" stroke="#191970" points="598.6042,-70.0001 608.6042,-66.5 598.6042,-63.0001 598.6042,-70.0001"/>
</g>
</g>
</svg>
