<?xml version="1.0" encoding="UTF-8" standalone="no"?>
<!DOCTYPE svg PUBLIC "-//W3C//DTD SVG 1.1//EN"
 "http://www.w3.org/Graphics/SVG/1.1/DTD/svg11.dtd">
<!-- Generated by graphviz version 2.40.1 (20161225.0304)
 -->
<!-- Title: cimg_library_suffixed::cimg::wget_path Pages: 1 -->
<svg width="611pt" height="1389pt"
 viewBox="0.00 0.00 611.00 1388.50" xmlns="http://www.w3.org/2000/svg" xmlns:xlink="http://www.w3.org/1999/xlink">
<g id="graph0" class="graph" transform="scale(1 1) rotate(0) translate(4 1384.5)">
<title>cimg_library_suffixed::cimg::wget_path</title>
<polygon fill="#ffffff" stroke="transparent" points="-4,4 -4,-1384.5 607,-1384.5 607,4 -4,4"/>
<!-- Node4583 -->
<g id="node1" class="node">
<title>Node4583</title>
<polygon fill="#bfbfbf" stroke="#000000" points="0,-689 0,-719 109,-719 109,-689 0,-689"/>
<text text-anchor="start" x="8" y="-707" font-family="Helvetica,sans-Serif" font-size="10.00" fill="#000000">cimg_library_suffixed</text>
<text text-anchor="middle" x="54.5" y="-696" font-family="Helvetica,sans-Serif" font-size="10.00" fill="#000000">::cimg::wget_path</text>
</g>
<!-- Node4584 -->
<g id="node2" class="node">
<title>Node4584</title>
<g id="a_node2"><a xlink:href="namespacecimg__library__suffixed_1_1cimg.html#aac739bf544269324a04504ebe92b93e9" target="_top" xlink:title="Get current local time (single&#45;attribute version). ">
<polygon fill="#ffffff" stroke="#000000" points="145,-714 145,-744 254,-744 254,-714 145,-714"/>
<text text-anchor="start" x="153" y="-732" font-family="Helvetica,sans-Serif" font-size="10.00" fill="#000000">cimg_library_suffixed</text>
<text text-anchor="middle" x="199.5" y="-721" font-family="Helvetica,sans-Serif" font-size="10.00" fill="#000000">::cimg::date</text>
</a>
</g>
</g>
<!-- Node4583&#45;&gt;Node4584 -->
<g id="edge1" class="edge">
<title>Node4583&#45;&gt;Node4584</title>
<path fill="none" stroke="#191970" d="M119.1853,-715.1526C127.6712,-716.6157 136.3016,-718.1037 144.6042,-719.5352"/>
<polygon fill="#191970" stroke="#191970" points="119.7676,-711.7015 109.3183,-713.4514 118.5782,-718.5997 119.7676,-711.7015"/>
</g>
<!-- Node4585 -->
<g id="node3" class="node">
<title>Node4585</title>
<g id="a_node3"><a xlink:href="namespacecimg__library__suffixed_1_1cimg.html#a90c05fe6fc049cba75f3a12807e97158" target="_top" xlink:title="Load file from network as a local temporary file. ">
<polygon fill="#ffffff" stroke="#000000" points="145,-665 145,-695 254,-695 254,-665 145,-665"/>
<text text-anchor="start" x="153" y="-683" font-family="Helvetica,sans-Serif" font-size="10.00" fill="#000000">cimg_library_suffixed</text>
<text text-anchor="middle" x="199.5" y="-672" font-family="Helvetica,sans-Serif" font-size="10.00" fill="#000000">::cimg::load_network</text>
</a>
</g>
</g>
<!-- Node4583&#45;&gt;Node4585 -->
<g id="edge2" class="edge">
<title>Node4583&#45;&gt;Node4585</title>
<path fill="none" stroke="#191970" d="M119.1853,-693.2935C127.6712,-691.8889 136.3016,-690.4604 144.6042,-689.0862"/>
<polygon fill="#191970" stroke="#191970" points="118.6125,-689.8406 109.3183,-694.9266 119.7556,-696.7466 118.6125,-689.8406"/>
</g>
<!-- Node4586 -->
<g id="node4" class="node">
<title>Node4586</title>
<g id="a_node4"><a xlink:href="namespacecimg__library__suffixed_1_1cimg.html#a0f3577978081461118330fc3ecd4b9db" target="_top" xlink:title="Create an empty file. ">
<polygon fill="#ffffff" stroke="#000000" points="300,-714 300,-744 409,-744 409,-714 300,-714"/>
<text text-anchor="start" x="308" y="-732" font-family="Helvetica,sans-Serif" font-size="10.00" fill="#000000">cimg_library_suffixed</text>
<text text-anchor="middle" x="354.5" y="-721" font-family="Helvetica,sans-Serif" font-size="10.00" fill="#000000">::cimg::fempty</text>
</a>
</g>
</g>
<!-- Node4585&#45;&gt;Node4586 -->
<g id="edge3" class="edge">
<title>Node4585&#45;&gt;Node4586</title>
<path fill="none" stroke="#191970" d="M257.2583,-698.2591C273.6067,-703.4273 291.2107,-708.9924 306.8879,-713.9484"/>
<polygon fill="#191970" stroke="#191970" points="257.8598,-694.7785 247.2699,-695.1014 255.7497,-701.453 257.8598,-694.7785"/>
</g>
<!-- Node4613 -->
<g id="node31" class="node">
<title>Node4613</title>
<g id="a_node31"><a xlink:href="structcimg__library__suffixed_1_1_c_img.html#ae8353b28bfbc5c4421c7adfbb98fe32f" target="_top" xlink:title="Load image from a file. ">
<polygon fill="#ffffff" stroke="#000000" points="298,-665 298,-695 411,-695 411,-665 298,-665"/>
<text text-anchor="start" x="306" y="-683" font-family="Helvetica,sans-Serif" font-size="10.00" fill="#000000">cimg_library_suffixed</text>
<text text-anchor="middle" x="354.5" y="-672" font-family="Helvetica,sans-Serif" font-size="10.00" fill="#000000">::CImg&lt; charT &gt;::load</text>
</a>
</g>
</g>
<!-- Node4585&#45;&gt;Node4613 -->
<g id="edge30" class="edge">
<title>Node4585&#45;&gt;Node4613</title>
<path fill="none" stroke="#191970" d="M264.2941,-680C275.4844,-680 287.0381,-680 297.9873,-680"/>
<polygon fill="#191970" stroke="#191970" points="264.1472,-676.5001 254.1472,-680 264.1472,-683.5001 264.1472,-676.5001"/>
</g>
<!-- Node4614 -->
<g id="node32" class="node">
<title>Node4614</title>
<g id="a_node32"><a xlink:href="structcimg__library__suffixed_1_1_c_img_list.html#a63bd67d8dd2301933df7decb4612916e" target="_top" xlink:title="Load a list from a file. ">
<polygon fill="#ffffff" stroke="#000000" points="290,-616 290,-646 419,-646 419,-616 290,-616"/>
<text text-anchor="start" x="298" y="-634" font-family="Helvetica,sans-Serif" font-size="10.00" fill="#000000">cimg_library_suffixed</text>
<text text-anchor="middle" x="354.5" y="-623" font-family="Helvetica,sans-Serif" font-size="10.00" fill="#000000">::CImgList&lt; charT &gt;::load</text>
</a>
</g>
</g>
<!-- Node4585&#45;&gt;Node4614 -->
<g id="edge31" class="edge">
<title>Node4585&#45;&gt;Node4614</title>
<path fill="none" stroke="#191970" d="M257.2583,-661.7409C273.6067,-656.5727 291.2107,-651.0076 306.8879,-646.0516"/>
<polygon fill="#191970" stroke="#191970" points="255.7497,-658.547 247.2699,-664.8986 257.8598,-665.2215 255.7497,-658.547"/>
</g>
<!-- Node4587 -->
<g id="node5" class="node">
<title>Node4587</title>
<g id="a_node5"><a xlink:href="structcimg__library__suffixed_1_1_c_img.html#ae9faefb948746c5d646fe5c80f28c4fc" target="_top" xlink:title="cimg_library_suffixed\l::CImg\&lt; charT \&gt;::_save_bmp">
<polygon fill="#ffffff" stroke="#000000" points="456,-1350 456,-1380 602,-1380 602,-1350 456,-1350"/>
<text text-anchor="start" x="464" y="-1368" font-family="Helvetica,sans-Serif" font-size="10.00" fill="#000000">cimg_library_suffixed</text>
<text text-anchor="middle" x="529" y="-1357" font-family="Helvetica,sans-Serif" font-size="10.00" fill="#000000">::CImg&lt; charT &gt;::_save_bmp</text>
</a>
</g>
</g>
<!-- Node4586&#45;&gt;Node4587 -->
<g id="edge4" class="edge">
<title>Node4586&#45;&gt;Node4587</title>
<path fill="none" stroke="#191970" d="M355.2405,-754.1787C358.784,-857.8508 377.2123,-1250.494 455,-1341 457.9051,-1344.3801 461.2909,-1347.2876 464.9851,-1349.7881"/>
<polygon fill="#191970" stroke="#191970" points="358.7336,-753.9066 354.9103,-744.0257 351.7373,-754.1342 358.7336,-753.9066"/>
</g>
<!-- Node4588 -->
<g id="node6" class="node">
<title>Node4588</title>
<g id="a_node6"><a xlink:href="structcimg__library__suffixed_1_1_c_img.html#a78929d9b9d2af829f3e3fc576e99b61d" target="_top" xlink:title="cimg_library_suffixed\l::CImg\&lt; charT \&gt;::_save_dlm">
<polygon fill="#ffffff" stroke="#000000" points="457.5,-1301 457.5,-1331 600.5,-1331 600.5,-1301 457.5,-1301"/>
<text text-anchor="start" x="465.5" y="-1319" font-family="Helvetica,sans-Serif" font-size="10.00" fill="#000000">cimg_library_suffixed</text>
<text text-anchor="middle" x="529" y="-1308" font-family="Helvetica,sans-Serif" font-size="10.00" fill="#000000">::CImg&lt; charT &gt;::_save_dlm</text>
</a>
</g>
</g>
<!-- Node4586&#45;&gt;Node4588 -->
<g id="edge5" class="edge">
<title>Node4586&#45;&gt;Node4588</title>
<path fill="none" stroke="#191970" d="M355.6446,-754.3573C360.5909,-852.9879 383.2313,-1209.6604 455,-1292 458.0172,-1295.4617 461.5383,-1298.4272 465.3762,-1300.9672"/>
<polygon fill="#191970" stroke="#191970" points="359.1292,-753.9531 355.1497,-744.134 352.1374,-754.2916 359.1292,-753.9531"/>
</g>
<!-- Node4589 -->
<g id="node7" class="node">
<title>Node4589</title>
<g id="a_node7"><a xlink:href="structcimg__library__suffixed_1_1_c_img.html#aa29c8a2179f282535660800f9b9192e0" target="_top" xlink:title="cimg_library_suffixed\l::CImg\&lt; charT \&gt;::_save_inr">
<polygon fill="#ffffff" stroke="#000000" points="460.5,-1252 460.5,-1282 597.5,-1282 597.5,-1252 460.5,-1252"/>
<text text-anchor="start" x="468.5" y="-1270" font-family="Helvetica,sans-Serif" font-size="10.00" fill="#000000">cimg_library_suffixed</text>
<text text-anchor="middle" x="529" y="-1259" font-family="Helvetica,sans-Serif" font-size="10.00" fill="#000000">::CImg&lt; charT &gt;::_save_inr</text>
</a>
</g>
</g>
<!-- Node4586&#45;&gt;Node4589 -->
<g id="edge6" class="edge">
<title>Node4586&#45;&gt;Node4589</title>
<path fill="none" stroke="#191970" d="M356.1077,-754.2325C362.516,-847.15 389.1549,-1168.6986 455,-1243 458.0456,-1246.4367 461.5875,-1249.3839 465.4402,-1251.911"/>
<polygon fill="#191970" stroke="#191970" points="359.5873,-753.8096 355.4253,-744.0665 352.603,-754.2785 359.5873,-753.8096"/>
</g>
<!-- Node4590 -->
<g id="node8" class="node">
<title>Node4590</title>
<g id="a_node8"><a xlink:href="structcimg__library__suffixed_1_1_c_img.html#aa41e292505817af60a4896ed19302304" target="_top" xlink:title="cimg_library_suffixed\l::CImg\&lt; charT \&gt;::_save_jpeg">
<polygon fill="#ffffff" stroke="#000000" points="456.5,-1203 456.5,-1233 601.5,-1233 601.5,-1203 456.5,-1203"/>
<text text-anchor="start" x="464.5" y="-1221" font-family="Helvetica,sans-Serif" font-size="10.00" fill="#000000">cimg_library_suffixed</text>
<text text-anchor="middle" x="529" y="-1210" font-family="Helvetica,sans-Serif" font-size="10.00" fill="#000000">::CImg&lt; charT &gt;::_save_jpeg</text>
</a>
</g>
</g>
<!-- Node4586&#45;&gt;Node4590 -->
<g id="edge7" class="edge">
<title>Node4586&#45;&gt;Node4590</title>
<path fill="none" stroke="#191970" d="M356.722,-754.2786C364.8479,-841.265 395.6246,-1126.5389 455,-1193 458.4331,-1196.8428 462.4775,-1200.0956 466.8761,-1202.849"/>
<polygon fill="#191970" stroke="#191970" points="360.2,-753.8776 355.8032,-744.2382 353.2291,-754.5155 360.2,-753.8776"/>
</g>
<!-- Node4591 -->
<g id="node9" class="node">
<title>Node4591</title>
<g id="a_node9"><a xlink:href="structcimg__library__suffixed_1_1_c_img.html#a01931f2bad5c72da454d990ebcf55f94" target="_top" xlink:title="cimg_library_suffixed\l::CImg\&lt; charT \&gt;::_save\l_pandore">
<polygon fill="#ffffff" stroke="#000000" points="468,-1142.5 468,-1183.5 590,-1183.5 590,-1142.5 468,-1142.5"/>
<text text-anchor="start" x="476" y="-1171.5" font-family="Helvetica,sans-Serif" font-size="10.00" fill="#000000">cimg_library_suffixed</text>
<text text-anchor="start" x="476" y="-1160.5" font-family="Helvetica,sans-Serif" font-size="10.00" fill="#000000">::CImg&lt; charT &gt;::_save</text>
<text text-anchor="middle" x="529" y="-1149.5" font-family="Helvetica,sans-Serif" font-size="10.00" fill="#000000">_pandore</text>
</a>
</g>
</g>
<!-- Node4586&#45;&gt;Node4591 -->
<g id="edge8" class="edge">
<title>Node4586&#45;&gt;Node4591</title>
<path fill="none" stroke="#191970" d="M357.7864,-754.4646C368.4842,-833.83 404.5543,-1074.8681 455,-1133 458.7252,-1137.2928 463.1553,-1140.98 467.9689,-1144.1456"/>
<polygon fill="#191970" stroke="#191970" points="361.2325,-753.8268 356.4464,-744.3746 354.2934,-754.7484 361.2325,-753.8268"/>
</g>
<!-- Node4592 -->
<g id="node10" class="node">
<title>Node4592</title>
<g id="a_node10"><a xlink:href="structcimg__library__suffixed_1_1_c_img.html#a65be74d7d22bb71e708b3beb8e9cae49" target="_top" xlink:title="cimg_library_suffixed\l::CImg\&lt; charT \&gt;::_save_pfm">
<polygon fill="#ffffff" stroke="#000000" points="457.5,-1093 457.5,-1123 600.5,-1123 600.5,-1093 457.5,-1093"/>
<text text-anchor="start" x="465.5" y="-1111" font-family="Helvetica,sans-Serif" font-size="10.00" fill="#000000">cimg_library_suffixed</text>
<text text-anchor="middle" x="529" y="-1100" font-family="Helvetica,sans-Serif" font-size="10.00" fill="#000000">::CImg&lt; charT &gt;::_save_pfm</text>
</a>
</g>
</g>
<!-- Node4586&#45;&gt;Node4592 -->
<g id="edge9" class="edge">
<title>Node4586&#45;&gt;Node4592</title>
<path fill="none" stroke="#191970" d="M358.5138,-754.3565C370.5317,-827.2917 408.3017,-1035.5051 455,-1084 458.2789,-1087.405 462.0444,-1090.3276 466.1022,-1092.836"/>
<polygon fill="#191970" stroke="#191970" points="361.9276,-753.5427 356.8689,-744.2336 355.0182,-754.6655 361.9276,-753.5427"/>
</g>
<!-- Node4593 -->
<g id="node11" class="node">
<title>Node4593</title>
<g id="a_node11"><a xlink:href="structcimg__library__suffixed_1_1_c_img.html#aab5e304310373159e357250314e99da6" target="_top" xlink:title="cimg_library_suffixed\l::CImg\&lt; charT \&gt;::_save_png">
<polygon fill="#ffffff" stroke="#000000" points="457.5,-1044 457.5,-1074 600.5,-1074 600.5,-1044 457.5,-1044"/>
<text text-anchor="start" x="465.5" y="-1062" font-family="Helvetica,sans-Serif" font-size="10.00" fill="#000000">cimg_library_suffixed</text>
<text text-anchor="middle" x="529" y="-1051" font-family="Helvetica,sans-Serif" font-size="10.00" fill="#000000">::CImg&lt; charT &gt;::_save_png</text>
</a>
</g>
</g>
<!-- Node4586&#45;&gt;Node4593 -->
<g id="edge10" class="edge">
<title>Node4586&#45;&gt;Node4593</title>
<path fill="none" stroke="#191970" d="M359.7311,-754.3235C373.7895,-820.1305 414.0993,-994.2508 455,-1035 458.4444,-1038.4317 462.3835,-1041.3728 466.61,-1043.8935"/>
<polygon fill="#191970" stroke="#191970" points="363.1224,-753.4428 357.6317,-744.3818 356.2734,-754.8892 363.1224,-753.4428"/>
</g>
<!-- Node4594 -->
<g id="node12" class="node">
<title>Node4594</title>
<g id="a_node12"><a xlink:href="structcimg__library__suffixed_1_1_c_img.html#a4bcf33abcee45165d20d9530f6c85242" target="_top" xlink:title="cimg_library_suffixed\l::CImg\&lt; charT \&gt;::_save_pnk">
<polygon fill="#ffffff" stroke="#000000" points="457.5,-995 457.5,-1025 600.5,-1025 600.5,-995 457.5,-995"/>
<text text-anchor="start" x="465.5" y="-1013" font-family="Helvetica,sans-Serif" font-size="10.00" fill="#000000">cimg_library_suffixed</text>
<text text-anchor="middle" x="529" y="-1002" font-family="Helvetica,sans-Serif" font-size="10.00" fill="#000000">::CImg&lt; charT &gt;::_save_pnk</text>
</a>
</g>
</g>
<!-- Node4586&#45;&gt;Node4594 -->
<g id="edge11" class="edge">
<title>Node4586&#45;&gt;Node4594</title>
<path fill="none" stroke="#191970" d="M357.2508,-754.3995C364.1404,-805.5836 386.7922,-921.7117 455,-986 458.6365,-989.4275 462.7676,-992.3656 467.1745,-994.8842"/>
<polygon fill="#191970" stroke="#191970" points="360.6925,-753.7152 355.977,-744.2276 353.7468,-754.585 360.6925,-753.7152"/>
</g>
<!-- Node4595 -->
<g id="node13" class="node">
<title>Node4595</title>
<g id="a_node13"><a xlink:href="structcimg__library__suffixed_1_1_c_img.html#a3b62455c9523881fa64a47d8362c3d80" target="_top" xlink:title="cimg_library_suffixed\l::CImg\&lt; charT \&gt;::_save_pnm">
<polygon fill="#ffffff" stroke="#000000" points="456,-946 456,-976 602,-976 602,-946 456,-946"/>
<text text-anchor="start" x="464" y="-964" font-family="Helvetica,sans-Serif" font-size="10.00" fill="#000000">cimg_library_suffixed</text>
<text text-anchor="middle" x="529" y="-953" font-family="Helvetica,sans-Serif" font-size="10.00" fill="#000000">::CImg&lt; charT &gt;::_save_pnm</text>
</a>
</g>
</g>
<!-- Node4586&#45;&gt;Node4595 -->
<g id="edge12" class="edge">
<title>Node4586&#45;&gt;Node4595</title>
<path fill="none" stroke="#191970" d="M359.8118,-754.0579C370.3232,-797.5655 397.8768,-887.1853 455,-937 458.9699,-940.4619 463.4476,-943.4261 468.1863,-945.9638"/>
<polygon fill="#191970" stroke="#191970" points="363.1594,-752.9985 357.499,-744.0424 356.3389,-754.5736 363.1594,-752.9985"/>
</g>
<!-- Node4596 -->
<g id="node14" class="node">
<title>Node4596</title>
<g id="a_node14"><a xlink:href="structcimg__library__suffixed_1_1_c_img.html#a069feb3e722bb4a1f52ea72c1c86ca97" target="_top" xlink:title="cimg_library_suffixed\l::CImg\&lt; charT \&gt;::_save_raw">
<polygon fill="#ffffff" stroke="#000000" points="457.5,-897 457.5,-927 600.5,-927 600.5,-897 457.5,-897"/>
<text text-anchor="start" x="465.5" y="-915" font-family="Helvetica,sans-Serif" font-size="10.00" fill="#000000">cimg_library_suffixed</text>
<text text-anchor="middle" x="529" y="-904" font-family="Helvetica,sans-Serif" font-size="10.00" fill="#000000">::CImg&lt; charT &gt;::_save_raw</text>
</a>
</g>
</g>
<!-- Node4586&#45;&gt;Node4596 -->
<g id="edge13" class="edge">
<title>Node4586&#45;&gt;Node4596</title>
<path fill="none" stroke="#191970" d="M363.7054,-753.593C377.9904,-788.4805 408.7573,-852.0832 455,-888 459.3733,-891.3967 464.2439,-894.3211 469.3402,-896.8372"/>
<polygon fill="#191970" stroke="#191970" points="366.9013,-752.1577 359.9578,-744.1552 360.3954,-754.741 366.9013,-752.1577"/>
</g>
<!-- Node4597 -->
<g id="node15" class="node">
<title>Node4597</title>
<g id="a_node15"><a xlink:href="structcimg__library__suffixed_1_1_c_img.html#a06c5e27c1dde885a96cfdad05835644e" target="_top" xlink:title="cimg_library_suffixed\l::CImg\&lt; charT \&gt;::_save_rgb">
<polygon fill="#ffffff" stroke="#000000" points="459,-848 459,-878 599,-878 599,-848 459,-848"/>
<text text-anchor="start" x="467" y="-866" font-family="Helvetica,sans-Serif" font-size="10.00" fill="#000000">cimg_library_suffixed</text>
<text text-anchor="middle" x="529" y="-855" font-family="Helvetica,sans-Serif" font-size="10.00" fill="#000000">::CImg&lt; charT &gt;::_save_rgb</text>
</a>
</g>
</g>
<!-- Node4586&#45;&gt;Node4597 -->
<g id="edge14" class="edge">
<title>Node4586&#45;&gt;Node4597</title>
<path fill="none" stroke="#191970" d="M370.3307,-752.5672C388.1655,-777.4079 419.3585,-816.0512 455,-839 460.2236,-842.3634 465.9593,-845.2929 471.8543,-847.836"/>
<polygon fill="#191970" stroke="#191970" points="372.9921,-750.2668 364.3808,-744.0945 367.2635,-754.2896 372.9921,-750.2668"/>
</g>
<!-- Node4598 -->
<g id="node16" class="node">
<title>Node4598</title>
<g id="a_node16"><a xlink:href="structcimg__library__suffixed_1_1_c_img.html#a974a21a1c7242ff9b08e4590701d920d" target="_top" xlink:title="cimg_library_suffixed\l::CImg\&lt; charT \&gt;::_save_rgba">
<polygon fill="#ffffff" stroke="#000000" points="456,-799 456,-829 602,-829 602,-799 456,-799"/>
<text text-anchor="start" x="464" y="-817" font-family="Helvetica,sans-Serif" font-size="10.00" fill="#000000">cimg_library_suffixed</text>
<text text-anchor="middle" x="529" y="-806" font-family="Helvetica,sans-Serif" font-size="10.00" fill="#000000">::CImg&lt; charT &gt;::_save_rgba</text>
</a>
</g>
</g>
<!-- Node4586&#45;&gt;Node4598 -->
<g id="edge15" class="edge">
<title>Node4586&#45;&gt;Node4598</title>
<path fill="none" stroke="#191970" d="M384.9503,-749.4967C404.4149,-762.0071 430.5154,-777.7112 455,-789 462.7583,-792.577 471.1796,-795.9075 479.4678,-798.8962"/>
<polygon fill="#191970" stroke="#191970" points="386.7944,-746.521 376.5037,-744.0008 382.9767,-752.3883 386.7944,-746.521"/>
</g>
<!-- Node4599 -->
<g id="node17" class="node">
<title>Node4599</title>
<g id="a_node17"><a xlink:href="structcimg__library__suffixed_1_1_c_img_list.html#afa25415a30608d507bc22bd6b85b5c1e" target="_top" xlink:title="cimg_library_suffixed\l::CImgList\&lt; charT \&gt;::\l_save_yuv">
<polygon fill="#ffffff" stroke="#000000" points="473.5,-738.5 473.5,-779.5 584.5,-779.5 584.5,-738.5 473.5,-738.5"/>
<text text-anchor="start" x="481.5" y="-767.5" font-family="Helvetica,sans-Serif" font-size="10.00" fill="#000000">cimg_library_suffixed</text>
<text text-anchor="start" x="481.5" y="-756.5" font-family="Helvetica,sans-Serif" font-size="10.00" fill="#000000">::CImgList&lt; charT &gt;::</text>
<text text-anchor="middle" x="529" y="-745.5" font-family="Helvetica,sans-Serif" font-size="10.00" fill="#000000">_save_yuv</text>
</a>
</g>
</g>
<!-- Node4586&#45;&gt;Node4599 -->
<g id="edge16" class="edge">
<title>Node4586&#45;&gt;Node4599</title>
<path fill="none" stroke="#191970" d="M419.4691,-740.1695C437.1499,-743.2091 456.139,-746.4738 473.2586,-749.4169"/>
<polygon fill="#191970" stroke="#191970" points="419.6826,-736.6549 409.2341,-738.4099 418.4965,-743.5537 419.6826,-736.6549"/>
</g>
<!-- Node4600 -->
<g id="node18" class="node">
<title>Node4600</title>
<g id="a_node18"><a xlink:href="structcimg__library__suffixed_1_1_c_img.html#a09711118d3b31870942e99adbefffed1" target="_top" xlink:title="Save image as an ANALYZE7.5 or NIFTI file. ">
<polygon fill="#ffffff" stroke="#000000" points="471,-678.5 471,-719.5 587,-719.5 587,-678.5 471,-678.5"/>
<text text-anchor="start" x="479" y="-707.5" font-family="Helvetica,sans-Serif" font-size="10.00" fill="#000000">cimg_library_suffixed</text>
<text text-anchor="start" x="479" y="-696.5" font-family="Helvetica,sans-Serif" font-size="10.00" fill="#000000">::CImg&lt; charT &gt;::save</text>
<text text-anchor="middle" x="529" y="-685.5" font-family="Helvetica,sans-Serif" font-size="10.00" fill="#000000">_analyze</text>
</a>
</g>
</g>
<!-- Node4586&#45;&gt;Node4600 -->
<g id="edge17" class="edge">
<title>Node4586&#45;&gt;Node4600</title>
<path fill="none" stroke="#191970" d="M419.5371,-717.8188C436.369,-714.9251 454.3824,-711.8282 470.8372,-708.9993"/>
<polygon fill="#191970" stroke="#191970" points="418.4965,-714.4463 409.2341,-719.5901 419.6826,-721.3451 418.4965,-714.4463"/>
</g>
<!-- Node4601 -->
<g id="node19" class="node">
<title>Node4601</title>
<g id="a_node19"><a xlink:href="structcimg__library__suffixed_1_1_c_img.html#ad5fb082bca9bcc268e8f77019788ae51" target="_top" xlink:title="Save image as an OpenEXR file. ">
<polygon fill="#ffffff" stroke="#000000" points="461.5,-629 461.5,-659 596.5,-659 596.5,-629 461.5,-629"/>
<text text-anchor="start" x="469.5" y="-647" font-family="Helvetica,sans-Serif" font-size="10.00" fill="#000000">cimg_library_suffixed</text>
<text text-anchor="middle" x="529" y="-636" font-family="Helvetica,sans-Serif" font-size="10.00" fill="#000000">::CImg&lt; charT &gt;::save_exr</text>
</a>
</g>
</g>
<!-- Node4586&#45;&gt;Node4601 -->
<g id="edge18" class="edge">
<title>Node4586&#45;&gt;Node4601</title>
<path fill="none" stroke="#191970" d="M411.3386,-709.4758C413.9807,-708.0651 416.5494,-706.5736 419,-705 438.0402,-692.7741 435.7761,-680.9349 455,-669 461.1061,-665.2091 467.8556,-661.9164 474.7205,-659.078"/>
<polygon fill="#191970" stroke="#191970" points="409.5914,-706.4338 402.1379,-713.9635 412.6602,-712.7254 409.5914,-706.4338"/>
</g>
<!-- Node4602 -->
<g id="node20" class="node">
<title>Node4602</title>
<g id="a_node20"><a xlink:href="structcimg__library__suffixed_1_1_c_img.html#a3a8132f303e3295e0219ea4518c6ef20" target="_top" xlink:title="Save volumetric image as a video, using ffmpeg external binary. ">
<polygon fill="#ffffff" stroke="#000000" points="471,-568.5 471,-609.5 587,-609.5 587,-568.5 471,-568.5"/>
<text text-anchor="start" x="479" y="-597.5" font-family="Helvetica,sans-Serif" font-size="10.00" fill="#000000">cimg_library_suffixed</text>
<text text-anchor="start" x="479" y="-586.5" font-family="Helvetica,sans-Serif" font-size="10.00" fill="#000000">::CImg&lt; charT &gt;::save</text>
<text text-anchor="middle" x="529" y="-575.5" font-family="Helvetica,sans-Serif" font-size="10.00" fill="#000000">_ffmpeg_external</text>
</a>
</g>
</g>
<!-- Node4586&#45;&gt;Node4602 -->
<g id="edge19" class="edge">
<title>Node4586&#45;&gt;Node4602</title>
<path fill="none" stroke="#191970" d="M415.078,-708.4054C416.4424,-707.3266 417.7535,-706.1924 419,-705 448.6469,-676.6412 425.9333,-648.9531 455,-620 459.6382,-615.3799 465.0676,-611.4114 470.8414,-608.0108"/>
<polygon fill="#191970" stroke="#191970" points="413.1056,-705.514 406.7593,-713.9978 417.011,-711.3233 413.1056,-705.514"/>
</g>
<!-- Node4603 -->
<g id="node21" class="node">
<title>Node4603</title>
<g id="a_node21"><a xlink:href="structcimg__library__suffixed_1_1_c_img_list.html#af09a45345581747984f4df0607418f2c" target="_top" xlink:title="Save image sequence, using the external tool &#39;ffmpeg&#39;. ">
<polygon fill="#ffffff" stroke="#000000" points="472.5,-508.5 472.5,-549.5 585.5,-549.5 585.5,-508.5 472.5,-508.5"/>
<text text-anchor="start" x="480.5" y="-537.5" font-family="Helvetica,sans-Serif" font-size="10.00" fill="#000000">cimg_library_suffixed</text>
<text text-anchor="start" x="480.5" y="-526.5" font-family="Helvetica,sans-Serif" font-size="10.00" fill="#000000">::CImgList&lt; charT &gt;::</text>
<text text-anchor="middle" x="529" y="-515.5" font-family="Helvetica,sans-Serif" font-size="10.00" fill="#000000">save_ffmpeg_external</text>
</a>
</g>
</g>
<!-- Node4586&#45;&gt;Node4603 -->
<g id="edge20" class="edge">
<title>Node4586&#45;&gt;Node4603</title>
<path fill="none" stroke="#191970" d="M416.2578,-707.8169C417.212,-706.9166 418.1278,-705.9782 419,-705 463.477,-655.1165 411.2494,-609.5218 455,-559 459.8098,-553.4458 465.7998,-548.9056 472.2752,-545.1975"/>
<polygon fill="#191970" stroke="#191970" points="414.0414,-705.1065 408.2807,-713.9984 418.3291,-710.6397 414.0414,-705.1065"/>
</g>
<!-- Node4604 -->
<g id="node22" class="node">
<title>Node4604</title>
<g id="a_node22"><a xlink:href="structcimg__library__suffixed_1_1_c_img.html#a44f125968c20e8c7d833bf7d75c32db6" target="_top" xlink:title="Save image using GraphicsMagick&#39;s external binary. ">
<polygon fill="#ffffff" stroke="#000000" points="464,-448.5 464,-489.5 594,-489.5 594,-448.5 464,-448.5"/>
<text text-anchor="start" x="472" y="-477.5" font-family="Helvetica,sans-Serif" font-size="10.00" fill="#000000">cimg_library_suffixed</text>
<text text-anchor="start" x="472" y="-466.5" font-family="Helvetica,sans-Serif" font-size="10.00" fill="#000000">::CImg&lt; charT &gt;::save</text>
<text text-anchor="middle" x="529" y="-455.5" font-family="Helvetica,sans-Serif" font-size="10.00" fill="#000000">_graphicsmagick_external</text>
</a>
</g>
</g>
<!-- Node4586&#45;&gt;Node4604 -->
<g id="edge21" class="edge">
<title>Node4586&#45;&gt;Node4604</title>
<path fill="none" stroke="#191970" d="M417.071,-707.1621C417.7379,-706.4639 418.3816,-705.7435 419,-705 478.4332,-633.5429 396.6069,-571.3095 455,-499 457.8742,-495.4409 461.237,-492.3008 464.9147,-489.531"/>
<polygon fill="#191970" stroke="#191970" points="414.5484,-704.71 409.141,-713.8211 419.0499,-710.0707 414.5484,-704.71"/>
</g>
<!-- Node4605 -->
<g id="node23" class="node">
<title>Node4605</title>
<g id="a_node23"><a xlink:href="structcimg__library__suffixed_1_1_c_img.html#a53983bb4f1ebe2a817b68029b8c04cb1" target="_top" xlink:title="Save image using gzip external binary. ">
<polygon fill="#ffffff" stroke="#000000" points="471,-388.5 471,-429.5 587,-429.5 587,-388.5 471,-388.5"/>
<text text-anchor="start" x="479" y="-417.5" font-family="Helvetica,sans-Serif" font-size="10.00" fill="#000000">cimg_library_suffixed</text>
<text text-anchor="start" x="479" y="-406.5" font-family="Helvetica,sans-Serif" font-size="10.00" fill="#000000">::CImg&lt; charT &gt;::save</text>
<text text-anchor="middle" x="529" y="-395.5" font-family="Helvetica,sans-Serif" font-size="10.00" fill="#000000">_gzip_external</text>
</a>
</g>
</g>
<!-- Node4586&#45;&gt;Node4605 -->
<g id="edge22" class="edge">
<title>Node4586&#45;&gt;Node4605</title>
<path fill="none" stroke="#191970" d="M417.1115,-707.1952C417.7658,-706.4867 418.396,-705.7552 419,-705 493.5082,-611.828 381.8476,-533.2402 455,-439 459.3352,-433.4151 464.88,-428.8647 470.9804,-425.1584"/>
<polygon fill="#191970" stroke="#191970" points="414.5762,-704.7597 409.2858,-713.9391 419.1459,-710.0624 414.5762,-704.7597"/>
</g>
<!-- Node4606 -->
<g id="node24" class="node">
<title>Node4606</title>
<g id="a_node24"><a xlink:href="structcimg__library__suffixed_1_1_c_img.html#afbf8db949f62c8bd3f2f73ba3d9c1420" target="_top" xlink:title="Save image using ImageMagick&#39;s external binary. ">
<polygon fill="#ffffff" stroke="#000000" points="469.5,-328.5 469.5,-369.5 588.5,-369.5 588.5,-328.5 469.5,-328.5"/>
<text text-anchor="start" x="477.5" y="-357.5" font-family="Helvetica,sans-Serif" font-size="10.00" fill="#000000">cimg_library_suffixed</text>
<text text-anchor="start" x="477.5" y="-346.5" font-family="Helvetica,sans-Serif" font-size="10.00" fill="#000000">::CImg&lt; charT &gt;::save</text>
<text text-anchor="middle" x="529" y="-335.5" font-family="Helvetica,sans-Serif" font-size="10.00" fill="#000000">_imagemagick_external</text>
</a>
</g>
</g>
<!-- Node4586&#45;&gt;Node4606 -->
<g id="edge23" class="edge">
<title>Node4586&#45;&gt;Node4606</title>
<path fill="none" stroke="#191970" d="M416.7987,-707.5864C417.567,-706.7568 418.302,-705.8951 419,-705 508.6362,-590.0472 367.0364,-495.2377 455,-379 458.9317,-373.8045 463.9141,-369.5055 469.4288,-365.949"/>
<polygon fill="#191970" stroke="#191970" points="414.3858,-705.0452 409.0848,-714.2185 418.9493,-710.3531 414.3858,-705.0452"/>
</g>
<!-- Node4607 -->
<g id="node25" class="node">
<title>Node4607</title>
<g id="a_node25"><a xlink:href="structcimg__library__suffixed_1_1_c_img.html#a6beb63196c9a26f6894e4654f771c1e5" target="_top" xlink:title="Save image, using built&#45;in ImageMagick++ library. ">
<polygon fill="#ffffff" stroke="#000000" points="471,-268.5 471,-309.5 587,-309.5 587,-268.5 471,-268.5"/>
<text text-anchor="start" x="479" y="-297.5" font-family="Helvetica,sans-Serif" font-size="10.00" fill="#000000">cimg_library_suffixed</text>
<text text-anchor="start" x="479" y="-286.5" font-family="Helvetica,sans-Serif" font-size="10.00" fill="#000000">::CImg&lt; charT &gt;::save</text>
<text text-anchor="middle" x="529" y="-275.5" font-family="Helvetica,sans-Serif" font-size="10.00" fill="#000000">_magick</text>
</a>
</g>
</g>
<!-- Node4586&#45;&gt;Node4607 -->
<g id="edge24" class="edge">
<title>Node4586&#45;&gt;Node4607</title>
<path fill="none" stroke="#191970" d="M416.82,-707.6028C417.5817,-706.7682 418.3097,-705.901 419,-705 523.7922,-568.2305 352.1976,-457.2714 455,-319 459.2183,-313.3263 464.6928,-308.7225 470.7556,-304.9876"/>
<polygon fill="#191970" stroke="#191970" points="414.4016,-705.0675 409.1511,-714.2698 418.9943,-710.3502 414.4016,-705.0675"/>
</g>
<!-- Node4608 -->
<g id="node26" class="node">
<title>Node4608</title>
<g id="a_node26"><a xlink:href="structcimg__library__suffixed_1_1_c_img.html#a30d02c3d77fc43c8b5845e92268cdab5" target="_top" xlink:title="Save image as a Dicom file. ">
<polygon fill="#ffffff" stroke="#000000" points="471,-208.5 471,-249.5 587,-249.5 587,-208.5 471,-208.5"/>
<text text-anchor="start" x="479" y="-237.5" font-family="Helvetica,sans-Serif" font-size="10.00" fill="#000000">cimg_library_suffixed</text>
<text text-anchor="start" x="479" y="-226.5" font-family="Helvetica,sans-Serif" font-size="10.00" fill="#000000">::CImg&lt; charT &gt;::save</text>
<text text-anchor="middle" x="529" y="-215.5" font-family="Helvetica,sans-Serif" font-size="10.00" fill="#000000">_medcon_external</text>
</a>
</g>
</g>
<!-- Node4586&#45;&gt;Node4608 -->
<g id="edge25" class="edge">
<title>Node4586&#45;&gt;Node4608</title>
<path fill="none" stroke="#191970" d="M416.8356,-707.6147C417.5926,-706.7764 418.3153,-705.9053 419,-705 478.9824,-625.696 396.1712,-339.1635 455,-259 459.1829,-253.3001 464.6361,-248.6806 470.6875,-244.9373"/>
<polygon fill="#191970" stroke="#191970" points="414.4134,-705.0836 409.2001,-714.3071 419.0273,-710.3478 414.4134,-705.0836"/>
</g>
<!-- Node4609 -->
<g id="node27" class="node">
<title>Node4609</title>
<g id="a_node27"><a xlink:href="structcimg__library__suffixed_1_1_c_img.html#ab3b2aa455cd56ce20a03cb0b68ca68fc" target="_top" xlink:title="Save image as a MINC2 file. ">
<polygon fill="#ffffff" stroke="#000000" points="455,-159 455,-189 603,-189 603,-159 455,-159"/>
<text text-anchor="start" x="463" y="-177" font-family="Helvetica,sans-Serif" font-size="10.00" fill="#000000">cimg_library_suffixed</text>
<text text-anchor="middle" x="529" y="-166" font-family="Helvetica,sans-Serif" font-size="10.00" fill="#000000">::CImg&lt; charT &gt;::save_minc2</text>
</a>
</g>
</g>
<!-- Node4586&#45;&gt;Node4609 -->
<g id="edge26" class="edge">
<title>Node4586&#45;&gt;Node4609</title>
<path fill="none" stroke="#191970" d="M416.8476,-707.6237C417.6009,-706.7827 418.3196,-705.9085 419,-705 486.5741,-614.7698 386.0613,-288.192 455,-199 457.9854,-195.1375 461.5946,-191.8669 465.593,-189.0982"/>
<polygon fill="#191970" stroke="#191970" points="414.4225,-705.0958 409.2376,-714.3353 419.0526,-710.3458 414.4225,-705.0958"/>
</g>
<!-- Node4610 -->
<g id="node28" class="node">
<title>Node4610</title>
<g id="a_node28"><a xlink:href="structcimg__library__suffixed_1_1_c_img.html#a6b77dc615829820ba0675409feaef3d8" target="_top" xlink:title="cimg_library_suffixed\l::CImg\&lt; charT \&gt;::save_other">
<polygon fill="#ffffff" stroke="#000000" points="457.5,-110 457.5,-140 600.5,-140 600.5,-110 457.5,-110"/>
<text text-anchor="start" x="465.5" y="-128" font-family="Helvetica,sans-Serif" font-size="10.00" fill="#000000">cimg_library_suffixed</text>
<text text-anchor="middle" x="529" y="-117" font-family="Helvetica,sans-Serif" font-size="10.00" fill="#000000">::CImg&lt; charT &gt;::save_other</text>
</a>
</g>
</g>
<!-- Node4586&#45;&gt;Node4610 -->
<g id="edge27" class="edge">
<title>Node4586&#45;&gt;Node4610</title>
<path fill="none" stroke="#191970" d="M416.8555,-707.6296C417.6064,-706.7868 418.3224,-705.9106 419,-705 492.7767,-605.843 379.7237,-248.0234 455,-150 457.9734,-146.1282 461.5738,-142.8509 465.5663,-140.0775"/>
<polygon fill="#191970" stroke="#191970" points="414.4285,-705.1038 409.2624,-714.3538 419.0693,-710.3444 414.4285,-705.1038"/>
</g>
<!-- Node4611 -->
<g id="node29" class="node">
<title>Node4611</title>
<g id="a_node29"><a xlink:href="structcimg__library__suffixed_1_1_c_img.html#a87e93148404e8d79b7b5218e58eabf3c" target="_top" xlink:title="Save image as a TIFF file. ">
<polygon fill="#ffffff" stroke="#000000" points="462.5,-61 462.5,-91 595.5,-91 595.5,-61 462.5,-61"/>
<text text-anchor="start" x="470.5" y="-79" font-family="Helvetica,sans-Serif" font-size="10.00" fill="#000000">cimg_library_suffixed</text>
<text text-anchor="middle" x="529" y="-68" font-family="Helvetica,sans-Serif" font-size="10.00" fill="#000000">::CImg&lt; charT &gt;::save_tiff</text>
</a>
</g>
</g>
<!-- Node4586&#45;&gt;Node4611 -->
<g id="edge28" class="edge">
<title>Node4586&#45;&gt;Node4611</title>
<path fill="none" stroke="#191970" d="M416.8622,-707.6346C417.611,-706.7902 418.3248,-705.9124 419,-705 498.9811,-596.9138 373.3842,-207.8572 455,-101 457.9632,-97.1204 461.5564,-93.8375 465.5437,-91.0603"/>
<polygon fill="#191970" stroke="#191970" points="414.4335,-705.1105 409.2831,-714.3692 419.0832,-710.3431 414.4335,-705.1105"/>
</g>
<!-- Node4612 -->
<g id="node30" class="node">
<title>Node4612</title>
<g id="a_node30"><a xlink:href="structcimg__library__suffixed_1_1_c_img_list.html#a62700a17bb0af63522c732b9d1a15325" target="_top" xlink:title="Save list as a TIFF file. ">
<polygon fill="#ffffff" stroke="#000000" points="473.5,-.5 473.5,-41.5 584.5,-41.5 584.5,-.5 473.5,-.5"/>
<text text-anchor="start" x="481.5" y="-29.5" font-family="Helvetica,sans-Serif" font-size="10.00" fill="#000000">cimg_library_suffixed</text>
<text text-anchor="start" x="481.5" y="-18.5" font-family="Helvetica,sans-Serif" font-size="10.00" fill="#000000">::CImgList&lt; charT &gt;::</text>
<text text-anchor="middle" x="529" y="-7.5" font-family="Helvetica,sans-Serif" font-size="10.00" fill="#000000">save_tiff</text>
</a>
</g>
</g>
<!-- Node4586&#45;&gt;Node4612 -->
<g id="edge29" class="edge">
<title>Node4586&#45;&gt;Node4612</title>
<path fill="none" stroke="#191970" d="M416.8089,-707.7055C417.5774,-706.8394 418.3092,-705.938 419,-705 505.3136,-587.8004 370.3911,-169.4361 455,-51 459.7544,-44.3447 466.2479,-39.1636 473.4264,-35.1307"/>
<polygon fill="#191970" stroke="#191970" points="414.1909,-705.3479 409.0089,-714.589 418.8227,-710.5964 414.1909,-705.3479"/>
</g>
</g>
</svg>
