<?xml version="1.0" encoding="UTF-8" standalone="no"?>
<!DOCTYPE svg PUBLIC "-//W3C//DTD SVG 1.1//EN"
 "http://www.w3.org/Graphics/SVG/1.1/DTD/svg11.dtd">
<!-- Generated by graphviz version 2.40.1 (20161225.0304)
 -->
<!-- Title: cimg_library_suffixed::cimg::srand Pages: 1 -->
<!--zoomable 251 -->
<svg id="main" version="1.1" xmlns="http://www.w3.org/2000/svg" xmlns:xlink="http://www.w3.org/1999/xlink" xml:space="preserve" onload="init(evt)">
<style type="text/css"><![CDATA[
.edge:hover path { stroke: red; }
.edge:hover polygon { stroke: red; fill: red; }
]]></style>
<script type="text/javascript"><![CDATA[
var edges = document.getElementsByTagName('g');
if (edges && edges.length) {
  for (var i=0;i<edges.length;i++) {
    if (edges[i].id.substr(0,4)=='edge') {
      edges[i].setAttribute('class','edge');
    }
  }
}
]]></script>
        <defs>
                <circle id="rim" cx="0" cy="0" r="7"/>
                <circle id="rim2" cx="0" cy="0" r="3.5"/>
                <g id="zoomPlus">
                        <use xlink:href="#rim" fill="#404040">
                                <set attributeName="fill" to="#808080" begin="zoomplus.mouseover" end="zoomplus.mouseout"/>
                        </use>
                        <path d="M-4,0h8M0,-4v8" fill="none" stroke="white" stroke-width="1.5" pointer-events="none"/>
                </g>
                <g id="zoomMin">
                        <use xlink:href="#rim" fill="#404040">
                                <set attributeName="fill" to="#808080" begin="zoomminus.mouseover" end="zoomminus.mouseout"/>
                        </use>
                        <path d="M-4,0h8" fill="none" stroke="white" stroke-width="1.5" pointer-events="none"/>
                </g>
                <g id="dirArrow">
                        <path fill="none" stroke="white" stroke-width="1.5" d="M0,-3.0v7 M-2.5,-0.5L0,-3.0L2.5,-0.5"/>
                </g>
               <g id="resetDef">
                       <use xlink:href="#rim2" fill="#404040">
                               <set attributeName="fill" to="#808080" begin="reset.mouseover" end="reset.mouseout"/>
                       </use>
               </g>
        </defs>

<script type="text/javascript">
var viewWidth = 1765;
var viewHeight = 251;
var sectionId = 'dynsection-149';
</script>
<script xlink:href="svgpan.js"/>
<svg id="graph" class="graph">
<g id="viewport">
<title>cimg_library_suffixed::cimg::srand</title>
<polygon fill="#ffffff" stroke="transparent" points="-4,4 -4,-246.7982 1761,-246.7982 1761,4 -4,4"/>
<!-- Node3550 -->
<g id="node1" class="node">
<title>Node3550</title>
<polygon fill="#bfbfbf" stroke="#000000" points="0,-187.2982 0,-217.2982 109,-217.2982 109,-187.2982 0,-187.2982"/>
<text text-anchor="start" x="8" y="-205.2982" font-family="Helvetica,sans-Serif" font-size="10.00" fill="#000000">cimg_library_suffixed</text>
<text text-anchor="middle" x="54.5" y="-194.2982" font-family="Helvetica,sans-Serif" font-size="10.00" fill="#000000">::cimg::srand</text>
</g>
<!-- Node3551 -->
<g id="node2" class="node">
<title>Node3551</title>
<g id="a_node2"><a xlink:href="namespacecimg__library__suffixed_1_1cimg.html#abae779a6d52b74e3a46e75a6c5b6e49e" target="_top" xlink:title="cimg_library_suffixed\l::cimg::srand">
<polygon fill="#ffffff" stroke="#000000" points="145,-212.2982 145,-242.2982 254,-242.2982 254,-212.2982 145,-212.2982"/>
<text text-anchor="start" x="153" y="-230.2982" font-family="Helvetica,sans-Serif" font-size="10.00" fill="#000000">cimg_library_suffixed</text>
<text text-anchor="middle" x="199.5" y="-219.2982" font-family="Helvetica,sans-Serif" font-size="10.00" fill="#000000">::cimg::srand</text>
</a>
</g>
</g>
<!-- Node3550&#45;&gt;Node3551 -->
<g id="edge1" class="edge">
<title>Node3550&#45;&gt;Node3551</title>
<path fill="none" stroke="#191970" d="M109.3183,-211.7497C117.6188,-213.1808 126.2486,-214.6687 134.7354,-216.1319"/>
<polygon fill="#191970" stroke="#191970" points="134.1549,-219.5834 144.6042,-217.8334 135.3443,-212.6852 134.1549,-219.5834"/>
</g>
<!-- Node3552 -->
<g id="node3" class="node">
<title>Node3552</title>
<g id="a_node3"><a xlink:href="namespacecimg__library__suffixed_1_1cimg.html#a71a3c7b37befc7a4313dfcdd80271bce" target="_top" xlink:title="Return the value of a system timer, with a millisecond precision. ">
<polygon fill="#ffffff" stroke="#000000" points="145,-163.2982 145,-193.2982 254,-193.2982 254,-163.2982 145,-163.2982"/>
<text text-anchor="start" x="153" y="-181.2982" font-family="Helvetica,sans-Serif" font-size="10.00" fill="#000000">cimg_library_suffixed</text>
<text text-anchor="middle" x="199.5" y="-170.2982" font-family="Helvetica,sans-Serif" font-size="10.00" fill="#000000">::cimg::time</text>
</a>
</g>
</g>
<!-- Node3550&#45;&gt;Node3552 -->
<g id="edge2" class="edge">
<title>Node3550&#45;&gt;Node3552</title>
<path fill="none" stroke="#191970" d="M109.3183,-193.2249C117.6188,-191.851 126.2486,-190.4226 134.7354,-189.0179"/>
<polygon fill="#191970" stroke="#191970" points="135.31,-192.4705 144.6042,-187.3844 134.1669,-185.5644 135.31,-192.4705"/>
</g>
<!-- Node3553 -->
<g id="node4" class="node">
<title>Node3553</title>
<g id="a_node4"><a xlink:href="namespacecimg__library__suffixed_1_1cimg.html#ab47e3a7718b582df77725470f3824eb4" target="_top" xlink:title="cimg_library_suffixed\l::cimg::tictoc">
<polygon fill="#ffffff" stroke="#000000" points="290,-163.2982 290,-193.2982 399,-193.2982 399,-163.2982 290,-163.2982"/>
<text text-anchor="start" x="298" y="-181.2982" font-family="Helvetica,sans-Serif" font-size="10.00" fill="#000000">cimg_library_suffixed</text>
<text text-anchor="middle" x="344.5" y="-170.2982" font-family="Helvetica,sans-Serif" font-size="10.00" fill="#000000">::cimg::tictoc</text>
</a>
</g>
</g>
<!-- Node3552&#45;&gt;Node3553 -->
<g id="edge3" class="edge">
<title>Node3552&#45;&gt;Node3553</title>
<path fill="none" stroke="#191970" d="M254.3183,-171.7299C262.5286,-171.5581 271.0611,-171.5081 279.4586,-171.5801"/>
<polygon fill="#191970" stroke="#191970" points="279.5541,-175.0817 289.6042,-171.7283 279.6564,-168.0825 279.5541,-175.0817"/>
</g>
<!-- Node3553&#45;&gt;Node3552 -->
<g id="edge10" class="edge">
<title>Node3553&#45;&gt;Node3552</title>
<path fill="none" stroke="#191970" d="M289.6042,-184.8682C281.3919,-185.0392 272.8588,-185.0884 264.4621,-185.0157"/>
<polygon fill="#191970" stroke="#191970" points="264.3687,-181.514 254.3183,-184.8665 264.2657,-188.5133 264.3687,-181.514"/>
</g>
<!-- Node3554 -->
<g id="node5" class="node">
<title>Node3554</title>
<g id="a_node5"><a xlink:href="namespacecimg__library__suffixed_1_1cimg.html#a9e739e4b4ac058abfba069466617b914" target="_top" xlink:title="cimg_library_suffixed\l::cimg::mutex">
<polygon fill="#ffffff" stroke="#000000" points="1334,-128.2982 1334,-158.2982 1443,-158.2982 1443,-128.2982 1334,-128.2982"/>
<text text-anchor="start" x="1342" y="-146.2982" font-family="Helvetica,sans-Serif" font-size="10.00" fill="#000000">cimg_library_suffixed</text>
<text text-anchor="middle" x="1388.5" y="-135.2982" font-family="Helvetica,sans-Serif" font-size="10.00" fill="#000000">::cimg::mutex</text>
</a>
</g>
</g>
<!-- Node3553&#45;&gt;Node3554 -->
<g id="edge4" class="edge">
<title>Node3553&#45;&gt;Node3554</title>
<path fill="none" stroke="#191970" d="M399.1927,-184.9288C457.4251,-191.4065 552.3244,-200.2982 634.5,-200.2982 634.5,-200.2982 634.5,-200.2982 1098.5,-200.2982 1180.8364,-200.2982 1273.8952,-177.9025 1331.8837,-161.1874"/>
<polygon fill="#191970" stroke="#191970" points="1332.9718,-164.5158 1341.5869,-158.3489 1331.0064,-157.7974 1332.9718,-164.5158"/>
</g>
<!-- Node3559 -->
<g id="node10" class="node">
<title>Node3559</title>
<g id="a_node10"><a xlink:href="namespacecimg__library__suffixed_1_1cimg.html#ada686776cc71803df391eea79cd1b3e5" target="_top" xlink:title="Get/set default output stream for the &#160;library messages. ">
<polygon fill="#ffffff" stroke="#000000" points="435,-141.2982 435,-171.2982 544,-171.2982 544,-141.2982 435,-141.2982"/>
<text text-anchor="start" x="443" y="-159.2982" font-family="Helvetica,sans-Serif" font-size="10.00" fill="#000000">cimg_library_suffixed</text>
<text text-anchor="middle" x="489.5" y="-148.2982" font-family="Helvetica,sans-Serif" font-size="10.00" fill="#000000">::cimg::output</text>
</a>
</g>
</g>
<!-- Node3553&#45;&gt;Node3559 -->
<g id="edge11" class="edge">
<title>Node3553&#45;&gt;Node3559</title>
<path fill="none" stroke="#191970" d="M399.3183,-169.981C407.5286,-168.7353 416.0611,-167.4407 424.4586,-166.1666"/>
<polygon fill="#191970" stroke="#191970" points="425.2424,-169.5878 434.6042,-164.6272 424.1923,-162.667 425.2424,-169.5878"/>
</g>
<!-- Node3555 -->
<g id="node6" class="node">
<title>Node3555</title>
<g id="a_node6"><a xlink:href="structcimg__library__suffixed_1_1cimg_1_1_mutex__info.html#a6cc8e26847a1aa649febed03d70182e7" target="_top" xlink:title="cimg_library_suffixed\l::cimg::Mutex_info::lock">
<polygon fill="#ffffff" stroke="#000000" points="1484.5,-194.2982 1484.5,-224.2982 1606.5,-224.2982 1606.5,-194.2982 1484.5,-194.2982"/>
<text text-anchor="start" x="1492.5" y="-212.2982" font-family="Helvetica,sans-Serif" font-size="10.00" fill="#000000">cimg_library_suffixed</text>
<text text-anchor="middle" x="1545.5" y="-201.2982" font-family="Helvetica,sans-Serif" font-size="10.00" fill="#000000">::cimg::Mutex_info::lock</text>
</a>
</g>
</g>
<!-- Node3554&#45;&gt;Node3555 -->
<g id="edge5" class="edge">
<title>Node3554&#45;&gt;Node3555</title>
<path fill="none" stroke="#191970" d="M1424.519,-158.44C1447.0569,-167.9145 1476.2804,-180.1995 1500.3593,-190.3219"/>
<polygon fill="#191970" stroke="#191970" points="1499.0737,-193.5781 1509.6486,-194.2269 1501.7864,-187.1251 1499.0737,-193.5781"/>
</g>
<!-- Node3556 -->
<g id="node7" class="node">
<title>Node3556</title>
<g id="a_node7"><a xlink:href="namespacecimg__library__suffixed_1_1cimg.html#aa0e1bc96ae6e235dc5b67b8b0a466166" target="_top" xlink:title="cimg_library_suffixed\l::cimg::Mutex_attr">
<polygon fill="#ffffff" stroke="#000000" points="1648,-128.2982 1648,-158.2982 1757,-158.2982 1757,-128.2982 1648,-128.2982"/>
<text text-anchor="start" x="1656" y="-146.2982" font-family="Helvetica,sans-Serif" font-size="10.00" fill="#000000">cimg_library_suffixed</text>
<text text-anchor="middle" x="1702.5" y="-135.2982" font-family="Helvetica,sans-Serif" font-size="10.00" fill="#000000">::cimg::Mutex_attr</text>
</a>
</g>
</g>
<!-- Node3554&#45;&gt;Node3556 -->
<g id="edge6" class="edge">
<title>Node3554&#45;&gt;Node3556</title>
<path fill="none" stroke="#191970" d="M1443.0491,-145.3989C1454.8995,-145.7735 1467.3685,-146.1055 1479,-146.2982 1538.103,-147.2776 1552.897,-147.2776 1612,-146.2982 1620.3602,-146.1597 1629.1529,-145.9492 1637.8377,-145.7027"/>
<polygon fill="#191970" stroke="#191970" points="1638.0605,-149.1977 1647.9509,-145.3989 1637.8502,-142.2008 1638.0605,-149.1977"/>
</g>
<!-- Node3557 -->
<g id="node8" class="node">
<title>Node3557</title>
<g id="a_node8"><a xlink:href="structcimg__library__suffixed_1_1cimg_1_1_mutex__info.html#a9bf4ed1e1dfe6f28fa6250cd04f3c900" target="_top" xlink:title="cimg_library_suffixed\l::cimg::Mutex_info::trylock">
<polygon fill="#ffffff" stroke="#000000" points="1479,-106.2982 1479,-136.2982 1612,-136.2982 1612,-106.2982 1479,-106.2982"/>
<text text-anchor="start" x="1487" y="-124.2982" font-family="Helvetica,sans-Serif" font-size="10.00" fill="#000000">cimg_library_suffixed</text>
<text text-anchor="middle" x="1545.5" y="-113.2982" font-family="Helvetica,sans-Serif" font-size="10.00" fill="#000000">::cimg::Mutex_info::trylock</text>
</a>
</g>
</g>
<!-- Node3554&#45;&gt;Node3557 -->
<g id="edge7" class="edge">
<title>Node3554&#45;&gt;Node3557</title>
<path fill="none" stroke="#191970" d="M1443.411,-135.6037C1451.6098,-134.4548 1460.187,-133.2529 1468.7367,-132.0549"/>
<polygon fill="#191970" stroke="#191970" points="1469.3189,-135.5076 1478.7365,-130.6536 1468.3475,-128.5753 1469.3189,-135.5076"/>
</g>
<!-- Node3558 -->
<g id="node9" class="node">
<title>Node3558</title>
<g id="a_node9"><a xlink:href="structcimg__library__suffixed_1_1cimg_1_1_mutex__info.html#afac3fa5f107ad4795fb867050f616555" target="_top" xlink:title="cimg_library_suffixed\l::cimg::Mutex_info::unlock">
<polygon fill="#ffffff" stroke="#000000" points="1479.5,-57.2982 1479.5,-87.2982 1611.5,-87.2982 1611.5,-57.2982 1479.5,-57.2982"/>
<text text-anchor="start" x="1487.5" y="-75.2982" font-family="Helvetica,sans-Serif" font-size="10.00" fill="#000000">cimg_library_suffixed</text>
<text text-anchor="middle" x="1545.5" y="-64.2982" font-family="Helvetica,sans-Serif" font-size="10.00" fill="#000000">::cimg::Mutex_info::unlock</text>
</a>
</g>
</g>
<!-- Node3554&#45;&gt;Node3558 -->
<g id="edge9" class="edge">
<title>Node3554&#45;&gt;Node3558</title>
<path fill="none" stroke="#191970" d="M1416.2433,-128.1895C1433.9588,-118.7947 1457.5479,-106.7479 1479,-97.2982 1483.746,-95.2076 1488.727,-93.1293 1493.7376,-91.1157"/>
<polygon fill="#191970" stroke="#191970" points="1495.3284,-94.2512 1503.3561,-87.3369 1492.7688,-87.736 1495.3284,-94.2512"/>
</g>
<!-- Node3557&#45;&gt;Node3556 -->
<g id="edge8" class="edge">
<title>Node3557&#45;&gt;Node3556</title>
<path fill="none" stroke="#191970" d="M1612.0821,-130.6282C1620.5193,-131.8105 1629.1445,-133.0191 1637.5556,-134.1977"/>
<polygon fill="#191970" stroke="#191970" points="1637.293,-137.6951 1647.682,-135.6167 1638.2645,-130.7628 1637.293,-137.6951"/>
</g>
<!-- Node3559&#45;&gt;Node3554 -->
<g id="edge25" class="edge">
<title>Node3559&#45;&gt;Node3554</title>
<path fill="none" stroke="#191970" d="M544.0486,-158.066C603.4344,-159.8358 701.2049,-162.2982 785.5,-162.2982 785.5,-162.2982 785.5,-162.2982 1098.5,-162.2982 1175.9647,-162.2982 1264.8203,-155.4643 1323.5413,-149.9935"/>
<polygon fill="#191970" stroke="#191970" points="1324.1576,-153.4509 1333.7835,-149.0246 1323.4982,-146.4821 1324.1576,-153.4509"/>
</g>
<!-- Node3560 -->
<g id="node11" class="node">
<title>Node3560</title>
<g id="a_node11"><a xlink:href="namespacecimg__library__suffixed_1_1cimg.html#aab8db7528c32a8fd3a3dc471e662782e" target="_top" xlink:title="cimg_library_suffixed\l::cimg::_stderr">
<polygon fill="#ffffff" stroke="#000000" points="580,-76.2982 580,-106.2982 689,-106.2982 689,-76.2982 580,-76.2982"/>
<text text-anchor="start" x="588" y="-94.2982" font-family="Helvetica,sans-Serif" font-size="10.00" fill="#000000">cimg_library_suffixed</text>
<text text-anchor="middle" x="634.5" y="-83.2982" font-family="Helvetica,sans-Serif" font-size="10.00" fill="#000000">::cimg::_stderr</text>
</a>
</g>
</g>
<!-- Node3559&#45;&gt;Node3560 -->
<g id="edge12" class="edge">
<title>Node3559&#45;&gt;Node3560</title>
<path fill="none" stroke="#191970" d="M523.1304,-141.2225C543.463,-132.1079 569.5864,-120.3974 591.4218,-110.6091"/>
<polygon fill="#191970" stroke="#191970" points="593.1078,-113.689 600.8012,-106.4046 590.2443,-107.3014 593.1078,-113.689"/>
</g>
<!-- Node3561 -->
<g id="node12" class="node">
<title>Node3561</title>
<g id="a_node12"><a xlink:href="namespacecimg__library__suffixed_1_1cimg.html#aeafab144366eddd11360f32f468fa4af" target="_top" xlink:title="Set current &#160;exception mode. ">
<polygon fill="#ffffff" stroke="#000000" points="725,-54.2982 725,-84.2982 846,-84.2982 846,-54.2982 725,-54.2982"/>
<text text-anchor="start" x="733" y="-72.2982" font-family="Helvetica,sans-Serif" font-size="10.00" fill="#000000">cimg_library_suffixed</text>
<text text-anchor="middle" x="785.5" y="-61.2982" font-family="Helvetica,sans-Serif" font-size="10.00" fill="#000000">::cimg::exception_mode</text>
</a>
</g>
</g>
<!-- Node3560&#45;&gt;Node3561 -->
<g id="edge13" class="edge">
<title>Node3560&#45;&gt;Node3561</title>
<path fill="none" stroke="#191970" d="M689.0145,-83.3557C697.3935,-82.1349 706.1471,-80.8596 714.8158,-79.5966"/>
<polygon fill="#191970" stroke="#191970" points="715.5345,-83.0289 724.9254,-78.1237 714.5253,-76.102 715.5345,-83.0289"/>
</g>
<!-- Node3564 -->
<g id="node15" class="node">
<title>Node3564</title>
<g id="a_node15"><a xlink:href="namespacecimg__library__suffixed_1_1cimg.html#a79aef0cbcf66ceb71c2b74cb66b4deb2" target="_top" xlink:title="Avoid warning messages due to unused parameters. Do nothing actually. ">
<polygon fill="#ffffff" stroke="#000000" points="1189,-41.2982 1189,-71.2982 1298,-71.2982 1298,-41.2982 1189,-41.2982"/>
<text text-anchor="start" x="1197" y="-59.2982" font-family="Helvetica,sans-Serif" font-size="10.00" fill="#000000">cimg_library_suffixed</text>
<text text-anchor="middle" x="1243.5" y="-48.2982" font-family="Helvetica,sans-Serif" font-size="10.00" fill="#000000">::cimg::unused</text>
</a>
</g>
</g>
<!-- Node3560&#45;&gt;Node3564 -->
<g id="edge24" class="edge">
<title>Node3560&#45;&gt;Node3564</title>
<path fill="none" stroke="#191970" d="M657.6896,-76.2661C675.4015,-65.5424 700.8045,-51.7504 725,-44.2982 861.4545,-2.2702 901.4707,-14.7575 1044,-6.2982 1092.3593,-3.428 1106.0902,5.7986 1153,-6.2982 1175.2024,-12.0236 1197.7796,-24.4837 1214.8301,-35.5323"/>
<polygon fill="#191970" stroke="#191970" points="1212.9534,-38.4878 1223.2114,-41.1382 1216.8452,-32.6693 1212.9534,-38.4878"/>
</g>
<!-- Node3562 -->
<g id="node13" class="node">
<title>Node3562</title>
<g id="a_node13"><a xlink:href="namespacecimg__library__suffixed_1_1cimg.html#a6c578f866de2be9be7e385d693c758c8" target="_top" xlink:title="cimg_library_suffixed\l::cimg::_exception_mode">
<polygon fill="#ffffff" stroke="#000000" points="882,-98.2982 882,-128.2982 1008,-128.2982 1008,-98.2982 882,-98.2982"/>
<text text-anchor="start" x="890" y="-116.2982" font-family="Helvetica,sans-Serif" font-size="10.00" fill="#000000">cimg_library_suffixed</text>
<text text-anchor="middle" x="945" y="-105.2982" font-family="Helvetica,sans-Serif" font-size="10.00" fill="#000000">::cimg::_exception_mode</text>
</a>
</g>
</g>
<!-- Node3561&#45;&gt;Node3562 -->
<g id="edge14" class="edge">
<title>Node3561&#45;&gt;Node3562</title>
<path fill="none" stroke="#191970" d="M839.9447,-84.3175C853.0889,-87.9434 867.2562,-91.8517 880.8009,-95.5881"/>
<polygon fill="#191970" stroke="#191970" points="879.9593,-98.9866 890.53,-98.272 881.8209,-92.2387 879.9593,-98.9866"/>
</g>
<!-- Node3562&#45;&gt;Node3554 -->
<g id="edge23" class="edge">
<title>Node3562&#45;&gt;Node3554</title>
<path fill="none" stroke="#191970" d="M1008.0717,-117.5646C1091.8352,-123.2307 1239.0329,-133.1877 1323.6723,-138.913"/>
<polygon fill="#191970" stroke="#191970" points="1323.4621,-142.4067 1333.6756,-139.5897 1323.9346,-135.4227 1323.4621,-142.4067"/>
</g>
<!-- Node3562&#45;&gt;Node3560 -->
<g id="edge15" class="edge">
<title>Node3562&#45;&gt;Node3560</title>
<path fill="none" stroke="#191970" d="M881.9297,-108.8295C828.7813,-105.0637 753.037,-99.697 699.383,-95.8954"/>
<polygon fill="#191970" stroke="#191970" points="699.5188,-92.3963 689.2964,-95.1807 699.024,-99.3788 699.5188,-92.3963"/>
</g>
<!-- Node3563 -->
<g id="node14" class="node">
<title>Node3563</title>
<g id="a_node14"><a xlink:href="namespacecimg__library__suffixed_1_1cimg.html#a01a3b743897290604513ea6d847c9886" target="_top" xlink:title="cimg_library_suffixed\l::cimg::_stdin">
<polygon fill="#ffffff" stroke="#000000" points="1044,-16.2982 1044,-46.2982 1153,-46.2982 1153,-16.2982 1044,-16.2982"/>
<text text-anchor="start" x="1052" y="-34.2982" font-family="Helvetica,sans-Serif" font-size="10.00" fill="#000000">cimg_library_suffixed</text>
<text text-anchor="middle" x="1098.5" y="-23.2982" font-family="Helvetica,sans-Serif" font-size="10.00" fill="#000000">::cimg::_stdin</text>
</a>
</g>
</g>
<!-- Node3562&#45;&gt;Node3563 -->
<g id="edge16" class="edge">
<title>Node3562&#45;&gt;Node3563</title>
<path fill="none" stroke="#191970" d="M969.8737,-98.123C989.6847,-86.2456 1018.2663,-69.5728 1044,-56.2982 1047.5416,-54.4713 1051.2426,-52.6318 1054.9763,-50.8242"/>
<polygon fill="#191970" stroke="#191970" points="1056.7183,-53.8717 1064.2521,-46.4224 1053.7171,-47.5477 1056.7183,-53.8717"/>
</g>
<!-- Node3565 -->
<g id="node16" class="node">
<title>Node3565</title>
<g id="a_node16"><a xlink:href="namespacecimg__library__suffixed_1_1cimg.html#a493220746e5df3466568bd7862825008" target="_top" xlink:title="cimg_library_suffixed\l::cimg::_stdout">
<polygon fill="#ffffff" stroke="#000000" points="1044,-65.2982 1044,-95.2982 1153,-95.2982 1153,-65.2982 1044,-65.2982"/>
<text text-anchor="start" x="1052" y="-83.2982" font-family="Helvetica,sans-Serif" font-size="10.00" fill="#000000">cimg_library_suffixed</text>
<text text-anchor="middle" x="1098.5" y="-72.2982" font-family="Helvetica,sans-Serif" font-size="10.00" fill="#000000">::cimg::_stdout</text>
</a>
</g>
</g>
<!-- Node3562&#45;&gt;Node3565 -->
<g id="edge20" class="edge">
<title>Node3562&#45;&gt;Node3565</title>
<path fill="none" stroke="#191970" d="M1008.3205,-99.6853C1016.7493,-97.8733 1025.4012,-96.0133 1033.8522,-94.1965"/>
<polygon fill="#191970" stroke="#191970" points="1034.6143,-97.6127 1043.6553,-92.0889 1033.143,-90.769 1034.6143,-97.6127"/>
</g>
<!-- Node3563&#45;&gt;Node3561 -->
<g id="edge17" class="edge">
<title>Node3563&#45;&gt;Node3561</title>
<path fill="none" stroke="#191970" d="M1043.9666,-37.9189C991.8805,-44.2424 913.1092,-53.8057 856.2205,-60.7123"/>
<polygon fill="#191970" stroke="#191970" points="855.7259,-57.2466 846.2207,-61.9264 856.5696,-64.1956 855.7259,-57.2466"/>
</g>
<!-- Node3563&#45;&gt;Node3564 -->
<g id="edge18" class="edge">
<title>Node3563&#45;&gt;Node3564</title>
<path fill="none" stroke="#191970" d="M1153.3183,-40.7497C1161.6188,-42.1808 1170.2486,-43.6687 1178.7354,-45.1319"/>
<polygon fill="#191970" stroke="#191970" points="1178.1549,-48.5834 1188.6042,-46.8334 1179.3443,-41.6852 1178.1549,-48.5834"/>
</g>
<!-- Node3564&#45;&gt;Node3554 -->
<g id="edge19" class="edge">
<title>Node3564&#45;&gt;Node3554</title>
<path fill="none" stroke="#191970" d="M1268.7571,-71.4525C1292.4188,-85.6495 1327.9718,-106.9813 1354.1945,-122.7149"/>
<polygon fill="#191970" stroke="#191970" points="1352.6702,-125.882 1363.0458,-128.0257 1356.2717,-119.8795 1352.6702,-125.882"/>
</g>
<!-- Node3565&#45;&gt;Node3561 -->
<g id="edge21" class="edge">
<title>Node3565&#45;&gt;Node3561</title>
<path fill="none" stroke="#191970" d="M1043.9666,-78.3817C991.8805,-76.5512 913.1092,-73.7829 856.2205,-71.7836"/>
<polygon fill="#191970" stroke="#191970" points="856.3375,-68.2857 846.2207,-71.4322 856.0915,-75.2813 856.3375,-68.2857"/>
</g>
<!-- Node3565&#45;&gt;Node3564 -->
<g id="edge22" class="edge">
<title>Node3565&#45;&gt;Node3564</title>
<path fill="none" stroke="#191970" d="M1153.3183,-71.2249C1161.6188,-69.851 1170.2486,-68.4226 1178.7354,-67.0179"/>
<polygon fill="#191970" stroke="#191970" points="1179.31,-70.4705 1188.6042,-65.3844 1178.1669,-63.5644 1179.31,-70.4705"/>
</g>
</g>
</svg>
        <g id="navigator" transform="translate(0 0)" fill="#404254">
                <rect fill="#f2f5e9" fill-opacity="0.5" stroke="#606060" stroke-width=".5" x="0" y="0" width="60" height="60"/>
                <use id="zoomplus" xlink:href="#zoomPlus" x="17" y="9" onmousedown="handleZoom(evt,'in')"/>
                <use id="zoomminus" xlink:href="#zoomMin" x="42" y="9" onmousedown="handleZoom(evt,'out')"/>
                <use id="reset" xlink:href="#resetDef" x="30" y="36" onmousedown="handleReset()"/>
                <g id="arrowUp" xlink:href="#dirArrow" transform="translate(30 24)" onmousedown="handlePan(0,-1)">
                  <use xlink:href="#rim" fill="#404040">
                        <set attributeName="fill" to="#808080" begin="arrowUp.mouseover" end="arrowUp.mouseout"/>
                  </use>
                  <path fill="none" stroke="white" stroke-width="1.5" d="M0,-3.0v7 M-2.5,-0.5L0,-3.0L2.5,-0.5"/>
                </g>
                <g id="arrowRight" xlink:href="#dirArrow" transform="rotate(90) translate(36 -43)" onmousedown="handlePan(1,0)">
                  <use xlink:href="#rim" fill="#404040">
                        <set attributeName="fill" to="#808080" begin="arrowRight.mouseover" end="arrowRight.mouseout"/>
                  </use>
                  <path fill="none" stroke="white" stroke-width="1.5" d="M0,-3.0v7 M-2.5,-0.5L0,-3.0L2.5,-0.5"/>
                </g>
                <g id="arrowDown" xlink:href="#dirArrow" transform="rotate(180) translate(-30 -48)" onmousedown="handlePan(0,1)">
                  <use xlink:href="#rim" fill="#404040">
                        <set attributeName="fill" to="#808080" begin="arrowDown.mouseover" end="arrowDown.mouseout"/>
                  </use>
                  <path fill="none" stroke="white" stroke-width="1.5" d="M0,-3.0v7 M-2.5,-0.5L0,-3.0L2.5,-0.5"/>
                </g>
                <g id="arrowLeft" xlink:href="#dirArrow" transform="rotate(270) translate(-36 17)" onmousedown="handlePan(-1,0)">
                  <use xlink:href="#rim" fill="#404040">
                        <set attributeName="fill" to="#808080" begin="arrowLeft.mouseover" end="arrowLeft.mouseout"/>
                  </use>
                  <path fill="none" stroke="white" stroke-width="1.5" d="M0,-3.0v7 M-2.5,-0.5L0,-3.0L2.5,-0.5"/>
                </g>
        </g>
        <svg viewBox="0 0 15 15" width="100%" height="30px" preserveAspectRatio="xMaxYMin meet">
         <g id="arrow_out" transform="scale(0.3 0.3)">
          <a xlink:href="namespacecimg__library__suffixed_1_1cimg_ab77520695d7b96687093353c613c410c_cgraph_org.svg" target="_base">
           <rect id="button" ry="5" rx="5" y="6" x="6" height="38" width="38"
                fill="#f2f5e9" fill-opacity="0.5" stroke="#606060" stroke-width="1.0"/>
           <path id="arrow"
             d="M 11.500037,31.436501 C 11.940474,20.09759 22.043105,11.32322 32.158766,21.979434 L 37.068811,17.246167 C 37.068811,17.246167 37.088388,32 37.088388,32 L 22.160133,31.978069 C 22.160133,31.978069 26.997745,27.140456 26.997745,27.140456 C 18.528582,18.264221 13.291696,25.230495 11.500037,31.436501 z"
             style="fill:#404040;"/>
          </a>
         </g>
        </svg>
</svg>
