<?xml version="1.0" encoding="UTF-8" standalone="no"?>
<!DOCTYPE svg PUBLIC "-//W3C//DTD SVG 1.1//EN"
 "http://www.w3.org/Graphics/SVG/1.1/DTD/svg11.dtd">
<!-- Generated by graphviz version 2.40.1 (20161225.0304)
 -->
<!-- Title: cimg_library_suffixed::cimg::is_file Pages: 1 -->
<!--zoomable 215 -->
<svg id="main" version="1.1" xmlns="http://www.w3.org/2000/svg" xmlns:xlink="http://www.w3.org/1999/xlink" xml:space="preserve" onload="init(evt)">
<style type="text/css"><![CDATA[
.edge:hover path { stroke: red; }
.edge:hover polygon { stroke: red; fill: red; }
]]></style>
<script type="text/javascript"><![CDATA[
var edges = document.getElementsByTagName('g');
if (edges && edges.length) {
  for (var i=0;i<edges.length;i++) {
    if (edges[i].id.substr(0,4)=='edge') {
      edges[i].setAttribute('class','edge');
    }
  }
}
]]></script>
        <defs>
                <circle id="rim" cx="0" cy="0" r="7"/>
                <circle id="rim2" cx="0" cy="0" r="3.5"/>
                <g id="zoomPlus">
                        <use xlink:href="#rim" fill="#404040">
                                <set attributeName="fill" to="#808080" begin="zoomplus.mouseover" end="zoomplus.mouseout"/>
                        </use>
                        <path d="M-4,0h8M0,-4v8" fill="none" stroke="white" stroke-width="1.5" pointer-events="none"/>
                </g>
                <g id="zoomMin">
                        <use xlink:href="#rim" fill="#404040">
                                <set attributeName="fill" to="#808080" begin="zoomminus.mouseover" end="zoomminus.mouseout"/>
                        </use>
                        <path d="M-4,0h8" fill="none" stroke="white" stroke-width="1.5" pointer-events="none"/>
                </g>
                <g id="dirArrow">
                        <path fill="none" stroke="white" stroke-width="1.5" d="M0,-3.0v7 M-2.5,-0.5L0,-3.0L2.5,-0.5"/>
                </g>
               <g id="resetDef">
                       <use xlink:href="#rim2" fill="#404040">
                               <set attributeName="fill" to="#808080" begin="reset.mouseover" end="reset.mouseout"/>
                       </use>
               </g>
        </defs>

<script type="text/javascript">
var viewWidth = 1475;
var viewHeight = 215;
var sectionId = 'dynsection-83';
</script>
<script xlink:href="svgpan.js"/>
<svg id="graph" class="graph">
<g id="viewport">
<title>cimg_library_suffixed::cimg::is_file</title>
<polygon fill="#ffffff" stroke="transparent" points="-4,4 -4,-211.3078 1471,-211.3078 1471,4 -4,4"/>
<!-- Node1954 -->
<g id="node1" class="node">
<title>Node1954</title>
<polygon fill="#bfbfbf" stroke="#000000" points="0,-24.5 0,-54.5 109,-54.5 109,-24.5 0,-24.5"/>
<text text-anchor="start" x="8" y="-42.5" font-family="Helvetica,sans-Serif" font-size="10.00" fill="#000000">cimg_library_suffixed</text>
<text text-anchor="middle" x="54.5" y="-31.5" font-family="Helvetica,sans-Serif" font-size="10.00" fill="#000000">::cimg::is_file</text>
</g>
<!-- Node1955 -->
<g id="node2" class="node">
<title>Node1955</title>
<g id="a_node2"><a xlink:href="namespacecimg__library__suffixed_1_1cimg.html#ac436b94e6ffef5fd420bb3d7c05fd416" target="_top" xlink:title="Close a file. ">
<polygon fill="#ffffff" stroke="#000000" points="145,-49.5 145,-79.5 254,-79.5 254,-49.5 145,-49.5"/>
<text text-anchor="start" x="153" y="-67.5" font-family="Helvetica,sans-Serif" font-size="10.00" fill="#000000">cimg_library_suffixed</text>
<text text-anchor="middle" x="199.5" y="-56.5" font-family="Helvetica,sans-Serif" font-size="10.00" fill="#000000">::cimg::fclose</text>
</a>
</g>
</g>
<!-- Node1954&#45;&gt;Node1955 -->
<g id="edge1" class="edge">
<title>Node1954&#45;&gt;Node1955</title>
<path fill="none" stroke="#191970" d="M109.3183,-48.9514C117.6188,-50.3826 126.2486,-51.8705 134.7354,-53.3337"/>
<polygon fill="#191970" stroke="#191970" points="134.1549,-56.7852 144.6042,-55.0352 135.3443,-49.8869 134.1549,-56.7852"/>
</g>
<!-- Node1969 -->
<g id="node16" class="node">
<title>Node1969</title>
<g id="a_node16"><a xlink:href="namespacecimg__library__suffixed_1_1cimg.html#aca0e45a04eb1607f2e25101aae4b8572" target="_top" xlink:title="Check if a path is a directory. ">
<polygon fill="#ffffff" stroke="#000000" points="145,-.5 145,-30.5 254,-30.5 254,-.5 145,-.5"/>
<text text-anchor="start" x="153" y="-18.5" font-family="Helvetica,sans-Serif" font-size="10.00" fill="#000000">cimg_library_suffixed</text>
<text text-anchor="middle" x="199.5" y="-7.5" font-family="Helvetica,sans-Serif" font-size="10.00" fill="#000000">::cimg::is_directory</text>
</a>
</g>
</g>
<!-- Node1954&#45;&gt;Node1969 -->
<g id="edge26" class="edge">
<title>Node1954&#45;&gt;Node1969</title>
<path fill="none" stroke="#191970" d="M109.3183,-30.4266C117.6188,-29.0528 126.2486,-27.6244 134.7354,-26.2197"/>
<polygon fill="#191970" stroke="#191970" points="135.31,-29.6723 144.6042,-24.5862 134.1669,-22.7662 135.31,-29.6723"/>
</g>
<!-- Node1956 -->
<g id="node3" class="node">
<title>Node1956</title>
<g id="a_node3"><a xlink:href="namespacecimg__library__suffixed_1_1cimg.html#a01a3b743897290604513ea6d847c9886" target="_top" xlink:title="cimg_library_suffixed\l::cimg::_stdin">
<polygon fill="#ffffff" stroke="#000000" points="290,-137.5 290,-167.5 399,-167.5 399,-137.5 290,-137.5"/>
<text text-anchor="start" x="298" y="-155.5" font-family="Helvetica,sans-Serif" font-size="10.00" fill="#000000">cimg_library_suffixed</text>
<text text-anchor="middle" x="344.5" y="-144.5" font-family="Helvetica,sans-Serif" font-size="10.00" fill="#000000">::cimg::_stdin</text>
</a>
</g>
</g>
<!-- Node1955&#45;&gt;Node1956 -->
<g id="edge2" class="edge">
<title>Node1955&#45;&gt;Node1956</title>
<path fill="none" stroke="#191970" d="M224.4264,-79.6277C248.2878,-94.1092 284.4587,-116.0612 310.8648,-132.0869"/>
<polygon fill="#191970" stroke="#191970" points="309.0489,-135.079 319.4136,-137.2752 312.6807,-129.0948 309.0489,-135.079"/>
</g>
<!-- Node1966 -->
<g id="node13" class="node">
<title>Node1966</title>
<g id="a_node13"><a xlink:href="namespacecimg__library__suffixed_1_1cimg.html#a493220746e5df3466568bd7862825008" target="_top" xlink:title="cimg_library_suffixed\l::cimg::_stdout">
<polygon fill="#ffffff" stroke="#000000" points="754,-72.5 754,-102.5 863,-102.5 863,-72.5 754,-72.5"/>
<text text-anchor="start" x="762" y="-90.5" font-family="Helvetica,sans-Serif" font-size="10.00" fill="#000000">cimg_library_suffixed</text>
<text text-anchor="middle" x="808.5" y="-79.5" font-family="Helvetica,sans-Serif" font-size="10.00" fill="#000000">::cimg::_stdout</text>
</a>
</g>
</g>
<!-- Node1955&#45;&gt;Node1966 -->
<g id="edge20" class="edge">
<title>Node1955&#45;&gt;Node1966</title>
<path fill="none" stroke="#191970" d="M245.5594,-49.4335C337.7333,-21.7364 550.4069,29.772 718,-23.5 743.8471,-31.7159 768.6644,-50.2833 785.7517,-65.3143"/>
<polygon fill="#191970" stroke="#191970" points="783.7358,-68.2117 793.4897,-72.3482 788.4443,-63.0319 783.7358,-68.2117"/>
</g>
<!-- Node1967 -->
<g id="node14" class="node">
<title>Node1967</title>
<g id="a_node14"><a xlink:href="namespacecimg__library__suffixed_1_1cimg.html#acfd3624d72ed7f79c82ec45646c685e7" target="_top" xlink:title="Display a warning message on the default output stream. ">
<polygon fill="#ffffff" stroke="#000000" points="290,-49.5 290,-79.5 399,-79.5 399,-49.5 290,-49.5"/>
<text text-anchor="start" x="298" y="-67.5" font-family="Helvetica,sans-Serif" font-size="10.00" fill="#000000">cimg_library_suffixed</text>
<text text-anchor="middle" x="344.5" y="-56.5" font-family="Helvetica,sans-Serif" font-size="10.00" fill="#000000">::cimg::warn</text>
</a>
</g>
</g>
<!-- Node1955&#45;&gt;Node1967 -->
<g id="edge21" class="edge">
<title>Node1955&#45;&gt;Node1967</title>
<path fill="none" stroke="#191970" d="M254.3183,-64.5C262.5286,-64.5 271.0611,-64.5 279.4586,-64.5"/>
<polygon fill="#191970" stroke="#191970" points="279.6042,-68.0001 289.6042,-64.5 279.6042,-61.0001 279.6042,-68.0001"/>
</g>
<!-- Node1957 -->
<g id="node4" class="node">
<title>Node1957</title>
<g id="a_node4"><a xlink:href="namespacecimg__library__suffixed_1_1cimg.html#aeafab144366eddd11360f32f468fa4af" target="_top" xlink:title="Set current &#160;exception mode. ">
<polygon fill="#ffffff" stroke="#000000" points="435,-115.5 435,-145.5 556,-145.5 556,-115.5 435,-115.5"/>
<text text-anchor="start" x="443" y="-133.5" font-family="Helvetica,sans-Serif" font-size="10.00" fill="#000000">cimg_library_suffixed</text>
<text text-anchor="middle" x="495.5" y="-122.5" font-family="Helvetica,sans-Serif" font-size="10.00" fill="#000000">::cimg::exception_mode</text>
</a>
</g>
</g>
<!-- Node1956&#45;&gt;Node1957 -->
<g id="edge3" class="edge">
<title>Node1956&#45;&gt;Node1957</title>
<path fill="none" stroke="#191970" d="M399.0145,-144.5575C407.3935,-143.3367 416.1471,-142.0613 424.8158,-140.7984"/>
<polygon fill="#191970" stroke="#191970" points="425.5345,-144.2307 434.9254,-139.3254 424.5253,-137.3038 425.5345,-144.2307"/>
</g>
<!-- Node1960 -->
<g id="node7" class="node">
<title>Node1960</title>
<g id="a_node7"><a xlink:href="namespacecimg__library__suffixed_1_1cimg.html#a79aef0cbcf66ceb71c2b74cb66b4deb2" target="_top" xlink:title="Avoid warning messages due to unused parameters. Do nothing actually. ">
<polygon fill="#ffffff" stroke="#000000" points="899,-121.5 899,-151.5 1008,-151.5 1008,-121.5 899,-121.5"/>
<text text-anchor="start" x="907" y="-139.5" font-family="Helvetica,sans-Serif" font-size="10.00" fill="#000000">cimg_library_suffixed</text>
<text text-anchor="middle" x="953.5" y="-128.5" font-family="Helvetica,sans-Serif" font-size="10.00" fill="#000000">::cimg::unused</text>
</a>
</g>
</g>
<!-- Node1956&#45;&gt;Node1960 -->
<g id="edge19" class="edge">
<title>Node1956&#45;&gt;Node1960</title>
<path fill="none" stroke="#191970" d="M394.4794,-167.5584C407.5818,-171.161 421.7523,-174.7542 435,-177.5 558.5318,-203.1038 592.9187,-215.9415 718,-199.5 782.248,-191.0548 853.8839,-170.1761 901.0888,-154.7574"/>
<polygon fill="#191970" stroke="#191970" points="902.3819,-158.0163 910.7796,-151.5565 900.1864,-151.3695 902.3819,-158.0163"/>
</g>
<!-- Node1958 -->
<g id="node5" class="node">
<title>Node1958</title>
<g id="a_node5"><a xlink:href="namespacecimg__library__suffixed_1_1cimg.html#a6c578f866de2be9be7e385d693c758c8" target="_top" xlink:title="cimg_library_suffixed\l::cimg::_exception_mode">
<polygon fill="#ffffff" stroke="#000000" points="592,-159.5 592,-189.5 718,-189.5 718,-159.5 592,-159.5"/>
<text text-anchor="start" x="600" y="-177.5" font-family="Helvetica,sans-Serif" font-size="10.00" fill="#000000">cimg_library_suffixed</text>
<text text-anchor="middle" x="655" y="-166.5" font-family="Helvetica,sans-Serif" font-size="10.00" fill="#000000">::cimg::_exception_mode</text>
</a>
</g>
</g>
<!-- Node1957&#45;&gt;Node1958 -->
<g id="edge4" class="edge">
<title>Node1957&#45;&gt;Node1958</title>
<path fill="none" stroke="#191970" d="M549.9447,-145.5192C563.0889,-149.1452 577.2562,-153.0534 590.8009,-156.7899"/>
<polygon fill="#191970" stroke="#191970" points="589.9593,-160.1884 600.53,-159.4738 591.8209,-153.4405 589.9593,-160.1884"/>
</g>
<!-- Node1958&#45;&gt;Node1956 -->
<g id="edge14" class="edge">
<title>Node1958&#45;&gt;Node1956</title>
<path fill="none" stroke="#191970" d="M591.9297,-170.0312C538.7813,-166.2655 463.037,-160.8988 409.383,-157.0972"/>
<polygon fill="#191970" stroke="#191970" points="409.5188,-153.5981 399.2964,-156.3825 409.024,-160.5806 409.5188,-153.5981"/>
</g>
<!-- Node1959 -->
<g id="node6" class="node">
<title>Node1959</title>
<g id="a_node6"><a xlink:href="namespacecimg__library__suffixed_1_1cimg.html#aab8db7528c32a8fd3a3dc471e662782e" target="_top" xlink:title="cimg_library_suffixed\l::cimg::_stderr">
<polygon fill="#ffffff" stroke="#000000" points="754,-121.5 754,-151.5 863,-151.5 863,-121.5 754,-121.5"/>
<text text-anchor="start" x="762" y="-139.5" font-family="Helvetica,sans-Serif" font-size="10.00" fill="#000000">cimg_library_suffixed</text>
<text text-anchor="middle" x="808.5" y="-128.5" font-family="Helvetica,sans-Serif" font-size="10.00" fill="#000000">::cimg::_stderr</text>
</a>
</g>
</g>
<!-- Node1958&#45;&gt;Node1959 -->
<g id="edge5" class="edge">
<title>Node1958&#45;&gt;Node1959</title>
<path fill="none" stroke="#191970" d="M715.6673,-159.4814C724.8984,-157.1962 734.4546,-154.8305 743.7686,-152.5247"/>
<polygon fill="#191970" stroke="#191970" points="744.8875,-155.8535 753.7534,-150.0529 743.2053,-149.0586 744.8875,-155.8535"/>
</g>
<!-- Node1961 -->
<g id="node8" class="node">
<title>Node1961</title>
<g id="a_node8"><a xlink:href="namespacecimg__library__suffixed_1_1cimg.html#a9e739e4b4ac058abfba069466617b914" target="_top" xlink:title="cimg_library_suffixed\l::cimg::mutex">
<polygon fill="#ffffff" stroke="#000000" points="1044,-121.5 1044,-151.5 1153,-151.5 1153,-121.5 1044,-121.5"/>
<text text-anchor="start" x="1052" y="-139.5" font-family="Helvetica,sans-Serif" font-size="10.00" fill="#000000">cimg_library_suffixed</text>
<text text-anchor="middle" x="1098.5" y="-128.5" font-family="Helvetica,sans-Serif" font-size="10.00" fill="#000000">::cimg::mutex</text>
</a>
</g>
</g>
<!-- Node1958&#45;&gt;Node1961 -->
<g id="edge18" class="edge">
<title>Node1958&#45;&gt;Node1961</title>
<path fill="none" stroke="#191970" d="M718.2018,-176.1499C789.1415,-177.0401 907.4736,-175.6348 1008,-160.5 1018.3538,-158.9412 1029.2268,-156.6474 1039.7023,-154.0871"/>
<polygon fill="#191970" stroke="#191970" points="1040.7683,-157.4274 1049.5942,-151.566 1039.0395,-150.6442 1040.7683,-157.4274"/>
</g>
<!-- Node1958&#45;&gt;Node1966 -->
<g id="edge15" class="edge">
<title>Node1958&#45;&gt;Node1966</title>
<path fill="none" stroke="#191970" d="M676.8317,-159.2455C696.5163,-145.8245 726.5091,-126.1906 754,-111.5 756.8723,-109.9651 759.8629,-108.4446 762.8992,-106.9581"/>
<polygon fill="#191970" stroke="#191970" points="764.5283,-110.0594 772.0726,-102.6206 761.5361,-103.7311 764.5283,-110.0594"/>
</g>
<!-- Node1959&#45;&gt;Node1957 -->
<g id="edge6" class="edge">
<title>Node1959&#45;&gt;Node1957</title>
<path fill="none" stroke="#191970" d="M753.9666,-135.4546C701.8805,-134.4562 623.1092,-132.9462 566.2205,-131.8557"/>
<polygon fill="#191970" stroke="#191970" points="566.286,-128.3564 556.2207,-131.664 566.1517,-135.3551 566.286,-128.3564"/>
</g>
<!-- Node1959&#45;&gt;Node1960 -->
<g id="edge7" class="edge">
<title>Node1959&#45;&gt;Node1960</title>
<path fill="none" stroke="#191970" d="M863.3183,-136.5C871.5286,-136.5 880.0611,-136.5 888.4586,-136.5"/>
<polygon fill="#191970" stroke="#191970" points="888.6042,-140.0001 898.6042,-136.5 888.6042,-133.0001 888.6042,-140.0001"/>
</g>
<!-- Node1960&#45;&gt;Node1961 -->
<g id="edge8" class="edge">
<title>Node1960&#45;&gt;Node1961</title>
<path fill="none" stroke="#191970" d="M1008.3183,-136.5C1016.5286,-136.5 1025.0611,-136.5 1033.4586,-136.5"/>
<polygon fill="#191970" stroke="#191970" points="1033.6042,-140.0001 1043.6042,-136.5 1033.6042,-133.0001 1033.6042,-140.0001"/>
</g>
<!-- Node1962 -->
<g id="node9" class="node">
<title>Node1962</title>
<g id="a_node9"><a xlink:href="namespacecimg__library__suffixed_1_1cimg.html#aa0e1bc96ae6e235dc5b67b8b0a466166" target="_top" xlink:title="cimg_library_suffixed\l::cimg::Mutex_attr">
<polygon fill="#ffffff" stroke="#000000" points="1358,-168.5 1358,-198.5 1467,-198.5 1467,-168.5 1358,-168.5"/>
<text text-anchor="start" x="1366" y="-186.5" font-family="Helvetica,sans-Serif" font-size="10.00" fill="#000000">cimg_library_suffixed</text>
<text text-anchor="middle" x="1412.5" y="-175.5" font-family="Helvetica,sans-Serif" font-size="10.00" fill="#000000">::cimg::Mutex_attr</text>
</a>
</g>
</g>
<!-- Node1961&#45;&gt;Node1962 -->
<g id="edge9" class="edge">
<title>Node1961&#45;&gt;Node1962</title>
<path fill="none" stroke="#191970" d="M1119.1891,-151.5983C1136.7696,-163.4355 1163.1935,-178.9621 1189,-185.5 1241.2808,-198.745 1302.6728,-197.0184 1347.872,-192.6729"/>
<polygon fill="#191970" stroke="#191970" points="1348.2493,-196.1527 1357.8385,-191.6474 1347.5327,-189.1895 1348.2493,-196.1527"/>
</g>
<!-- Node1963 -->
<g id="node10" class="node">
<title>Node1963</title>
<g id="a_node10"><a xlink:href="structcimg__library__suffixed_1_1cimg_1_1_mutex__info.html#afac3fa5f107ad4795fb867050f616555" target="_top" xlink:title="cimg_library_suffixed\l::cimg::Mutex_info::unlock">
<polygon fill="#ffffff" stroke="#000000" points="1189.5,-97.5 1189.5,-127.5 1321.5,-127.5 1321.5,-97.5 1189.5,-97.5"/>
<text text-anchor="start" x="1197.5" y="-115.5" font-family="Helvetica,sans-Serif" font-size="10.00" fill="#000000">cimg_library_suffixed</text>
<text text-anchor="middle" x="1255.5" y="-104.5" font-family="Helvetica,sans-Serif" font-size="10.00" fill="#000000">::cimg::Mutex_info::unlock</text>
</a>
</g>
</g>
<!-- Node1961&#45;&gt;Node1963 -->
<g id="edge10" class="edge">
<title>Node1961&#45;&gt;Node1963</title>
<path fill="none" stroke="#191970" d="M1153.411,-128.106C1161.7369,-126.8332 1170.453,-125.5008 1179.1344,-124.1737"/>
<polygon fill="#191970" stroke="#191970" points="1179.9278,-127.5932 1189.2841,-122.6222 1178.87,-120.6736 1179.9278,-127.5932"/>
</g>
<!-- Node1964 -->
<g id="node11" class="node">
<title>Node1964</title>
<g id="a_node11"><a xlink:href="structcimg__library__suffixed_1_1cimg_1_1_mutex__info.html#a6cc8e26847a1aa649febed03d70182e7" target="_top" xlink:title="cimg_library_suffixed\l::cimg::Mutex_info::lock">
<polygon fill="#ffffff" stroke="#000000" points="1194.5,-48.5 1194.5,-78.5 1316.5,-78.5 1316.5,-48.5 1194.5,-48.5"/>
<text text-anchor="start" x="1202.5" y="-66.5" font-family="Helvetica,sans-Serif" font-size="10.00" fill="#000000">cimg_library_suffixed</text>
<text text-anchor="middle" x="1255.5" y="-55.5" font-family="Helvetica,sans-Serif" font-size="10.00" fill="#000000">::cimg::Mutex_info::lock</text>
</a>
</g>
</g>
<!-- Node1961&#45;&gt;Node1964 -->
<g id="edge11" class="edge">
<title>Node1961&#45;&gt;Node1964</title>
<path fill="none" stroke="#191970" d="M1124.1165,-121.2922C1141.9592,-111.0342 1166.4996,-97.5832 1189,-87.5 1193.0148,-85.7009 1197.209,-83.935 1201.4536,-82.2284"/>
<polygon fill="#191970" stroke="#191970" points="1202.7287,-85.488 1210.7765,-78.5972 1200.1881,-78.9653 1202.7287,-85.488"/>
</g>
<!-- Node1965 -->
<g id="node12" class="node">
<title>Node1965</title>
<g id="a_node12"><a xlink:href="structcimg__library__suffixed_1_1cimg_1_1_mutex__info.html#a9bf4ed1e1dfe6f28fa6250cd04f3c900" target="_top" xlink:title="cimg_library_suffixed\l::cimg::Mutex_info::trylock">
<polygon fill="#ffffff" stroke="#000000" points="1189,-146.5 1189,-176.5 1322,-176.5 1322,-146.5 1189,-146.5"/>
<text text-anchor="start" x="1197" y="-164.5" font-family="Helvetica,sans-Serif" font-size="10.00" fill="#000000">cimg_library_suffixed</text>
<text text-anchor="middle" x="1255.5" y="-153.5" font-family="Helvetica,sans-Serif" font-size="10.00" fill="#000000">::cimg::Mutex_info::trylock</text>
</a>
</g>
</g>
<!-- Node1961&#45;&gt;Node1965 -->
<g id="edge12" class="edge">
<title>Node1961&#45;&gt;Node1965</title>
<path fill="none" stroke="#191970" d="M1153.411,-145.2438C1161.6098,-146.5493 1170.187,-147.9151 1178.7367,-149.2766"/>
<polygon fill="#191970" stroke="#191970" points="1178.3105,-152.7527 1188.7365,-150.8689 1179.4113,-145.8398 1178.3105,-152.7527"/>
</g>
<!-- Node1965&#45;&gt;Node1962 -->
<g id="edge13" class="edge">
<title>Node1965&#45;&gt;Node1962</title>
<path fill="none" stroke="#191970" d="M1322.0821,-170.83C1330.5193,-172.0123 1339.1445,-173.2209 1347.5556,-174.3995"/>
<polygon fill="#191970" stroke="#191970" points="1347.293,-177.8968 1357.682,-175.8185 1348.2645,-170.9646 1347.293,-177.8968"/>
</g>
<!-- Node1966&#45;&gt;Node1957 -->
<g id="edge16" class="edge">
<title>Node1966&#45;&gt;Node1957</title>
<path fill="none" stroke="#191970" d="M753.9666,-94.9918C701.8805,-102.1474 623.1092,-112.969 566.2205,-120.7844"/>
<polygon fill="#191970" stroke="#191970" points="565.6512,-117.3296 556.2207,-122.1582 566.604,-124.2645 565.6512,-117.3296"/>
</g>
<!-- Node1966&#45;&gt;Node1960 -->
<g id="edge17" class="edge">
<title>Node1966&#45;&gt;Node1960</title>
<path fill="none" stroke="#191970" d="M853.1879,-102.6014C867.659,-107.4917 883.8725,-112.9707 898.9752,-118.0744"/>
<polygon fill="#191970" stroke="#191970" points="898.1158,-121.4783 908.71,-121.3641 900.3569,-114.8468 898.1158,-121.4783"/>
</g>
<!-- Node1967&#45;&gt;Node1957 -->
<g id="edge22" class="edge">
<title>Node1967&#45;&gt;Node1957</title>
<path fill="none" stroke="#191970" d="M379.1425,-79.6417C400.7231,-89.0744 428.6771,-101.2926 451.7767,-111.3892"/>
<polygon fill="#191970" stroke="#191970" points="450.454,-114.6307 461.0187,-115.4287 453.2575,-108.2166 450.454,-114.6307"/>
</g>
<!-- Node1968 -->
<g id="node15" class="node">
<title>Node1968</title>
<g id="a_node15"><a xlink:href="namespacecimg__library__suffixed_1_1cimg.html#ada686776cc71803df391eea79cd1b3e5" target="_top" xlink:title="Get/set default output stream for the &#160;library messages. ">
<polygon fill="#ffffff" stroke="#000000" points="600.5,-33.5 600.5,-63.5 709.5,-63.5 709.5,-33.5 600.5,-33.5"/>
<text text-anchor="start" x="608.5" y="-51.5" font-family="Helvetica,sans-Serif" font-size="10.00" fill="#000000">cimg_library_suffixed</text>
<text text-anchor="middle" x="655" y="-40.5" font-family="Helvetica,sans-Serif" font-size="10.00" fill="#000000">::cimg::output</text>
</a>
</g>
</g>
<!-- Node1967&#45;&gt;Node1968 -->
<g id="edge23" class="edge">
<title>Node1967&#45;&gt;Node1968</title>
<path fill="none" stroke="#191970" d="M399.2964,-61.6764C452.645,-58.9273 533.7273,-54.7492 590.2374,-51.8372"/>
<polygon fill="#191970" stroke="#191970" points="590.6843,-55.3189 600.4909,-51.3088 590.324,-48.3282 590.6843,-55.3189"/>
</g>
<!-- Node1968&#45;&gt;Node1959 -->
<g id="edge25" class="edge">
<title>Node1968&#45;&gt;Node1959</title>
<path fill="none" stroke="#191970" d="M676.8866,-63.6528C696.6071,-77.007 726.622,-96.6 754,-111.5 757.4502,-113.3777 761.0674,-115.245 764.7274,-117.0643"/>
<polygon fill="#191970" stroke="#191970" points="763.3155,-120.2691 773.8426,-121.4657 766.3594,-113.9656 763.3155,-120.2691"/>
</g>
<!-- Node1968&#45;&gt;Node1961 -->
<g id="edge24" class="edge">
<title>Node1968&#45;&gt;Node1961</title>
<path fill="none" stroke="#191970" d="M709.7511,-48.6548C751.957,-49.6222 811.6018,-52.8371 863,-62.5 929.6501,-75.0302 1003.886,-100.3448 1050.8627,-117.851"/>
<polygon fill="#191970" stroke="#191970" points="1049.8687,-121.2164 1060.4607,-121.4606 1052.3328,-114.6644 1049.8687,-121.2164"/>
</g>
</g>
</svg>
        <g id="navigator" transform="translate(0 0)" fill="#404254">
                <rect fill="#f2f5e9" fill-opacity="0.5" stroke="#606060" stroke-width=".5" x="0" y="0" width="60" height="60"/>
                <use id="zoomplus" xlink:href="#zoomPlus" x="17" y="9" onmousedown="handleZoom(evt,'in')"/>
                <use id="zoomminus" xlink:href="#zoomMin" x="42" y="9" onmousedown="handleZoom(evt,'out')"/>
                <use id="reset" xlink:href="#resetDef" x="30" y="36" onmousedown="handleReset()"/>
                <g id="arrowUp" xlink:href="#dirArrow" transform="translate(30 24)" onmousedown="handlePan(0,-1)">
                  <use xlink:href="#rim" fill="#404040">
                        <set attributeName="fill" to="#808080" begin="arrowUp.mouseover" end="arrowUp.mouseout"/>
                  </use>
                  <path fill="none" stroke="white" stroke-width="1.5" d="M0,-3.0v7 M-2.5,-0.5L0,-3.0L2.5,-0.5"/>
                </g>
                <g id="arrowRight" xlink:href="#dirArrow" transform="rotate(90) translate(36 -43)" onmousedown="handlePan(1,0)">
                  <use xlink:href="#rim" fill="#404040">
                        <set attributeName="fill" to="#808080" begin="arrowRight.mouseover" end="arrowRight.mouseout"/>
                  </use>
                  <path fill="none" stroke="white" stroke-width="1.5" d="M0,-3.0v7 M-2.5,-0.5L0,-3.0L2.5,-0.5"/>
                </g>
                <g id="arrowDown" xlink:href="#dirArrow" transform="rotate(180) translate(-30 -48)" onmousedown="handlePan(0,1)">
                  <use xlink:href="#rim" fill="#404040">
                        <set attributeName="fill" to="#808080" begin="arrowDown.mouseover" end="arrowDown.mouseout"/>
                  </use>
                  <path fill="none" stroke="white" stroke-width="1.5" d="M0,-3.0v7 M-2.5,-0.5L0,-3.0L2.5,-0.5"/>
                </g>
                <g id="arrowLeft" xlink:href="#dirArrow" transform="rotate(270) translate(-36 17)" onmousedown="handlePan(-1,0)">
                  <use xlink:href="#rim" fill="#404040">
                        <set attributeName="fill" to="#808080" begin="arrowLeft.mouseover" end="arrowLeft.mouseout"/>
                  </use>
                  <path fill="none" stroke="white" stroke-width="1.5" d="M0,-3.0v7 M-2.5,-0.5L0,-3.0L2.5,-0.5"/>
                </g>
        </g>
        <svg viewBox="0 0 15 15" width="100%" height="30px" preserveAspectRatio="xMaxYMin meet">
         <g id="arrow_out" transform="scale(0.3 0.3)">
          <a xlink:href="namespacecimg__library__suffixed_1_1cimg_ad6c9ae2aaaf60bdecbd5c8f57ee5617e_cgraph_org.svg" target="_base">
           <rect id="button" ry="5" rx="5" y="6" x="6" height="38" width="38"
                fill="#f2f5e9" fill-opacity="0.5" stroke="#606060" stroke-width="1.0"/>
           <path id="arrow"
             d="M 11.500037,31.436501 C 11.940474,20.09759 22.043105,11.32322 32.158766,21.979434 L 37.068811,17.246167 C 37.068811,17.246167 37.088388,32 37.088388,32 L 22.160133,31.978069 C 22.160133,31.978069 26.997745,27.140456 26.997745,27.140456 C 18.528582,18.264221 13.291696,25.230495 11.500037,31.436501 z"
             style="fill:#404040;"/>
          </a>
         </g>
        </svg>
</svg>
