<?xml version="1.0" encoding="UTF-8" standalone="no"?>
<!DOCTYPE svg PUBLIC "-//W3C//DTD SVG 1.1//EN"
 "http://www.w3.org/Graphics/SVG/1.1/DTD/svg11.dtd">
<!-- Generated by graphviz version 2.40.1 (20161225.0304)
 -->
<!-- Title: cimg_library_suffixed::cimg::output Pages: 1 -->
<!--zoomable 186 -->
<svg id="main" version="1.1" xmlns="http://www.w3.org/2000/svg" xmlns:xlink="http://www.w3.org/1999/xlink" xml:space="preserve" onload="init(evt)">
<style type="text/css"><![CDATA[
.edge:hover path { stroke: red; }
.edge:hover polygon { stroke: red; fill: red; }
]]></style>
<script type="text/javascript"><![CDATA[
var edges = document.getElementsByTagName('g');
if (edges && edges.length) {
  for (var i=0;i<edges.length;i++) {
    if (edges[i].id.substr(0,4)=='edge') {
      edges[i].setAttribute('class','edge');
    }
  }
}
]]></script>
        <defs>
                <circle id="rim" cx="0" cy="0" r="7"/>
                <circle id="rim2" cx="0" cy="0" r="3.5"/>
                <g id="zoomPlus">
                        <use xlink:href="#rim" fill="#404040">
                                <set attributeName="fill" to="#808080" begin="zoomplus.mouseover" end="zoomplus.mouseout"/>
                        </use>
                        <path d="M-4,0h8M0,-4v8" fill="none" stroke="white" stroke-width="1.5" pointer-events="none"/>
                </g>
                <g id="zoomMin">
                        <use xlink:href="#rim" fill="#404040">
                                <set attributeName="fill" to="#808080" begin="zoomminus.mouseover" end="zoomminus.mouseout"/>
                        </use>
                        <path d="M-4,0h8" fill="none" stroke="white" stroke-width="1.5" pointer-events="none"/>
                </g>
                <g id="dirArrow">
                        <path fill="none" stroke="white" stroke-width="1.5" d="M0,-3.0v7 M-2.5,-0.5L0,-3.0L2.5,-0.5"/>
                </g>
               <g id="resetDef">
                       <use xlink:href="#rim2" fill="#404040">
                               <set attributeName="fill" to="#808080" begin="reset.mouseover" end="reset.mouseout"/>
                       </use>
               </g>
        </defs>

<script type="text/javascript">
var viewWidth = 1330;
var viewHeight = 186;
var sectionId = 'dynsection-122';
</script>
<script xlink:href="svgpan.js"/>
<svg id="graph" class="graph">
<g id="viewport">
<title>cimg_library_suffixed::cimg::output</title>
<polygon fill="#ffffff" stroke="transparent" points="-4,4 -4,-182 1326,-182 1326,4 -4,4"/>
<!-- Node3085 -->
<g id="node1" class="node">
<title>Node3085</title>
<polygon fill="#bfbfbf" stroke="#000000" points="0,-11.5 0,-41.5 109,-41.5 109,-11.5 0,-11.5"/>
<text text-anchor="start" x="8" y="-29.5" font-family="Helvetica,sans-Serif" font-size="10.00" fill="#000000">cimg_library_suffixed</text>
<text text-anchor="middle" x="54.5" y="-18.5" font-family="Helvetica,sans-Serif" font-size="10.00" fill="#000000">::cimg::output</text>
</g>
<!-- Node3086 -->
<g id="node2" class="node">
<title>Node3086</title>
<g id="a_node2"><a xlink:href="namespacecimg__library__suffixed_1_1cimg.html#aab8db7528c32a8fd3a3dc471e662782e" target="_top" xlink:title="cimg_library_suffixed\l::cimg::_stderr">
<polygon fill="#ffffff" stroke="#000000" points="145,-52.5 145,-82.5 254,-82.5 254,-52.5 145,-52.5"/>
<text text-anchor="start" x="153" y="-70.5" font-family="Helvetica,sans-Serif" font-size="10.00" fill="#000000">cimg_library_suffixed</text>
<text text-anchor="middle" x="199.5" y="-59.5" font-family="Helvetica,sans-Serif" font-size="10.00" fill="#000000">::cimg::_stderr</text>
</a>
</g>
</g>
<!-- Node3085&#45;&gt;Node3086 -->
<g id="edge1" class="edge">
<title>Node3085&#45;&gt;Node3086</title>
<path fill="none" stroke="#191970" d="M107.6693,-41.5341C117.0274,-44.1802 126.8491,-46.9573 136.4462,-49.671"/>
<polygon fill="#191970" stroke="#191970" points="135.7621,-53.1147 146.3371,-52.4677 137.6667,-46.3788 135.7621,-53.1147"/>
</g>
<!-- Node3091 -->
<g id="node7" class="node">
<title>Node3091</title>
<g id="a_node7"><a xlink:href="namespacecimg__library__suffixed_1_1cimg.html#a9e739e4b4ac058abfba069466617b914" target="_top" xlink:title="cimg_library_suffixed\l::cimg::mutex">
<polygon fill="#ffffff" stroke="#000000" points="899,-71.5 899,-101.5 1008,-101.5 1008,-71.5 899,-71.5"/>
<text text-anchor="start" x="907" y="-89.5" font-family="Helvetica,sans-Serif" font-size="10.00" fill="#000000">cimg_library_suffixed</text>
<text text-anchor="middle" x="953.5" y="-78.5" font-family="Helvetica,sans-Serif" font-size="10.00" fill="#000000">::cimg::mutex</text>
</a>
</g>
</g>
<!-- Node3085&#45;&gt;Node3091 -->
<g id="edge19" class="edge">
<title>Node3085&#45;&gt;Node3091</title>
<path fill="none" stroke="#191970" d="M109.2367,-19.9886C168.5776,-13.5013 266.1186,-4.5 350.5,-4.5 350.5,-4.5 350.5,-4.5 663.5,-4.5 755.3053,-4.5 857.5002,-43.0225 912.7135,-67.2601"/>
<polygon fill="#191970" stroke="#191970" points="911.5795,-70.5865 922.1382,-71.4599 914.4288,-64.1926 911.5795,-70.5865"/>
</g>
<!-- Node3087 -->
<g id="node3" class="node">
<title>Node3087</title>
<g id="a_node3"><a xlink:href="namespacecimg__library__suffixed_1_1cimg.html#aeafab144366eddd11360f32f468fa4af" target="_top" xlink:title="Set current &#160;exception mode. ">
<polygon fill="#ffffff" stroke="#000000" points="290,-87.5 290,-117.5 411,-117.5 411,-87.5 290,-87.5"/>
<text text-anchor="start" x="298" y="-105.5" font-family="Helvetica,sans-Serif" font-size="10.00" fill="#000000">cimg_library_suffixed</text>
<text text-anchor="middle" x="350.5" y="-94.5" font-family="Helvetica,sans-Serif" font-size="10.00" fill="#000000">::cimg::exception_mode</text>
</a>
</g>
</g>
<!-- Node3086&#45;&gt;Node3087 -->
<g id="edge2" class="edge">
<title>Node3086&#45;&gt;Node3087</title>
<path fill="none" stroke="#191970" d="M254.0145,-80.1358C262.4846,-82.0991 271.3375,-84.1511 280.0984,-86.1818"/>
<polygon fill="#191970" stroke="#191970" points="279.3933,-89.611 289.9254,-88.4595 280.974,-82.7918 279.3933,-89.611"/>
</g>
<!-- Node3090 -->
<g id="node6" class="node">
<title>Node3090</title>
<g id="a_node6"><a xlink:href="namespacecimg__library__suffixed_1_1cimg.html#a79aef0cbcf66ceb71c2b74cb66b4deb2" target="_top" xlink:title="Avoid warning messages due to unused parameters. Do nothing actually. ">
<polygon fill="#ffffff" stroke="#000000" points="754,-71.5 754,-101.5 863,-101.5 863,-71.5 754,-71.5"/>
<text text-anchor="start" x="762" y="-89.5" font-family="Helvetica,sans-Serif" font-size="10.00" fill="#000000">cimg_library_suffixed</text>
<text text-anchor="middle" x="808.5" y="-78.5" font-family="Helvetica,sans-Serif" font-size="10.00" fill="#000000">::cimg::unused</text>
</a>
</g>
</g>
<!-- Node3086&#45;&gt;Node3090 -->
<g id="edge18" class="edge">
<title>Node3086&#45;&gt;Node3090</title>
<path fill="none" stroke="#191970" d="M254.3167,-61.6418C349.2738,-52.656 550.2905,-38.7615 718,-61.5 729.6184,-63.0753 741.8526,-65.739 753.4392,-68.7551"/>
<polygon fill="#191970" stroke="#191970" points="752.8544,-72.2234 763.423,-71.4779 754.6963,-65.47 752.8544,-72.2234"/>
</g>
<!-- Node3088 -->
<g id="node4" class="node">
<title>Node3088</title>
<g id="a_node4"><a xlink:href="namespacecimg__library__suffixed_1_1cimg.html#a6c578f866de2be9be7e385d693c758c8" target="_top" xlink:title="cimg_library_suffixed\l::cimg::_exception_mode">
<polygon fill="#ffffff" stroke="#000000" points="447,-147.5 447,-177.5 573,-177.5 573,-147.5 447,-147.5"/>
<text text-anchor="start" x="455" y="-165.5" font-family="Helvetica,sans-Serif" font-size="10.00" fill="#000000">cimg_library_suffixed</text>
<text text-anchor="middle" x="510" y="-154.5" font-family="Helvetica,sans-Serif" font-size="10.00" fill="#000000">::cimg::_exception_mode</text>
</a>
</g>
</g>
<!-- Node3087&#45;&gt;Node3088 -->
<g id="edge3" class="edge">
<title>Node3087&#45;&gt;Node3088</title>
<path fill="none" stroke="#191970" d="M390.7486,-117.6405C411.986,-125.6295 438.2233,-135.4994 460.6757,-143.9454"/>
<polygon fill="#191970" stroke="#191970" points="459.4488,-147.2233 470.0408,-147.4683 461.9135,-140.6715 459.4488,-147.2233"/>
</g>
<!-- Node3088&#45;&gt;Node3086 -->
<g id="edge4" class="edge">
<title>Node3088&#45;&gt;Node3086</title>
<path fill="none" stroke="#191970" d="M446.9797,-159.6044C401.9516,-155.8465 340.6292,-147.2309 290,-127.5 266.3016,-118.2644 242.445,-102.0977 225.1797,-88.8711"/>
<polygon fill="#191970" stroke="#191970" points="227.2904,-86.0784 217.263,-82.6575 222.9684,-91.5849 227.2904,-86.0784"/>
</g>
<!-- Node3089 -->
<g id="node5" class="node">
<title>Node3089</title>
<g id="a_node5"><a xlink:href="namespacecimg__library__suffixed_1_1cimg.html#a01a3b743897290604513ea6d847c9886" target="_top" xlink:title="cimg_library_suffixed\l::cimg::_stdin">
<polygon fill="#ffffff" stroke="#000000" points="609,-71.5 609,-101.5 718,-101.5 718,-71.5 609,-71.5"/>
<text text-anchor="start" x="617" y="-89.5" font-family="Helvetica,sans-Serif" font-size="10.00" fill="#000000">cimg_library_suffixed</text>
<text text-anchor="middle" x="663.5" y="-78.5" font-family="Helvetica,sans-Serif" font-size="10.00" fill="#000000">::cimg::_stdin</text>
</a>
</g>
</g>
<!-- Node3088&#45;&gt;Node3089 -->
<g id="edge5" class="edge">
<title>Node3088&#45;&gt;Node3089</title>
<path fill="none" stroke="#191970" d="M538.4192,-147.4235C558.1148,-137.0826 585.0088,-123.1746 609,-111.5 612.7909,-109.6552 616.7464,-107.7685 620.7196,-105.8992"/>
<polygon fill="#191970" stroke="#191970" points="622.3668,-108.993 629.953,-101.5971 619.4104,-102.6479 622.3668,-108.993"/>
</g>
<!-- Node3088&#45;&gt;Node3091 -->
<g id="edge17" class="edge">
<title>Node3088&#45;&gt;Node3091</title>
<path fill="none" stroke="#191970" d="M573.205,-166.6919C614.6379,-168.2636 669.8476,-168.1244 718,-160.5 785.7736,-149.7688 860.8915,-123.5144 907.656,-105.3521"/>
<polygon fill="#191970" stroke="#191970" points="909.1629,-108.5206 917.1919,-101.6078 906.6045,-102.0049 909.1629,-108.5206"/>
</g>
<!-- Node3096 -->
<g id="node12" class="node">
<title>Node3096</title>
<g id="a_node12"><a xlink:href="namespacecimg__library__suffixed_1_1cimg.html#a493220746e5df3466568bd7862825008" target="_top" xlink:title="cimg_library_suffixed\l::cimg::_stdout">
<polygon fill="#ffffff" stroke="#000000" points="609,-120.5 609,-150.5 718,-150.5 718,-120.5 609,-120.5"/>
<text text-anchor="start" x="617" y="-138.5" font-family="Helvetica,sans-Serif" font-size="10.00" fill="#000000">cimg_library_suffixed</text>
<text text-anchor="middle" x="663.5" y="-127.5" font-family="Helvetica,sans-Serif" font-size="10.00" fill="#000000">::cimg::_stdout</text>
</a>
</g>
</g>
<!-- Node3088&#45;&gt;Node3096 -->
<g id="edge14" class="edge">
<title>Node3088&#45;&gt;Node3096</title>
<path fill="none" stroke="#191970" d="M573.3205,-151.3622C581.6577,-149.8957 590.2131,-148.3909 598.5765,-146.9198"/>
<polygon fill="#191970" stroke="#191970" points="599.4128,-150.3265 608.6553,-145.147 598.2001,-143.4323 599.4128,-150.3265"/>
</g>
<!-- Node3089&#45;&gt;Node3087 -->
<g id="edge6" class="edge">
<title>Node3089&#45;&gt;Node3087</title>
<path fill="none" stroke="#191970" d="M608.9666,-89.2876C556.8805,-91.9502 478.1092,-95.9768 421.2205,-98.8849"/>
<polygon fill="#191970" stroke="#191970" points="421.0289,-95.39 411.2207,-99.3961 421.3864,-102.3809 421.0289,-95.39"/>
</g>
<!-- Node3089&#45;&gt;Node3090 -->
<g id="edge7" class="edge">
<title>Node3089&#45;&gt;Node3090</title>
<path fill="none" stroke="#191970" d="M718.3183,-86.5C726.5286,-86.5 735.0611,-86.5 743.4586,-86.5"/>
<polygon fill="#191970" stroke="#191970" points="743.6042,-90.0001 753.6042,-86.5 743.6042,-83.0001 743.6042,-90.0001"/>
</g>
<!-- Node3090&#45;&gt;Node3091 -->
<g id="edge8" class="edge">
<title>Node3090&#45;&gt;Node3091</title>
<path fill="none" stroke="#191970" d="M863.3183,-86.5C871.5286,-86.5 880.0611,-86.5 888.4586,-86.5"/>
<polygon fill="#191970" stroke="#191970" points="888.6042,-90.0001 898.6042,-86.5 888.6042,-83.0001 888.6042,-90.0001"/>
</g>
<!-- Node3092 -->
<g id="node8" class="node">
<title>Node3092</title>
<g id="a_node8"><a xlink:href="structcimg__library__suffixed_1_1cimg_1_1_mutex__info.html#a6cc8e26847a1aa649febed03d70182e7" target="_top" xlink:title="cimg_library_suffixed\l::cimg::Mutex_info::lock">
<polygon fill="#ffffff" stroke="#000000" points="1049.5,-137.5 1049.5,-167.5 1171.5,-167.5 1171.5,-137.5 1049.5,-137.5"/>
<text text-anchor="start" x="1057.5" y="-155.5" font-family="Helvetica,sans-Serif" font-size="10.00" fill="#000000">cimg_library_suffixed</text>
<text text-anchor="middle" x="1110.5" y="-144.5" font-family="Helvetica,sans-Serif" font-size="10.00" fill="#000000">::cimg::Mutex_info::lock</text>
</a>
</g>
</g>
<!-- Node3091&#45;&gt;Node3092 -->
<g id="edge9" class="edge">
<title>Node3091&#45;&gt;Node3092</title>
<path fill="none" stroke="#191970" d="M989.519,-101.6417C1012.0569,-111.1163 1041.2804,-123.4013 1065.3593,-133.5237"/>
<polygon fill="#191970" stroke="#191970" points="1064.0737,-136.7798 1074.6486,-137.4287 1066.7864,-130.3268 1064.0737,-136.7798"/>
</g>
<!-- Node3093 -->
<g id="node9" class="node">
<title>Node3093</title>
<g id="a_node9"><a xlink:href="namespacecimg__library__suffixed_1_1cimg.html#aa0e1bc96ae6e235dc5b67b8b0a466166" target="_top" xlink:title="cimg_library_suffixed\l::cimg::Mutex_attr">
<polygon fill="#ffffff" stroke="#000000" points="1213,-71.5 1213,-101.5 1322,-101.5 1322,-71.5 1213,-71.5"/>
<text text-anchor="start" x="1221" y="-89.5" font-family="Helvetica,sans-Serif" font-size="10.00" fill="#000000">cimg_library_suffixed</text>
<text text-anchor="middle" x="1267.5" y="-78.5" font-family="Helvetica,sans-Serif" font-size="10.00" fill="#000000">::cimg::Mutex_attr</text>
</a>
</g>
</g>
<!-- Node3091&#45;&gt;Node3093 -->
<g id="edge10" class="edge">
<title>Node3091&#45;&gt;Node3093</title>
<path fill="none" stroke="#191970" d="M1008.0532,-87.9005C1019.9033,-88.1502 1032.3711,-88.3715 1044,-88.5 1103.1075,-89.153 1117.8925,-89.153 1177,-88.5 1185.3582,-88.4077 1194.1499,-88.2674 1202.8341,-88.103"/>
<polygon fill="#191970" stroke="#191970" points="1203.019,-91.6001 1212.9468,-87.9005 1202.8787,-84.6015 1203.019,-91.6001"/>
</g>
<!-- Node3094 -->
<g id="node10" class="node">
<title>Node3094</title>
<g id="a_node10"><a xlink:href="structcimg__library__suffixed_1_1cimg_1_1_mutex__info.html#a9bf4ed1e1dfe6f28fa6250cd04f3c900" target="_top" xlink:title="cimg_library_suffixed\l::cimg::Mutex_info::trylock">
<polygon fill="#ffffff" stroke="#000000" points="1044,-49.5 1044,-79.5 1177,-79.5 1177,-49.5 1044,-49.5"/>
<text text-anchor="start" x="1052" y="-67.5" font-family="Helvetica,sans-Serif" font-size="10.00" fill="#000000">cimg_library_suffixed</text>
<text text-anchor="middle" x="1110.5" y="-56.5" font-family="Helvetica,sans-Serif" font-size="10.00" fill="#000000">::cimg::Mutex_info::trylock</text>
</a>
</g>
</g>
<!-- Node3091&#45;&gt;Node3094 -->
<g id="edge11" class="edge">
<title>Node3091&#45;&gt;Node3094</title>
<path fill="none" stroke="#191970" d="M1008.411,-78.8055C1016.6098,-77.6566 1025.187,-76.4547 1033.7367,-75.2566"/>
<polygon fill="#191970" stroke="#191970" points="1034.3189,-78.7093 1043.7365,-73.8554 1033.3475,-71.7771 1034.3189,-78.7093"/>
</g>
<!-- Node3095 -->
<g id="node11" class="node">
<title>Node3095</title>
<g id="a_node11"><a xlink:href="structcimg__library__suffixed_1_1cimg_1_1_mutex__info.html#afac3fa5f107ad4795fb867050f616555" target="_top" xlink:title="cimg_library_suffixed\l::cimg::Mutex_info::unlock">
<polygon fill="#ffffff" stroke="#000000" points="1044.5,-.5 1044.5,-30.5 1176.5,-30.5 1176.5,-.5 1044.5,-.5"/>
<text text-anchor="start" x="1052.5" y="-18.5" font-family="Helvetica,sans-Serif" font-size="10.00" fill="#000000">cimg_library_suffixed</text>
<text text-anchor="middle" x="1110.5" y="-7.5" font-family="Helvetica,sans-Serif" font-size="10.00" fill="#000000">::cimg::Mutex_info::unlock</text>
</a>
</g>
</g>
<!-- Node3091&#45;&gt;Node3095 -->
<g id="edge13" class="edge">
<title>Node3091&#45;&gt;Node3095</title>
<path fill="none" stroke="#191970" d="M980.3679,-71.3503C998.1357,-61.6318 1022.1057,-49.0857 1044,-39.5 1048.0951,-37.7071 1052.3711,-35.9385 1056.6935,-34.2237"/>
<polygon fill="#191970" stroke="#191970" points="1058.1067,-37.43 1066.1781,-30.5669 1055.5885,-30.8987 1058.1067,-37.43"/>
</g>
<!-- Node3094&#45;&gt;Node3093 -->
<g id="edge12" class="edge">
<title>Node3094&#45;&gt;Node3093</title>
<path fill="none" stroke="#191970" d="M1177.0821,-73.83C1185.5193,-75.0123 1194.1445,-76.2209 1202.5556,-77.3995"/>
<polygon fill="#191970" stroke="#191970" points="1202.293,-80.8968 1212.682,-78.8185 1203.2645,-73.9646 1202.293,-80.8968"/>
</g>
<!-- Node3096&#45;&gt;Node3087 -->
<g id="edge15" class="edge">
<title>Node3096&#45;&gt;Node3087</title>
<path fill="none" stroke="#191970" d="M608.9666,-129.7505C556.8805,-124.259 478.1092,-115.954 421.2205,-109.9562"/>
<polygon fill="#191970" stroke="#191970" points="421.5326,-106.4697 411.2207,-108.9019 420.7986,-113.4312 421.5326,-106.4697"/>
</g>
<!-- Node3096&#45;&gt;Node3090 -->
<g id="edge16" class="edge">
<title>Node3096&#45;&gt;Node3090</title>
<path fill="none" stroke="#191970" d="M708.1879,-120.3986C722.659,-115.5083 738.8725,-110.0293 753.9752,-104.9256"/>
<polygon fill="#191970" stroke="#191970" points="755.3569,-108.1532 763.71,-101.6359 753.1158,-101.5217 755.3569,-108.1532"/>
</g>
</g>
</svg>
        <g id="navigator" transform="translate(0 0)" fill="#404254">
                <rect fill="#f2f5e9" fill-opacity="0.5" stroke="#606060" stroke-width=".5" x="0" y="0" width="60" height="60"/>
                <use id="zoomplus" xlink:href="#zoomPlus" x="17" y="9" onmousedown="handleZoom(evt,'in')"/>
                <use id="zoomminus" xlink:href="#zoomMin" x="42" y="9" onmousedown="handleZoom(evt,'out')"/>
                <use id="reset" xlink:href="#resetDef" x="30" y="36" onmousedown="handleReset()"/>
                <g id="arrowUp" xlink:href="#dirArrow" transform="translate(30 24)" onmousedown="handlePan(0,-1)">
                  <use xlink:href="#rim" fill="#404040">
                        <set attributeName="fill" to="#808080" begin="arrowUp.mouseover" end="arrowUp.mouseout"/>
                  </use>
                  <path fill="none" stroke="white" stroke-width="1.5" d="M0,-3.0v7 M-2.5,-0.5L0,-3.0L2.5,-0.5"/>
                </g>
                <g id="arrowRight" xlink:href="#dirArrow" transform="rotate(90) translate(36 -43)" onmousedown="handlePan(1,0)">
                  <use xlink:href="#rim" fill="#404040">
                        <set attributeName="fill" to="#808080" begin="arrowRight.mouseover" end="arrowRight.mouseout"/>
                  </use>
                  <path fill="none" stroke="white" stroke-width="1.5" d="M0,-3.0v7 M-2.5,-0.5L0,-3.0L2.5,-0.5"/>
                </g>
                <g id="arrowDown" xlink:href="#dirArrow" transform="rotate(180) translate(-30 -48)" onmousedown="handlePan(0,1)">
                  <use xlink:href="#rim" fill="#404040">
                        <set attributeName="fill" to="#808080" begin="arrowDown.mouseover" end="arrowDown.mouseout"/>
                  </use>
                  <path fill="none" stroke="white" stroke-width="1.5" d="M0,-3.0v7 M-2.5,-0.5L0,-3.0L2.5,-0.5"/>
                </g>
                <g id="arrowLeft" xlink:href="#dirArrow" transform="rotate(270) translate(-36 17)" onmousedown="handlePan(-1,0)">
                  <use xlink:href="#rim" fill="#404040">
                        <set attributeName="fill" to="#808080" begin="arrowLeft.mouseover" end="arrowLeft.mouseout"/>
                  </use>
                  <path fill="none" stroke="white" stroke-width="1.5" d="M0,-3.0v7 M-2.5,-0.5L0,-3.0L2.5,-0.5"/>
                </g>
        </g>
        <svg viewBox="0 0 15 15" width="100%" height="30px" preserveAspectRatio="xMaxYMin meet">
         <g id="arrow_out" transform="scale(0.3 0.3)">
          <a xlink:href="namespacecimg__library__suffixed_1_1cimg_ada686776cc71803df391eea79cd1b3e5_cgraph_org.svg" target="_base">
           <rect id="button" ry="5" rx="5" y="6" x="6" height="38" width="38"
                fill="#f2f5e9" fill-opacity="0.5" stroke="#606060" stroke-width="1.0"/>
           <path id="arrow"
             d="M 11.500037,31.436501 C 11.940474,20.09759 22.043105,11.32322 32.158766,21.979434 L 37.068811,17.246167 C 37.068811,17.246167 37.088388,32 37.088388,32 L 22.160133,31.978069 C 22.160133,31.978069 26.997745,27.140456 26.997745,27.140456 C 18.528582,18.264221 13.291696,25.230495 11.500037,31.436501 z"
             style="fill:#404040;"/>
          </a>
         </g>
        </svg>
</svg>
