<?xml version="1.0" encoding="UTF-8" standalone="no"?>
<!DOCTYPE svg PUBLIC "-//W3C//DTD SVG 1.1//EN"
 "http://www.w3.org/Graphics/SVG/1.1/DTD/svg11.dtd">
<!-- Generated by graphviz version 2.40.1 (20161225.0304)
 -->
<!-- Title: cimg_library_suffixed::cimg::temporary Pages: 1 -->
<svg width="293pt" height="503pt"
 viewBox="0.00 0.00 293.00 503.00" xmlns="http://www.w3.org/2000/svg" xmlns:xlink="http://www.w3.org/1999/xlink">
<g id="graph0" class="graph" transform="scale(1 1) rotate(0) translate(4 499)">
<title>cimg_library_suffixed::cimg::temporary</title>
<polygon fill="#ffffff" stroke="transparent" points="-4,4 -4,-499 289,-499 289,4 -4,4"/>
<!-- Node3954 -->
<g id="node1" class="node">
<title>Node3954</title>
<polygon fill="#bfbfbf" stroke="#000000" points="0,-232.5 0,-262.5 109,-262.5 109,-232.5 0,-232.5"/>
<text text-anchor="start" x="8" y="-250.5" font-family="Helvetica,sans-Serif" font-size="10.00" fill="#000000">cimg_library_suffixed</text>
<text text-anchor="middle" x="54.5" y="-239.5" font-family="Helvetica,sans-Serif" font-size="10.00" fill="#000000">::cimg::temporary</text>
</g>
<!-- Node3955 -->
<g id="node2" class="node">
<title>Node3955</title>
<g id="a_node2"><a xlink:href="structcimg__library__suffixed_1_1_c_img.html#a5da30dffd42921f672501b27c6829851" target="_top" xlink:title="Access to a pixel value at a specified offset, using Dirichlet boundary conditions. ">
<polygon fill="#ffffff" stroke="#000000" points="160.5,-464.5 160.5,-494.5 269.5,-494.5 269.5,-464.5 160.5,-464.5"/>
<text text-anchor="start" x="168.5" y="-482.5" font-family="Helvetica,sans-Serif" font-size="10.00" fill="#000000">cimg_library_suffixed</text>
<text text-anchor="middle" x="215" y="-471.5" font-family="Helvetica,sans-Serif" font-size="10.00" fill="#000000">::CImg&lt; charT &gt;::at</text>
</a>
</g>
</g>
<!-- Node3954&#45;&gt;Node3955 -->
<g id="edge1" class="edge">
<title>Node3954&#45;&gt;Node3955</title>
<path fill="none" stroke="#191970" d="M58.6768,-272.7394C67.1602,-316.1543 90.4428,-405.1464 145,-455.5 149.5316,-459.6824 154.8247,-463.1402 160.4346,-465.998"/>
<polygon fill="#191970" stroke="#191970" points="62.0872,-271.9329 56.8289,-262.735 55.2036,-273.2044 62.0872,-271.9329"/>
</g>
<!-- Node3956 -->
<g id="node3" class="node">
<title>Node3956</title>
<g id="a_node3"><a xlink:href="structcimg__library__suffixed_1_1_c_img_list.html#a37f83bbfefb04d6f83c39185a45b776e" target="_top" xlink:title="Access to pixel value with Dirichlet boundary conditions for the coordinate (pos). ">
<polygon fill="#ffffff" stroke="#000000" points="151.5,-415.5 151.5,-445.5 278.5,-445.5 278.5,-415.5 151.5,-415.5"/>
<text text-anchor="start" x="159.5" y="-433.5" font-family="Helvetica,sans-Serif" font-size="10.00" fill="#000000">cimg_library_suffixed</text>
<text text-anchor="middle" x="215" y="-422.5" font-family="Helvetica,sans-Serif" font-size="10.00" fill="#000000">::CImgList&lt; charT &gt;::atN</text>
</a>
</g>
</g>
<!-- Node3954&#45;&gt;Node3956 -->
<g id="edge2" class="edge">
<title>Node3954&#45;&gt;Node3956</title>
<path fill="none" stroke="#191970" d="M62.3499,-272.4306C74.5562,-307.2764 101.3317,-370.325 145,-406.5 149.1553,-409.9422 153.8312,-412.901 158.7452,-415.4422"/>
<polygon fill="#191970" stroke="#191970" points="65.5405,-270.9388 59.027,-262.5827 58.9079,-273.1769 65.5405,-270.9388"/>
</g>
<!-- Node3957 -->
<g id="node4" class="node">
<title>Node3957</title>
<g id="a_node4"><a xlink:href="structcimg__library__suffixed_1_1_c_img_list.html#ad039c1fa9f588076cd559df640985bcb" target="_top" xlink:title="Access to pixel value with Dirichlet boundary conditions for the 2 coordinates (pos,x). ">
<polygon fill="#ffffff" stroke="#000000" points="148,-366.5 148,-396.5 282,-396.5 282,-366.5 148,-366.5"/>
<text text-anchor="start" x="156" y="-384.5" font-family="Helvetica,sans-Serif" font-size="10.00" fill="#000000">cimg_library_suffixed</text>
<text text-anchor="middle" x="215" y="-373.5" font-family="Helvetica,sans-Serif" font-size="10.00" fill="#000000">::CImgList&lt; charT &gt;::atNX</text>
</a>
</g>
</g>
<!-- Node3954&#45;&gt;Node3957 -->
<g id="edge3" class="edge">
<title>Node3954&#45;&gt;Node3957</title>
<path fill="none" stroke="#191970" d="M68.4933,-271.3379C84.1904,-296.1419 111.8439,-334.5075 145,-357.5 149.8563,-360.8677 155.2275,-363.8 160.7718,-366.3446"/>
<polygon fill="#191970" stroke="#191970" points="71.305,-269.2293 63.076,-262.5558 65.3473,-272.9044 71.305,-269.2293"/>
</g>
<!-- Node3958 -->
<g id="node5" class="node">
<title>Node3958</title>
<g id="a_node5"><a xlink:href="structcimg__library__suffixed_1_1_c_img_list.html#a3f86d4aee684612ab167a8d4419ad18c" target="_top" xlink:title="Access to pixel value with Dirichlet boundary conditions for the 3 coordinates (pos, x,y). ">
<polygon fill="#ffffff" stroke="#000000" points="145,-317.5 145,-347.5 285,-347.5 285,-317.5 145,-317.5"/>
<text text-anchor="start" x="153" y="-335.5" font-family="Helvetica,sans-Serif" font-size="10.00" fill="#000000">cimg_library_suffixed</text>
<text text-anchor="middle" x="215" y="-324.5" font-family="Helvetica,sans-Serif" font-size="10.00" fill="#000000">::CImgList&lt; charT &gt;::atNXY</text>
</a>
</g>
</g>
<!-- Node3954&#45;&gt;Node3958 -->
<g id="edge4" class="edge">
<title>Node3954&#45;&gt;Node3958</title>
<path fill="none" stroke="#191970" d="M82.6489,-268.74C99.9897,-281.1584 123.0384,-296.503 145,-307.5 152.1541,-311.0823 159.9487,-314.3958 167.654,-317.3606"/>
<polygon fill="#191970" stroke="#191970" points="84.2835,-265.6011 74.1371,-262.5512 80.167,-271.2628 84.2835,-265.6011"/>
</g>
<!-- Node3959 -->
<g id="node6" class="node">
<title>Node3959</title>
<g id="a_node6"><a xlink:href="structcimg__library__suffixed_1_1_c_img_list.html#a2fa5711e480b6120cb5dfa27b718a08b" target="_top" xlink:title="Access pixel value with Dirichlet boundary conditions for the 3 coordinates (pos, x...">
<polygon fill="#ffffff" stroke="#000000" points="159.5,-257 159.5,-298 270.5,-298 270.5,-257 159.5,-257"/>
<text text-anchor="start" x="167.5" y="-286" font-family="Helvetica,sans-Serif" font-size="10.00" fill="#000000">cimg_library_suffixed</text>
<text text-anchor="start" x="167.5" y="-275" font-family="Helvetica,sans-Serif" font-size="10.00" fill="#000000">::CImgList&lt; charT &gt;::</text>
<text text-anchor="middle" x="215" y="-264" font-family="Helvetica,sans-Serif" font-size="10.00" fill="#000000">atNXYZ</text>
</a>
</g>
</g>
<!-- Node3954&#45;&gt;Node3959 -->
<g id="edge5" class="edge">
<title>Node3954&#45;&gt;Node3959</title>
<path fill="none" stroke="#191970" d="M119.3013,-259.6124C132.5808,-262.0945 146.4469,-264.6863 159.3698,-267.1018"/>
<polygon fill="#191970" stroke="#191970" points="119.759,-256.1374 109.2861,-257.7404 118.4728,-263.0182 119.759,-256.1374"/>
</g>
<!-- Node3960 -->
<g id="node7" class="node">
<title>Node3960</title>
<g id="a_node7"><a xlink:href="structcimg__library__suffixed_1_1_c_img_list.html#a1c1316b23ca9a215d0d8d9ca0b9fc7a6" target="_top" xlink:title="Access to pixel value with Dirichlet boundary conditions. ">
<polygon fill="#ffffff" stroke="#000000" points="159.5,-197 159.5,-238 270.5,-238 270.5,-197 159.5,-197"/>
<text text-anchor="start" x="167.5" y="-226" font-family="Helvetica,sans-Serif" font-size="10.00" fill="#000000">cimg_library_suffixed</text>
<text text-anchor="start" x="167.5" y="-215" font-family="Helvetica,sans-Serif" font-size="10.00" fill="#000000">::CImgList&lt; charT &gt;::</text>
<text text-anchor="middle" x="215" y="-204" font-family="Helvetica,sans-Serif" font-size="10.00" fill="#000000">atNXYZC</text>
</a>
</g>
</g>
<!-- Node3954&#45;&gt;Node3960 -->
<g id="edge6" class="edge">
<title>Node3954&#45;&gt;Node3960</title>
<path fill="none" stroke="#191970" d="M119.3013,-235.3876C132.5808,-232.9055 146.4469,-230.3137 159.3698,-227.8982"/>
<polygon fill="#191970" stroke="#191970" points="118.4728,-231.9818 109.2861,-237.2596 119.759,-238.8626 118.4728,-231.9818"/>
</g>
<!-- Node3961 -->
<g id="node8" class="node">
<title>Node3961</title>
<g id="a_node8"><a xlink:href="structcimg__library__suffixed_1_1_c_img.html#a287695b10307177c907b71dca50548e6" target="_top" xlink:title="Access to a pixel value, using Dirichlet boundary conditions for the X&#45;coordinate. ">
<polygon fill="#ffffff" stroke="#000000" points="160,-147.5 160,-177.5 270,-177.5 270,-147.5 160,-147.5"/>
<text text-anchor="start" x="168" y="-165.5" font-family="Helvetica,sans-Serif" font-size="10.00" fill="#000000">cimg_library_suffixed</text>
<text text-anchor="middle" x="215" y="-154.5" font-family="Helvetica,sans-Serif" font-size="10.00" fill="#000000">::CImg&lt; charT &gt;::atX</text>
</a>
</g>
</g>
<!-- Node3954&#45;&gt;Node3961 -->
<g id="edge7" class="edge">
<title>Node3954&#45;&gt;Node3961</title>
<path fill="none" stroke="#191970" d="M82.6489,-226.26C99.9897,-213.8416 123.0384,-198.497 145,-187.5 152.1541,-183.9177 159.9487,-180.6042 167.654,-177.6394"/>
<polygon fill="#191970" stroke="#191970" points="80.167,-223.7372 74.1371,-232.4488 84.2835,-229.3989 80.167,-223.7372"/>
</g>
<!-- Node3962 -->
<g id="node9" class="node">
<title>Node3962</title>
<g id="a_node9"><a xlink:href="structcimg__library__suffixed_1_1_c_img.html#a3bf56ecd0c7cdd9afa18cd3503b883f7" target="_top" xlink:title="Access to a pixel value, using Dirichlet boundary conditions for the X and Y&#45;coordinates. ">
<polygon fill="#ffffff" stroke="#000000" points="156.5,-98.5 156.5,-128.5 273.5,-128.5 273.5,-98.5 156.5,-98.5"/>
<text text-anchor="start" x="164.5" y="-116.5" font-family="Helvetica,sans-Serif" font-size="10.00" fill="#000000">cimg_library_suffixed</text>
<text text-anchor="middle" x="215" y="-105.5" font-family="Helvetica,sans-Serif" font-size="10.00" fill="#000000">::CImg&lt; charT &gt;::atXY</text>
</a>
</g>
</g>
<!-- Node3954&#45;&gt;Node3962 -->
<g id="edge8" class="edge">
<title>Node3954&#45;&gt;Node3962</title>
<path fill="none" stroke="#191970" d="M68.8598,-223.565C84.6907,-199.048 112.2965,-161.3787 145,-138.5 150.3927,-134.7274 156.4149,-131.4657 162.6018,-128.6611"/>
<polygon fill="#191970" stroke="#191970" points="65.7517,-221.9325 63.3829,-232.2592 71.6744,-225.6636 65.7517,-221.9325"/>
</g>
<!-- Node3963 -->
<g id="node10" class="node">
<title>Node3963</title>
<g id="a_node10"><a xlink:href="structcimg__library__suffixed_1_1_c_img.html#a43ed89bdc5e4f1b667b118057ce0717e" target="_top" xlink:title="Access to a pixel value, using Dirichlet boundary conditions for the X,Y and Z&#45;coordinates. ">
<polygon fill="#ffffff" stroke="#000000" points="153.5,-49.5 153.5,-79.5 276.5,-79.5 276.5,-49.5 153.5,-49.5"/>
<text text-anchor="start" x="161.5" y="-67.5" font-family="Helvetica,sans-Serif" font-size="10.00" fill="#000000">cimg_library_suffixed</text>
<text text-anchor="middle" x="215" y="-56.5" font-family="Helvetica,sans-Serif" font-size="10.00" fill="#000000">::CImg&lt; charT &gt;::atXYZ</text>
</a>
</g>
</g>
<!-- Node3954&#45;&gt;Node3963 -->
<g id="edge9" class="edge">
<title>Node3954&#45;&gt;Node3963</title>
<path fill="none" stroke="#191970" d="M62.6455,-222.2731C75.0649,-187.6304 101.9394,-125.5365 145,-89.5 149.5523,-85.6903 154.7287,-82.4425 160.1581,-79.6777"/>
<polygon fill="#191970" stroke="#191970" points="59.2134,-221.489 59.2534,-232.0837 65.8291,-223.7765 59.2134,-221.489"/>
</g>
<!-- Node3964 -->
<g id="node11" class="node">
<title>Node3964</title>
<g id="a_node11"><a xlink:href="structcimg__library__suffixed_1_1_c_img.html#adf90bc30dc08194ffb4024cbc3378db4" target="_top" xlink:title="Access to a pixel value, using Dirichlet boundary conditions. ">
<polygon fill="#ffffff" stroke="#000000" points="149.5,-.5 149.5,-30.5 280.5,-30.5 280.5,-.5 149.5,-.5"/>
<text text-anchor="start" x="157.5" y="-18.5" font-family="Helvetica,sans-Serif" font-size="10.00" fill="#000000">cimg_library_suffixed</text>
<text text-anchor="middle" x="215" y="-7.5" font-family="Helvetica,sans-Serif" font-size="10.00" fill="#000000">::CImg&lt; charT &gt;::atXYZC</text>
</a>
</g>
</g>
<!-- Node3954&#45;&gt;Node3964 -->
<g id="edge10" class="edge">
<title>Node3954&#45;&gt;Node3964</title>
<path fill="none" stroke="#191970" d="M58.7802,-222.4519C67.4217,-179.3527 90.9389,-90.9472 145,-40.5 149.1513,-36.6262 153.9435,-33.3455 159.0336,-30.5684"/>
<polygon fill="#191970" stroke="#191970" points="55.3216,-221.905 56.8942,-232.3825 62.1987,-223.2112 55.3216,-221.905"/>
</g>
</g>
</svg>
