<?xml version="1.0" encoding="UTF-8" standalone="no"?>
<!DOCTYPE svg PUBLIC "-//W3C//DTD SVG 1.1//EN"
 "http://www.w3.org/Graphics/SVG/1.1/DTD/svg11.dtd">
<!-- Generated by graphviz version 2.40.1 (20161225.0304)
 -->
<!-- Title: cimg_library_suffixed::cimg::option Pages: 1 -->
<!--zoomable 214 -->
<svg id="main" version="1.1" xmlns="http://www.w3.org/2000/svg" xmlns:xlink="http://www.w3.org/1999/xlink" xml:space="preserve" onload="init(evt)">
<style type="text/css"><![CDATA[
.edge:hover path { stroke: red; }
.edge:hover polygon { stroke: red; fill: red; }
]]></style>
<script type="text/javascript"><![CDATA[
var edges = document.getElementsByTagName('g');
if (edges && edges.length) {
  for (var i=0;i<edges.length;i++) {
    if (edges[i].id.substr(0,4)=='edge') {
      edges[i].setAttribute('class','edge');
    }
  }
}
]]></script>
        <defs>
                <circle id="rim" cx="0" cy="0" r="7"/>
                <circle id="rim2" cx="0" cy="0" r="3.5"/>
                <g id="zoomPlus">
                        <use xlink:href="#rim" fill="#404040">
                                <set attributeName="fill" to="#808080" begin="zoomplus.mouseover" end="zoomplus.mouseout"/>
                        </use>
                        <path d="M-4,0h8M0,-4v8" fill="none" stroke="white" stroke-width="1.5" pointer-events="none"/>
                </g>
                <g id="zoomMin">
                        <use xlink:href="#rim" fill="#404040">
                                <set attributeName="fill" to="#808080" begin="zoomminus.mouseover" end="zoomminus.mouseout"/>
                        </use>
                        <path d="M-4,0h8" fill="none" stroke="white" stroke-width="1.5" pointer-events="none"/>
                </g>
                <g id="dirArrow">
                        <path fill="none" stroke="white" stroke-width="1.5" d="M0,-3.0v7 M-2.5,-0.5L0,-3.0L2.5,-0.5"/>
                </g>
               <g id="resetDef">
                       <use xlink:href="#rim2" fill="#404040">
                               <set attributeName="fill" to="#808080" begin="reset.mouseover" end="reset.mouseout"/>
                       </use>
               </g>
        </defs>

<script type="text/javascript">
var viewWidth = 1475;
var viewHeight = 214;
var sectionId = 'dynsection-114';
</script>
<script xlink:href="svgpan.js"/>
<svg id="graph" class="graph">
<g id="viewport">
<title>cimg_library_suffixed::cimg::option</title>
<polygon fill="#ffffff" stroke="transparent" points="-4,4 -4,-209.8146 1471,-209.8146 1471,4 -4,4"/>
<!-- Node2975 -->
<g id="node1" class="node">
<title>Node2975</title>
<polygon fill="#bfbfbf" stroke="#000000" points="0,-100.3146 0,-130.3146 109,-130.3146 109,-100.3146 0,-100.3146"/>
<text text-anchor="start" x="8" y="-118.3146" font-family="Helvetica,sans-Serif" font-size="10.00" fill="#000000">cimg_library_suffixed</text>
<text text-anchor="middle" x="54.5" y="-107.3146" font-family="Helvetica,sans-Serif" font-size="10.00" fill="#000000">::cimg::option</text>
</g>
<!-- Node2976 -->
<g id="node2" class="node">
<title>Node2976</title>
<g id="a_node2"><a xlink:href="namespacecimg__library__suffixed_1_1cimg.html#ada686776cc71803df391eea79cd1b3e5" target="_top" xlink:title="Get/set default output stream for the &#160;library messages. ">
<polygon fill="#ffffff" stroke="#000000" points="145,-100.3146 145,-130.3146 254,-130.3146 254,-100.3146 145,-100.3146"/>
<text text-anchor="start" x="153" y="-118.3146" font-family="Helvetica,sans-Serif" font-size="10.00" fill="#000000">cimg_library_suffixed</text>
<text text-anchor="middle" x="199.5" y="-107.3146" font-family="Helvetica,sans-Serif" font-size="10.00" fill="#000000">::cimg::output</text>
</a>
</g>
</g>
<!-- Node2975&#45;&gt;Node2976 -->
<g id="edge1" class="edge">
<title>Node2975&#45;&gt;Node2976</title>
<path fill="none" stroke="#191970" d="M109.3183,-115.3146C117.5286,-115.3146 126.0611,-115.3146 134.4586,-115.3146"/>
<polygon fill="#191970" stroke="#191970" points="134.6042,-118.8147 144.6042,-115.3146 134.6042,-111.8147 134.6042,-118.8147"/>
</g>
<!-- Node2977 -->
<g id="node3" class="node">
<title>Node2977</title>
<g id="a_node3"><a xlink:href="namespacecimg__library__suffixed_1_1cimg.html#a9e739e4b4ac058abfba069466617b914" target="_top" xlink:title="cimg_library_suffixed\l::cimg::mutex">
<polygon fill="#ffffff" stroke="#000000" points="1044,-109.3146 1044,-139.3146 1153,-139.3146 1153,-109.3146 1044,-109.3146"/>
<text text-anchor="start" x="1052" y="-127.3146" font-family="Helvetica,sans-Serif" font-size="10.00" fill="#000000">cimg_library_suffixed</text>
<text text-anchor="middle" x="1098.5" y="-116.3146" font-family="Helvetica,sans-Serif" font-size="10.00" fill="#000000">::cimg::mutex</text>
</a>
</g>
</g>
<!-- Node2976&#45;&gt;Node2977 -->
<g id="edge2" class="edge">
<title>Node2976&#45;&gt;Node2977</title>
<path fill="none" stroke="#191970" d="M254.1873,-129.2889C313.2822,-143.1432 410.4266,-162.3146 495.5,-162.3146 495.5,-162.3146 495.5,-162.3146 808.5,-162.3146 886.6212,-162.3146 975.5842,-148.5901 1034.1426,-137.6372"/>
<polygon fill="#191970" stroke="#191970" points="1034.8206,-141.0711 1043.9924,-135.7674 1033.515,-134.1939 1034.8206,-141.0711"/>
</g>
<!-- Node2982 -->
<g id="node8" class="node">
<title>Node2982</title>
<g id="a_node8"><a xlink:href="namespacecimg__library__suffixed_1_1cimg.html#aab8db7528c32a8fd3a3dc471e662782e" target="_top" xlink:title="cimg_library_suffixed\l::cimg::_stderr">
<polygon fill="#ffffff" stroke="#000000" points="290,-76.3146 290,-106.3146 399,-106.3146 399,-76.3146 290,-76.3146"/>
<text text-anchor="start" x="298" y="-94.3146" font-family="Helvetica,sans-Serif" font-size="10.00" fill="#000000">cimg_library_suffixed</text>
<text text-anchor="middle" x="344.5" y="-83.3146" font-family="Helvetica,sans-Serif" font-size="10.00" fill="#000000">::cimg::_stderr</text>
</a>
</g>
</g>
<!-- Node2976&#45;&gt;Node2982 -->
<g id="edge8" class="edge">
<title>Node2976&#45;&gt;Node2982</title>
<path fill="none" stroke="#191970" d="M254.3183,-106.2412C262.6188,-104.8673 271.2486,-103.4389 279.7354,-102.0342"/>
<polygon fill="#191970" stroke="#191970" points="280.31,-105.4868 289.6042,-100.4008 279.1669,-98.5808 280.31,-105.4868"/>
</g>
<!-- Node2978 -->
<g id="node4" class="node">
<title>Node2978</title>
<g id="a_node4"><a xlink:href="structcimg__library__suffixed_1_1cimg_1_1_mutex__info.html#a6cc8e26847a1aa649febed03d70182e7" target="_top" xlink:title="cimg_library_suffixed\l::cimg::Mutex_info::lock">
<polygon fill="#ffffff" stroke="#000000" points="1194.5,-175.3146 1194.5,-205.3146 1316.5,-205.3146 1316.5,-175.3146 1194.5,-175.3146"/>
<text text-anchor="start" x="1202.5" y="-193.3146" font-family="Helvetica,sans-Serif" font-size="10.00" fill="#000000">cimg_library_suffixed</text>
<text text-anchor="middle" x="1255.5" y="-182.3146" font-family="Helvetica,sans-Serif" font-size="10.00" fill="#000000">::cimg::Mutex_info::lock</text>
</a>
</g>
</g>
<!-- Node2977&#45;&gt;Node2978 -->
<g id="edge3" class="edge">
<title>Node2977&#45;&gt;Node2978</title>
<path fill="none" stroke="#191970" d="M1134.519,-139.4563C1157.0569,-148.9308 1186.2804,-161.2159 1210.3593,-171.3382"/>
<polygon fill="#191970" stroke="#191970" points="1209.0737,-174.5944 1219.6486,-175.2433 1211.7864,-168.1414 1209.0737,-174.5944"/>
</g>
<!-- Node2979 -->
<g id="node5" class="node">
<title>Node2979</title>
<g id="a_node5"><a xlink:href="namespacecimg__library__suffixed_1_1cimg.html#aa0e1bc96ae6e235dc5b67b8b0a466166" target="_top" xlink:title="cimg_library_suffixed\l::cimg::Mutex_attr">
<polygon fill="#ffffff" stroke="#000000" points="1358,-109.3146 1358,-139.3146 1467,-139.3146 1467,-109.3146 1358,-109.3146"/>
<text text-anchor="start" x="1366" y="-127.3146" font-family="Helvetica,sans-Serif" font-size="10.00" fill="#000000">cimg_library_suffixed</text>
<text text-anchor="middle" x="1412.5" y="-116.3146" font-family="Helvetica,sans-Serif" font-size="10.00" fill="#000000">::cimg::Mutex_attr</text>
</a>
</g>
</g>
<!-- Node2977&#45;&gt;Node2979 -->
<g id="edge4" class="edge">
<title>Node2977&#45;&gt;Node2979</title>
<path fill="none" stroke="#191970" d="M1153.0491,-126.4152C1164.8995,-126.7899 1177.3685,-127.1218 1189,-127.3146 1248.103,-128.2939 1262.897,-128.2939 1322,-127.3146 1330.3602,-127.176 1339.1529,-126.9656 1347.8377,-126.719"/>
<polygon fill="#191970" stroke="#191970" points="1348.0605,-130.214 1357.9509,-126.4152 1347.8502,-123.2172 1348.0605,-130.214"/>
</g>
<!-- Node2980 -->
<g id="node6" class="node">
<title>Node2980</title>
<g id="a_node6"><a xlink:href="structcimg__library__suffixed_1_1cimg_1_1_mutex__info.html#a9bf4ed1e1dfe6f28fa6250cd04f3c900" target="_top" xlink:title="cimg_library_suffixed\l::cimg::Mutex_info::trylock">
<polygon fill="#ffffff" stroke="#000000" points="1189,-87.3146 1189,-117.3146 1322,-117.3146 1322,-87.3146 1189,-87.3146"/>
<text text-anchor="start" x="1197" y="-105.3146" font-family="Helvetica,sans-Serif" font-size="10.00" fill="#000000">cimg_library_suffixed</text>
<text text-anchor="middle" x="1255.5" y="-94.3146" font-family="Helvetica,sans-Serif" font-size="10.00" fill="#000000">::cimg::Mutex_info::trylock</text>
</a>
</g>
</g>
<!-- Node2977&#45;&gt;Node2980 -->
<g id="edge5" class="edge">
<title>Node2977&#45;&gt;Node2980</title>
<path fill="none" stroke="#191970" d="M1153.411,-116.62C1161.6098,-115.4712 1170.187,-114.2693 1178.7367,-113.0712"/>
<polygon fill="#191970" stroke="#191970" points="1179.3189,-116.5239 1188.7365,-111.67 1178.3475,-109.5916 1179.3189,-116.5239"/>
</g>
<!-- Node2981 -->
<g id="node7" class="node">
<title>Node2981</title>
<g id="a_node7"><a xlink:href="structcimg__library__suffixed_1_1cimg_1_1_mutex__info.html#afac3fa5f107ad4795fb867050f616555" target="_top" xlink:title="cimg_library_suffixed\l::cimg::Mutex_info::unlock">
<polygon fill="#ffffff" stroke="#000000" points="1189.5,-38.3146 1189.5,-68.3146 1321.5,-68.3146 1321.5,-38.3146 1189.5,-38.3146"/>
<text text-anchor="start" x="1197.5" y="-56.3146" font-family="Helvetica,sans-Serif" font-size="10.00" fill="#000000">cimg_library_suffixed</text>
<text text-anchor="middle" x="1255.5" y="-45.3146" font-family="Helvetica,sans-Serif" font-size="10.00" fill="#000000">::cimg::Mutex_info::unlock</text>
</a>
</g>
</g>
<!-- Node2977&#45;&gt;Node2981 -->
<g id="edge7" class="edge">
<title>Node2977&#45;&gt;Node2981</title>
<path fill="none" stroke="#191970" d="M1126.2433,-109.2059C1143.9588,-99.8111 1167.5479,-87.7642 1189,-78.3146 1193.746,-76.224 1198.727,-74.1457 1203.7376,-72.1321"/>
<polygon fill="#191970" stroke="#191970" points="1205.3284,-75.2676 1213.3561,-68.3533 1202.7688,-68.7523 1205.3284,-75.2676"/>
</g>
<!-- Node2980&#45;&gt;Node2979 -->
<g id="edge6" class="edge">
<title>Node2980&#45;&gt;Node2979</title>
<path fill="none" stroke="#191970" d="M1322.0821,-111.6445C1330.5193,-112.8268 1339.1445,-114.0355 1347.5556,-115.2141"/>
<polygon fill="#191970" stroke="#191970" points="1347.293,-118.7114 1357.682,-116.6331 1348.2645,-111.7791 1347.293,-118.7114"/>
</g>
<!-- Node2983 -->
<g id="node9" class="node">
<title>Node2983</title>
<g id="a_node9"><a xlink:href="namespacecimg__library__suffixed_1_1cimg.html#aeafab144366eddd11360f32f468fa4af" target="_top" xlink:title="Set current &#160;exception mode. ">
<polygon fill="#ffffff" stroke="#000000" points="435,-54.3146 435,-84.3146 556,-84.3146 556,-54.3146 435,-54.3146"/>
<text text-anchor="start" x="443" y="-72.3146" font-family="Helvetica,sans-Serif" font-size="10.00" fill="#000000">cimg_library_suffixed</text>
<text text-anchor="middle" x="495.5" y="-61.3146" font-family="Helvetica,sans-Serif" font-size="10.00" fill="#000000">::cimg::exception_mode</text>
</a>
</g>
</g>
<!-- Node2982&#45;&gt;Node2983 -->
<g id="edge9" class="edge">
<title>Node2982&#45;&gt;Node2983</title>
<path fill="none" stroke="#191970" d="M399.0145,-83.3721C407.3935,-82.1513 416.1471,-80.8759 424.8158,-79.6129"/>
<polygon fill="#191970" stroke="#191970" points="425.5345,-83.0453 434.9254,-78.14 424.5253,-76.1184 425.5345,-83.0453"/>
</g>
<!-- Node2986 -->
<g id="node12" class="node">
<title>Node2986</title>
<g id="a_node12"><a xlink:href="namespacecimg__library__suffixed_1_1cimg.html#a79aef0cbcf66ceb71c2b74cb66b4deb2" target="_top" xlink:title="Avoid warning messages due to unused parameters. Do nothing actually. ">
<polygon fill="#ffffff" stroke="#000000" points="899,-41.3146 899,-71.3146 1008,-71.3146 1008,-41.3146 899,-41.3146"/>
<text text-anchor="start" x="907" y="-59.3146" font-family="Helvetica,sans-Serif" font-size="10.00" fill="#000000">cimg_library_suffixed</text>
<text text-anchor="middle" x="953.5" y="-48.3146" font-family="Helvetica,sans-Serif" font-size="10.00" fill="#000000">::cimg::unused</text>
</a>
</g>
</g>
<!-- Node2982&#45;&gt;Node2986 -->
<g id="edge20" class="edge">
<title>Node2982&#45;&gt;Node2986</title>
<path fill="none" stroke="#191970" d="M368.4895,-76.1943C386.1894,-65.7809 411.2292,-52.5625 435,-45.3146 571.6236,-3.6568 611.4307,-14.9973 754,-6.3146 802.3549,-3.3697 816.0902,5.7822 863,-6.3146 885.2024,-12.04 907.7796,-24.5 924.8301,-35.5486"/>
<polygon fill="#191970" stroke="#191970" points="922.9534,-38.5041 933.2114,-41.1545 926.8452,-32.6856 922.9534,-38.5041"/>
</g>
<!-- Node2984 -->
<g id="node10" class="node">
<title>Node2984</title>
<g id="a_node10"><a xlink:href="namespacecimg__library__suffixed_1_1cimg.html#a6c578f866de2be9be7e385d693c758c8" target="_top" xlink:title="cimg_library_suffixed\l::cimg::_exception_mode">
<polygon fill="#ffffff" stroke="#000000" points="592,-98.3146 592,-128.3146 718,-128.3146 718,-98.3146 592,-98.3146"/>
<text text-anchor="start" x="600" y="-116.3146" font-family="Helvetica,sans-Serif" font-size="10.00" fill="#000000">cimg_library_suffixed</text>
<text text-anchor="middle" x="655" y="-105.3146" font-family="Helvetica,sans-Serif" font-size="10.00" fill="#000000">::cimg::_exception_mode</text>
</a>
</g>
</g>
<!-- Node2983&#45;&gt;Node2984 -->
<g id="edge10" class="edge">
<title>Node2983&#45;&gt;Node2984</title>
<path fill="none" stroke="#191970" d="M549.9447,-84.3338C563.0889,-87.9598 577.2562,-91.868 590.8009,-95.6045"/>
<polygon fill="#191970" stroke="#191970" points="589.9593,-99.003 600.53,-98.2884 591.8209,-92.255 589.9593,-99.003"/>
</g>
<!-- Node2984&#45;&gt;Node2977 -->
<g id="edge19" class="edge">
<title>Node2984&#45;&gt;Node2977</title>
<path fill="none" stroke="#191970" d="M718.0717,-114.8789C801.8352,-116.9565 949.0329,-120.6074 1033.6723,-122.7067"/>
<polygon fill="#191970" stroke="#191970" points="1033.5918,-126.2056 1043.6756,-122.9548 1033.7654,-119.2078 1033.5918,-126.2056"/>
</g>
<!-- Node2984&#45;&gt;Node2982 -->
<g id="edge11" class="edge">
<title>Node2984&#45;&gt;Node2982</title>
<path fill="none" stroke="#191970" d="M591.9297,-108.8458C538.7813,-105.0801 463.037,-99.7133 409.383,-95.9118"/>
<polygon fill="#191970" stroke="#191970" points="409.5188,-92.4127 399.2964,-95.1971 409.024,-99.3952 409.5188,-92.4127"/>
</g>
<!-- Node2985 -->
<g id="node11" class="node">
<title>Node2985</title>
<g id="a_node11"><a xlink:href="namespacecimg__library__suffixed_1_1cimg.html#a01a3b743897290604513ea6d847c9886" target="_top" xlink:title="cimg_library_suffixed\l::cimg::_stdin">
<polygon fill="#ffffff" stroke="#000000" points="754,-65.3146 754,-95.3146 863,-95.3146 863,-65.3146 754,-65.3146"/>
<text text-anchor="start" x="762" y="-83.3146" font-family="Helvetica,sans-Serif" font-size="10.00" fill="#000000">cimg_library_suffixed</text>
<text text-anchor="middle" x="808.5" y="-72.3146" font-family="Helvetica,sans-Serif" font-size="10.00" fill="#000000">::cimg::_stdin</text>
</a>
</g>
</g>
<!-- Node2984&#45;&gt;Node2985 -->
<g id="edge12" class="edge">
<title>Node2984&#45;&gt;Node2985</title>
<path fill="none" stroke="#191970" d="M718.3205,-99.7017C726.7493,-97.8896 735.4012,-96.0296 743.8522,-94.2128"/>
<polygon fill="#191970" stroke="#191970" points="744.6143,-97.629 753.6553,-92.1053 743.143,-90.7854 744.6143,-97.629"/>
</g>
<!-- Node2987 -->
<g id="node13" class="node">
<title>Node2987</title>
<g id="a_node13"><a xlink:href="namespacecimg__library__suffixed_1_1cimg.html#a493220746e5df3466568bd7862825008" target="_top" xlink:title="cimg_library_suffixed\l::cimg::_stdout">
<polygon fill="#ffffff" stroke="#000000" points="754,-16.3146 754,-46.3146 863,-46.3146 863,-16.3146 754,-16.3146"/>
<text text-anchor="start" x="762" y="-34.3146" font-family="Helvetica,sans-Serif" font-size="10.00" fill="#000000">cimg_library_suffixed</text>
<text text-anchor="middle" x="808.5" y="-23.3146" font-family="Helvetica,sans-Serif" font-size="10.00" fill="#000000">::cimg::_stdout</text>
</a>
</g>
</g>
<!-- Node2984&#45;&gt;Node2987 -->
<g id="edge16" class="edge">
<title>Node2984&#45;&gt;Node2987</title>
<path fill="none" stroke="#191970" d="M679.8737,-98.1393C699.6847,-86.262 728.2663,-69.5891 754,-56.3146 757.5416,-54.4877 761.2426,-52.6481 764.9763,-50.8406"/>
<polygon fill="#191970" stroke="#191970" points="766.7183,-53.8881 774.2521,-46.4387 763.7171,-47.564 766.7183,-53.8881"/>
</g>
<!-- Node2985&#45;&gt;Node2983 -->
<g id="edge13" class="edge">
<title>Node2985&#45;&gt;Node2983</title>
<path fill="none" stroke="#191970" d="M753.9666,-78.3981C701.8805,-76.5676 623.1092,-73.7992 566.2205,-71.8"/>
<polygon fill="#191970" stroke="#191970" points="566.3375,-68.302 556.2207,-71.4485 566.0915,-75.2977 566.3375,-68.302"/>
</g>
<!-- Node2985&#45;&gt;Node2986 -->
<g id="edge14" class="edge">
<title>Node2985&#45;&gt;Node2986</title>
<path fill="none" stroke="#191970" d="M863.3183,-71.2412C871.6188,-69.8673 880.2486,-68.4389 888.7354,-67.0342"/>
<polygon fill="#191970" stroke="#191970" points="889.31,-70.4868 898.6042,-65.4008 888.1669,-63.5808 889.31,-70.4868"/>
</g>
<!-- Node2986&#45;&gt;Node2977 -->
<g id="edge15" class="edge">
<title>Node2986&#45;&gt;Node2977</title>
<path fill="none" stroke="#191970" d="M985.6802,-71.406C1006.7994,-81.3102 1034.6116,-94.3531 1057.3371,-105.0106"/>
<polygon fill="#191970" stroke="#191970" points="1055.8698,-108.1882 1066.4098,-109.2653 1058.842,-101.8505 1055.8698,-108.1882"/>
</g>
<!-- Node2987&#45;&gt;Node2983 -->
<g id="edge17" class="edge">
<title>Node2987&#45;&gt;Node2983</title>
<path fill="none" stroke="#191970" d="M753.9666,-37.9352C701.8805,-44.2588 623.1092,-53.8221 566.2205,-60.7287"/>
<polygon fill="#191970" stroke="#191970" points="565.7259,-57.2629 556.2207,-61.9427 566.5696,-64.2119 565.7259,-57.2629"/>
</g>
<!-- Node2987&#45;&gt;Node2986 -->
<g id="edge18" class="edge">
<title>Node2987&#45;&gt;Node2986</title>
<path fill="none" stroke="#191970" d="M863.3183,-40.766C871.6188,-42.1971 880.2486,-43.685 888.7354,-45.1483"/>
<polygon fill="#191970" stroke="#191970" points="888.1549,-48.5997 898.6042,-46.8498 889.3443,-41.7015 888.1549,-48.5997"/>
</g>
</g>
</svg>
        <g id="navigator" transform="translate(0 0)" fill="#404254">
                <rect fill="#f2f5e9" fill-opacity="0.5" stroke="#606060" stroke-width=".5" x="0" y="0" width="60" height="60"/>
                <use id="zoomplus" xlink:href="#zoomPlus" x="17" y="9" onmousedown="handleZoom(evt,'in')"/>
                <use id="zoomminus" xlink:href="#zoomMin" x="42" y="9" onmousedown="handleZoom(evt,'out')"/>
                <use id="reset" xlink:href="#resetDef" x="30" y="36" onmousedown="handleReset()"/>
                <g id="arrowUp" xlink:href="#dirArrow" transform="translate(30 24)" onmousedown="handlePan(0,-1)">
                  <use xlink:href="#rim" fill="#404040">
                        <set attributeName="fill" to="#808080" begin="arrowUp.mouseover" end="arrowUp.mouseout"/>
                  </use>
                  <path fill="none" stroke="white" stroke-width="1.5" d="M0,-3.0v7 M-2.5,-0.5L0,-3.0L2.5,-0.5"/>
                </g>
                <g id="arrowRight" xlink:href="#dirArrow" transform="rotate(90) translate(36 -43)" onmousedown="handlePan(1,0)">
                  <use xlink:href="#rim" fill="#404040">
                        <set attributeName="fill" to="#808080" begin="arrowRight.mouseover" end="arrowRight.mouseout"/>
                  </use>
                  <path fill="none" stroke="white" stroke-width="1.5" d="M0,-3.0v7 M-2.5,-0.5L0,-3.0L2.5,-0.5"/>
                </g>
                <g id="arrowDown" xlink:href="#dirArrow" transform="rotate(180) translate(-30 -48)" onmousedown="handlePan(0,1)">
                  <use xlink:href="#rim" fill="#404040">
                        <set attributeName="fill" to="#808080" begin="arrowDown.mouseover" end="arrowDown.mouseout"/>
                  </use>
                  <path fill="none" stroke="white" stroke-width="1.5" d="M0,-3.0v7 M-2.5,-0.5L0,-3.0L2.5,-0.5"/>
                </g>
                <g id="arrowLeft" xlink:href="#dirArrow" transform="rotate(270) translate(-36 17)" onmousedown="handlePan(-1,0)">
                  <use xlink:href="#rim" fill="#404040">
                        <set attributeName="fill" to="#808080" begin="arrowLeft.mouseover" end="arrowLeft.mouseout"/>
                  </use>
                  <path fill="none" stroke="white" stroke-width="1.5" d="M0,-3.0v7 M-2.5,-0.5L0,-3.0L2.5,-0.5"/>
                </g>
        </g>
        <svg viewBox="0 0 15 15" width="100%" height="30px" preserveAspectRatio="xMaxYMin meet">
         <g id="arrow_out" transform="scale(0.3 0.3)">
          <a xlink:href="namespacecimg__library__suffixed_1_1cimg_a9b0d24fe7141f14b5322aad84c6ea51b_cgraph_org.svg" target="_base">
           <rect id="button" ry="5" rx="5" y="6" x="6" height="38" width="38"
                fill="#f2f5e9" fill-opacity="0.5" stroke="#606060" stroke-width="1.0"/>
           <path id="arrow"
             d="M 11.500037,31.436501 C 11.940474,20.09759 22.043105,11.32322 32.158766,21.979434 L 37.068811,17.246167 C 37.068811,17.246167 37.088388,32 37.088388,32 L 22.160133,31.978069 C 22.160133,31.978069 26.997745,27.140456 26.997745,27.140456 C 18.528582,18.264221 13.291696,25.230495 11.500037,31.436501 z"
             style="fill:#404040;"/>
          </a>
         </g>
        </svg>
</svg>
