<?xml version="1.0" encoding="UTF-8" standalone="no"?>
<!DOCTYPE svg PUBLIC "-//W3C//DTD SVG 1.1//EN"
 "http://www.w3.org/Graphics/SVG/1.1/DTD/svg11.dtd">
<!-- Generated by graphviz version 2.40.1 (20161225.0304)
 -->
<!-- Title: cimg_library_suffixed::cimg::permutations Pages: 1 -->
<svg width="323pt" height="269pt"
 viewBox="0.00 0.00 323.00 268.50" xmlns="http://www.w3.org/2000/svg" xmlns:xlink="http://www.w3.org/1999/xlink">
<g id="graph0" class="graph" transform="scale(1 1) rotate(0) translate(4 264.5)">
<title>cimg_library_suffixed::cimg::permutations</title>
<polygon fill="#ffffff" stroke="transparent" points="-4,4 -4,-264.5 319,-264.5 319,4 -4,4"/>
<!-- Node3237 -->
<g id="node1" class="node">
<title>Node3237</title>
<polygon fill="#bfbfbf" stroke="#000000" points="0,-104.5 0,-134.5 109,-134.5 109,-104.5 0,-104.5"/>
<text text-anchor="start" x="8" y="-122.5" font-family="Helvetica,sans-Serif" font-size="10.00" fill="#000000">cimg_library_suffixed</text>
<text text-anchor="middle" x="54.5" y="-111.5" font-family="Helvetica,sans-Serif" font-size="10.00" fill="#000000">::cimg::permutations</text>
</g>
<!-- Node3238 -->
<g id="node2" class="node">
<title>Node3238</title>
<g id="a_node2"><a xlink:href="structcimg__library__suffixed_1_1_c_img.html#a6dba86c8049ae141ffc9936b2eaf5c5c" target="_top" xlink:title="cimg_library_suffixed\l::CImg\&lt; charT \&gt;::_draw\l_object3d">
<polygon fill="#ffffff" stroke="#000000" points="169,-219 169,-260 291,-260 291,-219 169,-219"/>
<text text-anchor="start" x="177" y="-248" font-family="Helvetica,sans-Serif" font-size="10.00" fill="#000000">cimg_library_suffixed</text>
<text text-anchor="start" x="177" y="-237" font-family="Helvetica,sans-Serif" font-size="10.00" fill="#000000">::CImg&lt; charT &gt;::_draw</text>
<text text-anchor="middle" x="230" y="-226" font-family="Helvetica,sans-Serif" font-size="10.00" fill="#000000">_object3d</text>
</a>
</g>
</g>
<!-- Node3237&#45;&gt;Node3238 -->
<g id="edge1" class="edge">
<title>Node3237&#45;&gt;Node3238</title>
<path fill="none" stroke="#191970" d="M72.4541,-142.4067C89.2916,-162.5363 116.1415,-191.3685 145,-209.5 152.2879,-214.0789 160.3677,-218.0751 168.5628,-221.5275"/>
<polygon fill="#191970" stroke="#191970" points="75.1304,-140.1506 66.0857,-134.6329 69.7154,-144.5866 75.1304,-140.1506"/>
</g>
<!-- Node3239 -->
<g id="node3" class="node">
<title>Node3239</title>
<g id="a_node3"><a xlink:href="structcimg__library__suffixed_1_1_c_img_1_1__cimg__math__parser.html#a318c44c5d1f4f0114355f37ace87a4ae" target="_top" xlink:title="cimg_library_suffixed\l::CImg::_cimg_math_parser\l::compile">
<polygon fill="#ffffff" stroke="#000000" points="161,-159 161,-200 299,-200 299,-159 161,-159"/>
<text text-anchor="start" x="169" y="-188" font-family="Helvetica,sans-Serif" font-size="10.00" fill="#000000">cimg_library_suffixed</text>
<text text-anchor="start" x="169" y="-177" font-family="Helvetica,sans-Serif" font-size="10.00" fill="#000000">::CImg::_cimg_math_parser</text>
<text text-anchor="middle" x="230" y="-166" font-family="Helvetica,sans-Serif" font-size="10.00" fill="#000000">::compile</text>
</a>
</g>
</g>
<!-- Node3237&#45;&gt;Node3239 -->
<g id="edge2" class="edge">
<title>Node3237&#45;&gt;Node3239</title>
<path fill="none" stroke="#191970" d="M108.3899,-137.9239C127.8254,-144.5685 149.8784,-152.108 169.8177,-158.9249"/>
<polygon fill="#191970" stroke="#191970" points="109.3806,-134.5638 98.7861,-134.6405 107.1161,-141.1874 109.3806,-134.5638"/>
</g>
<!-- Node3240 -->
<g id="node4" class="node">
<title>Node3240</title>
<g id="a_node4"><a xlink:href="structcimg__library__suffixed_1_1_c_img_1_1__cimg__math__parser.html#ad1be0f03f678135d32f2994f58966ef4" target="_top" xlink:title="cimg_library_suffixed\l::CImg::_cimg_math_parser\l::mp_permutations">
<polygon fill="#ffffff" stroke="#000000" points="161,-99 161,-140 299,-140 299,-99 161,-99"/>
<text text-anchor="start" x="169" y="-128" font-family="Helvetica,sans-Serif" font-size="10.00" fill="#000000">cimg_library_suffixed</text>
<text text-anchor="start" x="169" y="-117" font-family="Helvetica,sans-Serif" font-size="10.00" fill="#000000">::CImg::_cimg_math_parser</text>
<text text-anchor="middle" x="230" y="-106" font-family="Helvetica,sans-Serif" font-size="10.00" fill="#000000">::mp_permutations</text>
</a>
</g>
</g>
<!-- Node3237&#45;&gt;Node3240 -->
<g id="edge3" class="edge">
<title>Node3237&#45;&gt;Node3240</title>
<path fill="none" stroke="#191970" d="M119.2628,-119.5C132.8272,-119.5 147.18,-119.5 160.8956,-119.5"/>
<polygon fill="#191970" stroke="#191970" points="119.0673,-116.0001 109.0673,-119.5 119.0672,-123.0001 119.0673,-116.0001"/>
</g>
<!-- Node3241 -->
<g id="node5" class="node">
<title>Node3241</title>
<g id="a_node5"><a xlink:href="structcimg__library__suffixed_1_1_c_img.html#a33c8a817208b7aa571350457969e9dbe" target="_top" xlink:title="Compute the SVD of the instance image, viewed as a general matrix. ">
<polygon fill="#ffffff" stroke="#000000" points="172,-49.5 172,-79.5 288,-79.5 288,-49.5 172,-49.5"/>
<text text-anchor="start" x="180" y="-67.5" font-family="Helvetica,sans-Serif" font-size="10.00" fill="#000000">cimg_library_suffixed</text>
<text text-anchor="middle" x="230" y="-56.5" font-family="Helvetica,sans-Serif" font-size="10.00" fill="#000000">::CImg&lt; charT &gt;::SVD</text>
</a>
</g>
</g>
<!-- Node3237&#45;&gt;Node3241 -->
<g id="edge4" class="edge">
<title>Node3237&#45;&gt;Node3241</title>
<path fill="none" stroke="#191970" d="M108.8544,-101.1488C120.7416,-97.2286 133.2748,-93.1665 145,-89.5 155.5703,-86.1946 166.9184,-82.771 177.7707,-79.5571"/>
<polygon fill="#191970" stroke="#191970" points="107.4445,-97.9287 99.053,-104.3965 109.6463,-104.5734 107.4445,-97.9287"/>
</g>
<!-- Node3242 -->
<g id="node6" class="node">
<title>Node3242</title>
<g id="a_node6"><a xlink:href="structcimg__library__suffixed_1_1_c_img.html#a53284105886c5eb684b26e7dba5ede66" target="_top" xlink:title="Compute eigenvalues and eigenvectors of the instance image, viewed as a symmetric matrix...">
<polygon fill="#ffffff" stroke="#000000" points="145,-.5 145,-30.5 315,-30.5 315,-.5 145,-.5"/>
<text text-anchor="start" x="153" y="-18.5" font-family="Helvetica,sans-Serif" font-size="10.00" fill="#000000">cimg_library_suffixed</text>
<text text-anchor="middle" x="230" y="-7.5" font-family="Helvetica,sans-Serif" font-size="10.00" fill="#000000">::CImg&lt; charT &gt;::symmetric_eigen</text>
</a>
</g>
</g>
<!-- Node3237&#45;&gt;Node3242 -->
<g id="edge5" class="edge">
<title>Node3237&#45;&gt;Node3242</title>
<path fill="none" stroke="#191970" d="M75.2868,-96.5909C92.4282,-78.963 118.2036,-55.2035 145,-40.5 151.8775,-36.7262 159.3882,-33.4639 167.0069,-30.659"/>
<polygon fill="#191970" stroke="#191970" points="72.4014,-94.546 68.0459,-104.2042 77.4737,-99.3701 72.4014,-94.546"/>
</g>
</g>
</svg>
