<?xml version="1.0" encoding="UTF-8" standalone="no"?>
<!DOCTYPE svg PUBLIC "-//W3C//DTD SVG 1.1//EN"
 "http://www.w3.org/Graphics/SVG/1.1/DTD/svg11.dtd">
<!-- Generated by graphviz version 2.40.1 (20161225.0304)
 -->
<!-- Title: cimg_library_suffixed::cimg::uppercase Pages: 1 -->
<svg width="291pt" height="160pt"
 viewBox="0.00 0.00 291.00 159.50" xmlns="http://www.w3.org/2000/svg" xmlns:xlink="http://www.w3.org/1999/xlink">
<g id="graph0" class="graph" transform="scale(1 1) rotate(0) translate(4 155.5)">
<title>cimg_library_suffixed::cimg::uppercase</title>
<polygon fill="#ffffff" stroke="transparent" points="-4,4 -4,-155.5 287,-155.5 287,4 -4,4"/>
<!-- Node4404 -->
<g id="node1" class="node">
<title>Node4404</title>
<polygon fill="#bfbfbf" stroke="#000000" points="0,-55.5 0,-85.5 109,-85.5 109,-55.5 0,-55.5"/>
<text text-anchor="start" x="8" y="-73.5" font-family="Helvetica,sans-Serif" font-size="10.00" fill="#000000">cimg_library_suffixed</text>
<text text-anchor="middle" x="54.5" y="-62.5" font-family="Helvetica,sans-Serif" font-size="10.00" fill="#000000">::cimg::uppercase</text>
</g>
<!-- Node4405 -->
<g id="node2" class="node">
<title>Node4405</title>
<g id="a_node2"><a xlink:href="structcimg__library__suffixed_1_1_c_img_1_1__cimg__math__parser.html#a318c44c5d1f4f0114355f37ace87a4ae" target="_top" xlink:title="cimg_library_suffixed\l::CImg::_cimg_math_parser\l::compile">
<polygon fill="#ffffff" stroke="#000000" points="145,-110 145,-151 283,-151 283,-110 145,-110"/>
<text text-anchor="start" x="153" y="-139" font-family="Helvetica,sans-Serif" font-size="10.00" fill="#000000">cimg_library_suffixed</text>
<text text-anchor="start" x="153" y="-128" font-family="Helvetica,sans-Serif" font-size="10.00" fill="#000000">::CImg::_cimg_math_parser</text>
<text text-anchor="middle" x="214" y="-117" font-family="Helvetica,sans-Serif" font-size="10.00" fill="#000000">::compile</text>
</a>
</g>
</g>
<!-- Node4404&#45;&gt;Node4405 -->
<g id="edge1" class="edge">
<title>Node4404&#45;&gt;Node4405</title>
<path fill="none" stroke="#191970" d="M104.2041,-89.1975C121.6892,-95.7749 141.4312,-103.2014 159.3044,-109.9249"/>
<polygon fill="#191970" stroke="#191970" points="105.3406,-85.8856 94.7486,-85.6405 102.8759,-92.4374 105.3406,-85.8856"/>
</g>
<!-- Node4406 -->
<g id="node3" class="node">
<title>Node4406</title>
<g id="a_node3"><a xlink:href="structcimg__library__suffixed_1_1_c_img_1_1__cimg__math__parser.html#a3d18d1a811d8cdcf79b910b328e0d951" target="_top" xlink:title="cimg_library_suffixed\l::CImg::_cimg_math_parser\l::mp_uppercase">
<polygon fill="#ffffff" stroke="#000000" points="145,-50 145,-91 283,-91 283,-50 145,-50"/>
<text text-anchor="start" x="153" y="-79" font-family="Helvetica,sans-Serif" font-size="10.00" fill="#000000">cimg_library_suffixed</text>
<text text-anchor="start" x="153" y="-68" font-family="Helvetica,sans-Serif" font-size="10.00" fill="#000000">::CImg::_cimg_math_parser</text>
<text text-anchor="middle" x="214" y="-57" font-family="Helvetica,sans-Serif" font-size="10.00" fill="#000000">::mp_uppercase</text>
</a>
</g>
</g>
<!-- Node4404&#45;&gt;Node4406 -->
<g id="edge2" class="edge">
<title>Node4404&#45;&gt;Node4406</title>
<path fill="none" stroke="#191970" d="M119.4793,-70.5C127.8632,-70.5 136.4728,-70.5 144.9198,-70.5"/>
<polygon fill="#191970" stroke="#191970" points="119.3909,-67.0001 109.3909,-70.5 119.3908,-74.0001 119.3909,-67.0001"/>
</g>
<!-- Node4407 -->
<g id="node4" class="node">
<title>Node4407</title>
<g id="a_node4"><a xlink:href="namespacecimg__library__suffixed_1_1cimg.html#ac13217912b5cdf549f5744910521881a" target="_top" xlink:title="Convert C&#45;string to upper case. ">
<polygon fill="#ffffff" stroke="#000000" points="159.5,-.5 159.5,-30.5 268.5,-30.5 268.5,-.5 159.5,-.5"/>
<text text-anchor="start" x="167.5" y="-18.5" font-family="Helvetica,sans-Serif" font-size="10.00" fill="#000000">cimg_library_suffixed</text>
<text text-anchor="middle" x="214" y="-7.5" font-family="Helvetica,sans-Serif" font-size="10.00" fill="#000000">::cimg::uppercase</text>
</a>
</g>
</g>
<!-- Node4404&#45;&gt;Node4407 -->
<g id="edge3" class="edge">
<title>Node4404&#45;&gt;Node4407</title>
<path fill="none" stroke="#191970" d="M107.5634,-52.2023C127.9854,-45.1602 151.0465,-37.2081 170.4686,-30.5108"/>
<polygon fill="#191970" stroke="#191970" points="106.3968,-48.9022 98.0841,-55.471 108.6788,-55.5198 106.3968,-48.9022"/>
</g>
</g>
</svg>
