<?xml version="1.0" encoding="UTF-8" standalone="no"?>
<!DOCTYPE svg PUBLIC "-//W3C//DTD SVG 1.1//EN"
 "http://www.w3.org/Graphics/SVG/1.1/DTD/svg11.dtd">
<!-- Generated by graphviz version 2.40.1 (20161225.0304)
 -->
<!-- Title: cimg_library_suffixed::sinc Pages: 1 -->
<svg width="262pt" height="39pt"
 viewBox="0.00 0.00 262.00 39.00" xmlns="http://www.w3.org/2000/svg" xmlns:xlink="http://www.w3.org/1999/xlink">
<g id="graph0" class="graph" transform="scale(1 1) rotate(0) translate(4 35)">
<title>cimg_library_suffixed::sinc</title>
<polygon fill="#ffffff" stroke="transparent" points="-4,4 -4,-35 258,-35 258,4 -4,4"/>
<!-- Node165 -->
<g id="node1" class="node">
<title>Node165</title>
<polygon fill="#bfbfbf" stroke="#000000" points="0,-.5 0,-30.5 109,-30.5 109,-.5 0,-.5"/>
<text text-anchor="start" x="8" y="-18.5" font-family="Helvetica,sans-Serif" font-size="10.00" fill="#000000">cimg_library_suffixed</text>
<text text-anchor="middle" x="54.5" y="-7.5" font-family="Helvetica,sans-Serif" font-size="10.00" fill="#000000">::sinc</text>
</g>
<!-- Node166 -->
<g id="node2" class="node">
<title>Node166</title>
<g id="a_node2"><a xlink:href="structcimg__library__suffixed_1_1_c_img.html#a7e4b91912494fd5db7c82360809513a4" target="_top" xlink:title="Compute the sinc of each pixel value . ">
<polygon fill="#ffffff" stroke="#000000" points="145,-.5 145,-30.5 254,-30.5 254,-.5 145,-.5"/>
<text text-anchor="start" x="153" y="-18.5" font-family="Helvetica,sans-Serif" font-size="10.00" fill="#000000">cimg_library_suffixed</text>
<text text-anchor="middle" x="199.5" y="-7.5" font-family="Helvetica,sans-Serif" font-size="10.00" fill="#000000">::CImg::get_sinc</text>
</a>
</g>
</g>
<!-- Node165&#45;&gt;Node166 -->
<g id="edge1" class="edge">
<title>Node165&#45;&gt;Node166</title>
<path fill="none" stroke="#191970" d="M109.3183,-15.5C117.5286,-15.5 126.0611,-15.5 134.4586,-15.5"/>
<polygon fill="#191970" stroke="#191970" points="134.6042,-19.0001 144.6042,-15.5 134.6042,-12.0001 134.6042,-19.0001"/>
</g>
</g>
</svg>
