<?xml version="1.0" encoding="UTF-8" standalone="no"?>
<!DOCTYPE svg PUBLIC "-//W3C//DTD SVG 1.1//EN"
 "http://www.w3.org/Graphics/SVG/1.1/DTD/svg11.dtd">
<!-- Generated by graphviz version 2.40.1 (20161225.0304)
 -->
<!-- Title: cimg_library_suffixed::cimg::strellipsize Pages: 1 -->
<!--zoomable 710 -->
<svg id="main" version="1.1" xmlns="http://www.w3.org/2000/svg" xmlns:xlink="http://www.w3.org/1999/xlink" xml:space="preserve" onload="init(evt)">
<style type="text/css"><![CDATA[
.edge:hover path { stroke: red; }
.edge:hover polygon { stroke: red; fill: red; }
]]></style>
<script type="text/javascript"><![CDATA[
var edges = document.getElementsByTagName('g');
if (edges && edges.length) {
  for (var i=0;i<edges.length;i++) {
    if (edges[i].id.substr(0,4)=='edge') {
      edges[i].setAttribute('class','edge');
    }
  }
}
]]></script>
        <defs>
                <circle id="rim" cx="0" cy="0" r="7"/>
                <circle id="rim2" cx="0" cy="0" r="3.5"/>
                <g id="zoomPlus">
                        <use xlink:href="#rim" fill="#404040">
                                <set attributeName="fill" to="#808080" begin="zoomplus.mouseover" end="zoomplus.mouseout"/>
                        </use>
                        <path d="M-4,0h8M0,-4v8" fill="none" stroke="white" stroke-width="1.5" pointer-events="none"/>
                </g>
                <g id="zoomMin">
                        <use xlink:href="#rim" fill="#404040">
                                <set attributeName="fill" to="#808080" begin="zoomminus.mouseover" end="zoomminus.mouseout"/>
                        </use>
                        <path d="M-4,0h8" fill="none" stroke="white" stroke-width="1.5" pointer-events="none"/>
                </g>
                <g id="dirArrow">
                        <path fill="none" stroke="white" stroke-width="1.5" d="M0,-3.0v7 M-2.5,-0.5L0,-3.0L2.5,-0.5"/>
                </g>
               <g id="resetDef">
                       <use xlink:href="#rim2" fill="#404040">
                               <set attributeName="fill" to="#808080" begin="reset.mouseover" end="reset.mouseout"/>
                       </use>
               </g>
        </defs>

<script type="text/javascript">
var viewWidth = 291;
var viewHeight = 710;
var sectionId = 'dynsection-156';
</script>
<script xlink:href="svgpan.js"/>
<svg id="graph" class="graph">
<g id="viewport">
<title>cimg_library_suffixed::cimg::strellipsize</title>
<polygon fill="#ffffff" stroke="transparent" points="-4,4 -4,-706 287,-706 287,4 -4,4"/>
<!-- Node3720 -->
<g id="node1" class="node">
<title>Node3720</title>
<polygon fill="#bfbfbf" stroke="#000000" points="0,-336 0,-366 109,-366 109,-336 0,-336"/>
<text text-anchor="start" x="8" y="-354" font-family="Helvetica,sans-Serif" font-size="10.00" fill="#000000">cimg_library_suffixed</text>
<text text-anchor="middle" x="54.5" y="-343" font-family="Helvetica,sans-Serif" font-size="10.00" fill="#000000">::cimg::strellipsize</text>
</g>
<!-- Node3721 -->
<g id="node2" class="node">
<title>Node3721</title>
<g id="a_node2"><a xlink:href="structcimg__library__suffixed_1_1_c_img_list.html#aeb6a521c8b09a85000e5f39a1dbbc1d0" target="_top" xlink:title="cimg_library_suffixed\l::CImgList\&lt; charT \&gt;::\l__display">
<polygon fill="#ffffff" stroke="#000000" points="158.5,-660.5 158.5,-701.5 269.5,-701.5 269.5,-660.5 158.5,-660.5"/>
<text text-anchor="start" x="166.5" y="-689.5" font-family="Helvetica,sans-Serif" font-size="10.00" fill="#000000">cimg_library_suffixed</text>
<text text-anchor="start" x="166.5" y="-678.5" font-family="Helvetica,sans-Serif" font-size="10.00" fill="#000000">::CImgList&lt; charT &gt;::</text>
<text text-anchor="middle" x="214" y="-667.5" font-family="Helvetica,sans-Serif" font-size="10.00" fill="#000000">__display</text>
</a>
</g>
</g>
<!-- Node3720&#45;&gt;Node3721 -->
<g id="edge1" class="edge">
<title>Node3720&#45;&gt;Node3721</title>
<path fill="none" stroke="#191970" d="M59.3199,-376.4406C71.9921,-441.0326 107.8368,-609.207 145,-651 148.8192,-655.295 153.3639,-658.9998 158.2718,-662.1905"/>
<polygon fill="#191970" stroke="#191970" points="62.6963,-375.4663 57.3575,-366.315 55.8242,-376.7982 62.6963,-375.4663"/>
</g>
<!-- Node3722 -->
<g id="node3" class="node">
<title>Node3722</title>
<g id="a_node3"><a xlink:href="structcimg__library__suffixed_1_1_c_img_1_1__cimg__math__parser.html#ab95626fc3c9df8e9bb3d182328372379" target="_top" xlink:title="cimg_library_suffixed\l::CImg::_cimg_math_parser\l::check_constant">
<polygon fill="#ffffff" stroke="#000000" points="145,-600.5 145,-641.5 283,-641.5 283,-600.5 145,-600.5"/>
<text text-anchor="start" x="153" y="-629.5" font-family="Helvetica,sans-Serif" font-size="10.00" fill="#000000">cimg_library_suffixed</text>
<text text-anchor="start" x="153" y="-618.5" font-family="Helvetica,sans-Serif" font-size="10.00" fill="#000000">::CImg::_cimg_math_parser</text>
<text text-anchor="middle" x="214" y="-607.5" font-family="Helvetica,sans-Serif" font-size="10.00" fill="#000000">::check_constant</text>
</a>
</g>
</g>
<!-- Node3720&#45;&gt;Node3722 -->
<g id="edge2" class="edge">
<title>Node3720&#45;&gt;Node3722</title>
<path fill="none" stroke="#191970" d="M57.4838,-376.1627C64.4079,-423.9815 85.7615,-528.7522 145,-591 148.3318,-594.5011 152.1419,-597.6168 156.2224,-600.3855"/>
<polygon fill="#191970" stroke="#191970" points="60.9277,-375.5117 56.1173,-366.0718 53.991,-376.4511 60.9277,-375.5117"/>
</g>
<!-- Node3723 -->
<g id="node4" class="node">
<title>Node3723</title>
<g id="a_node4"><a xlink:href="structcimg__library__suffixed_1_1_c_img_1_1__cimg__math__parser.html#af19c9440058cbae77a2d7aafb576fb86" target="_top" xlink:title="cimg_library_suffixed\l::CImg::_cimg_math_parser\l::check_list">
<polygon fill="#ffffff" stroke="#000000" points="145,-540.5 145,-581.5 283,-581.5 283,-540.5 145,-540.5"/>
<text text-anchor="start" x="153" y="-569.5" font-family="Helvetica,sans-Serif" font-size="10.00" fill="#000000">cimg_library_suffixed</text>
<text text-anchor="start" x="153" y="-558.5" font-family="Helvetica,sans-Serif" font-size="10.00" fill="#000000">::CImg::_cimg_math_parser</text>
<text text-anchor="middle" x="214" y="-547.5" font-family="Helvetica,sans-Serif" font-size="10.00" fill="#000000">::check_list</text>
</a>
</g>
</g>
<!-- Node3720&#45;&gt;Node3723 -->
<g id="edge3" class="edge">
<title>Node3720&#45;&gt;Node3723</title>
<path fill="none" stroke="#191970" d="M61.0699,-375.9503C72.286,-414.0858 98.5429,-487.0629 145,-531 148.7012,-534.5005 152.8761,-537.6306 157.2945,-540.4221"/>
<polygon fill="#191970" stroke="#191970" points="64.393,-374.8393 58.3009,-366.1712 57.6578,-376.7464 64.393,-374.8393"/>
</g>
<!-- Node3724 -->
<g id="node5" class="node">
<title>Node3724</title>
<g id="a_node5"><a xlink:href="structcimg__library__suffixed_1_1_c_img_1_1__cimg__math__parser.html#a9eaf3a1d2c38a1a1b9275604320fc1cc" target="_top" xlink:title="cimg_library_suffixed\l::CImg::_cimg_math_parser\l::check_matrix_square">
<polygon fill="#ffffff" stroke="#000000" points="145,-480.5 145,-521.5 283,-521.5 283,-480.5 145,-480.5"/>
<text text-anchor="start" x="153" y="-509.5" font-family="Helvetica,sans-Serif" font-size="10.00" fill="#000000">cimg_library_suffixed</text>
<text text-anchor="start" x="153" y="-498.5" font-family="Helvetica,sans-Serif" font-size="10.00" fill="#000000">::CImg::_cimg_math_parser</text>
<text text-anchor="middle" x="214" y="-487.5" font-family="Helvetica,sans-Serif" font-size="10.00" fill="#000000">::check_matrix_square</text>
</a>
</g>
</g>
<!-- Node3720&#45;&gt;Node3724 -->
<g id="edge4" class="edge">
<title>Node3720&#45;&gt;Node3724</title>
<path fill="none" stroke="#191970" d="M67.6727,-375.2908C83.1413,-401.869 111.0483,-444.2461 145,-471 149.4117,-474.4764 154.2881,-477.6314 159.3486,-480.4748"/>
<polygon fill="#191970" stroke="#191970" points="70.5316,-373.2374 62.5483,-366.2719 64.4453,-376.6955 70.5316,-373.2374"/>
</g>
<!-- Node3725 -->
<g id="node6" class="node">
<title>Node3725</title>
<g id="a_node6"><a xlink:href="structcimg__library__suffixed_1_1_c_img_1_1__cimg__math__parser.html#ae5bd43fbdd9ff01b95538fd9958ea79f" target="_top" xlink:title="cimg_library_suffixed\l::CImg::_cimg_math_parser\l::check_type">
<polygon fill="#ffffff" stroke="#000000" points="145,-420.5 145,-461.5 283,-461.5 283,-420.5 145,-420.5"/>
<text text-anchor="start" x="153" y="-449.5" font-family="Helvetica,sans-Serif" font-size="10.00" fill="#000000">cimg_library_suffixed</text>
<text text-anchor="start" x="153" y="-438.5" font-family="Helvetica,sans-Serif" font-size="10.00" fill="#000000">::CImg::_cimg_math_parser</text>
<text text-anchor="middle" x="214" y="-427.5" font-family="Helvetica,sans-Serif" font-size="10.00" fill="#000000">::check_type</text>
</a>
</g>
</g>
<!-- Node3720&#45;&gt;Node3725 -->
<g id="edge5" class="edge">
<title>Node3720&#45;&gt;Node3725</title>
<path fill="none" stroke="#191970" d="M83.6115,-372.1927C100.9666,-384.3412 123.7017,-399.4258 145,-411 150.9681,-414.2433 157.3586,-417.4068 163.7537,-420.3891"/>
<polygon fill="#191970" stroke="#191970" points="85.2468,-369.0621 75.0624,-366.1416 81.2026,-374.7757 85.2468,-369.0621"/>
</g>
<!-- Node3726 -->
<g id="node7" class="node">
<title>Node3726</title>
<g id="a_node7"><a xlink:href="structcimg__library__suffixed_1_1_c_img_1_1__cimg__math__parser.html#adb9859b0bd33e7d69c94b50d407b7a9e" target="_top" xlink:title="cimg_library_suffixed\l::CImg::_cimg_math_parser\l::check_vector0">
<polygon fill="#ffffff" stroke="#000000" points="145,-360.5 145,-401.5 283,-401.5 283,-360.5 145,-360.5"/>
<text text-anchor="start" x="153" y="-389.5" font-family="Helvetica,sans-Serif" font-size="10.00" fill="#000000">cimg_library_suffixed</text>
<text text-anchor="start" x="153" y="-378.5" font-family="Helvetica,sans-Serif" font-size="10.00" fill="#000000">::CImg::_cimg_math_parser</text>
<text text-anchor="middle" x="214" y="-367.5" font-family="Helvetica,sans-Serif" font-size="10.00" fill="#000000">::check_vector0</text>
</a>
</g>
</g>
<!-- Node3720&#45;&gt;Node3726 -->
<g id="edge6" class="edge">
<title>Node3720&#45;&gt;Node3726</title>
<path fill="none" stroke="#191970" d="M119.4793,-363.2218C127.8632,-364.7987 136.4728,-366.4181 144.9198,-368.0069"/>
<polygon fill="#191970" stroke="#191970" points="119.8655,-359.7332 109.3909,-361.3243 118.5715,-366.6125 119.8655,-359.7332"/>
</g>
<!-- Node3727 -->
<g id="node8" class="node">
<title>Node3727</title>
<g id="a_node8"><a xlink:href="structcimg__library__suffixed_1_1_c_img_1_1__cimg__math__parser.html#a318c44c5d1f4f0114355f37ace87a4ae" target="_top" xlink:title="cimg_library_suffixed\l::CImg::_cimg_math_parser\l::compile">
<polygon fill="#ffffff" stroke="#000000" points="145,-300.5 145,-341.5 283,-341.5 283,-300.5 145,-300.5"/>
<text text-anchor="start" x="153" y="-329.5" font-family="Helvetica,sans-Serif" font-size="10.00" fill="#000000">cimg_library_suffixed</text>
<text text-anchor="start" x="153" y="-318.5" font-family="Helvetica,sans-Serif" font-size="10.00" fill="#000000">::CImg::_cimg_math_parser</text>
<text text-anchor="middle" x="214" y="-307.5" font-family="Helvetica,sans-Serif" font-size="10.00" fill="#000000">::compile</text>
</a>
</g>
</g>
<!-- Node3720&#45;&gt;Node3727 -->
<g id="edge7" class="edge">
<title>Node3720&#45;&gt;Node3727</title>
<path fill="none" stroke="#191970" d="M119.4793,-338.7782C127.8632,-337.2013 136.4728,-335.5819 144.9198,-333.9931"/>
<polygon fill="#191970" stroke="#191970" points="118.5715,-335.3875 109.3909,-340.6757 119.8655,-342.2668 118.5715,-335.3875"/>
</g>
<!-- Node3728 -->
<g id="node9" class="node">
<title>Node3728</title>
<g id="a_node9"><a xlink:href="structcimg__library__suffixed_1_1_c_img_1_1__cimg__math__parser.html#aa74c7ba8d348cc412a488c81befae866" target="_top" xlink:title="cimg_library_suffixed\l::CImg::_cimg_math_parser\l::get_level">
<polygon fill="#ffffff" stroke="#000000" points="145,-240.5 145,-281.5 283,-281.5 283,-240.5 145,-240.5"/>
<text text-anchor="start" x="153" y="-269.5" font-family="Helvetica,sans-Serif" font-size="10.00" fill="#000000">cimg_library_suffixed</text>
<text text-anchor="start" x="153" y="-258.5" font-family="Helvetica,sans-Serif" font-size="10.00" fill="#000000">::CImg::_cimg_math_parser</text>
<text text-anchor="middle" x="214" y="-247.5" font-family="Helvetica,sans-Serif" font-size="10.00" fill="#000000">::get_level</text>
</a>
</g>
</g>
<!-- Node3720&#45;&gt;Node3728 -->
<g id="edge8" class="edge">
<title>Node3720&#45;&gt;Node3728</title>
<path fill="none" stroke="#191970" d="M83.6115,-329.8073C100.9666,-317.6588 123.7017,-302.5742 145,-291 150.9681,-287.7567 157.3586,-284.5932 163.7537,-281.6109"/>
<polygon fill="#191970" stroke="#191970" points="81.2026,-327.2243 75.0624,-335.8584 85.2468,-332.9379 81.2026,-327.2243"/>
</g>
<!-- Node3729 -->
<g id="node10" class="node">
<title>Node3729</title>
<g id="a_node10"><a xlink:href="structcimg__library__suffixed_1_1_c_img_1_1__cimg__math__parser.html#a27d4090a1e0898e322c211b61b1c3d54" target="_top" xlink:title="cimg_library_suffixed\l::CImg::_cimg_math_parser\l::mp_debug">
<polygon fill="#ffffff" stroke="#000000" points="145,-180.5 145,-221.5 283,-221.5 283,-180.5 145,-180.5"/>
<text text-anchor="start" x="153" y="-209.5" font-family="Helvetica,sans-Serif" font-size="10.00" fill="#000000">cimg_library_suffixed</text>
<text text-anchor="start" x="153" y="-198.5" font-family="Helvetica,sans-Serif" font-size="10.00" fill="#000000">::CImg::_cimg_math_parser</text>
<text text-anchor="middle" x="214" y="-187.5" font-family="Helvetica,sans-Serif" font-size="10.00" fill="#000000">::mp_debug</text>
</a>
</g>
</g>
<!-- Node3720&#45;&gt;Node3729 -->
<g id="edge9" class="edge">
<title>Node3720&#45;&gt;Node3729</title>
<path fill="none" stroke="#191970" d="M67.6727,-326.7092C83.1413,-300.131 111.0483,-257.7539 145,-231 149.4117,-227.5236 154.2881,-224.3686 159.3486,-221.5252"/>
<polygon fill="#191970" stroke="#191970" points="64.4453,-325.3045 62.5483,-335.7281 70.5316,-328.7626 64.4453,-325.3045"/>
</g>
<!-- Node3730 -->
<g id="node11" class="node">
<title>Node3730</title>
<g id="a_node11"><a xlink:href="structcimg__library__suffixed_1_1_c_img_1_1__cimg__math__parser.html#ad1a26d5e0bb46bb8e44f62103543fe67" target="_top" xlink:title="cimg_library_suffixed\l::CImg::_cimg_math_parser\l::mp_display">
<polygon fill="#ffffff" stroke="#000000" points="145,-120.5 145,-161.5 283,-161.5 283,-120.5 145,-120.5"/>
<text text-anchor="start" x="153" y="-149.5" font-family="Helvetica,sans-Serif" font-size="10.00" fill="#000000">cimg_library_suffixed</text>
<text text-anchor="start" x="153" y="-138.5" font-family="Helvetica,sans-Serif" font-size="10.00" fill="#000000">::CImg::_cimg_math_parser</text>
<text text-anchor="middle" x="214" y="-127.5" font-family="Helvetica,sans-Serif" font-size="10.00" fill="#000000">::mp_display</text>
</a>
</g>
</g>
<!-- Node3720&#45;&gt;Node3730 -->
<g id="edge10" class="edge">
<title>Node3720&#45;&gt;Node3730</title>
<path fill="none" stroke="#191970" d="M61.0699,-326.0497C72.286,-287.9142 98.5429,-214.9371 145,-171 148.7012,-167.4995 152.8761,-164.3694 157.2945,-161.5779"/>
<polygon fill="#191970" stroke="#191970" points="57.6578,-325.2536 58.3009,-335.8288 64.393,-327.1607 57.6578,-325.2536"/>
</g>
<!-- Node3731 -->
<g id="node12" class="node">
<title>Node3731</title>
<g id="a_node12"><a xlink:href="structcimg__library__suffixed_1_1_c_img_1_1__cimg__math__parser.html#aad0725b5cc325c823bb66b26c48fa253" target="_top" xlink:title="cimg_library_suffixed\l::CImg::_cimg_math_parser\l::mp_print">
<polygon fill="#ffffff" stroke="#000000" points="145,-60.5 145,-101.5 283,-101.5 283,-60.5 145,-60.5"/>
<text text-anchor="start" x="153" y="-89.5" font-family="Helvetica,sans-Serif" font-size="10.00" fill="#000000">cimg_library_suffixed</text>
<text text-anchor="start" x="153" y="-78.5" font-family="Helvetica,sans-Serif" font-size="10.00" fill="#000000">::CImg::_cimg_math_parser</text>
<text text-anchor="middle" x="214" y="-67.5" font-family="Helvetica,sans-Serif" font-size="10.00" fill="#000000">::mp_print</text>
</a>
</g>
</g>
<!-- Node3720&#45;&gt;Node3731 -->
<g id="edge11" class="edge">
<title>Node3720&#45;&gt;Node3731</title>
<path fill="none" stroke="#191970" d="M57.4838,-325.8373C64.4079,-278.0185 85.7615,-173.2478 145,-111 148.3318,-107.4989 152.1419,-104.3832 156.2224,-101.6145"/>
<polygon fill="#191970" stroke="#191970" points="53.991,-325.5489 56.1173,-335.9282 60.9277,-326.4883 53.991,-325.5489"/>
</g>
<!-- Node3732 -->
<g id="node13" class="node">
<title>Node3732</title>
<g id="a_node13"><a xlink:href="structcimg__library__suffixed_1_1_c_img_1_1__cimg__math__parser.html#a223221c97f90a501165ccafad7d0121a" target="_top" xlink:title="cimg_library_suffixed\l::CImg::_cimg_math_parser\l::mp_vector_print">
<polygon fill="#ffffff" stroke="#000000" points="145,-.5 145,-41.5 283,-41.5 283,-.5 145,-.5"/>
<text text-anchor="start" x="153" y="-29.5" font-family="Helvetica,sans-Serif" font-size="10.00" fill="#000000">cimg_library_suffixed</text>
<text text-anchor="start" x="153" y="-18.5" font-family="Helvetica,sans-Serif" font-size="10.00" fill="#000000">::CImg::_cimg_math_parser</text>
<text text-anchor="middle" x="214" y="-7.5" font-family="Helvetica,sans-Serif" font-size="10.00" fill="#000000">::mp_vector_print</text>
</a>
</g>
</g>
<!-- Node3720&#45;&gt;Node3732 -->
<g id="edge12" class="edge">
<title>Node3720&#45;&gt;Node3732</title>
<path fill="none" stroke="#191970" d="M59.3199,-325.5594C71.9921,-260.9674 107.8368,-92.793 145,-51 148.1248,-47.4859 151.7353,-44.3669 155.633,-41.6013"/>
<polygon fill="#191970" stroke="#191970" points="55.8242,-325.2018 57.3575,-335.685 62.6963,-326.5337 55.8242,-325.2018"/>
</g>
</g>
</svg>
        <g id="navigator" transform="translate(0 0)" fill="#404254">
                <rect fill="#f2f5e9" fill-opacity="0.5" stroke="#606060" stroke-width=".5" x="0" y="0" width="60" height="60"/>
                <use id="zoomplus" xlink:href="#zoomPlus" x="17" y="9" onmousedown="handleZoom(evt,'in')"/>
                <use id="zoomminus" xlink:href="#zoomMin" x="42" y="9" onmousedown="handleZoom(evt,'out')"/>
                <use id="reset" xlink:href="#resetDef" x="30" y="36" onmousedown="handleReset()"/>
                <g id="arrowUp" xlink:href="#dirArrow" transform="translate(30 24)" onmousedown="handlePan(0,-1)">
                  <use xlink:href="#rim" fill="#404040">
                        <set attributeName="fill" to="#808080" begin="arrowUp.mouseover" end="arrowUp.mouseout"/>
                  </use>
                  <path fill="none" stroke="white" stroke-width="1.5" d="M0,-3.0v7 M-2.5,-0.5L0,-3.0L2.5,-0.5"/>
                </g>
                <g id="arrowRight" xlink:href="#dirArrow" transform="rotate(90) translate(36 -43)" onmousedown="handlePan(1,0)">
                  <use xlink:href="#rim" fill="#404040">
                        <set attributeName="fill" to="#808080" begin="arrowRight.mouseover" end="arrowRight.mouseout"/>
                  </use>
                  <path fill="none" stroke="white" stroke-width="1.5" d="M0,-3.0v7 M-2.5,-0.5L0,-3.0L2.5,-0.5"/>
                </g>
                <g id="arrowDown" xlink:href="#dirArrow" transform="rotate(180) translate(-30 -48)" onmousedown="handlePan(0,1)">
                  <use xlink:href="#rim" fill="#404040">
                        <set attributeName="fill" to="#808080" begin="arrowDown.mouseover" end="arrowDown.mouseout"/>
                  </use>
                  <path fill="none" stroke="white" stroke-width="1.5" d="M0,-3.0v7 M-2.5,-0.5L0,-3.0L2.5,-0.5"/>
                </g>
                <g id="arrowLeft" xlink:href="#dirArrow" transform="rotate(270) translate(-36 17)" onmousedown="handlePan(-1,0)">
                  <use xlink:href="#rim" fill="#404040">
                        <set attributeName="fill" to="#808080" begin="arrowLeft.mouseover" end="arrowLeft.mouseout"/>
                  </use>
                  <path fill="none" stroke="white" stroke-width="1.5" d="M0,-3.0v7 M-2.5,-0.5L0,-3.0L2.5,-0.5"/>
                </g>
        </g>
        <svg viewBox="0 0 15 15" width="100%" height="30px" preserveAspectRatio="xMaxYMin meet">
         <g id="arrow_out" transform="scale(0.3 0.3)">
          <a xlink:href="namespacecimg__library__suffixed_1_1cimg_a69a3a1bbdf0f62474211ea5a398f9e72_icgraph_org.svg" target="_base">
           <rect id="button" ry="5" rx="5" y="6" x="6" height="38" width="38"
                fill="#f2f5e9" fill-opacity="0.5" stroke="#606060" stroke-width="1.0"/>
           <path id="arrow"
             d="M 11.500037,31.436501 C 11.940474,20.09759 22.043105,11.32322 32.158766,21.979434 L 37.068811,17.246167 C 37.068811,17.246167 37.088388,32 37.088388,32 L 22.160133,31.978069 C 22.160133,31.978069 26.997745,27.140456 26.997745,27.140456 C 18.528582,18.264221 13.291696,25.230495 11.500037,31.436501 z"
             style="fill:#404040;"/>
          </a>
         </g>
        </svg>
</svg>
