<?xml version="1.0" encoding="UTF-8" standalone="no"?>
<!DOCTYPE svg PUBLIC "-//W3C//DTD SVG 1.1//EN"
 "http://www.w3.org/Graphics/SVG/1.1/DTD/svg11.dtd">
<!-- Generated by graphviz version 2.40.1 (20161225.0304)
 -->
<!-- Title: cimg_library_suffixed::cimg::fwrite Pages: 1 -->
<!--zoomable 220 -->
<svg id="main" version="1.1" xmlns="http://www.w3.org/2000/svg" xmlns:xlink="http://www.w3.org/1999/xlink" xml:space="preserve" onload="init(evt)">
<style type="text/css"><![CDATA[
.edge:hover path { stroke: red; }
.edge:hover polygon { stroke: red; fill: red; }
]]></style>
<script type="text/javascript"><![CDATA[
var edges = document.getElementsByTagName('g');
if (edges && edges.length) {
  for (var i=0;i<edges.length;i++) {
    if (edges[i].id.substr(0,4)=='edge') {
      edges[i].setAttribute('class','edge');
    }
  }
}
]]></script>
        <defs>
                <circle id="rim" cx="0" cy="0" r="7"/>
                <circle id="rim2" cx="0" cy="0" r="3.5"/>
                <g id="zoomPlus">
                        <use xlink:href="#rim" fill="#404040">
                                <set attributeName="fill" to="#808080" begin="zoomplus.mouseover" end="zoomplus.mouseout"/>
                        </use>
                        <path d="M-4,0h8M0,-4v8" fill="none" stroke="white" stroke-width="1.5" pointer-events="none"/>
                </g>
                <g id="zoomMin">
                        <use xlink:href="#rim" fill="#404040">
                                <set attributeName="fill" to="#808080" begin="zoomminus.mouseover" end="zoomminus.mouseout"/>
                        </use>
                        <path d="M-4,0h8" fill="none" stroke="white" stroke-width="1.5" pointer-events="none"/>
                </g>
                <g id="dirArrow">
                        <path fill="none" stroke="white" stroke-width="1.5" d="M0,-3.0v7 M-2.5,-0.5L0,-3.0L2.5,-0.5"/>
                </g>
               <g id="resetDef">
                       <use xlink:href="#rim2" fill="#404040">
                               <set attributeName="fill" to="#808080" begin="reset.mouseover" end="reset.mouseout"/>
                       </use>
               </g>
        </defs>

<script type="text/javascript">
var viewWidth = 1330;
var viewHeight = 220;
var sectionId = 'dynsection-62';
</script>
<script xlink:href="svgpan.js"/>
<svg id="graph" class="graph">
<g id="viewport">
<title>cimg_library_suffixed::cimg::fwrite</title>
<polygon fill="#ffffff" stroke="transparent" points="-4,4 -4,-216 1326,-216 1326,4 -4,4"/>
<!-- Node1730 -->
<g id="node1" class="node">
<title>Node1730</title>
<polygon fill="#bfbfbf" stroke="#000000" points="0,-44.5 0,-74.5 109,-74.5 109,-44.5 0,-44.5"/>
<text text-anchor="start" x="8" y="-62.5" font-family="Helvetica,sans-Serif" font-size="10.00" fill="#000000">cimg_library_suffixed</text>
<text text-anchor="middle" x="54.5" y="-51.5" font-family="Helvetica,sans-Serif" font-size="10.00" fill="#000000">::cimg::fwrite</text>
</g>
<!-- Node1731 -->
<g id="node2" class="node">
<title>Node1731</title>
<g id="a_node2"><a xlink:href="namespacecimg__library__suffixed_1_1cimg.html#acfd3624d72ed7f79c82ec45646c685e7" target="_top" xlink:title="Display a warning message on the default output stream. ">
<polygon fill="#ffffff" stroke="#000000" points="145,-44.5 145,-74.5 254,-74.5 254,-44.5 145,-44.5"/>
<text text-anchor="start" x="153" y="-62.5" font-family="Helvetica,sans-Serif" font-size="10.00" fill="#000000">cimg_library_suffixed</text>
<text text-anchor="middle" x="199.5" y="-51.5" font-family="Helvetica,sans-Serif" font-size="10.00" fill="#000000">::cimg::warn</text>
</a>
</g>
</g>
<!-- Node1730&#45;&gt;Node1731 -->
<g id="edge1" class="edge">
<title>Node1730&#45;&gt;Node1731</title>
<path fill="none" stroke="#191970" d="M109.3183,-59.5C117.5286,-59.5 126.0611,-59.5 134.4586,-59.5"/>
<polygon fill="#191970" stroke="#191970" points="134.6042,-63.0001 144.6042,-59.5 134.6042,-56.0001 134.6042,-63.0001"/>
</g>
<!-- Node1732 -->
<g id="node3" class="node">
<title>Node1732</title>
<g id="a_node3"><a xlink:href="namespacecimg__library__suffixed_1_1cimg.html#aeafab144366eddd11360f32f468fa4af" target="_top" xlink:title="Set current &#160;exception mode. ">
<polygon fill="#ffffff" stroke="#000000" points="290,-88.5 290,-118.5 411,-118.5 411,-88.5 290,-88.5"/>
<text text-anchor="start" x="298" y="-106.5" font-family="Helvetica,sans-Serif" font-size="10.00" fill="#000000">cimg_library_suffixed</text>
<text text-anchor="middle" x="350.5" y="-95.5" font-family="Helvetica,sans-Serif" font-size="10.00" fill="#000000">::cimg::exception_mode</text>
</a>
</g>
</g>
<!-- Node1731&#45;&gt;Node1732 -->
<g id="edge2" class="edge">
<title>Node1731&#45;&gt;Node1732</title>
<path fill="none" stroke="#191970" d="M251.0433,-74.5192C263.2454,-78.0748 276.3788,-81.9018 288.9746,-85.5721"/>
<polygon fill="#191970" stroke="#191970" points="288.3529,-89.0364 298.9328,-88.4738 290.3113,-82.3159 288.3529,-89.0364"/>
</g>
<!-- Node1743 -->
<g id="node14" class="node">
<title>Node1743</title>
<g id="a_node14"><a xlink:href="namespacecimg__library__suffixed_1_1cimg.html#ada686776cc71803df391eea79cd1b3e5" target="_top" xlink:title="Get/set default output stream for the &#160;library messages. ">
<polygon fill="#ffffff" stroke="#000000" points="455.5,-.5 455.5,-30.5 564.5,-30.5 564.5,-.5 455.5,-.5"/>
<text text-anchor="start" x="463.5" y="-18.5" font-family="Helvetica,sans-Serif" font-size="10.00" fill="#000000">cimg_library_suffixed</text>
<text text-anchor="middle" x="510" y="-7.5" font-family="Helvetica,sans-Serif" font-size="10.00" fill="#000000">::cimg::output</text>
</a>
</g>
</g>
<!-- Node1731&#45;&gt;Node1743 -->
<g id="edge20" class="edge">
<title>Node1731&#45;&gt;Node1743</title>
<path fill="none" stroke="#191970" d="M254.2964,-51.735C307.7557,-44.1594 389.0638,-32.6375 445.5888,-24.6275"/>
<polygon fill="#191970" stroke="#191970" points="446.0809,-28.0928 455.4909,-23.2243 445.0987,-21.1621 446.0809,-28.0928"/>
</g>
<!-- Node1733 -->
<g id="node4" class="node">
<title>Node1733</title>
<g id="a_node4"><a xlink:href="namespacecimg__library__suffixed_1_1cimg.html#a6c578f866de2be9be7e385d693c758c8" target="_top" xlink:title="cimg_library_suffixed\l::cimg::_exception_mode">
<polygon fill="#ffffff" stroke="#000000" points="447,-88.5 447,-118.5 573,-118.5 573,-88.5 447,-88.5"/>
<text text-anchor="start" x="455" y="-106.5" font-family="Helvetica,sans-Serif" font-size="10.00" fill="#000000">cimg_library_suffixed</text>
<text text-anchor="middle" x="510" y="-95.5" font-family="Helvetica,sans-Serif" font-size="10.00" fill="#000000">::cimg::_exception_mode</text>
</a>
</g>
</g>
<!-- Node1732&#45;&gt;Node1733 -->
<g id="edge3" class="edge">
<title>Node1732&#45;&gt;Node1733</title>
<path fill="none" stroke="#191970" d="M411.2551,-103.5C419.5168,-103.5 428.0672,-103.5 436.523,-103.5"/>
<polygon fill="#191970" stroke="#191970" points="436.7645,-107.0001 446.7645,-103.5 436.7645,-100.0001 436.7645,-107.0001"/>
</g>
<!-- Node1734 -->
<g id="node5" class="node">
<title>Node1734</title>
<g id="a_node5"><a xlink:href="namespacecimg__library__suffixed_1_1cimg.html#aab8db7528c32a8fd3a3dc471e662782e" target="_top" xlink:title="cimg_library_suffixed\l::cimg::_stderr">
<polygon fill="#ffffff" stroke="#000000" points="609,-44.5 609,-74.5 718,-74.5 718,-44.5 609,-44.5"/>
<text text-anchor="start" x="617" y="-62.5" font-family="Helvetica,sans-Serif" font-size="10.00" fill="#000000">cimg_library_suffixed</text>
<text text-anchor="middle" x="663.5" y="-51.5" font-family="Helvetica,sans-Serif" font-size="10.00" fill="#000000">::cimg::_stderr</text>
</a>
</g>
</g>
<!-- Node1733&#45;&gt;Node1734 -->
<g id="edge4" class="edge">
<title>Node1733&#45;&gt;Node1734</title>
<path fill="none" stroke="#191970" d="M562.3967,-88.4808C574.9236,-84.89 588.4161,-81.0224 601.3361,-77.319"/>
<polygon fill="#191970" stroke="#191970" points="602.4306,-80.6463 611.079,-74.5262 600.5017,-73.9173 602.4306,-80.6463"/>
</g>
<!-- Node1736 -->
<g id="node7" class="node">
<title>Node1736</title>
<g id="a_node7"><a xlink:href="namespacecimg__library__suffixed_1_1cimg.html#a9e739e4b4ac058abfba069466617b914" target="_top" xlink:title="cimg_library_suffixed\l::cimg::mutex">
<polygon fill="#ffffff" stroke="#000000" points="899,-88.5 899,-118.5 1008,-118.5 1008,-88.5 899,-88.5"/>
<text text-anchor="start" x="907" y="-106.5" font-family="Helvetica,sans-Serif" font-size="10.00" fill="#000000">cimg_library_suffixed</text>
<text text-anchor="middle" x="953.5" y="-95.5" font-family="Helvetica,sans-Serif" font-size="10.00" fill="#000000">::cimg::mutex</text>
</a>
</g>
</g>
<!-- Node1733&#45;&gt;Node1736 -->
<g id="edge19" class="edge">
<title>Node1733&#45;&gt;Node1736</title>
<path fill="none" stroke="#191970" d="M573.0717,-103.5C656.8352,-103.5 804.0329,-103.5 888.6723,-103.5"/>
<polygon fill="#191970" stroke="#191970" points="888.6756,-107.0001 898.6756,-103.5 888.6755,-100.0001 888.6756,-107.0001"/>
</g>
<!-- Node1741 -->
<g id="node12" class="node">
<title>Node1741</title>
<g id="a_node12"><a xlink:href="namespacecimg__library__suffixed_1_1cimg.html#a01a3b743897290604513ea6d847c9886" target="_top" xlink:title="cimg_library_suffixed\l::cimg::_stdin">
<polygon fill="#ffffff" stroke="#000000" points="609,-181.5 609,-211.5 718,-211.5 718,-181.5 609,-181.5"/>
<text text-anchor="start" x="617" y="-199.5" font-family="Helvetica,sans-Serif" font-size="10.00" fill="#000000">cimg_library_suffixed</text>
<text text-anchor="middle" x="663.5" y="-188.5" font-family="Helvetica,sans-Serif" font-size="10.00" fill="#000000">::cimg::_stdin</text>
</a>
</g>
</g>
<!-- Node1733&#45;&gt;Node1741 -->
<g id="edge13" class="edge">
<title>Node1733&#45;&gt;Node1741</title>
<path fill="none" stroke="#191970" d="M529.3599,-118.6859C548.8006,-133.5209 579.9567,-156.1875 609,-172.5 611.7071,-174.0204 614.529,-175.5144 617.4016,-176.9673"/>
<polygon fill="#191970" stroke="#191970" points="616.1438,-180.2467 626.6702,-181.4492 619.1912,-173.9449 616.1438,-180.2467"/>
</g>
<!-- Node1742 -->
<g id="node13" class="node">
<title>Node1742</title>
<g id="a_node13"><a xlink:href="namespacecimg__library__suffixed_1_1cimg.html#a493220746e5df3466568bd7862825008" target="_top" xlink:title="cimg_library_suffixed\l::cimg::_stdout">
<polygon fill="#ffffff" stroke="#000000" points="609,-132.5 609,-162.5 718,-162.5 718,-132.5 609,-132.5"/>
<text text-anchor="start" x="617" y="-150.5" font-family="Helvetica,sans-Serif" font-size="10.00" fill="#000000">cimg_library_suffixed</text>
<text text-anchor="middle" x="663.5" y="-139.5" font-family="Helvetica,sans-Serif" font-size="10.00" fill="#000000">::cimg::_stdout</text>
</a>
</g>
</g>
<!-- Node1733&#45;&gt;Node1742 -->
<g id="edge16" class="edge">
<title>Node1733&#45;&gt;Node1742</title>
<path fill="none" stroke="#191970" d="M562.3967,-118.5192C574.9236,-122.11 588.4161,-125.9776 601.3361,-129.681"/>
<polygon fill="#191970" stroke="#191970" points="600.5017,-133.0827 611.079,-132.4738 602.4306,-126.3537 600.5017,-133.0827"/>
</g>
<!-- Node1734&#45;&gt;Node1732 -->
<g id="edge5" class="edge">
<title>Node1734&#45;&gt;Node1732</title>
<path fill="none" stroke="#191970" d="M608.9037,-61.7815C564.9328,-64.2204 501.6606,-69.0882 447,-78.5 435.5894,-80.4648 423.5522,-83.11 411.9951,-85.9459"/>
<polygon fill="#191970" stroke="#191970" points="410.8277,-82.6308 401.9904,-88.4748 412.5432,-89.4174 410.8277,-82.6308"/>
</g>
<!-- Node1735 -->
<g id="node6" class="node">
<title>Node1735</title>
<g id="a_node6"><a xlink:href="namespacecimg__library__suffixed_1_1cimg.html#a79aef0cbcf66ceb71c2b74cb66b4deb2" target="_top" xlink:title="Avoid warning messages due to unused parameters. Do nothing actually. ">
<polygon fill="#ffffff" stroke="#000000" points="754,-132.5 754,-162.5 863,-162.5 863,-132.5 754,-132.5"/>
<text text-anchor="start" x="762" y="-150.5" font-family="Helvetica,sans-Serif" font-size="10.00" fill="#000000">cimg_library_suffixed</text>
<text text-anchor="middle" x="808.5" y="-139.5" font-family="Helvetica,sans-Serif" font-size="10.00" fill="#000000">::cimg::unused</text>
</a>
</g>
</g>
<!-- Node1734&#45;&gt;Node1735 -->
<g id="edge6" class="edge">
<title>Node1734&#45;&gt;Node1735</title>
<path fill="none" stroke="#191970" d="M688.4264,-74.6277C712.2878,-89.1092 748.4587,-111.0612 774.8648,-127.0869"/>
<polygon fill="#191970" stroke="#191970" points="773.0489,-130.079 783.4136,-132.2752 776.6807,-124.0948 773.0489,-130.079"/>
</g>
<!-- Node1735&#45;&gt;Node1736 -->
<g id="edge7" class="edge">
<title>Node1735&#45;&gt;Node1736</title>
<path fill="none" stroke="#191970" d="M857.9952,-132.4808C869.5323,-128.9798 881.9365,-125.2158 893.8612,-121.5973"/>
<polygon fill="#191970" stroke="#191970" points="895.1827,-124.8539 903.7355,-118.6009 893.1501,-118.1555 895.1827,-124.8539"/>
</g>
<!-- Node1737 -->
<g id="node8" class="node">
<title>Node1737</title>
<g id="a_node8"><a xlink:href="namespacecimg__library__suffixed_1_1cimg.html#aa0e1bc96ae6e235dc5b67b8b0a466166" target="_top" xlink:title="cimg_library_suffixed\l::cimg::Mutex_attr">
<polygon fill="#ffffff" stroke="#000000" points="1213,-135.5 1213,-165.5 1322,-165.5 1322,-135.5 1213,-135.5"/>
<text text-anchor="start" x="1221" y="-153.5" font-family="Helvetica,sans-Serif" font-size="10.00" fill="#000000">cimg_library_suffixed</text>
<text text-anchor="middle" x="1267.5" y="-142.5" font-family="Helvetica,sans-Serif" font-size="10.00" fill="#000000">::cimg::Mutex_attr</text>
</a>
</g>
</g>
<!-- Node1736&#45;&gt;Node1737 -->
<g id="edge8" class="edge">
<title>Node1736&#45;&gt;Node1737</title>
<path fill="none" stroke="#191970" d="M974.1891,-118.5983C991.7696,-130.4355 1018.1935,-145.9621 1044,-152.5 1096.2808,-165.745 1157.6728,-164.0184 1202.872,-159.6729"/>
<polygon fill="#191970" stroke="#191970" points="1203.2493,-163.1527 1212.8385,-158.6474 1202.5327,-156.1895 1203.2493,-163.1527"/>
</g>
<!-- Node1738 -->
<g id="node9" class="node">
<title>Node1738</title>
<g id="a_node9"><a xlink:href="structcimg__library__suffixed_1_1cimg_1_1_mutex__info.html#afac3fa5f107ad4795fb867050f616555" target="_top" xlink:title="cimg_library_suffixed\l::cimg::Mutex_info::unlock">
<polygon fill="#ffffff" stroke="#000000" points="1044.5,-64.5 1044.5,-94.5 1176.5,-94.5 1176.5,-64.5 1044.5,-64.5"/>
<text text-anchor="start" x="1052.5" y="-82.5" font-family="Helvetica,sans-Serif" font-size="10.00" fill="#000000">cimg_library_suffixed</text>
<text text-anchor="middle" x="1110.5" y="-71.5" font-family="Helvetica,sans-Serif" font-size="10.00" fill="#000000">::cimg::Mutex_info::unlock</text>
</a>
</g>
</g>
<!-- Node1736&#45;&gt;Node1738 -->
<g id="edge9" class="edge">
<title>Node1736&#45;&gt;Node1738</title>
<path fill="none" stroke="#191970" d="M1008.411,-95.106C1016.7369,-93.8332 1025.453,-92.5008 1034.1344,-91.1737"/>
<polygon fill="#191970" stroke="#191970" points="1034.9278,-94.5932 1044.2841,-89.6222 1033.87,-87.6736 1034.9278,-94.5932"/>
</g>
<!-- Node1739 -->
<g id="node10" class="node">
<title>Node1739</title>
<g id="a_node10"><a xlink:href="structcimg__library__suffixed_1_1cimg_1_1_mutex__info.html#a6cc8e26847a1aa649febed03d70182e7" target="_top" xlink:title="cimg_library_suffixed\l::cimg::Mutex_info::lock">
<polygon fill="#ffffff" stroke="#000000" points="1049.5,-15.5 1049.5,-45.5 1171.5,-45.5 1171.5,-15.5 1049.5,-15.5"/>
<text text-anchor="start" x="1057.5" y="-33.5" font-family="Helvetica,sans-Serif" font-size="10.00" fill="#000000">cimg_library_suffixed</text>
<text text-anchor="middle" x="1110.5" y="-22.5" font-family="Helvetica,sans-Serif" font-size="10.00" fill="#000000">::cimg::Mutex_info::lock</text>
</a>
</g>
</g>
<!-- Node1736&#45;&gt;Node1739 -->
<g id="edge10" class="edge">
<title>Node1736&#45;&gt;Node1739</title>
<path fill="none" stroke="#191970" d="M979.1165,-88.2922C996.9592,-78.0342 1021.4996,-64.5832 1044,-54.5 1048.0148,-52.7009 1052.209,-50.935 1056.4536,-49.2284"/>
<polygon fill="#191970" stroke="#191970" points="1057.7287,-52.488 1065.7765,-45.5972 1055.1881,-45.9653 1057.7287,-52.488"/>
</g>
<!-- Node1740 -->
<g id="node11" class="node">
<title>Node1740</title>
<g id="a_node11"><a xlink:href="structcimg__library__suffixed_1_1cimg_1_1_mutex__info.html#a9bf4ed1e1dfe6f28fa6250cd04f3c900" target="_top" xlink:title="cimg_library_suffixed\l::cimg::Mutex_info::trylock">
<polygon fill="#ffffff" stroke="#000000" points="1044,-113.5 1044,-143.5 1177,-143.5 1177,-113.5 1044,-113.5"/>
<text text-anchor="start" x="1052" y="-131.5" font-family="Helvetica,sans-Serif" font-size="10.00" fill="#000000">cimg_library_suffixed</text>
<text text-anchor="middle" x="1110.5" y="-120.5" font-family="Helvetica,sans-Serif" font-size="10.00" fill="#000000">::cimg::Mutex_info::trylock</text>
</a>
</g>
</g>
<!-- Node1736&#45;&gt;Node1740 -->
<g id="edge11" class="edge">
<title>Node1736&#45;&gt;Node1740</title>
<path fill="none" stroke="#191970" d="M1008.411,-112.2438C1016.6098,-113.5493 1025.187,-114.9151 1033.7367,-116.2766"/>
<polygon fill="#191970" stroke="#191970" points="1033.3105,-119.7527 1043.7365,-117.8689 1034.4113,-112.8398 1033.3105,-119.7527"/>
</g>
<!-- Node1740&#45;&gt;Node1737 -->
<g id="edge12" class="edge">
<title>Node1740&#45;&gt;Node1737</title>
<path fill="none" stroke="#191970" d="M1177.0821,-137.83C1185.5193,-139.0123 1194.1445,-140.2209 1202.5556,-141.3995"/>
<polygon fill="#191970" stroke="#191970" points="1202.293,-144.8968 1212.682,-142.8185 1203.2645,-137.9646 1202.293,-144.8968"/>
</g>
<!-- Node1741&#45;&gt;Node1732 -->
<g id="edge14" class="edge">
<title>Node1741&#45;&gt;Node1732</title>
<path fill="none" stroke="#191970" d="M608.7251,-188.215C564.3777,-180.6538 500.6837,-167.8459 447,-149.5 426.3615,-142.447 404.3363,-132.1761 386.5465,-123.1278"/>
<polygon fill="#191970" stroke="#191970" points="388.1496,-120.0165 377.6594,-118.531 384.9336,-126.2341 388.1496,-120.0165"/>
</g>
<!-- Node1741&#45;&gt;Node1735 -->
<g id="edge15" class="edge">
<title>Node1741&#45;&gt;Node1735</title>
<path fill="none" stroke="#191970" d="M708.1879,-181.3986C722.659,-176.5083 738.8725,-171.0293 753.9752,-165.9256"/>
<polygon fill="#191970" stroke="#191970" points="755.3569,-169.1532 763.71,-162.6359 753.1158,-162.5217 755.3569,-169.1532"/>
</g>
<!-- Node1742&#45;&gt;Node1732 -->
<g id="edge17" class="edge">
<title>Node1742&#45;&gt;Node1732</title>
<path fill="none" stroke="#191970" d="M608.9291,-144.7545C564.9726,-141.9926 501.7072,-136.7748 447,-127.5 436.4443,-125.7104 425.3398,-123.3795 414.5718,-120.8745"/>
<polygon fill="#191970" stroke="#191970" points="415.343,-117.4603 404.8029,-118.5356 413.713,-124.2679 415.343,-117.4603"/>
</g>
<!-- Node1742&#45;&gt;Node1735 -->
<g id="edge18" class="edge">
<title>Node1742&#45;&gt;Node1735</title>
<path fill="none" stroke="#191970" d="M718.3183,-147.5C726.5286,-147.5 735.0611,-147.5 743.4586,-147.5"/>
<polygon fill="#191970" stroke="#191970" points="743.6042,-151.0001 753.6042,-147.5 743.6042,-144.0001 743.6042,-151.0001"/>
</g>
<!-- Node1743&#45;&gt;Node1734 -->
<g id="edge22" class="edge">
<title>Node1743&#45;&gt;Node1734</title>
<path fill="none" stroke="#191970" d="M562.3967,-30.5192C574.9236,-34.11 588.4161,-37.9776 601.3361,-41.681"/>
<polygon fill="#191970" stroke="#191970" points="600.5017,-45.0827 611.079,-44.4738 602.4306,-38.3537 600.5017,-45.0827"/>
</g>
<!-- Node1743&#45;&gt;Node1736 -->
<g id="edge21" class="edge">
<title>Node1743&#45;&gt;Node1736</title>
<path fill="none" stroke="#191970" d="M564.708,-17.5985C606.891,-19.9135 666.526,-24.7043 718,-34.5 782.2763,-46.732 854.1867,-69.1202 901.4394,-85.0769"/>
<polygon fill="#191970" stroke="#191970" points="900.5423,-88.4686 911.1368,-88.3782 902.7983,-81.8421 900.5423,-88.4686"/>
</g>
</g>
</svg>
        <g id="navigator" transform="translate(0 0)" fill="#404254">
                <rect fill="#f2f5e9" fill-opacity="0.5" stroke="#606060" stroke-width=".5" x="0" y="0" width="60" height="60"/>
                <use id="zoomplus" xlink:href="#zoomPlus" x="17" y="9" onmousedown="handleZoom(evt,'in')"/>
                <use id="zoomminus" xlink:href="#zoomMin" x="42" y="9" onmousedown="handleZoom(evt,'out')"/>
                <use id="reset" xlink:href="#resetDef" x="30" y="36" onmousedown="handleReset()"/>
                <g id="arrowUp" xlink:href="#dirArrow" transform="translate(30 24)" onmousedown="handlePan(0,-1)">
                  <use xlink:href="#rim" fill="#404040">
                        <set attributeName="fill" to="#808080" begin="arrowUp.mouseover" end="arrowUp.mouseout"/>
                  </use>
                  <path fill="none" stroke="white" stroke-width="1.5" d="M0,-3.0v7 M-2.5,-0.5L0,-3.0L2.5,-0.5"/>
                </g>
                <g id="arrowRight" xlink:href="#dirArrow" transform="rotate(90) translate(36 -43)" onmousedown="handlePan(1,0)">
                  <use xlink:href="#rim" fill="#404040">
                        <set attributeName="fill" to="#808080" begin="arrowRight.mouseover" end="arrowRight.mouseout"/>
                  </use>
                  <path fill="none" stroke="white" stroke-width="1.5" d="M0,-3.0v7 M-2.5,-0.5L0,-3.0L2.5,-0.5"/>
                </g>
                <g id="arrowDown" xlink:href="#dirArrow" transform="rotate(180) translate(-30 -48)" onmousedown="handlePan(0,1)">
                  <use xlink:href="#rim" fill="#404040">
                        <set attributeName="fill" to="#808080" begin="arrowDown.mouseover" end="arrowDown.mouseout"/>
                  </use>
                  <path fill="none" stroke="white" stroke-width="1.5" d="M0,-3.0v7 M-2.5,-0.5L0,-3.0L2.5,-0.5"/>
                </g>
                <g id="arrowLeft" xlink:href="#dirArrow" transform="rotate(270) translate(-36 17)" onmousedown="handlePan(-1,0)">
                  <use xlink:href="#rim" fill="#404040">
                        <set attributeName="fill" to="#808080" begin="arrowLeft.mouseover" end="arrowLeft.mouseout"/>
                  </use>
                  <path fill="none" stroke="white" stroke-width="1.5" d="M0,-3.0v7 M-2.5,-0.5L0,-3.0L2.5,-0.5"/>
                </g>
        </g>
        <svg viewBox="0 0 15 15" width="100%" height="30px" preserveAspectRatio="xMaxYMin meet">
         <g id="arrow_out" transform="scale(0.3 0.3)">
          <a xlink:href="namespacecimg__library__suffixed_1_1cimg_ad44a7e96cd1e9cdef83f4ffe235dd1fb_cgraph_org.svg" target="_base">
           <rect id="button" ry="5" rx="5" y="6" x="6" height="38" width="38"
                fill="#f2f5e9" fill-opacity="0.5" stroke="#606060" stroke-width="1.0"/>
           <path id="arrow"
             d="M 11.500037,31.436501 C 11.940474,20.09759 22.043105,11.32322 32.158766,21.979434 L 37.068811,17.246167 C 37.068811,17.246167 37.088388,32 37.088388,32 L 22.160133,31.978069 C 22.160133,31.978069 26.997745,27.140456 26.997745,27.140456 C 18.528582,18.264221 13.291696,25.230495 11.500037,31.436501 z"
             style="fill:#404040;"/>
          </a>
         </g>
        </svg>
</svg>
