<?xml version="1.0" encoding="UTF-8" standalone="no"?>
<!DOCTYPE svg PUBLIC "-//W3C//DTD SVG 1.1//EN"
 "http://www.w3.org/Graphics/SVG/1.1/DTD/svg11.dtd">
<!-- Generated by graphviz version 2.40.1 (20161225.0304)
 -->
<!-- Title: cimg_library_suffixed::cimg::imagemagick_path Pages: 1 -->
<!--zoomable 379 -->
<svg id="main" version="1.1" xmlns="http://www.w3.org/2000/svg" xmlns:xlink="http://www.w3.org/1999/xlink" xml:space="preserve" onload="init(evt)">
<style type="text/css"><![CDATA[
.edge:hover path { stroke: red; }
.edge:hover polygon { stroke: red; fill: red; }
]]></style>
<script type="text/javascript"><![CDATA[
var edges = document.getElementsByTagName('g');
if (edges && edges.length) {
  for (var i=0;i<edges.length;i++) {
    if (edges[i].id.substr(0,4)=='edge') {
      edges[i].setAttribute('class','edge');
    }
  }
}
]]></script>
        <defs>
                <circle id="rim" cx="0" cy="0" r="7"/>
                <circle id="rim2" cx="0" cy="0" r="3.5"/>
                <g id="zoomPlus">
                        <use xlink:href="#rim" fill="#404040">
                                <set attributeName="fill" to="#808080" begin="zoomplus.mouseover" end="zoomplus.mouseout"/>
                        </use>
                        <path d="M-4,0h8M0,-4v8" fill="none" stroke="white" stroke-width="1.5" pointer-events="none"/>
                </g>
                <g id="zoomMin">
                        <use xlink:href="#rim" fill="#404040">
                                <set attributeName="fill" to="#808080" begin="zoomminus.mouseover" end="zoomminus.mouseout"/>
                        </use>
                        <path d="M-4,0h8" fill="none" stroke="white" stroke-width="1.5" pointer-events="none"/>
                </g>
                <g id="dirArrow">
                        <path fill="none" stroke="white" stroke-width="1.5" d="M0,-3.0v7 M-2.5,-0.5L0,-3.0L2.5,-0.5"/>
                </g>
               <g id="resetDef">
                       <use xlink:href="#rim2" fill="#404040">
                               <set attributeName="fill" to="#808080" begin="reset.mouseover" end="reset.mouseout"/>
                       </use>
               </g>
        </defs>

<script type="text/javascript">
var viewWidth = 1510;
var viewHeight = 379;
var sectionId = 'dynsection-76';
</script>
<script xlink:href="svgpan.js"/>
<svg id="graph" class="graph">
<g id="viewport">
<title>cimg_library_suffixed::cimg::imagemagick_path</title>
<polygon fill="#ffffff" stroke="transparent" points="-4,4 -4,-375 1506,-375 1506,4 -4,4"/>
<!-- Node1885 -->
<g id="node1" class="node">
<title>Node1885</title>
<polygon fill="#bfbfbf" stroke="#000000" points="0,-243.5 0,-273.5 131,-273.5 131,-243.5 0,-243.5"/>
<text text-anchor="start" x="8" y="-261.5" font-family="Helvetica,sans-Serif" font-size="10.00" fill="#000000">cimg_library_suffixed</text>
<text text-anchor="middle" x="65.5" y="-250.5" font-family="Helvetica,sans-Serif" font-size="10.00" fill="#000000">::cimg::imagemagick_path</text>
</g>
<!-- Node1886 -->
<g id="node2" class="node">
<title>Node1886</title>
<g id="a_node2"><a xlink:href="structcimg__library__suffixed_1_1_c_img.html#a82cf529dfcb37cbd01ad7f9bd76795d7" target="_top" xlink:title="Construct empty image . ">
<polygon fill="#ffffff" stroke="#000000" points="173.5,-340.5 173.5,-370.5 282.5,-370.5 282.5,-340.5 173.5,-340.5"/>
<text text-anchor="start" x="181.5" y="-358.5" font-family="Helvetica,sans-Serif" font-size="10.00" fill="#000000">cimg_library_suffixed</text>
<text text-anchor="middle" x="228" y="-347.5" font-family="Helvetica,sans-Serif" font-size="10.00" fill="#000000">::CImg::assign</text>
</a>
</g>
</g>
<!-- Node1885&#45;&gt;Node1886 -->
<g id="edge1" class="edge">
<title>Node1885&#45;&gt;Node1886</title>
<path fill="none" stroke="#191970" d="M86.7801,-273.6878C106.9807,-287.8283 138.4195,-309.1262 167,-325.5 173.0546,-328.9687 179.5662,-332.4353 186.0009,-335.7159"/>
<polygon fill="#191970" stroke="#191970" points="184.8013,-339.029 195.3112,-340.3677 187.93,-332.7672 184.8013,-339.029"/>
</g>
<!-- Node1887 -->
<g id="node3" class="node">
<title>Node1887</title>
<g id="a_node3"><a xlink:href="namespacecimg__library__suffixed_1_1cimg.html#ac436b94e6ffef5fd420bb3d7c05fd416" target="_top" xlink:title="Close a file. ">
<polygon fill="#ffffff" stroke="#000000" points="173.5,-155.5 173.5,-185.5 282.5,-185.5 282.5,-155.5 173.5,-155.5"/>
<text text-anchor="start" x="181.5" y="-173.5" font-family="Helvetica,sans-Serif" font-size="10.00" fill="#000000">cimg_library_suffixed</text>
<text text-anchor="middle" x="228" y="-162.5" font-family="Helvetica,sans-Serif" font-size="10.00" fill="#000000">::cimg::fclose</text>
</a>
</g>
</g>
<!-- Node1885&#45;&gt;Node1887 -->
<g id="edge2" class="edge">
<title>Node1885&#45;&gt;Node1887</title>
<path fill="none" stroke="#191970" d="M93.4347,-243.3723C120.4908,-228.7204 161.6686,-206.421 191.3458,-190.3497"/>
<polygon fill="#191970" stroke="#191970" points="193.0317,-193.417 200.1583,-185.5773 189.6982,-187.2616 193.0317,-193.417"/>
</g>
<!-- Node1893 -->
<g id="node9" class="node">
<title>Node1893</title>
<g id="a_node9"><a xlink:href="namespacecimg__library__suffixed_1_1cimg.html#a9e739e4b4ac058abfba069466617b914" target="_top" xlink:title="cimg_library_suffixed\l::cimg::mutex">
<polygon fill="#ffffff" stroke="#000000" points="1079,-214.5 1079,-244.5 1188,-244.5 1188,-214.5 1079,-214.5"/>
<text text-anchor="start" x="1087" y="-232.5" font-family="Helvetica,sans-Serif" font-size="10.00" fill="#000000">cimg_library_suffixed</text>
<text text-anchor="middle" x="1133.5" y="-221.5" font-family="Helvetica,sans-Serif" font-size="10.00" fill="#000000">::cimg::mutex</text>
</a>
</g>
</g>
<!-- Node1885&#45;&gt;Node1893 -->
<g id="edge27" class="edge">
<title>Node1885&#45;&gt;Node1893</title>
<path fill="none" stroke="#191970" d="M120.6115,-273.5459C182.9441,-289.215 287.7269,-311.5 379.5,-311.5 379.5,-311.5 379.5,-311.5 843.5,-311.5 935.3053,-311.5 1037.5002,-272.9775 1092.7135,-248.7399"/>
<polygon fill="#191970" stroke="#191970" points="1094.4288,-251.8074 1102.1382,-244.5401 1091.5795,-245.4135 1094.4288,-251.8074"/>
</g>
<!-- Node1901 -->
<g id="node17" class="node">
<title>Node1901</title>
<g id="a_node17"><a xlink:href="namespacecimg__library__suffixed_1_1cimg.html#a1b401761f9f3c1d01de8ec6ef6bec731" target="_top" xlink:title="cimg_library_suffixed\l::cimg::winformat_string">
<polygon fill="#ffffff" stroke="#000000" points="167,-71.5 167,-101.5 289,-101.5 289,-71.5 167,-71.5"/>
<text text-anchor="start" x="175" y="-89.5" font-family="Helvetica,sans-Serif" font-size="10.00" fill="#000000">cimg_library_suffixed</text>
<text text-anchor="middle" x="228" y="-78.5" font-family="Helvetica,sans-Serif" font-size="10.00" fill="#000000">::cimg::winformat_string</text>
</a>
</g>
</g>
<!-- Node1885&#45;&gt;Node1901 -->
<g id="edge28" class="edge">
<title>Node1885&#45;&gt;Node1901</title>
<path fill="none" stroke="#191970" d="M78.6955,-243.3946C97.8081,-221.6421 134.4716,-180.386 167,-146.5 179.2029,-133.7878 193.1946,-119.9735 204.6971,-108.8081"/>
<polygon fill="#191970" stroke="#191970" points="207.4515,-111.0136 212.2101,-101.5475 202.587,-105.98 207.4515,-111.0136"/>
</g>
<!-- Node1888 -->
<g id="node4" class="node">
<title>Node1888</title>
<g id="a_node4"><a xlink:href="namespacecimg__library__suffixed_1_1cimg.html#a01a3b743897290604513ea6d847c9886" target="_top" xlink:title="cimg_library_suffixed\l::cimg::_stdin">
<polygon fill="#ffffff" stroke="#000000" points="325,-131.5 325,-161.5 434,-161.5 434,-131.5 325,-131.5"/>
<text text-anchor="start" x="333" y="-149.5" font-family="Helvetica,sans-Serif" font-size="10.00" fill="#000000">cimg_library_suffixed</text>
<text text-anchor="middle" x="379.5" y="-138.5" font-family="Helvetica,sans-Serif" font-size="10.00" fill="#000000">::cimg::_stdin</text>
</a>
</g>
</g>
<!-- Node1887&#45;&gt;Node1888 -->
<g id="edge3" class="edge">
<title>Node1887&#45;&gt;Node1888</title>
<path fill="none" stroke="#191970" d="M282.695,-161.8354C293.1002,-160.1871 304.0811,-158.4475 314.7635,-156.7553"/>
<polygon fill="#191970" stroke="#191970" points="315.5561,-160.1735 324.8853,-155.1518 314.4608,-153.2597 315.5561,-160.1735"/>
</g>
<!-- Node1898 -->
<g id="node14" class="node">
<title>Node1898</title>
<g id="a_node14"><a xlink:href="namespacecimg__library__suffixed_1_1cimg.html#a493220746e5df3466568bd7862825008" target="_top" xlink:title="cimg_library_suffixed\l::cimg::_stdout">
<polygon fill="#ffffff" stroke="#000000" points="789,-126.5 789,-156.5 898,-156.5 898,-126.5 789,-126.5"/>
<text text-anchor="start" x="797" y="-144.5" font-family="Helvetica,sans-Serif" font-size="10.00" fill="#000000">cimg_library_suffixed</text>
<text text-anchor="middle" x="843.5" y="-133.5" font-family="Helvetica,sans-Serif" font-size="10.00" fill="#000000">::cimg::_stdout</text>
</a>
</g>
</g>
<!-- Node1887&#45;&gt;Node1898 -->
<g id="edge21" class="edge">
<title>Node1887&#45;&gt;Node1898</title>
<path fill="none" stroke="#191970" d="M250.7677,-155.4607C269.7332,-143.8865 297.9225,-128.8331 325,-122.5 484.845,-85.1142 679.8708,-110.5855 778.9834,-128.3666"/>
<polygon fill="#191970" stroke="#191970" points="778.3842,-131.8149 788.8503,-130.1685 779.6418,-124.9288 778.3842,-131.8149"/>
</g>
<!-- Node1899 -->
<g id="node15" class="node">
<title>Node1899</title>
<g id="a_node15"><a xlink:href="namespacecimg__library__suffixed_1_1cimg.html#acfd3624d72ed7f79c82ec45646c685e7" target="_top" xlink:title="Display a warning message on the default output stream. ">
<polygon fill="#ffffff" stroke="#000000" points="325,-180.5 325,-210.5 434,-210.5 434,-180.5 325,-180.5"/>
<text text-anchor="start" x="333" y="-198.5" font-family="Helvetica,sans-Serif" font-size="10.00" fill="#000000">cimg_library_suffixed</text>
<text text-anchor="middle" x="379.5" y="-187.5" font-family="Helvetica,sans-Serif" font-size="10.00" fill="#000000">::cimg::warn</text>
</a>
</g>
</g>
<!-- Node1887&#45;&gt;Node1899 -->
<g id="edge22" class="edge">
<title>Node1887&#45;&gt;Node1899</title>
<path fill="none" stroke="#191970" d="M282.695,-179.5256C293.1002,-181.2426 304.0811,-183.0546 314.7635,-184.8174"/>
<polygon fill="#191970" stroke="#191970" points="314.4489,-188.3127 324.8853,-186.4877 315.5886,-181.4061 314.4489,-188.3127"/>
</g>
<!-- Node1889 -->
<g id="node5" class="node">
<title>Node1889</title>
<g id="a_node5"><a xlink:href="namespacecimg__library__suffixed_1_1cimg.html#aeafab144366eddd11360f32f468fa4af" target="_top" xlink:title="Set current &#160;exception mode. ">
<polygon fill="#ffffff" stroke="#000000" points="470,-175.5 470,-205.5 591,-205.5 591,-175.5 470,-175.5"/>
<text text-anchor="start" x="478" y="-193.5" font-family="Helvetica,sans-Serif" font-size="10.00" fill="#000000">cimg_library_suffixed</text>
<text text-anchor="middle" x="530.5" y="-182.5" font-family="Helvetica,sans-Serif" font-size="10.00" fill="#000000">::cimg::exception_mode</text>
</a>
</g>
</g>
<!-- Node1888&#45;&gt;Node1889 -->
<g id="edge4" class="edge">
<title>Node1888&#45;&gt;Node1889</title>
<path fill="none" stroke="#191970" d="M431.0433,-161.5192C443.2454,-165.0748 456.3788,-168.9018 468.9746,-172.5721"/>
<polygon fill="#191970" stroke="#191970" points="468.3529,-176.0364 478.9328,-175.4738 470.3113,-169.3159 468.3529,-176.0364"/>
</g>
<!-- Node1892 -->
<g id="node8" class="node">
<title>Node1892</title>
<g id="a_node8"><a xlink:href="namespacecimg__library__suffixed_1_1cimg.html#a79aef0cbcf66ceb71c2b74cb66b4deb2" target="_top" xlink:title="Avoid warning messages due to unused parameters. Do nothing actually. ">
<polygon fill="#ffffff" stroke="#000000" points="934,-126.5 934,-156.5 1043,-156.5 1043,-126.5 934,-126.5"/>
<text text-anchor="start" x="942" y="-144.5" font-family="Helvetica,sans-Serif" font-size="10.00" fill="#000000">cimg_library_suffixed</text>
<text text-anchor="middle" x="988.5" y="-133.5" font-family="Helvetica,sans-Serif" font-size="10.00" fill="#000000">::cimg::unused</text>
</a>
</g>
</g>
<!-- Node1888&#45;&gt;Node1892 -->
<g id="edge20" class="edge">
<title>Node1888&#45;&gt;Node1892</title>
<path fill="none" stroke="#191970" d="M434.2598,-136.4536C529.1308,-120.58 730.0212,-93.725 898,-116.5 909.6184,-118.0753 921.8526,-120.739 933.4392,-123.7551"/>
<polygon fill="#191970" stroke="#191970" points="932.8544,-127.2234 943.423,-126.4779 934.6963,-120.47 932.8544,-127.2234"/>
</g>
<!-- Node1890 -->
<g id="node6" class="node">
<title>Node1890</title>
<g id="a_node6"><a xlink:href="namespacecimg__library__suffixed_1_1cimg.html#a6c578f866de2be9be7e385d693c758c8" target="_top" xlink:title="cimg_library_suffixed\l::cimg::_exception_mode">
<polygon fill="#ffffff" stroke="#000000" points="627,-164.5 627,-194.5 753,-194.5 753,-164.5 627,-164.5"/>
<text text-anchor="start" x="635" y="-182.5" font-family="Helvetica,sans-Serif" font-size="10.00" fill="#000000">cimg_library_suffixed</text>
<text text-anchor="middle" x="690" y="-171.5" font-family="Helvetica,sans-Serif" font-size="10.00" fill="#000000">::cimg::_exception_mode</text>
</a>
</g>
</g>
<!-- Node1889&#45;&gt;Node1890 -->
<g id="edge5" class="edge">
<title>Node1889&#45;&gt;Node1890</title>
<path fill="none" stroke="#191970" d="M591.2551,-186.31C599.5168,-185.7402 608.0672,-185.1505 616.523,-184.5674"/>
<polygon fill="#191970" stroke="#191970" points="617.029,-188.0409 626.7645,-183.8611 616.5474,-181.0575 617.029,-188.0409"/>
</g>
<!-- Node1890&#45;&gt;Node1888 -->
<g id="edge15" class="edge">
<title>Node1890&#45;&gt;Node1888</title>
<path fill="none" stroke="#191970" d="M626.9309,-170.87C615.0058,-169.337 602.6273,-167.8127 591,-166.5 541.9058,-160.9573 486.2805,-155.7391 444.4012,-152.0234"/>
<polygon fill="#191970" stroke="#191970" points="444.6026,-148.5277 434.3338,-151.1356 443.9876,-155.5006 444.6026,-148.5277"/>
</g>
<!-- Node1891 -->
<g id="node7" class="node">
<title>Node1891</title>
<g id="a_node7"><a xlink:href="namespacecimg__library__suffixed_1_1cimg.html#aab8db7528c32a8fd3a3dc471e662782e" target="_top" xlink:title="cimg_library_suffixed\l::cimg::_stderr">
<polygon fill="#ffffff" stroke="#000000" points="789,-214.5 789,-244.5 898,-244.5 898,-214.5 789,-214.5"/>
<text text-anchor="start" x="797" y="-232.5" font-family="Helvetica,sans-Serif" font-size="10.00" fill="#000000">cimg_library_suffixed</text>
<text text-anchor="middle" x="843.5" y="-221.5" font-family="Helvetica,sans-Serif" font-size="10.00" fill="#000000">::cimg::_stderr</text>
</a>
</g>
</g>
<!-- Node1890&#45;&gt;Node1891 -->
<g id="edge6" class="edge">
<title>Node1890&#45;&gt;Node1891</title>
<path fill="none" stroke="#191970" d="M736.0551,-194.5016C752.2219,-199.7677 770.5642,-205.7424 787.4594,-211.2457"/>
<polygon fill="#191970" stroke="#191970" points="786.62,-214.6533 797.2124,-214.4226 788.7881,-207.9975 786.62,-214.6533"/>
</g>
<!-- Node1890&#45;&gt;Node1893 -->
<g id="edge19" class="edge">
<title>Node1890&#45;&gt;Node1893</title>
<path fill="none" stroke="#191970" d="M753.0717,-186.6107C836.8352,-196.0541 984.0329,-212.6491 1068.6723,-222.1913"/>
<polygon fill="#191970" stroke="#191970" points="1068.3464,-225.6767 1078.6756,-223.3191 1069.1306,-218.7208 1068.3464,-225.6767"/>
</g>
<!-- Node1890&#45;&gt;Node1898 -->
<g id="edge16" class="edge">
<title>Node1890&#45;&gt;Node1898</title>
<path fill="none" stroke="#191970" d="M750.6673,-164.4814C759.8984,-162.1962 769.4546,-159.8305 778.7686,-157.5247"/>
<polygon fill="#191970" stroke="#191970" points="779.8875,-160.8535 788.7534,-155.0529 778.2053,-154.0586 779.8875,-160.8535"/>
</g>
<!-- Node1891&#45;&gt;Node1889 -->
<g id="edge7" class="edge">
<title>Node1891&#45;&gt;Node1889</title>
<path fill="none" stroke="#191970" d="M788.7242,-223.6206C744.9231,-218.8117 681.9663,-211.6592 627,-204.5 618.6747,-203.4156 609.9534,-202.226 601.302,-201.0126"/>
<polygon fill="#191970" stroke="#191970" points="601.5982,-197.5197 591.2061,-199.5821 600.6161,-204.4504 601.5982,-197.5197"/>
</g>
<!-- Node1891&#45;&gt;Node1892 -->
<g id="edge8" class="edge">
<title>Node1891&#45;&gt;Node1892</title>
<path fill="none" stroke="#191970" d="M868.4264,-214.3723C892.2878,-199.8908 928.4587,-177.9388 954.8648,-161.9131"/>
<polygon fill="#191970" stroke="#191970" points="956.6807,-164.9052 963.4136,-156.7248 953.0489,-158.921 956.6807,-164.9052"/>
</g>
<!-- Node1892&#45;&gt;Node1893 -->
<g id="edge9" class="edge">
<title>Node1892&#45;&gt;Node1893</title>
<path fill="none" stroke="#191970" d="M1016.7088,-156.5612C1025.2244,-161.2327 1034.5527,-166.4758 1043,-171.5 1062.941,-183.3604 1084.8586,-197.3807 1102.1296,-208.6654"/>
<polygon fill="#191970" stroke="#191970" points="1100.4217,-211.731 1110.7025,-214.2914 1104.2623,-205.8786 1100.4217,-211.731"/>
</g>
<!-- Node1894 -->
<g id="node10" class="node">
<title>Node1894</title>
<g id="a_node10"><a xlink:href="namespacecimg__library__suffixed_1_1cimg.html#aa0e1bc96ae6e235dc5b67b8b0a466166" target="_top" xlink:title="cimg_library_suffixed\l::cimg::Mutex_attr">
<polygon fill="#ffffff" stroke="#000000" points="1393,-261.5 1393,-291.5 1502,-291.5 1502,-261.5 1393,-261.5"/>
<text text-anchor="start" x="1401" y="-279.5" font-family="Helvetica,sans-Serif" font-size="10.00" fill="#000000">cimg_library_suffixed</text>
<text text-anchor="middle" x="1447.5" y="-268.5" font-family="Helvetica,sans-Serif" font-size="10.00" fill="#000000">::cimg::Mutex_attr</text>
</a>
</g>
</g>
<!-- Node1893&#45;&gt;Node1894 -->
<g id="edge10" class="edge">
<title>Node1893&#45;&gt;Node1894</title>
<path fill="none" stroke="#191970" d="M1153.7886,-244.66C1171.338,-256.766 1197.9275,-272.7766 1224,-279.5 1276.2267,-292.9679 1337.6233,-290.9274 1382.8381,-286.2484"/>
<polygon fill="#191970" stroke="#191970" points="1383.253,-289.724 1392.8082,-285.1471 1382.4844,-282.7663 1383.253,-289.724"/>
</g>
<!-- Node1895 -->
<g id="node11" class="node">
<title>Node1895</title>
<g id="a_node11"><a xlink:href="structcimg__library__suffixed_1_1cimg_1_1_mutex__info.html#afac3fa5f107ad4795fb867050f616555" target="_top" xlink:title="cimg_library_suffixed\l::cimg::Mutex_info::unlock">
<polygon fill="#ffffff" stroke="#000000" points="1224.5,-190.5 1224.5,-220.5 1356.5,-220.5 1356.5,-190.5 1224.5,-190.5"/>
<text text-anchor="start" x="1232.5" y="-208.5" font-family="Helvetica,sans-Serif" font-size="10.00" fill="#000000">cimg_library_suffixed</text>
<text text-anchor="middle" x="1290.5" y="-197.5" font-family="Helvetica,sans-Serif" font-size="10.00" fill="#000000">::cimg::Mutex_info::unlock</text>
</a>
</g>
</g>
<!-- Node1893&#45;&gt;Node1895 -->
<g id="edge11" class="edge">
<title>Node1893&#45;&gt;Node1895</title>
<path fill="none" stroke="#191970" d="M1188.411,-221.106C1196.7369,-219.8332 1205.453,-218.5008 1214.1344,-217.1737"/>
<polygon fill="#191970" stroke="#191970" points="1214.9278,-220.5932 1224.2841,-215.6222 1213.87,-213.6736 1214.9278,-220.5932"/>
</g>
<!-- Node1896 -->
<g id="node12" class="node">
<title>Node1896</title>
<g id="a_node12"><a xlink:href="structcimg__library__suffixed_1_1cimg_1_1_mutex__info.html#a6cc8e26847a1aa649febed03d70182e7" target="_top" xlink:title="cimg_library_suffixed\l::cimg::Mutex_info::lock">
<polygon fill="#ffffff" stroke="#000000" points="1229.5,-141.5 1229.5,-171.5 1351.5,-171.5 1351.5,-141.5 1229.5,-141.5"/>
<text text-anchor="start" x="1237.5" y="-159.5" font-family="Helvetica,sans-Serif" font-size="10.00" fill="#000000">cimg_library_suffixed</text>
<text text-anchor="middle" x="1290.5" y="-148.5" font-family="Helvetica,sans-Serif" font-size="10.00" fill="#000000">::cimg::Mutex_info::lock</text>
</a>
</g>
</g>
<!-- Node1893&#45;&gt;Node1896 -->
<g id="edge12" class="edge">
<title>Node1893&#45;&gt;Node1896</title>
<path fill="none" stroke="#191970" d="M1159.9788,-214.3011C1177.7871,-204.3682 1201.9505,-191.4428 1224,-181.5 1228.6591,-179.3991 1233.5523,-177.3232 1238.4816,-175.3195"/>
<polygon fill="#191970" stroke="#191970" points="1239.9456,-178.5042 1247.9536,-171.5672 1237.3675,-171.9963 1239.9456,-178.5042"/>
</g>
<!-- Node1897 -->
<g id="node13" class="node">
<title>Node1897</title>
<g id="a_node13"><a xlink:href="structcimg__library__suffixed_1_1cimg_1_1_mutex__info.html#a9bf4ed1e1dfe6f28fa6250cd04f3c900" target="_top" xlink:title="cimg_library_suffixed\l::cimg::Mutex_info::trylock">
<polygon fill="#ffffff" stroke="#000000" points="1224,-239.5 1224,-269.5 1357,-269.5 1357,-239.5 1224,-239.5"/>
<text text-anchor="start" x="1232" y="-257.5" font-family="Helvetica,sans-Serif" font-size="10.00" fill="#000000">cimg_library_suffixed</text>
<text text-anchor="middle" x="1290.5" y="-246.5" font-family="Helvetica,sans-Serif" font-size="10.00" fill="#000000">::cimg::Mutex_info::trylock</text>
</a>
</g>
</g>
<!-- Node1893&#45;&gt;Node1897 -->
<g id="edge13" class="edge">
<title>Node1893&#45;&gt;Node1897</title>
<path fill="none" stroke="#191970" d="M1188.411,-238.2438C1196.6098,-239.5493 1205.187,-240.9151 1213.7367,-242.2766"/>
<polygon fill="#191970" stroke="#191970" points="1213.3105,-245.7527 1223.7365,-243.8689 1214.4113,-238.8398 1213.3105,-245.7527"/>
</g>
<!-- Node1897&#45;&gt;Node1894 -->
<g id="edge14" class="edge">
<title>Node1897&#45;&gt;Node1894</title>
<path fill="none" stroke="#191970" d="M1357.0821,-263.83C1365.5193,-265.0123 1374.1445,-266.2209 1382.5556,-267.3995"/>
<polygon fill="#191970" stroke="#191970" points="1382.293,-270.8968 1392.682,-268.8185 1383.2645,-263.9646 1382.293,-270.8968"/>
</g>
<!-- Node1898&#45;&gt;Node1889 -->
<g id="edge17" class="edge">
<title>Node1898&#45;&gt;Node1889</title>
<path fill="none" stroke="#191970" d="M788.6502,-140.7858C744.5359,-141.2278 681.1944,-144.1608 627,-155.5 609.3765,-159.1874 590.6333,-165.4156 574.3992,-171.6048"/>
<polygon fill="#191970" stroke="#191970" points="572.6788,-168.52 564.6478,-175.4304 575.2353,-175.0365 572.6788,-168.52"/>
</g>
<!-- Node1898&#45;&gt;Node1892 -->
<g id="edge18" class="edge">
<title>Node1898&#45;&gt;Node1892</title>
<path fill="none" stroke="#191970" d="M898.3183,-141.5C906.5286,-141.5 915.0611,-141.5 923.4586,-141.5"/>
<polygon fill="#191970" stroke="#191970" points="923.6042,-145.0001 933.6042,-141.5 923.6042,-138.0001 923.6042,-145.0001"/>
</g>
<!-- Node1899&#45;&gt;Node1889 -->
<g id="edge23" class="edge">
<title>Node1899&#45;&gt;Node1889</title>
<path fill="none" stroke="#191970" d="M434.0145,-193.6949C442.3935,-193.4174 451.1471,-193.1276 459.8158,-192.8405"/>
<polygon fill="#191970" stroke="#191970" points="460.0468,-196.3349 469.9254,-192.5058 459.815,-189.3387 460.0468,-196.3349"/>
</g>
<!-- Node1900 -->
<g id="node16" class="node">
<title>Node1900</title>
<g id="a_node16"><a xlink:href="namespacecimg__library__suffixed_1_1cimg.html#ada686776cc71803df391eea79cd1b3e5" target="_top" xlink:title="Get/set default output stream for the &#160;library messages. ">
<polygon fill="#ffffff" stroke="#000000" points="635.5,-252.5 635.5,-282.5 744.5,-282.5 744.5,-252.5 635.5,-252.5"/>
<text text-anchor="start" x="643.5" y="-270.5" font-family="Helvetica,sans-Serif" font-size="10.00" fill="#000000">cimg_library_suffixed</text>
<text text-anchor="middle" x="690" y="-259.5" font-family="Helvetica,sans-Serif" font-size="10.00" fill="#000000">::cimg::output</text>
</a>
</g>
</g>
<!-- Node1899&#45;&gt;Node1900 -->
<g id="edge24" class="edge">
<title>Node1899&#45;&gt;Node1900</title>
<path fill="none" stroke="#191970" d="M434.2964,-208.2064C487.7557,-220.6028 569.0638,-239.4568 625.5888,-252.5641"/>
<polygon fill="#191970" stroke="#191970" points="624.9587,-256.0108 635.4909,-254.8602 626.54,-249.1917 624.9587,-256.0108"/>
</g>
<!-- Node1900&#45;&gt;Node1891 -->
<g id="edge26" class="edge">
<title>Node1900&#45;&gt;Node1891</title>
<path fill="none" stroke="#191970" d="M744.5506,-253.9956C755.681,-251.2402 767.4929,-248.3161 778.9341,-245.4837"/>
<polygon fill="#191970" stroke="#191970" points="780.0007,-248.8254 788.8666,-243.0249 778.3186,-242.0305 780.0007,-248.8254"/>
</g>
<!-- Node1900&#45;&gt;Node1893 -->
<g id="edge25" class="edge">
<title>Node1900&#45;&gt;Node1893</title>
<path fill="none" stroke="#191970" d="M744.7896,-264.7252C786.7598,-262.4423 846.0826,-258.876 898,-254.5 955.8263,-249.6259 1021.4753,-242.5269 1068.7431,-237.1381"/>
<polygon fill="#191970" stroke="#191970" points="1069.3042,-240.5968 1078.8407,-235.981 1068.5072,-233.6423 1069.3042,-240.5968"/>
</g>
<!-- Node1902 -->
<g id="node18" class="node">
<title>Node1902</title>
<g id="a_node18"><a xlink:href="namespacecimg__library__suffixed_1_1cimg.html#a9d486931d7eb759c7268b09a62cd3d28" target="_top" xlink:title="cimg_library_suffixed\l::cimg::win_fopen">
<polygon fill="#ffffff" stroke="#000000" points="325,-.5 325,-30.5 434,-30.5 434,-.5 325,-.5"/>
<text text-anchor="start" x="333" y="-18.5" font-family="Helvetica,sans-Serif" font-size="10.00" fill="#000000">cimg_library_suffixed</text>
<text text-anchor="middle" x="379.5" y="-7.5" font-family="Helvetica,sans-Serif" font-size="10.00" fill="#000000">::cimg::win_fopen</text>
</a>
</g>
</g>
<!-- Node1901&#45;&gt;Node1902 -->
<g id="edge29" class="edge">
<title>Node1901&#45;&gt;Node1902</title>
<path fill="none" stroke="#191970" d="M260.1293,-71.4427C282.9268,-60.7587 313.7207,-46.3273 338.3214,-34.7982"/>
<polygon fill="#191970" stroke="#191970" points="339.8474,-37.9484 347.4171,-30.5356 336.8768,-31.61 339.8474,-37.9484"/>
</g>
</g>
</svg>
        <g id="navigator" transform="translate(0 0)" fill="#404254">
                <rect fill="#f2f5e9" fill-opacity="0.5" stroke="#606060" stroke-width=".5" x="0" y="0" width="60" height="60"/>
                <use id="zoomplus" xlink:href="#zoomPlus" x="17" y="9" onmousedown="handleZoom(evt,'in')"/>
                <use id="zoomminus" xlink:href="#zoomMin" x="42" y="9" onmousedown="handleZoom(evt,'out')"/>
                <use id="reset" xlink:href="#resetDef" x="30" y="36" onmousedown="handleReset()"/>
                <g id="arrowUp" xlink:href="#dirArrow" transform="translate(30 24)" onmousedown="handlePan(0,-1)">
                  <use xlink:href="#rim" fill="#404040">
                        <set attributeName="fill" to="#808080" begin="arrowUp.mouseover" end="arrowUp.mouseout"/>
                  </use>
                  <path fill="none" stroke="white" stroke-width="1.5" d="M0,-3.0v7 M-2.5,-0.5L0,-3.0L2.5,-0.5"/>
                </g>
                <g id="arrowRight" xlink:href="#dirArrow" transform="rotate(90) translate(36 -43)" onmousedown="handlePan(1,0)">
                  <use xlink:href="#rim" fill="#404040">
                        <set attributeName="fill" to="#808080" begin="arrowRight.mouseover" end="arrowRight.mouseout"/>
                  </use>
                  <path fill="none" stroke="white" stroke-width="1.5" d="M0,-3.0v7 M-2.5,-0.5L0,-3.0L2.5,-0.5"/>
                </g>
                <g id="arrowDown" xlink:href="#dirArrow" transform="rotate(180) translate(-30 -48)" onmousedown="handlePan(0,1)">
                  <use xlink:href="#rim" fill="#404040">
                        <set attributeName="fill" to="#808080" begin="arrowDown.mouseover" end="arrowDown.mouseout"/>
                  </use>
                  <path fill="none" stroke="white" stroke-width="1.5" d="M0,-3.0v7 M-2.5,-0.5L0,-3.0L2.5,-0.5"/>
                </g>
                <g id="arrowLeft" xlink:href="#dirArrow" transform="rotate(270) translate(-36 17)" onmousedown="handlePan(-1,0)">
                  <use xlink:href="#rim" fill="#404040">
                        <set attributeName="fill" to="#808080" begin="arrowLeft.mouseover" end="arrowLeft.mouseout"/>
                  </use>
                  <path fill="none" stroke="white" stroke-width="1.5" d="M0,-3.0v7 M-2.5,-0.5L0,-3.0L2.5,-0.5"/>
                </g>
        </g>
        <svg viewBox="0 0 15 15" width="100%" height="30px" preserveAspectRatio="xMaxYMin meet">
         <g id="arrow_out" transform="scale(0.3 0.3)">
          <a xlink:href="namespacecimg__library__suffixed_1_1cimg_a96cabeea0a54a10aeee97ead7b672f0f_cgraph_org.svg" target="_base">
           <rect id="button" ry="5" rx="5" y="6" x="6" height="38" width="38"
                fill="#f2f5e9" fill-opacity="0.5" stroke="#606060" stroke-width="1.0"/>
           <path id="arrow"
             d="M 11.500037,31.436501 C 11.940474,20.09759 22.043105,11.32322 32.158766,21.979434 L 37.068811,17.246167 C 37.068811,17.246167 37.088388,32 37.088388,32 L 22.160133,31.978069 C 22.160133,31.978069 26.997745,27.140456 26.997745,27.140456 C 18.528582,18.264221 13.291696,25.230495 11.500037,31.436501 z"
             style="fill:#404040;"/>
          </a>
         </g>
        </svg>
</svg>
