<?xml version="1.0" encoding="UTF-8" standalone="no"?>
<!DOCTYPE svg PUBLIC "-//W3C//DTD SVG 1.1//EN"
 "http://www.w3.org/Graphics/SVG/1.1/DTD/svg11.dtd">
<!-- Generated by graphviz version 2.40.1 (20161225.0304)
 -->
<!-- Title: cimg_library_suffixed::cimg::ror Pages: 1 -->
<svg width="296pt" height="258pt"
 viewBox="0.00 0.00 296.00 258.00" xmlns="http://www.w3.org/2000/svg" xmlns:xlink="http://www.w3.org/1999/xlink">
<g id="graph0" class="graph" transform="scale(1 1) rotate(0) translate(4 254)">
<title>cimg_library_suffixed::cimg::ror</title>
<polygon fill="#ffffff" stroke="transparent" points="-4,4 -4,-254 292,-254 292,4 -4,4"/>
<!-- Node3405 -->
<g id="node1" class="node">
<title>Node3405</title>
<polygon fill="#bfbfbf" stroke="#000000" points="0,-104.5 0,-134.5 109,-134.5 109,-104.5 0,-104.5"/>
<text text-anchor="start" x="8" y="-122.5" font-family="Helvetica,sans-Serif" font-size="10.00" fill="#000000">cimg_library_suffixed</text>
<text text-anchor="middle" x="54.5" y="-111.5" font-family="Helvetica,sans-Serif" font-size="10.00" fill="#000000">::cimg::ror</text>
</g>
<!-- Node3406 -->
<g id="node2" class="node">
<title>Node3406</title>
<g id="a_node2"><a xlink:href="structcimg__library__suffixed_1_1_c_img.html#aa54db2f4c7251f0b2ec7e27c55f035ad" target="_top" xlink:title="cimg_library_suffixed\l::CImg\&lt; charT \&gt;::_load_bmp">
<polygon fill="#ffffff" stroke="#000000" points="145,-219.5 145,-249.5 288,-249.5 288,-219.5 145,-219.5"/>
<text text-anchor="start" x="153" y="-237.5" font-family="Helvetica,sans-Serif" font-size="10.00" fill="#000000">cimg_library_suffixed</text>
<text text-anchor="middle" x="216.5" y="-226.5" font-family="Helvetica,sans-Serif" font-size="10.00" fill="#000000">::CImg&lt; charT &gt;::_load_bmp</text>
</a>
</g>
</g>
<!-- Node3405&#45;&gt;Node3406 -->
<g id="edge1" class="edge">
<title>Node3405&#45;&gt;Node3406</title>
<path fill="none" stroke="#191970" d="M72.4414,-142.427C89.2705,-162.5701 116.1149,-191.4108 145,-209.5 151.0183,-213.269 157.679,-216.5602 164.4433,-219.4077"/>
<polygon fill="#191970" stroke="#191970" points="75.1178,-140.1708 66.0767,-134.6473 69.6999,-144.6034 75.1178,-140.1708"/>
</g>
<!-- Node3407 -->
<g id="node3" class="node">
<title>Node3407</title>
<g id="a_node3"><a xlink:href="structcimg__library__suffixed_1_1_c_img_1_1__cimg__math__parser.html#a318c44c5d1f4f0114355f37ace87a4ae" target="_top" xlink:title="cimg_library_suffixed\l::CImg::_cimg_math_parser\l::compile">
<polygon fill="#ffffff" stroke="#000000" points="147.5,-159 147.5,-200 285.5,-200 285.5,-159 147.5,-159"/>
<text text-anchor="start" x="155.5" y="-188" font-family="Helvetica,sans-Serif" font-size="10.00" fill="#000000">cimg_library_suffixed</text>
<text text-anchor="start" x="155.5" y="-177" font-family="Helvetica,sans-Serif" font-size="10.00" fill="#000000">::CImg::_cimg_math_parser</text>
<text text-anchor="middle" x="216.5" y="-166" font-family="Helvetica,sans-Serif" font-size="10.00" fill="#000000">::compile</text>
</a>
</g>
</g>
<!-- Node3405&#45;&gt;Node3407 -->
<g id="edge2" class="edge">
<title>Node3405&#45;&gt;Node3407</title>
<path fill="none" stroke="#191970" d="M104.9832,-138.1975C122.7423,-144.7749 142.7938,-152.2014 160.9471,-158.9249"/>
<polygon fill="#191970" stroke="#191970" points="105.9726,-134.8316 95.3794,-134.6405 103.5413,-141.3959 105.9726,-134.8316"/>
</g>
<!-- Node3408 -->
<g id="node4" class="node">
<title>Node3408</title>
<g id="a_node4"><a xlink:href="structcimg__library__suffixed_1_1_c_img_1_1__cimg__math__parser.html#a511b281c46274f713e3eb4a3256459ed" target="_top" xlink:title="cimg_library_suffixed\l::CImg::_cimg_math_parser\l::mp_ror">
<polygon fill="#ffffff" stroke="#000000" points="147.5,-99 147.5,-140 285.5,-140 285.5,-99 147.5,-99"/>
<text text-anchor="start" x="155.5" y="-128" font-family="Helvetica,sans-Serif" font-size="10.00" fill="#000000">cimg_library_suffixed</text>
<text text-anchor="start" x="155.5" y="-117" font-family="Helvetica,sans-Serif" font-size="10.00" fill="#000000">::CImg::_cimg_math_parser</text>
<text text-anchor="middle" x="216.5" y="-106" font-family="Helvetica,sans-Serif" font-size="10.00" fill="#000000">::mp_ror</text>
</a>
</g>
</g>
<!-- Node3405&#45;&gt;Node3408 -->
<g id="edge3" class="edge">
<title>Node3405&#45;&gt;Node3408</title>
<path fill="none" stroke="#191970" d="M119.5334,-119.5C128.6865,-119.5 138.1228,-119.5 147.3496,-119.5"/>
<polygon fill="#191970" stroke="#191970" points="119.3458,-116.0001 109.3458,-119.5 119.3458,-123.0001 119.3458,-116.0001"/>
</g>
<!-- Node3409 -->
<g id="node5" class="node">
<title>Node3409</title>
<g id="a_node5"><a xlink:href="namespacecimg__library__suffixed_1_1cimg.html#a0cc69aa64bca2114676aebf2f689e5e8" target="_top" xlink:title="cimg_library_suffixed\l::cimg::ror">
<polygon fill="#ffffff" stroke="#000000" points="162,-49.5 162,-79.5 271,-79.5 271,-49.5 162,-49.5"/>
<text text-anchor="start" x="170" y="-67.5" font-family="Helvetica,sans-Serif" font-size="10.00" fill="#000000">cimg_library_suffixed</text>
<text text-anchor="middle" x="216.5" y="-56.5" font-family="Helvetica,sans-Serif" font-size="10.00" fill="#000000">::cimg::ror</text>
</a>
</g>
</g>
<!-- Node3405&#45;&gt;Node3409 -->
<g id="edge4" class="edge">
<title>Node3405&#45;&gt;Node3409</title>
<path fill="none" stroke="#191970" d="M108.3951,-101.2023C129.1372,-94.1602 152.5597,-86.2081 172.2863,-79.5108"/>
<polygon fill="#191970" stroke="#191970" points="107.1112,-97.9419 98.7672,-104.471 109.3616,-104.5703 107.1112,-97.9419"/>
</g>
<!-- Node3410 -->
<g id="node6" class="node">
<title>Node3410</title>
<g id="a_node6"><a xlink:href="structcimg__library__suffixed_1_1_c_img.html#af98d2145c7cab1a46c6e5e1599fa2939" target="_top" xlink:title="Compute the bitwise right rotation of each pixel value. ">
<polygon fill="#ffffff" stroke="#000000" points="162,-.5 162,-30.5 271,-30.5 271,-.5 162,-.5"/>
<text text-anchor="start" x="170" y="-18.5" font-family="Helvetica,sans-Serif" font-size="10.00" fill="#000000">cimg_library_suffixed</text>
<text text-anchor="middle" x="216.5" y="-7.5" font-family="Helvetica,sans-Serif" font-size="10.00" fill="#000000">::CImg&lt; charT &gt;::ror</text>
</a>
</g>
</g>
<!-- Node3405&#45;&gt;Node3410 -->
<g id="edge5" class="edge">
<title>Node3405&#45;&gt;Node3410</title>
<path fill="none" stroke="#191970" d="M75.4942,-96.9579C92.7517,-79.5353 118.5819,-55.8729 145,-40.5 151.3649,-36.7962 158.3665,-33.5166 165.4217,-30.6527"/>
<polygon fill="#191970" stroke="#191970" points="72.6533,-94.8595 68.1971,-104.4716 77.6749,-99.7363 72.6533,-94.8595"/>
</g>
</g>
</svg>
