<?xml version="1.0" encoding="UTF-8" standalone="no"?>
<!DOCTYPE svg PUBLIC "-//W3C//DTD SVG 1.1//EN"
 "http://www.w3.org/Graphics/SVG/1.1/DTD/svg11.dtd">
<!-- Generated by graphviz version 2.40.1 (20161225.0304)
 -->
<!-- Title: cimg_library_suffixed::cimg::curl_path Pages: 1 -->
<!--zoomable 1390 -->
<svg id="main" version="1.1" xmlns="http://www.w3.org/2000/svg" xmlns:xlink="http://www.w3.org/1999/xlink" xml:space="preserve" onload="init(evt)">
<style type="text/css"><![CDATA[
.edge:hover path { stroke: red; }
.edge:hover polygon { stroke: red; fill: red; }
]]></style>
<script type="text/javascript"><![CDATA[
var edges = document.getElementsByTagName('g');
if (edges && edges.length) {
  for (var i=0;i<edges.length;i++) {
    if (edges[i].id.substr(0,4)=='edge') {
      edges[i].setAttribute('class','edge');
    }
  }
}
]]></script>
        <defs>
                <circle id="rim" cx="0" cy="0" r="7"/>
                <circle id="rim2" cx="0" cy="0" r="3.5"/>
                <g id="zoomPlus">
                        <use xlink:href="#rim" fill="#404040">
                                <set attributeName="fill" to="#808080" begin="zoomplus.mouseover" end="zoomplus.mouseout"/>
                        </use>
                        <path d="M-4,0h8M0,-4v8" fill="none" stroke="white" stroke-width="1.5" pointer-events="none"/>
                </g>
                <g id="zoomMin">
                        <use xlink:href="#rim" fill="#404040">
                                <set attributeName="fill" to="#808080" begin="zoomminus.mouseover" end="zoomminus.mouseout"/>
                        </use>
                        <path d="M-4,0h8" fill="none" stroke="white" stroke-width="1.5" pointer-events="none"/>
                </g>
                <g id="dirArrow">
                        <path fill="none" stroke="white" stroke-width="1.5" d="M0,-3.0v7 M-2.5,-0.5L0,-3.0L2.5,-0.5"/>
                </g>
               <g id="resetDef">
                       <use xlink:href="#rim2" fill="#404040">
                               <set attributeName="fill" to="#808080" begin="reset.mouseover" end="reset.mouseout"/>
                       </use>
               </g>
        </defs>

<script type="text/javascript">
var viewWidth = 611;
var viewHeight = 1390;
var sectionId = 'dynsection-23';
</script>
<script xlink:href="svgpan.js"/>
<svg id="graph" class="graph">
<g id="viewport">
<title>cimg_library_suffixed::cimg::curl_path</title>
<polygon fill="#ffffff" stroke="transparent" points="-4,4 -4,-1385.5 607,-1385.5 607,4 -4,4"/>
<!-- Node784 -->
<g id="node1" class="node">
<title>Node784</title>
<polygon fill="#bfbfbf" stroke="#000000" points="0,-692 0,-722 109,-722 109,-692 0,-692"/>
<text text-anchor="start" x="8" y="-710" font-family="Helvetica,sans-Serif" font-size="10.00" fill="#000000">cimg_library_suffixed</text>
<text text-anchor="middle" x="54.5" y="-699" font-family="Helvetica,sans-Serif" font-size="10.00" fill="#000000">::cimg::curl_path</text>
</g>
<!-- Node785 -->
<g id="node2" class="node">
<title>Node785</title>
<g id="a_node2"><a xlink:href="namespacecimg__library__suffixed_1_1cimg.html#aac739bf544269324a04504ebe92b93e9" target="_top" xlink:title="Get current local time (single&#45;attribute version). ">
<polygon fill="#ffffff" stroke="#000000" points="145,-717 145,-747 254,-747 254,-717 145,-717"/>
<text text-anchor="start" x="153" y="-735" font-family="Helvetica,sans-Serif" font-size="10.00" fill="#000000">cimg_library_suffixed</text>
<text text-anchor="middle" x="199.5" y="-724" font-family="Helvetica,sans-Serif" font-size="10.00" fill="#000000">::cimg::date</text>
</a>
</g>
</g>
<!-- Node784&#45;&gt;Node785 -->
<g id="edge1" class="edge">
<title>Node784&#45;&gt;Node785</title>
<path fill="none" stroke="#191970" d="M119.1853,-718.1526C127.6712,-719.6157 136.3016,-721.1037 144.6042,-722.5352"/>
<polygon fill="#191970" stroke="#191970" points="119.7676,-714.7015 109.3183,-716.4514 118.5782,-721.5997 119.7676,-714.7015"/>
</g>
<!-- Node786 -->
<g id="node3" class="node">
<title>Node786</title>
<g id="a_node3"><a xlink:href="namespacecimg__library__suffixed_1_1cimg.html#a90c05fe6fc049cba75f3a12807e97158" target="_top" xlink:title="Load file from network as a local temporary file. ">
<polygon fill="#ffffff" stroke="#000000" points="145,-668 145,-698 254,-698 254,-668 145,-668"/>
<text text-anchor="start" x="153" y="-686" font-family="Helvetica,sans-Serif" font-size="10.00" fill="#000000">cimg_library_suffixed</text>
<text text-anchor="middle" x="199.5" y="-675" font-family="Helvetica,sans-Serif" font-size="10.00" fill="#000000">::cimg::load_network</text>
</a>
</g>
</g>
<!-- Node784&#45;&gt;Node786 -->
<g id="edge2" class="edge">
<title>Node784&#45;&gt;Node786</title>
<path fill="none" stroke="#191970" d="M119.1853,-696.2935C127.6712,-694.8889 136.3016,-693.4604 144.6042,-692.0862"/>
<polygon fill="#191970" stroke="#191970" points="118.6125,-692.8406 109.3183,-697.9266 119.7556,-699.7466 118.6125,-692.8406"/>
</g>
<!-- Node787 -->
<g id="node4" class="node">
<title>Node787</title>
<g id="a_node4"><a xlink:href="namespacecimg__library__suffixed_1_1cimg.html#a0f3577978081461118330fc3ecd4b9db" target="_top" xlink:title="Create an empty file. ">
<polygon fill="#ffffff" stroke="#000000" points="300,-717 300,-747 409,-747 409,-717 300,-717"/>
<text text-anchor="start" x="308" y="-735" font-family="Helvetica,sans-Serif" font-size="10.00" fill="#000000">cimg_library_suffixed</text>
<text text-anchor="middle" x="354.5" y="-724" font-family="Helvetica,sans-Serif" font-size="10.00" fill="#000000">::cimg::fempty</text>
</a>
</g>
</g>
<!-- Node786&#45;&gt;Node787 -->
<g id="edge3" class="edge">
<title>Node786&#45;&gt;Node787</title>
<path fill="none" stroke="#191970" d="M257.2583,-701.2591C273.6067,-706.4273 291.2107,-711.9924 306.8879,-716.9484"/>
<polygon fill="#191970" stroke="#191970" points="257.8598,-697.7785 247.2699,-698.1014 255.7497,-704.453 257.8598,-697.7785"/>
</g>
<!-- Node814 -->
<g id="node31" class="node">
<title>Node814</title>
<g id="a_node31"><a xlink:href="structcimg__library__suffixed_1_1_c_img.html#ae8353b28bfbc5c4421c7adfbb98fe32f" target="_top" xlink:title="Load image from a file. ">
<polygon fill="#ffffff" stroke="#000000" points="298,-668 298,-698 411,-698 411,-668 298,-668"/>
<text text-anchor="start" x="306" y="-686" font-family="Helvetica,sans-Serif" font-size="10.00" fill="#000000">cimg_library_suffixed</text>
<text text-anchor="middle" x="354.5" y="-675" font-family="Helvetica,sans-Serif" font-size="10.00" fill="#000000">::CImg&lt; charT &gt;::load</text>
</a>
</g>
</g>
<!-- Node786&#45;&gt;Node814 -->
<g id="edge30" class="edge">
<title>Node786&#45;&gt;Node814</title>
<path fill="none" stroke="#191970" d="M264.2941,-683C275.4844,-683 287.0381,-683 297.9873,-683"/>
<polygon fill="#191970" stroke="#191970" points="264.1472,-679.5001 254.1472,-683 264.1472,-686.5001 264.1472,-679.5001"/>
</g>
<!-- Node815 -->
<g id="node32" class="node">
<title>Node815</title>
<g id="a_node32"><a xlink:href="structcimg__library__suffixed_1_1_c_img_list.html#a63bd67d8dd2301933df7decb4612916e" target="_top" xlink:title="Load a list from a file. ">
<polygon fill="#ffffff" stroke="#000000" points="290,-619 290,-649 419,-649 419,-619 290,-619"/>
<text text-anchor="start" x="298" y="-637" font-family="Helvetica,sans-Serif" font-size="10.00" fill="#000000">cimg_library_suffixed</text>
<text text-anchor="middle" x="354.5" y="-626" font-family="Helvetica,sans-Serif" font-size="10.00" fill="#000000">::CImgList&lt; charT &gt;::load</text>
</a>
</g>
</g>
<!-- Node786&#45;&gt;Node815 -->
<g id="edge31" class="edge">
<title>Node786&#45;&gt;Node815</title>
<path fill="none" stroke="#191970" d="M257.2583,-664.7409C273.6067,-659.5727 291.2107,-654.0076 306.8879,-649.0516"/>
<polygon fill="#191970" stroke="#191970" points="255.7497,-661.547 247.2699,-667.8986 257.8598,-668.2215 255.7497,-661.547"/>
</g>
<!-- Node788 -->
<g id="node5" class="node">
<title>Node788</title>
<g id="a_node5"><a xlink:href="structcimg__library__suffixed_1_1_c_img.html#a78929d9b9d2af829f3e3fc576e99b61d" target="_top" xlink:title="cimg_library_suffixed\l::CImg\&lt; charT \&gt;::_save_dlm">
<polygon fill="#ffffff" stroke="#000000" points="457.5,-1351 457.5,-1381 600.5,-1381 600.5,-1351 457.5,-1351"/>
<text text-anchor="start" x="465.5" y="-1369" font-family="Helvetica,sans-Serif" font-size="10.00" fill="#000000">cimg_library_suffixed</text>
<text text-anchor="middle" x="529" y="-1358" font-family="Helvetica,sans-Serif" font-size="10.00" fill="#000000">::CImg&lt; charT &gt;::_save_dlm</text>
</a>
</g>
</g>
<!-- Node787&#45;&gt;Node788 -->
<g id="edge4" class="edge">
<title>Node787&#45;&gt;Node788</title>
<path fill="none" stroke="#191970" d="M355.2644,-757.4355C358.8846,-861.2844 377.5206,-1251.9004 455,-1342 457.906,-1345.3793 461.2924,-1348.2862 464.9872,-1350.7864"/>
<polygon fill="#191970" stroke="#191970" points="358.7563,-757.1325 354.9263,-747.2542 351.7602,-757.3648 358.7563,-757.1325"/>
</g>
<!-- Node789 -->
<g id="node6" class="node">
<title>Node789</title>
<g id="a_node6"><a xlink:href="structcimg__library__suffixed_1_1_c_img.html#ae9faefb948746c5d646fe5c80f28c4fc" target="_top" xlink:title="cimg_library_suffixed\l::CImg\&lt; charT \&gt;::_save_bmp">
<polygon fill="#ffffff" stroke="#000000" points="456,-1302 456,-1332 602,-1332 602,-1302 456,-1302"/>
<text text-anchor="start" x="464" y="-1320" font-family="Helvetica,sans-Serif" font-size="10.00" fill="#000000">cimg_library_suffixed</text>
<text text-anchor="middle" x="529" y="-1309" font-family="Helvetica,sans-Serif" font-size="10.00" fill="#000000">::CImg&lt; charT &gt;::_save_bmp</text>
</a>
</g>
</g>
<!-- Node787&#45;&gt;Node789 -->
<g id="edge5" class="edge">
<title>Node787&#45;&gt;Node789</title>
<path fill="none" stroke="#191970" d="M355.6577,-757.268C360.6532,-855.5511 383.453,-1210.9659 455,-1293 458.0183,-1296.4607 461.5402,-1299.4255 465.3786,-1301.9651"/>
<polygon fill="#191970" stroke="#191970" points="359.1438,-756.8971 355.1577,-747.0808 352.1522,-757.2403 359.1438,-756.8971"/>
</g>
<!-- Node790 -->
<g id="node7" class="node">
<title>Node790</title>
<g id="a_node7"><a xlink:href="structcimg__library__suffixed_1_1_c_img.html#aa41e292505817af60a4896ed19302304" target="_top" xlink:title="cimg_library_suffixed\l::CImg\&lt; charT \&gt;::_save_jpeg">
<polygon fill="#ffffff" stroke="#000000" points="456.5,-1253 456.5,-1283 601.5,-1283 601.5,-1253 456.5,-1253"/>
<text text-anchor="start" x="464.5" y="-1271" font-family="Helvetica,sans-Serif" font-size="10.00" fill="#000000">cimg_library_suffixed</text>
<text text-anchor="middle" x="529" y="-1260" font-family="Helvetica,sans-Serif" font-size="10.00" fill="#000000">::CImg&lt; charT &gt;::_save_jpeg</text>
</a>
</g>
</g>
<!-- Node787&#45;&gt;Node790 -->
<g id="edge6" class="edge">
<title>Node787&#45;&gt;Node790</title>
<path fill="none" stroke="#191970" d="M356.1801,-757.3662C362.8053,-850.0519 390.0066,-1168.8366 455,-1243 458.3963,-1246.8754 462.4147,-1250.1512 466.7959,-1252.9199"/>
<polygon fill="#191970" stroke="#191970" points="359.6596,-756.9481 355.473,-747.2156 352.6765,-757.4346 359.6596,-756.9481"/>
</g>
<!-- Node791 -->
<g id="node8" class="node">
<title>Node791</title>
<g id="a_node8"><a xlink:href="structcimg__library__suffixed_1_1_c_img.html#a6beb63196c9a26f6894e4654f771c1e5" target="_top" xlink:title="Save image, using built&#45;in ImageMagick++ library. ">
<polygon fill="#ffffff" stroke="#000000" points="471,-1192.5 471,-1233.5 587,-1233.5 587,-1192.5 471,-1192.5"/>
<text text-anchor="start" x="479" y="-1221.5" font-family="Helvetica,sans-Serif" font-size="10.00" fill="#000000">cimg_library_suffixed</text>
<text text-anchor="start" x="479" y="-1210.5" font-family="Helvetica,sans-Serif" font-size="10.00" fill="#000000">::CImg&lt; charT &gt;::save</text>
<text text-anchor="middle" x="529" y="-1199.5" font-family="Helvetica,sans-Serif" font-size="10.00" fill="#000000">_magick</text>
</a>
</g>
</g>
<!-- Node787&#45;&gt;Node791 -->
<g id="edge7" class="edge">
<title>Node787&#45;&gt;Node791</title>
<path fill="none" stroke="#191970" d="M357.0505,-757.2767C366.0978,-842.4052 399.1413,-1117.0107 455,-1183 459.3887,-1188.1847 464.8085,-1192.4837 470.7038,-1196.0461"/>
<polygon fill="#191970" stroke="#191970" points="360.5189,-756.7906 355.9992,-747.2081 353.5567,-757.5176 360.5189,-756.7906"/>
</g>
<!-- Node792 -->
<g id="node9" class="node">
<title>Node792</title>
<g id="a_node9"><a xlink:href="structcimg__library__suffixed_1_1_c_img.html#aab5e304310373159e357250314e99da6" target="_top" xlink:title="cimg_library_suffixed\l::CImg\&lt; charT \&gt;::_save_png">
<polygon fill="#ffffff" stroke="#000000" points="457.5,-1143 457.5,-1173 600.5,-1173 600.5,-1143 457.5,-1143"/>
<text text-anchor="start" x="465.5" y="-1161" font-family="Helvetica,sans-Serif" font-size="10.00" fill="#000000">cimg_library_suffixed</text>
<text text-anchor="middle" x="529" y="-1150" font-family="Helvetica,sans-Serif" font-size="10.00" fill="#000000">::CImg&lt; charT &gt;::_save_png</text>
</a>
</g>
</g>
<!-- Node787&#45;&gt;Node792 -->
<g id="edge8" class="edge">
<title>Node787&#45;&gt;Node792</title>
<path fill="none" stroke="#191970" d="M357.631,-757.4949C367.8677,-836.9315 402.7197,-1078.0021 455,-1134 458.2259,-1137.4553 461.9529,-1140.4144 465.9838,-1142.9484"/>
<polygon fill="#191970" stroke="#191970" points="361.0805,-756.8753 356.3507,-747.3949 354.1361,-757.7557 361.0805,-756.8753"/>
</g>
<!-- Node793 -->
<g id="node10" class="node">
<title>Node793</title>
<g id="a_node10"><a xlink:href="structcimg__library__suffixed_1_1_c_img.html#a3b62455c9523881fa64a47d8362c3d80" target="_top" xlink:title="cimg_library_suffixed\l::CImg\&lt; charT \&gt;::_save_pnm">
<polygon fill="#ffffff" stroke="#000000" points="456,-1094 456,-1124 602,-1124 602,-1094 456,-1094"/>
<text text-anchor="start" x="464" y="-1112" font-family="Helvetica,sans-Serif" font-size="10.00" fill="#000000">cimg_library_suffixed</text>
<text text-anchor="middle" x="529" y="-1101" font-family="Helvetica,sans-Serif" font-size="10.00" fill="#000000">::CImg&lt; charT &gt;::_save_pnm</text>
</a>
</g>
</g>
<!-- Node787&#45;&gt;Node793 -->
<g id="edge9" class="edge">
<title>Node787&#45;&gt;Node793</title>
<path fill="none" stroke="#191970" d="M358.5338,-757.215C370.606,-829.743 408.5094,-1036.7925 455,-1085 458.2814,-1088.4026 462.0488,-1091.3234 466.1079,-1093.8306"/>
<polygon fill="#191970" stroke="#191970" points="361.955,-756.4494 356.8811,-747.1486 355.0475,-757.5835 361.955,-756.4494"/>
</g>
<!-- Node794 -->
<g id="node11" class="node">
<title>Node794</title>
<g id="a_node11"><a xlink:href="structcimg__library__suffixed_1_1_c_img.html#a4bcf33abcee45165d20d9530f6c85242" target="_top" xlink:title="cimg_library_suffixed\l::CImg\&lt; charT \&gt;::_save_pnk">
<polygon fill="#ffffff" stroke="#000000" points="457.5,-1045 457.5,-1075 600.5,-1075 600.5,-1045 457.5,-1045"/>
<text text-anchor="start" x="465.5" y="-1063" font-family="Helvetica,sans-Serif" font-size="10.00" fill="#000000">cimg_library_suffixed</text>
<text text-anchor="middle" x="529" y="-1052" font-family="Helvetica,sans-Serif" font-size="10.00" fill="#000000">::CImg&lt; charT &gt;::_save_pnk</text>
</a>
</g>
</g>
<!-- Node787&#45;&gt;Node794 -->
<g id="edge10" class="edge">
<title>Node787&#45;&gt;Node794</title>
<path fill="none" stroke="#191970" d="M359.7537,-757.1595C373.8675,-822.5402 414.3011,-995.5308 455,-1036 458.4478,-1039.4283 462.3893,-1042.367 466.6174,-1044.8861"/>
<polygon fill="#191970" stroke="#191970" points="363.1559,-756.3315 357.6458,-747.2822 356.31,-757.7925 363.1559,-756.3315"/>
</g>
<!-- Node795 -->
<g id="node12" class="node">
<title>Node795</title>
<g id="a_node12"><a xlink:href="structcimg__library__suffixed_1_1_c_img.html#a65be74d7d22bb71e708b3beb8e9cae49" target="_top" xlink:title="cimg_library_suffixed\l::CImg\&lt; charT \&gt;::_save_pfm">
<polygon fill="#ffffff" stroke="#000000" points="457.5,-996 457.5,-1026 600.5,-1026 600.5,-996 457.5,-996"/>
<text text-anchor="start" x="465.5" y="-1014" font-family="Helvetica,sans-Serif" font-size="10.00" fill="#000000">cimg_library_suffixed</text>
<text text-anchor="middle" x="529" y="-1003" font-family="Helvetica,sans-Serif" font-size="10.00" fill="#000000">::CImg&lt; charT &gt;::_save_pfm</text>
</a>
</g>
</g>
<!-- Node787&#45;&gt;Node795 -->
<g id="edge11" class="edge">
<title>Node787&#45;&gt;Node795</title>
<path fill="none" stroke="#191970" d="M357.3134,-757.2057C364.3174,-807.9987 387.1676,-923.2355 455,-987 458.6411,-990.4227 462.7754,-993.3574 467.1845,-995.8736"/>
<polygon fill="#191970" stroke="#191970" points="360.7623,-756.5838 356.016,-747.1116 353.8194,-757.4762 360.7623,-756.5838"/>
</g>
<!-- Node796 -->
<g id="node13" class="node">
<title>Node796</title>
<g id="a_node13"><a xlink:href="structcimg__library__suffixed_1_1_c_img.html#a06c5e27c1dde885a96cfdad05835644e" target="_top" xlink:title="cimg_library_suffixed\l::CImg\&lt; charT \&gt;::_save_rgb">
<polygon fill="#ffffff" stroke="#000000" points="459,-947 459,-977 599,-977 599,-947 459,-947"/>
<text text-anchor="start" x="467" y="-965" font-family="Helvetica,sans-Serif" font-size="10.00" fill="#000000">cimg_library_suffixed</text>
<text text-anchor="middle" x="529" y="-954" font-family="Helvetica,sans-Serif" font-size="10.00" fill="#000000">::CImg&lt; charT &gt;::_save_rgb</text>
</a>
</g>
</g>
<!-- Node787&#45;&gt;Node796 -->
<g id="edge12" class="edge">
<title>Node787&#45;&gt;Node796</title>
<path fill="none" stroke="#191970" d="M359.9621,-757.1365C370.6425,-800.3477 398.3664,-888.8012 455,-938 458.9764,-941.4544 463.4587,-944.4133 468.2005,-946.9475"/>
<polygon fill="#191970" stroke="#191970" points="363.3142,-756.1029 357.6067,-747.1768 356.5021,-757.7139 363.3142,-756.1029"/>
</g>
<!-- Node797 -->
<g id="node14" class="node">
<title>Node797</title>
<g id="a_node14"><a xlink:href="structcimg__library__suffixed_1_1_c_img.html#a974a21a1c7242ff9b08e4590701d920d" target="_top" xlink:title="cimg_library_suffixed\l::CImg\&lt; charT \&gt;::_save_rgba">
<polygon fill="#ffffff" stroke="#000000" points="456,-898 456,-928 602,-928 602,-898 456,-898"/>
<text text-anchor="start" x="464" y="-916" font-family="Helvetica,sans-Serif" font-size="10.00" fill="#000000">cimg_library_suffixed</text>
<text text-anchor="middle" x="529" y="-905" font-family="Helvetica,sans-Serif" font-size="10.00" fill="#000000">::CImg&lt; charT &gt;::_save_rgba</text>
</a>
</g>
</g>
<!-- Node787&#45;&gt;Node797 -->
<g id="edge13" class="edge">
<title>Node787&#45;&gt;Node797</title>
<path fill="none" stroke="#191970" d="M364.0101,-756.811C378.492,-791.3704 409.3035,-853.7169 455,-889 459.4899,-892.4667 464.4984,-895.4419 469.7344,-897.9936"/>
<polygon fill="#191970" stroke="#191970" points="367.2093,-755.3867 360.2002,-747.4417 360.7249,-758.0236 367.2093,-755.3867"/>
</g>
<!-- Node798 -->
<g id="node15" class="node">
<title>Node798</title>
<g id="a_node15"><a xlink:href="structcimg__library__suffixed_1_1_c_img.html#a87e93148404e8d79b7b5218e58eabf3c" target="_top" xlink:title="Save image as a TIFF file. ">
<polygon fill="#ffffff" stroke="#000000" points="462.5,-849 462.5,-879 595.5,-879 595.5,-849 462.5,-849"/>
<text text-anchor="start" x="470.5" y="-867" font-family="Helvetica,sans-Serif" font-size="10.00" fill="#000000">cimg_library_suffixed</text>
<text text-anchor="middle" x="529" y="-856" font-family="Helvetica,sans-Serif" font-size="10.00" fill="#000000">::CImg&lt; charT &gt;::save_tiff</text>
</a>
</g>
</g>
<!-- Node787&#45;&gt;Node798 -->
<g id="edge14" class="edge">
<title>Node787&#45;&gt;Node798</title>
<path fill="none" stroke="#191970" d="M370.7204,-755.526C388.6841,-779.9186 419.7991,-817.5619 455,-840 460.3528,-843.412 466.2345,-846.3802 472.2703,-848.9524"/>
<polygon fill="#191970" stroke="#191970" points="373.4001,-753.258 364.714,-747.1915 367.7212,-757.3507 373.4001,-753.258"/>
</g>
<!-- Node799 -->
<g id="node16" class="node">
<title>Node799</title>
<g id="a_node16"><a xlink:href="structcimg__library__suffixed_1_1_c_img.html#ab3b2aa455cd56ce20a03cb0b68ca68fc" target="_top" xlink:title="Save image as a MINC2 file. ">
<polygon fill="#ffffff" stroke="#000000" points="455,-800 455,-830 603,-830 603,-800 455,-800"/>
<text text-anchor="start" x="463" y="-818" font-family="Helvetica,sans-Serif" font-size="10.00" fill="#000000">cimg_library_suffixed</text>
<text text-anchor="middle" x="529" y="-807" font-family="Helvetica,sans-Serif" font-size="10.00" fill="#000000">::CImg&lt; charT &gt;::save_minc2</text>
</a>
</g>
</g>
<!-- Node787&#45;&gt;Node799 -->
<g id="edge15" class="edge">
<title>Node787&#45;&gt;Node799</title>
<path fill="none" stroke="#191970" d="M386.4572,-752.6197C405.7931,-764.5386 431.2302,-779.2533 455,-790 462.9081,-793.5754 471.4871,-796.9255 479.9074,-799.9397"/>
<polygon fill="#191970" stroke="#191970" points="388.0974,-749.5177 377.7604,-747.1942 384.3922,-755.4568 388.0974,-749.5177"/>
</g>
<!-- Node800 -->
<g id="node17" class="node">
<title>Node800</title>
<g id="a_node17"><a xlink:href="structcimg__library__suffixed_1_1_c_img.html#a09711118d3b31870942e99adbefffed1" target="_top" xlink:title="Save image as an ANALYZE7.5 or NIFTI file. ">
<polygon fill="#ffffff" stroke="#000000" points="471,-739.5 471,-780.5 587,-780.5 587,-739.5 471,-739.5"/>
<text text-anchor="start" x="479" y="-768.5" font-family="Helvetica,sans-Serif" font-size="10.00" fill="#000000">cimg_library_suffixed</text>
<text text-anchor="start" x="479" y="-757.5" font-family="Helvetica,sans-Serif" font-size="10.00" fill="#000000">::CImg&lt; charT &gt;::save</text>
<text text-anchor="middle" x="529" y="-746.5" font-family="Helvetica,sans-Serif" font-size="10.00" fill="#000000">_analyze</text>
</a>
</g>
</g>
<!-- Node787&#45;&gt;Node800 -->
<g id="edge16" class="edge">
<title>Node787&#45;&gt;Node800</title>
<path fill="none" stroke="#191970" d="M419.5371,-742.4358C436.369,-745.1366 454.3824,-748.027 470.8372,-750.6673"/>
<polygon fill="#191970" stroke="#191970" points="419.6624,-738.9112 409.2341,-740.7826 418.5533,-745.8227 419.6624,-738.9112"/>
</g>
<!-- Node801 -->
<g id="node18" class="node">
<title>Node801</title>
<g id="a_node18"><a xlink:href="structcimg__library__suffixed_1_1_c_img.html#aa29c8a2179f282535660800f9b9192e0" target="_top" xlink:title="cimg_library_suffixed\l::CImg\&lt; charT \&gt;::_save_inr">
<polygon fill="#ffffff" stroke="#000000" points="460.5,-690 460.5,-720 597.5,-720 597.5,-690 460.5,-690"/>
<text text-anchor="start" x="468.5" y="-708" font-family="Helvetica,sans-Serif" font-size="10.00" fill="#000000">cimg_library_suffixed</text>
<text text-anchor="middle" x="529" y="-697" font-family="Helvetica,sans-Serif" font-size="10.00" fill="#000000">::CImg&lt; charT &gt;::_save_inr</text>
</a>
</g>
</g>
<!-- Node787&#45;&gt;Node801 -->
<g id="edge17" class="edge">
<title>Node787&#45;&gt;Node801</title>
<path fill="none" stroke="#191970" d="M419.2942,-721.9745C432.6721,-719.9046 446.8059,-717.7177 460.3167,-715.6272"/>
<polygon fill="#191970" stroke="#191970" points="418.5813,-718.5431 409.2341,-723.5311 419.6517,-725.4608 418.5813,-718.5431"/>
</g>
<!-- Node802 -->
<g id="node19" class="node">
<title>Node802</title>
<g id="a_node19"><a xlink:href="structcimg__library__suffixed_1_1_c_img.html#ad5fb082bca9bcc268e8f77019788ae51" target="_top" xlink:title="Save image as an OpenEXR file. ">
<polygon fill="#ffffff" stroke="#000000" points="461.5,-641 461.5,-671 596.5,-671 596.5,-641 461.5,-641"/>
<text text-anchor="start" x="469.5" y="-659" font-family="Helvetica,sans-Serif" font-size="10.00" fill="#000000">cimg_library_suffixed</text>
<text text-anchor="middle" x="529" y="-648" font-family="Helvetica,sans-Serif" font-size="10.00" fill="#000000">::CImg&lt; charT &gt;::save_exr</text>
</a>
</g>
</g>
<!-- Node787&#45;&gt;Node802 -->
<g id="edge18" class="edge">
<title>Node787&#45;&gt;Node802</title>
<path fill="none" stroke="#191970" d="M409.4,-712.8329C412.6936,-711.2961 415.9181,-709.6831 419,-708 436.553,-698.4139 437.3032,-690.318 455,-681 462.0794,-677.2725 469.8261,-673.9352 477.5567,-671.0063"/>
<polygon fill="#191970" stroke="#191970" points="407.7482,-709.7354 399.9958,-716.957 410.5596,-716.1461 407.7482,-709.7354"/>
</g>
<!-- Node803 -->
<g id="node20" class="node">
<title>Node803</title>
<g id="a_node20"><a xlink:href="structcimg__library__suffixed_1_1_c_img.html#a01931f2bad5c72da454d990ebcf55f94" target="_top" xlink:title="cimg_library_suffixed\l::CImg\&lt; charT \&gt;::_save\l_pandore">
<polygon fill="#ffffff" stroke="#000000" points="468,-580.5 468,-621.5 590,-621.5 590,-580.5 468,-580.5"/>
<text text-anchor="start" x="476" y="-609.5" font-family="Helvetica,sans-Serif" font-size="10.00" fill="#000000">cimg_library_suffixed</text>
<text text-anchor="start" x="476" y="-598.5" font-family="Helvetica,sans-Serif" font-size="10.00" fill="#000000">::CImg&lt; charT &gt;::_save</text>
<text text-anchor="middle" x="529" y="-587.5" font-family="Helvetica,sans-Serif" font-size="10.00" fill="#000000">_pandore</text>
</a>
</g>
</g>
<!-- Node787&#45;&gt;Node803 -->
<g id="edge19" class="edge">
<title>Node787&#45;&gt;Node803</title>
<path fill="none" stroke="#191970" d="M415.0123,-711.3352C416.3959,-710.277 417.7289,-709.1661 419,-708 446.5422,-682.7341 427.9749,-657.8183 455,-632 459.1293,-628.055 463.8341,-624.5786 468.8241,-621.5217"/>
<polygon fill="#191970" stroke="#191970" points="413.0579,-708.4313 406.6092,-716.8375 416.8926,-714.2875 413.0579,-708.4313"/>
</g>
<!-- Node804 -->
<g id="node21" class="node">
<title>Node804</title>
<g id="a_node21"><a xlink:href="structcimg__library__suffixed_1_1_c_img.html#a069feb3e722bb4a1f52ea72c1c86ca97" target="_top" xlink:title="cimg_library_suffixed\l::CImg\&lt; charT \&gt;::_save_raw">
<polygon fill="#ffffff" stroke="#000000" points="457.5,-531 457.5,-561 600.5,-561 600.5,-531 457.5,-531"/>
<text text-anchor="start" x="465.5" y="-549" font-family="Helvetica,sans-Serif" font-size="10.00" fill="#000000">cimg_library_suffixed</text>
<text text-anchor="middle" x="529" y="-538" font-family="Helvetica,sans-Serif" font-size="10.00" fill="#000000">::CImg&lt; charT &gt;::_save_raw</text>
</a>
</g>
</g>
<!-- Node787&#45;&gt;Node804 -->
<g id="edge20" class="edge">
<title>Node787&#45;&gt;Node804</title>
<path fill="none" stroke="#191970" d="M416.2374,-710.7986C417.1978,-709.9039 418.1204,-708.9715 419,-708 461.2535,-661.3299 412.0416,-617.0221 455,-571 458.6087,-567.1339 462.8354,-563.8656 467.4079,-561.1025"/>
<polygon fill="#191970" stroke="#191970" points="414.027,-708.083 408.2239,-716.9473 418.2882,-713.6366 414.027,-708.083"/>
</g>
<!-- Node805 -->
<g id="node22" class="node">
<title>Node805</title>
<g id="a_node22"><a xlink:href="structcimg__library__suffixed_1_1_c_img.html#a3a8132f303e3295e0219ea4518c6ef20" target="_top" xlink:title="Save volumetric image as a video, using ffmpeg external binary. ">
<polygon fill="#ffffff" stroke="#000000" points="471,-470.5 471,-511.5 587,-511.5 587,-470.5 471,-470.5"/>
<text text-anchor="start" x="479" y="-499.5" font-family="Helvetica,sans-Serif" font-size="10.00" fill="#000000">cimg_library_suffixed</text>
<text text-anchor="start" x="479" y="-488.5" font-family="Helvetica,sans-Serif" font-size="10.00" fill="#000000">::CImg&lt; charT &gt;::save</text>
<text text-anchor="middle" x="529" y="-477.5" font-family="Helvetica,sans-Serif" font-size="10.00" fill="#000000">_ffmpeg_external</text>
</a>
</g>
</g>
<!-- Node787&#45;&gt;Node805 -->
<g id="edge21" class="edge">
<title>Node787&#45;&gt;Node805</title>
<path fill="none" stroke="#191970" d="M416.6993,-710.5055C417.4982,-709.7008 418.2663,-708.866 419,-708 473.4289,-643.7562 401.8827,-587.3325 455,-522 459.3935,-516.5962 464.8936,-512.1206 470.9006,-508.417"/>
<polygon fill="#191970" stroke="#191970" points="414.3137,-707.9346 408.7736,-716.9656 418.7363,-713.3606 414.3137,-707.9346"/>
</g>
<!-- Node806 -->
<g id="node23" class="node">
<title>Node806</title>
<g id="a_node23"><a xlink:href="structcimg__library__suffixed_1_1_c_img.html#a53983bb4f1ebe2a817b68029b8c04cb1" target="_top" xlink:title="Save image using gzip external binary. ">
<polygon fill="#ffffff" stroke="#000000" points="471,-410.5 471,-451.5 587,-451.5 587,-410.5 471,-410.5"/>
<text text-anchor="start" x="479" y="-439.5" font-family="Helvetica,sans-Serif" font-size="10.00" fill="#000000">cimg_library_suffixed</text>
<text text-anchor="start" x="479" y="-428.5" font-family="Helvetica,sans-Serif" font-size="10.00" fill="#000000">::CImg&lt; charT &gt;::save</text>
<text text-anchor="middle" x="529" y="-417.5" font-family="Helvetica,sans-Serif" font-size="10.00" fill="#000000">_gzip_external</text>
</a>
</g>
</g>
<!-- Node787&#45;&gt;Node806 -->
<g id="edge22" class="edge">
<title>Node787&#45;&gt;Node806</title>
<path fill="none" stroke="#191970" d="M417.1007,-710.1865C417.7583,-709.4807 418.3922,-708.7522 419,-708 488.7269,-621.7137 386.5288,-548.2861 455,-461 459.2781,-455.5463 464.7079,-451.0786 470.6764,-447.4197"/>
<polygon fill="#191970" stroke="#191970" points="414.5687,-707.7467 409.2471,-716.9081 419.1203,-713.0648 414.5687,-707.7467"/>
</g>
<!-- Node807 -->
<g id="node24" class="node">
<title>Node807</title>
<g id="a_node24"><a xlink:href="structcimg__library__suffixed_1_1_c_img.html#a44f125968c20e8c7d833bf7d75c32db6" target="_top" xlink:title="Save image using GraphicsMagick&#39;s external binary. ">
<polygon fill="#ffffff" stroke="#000000" points="464,-350.5 464,-391.5 594,-391.5 594,-350.5 464,-350.5"/>
<text text-anchor="start" x="472" y="-379.5" font-family="Helvetica,sans-Serif" font-size="10.00" fill="#000000">cimg_library_suffixed</text>
<text text-anchor="start" x="472" y="-368.5" font-family="Helvetica,sans-Serif" font-size="10.00" fill="#000000">::CImg&lt; charT &gt;::save</text>
<text text-anchor="middle" x="529" y="-357.5" font-family="Helvetica,sans-Serif" font-size="10.00" fill="#000000">_graphicsmagick_external</text>
</a>
</g>
</g>
<!-- Node787&#45;&gt;Node807 -->
<g id="edge23" class="edge">
<title>Node787&#45;&gt;Node807</title>
<path fill="none" stroke="#191970" d="M416.7904,-710.5798C417.5612,-709.7523 418.299,-708.8927 419,-708 503.8418,-599.9493 371.7304,-510.2669 455,-401 457.6889,-397.4717 460.8617,-394.3567 464.3556,-391.6068"/>
<polygon fill="#191970" stroke="#191970" points="414.3796,-708.0362 409.0585,-717.198 418.9315,-713.3542 414.3796,-708.0362"/>
</g>
<!-- Node808 -->
<g id="node25" class="node">
<title>Node808</title>
<g id="a_node25"><a xlink:href="structcimg__library__suffixed_1_1_c_img.html#afbf8db949f62c8bd3f2f73ba3d9c1420" target="_top" xlink:title="Save image using ImageMagick&#39;s external binary. ">
<polygon fill="#ffffff" stroke="#000000" points="469.5,-290.5 469.5,-331.5 588.5,-331.5 588.5,-290.5 469.5,-290.5"/>
<text text-anchor="start" x="477.5" y="-319.5" font-family="Helvetica,sans-Serif" font-size="10.00" fill="#000000">cimg_library_suffixed</text>
<text text-anchor="start" x="477.5" y="-308.5" font-family="Helvetica,sans-Serif" font-size="10.00" fill="#000000">::CImg&lt; charT &gt;::save</text>
<text text-anchor="middle" x="529" y="-297.5" font-family="Helvetica,sans-Serif" font-size="10.00" fill="#000000">_imagemagick_external</text>
</a>
</g>
</g>
<!-- Node787&#45;&gt;Node808 -->
<g id="edge24" class="edge">
<title>Node787&#45;&gt;Node808</title>
<path fill="none" stroke="#191970" d="M416.814,-710.5982C417.5776,-709.765 418.3075,-708.8993 419,-708 518.9906,-578.1419 356.8987,-472.2912 455,-341 458.9,-335.7806 463.8622,-331.4665 469.3652,-327.9012"/>
<polygon fill="#191970" stroke="#191970" points="414.3971,-708.0612 409.1324,-717.2554 418.9816,-713.3511 414.3971,-708.0612"/>
</g>
<!-- Node809 -->
<g id="node26" class="node">
<title>Node809</title>
<g id="a_node26"><a xlink:href="structcimg__library__suffixed_1_1_c_img.html#a30d02c3d77fc43c8b5845e92268cdab5" target="_top" xlink:title="Save image as a Dicom file. ">
<polygon fill="#ffffff" stroke="#000000" points="471,-230.5 471,-271.5 587,-271.5 587,-230.5 471,-230.5"/>
<text text-anchor="start" x="479" y="-259.5" font-family="Helvetica,sans-Serif" font-size="10.00" fill="#000000">cimg_library_suffixed</text>
<text text-anchor="start" x="479" y="-248.5" font-family="Helvetica,sans-Serif" font-size="10.00" fill="#000000">::CImg&lt; charT &gt;::save</text>
<text text-anchor="middle" x="529" y="-237.5" font-family="Helvetica,sans-Serif" font-size="10.00" fill="#000000">_medcon_external</text>
</a>
</g>
</g>
<!-- Node787&#45;&gt;Node809 -->
<g id="edge25" class="edge">
<title>Node787&#45;&gt;Node809</title>
<path fill="none" stroke="#191970" d="M416.8311,-710.6113C417.5895,-709.7741 418.3137,-708.9041 419,-708 476.5794,-632.1547 398.524,-357.6705 455,-281 459.1931,-275.3076 464.6524,-270.6926 470.707,-266.9517"/>
<polygon fill="#191970" stroke="#191970" points="414.41,-708.079 409.186,-717.2964 419.0179,-713.3485 414.41,-708.079"/>
</g>
<!-- Node810 -->
<g id="node27" class="node">
<title>Node810</title>
<g id="a_node27"><a xlink:href="structcimg__library__suffixed_1_1_c_img.html#a6b77dc615829820ba0675409feaef3d8" target="_top" xlink:title="cimg_library_suffixed\l::CImg\&lt; charT \&gt;::save_other">
<polygon fill="#ffffff" stroke="#000000" points="457.5,-181 457.5,-211 600.5,-211 600.5,-181 457.5,-181"/>
<text text-anchor="start" x="465.5" y="-199" font-family="Helvetica,sans-Serif" font-size="10.00" fill="#000000">cimg_library_suffixed</text>
<text text-anchor="middle" x="529" y="-188" font-family="Helvetica,sans-Serif" font-size="10.00" fill="#000000">::CImg&lt; charT &gt;::save_other</text>
</a>
</g>
</g>
<!-- Node787&#45;&gt;Node810 -->
<g id="edge26" class="edge">
<title>Node787&#45;&gt;Node810</title>
<path fill="none" stroke="#191970" d="M416.8441,-710.6211C417.5985,-709.7809 418.3183,-708.9076 419,-708 484.1696,-621.2304 388.5182,-306.7684 455,-221 457.9908,-217.1416 461.6038,-213.874 465.6048,-211.1073"/>
<polygon fill="#191970" stroke="#191970" points="414.4198,-708.0923 409.2267,-717.3271 419.0453,-713.3464 414.4198,-708.0923"/>
</g>
<!-- Node811 -->
<g id="node28" class="node">
<title>Node811</title>
<g id="a_node28"><a xlink:href="structcimg__library__suffixed_1_1_c_img_list.html#afa25415a30608d507bc22bd6b85b5c1e" target="_top" xlink:title="cimg_library_suffixed\l::CImgList\&lt; charT \&gt;::\l_save_yuv">
<polygon fill="#ffffff" stroke="#000000" points="473.5,-120.5 473.5,-161.5 584.5,-161.5 584.5,-120.5 473.5,-120.5"/>
<text text-anchor="start" x="481.5" y="-149.5" font-family="Helvetica,sans-Serif" font-size="10.00" fill="#000000">cimg_library_suffixed</text>
<text text-anchor="start" x="481.5" y="-138.5" font-family="Helvetica,sans-Serif" font-size="10.00" fill="#000000">::CImgList&lt; charT &gt;::</text>
<text text-anchor="middle" x="529" y="-127.5" font-family="Helvetica,sans-Serif" font-size="10.00" fill="#000000">_save_yuv</text>
</a>
</g>
</g>
<!-- Node787&#45;&gt;Node811 -->
<g id="edge27" class="edge">
<title>Node787&#45;&gt;Node811</title>
<path fill="none" stroke="#191970" d="M416.8526,-710.6275C417.6043,-709.7853 418.3214,-708.9099 419,-708 490.3714,-612.3047 385.5804,-269.1204 455,-172 459.7789,-165.3142 466.2855,-160.0636 473.4698,-155.9417"/>
<polygon fill="#191970" stroke="#191970" points="414.4263,-708.1009 409.2533,-717.347 419.0632,-713.3449 414.4263,-708.1009"/>
</g>
<!-- Node812 -->
<g id="node29" class="node">
<title>Node812</title>
<g id="a_node29"><a xlink:href="structcimg__library__suffixed_1_1_c_img_list.html#a62700a17bb0af63522c732b9d1a15325" target="_top" xlink:title="Save list as a TIFF file. ">
<polygon fill="#ffffff" stroke="#000000" points="473.5,-60.5 473.5,-101.5 584.5,-101.5 584.5,-60.5 473.5,-60.5"/>
<text text-anchor="start" x="481.5" y="-89.5" font-family="Helvetica,sans-Serif" font-size="10.00" fill="#000000">cimg_library_suffixed</text>
<text text-anchor="start" x="481.5" y="-78.5" font-family="Helvetica,sans-Serif" font-size="10.00" fill="#000000">::CImgList&lt; charT &gt;::</text>
<text text-anchor="middle" x="529" y="-67.5" font-family="Helvetica,sans-Serif" font-size="10.00" fill="#000000">save_tiff</text>
</a>
</g>
</g>
<!-- Node787&#45;&gt;Node812 -->
<g id="edge28" class="edge">
<title>Node787&#45;&gt;Node812</title>
<path fill="none" stroke="#191970" d="M416.8613,-710.6339C417.6103,-709.7897 418.3245,-708.9122 419,-708 498.0947,-601.1895 377.459,-218.9437 455,-111 459.7718,-104.3572 466.2747,-99.1828 473.4573,-95.1529"/>
<polygon fill="#191970" stroke="#191970" points="414.4328,-708.1096 409.2804,-717.3672 419.0814,-713.3433 414.4328,-708.1096"/>
</g>
<!-- Node813 -->
<g id="node30" class="node">
<title>Node813</title>
<g id="a_node30"><a xlink:href="structcimg__library__suffixed_1_1_c_img_list.html#af09a45345581747984f4df0607418f2c" target="_top" xlink:title="Save image sequence, using the external tool &#39;ffmpeg&#39;. ">
<polygon fill="#ffffff" stroke="#000000" points="472.5,-.5 472.5,-41.5 585.5,-41.5 585.5,-.5 472.5,-.5"/>
<text text-anchor="start" x="480.5" y="-29.5" font-family="Helvetica,sans-Serif" font-size="10.00" fill="#000000">cimg_library_suffixed</text>
<text text-anchor="start" x="480.5" y="-18.5" font-family="Helvetica,sans-Serif" font-size="10.00" fill="#000000">::CImgList&lt; charT &gt;::</text>
<text text-anchor="middle" x="529" y="-7.5" font-family="Helvetica,sans-Serif" font-size="10.00" fill="#000000">save_ffmpeg_external</text>
</a>
</g>
</g>
<!-- Node787&#45;&gt;Node813 -->
<g id="edge29" class="edge">
<title>Node787&#45;&gt;Node813</title>
<path fill="none" stroke="#191970" d="M416.8092,-710.7058C417.5777,-709.8395 418.3093,-708.9381 419,-708 505.6936,-590.2536 370.0191,-169.9884 455,-51 459.5119,-44.6826 465.5908,-39.6935 472.3353,-35.7538"/>
<polygon fill="#191970" stroke="#191970" points="414.1911,-708.3482 409.0099,-717.5897 418.8234,-713.5963 414.1911,-708.3482"/>
</g>
</g>
</svg>
        <g id="navigator" transform="translate(0 0)" fill="#404254">
                <rect fill="#f2f5e9" fill-opacity="0.5" stroke="#606060" stroke-width=".5" x="0" y="0" width="60" height="60"/>
                <use id="zoomplus" xlink:href="#zoomPlus" x="17" y="9" onmousedown="handleZoom(evt,'in')"/>
                <use id="zoomminus" xlink:href="#zoomMin" x="42" y="9" onmousedown="handleZoom(evt,'out')"/>
                <use id="reset" xlink:href="#resetDef" x="30" y="36" onmousedown="handleReset()"/>
                <g id="arrowUp" xlink:href="#dirArrow" transform="translate(30 24)" onmousedown="handlePan(0,-1)">
                  <use xlink:href="#rim" fill="#404040">
                        <set attributeName="fill" to="#808080" begin="arrowUp.mouseover" end="arrowUp.mouseout"/>
                  </use>
                  <path fill="none" stroke="white" stroke-width="1.5" d="M0,-3.0v7 M-2.5,-0.5L0,-3.0L2.5,-0.5"/>
                </g>
                <g id="arrowRight" xlink:href="#dirArrow" transform="rotate(90) translate(36 -43)" onmousedown="handlePan(1,0)">
                  <use xlink:href="#rim" fill="#404040">
                        <set attributeName="fill" to="#808080" begin="arrowRight.mouseover" end="arrowRight.mouseout"/>
                  </use>
                  <path fill="none" stroke="white" stroke-width="1.5" d="M0,-3.0v7 M-2.5,-0.5L0,-3.0L2.5,-0.5"/>
                </g>
                <g id="arrowDown" xlink:href="#dirArrow" transform="rotate(180) translate(-30 -48)" onmousedown="handlePan(0,1)">
                  <use xlink:href="#rim" fill="#404040">
                        <set attributeName="fill" to="#808080" begin="arrowDown.mouseover" end="arrowDown.mouseout"/>
                  </use>
                  <path fill="none" stroke="white" stroke-width="1.5" d="M0,-3.0v7 M-2.5,-0.5L0,-3.0L2.5,-0.5"/>
                </g>
                <g id="arrowLeft" xlink:href="#dirArrow" transform="rotate(270) translate(-36 17)" onmousedown="handlePan(-1,0)">
                  <use xlink:href="#rim" fill="#404040">
                        <set attributeName="fill" to="#808080" begin="arrowLeft.mouseover" end="arrowLeft.mouseout"/>
                  </use>
                  <path fill="none" stroke="white" stroke-width="1.5" d="M0,-3.0v7 M-2.5,-0.5L0,-3.0L2.5,-0.5"/>
                </g>
        </g>
        <svg viewBox="0 0 15 15" width="100%" height="30px" preserveAspectRatio="xMaxYMin meet">
         <g id="arrow_out" transform="scale(0.3 0.3)">
          <a xlink:href="namespacecimg__library__suffixed_1_1cimg_aebd4f990c3e148573c96c04dbfdcc5c6_icgraph_org.svg" target="_base">
           <rect id="button" ry="5" rx="5" y="6" x="6" height="38" width="38"
                fill="#f2f5e9" fill-opacity="0.5" stroke="#606060" stroke-width="1.0"/>
           <path id="arrow"
             d="M 11.500037,31.436501 C 11.940474,20.09759 22.043105,11.32322 32.158766,21.979434 L 37.068811,17.246167 C 37.068811,17.246167 37.088388,32 37.088388,32 L 22.160133,31.978069 C 22.160133,31.978069 26.997745,27.140456 26.997745,27.140456 C 18.528582,18.264221 13.291696,25.230495 11.500037,31.436501 z"
             style="fill:#404040;"/>
          </a>
         </g>
        </svg>
</svg>
