<?xml version="1.0" encoding="UTF-8" standalone="no"?>
<!DOCTYPE svg PUBLIC "-//W3C//DTD SVG 1.1//EN"
 "http://www.w3.org/Graphics/SVG/1.1/DTD/svg11.dtd">
<!-- Generated by graphviz version 2.40.1 (20161225.0304)
 -->
<!-- Title: cimg_library_suffixed::cimg::fdate Pages: 1 -->
<svg width="721pt" height="158pt"
 viewBox="0.00 0.00 721.00 157.78" xmlns="http://www.w3.org/2000/svg" xmlns:xlink="http://www.w3.org/1999/xlink">
<g id="graph0" class="graph" transform="scale(1 1) rotate(0) translate(4 153.78)">
<title>cimg_library_suffixed::cimg::fdate</title>
<polygon fill="#ffffff" stroke="transparent" points="-4,4 -4,-153.78 717,-153.78 717,4 -4,4"/>
<!-- Node1299 -->
<g id="node1" class="node">
<title>Node1299</title>
<polygon fill="#bfbfbf" stroke="#000000" points="0,-73.5 0,-103.5 109,-103.5 109,-73.5 0,-73.5"/>
<text text-anchor="start" x="8" y="-91.5" font-family="Helvetica,sans-Serif" font-size="10.00" fill="#000000">cimg_library_suffixed</text>
<text text-anchor="middle" x="54.5" y="-80.5" font-family="Helvetica,sans-Serif" font-size="10.00" fill="#000000">::cimg::fdate</text>
</g>
<!-- Node1300 -->
<g id="node2" class="node">
<title>Node1300</title>
<g id="a_node2"><a xlink:href="namespacecimg__library__suffixed_1_1cimg.html#a0654bf4ceae1444ae9fa1113cbb064ee" target="_top" xlink:title="Get last write time of a given file or directory (multiple&#45;attributes version). ">
<polygon fill="#ffffff" stroke="#000000" points="145,-73.5 145,-103.5 254,-103.5 254,-73.5 145,-73.5"/>
<text text-anchor="start" x="153" y="-91.5" font-family="Helvetica,sans-Serif" font-size="10.00" fill="#000000">cimg_library_suffixed</text>
<text text-anchor="middle" x="199.5" y="-80.5" font-family="Helvetica,sans-Serif" font-size="10.00" fill="#000000">::cimg::fdate</text>
</a>
</g>
</g>
<!-- Node1299&#45;&gt;Node1300 -->
<g id="edge1" class="edge">
<title>Node1299&#45;&gt;Node1300</title>
<path fill="none" stroke="#191970" d="M109.3183,-88.5C117.5286,-88.5 126.0611,-88.5 134.4586,-88.5"/>
<polygon fill="#191970" stroke="#191970" points="134.6042,-92.0001 144.6042,-88.5 134.6042,-85.0001 134.6042,-92.0001"/>
</g>
<!-- Node1301 -->
<g id="node3" class="node">
<title>Node1301</title>
<g id="a_node3"><a xlink:href="namespacecimg__library__suffixed_1_1cimg.html#a9e739e4b4ac058abfba069466617b914" target="_top" xlink:title="cimg_library_suffixed\l::cimg::mutex">
<polygon fill="#ffffff" stroke="#000000" points="290,-73.5 290,-103.5 399,-103.5 399,-73.5 290,-73.5"/>
<text text-anchor="start" x="298" y="-91.5" font-family="Helvetica,sans-Serif" font-size="10.00" fill="#000000">cimg_library_suffixed</text>
<text text-anchor="middle" x="344.5" y="-80.5" font-family="Helvetica,sans-Serif" font-size="10.00" fill="#000000">::cimg::mutex</text>
</a>
</g>
</g>
<!-- Node1300&#45;&gt;Node1301 -->
<g id="edge2" class="edge">
<title>Node1300&#45;&gt;Node1301</title>
<path fill="none" stroke="#191970" d="M254.3183,-88.5C262.5286,-88.5 271.0611,-88.5 279.4586,-88.5"/>
<polygon fill="#191970" stroke="#191970" points="279.6042,-92.0001 289.6042,-88.5 279.6042,-85.0001 279.6042,-92.0001"/>
</g>
<!-- Node1302 -->
<g id="node4" class="node">
<title>Node1302</title>
<g id="a_node4"><a xlink:href="namespacecimg__library__suffixed_1_1cimg.html#aa0e1bc96ae6e235dc5b67b8b0a466166" target="_top" xlink:title="cimg_library_suffixed\l::cimg::Mutex_attr">
<polygon fill="#ffffff" stroke="#000000" points="604,-71.5 604,-101.5 713,-101.5 713,-71.5 604,-71.5"/>
<text text-anchor="start" x="612" y="-89.5" font-family="Helvetica,sans-Serif" font-size="10.00" fill="#000000">cimg_library_suffixed</text>
<text text-anchor="middle" x="658.5" y="-78.5" font-family="Helvetica,sans-Serif" font-size="10.00" fill="#000000">::cimg::Mutex_attr</text>
</a>
</g>
</g>
<!-- Node1301&#45;&gt;Node1302 -->
<g id="edge3" class="edge">
<title>Node1301&#45;&gt;Node1302</title>
<path fill="none" stroke="#191970" d="M364.7886,-103.66C382.338,-115.766 408.9275,-131.7766 435,-138.5 492.2386,-153.2603 510.8872,-153.7398 568,-138.5 590.8112,-132.4131 613.8447,-119.0529 630.9657,-107.3993"/>
<polygon fill="#191970" stroke="#191970" points="633.1785,-110.1221 639.3474,-101.5084 629.1534,-104.3951 633.1785,-110.1221"/>
</g>
<!-- Node1303 -->
<g id="node5" class="node">
<title>Node1303</title>
<g id="a_node5"><a xlink:href="structcimg__library__suffixed_1_1cimg_1_1_mutex__info.html#afac3fa5f107ad4795fb867050f616555" target="_top" xlink:title="cimg_library_suffixed\l::cimg::Mutex_info::unlock">
<polygon fill="#ffffff" stroke="#000000" points="435.5,-98.5 435.5,-128.5 567.5,-128.5 567.5,-98.5 435.5,-98.5"/>
<text text-anchor="start" x="443.5" y="-116.5" font-family="Helvetica,sans-Serif" font-size="10.00" fill="#000000">cimg_library_suffixed</text>
<text text-anchor="middle" x="501.5" y="-105.5" font-family="Helvetica,sans-Serif" font-size="10.00" fill="#000000">::cimg::Mutex_info::unlock</text>
</a>
</g>
</g>
<!-- Node1301&#45;&gt;Node1303 -->
<g id="edge4" class="edge">
<title>Node1301&#45;&gt;Node1303</title>
<path fill="none" stroke="#191970" d="M399.411,-97.2438C407.7369,-98.5696 416.453,-99.9575 425.1344,-101.3399"/>
<polygon fill="#191970" stroke="#191970" points="424.8581,-104.8399 435.2841,-102.9561 425.9589,-97.927 424.8581,-104.8399"/>
</g>
<!-- Node1304 -->
<g id="node6" class="node">
<title>Node1304</title>
<g id="a_node6"><a xlink:href="structcimg__library__suffixed_1_1cimg_1_1_mutex__info.html#a6cc8e26847a1aa649febed03d70182e7" target="_top" xlink:title="cimg_library_suffixed\l::cimg::Mutex_info::lock">
<polygon fill="#ffffff" stroke="#000000" points="440.5,-49.5 440.5,-79.5 562.5,-79.5 562.5,-49.5 440.5,-49.5"/>
<text text-anchor="start" x="448.5" y="-67.5" font-family="Helvetica,sans-Serif" font-size="10.00" fill="#000000">cimg_library_suffixed</text>
<text text-anchor="middle" x="501.5" y="-56.5" font-family="Helvetica,sans-Serif" font-size="10.00" fill="#000000">::cimg::Mutex_info::lock</text>
</a>
</g>
</g>
<!-- Node1301&#45;&gt;Node1304 -->
<g id="edge5" class="edge">
<title>Node1301&#45;&gt;Node1304</title>
<path fill="none" stroke="#191970" d="M399.411,-80.106C409.4626,-78.5694 420.083,-76.9459 430.5242,-75.3498"/>
<polygon fill="#191970" stroke="#191970" points="431.0993,-78.8026 440.4556,-73.8316 430.0415,-71.883 431.0993,-78.8026"/>
</g>
<!-- Node1305 -->
<g id="node7" class="node">
<title>Node1305</title>
<g id="a_node7"><a xlink:href="structcimg__library__suffixed_1_1cimg_1_1_mutex__info.html#a9bf4ed1e1dfe6f28fa6250cd04f3c900" target="_top" xlink:title="cimg_library_suffixed\l::cimg::Mutex_info::trylock">
<polygon fill="#ffffff" stroke="#000000" points="435,-.5 435,-30.5 568,-30.5 568,-.5 435,-.5"/>
<text text-anchor="start" x="443" y="-18.5" font-family="Helvetica,sans-Serif" font-size="10.00" fill="#000000">cimg_library_suffixed</text>
<text text-anchor="middle" x="501.5" y="-7.5" font-family="Helvetica,sans-Serif" font-size="10.00" fill="#000000">::cimg::Mutex_info::trylock</text>
</a>
</g>
</g>
<!-- Node1301&#45;&gt;Node1305 -->
<g id="edge6" class="edge">
<title>Node1301&#45;&gt;Node1305</title>
<path fill="none" stroke="#191970" d="M370.9788,-73.3011C388.7871,-63.3682 412.9505,-50.4428 435,-40.5 439.6591,-38.3991 444.5523,-36.3232 449.4816,-34.3195"/>
<polygon fill="#191970" stroke="#191970" points="450.9456,-37.5042 458.9536,-30.5672 448.3675,-30.9963 450.9456,-37.5042"/>
</g>
<!-- Node1305&#45;&gt;Node1302 -->
<g id="edge7" class="edge">
<title>Node1305&#45;&gt;Node1302</title>
<path fill="none" stroke="#191970" d="M543.6439,-30.5387C551.7907,-33.6717 560.2117,-37.0692 568,-40.5 585.9326,-48.3993 605.3586,-58.1135 621.5985,-66.5763"/>
<polygon fill="#191970" stroke="#191970" points="620.2767,-69.8356 630.7567,-71.3913 623.5342,-63.6398 620.2767,-69.8356"/>
</g>
</g>
</svg>
