<?xml version="1.0" encoding="UTF-8" standalone="no"?>
<!DOCTYPE svg PUBLIC "-//W3C//DTD SVG 1.1//EN"
 "http://www.w3.org/Graphics/SVG/1.1/DTD/svg11.dtd">
<!-- Generated by graphviz version 2.40.1 (20161225.0304)
 -->
<!-- Title: cimg_library_suffixed::cimg::rol Pages: 1 -->
<svg width="291pt" height="209pt"
 viewBox="0.00 0.00 291.00 208.50" xmlns="http://www.w3.org/2000/svg" xmlns:xlink="http://www.w3.org/1999/xlink">
<g id="graph0" class="graph" transform="scale(1 1) rotate(0) translate(4 204.5)">
<title>cimg_library_suffixed::cimg::rol</title>
<polygon fill="#ffffff" stroke="transparent" points="-4,4 -4,-204.5 287,-204.5 287,4 -4,4"/>
<!-- Node3390 -->
<g id="node1" class="node">
<title>Node3390</title>
<polygon fill="#bfbfbf" stroke="#000000" points="0,-76.5 0,-106.5 109,-106.5 109,-76.5 0,-76.5"/>
<text text-anchor="start" x="8" y="-94.5" font-family="Helvetica,sans-Serif" font-size="10.00" fill="#000000">cimg_library_suffixed</text>
<text text-anchor="middle" x="54.5" y="-83.5" font-family="Helvetica,sans-Serif" font-size="10.00" fill="#000000">::cimg::rol</text>
</g>
<!-- Node3391 -->
<g id="node2" class="node">
<title>Node3391</title>
<g id="a_node2"><a xlink:href="structcimg__library__suffixed_1_1_c_img_1_1__cimg__math__parser.html#a318c44c5d1f4f0114355f37ace87a4ae" target="_top" xlink:title="cimg_library_suffixed\l::CImg::_cimg_math_parser\l::compile">
<polygon fill="#ffffff" stroke="#000000" points="145,-159 145,-200 283,-200 283,-159 145,-159"/>
<text text-anchor="start" x="153" y="-188" font-family="Helvetica,sans-Serif" font-size="10.00" fill="#000000">cimg_library_suffixed</text>
<text text-anchor="start" x="153" y="-177" font-family="Helvetica,sans-Serif" font-size="10.00" fill="#000000">::CImg::_cimg_math_parser</text>
<text text-anchor="middle" x="214" y="-166" font-family="Helvetica,sans-Serif" font-size="10.00" fill="#000000">::compile</text>
</a>
</g>
</g>
<!-- Node3390&#45;&gt;Node3391 -->
<g id="edge1" class="edge">
<title>Node3390&#45;&gt;Node3391</title>
<path fill="none" stroke="#191970" d="M84.3988,-112.3749C101.6941,-124.0104 124.1082,-138.3557 145,-149.5 151.1084,-152.7584 157.645,-155.9535 164.1706,-158.9718"/>
<polygon fill="#191970" stroke="#191970" points="86.0943,-109.2953 75.8563,-106.5685 82.1593,-115.0846 86.0943,-109.2953"/>
</g>
<!-- Node3392 -->
<g id="node3" class="node">
<title>Node3392</title>
<g id="a_node3"><a xlink:href="structcimg__library__suffixed_1_1_c_img_1_1__cimg__math__parser.html#a85bb0d80b94724409a1ef1e3b512ae2e" target="_top" xlink:title="cimg_library_suffixed\l::CImg::_cimg_math_parser\l::mp_rol">
<polygon fill="#ffffff" stroke="#000000" points="145,-99 145,-140 283,-140 283,-99 145,-99"/>
<text text-anchor="start" x="153" y="-128" font-family="Helvetica,sans-Serif" font-size="10.00" fill="#000000">cimg_library_suffixed</text>
<text text-anchor="start" x="153" y="-117" font-family="Helvetica,sans-Serif" font-size="10.00" fill="#000000">::CImg::_cimg_math_parser</text>
<text text-anchor="middle" x="214" y="-106" font-family="Helvetica,sans-Serif" font-size="10.00" fill="#000000">::mp_rol</text>
</a>
</g>
</g>
<!-- Node3390&#45;&gt;Node3392 -->
<g id="edge2" class="edge">
<title>Node3390&#45;&gt;Node3392</title>
<path fill="none" stroke="#191970" d="M119.4793,-102.907C127.8632,-104.3788 136.4728,-105.8902 144.9198,-107.3731"/>
<polygon fill="#191970" stroke="#191970" points="119.8454,-99.4179 109.3909,-101.136 118.635,-106.3124 119.8454,-99.4179"/>
</g>
<!-- Node3393 -->
<g id="node4" class="node">
<title>Node3393</title>
<g id="a_node4"><a xlink:href="namespacecimg__library__suffixed_1_1cimg.html#afb7d512cc0b5473301a060131bd415af" target="_top" xlink:title="cimg_library_suffixed\l::cimg::rol">
<polygon fill="#ffffff" stroke="#000000" points="159.5,-49.5 159.5,-79.5 268.5,-79.5 268.5,-49.5 159.5,-49.5"/>
<text text-anchor="start" x="167.5" y="-67.5" font-family="Helvetica,sans-Serif" font-size="10.00" fill="#000000">cimg_library_suffixed</text>
<text text-anchor="middle" x="214" y="-56.5" font-family="Helvetica,sans-Serif" font-size="10.00" fill="#000000">::cimg::rol</text>
</a>
</g>
</g>
<!-- Node3390&#45;&gt;Node3393 -->
<g id="edge3" class="edge">
<title>Node3390&#45;&gt;Node3393</title>
<path fill="none" stroke="#191970" d="M119.3814,-80.5169C132.6237,-78.2753 146.433,-75.9377 159.2783,-73.7632"/>
<polygon fill="#191970" stroke="#191970" points="118.6664,-77.0881 109.3909,-82.2081 119.8348,-83.9899 118.6664,-77.0881"/>
</g>
<!-- Node3394 -->
<g id="node5" class="node">
<title>Node3394</title>
<g id="a_node5"><a xlink:href="structcimg__library__suffixed_1_1_c_img.html#a84f1165e3c73956c3a7e0c5e448e269c" target="_top" xlink:title="Compute the bitwise left rotation of each pixel value. ">
<polygon fill="#ffffff" stroke="#000000" points="159.5,-.5 159.5,-30.5 268.5,-30.5 268.5,-.5 159.5,-.5"/>
<text text-anchor="start" x="167.5" y="-18.5" font-family="Helvetica,sans-Serif" font-size="10.00" fill="#000000">cimg_library_suffixed</text>
<text text-anchor="middle" x="214" y="-7.5" font-family="Helvetica,sans-Serif" font-size="10.00" fill="#000000">::CImg&lt; charT &gt;::rol</text>
</a>
</g>
</g>
<!-- Node3390&#45;&gt;Node3394 -->
<g id="edge4" class="edge">
<title>Node3390&#45;&gt;Node3394</title>
<path fill="none" stroke="#191970" d="M87.7702,-71.0005C104.5801,-61.0979 125.5008,-49.452 145,-40.5 152.6423,-36.9915 160.9303,-33.6303 169.0231,-30.5738"/>
<polygon fill="#191970" stroke="#191970" points="85.6869,-68.1676 78.8895,-76.2945 89.2712,-74.1804 85.6869,-68.1676"/>
</g>
</g>
</svg>
