<?xml version="1.0" encoding="UTF-8" standalone="no"?>
<!DOCTYPE svg PUBLIC "-//W3C//DTD SVG 1.1//EN"
 "http://www.w3.org/Graphics/SVG/1.1/DTD/svg11.dtd">
<!-- Generated by graphviz version 2.40.1 (20161225.0304)
 -->
<!-- Title: cimg_library_suffixed::asin Pages: 1 -->
<svg width="291pt" height="319pt"
 viewBox="0.00 0.00 291.00 319.00" xmlns="http://www.w3.org/2000/svg" xmlns:xlink="http://www.w3.org/1999/xlink">
<g id="graph0" class="graph" transform="scale(1 1) rotate(0) translate(4 315)">
<title>cimg_library_suffixed::asin</title>
<polygon fill="#ffffff" stroke="transparent" points="-4,4 -4,-315 287,-315 287,4 -4,4"/>
<!-- Node16 -->
<g id="node1" class="node">
<title>Node16</title>
<polygon fill="#bfbfbf" stroke="#000000" points="0,-143 0,-173 109,-173 109,-143 0,-143"/>
<text text-anchor="start" x="8" y="-161" font-family="Helvetica,sans-Serif" font-size="10.00" fill="#000000">cimg_library_suffixed</text>
<text text-anchor="middle" x="54.5" y="-150" font-family="Helvetica,sans-Serif" font-size="10.00" fill="#000000">::asin</text>
</g>
<!-- Node17 -->
<g id="node2" class="node">
<title>Node17</title>
<g id="a_node2"><a xlink:href="structcimg__library__suffixed_1_1_c_img.html#a8b40db5a9818c3f961a90840b271de6c" target="_top" xlink:title="cimg_library_suffixed\l::CImg\&lt; charT \&gt;::_display\l_object3d">
<polygon fill="#ffffff" stroke="#000000" points="148.5,-269.5 148.5,-310.5 279.5,-310.5 279.5,-269.5 148.5,-269.5"/>
<text text-anchor="start" x="156.5" y="-298.5" font-family="Helvetica,sans-Serif" font-size="10.00" fill="#000000">cimg_library_suffixed</text>
<text text-anchor="start" x="156.5" y="-287.5" font-family="Helvetica,sans-Serif" font-size="10.00" fill="#000000">::CImg&lt; charT &gt;::_display</text>
<text text-anchor="middle" x="214" y="-276.5" font-family="Helvetica,sans-Serif" font-size="10.00" fill="#000000">_object3d</text>
</a>
</g>
</g>
<!-- Node16&#45;&gt;Node17 -->
<g id="edge1" class="edge">
<title>Node16&#45;&gt;Node17</title>
<path fill="none" stroke="#191970" d="M70.5391,-181.3549C87.0321,-203.9429 114.5496,-237.91 145,-260 149.758,-263.4516 154.9752,-266.6168 160.3433,-269.4895"/>
<polygon fill="#191970" stroke="#191970" points="73.2379,-179.1119 64.5728,-173.0156 67.5449,-183.185 73.2379,-179.1119"/>
</g>
<!-- Node18 -->
<g id="node3" class="node">
<title>Node18</title>
<g id="a_node3"><a xlink:href="structcimg__library__suffixed_1_1_c_img.html#ad9b7141242d0b6e861a8014112ddb5b5" target="_top" xlink:title="cimg_library_suffixed\l::CImg\&lt; charT \&gt;::_select">
<polygon fill="#ffffff" stroke="#000000" points="150.5,-220 150.5,-250 277.5,-250 277.5,-220 150.5,-220"/>
<text text-anchor="start" x="158.5" y="-238" font-family="Helvetica,sans-Serif" font-size="10.00" fill="#000000">cimg_library_suffixed</text>
<text text-anchor="middle" x="214" y="-227" font-family="Helvetica,sans-Serif" font-size="10.00" fill="#000000">::CImg&lt; charT &gt;::_select</text>
</a>
</g>
</g>
<!-- Node16&#45;&gt;Node18 -->
<g id="edge2" class="edge">
<title>Node16&#45;&gt;Node18</title>
<path fill="none" stroke="#191970" d="M86.2066,-178.6241C103.2093,-189.1507 124.7728,-201.6679 145,-211 151.9099,-214.188 159.3711,-217.2 166.7455,-219.9433"/>
<polygon fill="#191970" stroke="#191970" points="87.5979,-175.3651 77.2673,-173.0136 83.8768,-181.2941 87.5979,-175.3651"/>
</g>
<!-- Node19 -->
<g id="node4" class="node">
<title>Node19</title>
<g id="a_node4"><a xlink:href="structcimg__library__suffixed_1_1_c_img.html#af21cdfa737adecc1d4f261f5a3a27e3b" target="_top" xlink:title="Compute the arcsine of each pixel value. ">
<polygon fill="#ffffff" stroke="#000000" points="157.5,-171 157.5,-201 270.5,-201 270.5,-171 157.5,-171"/>
<text text-anchor="start" x="165.5" y="-189" font-family="Helvetica,sans-Serif" font-size="10.00" fill="#000000">cimg_library_suffixed</text>
<text text-anchor="middle" x="214" y="-178" font-family="Helvetica,sans-Serif" font-size="10.00" fill="#000000">::CImg&lt; charT &gt;::asin</text>
</a>
</g>
</g>
<!-- Node16&#45;&gt;Node19 -->
<g id="edge3" class="edge">
<title>Node16&#45;&gt;Node19</title>
<path fill="none" stroke="#191970" d="M119.3597,-169.386C131.9587,-171.5978 145.0719,-173.8998 157.3804,-176.0605"/>
<polygon fill="#191970" stroke="#191970" points="119.8454,-165.9179 109.3909,-167.636 118.635,-172.8124 119.8454,-165.9179"/>
</g>
<!-- Node20 -->
<g id="node5" class="node">
<title>Node20</title>
<g id="a_node5"><a xlink:href="structcimg__library__suffixed_1_1_c_img_1_1__cimg__math__parser.html#a318c44c5d1f4f0114355f37ace87a4ae" target="_top" xlink:title="cimg_library_suffixed\l::CImg::_cimg_math_parser\l::compile">
<polygon fill="#ffffff" stroke="#000000" points="145,-110.5 145,-151.5 283,-151.5 283,-110.5 145,-110.5"/>
<text text-anchor="start" x="153" y="-139.5" font-family="Helvetica,sans-Serif" font-size="10.00" fill="#000000">cimg_library_suffixed</text>
<text text-anchor="start" x="153" y="-128.5" font-family="Helvetica,sans-Serif" font-size="10.00" fill="#000000">::CImg::_cimg_math_parser</text>
<text text-anchor="middle" x="214" y="-117.5" font-family="Helvetica,sans-Serif" font-size="10.00" fill="#000000">::compile</text>
</a>
</g>
</g>
<!-- Node16&#45;&gt;Node20 -->
<g id="edge4" class="edge">
<title>Node16&#45;&gt;Node20</title>
<path fill="none" stroke="#191970" d="M119.4793,-147.0004C127.8632,-145.5811 136.4728,-144.1237 144.9198,-142.6938"/>
<polygon fill="#191970" stroke="#191970" points="118.6664,-143.5881 109.3909,-148.7081 119.8348,-150.4899 118.6664,-143.5881"/>
</g>
<!-- Node21 -->
<g id="node6" class="node">
<title>Node21</title>
<g id="a_node6"><a xlink:href="structcimg__library__suffixed_1_1_c_img.html#ac04025558222b83c96080a9923fd06b2" target="_top" xlink:title="Compute the arcsine of each pixel value . ">
<polygon fill="#ffffff" stroke="#000000" points="148,-61 148,-91 280,-91 280,-61 148,-61"/>
<text text-anchor="start" x="156" y="-79" font-family="Helvetica,sans-Serif" font-size="10.00" fill="#000000">cimg_library_suffixed</text>
<text text-anchor="middle" x="214" y="-68" font-family="Helvetica,sans-Serif" font-size="10.00" fill="#000000">::CImg&lt; charT &gt;::get_asin</text>
</a>
</g>
</g>
<!-- Node16&#45;&gt;Node21 -->
<g id="edge5" class="edge">
<title>Node16&#45;&gt;Node21</title>
<path fill="none" stroke="#191970" d="M84.1904,-137.0258C101.4186,-125.4431 123.8351,-111.3504 145,-101 152.3253,-97.4177 160.3005,-94.064 168.1428,-91.0485"/>
<polygon fill="#191970" stroke="#191970" points="81.9801,-134.2966 75.6882,-142.8209 85.9226,-140.0808 81.9801,-134.2966"/>
</g>
<!-- Node22 -->
<g id="node7" class="node">
<title>Node22</title>
<g id="a_node7"><a xlink:href="structcimg__library__suffixed_1_1_c_img_1_1__cimg__math__parser.html#aed398d195c0f0a1a68185a47197c6150" target="_top" xlink:title="cimg_library_suffixed\l::CImg::_cimg_math_parser\l::mp_asin">
<polygon fill="#ffffff" stroke="#000000" points="145,-.5 145,-41.5 283,-41.5 283,-.5 145,-.5"/>
<text text-anchor="start" x="153" y="-29.5" font-family="Helvetica,sans-Serif" font-size="10.00" fill="#000000">cimg_library_suffixed</text>
<text text-anchor="start" x="153" y="-18.5" font-family="Helvetica,sans-Serif" font-size="10.00" fill="#000000">::CImg::_cimg_math_parser</text>
<text text-anchor="middle" x="214" y="-7.5" font-family="Helvetica,sans-Serif" font-size="10.00" fill="#000000">::mp_asin</text>
</a>
</g>
</g>
<!-- Node16&#45;&gt;Node22 -->
<g id="edge6" class="edge">
<title>Node16&#45;&gt;Node22</title>
<path fill="none" stroke="#191970" d="M69.9132,-134.4744C86.2421,-111.042 113.9237,-75.2918 145,-52 150.0441,-48.2194 155.6225,-44.7667 161.3574,-41.6518"/>
<polygon fill="#191970" stroke="#191970" points="66.9766,-132.5684 64.2275,-142.8004 72.7573,-136.5161 66.9766,-132.5684"/>
</g>
</g>
</svg>
