<?xml version="1.0" encoding="UTF-8" standalone="no"?>
<!DOCTYPE svg PUBLIC "-//W3C//DTD SVG 1.1//EN"
 "http://www.w3.org/Graphics/SVG/1.1/DTD/svg11.dtd">
<!-- Generated by graphviz version 2.40.1 (20161225.0304)
 -->
<!-- Title: cimg_library_suffixed::invert Pages: 1 -->
<svg width="286pt" height="259pt"
 viewBox="0.00 0.00 286.00 259.00" xmlns="http://www.w3.org/2000/svg" xmlns:xlink="http://www.w3.org/1999/xlink">
<g id="graph0" class="graph" transform="scale(1 1) rotate(0) translate(4 255)">
<title>cimg_library_suffixed::invert</title>
<polygon fill="#ffffff" stroke="transparent" points="-4,4 -4,-255 282,-255 282,4 -4,4"/>
<!-- Node78 -->
<g id="node1" class="node">
<title>Node78</title>
<polygon fill="#bfbfbf" stroke="#000000" points="0,-110.5 0,-140.5 109,-140.5 109,-110.5 0,-110.5"/>
<text text-anchor="start" x="8" y="-128.5" font-family="Helvetica,sans-Serif" font-size="10.00" fill="#000000">cimg_library_suffixed</text>
<text text-anchor="middle" x="54.5" y="-117.5" font-family="Helvetica,sans-Serif" font-size="10.00" fill="#000000">::invert</text>
</g>
<!-- Node79 -->
<g id="node2" class="node">
<title>Node79</title>
<g id="a_node2"><a xlink:href="structcimg__library__suffixed_1_1_c_img_list.html#ac07f7527b6223ed7b6c4e02f6feab7b3" target="_top" xlink:title="Compute a 1d Fast Fourier Transform, along specified axis. ">
<polygon fill="#ffffff" stroke="#000000" points="147,-220.5 147,-250.5 276,-250.5 276,-220.5 147,-220.5"/>
<text text-anchor="start" x="155" y="-238.5" font-family="Helvetica,sans-Serif" font-size="10.00" fill="#000000">cimg_library_suffixed</text>
<text text-anchor="middle" x="211.5" y="-227.5" font-family="Helvetica,sans-Serif" font-size="10.00" fill="#000000">::CImgList&lt; charT &gt;::FFT</text>
</a>
</g>
</g>
<!-- Node78&#45;&gt;Node79 -->
<g id="edge1" class="edge">
<title>Node78&#45;&gt;Node79</title>
<path fill="none" stroke="#191970" d="M73.9101,-148.174C91.0229,-166.9916 117.4601,-193.3551 145,-210.5 150.9683,-214.2156 157.5757,-217.5159 164.2416,-220.4018"/>
<polygon fill="#191970" stroke="#191970" points="76.4399,-145.7521 67.1709,-140.6202 71.2165,-150.4123 76.4399,-145.7521"/>
</g>
<!-- Node80 -->
<g id="node3" class="node">
<title>Node80</title>
<g id="a_node3"><a xlink:href="structcimg__library__suffixed_1_1_c_img_list.html#aa026daaaa283e6bcc688a9bb42f16001" target="_top" xlink:title="Compute a 1&#45;D Fast Fourier Transform, along specified axis . ">
<polygon fill="#ffffff" stroke="#000000" points="156,-160 156,-201 267,-201 267,-160 156,-160"/>
<text text-anchor="start" x="164" y="-189" font-family="Helvetica,sans-Serif" font-size="10.00" fill="#000000">cimg_library_suffixed</text>
<text text-anchor="start" x="164" y="-178" font-family="Helvetica,sans-Serif" font-size="10.00" fill="#000000">::CImgList&lt; charT &gt;::</text>
<text text-anchor="middle" x="211.5" y="-167" font-family="Helvetica,sans-Serif" font-size="10.00" fill="#000000">get_FFT</text>
</a>
</g>
</g>
<!-- Node78&#45;&gt;Node80 -->
<g id="edge2" class="edge">
<title>Node78&#45;&gt;Node80</title>
<path fill="none" stroke="#191970" d="M106.9733,-143.8824C122.7165,-149.3975 140.0345,-155.4643 155.9682,-161.0462"/>
<polygon fill="#191970" stroke="#191970" points="107.9958,-140.5321 97.4009,-140.529 105.6814,-147.1384 107.9958,-140.5321"/>
</g>
<!-- Node81 -->
<g id="node4" class="node">
<title>Node81</title>
<g id="a_node4"><a xlink:href="structcimg__library__suffixed_1_1_c_img.html#a35d89112cc5ff251f8b134209cd222f0" target="_top" xlink:title="Compute Haar multiscale wavelet transform . ">
<polygon fill="#ffffff" stroke="#000000" points="145,-110.5 145,-140.5 278,-140.5 278,-110.5 145,-110.5"/>
<text text-anchor="start" x="153" y="-128.5" font-family="Helvetica,sans-Serif" font-size="10.00" fill="#000000">cimg_library_suffixed</text>
<text text-anchor="middle" x="211.5" y="-117.5" font-family="Helvetica,sans-Serif" font-size="10.00" fill="#000000">::CImg&lt; charT &gt;::get_haar</text>
</a>
</g>
</g>
<!-- Node78&#45;&gt;Node81 -->
<g id="edge3" class="edge">
<title>Node78&#45;&gt;Node81</title>
<path fill="none" stroke="#191970" d="M119.4602,-125.5C127.806,-125.5 136.3624,-125.5 144.7365,-125.5"/>
<polygon fill="#191970" stroke="#191970" points="119.411,-122.0001 109.411,-125.5 119.4109,-129.0001 119.411,-122.0001"/>
</g>
<!-- Node82 -->
<g id="node5" class="node">
<title>Node82</title>
<g id="a_node5"><a xlink:href="structcimg__library__suffixed_1_1_c_img.html#a074775a585de98f05bfc45f7c4f8cfa0" target="_top" xlink:title="Invert the instance image, viewed as a matrix . ">
<polygon fill="#ffffff" stroke="#000000" points="157,-50 157,-91 266,-91 266,-50 157,-50"/>
<text text-anchor="start" x="165" y="-79" font-family="Helvetica,sans-Serif" font-size="10.00" fill="#000000">cimg_library_suffixed</text>
<text text-anchor="start" x="165" y="-68" font-family="Helvetica,sans-Serif" font-size="10.00" fill="#000000">::CImg&lt; charT &gt;::get</text>
<text text-anchor="middle" x="211.5" y="-57" font-family="Helvetica,sans-Serif" font-size="10.00" fill="#000000">_invert</text>
</a>
</g>
</g>
<!-- Node78&#45;&gt;Node82 -->
<g id="edge4" class="edge">
<title>Node78&#45;&gt;Node82</title>
<path fill="none" stroke="#191970" d="M107.1212,-107.0658C123.1116,-101.4641 140.7153,-95.2972 156.837,-89.6495"/>
<polygon fill="#191970" stroke="#191970" points="105.6814,-103.8616 97.4009,-110.471 107.9958,-110.4679 105.6814,-103.8616"/>
</g>
<!-- Node83 -->
<g id="node6" class="node">
<title>Node83</title>
<g id="a_node6"><a xlink:href="structcimg__library__suffixed_1_1_c_img.html#ae5d38bed2e12d78631a84feb13fd715b" target="_top" xlink:title="Compute Haar multiscale wavelet transform. ">
<polygon fill="#ffffff" stroke="#000000" points="154.5,-.5 154.5,-30.5 268.5,-30.5 268.5,-.5 154.5,-.5"/>
<text text-anchor="start" x="162.5" y="-18.5" font-family="Helvetica,sans-Serif" font-size="10.00" fill="#000000">cimg_library_suffixed</text>
<text text-anchor="middle" x="211.5" y="-7.5" font-family="Helvetica,sans-Serif" font-size="10.00" fill="#000000">::CImg&lt; charT &gt;::haar</text>
</a>
</g>
</g>
<!-- Node78&#45;&gt;Node83 -->
<g id="edge5" class="edge">
<title>Node78&#45;&gt;Node83</title>
<path fill="none" stroke="#191970" d="M73.9101,-102.826C91.0229,-84.0084 117.4601,-57.6449 145,-40.5 150.9683,-36.7844 157.5757,-33.4841 164.2416,-30.5982"/>
<polygon fill="#191970" stroke="#191970" points="71.2165,-100.5877 67.1709,-110.3798 76.4399,-105.2479 71.2165,-100.5877"/>
</g>
</g>
</svg>
