<?xml version="1.0" encoding="UTF-8" standalone="no"?>
<!DOCTYPE svg PUBLIC "-//W3C//DTD SVG 1.1//EN"
 "http://www.w3.org/Graphics/SVG/1.1/DTD/svg11.dtd">
<!-- Generated by graphviz version 2.40.1 (20161225.0304)
 -->
<!-- Title: cimg_library_suffixed::cimg::dcraw_path Pages: 1 -->
<!--zoomable 417 -->
<svg id="main" version="1.1" xmlns="http://www.w3.org/2000/svg" xmlns:xlink="http://www.w3.org/1999/xlink" xml:space="preserve" onload="init(evt)">
<style type="text/css"><![CDATA[
.edge:hover path { stroke: red; }
.edge:hover polygon { stroke: red; fill: red; }
]]></style>
<script type="text/javascript"><![CDATA[
var edges = document.getElementsByTagName('g');
if (edges && edges.length) {
  for (var i=0;i<edges.length;i++) {
    if (edges[i].id.substr(0,4)=='edge') {
      edges[i].setAttribute('class','edge');
    }
  }
}
]]></script>
        <defs>
                <circle id="rim" cx="0" cy="0" r="7"/>
                <circle id="rim2" cx="0" cy="0" r="3.5"/>
                <g id="zoomPlus">
                        <use xlink:href="#rim" fill="#404040">
                                <set attributeName="fill" to="#808080" begin="zoomplus.mouseover" end="zoomplus.mouseout"/>
                        </use>
                        <path d="M-4,0h8M0,-4v8" fill="none" stroke="white" stroke-width="1.5" pointer-events="none"/>
                </g>
                <g id="zoomMin">
                        <use xlink:href="#rim" fill="#404040">
                                <set attributeName="fill" to="#808080" begin="zoomminus.mouseover" end="zoomminus.mouseout"/>
                        </use>
                        <path d="M-4,0h8" fill="none" stroke="white" stroke-width="1.5" pointer-events="none"/>
                </g>
                <g id="dirArrow">
                        <path fill="none" stroke="white" stroke-width="1.5" d="M0,-3.0v7 M-2.5,-0.5L0,-3.0L2.5,-0.5"/>
                </g>
               <g id="resetDef">
                       <use xlink:href="#rim2" fill="#404040">
                               <set attributeName="fill" to="#808080" begin="reset.mouseover" end="reset.mouseout"/>
                       </use>
               </g>
        </defs>

<script type="text/javascript">
var viewWidth = 1488;
var viewHeight = 417;
var sectionId = 'dynsection-28';
</script>
<script xlink:href="svgpan.js"/>
<svg id="graph" class="graph">
<g id="viewport">
<title>cimg_library_suffixed::cimg::dcraw_path</title>
<polygon fill="#ffffff" stroke="transparent" points="-4,4 -4,-413 1484,-413 1484,4 -4,4"/>
<!-- Node916 -->
<g id="node1" class="node">
<title>Node916</title>
<polygon fill="#bfbfbf" stroke="#000000" points="0,-249.5 0,-279.5 109,-279.5 109,-249.5 0,-249.5"/>
<text text-anchor="start" x="8" y="-267.5" font-family="Helvetica,sans-Serif" font-size="10.00" fill="#000000">cimg_library_suffixed</text>
<text text-anchor="middle" x="54.5" y="-256.5" font-family="Helvetica,sans-Serif" font-size="10.00" fill="#000000">::cimg::dcraw_path</text>
</g>
<!-- Node917 -->
<g id="node2" class="node">
<title>Node917</title>
<g id="a_node2"><a xlink:href="structcimg__library__suffixed_1_1_c_img.html#a82cf529dfcb37cbd01ad7f9bd76795d7" target="_top" xlink:title="Construct empty image . ">
<polygon fill="#ffffff" stroke="#000000" points="151.5,-378.5 151.5,-408.5 260.5,-408.5 260.5,-378.5 151.5,-378.5"/>
<text text-anchor="start" x="159.5" y="-396.5" font-family="Helvetica,sans-Serif" font-size="10.00" fill="#000000">cimg_library_suffixed</text>
<text text-anchor="middle" x="206" y="-385.5" font-family="Helvetica,sans-Serif" font-size="10.00" fill="#000000">::CImg::assign</text>
</a>
</g>
</g>
<!-- Node916&#45;&gt;Node917 -->
<g id="edge1" class="edge">
<title>Node916&#45;&gt;Node917</title>
<path fill="none" stroke="#191970" d="M65.3506,-279.5435C81.0421,-300.4793 111.8433,-338.625 145,-363.5 149.8382,-367.1297 155.184,-370.5085 160.6402,-373.5913"/>
<polygon fill="#191970" stroke="#191970" points="159.3842,-376.8875 169.8569,-378.4921 162.6707,-370.7069 159.3842,-376.8875"/>
</g>
<!-- Node918 -->
<g id="node3" class="node">
<title>Node918</title>
<g id="a_node3"><a xlink:href="namespacecimg__library__suffixed_1_1cimg.html#ac436b94e6ffef5fd420bb3d7c05fd416" target="_top" xlink:title="Close a file. ">
<polygon fill="#ffffff" stroke="#000000" points="151.5,-123.5 151.5,-153.5 260.5,-153.5 260.5,-123.5 151.5,-123.5"/>
<text text-anchor="start" x="159.5" y="-141.5" font-family="Helvetica,sans-Serif" font-size="10.00" fill="#000000">cimg_library_suffixed</text>
<text text-anchor="middle" x="206" y="-130.5" font-family="Helvetica,sans-Serif" font-size="10.00" fill="#000000">::cimg::fclose</text>
</a>
</g>
</g>
<!-- Node916&#45;&gt;Node918 -->
<g id="edge2" class="edge">
<title>Node916&#45;&gt;Node918</title>
<path fill="none" stroke="#191970" d="M72.7744,-249.3015C99.5048,-227.0703 149.3988,-185.5742 179.9609,-160.1562"/>
<polygon fill="#191970" stroke="#191970" points="182.2103,-162.8378 187.6607,-153.7524 177.7342,-157.4559 182.2103,-162.8378"/>
</g>
<!-- Node924 -->
<g id="node9" class="node">
<title>Node924</title>
<g id="a_node9"><a xlink:href="namespacecimg__library__suffixed_1_1cimg.html#a9e739e4b4ac058abfba069466617b914" target="_top" xlink:title="cimg_library_suffixed\l::cimg::mutex">
<polygon fill="#ffffff" stroke="#000000" points="1057,-269.5 1057,-299.5 1166,-299.5 1166,-269.5 1057,-269.5"/>
<text text-anchor="start" x="1065" y="-287.5" font-family="Helvetica,sans-Serif" font-size="10.00" fill="#000000">cimg_library_suffixed</text>
<text text-anchor="middle" x="1111.5" y="-276.5" font-family="Helvetica,sans-Serif" font-size="10.00" fill="#000000">::cimg::mutex</text>
</a>
</g>
</g>
<!-- Node916&#45;&gt;Node924 -->
<g id="edge27" class="edge">
<title>Node916&#45;&gt;Node924</title>
<path fill="none" stroke="#191970" d="M85.9693,-279.5006C140.1366,-303.9024 255.0597,-349.5 357.5,-349.5 357.5,-349.5 357.5,-349.5 821.5,-349.5 907.3435,-349.5 1004.0954,-322.0458 1061.3189,-302.8224"/>
<polygon fill="#191970" stroke="#191970" points="1062.5077,-306.115 1070.8436,-299.5757 1060.2492,-299.4894 1062.5077,-306.115"/>
</g>
<!-- Node932 -->
<g id="node17" class="node">
<title>Node932</title>
<g id="a_node17"><a xlink:href="namespacecimg__library__suffixed_1_1cimg.html#a1b401761f9f3c1d01de8ec6ef6bec731" target="_top" xlink:title="cimg_library_suffixed\l::cimg::winformat_string">
<polygon fill="#ffffff" stroke="#000000" points="145,-58.5 145,-88.5 267,-88.5 267,-58.5 145,-58.5"/>
<text text-anchor="start" x="153" y="-76.5" font-family="Helvetica,sans-Serif" font-size="10.00" fill="#000000">cimg_library_suffixed</text>
<text text-anchor="middle" x="206" y="-65.5" font-family="Helvetica,sans-Serif" font-size="10.00" fill="#000000">::cimg::winformat_string</text>
</a>
</g>
</g>
<!-- Node916&#45;&gt;Node932 -->
<g id="edge28" class="edge">
<title>Node916&#45;&gt;Node932</title>
<path fill="none" stroke="#191970" d="M60.8217,-249.2962C73.4525,-220.2648 104.1425,-156.0452 145,-113.5 151.901,-106.3139 160.3213,-99.767 168.6755,-94.145"/>
<polygon fill="#191970" stroke="#191970" points="170.7536,-96.9705 177.291,-88.6331 166.9811,-91.074 170.7536,-96.9705"/>
</g>
<!-- Node919 -->
<g id="node4" class="node">
<title>Node919</title>
<g id="a_node4"><a xlink:href="namespacecimg__library__suffixed_1_1cimg.html#acfd3624d72ed7f79c82ec45646c685e7" target="_top" xlink:title="Display a warning message on the default output stream. ">
<polygon fill="#ffffff" stroke="#000000" points="303,-184.5 303,-214.5 412,-214.5 412,-184.5 303,-184.5"/>
<text text-anchor="start" x="311" y="-202.5" font-family="Helvetica,sans-Serif" font-size="10.00" fill="#000000">cimg_library_suffixed</text>
<text text-anchor="middle" x="357.5" y="-191.5" font-family="Helvetica,sans-Serif" font-size="10.00" fill="#000000">::cimg::warn</text>
</a>
</g>
</g>
<!-- Node918&#45;&gt;Node919 -->
<g id="edge3" class="edge">
<title>Node918&#45;&gt;Node919</title>
<path fill="none" stroke="#191970" d="M243.4494,-153.5787C263.8292,-161.7844 289.2282,-172.011 310.881,-180.7293"/>
<polygon fill="#191970" stroke="#191970" points="309.6355,-184.0008 320.2191,-184.4892 312.2501,-177.5074 309.6355,-184.0008"/>
</g>
<!-- Node929 -->
<g id="node14" class="node">
<title>Node929</title>
<g id="a_node14"><a xlink:href="namespacecimg__library__suffixed_1_1cimg.html#a01a3b743897290604513ea6d847c9886" target="_top" xlink:title="cimg_library_suffixed\l::cimg::_stdin">
<polygon fill="#ffffff" stroke="#000000" points="767,-112.5 767,-142.5 876,-142.5 876,-112.5 767,-112.5"/>
<text text-anchor="start" x="775" y="-130.5" font-family="Helvetica,sans-Serif" font-size="10.00" fill="#000000">cimg_library_suffixed</text>
<text text-anchor="middle" x="821.5" y="-119.5" font-family="Helvetica,sans-Serif" font-size="10.00" fill="#000000">::cimg::_stdin</text>
</a>
</g>
</g>
<!-- Node918&#45;&gt;Node929 -->
<g id="edge25" class="edge">
<title>Node918&#45;&gt;Node929</title>
<path fill="none" stroke="#191970" d="M225.4725,-123.4055C244.1668,-109.9413 273.7988,-91.2027 303,-83.5 486.9309,-34.9829 545.6265,-40.825 731,-83.5 751.3981,-88.1959 772.5261,-98.134 789.2326,-107.3789"/>
<polygon fill="#191970" stroke="#191970" points="787.6079,-110.4816 798.0265,-112.4059 791.0819,-104.4045 787.6079,-110.4816"/>
</g>
<!-- Node930 -->
<g id="node15" class="node">
<title>Node930</title>
<g id="a_node15"><a xlink:href="namespacecimg__library__suffixed_1_1cimg.html#a493220746e5df3466568bd7862825008" target="_top" xlink:title="cimg_library_suffixed\l::cimg::_stdout">
<polygon fill="#ffffff" stroke="#000000" points="767,-200.5 767,-230.5 876,-230.5 876,-200.5 767,-200.5"/>
<text text-anchor="start" x="775" y="-218.5" font-family="Helvetica,sans-Serif" font-size="10.00" fill="#000000">cimg_library_suffixed</text>
<text text-anchor="middle" x="821.5" y="-207.5" font-family="Helvetica,sans-Serif" font-size="10.00" fill="#000000">::cimg::_stdout</text>
</a>
</g>
</g>
<!-- Node918&#45;&gt;Node930 -->
<g id="edge26" class="edge">
<title>Node918&#45;&gt;Node930</title>
<path fill="none" stroke="#191970" d="M260.5786,-130.4476C357.8801,-118.1942 566.5292,-101.4932 731,-154.5 755.952,-162.5417 780.368,-179.7092 797.5388,-193.7891"/>
<polygon fill="#191970" stroke="#191970" points="795.4606,-196.6154 805.3566,-200.3995 799.9804,-191.2701 795.4606,-196.6154"/>
</g>
<!-- Node920 -->
<g id="node5" class="node">
<title>Node920</title>
<g id="a_node5"><a xlink:href="namespacecimg__library__suffixed_1_1cimg.html#aeafab144366eddd11360f32f468fa4af" target="_top" xlink:title="Set current &#160;exception mode. ">
<polygon fill="#ffffff" stroke="#000000" points="448,-184.5 448,-214.5 569,-214.5 569,-184.5 448,-184.5"/>
<text text-anchor="start" x="456" y="-202.5" font-family="Helvetica,sans-Serif" font-size="10.00" fill="#000000">cimg_library_suffixed</text>
<text text-anchor="middle" x="508.5" y="-191.5" font-family="Helvetica,sans-Serif" font-size="10.00" fill="#000000">::cimg::exception_mode</text>
</a>
</g>
</g>
<!-- Node919&#45;&gt;Node920 -->
<g id="edge4" class="edge">
<title>Node919&#45;&gt;Node920</title>
<path fill="none" stroke="#191970" d="M412.0145,-199.5C420.3935,-199.5 429.1471,-199.5 437.8158,-199.5"/>
<polygon fill="#191970" stroke="#191970" points="437.9255,-203.0001 447.9254,-199.5 437.9254,-196.0001 437.9255,-203.0001"/>
</g>
<!-- Node931 -->
<g id="node16" class="node">
<title>Node931</title>
<g id="a_node16"><a xlink:href="namespacecimg__library__suffixed_1_1cimg.html#ada686776cc71803df391eea79cd1b3e5" target="_top" xlink:title="Get/set default output stream for the &#160;library messages. ">
<polygon fill="#ffffff" stroke="#000000" points="613.5,-290.5 613.5,-320.5 722.5,-320.5 722.5,-290.5 613.5,-290.5"/>
<text text-anchor="start" x="621.5" y="-308.5" font-family="Helvetica,sans-Serif" font-size="10.00" fill="#000000">cimg_library_suffixed</text>
<text text-anchor="middle" x="668" y="-297.5" font-family="Helvetica,sans-Serif" font-size="10.00" fill="#000000">::cimg::output</text>
</a>
</g>
</g>
<!-- Node919&#45;&gt;Node931 -->
<g id="edge22" class="edge">
<title>Node919&#45;&gt;Node931</title>
<path fill="none" stroke="#191970" d="M401.6573,-214.5746C457.643,-233.6873 554.1047,-266.6179 614.2934,-287.1654"/>
<polygon fill="#191970" stroke="#191970" points="613.4005,-290.5588 623.995,-290.4774 615.6621,-283.9342 613.4005,-290.5588"/>
</g>
<!-- Node921 -->
<g id="node6" class="node">
<title>Node921</title>
<g id="a_node6"><a xlink:href="namespacecimg__library__suffixed_1_1cimg.html#a6c578f866de2be9be7e385d693c758c8" target="_top" xlink:title="cimg_library_suffixed\l::cimg::_exception_mode">
<polygon fill="#ffffff" stroke="#000000" points="605,-164.5 605,-194.5 731,-194.5 731,-164.5 605,-164.5"/>
<text text-anchor="start" x="613" y="-182.5" font-family="Helvetica,sans-Serif" font-size="10.00" fill="#000000">cimg_library_suffixed</text>
<text text-anchor="middle" x="668" y="-171.5" font-family="Helvetica,sans-Serif" font-size="10.00" fill="#000000">::cimg::_exception_mode</text>
</a>
</g>
</g>
<!-- Node920&#45;&gt;Node921 -->
<g id="edge5" class="edge">
<title>Node920&#45;&gt;Node921</title>
<path fill="none" stroke="#191970" d="M569.2551,-191.8818C577.6076,-190.8345 586.2552,-189.7501 594.8017,-188.6785"/>
<polygon fill="#191970" stroke="#191970" points="595.2777,-192.1463 604.7645,-187.4292 594.4067,-185.2007 595.2777,-192.1463"/>
</g>
<!-- Node922 -->
<g id="node7" class="node">
<title>Node922</title>
<g id="a_node7"><a xlink:href="namespacecimg__library__suffixed_1_1cimg.html#aab8db7528c32a8fd3a3dc471e662782e" target="_top" xlink:title="cimg_library_suffixed\l::cimg::_stderr">
<polygon fill="#ffffff" stroke="#000000" points="767,-249.5 767,-279.5 876,-279.5 876,-249.5 767,-249.5"/>
<text text-anchor="start" x="775" y="-267.5" font-family="Helvetica,sans-Serif" font-size="10.00" fill="#000000">cimg_library_suffixed</text>
<text text-anchor="middle" x="821.5" y="-256.5" font-family="Helvetica,sans-Serif" font-size="10.00" fill="#000000">::cimg::_stderr</text>
</a>
</g>
</g>
<!-- Node921&#45;&gt;Node922 -->
<g id="edge6" class="edge">
<title>Node921&#45;&gt;Node922</title>
<path fill="none" stroke="#191970" d="M690.6805,-194.7154C710.4164,-207.6517 740.0103,-226.328 767,-240.5 769.9291,-242.038 772.9775,-243.5666 776.0696,-245.0639"/>
<polygon fill="#191970" stroke="#191970" points="774.8615,-248.3631 785.4014,-249.4409 777.834,-242.0256 774.8615,-248.3631"/>
</g>
<!-- Node921&#45;&gt;Node924 -->
<g id="edge21" class="edge">
<title>Node921&#45;&gt;Node924</title>
<path fill="none" stroke="#191970" d="M731.1158,-174.5023C804.0428,-171.2214 926.164,-173.5252 1021,-214.5 1047.2486,-225.841 1072.5933,-246.5615 1089.7508,-262.527"/>
<polygon fill="#191970" stroke="#191970" points="1087.3815,-265.104 1097.0317,-269.4772 1092.2149,-260.0406 1087.3815,-265.104"/>
</g>
<!-- Node921&#45;&gt;Node929 -->
<g id="edge15" class="edge">
<title>Node921&#45;&gt;Node929</title>
<path fill="none" stroke="#191970" d="M712.3986,-164.4594C729.5816,-158.6385 749.4127,-151.9205 767.4159,-145.8216"/>
<polygon fill="#191970" stroke="#191970" points="768.8529,-149.0303 777.2012,-142.5068 766.6069,-142.4004 768.8529,-149.0303"/>
</g>
<!-- Node921&#45;&gt;Node930 -->
<g id="edge18" class="edge">
<title>Node921&#45;&gt;Node930</title>
<path fill="none" stroke="#191970" d="M731.3205,-194.3504C739.7493,-196.3272 748.4012,-198.3563 756.8522,-200.3383"/>
<polygon fill="#191970" stroke="#191970" points="756.1203,-203.7615 766.6553,-202.6374 757.7186,-196.9465 756.1203,-203.7615"/>
</g>
<!-- Node922&#45;&gt;Node920 -->
<g id="edge7" class="edge">
<title>Node922&#45;&gt;Node920</title>
<path fill="none" stroke="#191970" d="M766.6909,-254.0553C722.8712,-245.5985 659.9057,-233.2088 605,-221.5 596.575,-219.7033 587.7489,-217.7667 579.002,-215.8137"/>
<polygon fill="#191970" stroke="#191970" points="579.7098,-212.3855 569.1858,-213.6085 578.1754,-219.2153 579.7098,-212.3855"/>
</g>
<!-- Node923 -->
<g id="node8" class="node">
<title>Node923</title>
<g id="a_node8"><a xlink:href="namespacecimg__library__suffixed_1_1cimg.html#a79aef0cbcf66ceb71c2b74cb66b4deb2" target="_top" xlink:title="Avoid warning messages due to unused parameters. Do nothing actually. ">
<polygon fill="#ffffff" stroke="#000000" points="912,-223.5 912,-253.5 1021,-253.5 1021,-223.5 912,-223.5"/>
<text text-anchor="start" x="920" y="-241.5" font-family="Helvetica,sans-Serif" font-size="10.00" fill="#000000">cimg_library_suffixed</text>
<text text-anchor="middle" x="966.5" y="-230.5" font-family="Helvetica,sans-Serif" font-size="10.00" fill="#000000">::cimg::unused</text>
</a>
</g>
</g>
<!-- Node922&#45;&gt;Node923 -->
<g id="edge8" class="edge">
<title>Node922&#45;&gt;Node923</title>
<path fill="none" stroke="#191970" d="M876.3183,-254.6705C884.6188,-253.1821 893.2486,-251.6347 901.7354,-250.113"/>
<polygon fill="#191970" stroke="#191970" points="902.3789,-253.5535 911.6042,-248.3434 901.1434,-246.6634 902.3789,-253.5535"/>
</g>
<!-- Node923&#45;&gt;Node924 -->
<g id="edge9" class="edge">
<title>Node923&#45;&gt;Node924</title>
<path fill="none" stroke="#191970" d="M1013.9784,-253.5621C1026.8721,-257.6525 1040.9693,-262.1247 1054.3374,-266.3656"/>
<polygon fill="#191970" stroke="#191970" points="1053.3247,-269.7162 1063.9149,-269.404 1055.4414,-263.0439 1053.3247,-269.7162"/>
</g>
<!-- Node925 -->
<g id="node10" class="node">
<title>Node925</title>
<g id="a_node10"><a xlink:href="namespacecimg__library__suffixed_1_1cimg.html#aa0e1bc96ae6e235dc5b67b8b0a466166" target="_top" xlink:title="cimg_library_suffixed\l::cimg::Mutex_attr">
<polygon fill="#ffffff" stroke="#000000" points="1371,-316.5 1371,-346.5 1480,-346.5 1480,-316.5 1371,-316.5"/>
<text text-anchor="start" x="1379" y="-334.5" font-family="Helvetica,sans-Serif" font-size="10.00" fill="#000000">cimg_library_suffixed</text>
<text text-anchor="middle" x="1425.5" y="-323.5" font-family="Helvetica,sans-Serif" font-size="10.00" fill="#000000">::cimg::Mutex_attr</text>
</a>
</g>
</g>
<!-- Node924&#45;&gt;Node925 -->
<g id="edge10" class="edge">
<title>Node924&#45;&gt;Node925</title>
<path fill="none" stroke="#191970" d="M1131.7886,-299.66C1149.338,-311.766 1175.9275,-327.7766 1202,-334.5 1254.2267,-347.9679 1315.6233,-345.9274 1360.8381,-341.2484"/>
<polygon fill="#191970" stroke="#191970" points="1361.253,-344.724 1370.8082,-340.1471 1360.4844,-337.7663 1361.253,-344.724"/>
</g>
<!-- Node926 -->
<g id="node11" class="node">
<title>Node926</title>
<g id="a_node11"><a xlink:href="structcimg__library__suffixed_1_1cimg_1_1_mutex__info.html#afac3fa5f107ad4795fb867050f616555" target="_top" xlink:title="cimg_library_suffixed\l::cimg::Mutex_info::unlock">
<polygon fill="#ffffff" stroke="#000000" points="1202.5,-245.5 1202.5,-275.5 1334.5,-275.5 1334.5,-245.5 1202.5,-245.5"/>
<text text-anchor="start" x="1210.5" y="-263.5" font-family="Helvetica,sans-Serif" font-size="10.00" fill="#000000">cimg_library_suffixed</text>
<text text-anchor="middle" x="1268.5" y="-252.5" font-family="Helvetica,sans-Serif" font-size="10.00" fill="#000000">::cimg::Mutex_info::unlock</text>
</a>
</g>
</g>
<!-- Node924&#45;&gt;Node926 -->
<g id="edge11" class="edge">
<title>Node924&#45;&gt;Node926</title>
<path fill="none" stroke="#191970" d="M1166.411,-276.106C1174.7369,-274.8332 1183.453,-273.5008 1192.1344,-272.1737"/>
<polygon fill="#191970" stroke="#191970" points="1192.9278,-275.5932 1202.2841,-270.6222 1191.87,-268.6736 1192.9278,-275.5932"/>
</g>
<!-- Node927 -->
<g id="node12" class="node">
<title>Node927</title>
<g id="a_node12"><a xlink:href="structcimg__library__suffixed_1_1cimg_1_1_mutex__info.html#a6cc8e26847a1aa649febed03d70182e7" target="_top" xlink:title="cimg_library_suffixed\l::cimg::Mutex_info::lock">
<polygon fill="#ffffff" stroke="#000000" points="1207.5,-196.5 1207.5,-226.5 1329.5,-226.5 1329.5,-196.5 1207.5,-196.5"/>
<text text-anchor="start" x="1215.5" y="-214.5" font-family="Helvetica,sans-Serif" font-size="10.00" fill="#000000">cimg_library_suffixed</text>
<text text-anchor="middle" x="1268.5" y="-203.5" font-family="Helvetica,sans-Serif" font-size="10.00" fill="#000000">::cimg::Mutex_info::lock</text>
</a>
</g>
</g>
<!-- Node924&#45;&gt;Node927 -->
<g id="edge12" class="edge">
<title>Node924&#45;&gt;Node927</title>
<path fill="none" stroke="#191970" d="M1137.9788,-269.3011C1155.7871,-259.3682 1179.9505,-246.4428 1202,-236.5 1206.6591,-234.3991 1211.5523,-232.3232 1216.4816,-230.3195"/>
<polygon fill="#191970" stroke="#191970" points="1217.9456,-233.5042 1225.9536,-226.5672 1215.3675,-226.9963 1217.9456,-233.5042"/>
</g>
<!-- Node928 -->
<g id="node13" class="node">
<title>Node928</title>
<g id="a_node13"><a xlink:href="structcimg__library__suffixed_1_1cimg_1_1_mutex__info.html#a9bf4ed1e1dfe6f28fa6250cd04f3c900" target="_top" xlink:title="cimg_library_suffixed\l::cimg::Mutex_info::trylock">
<polygon fill="#ffffff" stroke="#000000" points="1202,-294.5 1202,-324.5 1335,-324.5 1335,-294.5 1202,-294.5"/>
<text text-anchor="start" x="1210" y="-312.5" font-family="Helvetica,sans-Serif" font-size="10.00" fill="#000000">cimg_library_suffixed</text>
<text text-anchor="middle" x="1268.5" y="-301.5" font-family="Helvetica,sans-Serif" font-size="10.00" fill="#000000">::cimg::Mutex_info::trylock</text>
</a>
</g>
</g>
<!-- Node924&#45;&gt;Node928 -->
<g id="edge13" class="edge">
<title>Node924&#45;&gt;Node928</title>
<path fill="none" stroke="#191970" d="M1166.411,-293.2438C1174.6098,-294.5493 1183.187,-295.9151 1191.7367,-297.2766"/>
<polygon fill="#191970" stroke="#191970" points="1191.3105,-300.7527 1201.7365,-298.8689 1192.4113,-293.8398 1191.3105,-300.7527"/>
</g>
<!-- Node928&#45;&gt;Node925 -->
<g id="edge14" class="edge">
<title>Node928&#45;&gt;Node925</title>
<path fill="none" stroke="#191970" d="M1335.0821,-318.83C1343.5193,-320.0123 1352.1445,-321.2209 1360.5556,-322.3995"/>
<polygon fill="#191970" stroke="#191970" points="1360.293,-325.8968 1370.682,-323.8185 1361.2645,-318.9646 1360.293,-325.8968"/>
</g>
<!-- Node929&#45;&gt;Node920 -->
<g id="edge16" class="edge">
<title>Node929&#45;&gt;Node920</title>
<path fill="none" stroke="#191970" d="M766.729,-129.6124C722.3839,-132.4395 658.691,-139.0489 605,-154.5 583.9726,-160.5512 561.7597,-170.6271 543.9529,-179.7121"/>
<polygon fill="#191970" stroke="#191970" points="542.3187,-176.6169 535.0723,-184.3461 545.5571,-182.8228 542.3187,-176.6169"/>
</g>
<!-- Node929&#45;&gt;Node923 -->
<g id="edge17" class="edge">
<title>Node929&#45;&gt;Node923</title>
<path fill="none" stroke="#191970" d="M841.3576,-142.7013C866.6302,-162.0479 910.4189,-195.569 938.9211,-217.3878"/>
<polygon fill="#191970" stroke="#191970" points="936.8142,-220.1828 946.8822,-223.4823 941.0692,-214.6245 936.8142,-220.1828"/>
</g>
<!-- Node930&#45;&gt;Node920 -->
<g id="edge19" class="edge">
<title>Node930&#45;&gt;Node920</title>
<path fill="none" stroke="#191970" d="M766.9666,-212.7124C714.8805,-210.0498 636.1092,-206.0232 579.2205,-203.1151"/>
<polygon fill="#191970" stroke="#191970" points="579.3864,-199.6191 569.2207,-202.6039 579.0289,-206.61 579.3864,-199.6191"/>
</g>
<!-- Node930&#45;&gt;Node923 -->
<g id="edge20" class="edge">
<title>Node930&#45;&gt;Node923</title>
<path fill="none" stroke="#191970" d="M876.3183,-224.1953C884.5286,-225.4976 893.0611,-226.8511 901.4586,-228.1831"/>
<polygon fill="#191970" stroke="#191970" points="901.1793,-231.6825 911.6042,-229.7924 902.276,-224.7689 901.1793,-231.6825"/>
</g>
<!-- Node931&#45;&gt;Node922 -->
<g id="edge24" class="edge">
<title>Node931&#45;&gt;Node922</title>
<path fill="none" stroke="#191970" d="M722.5506,-290.9295C733.681,-287.9566 745.4929,-284.8016 756.9341,-281.7456"/>
<polygon fill="#191970" stroke="#191970" points="758.1085,-285.0547 766.8666,-279.0926 756.3021,-278.2918 758.1085,-285.0547"/>
</g>
<!-- Node931&#45;&gt;Node924 -->
<g id="edge23" class="edge">
<title>Node931&#45;&gt;Node924</title>
<path fill="none" stroke="#191970" d="M722.8266,-302.9039C804.8644,-299.0194 959.2504,-291.7091 1046.7308,-287.5669"/>
<polygon fill="#191970" stroke="#191970" points="1046.9754,-291.0593 1056.7986,-287.0901 1046.6442,-284.0671 1046.9754,-291.0593"/>
</g>
<!-- Node933 -->
<g id="node18" class="node">
<title>Node933</title>
<g id="a_node18"><a xlink:href="namespacecimg__library__suffixed_1_1cimg.html#a9d486931d7eb759c7268b09a62cd3d28" target="_top" xlink:title="cimg_library_suffixed\l::cimg::win_fopen">
<polygon fill="#ffffff" stroke="#000000" points="303,-.5 303,-30.5 412,-30.5 412,-.5 303,-.5"/>
<text text-anchor="start" x="311" y="-18.5" font-family="Helvetica,sans-Serif" font-size="10.00" fill="#000000">cimg_library_suffixed</text>
<text text-anchor="middle" x="357.5" y="-7.5" font-family="Helvetica,sans-Serif" font-size="10.00" fill="#000000">::cimg::win_fopen</text>
</a>
</g>
</g>
<!-- Node932&#45;&gt;Node933 -->
<g id="edge29" class="edge">
<title>Node932&#45;&gt;Node933</title>
<path fill="none" stroke="#191970" d="M245.4094,-58.4126C264.7852,-50.9948 288.3182,-41.9854 308.8097,-34.1405"/>
<polygon fill="#191970" stroke="#191970" points="310.2003,-37.3559 318.288,-30.5119 307.6976,-30.8186 310.2003,-37.3559"/>
</g>
</g>
</svg>
        <g id="navigator" transform="translate(0 0)" fill="#404254">
                <rect fill="#f2f5e9" fill-opacity="0.5" stroke="#606060" stroke-width=".5" x="0" y="0" width="60" height="60"/>
                <use id="zoomplus" xlink:href="#zoomPlus" x="17" y="9" onmousedown="handleZoom(evt,'in')"/>
                <use id="zoomminus" xlink:href="#zoomMin" x="42" y="9" onmousedown="handleZoom(evt,'out')"/>
                <use id="reset" xlink:href="#resetDef" x="30" y="36" onmousedown="handleReset()"/>
                <g id="arrowUp" xlink:href="#dirArrow" transform="translate(30 24)" onmousedown="handlePan(0,-1)">
                  <use xlink:href="#rim" fill="#404040">
                        <set attributeName="fill" to="#808080" begin="arrowUp.mouseover" end="arrowUp.mouseout"/>
                  </use>
                  <path fill="none" stroke="white" stroke-width="1.5" d="M0,-3.0v7 M-2.5,-0.5L0,-3.0L2.5,-0.5"/>
                </g>
                <g id="arrowRight" xlink:href="#dirArrow" transform="rotate(90) translate(36 -43)" onmousedown="handlePan(1,0)">
                  <use xlink:href="#rim" fill="#404040">
                        <set attributeName="fill" to="#808080" begin="arrowRight.mouseover" end="arrowRight.mouseout"/>
                  </use>
                  <path fill="none" stroke="white" stroke-width="1.5" d="M0,-3.0v7 M-2.5,-0.5L0,-3.0L2.5,-0.5"/>
                </g>
                <g id="arrowDown" xlink:href="#dirArrow" transform="rotate(180) translate(-30 -48)" onmousedown="handlePan(0,1)">
                  <use xlink:href="#rim" fill="#404040">
                        <set attributeName="fill" to="#808080" begin="arrowDown.mouseover" end="arrowDown.mouseout"/>
                  </use>
                  <path fill="none" stroke="white" stroke-width="1.5" d="M0,-3.0v7 M-2.5,-0.5L0,-3.0L2.5,-0.5"/>
                </g>
                <g id="arrowLeft" xlink:href="#dirArrow" transform="rotate(270) translate(-36 17)" onmousedown="handlePan(-1,0)">
                  <use xlink:href="#rim" fill="#404040">
                        <set attributeName="fill" to="#808080" begin="arrowLeft.mouseover" end="arrowLeft.mouseout"/>
                  </use>
                  <path fill="none" stroke="white" stroke-width="1.5" d="M0,-3.0v7 M-2.5,-0.5L0,-3.0L2.5,-0.5"/>
                </g>
        </g>
        <svg viewBox="0 0 15 15" width="100%" height="30px" preserveAspectRatio="xMaxYMin meet">
         <g id="arrow_out" transform="scale(0.3 0.3)">
          <a xlink:href="namespacecimg__library__suffixed_1_1cimg_ad2459563e2ed326f303b9ac4e91744b0_cgraph_org.svg" target="_base">
           <rect id="button" ry="5" rx="5" y="6" x="6" height="38" width="38"
                fill="#f2f5e9" fill-opacity="0.5" stroke="#606060" stroke-width="1.0"/>
           <path id="arrow"
             d="M 11.500037,31.436501 C 11.940474,20.09759 22.043105,11.32322 32.158766,21.979434 L 37.068811,17.246167 C 37.068811,17.246167 37.088388,32 37.088388,32 L 22.160133,31.978069 C 22.160133,31.978069 26.997745,27.140456 26.997745,27.140456 C 18.528582,18.264221 13.291696,25.230495 11.500037,31.436501 z"
             style="fill:#404040;"/>
          </a>
         </g>
        </svg>
</svg>
