<?xml version="1.0" encoding="UTF-8" standalone="no"?>
<!DOCTYPE svg PUBLIC "-//W3C//DTD SVG 1.1//EN"
 "http://www.w3.org/Graphics/SVG/1.1/DTD/svg11.dtd">
<!-- Generated by graphviz version 2.40.1 (20161225.0304)
 -->
<!-- Title: cimg_library_suffixed::cimg::_exception_mode Pages: 1 -->
<svg width="895pt" height="224pt"
 viewBox="0.00 0.00 895.00 223.65" xmlns="http://www.w3.org/2000/svg" xmlns:xlink="http://www.w3.org/1999/xlink">
<g id="graph0" class="graph" transform="scale(1 1) rotate(0) translate(4 219.6489)">
<title>cimg_library_suffixed::cimg::_exception_mode</title>
<polygon fill="#ffffff" stroke="transparent" points="-4,4 -4,-219.6489 891,-219.6489 891,4 -4,4"/>
<!-- Node0 -->
<g id="node1" class="node">
<title>Node0</title>
<polygon fill="#bfbfbf" stroke="#000000" points="0,-69.1489 0,-99.1489 126,-99.1489 126,-69.1489 0,-69.1489"/>
<text text-anchor="start" x="8" y="-87.1489" font-family="Helvetica,sans-Serif" font-size="10.00" fill="#000000">cimg_library_suffixed</text>
<text text-anchor="middle" x="63" y="-76.1489" font-family="Helvetica,sans-Serif" font-size="10.00" fill="#000000">::cimg::_exception_mode</text>
</g>
<!-- Node1 -->
<g id="node2" class="node">
<title>Node1</title>
<g id="a_node2"><a xlink:href="namespacecimg__library__suffixed_1_1cimg.html#aab8db7528c32a8fd3a3dc471e662782e" target="_top" xlink:title="cimg_library_suffixed\l::cimg::_stderr">
<polygon fill="#ffffff" stroke="#000000" points="162,-118.1489 162,-148.1489 271,-148.1489 271,-118.1489 162,-118.1489"/>
<text text-anchor="start" x="170" y="-136.1489" font-family="Helvetica,sans-Serif" font-size="10.00" fill="#000000">cimg_library_suffixed</text>
<text text-anchor="middle" x="216.5" y="-125.1489" font-family="Helvetica,sans-Serif" font-size="10.00" fill="#000000">::cimg::_stderr</text>
</a>
</g>
</g>
<!-- Node0&#45;&gt;Node1 -->
<g id="edge1" class="edge">
<title>Node0&#45;&gt;Node1</title>
<path fill="none" stroke="#191970" d="M110.3076,-99.2504C125.8458,-104.2104 143.2816,-109.7763 159.4634,-114.9418"/>
<polygon fill="#191970" stroke="#191970" points="158.7579,-118.3905 169.3486,-118.0973 160.8866,-111.722 158.7579,-118.3905"/>
</g>
<!-- Node3 -->
<g id="node4" class="node">
<title>Node3</title>
<g id="a_node4"><a xlink:href="namespacecimg__library__suffixed_1_1cimg.html#a9e739e4b4ac058abfba069466617b914" target="_top" xlink:title="cimg_library_suffixed\l::cimg::mutex">
<polygon fill="#ffffff" stroke="#000000" points="464,-138.1489 464,-168.1489 573,-168.1489 573,-138.1489 464,-138.1489"/>
<text text-anchor="start" x="472" y="-156.1489" font-family="Helvetica,sans-Serif" font-size="10.00" fill="#000000">cimg_library_suffixed</text>
<text text-anchor="middle" x="518.5" y="-145.1489" font-family="Helvetica,sans-Serif" font-size="10.00" fill="#000000">::cimg::mutex</text>
</a>
</g>
</g>
<!-- Node0&#45;&gt;Node3 -->
<g id="edge17" class="edge">
<title>Node0&#45;&gt;Node3</title>
<path fill="none" stroke="#191970" d="M76.9787,-99.3774C94.7052,-117.4446 127.1798,-146.5735 162,-158.1489 259.7529,-190.6454 381.0717,-178.7777 454.0049,-166.4936"/>
<polygon fill="#191970" stroke="#191970" points="454.7145,-169.9228 463.9675,-164.762 453.5158,-163.0262 454.7145,-169.9228"/>
</g>
<!-- Node9 -->
<g id="node10" class="node">
<title>Node9</title>
<g id="a_node10"><a xlink:href="namespacecimg__library__suffixed_1_1cimg.html#a01a3b743897290604513ea6d847c9886" target="_top" xlink:title="cimg_library_suffixed\l::cimg::_stdin">
<polygon fill="#ffffff" stroke="#000000" points="162,-69.1489 162,-99.1489 271,-99.1489 271,-69.1489 162,-69.1489"/>
<text text-anchor="start" x="170" y="-87.1489" font-family="Helvetica,sans-Serif" font-size="10.00" fill="#000000">cimg_library_suffixed</text>
<text text-anchor="middle" x="216.5" y="-76.1489" font-family="Helvetica,sans-Serif" font-size="10.00" fill="#000000">::cimg::_stdin</text>
</a>
</g>
</g>
<!-- Node0&#45;&gt;Node9 -->
<g id="edge11" class="edge">
<title>Node0&#45;&gt;Node9</title>
<path fill="none" stroke="#191970" d="M126.3205,-84.1489C134.6577,-84.1489 143.2131,-84.1489 151.5765,-84.1489"/>
<polygon fill="#191970" stroke="#191970" points="151.6553,-87.649 161.6553,-84.1489 151.6552,-80.649 151.6553,-87.649"/>
</g>
<!-- Node10 -->
<g id="node11" class="node">
<title>Node10</title>
<g id="a_node11"><a xlink:href="namespacecimg__library__suffixed_1_1cimg.html#a493220746e5df3466568bd7862825008" target="_top" xlink:title="cimg_library_suffixed\l::cimg::_stdout">
<polygon fill="#ffffff" stroke="#000000" points="162,-20.1489 162,-50.1489 271,-50.1489 271,-20.1489 162,-20.1489"/>
<text text-anchor="start" x="170" y="-38.1489" font-family="Helvetica,sans-Serif" font-size="10.00" fill="#000000">cimg_library_suffixed</text>
<text text-anchor="middle" x="216.5" y="-27.1489" font-family="Helvetica,sans-Serif" font-size="10.00" fill="#000000">::cimg::_stdout</text>
</a>
</g>
</g>
<!-- Node0&#45;&gt;Node10 -->
<g id="edge14" class="edge">
<title>Node0&#45;&gt;Node10</title>
<path fill="none" stroke="#191970" d="M110.3076,-69.0475C125.8458,-64.0874 143.2816,-58.5216 159.4634,-53.356"/>
<polygon fill="#191970" stroke="#191970" points="160.8866,-56.5758 169.3486,-50.2005 158.7579,-49.9073 160.8866,-56.5758"/>
</g>
<!-- Node2 -->
<g id="node3" class="node">
<title>Node2</title>
<g id="a_node3"><a xlink:href="namespacecimg__library__suffixed_1_1cimg.html#a79aef0cbcf66ceb71c2b74cb66b4deb2" target="_top" xlink:title="Avoid warning messages due to unused parameters. Do nothing actually. ">
<polygon fill="#ffffff" stroke="#000000" points="313,-92.1489 313,-122.1489 422,-122.1489 422,-92.1489 313,-92.1489"/>
<text text-anchor="start" x="321" y="-110.1489" font-family="Helvetica,sans-Serif" font-size="10.00" fill="#000000">cimg_library_suffixed</text>
<text text-anchor="middle" x="367.5" y="-99.1489" font-family="Helvetica,sans-Serif" font-size="10.00" fill="#000000">::cimg::unused</text>
</a>
</g>
</g>
<!-- Node1&#45;&gt;Node2 -->
<g id="edge2" class="edge">
<title>Node1&#45;&gt;Node2</title>
<path fill="none" stroke="#191970" d="M271.0145,-123.7623C281.3213,-121.9876 292.1949,-120.1154 302.7799,-118.2928"/>
<polygon fill="#191970" stroke="#191970" points="303.551,-121.7116 312.8121,-116.5654 302.3632,-114.8131 303.551,-121.7116"/>
</g>
<!-- Node8 -->
<g id="node9" class="node">
<title>Node8</title>
<g id="a_node9"><a xlink:href="namespacecimg__library__suffixed_1_1cimg.html#aeafab144366eddd11360f32f468fa4af" target="_top" xlink:title="Set current &#160;exception mode. ">
<polygon fill="#ffffff" stroke="#000000" points="307,-43.1489 307,-73.1489 428,-73.1489 428,-43.1489 307,-43.1489"/>
<text text-anchor="start" x="315" y="-61.1489" font-family="Helvetica,sans-Serif" font-size="10.00" fill="#000000">cimg_library_suffixed</text>
<text text-anchor="middle" x="367.5" y="-50.1489" font-family="Helvetica,sans-Serif" font-size="10.00" fill="#000000">::cimg::exception_mode</text>
</a>
</g>
</g>
<!-- Node1&#45;&gt;Node8 -->
<g id="edge9" class="edge">
<title>Node1&#45;&gt;Node8</title>
<path fill="none" stroke="#191970" d="M253.6658,-118.0435C259.5686,-115.2867 265.5275,-112.2833 271,-109.1489 288.1263,-99.3397 289.7622,-92.7609 307,-83.1489 310.4741,-81.2117 314.1291,-79.3369 317.8507,-77.5437"/>
<polygon fill="#191970" stroke="#191970" points="319.5447,-80.6173 327.1732,-73.265 316.6248,-74.2553 319.5447,-80.6173"/>
</g>
<!-- Node2&#45;&gt;Node3 -->
<g id="edge3" class="edge">
<title>Node2&#45;&gt;Node3</title>
<path fill="none" stroke="#191970" d="M416.943,-122.211C430.5705,-126.3625 445.4889,-130.9071 459.5943,-135.2041"/>
<polygon fill="#191970" stroke="#191970" points="458.6179,-138.5654 469.2039,-138.1316 460.6579,-131.8693 458.6179,-138.5654"/>
</g>
<!-- Node4 -->
<g id="node5" class="node">
<title>Node4</title>
<g id="a_node5"><a xlink:href="namespacecimg__library__suffixed_1_1cimg.html#aa0e1bc96ae6e235dc5b67b8b0a466166" target="_top" xlink:title="cimg_library_suffixed\l::cimg::Mutex_attr">
<polygon fill="#ffffff" stroke="#000000" points="778,-185.1489 778,-215.1489 887,-215.1489 887,-185.1489 778,-185.1489"/>
<text text-anchor="start" x="786" y="-203.1489" font-family="Helvetica,sans-Serif" font-size="10.00" fill="#000000">cimg_library_suffixed</text>
<text text-anchor="middle" x="832.5" y="-192.1489" font-family="Helvetica,sans-Serif" font-size="10.00" fill="#000000">::cimg::Mutex_attr</text>
</a>
</g>
</g>
<!-- Node3&#45;&gt;Node4 -->
<g id="edge4" class="edge">
<title>Node3&#45;&gt;Node4</title>
<path fill="none" stroke="#191970" d="M538.7886,-168.3089C556.338,-180.415 582.9275,-196.4255 609,-203.1489 661.2267,-216.6168 722.6233,-214.5763 767.8381,-209.8973"/>
<polygon fill="#191970" stroke="#191970" points="768.253,-213.3729 777.8082,-208.796 767.4844,-206.4152 768.253,-213.3729"/>
</g>
<!-- Node5 -->
<g id="node6" class="node">
<title>Node5</title>
<g id="a_node6"><a xlink:href="structcimg__library__suffixed_1_1cimg_1_1_mutex__info.html#afac3fa5f107ad4795fb867050f616555" target="_top" xlink:title="cimg_library_suffixed\l::cimg::Mutex_info::unlock">
<polygon fill="#ffffff" stroke="#000000" points="609.5,-114.1489 609.5,-144.1489 741.5,-144.1489 741.5,-114.1489 609.5,-114.1489"/>
<text text-anchor="start" x="617.5" y="-132.1489" font-family="Helvetica,sans-Serif" font-size="10.00" fill="#000000">cimg_library_suffixed</text>
<text text-anchor="middle" x="675.5" y="-121.1489" font-family="Helvetica,sans-Serif" font-size="10.00" fill="#000000">::cimg::Mutex_info::unlock</text>
</a>
</g>
</g>
<!-- Node3&#45;&gt;Node5 -->
<g id="edge5" class="edge">
<title>Node3&#45;&gt;Node5</title>
<path fill="none" stroke="#191970" d="M573.411,-144.7549C581.7369,-143.4821 590.453,-142.1497 599.1344,-140.8226"/>
<polygon fill="#191970" stroke="#191970" points="599.9278,-144.2421 609.2841,-139.2711 598.87,-137.3225 599.9278,-144.2421"/>
</g>
<!-- Node6 -->
<g id="node7" class="node">
<title>Node6</title>
<g id="a_node7"><a xlink:href="structcimg__library__suffixed_1_1cimg_1_1_mutex__info.html#a6cc8e26847a1aa649febed03d70182e7" target="_top" xlink:title="cimg_library_suffixed\l::cimg::Mutex_info::lock">
<polygon fill="#ffffff" stroke="#000000" points="614.5,-65.1489 614.5,-95.1489 736.5,-95.1489 736.5,-65.1489 614.5,-65.1489"/>
<text text-anchor="start" x="622.5" y="-83.1489" font-family="Helvetica,sans-Serif" font-size="10.00" fill="#000000">cimg_library_suffixed</text>
<text text-anchor="middle" x="675.5" y="-72.1489" font-family="Helvetica,sans-Serif" font-size="10.00" fill="#000000">::cimg::Mutex_info::lock</text>
</a>
</g>
</g>
<!-- Node3&#45;&gt;Node6 -->
<g id="edge6" class="edge">
<title>Node3&#45;&gt;Node6</title>
<path fill="none" stroke="#191970" d="M544.9788,-137.9501C562.7871,-128.0172 586.9505,-115.0917 609,-105.1489 613.6591,-103.048 618.5523,-100.9722 623.4816,-98.9684"/>
<polygon fill="#191970" stroke="#191970" points="624.9456,-102.1531 632.9536,-95.2161 622.3675,-95.6452 624.9456,-102.1531"/>
</g>
<!-- Node7 -->
<g id="node8" class="node">
<title>Node7</title>
<g id="a_node8"><a xlink:href="structcimg__library__suffixed_1_1cimg_1_1_mutex__info.html#a9bf4ed1e1dfe6f28fa6250cd04f3c900" target="_top" xlink:title="cimg_library_suffixed\l::cimg::Mutex_info::trylock">
<polygon fill="#ffffff" stroke="#000000" points="609,-163.1489 609,-193.1489 742,-193.1489 742,-163.1489 609,-163.1489"/>
<text text-anchor="start" x="617" y="-181.1489" font-family="Helvetica,sans-Serif" font-size="10.00" fill="#000000">cimg_library_suffixed</text>
<text text-anchor="middle" x="675.5" y="-170.1489" font-family="Helvetica,sans-Serif" font-size="10.00" fill="#000000">::cimg::Mutex_info::trylock</text>
</a>
</g>
</g>
<!-- Node3&#45;&gt;Node7 -->
<g id="edge7" class="edge">
<title>Node3&#45;&gt;Node7</title>
<path fill="none" stroke="#191970" d="M573.411,-161.8927C581.6098,-163.1982 590.187,-164.564 598.7367,-165.9255"/>
<polygon fill="#191970" stroke="#191970" points="598.3105,-169.4016 608.7365,-167.5178 599.4113,-162.4887 598.3105,-169.4016"/>
</g>
<!-- Node7&#45;&gt;Node4 -->
<g id="edge8" class="edge">
<title>Node7&#45;&gt;Node4</title>
<path fill="none" stroke="#191970" d="M742.0821,-187.4789C750.5193,-188.6612 759.1445,-189.8698 767.5556,-191.0484"/>
<polygon fill="#191970" stroke="#191970" points="767.293,-194.5458 777.682,-192.4674 768.2645,-187.6135 767.293,-194.5458"/>
</g>
<!-- Node8&#45;&gt;Node0 -->
<g id="edge10" class="edge">
<title>Node8&#45;&gt;Node0</title>
<path fill="none" stroke="#191970" d="M344.8609,-43.1104C325.9996,-31.5367 297.9589,-16.4835 271,-10.1489 223.84,.9324 207.9708,5.1334 162,-10.1489 131.5324,-20.2774 102.8605,-43.8453 84.2933,-61.6826"/>
<polygon fill="#191970" stroke="#191970" points="81.6252,-59.3988 76.9787,-68.9205 86.5488,-64.3746 81.6252,-59.3988"/>
</g>
<!-- Node9&#45;&gt;Node2 -->
<g id="edge12" class="edge">
<title>Node9&#45;&gt;Node2</title>
<path fill="none" stroke="#191970" d="M271.0145,-92.4524C281.3213,-94.0224 292.1949,-95.6786 302.7799,-97.2909"/>
<polygon fill="#191970" stroke="#191970" points="302.399,-100.7732 312.8121,-98.819 303.4532,-93.853 302.399,-100.7732"/>
</g>
<!-- Node9&#45;&gt;Node8 -->
<g id="edge13" class="edge">
<title>Node9&#45;&gt;Node8</title>
<path fill="none" stroke="#191970" d="M271.0145,-74.7623C279.3935,-73.3196 288.1471,-71.8123 296.8158,-70.3197"/>
<polygon fill="#191970" stroke="#191970" points="297.6644,-73.7252 306.9254,-68.579 296.4765,-66.8267 297.6644,-73.7252"/>
</g>
<!-- Node10&#45;&gt;Node2 -->
<g id="edge15" class="edge">
<title>Node10&#45;&gt;Node2</title>
<path fill="none" stroke="#191970" d="M252.9322,-50.2607C259.0418,-53.059 265.2582,-56.074 271,-59.1489 287.7376,-68.1125 290.1606,-73.3781 307,-82.1489 310.7988,-84.1275 314.7902,-86.0653 318.8354,-87.9316"/>
<polygon fill="#191970" stroke="#191970" points="317.7464,-91.2777 328.3059,-92.1415 320.5898,-84.8812 317.7464,-91.2777"/>
</g>
<!-- Node10&#45;&gt;Node8 -->
<g id="edge16" class="edge">
<title>Node10&#45;&gt;Node8</title>
<path fill="none" stroke="#191970" d="M271.0145,-43.4524C279.3935,-44.7287 288.1471,-46.0621 296.8158,-47.3824"/>
<polygon fill="#191970" stroke="#191970" points="296.5124,-50.8765 306.9254,-48.9223 297.5665,-43.9563 296.5124,-50.8765"/>
</g>
</g>
</svg>
