<?xml version="1.0" encoding="UTF-8" standalone="no"?>
<!DOCTYPE svg PUBLIC "-//W3C//DTD SVG 1.1//EN"
 "http://www.w3.org/Graphics/SVG/1.1/DTD/svg11.dtd">
<!-- Generated by graphviz version 2.40.1 (20161225.0304)
 -->
<!-- Title: cimg_library_suffixed::cimg::invert_endianness Pages: 1 -->
<svg width="318pt" height="855pt"
 viewBox="0.00 0.00 318.00 854.50" xmlns="http://www.w3.org/2000/svg" xmlns:xlink="http://www.w3.org/1999/xlink">
<g id="graph0" class="graph" transform="scale(1 1) rotate(0) translate(4 850.5)">
<title>cimg_library_suffixed::cimg::invert_endianness</title>
<polygon fill="#ffffff" stroke="transparent" points="-4,4 -4,-850.5 314,-850.5 314,4 -4,4"/>
<!-- Node1925 -->
<g id="node1" class="node">
<title>Node1925</title>
<polygon fill="#bfbfbf" stroke="#000000" points="0,-413.5 0,-443.5 128,-443.5 128,-413.5 0,-413.5"/>
<text text-anchor="start" x="8" y="-431.5" font-family="Helvetica,sans-Serif" font-size="10.00" fill="#000000">cimg_library_suffixed</text>
<text text-anchor="middle" x="64" y="-420.5" font-family="Helvetica,sans-Serif" font-size="10.00" fill="#000000">::cimg::invert_endianness</text>
</g>
<!-- Node1926 -->
<g id="node2" class="node">
<title>Node1926</title>
<g id="a_node2"><a xlink:href="structcimg__library__suffixed_1_1_c_img.html#a01444df91267a5b4cb8105ac5886f12f" target="_top" xlink:title="cimg_library_suffixed\l::CImg\&lt; charT \&gt;::_load\l_analyze">
<polygon fill="#ffffff" stroke="#000000" points="177.5,-805 177.5,-846 296.5,-846 296.5,-805 177.5,-805"/>
<text text-anchor="start" x="185.5" y="-834" font-family="Helvetica,sans-Serif" font-size="10.00" fill="#000000">cimg_library_suffixed</text>
<text text-anchor="start" x="185.5" y="-823" font-family="Helvetica,sans-Serif" font-size="10.00" fill="#000000">::CImg&lt; charT &gt;::_load</text>
<text text-anchor="middle" x="237" y="-812" font-family="Helvetica,sans-Serif" font-size="10.00" fill="#000000">_analyze</text>
</a>
</g>
</g>
<!-- Node1925&#45;&gt;Node1926 -->
<g id="edge1" class="edge">
<title>Node1925&#45;&gt;Node1926</title>
<path fill="none" stroke="#191970" d="M67.962,-454.0259C79.966,-528.4688 117.949,-743.3583 164,-795.5 167.8096,-799.8134 172.334,-803.519 177.2363,-806.7001"/>
<polygon fill="#191970" stroke="#191970" points="71.349,-453.0386 66.3211,-443.7128 64.4359,-454.1386 71.349,-453.0386"/>
</g>
<!-- Node1927 -->
<g id="node3" class="node">
<title>Node1927</title>
<g id="a_node3"><a xlink:href="structcimg__library__suffixed_1_1_c_img.html#abca75206a158250ae62f9f66e8da76c6" target="_top" xlink:title="cimg_library_suffixed\l::CImg\&lt; charT \&gt;::_load\l_pandore">
<polygon fill="#ffffff" stroke="#000000" points="177.5,-745 177.5,-786 296.5,-786 296.5,-745 177.5,-745"/>
<text text-anchor="start" x="185.5" y="-774" font-family="Helvetica,sans-Serif" font-size="10.00" fill="#000000">cimg_library_suffixed</text>
<text text-anchor="start" x="185.5" y="-763" font-family="Helvetica,sans-Serif" font-size="10.00" fill="#000000">::CImg&lt; charT &gt;::_load</text>
<text text-anchor="middle" x="237" y="-752" font-family="Helvetica,sans-Serif" font-size="10.00" fill="#000000">_pandore</text>
</a>
</g>
</g>
<!-- Node1925&#45;&gt;Node1927 -->
<g id="edge2" class="edge">
<title>Node1925&#45;&gt;Node1927</title>
<path fill="none" stroke="#191970" d="M65.2801,-453.8503C69.5042,-511.354 87.5366,-653.0736 164,-735.5 167.9138,-739.7191 172.5084,-743.3612 177.4549,-746.5023"/>
<polygon fill="#191970" stroke="#191970" points="68.7693,-453.5699 64.6235,-443.8199 61.7843,-454.0272 68.7693,-453.5699"/>
</g>
<!-- Node1928 -->
<g id="node4" class="node">
<title>Node1928</title>
<g id="a_node4"><a xlink:href="structcimg__library__suffixed_1_1_c_img.html#a0735cc3a6a6f0639ff34e98086cb7992" target="_top" xlink:title="cimg_library_suffixed\l::CImg\&lt; charT \&gt;::_load_pfm">
<polygon fill="#ffffff" stroke="#000000" points="167,-695.5 167,-725.5 307,-725.5 307,-695.5 167,-695.5"/>
<text text-anchor="start" x="175" y="-713.5" font-family="Helvetica,sans-Serif" font-size="10.00" fill="#000000">cimg_library_suffixed</text>
<text text-anchor="middle" x="237" y="-702.5" font-family="Helvetica,sans-Serif" font-size="10.00" fill="#000000">::CImg&lt; charT &gt;::_load_pfm</text>
</a>
</g>
</g>
<!-- Node1925&#45;&gt;Node1928 -->
<g id="edge3" class="edge">
<title>Node1925&#45;&gt;Node1928</title>
<path fill="none" stroke="#191970" d="M66.6873,-453.9709C73.4518,-505.3042 95.8332,-621.7974 164,-686.5 167.5802,-689.8982 171.6504,-692.8155 175.9942,-695.3199"/>
<polygon fill="#191970" stroke="#191970" points="70.1278,-453.2704 65.4386,-443.7698 63.1797,-454.121 70.1278,-453.2704"/>
</g>
<!-- Node1929 -->
<g id="node5" class="node">
<title>Node1929</title>
<g id="a_node5"><a xlink:href="structcimg__library__suffixed_1_1_c_img.html#a8cde6f74b600005d95497c4834a686b4" target="_top" xlink:title="cimg_library_suffixed\l::CImg\&lt; charT \&gt;::_load_png">
<polygon fill="#ffffff" stroke="#000000" points="167,-646.5 167,-676.5 307,-676.5 307,-646.5 167,-646.5"/>
<text text-anchor="start" x="175" y="-664.5" font-family="Helvetica,sans-Serif" font-size="10.00" fill="#000000">cimg_library_suffixed</text>
<text text-anchor="middle" x="237" y="-653.5" font-family="Helvetica,sans-Serif" font-size="10.00" fill="#000000">::CImg&lt; charT &gt;::_load_png</text>
</a>
</g>
</g>
<!-- Node1925&#45;&gt;Node1929 -->
<g id="edge4" class="edge">
<title>Node1925&#45;&gt;Node1929</title>
<path fill="none" stroke="#191970" d="M69.1668,-453.3742C79.4942,-496.9444 106.7827,-587.2073 164,-637.5 167.9079,-640.935 172.3194,-643.8804 176.9903,-646.4056"/>
<polygon fill="#191970" stroke="#191970" points="72.5749,-452.5766 66.9509,-443.5977 65.748,-454.124 72.5749,-452.5766"/>
</g>
<!-- Node1930 -->
<g id="node6" class="node">
<title>Node1930</title>
<g id="a_node6"><a xlink:href="structcimg__library__suffixed_1_1_c_img.html#a4ee4502761ce479392f2641211a5694f" target="_top" xlink:title="cimg_library_suffixed\l::CImg\&lt; charT \&gt;::_load_pnm">
<polygon fill="#ffffff" stroke="#000000" points="165.5,-597.5 165.5,-627.5 308.5,-627.5 308.5,-597.5 165.5,-597.5"/>
<text text-anchor="start" x="173.5" y="-615.5" font-family="Helvetica,sans-Serif" font-size="10.00" fill="#000000">cimg_library_suffixed</text>
<text text-anchor="middle" x="237" y="-604.5" font-family="Helvetica,sans-Serif" font-size="10.00" fill="#000000">::CImg&lt; charT &gt;::_load_pnm</text>
</a>
</g>
</g>
<!-- Node1925&#45;&gt;Node1930 -->
<g id="edge5" class="edge">
<title>Node1925&#45;&gt;Node1930</title>
<path fill="none" stroke="#191970" d="M73.1034,-453.222C87.2485,-488.2975 117.7787,-552.2619 164,-588.5 168.4095,-591.9571 173.3371,-594.9259 178.494,-597.4735"/>
<polygon fill="#191970" stroke="#191970" points="76.295,-451.7731 69.3942,-443.7339 69.7754,-454.3218 76.295,-451.7731"/>
</g>
<!-- Node1931 -->
<g id="node7" class="node">
<title>Node1931</title>
<g id="a_node7"><a xlink:href="structcimg__library__suffixed_1_1_c_img.html#ac35f14b0a2ad7b9a7921a150c1056fd5" target="_top" xlink:title="cimg_library_suffixed\l::CImg\&lt; charT \&gt;::_load_raw">
<polygon fill="#ffffff" stroke="#000000" points="167,-548.5 167,-578.5 307,-578.5 307,-548.5 167,-548.5"/>
<text text-anchor="start" x="175" y="-566.5" font-family="Helvetica,sans-Serif" font-size="10.00" fill="#000000">cimg_library_suffixed</text>
<text text-anchor="middle" x="237" y="-555.5" font-family="Helvetica,sans-Serif" font-size="10.00" fill="#000000">::CImg&lt; charT &gt;::_load_raw</text>
</a>
</g>
</g>
<!-- Node1925&#45;&gt;Node1931 -->
<g id="edge6" class="edge">
<title>Node1925&#45;&gt;Node1931</title>
<path fill="none" stroke="#191970" d="M79.7986,-451.9578C97.5845,-476.7053 128.656,-515.2697 164,-538.5 169.8212,-542.3261 176.2895,-545.6293 182.9019,-548.4642"/>
<polygon fill="#191970" stroke="#191970" points="82.4794,-449.6855 73.8637,-443.5195 76.7538,-453.7125 82.4794,-449.6855"/>
</g>
<!-- Node1932 -->
<g id="node8" class="node">
<title>Node1932</title>
<g id="a_node8"><a xlink:href="structcimg__library__suffixed_1_1_c_img_list.html#af99c31c0d24c46734145e1910ca44323" target="_top" xlink:title="cimg_library_suffixed\l::CImgList\&lt; charT \&gt;::\l_save_cimg">
<polygon fill="#ffffff" stroke="#000000" points="181.5,-488 181.5,-529 292.5,-529 292.5,-488 181.5,-488"/>
<text text-anchor="start" x="189.5" y="-517" font-family="Helvetica,sans-Serif" font-size="10.00" fill="#000000">cimg_library_suffixed</text>
<text text-anchor="start" x="189.5" y="-506" font-family="Helvetica,sans-Serif" font-size="10.00" fill="#000000">::CImgList&lt; charT &gt;::</text>
<text text-anchor="middle" x="237" y="-495" font-family="Helvetica,sans-Serif" font-size="10.00" fill="#000000">_save_cimg</text>
</a>
</g>
</g>
<!-- Node1925&#45;&gt;Node1932 -->
<g id="edge7" class="edge">
<title>Node1925&#45;&gt;Node1932</title>
<path fill="none" stroke="#191970" d="M101.6455,-448.1453C120.2539,-457.6445 143.1406,-469.0146 164,-478.5 170.9849,-481.6763 178.4071,-484.8985 185.741,-487.9945"/>
<polygon fill="#191970" stroke="#191970" points="103.1056,-444.9606 92.6107,-443.5089 99.9096,-451.1885 103.1056,-444.9606"/>
</g>
<!-- Node1933 -->
<g id="node9" class="node">
<title>Node1933</title>
<g id="a_node9"><a xlink:href="structcimg__library__suffixed_1_1_c_img.html#a65be74d7d22bb71e708b3beb8e9cae49" target="_top" xlink:title="cimg_library_suffixed\l::CImg\&lt; charT \&gt;::_save_pfm">
<polygon fill="#ffffff" stroke="#000000" points="165.5,-438.5 165.5,-468.5 308.5,-468.5 308.5,-438.5 165.5,-438.5"/>
<text text-anchor="start" x="173.5" y="-456.5" font-family="Helvetica,sans-Serif" font-size="10.00" fill="#000000">cimg_library_suffixed</text>
<text text-anchor="middle" x="237" y="-445.5" font-family="Helvetica,sans-Serif" font-size="10.00" fill="#000000">::CImg&lt; charT &gt;::_save_pfm</text>
</a>
</g>
</g>
<!-- Node1925&#45;&gt;Node1933 -->
<g id="edge8" class="edge">
<title>Node1925&#45;&gt;Node1933</title>
<path fill="none" stroke="#191970" d="M138.3852,-439.2493C147.2968,-440.5371 156.3834,-441.8502 165.2565,-443.1324"/>
<polygon fill="#191970" stroke="#191970" points="138.8166,-435.7754 128.4188,-437.8091 137.8154,-442.7034 138.8166,-435.7754"/>
</g>
<!-- Node1934 -->
<g id="node10" class="node">
<title>Node1934</title>
<g id="a_node10"><a xlink:href="structcimg__library__suffixed_1_1_c_img.html#aab5e304310373159e357250314e99da6" target="_top" xlink:title="cimg_library_suffixed\l::CImg\&lt; charT \&gt;::_save_png">
<polygon fill="#ffffff" stroke="#000000" points="165.5,-389.5 165.5,-419.5 308.5,-419.5 308.5,-389.5 165.5,-389.5"/>
<text text-anchor="start" x="173.5" y="-407.5" font-family="Helvetica,sans-Serif" font-size="10.00" fill="#000000">cimg_library_suffixed</text>
<text text-anchor="middle" x="237" y="-396.5" font-family="Helvetica,sans-Serif" font-size="10.00" fill="#000000">::CImg&lt; charT &gt;::_save_png</text>
</a>
</g>
</g>
<!-- Node1925&#45;&gt;Node1934 -->
<g id="edge9" class="edge">
<title>Node1925&#45;&gt;Node1934</title>
<path fill="none" stroke="#191970" d="M138.3852,-418.1807C147.2968,-416.9444 156.3834,-415.6838 165.2565,-414.4529"/>
<polygon fill="#191970" stroke="#191970" points="137.843,-414.7223 128.4188,-419.5633 138.8049,-421.6559 137.843,-414.7223"/>
</g>
<!-- Node1935 -->
<g id="node11" class="node">
<title>Node1935</title>
<g id="a_node11"><a xlink:href="structcimg__library__suffixed_1_1_c_img.html#a3b62455c9523881fa64a47d8362c3d80" target="_top" xlink:title="cimg_library_suffixed\l::CImg\&lt; charT \&gt;::_save_pnm">
<polygon fill="#ffffff" stroke="#000000" points="164,-340.5 164,-370.5 310,-370.5 310,-340.5 164,-340.5"/>
<text text-anchor="start" x="172" y="-358.5" font-family="Helvetica,sans-Serif" font-size="10.00" fill="#000000">cimg_library_suffixed</text>
<text text-anchor="middle" x="237" y="-347.5" font-family="Helvetica,sans-Serif" font-size="10.00" fill="#000000">::CImg&lt; charT &gt;::_save_pnm</text>
</a>
</g>
</g>
<!-- Node1925&#45;&gt;Node1935 -->
<g id="edge10" class="edge">
<title>Node1925&#45;&gt;Node1935</title>
<path fill="none" stroke="#191970" d="M102.2999,-408.8124C120.7245,-399.6791 143.2667,-388.9918 164,-380.5 172.4298,-377.0474 181.5319,-373.665 190.3543,-370.5593"/>
<polygon fill="#191970" stroke="#191970" points="100.722,-405.6882 93.3426,-413.2904 103.8522,-411.9493 100.722,-405.6882"/>
</g>
<!-- Node1936 -->
<g id="node12" class="node">
<title>Node1936</title>
<g id="a_node12"><a xlink:href="structcimg__library__suffixed_1_1_c_img.html#a03c7c625ebac464ac598586501eaf342" target="_top" xlink:title="Load image from a raw binary file . ">
<polygon fill="#ffffff" stroke="#000000" points="182.5,-280 182.5,-321 291.5,-321 291.5,-280 182.5,-280"/>
<text text-anchor="start" x="190.5" y="-309" font-family="Helvetica,sans-Serif" font-size="10.00" fill="#000000">cimg_library_suffixed</text>
<text text-anchor="start" x="190.5" y="-298" font-family="Helvetica,sans-Serif" font-size="10.00" fill="#000000">::CImg&lt; charT &gt;::get</text>
<text text-anchor="middle" x="237" y="-287" font-family="Helvetica,sans-Serif" font-size="10.00" fill="#000000">_load_raw</text>
</a>
</g>
</g>
<!-- Node1925&#45;&gt;Node1936 -->
<g id="edge11" class="edge">
<title>Node1925&#45;&gt;Node1936</title>
<path fill="none" stroke="#191970" d="M83.1212,-405.5998C101.9364,-384.2021 132.3698,-352.4898 164,-331.5 169.7364,-327.6934 176.0167,-324.1911 182.4097,-321.0196"/>
<polygon fill="#191970" stroke="#191970" points="80.3968,-403.3994 76.5007,-413.2519 85.6905,-407.9795 80.3968,-403.3994"/>
</g>
<!-- Node1937 -->
<g id="node13" class="node">
<title>Node1937</title>
<g id="a_node13"><a xlink:href="structcimg__library__suffixed_1_1_c_img_list.html#a6ef5394483360f2220873d2b8b856789" target="_top" xlink:title="Serialize a CImgList&lt;T&gt; instance into a raw CImg&lt;unsigned char&gt; buffer. ">
<polygon fill="#ffffff" stroke="#000000" points="181.5,-220 181.5,-261 292.5,-261 292.5,-220 181.5,-220"/>
<text text-anchor="start" x="189.5" y="-249" font-family="Helvetica,sans-Serif" font-size="10.00" fill="#000000">cimg_library_suffixed</text>
<text text-anchor="start" x="189.5" y="-238" font-family="Helvetica,sans-Serif" font-size="10.00" fill="#000000">::CImgList&lt; charT &gt;::</text>
<text text-anchor="middle" x="237" y="-227" font-family="Helvetica,sans-Serif" font-size="10.00" fill="#000000">get_serialize</text>
</a>
</g>
</g>
<!-- Node1925&#45;&gt;Node1937 -->
<g id="edge12" class="edge">
<title>Node1925&#45;&gt;Node1937</title>
<path fill="none" stroke="#191970" d="M73.7689,-404.0054C88.5458,-369.7947 119.6411,-307.7284 164,-270.5 169.2478,-266.0958 175.2304,-262.2675 181.4606,-258.9583"/>
<polygon fill="#191970" stroke="#191970" points="70.5224,-402.6965 69.8728,-413.2714 76.9753,-405.4097 70.5224,-402.6965"/>
</g>
<!-- Node1938 -->
<g id="node14" class="node">
<title>Node1938</title>
<g id="a_node14"><a xlink:href="namespacecimg__library__suffixed_1_1cimg.html#aaa2e6e8ccab85cc7fc7b9f02060965a2" target="_top" xlink:title="Reverse endianness of a single variable. ">
<polygon fill="#ffffff" stroke="#000000" points="173,-170.5 173,-200.5 301,-200.5 301,-170.5 173,-170.5"/>
<text text-anchor="start" x="181" y="-188.5" font-family="Helvetica,sans-Serif" font-size="10.00" fill="#000000">cimg_library_suffixed</text>
<text text-anchor="middle" x="237" y="-177.5" font-family="Helvetica,sans-Serif" font-size="10.00" fill="#000000">::cimg::invert_endianness</text>
</a>
</g>
</g>
<!-- Node1925&#45;&gt;Node1938 -->
<g id="edge13" class="edge">
<title>Node1925&#45;&gt;Node1938</title>
<path fill="none" stroke="#191970" d="M68.7038,-403.5891C78.464,-358.656 105.1086,-263.7712 164,-210.5 168.2719,-206.6357 173.1684,-203.3643 178.3589,-200.5956"/>
<polygon fill="#191970" stroke="#191970" points="65.2758,-402.8833 66.6741,-413.3855 72.1302,-404.3036 65.2758,-402.8833"/>
</g>
<!-- Node1939 -->
<g id="node15" class="node">
<title>Node1939</title>
<g id="a_node15"><a xlink:href="structcimg__library__suffixed_1_1_c_img.html#a22c014ba48da63fedb942dca9df883c2" target="_top" xlink:title="Invert endianness of all pixel values. ">
<polygon fill="#ffffff" stroke="#000000" points="177.5,-110 177.5,-151 296.5,-151 296.5,-110 177.5,-110"/>
<text text-anchor="start" x="185.5" y="-139" font-family="Helvetica,sans-Serif" font-size="10.00" fill="#000000">cimg_library_suffixed</text>
<text text-anchor="start" x="185.5" y="-128" font-family="Helvetica,sans-Serif" font-size="10.00" fill="#000000">::CImg&lt; charT &gt;::invert</text>
<text text-anchor="middle" x="237" y="-117" font-family="Helvetica,sans-Serif" font-size="10.00" fill="#000000">_endianness</text>
</a>
</g>
</g>
<!-- Node1925&#45;&gt;Node1939 -->
<g id="edge14" class="edge">
<title>Node1925&#45;&gt;Node1939</title>
<path fill="none" stroke="#191970" d="M66.7901,-403.3358C73.8053,-351.49 96.7182,-231.7544 164,-161.5 167.9046,-157.4228 172.431,-153.8565 177.2798,-150.7419"/>
<polygon fill="#191970" stroke="#191970" points="63.3091,-402.9658 65.5242,-413.3265 70.2536,-403.8458 63.3091,-402.9658"/>
</g>
<!-- Node1940 -->
<g id="node16" class="node">
<title>Node1940</title>
<g id="a_node16"><a xlink:href="structcimg__library__suffixed_1_1_c_img_list.html#affbfd21835dfd5c00fe98cc71c7760c2" target="_top" xlink:title="Load a list from a PAR/REC (Philips) file. ">
<polygon fill="#ffffff" stroke="#000000" points="181.5,-50 181.5,-91 292.5,-91 292.5,-50 181.5,-50"/>
<text text-anchor="start" x="189.5" y="-79" font-family="Helvetica,sans-Serif" font-size="10.00" fill="#000000">cimg_library_suffixed</text>
<text text-anchor="start" x="189.5" y="-68" font-family="Helvetica,sans-Serif" font-size="10.00" fill="#000000">::CImgList&lt; charT &gt;::</text>
<text text-anchor="middle" x="237" y="-57" font-family="Helvetica,sans-Serif" font-size="10.00" fill="#000000">load_parrec</text>
</a>
</g>
</g>
<!-- Node1925&#45;&gt;Node1940 -->
<g id="edge15" class="edge">
<title>Node1925&#45;&gt;Node1940</title>
<path fill="none" stroke="#191970" d="M68.7644,-403.4097C82.2206,-334.8408 122.2548,-146.3656 164,-100.5 168.8882,-95.1293 174.8813,-90.6966 181.3122,-87.0437"/>
<polygon fill="#191970" stroke="#191970" points="65.3057,-402.8613 66.8368,-413.3449 72.1775,-404.1946 65.3057,-402.8613"/>
</g>
<!-- Node1941 -->
<g id="node17" class="node">
<title>Node1941</title>
<g id="a_node17"><a xlink:href="structcimg__library__suffixed_1_1_c_img.html#af50b9077784dad68a318c403866367d7" target="_top" xlink:title="Load image from a raw binary file. ">
<polygon fill="#ffffff" stroke="#000000" points="170,-.5 170,-30.5 304,-30.5 304,-.5 170,-.5"/>
<text text-anchor="start" x="178" y="-18.5" font-family="Helvetica,sans-Serif" font-size="10.00" fill="#000000">cimg_library_suffixed</text>
<text text-anchor="middle" x="237" y="-7.5" font-family="Helvetica,sans-Serif" font-size="10.00" fill="#000000">::CImg&lt; charT &gt;::load_raw</text>
</a>
</g>
</g>
<!-- Node1925&#45;&gt;Node1941 -->
<g id="edge16" class="edge">
<title>Node1925&#45;&gt;Node1941</title>
<path fill="none" stroke="#191970" d="M67.3983,-402.9283C78.184,-325.3454 113.9086,-94.6432 164,-40.5 167.548,-36.665 171.7092,-33.4183 176.2144,-30.6695"/>
<polygon fill="#191970" stroke="#191970" points="63.8775,-402.8424 65.9892,-413.2246 70.8129,-403.7916 63.8775,-402.8424"/>
</g>
</g>
</svg>
