<?xml version="1.0" encoding="UTF-8" standalone="no"?>
<!DOCTYPE svg PUBLIC "-//W3C//DTD SVG 1.1//EN"
 "http://www.w3.org/Graphics/SVG/1.1/DTD/svg11.dtd">
<!-- Generated by graphviz version 2.40.1 (20161225.0304)
 -->
<!-- Title: cimg_library_suffixed::cimg::_openmp_mode Pages: 1 -->
<svg width="586pt" height="158pt"
 viewBox="0.00 0.00 586.00 157.78" xmlns="http://www.w3.org/2000/svg" xmlns:xlink="http://www.w3.org/1999/xlink">
<g id="graph0" class="graph" transform="scale(1 1) rotate(0) translate(4 153.78)">
<title>cimg_library_suffixed::cimg::_openmp_mode</title>
<polygon fill="#ffffff" stroke="transparent" points="-4,4 -4,-153.78 582,-153.78 582,4 -4,4"/>
<!-- Node174 -->
<g id="node1" class="node">
<title>Node174</title>
<polygon fill="#bfbfbf" stroke="#000000" points="0,-73.5 0,-103.5 119,-103.5 119,-73.5 0,-73.5"/>
<text text-anchor="start" x="8" y="-91.5" font-family="Helvetica,sans-Serif" font-size="10.00" fill="#000000">cimg_library_suffixed</text>
<text text-anchor="middle" x="59.5" y="-80.5" font-family="Helvetica,sans-Serif" font-size="10.00" fill="#000000">::cimg::_openmp_mode</text>
</g>
<!-- Node175 -->
<g id="node2" class="node">
<title>Node175</title>
<g id="a_node2"><a xlink:href="namespacecimg__library__suffixed_1_1cimg.html#a9e739e4b4ac058abfba069466617b914" target="_top" xlink:title="cimg_library_suffixed\l::cimg::mutex">
<polygon fill="#ffffff" stroke="#000000" points="155,-73.5 155,-103.5 264,-103.5 264,-73.5 155,-73.5"/>
<text text-anchor="start" x="163" y="-91.5" font-family="Helvetica,sans-Serif" font-size="10.00" fill="#000000">cimg_library_suffixed</text>
<text text-anchor="middle" x="209.5" y="-80.5" font-family="Helvetica,sans-Serif" font-size="10.00" fill="#000000">::cimg::mutex</text>
</a>
</g>
</g>
<!-- Node174&#45;&gt;Node175 -->
<g id="edge1" class="edge">
<title>Node174&#45;&gt;Node175</title>
<path fill="none" stroke="#191970" d="M119.215,-88.5C127.579,-88.5 136.2078,-88.5 144.6612,-88.5"/>
<polygon fill="#191970" stroke="#191970" points="144.8559,-92.0001 154.8559,-88.5 144.8558,-85.0001 144.8559,-92.0001"/>
</g>
<!-- Node176 -->
<g id="node3" class="node">
<title>Node176</title>
<g id="a_node3"><a xlink:href="namespacecimg__library__suffixed_1_1cimg.html#aa0e1bc96ae6e235dc5b67b8b0a466166" target="_top" xlink:title="cimg_library_suffixed\l::cimg::Mutex_attr">
<polygon fill="#ffffff" stroke="#000000" points="469,-71.5 469,-101.5 578,-101.5 578,-71.5 469,-71.5"/>
<text text-anchor="start" x="477" y="-89.5" font-family="Helvetica,sans-Serif" font-size="10.00" fill="#000000">cimg_library_suffixed</text>
<text text-anchor="middle" x="523.5" y="-78.5" font-family="Helvetica,sans-Serif" font-size="10.00" fill="#000000">::cimg::Mutex_attr</text>
</a>
</g>
</g>
<!-- Node175&#45;&gt;Node176 -->
<g id="edge2" class="edge">
<title>Node175&#45;&gt;Node176</title>
<path fill="none" stroke="#191970" d="M229.7886,-103.66C247.338,-115.766 273.9275,-131.7766 300,-138.5 357.2386,-153.2603 375.8872,-153.7398 433,-138.5 455.8112,-132.4131 478.8447,-119.0529 495.9657,-107.3993"/>
<polygon fill="#191970" stroke="#191970" points="498.1785,-110.1221 504.3474,-101.5084 494.1534,-104.3951 498.1785,-110.1221"/>
</g>
<!-- Node177 -->
<g id="node4" class="node">
<title>Node177</title>
<g id="a_node4"><a xlink:href="structcimg__library__suffixed_1_1cimg_1_1_mutex__info.html#afac3fa5f107ad4795fb867050f616555" target="_top" xlink:title="cimg_library_suffixed\l::cimg::Mutex_info::unlock">
<polygon fill="#ffffff" stroke="#000000" points="300.5,-98.5 300.5,-128.5 432.5,-128.5 432.5,-98.5 300.5,-98.5"/>
<text text-anchor="start" x="308.5" y="-116.5" font-family="Helvetica,sans-Serif" font-size="10.00" fill="#000000">cimg_library_suffixed</text>
<text text-anchor="middle" x="366.5" y="-105.5" font-family="Helvetica,sans-Serif" font-size="10.00" fill="#000000">::cimg::Mutex_info::unlock</text>
</a>
</g>
</g>
<!-- Node175&#45;&gt;Node177 -->
<g id="edge3" class="edge">
<title>Node175&#45;&gt;Node177</title>
<path fill="none" stroke="#191970" d="M264.411,-97.2438C272.7369,-98.5696 281.453,-99.9575 290.1344,-101.3399"/>
<polygon fill="#191970" stroke="#191970" points="289.8581,-104.8399 300.2841,-102.9561 290.9589,-97.927 289.8581,-104.8399"/>
</g>
<!-- Node178 -->
<g id="node5" class="node">
<title>Node178</title>
<g id="a_node5"><a xlink:href="structcimg__library__suffixed_1_1cimg_1_1_mutex__info.html#a6cc8e26847a1aa649febed03d70182e7" target="_top" xlink:title="cimg_library_suffixed\l::cimg::Mutex_info::lock">
<polygon fill="#ffffff" stroke="#000000" points="305.5,-49.5 305.5,-79.5 427.5,-79.5 427.5,-49.5 305.5,-49.5"/>
<text text-anchor="start" x="313.5" y="-67.5" font-family="Helvetica,sans-Serif" font-size="10.00" fill="#000000">cimg_library_suffixed</text>
<text text-anchor="middle" x="366.5" y="-56.5" font-family="Helvetica,sans-Serif" font-size="10.00" fill="#000000">::cimg::Mutex_info::lock</text>
</a>
</g>
</g>
<!-- Node175&#45;&gt;Node178 -->
<g id="edge4" class="edge">
<title>Node175&#45;&gt;Node178</title>
<path fill="none" stroke="#191970" d="M264.411,-80.106C274.4626,-78.5694 285.083,-76.9459 295.5242,-75.3498"/>
<polygon fill="#191970" stroke="#191970" points="296.0993,-78.8026 305.4556,-73.8316 295.0415,-71.883 296.0993,-78.8026"/>
</g>
<!-- Node179 -->
<g id="node6" class="node">
<title>Node179</title>
<g id="a_node6"><a xlink:href="structcimg__library__suffixed_1_1cimg_1_1_mutex__info.html#a9bf4ed1e1dfe6f28fa6250cd04f3c900" target="_top" xlink:title="cimg_library_suffixed\l::cimg::Mutex_info::trylock">
<polygon fill="#ffffff" stroke="#000000" points="300,-.5 300,-30.5 433,-30.5 433,-.5 300,-.5"/>
<text text-anchor="start" x="308" y="-18.5" font-family="Helvetica,sans-Serif" font-size="10.00" fill="#000000">cimg_library_suffixed</text>
<text text-anchor="middle" x="366.5" y="-7.5" font-family="Helvetica,sans-Serif" font-size="10.00" fill="#000000">::cimg::Mutex_info::trylock</text>
</a>
</g>
</g>
<!-- Node175&#45;&gt;Node179 -->
<g id="edge5" class="edge">
<title>Node175&#45;&gt;Node179</title>
<path fill="none" stroke="#191970" d="M235.9788,-73.3011C253.7871,-63.3682 277.9505,-50.4428 300,-40.5 304.6591,-38.3991 309.5523,-36.3232 314.4816,-34.3195"/>
<polygon fill="#191970" stroke="#191970" points="315.9456,-37.5042 323.9536,-30.5672 313.3675,-30.9963 315.9456,-37.5042"/>
</g>
<!-- Node179&#45;&gt;Node176 -->
<g id="edge6" class="edge">
<title>Node179&#45;&gt;Node176</title>
<path fill="none" stroke="#191970" d="M408.6439,-30.5387C416.7907,-33.6717 425.2117,-37.0692 433,-40.5 450.9326,-48.3993 470.3586,-58.1135 486.5985,-66.5763"/>
<polygon fill="#191970" stroke="#191970" points="485.2767,-69.8356 495.7567,-71.3913 488.5342,-63.6398 485.2767,-69.8356"/>
</g>
</g>
</svg>
