<?xml version="1.0" encoding="UTF-8" standalone="no"?>
<!DOCTYPE svg PUBLIC "-//W3C//DTD SVG 1.1//EN"
 "http://www.w3.org/Graphics/SVG/1.1/DTD/svg11.dtd">
<!-- Generated by graphviz version 2.40.1 (20161225.0304)
 -->
<!-- Title: cimg_library_suffixed::cimg::temporary_path Pages: 1 -->
<!--zoomable 543 -->
<svg id="main" version="1.1" xmlns="http://www.w3.org/2000/svg" xmlns:xlink="http://www.w3.org/1999/xlink" xml:space="preserve" onload="init(evt)">
<style type="text/css"><![CDATA[
.edge:hover path { stroke: red; }
.edge:hover polygon { stroke: red; fill: red; }
]]></style>
<script type="text/javascript"><![CDATA[
var edges = document.getElementsByTagName('g');
if (edges && edges.length) {
  for (var i=0;i<edges.length;i++) {
    if (edges[i].id.substr(0,4)=='edge') {
      edges[i].setAttribute('class','edge');
    }
  }
}
]]></script>
        <defs>
                <circle id="rim" cx="0" cy="0" r="7"/>
                <circle id="rim2" cx="0" cy="0" r="3.5"/>
                <g id="zoomPlus">
                        <use xlink:href="#rim" fill="#404040">
                                <set attributeName="fill" to="#808080" begin="zoomplus.mouseover" end="zoomplus.mouseout"/>
                        </use>
                        <path d="M-4,0h8M0,-4v8" fill="none" stroke="white" stroke-width="1.5" pointer-events="none"/>
                </g>
                <g id="zoomMin">
                        <use xlink:href="#rim" fill="#404040">
                                <set attributeName="fill" to="#808080" begin="zoomminus.mouseover" end="zoomminus.mouseout"/>
                        </use>
                        <path d="M-4,0h8" fill="none" stroke="white" stroke-width="1.5" pointer-events="none"/>
                </g>
                <g id="dirArrow">
                        <path fill="none" stroke="white" stroke-width="1.5" d="M0,-3.0v7 M-2.5,-0.5L0,-3.0L2.5,-0.5"/>
                </g>
               <g id="resetDef">
                       <use xlink:href="#rim2" fill="#404040">
                               <set attributeName="fill" to="#808080" begin="reset.mouseover" end="reset.mouseout"/>
                       </use>
               </g>
        </defs>

<script type="text/javascript">
var viewWidth = 1641;
var viewHeight = 543;
var sectionId = 'dynsection-174';
</script>
<script xlink:href="svgpan.js"/>
<svg id="graph" class="graph">
<g id="viewport">
<title>cimg_library_suffixed::cimg::temporary_path</title>
<polygon fill="#ffffff" stroke="transparent" points="-4,4 -4,-539 1637,-539 1637,4 -4,4"/>
<!-- Node3965 -->
<g id="node1" class="node">
<title>Node3965</title>
<polygon fill="#bfbfbf" stroke="#000000" points="0,-279.5 0,-309.5 117,-309.5 117,-279.5 0,-279.5"/>
<text text-anchor="start" x="8" y="-297.5" font-family="Helvetica,sans-Serif" font-size="10.00" fill="#000000">cimg_library_suffixed</text>
<text text-anchor="middle" x="58.5" y="-286.5" font-family="Helvetica,sans-Serif" font-size="10.00" fill="#000000">::cimg::temporary_path</text>
</g>
<!-- Node3966 -->
<g id="node2" class="node">
<title>Node3966</title>
<g id="a_node2"><a xlink:href="structcimg__library__suffixed_1_1_c_img.html#a82cf529dfcb37cbd01ad7f9bd76795d7" target="_top" xlink:title="Construct empty image . ">
<polygon fill="#ffffff" stroke="#000000" points="159.5,-504.5 159.5,-534.5 268.5,-534.5 268.5,-504.5 159.5,-504.5"/>
<text text-anchor="start" x="167.5" y="-522.5" font-family="Helvetica,sans-Serif" font-size="10.00" fill="#000000">cimg_library_suffixed</text>
<text text-anchor="middle" x="214" y="-511.5" font-family="Helvetica,sans-Serif" font-size="10.00" fill="#000000">::CImg::assign</text>
</a>
</g>
</g>
<!-- Node3965&#45;&gt;Node3966 -->
<g id="edge1" class="edge">
<title>Node3965&#45;&gt;Node3966</title>
<path fill="none" stroke="#191970" d="M62.1885,-309.6755C71.5589,-345.3541 99.4213,-435.6094 153,-489.5 156.6001,-493.121 160.7256,-496.375 165.0962,-499.2825"/>
<polygon fill="#191970" stroke="#191970" points="163.3518,-502.3175 173.7293,-504.4524 166.9482,-496.3119 163.3518,-502.3175"/>
</g>
<!-- Node3967 -->
<g id="node3" class="node">
<title>Node3967</title>
<g id="a_node3"><a xlink:href="namespacecimg__library__suffixed_1_1cimg.html#ac436b94e6ffef5fd420bb3d7c05fd416" target="_top" xlink:title="Close a file. ">
<polygon fill="#ffffff" stroke="#000000" points="311,-279.5 311,-309.5 420,-309.5 420,-279.5 311,-279.5"/>
<text text-anchor="start" x="319" y="-297.5" font-family="Helvetica,sans-Serif" font-size="10.00" fill="#000000">cimg_library_suffixed</text>
<text text-anchor="middle" x="365.5" y="-286.5" font-family="Helvetica,sans-Serif" font-size="10.00" fill="#000000">::cimg::fclose</text>
</a>
</g>
</g>
<!-- Node3965&#45;&gt;Node3967 -->
<g id="edge2" class="edge">
<title>Node3965&#45;&gt;Node3967</title>
<path fill="none" stroke="#191970" d="M117.3294,-294.5C169.8338,-294.5 246.5823,-294.5 300.8013,-294.5"/>
<polygon fill="#191970" stroke="#191970" points="300.9911,-298.0001 310.9911,-294.5 300.991,-291.0001 300.9911,-298.0001"/>
</g>
<!-- Node3973 -->
<g id="node9" class="node">
<title>Node3973</title>
<g id="a_node9"><a xlink:href="namespacecimg__library__suffixed_1_1cimg.html#a9e739e4b4ac058abfba069466617b914" target="_top" xlink:title="cimg_library_suffixed\l::cimg::mutex">
<polygon fill="#ffffff" stroke="#000000" points="1210,-275.5 1210,-305.5 1319,-305.5 1319,-275.5 1210,-275.5"/>
<text text-anchor="start" x="1218" y="-293.5" font-family="Helvetica,sans-Serif" font-size="10.00" fill="#000000">cimg_library_suffixed</text>
<text text-anchor="middle" x="1264.5" y="-282.5" font-family="Helvetica,sans-Serif" font-size="10.00" fill="#000000">::cimg::mutex</text>
</a>
</g>
</g>
<!-- Node3965&#45;&gt;Node3973 -->
<g id="edge39" class="edge">
<title>Node3965&#45;&gt;Node3973</title>
<path fill="none" stroke="#191970" d="M71.8038,-309.6206C111.6342,-353.1221 235.2587,-475.5 365.5,-475.5 365.5,-475.5 365.5,-475.5 974.5,-475.5 1093.617,-475.5 1203.1644,-363.1928 1245.7426,-313.5855"/>
<polygon fill="#191970" stroke="#191970" points="1248.6738,-315.5389 1252.4487,-305.6393 1243.3243,-311.0242 1248.6738,-315.5389"/>
</g>
<!-- Node3981 -->
<g id="node17" class="node">
<title>Node3981</title>
<g id="a_node17"><a xlink:href="namespacecimg__library__suffixed_1_1cimg.html#ae92216bbc140ed7afef601f72ba2bd81" target="_top" xlink:title="cimg_library_suffixed\l::cimg::filenamerand">
<polygon fill="#ffffff" stroke="#000000" points="159.5,-115.5 159.5,-145.5 268.5,-145.5 268.5,-115.5 159.5,-115.5"/>
<text text-anchor="start" x="167.5" y="-133.5" font-family="Helvetica,sans-Serif" font-size="10.00" fill="#000000">cimg_library_suffixed</text>
<text text-anchor="middle" x="214" y="-122.5" font-family="Helvetica,sans-Serif" font-size="10.00" fill="#000000">::cimg::filenamerand</text>
</a>
</g>
</g>
<!-- Node3965&#45;&gt;Node3981 -->
<g id="edge27" class="edge">
<title>Node3965&#45;&gt;Node3981</title>
<path fill="none" stroke="#191970" d="M72.8503,-279.3652C100.2751,-250.4414 160.263,-187.1744 192.4979,-153.1775"/>
<polygon fill="#191970" stroke="#191970" points="195.3436,-155.263 199.6843,-145.5982 190.264,-150.4466 195.3436,-155.263"/>
</g>
<!-- Node3988 -->
<g id="node24" class="node">
<title>Node3988</title>
<g id="a_node24"><a xlink:href="namespacecimg__library__suffixed_1_1cimg.html#a1b401761f9f3c1d01de8ec6ef6bec731" target="_top" xlink:title="cimg_library_suffixed\l::cimg::winformat_string">
<polygon fill="#ffffff" stroke="#000000" points="153,-22.5 153,-52.5 275,-52.5 275,-22.5 153,-22.5"/>
<text text-anchor="start" x="161" y="-40.5" font-family="Helvetica,sans-Serif" font-size="10.00" fill="#000000">cimg_library_suffixed</text>
<text text-anchor="middle" x="214" y="-29.5" font-family="Helvetica,sans-Serif" font-size="10.00" fill="#000000">::cimg::winformat_string</text>
</a>
</g>
</g>
<!-- Node3965&#45;&gt;Node3988 -->
<g id="edge40" class="edge">
<title>Node3965&#45;&gt;Node3988</title>
<path fill="none" stroke="#191970" d="M64.4612,-279.2908C77.7827,-246.1789 112.0377,-165.7075 153,-105.5 164.0817,-89.2118 178.7714,-72.7202 190.9585,-60.0576"/>
<polygon fill="#191970" stroke="#191970" points="193.6665,-62.2949 198.1686,-52.7042 188.6683,-57.3941 193.6665,-62.2949"/>
</g>
<!-- Node3968 -->
<g id="node4" class="node">
<title>Node3968</title>
<g id="a_node4"><a xlink:href="namespacecimg__library__suffixed_1_1cimg.html#a01a3b743897290604513ea6d847c9886" target="_top" xlink:title="cimg_library_suffixed\l::cimg::_stdin">
<polygon fill="#ffffff" stroke="#000000" points="456,-356.5 456,-386.5 565,-386.5 565,-356.5 456,-356.5"/>
<text text-anchor="start" x="464" y="-374.5" font-family="Helvetica,sans-Serif" font-size="10.00" fill="#000000">cimg_library_suffixed</text>
<text text-anchor="middle" x="510.5" y="-363.5" font-family="Helvetica,sans-Serif" font-size="10.00" fill="#000000">::cimg::_stdin</text>
</a>
</g>
</g>
<!-- Node3967&#45;&gt;Node3968 -->
<g id="edge3" class="edge">
<title>Node3967&#45;&gt;Node3968</title>
<path fill="none" stroke="#191970" d="M393.8017,-309.5292C416.3106,-321.4822 448.0108,-338.3161 472.6922,-351.4228"/>
<polygon fill="#191970" stroke="#191970" points="471.3007,-354.6467 481.7742,-356.2456 474.5837,-348.4643 471.3007,-354.6467"/>
</g>
<!-- Node3978 -->
<g id="node14" class="node">
<title>Node3978</title>
<g id="a_node14"><a xlink:href="namespacecimg__library__suffixed_1_1cimg.html#a493220746e5df3466568bd7862825008" target="_top" xlink:title="cimg_library_suffixed\l::cimg::_stdout">
<polygon fill="#ffffff" stroke="#000000" points="920,-334.5 920,-364.5 1029,-364.5 1029,-334.5 920,-334.5"/>
<text text-anchor="start" x="928" y="-352.5" font-family="Helvetica,sans-Serif" font-size="10.00" fill="#000000">cimg_library_suffixed</text>
<text text-anchor="middle" x="974.5" y="-341.5" font-family="Helvetica,sans-Serif" font-size="10.00" fill="#000000">::cimg::_stdout</text>
</a>
</g>
</g>
<!-- Node3967&#45;&gt;Node3978 -->
<g id="edge21" class="edge">
<title>Node3967&#45;&gt;Node3978</title>
<path fill="none" stroke="#191970" d="M420.173,-299.117C490.1494,-305.0579 615.1191,-315.7737 722,-325.5 785.7965,-331.3056 858.626,-338.2633 909.6202,-343.1888"/>
<polygon fill="#191970" stroke="#191970" points="909.5482,-346.6981 919.8387,-344.1768 910.222,-339.7306 909.5482,-346.6981"/>
</g>
<!-- Node3979 -->
<g id="node15" class="node">
<title>Node3979</title>
<g id="a_node15"><a xlink:href="namespacecimg__library__suffixed_1_1cimg.html#acfd3624d72ed7f79c82ec45646c685e7" target="_top" xlink:title="Display a warning message on the default output stream. ">
<polygon fill="#ffffff" stroke="#000000" points="456,-235.5 456,-265.5 565,-265.5 565,-235.5 456,-235.5"/>
<text text-anchor="start" x="464" y="-253.5" font-family="Helvetica,sans-Serif" font-size="10.00" fill="#000000">cimg_library_suffixed</text>
<text text-anchor="middle" x="510.5" y="-242.5" font-family="Helvetica,sans-Serif" font-size="10.00" fill="#000000">::cimg::warn</text>
</a>
</g>
</g>
<!-- Node3967&#45;&gt;Node3979 -->
<g id="edge22" class="edge">
<title>Node3967&#45;&gt;Node3979</title>
<path fill="none" stroke="#191970" d="M414.9952,-279.4808C426.5323,-275.9798 438.9365,-272.2158 450.8612,-268.5973"/>
<polygon fill="#191970" stroke="#191970" points="452.1827,-271.8539 460.7355,-265.6009 450.1501,-265.1555 452.1827,-271.8539"/>
</g>
<!-- Node3969 -->
<g id="node5" class="node">
<title>Node3969</title>
<g id="a_node5"><a xlink:href="namespacecimg__library__suffixed_1_1cimg.html#aeafab144366eddd11360f32f468fa4af" target="_top" xlink:title="Set current &#160;exception mode. ">
<polygon fill="#ffffff" stroke="#000000" points="601,-334.5 601,-364.5 722,-364.5 722,-334.5 601,-334.5"/>
<text text-anchor="start" x="609" y="-352.5" font-family="Helvetica,sans-Serif" font-size="10.00" fill="#000000">cimg_library_suffixed</text>
<text text-anchor="middle" x="661.5" y="-341.5" font-family="Helvetica,sans-Serif" font-size="10.00" fill="#000000">::cimg::exception_mode</text>
</a>
</g>
</g>
<!-- Node3968&#45;&gt;Node3969 -->
<g id="edge4" class="edge">
<title>Node3968&#45;&gt;Node3969</title>
<path fill="none" stroke="#191970" d="M565.0145,-363.5575C573.3935,-362.3367 582.1471,-361.0613 590.8158,-359.7984"/>
<polygon fill="#191970" stroke="#191970" points="591.5345,-363.2307 600.9254,-358.3254 590.5253,-356.3038 591.5345,-363.2307"/>
</g>
<!-- Node3972 -->
<g id="node8" class="node">
<title>Node3972</title>
<g id="a_node8"><a xlink:href="namespacecimg__library__suffixed_1_1cimg.html#a79aef0cbcf66ceb71c2b74cb66b4deb2" target="_top" xlink:title="Avoid warning messages due to unused parameters. Do nothing actually. ">
<polygon fill="#ffffff" stroke="#000000" points="1065,-310.5 1065,-340.5 1174,-340.5 1174,-310.5 1065,-310.5"/>
<text text-anchor="start" x="1073" y="-328.5" font-family="Helvetica,sans-Serif" font-size="10.00" fill="#000000">cimg_library_suffixed</text>
<text text-anchor="middle" x="1119.5" y="-317.5" font-family="Helvetica,sans-Serif" font-size="10.00" fill="#000000">::cimg::unused</text>
</a>
</g>
</g>
<!-- Node3968&#45;&gt;Node3972 -->
<g id="edge20" class="edge">
<title>Node3968&#45;&gt;Node3972</title>
<path fill="none" stroke="#191970" d="M560.7388,-386.5222C632.5437,-406.0169 768.6045,-435.6228 884,-418.5 950.6168,-408.6152 966.8509,-400.4421 1029,-374.5 1048.4767,-366.3701 1069.248,-355.3101 1085.9723,-345.755"/>
<polygon fill="#191970" stroke="#191970" points="1087.9174,-348.6731 1094.8133,-340.6297 1084.4065,-342.6172 1087.9174,-348.6731"/>
</g>
<!-- Node3970 -->
<g id="node6" class="node">
<title>Node3970</title>
<g id="a_node6"><a xlink:href="namespacecimg__library__suffixed_1_1cimg.html#a6c578f866de2be9be7e385d693c758c8" target="_top" xlink:title="cimg_library_suffixed\l::cimg::_exception_mode">
<polygon fill="#ffffff" stroke="#000000" points="758,-378.5 758,-408.5 884,-408.5 884,-378.5 758,-378.5"/>
<text text-anchor="start" x="766" y="-396.5" font-family="Helvetica,sans-Serif" font-size="10.00" fill="#000000">cimg_library_suffixed</text>
<text text-anchor="middle" x="821" y="-385.5" font-family="Helvetica,sans-Serif" font-size="10.00" fill="#000000">::cimg::_exception_mode</text>
</a>
</g>
</g>
<!-- Node3969&#45;&gt;Node3970 -->
<g id="edge5" class="edge">
<title>Node3969&#45;&gt;Node3970</title>
<path fill="none" stroke="#191970" d="M715.9447,-364.5192C729.0889,-368.1452 743.2562,-372.0534 756.8009,-375.7899"/>
<polygon fill="#191970" stroke="#191970" points="755.9593,-379.1884 766.53,-378.4738 757.8209,-372.4405 755.9593,-379.1884"/>
</g>
<!-- Node3970&#45;&gt;Node3968 -->
<g id="edge15" class="edge">
<title>Node3970&#45;&gt;Node3968</title>
<path fill="none" stroke="#191970" d="M757.9297,-389.0312C704.7813,-385.2655 629.037,-379.8988 575.383,-376.0972"/>
<polygon fill="#191970" stroke="#191970" points="575.5188,-372.5981 565.2964,-375.3825 575.024,-379.5806 575.5188,-372.5981"/>
</g>
<!-- Node3971 -->
<g id="node7" class="node">
<title>Node3971</title>
<g id="a_node7"><a xlink:href="namespacecimg__library__suffixed_1_1cimg.html#aab8db7528c32a8fd3a3dc471e662782e" target="_top" xlink:title="cimg_library_suffixed\l::cimg::_stderr">
<polygon fill="#ffffff" stroke="#000000" points="920,-285.5 920,-315.5 1029,-315.5 1029,-285.5 920,-285.5"/>
<text text-anchor="start" x="928" y="-303.5" font-family="Helvetica,sans-Serif" font-size="10.00" fill="#000000">cimg_library_suffixed</text>
<text text-anchor="middle" x="974.5" y="-292.5" font-family="Helvetica,sans-Serif" font-size="10.00" fill="#000000">::cimg::_stderr</text>
</a>
</g>
</g>
<!-- Node3970&#45;&gt;Node3971 -->
<g id="edge6" class="edge">
<title>Node3970&#45;&gt;Node3971</title>
<path fill="none" stroke="#191970" d="M840.818,-378.3803C860.3489,-363.8474 891.3437,-341.7544 920,-325.5 923.2229,-323.6719 926.6031,-321.8689 930.0347,-320.1193"/>
<polygon fill="#191970" stroke="#191970" points="931.734,-323.1841 939.1651,-315.6323 928.6466,-316.9017 931.734,-323.1841"/>
</g>
<!-- Node3970&#45;&gt;Node3973 -->
<g id="edge19" class="edge">
<title>Node3970&#45;&gt;Node3973</title>
<path fill="none" stroke="#191970" d="M884.2149,-395.2066C956.7045,-395.059 1077.9093,-388.2949 1174,-350.5 1197.6693,-341.1903 1221.5275,-325.0275 1238.8009,-311.8213"/>
<polygon fill="#191970" stroke="#191970" points="1241.0063,-314.5398 1246.7219,-305.6188 1236.6906,-309.0284 1241.0063,-314.5398"/>
</g>
<!-- Node3970&#45;&gt;Node3978 -->
<g id="edge16" class="edge">
<title>Node3970&#45;&gt;Node3978</title>
<path fill="none" stroke="#191970" d="M873.3967,-378.4808C885.9236,-374.89 899.4161,-371.0224 912.3361,-367.319"/>
<polygon fill="#191970" stroke="#191970" points="913.4306,-370.6463 922.079,-364.5262 911.5017,-363.9173 913.4306,-370.6463"/>
</g>
<!-- Node3971&#45;&gt;Node3969 -->
<g id="edge7" class="edge">
<title>Node3971&#45;&gt;Node3969</title>
<path fill="none" stroke="#191970" d="M919.9666,-309.0372C867.8805,-317.1912 789.1092,-329.5228 732.2205,-338.4287"/>
<polygon fill="#191970" stroke="#191970" points="731.559,-334.9896 722.2207,-339.9942 732.6417,-341.9054 731.559,-334.9896"/>
</g>
<!-- Node3971&#45;&gt;Node3972 -->
<g id="edge8" class="edge">
<title>Node3971&#45;&gt;Node3972</title>
<path fill="none" stroke="#191970" d="M1029.3183,-309.9514C1037.6188,-311.3826 1046.2486,-312.8705 1054.7354,-314.3337"/>
<polygon fill="#191970" stroke="#191970" points="1054.1549,-317.7852 1064.6042,-316.0352 1055.3443,-310.8869 1054.1549,-317.7852"/>
</g>
<!-- Node3972&#45;&gt;Node3973 -->
<g id="edge9" class="edge">
<title>Node3972&#45;&gt;Node3973</title>
<path fill="none" stroke="#191970" d="M1174.3183,-312.268C1182.6188,-310.2644 1191.2486,-308.1814 1199.7354,-306.1328"/>
<polygon fill="#191970" stroke="#191970" points="1200.7046,-309.4995 1209.6042,-303.7507 1199.0621,-302.6949 1200.7046,-309.4995"/>
</g>
<!-- Node3974 -->
<g id="node10" class="node">
<title>Node3974</title>
<g id="a_node10"><a xlink:href="structcimg__library__suffixed_1_1cimg_1_1_mutex__info.html#a6cc8e26847a1aa649febed03d70182e7" target="_top" xlink:title="cimg_library_suffixed\l::cimg::Mutex_info::lock">
<polygon fill="#ffffff" stroke="#000000" points="1360.5,-341.5 1360.5,-371.5 1482.5,-371.5 1482.5,-341.5 1360.5,-341.5"/>
<text text-anchor="start" x="1368.5" y="-359.5" font-family="Helvetica,sans-Serif" font-size="10.00" fill="#000000">cimg_library_suffixed</text>
<text text-anchor="middle" x="1421.5" y="-348.5" font-family="Helvetica,sans-Serif" font-size="10.00" fill="#000000">::cimg::Mutex_info::lock</text>
</a>
</g>
</g>
<!-- Node3973&#45;&gt;Node3974 -->
<g id="edge10" class="edge">
<title>Node3973&#45;&gt;Node3974</title>
<path fill="none" stroke="#191970" d="M1300.519,-305.6417C1323.0569,-315.1163 1352.2804,-327.4013 1376.3593,-337.5237"/>
<polygon fill="#191970" stroke="#191970" points="1375.0737,-340.7798 1385.6486,-341.4287 1377.7864,-334.3268 1375.0737,-340.7798"/>
</g>
<!-- Node3975 -->
<g id="node11" class="node">
<title>Node3975</title>
<g id="a_node11"><a xlink:href="namespacecimg__library__suffixed_1_1cimg.html#aa0e1bc96ae6e235dc5b67b8b0a466166" target="_top" xlink:title="cimg_library_suffixed\l::cimg::Mutex_attr">
<polygon fill="#ffffff" stroke="#000000" points="1524,-275.5 1524,-305.5 1633,-305.5 1633,-275.5 1524,-275.5"/>
<text text-anchor="start" x="1532" y="-293.5" font-family="Helvetica,sans-Serif" font-size="10.00" fill="#000000">cimg_library_suffixed</text>
<text text-anchor="middle" x="1578.5" y="-282.5" font-family="Helvetica,sans-Serif" font-size="10.00" fill="#000000">::cimg::Mutex_attr</text>
</a>
</g>
</g>
<!-- Node3973&#45;&gt;Node3975 -->
<g id="edge11" class="edge">
<title>Node3973&#45;&gt;Node3975</title>
<path fill="none" stroke="#191970" d="M1319.0532,-291.9005C1330.9033,-292.1502 1343.3711,-292.3715 1355,-292.5 1414.1075,-293.153 1428.8925,-293.153 1488,-292.5 1496.3582,-292.4077 1505.1499,-292.2674 1513.8341,-292.103"/>
<polygon fill="#191970" stroke="#191970" points="1514.019,-295.6001 1523.9468,-291.9005 1513.8787,-288.6015 1514.019,-295.6001"/>
</g>
<!-- Node3976 -->
<g id="node12" class="node">
<title>Node3976</title>
<g id="a_node12"><a xlink:href="structcimg__library__suffixed_1_1cimg_1_1_mutex__info.html#a9bf4ed1e1dfe6f28fa6250cd04f3c900" target="_top" xlink:title="cimg_library_suffixed\l::cimg::Mutex_info::trylock">
<polygon fill="#ffffff" stroke="#000000" points="1355,-253.5 1355,-283.5 1488,-283.5 1488,-253.5 1355,-253.5"/>
<text text-anchor="start" x="1363" y="-271.5" font-family="Helvetica,sans-Serif" font-size="10.00" fill="#000000">cimg_library_suffixed</text>
<text text-anchor="middle" x="1421.5" y="-260.5" font-family="Helvetica,sans-Serif" font-size="10.00" fill="#000000">::cimg::Mutex_info::trylock</text>
</a>
</g>
</g>
<!-- Node3973&#45;&gt;Node3976 -->
<g id="edge12" class="edge">
<title>Node3973&#45;&gt;Node3976</title>
<path fill="none" stroke="#191970" d="M1319.411,-282.8055C1327.6098,-281.6566 1336.187,-280.4547 1344.7367,-279.2566"/>
<polygon fill="#191970" stroke="#191970" points="1345.3189,-282.7093 1354.7365,-277.8554 1344.3475,-275.7771 1345.3189,-282.7093"/>
</g>
<!-- Node3977 -->
<g id="node13" class="node">
<title>Node3977</title>
<g id="a_node13"><a xlink:href="structcimg__library__suffixed_1_1cimg_1_1_mutex__info.html#afac3fa5f107ad4795fb867050f616555" target="_top" xlink:title="cimg_library_suffixed\l::cimg::Mutex_info::unlock">
<polygon fill="#ffffff" stroke="#000000" points="1355.5,-204.5 1355.5,-234.5 1487.5,-234.5 1487.5,-204.5 1355.5,-204.5"/>
<text text-anchor="start" x="1363.5" y="-222.5" font-family="Helvetica,sans-Serif" font-size="10.00" fill="#000000">cimg_library_suffixed</text>
<text text-anchor="middle" x="1421.5" y="-211.5" font-family="Helvetica,sans-Serif" font-size="10.00" fill="#000000">::cimg::Mutex_info::unlock</text>
</a>
</g>
</g>
<!-- Node3973&#45;&gt;Node3977 -->
<g id="edge14" class="edge">
<title>Node3973&#45;&gt;Node3977</title>
<path fill="none" stroke="#191970" d="M1291.3679,-275.3503C1309.1357,-265.6318 1333.1057,-253.0857 1355,-243.5 1359.0951,-241.7071 1363.3711,-239.9385 1367.6935,-238.2237"/>
<polygon fill="#191970" stroke="#191970" points="1369.1067,-241.43 1377.1781,-234.5669 1366.5885,-234.8987 1369.1067,-241.43"/>
</g>
<!-- Node3976&#45;&gt;Node3975 -->
<g id="edge13" class="edge">
<title>Node3976&#45;&gt;Node3975</title>
<path fill="none" stroke="#191970" d="M1488.0821,-277.83C1496.5193,-279.0123 1505.1445,-280.2209 1513.5556,-281.3995"/>
<polygon fill="#191970" stroke="#191970" points="1513.293,-284.8968 1523.682,-282.8185 1514.2645,-277.9646 1513.293,-284.8968"/>
</g>
<!-- Node3978&#45;&gt;Node3969 -->
<g id="edge17" class="edge">
<title>Node3978&#45;&gt;Node3969</title>
<path fill="none" stroke="#191970" d="M919.9666,-349.5C867.9883,-349.5 789.4353,-349.5 732.5742,-349.5"/>
<polygon fill="#191970" stroke="#191970" points="732.2207,-346.0001 722.2207,-349.5 732.2206,-353.0001 732.2207,-346.0001"/>
</g>
<!-- Node3978&#45;&gt;Node3972 -->
<g id="edge18" class="edge">
<title>Node3978&#45;&gt;Node3972</title>
<path fill="none" stroke="#191970" d="M1029.3183,-340.4266C1037.6188,-339.0528 1046.2486,-337.6244 1054.7354,-336.2197"/>
<polygon fill="#191970" stroke="#191970" points="1055.31,-339.6723 1064.6042,-334.5862 1054.1669,-332.7662 1055.31,-339.6723"/>
</g>
<!-- Node3979&#45;&gt;Node3969 -->
<g id="edge23" class="edge">
<title>Node3979&#45;&gt;Node3969</title>
<path fill="none" stroke="#191970" d="M533.4336,-265.536C559.1541,-282.3991 601.0326,-309.8558 629.8566,-328.7537"/>
<polygon fill="#191970" stroke="#191970" points="628.0686,-331.7666 638.3505,-334.3225 631.9067,-325.9125 628.0686,-331.7666"/>
</g>
<!-- Node3980 -->
<g id="node16" class="node">
<title>Node3980</title>
<g id="a_node16"><a xlink:href="namespacecimg__library__suffixed_1_1cimg.html#ada686776cc71803df391eea79cd1b3e5" target="_top" xlink:title="Get/set default output stream for the &#160;library messages. ">
<polygon fill="#ffffff" stroke="#000000" points="766.5,-214.5 766.5,-244.5 875.5,-244.5 875.5,-214.5 766.5,-214.5"/>
<text text-anchor="start" x="774.5" y="-232.5" font-family="Helvetica,sans-Serif" font-size="10.00" fill="#000000">cimg_library_suffixed</text>
<text text-anchor="middle" x="821" y="-221.5" font-family="Helvetica,sans-Serif" font-size="10.00" fill="#000000">::cimg::output</text>
</a>
</g>
</g>
<!-- Node3979&#45;&gt;Node3980 -->
<g id="edge24" class="edge">
<title>Node3979&#45;&gt;Node3980</title>
<path fill="none" stroke="#191970" d="M565.2964,-246.794C618.645,-243.1858 699.7273,-237.702 756.2374,-233.8801"/>
<polygon fill="#191970" stroke="#191970" points="756.7499,-237.3535 766.4909,-233.1866 756.2775,-230.3695 756.7499,-237.3535"/>
</g>
<!-- Node3980&#45;&gt;Node3971 -->
<g id="edge25" class="edge">
<title>Node3980&#45;&gt;Node3971</title>
<path fill="none" stroke="#191970" d="M853.5534,-244.5573C876.652,-255.2413 907.8523,-269.6727 932.7778,-281.2018"/>
<polygon fill="#191970" stroke="#191970" points="931.448,-284.4429 941.9935,-285.4644 934.3867,-278.0896 931.448,-284.4429"/>
</g>
<!-- Node3980&#45;&gt;Node3973 -->
<g id="edge26" class="edge">
<title>Node3980&#45;&gt;Node3973</title>
<path fill="none" stroke="#191970" d="M875.8266,-237.041C957.8644,-248.3246 1112.2504,-269.5592 1199.7308,-281.5915"/>
<polygon fill="#191970" stroke="#191970" points="1199.415,-285.0809 1209.7986,-282.9762 1200.3688,-278.1462 1199.415,-285.0809"/>
</g>
<!-- Node3981&#45;&gt;Node3973 -->
<g id="edge28" class="edge">
<title>Node3981&#45;&gt;Node3973</title>
<path fill="none" stroke="#191970" d="M268.5575,-124.0183C327.9725,-117.5288 425.8478,-108.5 510.5,-108.5 510.5,-108.5 510.5,-108.5 974.5,-108.5 1092.7805,-108.5 1202.3984,-218.463 1245.3563,-267.4409"/>
<polygon fill="#191970" stroke="#191970" points="1242.9496,-270.0094 1252.1313,-275.2958 1248.2503,-265.4374 1242.9496,-270.0094"/>
</g>
<!-- Node3982 -->
<g id="node18" class="node">
<title>Node3982</title>
<g id="a_node18"><a xlink:href="namespacecimg__library__suffixed_1_1cimg.html#ab7c09300be61c8a3361c379069100252" target="_top" xlink:title="Return a random variable uniformely distributed between [val_min,val_max]. ">
<polygon fill="#ffffff" stroke="#000000" points="311,-49.5 311,-79.5 420,-79.5 420,-49.5 311,-49.5"/>
<text text-anchor="start" x="319" y="-67.5" font-family="Helvetica,sans-Serif" font-size="10.00" fill="#000000">cimg_library_suffixed</text>
<text text-anchor="middle" x="365.5" y="-56.5" font-family="Helvetica,sans-Serif" font-size="10.00" fill="#000000">::cimg::rand</text>
</a>
</g>
</g>
<!-- Node3981&#45;&gt;Node3982 -->
<g id="edge29" class="edge">
<title>Node3981&#45;&gt;Node3982</title>
<path fill="none" stroke="#191970" d="M248.7572,-115.3583C270.4093,-105.9256 298.4558,-93.7074 321.6319,-83.6108"/>
<polygon fill="#191970" stroke="#191970" points="323.1346,-86.774 330.9046,-79.5713 320.3389,-80.3565 323.1346,-86.774"/>
</g>
<!-- Node3984 -->
<g id="node20" class="node">
<title>Node3984</title>
<g id="a_node20"><a xlink:href="namespacecimg__library__suffixed_1_1cimg.html#ab77520695d7b96687093353c613c410c" target="_top" xlink:title="cimg_library_suffixed\l::cimg::srand">
<polygon fill="#ffffff" stroke="#000000" points="311,-137.5 311,-167.5 420,-167.5 420,-137.5 311,-137.5"/>
<text text-anchor="start" x="319" y="-155.5" font-family="Helvetica,sans-Serif" font-size="10.00" fill="#000000">cimg_library_suffixed</text>
<text text-anchor="middle" x="365.5" y="-144.5" font-family="Helvetica,sans-Serif" font-size="10.00" fill="#000000">::cimg::srand</text>
</a>
</g>
</g>
<!-- Node3981&#45;&gt;Node3984 -->
<g id="edge32" class="edge">
<title>Node3981&#45;&gt;Node3984</title>
<path fill="none" stroke="#191970" d="M268.695,-138.4425C279.1002,-139.9535 290.0811,-141.5481 300.7635,-143.0993"/>
<polygon fill="#191970" stroke="#191970" points="300.4861,-146.5957 310.8853,-144.5692 301.4921,-139.6683 300.4861,-146.5957"/>
</g>
<!-- Node3983 -->
<g id="node19" class="node">
<title>Node3983</title>
<g id="a_node19"><a xlink:href="namespacecimg__library__suffixed_1_1cimg.html#af5cd3397f819c13ccb17e05a7db736b1" target="_top" xlink:title="Return a random variable uniformely distributed between [0,val_max]. ">
<polygon fill="#ffffff" stroke="#000000" points="456,-49.5 456,-79.5 565,-79.5 565,-49.5 456,-49.5"/>
<text text-anchor="start" x="464" y="-67.5" font-family="Helvetica,sans-Serif" font-size="10.00" fill="#000000">cimg_library_suffixed</text>
<text text-anchor="middle" x="510.5" y="-56.5" font-family="Helvetica,sans-Serif" font-size="10.00" fill="#000000">::cimg::rand</text>
</a>
</g>
</g>
<!-- Node3982&#45;&gt;Node3983 -->
<g id="edge30" class="edge">
<title>Node3982&#45;&gt;Node3983</title>
<path fill="none" stroke="#191970" d="M420.3183,-57.9317C428.5286,-57.7598 437.0611,-57.7099 445.4586,-57.7819"/>
<polygon fill="#191970" stroke="#191970" points="445.5541,-61.2835 455.6042,-57.9301 445.6564,-54.2843 445.5541,-61.2835"/>
</g>
<!-- Node3983&#45;&gt;Node3982 -->
<g id="edge31" class="edge">
<title>Node3983&#45;&gt;Node3982</title>
<path fill="none" stroke="#191970" d="M455.6042,-71.0699C447.3919,-71.241 438.8588,-71.2902 430.4621,-71.2175"/>
<polygon fill="#191970" stroke="#191970" points="430.3687,-67.7158 420.3183,-71.0683 430.2657,-74.7151 430.3687,-67.7158"/>
</g>
<!-- Node3985 -->
<g id="node21" class="node">
<title>Node3985</title>
<g id="a_node21"><a xlink:href="namespacecimg__library__suffixed_1_1cimg.html#abae779a6d52b74e3a46e75a6c5b6e49e" target="_top" xlink:title="cimg_library_suffixed\l::cimg::srand">
<polygon fill="#ffffff" stroke="#000000" points="456,-137.5 456,-167.5 565,-167.5 565,-137.5 456,-137.5"/>
<text text-anchor="start" x="464" y="-155.5" font-family="Helvetica,sans-Serif" font-size="10.00" fill="#000000">cimg_library_suffixed</text>
<text text-anchor="middle" x="510.5" y="-144.5" font-family="Helvetica,sans-Serif" font-size="10.00" fill="#000000">::cimg::srand</text>
</a>
</g>
</g>
<!-- Node3984&#45;&gt;Node3985 -->
<g id="edge33" class="edge">
<title>Node3984&#45;&gt;Node3985</title>
<path fill="none" stroke="#191970" d="M420.3183,-152.5C428.5286,-152.5 437.0611,-152.5 445.4586,-152.5"/>
<polygon fill="#191970" stroke="#191970" points="445.6042,-156.0001 455.6042,-152.5 445.6042,-149.0001 445.6042,-156.0001"/>
</g>
<!-- Node3986 -->
<g id="node22" class="node">
<title>Node3986</title>
<g id="a_node22"><a xlink:href="namespacecimg__library__suffixed_1_1cimg.html#a71a3c7b37befc7a4313dfcdd80271bce" target="_top" xlink:title="Return the value of a system timer, with a millisecond precision. ">
<polygon fill="#ffffff" stroke="#000000" points="456,-186.5 456,-216.5 565,-216.5 565,-186.5 456,-186.5"/>
<text text-anchor="start" x="464" y="-204.5" font-family="Helvetica,sans-Serif" font-size="10.00" fill="#000000">cimg_library_suffixed</text>
<text text-anchor="middle" x="510.5" y="-193.5" font-family="Helvetica,sans-Serif" font-size="10.00" fill="#000000">::cimg::time</text>
</a>
</g>
</g>
<!-- Node3984&#45;&gt;Node3986 -->
<g id="edge34" class="edge">
<title>Node3984&#45;&gt;Node3986</title>
<path fill="none" stroke="#191970" d="M410.1879,-167.6014C424.659,-172.4917 440.8725,-177.9707 455.9752,-183.0744"/>
<polygon fill="#191970" stroke="#191970" points="455.1158,-186.4783 465.71,-186.3641 457.3569,-179.8468 455.1158,-186.4783"/>
</g>
<!-- Node3987 -->
<g id="node23" class="node">
<title>Node3987</title>
<g id="a_node23"><a xlink:href="namespacecimg__library__suffixed_1_1cimg.html#ab47e3a7718b582df77725470f3824eb4" target="_top" xlink:title="cimg_library_suffixed\l::cimg::tictoc">
<polygon fill="#ffffff" stroke="#000000" points="607,-186.5 607,-216.5 716,-216.5 716,-186.5 607,-186.5"/>
<text text-anchor="start" x="615" y="-204.5" font-family="Helvetica,sans-Serif" font-size="10.00" fill="#000000">cimg_library_suffixed</text>
<text text-anchor="middle" x="661.5" y="-193.5" font-family="Helvetica,sans-Serif" font-size="10.00" fill="#000000">::cimg::tictoc</text>
</a>
</g>
</g>
<!-- Node3986&#45;&gt;Node3987 -->
<g id="edge35" class="edge">
<title>Node3986&#45;&gt;Node3987</title>
<path fill="none" stroke="#191970" d="M565.0145,-194.9873C575.3213,-194.7485 586.1949,-194.69 596.7799,-194.8115"/>
<polygon fill="#191970" stroke="#191970" points="596.7536,-198.3115 606.8121,-194.9833 596.8735,-191.3125 596.7536,-198.3115"/>
</g>
<!-- Node3987&#45;&gt;Node3973 -->
<g id="edge36" class="edge">
<title>Node3987&#45;&gt;Node3973</title>
<path fill="none" stroke="#191970" d="M716.0624,-199.549C761.2013,-198.5789 826.9304,-198.6518 884,-204.5 1014.5861,-217.8819 1046.9889,-227.3339 1174,-260.5 1186.89,-263.8659 1200.6202,-268.0807 1213.3882,-272.2779"/>
<polygon fill="#191970" stroke="#191970" points="1212.3408,-275.618 1222.9346,-275.4697 1214.5605,-268.9793 1212.3408,-275.618"/>
</g>
<!-- Node3987&#45;&gt;Node3980 -->
<g id="edge38" class="edge">
<title>Node3987&#45;&gt;Node3980</title>
<path fill="none" stroke="#191970" d="M716.3909,-211.136C729.2446,-213.3925 743.0556,-215.817 756.2929,-218.1408"/>
<polygon fill="#191970" stroke="#191970" points="755.8237,-221.6118 766.2783,-219.8937 757.0341,-214.7173 755.8237,-221.6118"/>
</g>
<!-- Node3987&#45;&gt;Node3986 -->
<g id="edge37" class="edge">
<title>Node3987&#45;&gt;Node3986</title>
<path fill="none" stroke="#191970" d="M606.8121,-208.0167C596.4989,-208.2534 585.6238,-208.31 575.042,-208.1864"/>
<polygon fill="#191970" stroke="#191970" points="575.0736,-204.6865 565.0145,-208.0127 574.9523,-211.6855 575.0736,-204.6865"/>
</g>
<!-- Node3989 -->
<g id="node25" class="node">
<title>Node3989</title>
<g id="a_node25"><a xlink:href="namespacecimg__library__suffixed_1_1cimg.html#a9d486931d7eb759c7268b09a62cd3d28" target="_top" xlink:title="cimg_library_suffixed\l::cimg::win_fopen">
<polygon fill="#ffffff" stroke="#000000" points="311,-.5 311,-30.5 420,-30.5 420,-.5 311,-.5"/>
<text text-anchor="start" x="319" y="-18.5" font-family="Helvetica,sans-Serif" font-size="10.00" fill="#000000">cimg_library_suffixed</text>
<text text-anchor="middle" x="365.5" y="-7.5" font-family="Helvetica,sans-Serif" font-size="10.00" fill="#000000">::cimg::win_fopen</text>
</a>
</g>
</g>
<!-- Node3988&#45;&gt;Node3989 -->
<g id="edge41" class="edge">
<title>Node3988&#45;&gt;Node3989</title>
<path fill="none" stroke="#191970" d="M275.1842,-28.6152C283.6839,-27.3809 292.4378,-26.1097 300.9959,-24.8669"/>
<polygon fill="#191970" stroke="#191970" points="301.5322,-28.3258 310.9254,-23.425 300.5262,-21.3985 301.5322,-28.3258"/>
</g>
</g>
</svg>
        <g id="navigator" transform="translate(0 0)" fill="#404254">
                <rect fill="#f2f5e9" fill-opacity="0.5" stroke="#606060" stroke-width=".5" x="0" y="0" width="60" height="60"/>
                <use id="zoomplus" xlink:href="#zoomPlus" x="17" y="9" onmousedown="handleZoom(evt,'in')"/>
                <use id="zoomminus" xlink:href="#zoomMin" x="42" y="9" onmousedown="handleZoom(evt,'out')"/>
                <use id="reset" xlink:href="#resetDef" x="30" y="36" onmousedown="handleReset()"/>
                <g id="arrowUp" xlink:href="#dirArrow" transform="translate(30 24)" onmousedown="handlePan(0,-1)">
                  <use xlink:href="#rim" fill="#404040">
                        <set attributeName="fill" to="#808080" begin="arrowUp.mouseover" end="arrowUp.mouseout"/>
                  </use>
                  <path fill="none" stroke="white" stroke-width="1.5" d="M0,-3.0v7 M-2.5,-0.5L0,-3.0L2.5,-0.5"/>
                </g>
                <g id="arrowRight" xlink:href="#dirArrow" transform="rotate(90) translate(36 -43)" onmousedown="handlePan(1,0)">
                  <use xlink:href="#rim" fill="#404040">
                        <set attributeName="fill" to="#808080" begin="arrowRight.mouseover" end="arrowRight.mouseout"/>
                  </use>
                  <path fill="none" stroke="white" stroke-width="1.5" d="M0,-3.0v7 M-2.5,-0.5L0,-3.0L2.5,-0.5"/>
                </g>
                <g id="arrowDown" xlink:href="#dirArrow" transform="rotate(180) translate(-30 -48)" onmousedown="handlePan(0,1)">
                  <use xlink:href="#rim" fill="#404040">
                        <set attributeName="fill" to="#808080" begin="arrowDown.mouseover" end="arrowDown.mouseout"/>
                  </use>
                  <path fill="none" stroke="white" stroke-width="1.5" d="M0,-3.0v7 M-2.5,-0.5L0,-3.0L2.5,-0.5"/>
                </g>
                <g id="arrowLeft" xlink:href="#dirArrow" transform="rotate(270) translate(-36 17)" onmousedown="handlePan(-1,0)">
                  <use xlink:href="#rim" fill="#404040">
                        <set attributeName="fill" to="#808080" begin="arrowLeft.mouseover" end="arrowLeft.mouseout"/>
                  </use>
                  <path fill="none" stroke="white" stroke-width="1.5" d="M0,-3.0v7 M-2.5,-0.5L0,-3.0L2.5,-0.5"/>
                </g>
        </g>
        <svg viewBox="0 0 15 15" width="100%" height="30px" preserveAspectRatio="xMaxYMin meet">
         <g id="arrow_out" transform="scale(0.3 0.3)">
          <a xlink:href="namespacecimg__library__suffixed_1_1cimg_ae9af8e17db04e875db3b45cbe58892d6_cgraph_org.svg" target="_base">
           <rect id="button" ry="5" rx="5" y="6" x="6" height="38" width="38"
                fill="#f2f5e9" fill-opacity="0.5" stroke="#606060" stroke-width="1.0"/>
           <path id="arrow"
             d="M 11.500037,31.436501 C 11.940474,20.09759 22.043105,11.32322 32.158766,21.979434 L 37.068811,17.246167 C 37.068811,17.246167 37.088388,32 37.088388,32 L 22.160133,31.978069 C 22.160133,31.978069 26.997745,27.140456 26.997745,27.140456 C 18.528582,18.264221 13.291696,25.230495 11.500037,31.436501 z"
             style="fill:#404040;"/>
          </a>
         </g>
        </svg>
</svg>
