<?xml version="1.0" encoding="UTF-8" standalone="no"?>
<!DOCTYPE svg PUBLIC "-//W3C//DTD SVG 1.1//EN"
 "http://www.w3.org/Graphics/SVG/1.1/DTD/svg11.dtd">
<!-- Generated by graphviz version 2.40.1 (20161225.0304)
 -->
<!-- Title: cimg_library_suffixed::cimg::files Pages: 1 -->
<svg width="737pt" height="504pt"
 viewBox="0.00 0.00 737.00 504.00" xmlns="http://www.w3.org/2000/svg" xmlns:xlink="http://www.w3.org/1999/xlink">
<g id="graph0" class="graph" transform="scale(1 1) rotate(0) translate(4 500)">
<title>cimg_library_suffixed::cimg::files</title>
<polygon fill="#ffffff" stroke="transparent" points="-4,4 -4,-500 733,-500 733,4 -4,4"/>
<!-- Node1468 -->
<g id="node1" class="node">
<title>Node1468</title>
<polygon fill="#bfbfbf" stroke="#000000" points="0,-269.5 0,-299.5 109,-299.5 109,-269.5 0,-269.5"/>
<text text-anchor="start" x="8" y="-287.5" font-family="Helvetica,sans-Serif" font-size="10.00" fill="#000000">cimg_library_suffixed</text>
<text text-anchor="middle" x="54.5" y="-276.5" font-family="Helvetica,sans-Serif" font-size="10.00" fill="#000000">::cimg::files</text>
</g>
<!-- Node1469 -->
<g id="node2" class="node">
<title>Node1469</title>
<g id="a_node2"><a xlink:href="namespacecimg__library__suffixed_1_1cimg.html#add25d3bf42363c07ad95d4a9a689f729" target="_top" xlink:title="cimg_library_suffixed\l::cimg::_sort_files">
<polygon fill="#ffffff" stroke="#000000" points="153,-465.5 153,-495.5 262,-495.5 262,-465.5 153,-465.5"/>
<text text-anchor="start" x="161" y="-483.5" font-family="Helvetica,sans-Serif" font-size="10.00" fill="#000000">cimg_library_suffixed</text>
<text text-anchor="middle" x="207.5" y="-472.5" font-family="Helvetica,sans-Serif" font-size="10.00" fill="#000000">::cimg::_sort_files</text>
</a>
</g>
</g>
<!-- Node1468&#45;&gt;Node1469 -->
<g id="edge1" class="edge">
<title>Node1468&#45;&gt;Node1469</title>
<path fill="none" stroke="#191970" d="M58.4971,-299.6499C67.9634,-332.7036 94.8088,-411.895 145,-456.5 146.3141,-457.6678 147.691,-458.7814 149.1189,-459.8431"/>
<polygon fill="#191970" stroke="#191970" points="147.4584,-462.9357 157.7691,-465.3727 151.2286,-457.0377 147.4584,-462.9357"/>
</g>
<!-- Node1470 -->
<g id="node3" class="node">
<title>Node1470</title>
<g id="a_node3"><a xlink:href="structcimg__library__suffixed_1_1_c_img.html#a82cf529dfcb37cbd01ad7f9bd76795d7" target="_top" xlink:title="Construct empty image . ">
<polygon fill="#ffffff" stroke="#000000" points="153,-416.5 153,-446.5 262,-446.5 262,-416.5 153,-416.5"/>
<text text-anchor="start" x="161" y="-434.5" font-family="Helvetica,sans-Serif" font-size="10.00" fill="#000000">cimg_library_suffixed</text>
<text text-anchor="middle" x="207.5" y="-423.5" font-family="Helvetica,sans-Serif" font-size="10.00" fill="#000000">::CImg::assign</text>
</a>
</g>
</g>
<!-- Node1468&#45;&gt;Node1470 -->
<g id="edge2" class="edge">
<title>Node1468&#45;&gt;Node1470</title>
<path fill="none" stroke="#191970" d="M61.8751,-299.5272C75.1386,-325.1083 105.3687,-377.275 145,-407.5 146.8022,-408.8745 148.6925,-410.1788 150.647,-411.4157"/>
<polygon fill="#191970" stroke="#191970" points="149.1203,-414.5724 159.5536,-416.4154 152.5468,-408.4683 149.1203,-414.5724"/>
</g>
<!-- Node1471 -->
<g id="node4" class="node">
<title>Node1471</title>
<g id="a_node4"><a xlink:href="namespacecimg__library__suffixed_1_1cimg.html#a40fb5fe2a0d260120909c617dfd3b07b" target="_top" xlink:title="Return the basename of a filename. ">
<polygon fill="#ffffff" stroke="#000000" points="153,-367.5 153,-397.5 262,-397.5 262,-367.5 153,-367.5"/>
<text text-anchor="start" x="161" y="-385.5" font-family="Helvetica,sans-Serif" font-size="10.00" fill="#000000">cimg_library_suffixed</text>
<text text-anchor="middle" x="207.5" y="-374.5" font-family="Helvetica,sans-Serif" font-size="10.00" fill="#000000">::cimg::basename</text>
</a>
</g>
</g>
<!-- Node1468&#45;&gt;Node1471 -->
<g id="edge3" class="edge">
<title>Node1468&#45;&gt;Node1471</title>
<path fill="none" stroke="#191970" d="M69.6982,-299.53C86.8154,-315.8049 116.0396,-341.6856 145,-358.5 147.8145,-360.1341 150.761,-361.6979 153.777,-363.1871"/>
<polygon fill="#191970" stroke="#191970" points="152.4241,-366.4174 162.9708,-367.4271 155.3557,-360.0608 152.4241,-366.4174"/>
</g>
<!-- Node1472 -->
<g id="node5" class="node">
<title>Node1472</title>
<g id="a_node5"><a xlink:href="structcimg__library__suffixed_1_1_c_img_list.html#ae37157824423ea01f970917ce45311a8" target="_top" xlink:title="Return a reference to an empty list . ">
<polygon fill="#ffffff" stroke="#000000" points="145,-318.5 145,-348.5 270,-348.5 270,-318.5 145,-318.5"/>
<text text-anchor="start" x="153" y="-336.5" font-family="Helvetica,sans-Serif" font-size="10.00" fill="#000000">cimg_library_suffixed</text>
<text text-anchor="middle" x="207.5" y="-325.5" font-family="Helvetica,sans-Serif" font-size="10.00" fill="#000000">::CImgList::const_empty</text>
</a>
</g>
</g>
<!-- Node1468&#45;&gt;Node1472 -->
<g id="edge4" class="edge">
<title>Node1468&#45;&gt;Node1472</title>
<path fill="none" stroke="#191970" d="M101.6535,-299.6014C117.1411,-304.5615 134.5201,-310.1274 150.6492,-315.2929"/>
<polygon fill="#191970" stroke="#191970" points="149.9112,-318.7316 160.5022,-318.4484 152.0462,-312.0651 149.9112,-318.7316"/>
</g>
<!-- Node1473 -->
<g id="node6" class="node">
<title>Node1473</title>
<g id="a_node6"><a xlink:href="structcimg__library__suffixed_1_1_c_img.html#a5a062592b78f33dd2813cc59985e61a2" target="_top" xlink:title="Return a pointer to the first pixel value. ">
<polygon fill="#ffffff" stroke="#000000" points="153,-269.5 153,-299.5 262,-299.5 262,-269.5 153,-269.5"/>
<text text-anchor="start" x="161" y="-287.5" font-family="Helvetica,sans-Serif" font-size="10.00" fill="#000000">cimg_library_suffixed</text>
<text text-anchor="middle" x="207.5" y="-276.5" font-family="Helvetica,sans-Serif" font-size="10.00" fill="#000000">::CImg::data</text>
</a>
</g>
</g>
<!-- Node1468&#45;&gt;Node1473 -->
<g id="edge5" class="edge">
<title>Node1468&#45;&gt;Node1473</title>
<path fill="none" stroke="#191970" d="M109.3044,-284.5C120.1364,-284.5 131.6012,-284.5 142.7269,-284.5"/>
<polygon fill="#191970" stroke="#191970" points="142.8213,-288.0001 152.8213,-284.5 142.8212,-281.0001 142.8213,-288.0001"/>
</g>
<!-- Node1474 -->
<g id="node7" class="node">
<title>Node1474</title>
<g id="a_node7"><a xlink:href="namespacecimg__library__suffixed_1_1cimg.html#aca0e45a04eb1607f2e25101aae4b8572" target="_top" xlink:title="Check if a path is a directory. ">
<polygon fill="#ffffff" stroke="#000000" points="153,-220.5 153,-250.5 262,-250.5 262,-220.5 153,-220.5"/>
<text text-anchor="start" x="161" y="-238.5" font-family="Helvetica,sans-Serif" font-size="10.00" fill="#000000">cimg_library_suffixed</text>
<text text-anchor="middle" x="207.5" y="-227.5" font-family="Helvetica,sans-Serif" font-size="10.00" fill="#000000">::cimg::is_directory</text>
</a>
</g>
</g>
<!-- Node1468&#45;&gt;Node1474 -->
<g id="edge6" class="edge">
<title>Node1468&#45;&gt;Node1474</title>
<path fill="none" stroke="#191970" d="M101.6535,-269.3986C117.1411,-264.4385 134.5201,-258.8726 150.6492,-253.7071"/>
<polygon fill="#191970" stroke="#191970" points="152.0462,-256.9349 160.5022,-250.5516 149.9112,-250.2684 152.0462,-256.9349"/>
</g>
<!-- Node1475 -->
<g id="node8" class="node">
<title>Node1475</title>
<g id="a_node8"><a xlink:href="structcimg__library__suffixed_1_1_c_img.html#a679b1e1a7717fbb6be2352355e69f077" target="_top" xlink:title="Transfer content of an image instance into another one. ">
<polygon fill="#ffffff" stroke="#000000" points="153,-171.5 153,-201.5 262,-201.5 262,-171.5 153,-171.5"/>
<text text-anchor="start" x="161" y="-189.5" font-family="Helvetica,sans-Serif" font-size="10.00" fill="#000000">cimg_library_suffixed</text>
<text text-anchor="middle" x="207.5" y="-178.5" font-family="Helvetica,sans-Serif" font-size="10.00" fill="#000000">::CImg::move_to</text>
</a>
</g>
</g>
<!-- Node1468&#45;&gt;Node1475 -->
<g id="edge7" class="edge">
<title>Node1468&#45;&gt;Node1475</title>
<path fill="none" stroke="#191970" d="M70.0942,-269.4727C87.3244,-253.4807 116.4305,-228.2255 145,-211.5 148.4196,-209.4981 152.0297,-207.5879 155.7199,-205.7803"/>
<polygon fill="#191970" stroke="#191970" points="157.3788,-208.8696 164.9949,-201.5044 154.4481,-202.5126 157.3788,-208.8696"/>
</g>
<!-- Node1476 -->
<g id="node9" class="node">
<title>Node1476</title>
<g id="a_node9"><a xlink:href="structcimg__library__suffixed_1_1_c_img.html#a1a6afc9cde7f9cdfa0d2711dd39f83b8" target="_top" xlink:title="Return an image containing the ascii codes of the specified string. ">
<polygon fill="#ffffff" stroke="#000000" points="153,-122.5 153,-152.5 262,-152.5 262,-122.5 153,-122.5"/>
<text text-anchor="start" x="161" y="-140.5" font-family="Helvetica,sans-Serif" font-size="10.00" fill="#000000">cimg_library_suffixed</text>
<text text-anchor="middle" x="207.5" y="-129.5" font-family="Helvetica,sans-Serif" font-size="10.00" fill="#000000">::CImg::string</text>
</a>
</g>
</g>
<!-- Node1468&#45;&gt;Node1476 -->
<g id="edge8" class="edge">
<title>Node1468&#45;&gt;Node1476</title>
<path fill="none" stroke="#191970" d="M62.1661,-269.2491C75.653,-243.8236 105.9366,-192.6009 145,-162.5 147.2998,-160.7278 149.7419,-159.0642 152.2769,-157.5047"/>
<polygon fill="#191970" stroke="#191970" points="154.1134,-160.489 161.1825,-152.5973 150.735,-154.3582 154.1134,-160.489"/>
</g>
<!-- Node1477 -->
<g id="node10" class="node">
<title>Node1477</title>
<g id="a_node10"><a xlink:href="namespacecimg__library__suffixed_1_1cimg.html#a79aef0cbcf66ceb71c2b74cb66b4deb2" target="_top" xlink:title="Avoid warning messages due to unused parameters. Do nothing actually. ">
<polygon fill="#ffffff" stroke="#000000" points="153,-73.5 153,-103.5 262,-103.5 262,-73.5 153,-73.5"/>
<text text-anchor="start" x="161" y="-91.5" font-family="Helvetica,sans-Serif" font-size="10.00" fill="#000000">cimg_library_suffixed</text>
<text text-anchor="middle" x="207.5" y="-80.5" font-family="Helvetica,sans-Serif" font-size="10.00" fill="#000000">::cimg::unused</text>
</a>
</g>
</g>
<!-- Node1468&#45;&gt;Node1477 -->
<g id="edge9" class="edge">
<title>Node1468&#45;&gt;Node1477</title>
<path fill="none" stroke="#191970" d="M58.569,-269.489C68.1788,-236.729 95.2925,-158.1876 145,-113.5 146.73,-111.9447 148.5689,-110.4801 150.4892,-109.1015"/>
<polygon fill="#191970" stroke="#191970" points="152.7024,-111.8468 159.3457,-103.5935 149.0055,-105.9026 152.7024,-111.8468"/>
</g>
<!-- Node1478 -->
<g id="node11" class="node">
<title>Node1478</title>
<g id="a_node11"><a xlink:href="namespacecimg__library__suffixed_1_1cimg.html#a9e739e4b4ac058abfba069466617b914" target="_top" xlink:title="cimg_library_suffixed\l::cimg::mutex">
<polygon fill="#ffffff" stroke="#000000" points="306,-73.5 306,-103.5 415,-103.5 415,-73.5 306,-73.5"/>
<text text-anchor="start" x="314" y="-91.5" font-family="Helvetica,sans-Serif" font-size="10.00" fill="#000000">cimg_library_suffixed</text>
<text text-anchor="middle" x="360.5" y="-80.5" font-family="Helvetica,sans-Serif" font-size="10.00" fill="#000000">::cimg::mutex</text>
</a>
</g>
</g>
<!-- Node1477&#45;&gt;Node1478 -->
<g id="edge10" class="edge">
<title>Node1477&#45;&gt;Node1478</title>
<path fill="none" stroke="#191970" d="M262.3044,-88.5C273.1364,-88.5 284.6012,-88.5 295.7269,-88.5"/>
<polygon fill="#191970" stroke="#191970" points="295.8213,-92.0001 305.8213,-88.5 295.8212,-85.0001 295.8213,-92.0001"/>
</g>
<!-- Node1479 -->
<g id="node12" class="node">
<title>Node1479</title>
<g id="a_node12"><a xlink:href="namespacecimg__library__suffixed_1_1cimg.html#aa0e1bc96ae6e235dc5b67b8b0a466166" target="_top" xlink:title="cimg_library_suffixed\l::cimg::Mutex_attr">
<polygon fill="#ffffff" stroke="#000000" points="620,-71.5 620,-101.5 729,-101.5 729,-71.5 620,-71.5"/>
<text text-anchor="start" x="628" y="-89.5" font-family="Helvetica,sans-Serif" font-size="10.00" fill="#000000">cimg_library_suffixed</text>
<text text-anchor="middle" x="674.5" y="-78.5" font-family="Helvetica,sans-Serif" font-size="10.00" fill="#000000">::cimg::Mutex_attr</text>
</a>
</g>
</g>
<!-- Node1478&#45;&gt;Node1479 -->
<g id="edge11" class="edge">
<title>Node1478&#45;&gt;Node1479</title>
<path fill="none" stroke="#191970" d="M380.7886,-103.66C398.338,-115.766 424.9275,-131.7766 451,-138.5 508.2386,-153.2603 526.8872,-153.7398 584,-138.5 606.8112,-132.4131 629.8447,-119.0529 646.9657,-107.3993"/>
<polygon fill="#191970" stroke="#191970" points="649.1785,-110.1221 655.3474,-101.5084 645.1534,-104.3951 649.1785,-110.1221"/>
</g>
<!-- Node1480 -->
<g id="node13" class="node">
<title>Node1480</title>
<g id="a_node13"><a xlink:href="structcimg__library__suffixed_1_1cimg_1_1_mutex__info.html#afac3fa5f107ad4795fb867050f616555" target="_top" xlink:title="cimg_library_suffixed\l::cimg::Mutex_info::unlock">
<polygon fill="#ffffff" stroke="#000000" points="451.5,-98.5 451.5,-128.5 583.5,-128.5 583.5,-98.5 451.5,-98.5"/>
<text text-anchor="start" x="459.5" y="-116.5" font-family="Helvetica,sans-Serif" font-size="10.00" fill="#000000">cimg_library_suffixed</text>
<text text-anchor="middle" x="517.5" y="-105.5" font-family="Helvetica,sans-Serif" font-size="10.00" fill="#000000">::cimg::Mutex_info::unlock</text>
</a>
</g>
</g>
<!-- Node1478&#45;&gt;Node1480 -->
<g id="edge12" class="edge">
<title>Node1478&#45;&gt;Node1480</title>
<path fill="none" stroke="#191970" d="M415.411,-97.2438C423.7369,-98.5696 432.453,-99.9575 441.1344,-101.3399"/>
<polygon fill="#191970" stroke="#191970" points="440.8581,-104.8399 451.2841,-102.9561 441.9589,-97.927 440.8581,-104.8399"/>
</g>
<!-- Node1481 -->
<g id="node14" class="node">
<title>Node1481</title>
<g id="a_node14"><a xlink:href="structcimg__library__suffixed_1_1cimg_1_1_mutex__info.html#a6cc8e26847a1aa649febed03d70182e7" target="_top" xlink:title="cimg_library_suffixed\l::cimg::Mutex_info::lock">
<polygon fill="#ffffff" stroke="#000000" points="456.5,-49.5 456.5,-79.5 578.5,-79.5 578.5,-49.5 456.5,-49.5"/>
<text text-anchor="start" x="464.5" y="-67.5" font-family="Helvetica,sans-Serif" font-size="10.00" fill="#000000">cimg_library_suffixed</text>
<text text-anchor="middle" x="517.5" y="-56.5" font-family="Helvetica,sans-Serif" font-size="10.00" fill="#000000">::cimg::Mutex_info::lock</text>
</a>
</g>
</g>
<!-- Node1478&#45;&gt;Node1481 -->
<g id="edge13" class="edge">
<title>Node1478&#45;&gt;Node1481</title>
<path fill="none" stroke="#191970" d="M415.411,-80.106C425.4626,-78.5694 436.083,-76.9459 446.5242,-75.3498"/>
<polygon fill="#191970" stroke="#191970" points="447.0993,-78.8026 456.4556,-73.8316 446.0415,-71.883 447.0993,-78.8026"/>
</g>
<!-- Node1482 -->
<g id="node15" class="node">
<title>Node1482</title>
<g id="a_node15"><a xlink:href="structcimg__library__suffixed_1_1cimg_1_1_mutex__info.html#a9bf4ed1e1dfe6f28fa6250cd04f3c900" target="_top" xlink:title="cimg_library_suffixed\l::cimg::Mutex_info::trylock">
<polygon fill="#ffffff" stroke="#000000" points="451,-.5 451,-30.5 584,-30.5 584,-.5 451,-.5"/>
<text text-anchor="start" x="459" y="-18.5" font-family="Helvetica,sans-Serif" font-size="10.00" fill="#000000">cimg_library_suffixed</text>
<text text-anchor="middle" x="517.5" y="-7.5" font-family="Helvetica,sans-Serif" font-size="10.00" fill="#000000">::cimg::Mutex_info::trylock</text>
</a>
</g>
</g>
<!-- Node1478&#45;&gt;Node1482 -->
<g id="edge14" class="edge">
<title>Node1478&#45;&gt;Node1482</title>
<path fill="none" stroke="#191970" d="M386.9788,-73.3011C404.7871,-63.3682 428.9505,-50.4428 451,-40.5 455.6591,-38.3991 460.5523,-36.3232 465.4816,-34.3195"/>
<polygon fill="#191970" stroke="#191970" points="466.9456,-37.5042 474.9536,-30.5672 464.3675,-30.9963 466.9456,-37.5042"/>
</g>
<!-- Node1482&#45;&gt;Node1479 -->
<g id="edge15" class="edge">
<title>Node1482&#45;&gt;Node1479</title>
<path fill="none" stroke="#191970" d="M559.6439,-30.5387C567.7907,-33.6717 576.2117,-37.0692 584,-40.5 601.9326,-48.3993 621.3586,-58.1135 637.5985,-66.5763"/>
<polygon fill="#191970" stroke="#191970" points="636.2767,-69.8356 646.7567,-71.3913 639.5342,-63.6398 636.2767,-69.8356"/>
</g>
</g>
</svg>
