<?xml version="1.0" encoding="UTF-8" standalone="no"?>
<!DOCTYPE svg PUBLIC "-//W3C//DTD SVG 1.1//EN"
 "http://www.w3.org/Graphics/SVG/1.1/DTD/svg11.dtd">
<!-- Generated by graphviz version 2.40.1 (20161225.0304)
 -->
<!-- Title: cimg_library_suffixed::cimg::winformat_string Pages: 1 -->
<svg width="275pt" height="39pt"
 viewBox="0.00 0.00 275.00 39.00" xmlns="http://www.w3.org/2000/svg" xmlns:xlink="http://www.w3.org/1999/xlink">
<g id="graph0" class="graph" transform="scale(1 1) rotate(0) translate(4 35)">
<title>cimg_library_suffixed::cimg::winformat_string</title>
<polygon fill="#ffffff" stroke="transparent" points="-4,4 -4,-35 271,-35 271,4 -4,4"/>
<!-- Node4669 -->
<g id="node1" class="node">
<title>Node4669</title>
<polygon fill="#bfbfbf" stroke="#000000" points="0,-.5 0,-30.5 122,-30.5 122,-.5 0,-.5"/>
<text text-anchor="start" x="8" y="-18.5" font-family="Helvetica,sans-Serif" font-size="10.00" fill="#000000">cimg_library_suffixed</text>
<text text-anchor="middle" x="61" y="-7.5" font-family="Helvetica,sans-Serif" font-size="10.00" fill="#000000">::cimg::winformat_string</text>
</g>
<!-- Node4670 -->
<g id="node2" class="node">
<title>Node4670</title>
<g id="a_node2"><a xlink:href="namespacecimg__library__suffixed_1_1cimg.html#a9d486931d7eb759c7268b09a62cd3d28" target="_top" xlink:title="cimg_library_suffixed\l::cimg::win_fopen">
<polygon fill="#ffffff" stroke="#000000" points="158,-.5 158,-30.5 267,-30.5 267,-.5 158,-.5"/>
<text text-anchor="start" x="166" y="-18.5" font-family="Helvetica,sans-Serif" font-size="10.00" fill="#000000">cimg_library_suffixed</text>
<text text-anchor="middle" x="212.5" y="-7.5" font-family="Helvetica,sans-Serif" font-size="10.00" fill="#000000">::cimg::win_fopen</text>
</a>
</g>
</g>
<!-- Node4669&#45;&gt;Node4670 -->
<g id="edge1" class="edge">
<title>Node4669&#45;&gt;Node4670</title>
<path fill="none" stroke="#191970" d="M122.1842,-15.5C130.5915,-15.5 139.2475,-15.5 147.7168,-15.5"/>
<polygon fill="#191970" stroke="#191970" points="147.9255,-19.0001 157.9254,-15.5 147.9254,-12.0001 147.9255,-19.0001"/>
</g>
</g>
</svg>
