<?xml version="1.0" encoding="UTF-8" standalone="no"?>
<!DOCTYPE svg PUBLIC "-//W3C//DTD SVG 1.1//EN"
 "http://www.w3.org/Graphics/SVG/1.1/DTD/svg11.dtd">
<!-- Generated by graphviz version 2.40.1 (20161225.0304)
 -->
<!-- Title: cimg_library_suffixed::cimg::exception_mode Pages: 1 -->
<svg width="1040pt" height="178pt"
 viewBox="0.00 0.00 1040.00 178.00" xmlns="http://www.w3.org/2000/svg" xmlns:xlink="http://www.w3.org/1999/xlink">
<g id="graph0" class="graph" transform="scale(1 1) rotate(0) translate(4 174)">
<title>cimg_library_suffixed::cimg::exception_mode</title>
<polygon fill="#ffffff" stroke="transparent" points="-4,4 -4,-174 1036,-174 1036,4 -4,4"/>
<!-- Node1010 -->
<g id="node1" class="node">
<title>Node1010</title>
<polygon fill="#bfbfbf" stroke="#000000" points="0,-73.5 0,-103.5 121,-103.5 121,-73.5 0,-73.5"/>
<text text-anchor="start" x="8" y="-91.5" font-family="Helvetica,sans-Serif" font-size="10.00" fill="#000000">cimg_library_suffixed</text>
<text text-anchor="middle" x="60.5" y="-80.5" font-family="Helvetica,sans-Serif" font-size="10.00" fill="#000000">::cimg::exception_mode</text>
</g>
<!-- Node1011 -->
<g id="node2" class="node">
<title>Node1011</title>
<g id="a_node2"><a xlink:href="namespacecimg__library__suffixed_1_1cimg.html#a6c578f866de2be9be7e385d693c758c8" target="_top" xlink:title="cimg_library_suffixed\l::cimg::_exception_mode">
<polygon fill="#ffffff" stroke="#000000" points="157,-95.5 157,-125.5 283,-125.5 283,-95.5 157,-95.5"/>
<text text-anchor="start" x="165" y="-113.5" font-family="Helvetica,sans-Serif" font-size="10.00" fill="#000000">cimg_library_suffixed</text>
<text text-anchor="middle" x="220" y="-102.5" font-family="Helvetica,sans-Serif" font-size="10.00" fill="#000000">::cimg::_exception_mode</text>
</a>
</g>
</g>
<!-- Node1010&#45;&gt;Node1011 -->
<g id="edge1" class="edge">
<title>Node1010&#45;&gt;Node1011</title>
<path fill="none" stroke="#191970" d="M121.2551,-96.88C129.6076,-98.0321 138.2552,-99.2249 146.8017,-100.4037"/>
<polygon fill="#191970" stroke="#191970" points="146.38,-103.8786 156.7645,-101.7779 147.3366,-96.9442 146.38,-103.8786"/>
</g>
<!-- Node1012 -->
<g id="node3" class="node">
<title>Node1012</title>
<g id="a_node3"><a xlink:href="namespacecimg__library__suffixed_1_1cimg.html#aab8db7528c32a8fd3a3dc471e662782e" target="_top" xlink:title="cimg_library_suffixed\l::cimg::_stderr">
<polygon fill="#ffffff" stroke="#000000" points="319,-139.5 319,-169.5 428,-169.5 428,-139.5 319,-139.5"/>
<text text-anchor="start" x="327" y="-157.5" font-family="Helvetica,sans-Serif" font-size="10.00" fill="#000000">cimg_library_suffixed</text>
<text text-anchor="middle" x="373.5" y="-146.5" font-family="Helvetica,sans-Serif" font-size="10.00" fill="#000000">::cimg::_stderr</text>
</a>
</g>
</g>
<!-- Node1011&#45;&gt;Node1012 -->
<g id="edge2" class="edge">
<title>Node1011&#45;&gt;Node1012</title>
<path fill="none" stroke="#191970" d="M272.3967,-125.5192C284.9236,-129.11 298.4161,-132.9776 311.3361,-136.681"/>
<polygon fill="#191970" stroke="#191970" points="310.5017,-140.0827 321.079,-139.4738 312.4306,-133.3537 310.5017,-140.0827"/>
</g>
<!-- Node1014 -->
<g id="node5" class="node">
<title>Node1014</title>
<g id="a_node5"><a xlink:href="namespacecimg__library__suffixed_1_1cimg.html#a9e739e4b4ac058abfba069466617b914" target="_top" xlink:title="cimg_library_suffixed\l::cimg::mutex">
<polygon fill="#ffffff" stroke="#000000" points="609,-73.5 609,-103.5 718,-103.5 718,-73.5 609,-73.5"/>
<text text-anchor="start" x="617" y="-91.5" font-family="Helvetica,sans-Serif" font-size="10.00" fill="#000000">cimg_library_suffixed</text>
<text text-anchor="middle" x="663.5" y="-80.5" font-family="Helvetica,sans-Serif" font-size="10.00" fill="#000000">::cimg::mutex</text>
</a>
</g>
</g>
<!-- Node1011&#45;&gt;Node1014 -->
<g id="edge17" class="edge">
<title>Node1011&#45;&gt;Node1014</title>
<path fill="none" stroke="#191970" d="M283.0717,-107.3713C366.8352,-103.2162 514.0329,-95.9144 598.6723,-91.7158"/>
<polygon fill="#191970" stroke="#191970" points="598.8613,-95.2108 608.6756,-91.2196 598.5144,-88.2194 598.8613,-95.2108"/>
</g>
<!-- Node1019 -->
<g id="node10" class="node">
<title>Node1019</title>
<g id="a_node10"><a xlink:href="namespacecimg__library__suffixed_1_1cimg.html#a01a3b743897290604513ea6d847c9886" target="_top" xlink:title="cimg_library_suffixed\l::cimg::_stdin">
<polygon fill="#ffffff" stroke="#000000" points="319,-2.5 319,-32.5 428,-32.5 428,-2.5 319,-2.5"/>
<text text-anchor="start" x="327" y="-20.5" font-family="Helvetica,sans-Serif" font-size="10.00" fill="#000000">cimg_library_suffixed</text>
<text text-anchor="middle" x="373.5" y="-9.5" font-family="Helvetica,sans-Serif" font-size="10.00" fill="#000000">::cimg::_stdin</text>
</a>
</g>
</g>
<!-- Node1011&#45;&gt;Node1019 -->
<g id="edge11" class="edge">
<title>Node1011&#45;&gt;Node1019</title>
<path fill="none" stroke="#191970" d="M239.3599,-95.3141C258.8006,-80.4791 289.9567,-57.8125 319,-41.5 321.7071,-39.9796 324.529,-38.4856 327.4016,-37.0327"/>
<polygon fill="#191970" stroke="#191970" points="329.1912,-40.0551 336.6702,-32.5508 326.1438,-33.7533 329.1912,-40.0551"/>
</g>
<!-- Node1020 -->
<g id="node11" class="node">
<title>Node1020</title>
<g id="a_node11"><a xlink:href="namespacecimg__library__suffixed_1_1cimg.html#a493220746e5df3466568bd7862825008" target="_top" xlink:title="cimg_library_suffixed\l::cimg::_stdout">
<polygon fill="#ffffff" stroke="#000000" points="319,-51.5 319,-81.5 428,-81.5 428,-51.5 319,-51.5"/>
<text text-anchor="start" x="327" y="-69.5" font-family="Helvetica,sans-Serif" font-size="10.00" fill="#000000">cimg_library_suffixed</text>
<text text-anchor="middle" x="373.5" y="-58.5" font-family="Helvetica,sans-Serif" font-size="10.00" fill="#000000">::cimg::_stdout</text>
</a>
</g>
</g>
<!-- Node1011&#45;&gt;Node1020 -->
<g id="edge14" class="edge">
<title>Node1011&#45;&gt;Node1020</title>
<path fill="none" stroke="#191970" d="M272.3967,-95.4808C284.9236,-91.89 298.4161,-88.0224 311.3361,-84.319"/>
<polygon fill="#191970" stroke="#191970" points="312.4306,-87.6463 321.079,-81.5262 310.5017,-80.9173 312.4306,-87.6463"/>
</g>
<!-- Node1012&#45;&gt;Node1010 -->
<g id="edge3" class="edge">
<title>Node1012&#45;&gt;Node1010</title>
<path fill="none" stroke="#191970" d="M318.6971,-155.1648C274.3336,-154.408 210.6316,-150.3651 157,-135.5 134.9792,-129.3965 111.913,-118.3563 93.8556,-108.5092"/>
<polygon fill="#191970" stroke="#191970" points="95.3375,-105.3278 84.9013,-103.501 91.9205,-111.4372 95.3375,-105.3278"/>
</g>
<!-- Node1013 -->
<g id="node4" class="node">
<title>Node1013</title>
<g id="a_node4"><a xlink:href="namespacecimg__library__suffixed_1_1cimg.html#a79aef0cbcf66ceb71c2b74cb66b4deb2" target="_top" xlink:title="Avoid warning messages due to unused parameters. Do nothing actually. ">
<polygon fill="#ffffff" stroke="#000000" points="464,-51.5 464,-81.5 573,-81.5 573,-51.5 464,-51.5"/>
<text text-anchor="start" x="472" y="-69.5" font-family="Helvetica,sans-Serif" font-size="10.00" fill="#000000">cimg_library_suffixed</text>
<text text-anchor="middle" x="518.5" y="-58.5" font-family="Helvetica,sans-Serif" font-size="10.00" fill="#000000">::cimg::unused</text>
</a>
</g>
</g>
<!-- Node1012&#45;&gt;Node1013 -->
<g id="edge4" class="edge">
<title>Node1012&#45;&gt;Node1013</title>
<path fill="none" stroke="#191970" d="M398.4264,-139.3723C422.2878,-124.8908 458.4587,-102.9388 484.8648,-86.9131"/>
<polygon fill="#191970" stroke="#191970" points="486.6807,-89.9052 493.4136,-81.7248 483.0489,-83.921 486.6807,-89.9052"/>
</g>
<!-- Node1013&#45;&gt;Node1014 -->
<g id="edge5" class="edge">
<title>Node1013&#45;&gt;Node1014</title>
<path fill="none" stroke="#191970" d="M573.3183,-74.8173C581.5286,-76.063 590.0611,-77.3575 598.4586,-78.6317"/>
<polygon fill="#191970" stroke="#191970" points="598.1923,-82.1312 608.6042,-80.171 599.2424,-75.2104 598.1923,-82.1312"/>
</g>
<!-- Node1015 -->
<g id="node6" class="node">
<title>Node1015</title>
<g id="a_node6"><a xlink:href="namespacecimg__library__suffixed_1_1cimg.html#aa0e1bc96ae6e235dc5b67b8b0a466166" target="_top" xlink:title="cimg_library_suffixed\l::cimg::Mutex_attr">
<polygon fill="#ffffff" stroke="#000000" points="923,-120.5 923,-150.5 1032,-150.5 1032,-120.5 923,-120.5"/>
<text text-anchor="start" x="931" y="-138.5" font-family="Helvetica,sans-Serif" font-size="10.00" fill="#000000">cimg_library_suffixed</text>
<text text-anchor="middle" x="977.5" y="-127.5" font-family="Helvetica,sans-Serif" font-size="10.00" fill="#000000">::cimg::Mutex_attr</text>
</a>
</g>
</g>
<!-- Node1014&#45;&gt;Node1015 -->
<g id="edge6" class="edge">
<title>Node1014&#45;&gt;Node1015</title>
<path fill="none" stroke="#191970" d="M683.7886,-103.66C701.338,-115.766 727.9275,-131.7766 754,-138.5 806.2267,-151.9679 867.6233,-149.9274 912.8381,-145.2484"/>
<polygon fill="#191970" stroke="#191970" points="913.253,-148.724 922.8082,-144.1471 912.4844,-141.7663 913.253,-148.724"/>
</g>
<!-- Node1016 -->
<g id="node7" class="node">
<title>Node1016</title>
<g id="a_node7"><a xlink:href="structcimg__library__suffixed_1_1cimg_1_1_mutex__info.html#afac3fa5f107ad4795fb867050f616555" target="_top" xlink:title="cimg_library_suffixed\l::cimg::Mutex_info::unlock">
<polygon fill="#ffffff" stroke="#000000" points="754.5,-49.5 754.5,-79.5 886.5,-79.5 886.5,-49.5 754.5,-49.5"/>
<text text-anchor="start" x="762.5" y="-67.5" font-family="Helvetica,sans-Serif" font-size="10.00" fill="#000000">cimg_library_suffixed</text>
<text text-anchor="middle" x="820.5" y="-56.5" font-family="Helvetica,sans-Serif" font-size="10.00" fill="#000000">::cimg::Mutex_info::unlock</text>
</a>
</g>
</g>
<!-- Node1014&#45;&gt;Node1016 -->
<g id="edge7" class="edge">
<title>Node1014&#45;&gt;Node1016</title>
<path fill="none" stroke="#191970" d="M718.411,-80.106C726.7369,-78.8332 735.453,-77.5008 744.1344,-76.1737"/>
<polygon fill="#191970" stroke="#191970" points="744.9278,-79.5932 754.2841,-74.6222 743.87,-72.6736 744.9278,-79.5932"/>
</g>
<!-- Node1017 -->
<g id="node8" class="node">
<title>Node1017</title>
<g id="a_node8"><a xlink:href="structcimg__library__suffixed_1_1cimg_1_1_mutex__info.html#a6cc8e26847a1aa649febed03d70182e7" target="_top" xlink:title="cimg_library_suffixed\l::cimg::Mutex_info::lock">
<polygon fill="#ffffff" stroke="#000000" points="759.5,-.5 759.5,-30.5 881.5,-30.5 881.5,-.5 759.5,-.5"/>
<text text-anchor="start" x="767.5" y="-18.5" font-family="Helvetica,sans-Serif" font-size="10.00" fill="#000000">cimg_library_suffixed</text>
<text text-anchor="middle" x="820.5" y="-7.5" font-family="Helvetica,sans-Serif" font-size="10.00" fill="#000000">::cimg::Mutex_info::lock</text>
</a>
</g>
</g>
<!-- Node1014&#45;&gt;Node1017 -->
<g id="edge8" class="edge">
<title>Node1014&#45;&gt;Node1017</title>
<path fill="none" stroke="#191970" d="M689.1165,-73.2922C706.9592,-63.0342 731.4996,-49.5832 754,-39.5 758.0148,-37.7009 762.209,-35.935 766.4536,-34.2284"/>
<polygon fill="#191970" stroke="#191970" points="767.7287,-37.488 775.7765,-30.5972 765.1881,-30.9653 767.7287,-37.488"/>
</g>
<!-- Node1018 -->
<g id="node9" class="node">
<title>Node1018</title>
<g id="a_node9"><a xlink:href="structcimg__library__suffixed_1_1cimg_1_1_mutex__info.html#a9bf4ed1e1dfe6f28fa6250cd04f3c900" target="_top" xlink:title="cimg_library_suffixed\l::cimg::Mutex_info::trylock">
<polygon fill="#ffffff" stroke="#000000" points="754,-98.5 754,-128.5 887,-128.5 887,-98.5 754,-98.5"/>
<text text-anchor="start" x="762" y="-116.5" font-family="Helvetica,sans-Serif" font-size="10.00" fill="#000000">cimg_library_suffixed</text>
<text text-anchor="middle" x="820.5" y="-105.5" font-family="Helvetica,sans-Serif" font-size="10.00" fill="#000000">::cimg::Mutex_info::trylock</text>
</a>
</g>
</g>
<!-- Node1014&#45;&gt;Node1018 -->
<g id="edge9" class="edge">
<title>Node1014&#45;&gt;Node1018</title>
<path fill="none" stroke="#191970" d="M718.411,-97.2438C726.6098,-98.5493 735.187,-99.9151 743.7367,-101.2766"/>
<polygon fill="#191970" stroke="#191970" points="743.3105,-104.7527 753.7365,-102.8689 744.4113,-97.8398 743.3105,-104.7527"/>
</g>
<!-- Node1018&#45;&gt;Node1015 -->
<g id="edge10" class="edge">
<title>Node1018&#45;&gt;Node1015</title>
<path fill="none" stroke="#191970" d="M887.0821,-122.83C895.5193,-124.0123 904.1445,-125.2209 912.5556,-126.3995"/>
<polygon fill="#191970" stroke="#191970" points="912.293,-129.8968 922.682,-127.8185 913.2645,-122.9646 912.293,-129.8968"/>
</g>
<!-- Node1019&#45;&gt;Node1010 -->
<g id="edge12" class="edge">
<title>Node1019&#45;&gt;Node1010</title>
<path fill="none" stroke="#191970" d="M318.9666,-29.8702C266.8805,-41.6853 188.1092,-59.5535 131.2205,-72.458"/>
<polygon fill="#191970" stroke="#191970" points="130.1986,-69.1008 121.2207,-74.7263 131.7472,-75.9273 130.1986,-69.1008"/>
</g>
<!-- Node1019&#45;&gt;Node1013 -->
<g id="edge13" class="edge">
<title>Node1019&#45;&gt;Node1013</title>
<path fill="none" stroke="#191970" d="M418.1879,-32.6014C432.659,-37.4917 448.8725,-42.9707 463.9752,-48.0744"/>
<polygon fill="#191970" stroke="#191970" points="463.1158,-51.4783 473.71,-51.3641 465.3569,-44.8468 463.1158,-51.4783"/>
</g>
<!-- Node1020&#45;&gt;Node1010 -->
<g id="edge15" class="edge">
<title>Node1020&#45;&gt;Node1010</title>
<path fill="none" stroke="#191970" d="M318.9666,-70.333C266.8805,-73.994 188.1092,-79.5307 131.2205,-83.5292"/>
<polygon fill="#191970" stroke="#191970" points="130.9506,-80.0395 121.2207,-84.2321 131.4415,-87.0222 130.9506,-80.0395"/>
</g>
<!-- Node1020&#45;&gt;Node1013 -->
<g id="edge16" class="edge">
<title>Node1020&#45;&gt;Node1013</title>
<path fill="none" stroke="#191970" d="M428.3183,-66.5C436.5286,-66.5 445.0611,-66.5 453.4586,-66.5"/>
<polygon fill="#191970" stroke="#191970" points="453.6042,-70.0001 463.6042,-66.5 453.6042,-63.0001 453.6042,-70.0001"/>
</g>
</g>
</svg>
