<?xml version="1.0" encoding="UTF-8" standalone="no"?>
<!DOCTYPE svg PUBLIC "-//W3C//DTD SVG 1.1//EN"
 "http://www.w3.org/Graphics/SVG/1.1/DTD/svg11.dtd">
<!-- Generated by graphviz version 2.40.1 (20161225.0304)
 -->
<!-- Title: cimg_library_suffixed::cimg::tictoc Pages: 1 -->
<svg width="1475pt" height="233pt"
 viewBox="0.00 0.00 1475.00 232.80" xmlns="http://www.w3.org/2000/svg" xmlns:xlink="http://www.w3.org/1999/xlink">
<g id="graph0" class="graph" transform="scale(1 1) rotate(0) translate(4 228.7982)">
<title>cimg_library_suffixed::cimg::tictoc</title>
<polygon fill="#ffffff" stroke="transparent" points="-4,4 -4,-228.7982 1471,-228.7982 1471,4 -4,4"/>
<!-- Node4047 -->
<g id="node1" class="node">
<title>Node4047</title>
<polygon fill="#bfbfbf" stroke="#000000" points="0,-116.2982 0,-146.2982 109,-146.2982 109,-116.2982 0,-116.2982"/>
<text text-anchor="start" x="8" y="-134.2982" font-family="Helvetica,sans-Serif" font-size="10.00" fill="#000000">cimg_library_suffixed</text>
<text text-anchor="middle" x="54.5" y="-123.2982" font-family="Helvetica,sans-Serif" font-size="10.00" fill="#000000">::cimg::tictoc</text>
</g>
<!-- Node4048 -->
<g id="node2" class="node">
<title>Node4048</title>
<g id="a_node2"><a xlink:href="namespacecimg__library__suffixed_1_1cimg.html#a9e739e4b4ac058abfba069466617b914" target="_top" xlink:title="cimg_library_suffixed\l::cimg::mutex">
<polygon fill="#ffffff" stroke="#000000" points="1044,-128.2982 1044,-158.2982 1153,-158.2982 1153,-128.2982 1044,-128.2982"/>
<text text-anchor="start" x="1052" y="-146.2982" font-family="Helvetica,sans-Serif" font-size="10.00" fill="#000000">cimg_library_suffixed</text>
<text text-anchor="middle" x="1098.5" y="-135.2982" font-family="Helvetica,sans-Serif" font-size="10.00" fill="#000000">::cimg::mutex</text>
</a>
</g>
</g>
<!-- Node4047&#45;&gt;Node4048 -->
<g id="edge1" class="edge">
<title>Node4047&#45;&gt;Node4048</title>
<path fill="none" stroke="#191970" d="M76.0381,-146.5337C93.6922,-158.1747 119.7904,-173.5041 145,-181.2982 230.0937,-207.6069 255.4321,-200.2982 344.5,-200.2982 344.5,-200.2982 344.5,-200.2982 808.5,-200.2982 890.8364,-200.2982 983.8952,-177.9025 1041.8837,-161.1874"/>
<polygon fill="#191970" stroke="#191970" points="1042.9718,-164.5158 1051.5869,-158.3489 1041.0064,-157.7974 1042.9718,-164.5158"/>
</g>
<!-- Node4053 -->
<g id="node7" class="node">
<title>Node4053</title>
<g id="a_node7"><a xlink:href="namespacecimg__library__suffixed_1_1cimg.html#ada686776cc71803df391eea79cd1b3e5" target="_top" xlink:title="Get/set default output stream for the &#160;library messages. ">
<polygon fill="#ffffff" stroke="#000000" points="145,-141.2982 145,-171.2982 254,-171.2982 254,-141.2982 145,-141.2982"/>
<text text-anchor="start" x="153" y="-159.2982" font-family="Helvetica,sans-Serif" font-size="10.00" fill="#000000">cimg_library_suffixed</text>
<text text-anchor="middle" x="199.5" y="-148.2982" font-family="Helvetica,sans-Serif" font-size="10.00" fill="#000000">::cimg::output</text>
</a>
</g>
</g>
<!-- Node4047&#45;&gt;Node4053 -->
<g id="edge7" class="edge">
<title>Node4047&#45;&gt;Node4053</title>
<path fill="none" stroke="#191970" d="M109.3183,-140.7497C117.6188,-142.1808 126.2486,-143.6687 134.7354,-145.1319"/>
<polygon fill="#191970" stroke="#191970" points="134.1549,-148.5834 144.6042,-146.8334 135.3443,-141.6852 134.1549,-148.5834"/>
</g>
<!-- Node4060 -->
<g id="node14" class="node">
<title>Node4060</title>
<g id="a_node14"><a xlink:href="namespacecimg__library__suffixed_1_1cimg.html#a71a3c7b37befc7a4313dfcdd80271bce" target="_top" xlink:title="Return the value of a system timer, with a millisecond precision. ">
<polygon fill="#ffffff" stroke="#000000" points="145,-92.2982 145,-122.2982 254,-122.2982 254,-92.2982 145,-92.2982"/>
<text text-anchor="start" x="153" y="-110.2982" font-family="Helvetica,sans-Serif" font-size="10.00" fill="#000000">cimg_library_suffixed</text>
<text text-anchor="middle" x="199.5" y="-99.2982" font-family="Helvetica,sans-Serif" font-size="10.00" fill="#000000">::cimg::time</text>
</a>
</g>
</g>
<!-- Node4047&#45;&gt;Node4060 -->
<g id="edge22" class="edge">
<title>Node4047&#45;&gt;Node4060</title>
<path fill="none" stroke="#191970" d="M106.0298,-116.2766C115.3337,-114.5022 125.1417,-112.8045 134.765,-111.2975"/>
<polygon fill="#191970" stroke="#191970" points="135.331,-114.7518 144.6979,-109.8009 134.288,-107.83 135.331,-114.7518"/>
</g>
<!-- Node4049 -->
<g id="node3" class="node">
<title>Node4049</title>
<g id="a_node3"><a xlink:href="structcimg__library__suffixed_1_1cimg_1_1_mutex__info.html#a6cc8e26847a1aa649febed03d70182e7" target="_top" xlink:title="cimg_library_suffixed\l::cimg::Mutex_info::lock">
<polygon fill="#ffffff" stroke="#000000" points="1194.5,-194.2982 1194.5,-224.2982 1316.5,-224.2982 1316.5,-194.2982 1194.5,-194.2982"/>
<text text-anchor="start" x="1202.5" y="-212.2982" font-family="Helvetica,sans-Serif" font-size="10.00" fill="#000000">cimg_library_suffixed</text>
<text text-anchor="middle" x="1255.5" y="-201.2982" font-family="Helvetica,sans-Serif" font-size="10.00" fill="#000000">::cimg::Mutex_info::lock</text>
</a>
</g>
</g>
<!-- Node4048&#45;&gt;Node4049 -->
<g id="edge2" class="edge">
<title>Node4048&#45;&gt;Node4049</title>
<path fill="none" stroke="#191970" d="M1134.519,-158.44C1157.0569,-167.9145 1186.2804,-180.1995 1210.3593,-190.3219"/>
<polygon fill="#191970" stroke="#191970" points="1209.0737,-193.5781 1219.6486,-194.2269 1211.7864,-187.1251 1209.0737,-193.5781"/>
</g>
<!-- Node4050 -->
<g id="node4" class="node">
<title>Node4050</title>
<g id="a_node4"><a xlink:href="namespacecimg__library__suffixed_1_1cimg.html#aa0e1bc96ae6e235dc5b67b8b0a466166" target="_top" xlink:title="cimg_library_suffixed\l::cimg::Mutex_attr">
<polygon fill="#ffffff" stroke="#000000" points="1358,-128.2982 1358,-158.2982 1467,-158.2982 1467,-128.2982 1358,-128.2982"/>
<text text-anchor="start" x="1366" y="-146.2982" font-family="Helvetica,sans-Serif" font-size="10.00" fill="#000000">cimg_library_suffixed</text>
<text text-anchor="middle" x="1412.5" y="-135.2982" font-family="Helvetica,sans-Serif" font-size="10.00" fill="#000000">::cimg::Mutex_attr</text>
</a>
</g>
</g>
<!-- Node4048&#45;&gt;Node4050 -->
<g id="edge3" class="edge">
<title>Node4048&#45;&gt;Node4050</title>
<path fill="none" stroke="#191970" d="M1153.0491,-145.3989C1164.8995,-145.7735 1177.3685,-146.1055 1189,-146.2982 1248.103,-147.2776 1262.897,-147.2776 1322,-146.2982 1330.3602,-146.1597 1339.1529,-145.9492 1347.8377,-145.7027"/>
<polygon fill="#191970" stroke="#191970" points="1348.0605,-149.1977 1357.9509,-145.3989 1347.8502,-142.2008 1348.0605,-149.1977"/>
</g>
<!-- Node4051 -->
<g id="node5" class="node">
<title>Node4051</title>
<g id="a_node5"><a xlink:href="structcimg__library__suffixed_1_1cimg_1_1_mutex__info.html#a9bf4ed1e1dfe6f28fa6250cd04f3c900" target="_top" xlink:title="cimg_library_suffixed\l::cimg::Mutex_info::trylock">
<polygon fill="#ffffff" stroke="#000000" points="1189,-106.2982 1189,-136.2982 1322,-136.2982 1322,-106.2982 1189,-106.2982"/>
<text text-anchor="start" x="1197" y="-124.2982" font-family="Helvetica,sans-Serif" font-size="10.00" fill="#000000">cimg_library_suffixed</text>
<text text-anchor="middle" x="1255.5" y="-113.2982" font-family="Helvetica,sans-Serif" font-size="10.00" fill="#000000">::cimg::Mutex_info::trylock</text>
</a>
</g>
</g>
<!-- Node4048&#45;&gt;Node4051 -->
<g id="edge4" class="edge">
<title>Node4048&#45;&gt;Node4051</title>
<path fill="none" stroke="#191970" d="M1153.411,-135.6037C1161.6098,-134.4548 1170.187,-133.2529 1178.7367,-132.0549"/>
<polygon fill="#191970" stroke="#191970" points="1179.3189,-135.5076 1188.7365,-130.6536 1178.3475,-128.5753 1179.3189,-135.5076"/>
</g>
<!-- Node4052 -->
<g id="node6" class="node">
<title>Node4052</title>
<g id="a_node6"><a xlink:href="structcimg__library__suffixed_1_1cimg_1_1_mutex__info.html#afac3fa5f107ad4795fb867050f616555" target="_top" xlink:title="cimg_library_suffixed\l::cimg::Mutex_info::unlock">
<polygon fill="#ffffff" stroke="#000000" points="1189.5,-57.2982 1189.5,-87.2982 1321.5,-87.2982 1321.5,-57.2982 1189.5,-57.2982"/>
<text text-anchor="start" x="1197.5" y="-75.2982" font-family="Helvetica,sans-Serif" font-size="10.00" fill="#000000">cimg_library_suffixed</text>
<text text-anchor="middle" x="1255.5" y="-64.2982" font-family="Helvetica,sans-Serif" font-size="10.00" fill="#000000">::cimg::Mutex_info::unlock</text>
</a>
</g>
</g>
<!-- Node4048&#45;&gt;Node4052 -->
<g id="edge6" class="edge">
<title>Node4048&#45;&gt;Node4052</title>
<path fill="none" stroke="#191970" d="M1126.2433,-128.1895C1143.9588,-118.7947 1167.5479,-106.7479 1189,-97.2982 1193.746,-95.2076 1198.727,-93.1293 1203.7376,-91.1157"/>
<polygon fill="#191970" stroke="#191970" points="1205.3284,-94.2512 1213.3561,-87.3369 1202.7688,-87.736 1205.3284,-94.2512"/>
</g>
<!-- Node4051&#45;&gt;Node4050 -->
<g id="edge5" class="edge">
<title>Node4051&#45;&gt;Node4050</title>
<path fill="none" stroke="#191970" d="M1322.0821,-130.6282C1330.5193,-131.8105 1339.1445,-133.0191 1347.5556,-134.1977"/>
<polygon fill="#191970" stroke="#191970" points="1347.293,-137.6951 1357.682,-135.6167 1348.2645,-130.7628 1347.293,-137.6951"/>
</g>
<!-- Node4053&#45;&gt;Node4048 -->
<g id="edge21" class="edge">
<title>Node4053&#45;&gt;Node4048</title>
<path fill="none" stroke="#191970" d="M254.0486,-158.066C313.4344,-159.8358 411.2049,-162.2982 495.5,-162.2982 495.5,-162.2982 495.5,-162.2982 808.5,-162.2982 885.9647,-162.2982 974.8203,-155.4643 1033.5413,-149.9935"/>
<polygon fill="#191970" stroke="#191970" points="1034.1576,-153.4509 1043.7835,-149.0246 1033.4982,-146.4821 1034.1576,-153.4509"/>
</g>
<!-- Node4054 -->
<g id="node8" class="node">
<title>Node4054</title>
<g id="a_node8"><a xlink:href="namespacecimg__library__suffixed_1_1cimg.html#aab8db7528c32a8fd3a3dc471e662782e" target="_top" xlink:title="cimg_library_suffixed\l::cimg::_stderr">
<polygon fill="#ffffff" stroke="#000000" points="290,-76.2982 290,-106.2982 399,-106.2982 399,-76.2982 290,-76.2982"/>
<text text-anchor="start" x="298" y="-94.2982" font-family="Helvetica,sans-Serif" font-size="10.00" fill="#000000">cimg_library_suffixed</text>
<text text-anchor="middle" x="344.5" y="-83.2982" font-family="Helvetica,sans-Serif" font-size="10.00" fill="#000000">::cimg::_stderr</text>
</a>
</g>
</g>
<!-- Node4053&#45;&gt;Node4054 -->
<g id="edge8" class="edge">
<title>Node4053&#45;&gt;Node4054</title>
<path fill="none" stroke="#191970" d="M233.8302,-141.2462C240.5251,-138.2923 247.4866,-135.2077 254,-132.2982 269.7812,-125.249 287.0736,-117.4366 302.2765,-110.5385"/>
<polygon fill="#191970" stroke="#191970" points="303.7825,-113.6986 311.4401,-106.3766 300.8878,-107.3251 303.7825,-113.6986"/>
</g>
<!-- Node4055 -->
<g id="node9" class="node">
<title>Node4055</title>
<g id="a_node9"><a xlink:href="namespacecimg__library__suffixed_1_1cimg.html#aeafab144366eddd11360f32f468fa4af" target="_top" xlink:title="Set current &#160;exception mode. ">
<polygon fill="#ffffff" stroke="#000000" points="435,-54.2982 435,-84.2982 556,-84.2982 556,-54.2982 435,-54.2982"/>
<text text-anchor="start" x="443" y="-72.2982" font-family="Helvetica,sans-Serif" font-size="10.00" fill="#000000">cimg_library_suffixed</text>
<text text-anchor="middle" x="495.5" y="-61.2982" font-family="Helvetica,sans-Serif" font-size="10.00" fill="#000000">::cimg::exception_mode</text>
</a>
</g>
</g>
<!-- Node4054&#45;&gt;Node4055 -->
<g id="edge9" class="edge">
<title>Node4054&#45;&gt;Node4055</title>
<path fill="none" stroke="#191970" d="M399.0145,-83.3557C407.3935,-82.1349 416.1471,-80.8596 424.8158,-79.5966"/>
<polygon fill="#191970" stroke="#191970" points="425.5345,-83.0289 434.9254,-78.1237 424.5253,-76.102 425.5345,-83.0289"/>
</g>
<!-- Node4058 -->
<g id="node12" class="node">
<title>Node4058</title>
<g id="a_node12"><a xlink:href="namespacecimg__library__suffixed_1_1cimg.html#a79aef0cbcf66ceb71c2b74cb66b4deb2" target="_top" xlink:title="Avoid warning messages due to unused parameters. Do nothing actually. ">
<polygon fill="#ffffff" stroke="#000000" points="899,-41.2982 899,-71.2982 1008,-71.2982 1008,-41.2982 899,-41.2982"/>
<text text-anchor="start" x="907" y="-59.2982" font-family="Helvetica,sans-Serif" font-size="10.00" fill="#000000">cimg_library_suffixed</text>
<text text-anchor="middle" x="953.5" y="-48.2982" font-family="Helvetica,sans-Serif" font-size="10.00" fill="#000000">::cimg::unused</text>
</a>
</g>
</g>
<!-- Node4054&#45;&gt;Node4058 -->
<g id="edge20" class="edge">
<title>Node4054&#45;&gt;Node4058</title>
<path fill="none" stroke="#191970" d="M367.6896,-76.2661C385.4015,-65.5424 410.8045,-51.7504 435,-44.2982 571.4545,-2.2702 611.4707,-14.7575 754,-6.2982 802.3593,-3.428 816.0902,5.7986 863,-6.2982 885.2024,-12.0236 907.7796,-24.4837 924.8301,-35.5323"/>
<polygon fill="#191970" stroke="#191970" points="922.9534,-38.4878 933.2114,-41.1382 926.8452,-32.6693 922.9534,-38.4878"/>
</g>
<!-- Node4056 -->
<g id="node10" class="node">
<title>Node4056</title>
<g id="a_node10"><a xlink:href="namespacecimg__library__suffixed_1_1cimg.html#a6c578f866de2be9be7e385d693c758c8" target="_top" xlink:title="cimg_library_suffixed\l::cimg::_exception_mode">
<polygon fill="#ffffff" stroke="#000000" points="592,-98.2982 592,-128.2982 718,-128.2982 718,-98.2982 592,-98.2982"/>
<text text-anchor="start" x="600" y="-116.2982" font-family="Helvetica,sans-Serif" font-size="10.00" fill="#000000">cimg_library_suffixed</text>
<text text-anchor="middle" x="655" y="-105.2982" font-family="Helvetica,sans-Serif" font-size="10.00" fill="#000000">::cimg::_exception_mode</text>
</a>
</g>
</g>
<!-- Node4055&#45;&gt;Node4056 -->
<g id="edge10" class="edge">
<title>Node4055&#45;&gt;Node4056</title>
<path fill="none" stroke="#191970" d="M549.9447,-84.3175C563.0889,-87.9434 577.2562,-91.8517 590.8009,-95.5881"/>
<polygon fill="#191970" stroke="#191970" points="589.9593,-98.9866 600.53,-98.272 591.8209,-92.2387 589.9593,-98.9866"/>
</g>
<!-- Node4056&#45;&gt;Node4048 -->
<g id="edge19" class="edge">
<title>Node4056&#45;&gt;Node4048</title>
<path fill="none" stroke="#191970" d="M718.0717,-117.5646C801.8352,-123.2307 949.0329,-133.1877 1033.6723,-138.913"/>
<polygon fill="#191970" stroke="#191970" points="1033.4621,-142.4067 1043.6756,-139.5897 1033.9346,-135.4227 1033.4621,-142.4067"/>
</g>
<!-- Node4056&#45;&gt;Node4054 -->
<g id="edge11" class="edge">
<title>Node4056&#45;&gt;Node4054</title>
<path fill="none" stroke="#191970" d="M591.9297,-108.8295C538.7813,-105.0637 463.037,-99.697 409.383,-95.8954"/>
<polygon fill="#191970" stroke="#191970" points="409.5188,-92.3963 399.2964,-95.1807 409.024,-99.3788 409.5188,-92.3963"/>
</g>
<!-- Node4057 -->
<g id="node11" class="node">
<title>Node4057</title>
<g id="a_node11"><a xlink:href="namespacecimg__library__suffixed_1_1cimg.html#a01a3b743897290604513ea6d847c9886" target="_top" xlink:title="cimg_library_suffixed\l::cimg::_stdin">
<polygon fill="#ffffff" stroke="#000000" points="754,-16.2982 754,-46.2982 863,-46.2982 863,-16.2982 754,-16.2982"/>
<text text-anchor="start" x="762" y="-34.2982" font-family="Helvetica,sans-Serif" font-size="10.00" fill="#000000">cimg_library_suffixed</text>
<text text-anchor="middle" x="808.5" y="-23.2982" font-family="Helvetica,sans-Serif" font-size="10.00" fill="#000000">::cimg::_stdin</text>
</a>
</g>
</g>
<!-- Node4056&#45;&gt;Node4057 -->
<g id="edge12" class="edge">
<title>Node4056&#45;&gt;Node4057</title>
<path fill="none" stroke="#191970" d="M679.8737,-98.123C699.6847,-86.2456 728.2663,-69.5728 754,-56.2982 757.5416,-54.4713 761.2426,-52.6318 764.9763,-50.8242"/>
<polygon fill="#191970" stroke="#191970" points="766.7183,-53.8717 774.2521,-46.4224 763.7171,-47.5477 766.7183,-53.8717"/>
</g>
<!-- Node4059 -->
<g id="node13" class="node">
<title>Node4059</title>
<g id="a_node13"><a xlink:href="namespacecimg__library__suffixed_1_1cimg.html#a493220746e5df3466568bd7862825008" target="_top" xlink:title="cimg_library_suffixed\l::cimg::_stdout">
<polygon fill="#ffffff" stroke="#000000" points="754,-65.2982 754,-95.2982 863,-95.2982 863,-65.2982 754,-65.2982"/>
<text text-anchor="start" x="762" y="-83.2982" font-family="Helvetica,sans-Serif" font-size="10.00" fill="#000000">cimg_library_suffixed</text>
<text text-anchor="middle" x="808.5" y="-72.2982" font-family="Helvetica,sans-Serif" font-size="10.00" fill="#000000">::cimg::_stdout</text>
</a>
</g>
</g>
<!-- Node4056&#45;&gt;Node4059 -->
<g id="edge16" class="edge">
<title>Node4056&#45;&gt;Node4059</title>
<path fill="none" stroke="#191970" d="M718.3205,-99.6853C726.7493,-97.8733 735.4012,-96.0133 743.8522,-94.1965"/>
<polygon fill="#191970" stroke="#191970" points="744.6143,-97.6127 753.6553,-92.0889 743.143,-90.769 744.6143,-97.6127"/>
</g>
<!-- Node4057&#45;&gt;Node4055 -->
<g id="edge13" class="edge">
<title>Node4057&#45;&gt;Node4055</title>
<path fill="none" stroke="#191970" d="M753.9666,-37.9189C701.8805,-44.2424 623.1092,-53.8057 566.2205,-60.7123"/>
<polygon fill="#191970" stroke="#191970" points="565.7259,-57.2466 556.2207,-61.9264 566.5696,-64.1956 565.7259,-57.2466"/>
</g>
<!-- Node4057&#45;&gt;Node4058 -->
<g id="edge14" class="edge">
<title>Node4057&#45;&gt;Node4058</title>
<path fill="none" stroke="#191970" d="M863.3183,-40.7497C871.6188,-42.1808 880.2486,-43.6687 888.7354,-45.1319"/>
<polygon fill="#191970" stroke="#191970" points="888.1549,-48.5834 898.6042,-46.8334 889.3443,-41.6852 888.1549,-48.5834"/>
</g>
<!-- Node4058&#45;&gt;Node4048 -->
<g id="edge15" class="edge">
<title>Node4058&#45;&gt;Node4048</title>
<path fill="none" stroke="#191970" d="M978.7571,-71.4525C1002.4188,-85.6495 1037.9718,-106.9813 1064.1945,-122.7149"/>
<polygon fill="#191970" stroke="#191970" points="1062.6702,-125.882 1073.0458,-128.0257 1066.2717,-119.8795 1062.6702,-125.882"/>
</g>
<!-- Node4059&#45;&gt;Node4055 -->
<g id="edge17" class="edge">
<title>Node4059&#45;&gt;Node4055</title>
<path fill="none" stroke="#191970" d="M753.9666,-78.3817C701.8805,-76.5512 623.1092,-73.7829 566.2205,-71.7836"/>
<polygon fill="#191970" stroke="#191970" points="566.3375,-68.2857 556.2207,-71.4322 566.0915,-75.2813 566.3375,-68.2857"/>
</g>
<!-- Node4059&#45;&gt;Node4058 -->
<g id="edge18" class="edge">
<title>Node4059&#45;&gt;Node4058</title>
<path fill="none" stroke="#191970" d="M863.3183,-71.2249C871.6188,-69.851 880.2486,-68.4226 888.7354,-67.0179"/>
<polygon fill="#191970" stroke="#191970" points="889.31,-70.4705 898.6042,-65.3844 888.1669,-63.5644 889.31,-70.4705"/>
</g>
<!-- Node4060&#45;&gt;Node4047 -->
<g id="edge23" class="edge">
<title>Node4060&#45;&gt;Node4047</title>
<path fill="none" stroke="#191970" d="M147.9542,-122.3229C138.6577,-124.0957 128.8583,-125.7919 119.243,-127.2977"/>
<polygon fill="#191970" stroke="#191970" points="118.6851,-123.8421 109.3183,-128.7932 119.7282,-130.764 118.6851,-123.8421"/>
</g>
</g>
</svg>
