<?xml version="1.0" encoding="UTF-8" standalone="no"?>
<!DOCTYPE svg PUBLIC "-//W3C//DTD SVG 1.1//EN"
 "http://www.w3.org/Graphics/SVG/1.1/DTD/svg11.dtd">
<!-- Generated by graphviz version 2.40.1 (20161225.0304)
 -->
<!-- Title: cimg_library_suffixed::cimg::fibonacci Pages: 1 -->
<!--zoomable 39 -->
<svg id="main" version="1.1" xmlns="http://www.w3.org/2000/svg" xmlns:xlink="http://www.w3.org/1999/xlink" xml:space="preserve" onload="init(evt)">
<style type="text/css"><![CDATA[
.edge:hover path { stroke: red; }
.edge:hover polygon { stroke: red; fill: red; }
]]></style>
<script type="text/javascript"><![CDATA[
var edges = document.getElementsByTagName('g');
if (edges && edges.length) {
  for (var i=0;i<edges.length;i++) {
    if (edges[i].id.substr(0,4)=='edge') {
      edges[i].setAttribute('class','edge');
    }
  }
}
]]></script>
        <defs>
                <circle id="rim" cx="0" cy="0" r="7"/>
                <circle id="rim2" cx="0" cy="0" r="3.5"/>
                <g id="zoomPlus">
                        <use xlink:href="#rim" fill="#404040">
                                <set attributeName="fill" to="#808080" begin="zoomplus.mouseover" end="zoomplus.mouseout"/>
                        </use>
                        <path d="M-4,0h8M0,-4v8" fill="none" stroke="white" stroke-width="1.5" pointer-events="none"/>
                </g>
                <g id="zoomMin">
                        <use xlink:href="#rim" fill="#404040">
                                <set attributeName="fill" to="#808080" begin="zoomminus.mouseover" end="zoomminus.mouseout"/>
                        </use>
                        <path d="M-4,0h8" fill="none" stroke="white" stroke-width="1.5" pointer-events="none"/>
                </g>
                <g id="dirArrow">
                        <path fill="none" stroke="white" stroke-width="1.5" d="M0,-3.0v7 M-2.5,-0.5L0,-3.0L2.5,-0.5"/>
                </g>
               <g id="resetDef">
                       <use xlink:href="#rim2" fill="#404040">
                               <set attributeName="fill" to="#808080" begin="reset.mouseover" end="reset.mouseout"/>
                       </use>
               </g>
        </defs>

<script type="text/javascript">
var viewWidth = 552;
var viewHeight = 39;
var sectionId = 'dynsection-47';
</script>
<script xlink:href="svgpan.js"/>
<svg id="graph" class="graph">
<g id="viewport">
<title>cimg_library_suffixed::cimg::fibonacci</title>
<polygon fill="#ffffff" stroke="transparent" points="-4,4 -4,-35 548,-35 548,4 -4,4"/>
<!-- Node1399 -->
<g id="node1" class="node">
<title>Node1399</title>
<polygon fill="#bfbfbf" stroke="#000000" points="0,-.5 0,-30.5 109,-30.5 109,-.5 0,-.5"/>
<text text-anchor="start" x="8" y="-18.5" font-family="Helvetica,sans-Serif" font-size="10.00" fill="#000000">cimg_library_suffixed</text>
<text text-anchor="middle" x="54.5" y="-7.5" font-family="Helvetica,sans-Serif" font-size="10.00" fill="#000000">::cimg::fibonacci</text>
</g>
<!-- Node1400 -->
<g id="node2" class="node">
<title>Node1400</title>
<g id="a_node2"><a xlink:href="namespacecimg__library__suffixed_1_1cimg.html#af54e8ac35c9b3c07062005881b2c4e08" target="_top" xlink:title="cimg_library_suffixed\l::cimg::_fibonacci">
<polygon fill="#ffffff" stroke="#000000" points="145,-.5 145,-30.5 254,-30.5 254,-.5 145,-.5"/>
<text text-anchor="start" x="153" y="-18.5" font-family="Helvetica,sans-Serif" font-size="10.00" fill="#000000">cimg_library_suffixed</text>
<text text-anchor="middle" x="199.5" y="-7.5" font-family="Helvetica,sans-Serif" font-size="10.00" fill="#000000">::cimg::_fibonacci</text>
</a>
</g>
</g>
<!-- Node1399&#45;&gt;Node1400 -->
<g id="edge1" class="edge">
<title>Node1399&#45;&gt;Node1400</title>
<path fill="none" stroke="#191970" d="M109.3183,-15.5C117.5286,-15.5 126.0611,-15.5 134.4586,-15.5"/>
<polygon fill="#191970" stroke="#191970" points="134.6042,-19.0001 144.6042,-15.5 134.6042,-12.0001 134.6042,-19.0001"/>
</g>
<!-- Node1401 -->
<g id="node3" class="node">
<title>Node1401</title>
<g id="a_node3"><a xlink:href="namespacecimg__library__suffixed.html#a00d0fd9a21d8d5e8a9fa4033593e6acf" target="_top" xlink:title="cimg_library_suffixed\l::sqrt">
<polygon fill="#ffffff" stroke="#000000" points="290,-.5 290,-30.5 399,-30.5 399,-.5 290,-.5"/>
<text text-anchor="start" x="298" y="-18.5" font-family="Helvetica,sans-Serif" font-size="10.00" fill="#000000">cimg_library_suffixed</text>
<text text-anchor="middle" x="344.5" y="-7.5" font-family="Helvetica,sans-Serif" font-size="10.00" fill="#000000">::sqrt</text>
</a>
</g>
</g>
<!-- Node1400&#45;&gt;Node1401 -->
<g id="edge2" class="edge">
<title>Node1400&#45;&gt;Node1401</title>
<path fill="none" stroke="#191970" d="M254.3183,-15.5C262.5286,-15.5 271.0611,-15.5 279.4586,-15.5"/>
<polygon fill="#191970" stroke="#191970" points="279.6042,-19.0001 289.6042,-15.5 279.6042,-12.0001 279.6042,-19.0001"/>
</g>
<!-- Node1402 -->
<g id="node4" class="node">
<title>Node1402</title>
<g id="a_node4"><a xlink:href="structcimg__library__suffixed_1_1_c_img.html#a550cfc014f80c68359d3b55a0d3803b9" target="_top" xlink:title="Compute the square root of each pixel value . ">
<polygon fill="#ffffff" stroke="#000000" points="435,-.5 435,-30.5 544,-30.5 544,-.5 435,-.5"/>
<text text-anchor="start" x="443" y="-18.5" font-family="Helvetica,sans-Serif" font-size="10.00" fill="#000000">cimg_library_suffixed</text>
<text text-anchor="middle" x="489.5" y="-7.5" font-family="Helvetica,sans-Serif" font-size="10.00" fill="#000000">::CImg::get_sqrt</text>
</a>
</g>
</g>
<!-- Node1401&#45;&gt;Node1402 -->
<g id="edge3" class="edge">
<title>Node1401&#45;&gt;Node1402</title>
<path fill="none" stroke="#191970" d="M399.3183,-15.5C407.5286,-15.5 416.0611,-15.5 424.4586,-15.5"/>
<polygon fill="#191970" stroke="#191970" points="424.6042,-19.0001 434.6042,-15.5 424.6042,-12.0001 424.6042,-19.0001"/>
</g>
</g>
</svg>
        <g id="navigator" transform="translate(0 0)" fill="#404254">
                <rect fill="#f2f5e9" fill-opacity="0.5" stroke="#606060" stroke-width=".5" x="0" y="0" width="60" height="60"/>
                <use id="zoomplus" xlink:href="#zoomPlus" x="17" y="9" onmousedown="handleZoom(evt,'in')"/>
                <use id="zoomminus" xlink:href="#zoomMin" x="42" y="9" onmousedown="handleZoom(evt,'out')"/>
                <use id="reset" xlink:href="#resetDef" x="30" y="36" onmousedown="handleReset()"/>
                <g id="arrowUp" xlink:href="#dirArrow" transform="translate(30 24)" onmousedown="handlePan(0,-1)">
                  <use xlink:href="#rim" fill="#404040">
                        <set attributeName="fill" to="#808080" begin="arrowUp.mouseover" end="arrowUp.mouseout"/>
                  </use>
                  <path fill="none" stroke="white" stroke-width="1.5" d="M0,-3.0v7 M-2.5,-0.5L0,-3.0L2.5,-0.5"/>
                </g>
                <g id="arrowRight" xlink:href="#dirArrow" transform="rotate(90) translate(36 -43)" onmousedown="handlePan(1,0)">
                  <use xlink:href="#rim" fill="#404040">
                        <set attributeName="fill" to="#808080" begin="arrowRight.mouseover" end="arrowRight.mouseout"/>
                  </use>
                  <path fill="none" stroke="white" stroke-width="1.5" d="M0,-3.0v7 M-2.5,-0.5L0,-3.0L2.5,-0.5"/>
                </g>
                <g id="arrowDown" xlink:href="#dirArrow" transform="rotate(180) translate(-30 -48)" onmousedown="handlePan(0,1)">
                  <use xlink:href="#rim" fill="#404040">
                        <set attributeName="fill" to="#808080" begin="arrowDown.mouseover" end="arrowDown.mouseout"/>
                  </use>
                  <path fill="none" stroke="white" stroke-width="1.5" d="M0,-3.0v7 M-2.5,-0.5L0,-3.0L2.5,-0.5"/>
                </g>
                <g id="arrowLeft" xlink:href="#dirArrow" transform="rotate(270) translate(-36 17)" onmousedown="handlePan(-1,0)">
                  <use xlink:href="#rim" fill="#404040">
                        <set attributeName="fill" to="#808080" begin="arrowLeft.mouseover" end="arrowLeft.mouseout"/>
                  </use>
                  <path fill="none" stroke="white" stroke-width="1.5" d="M0,-3.0v7 M-2.5,-0.5L0,-3.0L2.5,-0.5"/>
                </g>
        </g>
        <svg viewBox="0 0 15 15" width="100%" height="30px" preserveAspectRatio="xMaxYMin meet">
         <g id="arrow_out" transform="scale(0.3 0.3)">
          <a xlink:href="namespacecimg__library__suffixed_1_1cimg_aa9c0e571bc9644b4d838630f9a79534f_cgraph_org.svg" target="_base">
           <rect id="button" ry="5" rx="5" y="6" x="6" height="38" width="38"
                fill="#f2f5e9" fill-opacity="0.5" stroke="#606060" stroke-width="1.0"/>
           <path id="arrow"
             d="M 11.500037,31.436501 C 11.940474,20.09759 22.043105,11.32322 32.158766,21.979434 L 37.068811,17.246167 C 37.068811,17.246167 37.088388,32 37.088388,32 L 22.160133,31.978069 C 22.160133,31.978069 26.997745,27.140456 26.997745,27.140456 C 18.528582,18.264221 13.291696,25.230495 11.500037,31.436501 z"
             style="fill:#404040;"/>
          </a>
         </g>
        </svg>
</svg>
