<?xml version="1.0" encoding="UTF-8" standalone="no"?>
<!DOCTYPE svg PUBLIC "-//W3C//DTD SVG 1.1//EN"
 "http://www.w3.org/Graphics/SVG/1.1/DTD/svg11.dtd">
<!-- Generated by graphviz version 2.40.1 (20161225.0304)
 -->
<!-- Title: cimg_library_suffixed::cimg::grand Pages: 1 -->
<svg width="426pt" height="137pt"
 viewBox="0.00 0.00 426.00 137.00" xmlns="http://www.w3.org/2000/svg" xmlns:xlink="http://www.w3.org/1999/xlink">
<g id="graph0" class="graph" transform="scale(1 1) rotate(0) translate(4 133)">
<title>cimg_library_suffixed::cimg::grand</title>
<polygon fill="#ffffff" stroke="transparent" points="-4,4 -4,-133 422,-133 422,4 -4,4"/>
<!-- Node1760 -->
<g id="node1" class="node">
<title>Node1760</title>
<polygon fill="#bfbfbf" stroke="#000000" points="0,-49.5 0,-79.5 109,-79.5 109,-49.5 0,-49.5"/>
<text text-anchor="start" x="8" y="-67.5" font-family="Helvetica,sans-Serif" font-size="10.00" fill="#000000">cimg_library_suffixed</text>
<text text-anchor="middle" x="54.5" y="-56.5" font-family="Helvetica,sans-Serif" font-size="10.00" fill="#000000">::cimg::grand</text>
</g>
<!-- Node1761 -->
<g id="node2" class="node">
<title>Node1761</title>
<g id="a_node2"><a xlink:href="namespacecimg__library__suffixed.html#a65baff382319a3677fd777a976a4f50b" target="_top" xlink:title="cimg_library_suffixed::log">
<polygon fill="#ffffff" stroke="#000000" points="145,-101 145,-120 273,-120 273,-101 145,-101"/>
<text text-anchor="middle" x="209" y="-108" font-family="Helvetica,sans-Serif" font-size="10.00" fill="#000000">cimg_library_suffixed::log</text>
</a>
</g>
</g>
<!-- Node1760&#45;&gt;Node1761 -->
<g id="edge1" class="edge">
<title>Node1760&#45;&gt;Node1761</title>
<path fill="none" stroke="#191970" d="M105.0891,-79.5621C125.1735,-85.542 147.9985,-92.3378 167.1305,-98.034"/>
<polygon fill="#191970" stroke="#191970" points="166.1816,-101.4032 176.7646,-100.9024 168.1791,-94.6943 166.1816,-101.4032"/>
</g>
<!-- Node1763 -->
<g id="node4" class="node">
<title>Node1763</title>
<g id="a_node4"><a xlink:href="namespacecimg__library__suffixed_1_1cimg.html#ab7c09300be61c8a3361c379069100252" target="_top" xlink:title="Return a random variable uniformely distributed between [val_min,val_max]. ">
<polygon fill="#ffffff" stroke="#000000" points="154.5,-49.5 154.5,-79.5 263.5,-79.5 263.5,-49.5 154.5,-49.5"/>
<text text-anchor="start" x="162.5" y="-67.5" font-family="Helvetica,sans-Serif" font-size="10.00" fill="#000000">cimg_library_suffixed</text>
<text text-anchor="middle" x="209" y="-56.5" font-family="Helvetica,sans-Serif" font-size="10.00" fill="#000000">::cimg::rand</text>
</a>
</g>
</g>
<!-- Node1760&#45;&gt;Node1763 -->
<g id="edge3" class="edge">
<title>Node1760&#45;&gt;Node1763</title>
<path fill="none" stroke="#191970" d="M109.4059,-64.5C120.6759,-64.5 132.6401,-64.5 144.2203,-64.5"/>
<polygon fill="#191970" stroke="#191970" points="144.2709,-68.0001 154.2709,-64.5 144.2708,-61.0001 144.2709,-68.0001"/>
</g>
<!-- Node1765 -->
<g id="node6" class="node">
<title>Node1765</title>
<g id="a_node6"><a xlink:href="namespacecimg__library__suffixed.html#a00d0fd9a21d8d5e8a9fa4033593e6acf" target="_top" xlink:title="cimg_library_suffixed\l::sqrt">
<polygon fill="#ffffff" stroke="#000000" points="154.5,-.5 154.5,-30.5 263.5,-30.5 263.5,-.5 154.5,-.5"/>
<text text-anchor="start" x="162.5" y="-18.5" font-family="Helvetica,sans-Serif" font-size="10.00" fill="#000000">cimg_library_suffixed</text>
<text text-anchor="middle" x="209" y="-7.5" font-family="Helvetica,sans-Serif" font-size="10.00" fill="#000000">::sqrt</text>
</a>
</g>
</g>
<!-- Node1760&#45;&gt;Node1765 -->
<g id="edge6" class="edge">
<title>Node1760&#45;&gt;Node1765</title>
<path fill="none" stroke="#191970" d="M102.1158,-49.3986C117.7552,-44.4385 135.3047,-38.8726 151.5919,-33.7071"/>
<polygon fill="#191970" stroke="#191970" points="153.0675,-36.911 161.5415,-30.5516 150.9512,-30.2385 153.0675,-36.911"/>
</g>
<!-- Node1762 -->
<g id="node3" class="node">
<title>Node1762</title>
<g id="a_node3"><a xlink:href="structcimg__library__suffixed_1_1_c_img.html#a560dd5fe13a0b40fcf95e2ea7020381e" target="_top" xlink:title="Compute the logarithm of each pixel value . ">
<polygon fill="#ffffff" stroke="#000000" points="309,-98.5 309,-128.5 418,-128.5 418,-98.5 309,-98.5"/>
<text text-anchor="start" x="317" y="-116.5" font-family="Helvetica,sans-Serif" font-size="10.00" fill="#000000">cimg_library_suffixed</text>
<text text-anchor="middle" x="363.5" y="-105.5" font-family="Helvetica,sans-Serif" font-size="10.00" fill="#000000">::CImg::get_log</text>
</a>
</g>
</g>
<!-- Node1761&#45;&gt;Node1762 -->
<g id="edge2" class="edge">
<title>Node1761&#45;&gt;Node1762</title>
<path fill="none" stroke="#191970" d="M273.1797,-111.7462C281.5495,-111.9087 290.1301,-112.0753 298.513,-112.2381"/>
<polygon fill="#191970" stroke="#191970" points="298.5467,-115.7393 308.6128,-112.4342 298.6826,-108.7407 298.5467,-115.7393"/>
</g>
<!-- Node1764 -->
<g id="node5" class="node">
<title>Node1764</title>
<g id="a_node5"><a xlink:href="namespacecimg__library__suffixed_1_1cimg.html#af5cd3397f819c13ccb17e05a7db736b1" target="_top" xlink:title="Return a random variable uniformely distributed between [0,val_max]. ">
<polygon fill="#ffffff" stroke="#000000" points="309,-49.5 309,-79.5 418,-79.5 418,-49.5 309,-49.5"/>
<text text-anchor="start" x="317" y="-67.5" font-family="Helvetica,sans-Serif" font-size="10.00" fill="#000000">cimg_library_suffixed</text>
<text text-anchor="middle" x="363.5" y="-56.5" font-family="Helvetica,sans-Serif" font-size="10.00" fill="#000000">::cimg::rand</text>
</a>
</g>
</g>
<!-- Node1763&#45;&gt;Node1764 -->
<g id="edge4" class="edge">
<title>Node1763&#45;&gt;Node1764</title>
<path fill="none" stroke="#191970" d="M263.9059,-58.0075C275.1759,-57.7409 287.1401,-57.6813 298.7203,-57.8288"/>
<polygon fill="#191970" stroke="#191970" points="298.7088,-61.3291 308.7709,-58.0117 298.8362,-54.3302 298.7088,-61.3291"/>
</g>
<!-- Node1764&#45;&gt;Node1763 -->
<g id="edge5" class="edge">
<title>Node1764&#45;&gt;Node1763</title>
<path fill="none" stroke="#191970" d="M308.7709,-70.9883C297.5082,-71.2571 285.5456,-71.3188 273.9615,-71.1735"/>
<polygon fill="#191970" stroke="#191970" points="273.9673,-67.6731 263.9059,-70.9925 273.8413,-74.672 273.9673,-67.6731"/>
</g>
<!-- Node1766 -->
<g id="node7" class="node">
<title>Node1766</title>
<g id="a_node7"><a xlink:href="structcimg__library__suffixed_1_1_c_img.html#a550cfc014f80c68359d3b55a0d3803b9" target="_top" xlink:title="Compute the square root of each pixel value . ">
<polygon fill="#ffffff" stroke="#000000" points="309,-.5 309,-30.5 418,-30.5 418,-.5 309,-.5"/>
<text text-anchor="start" x="317" y="-18.5" font-family="Helvetica,sans-Serif" font-size="10.00" fill="#000000">cimg_library_suffixed</text>
<text text-anchor="middle" x="363.5" y="-7.5" font-family="Helvetica,sans-Serif" font-size="10.00" fill="#000000">::CImg::get_sqrt</text>
</a>
</g>
</g>
<!-- Node1765&#45;&gt;Node1766 -->
<g id="edge7" class="edge">
<title>Node1765&#45;&gt;Node1766</title>
<path fill="none" stroke="#191970" d="M263.9059,-15.5C275.1759,-15.5 287.1401,-15.5 298.7203,-15.5"/>
<polygon fill="#191970" stroke="#191970" points="298.7709,-19.0001 308.7709,-15.5 298.7708,-12.0001 298.7709,-19.0001"/>
</g>
</g>
</svg>
