<?xml version="1.0" encoding="UTF-8" standalone="no"?>
<!DOCTYPE svg PUBLIC "-//W3C//DTD SVG 1.1//EN"
 "http://www.w3.org/Graphics/SVG/1.1/DTD/svg11.dtd">
<!-- Generated by graphviz version 2.40.1 (20161225.0304)
 -->
<!-- Title: cimg_library_suffixed::cimg::_wait Pages: 1 -->
<svg width="1765pt" height="269pt"
 viewBox="0.00 0.00 1765.00 269.00" xmlns="http://www.w3.org/2000/svg" xmlns:xlink="http://www.w3.org/1999/xlink">
<g id="graph0" class="graph" transform="scale(1 1) rotate(0) translate(4 265)">
<title>cimg_library_suffixed::cimg::_wait</title>
<polygon fill="#ffffff" stroke="transparent" points="-4,4 -4,-265 1761,-265 1761,4 -4,4"/>
<!-- Node662 -->
<g id="node1" class="node">
<title>Node662</title>
<polygon fill="#bfbfbf" stroke="#000000" points="0,-164.5 0,-194.5 109,-194.5 109,-164.5 0,-164.5"/>
<text text-anchor="start" x="8" y="-182.5" font-family="Helvetica,sans-Serif" font-size="10.00" fill="#000000">cimg_library_suffixed</text>
<text text-anchor="middle" x="54.5" y="-171.5" font-family="Helvetica,sans-Serif" font-size="10.00" fill="#000000">::cimg::_wait</text>
</g>
<!-- Node663 -->
<g id="node2" class="node">
<title>Node663</title>
<g id="a_node2"><a xlink:href="namespacecimg__library__suffixed_1_1cimg.html#aa2bf8fb0d97c122cbc52e1f2e167e8a6" target="_top" xlink:title="Sleep for a given numbers of milliseconds. ">
<polygon fill="#ffffff" stroke="#000000" points="290,-230.5 290,-260.5 399,-260.5 399,-230.5 290,-230.5"/>
<text text-anchor="start" x="298" y="-248.5" font-family="Helvetica,sans-Serif" font-size="10.00" fill="#000000">cimg_library_suffixed</text>
<text text-anchor="middle" x="344.5" y="-237.5" font-family="Helvetica,sans-Serif" font-size="10.00" fill="#000000">::cimg::sleep</text>
</a>
</g>
</g>
<!-- Node662&#45;&gt;Node663 -->
<g id="edge1" class="edge">
<title>Node662&#45;&gt;Node663</title>
<path fill="none" stroke="#191970" d="M109.0468,-191.9141C157.4999,-202.9414 228.3893,-219.0748 279.714,-230.7556"/>
<polygon fill="#191970" stroke="#191970" points="279.1782,-234.2231 289.7056,-233.0295 280.7316,-227.3976 279.1782,-234.2231"/>
</g>
<!-- Node670 -->
<g id="node9" class="node">
<title>Node670</title>
<g id="a_node9"><a xlink:href="namespacecimg__library__suffixed_1_1cimg.html#a71a3c7b37befc7a4313dfcdd80271bce" target="_top" xlink:title="Return the value of a system timer, with a millisecond precision. ">
<polygon fill="#ffffff" stroke="#000000" points="145,-142.5 145,-172.5 254,-172.5 254,-142.5 145,-142.5"/>
<text text-anchor="start" x="153" y="-160.5" font-family="Helvetica,sans-Serif" font-size="10.00" fill="#000000">cimg_library_suffixed</text>
<text text-anchor="middle" x="199.5" y="-149.5" font-family="Helvetica,sans-Serif" font-size="10.00" fill="#000000">::cimg::time</text>
</a>
</g>
</g>
<!-- Node662&#45;&gt;Node670 -->
<g id="edge9" class="edge">
<title>Node662&#45;&gt;Node670</title>
<path fill="none" stroke="#191970" d="M109.3183,-171.1827C117.5286,-169.937 126.0611,-168.6425 134.4586,-167.3683"/>
<polygon fill="#191970" stroke="#191970" points="135.2424,-170.7896 144.6042,-165.829 134.1923,-163.8688 135.2424,-170.7896"/>
</g>
<!-- Node664 -->
<g id="node3" class="node">
<title>Node664</title>
<g id="a_node3"><a xlink:href="namespacecimg__library__suffixed_1_1cimg.html#a79aef0cbcf66ceb71c2b74cb66b4deb2" target="_top" xlink:title="Avoid warning messages due to unused parameters. Do nothing actually. ">
<polygon fill="#ffffff" stroke="#000000" points="1189,-120.5 1189,-150.5 1298,-150.5 1298,-120.5 1189,-120.5"/>
<text text-anchor="start" x="1197" y="-138.5" font-family="Helvetica,sans-Serif" font-size="10.00" fill="#000000">cimg_library_suffixed</text>
<text text-anchor="middle" x="1243.5" y="-127.5" font-family="Helvetica,sans-Serif" font-size="10.00" fill="#000000">::cimg::unused</text>
</a>
</g>
</g>
<!-- Node663&#45;&gt;Node664 -->
<g id="edge2" class="edge">
<title>Node663&#45;&gt;Node664</title>
<path fill="none" stroke="#191970" d="M399.2671,-248.5139C457.5611,-251.4583 552.5112,-255.5 634.5,-255.5 634.5,-255.5 634.5,-255.5 945,-255.5 1050.0705,-255.5 1161.9063,-190.7025 1213.8288,-156.3381"/>
<polygon fill="#191970" stroke="#191970" points="1215.876,-159.1794 1222.2257,-150.6981 1211.9729,-153.3685 1215.876,-159.1794"/>
</g>
<!-- Node665 -->
<g id="node4" class="node">
<title>Node665</title>
<g id="a_node4"><a xlink:href="namespacecimg__library__suffixed_1_1cimg.html#a9e739e4b4ac058abfba069466617b914" target="_top" xlink:title="cimg_library_suffixed\l::cimg::mutex">
<polygon fill="#ffffff" stroke="#000000" points="1334,-73.5 1334,-103.5 1443,-103.5 1443,-73.5 1334,-73.5"/>
<text text-anchor="start" x="1342" y="-91.5" font-family="Helvetica,sans-Serif" font-size="10.00" fill="#000000">cimg_library_suffixed</text>
<text text-anchor="middle" x="1388.5" y="-80.5" font-family="Helvetica,sans-Serif" font-size="10.00" fill="#000000">::cimg::mutex</text>
</a>
</g>
</g>
<!-- Node664&#45;&gt;Node665 -->
<g id="edge3" class="edge">
<title>Node664&#45;&gt;Node665</title>
<path fill="none" stroke="#191970" d="M1289.7776,-120.4997C1303.3805,-116.0905 1318.4068,-111.2199 1332.5461,-106.6368"/>
<polygon fill="#191970" stroke="#191970" points="1333.7312,-109.932 1342.1647,-103.519 1331.5728,-103.2731 1333.7312,-109.932"/>
</g>
<!-- Node666 -->
<g id="node5" class="node">
<title>Node666</title>
<g id="a_node5"><a xlink:href="namespacecimg__library__suffixed_1_1cimg.html#aa0e1bc96ae6e235dc5b67b8b0a466166" target="_top" xlink:title="cimg_library_suffixed\l::cimg::Mutex_attr">
<polygon fill="#ffffff" stroke="#000000" points="1648,-71.5 1648,-101.5 1757,-101.5 1757,-71.5 1648,-71.5"/>
<text text-anchor="start" x="1656" y="-89.5" font-family="Helvetica,sans-Serif" font-size="10.00" fill="#000000">cimg_library_suffixed</text>
<text text-anchor="middle" x="1702.5" y="-78.5" font-family="Helvetica,sans-Serif" font-size="10.00" fill="#000000">::cimg::Mutex_attr</text>
</a>
</g>
</g>
<!-- Node665&#45;&gt;Node666 -->
<g id="edge4" class="edge">
<title>Node665&#45;&gt;Node666</title>
<path fill="none" stroke="#191970" d="M1409.1891,-103.5983C1426.7696,-115.4355 1453.1935,-130.9621 1479,-137.5 1536.3008,-152.0168 1554.8241,-152.5013 1612,-137.5 1634.4311,-131.6147 1657.161,-118.7747 1674.2304,-107.4513"/>
<polygon fill="#191970" stroke="#191970" points="1676.3362,-110.2513 1682.609,-101.713 1672.3807,-104.4759 1676.3362,-110.2513"/>
</g>
<!-- Node667 -->
<g id="node6" class="node">
<title>Node667</title>
<g id="a_node6"><a xlink:href="structcimg__library__suffixed_1_1cimg_1_1_mutex__info.html#afac3fa5f107ad4795fb867050f616555" target="_top" xlink:title="cimg_library_suffixed\l::cimg::Mutex_info::unlock">
<polygon fill="#ffffff" stroke="#000000" points="1479.5,-98.5 1479.5,-128.5 1611.5,-128.5 1611.5,-98.5 1479.5,-98.5"/>
<text text-anchor="start" x="1487.5" y="-116.5" font-family="Helvetica,sans-Serif" font-size="10.00" fill="#000000">cimg_library_suffixed</text>
<text text-anchor="middle" x="1545.5" y="-105.5" font-family="Helvetica,sans-Serif" font-size="10.00" fill="#000000">::cimg::Mutex_info::unlock</text>
</a>
</g>
</g>
<!-- Node665&#45;&gt;Node667 -->
<g id="edge5" class="edge">
<title>Node665&#45;&gt;Node667</title>
<path fill="none" stroke="#191970" d="M1443.411,-97.2438C1451.7369,-98.5696 1460.453,-99.9575 1469.1344,-101.3399"/>
<polygon fill="#191970" stroke="#191970" points="1468.8581,-104.8399 1479.2841,-102.9561 1469.9589,-97.927 1468.8581,-104.8399"/>
</g>
<!-- Node668 -->
<g id="node7" class="node">
<title>Node668</title>
<g id="a_node7"><a xlink:href="structcimg__library__suffixed_1_1cimg_1_1_mutex__info.html#a6cc8e26847a1aa649febed03d70182e7" target="_top" xlink:title="cimg_library_suffixed\l::cimg::Mutex_info::lock">
<polygon fill="#ffffff" stroke="#000000" points="1484.5,-49.5 1484.5,-79.5 1606.5,-79.5 1606.5,-49.5 1484.5,-49.5"/>
<text text-anchor="start" x="1492.5" y="-67.5" font-family="Helvetica,sans-Serif" font-size="10.00" fill="#000000">cimg_library_suffixed</text>
<text text-anchor="middle" x="1545.5" y="-56.5" font-family="Helvetica,sans-Serif" font-size="10.00" fill="#000000">::cimg::Mutex_info::lock</text>
</a>
</g>
</g>
<!-- Node665&#45;&gt;Node668 -->
<g id="edge6" class="edge">
<title>Node665&#45;&gt;Node668</title>
<path fill="none" stroke="#191970" d="M1443.411,-80.106C1453.4626,-78.5694 1464.083,-76.9459 1474.5242,-75.3498"/>
<polygon fill="#191970" stroke="#191970" points="1475.0993,-78.8026 1484.4556,-73.8316 1474.0415,-71.883 1475.0993,-78.8026"/>
</g>
<!-- Node669 -->
<g id="node8" class="node">
<title>Node669</title>
<g id="a_node8"><a xlink:href="structcimg__library__suffixed_1_1cimg_1_1_mutex__info.html#a9bf4ed1e1dfe6f28fa6250cd04f3c900" target="_top" xlink:title="cimg_library_suffixed\l::cimg::Mutex_info::trylock">
<polygon fill="#ffffff" stroke="#000000" points="1479,-.5 1479,-30.5 1612,-30.5 1612,-.5 1479,-.5"/>
<text text-anchor="start" x="1487" y="-18.5" font-family="Helvetica,sans-Serif" font-size="10.00" fill="#000000">cimg_library_suffixed</text>
<text text-anchor="middle" x="1545.5" y="-7.5" font-family="Helvetica,sans-Serif" font-size="10.00" fill="#000000">::cimg::Mutex_info::trylock</text>
</a>
</g>
</g>
<!-- Node665&#45;&gt;Node669 -->
<g id="edge7" class="edge">
<title>Node665&#45;&gt;Node669</title>
<path fill="none" stroke="#191970" d="M1414.1165,-73.2922C1431.9592,-63.0342 1456.4996,-49.5832 1479,-39.5 1483.0148,-37.7009 1487.209,-35.935 1491.4536,-34.2284"/>
<polygon fill="#191970" stroke="#191970" points="1492.7287,-37.488 1500.7765,-30.5972 1490.1881,-30.9653 1492.7287,-37.488"/>
</g>
<!-- Node669&#45;&gt;Node666 -->
<g id="edge8" class="edge">
<title>Node669&#45;&gt;Node666</title>
<path fill="none" stroke="#191970" d="M1589.8219,-30.5669C1597.2921,-33.3704 1604.9165,-36.3987 1612,-39.5 1630.3023,-47.513 1650.055,-57.5948 1666.4227,-66.3642"/>
<polygon fill="#191970" stroke="#191970" points="1665.1718,-69.6669 1675.6321,-71.3503 1668.5046,-63.5112 1665.1718,-69.6669"/>
</g>
<!-- Node671 -->
<g id="node10" class="node">
<title>Node671</title>
<g id="a_node10"><a xlink:href="namespacecimg__library__suffixed_1_1cimg.html#ab47e3a7718b582df77725470f3824eb4" target="_top" xlink:title="cimg_library_suffixed\l::cimg::tictoc">
<polygon fill="#ffffff" stroke="#000000" points="290,-142.5 290,-172.5 399,-172.5 399,-142.5 290,-142.5"/>
<text text-anchor="start" x="298" y="-160.5" font-family="Helvetica,sans-Serif" font-size="10.00" fill="#000000">cimg_library_suffixed</text>
<text text-anchor="middle" x="344.5" y="-149.5" font-family="Helvetica,sans-Serif" font-size="10.00" fill="#000000">::cimg::tictoc</text>
</a>
</g>
</g>
<!-- Node670&#45;&gt;Node671 -->
<g id="edge10" class="edge">
<title>Node670&#45;&gt;Node671</title>
<path fill="none" stroke="#191970" d="M254.3183,-150.9317C262.5286,-150.7598 271.0611,-150.7099 279.4586,-150.7819"/>
<polygon fill="#191970" stroke="#191970" points="279.5541,-154.2835 289.6042,-150.9301 279.6564,-147.2843 279.5541,-154.2835"/>
</g>
<!-- Node671&#45;&gt;Node665 -->
<g id="edge11" class="edge">
<title>Node671&#45;&gt;Node665</title>
<path fill="none" stroke="#191970" d="M359.9467,-142.2704C400.9121,-103.5709 517.2353,-4.5 634.5,-4.5 634.5,-4.5 634.5,-4.5 1098.5,-4.5 1190.9675,-4.5 1293.7041,-44.3875 1348.6488,-69.19"/>
<polygon fill="#191970" stroke="#191970" points="1347.4672,-72.4985 1358.0163,-73.4825 1350.3833,-66.1348 1347.4672,-72.4985"/>
</g>
<!-- Node671&#45;&gt;Node670 -->
<g id="edge12" class="edge">
<title>Node671&#45;&gt;Node670</title>
<path fill="none" stroke="#191970" d="M289.6042,-164.0699C281.3919,-164.241 272.8588,-164.2902 264.4621,-164.2175"/>
<polygon fill="#191970" stroke="#191970" points="264.3687,-160.7158 254.3183,-164.0683 264.2657,-167.7151 264.3687,-160.7158"/>
</g>
<!-- Node672 -->
<g id="node11" class="node">
<title>Node672</title>
<g id="a_node11"><a xlink:href="namespacecimg__library__suffixed_1_1cimg.html#ada686776cc71803df391eea79cd1b3e5" target="_top" xlink:title="Get/set default output stream for the &#160;library messages. ">
<polygon fill="#ffffff" stroke="#000000" points="435,-142.5 435,-172.5 544,-172.5 544,-142.5 435,-142.5"/>
<text text-anchor="start" x="443" y="-160.5" font-family="Helvetica,sans-Serif" font-size="10.00" fill="#000000">cimg_library_suffixed</text>
<text text-anchor="middle" x="489.5" y="-149.5" font-family="Helvetica,sans-Serif" font-size="10.00" fill="#000000">::cimg::output</text>
</a>
</g>
</g>
<!-- Node671&#45;&gt;Node672 -->
<g id="edge13" class="edge">
<title>Node671&#45;&gt;Node672</title>
<path fill="none" stroke="#191970" d="M399.3183,-157.5C407.5286,-157.5 416.0611,-157.5 424.4586,-157.5"/>
<polygon fill="#191970" stroke="#191970" points="424.6042,-161.0001 434.6042,-157.5 424.6042,-154.0001 424.6042,-161.0001"/>
</g>
<!-- Node672&#45;&gt;Node665 -->
<g id="edge14" class="edge">
<title>Node672&#45;&gt;Node665</title>
<path fill="none" stroke="#191970" d="M535.0632,-172.6405C592.696,-190.415 695.3135,-217.5 785.5,-217.5 785.5,-217.5 785.5,-217.5 1098.5,-217.5 1190.8378,-217.5 1215.8459,-201.6543 1298,-159.5 1323.2688,-146.5343 1348.3926,-126.0621 1365.7338,-110.4252"/>
<polygon fill="#191970" stroke="#191970" points="1368.1359,-112.9713 1373.1264,-103.6254 1363.3969,-107.8193 1368.1359,-112.9713"/>
</g>
<!-- Node673 -->
<g id="node12" class="node">
<title>Node673</title>
<g id="a_node12"><a xlink:href="namespacecimg__library__suffixed_1_1cimg.html#aab8db7528c32a8fd3a3dc471e662782e" target="_top" xlink:title="cimg_library_suffixed\l::cimg::_stderr">
<polygon fill="#ffffff" stroke="#000000" points="580,-122.5 580,-152.5 689,-152.5 689,-122.5 580,-122.5"/>
<text text-anchor="start" x="588" y="-140.5" font-family="Helvetica,sans-Serif" font-size="10.00" fill="#000000">cimg_library_suffixed</text>
<text text-anchor="middle" x="634.5" y="-129.5" font-family="Helvetica,sans-Serif" font-size="10.00" fill="#000000">::cimg::_stderr</text>
</a>
</g>
</g>
<!-- Node672&#45;&gt;Node673 -->
<g id="edge15" class="edge">
<title>Node672&#45;&gt;Node673</title>
<path fill="none" stroke="#191970" d="M544.3183,-149.9389C552.5286,-148.8064 561.0611,-147.6295 569.4586,-146.4712"/>
<polygon fill="#191970" stroke="#191970" points="570.1762,-149.9055 579.6042,-145.0718 569.2197,-142.9711 570.1762,-149.9055"/>
</g>
<!-- Node673&#45;&gt;Node664 -->
<g id="edge26" class="edge">
<title>Node673&#45;&gt;Node664</title>
<path fill="none" stroke="#191970" d="M689.3988,-147.1477C701.1141,-148.8822 713.4402,-150.4652 725,-151.5 914.4978,-168.4628 964.3404,-184.0906 1153,-159.5 1163.8599,-158.0845 1175.272,-155.7517 1186.1935,-153.0824"/>
<polygon fill="#191970" stroke="#191970" points="1187.2385,-156.4278 1196.0556,-150.5532 1185.4995,-149.6472 1187.2385,-156.4278"/>
</g>
<!-- Node674 -->
<g id="node13" class="node">
<title>Node674</title>
<g id="a_node13"><a xlink:href="namespacecimg__library__suffixed_1_1cimg.html#aeafab144366eddd11360f32f468fa4af" target="_top" xlink:title="Set current &#160;exception mode. ">
<polygon fill="#ffffff" stroke="#000000" points="725,-112.5 725,-142.5 846,-142.5 846,-112.5 725,-112.5"/>
<text text-anchor="start" x="733" y="-130.5" font-family="Helvetica,sans-Serif" font-size="10.00" fill="#000000">cimg_library_suffixed</text>
<text text-anchor="middle" x="785.5" y="-119.5" font-family="Helvetica,sans-Serif" font-size="10.00" fill="#000000">::cimg::exception_mode</text>
</a>
</g>
</g>
<!-- Node673&#45;&gt;Node674 -->
<g id="edge16" class="edge">
<title>Node673&#45;&gt;Node674</title>
<path fill="none" stroke="#191970" d="M689.0145,-133.8898C697.3935,-133.3349 706.1471,-132.7552 714.8158,-132.1811"/>
<polygon fill="#191970" stroke="#191970" points="715.1786,-135.6648 724.9254,-131.5116 714.716,-128.6801 715.1786,-135.6648"/>
</g>
<!-- Node675 -->
<g id="node14" class="node">
<title>Node675</title>
<g id="a_node14"><a xlink:href="namespacecimg__library__suffixed_1_1cimg.html#a6c578f866de2be9be7e385d693c758c8" target="_top" xlink:title="cimg_library_suffixed\l::cimg::_exception_mode">
<polygon fill="#ffffff" stroke="#000000" points="882,-44.5 882,-74.5 1008,-74.5 1008,-44.5 882,-44.5"/>
<text text-anchor="start" x="890" y="-62.5" font-family="Helvetica,sans-Serif" font-size="10.00" fill="#000000">cimg_library_suffixed</text>
<text text-anchor="middle" x="945" y="-51.5" font-family="Helvetica,sans-Serif" font-size="10.00" fill="#000000">::cimg::_exception_mode</text>
</a>
</g>
</g>
<!-- Node674&#45;&gt;Node675 -->
<g id="edge17" class="edge">
<title>Node674&#45;&gt;Node675</title>
<path fill="none" stroke="#191970" d="M820.8982,-112.4086C844.3359,-102.4164 875.2672,-89.2293 900.386,-78.5204"/>
<polygon fill="#191970" stroke="#191970" points="901.8745,-81.6907 909.7007,-74.5492 899.1292,-75.2514 901.8745,-81.6907"/>
</g>
<!-- Node675&#45;&gt;Node665 -->
<g id="edge25" class="edge">
<title>Node675&#45;&gt;Node665</title>
<path fill="none" stroke="#191970" d="M1008.3249,-58.394C1049.5677,-58.0966 1104.5213,-58.4961 1153,-61.5 1210.974,-65.0922 1276.6078,-72.9307 1323.8323,-79.2413"/>
<polygon fill="#191970" stroke="#191970" points="1323.5415,-82.7337 1333.9199,-80.6035 1324.4783,-75.7967 1323.5415,-82.7337"/>
</g>
<!-- Node675&#45;&gt;Node673 -->
<g id="edge18" class="edge">
<title>Node675&#45;&gt;Node673</title>
<path fill="none" stroke="#191970" d="M881.7127,-68.8342C837.3657,-76.1097 776.9729,-87.4974 725,-102.5 709.5989,-106.9457 693.1433,-112.9222 678.5449,-118.6772"/>
<polygon fill="#191970" stroke="#191970" points="677.2259,-115.4351 669.2497,-122.4088 679.8338,-121.9312 677.2259,-115.4351"/>
</g>
<!-- Node676 -->
<g id="node15" class="node">
<title>Node676</title>
<g id="a_node15"><a xlink:href="namespacecimg__library__suffixed_1_1cimg.html#a01a3b743897290604513ea6d847c9886" target="_top" xlink:title="cimg_library_suffixed\l::cimg::_stdin">
<polygon fill="#ffffff" stroke="#000000" points="1044,-120.5 1044,-150.5 1153,-150.5 1153,-120.5 1044,-120.5"/>
<text text-anchor="start" x="1052" y="-138.5" font-family="Helvetica,sans-Serif" font-size="10.00" fill="#000000">cimg_library_suffixed</text>
<text text-anchor="middle" x="1098.5" y="-127.5" font-family="Helvetica,sans-Serif" font-size="10.00" fill="#000000">::cimg::_stdin</text>
</a>
</g>
</g>
<!-- Node675&#45;&gt;Node676 -->
<g id="edge19" class="edge">
<title>Node675&#45;&gt;Node676</title>
<path fill="none" stroke="#191970" d="M973.4192,-74.5765C993.1148,-84.9174 1020.0088,-98.8254 1044,-110.5 1047.7909,-112.3448 1051.7464,-114.2315 1055.7196,-116.1008"/>
<polygon fill="#191970" stroke="#191970" points="1054.4104,-119.3521 1064.953,-120.4029 1057.3668,-113.007 1054.4104,-119.3521"/>
</g>
<!-- Node677 -->
<g id="node16" class="node">
<title>Node677</title>
<g id="a_node16"><a xlink:href="namespacecimg__library__suffixed_1_1cimg.html#a493220746e5df3466568bd7862825008" target="_top" xlink:title="cimg_library_suffixed\l::cimg::_stdout">
<polygon fill="#ffffff" stroke="#000000" points="1044,-71.5 1044,-101.5 1153,-101.5 1153,-71.5 1044,-71.5"/>
<text text-anchor="start" x="1052" y="-89.5" font-family="Helvetica,sans-Serif" font-size="10.00" fill="#000000">cimg_library_suffixed</text>
<text text-anchor="middle" x="1098.5" y="-78.5" font-family="Helvetica,sans-Serif" font-size="10.00" fill="#000000">::cimg::_stdout</text>
</a>
</g>
</g>
<!-- Node675&#45;&gt;Node677 -->
<g id="edge22" class="edge">
<title>Node675&#45;&gt;Node677</title>
<path fill="none" stroke="#191970" d="M1008.3205,-70.6378C1016.6577,-72.1043 1025.2131,-73.6091 1033.5765,-75.0802"/>
<polygon fill="#191970" stroke="#191970" points="1033.2001,-78.5677 1043.6553,-76.853 1034.4128,-71.6735 1033.2001,-78.5677"/>
</g>
<!-- Node676&#45;&gt;Node664 -->
<g id="edge21" class="edge">
<title>Node676&#45;&gt;Node664</title>
<path fill="none" stroke="#191970" d="M1153.3183,-135.5C1161.5286,-135.5 1170.0611,-135.5 1178.4586,-135.5"/>
<polygon fill="#191970" stroke="#191970" points="1178.6042,-139.0001 1188.6042,-135.5 1178.6042,-132.0001 1178.6042,-139.0001"/>
</g>
<!-- Node676&#45;&gt;Node674 -->
<g id="edge20" class="edge">
<title>Node676&#45;&gt;Node674</title>
<path fill="none" stroke="#191970" d="M1043.9666,-134.1062C991.8805,-132.7749 913.1092,-130.7616 856.2205,-129.3076"/>
<polygon fill="#191970" stroke="#191970" points="856.3069,-125.8087 846.2207,-129.052 856.128,-132.8064 856.3069,-125.8087"/>
</g>
<!-- Node677&#45;&gt;Node664 -->
<g id="edge24" class="edge">
<title>Node677&#45;&gt;Node664</title>
<path fill="none" stroke="#191970" d="M1143.1879,-101.6014C1157.659,-106.4917 1173.8725,-111.9707 1188.9752,-117.0744"/>
<polygon fill="#191970" stroke="#191970" points="1188.1158,-120.4783 1198.71,-120.3641 1190.3569,-113.8468 1188.1158,-120.4783"/>
</g>
<!-- Node677&#45;&gt;Node674 -->
<g id="edge23" class="edge">
<title>Node677&#45;&gt;Node674</title>
<path fill="none" stroke="#191970" d="M1043.9666,-93.6433C991.8805,-100.4661 913.1092,-110.7844 856.2205,-118.2363"/>
<polygon fill="#191970" stroke="#191970" points="855.6814,-114.7769 846.2207,-119.5462 856.5906,-121.7176 855.6814,-114.7769"/>
</g>
</g>
</svg>
