<?xml version="1.0" encoding="UTF-8" standalone="no"?>
<!DOCTYPE svg PUBLIC "-//W3C//DTD SVG 1.1//EN"
 "http://www.w3.org/Graphics/SVG/1.1/DTD/svg11.dtd">
<!-- Generated by graphviz version 2.40.1 (20161225.0304)
 -->
<!-- Title: cimg_library_suffixed::cimg::fdate Pages: 1 -->
<svg width="576pt" height="158pt"
 viewBox="0.00 0.00 576.00 157.78" xmlns="http://www.w3.org/2000/svg" xmlns:xlink="http://www.w3.org/1999/xlink">
<g id="graph0" class="graph" transform="scale(1 1) rotate(0) translate(4 153.78)">
<title>cimg_library_suffixed::cimg::fdate</title>
<polygon fill="#ffffff" stroke="transparent" points="-4,4 -4,-153.78 572,-153.78 572,4 -4,4"/>
<!-- Node1290 -->
<g id="node1" class="node">
<title>Node1290</title>
<polygon fill="#bfbfbf" stroke="#000000" points="0,-73.5 0,-103.5 109,-103.5 109,-73.5 0,-73.5"/>
<text text-anchor="start" x="8" y="-91.5" font-family="Helvetica,sans-Serif" font-size="10.00" fill="#000000">cimg_library_suffixed</text>
<text text-anchor="middle" x="54.5" y="-80.5" font-family="Helvetica,sans-Serif" font-size="10.00" fill="#000000">::cimg::fdate</text>
</g>
<!-- Node1291 -->
<g id="node2" class="node">
<title>Node1291</title>
<g id="a_node2"><a xlink:href="namespacecimg__library__suffixed_1_1cimg.html#a9e739e4b4ac058abfba069466617b914" target="_top" xlink:title="cimg_library_suffixed\l::cimg::mutex">
<polygon fill="#ffffff" stroke="#000000" points="145,-73.5 145,-103.5 254,-103.5 254,-73.5 145,-73.5"/>
<text text-anchor="start" x="153" y="-91.5" font-family="Helvetica,sans-Serif" font-size="10.00" fill="#000000">cimg_library_suffixed</text>
<text text-anchor="middle" x="199.5" y="-80.5" font-family="Helvetica,sans-Serif" font-size="10.00" fill="#000000">::cimg::mutex</text>
</a>
</g>
</g>
<!-- Node1290&#45;&gt;Node1291 -->
<g id="edge1" class="edge">
<title>Node1290&#45;&gt;Node1291</title>
<path fill="none" stroke="#191970" d="M109.3183,-88.5C117.5286,-88.5 126.0611,-88.5 134.4586,-88.5"/>
<polygon fill="#191970" stroke="#191970" points="134.6042,-92.0001 144.6042,-88.5 134.6042,-85.0001 134.6042,-92.0001"/>
</g>
<!-- Node1292 -->
<g id="node3" class="node">
<title>Node1292</title>
<g id="a_node3"><a xlink:href="namespacecimg__library__suffixed_1_1cimg.html#aa0e1bc96ae6e235dc5b67b8b0a466166" target="_top" xlink:title="cimg_library_suffixed\l::cimg::Mutex_attr">
<polygon fill="#ffffff" stroke="#000000" points="459,-71.5 459,-101.5 568,-101.5 568,-71.5 459,-71.5"/>
<text text-anchor="start" x="467" y="-89.5" font-family="Helvetica,sans-Serif" font-size="10.00" fill="#000000">cimg_library_suffixed</text>
<text text-anchor="middle" x="513.5" y="-78.5" font-family="Helvetica,sans-Serif" font-size="10.00" fill="#000000">::cimg::Mutex_attr</text>
</a>
</g>
</g>
<!-- Node1291&#45;&gt;Node1292 -->
<g id="edge2" class="edge">
<title>Node1291&#45;&gt;Node1292</title>
<path fill="none" stroke="#191970" d="M219.7886,-103.66C237.338,-115.766 263.9275,-131.7766 290,-138.5 347.2386,-153.2603 365.8872,-153.7398 423,-138.5 445.8112,-132.4131 468.8447,-119.0529 485.9657,-107.3993"/>
<polygon fill="#191970" stroke="#191970" points="488.1785,-110.1221 494.3474,-101.5084 484.1534,-104.3951 488.1785,-110.1221"/>
</g>
<!-- Node1293 -->
<g id="node4" class="node">
<title>Node1293</title>
<g id="a_node4"><a xlink:href="structcimg__library__suffixed_1_1cimg_1_1_mutex__info.html#afac3fa5f107ad4795fb867050f616555" target="_top" xlink:title="cimg_library_suffixed\l::cimg::Mutex_info::unlock">
<polygon fill="#ffffff" stroke="#000000" points="290.5,-98.5 290.5,-128.5 422.5,-128.5 422.5,-98.5 290.5,-98.5"/>
<text text-anchor="start" x="298.5" y="-116.5" font-family="Helvetica,sans-Serif" font-size="10.00" fill="#000000">cimg_library_suffixed</text>
<text text-anchor="middle" x="356.5" y="-105.5" font-family="Helvetica,sans-Serif" font-size="10.00" fill="#000000">::cimg::Mutex_info::unlock</text>
</a>
</g>
</g>
<!-- Node1291&#45;&gt;Node1293 -->
<g id="edge3" class="edge">
<title>Node1291&#45;&gt;Node1293</title>
<path fill="none" stroke="#191970" d="M254.411,-97.2438C262.7369,-98.5696 271.453,-99.9575 280.1344,-101.3399"/>
<polygon fill="#191970" stroke="#191970" points="279.8581,-104.8399 290.2841,-102.9561 280.9589,-97.927 279.8581,-104.8399"/>
</g>
<!-- Node1294 -->
<g id="node5" class="node">
<title>Node1294</title>
<g id="a_node5"><a xlink:href="structcimg__library__suffixed_1_1cimg_1_1_mutex__info.html#a6cc8e26847a1aa649febed03d70182e7" target="_top" xlink:title="cimg_library_suffixed\l::cimg::Mutex_info::lock">
<polygon fill="#ffffff" stroke="#000000" points="295.5,-49.5 295.5,-79.5 417.5,-79.5 417.5,-49.5 295.5,-49.5"/>
<text text-anchor="start" x="303.5" y="-67.5" font-family="Helvetica,sans-Serif" font-size="10.00" fill="#000000">cimg_library_suffixed</text>
<text text-anchor="middle" x="356.5" y="-56.5" font-family="Helvetica,sans-Serif" font-size="10.00" fill="#000000">::cimg::Mutex_info::lock</text>
</a>
</g>
</g>
<!-- Node1291&#45;&gt;Node1294 -->
<g id="edge4" class="edge">
<title>Node1291&#45;&gt;Node1294</title>
<path fill="none" stroke="#191970" d="M254.411,-80.106C264.4626,-78.5694 275.083,-76.9459 285.5242,-75.3498"/>
<polygon fill="#191970" stroke="#191970" points="286.0993,-78.8026 295.4556,-73.8316 285.0415,-71.883 286.0993,-78.8026"/>
</g>
<!-- Node1295 -->
<g id="node6" class="node">
<title>Node1295</title>
<g id="a_node6"><a xlink:href="structcimg__library__suffixed_1_1cimg_1_1_mutex__info.html#a9bf4ed1e1dfe6f28fa6250cd04f3c900" target="_top" xlink:title="cimg_library_suffixed\l::cimg::Mutex_info::trylock">
<polygon fill="#ffffff" stroke="#000000" points="290,-.5 290,-30.5 423,-30.5 423,-.5 290,-.5"/>
<text text-anchor="start" x="298" y="-18.5" font-family="Helvetica,sans-Serif" font-size="10.00" fill="#000000">cimg_library_suffixed</text>
<text text-anchor="middle" x="356.5" y="-7.5" font-family="Helvetica,sans-Serif" font-size="10.00" fill="#000000">::cimg::Mutex_info::trylock</text>
</a>
</g>
</g>
<!-- Node1291&#45;&gt;Node1295 -->
<g id="edge5" class="edge">
<title>Node1291&#45;&gt;Node1295</title>
<path fill="none" stroke="#191970" d="M225.9788,-73.3011C243.7871,-63.3682 267.9505,-50.4428 290,-40.5 294.6591,-38.3991 299.5523,-36.3232 304.4816,-34.3195"/>
<polygon fill="#191970" stroke="#191970" points="305.9456,-37.5042 313.9536,-30.5672 303.3675,-30.9963 305.9456,-37.5042"/>
</g>
<!-- Node1295&#45;&gt;Node1292 -->
<g id="edge6" class="edge">
<title>Node1295&#45;&gt;Node1292</title>
<path fill="none" stroke="#191970" d="M398.6439,-30.5387C406.7907,-33.6717 415.2117,-37.0692 423,-40.5 440.9326,-48.3993 460.3586,-58.1135 476.5985,-66.5763"/>
<polygon fill="#191970" stroke="#191970" points="475.2767,-69.8356 485.7567,-71.3913 478.5342,-63.6398 475.2767,-69.8356"/>
</g>
</g>
</svg>
