<?xml version="1.0" encoding="UTF-8" standalone="no"?>
<!DOCTYPE svg PUBLIC "-//W3C//DTD SVG 1.1//EN"
 "http://www.w3.org/Graphics/SVG/1.1/DTD/svg11.dtd">
<!-- Generated by graphviz version 2.40.1 (20161225.0304)
 -->
<!-- Title: cimg_library_suffixed::cimg::fwrite Pages: 1 -->
<!--zoomable 564 -->
<svg id="main" version="1.1" xmlns="http://www.w3.org/2000/svg" xmlns:xlink="http://www.w3.org/1999/xlink" xml:space="preserve" onload="init(evt)">
<style type="text/css"><![CDATA[
.edge:hover path { stroke: red; }
.edge:hover polygon { stroke: red; fill: red; }
]]></style>
<script type="text/javascript"><![CDATA[
var edges = document.getElementsByTagName('g');
if (edges && edges.length) {
  for (var i=0;i<edges.length;i++) {
    if (edges[i].id.substr(0,4)=='edge') {
      edges[i].setAttribute('class','edge');
    }
  }
}
]]></script>
        <defs>
                <circle id="rim" cx="0" cy="0" r="7"/>
                <circle id="rim2" cx="0" cy="0" r="3.5"/>
                <g id="zoomPlus">
                        <use xlink:href="#rim" fill="#404040">
                                <set attributeName="fill" to="#808080" begin="zoomplus.mouseover" end="zoomplus.mouseout"/>
                        </use>
                        <path d="M-4,0h8M0,-4v8" fill="none" stroke="white" stroke-width="1.5" pointer-events="none"/>
                </g>
                <g id="zoomMin">
                        <use xlink:href="#rim" fill="#404040">
                                <set attributeName="fill" to="#808080" begin="zoomminus.mouseover" end="zoomminus.mouseout"/>
                        </use>
                        <path d="M-4,0h8" fill="none" stroke="white" stroke-width="1.5" pointer-events="none"/>
                </g>
                <g id="dirArrow">
                        <path fill="none" stroke="white" stroke-width="1.5" d="M0,-3.0v7 M-2.5,-0.5L0,-3.0L2.5,-0.5"/>
                </g>
               <g id="resetDef">
                       <use xlink:href="#rim2" fill="#404040">
                               <set attributeName="fill" to="#808080" begin="reset.mouseover" end="reset.mouseout"/>
                       </use>
               </g>
        </defs>

<script type="text/javascript">
var viewWidth = 299;
var viewHeight = 564;
var sectionId = 'dynsection-63';
</script>
<script xlink:href="svgpan.js"/>
<svg id="graph" class="graph">
<g id="viewport">
<title>cimg_library_suffixed::cimg::fwrite</title>
<polygon fill="#ffffff" stroke="transparent" points="-4,4 -4,-559.5 295,-559.5 295,4 -4,4"/>
<!-- Node1744 -->
<g id="node1" class="node">
<title>Node1744</title>
<polygon fill="#bfbfbf" stroke="#000000" points="0,-268 0,-298 109,-298 109,-268 0,-268"/>
<text text-anchor="start" x="8" y="-286" font-family="Helvetica,sans-Serif" font-size="10.00" fill="#000000">cimg_library_suffixed</text>
<text text-anchor="middle" x="54.5" y="-275" font-family="Helvetica,sans-Serif" font-size="10.00" fill="#000000">::cimg::fwrite</text>
</g>
<!-- Node1745 -->
<g id="node2" class="node">
<title>Node1745</title>
<g id="a_node2"><a xlink:href="structcimg__library__suffixed_1_1_c_img.html#ae9faefb948746c5d646fe5c80f28c4fc" target="_top" xlink:title="cimg_library_suffixed\l::CImg\&lt; charT \&gt;::_save_bmp">
<polygon fill="#ffffff" stroke="#000000" points="145,-525 145,-555 291,-555 291,-525 145,-525"/>
<text text-anchor="start" x="153" y="-543" font-family="Helvetica,sans-Serif" font-size="10.00" fill="#000000">cimg_library_suffixed</text>
<text text-anchor="middle" x="218" y="-532" font-family="Helvetica,sans-Serif" font-size="10.00" fill="#000000">::CImg&lt; charT &gt;::_save_bmp</text>
</a>
</g>
</g>
<!-- Node1744&#45;&gt;Node1745 -->
<g id="edge1" class="edge">
<title>Node1744&#45;&gt;Node1745</title>
<path fill="none" stroke="#191970" d="M57.3537,-308.1059C64.0262,-355.2389 84.9272,-457.3978 145,-515 149.0611,-518.8941 153.7546,-522.1833 158.7636,-524.9614"/>
<polygon fill="#191970" stroke="#191970" points="60.8171,-307.5979 56.0417,-298.1404 53.877,-308.5117 60.8171,-307.5979"/>
</g>
<!-- Node1746 -->
<g id="node3" class="node">
<title>Node1746</title>
<g id="a_node3"><a xlink:href="structcimg__library__suffixed_1_1_c_img_list.html#af99c31c0d24c46734145e1910ca44323" target="_top" xlink:title="cimg_library_suffixed\l::CImgList\&lt; charT \&gt;::\l_save_cimg">
<polygon fill="#ffffff" stroke="#000000" points="162.5,-464.5 162.5,-505.5 273.5,-505.5 273.5,-464.5 162.5,-464.5"/>
<text text-anchor="start" x="170.5" y="-493.5" font-family="Helvetica,sans-Serif" font-size="10.00" fill="#000000">cimg_library_suffixed</text>
<text text-anchor="start" x="170.5" y="-482.5" font-family="Helvetica,sans-Serif" font-size="10.00" fill="#000000">::CImgList&lt; charT &gt;::</text>
<text text-anchor="middle" x="218" y="-471.5" font-family="Helvetica,sans-Serif" font-size="10.00" fill="#000000">_save_cimg</text>
</a>
</g>
</g>
<!-- Node1744&#45;&gt;Node1746 -->
<g id="edge2" class="edge">
<title>Node1744&#45;&gt;Node1746</title>
<path fill="none" stroke="#191970" d="M61.5958,-307.9819C73.2539,-344.8446 99.7938,-413.8735 145,-455 150.169,-459.7026 156.1758,-463.7221 162.4813,-467.1441"/>
<polygon fill="#191970" stroke="#191970" points="64.8367,-306.6098 58.5748,-298.0635 58.1404,-308.6494 64.8367,-306.6098"/>
</g>
<!-- Node1747 -->
<g id="node4" class="node">
<title>Node1747</title>
<g id="a_node4"><a xlink:href="structcimg__library__suffixed_1_1_c_img.html#aa29c8a2179f282535660800f9b9192e0" target="_top" xlink:title="cimg_library_suffixed\l::CImg\&lt; charT \&gt;::_save_inr">
<polygon fill="#ffffff" stroke="#000000" points="149.5,-415 149.5,-445 286.5,-445 286.5,-415 149.5,-415"/>
<text text-anchor="start" x="157.5" y="-433" font-family="Helvetica,sans-Serif" font-size="10.00" fill="#000000">cimg_library_suffixed</text>
<text text-anchor="middle" x="218" y="-422" font-family="Helvetica,sans-Serif" font-size="10.00" fill="#000000">::CImg&lt; charT &gt;::_save_inr</text>
</a>
</g>
</g>
<!-- Node1744&#45;&gt;Node1747 -->
<g id="edge3" class="edge">
<title>Node1744&#45;&gt;Node1747</title>
<path fill="none" stroke="#191970" d="M66.399,-307.261C81.1726,-334.9696 108.8968,-379.8394 145,-406 149.7533,-409.4443 155.0292,-412.4136 160.5076,-414.9694"/>
<polygon fill="#191970" stroke="#191970" points="69.4298,-305.5026 61.7209,-298.2347 63.2149,-308.7237 69.4298,-305.5026"/>
</g>
<!-- Node1748 -->
<g id="node5" class="node">
<title>Node1748</title>
<g id="a_node5"><a xlink:href="structcimg__library__suffixed_1_1_c_img.html#a65be74d7d22bb71e708b3beb8e9cae49" target="_top" xlink:title="cimg_library_suffixed\l::CImg\&lt; charT \&gt;::_save_pfm">
<polygon fill="#ffffff" stroke="#000000" points="146.5,-366 146.5,-396 289.5,-396 289.5,-366 146.5,-366"/>
<text text-anchor="start" x="154.5" y="-384" font-family="Helvetica,sans-Serif" font-size="10.00" fill="#000000">cimg_library_suffixed</text>
<text text-anchor="middle" x="218" y="-373" font-family="Helvetica,sans-Serif" font-size="10.00" fill="#000000">::CImg&lt; charT &gt;::_save_pfm</text>
</a>
</g>
</g>
<!-- Node1744&#45;&gt;Node1748 -->
<g id="edge4" class="edge">
<title>Node1744&#45;&gt;Node1748</title>
<path fill="none" stroke="#191970" d="M76.6116,-305.0463C93.9586,-321.3056 119.3819,-342.9538 145,-357 151.083,-360.3352 157.7067,-363.3058 164.4005,-365.9222"/>
<polygon fill="#191970" stroke="#191970" points="78.8863,-302.3789 69.2379,-298.0017 74.0507,-307.4403 78.8863,-302.3789"/>
</g>
<!-- Node1749 -->
<g id="node6" class="node">
<title>Node1749</title>
<g id="a_node6"><a xlink:href="structcimg__library__suffixed_1_1_c_img.html#a4bcf33abcee45165d20d9530f6c85242" target="_top" xlink:title="cimg_library_suffixed\l::CImg\&lt; charT \&gt;::_save_pnk">
<polygon fill="#ffffff" stroke="#000000" points="146.5,-317 146.5,-347 289.5,-347 289.5,-317 146.5,-317"/>
<text text-anchor="start" x="154.5" y="-335" font-family="Helvetica,sans-Serif" font-size="10.00" fill="#000000">cimg_library_suffixed</text>
<text text-anchor="middle" x="218" y="-324" font-family="Helvetica,sans-Serif" font-size="10.00" fill="#000000">::CImg&lt; charT &gt;::_save_pnk</text>
</a>
</g>
</g>
<!-- Node1744&#45;&gt;Node1749 -->
<g id="edge5" class="edge">
<title>Node1744&#45;&gt;Node1749</title>
<path fill="none" stroke="#191970" d="M114.938,-301.1129C132.32,-306.3222 151.084,-311.9457 167.7769,-316.9484"/>
<polygon fill="#191970" stroke="#191970" points="115.4734,-297.6196 104.8895,-298.1014 113.4638,-304.325 115.4734,-297.6196"/>
</g>
<!-- Node1750 -->
<g id="node7" class="node">
<title>Node1750</title>
<g id="a_node7"><a xlink:href="structcimg__library__suffixed_1_1_c_img.html#a3b62455c9523881fa64a47d8362c3d80" target="_top" xlink:title="cimg_library_suffixed\l::CImg\&lt; charT \&gt;::_save_pnm">
<polygon fill="#ffffff" stroke="#000000" points="145,-268 145,-298 291,-298 291,-268 145,-268"/>
<text text-anchor="start" x="153" y="-286" font-family="Helvetica,sans-Serif" font-size="10.00" fill="#000000">cimg_library_suffixed</text>
<text text-anchor="middle" x="218" y="-275" font-family="Helvetica,sans-Serif" font-size="10.00" fill="#000000">::CImg&lt; charT &gt;::_save_pnm</text>
</a>
</g>
</g>
<!-- Node1744&#45;&gt;Node1750 -->
<g id="edge6" class="edge">
<title>Node1744&#45;&gt;Node1750</title>
<path fill="none" stroke="#191970" d="M119.465,-283C127.8386,-283 136.4576,-283 144.95,-283"/>
<polygon fill="#191970" stroke="#191970" points="119.398,-279.5001 109.398,-283 119.3979,-286.5001 119.398,-279.5001"/>
</g>
<!-- Node1751 -->
<g id="node8" class="node">
<title>Node1751</title>
<g id="a_node8"><a xlink:href="structcimg__library__suffixed_1_1_c_img.html#a069feb3e722bb4a1f52ea72c1c86ca97" target="_top" xlink:title="cimg_library_suffixed\l::CImg\&lt; charT \&gt;::_save_raw">
<polygon fill="#ffffff" stroke="#000000" points="146.5,-219 146.5,-249 289.5,-249 289.5,-219 146.5,-219"/>
<text text-anchor="start" x="154.5" y="-237" font-family="Helvetica,sans-Serif" font-size="10.00" fill="#000000">cimg_library_suffixed</text>
<text text-anchor="middle" x="218" y="-226" font-family="Helvetica,sans-Serif" font-size="10.00" fill="#000000">::CImg&lt; charT &gt;::_save_raw</text>
</a>
</g>
</g>
<!-- Node1744&#45;&gt;Node1751 -->
<g id="edge7" class="edge">
<title>Node1744&#45;&gt;Node1751</title>
<path fill="none" stroke="#191970" d="M114.938,-264.8871C132.32,-259.6778 151.084,-254.0543 167.7769,-249.0516"/>
<polygon fill="#191970" stroke="#191970" points="113.4638,-261.675 104.8895,-267.8986 115.4734,-268.3804 113.4638,-261.675"/>
</g>
<!-- Node1752 -->
<g id="node9" class="node">
<title>Node1752</title>
<g id="a_node9"><a xlink:href="structcimg__library__suffixed_1_1_c_img.html#a06c5e27c1dde885a96cfdad05835644e" target="_top" xlink:title="cimg_library_suffixed\l::CImg\&lt; charT \&gt;::_save_rgb">
<polygon fill="#ffffff" stroke="#000000" points="148,-170 148,-200 288,-200 288,-170 148,-170"/>
<text text-anchor="start" x="156" y="-188" font-family="Helvetica,sans-Serif" font-size="10.00" fill="#000000">cimg_library_suffixed</text>
<text text-anchor="middle" x="218" y="-177" font-family="Helvetica,sans-Serif" font-size="10.00" fill="#000000">::CImg&lt; charT &gt;::_save_rgb</text>
</a>
</g>
</g>
<!-- Node1744&#45;&gt;Node1752 -->
<g id="edge8" class="edge">
<title>Node1744&#45;&gt;Node1752</title>
<path fill="none" stroke="#191970" d="M77.0291,-261.0691C94.4208,-245.1182 119.7129,-223.9579 145,-210 151.6851,-206.31 159.0122,-203.0238 166.3641,-200.1446"/>
<polygon fill="#191970" stroke="#191970" points="74.5417,-258.6031 69.6226,-267.9868 79.3198,-263.7188 74.5417,-258.6031"/>
</g>
<!-- Node1753 -->
<g id="node10" class="node">
<title>Node1753</title>
<g id="a_node10"><a xlink:href="structcimg__library__suffixed_1_1_c_img.html#a974a21a1c7242ff9b08e4590701d920d" target="_top" xlink:title="cimg_library_suffixed\l::CImg\&lt; charT \&gt;::_save_rgba">
<polygon fill="#ffffff" stroke="#000000" points="145,-121 145,-151 291,-151 291,-121 145,-121"/>
<text text-anchor="start" x="153" y="-139" font-family="Helvetica,sans-Serif" font-size="10.00" fill="#000000">cimg_library_suffixed</text>
<text text-anchor="middle" x="218" y="-128" font-family="Helvetica,sans-Serif" font-size="10.00" fill="#000000">::CImg&lt; charT &gt;::_save_rgba</text>
</a>
</g>
</g>
<!-- Node1744&#45;&gt;Node1753 -->
<g id="edge9" class="edge">
<title>Node1744&#45;&gt;Node1753</title>
<path fill="none" stroke="#191970" d="M66.5049,-259.0159C81.3784,-231.6078 109.1967,-187.1736 145,-161 150.2992,-157.1261 156.2442,-153.8193 162.3937,-151.0044"/>
<polygon fill="#191970" stroke="#191970" points="63.3657,-257.4653 61.7919,-267.9426 69.5559,-260.7335 63.3657,-257.4653"/>
</g>
<!-- Node1754 -->
<g id="node11" class="node">
<title>Node1754</title>
<g id="a_node11"><a xlink:href="structcimg__library__suffixed_1_1_c_img_list.html#afa25415a30608d507bc22bd6b85b5c1e" target="_top" xlink:title="cimg_library_suffixed\l::CImgList\&lt; charT \&gt;::\l_save_yuv">
<polygon fill="#ffffff" stroke="#000000" points="162.5,-60.5 162.5,-101.5 273.5,-101.5 273.5,-60.5 162.5,-60.5"/>
<text text-anchor="start" x="170.5" y="-89.5" font-family="Helvetica,sans-Serif" font-size="10.00" fill="#000000">cimg_library_suffixed</text>
<text text-anchor="start" x="170.5" y="-78.5" font-family="Helvetica,sans-Serif" font-size="10.00" fill="#000000">::CImgList&lt; charT &gt;::</text>
<text text-anchor="middle" x="218" y="-67.5" font-family="Helvetica,sans-Serif" font-size="10.00" fill="#000000">_save_yuv</text>
</a>
</g>
</g>
<!-- Node1744&#45;&gt;Node1754 -->
<g id="edge10" class="edge">
<title>Node1744&#45;&gt;Node1754</title>
<path fill="none" stroke="#191970" d="M61.8762,-257.6764C73.7542,-220.9789 100.4147,-152.9404 145,-112 150.1724,-107.2505 156.1811,-103.163 162.4877,-99.6623"/>
<polygon fill="#191970" stroke="#191970" points="58.4262,-256.9829 58.7878,-267.5715 65.1083,-259.0685 58.4262,-256.9829"/>
</g>
<!-- Node1755 -->
<g id="node12" class="node">
<title>Node1755</title>
<g id="a_node12"><a xlink:href="structcimg__library__suffixed_1_1_c_img.html#a09711118d3b31870942e99adbefffed1" target="_top" xlink:title="Save image as an ANALYZE7.5 or NIFTI file. ">
<polygon fill="#ffffff" stroke="#000000" points="160,-.5 160,-41.5 276,-41.5 276,-.5 160,-.5"/>
<text text-anchor="start" x="168" y="-29.5" font-family="Helvetica,sans-Serif" font-size="10.00" fill="#000000">cimg_library_suffixed</text>
<text text-anchor="start" x="168" y="-18.5" font-family="Helvetica,sans-Serif" font-size="10.00" fill="#000000">::CImg&lt; charT &gt;::save</text>
<text text-anchor="middle" x="218" y="-7.5" font-family="Helvetica,sans-Serif" font-size="10.00" fill="#000000">_analyze</text>
</a>
</g>
</g>
<!-- Node1744&#45;&gt;Node1755 -->
<g id="edge11" class="edge">
<title>Node1744&#45;&gt;Node1755</title>
<path fill="none" stroke="#191970" d="M57.776,-257.5881C65.0935,-210.7292 86.9442,-110.1096 145,-51 149.3206,-46.601 154.3779,-42.8215 159.7793,-39.5797"/>
<polygon fill="#191970" stroke="#191970" points="54.2706,-257.3708 56.2851,-267.7724 61.1967,-258.3848 54.2706,-257.3708"/>
</g>
</g>
</svg>
        <g id="navigator" transform="translate(0 0)" fill="#404254">
                <rect fill="#f2f5e9" fill-opacity="0.5" stroke="#606060" stroke-width=".5" x="0" y="0" width="60" height="60"/>
                <use id="zoomplus" xlink:href="#zoomPlus" x="17" y="9" onmousedown="handleZoom(evt,'in')"/>
                <use id="zoomminus" xlink:href="#zoomMin" x="42" y="9" onmousedown="handleZoom(evt,'out')"/>
                <use id="reset" xlink:href="#resetDef" x="30" y="36" onmousedown="handleReset()"/>
                <g id="arrowUp" xlink:href="#dirArrow" transform="translate(30 24)" onmousedown="handlePan(0,-1)">
                  <use xlink:href="#rim" fill="#404040">
                        <set attributeName="fill" to="#808080" begin="arrowUp.mouseover" end="arrowUp.mouseout"/>
                  </use>
                  <path fill="none" stroke="white" stroke-width="1.5" d="M0,-3.0v7 M-2.5,-0.5L0,-3.0L2.5,-0.5"/>
                </g>
                <g id="arrowRight" xlink:href="#dirArrow" transform="rotate(90) translate(36 -43)" onmousedown="handlePan(1,0)">
                  <use xlink:href="#rim" fill="#404040">
                        <set attributeName="fill" to="#808080" begin="arrowRight.mouseover" end="arrowRight.mouseout"/>
                  </use>
                  <path fill="none" stroke="white" stroke-width="1.5" d="M0,-3.0v7 M-2.5,-0.5L0,-3.0L2.5,-0.5"/>
                </g>
                <g id="arrowDown" xlink:href="#dirArrow" transform="rotate(180) translate(-30 -48)" onmousedown="handlePan(0,1)">
                  <use xlink:href="#rim" fill="#404040">
                        <set attributeName="fill" to="#808080" begin="arrowDown.mouseover" end="arrowDown.mouseout"/>
                  </use>
                  <path fill="none" stroke="white" stroke-width="1.5" d="M0,-3.0v7 M-2.5,-0.5L0,-3.0L2.5,-0.5"/>
                </g>
                <g id="arrowLeft" xlink:href="#dirArrow" transform="rotate(270) translate(-36 17)" onmousedown="handlePan(-1,0)">
                  <use xlink:href="#rim" fill="#404040">
                        <set attributeName="fill" to="#808080" begin="arrowLeft.mouseover" end="arrowLeft.mouseout"/>
                  </use>
                  <path fill="none" stroke="white" stroke-width="1.5" d="M0,-3.0v7 M-2.5,-0.5L0,-3.0L2.5,-0.5"/>
                </g>
        </g>
        <svg viewBox="0 0 15 15" width="100%" height="30px" preserveAspectRatio="xMaxYMin meet">
         <g id="arrow_out" transform="scale(0.3 0.3)">
          <a xlink:href="namespacecimg__library__suffixed_1_1cimg_ad44a7e96cd1e9cdef83f4ffe235dd1fb_icgraph_org.svg" target="_base">
           <rect id="button" ry="5" rx="5" y="6" x="6" height="38" width="38"
                fill="#f2f5e9" fill-opacity="0.5" stroke="#606060" stroke-width="1.0"/>
           <path id="arrow"
             d="M 11.500037,31.436501 C 11.940474,20.09759 22.043105,11.32322 32.158766,21.979434 L 37.068811,17.246167 C 37.068811,17.246167 37.088388,32 37.088388,32 L 22.160133,31.978069 C 22.160133,31.978069 26.997745,27.140456 26.997745,27.140456 C 18.528582,18.264221 13.291696,25.230495 11.500037,31.436501 z"
             style="fill:#404040;"/>
          </a>
         </g>
        </svg>
</svg>
