<?xml version="1.0" encoding="UTF-8" standalone="no"?>
<!DOCTYPE svg PUBLIC "-//W3C//DTD SVG 1.1//EN"
 "http://www.w3.org/Graphics/SVG/1.1/DTD/svg11.dtd">
<!-- Generated by graphviz version 2.40.1 (20161225.0304)
 -->
<!-- Title: cimg_library_suffixed::cimg::strbuffersize Pages: 1 -->
<svg width="576pt" height="176pt"
 viewBox="0.00 0.00 576.00 176.00" xmlns="http://www.w3.org/2000/svg" xmlns:xlink="http://www.w3.org/1999/xlink">
<g id="graph0" class="graph" transform="scale(1 1) rotate(0) translate(4 172)">
<title>cimg_library_suffixed::cimg::strbuffersize</title>
<polygon fill="#ffffff" stroke="transparent" points="-4,4 -4,-172 572,-172 572,4 -4,4"/>
<!-- Node3684 -->
<g id="node1" class="node">
<title>Node3684</title>
<polygon fill="#bfbfbf" stroke="#000000" points="0,-71.5 0,-101.5 109,-101.5 109,-71.5 0,-71.5"/>
<text text-anchor="start" x="8" y="-89.5" font-family="Helvetica,sans-Serif" font-size="10.00" fill="#000000">cimg_library_suffixed</text>
<text text-anchor="middle" x="54.5" y="-78.5" font-family="Helvetica,sans-Serif" font-size="10.00" fill="#000000">::cimg::strbuffersize</text>
</g>
<!-- Node3685 -->
<g id="node2" class="node">
<title>Node3685</title>
<g id="a_node2"><a xlink:href="namespacecimg__library__suffixed_1_1cimg.html#a9e739e4b4ac058abfba069466617b914" target="_top" xlink:title="cimg_library_suffixed\l::cimg::mutex">
<polygon fill="#ffffff" stroke="#000000" points="145,-71.5 145,-101.5 254,-101.5 254,-71.5 145,-71.5"/>
<text text-anchor="start" x="153" y="-89.5" font-family="Helvetica,sans-Serif" font-size="10.00" fill="#000000">cimg_library_suffixed</text>
<text text-anchor="middle" x="199.5" y="-78.5" font-family="Helvetica,sans-Serif" font-size="10.00" fill="#000000">::cimg::mutex</text>
</a>
</g>
</g>
<!-- Node3684&#45;&gt;Node3685 -->
<g id="edge1" class="edge">
<title>Node3684&#45;&gt;Node3685</title>
<path fill="none" stroke="#191970" d="M109.3183,-86.5C117.5286,-86.5 126.0611,-86.5 134.4586,-86.5"/>
<polygon fill="#191970" stroke="#191970" points="134.6042,-90.0001 144.6042,-86.5 134.6042,-83.0001 134.6042,-90.0001"/>
</g>
<!-- Node3686 -->
<g id="node3" class="node">
<title>Node3686</title>
<g id="a_node3"><a xlink:href="structcimg__library__suffixed_1_1cimg_1_1_mutex__info.html#a6cc8e26847a1aa649febed03d70182e7" target="_top" xlink:title="cimg_library_suffixed\l::cimg::Mutex_info::lock">
<polygon fill="#ffffff" stroke="#000000" points="295.5,-137.5 295.5,-167.5 417.5,-167.5 417.5,-137.5 295.5,-137.5"/>
<text text-anchor="start" x="303.5" y="-155.5" font-family="Helvetica,sans-Serif" font-size="10.00" fill="#000000">cimg_library_suffixed</text>
<text text-anchor="middle" x="356.5" y="-144.5" font-family="Helvetica,sans-Serif" font-size="10.00" fill="#000000">::cimg::Mutex_info::lock</text>
</a>
</g>
</g>
<!-- Node3685&#45;&gt;Node3686 -->
<g id="edge2" class="edge">
<title>Node3685&#45;&gt;Node3686</title>
<path fill="none" stroke="#191970" d="M235.519,-101.6417C258.0569,-111.1163 287.2804,-123.4013 311.3593,-133.5237"/>
<polygon fill="#191970" stroke="#191970" points="310.0737,-136.7798 320.6486,-137.4287 312.7864,-130.3268 310.0737,-136.7798"/>
</g>
<!-- Node3687 -->
<g id="node4" class="node">
<title>Node3687</title>
<g id="a_node4"><a xlink:href="namespacecimg__library__suffixed_1_1cimg.html#aa0e1bc96ae6e235dc5b67b8b0a466166" target="_top" xlink:title="cimg_library_suffixed\l::cimg::Mutex_attr">
<polygon fill="#ffffff" stroke="#000000" points="459,-71.5 459,-101.5 568,-101.5 568,-71.5 459,-71.5"/>
<text text-anchor="start" x="467" y="-89.5" font-family="Helvetica,sans-Serif" font-size="10.00" fill="#000000">cimg_library_suffixed</text>
<text text-anchor="middle" x="513.5" y="-78.5" font-family="Helvetica,sans-Serif" font-size="10.00" fill="#000000">::cimg::Mutex_attr</text>
</a>
</g>
</g>
<!-- Node3685&#45;&gt;Node3687 -->
<g id="edge3" class="edge">
<title>Node3685&#45;&gt;Node3687</title>
<path fill="none" stroke="#191970" d="M254.0491,-88.6007C265.8995,-88.9753 278.3685,-89.3073 290,-89.5 349.103,-90.4793 363.897,-90.4793 423,-89.5 431.3602,-89.3615 440.1529,-89.151 448.8377,-88.9045"/>
<polygon fill="#191970" stroke="#191970" points="449.0605,-92.3995 458.9509,-88.6007 448.8502,-85.4026 449.0605,-92.3995"/>
</g>
<!-- Node3688 -->
<g id="node5" class="node">
<title>Node3688</title>
<g id="a_node5"><a xlink:href="structcimg__library__suffixed_1_1cimg_1_1_mutex__info.html#a9bf4ed1e1dfe6f28fa6250cd04f3c900" target="_top" xlink:title="cimg_library_suffixed\l::cimg::Mutex_info::trylock">
<polygon fill="#ffffff" stroke="#000000" points="290,-49.5 290,-79.5 423,-79.5 423,-49.5 290,-49.5"/>
<text text-anchor="start" x="298" y="-67.5" font-family="Helvetica,sans-Serif" font-size="10.00" fill="#000000">cimg_library_suffixed</text>
<text text-anchor="middle" x="356.5" y="-56.5" font-family="Helvetica,sans-Serif" font-size="10.00" fill="#000000">::cimg::Mutex_info::trylock</text>
</a>
</g>
</g>
<!-- Node3685&#45;&gt;Node3688 -->
<g id="edge4" class="edge">
<title>Node3685&#45;&gt;Node3688</title>
<path fill="none" stroke="#191970" d="M254.411,-78.8055C262.6098,-77.6566 271.187,-76.4547 279.7367,-75.2566"/>
<polygon fill="#191970" stroke="#191970" points="280.3189,-78.7093 289.7365,-73.8554 279.3475,-71.7771 280.3189,-78.7093"/>
</g>
<!-- Node3689 -->
<g id="node6" class="node">
<title>Node3689</title>
<g id="a_node6"><a xlink:href="structcimg__library__suffixed_1_1cimg_1_1_mutex__info.html#afac3fa5f107ad4795fb867050f616555" target="_top" xlink:title="cimg_library_suffixed\l::cimg::Mutex_info::unlock">
<polygon fill="#ffffff" stroke="#000000" points="290.5,-.5 290.5,-30.5 422.5,-30.5 422.5,-.5 290.5,-.5"/>
<text text-anchor="start" x="298.5" y="-18.5" font-family="Helvetica,sans-Serif" font-size="10.00" fill="#000000">cimg_library_suffixed</text>
<text text-anchor="middle" x="356.5" y="-7.5" font-family="Helvetica,sans-Serif" font-size="10.00" fill="#000000">::cimg::Mutex_info::unlock</text>
</a>
</g>
</g>
<!-- Node3685&#45;&gt;Node3689 -->
<g id="edge6" class="edge">
<title>Node3685&#45;&gt;Node3689</title>
<path fill="none" stroke="#191970" d="M227.2433,-71.3913C244.9588,-61.9965 268.5479,-49.9496 290,-40.5 294.746,-38.4094 299.727,-36.3311 304.7376,-34.3175"/>
<polygon fill="#191970" stroke="#191970" points="306.3284,-37.453 314.3561,-30.5387 303.7688,-30.9378 306.3284,-37.453"/>
</g>
<!-- Node3688&#45;&gt;Node3687 -->
<g id="edge5" class="edge">
<title>Node3688&#45;&gt;Node3687</title>
<path fill="none" stroke="#191970" d="M423.0821,-73.83C431.5193,-75.0123 440.1445,-76.2209 448.5556,-77.3995"/>
<polygon fill="#191970" stroke="#191970" points="448.293,-80.8968 458.682,-78.8185 449.2645,-73.9646 448.293,-80.8968"/>
</g>
</g>
</svg>
