<?xml version="1.0" encoding="UTF-8" standalone="no"?>
<!DOCTYPE svg PUBLIC "-//W3C//DTD SVG 1.1//EN"
 "http://www.w3.org/Graphics/SVG/1.1/DTD/svg11.dtd">
<!-- Generated by graphviz version 2.40.1 (20161225.0304)
 -->
<!-- Title: cimg_library_suffixed::cimg::fopen Pages: 1 -->
<svg width="1330pt" height="224pt"
 viewBox="0.00 0.00 1330.00 224.00" xmlns="http://www.w3.org/2000/svg" xmlns:xlink="http://www.w3.org/1999/xlink">
<g id="graph0" class="graph" transform="scale(1 1) rotate(0) translate(4 220)">
<title>cimg_library_suffixed::cimg::fopen</title>
<polygon fill="#ffffff" stroke="transparent" points="-4,4 -4,-220 1326,-220 1326,4 -4,4"/>
<!-- Node1488 -->
<g id="node1" class="node">
<title>Node1488</title>
<polygon fill="#bfbfbf" stroke="#000000" points="0,-185.5 0,-215.5 109,-215.5 109,-185.5 0,-185.5"/>
<text text-anchor="start" x="8" y="-203.5" font-family="Helvetica,sans-Serif" font-size="10.00" fill="#000000">cimg_library_suffixed</text>
<text text-anchor="middle" x="54.5" y="-192.5" font-family="Helvetica,sans-Serif" font-size="10.00" fill="#000000">::cimg::fopen</text>
</g>
<!-- Node1489 -->
<g id="node2" class="node">
<title>Node1489</title>
<g id="a_node2"><a xlink:href="namespacecimg__library__suffixed_1_1cimg.html#a01a3b743897290604513ea6d847c9886" target="_top" xlink:title="cimg_library_suffixed\l::cimg::_stdin">
<polygon fill="#ffffff" stroke="#000000" points="145,-163.5 145,-193.5 254,-193.5 254,-163.5 145,-163.5"/>
<text text-anchor="start" x="153" y="-181.5" font-family="Helvetica,sans-Serif" font-size="10.00" fill="#000000">cimg_library_suffixed</text>
<text text-anchor="middle" x="199.5" y="-170.5" font-family="Helvetica,sans-Serif" font-size="10.00" fill="#000000">::cimg::_stdin</text>
</a>
</g>
</g>
<!-- Node1488&#45;&gt;Node1489 -->
<g id="edge1" class="edge">
<title>Node1488&#45;&gt;Node1489</title>
<path fill="none" stroke="#191970" d="M109.3183,-192.1827C117.5286,-190.937 126.0611,-189.6425 134.4586,-188.3683"/>
<polygon fill="#191970" stroke="#191970" points="135.2424,-191.7896 144.6042,-186.829 134.1923,-184.8688 135.2424,-191.7896"/>
</g>
<!-- Node1499 -->
<g id="node12" class="node">
<title>Node1499</title>
<g id="a_node12"><a xlink:href="namespacecimg__library__suffixed_1_1cimg.html#a493220746e5df3466568bd7862825008" target="_top" xlink:title="cimg_library_suffixed\l::cimg::_stdout">
<polygon fill="#ffffff" stroke="#000000" points="609,-144.5 609,-174.5 718,-174.5 718,-144.5 609,-144.5"/>
<text text-anchor="start" x="617" y="-162.5" font-family="Helvetica,sans-Serif" font-size="10.00" fill="#000000">cimg_library_suffixed</text>
<text text-anchor="middle" x="663.5" y="-151.5" font-family="Helvetica,sans-Serif" font-size="10.00" fill="#000000">::cimg::_stdout</text>
</a>
</g>
</g>
<!-- Node1488&#45;&gt;Node1499 -->
<g id="edge19" class="edge">
<title>Node1488&#45;&gt;Node1499</title>
<path fill="none" stroke="#191970" d="M109.0491,-202.6007C120.8995,-202.9753 133.3685,-203.3073 145,-203.5 193.4378,-204.3026 205.6238,-206.0708 254,-203.5 396.3799,-195.9338 431.2517,-184.8853 573,-169.5 581.3585,-168.5928 590.1503,-167.6309 598.8346,-166.6762"/>
<polygon fill="#191970" stroke="#191970" points="599.3906,-170.1362 608.9473,-165.5624 598.6243,-163.1782 599.3906,-170.1362"/>
</g>
<!-- Node1490 -->
<g id="node3" class="node">
<title>Node1490</title>
<g id="a_node3"><a xlink:href="namespacecimg__library__suffixed_1_1cimg.html#aeafab144366eddd11360f32f468fa4af" target="_top" xlink:title="Set current &#160;exception mode. ">
<polygon fill="#ffffff" stroke="#000000" points="290,-136.5 290,-166.5 411,-166.5 411,-136.5 290,-136.5"/>
<text text-anchor="start" x="298" y="-154.5" font-family="Helvetica,sans-Serif" font-size="10.00" fill="#000000">cimg_library_suffixed</text>
<text text-anchor="middle" x="350.5" y="-143.5" font-family="Helvetica,sans-Serif" font-size="10.00" fill="#000000">::cimg::exception_mode</text>
</a>
</g>
</g>
<!-- Node1489&#45;&gt;Node1490 -->
<g id="edge2" class="edge">
<title>Node1489&#45;&gt;Node1490</title>
<path fill="none" stroke="#191970" d="M254.0145,-168.7524C262.3935,-167.2541 271.1471,-165.6889 279.8158,-164.1389"/>
<polygon fill="#191970" stroke="#191970" points="280.6976,-167.5368 289.9254,-162.3312 279.4655,-160.6461 280.6976,-167.5368"/>
</g>
<!-- Node1493 -->
<g id="node6" class="node">
<title>Node1493</title>
<g id="a_node6"><a xlink:href="namespacecimg__library__suffixed_1_1cimg.html#a79aef0cbcf66ceb71c2b74cb66b4deb2" target="_top" xlink:title="Avoid warning messages due to unused parameters. Do nothing actually. ">
<polygon fill="#ffffff" stroke="#000000" points="754,-119.5 754,-149.5 863,-149.5 863,-119.5 754,-119.5"/>
<text text-anchor="start" x="762" y="-137.5" font-family="Helvetica,sans-Serif" font-size="10.00" fill="#000000">cimg_library_suffixed</text>
<text text-anchor="middle" x="808.5" y="-126.5" font-family="Helvetica,sans-Serif" font-size="10.00" fill="#000000">::cimg::unused</text>
</a>
</g>
</g>
<!-- Node1489&#45;&gt;Node1493 -->
<g id="edge18" class="edge">
<title>Node1489&#45;&gt;Node1493</title>
<path fill="none" stroke="#191970" d="M254.3616,-188.3692C350.2278,-203.5923 553.6815,-226.8734 718,-184.5 740.2024,-178.7746 762.7796,-166.3145 779.8301,-155.2659"/>
<polygon fill="#191970" stroke="#191970" points="781.8452,-158.1289 788.2114,-149.66 777.9534,-152.3105 781.8452,-158.1289"/>
</g>
<!-- Node1491 -->
<g id="node4" class="node">
<title>Node1491</title>
<g id="a_node4"><a xlink:href="namespacecimg__library__suffixed_1_1cimg.html#a6c578f866de2be9be7e385d693c758c8" target="_top" xlink:title="cimg_library_suffixed\l::cimg::_exception_mode">
<polygon fill="#ffffff" stroke="#000000" points="447,-68.5 447,-98.5 573,-98.5 573,-68.5 447,-68.5"/>
<text text-anchor="start" x="455" y="-86.5" font-family="Helvetica,sans-Serif" font-size="10.00" fill="#000000">cimg_library_suffixed</text>
<text text-anchor="middle" x="510" y="-75.5" font-family="Helvetica,sans-Serif" font-size="10.00" fill="#000000">::cimg::_exception_mode</text>
</a>
</g>
</g>
<!-- Node1490&#45;&gt;Node1491 -->
<g id="edge3" class="edge">
<title>Node1490&#45;&gt;Node1491</title>
<path fill="none" stroke="#191970" d="M385.8982,-136.4086C409.3359,-126.4164 440.2672,-113.2293 465.386,-102.5204"/>
<polygon fill="#191970" stroke="#191970" points="466.8745,-105.6907 474.7007,-98.5492 464.1292,-99.2514 466.8745,-105.6907"/>
</g>
<!-- Node1491&#45;&gt;Node1489 -->
<g id="edge13" class="edge">
<title>Node1491&#45;&gt;Node1489</title>
<path fill="none" stroke="#191970" d="M446.9151,-90.731C402.1284,-97.1501 341.1256,-108.5309 290,-127.5 269.1708,-135.2283 247.432,-147.3281 230.482,-157.8028"/>
<polygon fill="#191970" stroke="#191970" points="228.1798,-155.1173 221.5943,-163.4168 231.9181,-161.0355 228.1798,-155.1173"/>
</g>
<!-- Node1492 -->
<g id="node5" class="node">
<title>Node1492</title>
<g id="a_node5"><a xlink:href="namespacecimg__library__suffixed_1_1cimg.html#aab8db7528c32a8fd3a3dc471e662782e" target="_top" xlink:title="cimg_library_suffixed\l::cimg::_stderr">
<polygon fill="#ffffff" stroke="#000000" points="609,-95.5 609,-125.5 718,-125.5 718,-95.5 609,-95.5"/>
<text text-anchor="start" x="617" y="-113.5" font-family="Helvetica,sans-Serif" font-size="10.00" fill="#000000">cimg_library_suffixed</text>
<text text-anchor="middle" x="663.5" y="-102.5" font-family="Helvetica,sans-Serif" font-size="10.00" fill="#000000">::cimg::_stderr</text>
</a>
</g>
</g>
<!-- Node1491&#45;&gt;Node1492 -->
<g id="edge4" class="edge">
<title>Node1491&#45;&gt;Node1492</title>
<path fill="none" stroke="#191970" d="M573.3205,-94.6378C581.6577,-96.1043 590.2131,-97.6091 598.5765,-99.0802"/>
<polygon fill="#191970" stroke="#191970" points="598.2001,-102.5677 608.6553,-100.853 599.4128,-95.6735 598.2001,-102.5677"/>
</g>
<!-- Node1494 -->
<g id="node7" class="node">
<title>Node1494</title>
<g id="a_node7"><a xlink:href="namespacecimg__library__suffixed_1_1cimg.html#a9e739e4b4ac058abfba069466617b914" target="_top" xlink:title="cimg_library_suffixed\l::cimg::mutex">
<polygon fill="#ffffff" stroke="#000000" points="899,-73.5 899,-103.5 1008,-103.5 1008,-73.5 899,-73.5"/>
<text text-anchor="start" x="907" y="-91.5" font-family="Helvetica,sans-Serif" font-size="10.00" fill="#000000">cimg_library_suffixed</text>
<text text-anchor="middle" x="953.5" y="-80.5" font-family="Helvetica,sans-Serif" font-size="10.00" fill="#000000">::cimg::mutex</text>
</a>
</g>
</g>
<!-- Node1491&#45;&gt;Node1494 -->
<g id="edge17" class="edge">
<title>Node1491&#45;&gt;Node1494</title>
<path fill="none" stroke="#191970" d="M573.2641,-84.0571C614.4824,-84.4326 669.4313,-84.9571 718,-85.5 775.7082,-86.145 841.3693,-86.9907 888.6718,-87.6197"/>
<polygon fill="#191970" stroke="#191970" points="888.7315,-91.1207 898.7773,-87.7545 888.8249,-84.1214 888.7315,-91.1207"/>
</g>
<!-- Node1491&#45;&gt;Node1499 -->
<g id="edge14" class="edge">
<title>Node1491&#45;&gt;Node1499</title>
<path fill="none" stroke="#191970" d="M538.4192,-98.5765C558.1148,-108.9174 585.0088,-122.8254 609,-134.5 612.7909,-136.3448 616.7464,-138.2315 620.7196,-140.1008"/>
<polygon fill="#191970" stroke="#191970" points="619.4104,-143.3521 629.953,-144.4029 622.3668,-137.007 619.4104,-143.3521"/>
</g>
<!-- Node1492&#45;&gt;Node1490 -->
<g id="edge5" class="edge">
<title>Node1492&#45;&gt;Node1490</title>
<path fill="none" stroke="#191970" d="M608.9666,-117.6433C556.8805,-124.4661 478.1092,-134.7844 421.2205,-142.2363"/>
<polygon fill="#191970" stroke="#191970" points="420.6814,-138.7769 411.2207,-143.5462 421.5906,-145.7176 420.6814,-138.7769"/>
</g>
<!-- Node1492&#45;&gt;Node1493 -->
<g id="edge6" class="edge">
<title>Node1492&#45;&gt;Node1493</title>
<path fill="none" stroke="#191970" d="M718.3183,-119.5734C726.6188,-120.9472 735.2486,-122.3756 743.7354,-123.7803"/>
<polygon fill="#191970" stroke="#191970" points="743.1669,-127.2338 753.6042,-125.4138 744.31,-120.3277 743.1669,-127.2338"/>
</g>
<!-- Node1493&#45;&gt;Node1494 -->
<g id="edge7" class="edge">
<title>Node1493&#45;&gt;Node1494</title>
<path fill="none" stroke="#191970" d="M855.9784,-119.4379C868.8721,-115.3475 882.9693,-110.8753 896.3374,-106.6344"/>
<polygon fill="#191970" stroke="#191970" points="897.4414,-109.9561 905.9149,-103.596 895.3247,-103.2838 897.4414,-109.9561"/>
</g>
<!-- Node1495 -->
<g id="node8" class="node">
<title>Node1495</title>
<g id="a_node8"><a xlink:href="namespacecimg__library__suffixed_1_1cimg.html#aa0e1bc96ae6e235dc5b67b8b0a466166" target="_top" xlink:title="cimg_library_suffixed\l::cimg::Mutex_attr">
<polygon fill="#ffffff" stroke="#000000" points="1213,-120.5 1213,-150.5 1322,-150.5 1322,-120.5 1213,-120.5"/>
<text text-anchor="start" x="1221" y="-138.5" font-family="Helvetica,sans-Serif" font-size="10.00" fill="#000000">cimg_library_suffixed</text>
<text text-anchor="middle" x="1267.5" y="-127.5" font-family="Helvetica,sans-Serif" font-size="10.00" fill="#000000">::cimg::Mutex_attr</text>
</a>
</g>
</g>
<!-- Node1494&#45;&gt;Node1495 -->
<g id="edge8" class="edge">
<title>Node1494&#45;&gt;Node1495</title>
<path fill="none" stroke="#191970" d="M974.1891,-103.5983C991.7696,-115.4355 1018.1935,-130.9621 1044,-137.5 1096.2808,-150.745 1157.6728,-149.0184 1202.872,-144.6729"/>
<polygon fill="#191970" stroke="#191970" points="1203.2493,-148.1527 1212.8385,-143.6474 1202.5327,-141.1895 1203.2493,-148.1527"/>
</g>
<!-- Node1496 -->
<g id="node9" class="node">
<title>Node1496</title>
<g id="a_node9"><a xlink:href="structcimg__library__suffixed_1_1cimg_1_1_mutex__info.html#afac3fa5f107ad4795fb867050f616555" target="_top" xlink:title="cimg_library_suffixed\l::cimg::Mutex_info::unlock">
<polygon fill="#ffffff" stroke="#000000" points="1044.5,-49.5 1044.5,-79.5 1176.5,-79.5 1176.5,-49.5 1044.5,-49.5"/>
<text text-anchor="start" x="1052.5" y="-67.5" font-family="Helvetica,sans-Serif" font-size="10.00" fill="#000000">cimg_library_suffixed</text>
<text text-anchor="middle" x="1110.5" y="-56.5" font-family="Helvetica,sans-Serif" font-size="10.00" fill="#000000">::cimg::Mutex_info::unlock</text>
</a>
</g>
</g>
<!-- Node1494&#45;&gt;Node1496 -->
<g id="edge9" class="edge">
<title>Node1494&#45;&gt;Node1496</title>
<path fill="none" stroke="#191970" d="M1008.411,-80.106C1016.7369,-78.8332 1025.453,-77.5008 1034.1344,-76.1737"/>
<polygon fill="#191970" stroke="#191970" points="1034.9278,-79.5932 1044.2841,-74.6222 1033.87,-72.6736 1034.9278,-79.5932"/>
</g>
<!-- Node1497 -->
<g id="node10" class="node">
<title>Node1497</title>
<g id="a_node10"><a xlink:href="structcimg__library__suffixed_1_1cimg_1_1_mutex__info.html#a6cc8e26847a1aa649febed03d70182e7" target="_top" xlink:title="cimg_library_suffixed\l::cimg::Mutex_info::lock">
<polygon fill="#ffffff" stroke="#000000" points="1049.5,-.5 1049.5,-30.5 1171.5,-30.5 1171.5,-.5 1049.5,-.5"/>
<text text-anchor="start" x="1057.5" y="-18.5" font-family="Helvetica,sans-Serif" font-size="10.00" fill="#000000">cimg_library_suffixed</text>
<text text-anchor="middle" x="1110.5" y="-7.5" font-family="Helvetica,sans-Serif" font-size="10.00" fill="#000000">::cimg::Mutex_info::lock</text>
</a>
</g>
</g>
<!-- Node1494&#45;&gt;Node1497 -->
<g id="edge10" class="edge">
<title>Node1494&#45;&gt;Node1497</title>
<path fill="none" stroke="#191970" d="M979.1165,-73.2922C996.9592,-63.0342 1021.4996,-49.5832 1044,-39.5 1048.0148,-37.7009 1052.209,-35.935 1056.4536,-34.2284"/>
<polygon fill="#191970" stroke="#191970" points="1057.7287,-37.488 1065.7765,-30.5972 1055.1881,-30.9653 1057.7287,-37.488"/>
</g>
<!-- Node1498 -->
<g id="node11" class="node">
<title>Node1498</title>
<g id="a_node11"><a xlink:href="structcimg__library__suffixed_1_1cimg_1_1_mutex__info.html#a9bf4ed1e1dfe6f28fa6250cd04f3c900" target="_top" xlink:title="cimg_library_suffixed\l::cimg::Mutex_info::trylock">
<polygon fill="#ffffff" stroke="#000000" points="1044,-98.5 1044,-128.5 1177,-128.5 1177,-98.5 1044,-98.5"/>
<text text-anchor="start" x="1052" y="-116.5" font-family="Helvetica,sans-Serif" font-size="10.00" fill="#000000">cimg_library_suffixed</text>
<text text-anchor="middle" x="1110.5" y="-105.5" font-family="Helvetica,sans-Serif" font-size="10.00" fill="#000000">::cimg::Mutex_info::trylock</text>
</a>
</g>
</g>
<!-- Node1494&#45;&gt;Node1498 -->
<g id="edge11" class="edge">
<title>Node1494&#45;&gt;Node1498</title>
<path fill="none" stroke="#191970" d="M1008.411,-97.2438C1016.6098,-98.5493 1025.187,-99.9151 1033.7367,-101.2766"/>
<polygon fill="#191970" stroke="#191970" points="1033.3105,-104.7527 1043.7365,-102.8689 1034.4113,-97.8398 1033.3105,-104.7527"/>
</g>
<!-- Node1498&#45;&gt;Node1495 -->
<g id="edge12" class="edge">
<title>Node1498&#45;&gt;Node1495</title>
<path fill="none" stroke="#191970" d="M1177.0821,-122.83C1185.5193,-124.0123 1194.1445,-125.2209 1202.5556,-126.3995"/>
<polygon fill="#191970" stroke="#191970" points="1202.293,-129.8968 1212.682,-127.8185 1203.2645,-122.9646 1202.293,-129.8968"/>
</g>
<!-- Node1499&#45;&gt;Node1490 -->
<g id="edge15" class="edge">
<title>Node1499&#45;&gt;Node1490</title>
<path fill="none" stroke="#191970" d="M608.9666,-158.1062C556.8805,-156.7749 478.1092,-154.7616 421.2205,-153.3076"/>
<polygon fill="#191970" stroke="#191970" points="421.3069,-149.8087 411.2207,-153.052 421.128,-156.8064 421.3069,-149.8087"/>
</g>
<!-- Node1499&#45;&gt;Node1493 -->
<g id="edge16" class="edge">
<title>Node1499&#45;&gt;Node1493</title>
<path fill="none" stroke="#191970" d="M718.3183,-150.0486C726.6188,-148.6174 735.2486,-147.1295 743.7354,-145.6663"/>
<polygon fill="#191970" stroke="#191970" points="744.3443,-149.1131 753.6042,-143.9648 743.1549,-142.2148 744.3443,-149.1131"/>
</g>
</g>
</svg>
