<?xml version="1.0" encoding="UTF-8" standalone="no"?>
<!DOCTYPE svg PUBLIC "-//W3C//DTD SVG 1.1//EN"
 "http://www.w3.org/Graphics/SVG/1.1/DTD/svg11.dtd">
<!-- Generated by graphviz version 2.40.1 (20161225.0304)
 -->
<!-- Title: cimg_library_suffixed::cimg::medcon_path Pages: 1 -->
<svg width="269pt" height="160pt"
 viewBox="0.00 0.00 269.00 159.50" xmlns="http://www.w3.org/2000/svg" xmlns:xlink="http://www.w3.org/1999/xlink">
<g id="graph0" class="graph" transform="scale(1 1) rotate(0) translate(4 155.5)">
<title>cimg_library_suffixed::cimg::medcon_path</title>
<polygon fill="#ffffff" stroke="transparent" points="-4,4 -4,-155.5 265,-155.5 265,4 -4,4"/>
<!-- Node2337 -->
<g id="node1" class="node">
<title>Node2337</title>
<polygon fill="#bfbfbf" stroke="#000000" points="0,-66 0,-96 109,-96 109,-66 0,-66"/>
<text text-anchor="start" x="8" y="-84" font-family="Helvetica,sans-Serif" font-size="10.00" fill="#000000">cimg_library_suffixed</text>
<text text-anchor="middle" x="54.5" y="-73" font-family="Helvetica,sans-Serif" font-size="10.00" fill="#000000">::cimg::medcon_path</text>
</g>
<!-- Node2338 -->
<g id="node2" class="node">
<title>Node2338</title>
<g id="a_node2"><a xlink:href="namespacecimg__library__suffixed_1_1cimg.html#aac739bf544269324a04504ebe92b93e9" target="_top" xlink:title="Get current local time (single&#45;attribute version). ">
<polygon fill="#ffffff" stroke="#000000" points="148.5,-121 148.5,-151 257.5,-151 257.5,-121 148.5,-121"/>
<text text-anchor="start" x="156.5" y="-139" font-family="Helvetica,sans-Serif" font-size="10.00" fill="#000000">cimg_library_suffixed</text>
<text text-anchor="middle" x="203" y="-128" font-family="Helvetica,sans-Serif" font-size="10.00" fill="#000000">::cimg::date</text>
</a>
</g>
</g>
<!-- Node2337&#45;&gt;Node2338 -->
<g id="edge1" class="edge">
<title>Node2337&#45;&gt;Node2338</title>
<path fill="none" stroke="#191970" d="M104.6795,-99.585C123.4997,-106.5555 144.6336,-114.3828 162.4708,-120.9892"/>
<polygon fill="#191970" stroke="#191970" points="105.6714,-96.2201 95.0783,-96.029 103.2401,-102.7843 105.6714,-96.2201"/>
</g>
<!-- Node2339 -->
<g id="node3" class="node">
<title>Node2339</title>
<g id="a_node3"><a xlink:href="structcimg__library__suffixed_1_1_c_img.html#a8306218d5edf273c822113b799fd89cc" target="_top" xlink:title="Load image from a DICOM file, using XMedcon&#39;s external tool &#39;medcon&#39;. ">
<polygon fill="#ffffff" stroke="#000000" points="146.5,-60.5 146.5,-101.5 259.5,-101.5 259.5,-60.5 146.5,-60.5"/>
<text text-anchor="start" x="154.5" y="-89.5" font-family="Helvetica,sans-Serif" font-size="10.00" fill="#000000">cimg_library_suffixed</text>
<text text-anchor="start" x="154.5" y="-78.5" font-family="Helvetica,sans-Serif" font-size="10.00" fill="#000000">::CImg&lt; charT &gt;::load</text>
<text text-anchor="middle" x="203" y="-67.5" font-family="Helvetica,sans-Serif" font-size="10.00" fill="#000000">_medcon_external</text>
</a>
</g>
</g>
<!-- Node2337&#45;&gt;Node2339 -->
<g id="edge2" class="edge">
<title>Node2337&#45;&gt;Node2339</title>
<path fill="none" stroke="#191970" d="M119.4051,-81C128.3849,-81 137.55,-81 146.3637,-81"/>
<polygon fill="#191970" stroke="#191970" points="119.374,-77.5001 109.374,-81 119.374,-84.5001 119.374,-77.5001"/>
</g>
<!-- Node2340 -->
<g id="node4" class="node">
<title>Node2340</title>
<g id="a_node4"><a xlink:href="structcimg__library__suffixed_1_1_c_img.html#a30d02c3d77fc43c8b5845e92268cdab5" target="_top" xlink:title="Save image as a Dicom file. ">
<polygon fill="#ffffff" stroke="#000000" points="145,-.5 145,-41.5 261,-41.5 261,-.5 145,-.5"/>
<text text-anchor="start" x="153" y="-29.5" font-family="Helvetica,sans-Serif" font-size="10.00" fill="#000000">cimg_library_suffixed</text>
<text text-anchor="start" x="153" y="-18.5" font-family="Helvetica,sans-Serif" font-size="10.00" fill="#000000">::CImg&lt; charT &gt;::save</text>
<text text-anchor="middle" x="203" y="-7.5" font-family="Helvetica,sans-Serif" font-size="10.00" fill="#000000">_medcon_external</text>
</a>
</g>
</g>
<!-- Node2337&#45;&gt;Node2340 -->
<g id="edge3" class="edge">
<title>Node2337&#45;&gt;Node2340</title>
<path fill="none" stroke="#191970" d="M101.6828,-61.9362C117.7356,-55.4503 135.7441,-48.1741 152.0765,-41.5751"/>
<polygon fill="#191970" stroke="#191970" points="99.9334,-58.8681 91.9728,-65.8595 102.5558,-65.3584 99.9334,-58.8681"/>
</g>
</g>
</svg>
