<?xml version="1.0" encoding="UTF-8" standalone="no"?>
<!DOCTYPE svg PUBLIC "-//W3C//DTD SVG 1.1//EN"
 "http://www.w3.org/Graphics/SVG/1.1/DTD/svg11.dtd">
<!-- Generated by graphviz version 2.40.1 (20161225.0304)
 -->
<!-- Title: cimg_library_suffixed::cimg::strbuffersize Pages: 1 -->
<svg width="451pt" height="253pt"
 viewBox="0.00 0.00 451.00 252.50" xmlns="http://www.w3.org/2000/svg" xmlns:xlink="http://www.w3.org/1999/xlink">
<g id="graph0" class="graph" transform="scale(1 1) rotate(0) translate(4 248.5)">
<title>cimg_library_suffixed::cimg::strbuffersize</title>
<polygon fill="#ffffff" stroke="transparent" points="-4,4 -4,-248.5 447,-248.5 447,4 -4,4"/>
<!-- Node3690 -->
<g id="node1" class="node">
<title>Node3690</title>
<polygon fill="#bfbfbf" stroke="#000000" points="0,-116 0,-146 109,-146 109,-116 0,-116"/>
<text text-anchor="start" x="8" y="-134" font-family="Helvetica,sans-Serif" font-size="10.00" fill="#000000">cimg_library_suffixed</text>
<text text-anchor="middle" x="54.5" y="-123" font-family="Helvetica,sans-Serif" font-size="10.00" fill="#000000">::cimg::strbuffersize</text>
</g>
<!-- Node3691 -->
<g id="node2" class="node">
<title>Node3691</title>
<g id="a_node2"><a xlink:href="structcimg__library__suffixed_1_1_c_img.html#a95898e33c8270ae81d3addd9302d18bc" target="_top" xlink:title="Construct image with specified size . ">
<polygon fill="#ffffff" stroke="#000000" points="145,-214 145,-244 269,-244 269,-214 145,-214"/>
<text text-anchor="start" x="153" y="-232" font-family="Helvetica,sans-Serif" font-size="10.00" fill="#000000">cimg_library_suffixed</text>
<text text-anchor="middle" x="207" y="-221" font-family="Helvetica,sans-Serif" font-size="10.00" fill="#000000">::CImg&lt; charT &gt;::assign</text>
</a>
</g>
</g>
<!-- Node3690&#45;&gt;Node3691 -->
<g id="edge1" class="edge">
<title>Node3690&#45;&gt;Node3691</title>
<path fill="none" stroke="#191970" d="M77.1415,-152.9593C94.5908,-168.9897 119.9056,-190.3849 145,-205 150.5854,-208.253 156.694,-211.2312 162.8296,-213.8992"/>
<polygon fill="#191970" stroke="#191970" points="79.404,-150.2832 69.7068,-146.0152 74.6258,-155.3989 79.404,-150.2832"/>
</g>
<!-- Node3692 -->
<g id="node3" class="node">
<title>Node3692</title>
<g id="a_node3"><a xlink:href="structcimg__library__suffixed_1_1_c_img.html#a48f4ff6bf27dcd351b04f3150e06d74e" target="_top" xlink:title="Construct image with specified size. ">
<polygon fill="#ffffff" stroke="#000000" points="147.5,-165 147.5,-195 266.5,-195 266.5,-165 147.5,-165"/>
<text text-anchor="start" x="155.5" y="-183" font-family="Helvetica,sans-Serif" font-size="10.00" fill="#000000">cimg_library_suffixed</text>
<text text-anchor="middle" x="207" y="-172" font-family="Helvetica,sans-Serif" font-size="10.00" fill="#000000">::CImg&lt; charT &gt;::CImg</text>
</a>
</g>
</g>
<!-- Node3690&#45;&gt;Node3692 -->
<g id="edge2" class="edge">
<title>Node3690&#45;&gt;Node3692</title>
<path fill="none" stroke="#191970" d="M111.3267,-149.2591C127.4114,-154.4273 144.7315,-159.9924 160.1558,-164.9484"/>
<polygon fill="#191970" stroke="#191970" points="112.0907,-145.8284 101.4994,-146.1014 109.9493,-152.4928 112.0907,-145.8284"/>
</g>
<!-- Node3693 -->
<g id="node4" class="node">
<title>Node3693</title>
<g id="a_node4"><a xlink:href="structcimg__library__suffixed_1_1_c_img.html#abf1763dd0cf132f59147662022feb791" target="_top" xlink:title="Compute 1d Fast Fourier Transform, along a specified axis. ">
<polygon fill="#ffffff" stroke="#000000" points="150.5,-116 150.5,-146 263.5,-146 263.5,-116 150.5,-116"/>
<text text-anchor="start" x="158.5" y="-134" font-family="Helvetica,sans-Serif" font-size="10.00" fill="#000000">cimg_library_suffixed</text>
<text text-anchor="middle" x="207" y="-123" font-family="Helvetica,sans-Serif" font-size="10.00" fill="#000000">::CImg&lt; charT &gt;::FFT</text>
</a>
</g>
</g>
<!-- Node3690&#45;&gt;Node3693 -->
<g id="edge3" class="edge">
<title>Node3690&#45;&gt;Node3693</title>
<path fill="none" stroke="#191970" d="M119.3424,-131C129.684,-131 140.3121,-131 150.4423,-131"/>
<polygon fill="#191970" stroke="#191970" points="119.1253,-127.5001 109.1253,-131 119.1252,-134.5001 119.1253,-127.5001"/>
</g>
<!-- Node3694 -->
<g id="node5" class="node">
<title>Node3694</title>
<g id="a_node5"><a xlink:href="structcimg__library__suffixed_1_1_c_img.html#ad78471f15a09cd64a1d8ca61c8262506" target="_top" xlink:title="Load image from a TIFF file . ">
<polygon fill="#ffffff" stroke="#000000" points="152.5,-55.5 152.5,-96.5 261.5,-96.5 261.5,-55.5 152.5,-55.5"/>
<text text-anchor="start" x="160.5" y="-84.5" font-family="Helvetica,sans-Serif" font-size="10.00" fill="#000000">cimg_library_suffixed</text>
<text text-anchor="start" x="160.5" y="-73.5" font-family="Helvetica,sans-Serif" font-size="10.00" fill="#000000">::CImg&lt; charT &gt;::get</text>
<text text-anchor="middle" x="207" y="-62.5" font-family="Helvetica,sans-Serif" font-size="10.00" fill="#000000">_load_tiff</text>
</a>
</g>
</g>
<!-- Node3690&#45;&gt;Node3694 -->
<g id="edge4" class="edge">
<title>Node3690&#45;&gt;Node3694</title>
<path fill="none" stroke="#191970" d="M105.8023,-112.4975C120.8194,-107.0815 137.2873,-101.1423 152.4958,-95.6573"/>
<polygon fill="#191970" stroke="#191970" points="104.3908,-109.2859 96.1713,-115.971 106.7657,-115.8707 104.3908,-109.2859"/>
</g>
<!-- Node3695 -->
<g id="node6" class="node">
<title>Node3695</title>
<g id="a_node6"><a xlink:href="namespacecimg__library__suffixed_1_1cimg.html#a1ffad008d2b45ffa0ff4d0f32b6c98ec" target="_top" xlink:title="Replace escape sequences in C&#45;strings by their binary ascii values. ">
<polygon fill="#ffffff" stroke="#000000" points="152.5,-6 152.5,-36 261.5,-36 261.5,-6 152.5,-6"/>
<text text-anchor="start" x="160.5" y="-24" font-family="Helvetica,sans-Serif" font-size="10.00" fill="#000000">cimg_library_suffixed</text>
<text text-anchor="middle" x="207" y="-13" font-family="Helvetica,sans-Serif" font-size="10.00" fill="#000000">::cimg::strunescape</text>
</a>
</g>
</g>
<!-- Node3690&#45;&gt;Node3695 -->
<g id="edge5" class="edge">
<title>Node3690&#45;&gt;Node3695</title>
<path fill="none" stroke="#191970" d="M74.0145,-108.4916C91.1918,-89.7763 117.6651,-63.4698 145,-46 150.7698,-42.3125 157.1733,-38.9968 163.6119,-36.0774"/>
<polygon fill="#191970" stroke="#191970" points="71.3423,-106.2286 67.2465,-115.9997 76.5417,-110.9154 71.3423,-106.2286"/>
</g>
<!-- Node3696 -->
<g id="node7" class="node">
<title>Node3696</title>
<g id="a_node7"><a xlink:href="structcimg__library__suffixed_1_1_c_img_1_1__cimg__math__parser.html#a318c44c5d1f4f0114355f37ace87a4ae" target="_top" xlink:title="cimg_library_suffixed\l::CImg::_cimg_math_parser\l::compile">
<polygon fill="#ffffff" stroke="#000000" points="305,-.5 305,-41.5 443,-41.5 443,-.5 305,-.5"/>
<text text-anchor="start" x="313" y="-29.5" font-family="Helvetica,sans-Serif" font-size="10.00" fill="#000000">cimg_library_suffixed</text>
<text text-anchor="start" x="313" y="-18.5" font-family="Helvetica,sans-Serif" font-size="10.00" fill="#000000">::CImg::_cimg_math_parser</text>
<text text-anchor="middle" x="374" y="-7.5" font-family="Helvetica,sans-Serif" font-size="10.00" fill="#000000">::compile</text>
</a>
</g>
</g>
<!-- Node3695&#45;&gt;Node3696 -->
<g id="edge6" class="edge">
<title>Node3695&#45;&gt;Node3696</title>
<path fill="none" stroke="#191970" d="M271.8887,-21C282.7011,-21 293.952,-21 304.8654,-21"/>
<polygon fill="#191970" stroke="#191970" points="271.6821,-17.5001 261.682,-21 271.682,-24.5001 271.6821,-17.5001"/>
</g>
</g>
</svg>
