<?xml version="1.0" encoding="UTF-8" standalone="no"?>
<!DOCTYPE svg PUBLIC "-//W3C//DTD SVG 1.1//EN"
 "http://www.w3.org/Graphics/SVG/1.1/DTD/svg11.dtd">
<!-- Generated by graphviz version 2.40.1 (20161225.0304)
 -->
<!-- Title: cimg_library_suffixed::cimg::minmod Pages: 1 -->
<svg width="283pt" height="39pt"
 viewBox="0.00 0.00 283.00 39.00" xmlns="http://www.w3.org/2000/svg" xmlns:xlink="http://www.w3.org/1999/xlink">
<g id="graph0" class="graph" transform="scale(1 1) rotate(0) translate(4 35)">
<title>cimg_library_suffixed::cimg::minmod</title>
<polygon fill="#ffffff" stroke="transparent" points="-4,4 -4,-35 279,-35 279,4 -4,4"/>
<!-- Node2457 -->
<g id="node1" class="node">
<title>Node2457</title>
<polygon fill="#bfbfbf" stroke="#000000" points="0,-.5 0,-30.5 109,-30.5 109,-.5 0,-.5"/>
<text text-anchor="start" x="8" y="-18.5" font-family="Helvetica,sans-Serif" font-size="10.00" fill="#000000">cimg_library_suffixed</text>
<text text-anchor="middle" x="54.5" y="-7.5" font-family="Helvetica,sans-Serif" font-size="10.00" fill="#000000">::cimg::minmod</text>
</g>
<!-- Node2458 -->
<g id="node2" class="node">
<title>Node2458</title>
<g id="a_node2"><a xlink:href="structcimg__library__suffixed_1_1_c_img.html#ae884ac4a2168d7411b004a4e8c6869e5" target="_top" xlink:title="Sharpen image. ">
<polygon fill="#ffffff" stroke="#000000" points="145,-.5 145,-30.5 275,-30.5 275,-.5 145,-.5"/>
<text text-anchor="start" x="153" y="-18.5" font-family="Helvetica,sans-Serif" font-size="10.00" fill="#000000">cimg_library_suffixed</text>
<text text-anchor="middle" x="210" y="-7.5" font-family="Helvetica,sans-Serif" font-size="10.00" fill="#000000">::CImg&lt; charT &gt;::sharpen</text>
</a>
</g>
</g>
<!-- Node2457&#45;&gt;Node2458 -->
<g id="edge1" class="edge">
<title>Node2457&#45;&gt;Node2458</title>
<path fill="none" stroke="#191970" d="M119.4125,-15.5C127.789,-15.5 136.37,-15.5 144.7519,-15.5"/>
<polygon fill="#191970" stroke="#191970" points="119.3235,-12.0001 109.3235,-15.5 119.3234,-19.0001 119.3235,-12.0001"/>
</g>
</g>
</svg>
