<?xml version="1.0" encoding="UTF-8" standalone="no"?>
<!DOCTYPE svg PUBLIC "-//W3C//DTD SVG 1.1//EN"
 "http://www.w3.org/Graphics/SVG/1.1/DTD/svg11.dtd">
<!-- Generated by graphviz version 2.40.1 (20161225.0304)
 -->
<!-- Title: cimg_library_suffixed::cimg::hypot Pages: 1 -->
<!--zoomable 500 -->
<svg id="main" version="1.1" xmlns="http://www.w3.org/2000/svg" xmlns:xlink="http://www.w3.org/1999/xlink" xml:space="preserve" onload="init(evt)">
<style type="text/css"><![CDATA[
.edge:hover path { stroke: red; }
.edge:hover polygon { stroke: red; fill: red; }
]]></style>
<script type="text/javascript"><![CDATA[
var edges = document.getElementsByTagName('g');
if (edges && edges.length) {
  for (var i=0;i<edges.length;i++) {
    if (edges[i].id.substr(0,4)=='edge') {
      edges[i].setAttribute('class','edge');
    }
  }
}
]]></script>
        <defs>
                <circle id="rim" cx="0" cy="0" r="7"/>
                <circle id="rim2" cx="0" cy="0" r="3.5"/>
                <g id="zoomPlus">
                        <use xlink:href="#rim" fill="#404040">
                                <set attributeName="fill" to="#808080" begin="zoomplus.mouseover" end="zoomplus.mouseout"/>
                        </use>
                        <path d="M-4,0h8M0,-4v8" fill="none" stroke="white" stroke-width="1.5" pointer-events="none"/>
                </g>
                <g id="zoomMin">
                        <use xlink:href="#rim" fill="#404040">
                                <set attributeName="fill" to="#808080" begin="zoomminus.mouseover" end="zoomminus.mouseout"/>
                        </use>
                        <path d="M-4,0h8" fill="none" stroke="white" stroke-width="1.5" pointer-events="none"/>
                </g>
                <g id="dirArrow">
                        <path fill="none" stroke="white" stroke-width="1.5" d="M0,-3.0v7 M-2.5,-0.5L0,-3.0L2.5,-0.5"/>
                </g>
               <g id="resetDef">
                       <use xlink:href="#rim2" fill="#404040">
                               <set attributeName="fill" to="#808080" begin="reset.mouseover" end="reset.mouseout"/>
                       </use>
               </g>
        </defs>

<script type="text/javascript">
var viewWidth = 288;
var viewHeight = 500;
var sectionId = 'dynsection-74';
</script>
<script xlink:href="svgpan.js"/>
<svg id="graph" class="graph">
<g id="viewport">
<title>cimg_library_suffixed::cimg::hypot</title>
<polygon fill="#ffffff" stroke="transparent" points="-4,4 -4,-495.5 284,-495.5 284,4 -4,4"/>
<!-- Node1871 -->
<g id="node1" class="node">
<title>Node1871</title>
<polygon fill="#bfbfbf" stroke="#000000" points="0,-225.5 0,-255.5 109,-255.5 109,-225.5 0,-225.5"/>
<text text-anchor="start" x="8" y="-243.5" font-family="Helvetica,sans-Serif" font-size="10.00" fill="#000000">cimg_library_suffixed</text>
<text text-anchor="middle" x="54.5" y="-232.5" font-family="Helvetica,sans-Serif" font-size="10.00" fill="#000000">::cimg::hypot</text>
</g>
<!-- Node1872 -->
<g id="node2" class="node">
<title>Node1872</title>
<g id="a_node2"><a xlink:href="structcimg__library__suffixed_1_1_c_img.html#a8b40db5a9818c3f961a90840b271de6c" target="_top" xlink:title="cimg_library_suffixed\l::CImg\&lt; charT \&gt;::_display\l_object3d">
<polygon fill="#ffffff" stroke="#000000" points="147,-450 147,-491 278,-491 278,-450 147,-450"/>
<text text-anchor="start" x="155" y="-479" font-family="Helvetica,sans-Serif" font-size="10.00" fill="#000000">cimg_library_suffixed</text>
<text text-anchor="start" x="155" y="-468" font-family="Helvetica,sans-Serif" font-size="10.00" fill="#000000">::CImg&lt; charT &gt;::_display</text>
<text text-anchor="middle" x="212.5" y="-457" font-family="Helvetica,sans-Serif" font-size="10.00" fill="#000000">_object3d</text>
</a>
</g>
</g>
<!-- Node1871&#45;&gt;Node1872 -->
<g id="edge1" class="edge">
<title>Node1871&#45;&gt;Node1872</title>
<path fill="none" stroke="#191970" d="M59.7,-265.48C69.5222,-306.9371 94.5059,-390.3434 145,-440.5 148.5483,-444.0246 152.5821,-447.1716 156.8711,-449.9742"/>
<polygon fill="#191970" stroke="#191970" points="63.0975,-264.6354 57.4728,-255.6568 56.2707,-266.1832 63.0975,-264.6354"/>
</g>
<!-- Node1873 -->
<g id="node3" class="node">
<title>Node1873</title>
<g id="a_node3"><a xlink:href="structcimg__library__suffixed_1_1_c_img.html#a6dba86c8049ae141ffc9936b2eaf5c5c" target="_top" xlink:title="cimg_library_suffixed\l::CImg\&lt; charT \&gt;::_draw\l_object3d">
<polygon fill="#ffffff" stroke="#000000" points="151.5,-390 151.5,-431 273.5,-431 273.5,-390 151.5,-390"/>
<text text-anchor="start" x="159.5" y="-419" font-family="Helvetica,sans-Serif" font-size="10.00" fill="#000000">cimg_library_suffixed</text>
<text text-anchor="start" x="159.5" y="-408" font-family="Helvetica,sans-Serif" font-size="10.00" fill="#000000">::CImg&lt; charT &gt;::_draw</text>
<text text-anchor="middle" x="212.5" y="-397" font-family="Helvetica,sans-Serif" font-size="10.00" fill="#000000">_object3d</text>
</a>
</g>
</g>
<!-- Node1871&#45;&gt;Node1873 -->
<g id="edge2" class="edge">
<title>Node1871&#45;&gt;Node1873</title>
<path fill="none" stroke="#191970" d="M64.9946,-265.1097C79.1595,-295.7648 107.0606,-348.0493 145,-380.5 149.0931,-384.0009 153.66,-387.1606 158.4351,-389.9968"/>
<polygon fill="#191970" stroke="#191970" points="68.014,-263.2897 60.7228,-255.6027 61.6289,-266.1587 68.014,-263.2897"/>
</g>
<!-- Node1874 -->
<g id="node4" class="node">
<title>Node1874</title>
<g id="a_node4"><a xlink:href="structcimg__library__suffixed_1_1_c_img.html#ad9b7141242d0b6e861a8014112ddb5b5" target="_top" xlink:title="cimg_library_suffixed\l::CImg\&lt; charT \&gt;::_select">
<polygon fill="#ffffff" stroke="#000000" points="149,-340.5 149,-370.5 276,-370.5 276,-340.5 149,-340.5"/>
<text text-anchor="start" x="157" y="-358.5" font-family="Helvetica,sans-Serif" font-size="10.00" fill="#000000">cimg_library_suffixed</text>
<text text-anchor="middle" x="212.5" y="-347.5" font-family="Helvetica,sans-Serif" font-size="10.00" fill="#000000">::CImg&lt; charT &gt;::_select</text>
</a>
</g>
</g>
<!-- Node1871&#45;&gt;Node1874 -->
<g id="edge3" class="edge">
<title>Node1871&#45;&gt;Node1874</title>
<path fill="none" stroke="#191970" d="M72.5213,-263.3007C89.4039,-283.3592 116.282,-312.1467 145,-330.5 150.8968,-334.2686 157.4437,-337.5847 164.0741,-340.4659"/>
<polygon fill="#191970" stroke="#191970" points="75.1971,-261.0441 66.1338,-255.5571 69.7971,-265.4984 75.1971,-261.0441"/>
</g>
<!-- Node1875 -->
<g id="node5" class="node">
<title>Node1875</title>
<g id="a_node5"><a xlink:href="structcimg__library__suffixed_1_1_c_img.html#af3c29f70168c4443e3f6f887834819b0" target="_top" xlink:title="Blur image anisotropically, directed by a field of diffusion tensors. ">
<polygon fill="#ffffff" stroke="#000000" points="157,-280 157,-321 268,-321 268,-280 157,-280"/>
<text text-anchor="start" x="165" y="-309" font-family="Helvetica,sans-Serif" font-size="10.00" fill="#000000">cimg_library_suffixed</text>
<text text-anchor="start" x="165" y="-298" font-family="Helvetica,sans-Serif" font-size="10.00" fill="#000000">::CImg&lt; charT &gt;::blur</text>
<text text-anchor="middle" x="212.5" y="-287" font-family="Helvetica,sans-Serif" font-size="10.00" fill="#000000">_anisotropic</text>
</a>
</g>
</g>
<!-- Node1871&#45;&gt;Node1875 -->
<g id="edge4" class="edge">
<title>Node1871&#45;&gt;Node1875</title>
<path fill="none" stroke="#191970" d="M103.7367,-259.1975C121.0573,-265.7749 140.6137,-273.2014 158.3188,-279.9249"/>
<polygon fill="#191970" stroke="#191970" points="104.9613,-255.9187 94.3701,-255.6405 102.4761,-262.4627 104.9613,-255.9187"/>
</g>
<!-- Node1876 -->
<g id="node6" class="node">
<title>Node1876</title>
<g id="a_node6"><a xlink:href="structcimg__library__suffixed_1_1_c_img.html#a5f82947b70ae0c01993cb74563fd4daa" target="_top" xlink:title="Compute distance function to 0&#45;valued isophotes, using the Eikonal PDE. ">
<polygon fill="#ffffff" stroke="#000000" points="146.5,-220 146.5,-261 278.5,-261 278.5,-220 146.5,-220"/>
<text text-anchor="start" x="154.5" y="-249" font-family="Helvetica,sans-Serif" font-size="10.00" fill="#000000">cimg_library_suffixed</text>
<text text-anchor="start" x="154.5" y="-238" font-family="Helvetica,sans-Serif" font-size="10.00" fill="#000000">::CImg&lt; charT &gt;::distance</text>
<text text-anchor="middle" x="212.5" y="-227" font-family="Helvetica,sans-Serif" font-size="10.00" fill="#000000">_eikonal</text>
</a>
</g>
</g>
<!-- Node1871&#45;&gt;Node1876 -->
<g id="edge5" class="edge">
<title>Node1871&#45;&gt;Node1876</title>
<path fill="none" stroke="#191970" d="M119.5604,-240.5C128.4039,-240.5 137.4879,-240.5 146.3503,-240.5"/>
<polygon fill="#191970" stroke="#191970" points="119.3173,-237.0001 109.3173,-240.5 119.3173,-244.0001 119.3173,-237.0001"/>
</g>
<!-- Node1877 -->
<g id="node7" class="node">
<title>Node1877</title>
<g id="a_node7"><a xlink:href="structcimg__library__suffixed_1_1_c_img.html#a87afc1c040d254ef0ed370e37b5f8a77" target="_top" xlink:title="Draw a 2d spline. ">
<polygon fill="#ffffff" stroke="#000000" points="154.5,-160 154.5,-201 270.5,-201 270.5,-160 154.5,-160"/>
<text text-anchor="start" x="162.5" y="-189" font-family="Helvetica,sans-Serif" font-size="10.00" fill="#000000">cimg_library_suffixed</text>
<text text-anchor="start" x="162.5" y="-178" font-family="Helvetica,sans-Serif" font-size="10.00" fill="#000000">::CImg&lt; charT &gt;::draw</text>
<text text-anchor="middle" x="212.5" y="-167" font-family="Helvetica,sans-Serif" font-size="10.00" fill="#000000">_spline</text>
</a>
</g>
</g>
<!-- Node1871&#45;&gt;Node1877 -->
<g id="edge6" class="edge">
<title>Node1871&#45;&gt;Node1877</title>
<path fill="none" stroke="#191970" d="M103.7367,-221.8025C121.0573,-215.2251 140.6137,-207.7986 158.3188,-201.0751"/>
<polygon fill="#191970" stroke="#191970" points="102.4761,-218.5373 94.3701,-225.3595 104.9613,-225.0813 102.4761,-218.5373"/>
</g>
<!-- Node1878 -->
<g id="node8" class="node">
<title>Node1878</title>
<g id="a_node8"><a xlink:href="structcimg__library__suffixed_1_1_c_img.html#a6049c651eefc3a13b8f7d1fc3ff225d7" target="_top" xlink:title="Add random noise to pixel values. ">
<polygon fill="#ffffff" stroke="#000000" points="153,-110.5 153,-140.5 272,-140.5 272,-110.5 153,-110.5"/>
<text text-anchor="start" x="161" y="-128.5" font-family="Helvetica,sans-Serif" font-size="10.00" fill="#000000">cimg_library_suffixed</text>
<text text-anchor="middle" x="212.5" y="-117.5" font-family="Helvetica,sans-Serif" font-size="10.00" fill="#000000">::CImg&lt; charT &gt;::noise</text>
</a>
</g>
</g>
<!-- Node1871&#45;&gt;Node1878 -->
<g id="edge7" class="edge">
<title>Node1871&#45;&gt;Node1878</title>
<path fill="none" stroke="#191970" d="M72.5213,-217.6993C89.4039,-197.6408 116.282,-168.8533 145,-150.5 150.8968,-146.7314 157.4437,-143.4153 164.0741,-140.5341"/>
<polygon fill="#191970" stroke="#191970" points="69.7971,-215.5016 66.1338,-225.4429 75.1971,-219.9559 69.7971,-215.5016"/>
</g>
<!-- Node1879 -->
<g id="node9" class="node">
<title>Node1879</title>
<g id="a_node9"><a xlink:href="structcimg__library__suffixed_1_1_c_img.html#a18ba2075fe783f6b185de03695bd625f" target="_top" xlink:title="Return a 3x3 rotation matrix from an { axis + angle } or a quaternion. ">
<polygon fill="#ffffff" stroke="#000000" points="148.5,-50 148.5,-91 276.5,-91 276.5,-50 148.5,-50"/>
<text text-anchor="start" x="156.5" y="-79" font-family="Helvetica,sans-Serif" font-size="10.00" fill="#000000">cimg_library_suffixed</text>
<text text-anchor="start" x="156.5" y="-68" font-family="Helvetica,sans-Serif" font-size="10.00" fill="#000000">::CImg&lt; charT &gt;::rotation</text>
<text text-anchor="middle" x="212.5" y="-57" font-family="Helvetica,sans-Serif" font-size="10.00" fill="#000000">_matrix</text>
</a>
</g>
</g>
<!-- Node1871&#45;&gt;Node1879 -->
<g id="edge8" class="edge">
<title>Node1871&#45;&gt;Node1879</title>
<path fill="none" stroke="#191970" d="M65.3264,-215.6662C79.6715,-185.2463 107.5935,-133.7884 145,-101.5 149.4904,-97.6239 154.5466,-94.1399 159.82,-91.0322"/>
<polygon fill="#191970" stroke="#191970" points="61.9787,-214.5695 60.988,-225.1179 68.3406,-217.4897 61.9787,-214.5695"/>
</g>
<!-- Node1880 -->
<g id="node10" class="node">
<title>Node1880</title>
<g id="a_node10"><a xlink:href="structcimg__library__suffixed_1_1_c_img.html#a8025573f639ba766ca2270bf10c2d00f" target="_top" xlink:title="Generate a 3d sphere. ">
<polygon fill="#ffffff" stroke="#000000" points="145,-.5 145,-30.5 280,-30.5 280,-.5 145,-.5"/>
<text text-anchor="start" x="153" y="-18.5" font-family="Helvetica,sans-Serif" font-size="10.00" fill="#000000">cimg_library_suffixed</text>
<text text-anchor="middle" x="212.5" y="-7.5" font-family="Helvetica,sans-Serif" font-size="10.00" fill="#000000">::CImg&lt; charT &gt;::sphere3d</text>
</a>
</g>
</g>
<!-- Node1871&#45;&gt;Node1880 -->
<g id="edge9" class="edge">
<title>Node1871&#45;&gt;Node1880</title>
<path fill="none" stroke="#191970" d="M59.2874,-215.4718C68.5549,-173.5964 92.8105,-89.1474 145,-40.5 149.1136,-36.6656 153.8666,-33.4068 158.9073,-30.6397"/>
<polygon fill="#191970" stroke="#191970" points="55.835,-214.8813 57.1994,-225.388 62.6848,-216.3237 55.835,-214.8813"/>
</g>
</g>
</svg>
        <g id="navigator" transform="translate(0 0)" fill="#404254">
                <rect fill="#f2f5e9" fill-opacity="0.5" stroke="#606060" stroke-width=".5" x="0" y="0" width="60" height="60"/>
                <use id="zoomplus" xlink:href="#zoomPlus" x="17" y="9" onmousedown="handleZoom(evt,'in')"/>
                <use id="zoomminus" xlink:href="#zoomMin" x="42" y="9" onmousedown="handleZoom(evt,'out')"/>
                <use id="reset" xlink:href="#resetDef" x="30" y="36" onmousedown="handleReset()"/>
                <g id="arrowUp" xlink:href="#dirArrow" transform="translate(30 24)" onmousedown="handlePan(0,-1)">
                  <use xlink:href="#rim" fill="#404040">
                        <set attributeName="fill" to="#808080" begin="arrowUp.mouseover" end="arrowUp.mouseout"/>
                  </use>
                  <path fill="none" stroke="white" stroke-width="1.5" d="M0,-3.0v7 M-2.5,-0.5L0,-3.0L2.5,-0.5"/>
                </g>
                <g id="arrowRight" xlink:href="#dirArrow" transform="rotate(90) translate(36 -43)" onmousedown="handlePan(1,0)">
                  <use xlink:href="#rim" fill="#404040">
                        <set attributeName="fill" to="#808080" begin="arrowRight.mouseover" end="arrowRight.mouseout"/>
                  </use>
                  <path fill="none" stroke="white" stroke-width="1.5" d="M0,-3.0v7 M-2.5,-0.5L0,-3.0L2.5,-0.5"/>
                </g>
                <g id="arrowDown" xlink:href="#dirArrow" transform="rotate(180) translate(-30 -48)" onmousedown="handlePan(0,1)">
                  <use xlink:href="#rim" fill="#404040">
                        <set attributeName="fill" to="#808080" begin="arrowDown.mouseover" end="arrowDown.mouseout"/>
                  </use>
                  <path fill="none" stroke="white" stroke-width="1.5" d="M0,-3.0v7 M-2.5,-0.5L0,-3.0L2.5,-0.5"/>
                </g>
                <g id="arrowLeft" xlink:href="#dirArrow" transform="rotate(270) translate(-36 17)" onmousedown="handlePan(-1,0)">
                  <use xlink:href="#rim" fill="#404040">
                        <set attributeName="fill" to="#808080" begin="arrowLeft.mouseover" end="arrowLeft.mouseout"/>
                  </use>
                  <path fill="none" stroke="white" stroke-width="1.5" d="M0,-3.0v7 M-2.5,-0.5L0,-3.0L2.5,-0.5"/>
                </g>
        </g>
        <svg viewBox="0 0 15 15" width="100%" height="30px" preserveAspectRatio="xMaxYMin meet">
         <g id="arrow_out" transform="scale(0.3 0.3)">
          <a xlink:href="namespacecimg__library__suffixed_1_1cimg_af556f826a8b7acb2fbbaa5259e6d95e8_icgraph_org.svg" target="_base">
           <rect id="button" ry="5" rx="5" y="6" x="6" height="38" width="38"
                fill="#f2f5e9" fill-opacity="0.5" stroke="#606060" stroke-width="1.0"/>
           <path id="arrow"
             d="M 11.500037,31.436501 C 11.940474,20.09759 22.043105,11.32322 32.158766,21.979434 L 37.068811,17.246167 C 37.068811,17.246167 37.088388,32 37.088388,32 L 22.160133,31.978069 C 22.160133,31.978069 26.997745,27.140456 26.997745,27.140456 C 18.528582,18.264221 13.291696,25.230495 11.500037,31.436501 z"
             style="fill:#404040;"/>
          </a>
         </g>
        </svg>
</svg>
