<?xml version="1.0" encoding="UTF-8" standalone="no"?>
<!DOCTYPE svg PUBLIC "-//W3C//DTD SVG 1.1//EN"
 "http://www.w3.org/Graphics/SVG/1.1/DTD/svg11.dtd">
<!-- Generated by graphviz version 2.40.1 (20161225.0304)
 -->
<!-- Title: cimg_library_suffixed::cimg::invert_endianness Pages: 1 -->
<svg width="281pt" height="39pt"
 viewBox="0.00 0.00 281.00 39.00" xmlns="http://www.w3.org/2000/svg" xmlns:xlink="http://www.w3.org/1999/xlink">
<g id="graph0" class="graph" transform="scale(1 1) rotate(0) translate(4 35)">
<title>cimg_library_suffixed::cimg::invert_endianness</title>
<polygon fill="#ffffff" stroke="transparent" points="-4,4 -4,-35 277,-35 277,4 -4,4"/>
<!-- Node1923 -->
<g id="node1" class="node">
<title>Node1923</title>
<polygon fill="#bfbfbf" stroke="#000000" points="0,-.5 0,-30.5 128,-30.5 128,-.5 0,-.5"/>
<text text-anchor="start" x="8" y="-18.5" font-family="Helvetica,sans-Serif" font-size="10.00" fill="#000000">cimg_library_suffixed</text>
<text text-anchor="middle" x="64" y="-7.5" font-family="Helvetica,sans-Serif" font-size="10.00" fill="#000000">::cimg::invert_endianness</text>
</g>
<!-- Node1924 -->
<g id="node2" class="node">
<title>Node1924</title>
<g id="a_node2"><a xlink:href="namespacecimg__library__suffixed_1_1cimg.html#a337eb7828c4ba8532f16e55d0c1468d6" target="_top" xlink:title="Exchange values of variables a and b. ">
<polygon fill="#ffffff" stroke="#000000" points="164,-.5 164,-30.5 273,-30.5 273,-.5 164,-.5"/>
<text text-anchor="start" x="172" y="-18.5" font-family="Helvetica,sans-Serif" font-size="10.00" fill="#000000">cimg_library_suffixed</text>
<text text-anchor="middle" x="218.5" y="-7.5" font-family="Helvetica,sans-Serif" font-size="10.00" fill="#000000">::cimg::swap</text>
</a>
</g>
</g>
<!-- Node1923&#45;&gt;Node1924 -->
<g id="edge1" class="edge">
<title>Node1923&#45;&gt;Node1924</title>
<path fill="none" stroke="#191970" d="M128.1797,-15.5C136.5495,-15.5 145.1301,-15.5 153.513,-15.5"/>
<polygon fill="#191970" stroke="#191970" points="153.6128,-19.0001 163.6128,-15.5 153.6127,-12.0001 153.6128,-19.0001"/>
</g>
</g>
</svg>
