<?xml version="1.0" encoding="UTF-8" standalone="no"?>
<!DOCTYPE svg PUBLIC "-//W3C//DTD SVG 1.1//EN"
 "http://www.w3.org/Graphics/SVG/1.1/DTD/svg11.dtd">
<!-- Generated by graphviz version 2.40.1 (20161225.0304)
 -->
<!-- Title: cimg_library_suffixed::cimg::median Pages: 1 -->
<svg width="291pt" height="220pt"
 viewBox="0.00 0.00 291.00 220.00" xmlns="http://www.w3.org/2000/svg" xmlns:xlink="http://www.w3.org/1999/xlink">
<g id="graph0" class="graph" transform="scale(1 1) rotate(0) translate(4 216)">
<title>cimg_library_suffixed::cimg::median</title>
<polygon fill="#ffffff" stroke="transparent" points="-4,4 -4,-216 287,-216 287,4 -4,4"/>
<!-- Node2342 -->
<g id="node1" class="node">
<title>Node2342</title>
<polygon fill="#bfbfbf" stroke="#000000" points="0,-88 0,-118 109,-118 109,-88 0,-88"/>
<text text-anchor="start" x="8" y="-106" font-family="Helvetica,sans-Serif" font-size="10.00" fill="#000000">cimg_library_suffixed</text>
<text text-anchor="middle" x="54.5" y="-95" font-family="Helvetica,sans-Serif" font-size="10.00" fill="#000000">::cimg::median</text>
</g>
<!-- Node2343 -->
<g id="node2" class="node">
<title>Node2343</title>
<g id="a_node2"><a xlink:href="structcimg__library__suffixed_1_1_c_img_1_1__cimg__math__parser.html#a318c44c5d1f4f0114355f37ace87a4ae" target="_top" xlink:title="cimg_library_suffixed\l::CImg::_cimg_math_parser\l::compile">
<polygon fill="#ffffff" stroke="#000000" points="145,-170.5 145,-211.5 283,-211.5 283,-170.5 145,-170.5"/>
<text text-anchor="start" x="153" y="-199.5" font-family="Helvetica,sans-Serif" font-size="10.00" fill="#000000">cimg_library_suffixed</text>
<text text-anchor="start" x="153" y="-188.5" font-family="Helvetica,sans-Serif" font-size="10.00" fill="#000000">::CImg::_cimg_math_parser</text>
<text text-anchor="middle" x="214" y="-177.5" font-family="Helvetica,sans-Serif" font-size="10.00" fill="#000000">::compile</text>
</a>
</g>
</g>
<!-- Node2342&#45;&gt;Node2343 -->
<g id="edge1" class="edge">
<title>Node2342&#45;&gt;Node2343</title>
<path fill="none" stroke="#191970" d="M84.3988,-123.8749C101.6941,-135.5104 124.1082,-149.8557 145,-161 151.1084,-164.2584 157.645,-167.4535 164.1706,-170.4718"/>
<polygon fill="#191970" stroke="#191970" points="86.0943,-120.7953 75.8563,-118.0685 82.1593,-126.5846 86.0943,-120.7953"/>
</g>
<!-- Node2344 -->
<g id="node3" class="node">
<title>Node2344</title>
<g id="a_node3"><a xlink:href="structcimg__library__suffixed_1_1_c_img.html#a0f2e5b8bd31f04a77eb2244444de98b5" target="_top" xlink:title="Blur image with the median filter . ">
<polygon fill="#ffffff" stroke="#000000" points="159.5,-110.5 159.5,-151.5 268.5,-151.5 268.5,-110.5 159.5,-110.5"/>
<text text-anchor="start" x="167.5" y="-139.5" font-family="Helvetica,sans-Serif" font-size="10.00" fill="#000000">cimg_library_suffixed</text>
<text text-anchor="start" x="167.5" y="-128.5" font-family="Helvetica,sans-Serif" font-size="10.00" fill="#000000">::CImg&lt; charT &gt;::get</text>
<text text-anchor="middle" x="214" y="-117.5" font-family="Helvetica,sans-Serif" font-size="10.00" fill="#000000">_blur_median</text>
</a>
</g>
</g>
<!-- Node2342&#45;&gt;Node2344 -->
<g id="edge2" class="edge">
<title>Node2342&#45;&gt;Node2344</title>
<path fill="none" stroke="#191970" d="M119.3814,-114.3898C132.6237,-116.7145 146.433,-119.1387 159.2783,-121.3937"/>
<polygon fill="#191970" stroke="#191970" points="119.8454,-110.9179 109.3909,-112.636 118.635,-117.8124 119.8454,-110.9179"/>
</g>
<!-- Node2345 -->
<g id="node4" class="node">
<title>Node2345</title>
<g id="a_node4"><a xlink:href="structcimg__library__suffixed_1_1_c_img.html#a3206e8b7f1b9b133355e78b758d3b289" target="_top" xlink:title="Return the median pixel value. ">
<polygon fill="#ffffff" stroke="#000000" points="150.5,-61 150.5,-91 277.5,-91 277.5,-61 150.5,-61"/>
<text text-anchor="start" x="158.5" y="-79" font-family="Helvetica,sans-Serif" font-size="10.00" fill="#000000">cimg_library_suffixed</text>
<text text-anchor="middle" x="214" y="-68" font-family="Helvetica,sans-Serif" font-size="10.00" fill="#000000">::CImg&lt; charT &gt;::median</text>
</a>
</g>
</g>
<!-- Node2342&#45;&gt;Node2345 -->
<g id="edge3" class="edge">
<title>Node2342&#45;&gt;Node2345</title>
<path fill="none" stroke="#191970" d="M119.4206,-92.0103C129.587,-90.2893 140.0868,-88.512 150.2271,-86.7954"/>
<polygon fill="#191970" stroke="#191970" points="118.6664,-88.5881 109.3909,-93.7081 119.8348,-95.4899 118.6664,-88.5881"/>
</g>
<!-- Node2346 -->
<g id="node5" class="node">
<title>Node2346</title>
<g id="a_node5"><a xlink:href="structcimg__library__suffixed_1_1_c_img_1_1__cimg__math__parser.html#af2201347f6979e6479ab6eb781585a6c" target="_top" xlink:title="cimg_library_suffixed\l::CImg::_cimg_math_parser\l::mp_median">
<polygon fill="#ffffff" stroke="#000000" points="145,-.5 145,-41.5 283,-41.5 283,-.5 145,-.5"/>
<text text-anchor="start" x="153" y="-29.5" font-family="Helvetica,sans-Serif" font-size="10.00" fill="#000000">cimg_library_suffixed</text>
<text text-anchor="start" x="153" y="-18.5" font-family="Helvetica,sans-Serif" font-size="10.00" fill="#000000">::CImg::_cimg_math_parser</text>
<text text-anchor="middle" x="214" y="-7.5" font-family="Helvetica,sans-Serif" font-size="10.00" fill="#000000">::mp_median</text>
</a>
</g>
</g>
<!-- Node2342&#45;&gt;Node2346 -->
<g id="edge4" class="edge">
<title>Node2342&#45;&gt;Node2346</title>
<path fill="none" stroke="#191970" d="M88.7899,-82.7045C105.5447,-73.0387 126.1201,-61.5361 145,-52 151.9161,-48.5067 159.3093,-44.977 166.5923,-41.6133"/>
<polygon fill="#191970" stroke="#191970" points="86.7997,-79.8128 79.9097,-87.8612 90.315,-85.8661 86.7997,-79.8128"/>
</g>
</g>
</svg>
