<?xml version="1.0" encoding="UTF-8" standalone="no"?>
<!DOCTYPE svg PUBLIC "-//W3C//DTD SVG 1.1//EN"
 "http://www.w3.org/Graphics/SVG/1.1/DTD/svg11.dtd">
<!-- Generated by graphviz version 2.40.1 (20161225.0304)
 -->
<!-- Title: cimg_library_suffixed::cimg::system Pages: 1 -->
<svg width="721pt" height="176pt"
 viewBox="0.00 0.00 721.00 176.00" xmlns="http://www.w3.org/2000/svg" xmlns:xlink="http://www.w3.org/1999/xlink">
<g id="graph0" class="graph" transform="scale(1 1) rotate(0) translate(4 172)">
<title>cimg_library_suffixed::cimg::system</title>
<polygon fill="#ffffff" stroke="transparent" points="-4,4 -4,-172 717,-172 717,4 -4,4"/>
<!-- Node3905 -->
<g id="node1" class="node">
<title>Node3905</title>
<polygon fill="#bfbfbf" stroke="#000000" points="0,-71.5 0,-101.5 109,-101.5 109,-71.5 0,-71.5"/>
<text text-anchor="start" x="8" y="-89.5" font-family="Helvetica,sans-Serif" font-size="10.00" fill="#000000">cimg_library_suffixed</text>
<text text-anchor="middle" x="54.5" y="-78.5" font-family="Helvetica,sans-Serif" font-size="10.00" fill="#000000">::cimg::system</text>
</g>
<!-- Node3906 -->
<g id="node2" class="node">
<title>Node3906</title>
<g id="a_node2"><a xlink:href="namespacecimg__library__suffixed_1_1cimg.html#a79aef0cbcf66ceb71c2b74cb66b4deb2" target="_top" xlink:title="Avoid warning messages due to unused parameters. Do nothing actually. ">
<polygon fill="#ffffff" stroke="#000000" points="145,-71.5 145,-101.5 254,-101.5 254,-71.5 145,-71.5"/>
<text text-anchor="start" x="153" y="-89.5" font-family="Helvetica,sans-Serif" font-size="10.00" fill="#000000">cimg_library_suffixed</text>
<text text-anchor="middle" x="199.5" y="-78.5" font-family="Helvetica,sans-Serif" font-size="10.00" fill="#000000">::cimg::unused</text>
</a>
</g>
</g>
<!-- Node3905&#45;&gt;Node3906 -->
<g id="edge1" class="edge">
<title>Node3905&#45;&gt;Node3906</title>
<path fill="none" stroke="#191970" d="M109.3183,-86.5C117.5286,-86.5 126.0611,-86.5 134.4586,-86.5"/>
<polygon fill="#191970" stroke="#191970" points="134.6042,-90.0001 144.6042,-86.5 134.6042,-83.0001 134.6042,-90.0001"/>
</g>
<!-- Node3907 -->
<g id="node3" class="node">
<title>Node3907</title>
<g id="a_node3"><a xlink:href="namespacecimg__library__suffixed_1_1cimg.html#a9e739e4b4ac058abfba069466617b914" target="_top" xlink:title="cimg_library_suffixed\l::cimg::mutex">
<polygon fill="#ffffff" stroke="#000000" points="290,-71.5 290,-101.5 399,-101.5 399,-71.5 290,-71.5"/>
<text text-anchor="start" x="298" y="-89.5" font-family="Helvetica,sans-Serif" font-size="10.00" fill="#000000">cimg_library_suffixed</text>
<text text-anchor="middle" x="344.5" y="-78.5" font-family="Helvetica,sans-Serif" font-size="10.00" fill="#000000">::cimg::mutex</text>
</a>
</g>
</g>
<!-- Node3906&#45;&gt;Node3907 -->
<g id="edge2" class="edge">
<title>Node3906&#45;&gt;Node3907</title>
<path fill="none" stroke="#191970" d="M254.3183,-86.5C262.5286,-86.5 271.0611,-86.5 279.4586,-86.5"/>
<polygon fill="#191970" stroke="#191970" points="279.6042,-90.0001 289.6042,-86.5 279.6042,-83.0001 279.6042,-90.0001"/>
</g>
<!-- Node3908 -->
<g id="node4" class="node">
<title>Node3908</title>
<g id="a_node4"><a xlink:href="structcimg__library__suffixed_1_1cimg_1_1_mutex__info.html#a6cc8e26847a1aa649febed03d70182e7" target="_top" xlink:title="cimg_library_suffixed\l::cimg::Mutex_info::lock">
<polygon fill="#ffffff" stroke="#000000" points="440.5,-137.5 440.5,-167.5 562.5,-167.5 562.5,-137.5 440.5,-137.5"/>
<text text-anchor="start" x="448.5" y="-155.5" font-family="Helvetica,sans-Serif" font-size="10.00" fill="#000000">cimg_library_suffixed</text>
<text text-anchor="middle" x="501.5" y="-144.5" font-family="Helvetica,sans-Serif" font-size="10.00" fill="#000000">::cimg::Mutex_info::lock</text>
</a>
</g>
</g>
<!-- Node3907&#45;&gt;Node3908 -->
<g id="edge3" class="edge">
<title>Node3907&#45;&gt;Node3908</title>
<path fill="none" stroke="#191970" d="M380.519,-101.6417C403.0569,-111.1163 432.2804,-123.4013 456.3593,-133.5237"/>
<polygon fill="#191970" stroke="#191970" points="455.0737,-136.7798 465.6486,-137.4287 457.7864,-130.3268 455.0737,-136.7798"/>
</g>
<!-- Node3909 -->
<g id="node5" class="node">
<title>Node3909</title>
<g id="a_node5"><a xlink:href="namespacecimg__library__suffixed_1_1cimg.html#aa0e1bc96ae6e235dc5b67b8b0a466166" target="_top" xlink:title="cimg_library_suffixed\l::cimg::Mutex_attr">
<polygon fill="#ffffff" stroke="#000000" points="604,-71.5 604,-101.5 713,-101.5 713,-71.5 604,-71.5"/>
<text text-anchor="start" x="612" y="-89.5" font-family="Helvetica,sans-Serif" font-size="10.00" fill="#000000">cimg_library_suffixed</text>
<text text-anchor="middle" x="658.5" y="-78.5" font-family="Helvetica,sans-Serif" font-size="10.00" fill="#000000">::cimg::Mutex_attr</text>
</a>
</g>
</g>
<!-- Node3907&#45;&gt;Node3909 -->
<g id="edge4" class="edge">
<title>Node3907&#45;&gt;Node3909</title>
<path fill="none" stroke="#191970" d="M399.0491,-88.6007C410.8995,-88.9753 423.3685,-89.3073 435,-89.5 494.103,-90.4793 508.897,-90.4793 568,-89.5 576.3602,-89.3615 585.1529,-89.151 593.8377,-88.9045"/>
<polygon fill="#191970" stroke="#191970" points="594.0605,-92.3995 603.9509,-88.6007 593.8502,-85.4026 594.0605,-92.3995"/>
</g>
<!-- Node3910 -->
<g id="node6" class="node">
<title>Node3910</title>
<g id="a_node6"><a xlink:href="structcimg__library__suffixed_1_1cimg_1_1_mutex__info.html#a9bf4ed1e1dfe6f28fa6250cd04f3c900" target="_top" xlink:title="cimg_library_suffixed\l::cimg::Mutex_info::trylock">
<polygon fill="#ffffff" stroke="#000000" points="435,-49.5 435,-79.5 568,-79.5 568,-49.5 435,-49.5"/>
<text text-anchor="start" x="443" y="-67.5" font-family="Helvetica,sans-Serif" font-size="10.00" fill="#000000">cimg_library_suffixed</text>
<text text-anchor="middle" x="501.5" y="-56.5" font-family="Helvetica,sans-Serif" font-size="10.00" fill="#000000">::cimg::Mutex_info::trylock</text>
</a>
</g>
</g>
<!-- Node3907&#45;&gt;Node3910 -->
<g id="edge5" class="edge">
<title>Node3907&#45;&gt;Node3910</title>
<path fill="none" stroke="#191970" d="M399.411,-78.8055C407.6098,-77.6566 416.187,-76.4547 424.7367,-75.2566"/>
<polygon fill="#191970" stroke="#191970" points="425.3189,-78.7093 434.7365,-73.8554 424.3475,-71.7771 425.3189,-78.7093"/>
</g>
<!-- Node3911 -->
<g id="node7" class="node">
<title>Node3911</title>
<g id="a_node7"><a xlink:href="structcimg__library__suffixed_1_1cimg_1_1_mutex__info.html#afac3fa5f107ad4795fb867050f616555" target="_top" xlink:title="cimg_library_suffixed\l::cimg::Mutex_info::unlock">
<polygon fill="#ffffff" stroke="#000000" points="435.5,-.5 435.5,-30.5 567.5,-30.5 567.5,-.5 435.5,-.5"/>
<text text-anchor="start" x="443.5" y="-18.5" font-family="Helvetica,sans-Serif" font-size="10.00" fill="#000000">cimg_library_suffixed</text>
<text text-anchor="middle" x="501.5" y="-7.5" font-family="Helvetica,sans-Serif" font-size="10.00" fill="#000000">::cimg::Mutex_info::unlock</text>
</a>
</g>
</g>
<!-- Node3907&#45;&gt;Node3911 -->
<g id="edge7" class="edge">
<title>Node3907&#45;&gt;Node3911</title>
<path fill="none" stroke="#191970" d="M372.2433,-71.3913C389.9588,-61.9965 413.5479,-49.9496 435,-40.5 439.746,-38.4094 444.727,-36.3311 449.7376,-34.3175"/>
<polygon fill="#191970" stroke="#191970" points="451.3284,-37.453 459.3561,-30.5387 448.7688,-30.9378 451.3284,-37.453"/>
</g>
<!-- Node3910&#45;&gt;Node3909 -->
<g id="edge6" class="edge">
<title>Node3910&#45;&gt;Node3909</title>
<path fill="none" stroke="#191970" d="M568.0821,-73.83C576.5193,-75.0123 585.1445,-76.2209 593.5556,-77.3995"/>
<polygon fill="#191970" stroke="#191970" points="593.293,-80.8968 603.682,-78.8185 594.2645,-73.9646 593.293,-80.8968"/>
</g>
</g>
</svg>
