<?xml version="1.0" encoding="UTF-8" standalone="no"?>
<!DOCTYPE svg PUBLIC "-//W3C//DTD SVG 1.1//EN"
 "http://www.w3.org/Graphics/SVG/1.1/DTD/svg11.dtd">
<!-- Generated by graphviz version 2.40.1 (20161225.0304)
 -->
<!-- Title: cimg_library_suffixed::exp Pages: 1 -->
<svg width="468pt" height="790pt"
 viewBox="0.00 0.00 468.00 789.50" xmlns="http://www.w3.org/2000/svg" xmlns:xlink="http://www.w3.org/1999/xlink">
<g id="graph0" class="graph" transform="scale(1 1) rotate(0) translate(4 785.5)">
<title>cimg_library_suffixed::exp</title>
<polygon fill="#ffffff" stroke="transparent" points="-4,4 -4,-785.5 464,-785.5 464,4 -4,4"/>
<!-- Node60 -->
<g id="node1" class="node">
<title>Node60</title>
<polygon fill="#bfbfbf" stroke="#000000" points="0,-373 0,-392 131,-392 131,-373 0,-373"/>
<text text-anchor="middle" x="65.5" y="-380" font-family="Helvetica,sans-Serif" font-size="10.00" fill="#000000">cimg_library_suffixed::exp</text>
</g>
<!-- Node61 -->
<g id="node2" class="node">
<title>Node61</title>
<g id="a_node2"><a xlink:href="structcimg__library__suffixed_1_1_c_img_1_1__cimg__math__parser.html#a591684f81af8ba85885b7de9c0c6ca5f" target="_top" xlink:title="cimg_library_suffixed\l::CImg::_cimg_math_parser\l::_cimg_math_parser">
<polygon fill="#ffffff" stroke="#000000" points="167,-740 167,-781 305,-781 305,-740 167,-740"/>
<text text-anchor="start" x="175" y="-769" font-family="Helvetica,sans-Serif" font-size="10.00" fill="#000000">cimg_library_suffixed</text>
<text text-anchor="start" x="175" y="-758" font-family="Helvetica,sans-Serif" font-size="10.00" fill="#000000">::CImg::_cimg_math_parser</text>
<text text-anchor="middle" x="236" y="-747" font-family="Helvetica,sans-Serif" font-size="10.00" fill="#000000">::_cimg_math_parser</text>
</a>
</g>
</g>
<!-- Node60&#45;&gt;Node61 -->
<g id="edge1" class="edge">
<title>Node60&#45;&gt;Node61</title>
<path fill="none" stroke="#191970" d="M68.9463,-402.0246C80.8792,-467.739 122.166,-679.6115 167,-730.5 170.1086,-734.0284 173.7074,-737.1577 177.5971,-739.9304"/>
<polygon fill="#191970" stroke="#191970" points="72.3851,-401.3718 67.175,-392.1466 65.495,-402.6074 72.3851,-401.3718"/>
</g>
<!-- Node62 -->
<g id="node3" class="node">
<title>Node62</title>
<g id="a_node3"><a xlink:href="structcimg__library__suffixed_1_1_c_img.html#a8b40db5a9818c3f961a90840b271de6c" target="_top" xlink:title="cimg_library_suffixed\l::CImg\&lt; charT \&gt;::_display\l_object3d">
<polygon fill="#ffffff" stroke="#000000" points="170.5,-680 170.5,-721 301.5,-721 301.5,-680 170.5,-680"/>
<text text-anchor="start" x="178.5" y="-709" font-family="Helvetica,sans-Serif" font-size="10.00" fill="#000000">cimg_library_suffixed</text>
<text text-anchor="start" x="178.5" y="-698" font-family="Helvetica,sans-Serif" font-size="10.00" fill="#000000">::CImg&lt; charT &gt;::_display</text>
<text text-anchor="middle" x="236" y="-687" font-family="Helvetica,sans-Serif" font-size="10.00" fill="#000000">_object3d</text>
</a>
</g>
</g>
<!-- Node60&#45;&gt;Node62 -->
<g id="edge2" class="edge">
<title>Node60&#45;&gt;Node62</title>
<path fill="none" stroke="#191970" d="M67.0919,-402.0756C72.2202,-452.892 92.6051,-590.6031 167,-670.5 170.2936,-674.0371 174.0764,-677.1785 178.1384,-679.9646"/>
<polygon fill="#191970" stroke="#191970" points="70.5756,-401.7365 66.1734,-392.0995 63.6051,-402.3783 70.5756,-401.7365"/>
</g>
<!-- Node63 -->
<g id="node4" class="node">
<title>Node63</title>
<g id="a_node4"><a xlink:href="structcimg__library__suffixed_1_1_c_img_1_1__cimg__math__parser.html#a4c1d921651a9408da9487f1d4e8c13d0" target="_top" xlink:title="cimg_library_suffixed\l::CImg::_cimg_math_parser\l::_mp_complex_pow">
<polygon fill="#ffffff" stroke="#000000" points="167,-620 167,-661 305,-661 305,-620 167,-620"/>
<text text-anchor="start" x="175" y="-649" font-family="Helvetica,sans-Serif" font-size="10.00" fill="#000000">cimg_library_suffixed</text>
<text text-anchor="start" x="175" y="-638" font-family="Helvetica,sans-Serif" font-size="10.00" fill="#000000">::CImg::_cimg_math_parser</text>
<text text-anchor="middle" x="236" y="-627" font-family="Helvetica,sans-Serif" font-size="10.00" fill="#000000">::_mp_complex_pow</text>
</a>
</g>
</g>
<!-- Node60&#45;&gt;Node63 -->
<g id="edge3" class="edge">
<title>Node60&#45;&gt;Node63</title>
<path fill="none" stroke="#191970" d="M69.2204,-402.2181C78.3441,-445.4875 105.7045,-549.7359 167,-610.5 170.5251,-613.9946 174.5241,-617.1127 178.7785,-619.8891"/>
<polygon fill="#191970" stroke="#191970" points="72.5998,-401.2692 67.2002,-392.1536 65.7367,-402.6469 72.5998,-401.2692"/>
</g>
<!-- Node64 -->
<g id="node5" class="node">
<title>Node64</title>
<g id="a_node5"><a xlink:href="structcimg__library__suffixed_1_1_c_img.html#af3c29f70168c4443e3f6f887834819b0" target="_top" xlink:title="Blur image anisotropically, directed by a field of diffusion tensors. ">
<polygon fill="#ffffff" stroke="#000000" points="180.5,-560 180.5,-601 291.5,-601 291.5,-560 180.5,-560"/>
<text text-anchor="start" x="188.5" y="-589" font-family="Helvetica,sans-Serif" font-size="10.00" fill="#000000">cimg_library_suffixed</text>
<text text-anchor="start" x="188.5" y="-578" font-family="Helvetica,sans-Serif" font-size="10.00" fill="#000000">::CImg&lt; charT &gt;::blur</text>
<text text-anchor="middle" x="236" y="-567" font-family="Helvetica,sans-Serif" font-size="10.00" fill="#000000">_anisotropic</text>
</a>
</g>
</g>
<!-- Node60&#45;&gt;Node64 -->
<g id="edge4" class="edge">
<title>Node60&#45;&gt;Node64</title>
<path fill="none" stroke="#191970" d="M72.6517,-402.0166C86.1357,-436.3615 118.3997,-507.9839 167,-550.5 171.0309,-554.0263 175.5405,-557.1925 180.272,-560.0236"/>
<polygon fill="#191970" stroke="#191970" points="75.7661,-400.3598 68.9368,-392.2597 69.2242,-402.8506 75.7661,-400.3598"/>
</g>
<!-- Node65 -->
<g id="node6" class="node">
<title>Node65</title>
<g id="a_node6"><a xlink:href="structcimg__library__suffixed_1_1_c_img_1_1__cimg__math__parser.html#a318c44c5d1f4f0114355f37ace87a4ae" target="_top" xlink:title="cimg_library_suffixed\l::CImg::_cimg_math_parser\l::compile">
<polygon fill="#ffffff" stroke="#000000" points="167,-500 167,-541 305,-541 305,-500 167,-500"/>
<text text-anchor="start" x="175" y="-529" font-family="Helvetica,sans-Serif" font-size="10.00" fill="#000000">cimg_library_suffixed</text>
<text text-anchor="start" x="175" y="-518" font-family="Helvetica,sans-Serif" font-size="10.00" fill="#000000">::CImg::_cimg_math_parser</text>
<text text-anchor="middle" x="236" y="-507" font-family="Helvetica,sans-Serif" font-size="10.00" fill="#000000">::compile</text>
</a>
</g>
</g>
<!-- Node60&#45;&gt;Node65 -->
<g id="edge5" class="edge">
<title>Node60&#45;&gt;Node65</title>
<path fill="none" stroke="#191970" d="M78.5565,-400.3921C96.3454,-423.7264 130.2193,-464.6138 167,-490.5 171.8069,-493.8831 177.056,-497.0038 182.4431,-499.8498"/>
<polygon fill="#191970" stroke="#191970" points="81.1475,-398.0128 72.3536,-392.1037 75.5432,-402.207 81.1475,-398.0128"/>
</g>
<!-- Node66 -->
<g id="node7" class="node">
<title>Node66</title>
<g id="a_node7"><a xlink:href="structcimg__library__suffixed_1_1_c_img.html#a1f9c44f6a4577ee414419394aa34d4ac" target="_top" xlink:title="Apply recursive Deriche filter. ">
<polygon fill="#ffffff" stroke="#000000" points="172.5,-450.5 172.5,-480.5 299.5,-480.5 299.5,-450.5 172.5,-450.5"/>
<text text-anchor="start" x="180.5" y="-468.5" font-family="Helvetica,sans-Serif" font-size="10.00" fill="#000000">cimg_library_suffixed</text>
<text text-anchor="middle" x="236" y="-457.5" font-family="Helvetica,sans-Serif" font-size="10.00" fill="#000000">::CImg&lt; charT &gt;::deriche</text>
</a>
</g>
</g>
<!-- Node60&#45;&gt;Node66 -->
<g id="edge6" class="edge">
<title>Node60&#45;&gt;Node66</title>
<path fill="none" stroke="#191970" d="M89.0746,-397.5157C109.2631,-409.9947 139.3667,-427.7137 167,-440.5 174.6318,-444.0313 182.9147,-447.4035 191.0057,-450.4639"/>
<polygon fill="#191970" stroke="#191970" points="90.877,-394.5149 80.541,-392.1873 87.1696,-400.4525 90.877,-394.5149"/>
</g>
<!-- Node67 -->
<g id="node8" class="node">
<title>Node67</title>
<g id="a_node8"><a xlink:href="structcimg__library__suffixed_1_1_c_img.html#a3b96b681b3c0e11c067b12789328229a" target="_top" xlink:title="Draw a 1d gaussian function. ">
<polygon fill="#ffffff" stroke="#000000" points="178,-390 178,-431 294,-431 294,-390 178,-390"/>
<text text-anchor="start" x="186" y="-419" font-family="Helvetica,sans-Serif" font-size="10.00" fill="#000000">cimg_library_suffixed</text>
<text text-anchor="start" x="186" y="-408" font-family="Helvetica,sans-Serif" font-size="10.00" fill="#000000">::CImg&lt; charT &gt;::draw</text>
<text text-anchor="middle" x="236" y="-397" font-family="Helvetica,sans-Serif" font-size="10.00" fill="#000000">_gaussian</text>
</a>
</g>
</g>
<!-- Node60&#45;&gt;Node67 -->
<g id="edge7" class="edge">
<title>Node60&#45;&gt;Node67</title>
<path fill="none" stroke="#191970" d="M133.6773,-393.6963C148.2826,-396.0948 163.585,-398.6078 177.7735,-400.9379"/>
<polygon fill="#191970" stroke="#191970" points="134.1346,-390.2246 123.6996,-392.0577 133.0002,-397.132 134.1346,-390.2246"/>
</g>
<!-- Node68 -->
<g id="node9" class="node">
<title>Node68</title>
<g id="a_node9"><a xlink:href="structcimg__library__suffixed_1_1_c_img.html#a7772f5e71c3c6fa9b9226c8f0c2395db" target="_top" xlink:title="Compute the exponential of each pixel value. ">
<polygon fill="#ffffff" stroke="#000000" points="180.5,-340.5 180.5,-370.5 291.5,-370.5 291.5,-340.5 180.5,-340.5"/>
<text text-anchor="start" x="188.5" y="-358.5" font-family="Helvetica,sans-Serif" font-size="10.00" fill="#000000">cimg_library_suffixed</text>
<text text-anchor="middle" x="236" y="-347.5" font-family="Helvetica,sans-Serif" font-size="10.00" fill="#000000">::CImg&lt; charT &gt;::exp</text>
</a>
</g>
</g>
<!-- Node60&#45;&gt;Node68 -->
<g id="edge8" class="edge">
<title>Node60&#45;&gt;Node68</title>
<path fill="none" stroke="#191970" d="M135.7896,-371.3691C150.6691,-369.0128 166.1763,-366.5571 180.4207,-364.3014"/>
<polygon fill="#191970" stroke="#191970" points="134.9414,-367.9597 125.6119,-372.9808 136.0363,-374.8736 134.9414,-367.9597"/>
</g>
<!-- Node69 -->
<g id="node10" class="node">
<title>Node69</title>
<g id="a_node10"><a xlink:href="structcimg__library__suffixed_1_1_c_img.html#a3a7a9e74dc09f2f79fcd3f605a2a9059" target="_top" xlink:title="Blur image using patch&#45;based space . ">
<polygon fill="#ffffff" stroke="#000000" points="181.5,-280 181.5,-321 290.5,-321 290.5,-280 181.5,-280"/>
<text text-anchor="start" x="189.5" y="-309" font-family="Helvetica,sans-Serif" font-size="10.00" fill="#000000">cimg_library_suffixed</text>
<text text-anchor="start" x="189.5" y="-298" font-family="Helvetica,sans-Serif" font-size="10.00" fill="#000000">::CImg&lt; charT &gt;::get</text>
<text text-anchor="middle" x="236" y="-287" font-family="Helvetica,sans-Serif" font-size="10.00" fill="#000000">_blur_patch</text>
</a>
</g>
</g>
<!-- Node60&#45;&gt;Node69 -->
<g id="edge9" class="edge">
<title>Node60&#45;&gt;Node69</title>
<path fill="none" stroke="#191970" d="M93.0937,-368.2292C113.4165,-357.8181 141.7859,-343.4917 167,-331.5 174.2344,-328.0594 181.9388,-324.4983 189.4785,-321.0695"/>
<polygon fill="#191970" stroke="#191970" points="91.3831,-365.173 84.088,-372.8562 94.5822,-371.3993 91.3831,-365.173"/>
</g>
<!-- Node70 -->
<g id="node11" class="node">
<title>Node70</title>
<g id="a_node11"><a xlink:href="structcimg__library__suffixed_1_1_c_img.html#a9025e6121a8da36b6213422347de4c12" target="_top" xlink:title="Compute the exponential of each pixel value . ">
<polygon fill="#ffffff" stroke="#000000" points="171,-230.5 171,-260.5 301,-260.5 301,-230.5 171,-230.5"/>
<text text-anchor="start" x="179" y="-248.5" font-family="Helvetica,sans-Serif" font-size="10.00" fill="#000000">cimg_library_suffixed</text>
<text text-anchor="middle" x="236" y="-237.5" font-family="Helvetica,sans-Serif" font-size="10.00" fill="#000000">::CImg&lt; charT &gt;::get_exp</text>
</a>
</g>
</g>
<!-- Node60&#45;&gt;Node70 -->
<g id="edge10" class="edge">
<title>Node60&#45;&gt;Node70</title>
<path fill="none" stroke="#191970" d="M77.4139,-364.6222C94.5445,-340.1848 128.3581,-296.433 167,-270.5 172.6072,-266.737 178.8501,-263.4605 185.2252,-260.6305"/>
<polygon fill="#191970" stroke="#191970" points="74.4614,-362.739 71.69,-372.965 80.2335,-366.6993 74.4614,-362.739"/>
</g>
<!-- Node71 -->
<g id="node12" class="node">
<title>Node71</title>
<g id="a_node12"><a xlink:href="structcimg__library__suffixed_1_1_c_img_1_1__cimg__math__parser.html#a2d823d18414809075048f82cfc2f4779" target="_top" xlink:title="cimg_library_suffixed\l::CImg::_cimg_math_parser\l::mp_complex_exp">
<polygon fill="#ffffff" stroke="#000000" points="167,-170 167,-211 305,-211 305,-170 167,-170"/>
<text text-anchor="start" x="175" y="-199" font-family="Helvetica,sans-Serif" font-size="10.00" fill="#000000">cimg_library_suffixed</text>
<text text-anchor="start" x="175" y="-188" font-family="Helvetica,sans-Serif" font-size="10.00" fill="#000000">::CImg::_cimg_math_parser</text>
<text text-anchor="middle" x="236" y="-177" font-family="Helvetica,sans-Serif" font-size="10.00" fill="#000000">::mp_complex_exp</text>
</a>
</g>
</g>
<!-- Node60&#45;&gt;Node71 -->
<g id="edge11" class="edge">
<title>Node60&#45;&gt;Node71</title>
<path fill="none" stroke="#191970" d="M73.1216,-363.3899C87.142,-330.3966 119.9579,-262.3674 167,-221.5 171.4613,-217.6243 176.4862,-214.1533 181.7387,-211.0644"/>
<polygon fill="#191970" stroke="#191970" points="69.8207,-362.2134 69.2357,-372.7921 76.29,-364.8871 69.8207,-362.2134"/>
</g>
<!-- Node72 -->
<g id="node13" class="node">
<title>Node72</title>
<g id="a_node13"><a xlink:href="structcimg__library__suffixed_1_1_c_img_1_1__cimg__math__parser.html#aac266d813e6b22db9c5a7465f33fe0f2" target="_top" xlink:title="cimg_library_suffixed\l::CImg::_cimg_math_parser\l::mp_exp">
<polygon fill="#ffffff" stroke="#000000" points="167,-110 167,-151 305,-151 305,-110 167,-110"/>
<text text-anchor="start" x="175" y="-139" font-family="Helvetica,sans-Serif" font-size="10.00" fill="#000000">cimg_library_suffixed</text>
<text text-anchor="start" x="175" y="-128" font-family="Helvetica,sans-Serif" font-size="10.00" fill="#000000">::CImg::_cimg_math_parser</text>
<text text-anchor="middle" x="236" y="-117" font-family="Helvetica,sans-Serif" font-size="10.00" fill="#000000">::mp_exp</text>
</a>
</g>
</g>
<!-- Node60&#45;&gt;Node72 -->
<g id="edge12" class="edge">
<title>Node60&#45;&gt;Node72</title>
<path fill="none" stroke="#191970" d="M69.5066,-362.7096C79.067,-320.2206 107.029,-219.3596 167,-160.5 170.5426,-157.0231 174.5537,-153.9174 178.8164,-151.1493"/>
<polygon fill="#191970" stroke="#191970" points="66.0539,-362.118 67.3748,-372.6302 72.8977,-363.5887 66.0539,-362.118"/>
</g>
<!-- Node73 -->
<g id="node14" class="node">
<title>Node73</title>
<g id="a_node14"><a xlink:href="structcimg__library__suffixed_1_1_c_img_1_1__cimg__math__parser.html#a660dabe36da3de2426f95518b193a5d2" target="_top" xlink:title="cimg_library_suffixed\l::CImg::_cimg_math_parser\l::mp_gauss">
<polygon fill="#ffffff" stroke="#000000" points="167,-50 167,-91 305,-91 305,-50 167,-50"/>
<text text-anchor="start" x="175" y="-79" font-family="Helvetica,sans-Serif" font-size="10.00" fill="#000000">cimg_library_suffixed</text>
<text text-anchor="start" x="175" y="-68" font-family="Helvetica,sans-Serif" font-size="10.00" fill="#000000">::CImg::_cimg_math_parser</text>
<text text-anchor="middle" x="236" y="-57" font-family="Helvetica,sans-Serif" font-size="10.00" fill="#000000">::mp_gauss</text>
</a>
</g>
</g>
<!-- Node60&#45;&gt;Node73 -->
<g id="edge13" class="edge">
<title>Node60&#45;&gt;Node73</title>
<path fill="none" stroke="#191970" d="M67.292,-362.6707C72.8414,-312.3787 94.0406,-178.3343 167,-100.5 170.3053,-96.9738 174.0965,-93.8403 178.1642,-91.0595"/>
<polygon fill="#191970" stroke="#191970" points="63.7883,-362.5307 66.263,-372.8325 70.7527,-363.236 63.7883,-362.5307"/>
</g>
<!-- Node74 -->
<g id="node15" class="node">
<title>Node74</title>
<g id="a_node15"><a xlink:href="namespacecimg__library__suffixed_1_1cimg.html#a2a18bbfb6a496d8d5a02943be8eaa936" target="_top" xlink:title="Return a random variable following a Poisson distribution of parameter z. ">
<polygon fill="#ffffff" stroke="#000000" points="181.5,-.5 181.5,-30.5 290.5,-30.5 290.5,-.5 181.5,-.5"/>
<text text-anchor="start" x="189.5" y="-18.5" font-family="Helvetica,sans-Serif" font-size="10.00" fill="#000000">cimg_library_suffixed</text>
<text text-anchor="middle" x="236" y="-7.5" font-family="Helvetica,sans-Serif" font-size="10.00" fill="#000000">::cimg::prand</text>
</a>
</g>
</g>
<!-- Node60&#45;&gt;Node74 -->
<g id="edge14" class="edge">
<title>Node60&#45;&gt;Node74</title>
<path fill="none" stroke="#191970" d="M68.9482,-362.7996C80.748,-297.411 121.3143,-88.9689 167,-40.5 171.1075,-36.1423 176.0325,-32.5421 181.3364,-29.568"/>
<polygon fill="#191970" stroke="#191970" points="65.4455,-362.5064 67.139,-372.965 72.3372,-363.733 65.4455,-362.5064"/>
</g>
<!-- Node75 -->
<g id="node16" class="node">
<title>Node75</title>
<g id="a_node16"><a xlink:href="structcimg__library__suffixed_1_1_c_img.html#a6049c651eefc3a13b8f7d1fc3ff225d7" target="_top" xlink:title="Add random noise to pixel values. ">
<polygon fill="#ffffff" stroke="#000000" points="341,-.5 341,-30.5 460,-30.5 460,-.5 341,-.5"/>
<text text-anchor="start" x="349" y="-18.5" font-family="Helvetica,sans-Serif" font-size="10.00" fill="#000000">cimg_library_suffixed</text>
<text text-anchor="middle" x="400.5" y="-7.5" font-family="Helvetica,sans-Serif" font-size="10.00" fill="#000000">::CImg&lt; charT &gt;::noise</text>
</a>
</g>
</g>
<!-- Node74&#45;&gt;Node75 -->
<g id="edge15" class="edge">
<title>Node74&#45;&gt;Node75</title>
<path fill="none" stroke="#191970" d="M301.1332,-15.5C314.2435,-15.5 327.9609,-15.5 340.8719,-15.5"/>
<polygon fill="#191970" stroke="#191970" points="300.7762,-12.0001 290.7761,-15.5 300.7761,-19.0001 300.7762,-12.0001"/>
</g>
</g>
</svg>
