<?xml version="1.0" encoding="UTF-8" standalone="no"?>
<!DOCTYPE svg PUBLIC "-//W3C//DTD SVG 1.1//EN"
 "http://www.w3.org/Graphics/SVG/1.1/DTD/svg11.dtd">
<!-- Generated by graphviz version 2.40.1 (20161225.0304)
 -->
<!-- Title: cimg_library_suffixed::cimg::dcraw_path Pages: 1 -->
<svg width="266pt" height="100pt"
 viewBox="0.00 0.00 266.00 99.50" xmlns="http://www.w3.org/2000/svg" xmlns:xlink="http://www.w3.org/1999/xlink">
<g id="graph0" class="graph" transform="scale(1 1) rotate(0) translate(4 95.5)">
<title>cimg_library_suffixed::cimg::dcraw_path</title>
<polygon fill="#ffffff" stroke="transparent" points="-4,4 -4,-95.5 262,-95.5 262,4 -4,4"/>
<!-- Node934 -->
<g id="node1" class="node">
<title>Node934</title>
<polygon fill="#bfbfbf" stroke="#000000" points="0,-33 0,-63 109,-63 109,-33 0,-33"/>
<text text-anchor="start" x="8" y="-51" font-family="Helvetica,sans-Serif" font-size="10.00" fill="#000000">cimg_library_suffixed</text>
<text text-anchor="middle" x="54.5" y="-40" font-family="Helvetica,sans-Serif" font-size="10.00" fill="#000000">::cimg::dcraw_path</text>
</g>
<!-- Node935 -->
<g id="node2" class="node">
<title>Node935</title>
<g id="a_node2"><a xlink:href="namespacecimg__library__suffixed_1_1cimg.html#aac739bf544269324a04504ebe92b93e9" target="_top" xlink:title="Get current local time (single&#45;attribute version). ">
<polygon fill="#ffffff" stroke="#000000" points="147,-61 147,-91 256,-91 256,-61 147,-61"/>
<text text-anchor="start" x="155" y="-79" font-family="Helvetica,sans-Serif" font-size="10.00" fill="#000000">cimg_library_suffixed</text>
<text text-anchor="middle" x="201.5" y="-68" font-family="Helvetica,sans-Serif" font-size="10.00" fill="#000000">::cimg::date</text>
</a>
</g>
</g>
<!-- Node934&#45;&gt;Node935 -->
<g id="edge1" class="edge">
<title>Node934&#45;&gt;Node935</title>
<path fill="none" stroke="#191970" d="M119.1243,-60.3094C128.3297,-62.0628 137.7236,-63.8521 146.7169,-65.5651"/>
<polygon fill="#191970" stroke="#191970" points="119.7157,-56.8592 109.2374,-58.4262 118.4058,-63.7356 119.7157,-56.8592"/>
</g>
<!-- Node936 -->
<g id="node3" class="node">
<title>Node936</title>
<g id="a_node3"><a xlink:href="structcimg__library__suffixed_1_1_c_img.html#ae8ee2dbbc634767b37efabe0f0eb7104" target="_top" xlink:title="Load image from a RAW Color Camera file, using external tool &#39;dcraw&#39;. ">
<polygon fill="#ffffff" stroke="#000000" points="145,-.5 145,-41.5 258,-41.5 258,-.5 145,-.5"/>
<text text-anchor="start" x="153" y="-29.5" font-family="Helvetica,sans-Serif" font-size="10.00" fill="#000000">cimg_library_suffixed</text>
<text text-anchor="start" x="153" y="-18.5" font-family="Helvetica,sans-Serif" font-size="10.00" fill="#000000">::CImg&lt; charT &gt;::load</text>
<text text-anchor="middle" x="201.5" y="-7.5" font-family="Helvetica,sans-Serif" font-size="10.00" fill="#000000">_dcraw_external</text>
</a>
</g>
</g>
<!-- Node934&#45;&gt;Node936 -->
<g id="edge2" class="edge">
<title>Node934&#45;&gt;Node936</title>
<path fill="none" stroke="#191970" d="M119.1478,-36.1259C127.6772,-34.5593 136.3678,-32.9631 144.7514,-31.4232"/>
<polygon fill="#191970" stroke="#191970" points="118.4405,-32.6972 109.2374,-37.9462 119.7052,-39.582 118.4405,-32.6972"/>
</g>
</g>
</svg>
