<?xml version="1.0" encoding="UTF-8" standalone="no"?>
<!DOCTYPE svg PUBLIC "-//W3C//DTD SVG 1.1//EN"
 "http://www.w3.org/Graphics/SVG/1.1/DTD/svg11.dtd">
<!-- Generated by graphviz version 2.40.1 (20161225.0304)
 -->
<!-- Title: cimg_library_suffixed::cimg::prand Pages: 1 -->
<svg width="593pt" height="176pt"
 viewBox="0.00 0.00 593.00 176.00" xmlns="http://www.w3.org/2000/svg" xmlns:xlink="http://www.w3.org/1999/xlink">
<g id="graph0" class="graph" transform="scale(1 1) rotate(0) translate(4 172)">
<title>cimg_library_suffixed::cimg::prand</title>
<polygon fill="#ffffff" stroke="transparent" points="-4,4 -4,-172 589,-172 589,4 -4,4"/>
<!-- Node3243 -->
<g id="node1" class="node">
<title>Node3243</title>
<polygon fill="#bfbfbf" stroke="#000000" points="0,-68.5 0,-98.5 109,-98.5 109,-68.5 0,-68.5"/>
<text text-anchor="start" x="8" y="-86.5" font-family="Helvetica,sans-Serif" font-size="10.00" fill="#000000">cimg_library_suffixed</text>
<text text-anchor="middle" x="54.5" y="-75.5" font-family="Helvetica,sans-Serif" font-size="10.00" fill="#000000">::cimg::prand</text>
</g>
<!-- Node3244 -->
<g id="node2" class="node">
<title>Node3244</title>
<g id="a_node2"><a xlink:href="namespacecimg__library__suffixed.html#adc3a62a5832fe41a2a16023ba04c8e64" target="_top" xlink:title="cimg_library_suffixed::exp">
<polygon fill="#ffffff" stroke="#000000" points="145,-141 145,-160 276,-160 276,-141 145,-141"/>
<text text-anchor="middle" x="210.5" y="-148" font-family="Helvetica,sans-Serif" font-size="10.00" fill="#000000">cimg_library_suffixed::exp</text>
</a>
</g>
</g>
<!-- Node3243&#45;&gt;Node3244 -->
<g id="edge1" class="edge">
<title>Node3243&#45;&gt;Node3244</title>
<path fill="none" stroke="#191970" d="M80.4292,-98.5817C98.2054,-108.515 122.5451,-121.3308 145,-130.5 151.4342,-133.1273 158.3451,-135.5976 165.1794,-137.8455"/>
<polygon fill="#191970" stroke="#191970" points="164.4834,-141.2961 175.0733,-140.9723 166.5928,-134.6215 164.4834,-141.2961"/>
</g>
<!-- Node3246 -->
<g id="node4" class="node">
<title>Node3246</title>
<g id="a_node4"><a xlink:href="namespacecimg__library__suffixed_1_1cimg.html#aa12c572ad67f655e27f7b8e3e76dafa5" target="_top" xlink:title="Return a random variable following a gaussian distribution and a standard deviation of 1...">
<polygon fill="#ffffff" stroke="#000000" points="156,-90.5 156,-120.5 265,-120.5 265,-90.5 156,-90.5"/>
<text text-anchor="start" x="164" y="-108.5" font-family="Helvetica,sans-Serif" font-size="10.00" fill="#000000">cimg_library_suffixed</text>
<text text-anchor="middle" x="210.5" y="-97.5" font-family="Helvetica,sans-Serif" font-size="10.00" fill="#000000">::cimg::grand</text>
</a>
</g>
</g>
<!-- Node3243&#45;&gt;Node3246 -->
<g id="edge3" class="edge">
<title>Node3243&#45;&gt;Node3246</title>
<path fill="none" stroke="#191970" d="M109.0612,-91.1945C120.9365,-92.8692 133.6108,-94.6566 145.8348,-96.3805"/>
<polygon fill="#191970" stroke="#191970" points="145.5788,-99.879 155.9696,-97.8098 146.5563,-92.9476 145.5788,-99.879"/>
</g>
<!-- Node3249 -->
<g id="node7" class="node">
<title>Node3249</title>
<g id="a_node7"><a xlink:href="namespacecimg__library__suffixed_1_1cimg.html#ab7c09300be61c8a3361c379069100252" target="_top" xlink:title="Return a random variable uniformely distributed between [val_min,val_max]. ">
<polygon fill="#ffffff" stroke="#000000" points="321.5,-49.5 321.5,-79.5 430.5,-79.5 430.5,-49.5 321.5,-49.5"/>
<text text-anchor="start" x="329.5" y="-67.5" font-family="Helvetica,sans-Serif" font-size="10.00" fill="#000000">cimg_library_suffixed</text>
<text text-anchor="middle" x="376" y="-56.5" font-family="Helvetica,sans-Serif" font-size="10.00" fill="#000000">::cimg::rand</text>
</a>
</g>
</g>
<!-- Node3243&#45;&gt;Node3249 -->
<g id="edge11" class="edge">
<title>Node3243&#45;&gt;Node3249</title>
<path fill="none" stroke="#191970" d="M109.0381,-80.2769C165.0095,-76.9691 252.0765,-71.8236 311.4485,-68.3149"/>
<polygon fill="#191970" stroke="#191970" points="311.6873,-71.807 321.4633,-67.723 311.2742,-64.8191 311.6873,-71.807"/>
</g>
<!-- Node3251 -->
<g id="node9" class="node">
<title>Node3251</title>
<g id="a_node9"><a xlink:href="namespacecimg__library__suffixed.html#a00d0fd9a21d8d5e8a9fa4033593e6acf" target="_top" xlink:title="cimg_library_suffixed\l::sqrt">
<polygon fill="#ffffff" stroke="#000000" points="321.5,-.5 321.5,-30.5 430.5,-30.5 430.5,-.5 321.5,-.5"/>
<text text-anchor="start" x="329.5" y="-18.5" font-family="Helvetica,sans-Serif" font-size="10.00" fill="#000000">cimg_library_suffixed</text>
<text text-anchor="middle" x="376" y="-7.5" font-family="Helvetica,sans-Serif" font-size="10.00" fill="#000000">::sqrt</text>
</a>
</g>
</g>
<!-- Node3243&#45;&gt;Node3251 -->
<g id="edge12" class="edge">
<title>Node3243&#45;&gt;Node3251</title>
<path fill="none" stroke="#191970" d="M109.0381,-71.9647C165.0095,-60.1263 252.0765,-41.7109 311.4485,-29.1532"/>
<polygon fill="#191970" stroke="#191970" points="312.4041,-32.5286 321.4633,-27.035 310.9555,-25.6801 312.4041,-32.5286"/>
</g>
<!-- Node3245 -->
<g id="node3" class="node">
<title>Node3245</title>
<g id="a_node3"><a xlink:href="structcimg__library__suffixed_1_1_c_img.html#a9025e6121a8da36b6213422347de4c12" target="_top" xlink:title="Compute the exponential of each pixel value . ">
<polygon fill="#ffffff" stroke="#000000" points="321.5,-137.5 321.5,-167.5 430.5,-167.5 430.5,-137.5 321.5,-137.5"/>
<text text-anchor="start" x="329.5" y="-155.5" font-family="Helvetica,sans-Serif" font-size="10.00" fill="#000000">cimg_library_suffixed</text>
<text text-anchor="middle" x="376" y="-144.5" font-family="Helvetica,sans-Serif" font-size="10.00" fill="#000000">::CImg::get_exp</text>
</a>
</g>
</g>
<!-- Node3244&#45;&gt;Node3245 -->
<g id="edge2" class="edge">
<title>Node3244&#45;&gt;Node3245</title>
<path fill="none" stroke="#191970" d="M276.3855,-151.2962C287.773,-151.4338 299.6054,-151.5768 310.97,-151.7141"/>
<polygon fill="#191970" stroke="#191970" points="311.2075,-155.2172 321.2491,-151.8384 311.2921,-148.2177 311.2075,-155.2172"/>
</g>
<!-- Node3247 -->
<g id="node5" class="node">
<title>Node3247</title>
<g id="a_node5"><a xlink:href="namespacecimg__library__suffixed.html#a65baff382319a3677fd777a976a4f50b" target="_top" xlink:title="cimg_library_suffixed::log">
<polygon fill="#ffffff" stroke="#000000" points="312,-99 312,-118 440,-118 440,-99 312,-99"/>
<text text-anchor="middle" x="376" y="-106" font-family="Helvetica,sans-Serif" font-size="10.00" fill="#000000">cimg_library_suffixed::log</text>
</a>
</g>
</g>
<!-- Node3246&#45;&gt;Node3247 -->
<g id="edge4" class="edge">
<title>Node3246&#45;&gt;Node3247</title>
<path fill="none" stroke="#191970" d="M265.1496,-106.4906C276.8452,-106.7026 289.3906,-106.93 301.685,-107.1529"/>
<polygon fill="#191970" stroke="#191970" points="301.8674,-110.6567 311.9292,-107.3386 301.9943,-103.6578 301.8674,-110.6567"/>
</g>
<!-- Node3246&#45;&gt;Node3249 -->
<g id="edge6" class="edge">
<title>Node3246&#45;&gt;Node3249</title>
<path fill="none" stroke="#191970" d="M265.1496,-91.9614C279.9787,-88.2878 296.174,-84.2756 311.4918,-80.4809"/>
<polygon fill="#191970" stroke="#191970" points="312.5429,-83.8264 321.4078,-78.0243 310.8596,-77.0318 312.5429,-83.8264"/>
</g>
<!-- Node3246&#45;&gt;Node3251 -->
<g id="edge9" class="edge">
<title>Node3246&#45;&gt;Node3251</title>
<path fill="none" stroke="#191970" d="M231.5474,-90.2747C251.5834,-76.2094 282.911,-55.3127 312,-40.5 315.9945,-38.4659 320.1953,-36.4903 324.4558,-34.5999"/>
<polygon fill="#191970" stroke="#191970" points="325.9946,-37.7487 333.8212,-30.6077 323.2497,-31.3093 325.9946,-37.7487"/>
</g>
<!-- Node3248 -->
<g id="node6" class="node">
<title>Node3248</title>
<g id="a_node6"><a xlink:href="structcimg__library__suffixed_1_1_c_img.html#a560dd5fe13a0b40fcf95e2ea7020381e" target="_top" xlink:title="Compute the logarithm of each pixel value . ">
<polygon fill="#ffffff" stroke="#000000" points="476,-98.5 476,-128.5 585,-128.5 585,-98.5 476,-98.5"/>
<text text-anchor="start" x="484" y="-116.5" font-family="Helvetica,sans-Serif" font-size="10.00" fill="#000000">cimg_library_suffixed</text>
<text text-anchor="middle" x="530.5" y="-105.5" font-family="Helvetica,sans-Serif" font-size="10.00" fill="#000000">::CImg::get_log</text>
</a>
</g>
</g>
<!-- Node3247&#45;&gt;Node3248 -->
<g id="edge5" class="edge">
<title>Node3247&#45;&gt;Node3248</title>
<path fill="none" stroke="#191970" d="M440.1797,-110.577C448.5495,-110.8479 457.1301,-111.1256 465.513,-111.3969"/>
<polygon fill="#191970" stroke="#191970" points="465.5048,-114.8983 475.6128,-111.7237 465.7312,-107.902 465.5048,-114.8983"/>
</g>
<!-- Node3250 -->
<g id="node8" class="node">
<title>Node3250</title>
<g id="a_node8"><a xlink:href="namespacecimg__library__suffixed_1_1cimg.html#af5cd3397f819c13ccb17e05a7db736b1" target="_top" xlink:title="Return a random variable uniformely distributed between [0,val_max]. ">
<polygon fill="#ffffff" stroke="#000000" points="476,-49.5 476,-79.5 585,-79.5 585,-49.5 476,-49.5"/>
<text text-anchor="start" x="484" y="-67.5" font-family="Helvetica,sans-Serif" font-size="10.00" fill="#000000">cimg_library_suffixed</text>
<text text-anchor="middle" x="530.5" y="-56.5" font-family="Helvetica,sans-Serif" font-size="10.00" fill="#000000">::cimg::rand</text>
</a>
</g>
</g>
<!-- Node3249&#45;&gt;Node3250 -->
<g id="edge7" class="edge">
<title>Node3249&#45;&gt;Node3250</title>
<path fill="none" stroke="#191970" d="M430.9059,-58.0075C442.1759,-57.7409 454.1401,-57.6813 465.7203,-57.8288"/>
<polygon fill="#191970" stroke="#191970" points="465.7088,-61.3291 475.7709,-58.0117 465.8362,-54.3302 465.7088,-61.3291"/>
</g>
<!-- Node3250&#45;&gt;Node3249 -->
<g id="edge8" class="edge">
<title>Node3250&#45;&gt;Node3249</title>
<path fill="none" stroke="#191970" d="M475.7709,-70.9883C464.5082,-71.2571 452.5456,-71.3188 440.9615,-71.1735"/>
<polygon fill="#191970" stroke="#191970" points="440.9673,-67.6731 430.9059,-70.9925 440.8413,-74.672 440.9673,-67.6731"/>
</g>
<!-- Node3252 -->
<g id="node10" class="node">
<title>Node3252</title>
<g id="a_node10"><a xlink:href="structcimg__library__suffixed_1_1_c_img.html#a550cfc014f80c68359d3b55a0d3803b9" target="_top" xlink:title="Compute the square root of each pixel value . ">
<polygon fill="#ffffff" stroke="#000000" points="476,-.5 476,-30.5 585,-30.5 585,-.5 476,-.5"/>
<text text-anchor="start" x="484" y="-18.5" font-family="Helvetica,sans-Serif" font-size="10.00" fill="#000000">cimg_library_suffixed</text>
<text text-anchor="middle" x="530.5" y="-7.5" font-family="Helvetica,sans-Serif" font-size="10.00" fill="#000000">::CImg::get_sqrt</text>
</a>
</g>
</g>
<!-- Node3251&#45;&gt;Node3252 -->
<g id="edge10" class="edge">
<title>Node3251&#45;&gt;Node3252</title>
<path fill="none" stroke="#191970" d="M430.9059,-15.5C442.1759,-15.5 454.1401,-15.5 465.7203,-15.5"/>
<polygon fill="#191970" stroke="#191970" points="465.7709,-19.0001 475.7709,-15.5 465.7708,-12.0001 465.7709,-19.0001"/>
</g>
</g>
</svg>
