<?xml version="1.0" encoding="UTF-8" standalone="no"?>
<!DOCTYPE svg PUBLIC "-//W3C//DTD SVG 1.1//EN"
 "http://www.w3.org/Graphics/SVG/1.1/DTD/svg11.dtd">
<!-- Generated by graphviz version 2.40.1 (20161225.0304)
 -->
<!-- Title: cimg_library_suffixed::cimg::openmp_mode Pages: 1 -->
<!--zoomable 176 -->
<svg id="main" version="1.1" xmlns="http://www.w3.org/2000/svg" xmlns:xlink="http://www.w3.org/1999/xlink" xml:space="preserve" onload="init(evt)">
<style type="text/css"><![CDATA[
.edge:hover path { stroke: red; }
.edge:hover polygon { stroke: red; fill: red; }
]]></style>
<script type="text/javascript"><![CDATA[
var edges = document.getElementsByTagName('g');
if (edges && edges.length) {
  for (var i=0;i<edges.length;i++) {
    if (edges[i].id.substr(0,4)=='edge') {
      edges[i].setAttribute('class','edge');
    }
  }
}
]]></script>
        <defs>
                <circle id="rim" cx="0" cy="0" r="7"/>
                <circle id="rim2" cx="0" cy="0" r="3.5"/>
                <g id="zoomPlus">
                        <use xlink:href="#rim" fill="#404040">
                                <set attributeName="fill" to="#808080" begin="zoomplus.mouseover" end="zoomplus.mouseout"/>
                        </use>
                        <path d="M-4,0h8M0,-4v8" fill="none" stroke="white" stroke-width="1.5" pointer-events="none"/>
                </g>
                <g id="zoomMin">
                        <use xlink:href="#rim" fill="#404040">
                                <set attributeName="fill" to="#808080" begin="zoomminus.mouseover" end="zoomminus.mouseout"/>
                        </use>
                        <path d="M-4,0h8" fill="none" stroke="white" stroke-width="1.5" pointer-events="none"/>
                </g>
                <g id="dirArrow">
                        <path fill="none" stroke="white" stroke-width="1.5" d="M0,-3.0v7 M-2.5,-0.5L0,-3.0L2.5,-0.5"/>
                </g>
               <g id="resetDef">
                       <use xlink:href="#rim2" fill="#404040">
                               <set attributeName="fill" to="#808080" begin="reset.mouseover" end="reset.mouseout"/>
                       </use>
               </g>
        </defs>

<script type="text/javascript">
var viewWidth = 735;
var viewHeight = 176;
var sectionId = 'dynsection-112';
</script>
<script xlink:href="svgpan.js"/>
<svg id="graph" class="graph">
<g id="viewport">
<title>cimg_library_suffixed::cimg::openmp_mode</title>
<polygon fill="#ffffff" stroke="transparent" points="-4,4 -4,-172 731,-172 731,4 -4,4"/>
<!-- Node2959 -->
<g id="node1" class="node">
<title>Node2959</title>
<polygon fill="#bfbfbf" stroke="#000000" points="0,-71.5 0,-101.5 113,-101.5 113,-71.5 0,-71.5"/>
<text text-anchor="start" x="8" y="-89.5" font-family="Helvetica,sans-Serif" font-size="10.00" fill="#000000">cimg_library_suffixed</text>
<text text-anchor="middle" x="56.5" y="-78.5" font-family="Helvetica,sans-Serif" font-size="10.00" fill="#000000">::cimg::openmp_mode</text>
</g>
<!-- Node2960 -->
<g id="node2" class="node">
<title>Node2960</title>
<g id="a_node2"><a xlink:href="namespacecimg__library__suffixed_1_1cimg.html#a2a1f404b2580ad14629ca49e7c5380e5" target="_top" xlink:title="Set current &#160;openmp mode. ">
<polygon fill="#ffffff" stroke="#000000" points="149,-71.5 149,-101.5 268,-101.5 268,-71.5 149,-71.5"/>
<text text-anchor="start" x="157" y="-89.5" font-family="Helvetica,sans-Serif" font-size="10.00" fill="#000000">cimg_library_suffixed</text>
<text text-anchor="middle" x="208.5" y="-78.5" font-family="Helvetica,sans-Serif" font-size="10.00" fill="#000000">::cimg::_openmp_mode</text>
</a>
</g>
</g>
<!-- Node2959&#45;&gt;Node2960 -->
<g id="edge1" class="edge">
<title>Node2959&#45;&gt;Node2960</title>
<path fill="none" stroke="#191970" d="M113.0992,-86.5C121.4712,-86.5 130.1798,-86.5 138.7804,-86.5"/>
<polygon fill="#191970" stroke="#191970" points="138.8006,-90.0001 148.8005,-86.5 138.8005,-83.0001 138.8006,-90.0001"/>
</g>
<!-- Node2961 -->
<g id="node3" class="node">
<title>Node2961</title>
<g id="a_node3"><a xlink:href="namespacecimg__library__suffixed_1_1cimg.html#a9e739e4b4ac058abfba069466617b914" target="_top" xlink:title="cimg_library_suffixed\l::cimg::mutex">
<polygon fill="#ffffff" stroke="#000000" points="304,-71.5 304,-101.5 413,-101.5 413,-71.5 304,-71.5"/>
<text text-anchor="start" x="312" y="-89.5" font-family="Helvetica,sans-Serif" font-size="10.00" fill="#000000">cimg_library_suffixed</text>
<text text-anchor="middle" x="358.5" y="-78.5" font-family="Helvetica,sans-Serif" font-size="10.00" fill="#000000">::cimg::mutex</text>
</a>
</g>
</g>
<!-- Node2960&#45;&gt;Node2961 -->
<g id="edge2" class="edge">
<title>Node2960&#45;&gt;Node2961</title>
<path fill="none" stroke="#191970" d="M268.215,-86.5C276.579,-86.5 285.2078,-86.5 293.6612,-86.5"/>
<polygon fill="#191970" stroke="#191970" points="293.8559,-90.0001 303.8559,-86.5 293.8558,-83.0001 293.8559,-90.0001"/>
</g>
<!-- Node2962 -->
<g id="node4" class="node">
<title>Node2962</title>
<g id="a_node4"><a xlink:href="structcimg__library__suffixed_1_1cimg_1_1_mutex__info.html#a6cc8e26847a1aa649febed03d70182e7" target="_top" xlink:title="cimg_library_suffixed\l::cimg::Mutex_info::lock">
<polygon fill="#ffffff" stroke="#000000" points="454.5,-137.5 454.5,-167.5 576.5,-167.5 576.5,-137.5 454.5,-137.5"/>
<text text-anchor="start" x="462.5" y="-155.5" font-family="Helvetica,sans-Serif" font-size="10.00" fill="#000000">cimg_library_suffixed</text>
<text text-anchor="middle" x="515.5" y="-144.5" font-family="Helvetica,sans-Serif" font-size="10.00" fill="#000000">::cimg::Mutex_info::lock</text>
</a>
</g>
</g>
<!-- Node2961&#45;&gt;Node2962 -->
<g id="edge3" class="edge">
<title>Node2961&#45;&gt;Node2962</title>
<path fill="none" stroke="#191970" d="M394.519,-101.6417C417.0569,-111.1163 446.2804,-123.4013 470.3593,-133.5237"/>
<polygon fill="#191970" stroke="#191970" points="469.0737,-136.7798 479.6486,-137.4287 471.7864,-130.3268 469.0737,-136.7798"/>
</g>
<!-- Node2963 -->
<g id="node5" class="node">
<title>Node2963</title>
<g id="a_node5"><a xlink:href="namespacecimg__library__suffixed_1_1cimg.html#aa0e1bc96ae6e235dc5b67b8b0a466166" target="_top" xlink:title="cimg_library_suffixed\l::cimg::Mutex_attr">
<polygon fill="#ffffff" stroke="#000000" points="618,-71.5 618,-101.5 727,-101.5 727,-71.5 618,-71.5"/>
<text text-anchor="start" x="626" y="-89.5" font-family="Helvetica,sans-Serif" font-size="10.00" fill="#000000">cimg_library_suffixed</text>
<text text-anchor="middle" x="672.5" y="-78.5" font-family="Helvetica,sans-Serif" font-size="10.00" fill="#000000">::cimg::Mutex_attr</text>
</a>
</g>
</g>
<!-- Node2961&#45;&gt;Node2963 -->
<g id="edge4" class="edge">
<title>Node2961&#45;&gt;Node2963</title>
<path fill="none" stroke="#191970" d="M413.0491,-88.6007C424.8995,-88.9753 437.3685,-89.3073 449,-89.5 508.103,-90.4793 522.897,-90.4793 582,-89.5 590.3602,-89.3615 599.1529,-89.151 607.8377,-88.9045"/>
<polygon fill="#191970" stroke="#191970" points="608.0605,-92.3995 617.9509,-88.6007 607.8502,-85.4026 608.0605,-92.3995"/>
</g>
<!-- Node2964 -->
<g id="node6" class="node">
<title>Node2964</title>
<g id="a_node6"><a xlink:href="structcimg__library__suffixed_1_1cimg_1_1_mutex__info.html#a9bf4ed1e1dfe6f28fa6250cd04f3c900" target="_top" xlink:title="cimg_library_suffixed\l::cimg::Mutex_info::trylock">
<polygon fill="#ffffff" stroke="#000000" points="449,-49.5 449,-79.5 582,-79.5 582,-49.5 449,-49.5"/>
<text text-anchor="start" x="457" y="-67.5" font-family="Helvetica,sans-Serif" font-size="10.00" fill="#000000">cimg_library_suffixed</text>
<text text-anchor="middle" x="515.5" y="-56.5" font-family="Helvetica,sans-Serif" font-size="10.00" fill="#000000">::cimg::Mutex_info::trylock</text>
</a>
</g>
</g>
<!-- Node2961&#45;&gt;Node2964 -->
<g id="edge5" class="edge">
<title>Node2961&#45;&gt;Node2964</title>
<path fill="none" stroke="#191970" d="M413.411,-78.8055C421.6098,-77.6566 430.187,-76.4547 438.7367,-75.2566"/>
<polygon fill="#191970" stroke="#191970" points="439.3189,-78.7093 448.7365,-73.8554 438.3475,-71.7771 439.3189,-78.7093"/>
</g>
<!-- Node2965 -->
<g id="node7" class="node">
<title>Node2965</title>
<g id="a_node7"><a xlink:href="structcimg__library__suffixed_1_1cimg_1_1_mutex__info.html#afac3fa5f107ad4795fb867050f616555" target="_top" xlink:title="cimg_library_suffixed\l::cimg::Mutex_info::unlock">
<polygon fill="#ffffff" stroke="#000000" points="449.5,-.5 449.5,-30.5 581.5,-30.5 581.5,-.5 449.5,-.5"/>
<text text-anchor="start" x="457.5" y="-18.5" font-family="Helvetica,sans-Serif" font-size="10.00" fill="#000000">cimg_library_suffixed</text>
<text text-anchor="middle" x="515.5" y="-7.5" font-family="Helvetica,sans-Serif" font-size="10.00" fill="#000000">::cimg::Mutex_info::unlock</text>
</a>
</g>
</g>
<!-- Node2961&#45;&gt;Node2965 -->
<g id="edge7" class="edge">
<title>Node2961&#45;&gt;Node2965</title>
<path fill="none" stroke="#191970" d="M386.2433,-71.3913C403.9588,-61.9965 427.5479,-49.9496 449,-40.5 453.746,-38.4094 458.727,-36.3311 463.7376,-34.3175"/>
<polygon fill="#191970" stroke="#191970" points="465.3284,-37.453 473.3561,-30.5387 462.7688,-30.9378 465.3284,-37.453"/>
</g>
<!-- Node2964&#45;&gt;Node2963 -->
<g id="edge6" class="edge">
<title>Node2964&#45;&gt;Node2963</title>
<path fill="none" stroke="#191970" d="M582.0821,-73.83C590.5193,-75.0123 599.1445,-76.2209 607.5556,-77.3995"/>
<polygon fill="#191970" stroke="#191970" points="607.293,-80.8968 617.682,-78.8185 608.2645,-73.9646 607.293,-80.8968"/>
</g>
</g>
</svg>
        <g id="navigator" transform="translate(0 0)" fill="#404254">
                <rect fill="#f2f5e9" fill-opacity="0.5" stroke="#606060" stroke-width=".5" x="0" y="0" width="60" height="60"/>
                <use id="zoomplus" xlink:href="#zoomPlus" x="17" y="9" onmousedown="handleZoom(evt,'in')"/>
                <use id="zoomminus" xlink:href="#zoomMin" x="42" y="9" onmousedown="handleZoom(evt,'out')"/>
                <use id="reset" xlink:href="#resetDef" x="30" y="36" onmousedown="handleReset()"/>
                <g id="arrowUp" xlink:href="#dirArrow" transform="translate(30 24)" onmousedown="handlePan(0,-1)">
                  <use xlink:href="#rim" fill="#404040">
                        <set attributeName="fill" to="#808080" begin="arrowUp.mouseover" end="arrowUp.mouseout"/>
                  </use>
                  <path fill="none" stroke="white" stroke-width="1.5" d="M0,-3.0v7 M-2.5,-0.5L0,-3.0L2.5,-0.5"/>
                </g>
                <g id="arrowRight" xlink:href="#dirArrow" transform="rotate(90) translate(36 -43)" onmousedown="handlePan(1,0)">
                  <use xlink:href="#rim" fill="#404040">
                        <set attributeName="fill" to="#808080" begin="arrowRight.mouseover" end="arrowRight.mouseout"/>
                  </use>
                  <path fill="none" stroke="white" stroke-width="1.5" d="M0,-3.0v7 M-2.5,-0.5L0,-3.0L2.5,-0.5"/>
                </g>
                <g id="arrowDown" xlink:href="#dirArrow" transform="rotate(180) translate(-30 -48)" onmousedown="handlePan(0,1)">
                  <use xlink:href="#rim" fill="#404040">
                        <set attributeName="fill" to="#808080" begin="arrowDown.mouseover" end="arrowDown.mouseout"/>
                  </use>
                  <path fill="none" stroke="white" stroke-width="1.5" d="M0,-3.0v7 M-2.5,-0.5L0,-3.0L2.5,-0.5"/>
                </g>
                <g id="arrowLeft" xlink:href="#dirArrow" transform="rotate(270) translate(-36 17)" onmousedown="handlePan(-1,0)">
                  <use xlink:href="#rim" fill="#404040">
                        <set attributeName="fill" to="#808080" begin="arrowLeft.mouseover" end="arrowLeft.mouseout"/>
                  </use>
                  <path fill="none" stroke="white" stroke-width="1.5" d="M0,-3.0v7 M-2.5,-0.5L0,-3.0L2.5,-0.5"/>
                </g>
        </g>
        <svg viewBox="0 0 15 15" width="100%" height="30px" preserveAspectRatio="xMaxYMin meet">
         <g id="arrow_out" transform="scale(0.3 0.3)">
          <a xlink:href="namespacecimg__library__suffixed_1_1cimg_aca7e3fd74620730af7d4ae96a22f8dd6_cgraph_org.svg" target="_base">
           <rect id="button" ry="5" rx="5" y="6" x="6" height="38" width="38"
                fill="#f2f5e9" fill-opacity="0.5" stroke="#606060" stroke-width="1.0"/>
           <path id="arrow"
             d="M 11.500037,31.436501 C 11.940474,20.09759 22.043105,11.32322 32.158766,21.979434 L 37.068811,17.246167 C 37.068811,17.246167 37.088388,32 37.088388,32 L 22.160133,31.978069 C 22.160133,31.978069 26.997745,27.140456 26.997745,27.140456 C 18.528582,18.264221 13.291696,25.230495 11.500037,31.436501 z"
             style="fill:#404040;"/>
          </a>
         </g>
        </svg>
</svg>
