<?xml version="1.0" encoding="UTF-8" standalone="no"?>
<!DOCTYPE svg PUBLIC "-//W3C//DTD SVG 1.1//EN"
 "http://www.w3.org/Graphics/SVG/1.1/DTD/svg11.dtd">
<!-- Generated by graphviz version 2.40.1 (20161225.0304)
 -->
<!-- Title: cimg_library_suffixed::cimg::date Pages: 1 -->
<svg width="291pt" height="100pt"
 viewBox="0.00 0.00 291.00 99.50" xmlns="http://www.w3.org/2000/svg" xmlns:xlink="http://www.w3.org/1999/xlink">
<g id="graph0" class="graph" transform="scale(1 1) rotate(0) translate(4 95.5)">
<title>cimg_library_suffixed::cimg::date</title>
<polygon fill="#ffffff" stroke="transparent" points="-4,4 -4,-95.5 287,-95.5 287,4 -4,4"/>
<!-- Node876 -->
<g id="node1" class="node">
<title>Node876</title>
<polygon fill="#bfbfbf" stroke="#000000" points="0,-33 0,-63 109,-63 109,-33 0,-33"/>
<text text-anchor="start" x="8" y="-51" font-family="Helvetica,sans-Serif" font-size="10.00" fill="#000000">cimg_library_suffixed</text>
<text text-anchor="middle" x="54.5" y="-40" font-family="Helvetica,sans-Serif" font-size="10.00" fill="#000000">::cimg::date</text>
</g>
<!-- Node877 -->
<g id="node2" class="node">
<title>Node877</title>
<g id="a_node2"><a xlink:href="namespacecimg__library__suffixed_1_1cimg.html#aac739bf544269324a04504ebe92b93e9" target="_top" xlink:title="Get current local time (single&#45;attribute version). ">
<polygon fill="#ffffff" stroke="#000000" points="159.5,-61 159.5,-91 268.5,-91 268.5,-61 159.5,-61"/>
<text text-anchor="start" x="167.5" y="-79" font-family="Helvetica,sans-Serif" font-size="10.00" fill="#000000">cimg_library_suffixed</text>
<text text-anchor="middle" x="214" y="-68" font-family="Helvetica,sans-Serif" font-size="10.00" fill="#000000">::cimg::date</text>
</a>
</g>
</g>
<!-- Node876&#45;&gt;Node877 -->
<g id="edge1" class="edge">
<title>Node876&#45;&gt;Node877</title>
<path fill="none" stroke="#191970" d="M119.3814,-59.3898C132.6237,-61.7145 146.433,-64.1387 159.2783,-66.3937"/>
<polygon fill="#191970" stroke="#191970" points="119.8454,-55.9179 109.3909,-57.636 118.635,-62.8124 119.8454,-55.9179"/>
</g>
<!-- Node878 -->
<g id="node3" class="node">
<title>Node878</title>
<g id="a_node3"><a xlink:href="structcimg__library__suffixed_1_1_c_img_1_1__cimg__math__parser.html#a7d33acc96b377e03eb46ff759bd91d11" target="_top" xlink:title="cimg_library_suffixed\l::CImg::_cimg_math_parser\l::mp_date">
<polygon fill="#ffffff" stroke="#000000" points="145,-.5 145,-41.5 283,-41.5 283,-.5 145,-.5"/>
<text text-anchor="start" x="153" y="-29.5" font-family="Helvetica,sans-Serif" font-size="10.00" fill="#000000">cimg_library_suffixed</text>
<text text-anchor="start" x="153" y="-18.5" font-family="Helvetica,sans-Serif" font-size="10.00" fill="#000000">::CImg::_cimg_math_parser</text>
<text text-anchor="middle" x="214" y="-7.5" font-family="Helvetica,sans-Serif" font-size="10.00" fill="#000000">::mp_date</text>
</a>
</g>
</g>
<!-- Node876&#45;&gt;Node878 -->
<g id="edge2" class="edge">
<title>Node876&#45;&gt;Node878</title>
<path fill="none" stroke="#191970" d="M119.4793,-37.0004C127.8632,-35.5811 136.4728,-34.1237 144.9198,-32.6938"/>
<polygon fill="#191970" stroke="#191970" points="118.6664,-33.5881 109.3909,-38.7081 119.8348,-40.4899 118.6664,-33.5881"/>
</g>
</g>
</svg>
