<?xml version="1.0" encoding="UTF-8" standalone="no"?>
<!DOCTYPE svg PUBLIC "-//W3C//DTD SVG 1.1//EN"
 "http://www.w3.org/Graphics/SVG/1.1/DTD/svg11.dtd">
<!-- Generated by graphviz version 2.40.1 (20161225.0304)
 -->
<!-- Title: cimg_library_suffixed::cimg::gzip_path Pages: 1 -->
<svg width="269pt" height="160pt"
 viewBox="0.00 0.00 269.00 159.50" xmlns="http://www.w3.org/2000/svg" xmlns:xlink="http://www.w3.org/1999/xlink">
<g id="graph0" class="graph" transform="scale(1 1) rotate(0) translate(4 155.5)">
<title>cimg_library_suffixed::cimg::gzip_path</title>
<polygon fill="#ffffff" stroke="transparent" points="-4,4 -4,-155.5 265,-155.5 265,4 -4,4"/>
<!-- Node1864 -->
<g id="node1" class="node">
<title>Node1864</title>
<polygon fill="#bfbfbf" stroke="#000000" points="0,-66 0,-96 109,-96 109,-66 0,-66"/>
<text text-anchor="start" x="8" y="-84" font-family="Helvetica,sans-Serif" font-size="10.00" fill="#000000">cimg_library_suffixed</text>
<text text-anchor="middle" x="54.5" y="-73" font-family="Helvetica,sans-Serif" font-size="10.00" fill="#000000">::cimg::gzip_path</text>
</g>
<!-- Node1865 -->
<g id="node2" class="node">
<title>Node1865</title>
<g id="a_node2"><a xlink:href="namespacecimg__library__suffixed_1_1cimg.html#aac739bf544269324a04504ebe92b93e9" target="_top" xlink:title="Get current local time (single&#45;attribute version). ">
<polygon fill="#ffffff" stroke="#000000" points="148.5,-121 148.5,-151 257.5,-151 257.5,-121 148.5,-121"/>
<text text-anchor="start" x="156.5" y="-139" font-family="Helvetica,sans-Serif" font-size="10.00" fill="#000000">cimg_library_suffixed</text>
<text text-anchor="middle" x="203" y="-128" font-family="Helvetica,sans-Serif" font-size="10.00" fill="#000000">::cimg::date</text>
</a>
</g>
</g>
<!-- Node1864&#45;&gt;Node1865 -->
<g id="edge1" class="edge">
<title>Node1864&#45;&gt;Node1865</title>
<path fill="none" stroke="#191970" d="M104.6795,-99.585C123.4997,-106.5555 144.6336,-114.3828 162.4708,-120.9892"/>
<polygon fill="#191970" stroke="#191970" points="105.6714,-96.2201 95.0783,-96.029 103.2401,-102.7843 105.6714,-96.2201"/>
</g>
<!-- Node1866 -->
<g id="node3" class="node">
<title>Node1866</title>
<g id="a_node3"><a xlink:href="structcimg__library__suffixed_1_1_c_img.html#a53983bb4f1ebe2a817b68029b8c04cb1" target="_top" xlink:title="Save image using gzip external binary. ">
<polygon fill="#ffffff" stroke="#000000" points="145,-60.5 145,-101.5 261,-101.5 261,-60.5 145,-60.5"/>
<text text-anchor="start" x="153" y="-89.5" font-family="Helvetica,sans-Serif" font-size="10.00" fill="#000000">cimg_library_suffixed</text>
<text text-anchor="start" x="153" y="-78.5" font-family="Helvetica,sans-Serif" font-size="10.00" fill="#000000">::CImg&lt; charT &gt;::save</text>
<text text-anchor="middle" x="203" y="-67.5" font-family="Helvetica,sans-Serif" font-size="10.00" fill="#000000">_gzip_external</text>
</a>
</g>
</g>
<!-- Node1864&#45;&gt;Node1866 -->
<g id="edge2" class="edge">
<title>Node1864&#45;&gt;Node1866</title>
<path fill="none" stroke="#191970" d="M119.544,-81C127.9714,-81 136.5594,-81 144.8648,-81"/>
<polygon fill="#191970" stroke="#191970" points="119.374,-77.5001 109.374,-81 119.374,-84.5001 119.374,-77.5001"/>
</g>
<!-- Node1867 -->
<g id="node4" class="node">
<title>Node1867</title>
<g id="a_node4"><a xlink:href="structcimg__library__suffixed_1_1_c_img_list.html#aad5afe8b913e276dd281255dd787b4ba" target="_top" xlink:title="Save list as a gzipped file, using external tool &#39;gzip&#39;. ">
<polygon fill="#ffffff" stroke="#000000" points="147.5,-.5 147.5,-41.5 258.5,-41.5 258.5,-.5 147.5,-.5"/>
<text text-anchor="start" x="155.5" y="-29.5" font-family="Helvetica,sans-Serif" font-size="10.00" fill="#000000">cimg_library_suffixed</text>
<text text-anchor="start" x="155.5" y="-18.5" font-family="Helvetica,sans-Serif" font-size="10.00" fill="#000000">::CImgList&lt; charT &gt;::</text>
<text text-anchor="middle" x="203" y="-7.5" font-family="Helvetica,sans-Serif" font-size="10.00" fill="#000000">save_gzip_external</text>
</a>
</g>
</g>
<!-- Node1864&#45;&gt;Node1867 -->
<g id="edge3" class="edge">
<title>Node1864&#45;&gt;Node1867</title>
<path fill="none" stroke="#191970" d="M101.6828,-61.9362C117.7356,-55.4503 135.7441,-48.1741 152.0765,-41.5751"/>
<polygon fill="#191970" stroke="#191970" points="99.9334,-58.8681 91.9728,-65.8595 102.5558,-65.3584 99.9334,-58.8681"/>
</g>
</g>
</svg>
