<?xml version="1.0" encoding="UTF-8" standalone="no"?>
<!DOCTYPE svg PUBLIC "-//W3C//DTD SVG 1.1//EN"
 "http://www.w3.org/Graphics/SVG/1.1/DTD/svg11.dtd">
<!-- Generated by graphviz version 2.40.1 (20161225.0304)
 -->
<!-- Title: cimg_library_suffixed::cimg::load_network Pages: 1 -->
<!--zoomable 1389 -->
<svg id="main" version="1.1" xmlns="http://www.w3.org/2000/svg" xmlns:xlink="http://www.w3.org/1999/xlink" xml:space="preserve" onload="init(evt)">
<style type="text/css"><![CDATA[
.edge:hover path { stroke: red; }
.edge:hover polygon { stroke: red; fill: red; }
]]></style>
<script type="text/javascript"><![CDATA[
var edges = document.getElementsByTagName('g');
if (edges && edges.length) {
  for (var i=0;i<edges.length;i++) {
    if (edges[i].id.substr(0,4)=='edge') {
      edges[i].setAttribute('class','edge');
    }
  }
}
]]></script>
        <defs>
                <circle id="rim" cx="0" cy="0" r="7"/>
                <circle id="rim2" cx="0" cy="0" r="3.5"/>
                <g id="zoomPlus">
                        <use xlink:href="#rim" fill="#404040">
                                <set attributeName="fill" to="#808080" begin="zoomplus.mouseover" end="zoomplus.mouseout"/>
                        </use>
                        <path d="M-4,0h8M0,-4v8" fill="none" stroke="white" stroke-width="1.5" pointer-events="none"/>
                </g>
                <g id="zoomMin">
                        <use xlink:href="#rim" fill="#404040">
                                <set attributeName="fill" to="#808080" begin="zoomminus.mouseover" end="zoomminus.mouseout"/>
                        </use>
                        <path d="M-4,0h8" fill="none" stroke="white" stroke-width="1.5" pointer-events="none"/>
                </g>
                <g id="dirArrow">
                        <path fill="none" stroke="white" stroke-width="1.5" d="M0,-3.0v7 M-2.5,-0.5L0,-3.0L2.5,-0.5"/>
                </g>
               <g id="resetDef">
                       <use xlink:href="#rim2" fill="#404040">
                               <set attributeName="fill" to="#808080" begin="reset.mouseover" end="reset.mouseout"/>
                       </use>
               </g>
        </defs>

<script type="text/javascript">
var viewWidth = 466;
var viewHeight = 1389;
var sectionId = 'dynsection-86';
</script>
<script xlink:href="svgpan.js"/>
<svg id="graph" class="graph">
<g id="viewport">
<title>cimg_library_suffixed::cimg::load_network</title>
<polygon fill="#ffffff" stroke="transparent" points="-4,4 -4,-1384.5 462,-1384.5 462,4 -4,4"/>
<!-- Node2010 -->
<g id="node1" class="node">
<title>Node2010</title>
<polygon fill="#bfbfbf" stroke="#000000" points="0,-665 0,-695 109,-695 109,-665 0,-665"/>
<text text-anchor="start" x="8" y="-683" font-family="Helvetica,sans-Serif" font-size="10.00" fill="#000000">cimg_library_suffixed</text>
<text text-anchor="middle" x="54.5" y="-672" font-family="Helvetica,sans-Serif" font-size="10.00" fill="#000000">::cimg::load_network</text>
</g>
<!-- Node2011 -->
<g id="node2" class="node">
<title>Node2011</title>
<g id="a_node2"><a xlink:href="namespacecimg__library__suffixed_1_1cimg.html#a0f3577978081461118330fc3ecd4b9db" target="_top" xlink:title="Create an empty file. ">
<polygon fill="#ffffff" stroke="#000000" points="155,-714 155,-744 264,-744 264,-714 155,-714"/>
<text text-anchor="start" x="163" y="-732" font-family="Helvetica,sans-Serif" font-size="10.00" fill="#000000">cimg_library_suffixed</text>
<text text-anchor="middle" x="209.5" y="-721" font-family="Helvetica,sans-Serif" font-size="10.00" fill="#000000">::cimg::fempty</text>
</a>
</g>
</g>
<!-- Node2010&#45;&gt;Node2011 -->
<g id="edge1" class="edge">
<title>Node2010&#45;&gt;Node2011</title>
<path fill="none" stroke="#191970" d="M112.2583,-698.2591C128.6067,-703.4273 146.2107,-708.9924 161.8879,-713.9484"/>
<polygon fill="#191970" stroke="#191970" points="112.8598,-694.7785 102.2699,-695.1014 110.7497,-701.453 112.8598,-694.7785"/>
</g>
<!-- Node2038 -->
<g id="node29" class="node">
<title>Node2038</title>
<g id="a_node29"><a xlink:href="structcimg__library__suffixed_1_1_c_img.html#ae8353b28bfbc5c4421c7adfbb98fe32f" target="_top" xlink:title="Load image from a file. ">
<polygon fill="#ffffff" stroke="#000000" points="153,-665 153,-695 266,-695 266,-665 153,-665"/>
<text text-anchor="start" x="161" y="-683" font-family="Helvetica,sans-Serif" font-size="10.00" fill="#000000">cimg_library_suffixed</text>
<text text-anchor="middle" x="209.5" y="-672" font-family="Helvetica,sans-Serif" font-size="10.00" fill="#000000">::CImg&lt; charT &gt;::load</text>
</a>
</g>
</g>
<!-- Node2010&#45;&gt;Node2038 -->
<g id="edge28" class="edge">
<title>Node2010&#45;&gt;Node2038</title>
<path fill="none" stroke="#191970" d="M119.2941,-680C130.4844,-680 142.0381,-680 152.9873,-680"/>
<polygon fill="#191970" stroke="#191970" points="119.1472,-676.5001 109.1472,-680 119.1472,-683.5001 119.1472,-676.5001"/>
</g>
<!-- Node2039 -->
<g id="node30" class="node">
<title>Node2039</title>
<g id="a_node30"><a xlink:href="structcimg__library__suffixed_1_1_c_img_list.html#a63bd67d8dd2301933df7decb4612916e" target="_top" xlink:title="Load a list from a file. ">
<polygon fill="#ffffff" stroke="#000000" points="145,-616 145,-646 274,-646 274,-616 145,-616"/>
<text text-anchor="start" x="153" y="-634" font-family="Helvetica,sans-Serif" font-size="10.00" fill="#000000">cimg_library_suffixed</text>
<text text-anchor="middle" x="209.5" y="-623" font-family="Helvetica,sans-Serif" font-size="10.00" fill="#000000">::CImgList&lt; charT &gt;::load</text>
</a>
</g>
</g>
<!-- Node2010&#45;&gt;Node2039 -->
<g id="edge29" class="edge">
<title>Node2010&#45;&gt;Node2039</title>
<path fill="none" stroke="#191970" d="M112.2583,-661.7409C128.6067,-656.5727 146.2107,-651.0076 161.8879,-646.0516"/>
<polygon fill="#191970" stroke="#191970" points="110.7497,-658.547 102.2699,-664.8986 112.8598,-665.2215 110.7497,-658.547"/>
</g>
<!-- Node2012 -->
<g id="node3" class="node">
<title>Node2012</title>
<g id="a_node3"><a xlink:href="structcimg__library__suffixed_1_1_c_img.html#ae9faefb948746c5d646fe5c80f28c4fc" target="_top" xlink:title="cimg_library_suffixed\l::CImg\&lt; charT \&gt;::_save_bmp">
<polygon fill="#ffffff" stroke="#000000" points="311,-1350 311,-1380 457,-1380 457,-1350 311,-1350"/>
<text text-anchor="start" x="319" y="-1368" font-family="Helvetica,sans-Serif" font-size="10.00" fill="#000000">cimg_library_suffixed</text>
<text text-anchor="middle" x="384" y="-1357" font-family="Helvetica,sans-Serif" font-size="10.00" fill="#000000">::CImg&lt; charT &gt;::_save_bmp</text>
</a>
</g>
</g>
<!-- Node2011&#45;&gt;Node2012 -->
<g id="edge2" class="edge">
<title>Node2011&#45;&gt;Node2012</title>
<path fill="none" stroke="#191970" d="M210.2405,-754.1787C213.784,-857.8508 232.2123,-1250.494 310,-1341 312.9051,-1344.3801 316.2909,-1347.2876 319.9851,-1349.7881"/>
<polygon fill="#191970" stroke="#191970" points="213.7336,-753.9066 209.9103,-744.0257 206.7373,-754.1342 213.7336,-753.9066"/>
</g>
<!-- Node2013 -->
<g id="node4" class="node">
<title>Node2013</title>
<g id="a_node4"><a xlink:href="structcimg__library__suffixed_1_1_c_img.html#a78929d9b9d2af829f3e3fc576e99b61d" target="_top" xlink:title="cimg_library_suffixed\l::CImg\&lt; charT \&gt;::_save_dlm">
<polygon fill="#ffffff" stroke="#000000" points="312.5,-1301 312.5,-1331 455.5,-1331 455.5,-1301 312.5,-1301"/>
<text text-anchor="start" x="320.5" y="-1319" font-family="Helvetica,sans-Serif" font-size="10.00" fill="#000000">cimg_library_suffixed</text>
<text text-anchor="middle" x="384" y="-1308" font-family="Helvetica,sans-Serif" font-size="10.00" fill="#000000">::CImg&lt; charT &gt;::_save_dlm</text>
</a>
</g>
</g>
<!-- Node2011&#45;&gt;Node2013 -->
<g id="edge3" class="edge">
<title>Node2011&#45;&gt;Node2013</title>
<path fill="none" stroke="#191970" d="M210.6446,-754.3573C215.5909,-852.9879 238.2313,-1209.6604 310,-1292 313.0172,-1295.4617 316.5383,-1298.4272 320.3762,-1300.9672"/>
<polygon fill="#191970" stroke="#191970" points="214.1292,-753.9531 210.1497,-744.134 207.1374,-754.2916 214.1292,-753.9531"/>
</g>
<!-- Node2014 -->
<g id="node5" class="node">
<title>Node2014</title>
<g id="a_node5"><a xlink:href="structcimg__library__suffixed_1_1_c_img.html#aa29c8a2179f282535660800f9b9192e0" target="_top" xlink:title="cimg_library_suffixed\l::CImg\&lt; charT \&gt;::_save_inr">
<polygon fill="#ffffff" stroke="#000000" points="315.5,-1252 315.5,-1282 452.5,-1282 452.5,-1252 315.5,-1252"/>
<text text-anchor="start" x="323.5" y="-1270" font-family="Helvetica,sans-Serif" font-size="10.00" fill="#000000">cimg_library_suffixed</text>
<text text-anchor="middle" x="384" y="-1259" font-family="Helvetica,sans-Serif" font-size="10.00" fill="#000000">::CImg&lt; charT &gt;::_save_inr</text>
</a>
</g>
</g>
<!-- Node2011&#45;&gt;Node2014 -->
<g id="edge4" class="edge">
<title>Node2011&#45;&gt;Node2014</title>
<path fill="none" stroke="#191970" d="M211.1077,-754.2325C217.516,-847.15 244.1549,-1168.6986 310,-1243 313.0456,-1246.4367 316.5875,-1249.3839 320.4402,-1251.911"/>
<polygon fill="#191970" stroke="#191970" points="214.5873,-753.8096 210.4253,-744.0665 207.603,-754.2785 214.5873,-753.8096"/>
</g>
<!-- Node2015 -->
<g id="node6" class="node">
<title>Node2015</title>
<g id="a_node6"><a xlink:href="structcimg__library__suffixed_1_1_c_img.html#aa41e292505817af60a4896ed19302304" target="_top" xlink:title="cimg_library_suffixed\l::CImg\&lt; charT \&gt;::_save_jpeg">
<polygon fill="#ffffff" stroke="#000000" points="311.5,-1203 311.5,-1233 456.5,-1233 456.5,-1203 311.5,-1203"/>
<text text-anchor="start" x="319.5" y="-1221" font-family="Helvetica,sans-Serif" font-size="10.00" fill="#000000">cimg_library_suffixed</text>
<text text-anchor="middle" x="384" y="-1210" font-family="Helvetica,sans-Serif" font-size="10.00" fill="#000000">::CImg&lt; charT &gt;::_save_jpeg</text>
</a>
</g>
</g>
<!-- Node2011&#45;&gt;Node2015 -->
<g id="edge5" class="edge">
<title>Node2011&#45;&gt;Node2015</title>
<path fill="none" stroke="#191970" d="M211.722,-754.2786C219.8479,-841.265 250.6246,-1126.5389 310,-1193 313.4331,-1196.8428 317.4775,-1200.0956 321.8761,-1202.849"/>
<polygon fill="#191970" stroke="#191970" points="215.2,-753.8776 210.8032,-744.2382 208.2291,-754.5155 215.2,-753.8776"/>
</g>
<!-- Node2016 -->
<g id="node7" class="node">
<title>Node2016</title>
<g id="a_node7"><a xlink:href="structcimg__library__suffixed_1_1_c_img.html#a01931f2bad5c72da454d990ebcf55f94" target="_top" xlink:title="cimg_library_suffixed\l::CImg\&lt; charT \&gt;::_save\l_pandore">
<polygon fill="#ffffff" stroke="#000000" points="323,-1142.5 323,-1183.5 445,-1183.5 445,-1142.5 323,-1142.5"/>
<text text-anchor="start" x="331" y="-1171.5" font-family="Helvetica,sans-Serif" font-size="10.00" fill="#000000">cimg_library_suffixed</text>
<text text-anchor="start" x="331" y="-1160.5" font-family="Helvetica,sans-Serif" font-size="10.00" fill="#000000">::CImg&lt; charT &gt;::_save</text>
<text text-anchor="middle" x="384" y="-1149.5" font-family="Helvetica,sans-Serif" font-size="10.00" fill="#000000">_pandore</text>
</a>
</g>
</g>
<!-- Node2011&#45;&gt;Node2016 -->
<g id="edge6" class="edge">
<title>Node2011&#45;&gt;Node2016</title>
<path fill="none" stroke="#191970" d="M212.7864,-754.4646C223.4842,-833.83 259.5543,-1074.8681 310,-1133 313.7252,-1137.2928 318.1553,-1140.98 322.9689,-1144.1456"/>
<polygon fill="#191970" stroke="#191970" points="216.2325,-753.8268 211.4464,-744.3746 209.2934,-754.7484 216.2325,-753.8268"/>
</g>
<!-- Node2017 -->
<g id="node8" class="node">
<title>Node2017</title>
<g id="a_node8"><a xlink:href="structcimg__library__suffixed_1_1_c_img.html#a65be74d7d22bb71e708b3beb8e9cae49" target="_top" xlink:title="cimg_library_suffixed\l::CImg\&lt; charT \&gt;::_save_pfm">
<polygon fill="#ffffff" stroke="#000000" points="312.5,-1093 312.5,-1123 455.5,-1123 455.5,-1093 312.5,-1093"/>
<text text-anchor="start" x="320.5" y="-1111" font-family="Helvetica,sans-Serif" font-size="10.00" fill="#000000">cimg_library_suffixed</text>
<text text-anchor="middle" x="384" y="-1100" font-family="Helvetica,sans-Serif" font-size="10.00" fill="#000000">::CImg&lt; charT &gt;::_save_pfm</text>
</a>
</g>
</g>
<!-- Node2011&#45;&gt;Node2017 -->
<g id="edge7" class="edge">
<title>Node2011&#45;&gt;Node2017</title>
<path fill="none" stroke="#191970" d="M213.5138,-754.3565C225.5317,-827.2917 263.3017,-1035.5051 310,-1084 313.2789,-1087.405 317.0444,-1090.3276 321.1022,-1092.836"/>
<polygon fill="#191970" stroke="#191970" points="216.9276,-753.5427 211.8689,-744.2336 210.0182,-754.6655 216.9276,-753.5427"/>
</g>
<!-- Node2018 -->
<g id="node9" class="node">
<title>Node2018</title>
<g id="a_node9"><a xlink:href="structcimg__library__suffixed_1_1_c_img.html#aab5e304310373159e357250314e99da6" target="_top" xlink:title="cimg_library_suffixed\l::CImg\&lt; charT \&gt;::_save_png">
<polygon fill="#ffffff" stroke="#000000" points="312.5,-1044 312.5,-1074 455.5,-1074 455.5,-1044 312.5,-1044"/>
<text text-anchor="start" x="320.5" y="-1062" font-family="Helvetica,sans-Serif" font-size="10.00" fill="#000000">cimg_library_suffixed</text>
<text text-anchor="middle" x="384" y="-1051" font-family="Helvetica,sans-Serif" font-size="10.00" fill="#000000">::CImg&lt; charT &gt;::_save_png</text>
</a>
</g>
</g>
<!-- Node2011&#45;&gt;Node2018 -->
<g id="edge8" class="edge">
<title>Node2011&#45;&gt;Node2018</title>
<path fill="none" stroke="#191970" d="M214.7311,-754.3235C228.7895,-820.1305 269.0993,-994.2508 310,-1035 313.4444,-1038.4317 317.3835,-1041.3728 321.61,-1043.8935"/>
<polygon fill="#191970" stroke="#191970" points="218.1224,-753.4428 212.6317,-744.3818 211.2734,-754.8892 218.1224,-753.4428"/>
</g>
<!-- Node2019 -->
<g id="node10" class="node">
<title>Node2019</title>
<g id="a_node10"><a xlink:href="structcimg__library__suffixed_1_1_c_img.html#a4bcf33abcee45165d20d9530f6c85242" target="_top" xlink:title="cimg_library_suffixed\l::CImg\&lt; charT \&gt;::_save_pnk">
<polygon fill="#ffffff" stroke="#000000" points="312.5,-995 312.5,-1025 455.5,-1025 455.5,-995 312.5,-995"/>
<text text-anchor="start" x="320.5" y="-1013" font-family="Helvetica,sans-Serif" font-size="10.00" fill="#000000">cimg_library_suffixed</text>
<text text-anchor="middle" x="384" y="-1002" font-family="Helvetica,sans-Serif" font-size="10.00" fill="#000000">::CImg&lt; charT &gt;::_save_pnk</text>
</a>
</g>
</g>
<!-- Node2011&#45;&gt;Node2019 -->
<g id="edge9" class="edge">
<title>Node2011&#45;&gt;Node2019</title>
<path fill="none" stroke="#191970" d="M212.2508,-754.3995C219.1404,-805.5836 241.7922,-921.7117 310,-986 313.6365,-989.4275 317.7676,-992.3656 322.1745,-994.8842"/>
<polygon fill="#191970" stroke="#191970" points="215.6925,-753.7152 210.977,-744.2276 208.7468,-754.585 215.6925,-753.7152"/>
</g>
<!-- Node2020 -->
<g id="node11" class="node">
<title>Node2020</title>
<g id="a_node11"><a xlink:href="structcimg__library__suffixed_1_1_c_img.html#a3b62455c9523881fa64a47d8362c3d80" target="_top" xlink:title="cimg_library_suffixed\l::CImg\&lt; charT \&gt;::_save_pnm">
<polygon fill="#ffffff" stroke="#000000" points="311,-946 311,-976 457,-976 457,-946 311,-946"/>
<text text-anchor="start" x="319" y="-964" font-family="Helvetica,sans-Serif" font-size="10.00" fill="#000000">cimg_library_suffixed</text>
<text text-anchor="middle" x="384" y="-953" font-family="Helvetica,sans-Serif" font-size="10.00" fill="#000000">::CImg&lt; charT &gt;::_save_pnm</text>
</a>
</g>
</g>
<!-- Node2011&#45;&gt;Node2020 -->
<g id="edge10" class="edge">
<title>Node2011&#45;&gt;Node2020</title>
<path fill="none" stroke="#191970" d="M214.8118,-754.0579C225.3232,-797.5655 252.8768,-887.1853 310,-937 313.9699,-940.4619 318.4476,-943.4261 323.1863,-945.9638"/>
<polygon fill="#191970" stroke="#191970" points="218.1594,-752.9985 212.499,-744.0424 211.3389,-754.5736 218.1594,-752.9985"/>
</g>
<!-- Node2021 -->
<g id="node12" class="node">
<title>Node2021</title>
<g id="a_node12"><a xlink:href="structcimg__library__suffixed_1_1_c_img.html#a069feb3e722bb4a1f52ea72c1c86ca97" target="_top" xlink:title="cimg_library_suffixed\l::CImg\&lt; charT \&gt;::_save_raw">
<polygon fill="#ffffff" stroke="#000000" points="312.5,-897 312.5,-927 455.5,-927 455.5,-897 312.5,-897"/>
<text text-anchor="start" x="320.5" y="-915" font-family="Helvetica,sans-Serif" font-size="10.00" fill="#000000">cimg_library_suffixed</text>
<text text-anchor="middle" x="384" y="-904" font-family="Helvetica,sans-Serif" font-size="10.00" fill="#000000">::CImg&lt; charT &gt;::_save_raw</text>
</a>
</g>
</g>
<!-- Node2011&#45;&gt;Node2021 -->
<g id="edge11" class="edge">
<title>Node2011&#45;&gt;Node2021</title>
<path fill="none" stroke="#191970" d="M218.7054,-753.593C232.9904,-788.4805 263.7573,-852.0832 310,-888 314.3733,-891.3967 319.2439,-894.3211 324.3402,-896.8372"/>
<polygon fill="#191970" stroke="#191970" points="221.9013,-752.1577 214.9578,-744.1552 215.3954,-754.741 221.9013,-752.1577"/>
</g>
<!-- Node2022 -->
<g id="node13" class="node">
<title>Node2022</title>
<g id="a_node13"><a xlink:href="structcimg__library__suffixed_1_1_c_img.html#a06c5e27c1dde885a96cfdad05835644e" target="_top" xlink:title="cimg_library_suffixed\l::CImg\&lt; charT \&gt;::_save_rgb">
<polygon fill="#ffffff" stroke="#000000" points="314,-848 314,-878 454,-878 454,-848 314,-848"/>
<text text-anchor="start" x="322" y="-866" font-family="Helvetica,sans-Serif" font-size="10.00" fill="#000000">cimg_library_suffixed</text>
<text text-anchor="middle" x="384" y="-855" font-family="Helvetica,sans-Serif" font-size="10.00" fill="#000000">::CImg&lt; charT &gt;::_save_rgb</text>
</a>
</g>
</g>
<!-- Node2011&#45;&gt;Node2022 -->
<g id="edge12" class="edge">
<title>Node2011&#45;&gt;Node2022</title>
<path fill="none" stroke="#191970" d="M225.3307,-752.5672C243.1655,-777.4079 274.3585,-816.0512 310,-839 315.2236,-842.3634 320.9593,-845.2929 326.8543,-847.836"/>
<polygon fill="#191970" stroke="#191970" points="227.9921,-750.2668 219.3808,-744.0945 222.2635,-754.2896 227.9921,-750.2668"/>
</g>
<!-- Node2023 -->
<g id="node14" class="node">
<title>Node2023</title>
<g id="a_node14"><a xlink:href="structcimg__library__suffixed_1_1_c_img.html#a974a21a1c7242ff9b08e4590701d920d" target="_top" xlink:title="cimg_library_suffixed\l::CImg\&lt; charT \&gt;::_save_rgba">
<polygon fill="#ffffff" stroke="#000000" points="311,-799 311,-829 457,-829 457,-799 311,-799"/>
<text text-anchor="start" x="319" y="-817" font-family="Helvetica,sans-Serif" font-size="10.00" fill="#000000">cimg_library_suffixed</text>
<text text-anchor="middle" x="384" y="-806" font-family="Helvetica,sans-Serif" font-size="10.00" fill="#000000">::CImg&lt; charT &gt;::_save_rgba</text>
</a>
</g>
</g>
<!-- Node2011&#45;&gt;Node2023 -->
<g id="edge13" class="edge">
<title>Node2011&#45;&gt;Node2023</title>
<path fill="none" stroke="#191970" d="M239.9503,-749.4967C259.4149,-762.0071 285.5154,-777.7112 310,-789 317.7583,-792.577 326.1796,-795.9075 334.4678,-798.8962"/>
<polygon fill="#191970" stroke="#191970" points="241.7944,-746.521 231.5037,-744.0008 237.9767,-752.3883 241.7944,-746.521"/>
</g>
<!-- Node2024 -->
<g id="node15" class="node">
<title>Node2024</title>
<g id="a_node15"><a xlink:href="structcimg__library__suffixed_1_1_c_img_list.html#afa25415a30608d507bc22bd6b85b5c1e" target="_top" xlink:title="cimg_library_suffixed\l::CImgList\&lt; charT \&gt;::\l_save_yuv">
<polygon fill="#ffffff" stroke="#000000" points="328.5,-738.5 328.5,-779.5 439.5,-779.5 439.5,-738.5 328.5,-738.5"/>
<text text-anchor="start" x="336.5" y="-767.5" font-family="Helvetica,sans-Serif" font-size="10.00" fill="#000000">cimg_library_suffixed</text>
<text text-anchor="start" x="336.5" y="-756.5" font-family="Helvetica,sans-Serif" font-size="10.00" fill="#000000">::CImgList&lt; charT &gt;::</text>
<text text-anchor="middle" x="384" y="-745.5" font-family="Helvetica,sans-Serif" font-size="10.00" fill="#000000">_save_yuv</text>
</a>
</g>
</g>
<!-- Node2011&#45;&gt;Node2024 -->
<g id="edge14" class="edge">
<title>Node2011&#45;&gt;Node2024</title>
<path fill="none" stroke="#191970" d="M274.4691,-740.1695C292.1499,-743.2091 311.139,-746.4738 328.2586,-749.4169"/>
<polygon fill="#191970" stroke="#191970" points="274.6826,-736.6549 264.2341,-738.4099 273.4965,-743.5537 274.6826,-736.6549"/>
</g>
<!-- Node2025 -->
<g id="node16" class="node">
<title>Node2025</title>
<g id="a_node16"><a xlink:href="structcimg__library__suffixed_1_1_c_img.html#a09711118d3b31870942e99adbefffed1" target="_top" xlink:title="Save image as an ANALYZE7.5 or NIFTI file. ">
<polygon fill="#ffffff" stroke="#000000" points="326,-678.5 326,-719.5 442,-719.5 442,-678.5 326,-678.5"/>
<text text-anchor="start" x="334" y="-707.5" font-family="Helvetica,sans-Serif" font-size="10.00" fill="#000000">cimg_library_suffixed</text>
<text text-anchor="start" x="334" y="-696.5" font-family="Helvetica,sans-Serif" font-size="10.00" fill="#000000">::CImg&lt; charT &gt;::save</text>
<text text-anchor="middle" x="384" y="-685.5" font-family="Helvetica,sans-Serif" font-size="10.00" fill="#000000">_analyze</text>
</a>
</g>
</g>
<!-- Node2011&#45;&gt;Node2025 -->
<g id="edge15" class="edge">
<title>Node2011&#45;&gt;Node2025</title>
<path fill="none" stroke="#191970" d="M274.5371,-717.8188C291.369,-714.9251 309.3824,-711.8282 325.8372,-708.9993"/>
<polygon fill="#191970" stroke="#191970" points="273.4965,-714.4463 264.2341,-719.5901 274.6826,-721.3451 273.4965,-714.4463"/>
</g>
<!-- Node2026 -->
<g id="node17" class="node">
<title>Node2026</title>
<g id="a_node17"><a xlink:href="structcimg__library__suffixed_1_1_c_img.html#ad5fb082bca9bcc268e8f77019788ae51" target="_top" xlink:title="Save image as an OpenEXR file. ">
<polygon fill="#ffffff" stroke="#000000" points="316.5,-629 316.5,-659 451.5,-659 451.5,-629 316.5,-629"/>
<text text-anchor="start" x="324.5" y="-647" font-family="Helvetica,sans-Serif" font-size="10.00" fill="#000000">cimg_library_suffixed</text>
<text text-anchor="middle" x="384" y="-636" font-family="Helvetica,sans-Serif" font-size="10.00" fill="#000000">::CImg&lt; charT &gt;::save_exr</text>
</a>
</g>
</g>
<!-- Node2011&#45;&gt;Node2026 -->
<g id="edge16" class="edge">
<title>Node2011&#45;&gt;Node2026</title>
<path fill="none" stroke="#191970" d="M266.3386,-709.4758C268.9807,-708.0651 271.5494,-706.5736 274,-705 293.0402,-692.7741 290.7761,-680.9349 310,-669 316.1061,-665.2091 322.8556,-661.9164 329.7205,-659.078"/>
<polygon fill="#191970" stroke="#191970" points="264.5914,-706.4338 257.1379,-713.9635 267.6602,-712.7254 264.5914,-706.4338"/>
</g>
<!-- Node2027 -->
<g id="node18" class="node">
<title>Node2027</title>
<g id="a_node18"><a xlink:href="structcimg__library__suffixed_1_1_c_img.html#a3a8132f303e3295e0219ea4518c6ef20" target="_top" xlink:title="Save volumetric image as a video, using ffmpeg external binary. ">
<polygon fill="#ffffff" stroke="#000000" points="326,-568.5 326,-609.5 442,-609.5 442,-568.5 326,-568.5"/>
<text text-anchor="start" x="334" y="-597.5" font-family="Helvetica,sans-Serif" font-size="10.00" fill="#000000">cimg_library_suffixed</text>
<text text-anchor="start" x="334" y="-586.5" font-family="Helvetica,sans-Serif" font-size="10.00" fill="#000000">::CImg&lt; charT &gt;::save</text>
<text text-anchor="middle" x="384" y="-575.5" font-family="Helvetica,sans-Serif" font-size="10.00" fill="#000000">_ffmpeg_external</text>
</a>
</g>
</g>
<!-- Node2011&#45;&gt;Node2027 -->
<g id="edge17" class="edge">
<title>Node2011&#45;&gt;Node2027</title>
<path fill="none" stroke="#191970" d="M270.078,-708.4054C271.4424,-707.3266 272.7535,-706.1924 274,-705 303.6469,-676.6412 280.9333,-648.9531 310,-620 314.6382,-615.3799 320.0676,-611.4114 325.8414,-608.0108"/>
<polygon fill="#191970" stroke="#191970" points="268.1056,-705.514 261.7593,-713.9978 272.011,-711.3233 268.1056,-705.514"/>
</g>
<!-- Node2028 -->
<g id="node19" class="node">
<title>Node2028</title>
<g id="a_node19"><a xlink:href="structcimg__library__suffixed_1_1_c_img_list.html#af09a45345581747984f4df0607418f2c" target="_top" xlink:title="Save image sequence, using the external tool &#39;ffmpeg&#39;. ">
<polygon fill="#ffffff" stroke="#000000" points="327.5,-508.5 327.5,-549.5 440.5,-549.5 440.5,-508.5 327.5,-508.5"/>
<text text-anchor="start" x="335.5" y="-537.5" font-family="Helvetica,sans-Serif" font-size="10.00" fill="#000000">cimg_library_suffixed</text>
<text text-anchor="start" x="335.5" y="-526.5" font-family="Helvetica,sans-Serif" font-size="10.00" fill="#000000">::CImgList&lt; charT &gt;::</text>
<text text-anchor="middle" x="384" y="-515.5" font-family="Helvetica,sans-Serif" font-size="10.00" fill="#000000">save_ffmpeg_external</text>
</a>
</g>
</g>
<!-- Node2011&#45;&gt;Node2028 -->
<g id="edge18" class="edge">
<title>Node2011&#45;&gt;Node2028</title>
<path fill="none" stroke="#191970" d="M271.2578,-707.8169C272.212,-706.9166 273.1278,-705.9782 274,-705 318.477,-655.1165 266.2494,-609.5218 310,-559 314.8098,-553.4458 320.7998,-548.9056 327.2752,-545.1975"/>
<polygon fill="#191970" stroke="#191970" points="269.0414,-705.1065 263.2807,-713.9984 273.3291,-710.6397 269.0414,-705.1065"/>
</g>
<!-- Node2029 -->
<g id="node20" class="node">
<title>Node2029</title>
<g id="a_node20"><a xlink:href="structcimg__library__suffixed_1_1_c_img.html#a44f125968c20e8c7d833bf7d75c32db6" target="_top" xlink:title="Save image using GraphicsMagick&#39;s external binary. ">
<polygon fill="#ffffff" stroke="#000000" points="319,-448.5 319,-489.5 449,-489.5 449,-448.5 319,-448.5"/>
<text text-anchor="start" x="327" y="-477.5" font-family="Helvetica,sans-Serif" font-size="10.00" fill="#000000">cimg_library_suffixed</text>
<text text-anchor="start" x="327" y="-466.5" font-family="Helvetica,sans-Serif" font-size="10.00" fill="#000000">::CImg&lt; charT &gt;::save</text>
<text text-anchor="middle" x="384" y="-455.5" font-family="Helvetica,sans-Serif" font-size="10.00" fill="#000000">_graphicsmagick_external</text>
</a>
</g>
</g>
<!-- Node2011&#45;&gt;Node2029 -->
<g id="edge19" class="edge">
<title>Node2011&#45;&gt;Node2029</title>
<path fill="none" stroke="#191970" d="M272.071,-707.1621C272.7379,-706.4639 273.3816,-705.7435 274,-705 333.4332,-633.5429 251.6069,-571.3095 310,-499 312.8742,-495.4409 316.237,-492.3008 319.9147,-489.531"/>
<polygon fill="#191970" stroke="#191970" points="269.5484,-704.71 264.141,-713.8211 274.0499,-710.0707 269.5484,-704.71"/>
</g>
<!-- Node2030 -->
<g id="node21" class="node">
<title>Node2030</title>
<g id="a_node21"><a xlink:href="structcimg__library__suffixed_1_1_c_img.html#a53983bb4f1ebe2a817b68029b8c04cb1" target="_top" xlink:title="Save image using gzip external binary. ">
<polygon fill="#ffffff" stroke="#000000" points="326,-388.5 326,-429.5 442,-429.5 442,-388.5 326,-388.5"/>
<text text-anchor="start" x="334" y="-417.5" font-family="Helvetica,sans-Serif" font-size="10.00" fill="#000000">cimg_library_suffixed</text>
<text text-anchor="start" x="334" y="-406.5" font-family="Helvetica,sans-Serif" font-size="10.00" fill="#000000">::CImg&lt; charT &gt;::save</text>
<text text-anchor="middle" x="384" y="-395.5" font-family="Helvetica,sans-Serif" font-size="10.00" fill="#000000">_gzip_external</text>
</a>
</g>
</g>
<!-- Node2011&#45;&gt;Node2030 -->
<g id="edge20" class="edge">
<title>Node2011&#45;&gt;Node2030</title>
<path fill="none" stroke="#191970" d="M272.1115,-707.1952C272.7658,-706.4867 273.396,-705.7552 274,-705 348.5082,-611.828 236.8476,-533.2402 310,-439 314.3352,-433.4151 319.88,-428.8647 325.9804,-425.1584"/>
<polygon fill="#191970" stroke="#191970" points="269.5762,-704.7597 264.2858,-713.9391 274.1459,-710.0624 269.5762,-704.7597"/>
</g>
<!-- Node2031 -->
<g id="node22" class="node">
<title>Node2031</title>
<g id="a_node22"><a xlink:href="structcimg__library__suffixed_1_1_c_img.html#afbf8db949f62c8bd3f2f73ba3d9c1420" target="_top" xlink:title="Save image using ImageMagick&#39;s external binary. ">
<polygon fill="#ffffff" stroke="#000000" points="324.5,-328.5 324.5,-369.5 443.5,-369.5 443.5,-328.5 324.5,-328.5"/>
<text text-anchor="start" x="332.5" y="-357.5" font-family="Helvetica,sans-Serif" font-size="10.00" fill="#000000">cimg_library_suffixed</text>
<text text-anchor="start" x="332.5" y="-346.5" font-family="Helvetica,sans-Serif" font-size="10.00" fill="#000000">::CImg&lt; charT &gt;::save</text>
<text text-anchor="middle" x="384" y="-335.5" font-family="Helvetica,sans-Serif" font-size="10.00" fill="#000000">_imagemagick_external</text>
</a>
</g>
</g>
<!-- Node2011&#45;&gt;Node2031 -->
<g id="edge21" class="edge">
<title>Node2011&#45;&gt;Node2031</title>
<path fill="none" stroke="#191970" d="M271.7987,-707.5864C272.567,-706.7568 273.302,-705.8951 274,-705 363.6362,-590.0472 222.0364,-495.2377 310,-379 313.9317,-373.8045 318.9141,-369.5055 324.4288,-365.949"/>
<polygon fill="#191970" stroke="#191970" points="269.3858,-705.0452 264.0848,-714.2185 273.9493,-710.3531 269.3858,-705.0452"/>
</g>
<!-- Node2032 -->
<g id="node23" class="node">
<title>Node2032</title>
<g id="a_node23"><a xlink:href="structcimg__library__suffixed_1_1_c_img.html#a6beb63196c9a26f6894e4654f771c1e5" target="_top" xlink:title="Save image, using built&#45;in ImageMagick++ library. ">
<polygon fill="#ffffff" stroke="#000000" points="326,-268.5 326,-309.5 442,-309.5 442,-268.5 326,-268.5"/>
<text text-anchor="start" x="334" y="-297.5" font-family="Helvetica,sans-Serif" font-size="10.00" fill="#000000">cimg_library_suffixed</text>
<text text-anchor="start" x="334" y="-286.5" font-family="Helvetica,sans-Serif" font-size="10.00" fill="#000000">::CImg&lt; charT &gt;::save</text>
<text text-anchor="middle" x="384" y="-275.5" font-family="Helvetica,sans-Serif" font-size="10.00" fill="#000000">_magick</text>
</a>
</g>
</g>
<!-- Node2011&#45;&gt;Node2032 -->
<g id="edge22" class="edge">
<title>Node2011&#45;&gt;Node2032</title>
<path fill="none" stroke="#191970" d="M271.82,-707.6028C272.5817,-706.7682 273.3097,-705.901 274,-705 378.7922,-568.2305 207.1976,-457.2714 310,-319 314.2183,-313.3263 319.6928,-308.7225 325.7556,-304.9876"/>
<polygon fill="#191970" stroke="#191970" points="269.4016,-705.0675 264.1511,-714.2698 273.9943,-710.3502 269.4016,-705.0675"/>
</g>
<!-- Node2033 -->
<g id="node24" class="node">
<title>Node2033</title>
<g id="a_node24"><a xlink:href="structcimg__library__suffixed_1_1_c_img.html#a30d02c3d77fc43c8b5845e92268cdab5" target="_top" xlink:title="Save image as a Dicom file. ">
<polygon fill="#ffffff" stroke="#000000" points="326,-208.5 326,-249.5 442,-249.5 442,-208.5 326,-208.5"/>
<text text-anchor="start" x="334" y="-237.5" font-family="Helvetica,sans-Serif" font-size="10.00" fill="#000000">cimg_library_suffixed</text>
<text text-anchor="start" x="334" y="-226.5" font-family="Helvetica,sans-Serif" font-size="10.00" fill="#000000">::CImg&lt; charT &gt;::save</text>
<text text-anchor="middle" x="384" y="-215.5" font-family="Helvetica,sans-Serif" font-size="10.00" fill="#000000">_medcon_external</text>
</a>
</g>
</g>
<!-- Node2011&#45;&gt;Node2033 -->
<g id="edge23" class="edge">
<title>Node2011&#45;&gt;Node2033</title>
<path fill="none" stroke="#191970" d="M271.8356,-707.6147C272.5926,-706.7764 273.3153,-705.9053 274,-705 333.9824,-625.696 251.1712,-339.1635 310,-259 314.1829,-253.3001 319.6361,-248.6806 325.6875,-244.9373"/>
<polygon fill="#191970" stroke="#191970" points="269.4134,-705.0836 264.2001,-714.3071 274.0273,-710.3478 269.4134,-705.0836"/>
</g>
<!-- Node2034 -->
<g id="node25" class="node">
<title>Node2034</title>
<g id="a_node25"><a xlink:href="structcimg__library__suffixed_1_1_c_img.html#ab3b2aa455cd56ce20a03cb0b68ca68fc" target="_top" xlink:title="Save image as a MINC2 file. ">
<polygon fill="#ffffff" stroke="#000000" points="310,-159 310,-189 458,-189 458,-159 310,-159"/>
<text text-anchor="start" x="318" y="-177" font-family="Helvetica,sans-Serif" font-size="10.00" fill="#000000">cimg_library_suffixed</text>
<text text-anchor="middle" x="384" y="-166" font-family="Helvetica,sans-Serif" font-size="10.00" fill="#000000">::CImg&lt; charT &gt;::save_minc2</text>
</a>
</g>
</g>
<!-- Node2011&#45;&gt;Node2034 -->
<g id="edge24" class="edge">
<title>Node2011&#45;&gt;Node2034</title>
<path fill="none" stroke="#191970" d="M271.8476,-707.6237C272.6009,-706.7827 273.3196,-705.9085 274,-705 341.5741,-614.7698 241.0613,-288.192 310,-199 312.9854,-195.1375 316.5946,-191.8669 320.593,-189.0982"/>
<polygon fill="#191970" stroke="#191970" points="269.4225,-705.0958 264.2376,-714.3353 274.0526,-710.3458 269.4225,-705.0958"/>
</g>
<!-- Node2035 -->
<g id="node26" class="node">
<title>Node2035</title>
<g id="a_node26"><a xlink:href="structcimg__library__suffixed_1_1_c_img.html#a6b77dc615829820ba0675409feaef3d8" target="_top" xlink:title="cimg_library_suffixed\l::CImg\&lt; charT \&gt;::save_other">
<polygon fill="#ffffff" stroke="#000000" points="312.5,-110 312.5,-140 455.5,-140 455.5,-110 312.5,-110"/>
<text text-anchor="start" x="320.5" y="-128" font-family="Helvetica,sans-Serif" font-size="10.00" fill="#000000">cimg_library_suffixed</text>
<text text-anchor="middle" x="384" y="-117" font-family="Helvetica,sans-Serif" font-size="10.00" fill="#000000">::CImg&lt; charT &gt;::save_other</text>
</a>
</g>
</g>
<!-- Node2011&#45;&gt;Node2035 -->
<g id="edge25" class="edge">
<title>Node2011&#45;&gt;Node2035</title>
<path fill="none" stroke="#191970" d="M271.8555,-707.6296C272.6064,-706.7868 273.3224,-705.9106 274,-705 347.7767,-605.843 234.7237,-248.0234 310,-150 312.9734,-146.1282 316.5738,-142.8509 320.5663,-140.0775"/>
<polygon fill="#191970" stroke="#191970" points="269.4285,-705.1038 264.2624,-714.3538 274.0693,-710.3444 269.4285,-705.1038"/>
</g>
<!-- Node2036 -->
<g id="node27" class="node">
<title>Node2036</title>
<g id="a_node27"><a xlink:href="structcimg__library__suffixed_1_1_c_img.html#a87e93148404e8d79b7b5218e58eabf3c" target="_top" xlink:title="Save image as a TIFF file. ">
<polygon fill="#ffffff" stroke="#000000" points="317.5,-61 317.5,-91 450.5,-91 450.5,-61 317.5,-61"/>
<text text-anchor="start" x="325.5" y="-79" font-family="Helvetica,sans-Serif" font-size="10.00" fill="#000000">cimg_library_suffixed</text>
<text text-anchor="middle" x="384" y="-68" font-family="Helvetica,sans-Serif" font-size="10.00" fill="#000000">::CImg&lt; charT &gt;::save_tiff</text>
</a>
</g>
</g>
<!-- Node2011&#45;&gt;Node2036 -->
<g id="edge26" class="edge">
<title>Node2011&#45;&gt;Node2036</title>
<path fill="none" stroke="#191970" d="M271.8622,-707.6346C272.611,-706.7902 273.3248,-705.9124 274,-705 353.9811,-596.9138 228.3842,-207.8572 310,-101 312.9632,-97.1204 316.5564,-93.8375 320.5437,-91.0603"/>
<polygon fill="#191970" stroke="#191970" points="269.4335,-705.1105 264.2831,-714.3692 274.0832,-710.3431 269.4335,-705.1105"/>
</g>
<!-- Node2037 -->
<g id="node28" class="node">
<title>Node2037</title>
<g id="a_node28"><a xlink:href="structcimg__library__suffixed_1_1_c_img_list.html#a62700a17bb0af63522c732b9d1a15325" target="_top" xlink:title="Save list as a TIFF file. ">
<polygon fill="#ffffff" stroke="#000000" points="328.5,-.5 328.5,-41.5 439.5,-41.5 439.5,-.5 328.5,-.5"/>
<text text-anchor="start" x="336.5" y="-29.5" font-family="Helvetica,sans-Serif" font-size="10.00" fill="#000000">cimg_library_suffixed</text>
<text text-anchor="start" x="336.5" y="-18.5" font-family="Helvetica,sans-Serif" font-size="10.00" fill="#000000">::CImgList&lt; charT &gt;::</text>
<text text-anchor="middle" x="384" y="-7.5" font-family="Helvetica,sans-Serif" font-size="10.00" fill="#000000">save_tiff</text>
</a>
</g>
</g>
<!-- Node2011&#45;&gt;Node2037 -->
<g id="edge27" class="edge">
<title>Node2011&#45;&gt;Node2037</title>
<path fill="none" stroke="#191970" d="M271.8089,-707.7055C272.5774,-706.8394 273.3092,-705.938 274,-705 360.3136,-587.8004 225.3911,-169.4361 310,-51 314.7544,-44.3447 321.2479,-39.1636 328.4264,-35.1307"/>
<polygon fill="#191970" stroke="#191970" points="269.1909,-705.3479 264.0089,-714.589 273.8227,-710.5964 269.1909,-705.3479"/>
</g>
</g>
</svg>
        <g id="navigator" transform="translate(0 0)" fill="#404254">
                <rect fill="#f2f5e9" fill-opacity="0.5" stroke="#606060" stroke-width=".5" x="0" y="0" width="60" height="60"/>
                <use id="zoomplus" xlink:href="#zoomPlus" x="17" y="9" onmousedown="handleZoom(evt,'in')"/>
                <use id="zoomminus" xlink:href="#zoomMin" x="42" y="9" onmousedown="handleZoom(evt,'out')"/>
                <use id="reset" xlink:href="#resetDef" x="30" y="36" onmousedown="handleReset()"/>
                <g id="arrowUp" xlink:href="#dirArrow" transform="translate(30 24)" onmousedown="handlePan(0,-1)">
                  <use xlink:href="#rim" fill="#404040">
                        <set attributeName="fill" to="#808080" begin="arrowUp.mouseover" end="arrowUp.mouseout"/>
                  </use>
                  <path fill="none" stroke="white" stroke-width="1.5" d="M0,-3.0v7 M-2.5,-0.5L0,-3.0L2.5,-0.5"/>
                </g>
                <g id="arrowRight" xlink:href="#dirArrow" transform="rotate(90) translate(36 -43)" onmousedown="handlePan(1,0)">
                  <use xlink:href="#rim" fill="#404040">
                        <set attributeName="fill" to="#808080" begin="arrowRight.mouseover" end="arrowRight.mouseout"/>
                  </use>
                  <path fill="none" stroke="white" stroke-width="1.5" d="M0,-3.0v7 M-2.5,-0.5L0,-3.0L2.5,-0.5"/>
                </g>
                <g id="arrowDown" xlink:href="#dirArrow" transform="rotate(180) translate(-30 -48)" onmousedown="handlePan(0,1)">
                  <use xlink:href="#rim" fill="#404040">
                        <set attributeName="fill" to="#808080" begin="arrowDown.mouseover" end="arrowDown.mouseout"/>
                  </use>
                  <path fill="none" stroke="white" stroke-width="1.5" d="M0,-3.0v7 M-2.5,-0.5L0,-3.0L2.5,-0.5"/>
                </g>
                <g id="arrowLeft" xlink:href="#dirArrow" transform="rotate(270) translate(-36 17)" onmousedown="handlePan(-1,0)">
                  <use xlink:href="#rim" fill="#404040">
                        <set attributeName="fill" to="#808080" begin="arrowLeft.mouseover" end="arrowLeft.mouseout"/>
                  </use>
                  <path fill="none" stroke="white" stroke-width="1.5" d="M0,-3.0v7 M-2.5,-0.5L0,-3.0L2.5,-0.5"/>
                </g>
        </g>
        <svg viewBox="0 0 15 15" width="100%" height="30px" preserveAspectRatio="xMaxYMin meet">
         <g id="arrow_out" transform="scale(0.3 0.3)">
          <a xlink:href="namespacecimg__library__suffixed_1_1cimg_a90c05fe6fc049cba75f3a12807e97158_icgraph_org.svg" target="_base">
           <rect id="button" ry="5" rx="5" y="6" x="6" height="38" width="38"
                fill="#f2f5e9" fill-opacity="0.5" stroke="#606060" stroke-width="1.0"/>
           <path id="arrow"
             d="M 11.500037,31.436501 C 11.940474,20.09759 22.043105,11.32322 32.158766,21.979434 L 37.068811,17.246167 C 37.068811,17.246167 37.088388,32 37.088388,32 L 22.160133,31.978069 C 22.160133,31.978069 26.997745,27.140456 26.997745,27.140456 C 18.528582,18.264221 13.291696,25.230495 11.500037,31.436501 z"
             style="fill:#404040;"/>
          </a>
         </g>
        </svg>
</svg>
