<?xml version="1.0" encoding="UTF-8" standalone="no"?>
<!DOCTYPE svg PUBLIC "-//W3C//DTD SVG 1.1//EN"
 "http://www.w3.org/Graphics/SVG/1.1/DTD/svg11.dtd">
<!-- Generated by graphviz version 2.40.1 (20161225.0304)
 -->
<!-- Title: cimg_library_suffixed::cimg::factorial Pages: 1 -->
<svg width="497pt" height="269pt"
 viewBox="0.00 0.00 497.00 269.00" xmlns="http://www.w3.org/2000/svg" xmlns:xlink="http://www.w3.org/1999/xlink">
<g id="graph0" class="graph" transform="scale(1 1) rotate(0) translate(4 265)">
<title>cimg_library_suffixed::cimg::factorial</title>
<polygon fill="#ffffff" stroke="transparent" points="-4,4 -4,-265 493,-265 493,4 -4,4"/>
<!-- Node1183 -->
<g id="node1" class="node">
<title>Node1183</title>
<polygon fill="#bfbfbf" stroke="#000000" points="0,-173 0,-203 109,-203 109,-173 0,-173"/>
<text text-anchor="start" x="8" y="-191" font-family="Helvetica,sans-Serif" font-size="10.00" fill="#000000">cimg_library_suffixed</text>
<text text-anchor="middle" x="54.5" y="-180" font-family="Helvetica,sans-Serif" font-size="10.00" fill="#000000">::cimg::factorial</text>
</g>
<!-- Node1184 -->
<g id="node2" class="node">
<title>Node1184</title>
<g id="a_node2"><a xlink:href="structcimg__library__suffixed_1_1_c_img_1_1__cimg__math__parser.html#a318c44c5d1f4f0114355f37ace87a4ae" target="_top" xlink:title="cimg_library_suffixed\l::CImg::_cimg_math_parser\l::compile">
<polygon fill="#ffffff" stroke="#000000" points="335,-219.5 335,-260.5 473,-260.5 473,-219.5 335,-219.5"/>
<text text-anchor="start" x="343" y="-248.5" font-family="Helvetica,sans-Serif" font-size="10.00" fill="#000000">cimg_library_suffixed</text>
<text text-anchor="start" x="343" y="-237.5" font-family="Helvetica,sans-Serif" font-size="10.00" fill="#000000">::CImg::_cimg_math_parser</text>
<text text-anchor="middle" x="404" y="-226.5" font-family="Helvetica,sans-Serif" font-size="10.00" fill="#000000">::compile</text>
</a>
</g>
</g>
<!-- Node1183&#45;&gt;Node1184 -->
<g id="edge1" class="edge">
<title>Node1183&#45;&gt;Node1184</title>
<path fill="none" stroke="#191970" d="M102.7266,-206.316C116.2316,-210.8033 131.039,-215.1348 145,-218 208.5459,-231.0413 282.3917,-236.3734 334.9336,-238.542"/>
<polygon fill="#191970" stroke="#191970" points="103.7483,-202.9664 93.1537,-203.0397 101.4816,-209.5893 103.7483,-202.9664"/>
</g>
<!-- Node1185 -->
<g id="node3" class="node">
<title>Node1185</title>
<g id="a_node3"><a xlink:href="structcimg__library__suffixed_1_1_c_img_1_1__cimg__math__parser.html#af1e86c58eb63ba1d959ed6d2b6117871" target="_top" xlink:title="cimg_library_suffixed\l::CImg::_cimg_math_parser\l::mp_factorial">
<polygon fill="#ffffff" stroke="#000000" points="145,-167.5 145,-208.5 283,-208.5 283,-167.5 145,-167.5"/>
<text text-anchor="start" x="153" y="-196.5" font-family="Helvetica,sans-Serif" font-size="10.00" fill="#000000">cimg_library_suffixed</text>
<text text-anchor="start" x="153" y="-185.5" font-family="Helvetica,sans-Serif" font-size="10.00" fill="#000000">::CImg::_cimg_math_parser</text>
<text text-anchor="middle" x="214" y="-174.5" font-family="Helvetica,sans-Serif" font-size="10.00" fill="#000000">::mp_factorial</text>
</a>
</g>
</g>
<!-- Node1183&#45;&gt;Node1185 -->
<g id="edge2" class="edge">
<title>Node1183&#45;&gt;Node1185</title>
<path fill="none" stroke="#191970" d="M119.4793,-188C127.8632,-188 136.4728,-188 144.9198,-188"/>
<polygon fill="#191970" stroke="#191970" points="119.3909,-184.5001 109.3909,-188 119.3908,-191.5001 119.3909,-184.5001"/>
</g>
<!-- Node1186 -->
<g id="node4" class="node">
<title>Node1186</title>
<g id="a_node4"><a xlink:href="namespacecimg__library__suffixed_1_1cimg.html#a4e6348dd82ed46fecc9f46981dc5bc0a" target="_top" xlink:title="Return the number of permutations of k objects in a set of n objects. ">
<polygon fill="#ffffff" stroke="#000000" points="159.5,-115 159.5,-145 268.5,-145 268.5,-115 159.5,-115"/>
<text text-anchor="start" x="167.5" y="-133" font-family="Helvetica,sans-Serif" font-size="10.00" fill="#000000">cimg_library_suffixed</text>
<text text-anchor="middle" x="214" y="-122" font-family="Helvetica,sans-Serif" font-size="10.00" fill="#000000">::cimg::permutations</text>
</a>
</g>
</g>
<!-- Node1183&#45;&gt;Node1186 -->
<g id="edge3" class="edge">
<title>Node1183&#45;&gt;Node1186</title>
<path fill="none" stroke="#191970" d="M105.3959,-169.4924C127.1279,-161.5899 152.1639,-152.4859 172.7174,-145.0119"/>
<polygon fill="#191970" stroke="#191970" points="104.1922,-166.2058 95.9904,-172.9126 106.5844,-172.7844 104.1922,-166.2058"/>
</g>
<!-- Node1186&#45;&gt;Node1184 -->
<g id="edge4" class="edge">
<title>Node1186&#45;&gt;Node1184</title>
<path fill="none" stroke="#191970" d="M270.7554,-149.7682C275.0813,-152.2391 279.2257,-154.9767 283,-158 304.9384,-175.5735 296.6615,-192.9379 319,-210 323.8502,-213.7046 329.1954,-216.9767 334.7721,-219.8621"/>
<polygon fill="#191970" stroke="#191970" points="272.1705,-146.5595 261.6815,-145.0651 268.9492,-152.7743 272.1705,-146.5595"/>
</g>
<!-- Node1187 -->
<g id="node5" class="node">
<title>Node1187</title>
<g id="a_node5"><a xlink:href="structcimg__library__suffixed_1_1_c_img_1_1__cimg__math__parser.html#ad1be0f03f678135d32f2994f58966ef4" target="_top" xlink:title="cimg_library_suffixed\l::CImg::_cimg_math_parser\l::mp_permutations">
<polygon fill="#ffffff" stroke="#000000" points="335,-159.5 335,-200.5 473,-200.5 473,-159.5 335,-159.5"/>
<text text-anchor="start" x="343" y="-188.5" font-family="Helvetica,sans-Serif" font-size="10.00" fill="#000000">cimg_library_suffixed</text>
<text text-anchor="start" x="343" y="-177.5" font-family="Helvetica,sans-Serif" font-size="10.00" fill="#000000">::CImg::_cimg_math_parser</text>
<text text-anchor="middle" x="404" y="-166.5" font-family="Helvetica,sans-Serif" font-size="10.00" fill="#000000">::mp_permutations</text>
</a>
</g>
</g>
<!-- Node1186&#45;&gt;Node1187 -->
<g id="edge5" class="edge">
<title>Node1186&#45;&gt;Node1187</title>
<path fill="none" stroke="#191970" d="M278.5702,-146.9922C296.6748,-151.7565 316.428,-156.9547 334.7904,-161.787"/>
<polygon fill="#191970" stroke="#191970" points="279.2625,-143.5552 268.701,-144.395 277.481,-150.3248 279.2625,-143.5552"/>
</g>
<!-- Node1188 -->
<g id="node6" class="node">
<title>Node1188</title>
<g id="a_node6"><a xlink:href="structcimg__library__suffixed_1_1_c_img.html#a53284105886c5eb684b26e7dba5ede66" target="_top" xlink:title="Compute eigenvalues and eigenvectors of the instance image, viewed as a symmetric matrix...">
<polygon fill="#ffffff" stroke="#000000" points="319,-110 319,-140 489,-140 489,-110 319,-110"/>
<text text-anchor="start" x="327" y="-128" font-family="Helvetica,sans-Serif" font-size="10.00" fill="#000000">cimg_library_suffixed</text>
<text text-anchor="middle" x="404" y="-117" font-family="Helvetica,sans-Serif" font-size="10.00" fill="#000000">::CImg&lt; charT &gt;::symmetric_eigen</text>
</a>
</g>
</g>
<!-- Node1186&#45;&gt;Node1188 -->
<g id="edge6" class="edge">
<title>Node1186&#45;&gt;Node1188</title>
<path fill="none" stroke="#191970" d="M278.8405,-128.2937C291.7306,-127.9545 305.4473,-127.5935 318.8965,-127.2396"/>
<polygon fill="#191970" stroke="#191970" points="278.6054,-124.7985 268.701,-128.5605 278.7896,-131.7961 278.6054,-124.7985"/>
</g>
<!-- Node1189 -->
<g id="node7" class="node">
<title>Node1189</title>
<g id="a_node7"><a xlink:href="structcimg__library__suffixed_1_1_c_img.html#a33c8a817208b7aa571350457969e9dbe" target="_top" xlink:title="Compute the SVD of the instance image, viewed as a general matrix. ">
<polygon fill="#ffffff" stroke="#000000" points="346,-61 346,-91 462,-91 462,-61 346,-61"/>
<text text-anchor="start" x="354" y="-79" font-family="Helvetica,sans-Serif" font-size="10.00" fill="#000000">cimg_library_suffixed</text>
<text text-anchor="middle" x="404" y="-68" font-family="Helvetica,sans-Serif" font-size="10.00" fill="#000000">::CImg&lt; charT &gt;::SVD</text>
</a>
</g>
</g>
<!-- Node1186&#45;&gt;Node1189 -->
<g id="edge7" class="edge">
<title>Node1186&#45;&gt;Node1189</title>
<path fill="none" stroke="#191970" d="M276.5988,-112.0801C290.5531,-108.0951 305.2786,-103.8973 319,-100 329.1778,-97.1092 340.0441,-94.0331 350.4885,-91.0818"/>
<polygon fill="#191970" stroke="#191970" points="275.2534,-108.8244 266.5997,-114.9369 277.1764,-115.5551 275.2534,-108.8244"/>
</g>
<!-- Node1190 -->
<g id="node8" class="node">
<title>Node1190</title>
<g id="a_node8"><a xlink:href="structcimg__library__suffixed_1_1_c_img.html#a6dba86c8049ae141ffc9936b2eaf5c5c" target="_top" xlink:title="cimg_library_suffixed\l::CImg\&lt; charT \&gt;::_draw\l_object3d">
<polygon fill="#ffffff" stroke="#000000" points="343,-.5 343,-41.5 465,-41.5 465,-.5 343,-.5"/>
<text text-anchor="start" x="351" y="-29.5" font-family="Helvetica,sans-Serif" font-size="10.00" fill="#000000">cimg_library_suffixed</text>
<text text-anchor="start" x="351" y="-18.5" font-family="Helvetica,sans-Serif" font-size="10.00" fill="#000000">::CImg&lt; charT &gt;::_draw</text>
<text text-anchor="middle" x="404" y="-7.5" font-family="Helvetica,sans-Serif" font-size="10.00" fill="#000000">_object3d</text>
</a>
</g>
</g>
<!-- Node1186&#45;&gt;Node1190 -->
<g id="edge8" class="edge">
<title>Node1186&#45;&gt;Node1190</title>
<path fill="none" stroke="#191970" d="M238.5502,-108.0799C258.9413,-90.754 289.3137,-66.9167 319,-51 326.4476,-47.0069 334.5352,-43.3635 342.6616,-40.1001"/>
<polygon fill="#191970" stroke="#191970" points="236.0063,-105.6519 230.7182,-114.8326 240.5773,-110.9534 236.0063,-105.6519"/>
</g>
</g>
</svg>
