<?xml version="1.0" encoding="UTF-8" standalone="no"?>
<!DOCTYPE svg PUBLIC "-//W3C//DTD SVG 1.1//EN"
 "http://www.w3.org/Graphics/SVG/1.1/DTD/svg11.dtd">
<!-- Generated by graphviz version 2.40.1 (20161225.0304)
 -->
<!-- Title: cimg_library_suffixed::cimg::sign Pages: 1 -->
<svg width="291pt" height="379pt"
 viewBox="0.00 0.00 291.00 378.50" xmlns="http://www.w3.org/2000/svg" xmlns:xlink="http://www.w3.org/1999/xlink">
<g id="graph0" class="graph" transform="scale(1 1) rotate(0) translate(4 374.5)">
<title>cimg_library_suffixed::cimg::sign</title>
<polygon fill="#ffffff" stroke="transparent" points="-4,4 -4,-374.5 287,-374.5 287,4 -4,4"/>
<!-- Node3451 -->
<g id="node1" class="node">
<title>Node3451</title>
<polygon fill="#bfbfbf" stroke="#000000" points="0,-159.5 0,-189.5 109,-189.5 109,-159.5 0,-159.5"/>
<text text-anchor="start" x="8" y="-177.5" font-family="Helvetica,sans-Serif" font-size="10.00" fill="#000000">cimg_library_suffixed</text>
<text text-anchor="middle" x="54.5" y="-166.5" font-family="Helvetica,sans-Serif" font-size="10.00" fill="#000000">::cimg::sign</text>
</g>
<!-- Node3452 -->
<g id="node2" class="node">
<title>Node3452</title>
<g id="a_node2"><a xlink:href="structcimg__library__suffixed_1_1_c_img_1_1__cimg__math__parser.html#a318c44c5d1f4f0114355f37ace87a4ae" target="_top" xlink:title="cimg_library_suffixed\l::CImg::_cimg_math_parser\l::compile">
<polygon fill="#ffffff" stroke="#000000" points="145,-329 145,-370 283,-370 283,-329 145,-329"/>
<text text-anchor="start" x="153" y="-358" font-family="Helvetica,sans-Serif" font-size="10.00" fill="#000000">cimg_library_suffixed</text>
<text text-anchor="start" x="153" y="-347" font-family="Helvetica,sans-Serif" font-size="10.00" fill="#000000">::CImg::_cimg_math_parser</text>
<text text-anchor="middle" x="214" y="-336" font-family="Helvetica,sans-Serif" font-size="10.00" fill="#000000">::compile</text>
</a>
</g>
</g>
<!-- Node3451&#45;&gt;Node3452 -->
<g id="edge1" class="edge">
<title>Node3451&#45;&gt;Node3452</title>
<path fill="none" stroke="#191970" d="M64.3342,-199.1401C78.0896,-230.8194 105.8585,-285.7564 145,-319.5 149.0563,-322.9969 153.5832,-326.1433 158.3259,-328.9616"/>
<polygon fill="#191970" stroke="#191970" points="67.4755,-197.5815 60.3639,-189.7281 61.0258,-200.3023 67.4755,-197.5815"/>
</g>
<!-- Node3453 -->
<g id="node3" class="node">
<title>Node3453</title>
<g id="a_node3"><a xlink:href="structcimg__library__suffixed_1_1_c_img.html#a5f82947b70ae0c01993cb74563fd4daa" target="_top" xlink:title="Compute distance function to 0&#45;valued isophotes, using the Eikonal PDE. ">
<polygon fill="#ffffff" stroke="#000000" points="148,-269 148,-310 280,-310 280,-269 148,-269"/>
<text text-anchor="start" x="156" y="-298" font-family="Helvetica,sans-Serif" font-size="10.00" fill="#000000">cimg_library_suffixed</text>
<text text-anchor="start" x="156" y="-287" font-family="Helvetica,sans-Serif" font-size="10.00" fill="#000000">::CImg&lt; charT &gt;::distance</text>
<text text-anchor="middle" x="214" y="-276" font-family="Helvetica,sans-Serif" font-size="10.00" fill="#000000">_eikonal</text>
</a>
</g>
</g>
<!-- Node3451&#45;&gt;Node3453 -->
<g id="edge2" class="edge">
<title>Node3451&#45;&gt;Node3453</title>
<path fill="none" stroke="#191970" d="M74.4371,-197.1475C91.6955,-215.7275 118.0595,-241.7685 145,-259.5 150.1283,-262.8753 155.6992,-266.0224 161.3775,-268.9114"/>
<polygon fill="#191970" stroke="#191970" points="76.9514,-194.7105 67.623,-189.6874 71.7829,-199.4315 76.9514,-194.7105"/>
</g>
<!-- Node3454 -->
<g id="node4" class="node">
<title>Node3454</title>
<g id="a_node4"><a xlink:href="structcimg__library__suffixed_1_1_c_img.html#aba5835eafcb8746755d164f3f9d20b81" target="_top" xlink:title="Draw a filled 2d polygon. ">
<polygon fill="#ffffff" stroke="#000000" points="156,-209 156,-250 272,-250 272,-209 156,-209"/>
<text text-anchor="start" x="164" y="-238" font-family="Helvetica,sans-Serif" font-size="10.00" fill="#000000">cimg_library_suffixed</text>
<text text-anchor="start" x="164" y="-227" font-family="Helvetica,sans-Serif" font-size="10.00" fill="#000000">::CImg&lt; charT &gt;::draw</text>
<text text-anchor="middle" x="214" y="-216" font-family="Helvetica,sans-Serif" font-size="10.00" fill="#000000">_polygon</text>
</a>
</g>
</g>
<!-- Node3451&#45;&gt;Node3454 -->
<g id="edge3" class="edge">
<title>Node3451&#45;&gt;Node3454</title>
<path fill="none" stroke="#191970" d="M107.9477,-192.9302C123.3219,-198.2317 140.1646,-204.0395 155.8104,-209.4346"/>
<polygon fill="#191970" stroke="#191970" points="108.6788,-189.4802 98.0841,-189.529 106.3968,-196.0978 108.6788,-189.4802"/>
</g>
<!-- Node3455 -->
<g id="node5" class="node">
<title>Node3455</title>
<g id="a_node5"><a xlink:href="structcimg__library__suffixed_1_1_c_img.html#a370326a6ce24161bc1d82fb32acc9d2b" target="_top" xlink:title="Compute the sign of each pixel value . ">
<polygon fill="#ffffff" stroke="#000000" points="148,-159.5 148,-189.5 280,-189.5 280,-159.5 148,-159.5"/>
<text text-anchor="start" x="156" y="-177.5" font-family="Helvetica,sans-Serif" font-size="10.00" fill="#000000">cimg_library_suffixed</text>
<text text-anchor="middle" x="214" y="-166.5" font-family="Helvetica,sans-Serif" font-size="10.00" fill="#000000">::CImg&lt; charT &gt;::get_sign</text>
</a>
</g>
</g>
<!-- Node3451&#45;&gt;Node3455 -->
<g id="edge4" class="edge">
<title>Node3451&#45;&gt;Node3455</title>
<path fill="none" stroke="#191970" d="M119.4641,-174.5C128.8742,-174.5 138.5689,-174.5 147.9991,-174.5"/>
<polygon fill="#191970" stroke="#191970" points="119.3909,-171.0001 109.3909,-174.5 119.3908,-178.0001 119.3909,-171.0001"/>
</g>
<!-- Node3456 -->
<g id="node6" class="node">
<title>Node3456</title>
<g id="a_node6"><a xlink:href="structcimg__library__suffixed_1_1_c_img_1_1__cimg__math__parser.html#aecb20acf2137daa7b1e804a76e386ced" target="_top" xlink:title="cimg_library_suffixed\l::CImg::_cimg_math_parser\l::mp_sign">
<polygon fill="#ffffff" stroke="#000000" points="145,-99 145,-140 283,-140 283,-99 145,-99"/>
<text text-anchor="start" x="153" y="-128" font-family="Helvetica,sans-Serif" font-size="10.00" fill="#000000">cimg_library_suffixed</text>
<text text-anchor="start" x="153" y="-117" font-family="Helvetica,sans-Serif" font-size="10.00" fill="#000000">::CImg::_cimg_math_parser</text>
<text text-anchor="middle" x="214" y="-106" font-family="Helvetica,sans-Serif" font-size="10.00" fill="#000000">::mp_sign</text>
</a>
</g>
</g>
<!-- Node3451&#45;&gt;Node3456 -->
<g id="edge5" class="edge">
<title>Node3451&#45;&gt;Node3456</title>
<path fill="none" stroke="#191970" d="M107.6861,-156.16C122.6457,-151.0015 139.0131,-145.3576 154.3245,-140.0777"/>
<polygon fill="#191970" stroke="#191970" points="106.3968,-152.9022 98.0841,-159.471 108.6788,-159.5198 106.3968,-152.9022"/>
</g>
<!-- Node3457 -->
<g id="node7" class="node">
<title>Node3457</title>
<g id="a_node7"><a xlink:href="structcimg__library__suffixed_1_1_c_img.html#ae884ac4a2168d7411b004a4e8c6869e5" target="_top" xlink:title="Sharpen image. ">
<polygon fill="#ffffff" stroke="#000000" points="149,-49.5 149,-79.5 279,-79.5 279,-49.5 149,-49.5"/>
<text text-anchor="start" x="157" y="-67.5" font-family="Helvetica,sans-Serif" font-size="10.00" fill="#000000">cimg_library_suffixed</text>
<text text-anchor="middle" x="214" y="-56.5" font-family="Helvetica,sans-Serif" font-size="10.00" fill="#000000">::CImg&lt; charT &gt;::sharpen</text>
</a>
</g>
</g>
<!-- Node3451&#45;&gt;Node3457 -->
<g id="edge6" class="edge">
<title>Node3451&#45;&gt;Node3457</title>
<path fill="none" stroke="#191970" d="M73.858,-151.7417C90.9386,-132.8721 117.3578,-106.4795 145,-89.5 151.0797,-85.7655 157.8013,-82.4685 164.593,-79.5964"/>
<polygon fill="#191970" stroke="#191970" points="71.1534,-149.5163 67.1331,-159.3187 76.3888,-154.1629 71.1534,-149.5163"/>
</g>
<!-- Node3458 -->
<g id="node8" class="node">
<title>Node3458</title>
<g id="a_node8"><a xlink:href="structcimg__library__suffixed_1_1_c_img.html#ac0690a65c81513ffc96f36985cfa4fd4" target="_top" xlink:title="Compute the sign of each pixel value. ">
<polygon fill="#ffffff" stroke="#000000" points="157.5,-.5 157.5,-30.5 270.5,-30.5 270.5,-.5 157.5,-.5"/>
<text text-anchor="start" x="165.5" y="-18.5" font-family="Helvetica,sans-Serif" font-size="10.00" fill="#000000">cimg_library_suffixed</text>
<text text-anchor="middle" x="214" y="-7.5" font-family="Helvetica,sans-Serif" font-size="10.00" fill="#000000">::CImg&lt; charT &gt;::sign</text>
</a>
</g>
</g>
<!-- Node3451&#45;&gt;Node3458 -->
<g id="edge7" class="edge">
<title>Node3451&#45;&gt;Node3458</title>
<path fill="none" stroke="#191970" d="M65.1357,-150.0679C79.2859,-120.2397 107.0088,-70.1193 145,-40.5 149.9236,-36.6614 155.4904,-33.3763 161.2736,-30.5735"/>
<polygon fill="#191970" stroke="#191970" points="61.8665,-148.7995 60.8621,-159.3467 68.2246,-151.728 61.8665,-148.7995"/>
</g>
</g>
</svg>
