<?xml version="1.0" encoding="UTF-8" standalone="no"?>
<!DOCTYPE svg PUBLIC "-//W3C//DTD SVG 1.1//EN"
 "http://www.w3.org/Graphics/SVG/1.1/DTD/svg11.dtd">
<!-- Generated by graphviz version 2.40.1 (20161225.0304)
 -->
<!-- Title: cimg_library_suffixed::cimg::log2 Pages: 1 -->
<svg width="426pt" height="39pt"
 viewBox="0.00 0.00 426.00 39.00" xmlns="http://www.w3.org/2000/svg" xmlns:xlink="http://www.w3.org/1999/xlink">
<g id="graph0" class="graph" transform="scale(1 1) rotate(0) translate(4 35)">
<title>cimg_library_suffixed::cimg::log2</title>
<polygon fill="#ffffff" stroke="transparent" points="-4,4 -4,-35 422,-35 422,4 -4,4"/>
<!-- Node2040 -->
<g id="node1" class="node">
<title>Node2040</title>
<polygon fill="#bfbfbf" stroke="#000000" points="0,-.5 0,-30.5 109,-30.5 109,-.5 0,-.5"/>
<text text-anchor="start" x="8" y="-18.5" font-family="Helvetica,sans-Serif" font-size="10.00" fill="#000000">cimg_library_suffixed</text>
<text text-anchor="middle" x="54.5" y="-7.5" font-family="Helvetica,sans-Serif" font-size="10.00" fill="#000000">::cimg::log2</text>
</g>
<!-- Node2041 -->
<g id="node2" class="node">
<title>Node2041</title>
<g id="a_node2"><a xlink:href="namespacecimg__library__suffixed.html#a65baff382319a3677fd777a976a4f50b" target="_top" xlink:title="cimg_library_suffixed::log">
<polygon fill="#ffffff" stroke="#000000" points="145,-6 145,-25 273,-25 273,-6 145,-6"/>
<text text-anchor="middle" x="209" y="-13" font-family="Helvetica,sans-Serif" font-size="10.00" fill="#000000">cimg_library_suffixed::log</text>
</a>
</g>
</g>
<!-- Node2040&#45;&gt;Node2041 -->
<g id="edge1" class="edge">
<title>Node2040&#45;&gt;Node2041</title>
<path fill="none" stroke="#191970" d="M109.4059,-15.5C117.5454,-15.5 126.0469,-15.5 134.5044,-15.5"/>
<polygon fill="#191970" stroke="#191970" points="134.7715,-19.0001 144.7714,-15.5 134.7714,-12.0001 134.7715,-19.0001"/>
</g>
<!-- Node2042 -->
<g id="node3" class="node">
<title>Node2042</title>
<g id="a_node3"><a xlink:href="structcimg__library__suffixed_1_1_c_img.html#a560dd5fe13a0b40fcf95e2ea7020381e" target="_top" xlink:title="Compute the logarithm of each pixel value . ">
<polygon fill="#ffffff" stroke="#000000" points="309,-.5 309,-30.5 418,-30.5 418,-.5 309,-.5"/>
<text text-anchor="start" x="317" y="-18.5" font-family="Helvetica,sans-Serif" font-size="10.00" fill="#000000">cimg_library_suffixed</text>
<text text-anchor="middle" x="363.5" y="-7.5" font-family="Helvetica,sans-Serif" font-size="10.00" fill="#000000">::CImg::get_log</text>
</a>
</g>
</g>
<!-- Node2041&#45;&gt;Node2042 -->
<g id="edge2" class="edge">
<title>Node2041&#45;&gt;Node2042</title>
<path fill="none" stroke="#191970" d="M273.1797,-15.5C281.5495,-15.5 290.1301,-15.5 298.513,-15.5"/>
<polygon fill="#191970" stroke="#191970" points="298.6128,-19.0001 308.6128,-15.5 298.6127,-12.0001 298.6128,-19.0001"/>
</g>
</g>
</svg>
