<?xml version="1.0" encoding="UTF-8" standalone="no"?>
<!DOCTYPE svg PUBLIC "-//W3C//DTD SVG 1.1//EN"
 "http://www.w3.org/Graphics/SVG/1.1/DTD/svg11.dtd">
<!-- Generated by graphviz version 2.40.1 (20161225.0304)
 -->
<!-- Title: cimg_library_suffixed::cimg::float2uint Pages: 1 -->
<svg width="296pt" height="100pt"
 viewBox="0.00 0.00 296.00 99.50" xmlns="http://www.w3.org/2000/svg" xmlns:xlink="http://www.w3.org/1999/xlink">
<g id="graph0" class="graph" transform="scale(1 1) rotate(0) translate(4 95.5)">
<title>cimg_library_suffixed::cimg::float2uint</title>
<polygon fill="#ffffff" stroke="transparent" points="-4,4 -4,-95.5 292,-95.5 292,4 -4,4"/>
<!-- Node1485 -->
<g id="node1" class="node">
<title>Node1485</title>
<polygon fill="#bfbfbf" stroke="#000000" points="0,-27.5 0,-57.5 109,-57.5 109,-27.5 0,-27.5"/>
<text text-anchor="start" x="8" y="-45.5" font-family="Helvetica,sans-Serif" font-size="10.00" fill="#000000">cimg_library_suffixed</text>
<text text-anchor="middle" x="54.5" y="-34.5" font-family="Helvetica,sans-Serif" font-size="10.00" fill="#000000">::cimg::float2uint</text>
</g>
<!-- Node1486 -->
<g id="node2" class="node">
<title>Node1486</title>
<g id="a_node2"><a xlink:href="structcimg__library__suffixed_1_1_c_img.html#a4d0714efbea21ed5f469d21980acfac6" target="_top" xlink:title="Convert CImg3d representation into a 3d object . ">
<polygon fill="#ffffff" stroke="#000000" points="162,-50 162,-91 271,-91 271,-50 162,-50"/>
<text text-anchor="start" x="170" y="-79" font-family="Helvetica,sans-Serif" font-size="10.00" fill="#000000">cimg_library_suffixed</text>
<text text-anchor="start" x="170" y="-68" font-family="Helvetica,sans-Serif" font-size="10.00" fill="#000000">::CImg&lt; charT &gt;::get</text>
<text text-anchor="middle" x="216.5" y="-57" font-family="Helvetica,sans-Serif" font-size="10.00" fill="#000000">_CImg3dtoobject3d</text>
</a>
</g>
</g>
<!-- Node1485&#45;&gt;Node1486 -->
<g id="edge1" class="edge">
<title>Node1485&#45;&gt;Node1486</title>
<path fill="none" stroke="#191970" d="M119.4668,-53.7288C133.5654,-56.1656 148.3392,-58.7191 161.9858,-61.0778"/>
<polygon fill="#191970" stroke="#191970" points="119.7958,-50.2339 109.3458,-51.9795 118.6036,-57.1316 119.7958,-50.2339"/>
</g>
<!-- Node1487 -->
<g id="node3" class="node">
<title>Node1487</title>
<g id="a_node3"><a xlink:href="structcimg__library__suffixed_1_1_c_img.html#a24ac4604b2b1ace7b6ae99f3f3943597" target="_top" xlink:title="Test if image instance represents a valid serialization of a 3d object. ">
<polygon fill="#ffffff" stroke="#000000" points="145,-.5 145,-30.5 288,-30.5 288,-.5 145,-.5"/>
<text text-anchor="start" x="153" y="-18.5" font-family="Helvetica,sans-Serif" font-size="10.00" fill="#000000">cimg_library_suffixed</text>
<text text-anchor="middle" x="216.5" y="-7.5" font-family="Helvetica,sans-Serif" font-size="10.00" fill="#000000">::CImg&lt; charT &gt;::is_CImg3d</text>
</a>
</g>
</g>
<!-- Node1485&#45;&gt;Node1487 -->
<g id="edge2" class="edge">
<title>Node1485&#45;&gt;Node1487</title>
<path fill="none" stroke="#191970" d="M119.3846,-31.6859C127.732,-30.2947 136.3174,-28.8638 144.7665,-27.4556"/>
<polygon fill="#191970" stroke="#191970" points="118.6343,-28.2626 109.3458,-33.359 119.7852,-35.1673 118.6343,-28.2626"/>
</g>
</g>
</svg>
