<?xml version="1.0" encoding="UTF-8" standalone="no"?>
<!DOCTYPE svg PUBLIC "-//W3C//DTD SVG 1.1//EN"
 "http://www.w3.org/Graphics/SVG/1.1/DTD/svg11.dtd">
<!-- Generated by graphviz version 2.40.1 (20161225.0304)
 -->
<!-- Title: cimg_library_suffixed::cimg::wait Pages: 1 -->
<svg width="1910pt" height="310pt"
 viewBox="0.00 0.00 1910.00 310.48" xmlns="http://www.w3.org/2000/svg" xmlns:xlink="http://www.w3.org/1999/xlink">
<g id="graph0" class="graph" transform="scale(1 1) rotate(0) translate(4 306.479)">
<title>cimg_library_suffixed::cimg::wait</title>
<polygon fill="#ffffff" stroke="transparent" points="-4,4 -4,-306.479 1906,-306.479 1906,4 -4,4"/>
<!-- Node4413 -->
<g id="node1" class="node">
<title>Node4413</title>
<polygon fill="#bfbfbf" stroke="#000000" points="0,-194.5 0,-224.5 109,-224.5 109,-194.5 0,-194.5"/>
<text text-anchor="start" x="8" y="-212.5" font-family="Helvetica,sans-Serif" font-size="10.00" fill="#000000">cimg_library_suffixed</text>
<text text-anchor="middle" x="54.5" y="-201.5" font-family="Helvetica,sans-Serif" font-size="10.00" fill="#000000">::cimg::wait</text>
</g>
<!-- Node4414 -->
<g id="node2" class="node">
<title>Node4414</title>
<g id="a_node2"><a xlink:href="namespacecimg__library__suffixed_1_1cimg.html#a204c82b3ebad23bf1c996e216bbed9ad" target="_top" xlink:title="cimg_library_suffixed\l::cimg::_wait">
<polygon fill="#ffffff" stroke="#000000" points="145,-238.5 145,-268.5 254,-268.5 254,-238.5 145,-238.5"/>
<text text-anchor="start" x="153" y="-256.5" font-family="Helvetica,sans-Serif" font-size="10.00" fill="#000000">cimg_library_suffixed</text>
<text text-anchor="middle" x="199.5" y="-245.5" font-family="Helvetica,sans-Serif" font-size="10.00" fill="#000000">::cimg::_wait</text>
</a>
</g>
</g>
<!-- Node4413&#45;&gt;Node4414 -->
<g id="edge1" class="edge">
<title>Node4413&#45;&gt;Node4414</title>
<path fill="none" stroke="#191970" d="M103.9952,-224.5192C115.5323,-228.0202 127.9365,-231.7842 139.8612,-235.4027"/>
<polygon fill="#191970" stroke="#191970" points="139.1501,-238.8445 149.7355,-238.3991 141.1827,-232.1461 139.1501,-238.8445"/>
</g>
<!-- Node4417 -->
<g id="node5" class="node">
<title>Node4417</title>
<g id="a_node5"><a xlink:href="namespacecimg__library__suffixed_1_1cimg.html#a9e739e4b4ac058abfba069466617b914" target="_top" xlink:title="cimg_library_suffixed\l::cimg::mutex">
<polygon fill="#ffffff" stroke="#000000" points="1479,-71.5 1479,-101.5 1588,-101.5 1588,-71.5 1479,-71.5"/>
<text text-anchor="start" x="1487" y="-89.5" font-family="Helvetica,sans-Serif" font-size="10.00" fill="#000000">cimg_library_suffixed</text>
<text text-anchor="middle" x="1533.5" y="-78.5" font-family="Helvetica,sans-Serif" font-size="10.00" fill="#000000">::cimg::mutex</text>
</a>
</g>
</g>
<!-- Node4413&#45;&gt;Node4417 -->
<g id="edge28" class="edge">
<title>Node4413&#45;&gt;Node4417</title>
<path fill="none" stroke="#191970" d="M68.8898,-224.5983C85.5158,-240.9736 114.5195,-266.3913 145,-278.5 227.8578,-311.4162 255.3435,-299.5 344.5,-299.5 344.5,-299.5 344.5,-299.5 1243.5,-299.5 1341.7064,-299.5 1366.6669,-266.2879 1443,-204.5 1476.0639,-177.7364 1504.0557,-136.5433 1519.808,-110.5814"/>
<polygon fill="#191970" stroke="#191970" points="1522.9493,-112.1462 1525.0444,-101.7605 1516.93,-108.5728 1522.9493,-112.1462"/>
</g>
<!-- Node4422 -->
<g id="node10" class="node">
<title>Node4422</title>
<g id="a_node10"><a xlink:href="namespacecimg__library__suffixed_1_1cimg.html#a71a3c7b37befc7a4313dfcdd80271bce" target="_top" xlink:title="Return the value of a system timer, with a millisecond precision. ">
<polygon fill="#ffffff" stroke="#000000" points="290,-194.5 290,-224.5 399,-224.5 399,-194.5 290,-194.5"/>
<text text-anchor="start" x="298" y="-212.5" font-family="Helvetica,sans-Serif" font-size="10.00" fill="#000000">cimg_library_suffixed</text>
<text text-anchor="middle" x="344.5" y="-201.5" font-family="Helvetica,sans-Serif" font-size="10.00" fill="#000000">::cimg::time</text>
</a>
</g>
</g>
<!-- Node4413&#45;&gt;Node4422 -->
<g id="edge35" class="edge">
<title>Node4413&#45;&gt;Node4422</title>
<path fill="none" stroke="#191970" d="M109.0468,-209.5C157.399,-209.5 228.094,-209.5 279.3929,-209.5"/>
<polygon fill="#191970" stroke="#191970" points="279.7056,-213.0001 289.7056,-209.5 279.7055,-206.0001 279.7056,-213.0001"/>
</g>
<!-- Node4430 -->
<g id="node18" class="node">
<title>Node4430</title>
<g id="a_node18"><a xlink:href="namespacecimg__library__suffixed_1_1cimg.html#ab7c09300be61c8a3361c379069100252" target="_top" xlink:title="Return a random variable uniformely distributed between [val_min,val_max]. ">
<polygon fill="#ffffff" stroke="#000000" points="145,-96.5 145,-126.5 254,-126.5 254,-96.5 145,-96.5"/>
<text text-anchor="start" x="153" y="-114.5" font-family="Helvetica,sans-Serif" font-size="10.00" fill="#000000">cimg_library_suffixed</text>
<text text-anchor="middle" x="199.5" y="-103.5" font-family="Helvetica,sans-Serif" font-size="10.00" fill="#000000">::cimg::rand</text>
</a>
</g>
</g>
<!-- Node4413&#45;&gt;Node4430 -->
<g id="edge29" class="edge">
<title>Node4413&#45;&gt;Node4430</title>
<path fill="none" stroke="#191970" d="M72.5803,-194.3152C90.4075,-179.6851 118.7219,-157.3511 145,-140.5 149.7367,-137.4626 154.8227,-134.4513 159.9155,-131.5832"/>
<polygon fill="#191970" stroke="#191970" points="161.9256,-134.473 169.0161,-126.6005 158.5638,-128.333 161.9256,-134.473"/>
</g>
<!-- Node4432 -->
<g id="node20" class="node">
<title>Node4432</title>
<g id="a_node20"><a xlink:href="namespacecimg__library__suffixed_1_1cimg.html#ab77520695d7b96687093353c613c410c" target="_top" xlink:title="cimg_library_suffixed\l::cimg::srand">
<polygon fill="#ffffff" stroke="#000000" points="145,-150.5 145,-180.5 254,-180.5 254,-150.5 145,-150.5"/>
<text text-anchor="start" x="153" y="-168.5" font-family="Helvetica,sans-Serif" font-size="10.00" fill="#000000">cimg_library_suffixed</text>
<text text-anchor="middle" x="199.5" y="-157.5" font-family="Helvetica,sans-Serif" font-size="10.00" fill="#000000">::cimg::srand</text>
</a>
</g>
</g>
<!-- Node4413&#45;&gt;Node4432 -->
<g id="edge32" class="edge">
<title>Node4413&#45;&gt;Node4432</title>
<path fill="none" stroke="#191970" d="M103.9952,-194.4808C115.5323,-190.9798 127.9365,-187.2158 139.8612,-183.5973"/>
<polygon fill="#191970" stroke="#191970" points="141.1827,-186.8539 149.7355,-180.6009 139.1501,-180.1555 141.1827,-186.8539"/>
</g>
<!-- Node4415 -->
<g id="node3" class="node">
<title>Node4415</title>
<g id="a_node3"><a xlink:href="namespacecimg__library__suffixed_1_1cimg.html#aa2bf8fb0d97c122cbc52e1f2e167e8a6" target="_top" xlink:title="Sleep for a given numbers of milliseconds. ">
<polygon fill="#ffffff" stroke="#000000" points="435,-239.5 435,-269.5 544,-269.5 544,-239.5 435,-239.5"/>
<text text-anchor="start" x="443" y="-257.5" font-family="Helvetica,sans-Serif" font-size="10.00" fill="#000000">cimg_library_suffixed</text>
<text text-anchor="middle" x="489.5" y="-246.5" font-family="Helvetica,sans-Serif" font-size="10.00" fill="#000000">::cimg::sleep</text>
</a>
</g>
</g>
<!-- Node4414&#45;&gt;Node4415 -->
<g id="edge2" class="edge">
<title>Node4414&#45;&gt;Node4415</title>
<path fill="none" stroke="#191970" d="M254.0468,-253.6881C302.399,-253.8548 373.094,-254.0986 424.3929,-254.2755"/>
<polygon fill="#191970" stroke="#191970" points="424.6935,-257.7765 434.7056,-254.3111 424.7177,-250.7765 424.6935,-257.7765"/>
</g>
<!-- Node4414&#45;&gt;Node4422 -->
<g id="edge10" class="edge">
<title>Node4414&#45;&gt;Node4422</title>
<path fill="none" stroke="#191970" d="M248.9952,-238.4808C260.5323,-234.9798 272.9365,-231.2158 284.8612,-227.5973"/>
<polygon fill="#191970" stroke="#191970" points="286.1827,-230.8539 294.7355,-224.6009 284.1501,-224.1555 286.1827,-230.8539"/>
</g>
<!-- Node4416 -->
<g id="node4" class="node">
<title>Node4416</title>
<g id="a_node4"><a xlink:href="namespacecimg__library__suffixed_1_1cimg.html#a79aef0cbcf66ceb71c2b74cb66b4deb2" target="_top" xlink:title="Avoid warning messages due to unused parameters. Do nothing actually. ">
<polygon fill="#ffffff" stroke="#000000" points="1334,-164.5 1334,-194.5 1443,-194.5 1443,-164.5 1334,-164.5"/>
<text text-anchor="start" x="1342" y="-182.5" font-family="Helvetica,sans-Serif" font-size="10.00" fill="#000000">cimg_library_suffixed</text>
<text text-anchor="middle" x="1388.5" y="-171.5" font-family="Helvetica,sans-Serif" font-size="10.00" fill="#000000">::cimg::unused</text>
</a>
</g>
</g>
<!-- Node4415&#45;&gt;Node4416 -->
<g id="edge3" class="edge">
<title>Node4415&#45;&gt;Node4416</title>
<path fill="none" stroke="#191970" d="M544.0086,-256.6002C602.2875,-258.6621 697.4101,-261.5 779.5,-261.5 779.5,-261.5 779.5,-261.5 1090,-261.5 1184.1383,-261.5 1208.4137,-250.4192 1298,-221.5 1316.1888,-215.6285 1335.5115,-207.0155 1351.6114,-199.1153"/>
<polygon fill="#191970" stroke="#191970" points="1353.3104,-202.1788 1360.6854,-194.5722 1350.1765,-195.9195 1353.3104,-202.1788"/>
</g>
<!-- Node4416&#45;&gt;Node4417 -->
<g id="edge4" class="edge">
<title>Node4416&#45;&gt;Node4417</title>
<path fill="none" stroke="#191970" d="M1412.1195,-164.351C1436.3446,-148.8134 1474.1987,-124.5346 1501.1892,-107.2235"/>
<polygon fill="#191970" stroke="#191970" points="1503.3628,-109.9875 1509.8906,-101.6426 1499.5836,-104.0953 1503.3628,-109.9875"/>
</g>
<!-- Node4418 -->
<g id="node6" class="node">
<title>Node4418</title>
<g id="a_node6"><a xlink:href="structcimg__library__suffixed_1_1cimg_1_1_mutex__info.html#a6cc8e26847a1aa649febed03d70182e7" target="_top" xlink:title="cimg_library_suffixed\l::cimg::Mutex_info::lock">
<polygon fill="#ffffff" stroke="#000000" points="1629.5,-137.5 1629.5,-167.5 1751.5,-167.5 1751.5,-137.5 1629.5,-137.5"/>
<text text-anchor="start" x="1637.5" y="-155.5" font-family="Helvetica,sans-Serif" font-size="10.00" fill="#000000">cimg_library_suffixed</text>
<text text-anchor="middle" x="1690.5" y="-144.5" font-family="Helvetica,sans-Serif" font-size="10.00" fill="#000000">::cimg::Mutex_info::lock</text>
</a>
</g>
</g>
<!-- Node4417&#45;&gt;Node4418 -->
<g id="edge5" class="edge">
<title>Node4417&#45;&gt;Node4418</title>
<path fill="none" stroke="#191970" d="M1569.519,-101.6417C1592.0569,-111.1163 1621.2804,-123.4013 1645.3593,-133.5237"/>
<polygon fill="#191970" stroke="#191970" points="1644.0737,-136.7798 1654.6486,-137.4287 1646.7864,-130.3268 1644.0737,-136.7798"/>
</g>
<!-- Node4419 -->
<g id="node7" class="node">
<title>Node4419</title>
<g id="a_node7"><a xlink:href="namespacecimg__library__suffixed_1_1cimg.html#aa0e1bc96ae6e235dc5b67b8b0a466166" target="_top" xlink:title="cimg_library_suffixed\l::cimg::Mutex_attr">
<polygon fill="#ffffff" stroke="#000000" points="1793,-71.5 1793,-101.5 1902,-101.5 1902,-71.5 1793,-71.5"/>
<text text-anchor="start" x="1801" y="-89.5" font-family="Helvetica,sans-Serif" font-size="10.00" fill="#000000">cimg_library_suffixed</text>
<text text-anchor="middle" x="1847.5" y="-78.5" font-family="Helvetica,sans-Serif" font-size="10.00" fill="#000000">::cimg::Mutex_attr</text>
</a>
</g>
</g>
<!-- Node4417&#45;&gt;Node4419 -->
<g id="edge6" class="edge">
<title>Node4417&#45;&gt;Node4419</title>
<path fill="none" stroke="#191970" d="M1588.0532,-87.9005C1599.9033,-88.1502 1612.3711,-88.3715 1624,-88.5 1683.1075,-89.153 1697.8925,-89.153 1757,-88.5 1765.3582,-88.4077 1774.1499,-88.2674 1782.8341,-88.103"/>
<polygon fill="#191970" stroke="#191970" points="1783.019,-91.6001 1792.9468,-87.9005 1782.8787,-84.6015 1783.019,-91.6001"/>
</g>
<!-- Node4420 -->
<g id="node8" class="node">
<title>Node4420</title>
<g id="a_node8"><a xlink:href="structcimg__library__suffixed_1_1cimg_1_1_mutex__info.html#a9bf4ed1e1dfe6f28fa6250cd04f3c900" target="_top" xlink:title="cimg_library_suffixed\l::cimg::Mutex_info::trylock">
<polygon fill="#ffffff" stroke="#000000" points="1624,-49.5 1624,-79.5 1757,-79.5 1757,-49.5 1624,-49.5"/>
<text text-anchor="start" x="1632" y="-67.5" font-family="Helvetica,sans-Serif" font-size="10.00" fill="#000000">cimg_library_suffixed</text>
<text text-anchor="middle" x="1690.5" y="-56.5" font-family="Helvetica,sans-Serif" font-size="10.00" fill="#000000">::cimg::Mutex_info::trylock</text>
</a>
</g>
</g>
<!-- Node4417&#45;&gt;Node4420 -->
<g id="edge7" class="edge">
<title>Node4417&#45;&gt;Node4420</title>
<path fill="none" stroke="#191970" d="M1588.411,-78.8055C1596.6098,-77.6566 1605.187,-76.4547 1613.7367,-75.2566"/>
<polygon fill="#191970" stroke="#191970" points="1614.3189,-78.7093 1623.7365,-73.8554 1613.3475,-71.7771 1614.3189,-78.7093"/>
</g>
<!-- Node4421 -->
<g id="node9" class="node">
<title>Node4421</title>
<g id="a_node9"><a xlink:href="structcimg__library__suffixed_1_1cimg_1_1_mutex__info.html#afac3fa5f107ad4795fb867050f616555" target="_top" xlink:title="cimg_library_suffixed\l::cimg::Mutex_info::unlock">
<polygon fill="#ffffff" stroke="#000000" points="1624.5,-.5 1624.5,-30.5 1756.5,-30.5 1756.5,-.5 1624.5,-.5"/>
<text text-anchor="start" x="1632.5" y="-18.5" font-family="Helvetica,sans-Serif" font-size="10.00" fill="#000000">cimg_library_suffixed</text>
<text text-anchor="middle" x="1690.5" y="-7.5" font-family="Helvetica,sans-Serif" font-size="10.00" fill="#000000">::cimg::Mutex_info::unlock</text>
</a>
</g>
</g>
<!-- Node4417&#45;&gt;Node4421 -->
<g id="edge9" class="edge">
<title>Node4417&#45;&gt;Node4421</title>
<path fill="none" stroke="#191970" d="M1560.3679,-71.3503C1578.1357,-61.6318 1602.1057,-49.0857 1624,-39.5 1628.0951,-37.7071 1632.3711,-35.9385 1636.6935,-34.2237"/>
<polygon fill="#191970" stroke="#191970" points="1638.1067,-37.43 1646.1781,-30.5669 1635.5885,-30.8987 1638.1067,-37.43"/>
</g>
<!-- Node4420&#45;&gt;Node4419 -->
<g id="edge8" class="edge">
<title>Node4420&#45;&gt;Node4419</title>
<path fill="none" stroke="#191970" d="M1757.0821,-73.83C1765.5193,-75.0123 1774.1445,-76.2209 1782.5556,-77.3995"/>
<polygon fill="#191970" stroke="#191970" points="1782.293,-80.8968 1792.682,-78.8185 1783.2645,-73.9646 1782.293,-80.8968"/>
</g>
<!-- Node4423 -->
<g id="node11" class="node">
<title>Node4423</title>
<g id="a_node11"><a xlink:href="namespacecimg__library__suffixed_1_1cimg.html#ab47e3a7718b582df77725470f3824eb4" target="_top" xlink:title="cimg_library_suffixed\l::cimg::tictoc">
<polygon fill="#ffffff" stroke="#000000" points="435,-158.5 435,-188.5 544,-188.5 544,-158.5 435,-158.5"/>
<text text-anchor="start" x="443" y="-176.5" font-family="Helvetica,sans-Serif" font-size="10.00" fill="#000000">cimg_library_suffixed</text>
<text text-anchor="middle" x="489.5" y="-165.5" font-family="Helvetica,sans-Serif" font-size="10.00" fill="#000000">::cimg::tictoc</text>
</a>
</g>
</g>
<!-- Node4422&#45;&gt;Node4423 -->
<g id="edge11" class="edge">
<title>Node4422&#45;&gt;Node4423</title>
<path fill="none" stroke="#191970" d="M381.0896,-194.4633C394.441,-190.5024 409.9661,-186.3943 425.0238,-182.7948"/>
<polygon fill="#191970" stroke="#191970" points="425.88,-186.1891 434.8238,-180.5095 424.2902,-179.372 425.88,-186.1891"/>
</g>
<!-- Node4423&#45;&gt;Node4417 -->
<g id="edge12" class="edge">
<title>Node4423&#45;&gt;Node4417</title>
<path fill="none" stroke="#191970" d="M503.5927,-158.4575C543.0057,-118.1055 659.3693,-10.5 779.5,-10.5 779.5,-10.5 779.5,-10.5 1243.5,-10.5 1333.352,-10.5 1433.8985,-45.0613 1489.8551,-67.5708"/>
<polygon fill="#191970" stroke="#191970" points="1488.859,-70.9445 1499.4401,-71.4848 1491.5054,-64.464 1488.859,-70.9445"/>
</g>
<!-- Node4423&#45;&gt;Node4422 -->
<g id="edge27" class="edge">
<title>Node4423&#45;&gt;Node4422</title>
<path fill="none" stroke="#191970" d="M452.6144,-188.6244C439.4738,-192.5156 424.2563,-196.544 409.4621,-200.0889"/>
<polygon fill="#191970" stroke="#191970" points="408.2601,-196.7754 399.3183,-202.4583 409.8523,-203.5919 408.2601,-196.7754"/>
</g>
<!-- Node4424 -->
<g id="node12" class="node">
<title>Node4424</title>
<g id="a_node12"><a xlink:href="namespacecimg__library__suffixed_1_1cimg.html#ada686776cc71803df391eea79cd1b3e5" target="_top" xlink:title="Get/set default output stream for the &#160;library messages. ">
<polygon fill="#ffffff" stroke="#000000" points="580,-129.5 580,-159.5 689,-159.5 689,-129.5 580,-129.5"/>
<text text-anchor="start" x="588" y="-147.5" font-family="Helvetica,sans-Serif" font-size="10.00" fill="#000000">cimg_library_suffixed</text>
<text text-anchor="middle" x="634.5" y="-136.5" font-family="Helvetica,sans-Serif" font-size="10.00" fill="#000000">::cimg::output</text>
</a>
</g>
</g>
<!-- Node4423&#45;&gt;Node4424 -->
<g id="edge13" class="edge">
<title>Node4423&#45;&gt;Node4424</title>
<path fill="none" stroke="#191970" d="M544.3183,-162.5363C552.6188,-160.8762 561.2486,-159.1503 569.7354,-157.4529"/>
<polygon fill="#191970" stroke="#191970" points="570.4848,-160.8724 579.6042,-155.4792 569.112,-154.0084 570.4848,-160.8724"/>
</g>
<!-- Node4424&#45;&gt;Node4417 -->
<g id="edge26" class="edge">
<title>Node4424&#45;&gt;Node4417</title>
<path fill="none" stroke="#191970" d="M661.6998,-129.2885C712.7339,-102.2191 827.044,-48.5 930.5,-48.5 930.5,-48.5 930.5,-48.5 1243.5,-48.5 1321.6212,-48.5 1410.5842,-62.2245 1469.1426,-73.1773"/>
<polygon fill="#191970" stroke="#191970" points="1468.515,-76.6206 1478.9924,-75.0472 1469.8206,-69.7435 1468.515,-76.6206"/>
</g>
<!-- Node4425 -->
<g id="node13" class="node">
<title>Node4425</title>
<g id="a_node13"><a xlink:href="namespacecimg__library__suffixed_1_1cimg.html#aab8db7528c32a8fd3a3dc471e662782e" target="_top" xlink:title="cimg_library_suffixed\l::cimg::_stderr">
<polygon fill="#ffffff" stroke="#000000" points="725,-129.5 725,-159.5 834,-159.5 834,-129.5 725,-129.5"/>
<text text-anchor="start" x="733" y="-147.5" font-family="Helvetica,sans-Serif" font-size="10.00" fill="#000000">cimg_library_suffixed</text>
<text text-anchor="middle" x="779.5" y="-136.5" font-family="Helvetica,sans-Serif" font-size="10.00" fill="#000000">::cimg::_stderr</text>
</a>
</g>
</g>
<!-- Node4424&#45;&gt;Node4425 -->
<g id="edge14" class="edge">
<title>Node4424&#45;&gt;Node4425</title>
<path fill="none" stroke="#191970" d="M689.3183,-144.5C697.5286,-144.5 706.0611,-144.5 714.4586,-144.5"/>
<polygon fill="#191970" stroke="#191970" points="714.6042,-148.0001 724.6042,-144.5 714.6042,-141.0001 714.6042,-148.0001"/>
</g>
<!-- Node4425&#45;&gt;Node4416 -->
<g id="edge25" class="edge">
<title>Node4425&#45;&gt;Node4416</title>
<path fill="none" stroke="#191970" d="M832.9551,-159.5037C927.0851,-183.9564 1128.5092,-227.48 1298,-204.5 1309.6184,-202.9247 1321.8526,-200.261 1333.4392,-197.2449"/>
<polygon fill="#191970" stroke="#191970" points="1334.6963,-200.53 1343.423,-194.5221 1332.8544,-193.7766 1334.6963,-200.53"/>
</g>
<!-- Node4426 -->
<g id="node14" class="node">
<title>Node4426</title>
<g id="a_node14"><a xlink:href="namespacecimg__library__suffixed_1_1cimg.html#aeafab144366eddd11360f32f468fa4af" target="_top" xlink:title="Set current &#160;exception mode. ">
<polygon fill="#ffffff" stroke="#000000" points="870,-129.5 870,-159.5 991,-159.5 991,-129.5 870,-129.5"/>
<text text-anchor="start" x="878" y="-147.5" font-family="Helvetica,sans-Serif" font-size="10.00" fill="#000000">cimg_library_suffixed</text>
<text text-anchor="middle" x="930.5" y="-136.5" font-family="Helvetica,sans-Serif" font-size="10.00" fill="#000000">::cimg::exception_mode</text>
</a>
</g>
</g>
<!-- Node4425&#45;&gt;Node4426 -->
<g id="edge15" class="edge">
<title>Node4425&#45;&gt;Node4426</title>
<path fill="none" stroke="#191970" d="M834.0145,-144.5C842.3935,-144.5 851.1471,-144.5 859.8158,-144.5"/>
<polygon fill="#191970" stroke="#191970" points="859.9255,-148.0001 869.9254,-144.5 859.9254,-141.0001 859.9255,-148.0001"/>
</g>
<!-- Node4427 -->
<g id="node15" class="node">
<title>Node4427</title>
<g id="a_node15"><a xlink:href="namespacecimg__library__suffixed_1_1cimg.html#a6c578f866de2be9be7e385d693c758c8" target="_top" xlink:title="cimg_library_suffixed\l::cimg::_exception_mode">
<polygon fill="#ffffff" stroke="#000000" points="1027,-85.5 1027,-115.5 1153,-115.5 1153,-85.5 1027,-85.5"/>
<text text-anchor="start" x="1035" y="-103.5" font-family="Helvetica,sans-Serif" font-size="10.00" fill="#000000">cimg_library_suffixed</text>
<text text-anchor="middle" x="1090" y="-92.5" font-family="Helvetica,sans-Serif" font-size="10.00" fill="#000000">::cimg::_exception_mode</text>
</a>
</g>
</g>
<!-- Node4426&#45;&gt;Node4427 -->
<g id="edge16" class="edge">
<title>Node4426&#45;&gt;Node4427</title>
<path fill="none" stroke="#191970" d="M984.9447,-129.4808C998.0889,-125.8548 1012.2562,-121.9466 1025.8009,-118.2101"/>
<polygon fill="#191970" stroke="#191970" points="1026.8209,-121.5595 1035.53,-115.5262 1024.9593,-114.8116 1026.8209,-121.5595"/>
</g>
<!-- Node4427&#45;&gt;Node4417 -->
<g id="edge24" class="edge">
<title>Node4427&#45;&gt;Node4417</title>
<path fill="none" stroke="#191970" d="M1153.0717,-98.509C1236.8352,-95.8648 1384.0329,-91.2182 1468.6723,-88.5464"/>
<polygon fill="#191970" stroke="#191970" points="1468.791,-92.0445 1478.6756,-88.2306 1468.5701,-85.048 1468.791,-92.0445"/>
</g>
<!-- Node4427&#45;&gt;Node4425 -->
<g id="edge17" class="edge">
<title>Node4427&#45;&gt;Node4425</title>
<path fill="none" stroke="#191970" d="M1026.5324,-102.8975C982.3655,-105.3165 922.2588,-110.1073 870,-119.5 859.3137,-121.4207 848.0616,-124.0344 837.2614,-126.8504"/>
<polygon fill="#191970" stroke="#191970" points="836.2451,-123.4994 827.4993,-129.4794 838.0654,-130.2586 836.2451,-123.4994"/>
</g>
<!-- Node4428 -->
<g id="node16" class="node">
<title>Node4428</title>
<g id="a_node16"><a xlink:href="namespacecimg__library__suffixed_1_1cimg.html#a01a3b743897290604513ea6d847c9886" target="_top" xlink:title="cimg_library_suffixed\l::cimg::_stdin">
<polygon fill="#ffffff" stroke="#000000" points="1189,-164.5 1189,-194.5 1298,-194.5 1298,-164.5 1189,-164.5"/>
<text text-anchor="start" x="1197" y="-182.5" font-family="Helvetica,sans-Serif" font-size="10.00" fill="#000000">cimg_library_suffixed</text>
<text text-anchor="middle" x="1243.5" y="-171.5" font-family="Helvetica,sans-Serif" font-size="10.00" fill="#000000">::cimg::_stdin</text>
</a>
</g>
</g>
<!-- Node4427&#45;&gt;Node4428 -->
<g id="edge18" class="edge">
<title>Node4427&#45;&gt;Node4428</title>
<path fill="none" stroke="#191970" d="M1116.6262,-115.6758C1136.4055,-126.7887 1164.1474,-142.0406 1189,-154.5 1192.7165,-156.3632 1196.5999,-158.2535 1200.5075,-160.1171"/>
<polygon fill="#191970" stroke="#191970" points="1199.0634,-163.3057 1209.6024,-164.3918 1202.041,-156.9705 1199.0634,-163.3057"/>
</g>
<!-- Node4429 -->
<g id="node17" class="node">
<title>Node4429</title>
<g id="a_node17"><a xlink:href="namespacecimg__library__suffixed_1_1cimg.html#a493220746e5df3466568bd7862825008" target="_top" xlink:title="cimg_library_suffixed\l::cimg::_stdout">
<polygon fill="#ffffff" stroke="#000000" points="1189,-115.5 1189,-145.5 1298,-145.5 1298,-115.5 1189,-115.5"/>
<text text-anchor="start" x="1197" y="-133.5" font-family="Helvetica,sans-Serif" font-size="10.00" fill="#000000">cimg_library_suffixed</text>
<text text-anchor="middle" x="1243.5" y="-122.5" font-family="Helvetica,sans-Serif" font-size="10.00" fill="#000000">::cimg::_stdout</text>
</a>
</g>
</g>
<!-- Node4427&#45;&gt;Node4429 -->
<g id="edge21" class="edge">
<title>Node4427&#45;&gt;Node4429</title>
<path fill="none" stroke="#191970" d="M1153.3205,-112.8754C1161.6577,-114.5048 1170.2131,-116.1768 1178.5765,-117.8114"/>
<polygon fill="#191970" stroke="#191970" points="1178.1696,-121.298 1188.6553,-119.7812 1179.5123,-114.428 1178.1696,-121.298"/>
</g>
<!-- Node4428&#45;&gt;Node4416 -->
<g id="edge20" class="edge">
<title>Node4428&#45;&gt;Node4416</title>
<path fill="none" stroke="#191970" d="M1298.3183,-179.5C1306.5286,-179.5 1315.0611,-179.5 1323.4586,-179.5"/>
<polygon fill="#191970" stroke="#191970" points="1323.6042,-183.0001 1333.6042,-179.5 1323.6042,-176.0001 1323.6042,-183.0001"/>
</g>
<!-- Node4428&#45;&gt;Node4426 -->
<g id="edge19" class="edge">
<title>Node4428&#45;&gt;Node4426</title>
<path fill="none" stroke="#191970" d="M1188.9666,-173.402C1136.8805,-167.5777 1058.1092,-158.7694 1001.2205,-152.408"/>
<polygon fill="#191970" stroke="#191970" points="1001.5477,-148.9229 991.2207,-151.2899 1000.7698,-155.8795 1001.5477,-148.9229"/>
</g>
<!-- Node4429&#45;&gt;Node4416 -->
<g id="edge23" class="edge">
<title>Node4429&#45;&gt;Node4416</title>
<path fill="none" stroke="#191970" d="M1288.1879,-145.6014C1302.659,-150.4917 1318.8725,-155.9707 1333.9752,-161.0744"/>
<polygon fill="#191970" stroke="#191970" points="1333.1158,-164.4783 1343.71,-164.3641 1335.3569,-157.8468 1333.1158,-164.4783"/>
</g>
<!-- Node4429&#45;&gt;Node4426 -->
<g id="edge22" class="edge">
<title>Node4429&#45;&gt;Node4426</title>
<path fill="none" stroke="#191970" d="M1188.9666,-132.9392C1136.8805,-135.2689 1058.1092,-138.7922 1001.2205,-141.3368"/>
<polygon fill="#191970" stroke="#191970" points="1001.0543,-137.8406 991.2207,-141.7841 1001.3671,-144.8336 1001.0543,-137.8406"/>
</g>
<!-- Node4431 -->
<g id="node19" class="node">
<title>Node4431</title>
<g id="a_node19"><a xlink:href="namespacecimg__library__suffixed_1_1cimg.html#af5cd3397f819c13ccb17e05a7db736b1" target="_top" xlink:title="Return a random variable uniformely distributed between [0,val_max]. ">
<polygon fill="#ffffff" stroke="#000000" points="290,-96.5 290,-126.5 399,-126.5 399,-96.5 290,-96.5"/>
<text text-anchor="start" x="298" y="-114.5" font-family="Helvetica,sans-Serif" font-size="10.00" fill="#000000">cimg_library_suffixed</text>
<text text-anchor="middle" x="344.5" y="-103.5" font-family="Helvetica,sans-Serif" font-size="10.00" fill="#000000">::cimg::rand</text>
</a>
</g>
</g>
<!-- Node4430&#45;&gt;Node4431 -->
<g id="edge30" class="edge">
<title>Node4430&#45;&gt;Node4431</title>
<path fill="none" stroke="#191970" d="M254.3183,-104.9317C262.5286,-104.7598 271.0611,-104.7099 279.4586,-104.7819"/>
<polygon fill="#191970" stroke="#191970" points="279.5541,-108.2835 289.6042,-104.9301 279.6564,-101.2843 279.5541,-108.2835"/>
</g>
<!-- Node4431&#45;&gt;Node4430 -->
<g id="edge31" class="edge">
<title>Node4431&#45;&gt;Node4430</title>
<path fill="none" stroke="#191970" d="M289.6042,-118.0699C281.3919,-118.241 272.8588,-118.2902 264.4621,-118.2175"/>
<polygon fill="#191970" stroke="#191970" points="264.3687,-114.7158 254.3183,-118.0683 264.2657,-121.7151 264.3687,-114.7158"/>
</g>
<!-- Node4432&#45;&gt;Node4422 -->
<g id="edge34" class="edge">
<title>Node4432&#45;&gt;Node4422</title>
<path fill="none" stroke="#191970" d="M248.9952,-180.5192C260.5323,-184.0202 272.9365,-187.7842 284.8612,-191.4027"/>
<polygon fill="#191970" stroke="#191970" points="284.1501,-194.8445 294.7355,-194.3991 286.1827,-188.1461 284.1501,-194.8445"/>
</g>
<!-- Node4433 -->
<g id="node21" class="node">
<title>Node4433</title>
<g id="a_node21"><a xlink:href="namespacecimg__library__suffixed_1_1cimg.html#abae779a6d52b74e3a46e75a6c5b6e49e" target="_top" xlink:title="cimg_library_suffixed\l::cimg::srand">
<polygon fill="#ffffff" stroke="#000000" points="290,-145.5 290,-175.5 399,-175.5 399,-145.5 290,-145.5"/>
<text text-anchor="start" x="298" y="-163.5" font-family="Helvetica,sans-Serif" font-size="10.00" fill="#000000">cimg_library_suffixed</text>
<text text-anchor="middle" x="344.5" y="-152.5" font-family="Helvetica,sans-Serif" font-size="10.00" fill="#000000">::cimg::srand</text>
</a>
</g>
</g>
<!-- Node4432&#45;&gt;Node4433 -->
<g id="edge33" class="edge">
<title>Node4432&#45;&gt;Node4433</title>
<path fill="none" stroke="#191970" d="M254.3183,-163.6097C262.5286,-163.3266 271.0611,-163.0324 279.4586,-162.7428"/>
<polygon fill="#191970" stroke="#191970" points="279.7308,-166.2356 289.6042,-162.393 279.4895,-159.2398 279.7308,-166.2356"/>
</g>
</g>
</svg>
