<?xml version="1.0" encoding="UTF-8" standalone="no"?>
<!DOCTYPE svg PUBLIC "-//W3C//DTD SVG 1.1//EN"
 "http://www.w3.org/Graphics/SVG/1.1/DTD/svg11.dtd">
<!-- Generated by graphviz version 2.40.1 (20161225.0304)
 -->
<!-- Title: cimg_library_suffixed::log Pages: 1 -->
<!--zoomable 526 -->
<svg id="main" version="1.1" xmlns="http://www.w3.org/2000/svg" xmlns:xlink="http://www.w3.org/1999/xlink" xml:space="preserve" onload="init(evt)">
<style type="text/css"><![CDATA[
.edge:hover path { stroke: red; }
.edge:hover polygon { stroke: red; fill: red; }
]]></style>
<script type="text/javascript"><![CDATA[
var edges = document.getElementsByTagName('g');
if (edges && edges.length) {
  for (var i=0;i<edges.length;i++) {
    if (edges[i].id.substr(0,4)=='edge') {
      edges[i].setAttribute('class','edge');
    }
  }
}
]]></script>
        <defs>
                <circle id="rim" cx="0" cy="0" r="7"/>
                <circle id="rim2" cx="0" cy="0" r="3.5"/>
                <g id="zoomPlus">
                        <use xlink:href="#rim" fill="#404040">
                                <set attributeName="fill" to="#808080" begin="zoomplus.mouseover" end="zoomplus.mouseout"/>
                        </use>
                        <path d="M-4,0h8M0,-4v8" fill="none" stroke="white" stroke-width="1.5" pointer-events="none"/>
                </g>
                <g id="zoomMin">
                        <use xlink:href="#rim" fill="#404040">
                                <set attributeName="fill" to="#808080" begin="zoomminus.mouseover" end="zoomminus.mouseout"/>
                        </use>
                        <path d="M-4,0h8" fill="none" stroke="white" stroke-width="1.5" pointer-events="none"/>
                </g>
                <g id="dirArrow">
                        <path fill="none" stroke="white" stroke-width="1.5" d="M0,-3.0v7 M-2.5,-0.5L0,-3.0L2.5,-0.5"/>
                </g>
               <g id="resetDef">
                       <use xlink:href="#rim2" fill="#404040">
                               <set attributeName="fill" to="#808080" begin="reset.mouseover" end="reset.mouseout"/>
                       </use>
               </g>
        </defs>

<script type="text/javascript">
var viewWidth = 669;
var viewHeight = 526;
var sectionId = 'dynsection-17';
</script>
<script xlink:href="svgpan.js"/>
<svg id="graph" class="graph">
<g id="viewport">
<title>cimg_library_suffixed::log</title>
<polygon fill="#ffffff" stroke="transparent" points="-4,4 -4,-522 665,-522 665,4 -4,4"/>
<!-- Node86 -->
<g id="node1" class="node">
<title>Node86</title>
<polygon fill="#bfbfbf" stroke="#000000" points="0,-251.5 0,-270.5 128,-270.5 128,-251.5 0,-251.5"/>
<text text-anchor="middle" x="64" y="-258.5" font-family="Helvetica,sans-Serif" font-size="10.00" fill="#000000">cimg_library_suffixed::log</text>
</g>
<!-- Node87 -->
<g id="node2" class="node">
<title>Node87</title>
<g id="a_node2"><a xlink:href="structcimg__library__suffixed_1_1_c_img_1_1__cimg__math__parser.html#a4c1d921651a9408da9487f1d4e8c13d0" target="_top" xlink:title="cimg_library_suffixed\l::CImg::_cimg_math_parser\l::_mp_complex_pow">
<polygon fill="#ffffff" stroke="#000000" points="164,-476.5 164,-517.5 302,-517.5 302,-476.5 164,-476.5"/>
<text text-anchor="start" x="172" y="-505.5" font-family="Helvetica,sans-Serif" font-size="10.00" fill="#000000">cimg_library_suffixed</text>
<text text-anchor="start" x="172" y="-494.5" font-family="Helvetica,sans-Serif" font-size="10.00" fill="#000000">::CImg::_cimg_math_parser</text>
<text text-anchor="middle" x="233" y="-483.5" font-family="Helvetica,sans-Serif" font-size="10.00" fill="#000000">::_mp_complex_pow</text>
</a>
</g>
</g>
<!-- Node86&#45;&gt;Node87 -->
<g id="edge1" class="edge">
<title>Node86&#45;&gt;Node87</title>
<path fill="none" stroke="#191970" d="M69.176,-280.4939C80.4077,-319.4922 110.4144,-407.9962 164,-462 169.3928,-467.4348 175.8048,-472.1846 182.5148,-476.285"/>
<polygon fill="#191970" stroke="#191970" points="72.4971,-279.3725 66.4478,-270.6744 65.7525,-281.2464 72.4971,-279.3725"/>
</g>
<!-- Node88 -->
<g id="node3" class="node">
<title>Node88</title>
<g id="a_node3"><a xlink:href="structcimg__library__suffixed_1_1_c_img_1_1__cimg__math__parser.html#a318c44c5d1f4f0114355f37ace87a4ae" target="_top" xlink:title="cimg_library_suffixed\l::CImg::_cimg_math_parser\l::compile">
<polygon fill="#ffffff" stroke="#000000" points="353,-443.5 353,-484.5 491,-484.5 491,-443.5 353,-443.5"/>
<text text-anchor="start" x="361" y="-472.5" font-family="Helvetica,sans-Serif" font-size="10.00" fill="#000000">cimg_library_suffixed</text>
<text text-anchor="start" x="361" y="-461.5" font-family="Helvetica,sans-Serif" font-size="10.00" fill="#000000">::CImg::_cimg_math_parser</text>
<text text-anchor="middle" x="422" y="-450.5" font-family="Helvetica,sans-Serif" font-size="10.00" fill="#000000">::compile</text>
</a>
</g>
</g>
<!-- Node86&#45;&gt;Node88 -->
<g id="edge2" class="edge">
<title>Node86&#45;&gt;Node88</title>
<path fill="none" stroke="#191970" d="M69.4115,-280.4387C80.5342,-316.4243 109.6087,-393.0246 164,-429 194.114,-448.9179 287.1108,-457.6065 352.7833,-461.3244"/>
<polygon fill="#191970" stroke="#191970" points="72.7146,-279.2655 66.5279,-270.6646 66.0007,-281.2463 72.7146,-279.2655"/>
</g>
<!-- Node89 -->
<g id="node4" class="node">
<title>Node89</title>
<g id="a_node4"><a xlink:href="structcimg__library__suffixed_1_1_c_img.html#a4ee4442b26855c03fbfbab878da90c07" target="_top" xlink:title="Draw a quadratic Mandelbrot or Julia 2d fractal. ">
<polygon fill="#ffffff" stroke="#000000" points="175,-328.5 175,-369.5 291,-369.5 291,-328.5 175,-328.5"/>
<text text-anchor="start" x="183" y="-357.5" font-family="Helvetica,sans-Serif" font-size="10.00" fill="#000000">cimg_library_suffixed</text>
<text text-anchor="start" x="183" y="-346.5" font-family="Helvetica,sans-Serif" font-size="10.00" fill="#000000">::CImg&lt; charT &gt;::draw</text>
<text text-anchor="middle" x="233" y="-335.5" font-family="Helvetica,sans-Serif" font-size="10.00" fill="#000000">_mandelbrot</text>
</a>
</g>
</g>
<!-- Node86&#45;&gt;Node89 -->
<g id="edge3" class="edge">
<title>Node86&#45;&gt;Node89</title>
<path fill="none" stroke="#191970" d="M88.0253,-275.9864C108.0164,-288.1991 137.4018,-305.5607 164,-319 170.2957,-322.181 177.0055,-325.3549 183.6747,-328.3831"/>
<polygon fill="#191970" stroke="#191970" points="89.6336,-272.8666 79.2824,-270.6075 85.9656,-278.8286 89.6336,-272.8666"/>
</g>
<!-- Node90 -->
<g id="node5" class="node">
<title>Node90</title>
<g id="a_node5"><a xlink:href="structcimg__library__suffixed_1_1_c_img.html#a91ec1cd09114c4018a78e4ea0b2df386" target="_top" xlink:title="Estimate displacement field between two images . ">
<polygon fill="#ffffff" stroke="#000000" points="178.5,-268.5 178.5,-309.5 287.5,-309.5 287.5,-268.5 178.5,-268.5"/>
<text text-anchor="start" x="186.5" y="-297.5" font-family="Helvetica,sans-Serif" font-size="10.00" fill="#000000">cimg_library_suffixed</text>
<text text-anchor="start" x="186.5" y="-286.5" font-family="Helvetica,sans-Serif" font-size="10.00" fill="#000000">::CImg&lt; charT &gt;::get</text>
<text text-anchor="middle" x="233" y="-275.5" font-family="Helvetica,sans-Serif" font-size="10.00" fill="#000000">_displacement</text>
</a>
</g>
</g>
<!-- Node86&#45;&gt;Node90 -->
<g id="edge4" class="edge">
<title>Node86&#45;&gt;Node90</title>
<path fill="none" stroke="#191970" d="M131.7436,-272.2238C147.2535,-274.7935 163.5481,-277.4932 178.4222,-279.9575"/>
<polygon fill="#191970" stroke="#191970" points="132.1252,-268.7394 121.6875,-270.5577 130.9809,-275.6452 132.1252,-268.7394"/>
</g>
<!-- Node91 -->
<g id="node6" class="node">
<title>Node91</title>
<g id="a_node6"><a xlink:href="structcimg__library__suffixed_1_1_c_img.html#a560dd5fe13a0b40fcf95e2ea7020381e" target="_top" xlink:title="Compute the logarithm of each pixel value . ">
<polygon fill="#ffffff" stroke="#000000" points="169.5,-219 169.5,-249 296.5,-249 296.5,-219 169.5,-219"/>
<text text-anchor="start" x="177.5" y="-237" font-family="Helvetica,sans-Serif" font-size="10.00" fill="#000000">cimg_library_suffixed</text>
<text text-anchor="middle" x="233" y="-226" font-family="Helvetica,sans-Serif" font-size="10.00" fill="#000000">::CImg&lt; charT &gt;::get_log</text>
</a>
</g>
</g>
<!-- Node86&#45;&gt;Node91 -->
<g id="edge5" class="edge">
<title>Node86&#45;&gt;Node91</title>
<path fill="none" stroke="#191970" d="M133.8085,-249.8472C145.5866,-247.9655 157.7576,-246.021 169.368,-244.1661"/>
<polygon fill="#191970" stroke="#191970" points="132.9057,-246.4469 123.5831,-251.4808 134.01,-253.3593 132.9057,-246.4469"/>
</g>
<!-- Node92 -->
<g id="node7" class="node">
<title>Node92</title>
<g id="a_node7"><a xlink:href="namespacecimg__library__suffixed_1_1cimg.html#aa12c572ad67f655e27f7b8e3e76dafa5" target="_top" xlink:title="Return a random variable following a gaussian distribution and a standard deviation of 1...">
<polygon fill="#ffffff" stroke="#000000" points="178.5,-170 178.5,-200 287.5,-200 287.5,-170 178.5,-170"/>
<text text-anchor="start" x="186.5" y="-188" font-family="Helvetica,sans-Serif" font-size="10.00" fill="#000000">cimg_library_suffixed</text>
<text text-anchor="middle" x="233" y="-177" font-family="Helvetica,sans-Serif" font-size="10.00" fill="#000000">::cimg::grand</text>
</a>
</g>
</g>
<!-- Node86&#45;&gt;Node92 -->
<g id="edge6" class="edge">
<title>Node86&#45;&gt;Node92</title>
<path fill="none" stroke="#191970" d="M89.8225,-246.7117C109.7688,-235.9504 138.228,-221.1894 164,-210 171.9473,-206.5495 180.541,-203.1682 188.877,-200.0627"/>
<polygon fill="#191970" stroke="#191970" points="88.1432,-243.6408 81.0308,-251.4934 91.4879,-249.7901 88.1432,-243.6408"/>
</g>
<!-- Node96 -->
<g id="node11" class="node">
<title>Node96</title>
<g id="a_node11"><a xlink:href="structcimg__library__suffixed_1_1_c_img.html#acc2665db5892449362ae3098f65b0377" target="_top" xlink:title="Compute the logarithm of each pixel value. ">
<polygon fill="#ffffff" stroke="#000000" points="178.5,-121 178.5,-151 287.5,-151 287.5,-121 178.5,-121"/>
<text text-anchor="start" x="186.5" y="-139" font-family="Helvetica,sans-Serif" font-size="10.00" fill="#000000">cimg_library_suffixed</text>
<text text-anchor="middle" x="233" y="-128" font-family="Helvetica,sans-Serif" font-size="10.00" fill="#000000">::CImg&lt; charT &gt;::log</text>
</a>
</g>
</g>
<!-- Node86&#45;&gt;Node96 -->
<g id="edge11" class="edge">
<title>Node86&#45;&gt;Node96</title>
<path fill="none" stroke="#191970" d="M77.4072,-243.4816C95.0799,-221.4634 128.1534,-183.8001 164,-161 169.913,-157.2391 176.4701,-153.9403 183.1216,-151.0785"/>
<polygon fill="#191970" stroke="#191970" points="74.6476,-241.3288 71.2131,-251.3515 80.1482,-245.6582 74.6476,-241.3288"/>
</g>
<!-- Node97 -->
<g id="node12" class="node">
<title>Node97</title>
<g id="a_node12"><a xlink:href="namespacecimg__library__suffixed_1_1cimg.html#a03657cf098d3b588e76bcef4426233bd" target="_top" xlink:title="Return base&#45;2 logarithm of a value. ">
<polygon fill="#ffffff" stroke="#000000" points="178.5,-389 178.5,-419 287.5,-419 287.5,-389 178.5,-389"/>
<text text-anchor="start" x="186.5" y="-407" font-family="Helvetica,sans-Serif" font-size="10.00" fill="#000000">cimg_library_suffixed</text>
<text text-anchor="middle" x="233" y="-396" font-family="Helvetica,sans-Serif" font-size="10.00" fill="#000000">::cimg::log2</text>
</a>
</g>
</g>
<!-- Node86&#45;&gt;Node97 -->
<g id="edge12" class="edge">
<title>Node86&#45;&gt;Node97</title>
<path fill="none" stroke="#191970" d="M75.2006,-279.4873C91.6561,-305.2007 124.7082,-351.6729 164,-379 169.4393,-382.783 175.5157,-386.0606 181.7462,-388.8821"/>
<polygon fill="#191970" stroke="#191970" points="77.9963,-277.3567 69.728,-270.732 72.0605,-281.0669 77.9963,-277.3567"/>
</g>
<!-- Node101 -->
<g id="node16" class="node">
<title>Node101</title>
<g id="a_node16"><a xlink:href="structcimg__library__suffixed_1_1_c_img_1_1__cimg__math__parser.html#ac01a447168773b005f451a63d2317620" target="_top" xlink:title="cimg_library_suffixed\l::CImg::_cimg_math_parser\l::mp_complex_log">
<polygon fill="#ffffff" stroke="#000000" points="164,-60.5 164,-101.5 302,-101.5 302,-60.5 164,-60.5"/>
<text text-anchor="start" x="172" y="-89.5" font-family="Helvetica,sans-Serif" font-size="10.00" fill="#000000">cimg_library_suffixed</text>
<text text-anchor="start" x="172" y="-78.5" font-family="Helvetica,sans-Serif" font-size="10.00" fill="#000000">::CImg::_cimg_math_parser</text>
<text text-anchor="middle" x="233" y="-67.5" font-family="Helvetica,sans-Serif" font-size="10.00" fill="#000000">::mp_complex_log</text>
</a>
</g>
</g>
<!-- Node86&#45;&gt;Node101 -->
<g id="edge17" class="edge">
<title>Node86&#45;&gt;Node101</title>
<path fill="none" stroke="#191970" d="M72.3302,-241.8525C86.7968,-210.5914 119.3482,-148.3404 164,-111 168.1084,-107.5643 172.6706,-104.4597 177.436,-101.6681"/>
<polygon fill="#191970" stroke="#191970" points="69.0421,-240.6302 68.126,-251.1853 75.4244,-243.5053 69.0421,-240.6302"/>
</g>
<!-- Node102 -->
<g id="node17" class="node">
<title>Node102</title>
<g id="a_node17"><a xlink:href="structcimg__library__suffixed_1_1_c_img_1_1__cimg__math__parser.html#ae9a43f4c2a66afec7fced513abcf758f" target="_top" xlink:title="cimg_library_suffixed\l::CImg::_cimg_math_parser\l::mp_log">
<polygon fill="#ffffff" stroke="#000000" points="164,-.5 164,-41.5 302,-41.5 302,-.5 164,-.5"/>
<text text-anchor="start" x="172" y="-29.5" font-family="Helvetica,sans-Serif" font-size="10.00" fill="#000000">cimg_library_suffixed</text>
<text text-anchor="start" x="172" y="-18.5" font-family="Helvetica,sans-Serif" font-size="10.00" fill="#000000">::CImg::_cimg_math_parser</text>
<text text-anchor="middle" x="233" y="-7.5" font-family="Helvetica,sans-Serif" font-size="10.00" fill="#000000">::mp_log</text>
</a>
</g>
</g>
<!-- Node86&#45;&gt;Node102 -->
<g id="edge18" class="edge">
<title>Node86&#45;&gt;Node102</title>
<path fill="none" stroke="#191970" d="M68.3794,-241.4518C78.4297,-200.7828 106.8097,-106.262 164,-51 167.5695,-47.5508 171.5997,-44.4646 175.8751,-41.7096"/>
<polygon fill="#191970" stroke="#191970" points="64.9676,-240.6707 66.0691,-251.2081 71.7792,-242.2837 64.9676,-240.6707"/>
</g>
<!-- Node93 -->
<g id="node8" class="node">
<title>Node93</title>
<g id="a_node8"><a xlink:href="namespacecimg__library__suffixed_1_1cimg.html#a2a18bbfb6a496d8d5a02943be8eaa936" target="_top" xlink:title="Return a random variable following a Poisson distribution of parameter z. ">
<polygon fill="#ffffff" stroke="#000000" points="367.5,-170 367.5,-200 476.5,-200 476.5,-170 367.5,-170"/>
<text text-anchor="start" x="375.5" y="-188" font-family="Helvetica,sans-Serif" font-size="10.00" fill="#000000">cimg_library_suffixed</text>
<text text-anchor="middle" x="422" y="-177" font-family="Helvetica,sans-Serif" font-size="10.00" fill="#000000">::cimg::prand</text>
</a>
</g>
</g>
<!-- Node92&#45;&gt;Node93 -->
<g id="edge7" class="edge">
<title>Node92&#45;&gt;Node93</title>
<path fill="none" stroke="#191970" d="M297.8783,-185C320.5375,-185 345.7246,-185 367.4562,-185"/>
<polygon fill="#191970" stroke="#191970" points="297.6667,-181.5001 287.6666,-185 297.6666,-188.5001 297.6667,-181.5001"/>
</g>
<!-- Node94 -->
<g id="node9" class="node">
<title>Node94</title>
<g id="a_node9"><a xlink:href="structcimg__library__suffixed_1_1_c_img.html#a6049c651eefc3a13b8f7d1fc3ff225d7" target="_top" xlink:title="Add random noise to pixel values. ">
<polygon fill="#ffffff" stroke="#000000" points="542,-192 542,-222 661,-222 661,-192 542,-192"/>
<text text-anchor="start" x="550" y="-210" font-family="Helvetica,sans-Serif" font-size="10.00" fill="#000000">cimg_library_suffixed</text>
<text text-anchor="middle" x="601.5" y="-199" font-family="Helvetica,sans-Serif" font-size="10.00" fill="#000000">::CImg&lt; charT &gt;::noise</text>
</a>
</g>
</g>
<!-- Node92&#45;&gt;Node94 -->
<g id="edge10" class="edge">
<title>Node92&#45;&gt;Node94</title>
<path fill="none" stroke="#191970" d="M295.4026,-202.3832C309.3147,-205.5492 324.0723,-208.3648 338,-210 407.6328,-218.1754 488.3248,-215.4876 541.8816,-212.013"/>
<polygon fill="#191970" stroke="#191970" points="295.983,-198.9239 285.4458,-200.0277 294.3714,-205.7359 295.983,-198.9239"/>
</g>
<!-- Node95 -->
<g id="node10" class="node">
<title>Node95</title>
<g id="a_node10"><a xlink:href="structcimg__library__suffixed_1_1_c_img_1_1__cimg__math__parser.html#a1a6f67dab44ca62b11aec01933907178" target="_top" xlink:title="cimg_library_suffixed\l::CImg::_cimg_math_parser::mp_g">
<polygon fill="#ffffff" stroke="#000000" points="338,-121 338,-151 506,-151 506,-121 338,-121"/>
<text text-anchor="start" x="346" y="-139" font-family="Helvetica,sans-Serif" font-size="10.00" fill="#000000">cimg_library_suffixed</text>
<text text-anchor="middle" x="422" y="-128" font-family="Helvetica,sans-Serif" font-size="10.00" fill="#000000">::CImg::_cimg_math_parser::mp_g</text>
</a>
</g>
</g>
<!-- Node92&#45;&gt;Node95 -->
<g id="edge9" class="edge">
<title>Node92&#45;&gt;Node95</title>
<path fill="none" stroke="#191970" d="M297.3808,-168.3087C318.9208,-162.7242 342.7923,-156.5353 363.8302,-151.0811"/>
<polygon fill="#191970" stroke="#191970" points="296.4682,-164.9295 287.6666,-170.8272 298.225,-171.7055 296.4682,-164.9295"/>
</g>
<!-- Node93&#45;&gt;Node94 -->
<g id="edge8" class="edge">
<title>Node93&#45;&gt;Node94</title>
<path fill="none" stroke="#191970" d="M486.8891,-192.953C504.7811,-195.1459 524.1041,-197.5142 541.694,-199.67"/>
<polygon fill="#191970" stroke="#191970" points="487.1828,-189.4629 476.8313,-191.7203 486.3312,-196.4109 487.1828,-189.4629"/>
</g>
<!-- Node97&#45;&gt;Node88 -->
<g id="edge13" class="edge">
<title>Node97&#45;&gt;Node88</title>
<path fill="none" stroke="#191970" d="M290.4626,-422.2421C311.5318,-428.9307 335.5191,-436.5458 357.1883,-443.4249"/>
<polygon fill="#191970" stroke="#191970" points="291.283,-418.8305 280.6927,-419.1405 289.1649,-425.5023 291.283,-418.8305"/>
</g>
<!-- Node98 -->
<g id="node13" class="node">
<title>Node98</title>
<g id="a_node13"><a xlink:href="structcimg__library__suffixed_1_1_c_img_1_1__cimg__math__parser.html#ade9dece3f3a257859ded3a42c9605ba9" target="_top" xlink:title="cimg_library_suffixed\l::CImg::_cimg_math_parser\l::mp_log2">
<polygon fill="#ffffff" stroke="#000000" points="353,-383.5 353,-424.5 491,-424.5 491,-383.5 353,-383.5"/>
<text text-anchor="start" x="361" y="-412.5" font-family="Helvetica,sans-Serif" font-size="10.00" fill="#000000">cimg_library_suffixed</text>
<text text-anchor="start" x="361" y="-401.5" font-family="Helvetica,sans-Serif" font-size="10.00" fill="#000000">::CImg::_cimg_math_parser</text>
<text text-anchor="middle" x="422" y="-390.5" font-family="Helvetica,sans-Serif" font-size="10.00" fill="#000000">::mp_log2</text>
</a>
</g>
</g>
<!-- Node97&#45;&gt;Node98 -->
<g id="edge14" class="edge">
<title>Node97&#45;&gt;Node98</title>
<path fill="none" stroke="#191970" d="M297.9235,-404C315.6852,-404 334.9972,-404 352.979,-404"/>
<polygon fill="#191970" stroke="#191970" points="297.6667,-400.5001 287.6666,-404 297.6666,-407.5001 297.6667,-400.5001"/>
</g>
<!-- Node99 -->
<g id="node14" class="node">
<title>Node99</title>
<g id="a_node14"><a xlink:href="structcimg__library__suffixed_1_1_c_img.html#a2fbd06361da285cd57797bba6df0b275" target="_top" xlink:title="Compute the base&#45;2 logarithm of each pixel value. ">
<polygon fill="#ffffff" stroke="#000000" points="365.5,-334 365.5,-364 478.5,-364 478.5,-334 365.5,-334"/>
<text text-anchor="start" x="373.5" y="-352" font-family="Helvetica,sans-Serif" font-size="10.00" fill="#000000">cimg_library_suffixed</text>
<text text-anchor="middle" x="422" y="-341" font-family="Helvetica,sans-Serif" font-size="10.00" fill="#000000">::CImg&lt; charT &gt;::log2</text>
</a>
</g>
</g>
<!-- Node97&#45;&gt;Node99 -->
<g id="edge15" class="edge">
<title>Node97&#45;&gt;Node99</title>
<path fill="none" stroke="#191970" d="M294.5667,-386.0838C319.0862,-378.9485 346.9865,-370.8293 370.4174,-364.0108"/>
<polygon fill="#191970" stroke="#191970" points="293.2688,-382.8162 284.6451,-388.971 295.2248,-389.5374 293.2688,-382.8162"/>
</g>
<!-- Node100 -->
<g id="node15" class="node">
<title>Node100</title>
<g id="a_node15"><a xlink:href="structcimg__library__suffixed_1_1_c_img.html#a6f3dafb21c7bac989a884e3f4ce1565f" target="_top" xlink:title="Compute the base&#45;10 logarithm of each pixel value . ">
<polygon fill="#ffffff" stroke="#000000" points="356,-285 356,-315 488,-315 488,-285 356,-285"/>
<text text-anchor="start" x="364" y="-303" font-family="Helvetica,sans-Serif" font-size="10.00" fill="#000000">cimg_library_suffixed</text>
<text text-anchor="middle" x="422" y="-292" font-family="Helvetica,sans-Serif" font-size="10.00" fill="#000000">::CImg&lt; charT &gt;::get_log2</text>
</a>
</g>
</g>
<!-- Node97&#45;&gt;Node100 -->
<g id="edge16" class="edge">
<title>Node97&#45;&gt;Node100</title>
<path fill="none" stroke="#191970" d="M294.7096,-384.0577C297.2526,-382.4897 299.6975,-380.8063 302,-379 324.6946,-361.1967 314.7959,-342.1338 338,-325 343.3857,-321.0232 349.4015,-317.6749 355.6718,-314.8566"/>
<polygon fill="#191970" stroke="#191970" points="292.8452,-381.088 285.749,-388.9554 296.2025,-387.2304 292.8452,-381.088"/>
</g>
</g>
</svg>
        <g id="navigator" transform="translate(0 0)" fill="#404254">
                <rect fill="#f2f5e9" fill-opacity="0.5" stroke="#606060" stroke-width=".5" x="0" y="0" width="60" height="60"/>
                <use id="zoomplus" xlink:href="#zoomPlus" x="17" y="9" onmousedown="handleZoom(evt,'in')"/>
                <use id="zoomminus" xlink:href="#zoomMin" x="42" y="9" onmousedown="handleZoom(evt,'out')"/>
                <use id="reset" xlink:href="#resetDef" x="30" y="36" onmousedown="handleReset()"/>
                <g id="arrowUp" xlink:href="#dirArrow" transform="translate(30 24)" onmousedown="handlePan(0,-1)">
                  <use xlink:href="#rim" fill="#404040">
                        <set attributeName="fill" to="#808080" begin="arrowUp.mouseover" end="arrowUp.mouseout"/>
                  </use>
                  <path fill="none" stroke="white" stroke-width="1.5" d="M0,-3.0v7 M-2.5,-0.5L0,-3.0L2.5,-0.5"/>
                </g>
                <g id="arrowRight" xlink:href="#dirArrow" transform="rotate(90) translate(36 -43)" onmousedown="handlePan(1,0)">
                  <use xlink:href="#rim" fill="#404040">
                        <set attributeName="fill" to="#808080" begin="arrowRight.mouseover" end="arrowRight.mouseout"/>
                  </use>
                  <path fill="none" stroke="white" stroke-width="1.5" d="M0,-3.0v7 M-2.5,-0.5L0,-3.0L2.5,-0.5"/>
                </g>
                <g id="arrowDown" xlink:href="#dirArrow" transform="rotate(180) translate(-30 -48)" onmousedown="handlePan(0,1)">
                  <use xlink:href="#rim" fill="#404040">
                        <set attributeName="fill" to="#808080" begin="arrowDown.mouseover" end="arrowDown.mouseout"/>
                  </use>
                  <path fill="none" stroke="white" stroke-width="1.5" d="M0,-3.0v7 M-2.5,-0.5L0,-3.0L2.5,-0.5"/>
                </g>
                <g id="arrowLeft" xlink:href="#dirArrow" transform="rotate(270) translate(-36 17)" onmousedown="handlePan(-1,0)">
                  <use xlink:href="#rim" fill="#404040">
                        <set attributeName="fill" to="#808080" begin="arrowLeft.mouseover" end="arrowLeft.mouseout"/>
                  </use>
                  <path fill="none" stroke="white" stroke-width="1.5" d="M0,-3.0v7 M-2.5,-0.5L0,-3.0L2.5,-0.5"/>
                </g>
        </g>
        <svg viewBox="0 0 15 15" width="100%" height="30px" preserveAspectRatio="xMaxYMin meet">
         <g id="arrow_out" transform="scale(0.3 0.3)">
          <a xlink:href="namespacecimg__library__suffixed_a65baff382319a3677fd777a976a4f50b_icgraph_org.svg" target="_base">
           <rect id="button" ry="5" rx="5" y="6" x="6" height="38" width="38"
                fill="#f2f5e9" fill-opacity="0.5" stroke="#606060" stroke-width="1.0"/>
           <path id="arrow"
             d="M 11.500037,31.436501 C 11.940474,20.09759 22.043105,11.32322 32.158766,21.979434 L 37.068811,17.246167 C 37.068811,17.246167 37.088388,32 37.088388,32 L 22.160133,31.978069 C 22.160133,31.978069 26.997745,27.140456 26.997745,27.140456 C 18.528582,18.264221 13.291696,25.230495 11.500037,31.436501 z"
             style="fill:#404040;"/>
          </a>
         </g>
        </svg>
</svg>
