<?xml version="1.0" encoding="UTF-8" standalone="no"?>
<!DOCTYPE svg PUBLIC "-//W3C//DTD SVG 1.1//EN"
 "http://www.w3.org/Graphics/SVG/1.1/DTD/svg11.dtd">
<!-- Generated by graphviz version 2.40.1 (20161225.0304)
 -->
<!-- Title: cimg_library_suffixed::cimg::_openmp_mode Pages: 1 -->
<svg width="276pt" height="39pt"
 viewBox="0.00 0.00 276.00 39.00" xmlns="http://www.w3.org/2000/svg" xmlns:xlink="http://www.w3.org/1999/xlink">
<g id="graph0" class="graph" transform="scale(1 1) rotate(0) translate(4 35)">
<title>cimg_library_suffixed::cimg::_openmp_mode</title>
<polygon fill="#ffffff" stroke="transparent" points="-4,4 -4,-35 272,-35 272,4 -4,4"/>
<!-- Node180 -->
<g id="node1" class="node">
<title>Node180</title>
<polygon fill="#bfbfbf" stroke="#000000" points="0,-.5 0,-30.5 119,-30.5 119,-.5 0,-.5"/>
<text text-anchor="start" x="8" y="-18.5" font-family="Helvetica,sans-Serif" font-size="10.00" fill="#000000">cimg_library_suffixed</text>
<text text-anchor="middle" x="59.5" y="-7.5" font-family="Helvetica,sans-Serif" font-size="10.00" fill="#000000">::cimg::_openmp_mode</text>
</g>
<!-- Node181 -->
<g id="node2" class="node">
<title>Node181</title>
<g id="a_node2"><a xlink:href="namespacecimg__library__suffixed_1_1cimg.html#aca7e3fd74620730af7d4ae96a22f8dd6" target="_top" xlink:title="cimg_library_suffixed\l::cimg::openmp_mode">
<polygon fill="#ffffff" stroke="#000000" points="155,-.5 155,-30.5 268,-30.5 268,-.5 155,-.5"/>
<text text-anchor="start" x="163" y="-18.5" font-family="Helvetica,sans-Serif" font-size="10.00" fill="#000000">cimg_library_suffixed</text>
<text text-anchor="middle" x="211.5" y="-7.5" font-family="Helvetica,sans-Serif" font-size="10.00" fill="#000000">::cimg::openmp_mode</text>
</a>
</g>
</g>
<!-- Node180&#45;&gt;Node181 -->
<g id="edge1" class="edge">
<title>Node180&#45;&gt;Node181</title>
<path fill="none" stroke="#191970" d="M129.3424,-15.5C137.7724,-15.5 146.3042,-15.5 154.5191,-15.5"/>
<polygon fill="#191970" stroke="#191970" points="129.1382,-12.0001 119.1382,-15.5 129.1381,-19.0001 129.1382,-12.0001"/>
</g>
</g>
</svg>
