<?xml version="1.0" encoding="UTF-8" standalone="no"?>
<!DOCTYPE svg PUBLIC "-//W3C//DTD SVG 1.1//EN"
 "http://www.w3.org/Graphics/SVG/1.1/DTD/svg11.dtd">
<!-- Generated by graphviz version 2.40.1 (20161225.0304)
 -->
<!-- Title: src/ConsolePrototype/save.cpp Pages: 1 -->
<!--zoomable 263 -->
<svg id="main" version="1.1" xmlns="http://www.w3.org/2000/svg" xmlns:xlink="http://www.w3.org/1999/xlink" xml:space="preserve" onload="init(evt)">
<style type="text/css"><![CDATA[
.edge:hover path { stroke: red; }
.edge:hover polygon { stroke: red; fill: red; }
]]></style>
<script type="text/javascript"><![CDATA[
var edges = document.getElementsByTagName('g');
if (edges && edges.length) {
  for (var i=0;i<edges.length;i++) {
    if (edges[i].id.substr(0,4)=='edge') {
      edges[i].setAttribute('class','edge');
    }
  }
}
]]></script>
        <defs>
                <circle id="rim" cx="0" cy="0" r="7"/>
                <circle id="rim2" cx="0" cy="0" r="3.5"/>
                <g id="zoomPlus">
                        <use xlink:href="#rim" fill="#404040">
                                <set attributeName="fill" to="#808080" begin="zoomplus.mouseover" end="zoomplus.mouseout"/>
                        </use>
                        <path d="M-4,0h8M0,-4v8" fill="none" stroke="white" stroke-width="1.5" pointer-events="none"/>
                </g>
                <g id="zoomMin">
                        <use xlink:href="#rim" fill="#404040">
                                <set attributeName="fill" to="#808080" begin="zoomminus.mouseover" end="zoomminus.mouseout"/>
                        </use>
                        <path d="M-4,0h8" fill="none" stroke="white" stroke-width="1.5" pointer-events="none"/>
                </g>
                <g id="dirArrow">
                        <path fill="none" stroke="white" stroke-width="1.5" d="M0,-3.0v7 M-2.5,-0.5L0,-3.0L2.5,-0.5"/>
                </g>
               <g id="resetDef">
                       <use xlink:href="#rim2" fill="#404040">
                               <set attributeName="fill" to="#808080" begin="reset.mouseover" end="reset.mouseout"/>
                       </use>
               </g>
        </defs>

<script type="text/javascript">
var viewWidth = 1077;
var viewHeight = 263;
var sectionId = 'dynsection-0';
</script>
<script xlink:href="svgpan.js"/>
<svg id="graph" class="graph">
<g id="viewport">
<title>src/ConsolePrototype/save.cpp</title>
<polygon fill="#ffffff" stroke="transparent" points="-4,4 -4,-259 1073,-259 1073,4 -4,4"/>
<!-- Node0 -->
<g id="node1" class="node">
<title>Node0</title>
<polygon fill="#bfbfbf" stroke="#000000" points="489,-224.5 489,-254.5 600,-254.5 600,-224.5 489,-224.5"/>
<text text-anchor="start" x="497" y="-242.5" font-family="Helvetica,sans-Serif" font-size="10.00" fill="#000000">src/ConsolePrototype</text>
<text text-anchor="middle" x="544.5" y="-231.5" font-family="Helvetica,sans-Serif" font-size="10.00" fill="#000000">/save.cpp</text>
</g>
<!-- Node1 -->
<g id="node2" class="node">
<title>Node1</title>
<g id="a_node2"><a xlink:href="_filtered_collection_8hpp.html" target="_top" xlink:title="../Collection/FilteredCollection.hpp">
<polygon fill="#ffffff" stroke="#000000" points="228,-168.5 228,-187.5 395,-187.5 395,-168.5 228,-168.5"/>
<text text-anchor="middle" x="311.5" y="-175.5" font-family="Helvetica,sans-Serif" font-size="10.00" fill="#000000">../Collection/FilteredCollection.hpp</text>
</a>
</g>
</g>
<!-- Node0&#45;&gt;Node1 -->
<g id="edge1" class="edge">
<title>Node0&#45;&gt;Node1</title>
<path fill="none" stroke="#191970" d="M488.9867,-224.8474C448.8294,-214.2479 395.2083,-200.0947 357.4488,-190.1281"/>
<polygon fill="#191970" stroke="#191970" points="358.289,-186.7301 347.7269,-187.562 356.5025,-193.4983 358.289,-186.7301"/>
</g>
<!-- Node9 -->
<g id="node10" class="node">
<title>Node9</title>
<g id="a_node10"><a xlink:href="_parser_8hpp.html" target="_top" xlink:title="../Parser.hpp">
<polygon fill="#ffffff" stroke="#000000" points="508,-168.5 508,-187.5 581,-187.5 581,-168.5 508,-168.5"/>
<text text-anchor="middle" x="544.5" y="-175.5" font-family="Helvetica,sans-Serif" font-size="10.00" fill="#000000">../Parser.hpp</text>
</a>
</g>
</g>
<!-- Node0&#45;&gt;Node9 -->
<g id="edge10" class="edge">
<title>Node0&#45;&gt;Node9</title>
<path fill="none" stroke="#191970" d="M544.5,-224.2977C544.5,-216.3834 544.5,-206.6043 544.5,-198.0759"/>
<polygon fill="#191970" stroke="#191970" points="548.0001,-197.8469 544.5,-187.8469 541.0001,-197.847 548.0001,-197.8469"/>
</g>
<!-- Node27 -->
<g id="node28" class="node">
<title>Node27</title>
<polygon fill="#ffffff" stroke="#bfbfbf" points="706.5,-56.5 706.5,-75.5 756.5,-75.5 756.5,-56.5 706.5,-56.5"/>
<text text-anchor="middle" x="731.5" y="-63.5" font-family="Helvetica,sans-Serif" font-size="10.00" fill="#000000">fstream</text>
</g>
<!-- Node0&#45;&gt;Node27 -->
<g id="edge41" class="edge">
<title>Node0&#45;&gt;Node27</title>
<path fill="none" stroke="#191970" d="M578.528,-224.4516C614.5554,-206.9562 670.8981,-174.9053 705.5,-132 716.3586,-118.5357 723.1285,-99.9789 727.0276,-85.9704"/>
<polygon fill="#191970" stroke="#191970" points="730.5167,-86.447 729.5624,-75.8952 723.7282,-84.7391 730.5167,-86.447"/>
</g>
<!-- Node30 -->
<g id="node31" class="node">
<title>Node30</title>
<g id="a_node31"><a xlink:href="save_8hpp.html" target="_top" xlink:title="save.hpp">
<polygon fill="#ffffff" stroke="#000000" points="426.5,-168.5 426.5,-187.5 482.5,-187.5 482.5,-168.5 426.5,-168.5"/>
<text text-anchor="middle" x="454.5" y="-175.5" font-family="Helvetica,sans-Serif" font-size="10.00" fill="#000000">save.hpp</text>
</a>
</g>
</g>
<!-- Node0&#45;&gt;Node30 -->
<g id="edge37" class="edge">
<title>Node0&#45;&gt;Node30</title>
<path fill="none" stroke="#191970" d="M522.2528,-224.2977C508.5033,-214.9022 490.9079,-202.8787 477.0943,-193.4395"/>
<polygon fill="#191970" stroke="#191970" points="478.8725,-190.4155 468.6414,-187.6633 474.9232,-196.195 478.8725,-190.4155"/>
</g>
<!-- Node31 -->
<g id="node32" class="node">
<title>Node31</title>
<polygon fill="#ffffff" stroke="#bfbfbf" points="767.5,-168.5 767.5,-187.5 819.5,-187.5 819.5,-168.5 767.5,-168.5"/>
<text text-anchor="middle" x="793.5" y="-175.5" font-family="Helvetica,sans-Serif" font-size="10.00" fill="#000000">sstream</text>
</g>
<!-- Node0&#45;&gt;Node31 -->
<g id="edge42" class="edge">
<title>Node0&#45;&gt;Node31</title>
<path fill="none" stroke="#191970" d="M600.3986,-225.7803C642.4989,-215.4341 701.6345,-200.8733 753.5,-188 754.7505,-187.6896 756.023,-187.3734 757.308,-187.0538"/>
<polygon fill="#191970" stroke="#191970" points="758.3964,-190.3897 767.2532,-184.5752 756.7035,-183.5975 758.3964,-190.3897"/>
</g>
<!-- Node2 -->
<g id="node3" class="node">
<title>Node2</title>
<g id="a_node3"><a xlink:href="_collection_8hpp.html" target="_top" xlink:title="Collection.hpp">
<polygon fill="#ffffff" stroke="#000000" points="229,-112.5 229,-131.5 308,-131.5 308,-112.5 229,-112.5"/>
<text text-anchor="middle" x="268.5" y="-119.5" font-family="Helvetica,sans-Serif" font-size="10.00" fill="#000000">Collection.hpp</text>
</a>
</g>
</g>
<!-- Node1&#45;&gt;Node2 -->
<g id="edge2" class="edge">
<title>Node1&#45;&gt;Node2</title>
<path fill="none" stroke="#191970" d="M304.01,-168.2455C297.9674,-160.3761 289.3097,-149.101 282.0559,-139.6542"/>
<polygon fill="#191970" stroke="#191970" points="284.7705,-137.4426 275.9042,-131.6427 279.2185,-141.7058 284.7705,-137.4426"/>
</g>
<!-- Node7 -->
<g id="node8" class="node">
<title>Node7</title>
<polygon fill="#ffffff" stroke="#bfbfbf" points="325.5,-112.5 325.5,-131.5 369.5,-131.5 369.5,-112.5 325.5,-112.5"/>
<text text-anchor="middle" x="347.5" y="-119.5" font-family="Helvetica,sans-Serif" font-size="10.00" fill="#000000">vector</text>
</g>
<!-- Node1&#45;&gt;Node7 -->
<g id="edge8" class="edge">
<title>Node1&#45;&gt;Node7</title>
<path fill="none" stroke="#191970" d="M317.7707,-168.2455C322.7264,-160.5367 329.783,-149.5598 335.7776,-140.2348"/>
<polygon fill="#191970" stroke="#191970" points="338.8376,-141.9471 341.3011,-131.6427 332.9494,-138.1618 338.8376,-141.9471"/>
</g>
<!-- Node8 -->
<g id="node9" class="node">
<title>Node8</title>
<polygon fill="#ffffff" stroke="#bfbfbf" points="152,-112.5 152,-131.5 211,-131.5 211,-112.5 152,-112.5"/>
<text text-anchor="middle" x="181.5" y="-119.5" font-family="Helvetica,sans-Serif" font-size="10.00" fill="#000000">functional</text>
</g>
<!-- Node1&#45;&gt;Node8 -->
<g id="edge9" class="edge">
<title>Node1&#45;&gt;Node8</title>
<path fill="none" stroke="#191970" d="M289.1522,-168.3733C268.0967,-159.3032 236.3505,-145.6279 212.7825,-135.4755"/>
<polygon fill="#191970" stroke="#191970" points="214.125,-132.243 203.5562,-131.5011 211.3556,-138.6719 214.125,-132.243"/>
</g>
<!-- Node3 -->
<g id="node4" class="node">
<title>Node3</title>
<g id="a_node4"><a xlink:href="_collection_iterator_8hpp.html" target="_top" xlink:title="CollectionIterator.hpp">
<polygon fill="#ffffff" stroke="#000000" points="100.5,-56.5 100.5,-75.5 210.5,-75.5 210.5,-56.5 100.5,-56.5"/>
<text text-anchor="middle" x="155.5" y="-63.5" font-family="Helvetica,sans-Serif" font-size="10.00" fill="#000000">CollectionIterator.hpp</text>
</a>
</g>
</g>
<!-- Node2&#45;&gt;Node3 -->
<g id="edge3" class="edge">
<title>Node2&#45;&gt;Node3</title>
<path fill="none" stroke="#191970" d="M249.0746,-112.3733C231.0979,-103.4644 204.1559,-90.1127 183.791,-80.0203"/>
<polygon fill="#191970" stroke="#191970" points="185.1861,-76.8055 174.6719,-75.5011 182.0778,-83.0776 185.1861,-76.8055"/>
</g>
<!-- Node5 -->
<g id="node6" class="node">
<title>Node5</title>
<polygon fill="#ffffff" stroke="#bfbfbf" points="0,-.5 0,-19.5 47,-19.5 47,-.5 0,-.5"/>
<text text-anchor="middle" x="23.5" y="-7.5" font-family="Helvetica,sans-Serif" font-size="10.00" fill="#000000">iterator</text>
</g>
<!-- Node2&#45;&gt;Node5 -->
<g id="edge7" class="edge">
<title>Node2&#45;&gt;Node5</title>
<path fill="none" stroke="#191970" d="M228.9407,-112.8506C180.5367,-101.4804 103.5031,-82.7514 91.5,-76 69.6842,-63.7292 49.7816,-42.7328 37.2233,-27.716"/>
<polygon fill="#191970" stroke="#191970" points="39.7297,-25.2493 30.7189,-19.6765 34.2877,-29.6522 39.7297,-25.2493"/>
</g>
<!-- Node4 -->
<g id="node5" class="node">
<title>Node4</title>
<polygon fill="#ffffff" stroke="#bfbfbf" points="65.5,-.5 65.5,-19.5 127.5,-19.5 127.5,-.5 65.5,-.5"/>
<text text-anchor="middle" x="96.5" y="-7.5" font-family="Helvetica,sans-Serif" font-size="10.00" fill="#000000">type_traits</text>
</g>
<!-- Node3&#45;&gt;Node4 -->
<g id="edge4" class="edge">
<title>Node3&#45;&gt;Node4</title>
<path fill="none" stroke="#191970" d="M145.223,-56.2455C136.6782,-48.1352 124.3222,-36.4075 114.1915,-26.7919"/>
<polygon fill="#191970" stroke="#191970" points="116.3218,-23.9884 106.6592,-19.6427 111.5028,-29.0655 116.3218,-23.9884"/>
</g>
<!-- Node3&#45;&gt;Node5 -->
<g id="edge5" class="edge">
<title>Node3&#45;&gt;Node5</title>
<path fill="none" stroke="#191970" d="M132.8084,-56.3733C111.4289,-47.3032 79.1943,-33.6279 55.2638,-23.4755"/>
<polygon fill="#191970" stroke="#191970" points="56.4683,-20.1846 45.8955,-19.5011 53.7344,-26.6287 56.4683,-20.1846"/>
</g>
<!-- Node6 -->
<g id="node7" class="node">
<title>Node6</title>
<polygon fill="#ffffff" stroke="#bfbfbf" points="145.5,-.5 145.5,-19.5 197.5,-19.5 197.5,-.5 145.5,-.5"/>
<text text-anchor="middle" x="171.5" y="-7.5" font-family="Helvetica,sans-Serif" font-size="10.00" fill="#000000">memory</text>
</g>
<!-- Node3&#45;&gt;Node6 -->
<g id="edge6" class="edge">
<title>Node3&#45;&gt;Node6</title>
<path fill="none" stroke="#191970" d="M158.287,-56.2455C160.3977,-48.8579 163.366,-38.4689 165.9547,-29.4087"/>
<polygon fill="#191970" stroke="#191970" points="169.363,-30.2195 168.745,-19.6427 162.6323,-28.2964 169.363,-30.2195"/>
</g>
<!-- Node9&#45;&gt;Node2 -->
<g id="edge30" class="edge">
<title>Node9&#45;&gt;Node2</title>
<path fill="none" stroke="#191970" d="M507.7609,-170.6619C464.6243,-162.0296 390.6509,-147.1757 317.8451,-132.2677"/>
<polygon fill="#191970" stroke="#191970" points="318.5477,-128.839 308.0486,-130.2599 317.1422,-135.6965 318.5477,-128.839"/>
</g>
<!-- Node9&#45;&gt;Node7 -->
<g id="edge36" class="edge">
<title>Node9&#45;&gt;Node7</title>
<path fill="none" stroke="#191970" d="M510.6345,-168.3733C473.8881,-157.9276 415.6545,-141.3739 379.6102,-131.1278"/>
<polygon fill="#191970" stroke="#191970" points="380.2028,-127.6576 369.6268,-128.2899 378.2887,-134.3909 380.2028,-127.6576"/>
</g>
<!-- Node10 -->
<g id="node11" class="node">
<title>Node10</title>
<g id="a_node11"><a xlink:href="_image_8hpp.html" target="_top" xlink:title="Image/Image.hpp">
<polygon fill="#ffffff" stroke="#000000" points="463.5,-112.5 463.5,-131.5 555.5,-131.5 555.5,-112.5 463.5,-112.5"/>
<text text-anchor="middle" x="509.5" y="-119.5" font-family="Helvetica,sans-Serif" font-size="10.00" fill="#000000">Image/Image.hpp</text>
</a>
</g>
</g>
<!-- Node9&#45;&gt;Node10 -->
<g id="edge11" class="edge">
<title>Node9&#45;&gt;Node10</title>
<path fill="none" stroke="#191970" d="M538.4035,-168.2455C533.5855,-160.5367 526.7249,-149.5598 520.8968,-140.2348"/>
<polygon fill="#191970" stroke="#191970" points="523.7947,-138.2677 515.5267,-131.6427 517.8587,-141.9777 523.7947,-138.2677"/>
</g>
<!-- Node12 -->
<g id="node13" class="node">
<title>Node12</title>
<polygon fill="#ffffff" stroke="#bfbfbf" points="1028,-.5 1028,-19.5 1069,-19.5 1069,-.5 1028,-.5"/>
<text text-anchor="middle" x="1048.5" y="-7.5" font-family="Helvetica,sans-Serif" font-size="10.00" fill="#000000">string</text>
</g>
<!-- Node9&#45;&gt;Node12 -->
<g id="edge34" class="edge">
<title>Node9&#45;&gt;Node12</title>
<path fill="none" stroke="#191970" d="M580.5055,-168.4159C613.2642,-159.5296 662.8665,-145.6574 705.5,-132 822.1422,-94.6343 958.7406,-43.9296 1018.2424,-21.4925"/>
<polygon fill="#191970" stroke="#191970" points="1019.6587,-24.6989 1027.7762,-17.8903 1017.1846,-18.1507 1019.6587,-24.6989"/>
</g>
<!-- Node26 -->
<g id="node27" class="node">
<title>Node26</title>
<polygon fill="#ffffff" stroke="#bfbfbf" points="349.5,-56.5 349.5,-75.5 469.5,-75.5 469.5,-56.5 349.5,-56.5"/>
<text text-anchor="middle" x="409.5" y="-63.5" font-family="Helvetica,sans-Serif" font-size="10.00" fill="#000000">experimental/filesystem</text>
</g>
<!-- Node9&#45;&gt;Node26 -->
<g id="edge31" class="edge">
<title>Node9&#45;&gt;Node26</title>
<path fill="none" stroke="#191970" d="M517.5689,-168.396C498.4787,-160.6529 473.0615,-148.3599 454.5,-132 439.2843,-118.589 426.767,-98.9606 418.831,-84.5957"/>
<polygon fill="#191970" stroke="#191970" points="421.8603,-82.837 414.0918,-75.6327 415.672,-86.109 421.8603,-82.837"/>
</g>
<!-- Node9&#45;&gt;Node27 -->
<g id="edge32" class="edge">
<title>Node9&#45;&gt;Node27</title>
<path fill="none" stroke="#191970" d="M581.2986,-172.0549C610.8378,-165.8763 652.232,-153.9281 682.5,-132 699.7541,-119.5001 713.5488,-99.1324 722.0508,-84.3253"/>
<polygon fill="#191970" stroke="#191970" points="725.1298,-85.9895 726.8566,-75.5363 718.988,-82.6311 725.1298,-85.9895"/>
</g>
<!-- Node28 -->
<g id="node29" class="node">
<title>Node28</title>
<polygon fill="#ffffff" stroke="#bfbfbf" points="573.5,-112.5 573.5,-131.5 615.5,-131.5 615.5,-112.5 573.5,-112.5"/>
<text text-anchor="middle" x="594.5" y="-119.5" font-family="Helvetica,sans-Serif" font-size="10.00" fill="#000000">locale</text>
</g>
<!-- Node9&#45;&gt;Node28 -->
<g id="edge33" class="edge">
<title>Node9&#45;&gt;Node28</title>
<path fill="none" stroke="#191970" d="M553.2093,-168.2455C560.3073,-160.2958 570.5084,-148.8706 578.995,-139.3656"/>
<polygon fill="#191970" stroke="#191970" points="581.8411,-141.4331 585.8905,-131.6427 576.6195,-136.771 581.8411,-141.4331"/>
</g>
<!-- Node29 -->
<g id="node30" class="node">
<title>Node29</title>
<polygon fill="#ffffff" stroke="#bfbfbf" points="633.5,-112.5 633.5,-131.5 673.5,-131.5 673.5,-112.5 633.5,-112.5"/>
<text text-anchor="middle" x="653.5" y="-119.5" font-family="Helvetica,sans-Serif" font-size="10.00" fill="#000000">utility</text>
</g>
<!-- Node9&#45;&gt;Node29 -->
<g id="edge35" class="edge">
<title>Node9&#45;&gt;Node29</title>
<path fill="none" stroke="#191970" d="M563.4864,-168.2455C580.6792,-159.4125 606.2238,-146.2887 625.7132,-136.2758"/>
<polygon fill="#191970" stroke="#191970" points="627.4359,-139.3257 634.7312,-131.6427 624.237,-133.0993 627.4359,-139.3257"/>
</g>
<!-- Node10&#45;&gt;Node6 -->
<g id="edge29" class="edge">
<title>Node10&#45;&gt;Node6</title>
<path fill="none" stroke="#191970" d="M507.8878,-112.0541C504.9185,-97.2235 497.0947,-69.6043 478.5,-56 431.5988,-21.686 281.2356,-31.3514 207.9952,-19.8166"/>
<polygon fill="#191970" stroke="#191970" points="208.2358,-16.3028 197.7703,-17.9531 206.9807,-23.1894 208.2358,-16.3028"/>
</g>
<!-- Node11 -->
<g id="node12" class="node">
<title>Node11</title>
<g id="a_node12"><a xlink:href="_tag_list_8hpp.html" target="_top" xlink:title="TagList.hpp">
<polygon fill="#ffffff" stroke="#000000" points="620.5,-56.5 620.5,-75.5 688.5,-75.5 688.5,-56.5 620.5,-56.5"/>
<text text-anchor="middle" x="654.5" y="-63.5" font-family="Helvetica,sans-Serif" font-size="10.00" fill="#000000">TagList.hpp</text>
</a>
</g>
</g>
<!-- Node10&#45;&gt;Node11 -->
<g id="edge12" class="edge">
<title>Node10&#45;&gt;Node11</title>
<path fill="none" stroke="#191970" d="M534.4264,-112.3733C558.1202,-103.2226 593.9511,-89.3844 620.3068,-79.2057"/>
<polygon fill="#191970" stroke="#191970" points="621.8314,-82.3689 629.8989,-75.5011 619.3094,-75.8389 621.8314,-82.3689"/>
</g>
<!-- Node14 -->
<g id="node15" class="node">
<title>Node14</title>
<g id="a_node15"><a xlink:href="_c_img_8h.html" target="_top" xlink:title="../CImg.h">
<polygon fill="#ffffff" stroke="#000000" points="525.5,-56.5 525.5,-75.5 583.5,-75.5 583.5,-56.5 525.5,-56.5"/>
<text text-anchor="middle" x="554.5" y="-63.5" font-family="Helvetica,sans-Serif" font-size="10.00" fill="#000000">../CImg.h</text>
</a>
</g>
</g>
<!-- Node10&#45;&gt;Node14 -->
<g id="edge15" class="edge">
<title>Node10&#45;&gt;Node14</title>
<path fill="none" stroke="#191970" d="M517.3384,-112.2455C523.662,-104.3761 532.7224,-93.101 540.3136,-83.6542"/>
<polygon fill="#191970" stroke="#191970" points="543.2158,-85.6302 546.7514,-75.6427 537.7592,-81.2454 543.2158,-85.6302"/>
</g>
<!-- Node10&#45;&gt;Node26 -->
<g id="edge27" class="edge">
<title>Node10&#45;&gt;Node26</title>
<path fill="none" stroke="#191970" d="M492.0813,-112.2455C476.4515,-103.4928 453.2981,-90.527 435.4815,-80.5496"/>
<polygon fill="#191970" stroke="#191970" points="437.1543,-77.475 426.7191,-75.6427 433.734,-83.5825 437.1543,-77.475"/>
</g>
<!-- Node10&#45;&gt;Node27 -->
<g id="edge28" class="edge">
<title>Node10&#45;&gt;Node27</title>
<path fill="none" stroke="#191970" d="M550.7145,-112.4925C586.8093,-104.037 640.8908,-91.0577 696.6032,-76.1607"/>
<polygon fill="#191970" stroke="#191970" points="697.5378,-79.5338 706.2856,-73.5565 695.7197,-72.774 697.5378,-79.5338"/>
</g>
<!-- Node11&#45;&gt;Node12 -->
<g id="edge13" class="edge">
<title>Node11&#45;&gt;Node12</title>
<path fill="none" stroke="#191970" d="M688.6943,-57.6681C691.6638,-57.06 694.6295,-56.493 697.5,-56 835.8114,-32.2451 876.4797,-50.0299 1017.775,-19.7292"/>
<polygon fill="#191970" stroke="#191970" points="1018.6553,-23.1195 1027.6764,-17.5633 1017.1594,-16.2812 1018.6553,-23.1195"/>
</g>
<!-- Node13 -->
<g id="node14" class="node">
<title>Node13</title>
<polygon fill="#ffffff" stroke="#bfbfbf" points="931.5,-.5 931.5,-19.5 1009.5,-19.5 1009.5,-.5 931.5,-.5"/>
<text text-anchor="middle" x="970.5" y="-7.5" font-family="Helvetica,sans-Serif" font-size="10.00" fill="#000000">unordered_set</text>
</g>
<!-- Node11&#45;&gt;Node13 -->
<g id="edge14" class="edge">
<title>Node11&#45;&gt;Node13</title>
<path fill="none" stroke="#191970" d="M688.7212,-57.8145C691.6848,-57.1746 694.6419,-56.5603 697.5,-56 793.7748,-37.1272 821.2033,-38.2398 921.5535,-20.1013"/>
<polygon fill="#191970" stroke="#191970" points="922.2892,-23.5249 931.4973,-18.2846 921.031,-16.6389 922.2892,-23.5249"/>
</g>
<!-- Node15 -->
<g id="node16" class="node">
<title>Node15</title>
<polygon fill="#ffffff" stroke="#bfbfbf" points="870,-.5 870,-19.5 913,-19.5 913,-.5 870,-.5"/>
<text text-anchor="middle" x="891.5" y="-7.5" font-family="Helvetica,sans-Serif" font-size="10.00" fill="#000000">cstdio</text>
</g>
<!-- Node14&#45;&gt;Node15 -->
<g id="edge16" class="edge">
<title>Node14&#45;&gt;Node15</title>
<path fill="none" stroke="#191970" d="M583.762,-60.6923C592.66,-59.1253 602.472,-57.4442 611.5,-56 718.7865,-38.8372 749.8271,-44.8816 860.1021,-19.7431"/>
<polygon fill="#191970" stroke="#191970" points="860.9965,-23.1286 869.95,-17.4642 859.4184,-16.3089 860.9965,-23.1286"/>
</g>
<!-- Node16 -->
<g id="node17" class="node">
<title>Node16</title>
<polygon fill="#ffffff" stroke="#bfbfbf" points="216,-.5 216,-19.5 261,-19.5 261,-.5 216,-.5"/>
<text text-anchor="middle" x="238.5" y="-7.5" font-family="Helvetica,sans-Serif" font-size="10.00" fill="#000000">cstdlib</text>
</g>
<!-- Node14&#45;&gt;Node16 -->
<g id="edge17" class="edge">
<title>Node14&#45;&gt;Node16</title>
<path fill="none" stroke="#191970" d="M525.4234,-58.9026C520.7796,-57.866 516.0176,-56.8599 511.5,-56 407.8082,-36.2636 377.1624,-44.2669 270.8983,-20.0368"/>
<polygon fill="#191970" stroke="#191970" points="271.5987,-16.6063 261.0661,-17.7532 270.015,-23.4248 271.5987,-16.6063"/>
</g>
<!-- Node17 -->
<g id="node18" class="node">
<title>Node17</title>
<polygon fill="#ffffff" stroke="#bfbfbf" points="279,-.5 279,-19.5 328,-19.5 328,-.5 279,-.5"/>
<text text-anchor="middle" x="303.5" y="-7.5" font-family="Helvetica,sans-Serif" font-size="10.00" fill="#000000">cstdarg</text>
</g>
<!-- Node14&#45;&gt;Node17 -->
<g id="edge18" class="edge">
<title>Node14&#45;&gt;Node17</title>
<path fill="none" stroke="#191970" d="M525.3776,-59.1257C520.7398,-58.0603 515.9916,-56.9868 511.5,-56 437.3812,-39.7166 415.7815,-39.1756 338.0793,-19.9894"/>
<polygon fill="#191970" stroke="#191970" points="338.8678,-16.5789 328.3181,-17.5549 337.1738,-23.3708 338.8678,-16.5789"/>
</g>
<!-- Node18 -->
<g id="node19" class="node">
<title>Node18</title>
<polygon fill="#ffffff" stroke="#bfbfbf" points="346.5,-.5 346.5,-19.5 392.5,-19.5 392.5,-.5 346.5,-.5"/>
<text text-anchor="middle" x="369.5" y="-7.5" font-family="Helvetica,sans-Serif" font-size="10.00" fill="#000000">cstring</text>
</g>
<!-- Node14&#45;&gt;Node18 -->
<g id="edge19" class="edge">
<title>Node14&#45;&gt;Node18</title>
<path fill="none" stroke="#191970" d="M525.4251,-57.3605C496.551,-48.7583 450.7722,-35.06 402.2909,-20.2216"/>
<polygon fill="#191970" stroke="#191970" points="403.1495,-16.8241 392.5628,-17.2398 401.0981,-23.5167 403.1495,-16.8241"/>
</g>
<!-- Node19 -->
<g id="node20" class="node">
<title>Node19</title>
<polygon fill="#ffffff" stroke="#bfbfbf" points="410.5,-.5 410.5,-19.5 454.5,-19.5 454.5,-.5 410.5,-.5"/>
<text text-anchor="middle" x="432.5" y="-7.5" font-family="Helvetica,sans-Serif" font-size="10.00" fill="#000000">cmath</text>
</g>
<!-- Node14&#45;&gt;Node19 -->
<g id="edge20" class="edge">
<title>Node14&#45;&gt;Node19</title>
<path fill="none" stroke="#191970" d="M533.5275,-56.3733C513.9433,-47.3838 484.5039,-33.8706 462.449,-23.7471"/>
<polygon fill="#191970" stroke="#191970" points="463.7473,-20.4919 453.1989,-19.5011 460.8271,-26.8538 463.7473,-20.4919"/>
</g>
<!-- Node20 -->
<g id="node21" class="node">
<title>Node20</title>
<polygon fill="#ffffff" stroke="#bfbfbf" points="473,-.5 473,-19.5 514,-19.5 514,-.5 473,-.5"/>
<text text-anchor="middle" x="493.5" y="-7.5" font-family="Helvetica,sans-Serif" font-size="10.00" fill="#000000">cfloat</text>
</g>
<!-- Node14&#45;&gt;Node20 -->
<g id="edge21" class="edge">
<title>Node14&#45;&gt;Node20</title>
<path fill="none" stroke="#191970" d="M543.8746,-56.2455C534.9527,-48.0549 522.012,-36.1749 511.4808,-26.5069"/>
<polygon fill="#191970" stroke="#191970" points="513.7371,-23.8271 504.0036,-19.6427 509.0032,-28.9837 513.7371,-23.8271"/>
</g>
<!-- Node21 -->
<g id="node22" class="node">
<title>Node21</title>
<polygon fill="#ffffff" stroke="#bfbfbf" points="532,-.5 532,-19.5 577,-19.5 577,-.5 532,-.5"/>
<text text-anchor="middle" x="554.5" y="-7.5" font-family="Helvetica,sans-Serif" font-size="10.00" fill="#000000">climits</text>
</g>
<!-- Node14&#45;&gt;Node21 -->
<g id="edge22" class="edge">
<title>Node14&#45;&gt;Node21</title>
<path fill="none" stroke="#191970" d="M554.5,-56.2455C554.5,-48.9382 554.5,-38.6944 554.5,-29.7046"/>
<polygon fill="#191970" stroke="#191970" points="558.0001,-29.6426 554.5,-19.6427 551.0001,-29.6427 558.0001,-29.6426"/>
</g>
<!-- Node22 -->
<g id="node23" class="node">
<title>Node22</title>
<polygon fill="#ffffff" stroke="#bfbfbf" points="595,-.5 595,-19.5 636,-19.5 636,-.5 595,-.5"/>
<text text-anchor="middle" x="615.5" y="-7.5" font-family="Helvetica,sans-Serif" font-size="10.00" fill="#000000">ctime</text>
</g>
<!-- Node14&#45;&gt;Node22 -->
<g id="edge23" class="edge">
<title>Node14&#45;&gt;Node22</title>
<path fill="none" stroke="#191970" d="M565.1254,-56.2455C574.0473,-48.0549 586.988,-36.1749 597.5192,-26.5069"/>
<polygon fill="#191970" stroke="#191970" points="599.9968,-28.9837 604.9964,-19.6427 595.2629,-23.8271 599.9968,-28.9837"/>
</g>
<!-- Node23 -->
<g id="node24" class="node">
<title>Node23</title>
<polygon fill="#ffffff" stroke="#bfbfbf" points="654,-.5 654,-19.5 713,-19.5 713,-.5 654,-.5"/>
<text text-anchor="middle" x="683.5" y="-7.5" font-family="Helvetica,sans-Serif" font-size="10.00" fill="#000000">exception</text>
</g>
<!-- Node14&#45;&gt;Node23 -->
<g id="edge24" class="edge">
<title>Node14&#45;&gt;Node23</title>
<path fill="none" stroke="#191970" d="M576.6759,-56.3733C597.4766,-47.3435 628.7917,-33.7494 652.1458,-23.6111"/>
<polygon fill="#191970" stroke="#191970" points="653.8343,-26.6938 661.6135,-19.5011 651.0468,-20.2727 653.8343,-26.6938"/>
</g>
<!-- Node24 -->
<g id="node25" class="node">
<title>Node24</title>
<polygon fill="#ffffff" stroke="#bfbfbf" points="731.5,-.5 731.5,-19.5 787.5,-19.5 787.5,-.5 731.5,-.5"/>
<text text-anchor="middle" x="759.5" y="-7.5" font-family="Helvetica,sans-Serif" font-size="10.00" fill="#000000">algorithm</text>
</g>
<!-- Node14&#45;&gt;Node24 -->
<g id="edge25" class="edge">
<title>Node14&#45;&gt;Node24</title>
<path fill="none" stroke="#191970" d="M583.8715,-57.9766C620.1287,-48.0722 681.8583,-31.2095 721.6403,-20.3422"/>
<polygon fill="#191970" stroke="#191970" points="722.7749,-23.6606 731.4991,-17.649 720.9302,-16.908 722.7749,-23.6606"/>
</g>
<!-- Node25 -->
<g id="node26" class="node">
<title>Node25</title>
<polygon fill="#ffffff" stroke="#bfbfbf" points="805.5,-.5 805.5,-19.5 851.5,-19.5 851.5,-.5 805.5,-.5"/>
<text text-anchor="middle" x="828.5" y="-7.5" font-family="Helvetica,sans-Serif" font-size="10.00" fill="#000000">stdio.h</text>
</g>
<!-- Node14&#45;&gt;Node25 -->
<g id="edge26" class="edge">
<title>Node14&#45;&gt;Node25</title>
<path fill="none" stroke="#191970" d="M583.5528,-60.9105C635.1985,-51.7961 741.8925,-32.6483 795.2426,-20.0572"/>
<polygon fill="#191970" stroke="#191970" points="796.2861,-23.4053 805.1693,-17.6314 794.6243,-16.6054 796.2861,-23.4053"/>
</g>
<!-- Node30&#45;&gt;Node2 -->
<g id="edge38" class="edge">
<title>Node30&#45;&gt;Node2</title>
<path fill="none" stroke="#191970" d="M426.2506,-169.4948C395.3569,-160.1935 345.5381,-145.1943 310.1579,-134.5422"/>
<polygon fill="#191970" stroke="#191970" points="310.7191,-131.056 300.1347,-131.5244 308.701,-137.7588 310.7191,-131.056"/>
</g>
<!-- Node30&#45;&gt;Node10 -->
<g id="edge39" class="edge">
<title>Node30&#45;&gt;Node10</title>
<path fill="none" stroke="#191970" d="M464.0803,-168.2455C472.0458,-160.1352 483.5641,-148.4075 493.0079,-138.7919"/>
<polygon fill="#191970" stroke="#191970" points="495.5195,-141.2297 500.0295,-131.6427 490.5253,-136.3247 495.5195,-141.2297"/>
</g>
<!-- Node30&#45;&gt;Node26 -->
<g id="edge40" class="edge">
<title>Node30&#45;&gt;Node26</title>
<path fill="none" stroke="#191970" d="M445.474,-168.2027C437.8727,-159.3918 427.3325,-145.7539 421.5,-132 415.2481,-117.2573 412.2503,-99.3114 410.8145,-85.8563"/>
<polygon fill="#191970" stroke="#191970" points="414.2915,-85.4385 409.9388,-75.7791 407.3178,-86.0446 414.2915,-85.4385"/>
</g>
</g>
</svg>
        <g id="navigator" transform="translate(0 0)" fill="#404254">
                <rect fill="#f2f5e9" fill-opacity="0.5" stroke="#606060" stroke-width=".5" x="0" y="0" width="60" height="60"/>
                <use id="zoomplus" xlink:href="#zoomPlus" x="17" y="9" onmousedown="handleZoom(evt,'in')"/>
                <use id="zoomminus" xlink:href="#zoomMin" x="42" y="9" onmousedown="handleZoom(evt,'out')"/>
                <use id="reset" xlink:href="#resetDef" x="30" y="36" onmousedown="handleReset()"/>
                <g id="arrowUp" xlink:href="#dirArrow" transform="translate(30 24)" onmousedown="handlePan(0,-1)">
                  <use xlink:href="#rim" fill="#404040">
                        <set attributeName="fill" to="#808080" begin="arrowUp.mouseover" end="arrowUp.mouseout"/>
                  </use>
                  <path fill="none" stroke="white" stroke-width="1.5" d="M0,-3.0v7 M-2.5,-0.5L0,-3.0L2.5,-0.5"/>
                </g>
                <g id="arrowRight" xlink:href="#dirArrow" transform="rotate(90) translate(36 -43)" onmousedown="handlePan(1,0)">
                  <use xlink:href="#rim" fill="#404040">
                        <set attributeName="fill" to="#808080" begin="arrowRight.mouseover" end="arrowRight.mouseout"/>
                  </use>
                  <path fill="none" stroke="white" stroke-width="1.5" d="M0,-3.0v7 M-2.5,-0.5L0,-3.0L2.5,-0.5"/>
                </g>
                <g id="arrowDown" xlink:href="#dirArrow" transform="rotate(180) translate(-30 -48)" onmousedown="handlePan(0,1)">
                  <use xlink:href="#rim" fill="#404040">
                        <set attributeName="fill" to="#808080" begin="arrowDown.mouseover" end="arrowDown.mouseout"/>
                  </use>
                  <path fill="none" stroke="white" stroke-width="1.5" d="M0,-3.0v7 M-2.5,-0.5L0,-3.0L2.5,-0.5"/>
                </g>
                <g id="arrowLeft" xlink:href="#dirArrow" transform="rotate(270) translate(-36 17)" onmousedown="handlePan(-1,0)">
                  <use xlink:href="#rim" fill="#404040">
                        <set attributeName="fill" to="#808080" begin="arrowLeft.mouseover" end="arrowLeft.mouseout"/>
                  </use>
                  <path fill="none" stroke="white" stroke-width="1.5" d="M0,-3.0v7 M-2.5,-0.5L0,-3.0L2.5,-0.5"/>
                </g>
        </g>
        <svg viewBox="0 0 15 15" width="100%" height="30px" preserveAspectRatio="xMaxYMin meet">
         <g id="arrow_out" transform="scale(0.3 0.3)">
          <a xlink:href="save_8cpp__incl_org.svg" target="_base">
           <rect id="button" ry="5" rx="5" y="6" x="6" height="38" width="38"
                fill="#f2f5e9" fill-opacity="0.5" stroke="#606060" stroke-width="1.0"/>
           <path id="arrow"
             d="M 11.500037,31.436501 C 11.940474,20.09759 22.043105,11.32322 32.158766,21.979434 L 37.068811,17.246167 C 37.068811,17.246167 37.088388,32 37.088388,32 L 22.160133,31.978069 C 22.160133,31.978069 26.997745,27.140456 26.997745,27.140456 C 18.528582,18.264221 13.291696,25.230495 11.500037,31.436501 z"
             style="fill:#404040;"/>
          </a>
         </g>
        </svg>
</svg>
