<?xml version="1.0" encoding="UTF-8" standalone="no"?>
<!DOCTYPE svg PUBLIC "-//W3C//DTD SVG 1.1//EN"
 "http://www.w3.org/Graphics/SVG/1.1/DTD/svg11.dtd">
<!-- Generated by graphviz version 2.40.1 (20161225.0304)
 -->
<!-- Title: src/ConsolePrototype/save.hpp Pages: 1 -->
<svg width="434pt" height="207pt"
 viewBox="0.00 0.00 433.50 207.00" xmlns="http://www.w3.org/2000/svg" xmlns:xlink="http://www.w3.org/1999/xlink">
<g id="graph0" class="graph" transform="scale(1 1) rotate(0) translate(4 203)">
<title>src/ConsolePrototype/save.hpp</title>
<polygon fill="#ffffff" stroke="transparent" points="-4,4 -4,-203 429.5,-203 429.5,4 -4,4"/>
<!-- Node0 -->
<g id="node1" class="node">
<title>Node0</title>
<polygon fill="#bfbfbf" stroke="#000000" points="198,-168.5 198,-198.5 309,-198.5 309,-168.5 198,-168.5"/>
<text text-anchor="start" x="206" y="-186.5" font-family="Helvetica,sans-Serif" font-size="10.00" fill="#000000">src/ConsolePrototype</text>
<text text-anchor="middle" x="253.5" y="-175.5" font-family="Helvetica,sans-Serif" font-size="10.00" fill="#000000">/save.hpp</text>
</g>
<!-- Node1 -->
<g id="node2" class="node">
<title>Node1</title>
<g id="a_node2"><a xlink:href="_collection_8hpp.html" target="_top" xlink:title="../Collection/Collection.hpp">
<polygon fill="#ffffff" stroke="#000000" points="39.5,-112.5 39.5,-131.5 173.5,-131.5 173.5,-112.5 39.5,-112.5"/>
<text text-anchor="middle" x="106.5" y="-119.5" font-family="Helvetica,sans-Serif" font-size="10.00" fill="#000000">../Collection/Collection.hpp</text>
</a>
</g>
</g>
<!-- Node0&#45;&gt;Node1 -->
<g id="edge1" class="edge">
<title>Node0&#45;&gt;Node1</title>
<path fill="none" stroke="#191970" d="M217.5398,-168.4554C193.4427,-158.374 161.987,-145.2139 138.7097,-135.4755"/>
<polygon fill="#191970" stroke="#191970" points="139.8558,-132.1611 129.2798,-131.5303 137.1541,-138.6187 139.8558,-132.1611"/>
</g>
<!-- Node6 -->
<g id="node7" class="node">
<title>Node6</title>
<g id="a_node7"><a xlink:href="_image_8hpp.html" target="_top" xlink:title="../Image/Image.hpp">
<polygon fill="#ffffff" stroke="#000000" points="203,-112.5 203,-131.5 304,-131.5 304,-112.5 203,-112.5"/>
<text text-anchor="middle" x="253.5" y="-119.5" font-family="Helvetica,sans-Serif" font-size="10.00" fill="#000000">../Image/Image.hpp</text>
</a>
</g>
</g>
<!-- Node0&#45;&gt;Node6 -->
<g id="edge7" class="edge">
<title>Node0&#45;&gt;Node6</title>
<path fill="none" stroke="#191970" d="M253.5,-168.2977C253.5,-160.3834 253.5,-150.6043 253.5,-142.0759"/>
<polygon fill="#191970" stroke="#191970" points="257.0001,-141.8469 253.5,-131.8469 250.0001,-141.847 257.0001,-141.8469"/>
</g>
<!-- Node10 -->
<g id="node11" class="node">
<title>Node10</title>
<polygon fill="#ffffff" stroke="#bfbfbf" points="305.5,-56.5 305.5,-75.5 425.5,-75.5 425.5,-56.5 305.5,-56.5"/>
<text text-anchor="middle" x="365.5" y="-63.5" font-family="Helvetica,sans-Serif" font-size="10.00" fill="#000000">experimental/filesystem</text>
</g>
<!-- Node0&#45;&gt;Node10 -->
<g id="edge13" class="edge">
<title>Node0&#45;&gt;Node10</title>
<path fill="none" stroke="#191970" d="M272.6005,-168.2933C284.5426,-158.4373 299.9783,-145.0464 312.5,-132 327.1915,-116.6928 342.169,-97.6594 352.4372,-83.9711"/>
<polygon fill="#191970" stroke="#191970" points="355.3188,-85.961 358.4545,-75.8408 349.6922,-81.7967 355.3188,-85.961"/>
</g>
<!-- Node2 -->
<g id="node3" class="node">
<title>Node2</title>
<g id="a_node3"><a xlink:href="_collection_iterator_8hpp.html" target="_top" xlink:title="CollectionIterator.hpp">
<polygon fill="#ffffff" stroke="#000000" points="51.5,-56.5 51.5,-75.5 161.5,-75.5 161.5,-56.5 51.5,-56.5"/>
<text text-anchor="middle" x="106.5" y="-63.5" font-family="Helvetica,sans-Serif" font-size="10.00" fill="#000000">CollectionIterator.hpp</text>
</a>
</g>
</g>
<!-- Node1&#45;&gt;Node2 -->
<g id="edge2" class="edge">
<title>Node1&#45;&gt;Node2</title>
<path fill="none" stroke="#191970" d="M106.5,-112.2455C106.5,-104.9382 106.5,-94.6944 106.5,-85.7046"/>
<polygon fill="#191970" stroke="#191970" points="110.0001,-85.6426 106.5,-75.6427 103.0001,-85.6427 110.0001,-85.6426"/>
</g>
<!-- Node4 -->
<g id="node5" class="node">
<title>Node4</title>
<polygon fill="#ffffff" stroke="#bfbfbf" points="0,-.5 0,-19.5 47,-19.5 47,-.5 0,-.5"/>
<text text-anchor="middle" x="23.5" y="-7.5" font-family="Helvetica,sans-Serif" font-size="10.00" fill="#000000">iterator</text>
</g>
<!-- Node1&#45;&gt;Node4 -->
<g id="edge6" class="edge">
<title>Node1&#45;&gt;Node4</title>
<path fill="none" stroke="#191970" d="M86.6883,-112.3732C72.4214,-104.4728 53.7727,-91.9939 42.5,-76 32.852,-62.3112 28.0714,-43.7762 25.7215,-29.8332"/>
<polygon fill="#191970" stroke="#191970" points="29.1712,-29.2305 24.3114,-19.816 22.2395,-30.2063 29.1712,-29.2305"/>
</g>
<!-- Node3 -->
<g id="node4" class="node">
<title>Node3</title>
<polygon fill="#ffffff" stroke="#bfbfbf" points="65.5,-.5 65.5,-19.5 127.5,-19.5 127.5,-.5 65.5,-.5"/>
<text text-anchor="middle" x="96.5" y="-7.5" font-family="Helvetica,sans-Serif" font-size="10.00" fill="#000000">type_traits</text>
</g>
<!-- Node2&#45;&gt;Node3 -->
<g id="edge3" class="edge">
<title>Node2&#45;&gt;Node3</title>
<path fill="none" stroke="#191970" d="M104.7581,-56.2455C103.4533,-48.9382 101.624,-38.6944 100.0187,-29.7046"/>
<polygon fill="#191970" stroke="#191970" points="103.4254,-28.8717 98.2219,-19.6427 96.5344,-30.1022 103.4254,-28.8717"/>
</g>
<!-- Node2&#45;&gt;Node4 -->
<g id="edge4" class="edge">
<title>Node2&#45;&gt;Node4</title>
<path fill="none" stroke="#191970" d="M92.0425,-56.2455C79.4268,-47.7337 60.9056,-35.2375 46.2955,-25.3801"/>
<polygon fill="#191970" stroke="#191970" points="48.0391,-22.3343 37.7918,-19.6427 44.1239,-28.1371 48.0391,-22.3343"/>
</g>
<!-- Node5 -->
<g id="node6" class="node">
<title>Node5</title>
<polygon fill="#ffffff" stroke="#bfbfbf" points="145.5,-.5 145.5,-19.5 197.5,-19.5 197.5,-.5 145.5,-.5"/>
<text text-anchor="middle" x="171.5" y="-7.5" font-family="Helvetica,sans-Serif" font-size="10.00" fill="#000000">memory</text>
</g>
<!-- Node2&#45;&gt;Node5 -->
<g id="edge5" class="edge">
<title>Node2&#45;&gt;Node5</title>
<path fill="none" stroke="#191970" d="M117.8221,-56.2455C127.4223,-47.9746 141.3892,-35.9416 152.6695,-26.2232"/>
<polygon fill="#191970" stroke="#191970" points="155.016,-28.8214 160.3076,-19.6427 150.447,-23.5182 155.016,-28.8214"/>
</g>
<!-- Node6&#45;&gt;Node5 -->
<g id="edge12" class="edge">
<title>Node6&#45;&gt;Node5</title>
<path fill="none" stroke="#191970" d="M243.2663,-112.3296C234.1015,-103.3852 220.5904,-89.4762 210.5,-76 199.2024,-60.9116 188.4688,-42.318 181.1329,-28.7155"/>
<polygon fill="#191970" stroke="#191970" points="184.197,-27.0225 176.4322,-19.8143 178.0071,-30.2914 184.197,-27.0225"/>
</g>
<!-- Node7 -->
<g id="node8" class="node">
<title>Node7</title>
<g id="a_node8"><a xlink:href="_tag_list_8hpp.html" target="_top" xlink:title="TagList.hpp">
<polygon fill="#ffffff" stroke="#000000" points="219.5,-56.5 219.5,-75.5 287.5,-75.5 287.5,-56.5 219.5,-56.5"/>
<text text-anchor="middle" x="253.5" y="-63.5" font-family="Helvetica,sans-Serif" font-size="10.00" fill="#000000">TagList.hpp</text>
</a>
</g>
</g>
<!-- Node6&#45;&gt;Node7 -->
<g id="edge8" class="edge">
<title>Node6&#45;&gt;Node7</title>
<path fill="none" stroke="#191970" d="M253.5,-112.2455C253.5,-104.9382 253.5,-94.6944 253.5,-85.7046"/>
<polygon fill="#191970" stroke="#191970" points="257.0001,-85.6426 253.5,-75.6427 250.0001,-85.6427 257.0001,-85.6426"/>
</g>
<!-- Node6&#45;&gt;Node10 -->
<g id="edge11" class="edge">
<title>Node6&#45;&gt;Node10</title>
<path fill="none" stroke="#191970" d="M272.7535,-112.3733C290.5712,-103.4644 317.2747,-90.1127 337.4594,-80.0203"/>
<polygon fill="#191970" stroke="#191970" points="339.1187,-83.1038 346.4978,-75.5011 335.9882,-76.8428 339.1187,-83.1038"/>
</g>
<!-- Node8 -->
<g id="node9" class="node">
<title>Node8</title>
<polygon fill="#ffffff" stroke="#bfbfbf" points="312,-.5 312,-19.5 353,-19.5 353,-.5 312,-.5"/>
<text text-anchor="middle" x="332.5" y="-7.5" font-family="Helvetica,sans-Serif" font-size="10.00" fill="#000000">string</text>
</g>
<!-- Node7&#45;&gt;Node8 -->
<g id="edge9" class="edge">
<title>Node7&#45;&gt;Node8</title>
<path fill="none" stroke="#191970" d="M267.2607,-56.2455C279.1552,-47.814 296.565,-35.4729 310.4085,-25.6598"/>
<polygon fill="#191970" stroke="#191970" points="312.7628,-28.2811 318.8969,-19.6427 308.7146,-22.5704 312.7628,-28.2811"/>
</g>
<!-- Node9 -->
<g id="node10" class="node">
<title>Node9</title>
<polygon fill="#ffffff" stroke="#bfbfbf" points="215.5,-.5 215.5,-19.5 293.5,-19.5 293.5,-.5 215.5,-.5"/>
<text text-anchor="middle" x="254.5" y="-7.5" font-family="Helvetica,sans-Serif" font-size="10.00" fill="#000000">unordered_set</text>
</g>
<!-- Node7&#45;&gt;Node9 -->
<g id="edge10" class="edge">
<title>Node7&#45;&gt;Node9</title>
<path fill="none" stroke="#191970" d="M253.6742,-56.2455C253.8047,-48.9382 253.9876,-38.6944 254.1481,-29.7046"/>
<polygon fill="#191970" stroke="#191970" points="257.6486,-29.7036 254.3278,-19.6427 250.6497,-29.5786 257.6486,-29.7036"/>
</g>
</g>
</svg>
