<?xml version="1.0" encoding="UTF-8" standalone="no"?>
<!DOCTYPE svg PUBLIC "-//W3C//DTD SVG 1.1//EN"
 "http://www.w3.org/Graphics/SVG/1.1/DTD/svg11.dtd">
<!-- Generated by graphviz version 2.40.1 (20161225.0304)
 -->
<!-- Title: src/ConsolePrototype/save.cpp Pages: 1 -->
<svg width="571pt" height="263pt"
 viewBox="0.00 0.00 570.50 263.00" xmlns="http://www.w3.org/2000/svg" xmlns:xlink="http://www.w3.org/1999/xlink">
<g id="graph0" class="graph" transform="scale(1 1) rotate(0) translate(4 259)">
<title>src/ConsolePrototype/save.cpp</title>
<polygon fill="#ffffff" stroke="transparent" points="-4,4 -4,-259 566.5,-259 566.5,4 -4,4"/>
<!-- Node0 -->
<g id="node1" class="node">
<title>Node0</title>
<polygon fill="#bfbfbf" stroke="#000000" points="349,-224.5 349,-254.5 460,-254.5 460,-224.5 349,-224.5"/>
<text text-anchor="start" x="357" y="-242.5" font-family="Helvetica,sans-Serif" font-size="10.00" fill="#000000">src/ConsolePrototype</text>
<text text-anchor="middle" x="404.5" y="-231.5" font-family="Helvetica,sans-Serif" font-size="10.00" fill="#000000">/save.cpp</text>
</g>
<!-- Node1 -->
<g id="node2" class="node">
<title>Node1</title>
<g id="a_node2"><a xlink:href="save_8hpp.html" target="_top" xlink:title="save.hpp">
<polygon fill="#ffffff" stroke="#000000" points="182.5,-168.5 182.5,-187.5 238.5,-187.5 238.5,-168.5 182.5,-168.5"/>
<text text-anchor="middle" x="210.5" y="-175.5" font-family="Helvetica,sans-Serif" font-size="10.00" fill="#000000">save.hpp</text>
</a>
</g>
</g>
<!-- Node0&#45;&gt;Node1 -->
<g id="edge1" class="edge">
<title>Node0&#45;&gt;Node1</title>
<path fill="none" stroke="#191970" d="M357.0423,-224.4554C323.5384,-213.8343 279.2555,-199.7962 248.1707,-189.942"/>
<polygon fill="#191970" stroke="#191970" points="249.1626,-186.5848 238.5724,-186.8992 247.0472,-193.2576 249.1626,-186.5848"/>
</g>
<!-- Node12 -->
<g id="node13" class="node">
<title>Node12</title>
<g id="a_node13"><a xlink:href="_filtered_collection_8hpp.html" target="_top" xlink:title="../Collection/FilteredCollection.hpp">
<polygon fill="#ffffff" stroke="#000000" points="258,-168.5 258,-187.5 425,-187.5 425,-168.5 258,-168.5"/>
<text text-anchor="middle" x="341.5" y="-175.5" font-family="Helvetica,sans-Serif" font-size="10.00" fill="#000000">../Collection/FilteredCollection.hpp</text>
</a>
</g>
</g>
<!-- Node0&#45;&gt;Node12 -->
<g id="edge15" class="edge">
<title>Node0&#45;&gt;Node12</title>
<path fill="none" stroke="#191970" d="M388.927,-224.2977C379.8175,-215.4052 368.2966,-204.1586 358.8909,-194.9769"/>
<polygon fill="#191970" stroke="#191970" points="361.1878,-192.3278 351.5871,-187.8469 356.298,-197.3368 361.1878,-192.3278"/>
</g>
<!-- Node15 -->
<g id="node16" class="node">
<title>Node15</title>
<polygon fill="#ffffff" stroke="#bfbfbf" points="442.5,-168.5 442.5,-187.5 492.5,-187.5 492.5,-168.5 442.5,-168.5"/>
<text text-anchor="middle" x="467.5" y="-175.5" font-family="Helvetica,sans-Serif" font-size="10.00" fill="#000000">fstream</text>
</g>
<!-- Node0&#45;&gt;Node15 -->
<g id="edge19" class="edge">
<title>Node0&#45;&gt;Node15</title>
<path fill="none" stroke="#191970" d="M420.073,-224.2977C429.1825,-215.4052 440.7034,-204.1586 450.1091,-194.9769"/>
<polygon fill="#191970" stroke="#191970" points="452.702,-197.3368 457.4129,-187.8469 447.8122,-192.3278 452.702,-197.3368"/>
</g>
<!-- Node16 -->
<g id="node17" class="node">
<title>Node16</title>
<polygon fill="#ffffff" stroke="#bfbfbf" points="510.5,-168.5 510.5,-187.5 562.5,-187.5 562.5,-168.5 510.5,-168.5"/>
<text text-anchor="middle" x="536.5" y="-175.5" font-family="Helvetica,sans-Serif" font-size="10.00" fill="#000000">sstream</text>
</g>
<!-- Node0&#45;&gt;Node16 -->
<g id="edge20" class="edge">
<title>Node0&#45;&gt;Node16</title>
<path fill="none" stroke="#191970" d="M436.7908,-224.4554C458.1392,-214.509 485.9196,-201.5659 506.7333,-191.8686"/>
<polygon fill="#191970" stroke="#191970" points="508.4584,-194.9262 516.0447,-187.5303 505.5021,-188.581 508.4584,-194.9262"/>
</g>
<!-- Node2 -->
<g id="node3" class="node">
<title>Node2</title>
<g id="a_node3"><a xlink:href="_collection_8hpp.html" target="_top" xlink:title="../Collection/Collection.hpp">
<polygon fill="#ffffff" stroke="#000000" points="256.5,-112.5 256.5,-131.5 390.5,-131.5 390.5,-112.5 256.5,-112.5"/>
<text text-anchor="middle" x="323.5" y="-119.5" font-family="Helvetica,sans-Serif" font-size="10.00" fill="#000000">../Collection/Collection.hpp</text>
</a>
</g>
</g>
<!-- Node1&#45;&gt;Node2 -->
<g id="edge2" class="edge">
<title>Node1&#45;&gt;Node2</title>
<path fill="none" stroke="#191970" d="M229.9254,-168.3733C247.9021,-159.4644 274.8441,-146.1127 295.209,-136.0203"/>
<polygon fill="#191970" stroke="#191970" points="296.9222,-139.0776 304.3281,-131.5011 293.8139,-132.8055 296.9222,-139.0776"/>
</g>
<!-- Node7 -->
<g id="node8" class="node">
<title>Node7</title>
<g id="a_node8"><a xlink:href="_image_8hpp.html" target="_top" xlink:title="../Image/Image.hpp">
<polygon fill="#ffffff" stroke="#000000" points="76,-112.5 76,-131.5 177,-131.5 177,-112.5 76,-112.5"/>
<text text-anchor="middle" x="126.5" y="-119.5" font-family="Helvetica,sans-Serif" font-size="10.00" fill="#000000">../Image/Image.hpp</text>
</a>
</g>
</g>
<!-- Node1&#45;&gt;Node7 -->
<g id="edge8" class="edge">
<title>Node1&#45;&gt;Node7</title>
<path fill="none" stroke="#191970" d="M195.8683,-168.2455C183.1006,-159.7337 164.3562,-147.2375 149.5701,-137.3801"/>
<polygon fill="#191970" stroke="#191970" points="151.226,-134.2775 140.964,-131.6427 147.3431,-140.1019 151.226,-134.2775"/>
</g>
<!-- Node11 -->
<g id="node12" class="node">
<title>Node11</title>
<polygon fill="#ffffff" stroke="#bfbfbf" points="149.5,-56.5 149.5,-75.5 269.5,-75.5 269.5,-56.5 149.5,-56.5"/>
<text text-anchor="middle" x="209.5" y="-63.5" font-family="Helvetica,sans-Serif" font-size="10.00" fill="#000000">experimental/filesystem</text>
</g>
<!-- Node1&#45;&gt;Node11 -->
<g id="edge14" class="edge">
<title>Node1&#45;&gt;Node11</title>
<path fill="none" stroke="#191970" d="M210.4147,-168.4509C210.2516,-150.184 209.8925,-109.9553 209.6759,-85.6976"/>
<polygon fill="#191970" stroke="#191970" points="213.1743,-85.4932 209.585,-75.5249 206.1746,-85.5558 213.1743,-85.4932"/>
</g>
<!-- Node3 -->
<g id="node4" class="node">
<title>Node3</title>
<g id="a_node4"><a xlink:href="_collection_iterator_8hpp.html" target="_top" xlink:title="CollectionIterator.hpp">
<polygon fill="#ffffff" stroke="#000000" points="287.5,-56.5 287.5,-75.5 397.5,-75.5 397.5,-56.5 287.5,-56.5"/>
<text text-anchor="middle" x="342.5" y="-63.5" font-family="Helvetica,sans-Serif" font-size="10.00" fill="#000000">CollectionIterator.hpp</text>
</a>
</g>
</g>
<!-- Node2&#45;&gt;Node3 -->
<g id="edge3" class="edge">
<title>Node2&#45;&gt;Node3</title>
<path fill="none" stroke="#191970" d="M326.8095,-112.2455C329.3433,-104.7776 332.9177,-94.2427 336.015,-85.1137"/>
<polygon fill="#191970" stroke="#191970" points="339.3298,-86.237 339.2284,-75.6427 332.7009,-83.9879 339.3298,-86.237"/>
</g>
<!-- Node5 -->
<g id="node6" class="node">
<title>Node5</title>
<polygon fill="#ffffff" stroke="#bfbfbf" points="397,-.5 397,-19.5 444,-19.5 444,-.5 397,-.5"/>
<text text-anchor="middle" x="420.5" y="-7.5" font-family="Helvetica,sans-Serif" font-size="10.00" fill="#000000">iterator</text>
</g>
<!-- Node2&#45;&gt;Node5 -->
<g id="edge7" class="edge">
<title>Node2&#45;&gt;Node5</title>
<path fill="none" stroke="#191970" d="M353.9528,-112.3836C371.9046,-105.1671 393.5676,-93.4835 406.5,-76 416.3935,-62.6249 419.6183,-43.7754 420.5289,-29.643"/>
<polygon fill="#191970" stroke="#191970" points="424.0312,-29.6198 420.8461,-19.5151 417.0347,-29.4006 424.0312,-29.6198"/>
</g>
<!-- Node4 -->
<g id="node5" class="node">
<title>Node4</title>
<polygon fill="#ffffff" stroke="#bfbfbf" points="311.5,-.5 311.5,-19.5 373.5,-19.5 373.5,-.5 311.5,-.5"/>
<text text-anchor="middle" x="342.5" y="-7.5" font-family="Helvetica,sans-Serif" font-size="10.00" fill="#000000">type_traits</text>
</g>
<!-- Node3&#45;&gt;Node4 -->
<g id="edge4" class="edge">
<title>Node3&#45;&gt;Node4</title>
<path fill="none" stroke="#191970" d="M342.5,-56.2455C342.5,-48.9382 342.5,-38.6944 342.5,-29.7046"/>
<polygon fill="#191970" stroke="#191970" points="346.0001,-29.6426 342.5,-19.6427 339.0001,-29.6427 346.0001,-29.6426"/>
</g>
<!-- Node3&#45;&gt;Node5 -->
<g id="edge5" class="edge">
<title>Node3&#45;&gt;Node5</title>
<path fill="none" stroke="#191970" d="M356.0866,-56.2455C367.8305,-47.814 385.0199,-35.4729 398.6882,-25.6598"/>
<polygon fill="#191970" stroke="#191970" points="400.9871,-28.3179 407.0691,-19.6427 396.9046,-22.6316 400.9871,-28.3179"/>
</g>
<!-- Node6 -->
<g id="node7" class="node">
<title>Node6</title>
<polygon fill="#ffffff" stroke="#bfbfbf" points="198.5,-.5 198.5,-19.5 250.5,-19.5 250.5,-.5 198.5,-.5"/>
<text text-anchor="middle" x="224.5" y="-7.5" font-family="Helvetica,sans-Serif" font-size="10.00" fill="#000000">memory</text>
</g>
<!-- Node3&#45;&gt;Node6 -->
<g id="edge6" class="edge">
<title>Node3&#45;&gt;Node6</title>
<path fill="none" stroke="#191970" d="M322.2151,-56.3733C303.3579,-47.4241 275.054,-33.9917 253.7545,-23.8835"/>
<polygon fill="#191970" stroke="#191970" points="255.0551,-20.6266 244.5202,-19.5011 252.0539,-26.9506 255.0551,-20.6266"/>
</g>
<!-- Node7&#45;&gt;Node6 -->
<g id="edge13" class="edge">
<title>Node7&#45;&gt;Node6</title>
<path fill="none" stroke="#191970" d="M126.1425,-112.4765C126.1086,-98.6749 127.9189,-72.9188 140.5,-56 152.3601,-40.0508 171.4595,-28.9666 188.4516,-21.6816"/>
<polygon fill="#191970" stroke="#191970" points="190.1461,-24.7742 198.142,-17.8233 187.5566,-18.2708 190.1461,-24.7742"/>
</g>
<!-- Node8 -->
<g id="node9" class="node">
<title>Node8</title>
<g id="a_node9"><a xlink:href="_tag_list_8hpp.html" target="_top" xlink:title="TagList.hpp">
<polygon fill="#ffffff" stroke="#000000" points="25.5,-56.5 25.5,-75.5 93.5,-75.5 93.5,-56.5 25.5,-56.5"/>
<text text-anchor="middle" x="59.5" y="-63.5" font-family="Helvetica,sans-Serif" font-size="10.00" fill="#000000">TagList.hpp</text>
</a>
</g>
</g>
<!-- Node7&#45;&gt;Node8 -->
<g id="edge9" class="edge">
<title>Node7&#45;&gt;Node8</title>
<path fill="none" stroke="#191970" d="M114.8295,-112.2455C104.9339,-103.9746 90.5373,-91.9416 78.9099,-82.2232"/>
<polygon fill="#191970" stroke="#191970" points="80.9542,-79.3703 71.0368,-75.6427 76.465,-84.7413 80.9542,-79.3703"/>
</g>
<!-- Node7&#45;&gt;Node11 -->
<g id="edge12" class="edge">
<title>Node7&#45;&gt;Node11</title>
<path fill="none" stroke="#191970" d="M140.9575,-112.2455C153.5732,-103.7337 172.0944,-91.2375 186.7045,-81.3801"/>
<polygon fill="#191970" stroke="#191970" points="188.8761,-84.1371 195.2082,-75.6427 184.9609,-78.3343 188.8761,-84.1371"/>
</g>
<!-- Node9 -->
<g id="node10" class="node">
<title>Node9</title>
<polygon fill="#ffffff" stroke="#bfbfbf" points="0,-.5 0,-19.5 41,-19.5 41,-.5 0,-.5"/>
<text text-anchor="middle" x="20.5" y="-7.5" font-family="Helvetica,sans-Serif" font-size="10.00" fill="#000000">string</text>
</g>
<!-- Node8&#45;&gt;Node9 -->
<g id="edge10" class="edge">
<title>Node8&#45;&gt;Node9</title>
<path fill="none" stroke="#191970" d="M52.7067,-56.2455C47.2822,-48.4564 39.5339,-37.3308 32.9967,-27.9439"/>
<polygon fill="#191970" stroke="#191970" points="35.8025,-25.8485 27.2154,-19.6427 30.0583,-29.849 35.8025,-25.8485"/>
</g>
<!-- Node10 -->
<g id="node11" class="node">
<title>Node10</title>
<polygon fill="#ffffff" stroke="#bfbfbf" points="59.5,-.5 59.5,-19.5 137.5,-19.5 137.5,-.5 59.5,-.5"/>
<text text-anchor="middle" x="98.5" y="-7.5" font-family="Helvetica,sans-Serif" font-size="10.00" fill="#000000">unordered_set</text>
</g>
<!-- Node8&#45;&gt;Node10 -->
<g id="edge11" class="edge">
<title>Node8&#45;&gt;Node10</title>
<path fill="none" stroke="#191970" d="M66.2933,-56.2455C71.7178,-48.4564 79.4661,-37.3308 86.0033,-27.9439"/>
<polygon fill="#191970" stroke="#191970" points="88.9417,-29.849 91.7846,-19.6427 83.1975,-25.8485 88.9417,-29.849"/>
</g>
<!-- Node12&#45;&gt;Node2 -->
<g id="edge16" class="edge">
<title>Node12&#45;&gt;Node2</title>
<path fill="none" stroke="#191970" d="M338.3646,-168.2455C335.99,-160.8579 332.6507,-150.4689 329.7385,-141.4087"/>
<polygon fill="#191970" stroke="#191970" points="332.9917,-140.0919 326.5994,-131.6427 326.3275,-142.234 332.9917,-140.0919"/>
</g>
<!-- Node13 -->
<g id="node14" class="node">
<title>Node13</title>
<polygon fill="#ffffff" stroke="#bfbfbf" points="486.5,-112.5 486.5,-131.5 530.5,-131.5 530.5,-112.5 486.5,-112.5"/>
<text text-anchor="middle" x="508.5" y="-119.5" font-family="Helvetica,sans-Serif" font-size="10.00" fill="#000000">vector</text>
</g>
<!-- Node12&#45;&gt;Node13 -->
<g id="edge17" class="edge">
<title>Node12&#45;&gt;Node13</title>
<path fill="none" stroke="#191970" d="M370.2083,-168.3733C399.7847,-158.4554 445.7818,-143.0313 476.5083,-132.7278"/>
<polygon fill="#191970" stroke="#191970" points="477.929,-135.943 486.2974,-129.4452 475.7035,-129.3062 477.929,-135.943"/>
</g>
<!-- Node14 -->
<g id="node15" class="node">
<title>Node14</title>
<polygon fill="#ffffff" stroke="#bfbfbf" points="409,-112.5 409,-131.5 468,-131.5 468,-112.5 409,-112.5"/>
<text text-anchor="middle" x="438.5" y="-119.5" font-family="Helvetica,sans-Serif" font-size="10.00" fill="#000000">functional</text>
</g>
<!-- Node12&#45;&gt;Node14 -->
<g id="edge18" class="edge">
<title>Node12&#45;&gt;Node14</title>
<path fill="none" stroke="#191970" d="M358.3961,-168.2455C373.418,-159.5731 395.6043,-146.7645 412.821,-136.825"/>
<polygon fill="#191970" stroke="#191970" points="414.8871,-139.6737 421.7975,-131.6427 411.3872,-133.6114 414.8871,-139.6737"/>
</g>
</g>
</svg>
