<?xml version="1.0" encoding="UTF-8" standalone="no"?>
<!DOCTYPE svg PUBLIC "-//W3C//DTD SVG 1.1//EN"
 "http://www.w3.org/Graphics/SVG/1.1/DTD/svg11.dtd">
<!-- Generated by graphviz version 2.40.1 (20161225.0304)
 -->
<!-- Title: updateCollec Pages: 1 -->
<svg width="213pt" height="66pt"
 viewBox="0.00 0.00 213.00 66.00" xmlns="http://www.w3.org/2000/svg" xmlns:xlink="http://www.w3.org/1999/xlink">
<g id="graph0" class="graph" transform="scale(1 1) rotate(0) translate(4 62)">
<title>updateCollec</title>
<polygon fill="#ffffff" stroke="transparent" points="-4,4 -4,-62 209,-62 209,4 -4,4"/>
<!-- Node3 -->
<g id="node1" class="node">
<title>Node3</title>
<polygon fill="#bfbfbf" stroke="#000000" points="0,-19.5 0,-38.5 74,-38.5 74,-19.5 0,-19.5"/>
<text text-anchor="middle" x="37" y="-26.5" font-family="Helvetica,sans-Serif" font-size="10.00" fill="#000000">updateCollec</text>
</g>
<!-- Node4 -->
<g id="node2" class="node">
<title>Node4</title>
<g id="a_node2"><a xlink:href="class_image.html#a47222478e8a915767150d24965e5e223" target="_top" xlink:title="Image::getPath">
<polygon fill="#ffffff" stroke="#000000" points="116,-38.5 116,-57.5 199,-57.5 199,-38.5 116,-38.5"/>
<text text-anchor="middle" x="157.5" y="-45.5" font-family="Helvetica,sans-Serif" font-size="10.00" fill="#000000">Image::getPath</text>
</a>
</g>
</g>
<!-- Node3&#45;&gt;Node4 -->
<g id="edge1" class="edge">
<title>Node3&#45;&gt;Node4</title>
<path fill="none" stroke="#191970" d="M74.1372,-34.8557C84.094,-36.4256 95.0434,-38.1521 105.6397,-39.8229"/>
<polygon fill="#191970" stroke="#191970" points="105.2238,-43.3004 115.6469,-41.4008 106.3141,-36.3859 105.2238,-43.3004"/>
</g>
<!-- Node5 -->
<g id="node3" class="node">
<title>Node5</title>
<g id="a_node3"><a xlink:href="class_image.html#a74e8e906e9ebe86e0e4cb1e0590af3b3" target="_top" xlink:title="Image::getTagList">
<polygon fill="#ffffff" stroke="#000000" points="110,-.5 110,-19.5 205,-19.5 205,-.5 110,-.5"/>
<text text-anchor="middle" x="157.5" y="-7.5" font-family="Helvetica,sans-Serif" font-size="10.00" fill="#000000">Image::getTagList</text>
</a>
</g>
</g>
<!-- Node3&#45;&gt;Node5 -->
<g id="edge2" class="edge">
<title>Node3&#45;&gt;Node5</title>
<path fill="none" stroke="#191970" d="M74.1372,-23.1443C82.1891,-21.8747 90.8901,-20.5028 99.5286,-19.1407"/>
<polygon fill="#191970" stroke="#191970" points="100.2652,-22.5679 109.598,-17.553 99.1749,-15.6533 100.2652,-22.5679"/>
</g>
</g>
</svg>
