<?xml version="1.0" encoding="UTF-8" standalone="no"?>
<!DOCTYPE svg PUBLIC "-//W3C//DTD SVG 1.1//EN"
 "http://www.w3.org/Graphics/SVG/1.1/DTD/svg11.dtd">
<!-- Generated by graphviz version 2.40.1 (20161225.0304)
 -->
<!-- Title: cimg_library_suffixed::CImg::set_linear_atXYZ Pages: 1 -->
<svg width="307pt" height="39pt"
 viewBox="0.00 0.00 307.00 39.00" xmlns="http://www.w3.org/2000/svg" xmlns:xlink="http://www.w3.org/1999/xlink">
<g id="graph0" class="graph" transform="scale(1 1) rotate(0) translate(4 35)">
<title>cimg_library_suffixed::CImg::set_linear_atXYZ</title>
<polygon fill="#ffffff" stroke="transparent" points="-4,4 -4,-35 303,-35 303,4 -4,4"/>
<!-- Node3118 -->
<g id="node1" class="node">
<title>Node3118</title>
<polygon fill="#bfbfbf" stroke="#000000" points="0,-.5 0,-30.5 128,-30.5 128,-.5 0,-.5"/>
<text text-anchor="start" x="8" y="-18.5" font-family="Helvetica,sans-Serif" font-size="10.00" fill="#000000">cimg_library_suffixed</text>
<text text-anchor="middle" x="64" y="-7.5" font-family="Helvetica,sans-Serif" font-size="10.00" fill="#000000">::CImg::set_linear_atXYZ</text>
</g>
<!-- Node3119 -->
<g id="node2" class="node">
<title>Node3119</title>
<g id="a_node2"><a xlink:href="structcimg__library__suffixed_1_1_c_img.html#a8ec8cca0b51ca156165ffd77acf39e09" target="_top" xlink:title="Warp image content by a warping field . ">
<polygon fill="#ffffff" stroke="#000000" points="164,-.5 164,-30.5 299,-30.5 299,-.5 164,-.5"/>
<text text-anchor="start" x="172" y="-18.5" font-family="Helvetica,sans-Serif" font-size="10.00" fill="#000000">cimg_library_suffixed</text>
<text text-anchor="middle" x="231.5" y="-7.5" font-family="Helvetica,sans-Serif" font-size="10.00" fill="#000000">::CImg&lt; charT &gt;::get_warp</text>
</a>
</g>
</g>
<!-- Node3118&#45;&gt;Node3119 -->
<g id="edge1" class="edge">
<title>Node3118&#45;&gt;Node3119</title>
<path fill="none" stroke="#191970" d="M138.4709,-15.5C146.8956,-15.5 155.4471,-15.5 163.7787,-15.5"/>
<polygon fill="#191970" stroke="#191970" points="138.2809,-12.0001 128.2808,-15.5 138.2808,-19.0001 138.2809,-12.0001"/>
</g>
</g>
</svg>
