<?xml version="1.0" encoding="UTF-8" standalone="no"?>
<!DOCTYPE svg PUBLIC "-//W3C//DTD SVG 1.1//EN"
 "http://www.w3.org/Graphics/SVG/1.1/DTD/svg11.dtd">
<!-- Generated by graphviz version 2.40.1 (20161225.0304)
 -->
<!-- Title: cimg_library_suffixed::CImg::get_sin Pages: 1 -->
<!--zoomable 963 -->
<svg id="main" version="1.1" xmlns="http://www.w3.org/2000/svg" xmlns:xlink="http://www.w3.org/1999/xlink" xml:space="preserve" onload="init(evt)">
<style type="text/css"><![CDATA[
.edge:hover path { stroke: red; }
.edge:hover polygon { stroke: red; fill: red; }
]]></style>
<script type="text/javascript"><![CDATA[
var edges = document.getElementsByTagName('g');
if (edges && edges.length) {
  for (var i=0;i<edges.length;i++) {
    if (edges[i].id.substr(0,4)=='edge') {
      edges[i].setAttribute('class','edge');
    }
  }
}
]]></script>
        <defs>
                <circle id="rim" cx="0" cy="0" r="7"/>
                <circle id="rim2" cx="0" cy="0" r="3.5"/>
                <g id="zoomPlus">
                        <use xlink:href="#rim" fill="#404040">
                                <set attributeName="fill" to="#808080" begin="zoomplus.mouseover" end="zoomplus.mouseout"/>
                        </use>
                        <path d="M-4,0h8M0,-4v8" fill="none" stroke="white" stroke-width="1.5" pointer-events="none"/>
                </g>
                <g id="zoomMin">
                        <use xlink:href="#rim" fill="#404040">
                                <set attributeName="fill" to="#808080" begin="zoomminus.mouseover" end="zoomminus.mouseout"/>
                        </use>
                        <path d="M-4,0h8" fill="none" stroke="white" stroke-width="1.5" pointer-events="none"/>
                </g>
                <g id="dirArrow">
                        <path fill="none" stroke="white" stroke-width="1.5" d="M0,-3.0v7 M-2.5,-0.5L0,-3.0L2.5,-0.5"/>
                </g>
               <g id="resetDef">
                       <use xlink:href="#rim2" fill="#404040">
                               <set attributeName="fill" to="#808080" begin="reset.mouseover" end="reset.mouseout"/>
                       </use>
               </g>
        </defs>

<script type="text/javascript">
var viewWidth = 637;
var viewHeight = 963;
var sectionId = 'dynsection-96';
</script>
<script xlink:href="svgpan.js"/>
<svg id="graph" class="graph">
<g id="viewport">
<title>cimg_library_suffixed::CImg::get_sin</title>
<polygon fill="#ffffff" stroke="transparent" points="-4,4 -4,-958.5 633,-958.5 633,4 -4,4"/>
<!-- Node1926 -->
<g id="node1" class="node">
<title>Node1926</title>
<polygon fill="#bfbfbf" stroke="#000000" points="0,-472.5 0,-502.5 109,-502.5 109,-472.5 0,-472.5"/>
<text text-anchor="start" x="8" y="-490.5" font-family="Helvetica,sans-Serif" font-size="10.00" fill="#000000">cimg_library_suffixed</text>
<text text-anchor="middle" x="54.5" y="-479.5" font-family="Helvetica,sans-Serif" font-size="10.00" fill="#000000">::CImg::get_sin</text>
</g>
<!-- Node1927 -->
<g id="node2" class="node">
<title>Node1927</title>
<g id="a_node2"><a xlink:href="namespacecimg__library__suffixed.html#adadd90e3f405e206a38d01dc80e9be2d" target="_top" xlink:title="cimg_library_suffixed::sin">
<polygon fill="#ffffff" stroke="#000000" points="145,-478 145,-497 273,-497 273,-478 145,-478"/>
<text text-anchor="middle" x="209" y="-485" font-family="Helvetica,sans-Serif" font-size="10.00" fill="#000000">cimg_library_suffixed::sin</text>
</a>
</g>
</g>
<!-- Node1926&#45;&gt;Node1927 -->
<g id="edge1" class="edge">
<title>Node1926&#45;&gt;Node1927</title>
<path fill="none" stroke="#191970" d="M119.4865,-480.8262C127.8533,-480.7214 136.417,-480.7247 144.7714,-480.836"/>
<polygon fill="#191970" stroke="#191970" points="119.3413,-477.3281 109.4059,-481.0075 119.4673,-484.327 119.3413,-477.3281"/>
</g>
<!-- Node1927&#45;&gt;Node1926 -->
<g id="edge13" class="edge">
<title>Node1927&#45;&gt;Node1926</title>
<path fill="none" stroke="#191970" d="M134.5044,-494.2462C126.0469,-494.2696 117.5454,-494.1851 109.4059,-493.9925"/>
<polygon fill="#191970" stroke="#191970" points="134.7998,-497.744 144.7714,-494.164 134.7437,-490.7443 134.7998,-497.744"/>
</g>
<!-- Node1928 -->
<g id="node3" class="node">
<title>Node1928</title>
<g id="a_node3"><a xlink:href="structcimg__library__suffixed_1_1_c_img.html#a0382da87e63e41082364090349d8066d" target="_top" xlink:title="cimg_library_suffixed\l::CImg\&lt; charT \&gt;::_cimg\l_lanczos">
<polygon fill="#ffffff" stroke="#000000" points="321,-913 321,-954 443,-954 443,-913 321,-913"/>
<text text-anchor="start" x="329" y="-942" font-family="Helvetica,sans-Serif" font-size="10.00" fill="#000000">cimg_library_suffixed</text>
<text text-anchor="start" x="329" y="-931" font-family="Helvetica,sans-Serif" font-size="10.00" fill="#000000">::CImg&lt; charT &gt;::_cimg</text>
<text text-anchor="middle" x="382" y="-920" font-family="Helvetica,sans-Serif" font-size="10.00" fill="#000000">_lanczos</text>
</a>
</g>
</g>
<!-- Node1927&#45;&gt;Node1928 -->
<g id="edge2" class="edge">
<title>Node1927&#45;&gt;Node1928</title>
<path fill="none" stroke="#191970" d="M211.3725,-507.3955C220.5872,-581.6932 256.1311,-841.7905 309,-903.5 312.3876,-907.4541 316.378,-910.8953 320.7175,-913.8888"/>
<polygon fill="#191970" stroke="#191970" points="214.805,-506.6285 210.1211,-497.1253 207.8564,-507.4752 214.805,-506.6285"/>
</g>
<!-- Node1929 -->
<g id="node4" class="node">
<title>Node1929</title>
<g id="a_node4"><a xlink:href="structcimg__library__suffixed_1_1_c_img.html#aea02b9cdc8518779ac4397ed0c733757" target="_top" xlink:title="cimg_library_suffixed\l::CImg\&lt; charT \&gt;::_draw\l_ellipse">
<polygon fill="#ffffff" stroke="#000000" points="321,-853 321,-894 443,-894 443,-853 321,-853"/>
<text text-anchor="start" x="329" y="-882" font-family="Helvetica,sans-Serif" font-size="10.00" fill="#000000">cimg_library_suffixed</text>
<text text-anchor="start" x="329" y="-871" font-family="Helvetica,sans-Serif" font-size="10.00" fill="#000000">::CImg&lt; charT &gt;::_draw</text>
<text text-anchor="middle" x="382" y="-860" font-family="Helvetica,sans-Serif" font-size="10.00" fill="#000000">_ellipse</text>
</a>
</g>
</g>
<!-- Node1927&#45;&gt;Node1929 -->
<g id="edge3" class="edge">
<title>Node1927&#45;&gt;Node1929</title>
<path fill="none" stroke="#191970" d="M212.1842,-507.0615C223.401,-573.8672 262.8993,-791.7117 309,-843.5 312.462,-847.3891 316.5047,-850.7847 320.8794,-853.7475"/>
<polygon fill="#191970" stroke="#191970" points="215.6123,-506.3389 210.5257,-497.045 208.7063,-507.4825 215.6123,-506.3389"/>
</g>
<!-- Node1930 -->
<g id="node5" class="node">
<title>Node1930</title>
<g id="a_node5"><a xlink:href="structcimg__library__suffixed_1_1_c_img_1_1__cimg__math__parser.html#a4c1d921651a9408da9487f1d4e8c13d0" target="_top" xlink:title="cimg_library_suffixed\l::CImg::_cimg_math_parser\l::_mp_complex_pow">
<polygon fill="#ffffff" stroke="#000000" points="313,-793 313,-834 451,-834 451,-793 313,-793"/>
<text text-anchor="start" x="321" y="-822" font-family="Helvetica,sans-Serif" font-size="10.00" fill="#000000">cimg_library_suffixed</text>
<text text-anchor="start" x="321" y="-811" font-family="Helvetica,sans-Serif" font-size="10.00" fill="#000000">::CImg::_cimg_math_parser</text>
<text text-anchor="middle" x="382" y="-800" font-family="Helvetica,sans-Serif" font-size="10.00" fill="#000000">::_mp_complex_pow</text>
</a>
</g>
</g>
<!-- Node1927&#45;&gt;Node1930 -->
<g id="edge4" class="edge">
<title>Node1927&#45;&gt;Node1930</title>
<path fill="none" stroke="#191970" d="M210.1827,-507.3395C214.3204,-559.4574 232.4168,-701.8419 309,-783.5 312.2807,-786.998 316.0288,-790.1004 320.0552,-792.8498"/>
<polygon fill="#191970" stroke="#191970" points="213.6576,-506.8584 209.4641,-497.1287 206.6748,-507.3498 213.6576,-506.8584"/>
</g>
<!-- Node1931 -->
<g id="node6" class="node">
<title>Node1931</title>
<g id="a_node6"><a xlink:href="structcimg__library__suffixed_1_1_c_img.html#ad93e8ff81e78bf78b9f1153ef6e55ad4" target="_top" xlink:title="cimg_library_suffixed\l::CImg\&lt; charT \&gt;::_rotate">
<polygon fill="#ffffff" stroke="#000000" points="319.5,-743.5 319.5,-773.5 444.5,-773.5 444.5,-743.5 319.5,-743.5"/>
<text text-anchor="start" x="327.5" y="-761.5" font-family="Helvetica,sans-Serif" font-size="10.00" fill="#000000">cimg_library_suffixed</text>
<text text-anchor="middle" x="382" y="-750.5" font-family="Helvetica,sans-Serif" font-size="10.00" fill="#000000">::CImg&lt; charT &gt;::_rotate</text>
</a>
</g>
</g>
<!-- Node1927&#45;&gt;Node1931 -->
<g id="edge5" class="edge">
<title>Node1927&#45;&gt;Node1931</title>
<path fill="none" stroke="#191970" d="M211.449,-507.2547C218.2136,-553.4716 241.3637,-669.5589 309,-733.5 313.0886,-737.3652 317.8005,-740.6351 322.8212,-743.4009"/>
<polygon fill="#191970" stroke="#191970" points="214.8815,-506.521 210.0651,-497.0842 207.9454,-507.4649 214.8815,-506.521"/>
</g>
<!-- Node1932 -->
<g id="node7" class="node">
<title>Node1932</title>
<g id="a_node7"><a xlink:href="structcimg__library__suffixed_1_1_c_img.html#af3c29f70168c4443e3f6f887834819b0" target="_top" xlink:title="Blur image anisotropically, directed by a field of diffusion tensors. ">
<polygon fill="#ffffff" stroke="#000000" points="326.5,-683 326.5,-724 437.5,-724 437.5,-683 326.5,-683"/>
<text text-anchor="start" x="334.5" y="-712" font-family="Helvetica,sans-Serif" font-size="10.00" fill="#000000">cimg_library_suffixed</text>
<text text-anchor="start" x="334.5" y="-701" font-family="Helvetica,sans-Serif" font-size="10.00" fill="#000000">::CImg&lt; charT &gt;::blur</text>
<text text-anchor="middle" x="382" y="-690" font-family="Helvetica,sans-Serif" font-size="10.00" fill="#000000">_anisotropic</text>
</a>
</g>
</g>
<!-- Node1927&#45;&gt;Node1932 -->
<g id="edge6" class="edge">
<title>Node1927&#45;&gt;Node1932</title>
<path fill="none" stroke="#191970" d="M215.2022,-506.8393C227.6467,-542.9284 258.842,-621.1546 309,-668.5 314.8259,-673.9992 321.6764,-678.7847 328.8066,-682.9016"/>
<polygon fill="#191970" stroke="#191970" points="218.4283,-505.4499 211.9418,-497.0728 211.7885,-507.6665 218.4283,-505.4499"/>
</g>
<!-- Node1933 -->
<g id="node8" class="node">
<title>Node1933</title>
<g id="a_node8"><a xlink:href="structcimg__library__suffixed_1_1_c_img_1_1__cimg__math__parser.html#a318c44c5d1f4f0114355f37ace87a4ae" target="_top" xlink:title="cimg_library_suffixed\l::CImg::_cimg_math_parser\l::compile">
<polygon fill="#ffffff" stroke="#000000" points="491,-396 491,-437 629,-437 629,-396 491,-396"/>
<text text-anchor="start" x="499" y="-425" font-family="Helvetica,sans-Serif" font-size="10.00" fill="#000000">cimg_library_suffixed</text>
<text text-anchor="start" x="499" y="-414" font-family="Helvetica,sans-Serif" font-size="10.00" fill="#000000">::CImg::_cimg_math_parser</text>
<text text-anchor="middle" x="560" y="-403" font-family="Helvetica,sans-Serif" font-size="10.00" fill="#000000">::compile</text>
</a>
</g>
</g>
<!-- Node1927&#45;&gt;Node1933 -->
<g id="edge7" class="edge">
<title>Node1927&#45;&gt;Node1933</title>
<path fill="none" stroke="#191970" d="M215.2336,-506.6955C227.246,-540.0875 257.1058,-607.934 309,-635.5 366.3057,-665.9405 400.0868,-670.0703 455,-635.5 526.1871,-590.6845 550.1893,-482.7187 557.3165,-437.2448"/>
<polygon fill="#191970" stroke="#191970" points="218.5163,-505.4782 211.9553,-497.1593 211.8965,-507.754 218.5163,-505.4782"/>
</g>
<!-- Node1934 -->
<g id="node9" class="node">
<title>Node1934</title>
<g id="a_node9"><a xlink:href="structcimg__library__suffixed_1_1_c_img.html#a7cdc2da46ee1679928f178b0b886fba3" target="_top" xlink:title="Generate a 3d cone. ">
<polygon fill="#ffffff" stroke="#000000" points="318.5,-595.5 318.5,-625.5 445.5,-625.5 445.5,-595.5 318.5,-595.5"/>
<text text-anchor="start" x="326.5" y="-613.5" font-family="Helvetica,sans-Serif" font-size="10.00" fill="#000000">cimg_library_suffixed</text>
<text text-anchor="middle" x="382" y="-602.5" font-family="Helvetica,sans-Serif" font-size="10.00" fill="#000000">::CImg&lt; charT &gt;::cone3d</text>
</a>
</g>
</g>
<!-- Node1927&#45;&gt;Node1934 -->
<g id="edge8" class="edge">
<title>Node1927&#45;&gt;Node1934</title>
<path fill="none" stroke="#191970" d="M222.5748,-505.2975C240.2342,-527.3052 273.1002,-564.5388 309,-586.5 314.5764,-589.9113 320.6926,-592.896 326.9375,-595.4924"/>
<polygon fill="#191970" stroke="#191970" points="225.1029,-502.8499 216.1734,-497.1478 219.598,-507.1739 225.1029,-502.8499"/>
</g>
<!-- Node1935 -->
<g id="node10" class="node">
<title>Node1935</title>
<g id="a_node10"><a xlink:href="structcimg__library__suffixed_1_1_c_img.html#a009c1cb31d4c261774a310e10d0ee9d7" target="_top" xlink:title="Generate a 3d cylinder. ">
<polygon fill="#ffffff" stroke="#000000" points="312,-546.5 312,-576.5 452,-576.5 452,-546.5 312,-546.5"/>
<text text-anchor="start" x="320" y="-564.5" font-family="Helvetica,sans-Serif" font-size="10.00" fill="#000000">cimg_library_suffixed</text>
<text text-anchor="middle" x="382" y="-553.5" font-family="Helvetica,sans-Serif" font-size="10.00" fill="#000000">::CImg&lt; charT &gt;::cylinder3d</text>
</a>
</g>
</g>
<!-- Node1927&#45;&gt;Node1935 -->
<g id="edge9" class="edge">
<title>Node1927&#45;&gt;Node1935</title>
<path fill="none" stroke="#191970" d="M235.3927,-502.0243C255.2748,-512.637 283.396,-526.9561 309,-537.5 316.6483,-540.6496 324.8737,-543.6813 332.9482,-546.4675"/>
<polygon fill="#191970" stroke="#191970" points="236.8046,-498.8093 226.3413,-497.145 233.483,-504.9711 236.8046,-498.8093"/>
</g>
<!-- Node1936 -->
<g id="node11" class="node">
<title>Node1936</title>
<g id="a_node11"><a xlink:href="structcimg__library__suffixed_1_1_c_img.html#aac745c02e72234bd8203a2d21c21d47f" target="_top" xlink:title="Draw a 2d arrow. ">
<polygon fill="#ffffff" stroke="#000000" points="309,-497.5 309,-527.5 455,-527.5 455,-497.5 309,-497.5"/>
<text text-anchor="start" x="317" y="-515.5" font-family="Helvetica,sans-Serif" font-size="10.00" fill="#000000">cimg_library_suffixed</text>
<text text-anchor="middle" x="382" y="-504.5" font-family="Helvetica,sans-Serif" font-size="10.00" fill="#000000">::CImg&lt; charT &gt;::draw_arrow</text>
</a>
</g>
</g>
<!-- Node1927&#45;&gt;Node1936 -->
<g id="edge10" class="edge">
<title>Node1927&#45;&gt;Node1936</title>
<path fill="none" stroke="#191970" d="M283.5347,-498.2709C291.9077,-499.4809 300.4332,-500.7129 308.7892,-501.9204"/>
<polygon fill="#191970" stroke="#191970" points="283.8166,-494.7754 273.4188,-496.8091 282.8154,-501.7034 283.8166,-494.7754"/>
</g>
<!-- Node1937 -->
<g id="node12" class="node">
<title>Node1937</title>
<g id="a_node12"><a xlink:href="structcimg__library__suffixed_1_1_c_img.html#abf1763dd0cf132f59147662022feb791" target="_top" xlink:title="Compute 1d Fast Fourier Transform, along a specified axis. ">
<polygon fill="#ffffff" stroke="#000000" points="325.5,-448.5 325.5,-478.5 438.5,-478.5 438.5,-448.5 325.5,-448.5"/>
<text text-anchor="start" x="333.5" y="-466.5" font-family="Helvetica,sans-Serif" font-size="10.00" fill="#000000">cimg_library_suffixed</text>
<text text-anchor="middle" x="382" y="-455.5" font-family="Helvetica,sans-Serif" font-size="10.00" fill="#000000">::CImg&lt; charT &gt;::FFT</text>
</a>
</g>
</g>
<!-- Node1927&#45;&gt;Node1937 -->
<g id="edge11" class="edge">
<title>Node1927&#45;&gt;Node1937</title>
<path fill="none" stroke="#191970" d="M283.5577,-477.1567C297.6159,-475.2065 312.1031,-473.1967 325.4955,-471.3388"/>
<polygon fill="#191970" stroke="#191970" points="282.843,-473.7223 273.4188,-478.5633 283.8049,-480.6559 282.843,-473.7223"/>
</g>
<!-- Node1938 -->
<g id="node13" class="node">
<title>Node1938</title>
<g id="a_node13"><a xlink:href="structcimg__library__suffixed_1_1_c_img.html#a0c0d7575a84ce1ab046dc53699d555fd" target="_top" xlink:title="Rotate image with arbitrary angle . ">
<polygon fill="#ffffff" stroke="#000000" points="327.5,-388 327.5,-429 436.5,-429 436.5,-388 327.5,-388"/>
<text text-anchor="start" x="335.5" y="-417" font-family="Helvetica,sans-Serif" font-size="10.00" fill="#000000">cimg_library_suffixed</text>
<text text-anchor="start" x="335.5" y="-406" font-family="Helvetica,sans-Serif" font-size="10.00" fill="#000000">::CImg&lt; charT &gt;::get</text>
<text text-anchor="middle" x="382" y="-395" font-family="Helvetica,sans-Serif" font-size="10.00" fill="#000000">_rotate</text>
</a>
</g>
</g>
<!-- Node1927&#45;&gt;Node1938 -->
<g id="edge12" class="edge">
<title>Node1927&#45;&gt;Node1938</title>
<path fill="none" stroke="#191970" d="M237.5621,-473.3602C257.4754,-463.6079 284.7208,-450.4752 309,-439.5 316.6535,-436.0403 324.8044,-432.4693 332.7811,-429.0364"/>
<polygon fill="#191970" stroke="#191970" points="235.8523,-470.3005 228.4206,-477.8518 238.9392,-476.5831 235.8523,-470.3005"/>
</g>
<!-- Node1939 -->
<g id="node14" class="node">
<title>Node1939</title>
<g id="a_node14"><a xlink:href="structcimg__library__suffixed_1_1_c_img_1_1__cimg__math__parser.html#a2d823d18414809075048f82cfc2f4779" target="_top" xlink:title="cimg_library_suffixed\l::CImg::_cimg_math_parser\l::mp_complex_exp">
<polygon fill="#ffffff" stroke="#000000" points="313,-328 313,-369 451,-369 451,-328 313,-328"/>
<text text-anchor="start" x="321" y="-357" font-family="Helvetica,sans-Serif" font-size="10.00" fill="#000000">cimg_library_suffixed</text>
<text text-anchor="start" x="321" y="-346" font-family="Helvetica,sans-Serif" font-size="10.00" fill="#000000">::CImg::_cimg_math_parser</text>
<text text-anchor="middle" x="382" y="-335" font-family="Helvetica,sans-Serif" font-size="10.00" fill="#000000">::mp_complex_exp</text>
</a>
</g>
</g>
<!-- Node1927&#45;&gt;Node1939 -->
<g id="edge14" class="edge">
<title>Node1927&#45;&gt;Node1939</title>
<path fill="none" stroke="#191970" d="M221.6892,-469.3093C239.0231,-445.6124 272.1852,-404.1854 309,-378.5 313.9444,-375.0503 319.3457,-371.9002 324.9007,-369.0486"/>
<polygon fill="#191970" stroke="#191970" points="218.6338,-467.5641 215.6515,-477.7305 224.3228,-471.6428 218.6338,-467.5641"/>
</g>
<!-- Node1940 -->
<g id="node15" class="node">
<title>Node1940</title>
<g id="a_node15"><a xlink:href="structcimg__library__suffixed_1_1_c_img_1_1__cimg__math__parser.html#a7251d8ae472be70c029e3975125233a3" target="_top" xlink:title="cimg_library_suffixed\l::CImg::_cimg_math_parser\l::mp_rot2d">
<polygon fill="#ffffff" stroke="#000000" points="313,-268 313,-309 451,-309 451,-268 313,-268"/>
<text text-anchor="start" x="321" y="-297" font-family="Helvetica,sans-Serif" font-size="10.00" fill="#000000">cimg_library_suffixed</text>
<text text-anchor="start" x="321" y="-286" font-family="Helvetica,sans-Serif" font-size="10.00" fill="#000000">::CImg::_cimg_math_parser</text>
<text text-anchor="middle" x="382" y="-275" font-family="Helvetica,sans-Serif" font-size="10.00" fill="#000000">::mp_rot2d</text>
</a>
</g>
</g>
<!-- Node1927&#45;&gt;Node1940 -->
<g id="edge15" class="edge">
<title>Node1927&#45;&gt;Node1940</title>
<path fill="none" stroke="#191970" d="M215.6813,-468.214C228.5537,-433.6831 259.9323,-360.9492 309,-318.5 313.0414,-315.0038 317.5456,-311.8765 322.2779,-309.087"/>
<polygon fill="#191970" stroke="#191970" points="212.3863,-467.0339 212.2814,-477.6283 218.9701,-469.4117 212.3863,-467.0339"/>
</g>
<!-- Node1941 -->
<g id="node16" class="node">
<title>Node1941</title>
<g id="a_node16"><a xlink:href="structcimg__library__suffixed_1_1_c_img_1_1__cimg__math__parser.html#a31f4513a033d008368fbaa7e6d7033b1" target="_top" xlink:title="cimg_library_suffixed\l::CImg::_cimg_math_parser\l::mp_sin">
<polygon fill="#ffffff" stroke="#000000" points="313,-208 313,-249 451,-249 451,-208 313,-208"/>
<text text-anchor="start" x="321" y="-237" font-family="Helvetica,sans-Serif" font-size="10.00" fill="#000000">cimg_library_suffixed</text>
<text text-anchor="start" x="321" y="-226" font-family="Helvetica,sans-Serif" font-size="10.00" fill="#000000">::CImg::_cimg_math_parser</text>
<text text-anchor="middle" x="382" y="-215" font-family="Helvetica,sans-Serif" font-size="10.00" fill="#000000">::mp_sin</text>
</a>
</g>
</g>
<!-- Node1927&#45;&gt;Node1941 -->
<g id="edge16" class="edge">
<title>Node1927&#45;&gt;Node1941</title>
<path fill="none" stroke="#191970" d="M212.4072,-467.8853C220.9311,-424.4197 247.0998,-319.0649 309,-258.5 312.6237,-254.9544 316.7249,-251.8071 321.0898,-249.0169"/>
<polygon fill="#191970" stroke="#191970" points="208.9585,-467.2875 210.5704,-477.759 215.8404,-468.5678 208.9585,-467.2875"/>
</g>
<!-- Node1942 -->
<g id="node17" class="node">
<title>Node1942</title>
<g id="a_node17"><a xlink:href="structcimg__library__suffixed_1_1_c_img.html#a18ba2075fe783f6b185de03695bd625f" target="_top" xlink:title="Return a 3x3 rotation matrix from an { axis + angle } or a quaternion. ">
<polygon fill="#ffffff" stroke="#000000" points="318,-148 318,-189 446,-189 446,-148 318,-148"/>
<text text-anchor="start" x="326" y="-177" font-family="Helvetica,sans-Serif" font-size="10.00" fill="#000000">cimg_library_suffixed</text>
<text text-anchor="start" x="326" y="-166" font-family="Helvetica,sans-Serif" font-size="10.00" fill="#000000">::CImg&lt; charT &gt;::rotation</text>
<text text-anchor="middle" x="382" y="-155" font-family="Helvetica,sans-Serif" font-size="10.00" fill="#000000">_matrix</text>
</a>
</g>
</g>
<!-- Node1927&#45;&gt;Node1942 -->
<g id="edge17" class="edge">
<title>Node1927&#45;&gt;Node1942</title>
<path fill="none" stroke="#191970" d="M210.3633,-467.7759C214.9218,-416.589 233.9175,-277.9724 309,-198.5 312.2934,-195.014 316.0509,-191.9204 320.0838,-189.1772"/>
<polygon fill="#191970" stroke="#191970" points="206.868,-467.5786 209.5587,-477.826 213.8457,-468.1372 206.868,-467.5786"/>
</g>
<!-- Node1943 -->
<g id="node18" class="node">
<title>Node1943</title>
<g id="a_node18"><a xlink:href="structcimg__library__suffixed_1_1_c_img.html#aa7c480b97c30c6e48a0af6ca21bc9ab1" target="_top" xlink:title="Compute the sine of each pixel value. ">
<polygon fill="#ffffff" stroke="#000000" points="327.5,-98.5 327.5,-128.5 436.5,-128.5 436.5,-98.5 327.5,-98.5"/>
<text text-anchor="start" x="335.5" y="-116.5" font-family="Helvetica,sans-Serif" font-size="10.00" fill="#000000">cimg_library_suffixed</text>
<text text-anchor="middle" x="382" y="-105.5" font-family="Helvetica,sans-Serif" font-size="10.00" fill="#000000">::CImg&lt; charT &gt;::sin</text>
</a>
</g>
</g>
<!-- Node1927&#45;&gt;Node1943 -->
<g id="edge18" class="edge">
<title>Node1927&#45;&gt;Node1943</title>
<path fill="none" stroke="#191970" d="M212.1989,-467.7843C223.3236,-401.4471 262.2087,-187.7353 309,-138.5 314.1679,-133.0621 320.5681,-128.807 327.414,-125.4775"/>
<polygon fill="#191970" stroke="#191970" points="208.7282,-467.3205 210.5508,-477.7574 215.6345,-468.4619 208.7282,-467.3205"/>
</g>
<!-- Node1944 -->
<g id="node19" class="node">
<title>Node1944</title>
<g id="a_node19"><a xlink:href="namespacecimg__library__suffixed_1_1cimg.html#ae3375412d53d28356063384da9fd9ad2" target="_top" xlink:title="Return the sinc of a given value. ">
<polygon fill="#ffffff" stroke="#000000" points="327.5,-49.5 327.5,-79.5 436.5,-79.5 436.5,-49.5 327.5,-49.5"/>
<text text-anchor="start" x="335.5" y="-67.5" font-family="Helvetica,sans-Serif" font-size="10.00" fill="#000000">cimg_library_suffixed</text>
<text text-anchor="middle" x="382" y="-56.5" font-family="Helvetica,sans-Serif" font-size="10.00" fill="#000000">::cimg::sinc</text>
</a>
</g>
</g>
<!-- Node1927&#45;&gt;Node1944 -->
<g id="edge19" class="edge">
<title>Node1927&#45;&gt;Node1944</title>
<path fill="none" stroke="#191970" d="M211.4402,-467.8921C220.7748,-395.814 256.359,-146.7473 309,-89.5 314.0778,-83.9779 320.4272,-79.6754 327.249,-76.3232"/>
<polygon fill="#191970" stroke="#191970" points="207.9591,-467.5223 210.1688,-477.8841 214.9031,-468.4059 207.9591,-467.5223"/>
</g>
<!-- Node1948 -->
<g id="node23" class="node">
<title>Node1948</title>
<g id="a_node23"><a xlink:href="structcimg__library__suffixed_1_1_c_img.html#a8e6e4d77fb5eba21751926bb972d89d5" target="_top" xlink:title="Generate a 3d torus. ">
<polygon fill="#ffffff" stroke="#000000" points="318,-.5 318,-30.5 446,-30.5 446,-.5 318,-.5"/>
<text text-anchor="start" x="326" y="-18.5" font-family="Helvetica,sans-Serif" font-size="10.00" fill="#000000">cimg_library_suffixed</text>
<text text-anchor="middle" x="382" y="-7.5" font-family="Helvetica,sans-Serif" font-size="10.00" fill="#000000">::CImg&lt; charT &gt;::torus3d</text>
</a>
</g>
</g>
<!-- Node1927&#45;&gt;Node1948 -->
<g id="edge24" class="edge">
<title>Node1927&#45;&gt;Node1948</title>
<path fill="none" stroke="#191970" d="M210.893,-467.5421C218.6755,-389.4518 250.5831,-105.7146 309,-40.5 312.4859,-36.6085 316.6039,-33.3224 321.0806,-30.5477"/>
<polygon fill="#191970" stroke="#191970" points="207.3716,-467.5928 209.8849,-477.8852 214.3385,-468.2719 207.3716,-467.5928"/>
</g>
<!-- Node1944&#45;&gt;Node1933 -->
<g id="edge20" class="edge">
<title>Node1944&#45;&gt;Node1933</title>
<path fill="none" stroke="#191970" d="M445.621,-81.8251C449.0121,-84.0779 452.1784,-86.6235 455,-89.5 499.4681,-134.8323 542.6275,-331.1031 555.8717,-395.7588"/>
<polygon fill="#191970" stroke="#191970" points="447.22,-78.708 436.7972,-76.8065 443.7593,-84.7927 447.22,-78.708"/>
</g>
<!-- Node1945 -->
<g id="node20" class="node">
<title>Node1945</title>
<g id="a_node20"><a xlink:href="structcimg__library__suffixed_1_1_c_img_1_1__cimg__math__parser.html#adfae1af309967062e47eb66abd2d2f41" target="_top" xlink:title="cimg_library_suffixed\l::CImg::_cimg_math_parser\l::mp_sinc">
<polygon fill="#ffffff" stroke="#000000" points="491,-99 491,-140 629,-140 629,-99 491,-99"/>
<text text-anchor="start" x="499" y="-128" font-family="Helvetica,sans-Serif" font-size="10.00" fill="#000000">cimg_library_suffixed</text>
<text text-anchor="start" x="499" y="-117" font-family="Helvetica,sans-Serif" font-size="10.00" fill="#000000">::CImg::_cimg_math_parser</text>
<text text-anchor="middle" x="560" y="-106" font-family="Helvetica,sans-Serif" font-size="10.00" fill="#000000">::mp_sinc</text>
</a>
</g>
</g>
<!-- Node1944&#45;&gt;Node1945 -->
<g id="edge21" class="edge">
<title>Node1944&#45;&gt;Node1945</title>
<path fill="none" stroke="#191970" d="M440.4028,-82.5458C457.3534,-87.7834 475.99,-93.5419 493.4029,-98.9223"/>
<polygon fill="#191970" stroke="#191970" points="441.2269,-79.1372 430.6393,-79.529 439.1603,-85.8252 441.2269,-79.1372"/>
</g>
<!-- Node1946 -->
<g id="node21" class="node">
<title>Node1946</title>
<g id="a_node21"><a xlink:href="structcimg__library__suffixed_1_1_c_img.html#a8e636ccdee823c4c9c28861baea5e28b" target="_top" xlink:title="Compute the sinc of each pixel value. ">
<polygon fill="#ffffff" stroke="#000000" points="503.5,-49.5 503.5,-79.5 616.5,-79.5 616.5,-49.5 503.5,-49.5"/>
<text text-anchor="start" x="511.5" y="-67.5" font-family="Helvetica,sans-Serif" font-size="10.00" fill="#000000">cimg_library_suffixed</text>
<text text-anchor="middle" x="560" y="-56.5" font-family="Helvetica,sans-Serif" font-size="10.00" fill="#000000">::CImg&lt; charT &gt;::sinc</text>
</a>
</g>
</g>
<!-- Node1944&#45;&gt;Node1946 -->
<g id="edge22" class="edge">
<title>Node1944&#45;&gt;Node1946</title>
<path fill="none" stroke="#191970" d="M446.9694,-64.5C465.4879,-64.5 485.5068,-64.5 503.4781,-64.5"/>
<polygon fill="#191970" stroke="#191970" points="446.8583,-61.0001 436.8583,-64.5 446.8583,-68.0001 446.8583,-61.0001"/>
</g>
<!-- Node1947 -->
<g id="node22" class="node">
<title>Node1947</title>
<g id="a_node22"><a xlink:href="structcimg__library__suffixed_1_1_c_img.html#a7e4b91912494fd5db7c82360809513a4" target="_top" xlink:title="Compute the sinc of each pixel value . ">
<polygon fill="#ffffff" stroke="#000000" points="494,-.5 494,-30.5 626,-30.5 626,-.5 494,-.5"/>
<text text-anchor="start" x="502" y="-18.5" font-family="Helvetica,sans-Serif" font-size="10.00" fill="#000000">cimg_library_suffixed</text>
<text text-anchor="middle" x="560" y="-7.5" font-family="Helvetica,sans-Serif" font-size="10.00" fill="#000000">::CImg&lt; charT &gt;::get_sinc</text>
</a>
</g>
</g>
<!-- Node1944&#45;&gt;Node1947 -->
<g id="edge23" class="edge">
<title>Node1944&#45;&gt;Node1947</title>
<path fill="none" stroke="#191970" d="M446.7384,-46.6788C465.9571,-41.3882 486.8099,-35.6478 505.3228,-30.5516"/>
<polygon fill="#191970" stroke="#191970" points="445.5707,-43.3699 436.8583,-49.3986 447.4286,-50.1189 445.5707,-43.3699"/>
</g>
</g>
</svg>
        <g id="navigator" transform="translate(0 0)" fill="#404254">
                <rect fill="#f2f5e9" fill-opacity="0.5" stroke="#606060" stroke-width=".5" x="0" y="0" width="60" height="60"/>
                <use id="zoomplus" xlink:href="#zoomPlus" x="17" y="9" onmousedown="handleZoom(evt,'in')"/>
                <use id="zoomminus" xlink:href="#zoomMin" x="42" y="9" onmousedown="handleZoom(evt,'out')"/>
                <use id="reset" xlink:href="#resetDef" x="30" y="36" onmousedown="handleReset()"/>
                <g id="arrowUp" xlink:href="#dirArrow" transform="translate(30 24)" onmousedown="handlePan(0,-1)">
                  <use xlink:href="#rim" fill="#404040">
                        <set attributeName="fill" to="#808080" begin="arrowUp.mouseover" end="arrowUp.mouseout"/>
                  </use>
                  <path fill="none" stroke="white" stroke-width="1.5" d="M0,-3.0v7 M-2.5,-0.5L0,-3.0L2.5,-0.5"/>
                </g>
                <g id="arrowRight" xlink:href="#dirArrow" transform="rotate(90) translate(36 -43)" onmousedown="handlePan(1,0)">
                  <use xlink:href="#rim" fill="#404040">
                        <set attributeName="fill" to="#808080" begin="arrowRight.mouseover" end="arrowRight.mouseout"/>
                  </use>
                  <path fill="none" stroke="white" stroke-width="1.5" d="M0,-3.0v7 M-2.5,-0.5L0,-3.0L2.5,-0.5"/>
                </g>
                <g id="arrowDown" xlink:href="#dirArrow" transform="rotate(180) translate(-30 -48)" onmousedown="handlePan(0,1)">
                  <use xlink:href="#rim" fill="#404040">
                        <set attributeName="fill" to="#808080" begin="arrowDown.mouseover" end="arrowDown.mouseout"/>
                  </use>
                  <path fill="none" stroke="white" stroke-width="1.5" d="M0,-3.0v7 M-2.5,-0.5L0,-3.0L2.5,-0.5"/>
                </g>
                <g id="arrowLeft" xlink:href="#dirArrow" transform="rotate(270) translate(-36 17)" onmousedown="handlePan(-1,0)">
                  <use xlink:href="#rim" fill="#404040">
                        <set attributeName="fill" to="#808080" begin="arrowLeft.mouseover" end="arrowLeft.mouseout"/>
                  </use>
                  <path fill="none" stroke="white" stroke-width="1.5" d="M0,-3.0v7 M-2.5,-0.5L0,-3.0L2.5,-0.5"/>
                </g>
        </g>
        <svg viewBox="0 0 15 15" width="100%" height="30px" preserveAspectRatio="xMaxYMin meet">
         <g id="arrow_out" transform="scale(0.3 0.3)">
          <a xlink:href="structcimg__library__suffixed_1_1_c_img_ada2a306f3b37f5630573447fc9578124_icgraph_org.svg" target="_base">
           <rect id="button" ry="5" rx="5" y="6" x="6" height="38" width="38"
                fill="#f2f5e9" fill-opacity="0.5" stroke="#606060" stroke-width="1.0"/>
           <path id="arrow"
             d="M 11.500037,31.436501 C 11.940474,20.09759 22.043105,11.32322 32.158766,21.979434 L 37.068811,17.246167 C 37.068811,17.246167 37.088388,32 37.088388,32 L 22.160133,31.978069 C 22.160133,31.978069 26.997745,27.140456 26.997745,27.140456 C 18.528582,18.264221 13.291696,25.230495 11.500037,31.436501 z"
             style="fill:#404040;"/>
          </a>
         </g>
        </svg>
</svg>
