<?xml version="1.0" encoding="UTF-8" standalone="no"?>
<!DOCTYPE svg PUBLIC "-//W3C//DTD SVG 1.1//EN"
 "http://www.w3.org/Graphics/SVG/1.1/DTD/svg11.dtd">
<!-- Generated by graphviz version 2.40.1 (20161225.0304)
 -->
<!-- Title: cimg_library_suffixed::CImg::_cimg_math_parser::mp_cosh Pages: 1 -->
<svg width="436pt" height="50pt"
 viewBox="0.00 0.00 436.00 50.00" xmlns="http://www.w3.org/2000/svg" xmlns:xlink="http://www.w3.org/1999/xlink">
<g id="graph0" class="graph" transform="scale(1 1) rotate(0) translate(4 46)">
<title>cimg_library_suffixed::CImg::_cimg_math_parser::mp_cosh</title>
<polygon fill="#ffffff" stroke="transparent" points="-4,4 -4,-46 432,-46 432,4 -4,4"/>
<!-- Node282 -->
<g id="node1" class="node">
<title>Node282</title>
<polygon fill="#bfbfbf" stroke="#000000" points="0,-.5 0,-41.5 138,-41.5 138,-.5 0,-.5"/>
<text text-anchor="start" x="8" y="-29.5" font-family="Helvetica,sans-Serif" font-size="10.00" fill="#000000">cimg_library_suffixed</text>
<text text-anchor="start" x="8" y="-18.5" font-family="Helvetica,sans-Serif" font-size="10.00" fill="#000000">::CImg::_cimg_math_parser</text>
<text text-anchor="middle" x="69" y="-7.5" font-family="Helvetica,sans-Serif" font-size="10.00" fill="#000000">::mp_cosh</text>
</g>
<!-- Node283 -->
<g id="node2" class="node">
<title>Node283</title>
<g id="a_node2"><a xlink:href="namespacecimg__library__suffixed.html#a82540c55c7d8c8ffad6a0aeac1e32ccb" target="_top" xlink:title="cimg_library_suffixed\l::cosh">
<polygon fill="#ffffff" stroke="#000000" points="174,-6 174,-36 283,-36 283,-6 174,-6"/>
<text text-anchor="start" x="182" y="-24" font-family="Helvetica,sans-Serif" font-size="10.00" fill="#000000">cimg_library_suffixed</text>
<text text-anchor="middle" x="228.5" y="-13" font-family="Helvetica,sans-Serif" font-size="10.00" fill="#000000">::cosh</text>
</a>
</g>
</g>
<!-- Node282&#45;&gt;Node283 -->
<g id="edge1" class="edge">
<title>Node282&#45;&gt;Node283</title>
<path fill="none" stroke="#191970" d="M138.0314,-21C146.5309,-21 155.1959,-21 163.6306,-21"/>
<polygon fill="#191970" stroke="#191970" points="163.7783,-24.5001 173.7783,-21 163.7782,-17.5001 163.7783,-24.5001"/>
</g>
<!-- Node284 -->
<g id="node3" class="node">
<title>Node284</title>
<g id="a_node3"><a xlink:href="structcimg__library__suffixed_1_1_c_img.html#a7a24311d2716761583da47f7ebf6f380" target="_top" xlink:title="Compute the hyperbolic cosine of each pixel value . ">
<polygon fill="#ffffff" stroke="#000000" points="319,-6 319,-36 428,-36 428,-6 319,-6"/>
<text text-anchor="start" x="327" y="-24" font-family="Helvetica,sans-Serif" font-size="10.00" fill="#000000">cimg_library_suffixed</text>
<text text-anchor="middle" x="373.5" y="-13" font-family="Helvetica,sans-Serif" font-size="10.00" fill="#000000">::CImg::get_cosh</text>
</a>
</g>
</g>
<!-- Node283&#45;&gt;Node284 -->
<g id="edge2" class="edge">
<title>Node283&#45;&gt;Node284</title>
<path fill="none" stroke="#191970" d="M283.3183,-21C291.5286,-21 300.0611,-21 308.4586,-21"/>
<polygon fill="#191970" stroke="#191970" points="308.6042,-24.5001 318.6042,-21 308.6042,-17.5001 308.6042,-24.5001"/>
</g>
</g>
</svg>
