<?xml version="1.0" encoding="UTF-8" standalone="no"?>
<!DOCTYPE svg PUBLIC "-//W3C//DTD SVG 1.1//EN"
 "http://www.w3.org/Graphics/SVG/1.1/DTD/svg11.dtd">
<!-- Generated by graphviz version 2.40.1 (20161225.0304)
 -->
<!-- Title: cimg_library_suffixed::CImg::magnitude Pages: 1 -->
<svg width="291pt" height="39pt"
 viewBox="0.00 0.00 291.00 39.00" xmlns="http://www.w3.org/2000/svg" xmlns:xlink="http://www.w3.org/1999/xlink">
<g id="graph0" class="graph" transform="scale(1 1) rotate(0) translate(4 35)">
<title>cimg_library_suffixed::CImg::magnitude</title>
<polygon fill="#ffffff" stroke="transparent" points="-4,4 -4,-35 287,-35 287,4 -4,4"/>
<!-- Node2458 -->
<g id="node1" class="node">
<title>Node2458</title>
<polygon fill="#bfbfbf" stroke="#000000" points="0,-.5 0,-30.5 109,-30.5 109,-.5 0,-.5"/>
<text text-anchor="start" x="8" y="-18.5" font-family="Helvetica,sans-Serif" font-size="10.00" fill="#000000">cimg_library_suffixed</text>
<text text-anchor="middle" x="54.5" y="-7.5" font-family="Helvetica,sans-Serif" font-size="10.00" fill="#000000">::CImg::magnitude</text>
</g>
<!-- Node2459 -->
<g id="node2" class="node">
<title>Node2459</title>
<g id="a_node2"><a xlink:href="structcimg__library__suffixed_1_1_c_img.html#aed98b23130078df5ad69b199d88bb261" target="_top" xlink:title="Correlate image by a kernel . ">
<polygon fill="#ffffff" stroke="#000000" points="145,-.5 145,-30.5 283,-30.5 283,-.5 145,-.5"/>
<text text-anchor="start" x="153" y="-18.5" font-family="Helvetica,sans-Serif" font-size="10.00" fill="#000000">cimg_library_suffixed</text>
<text text-anchor="middle" x="214" y="-7.5" font-family="Helvetica,sans-Serif" font-size="10.00" fill="#000000">::CImg&lt; charT &gt;::_correlate</text>
</a>
</g>
</g>
<!-- Node2458&#45;&gt;Node2459 -->
<g id="edge1" class="edge">
<title>Node2458&#45;&gt;Node2459</title>
<path fill="none" stroke="#191970" d="M119.4793,-15.5C127.8632,-15.5 136.4728,-15.5 144.9198,-15.5"/>
<polygon fill="#191970" stroke="#191970" points="119.3909,-12.0001 109.3909,-15.5 119.3908,-19.0001 119.3909,-12.0001"/>
</g>
</g>
</svg>
