<?xml version="1.0" encoding="UTF-8" standalone="no"?>
<!DOCTYPE svg PUBLIC "-//W3C//DTD SVG 1.1//EN"
 "http://www.w3.org/Graphics/SVG/1.1/DTD/svg11.dtd">
<!-- Generated by graphviz version 2.40.1 (20161225.0304)
 -->
<!-- Title: cimg_library_suffixed::CImgDisplay::wait Pages: 1 -->
<svg width="1910pt" height="276pt"
 viewBox="0.00 0.00 1910.00 275.54" xmlns="http://www.w3.org/2000/svg" xmlns:xlink="http://www.w3.org/1999/xlink">
<g id="graph0" class="graph" transform="scale(1 1) rotate(0) translate(4 271.5358)">
<title>cimg_library_suffixed::CImgDisplay::wait</title>
<polygon fill="#ffffff" stroke="transparent" points="-4,4 -4,-271.5358 1906,-271.5358 1906,4 -4,4"/>
<!-- Node607 -->
<g id="node1" class="node">
<title>Node607</title>
<polygon fill="#bfbfbf" stroke="#000000" points="0,-101.5 0,-131.5 109,-131.5 109,-101.5 0,-101.5"/>
<text text-anchor="start" x="8" y="-119.5" font-family="Helvetica,sans-Serif" font-size="10.00" fill="#000000">cimg_library_suffixed</text>
<text text-anchor="middle" x="54.5" y="-108.5" font-family="Helvetica,sans-Serif" font-size="10.00" fill="#000000">::CImgDisplay::wait</text>
</g>
<!-- Node608 -->
<g id="node2" class="node">
<title>Node608</title>
<g id="a_node2"><a xlink:href="namespacecimg__library__suffixed_1_1cimg.html#a204c82b3ebad23bf1c996e216bbed9ad" target="_top" xlink:title="cimg_library_suffixed\l::cimg::_wait">
<polygon fill="#ffffff" stroke="#000000" points="145,-101.5 145,-131.5 254,-131.5 254,-101.5 145,-101.5"/>
<text text-anchor="start" x="153" y="-119.5" font-family="Helvetica,sans-Serif" font-size="10.00" fill="#000000">cimg_library_suffixed</text>
<text text-anchor="middle" x="199.5" y="-108.5" font-family="Helvetica,sans-Serif" font-size="10.00" fill="#000000">::cimg::_wait</text>
</a>
</g>
</g>
<!-- Node607&#45;&gt;Node608 -->
<g id="edge1" class="edge">
<title>Node607&#45;&gt;Node608</title>
<path fill="none" stroke="#191970" d="M109.3183,-116.5C117.5286,-116.5 126.0611,-116.5 134.4586,-116.5"/>
<polygon fill="#191970" stroke="#191970" points="134.6042,-120.0001 144.6042,-116.5 134.6042,-113.0001 134.6042,-120.0001"/>
</g>
<!-- Node609 -->
<g id="node3" class="node">
<title>Node609</title>
<g id="a_node3"><a xlink:href="namespacecimg__library__suffixed_1_1cimg.html#a71a3c7b37befc7a4313dfcdd80271bce" target="_top" xlink:title="Return the value of a system timer, with a millisecond precision. ">
<polygon fill="#ffffff" stroke="#000000" points="290,-79.5 290,-109.5 399,-109.5 399,-79.5 290,-79.5"/>
<text text-anchor="start" x="298" y="-97.5" font-family="Helvetica,sans-Serif" font-size="10.00" fill="#000000">cimg_library_suffixed</text>
<text text-anchor="middle" x="344.5" y="-86.5" font-family="Helvetica,sans-Serif" font-size="10.00" fill="#000000">::cimg::time</text>
</a>
</g>
</g>
<!-- Node608&#45;&gt;Node609 -->
<g id="edge2" class="edge">
<title>Node608&#45;&gt;Node609</title>
<path fill="none" stroke="#191970" d="M254.3183,-108.1827C262.5286,-106.937 271.0611,-105.6425 279.4586,-104.3683"/>
<polygon fill="#191970" stroke="#191970" points="280.2424,-107.7896 289.6042,-102.829 279.1923,-100.8688 280.2424,-107.7896"/>
</g>
<!-- Node623 -->
<g id="node17" class="node">
<title>Node623</title>
<g id="a_node17"><a xlink:href="namespacecimg__library__suffixed_1_1cimg.html#aa2bf8fb0d97c122cbc52e1f2e167e8a6" target="_top" xlink:title="Sleep for a given numbers of milliseconds. ">
<polygon fill="#ffffff" stroke="#000000" points="435,-207.5 435,-237.5 544,-237.5 544,-207.5 435,-207.5"/>
<text text-anchor="start" x="443" y="-225.5" font-family="Helvetica,sans-Serif" font-size="10.00" fill="#000000">cimg_library_suffixed</text>
<text text-anchor="middle" x="489.5" y="-214.5" font-family="Helvetica,sans-Serif" font-size="10.00" fill="#000000">::cimg::sleep</text>
</a>
</g>
</g>
<!-- Node608&#45;&gt;Node623 -->
<g id="edge26" class="edge">
<title>Node608&#45;&gt;Node623</title>
<path fill="none" stroke="#191970" d="M240.742,-131.5746C292.9235,-150.6479 382.753,-183.4821 438.9911,-204.0381"/>
<polygon fill="#191970" stroke="#191970" points="437.8065,-207.3316 448.4003,-207.4774 440.2096,-200.757 437.8065,-207.3316"/>
</g>
<!-- Node610 -->
<g id="node4" class="node">
<title>Node610</title>
<g id="a_node4"><a xlink:href="namespacecimg__library__suffixed_1_1cimg.html#ab47e3a7718b582df77725470f3824eb4" target="_top" xlink:title="cimg_library_suffixed\l::cimg::tictoc">
<polygon fill="#ffffff" stroke="#000000" points="435,-79.5 435,-109.5 544,-109.5 544,-79.5 435,-79.5"/>
<text text-anchor="start" x="443" y="-97.5" font-family="Helvetica,sans-Serif" font-size="10.00" fill="#000000">cimg_library_suffixed</text>
<text text-anchor="middle" x="489.5" y="-86.5" font-family="Helvetica,sans-Serif" font-size="10.00" fill="#000000">::cimg::tictoc</text>
</a>
</g>
</g>
<!-- Node609&#45;&gt;Node610 -->
<g id="edge3" class="edge">
<title>Node609&#45;&gt;Node610</title>
<path fill="none" stroke="#191970" d="M399.3183,-87.9317C407.5286,-87.7598 416.0611,-87.7099 424.4586,-87.7819"/>
<polygon fill="#191970" stroke="#191970" points="424.5541,-91.2835 434.6042,-87.9301 424.6564,-84.2843 424.5541,-91.2835"/>
</g>
<!-- Node610&#45;&gt;Node609 -->
<g id="edge10" class="edge">
<title>Node610&#45;&gt;Node609</title>
<path fill="none" stroke="#191970" d="M434.6042,-101.0699C426.3919,-101.241 417.8588,-101.2902 409.4621,-101.2175"/>
<polygon fill="#191970" stroke="#191970" points="409.3687,-97.7158 399.3183,-101.0683 409.2657,-104.7151 409.3687,-97.7158"/>
</g>
<!-- Node611 -->
<g id="node5" class="node">
<title>Node611</title>
<g id="a_node5"><a xlink:href="namespacecimg__library__suffixed_1_1cimg.html#a9e739e4b4ac058abfba069466617b914" target="_top" xlink:title="cimg_library_suffixed\l::cimg::mutex">
<polygon fill="#ffffff" stroke="#000000" points="1479,-73.5 1479,-103.5 1588,-103.5 1588,-73.5 1479,-73.5"/>
<text text-anchor="start" x="1487" y="-91.5" font-family="Helvetica,sans-Serif" font-size="10.00" fill="#000000">cimg_library_suffixed</text>
<text text-anchor="middle" x="1533.5" y="-80.5" font-family="Helvetica,sans-Serif" font-size="10.00" fill="#000000">::cimg::mutex</text>
</a>
</g>
</g>
<!-- Node610&#45;&gt;Node611 -->
<g id="edge4" class="edge">
<title>Node610&#45;&gt;Node611</title>
<path fill="none" stroke="#191970" d="M520.8618,-79.4599C573.1905,-55.7872 682.1825,-12.5 779.5,-12.5 779.5,-12.5 779.5,-12.5 1243.5,-12.5 1333.352,-12.5 1433.8985,-47.0613 1489.8551,-69.5708"/>
<polygon fill="#191970" stroke="#191970" points="1488.859,-72.9445 1499.4401,-73.4848 1491.5054,-66.464 1488.859,-72.9445"/>
</g>
<!-- Node616 -->
<g id="node10" class="node">
<title>Node616</title>
<g id="a_node10"><a xlink:href="namespacecimg__library__suffixed_1_1cimg.html#ada686776cc71803df391eea79cd1b3e5" target="_top" xlink:title="Get/set default output stream for the &#160;library messages. ">
<polygon fill="#ffffff" stroke="#000000" points="580,-79.5 580,-109.5 689,-109.5 689,-79.5 580,-79.5"/>
<text text-anchor="start" x="588" y="-97.5" font-family="Helvetica,sans-Serif" font-size="10.00" fill="#000000">cimg_library_suffixed</text>
<text text-anchor="middle" x="634.5" y="-86.5" font-family="Helvetica,sans-Serif" font-size="10.00" fill="#000000">::cimg::output</text>
</a>
</g>
</g>
<!-- Node610&#45;&gt;Node616 -->
<g id="edge11" class="edge">
<title>Node610&#45;&gt;Node616</title>
<path fill="none" stroke="#191970" d="M544.3183,-94.5C552.5286,-94.5 561.0611,-94.5 569.4586,-94.5"/>
<polygon fill="#191970" stroke="#191970" points="569.6042,-98.0001 579.6042,-94.5 569.6042,-91.0001 569.6042,-98.0001"/>
</g>
<!-- Node612 -->
<g id="node6" class="node">
<title>Node612</title>
<g id="a_node6"><a xlink:href="namespacecimg__library__suffixed_1_1cimg.html#aa0e1bc96ae6e235dc5b67b8b0a466166" target="_top" xlink:title="cimg_library_suffixed\l::cimg::Mutex_attr">
<polygon fill="#ffffff" stroke="#000000" points="1793,-120.5 1793,-150.5 1902,-150.5 1902,-120.5 1793,-120.5"/>
<text text-anchor="start" x="1801" y="-138.5" font-family="Helvetica,sans-Serif" font-size="10.00" fill="#000000">cimg_library_suffixed</text>
<text text-anchor="middle" x="1847.5" y="-127.5" font-family="Helvetica,sans-Serif" font-size="10.00" fill="#000000">::cimg::Mutex_attr</text>
</a>
</g>
</g>
<!-- Node611&#45;&gt;Node612 -->
<g id="edge5" class="edge">
<title>Node611&#45;&gt;Node612</title>
<path fill="none" stroke="#191970" d="M1554.1891,-103.5983C1571.7696,-115.4355 1598.1935,-130.9621 1624,-137.5 1676.2808,-150.745 1737.6728,-149.0184 1782.872,-144.6729"/>
<polygon fill="#191970" stroke="#191970" points="1783.2493,-148.1527 1792.8385,-143.6474 1782.5327,-141.1895 1783.2493,-148.1527"/>
</g>
<!-- Node613 -->
<g id="node7" class="node">
<title>Node613</title>
<g id="a_node7"><a xlink:href="structcimg__library__suffixed_1_1cimg_1_1_mutex__info.html#afac3fa5f107ad4795fb867050f616555" target="_top" xlink:title="cimg_library_suffixed\l::cimg::Mutex_info::unlock">
<polygon fill="#ffffff" stroke="#000000" points="1624.5,-49.5 1624.5,-79.5 1756.5,-79.5 1756.5,-49.5 1624.5,-49.5"/>
<text text-anchor="start" x="1632.5" y="-67.5" font-family="Helvetica,sans-Serif" font-size="10.00" fill="#000000">cimg_library_suffixed</text>
<text text-anchor="middle" x="1690.5" y="-56.5" font-family="Helvetica,sans-Serif" font-size="10.00" fill="#000000">::cimg::Mutex_info::unlock</text>
</a>
</g>
</g>
<!-- Node611&#45;&gt;Node613 -->
<g id="edge6" class="edge">
<title>Node611&#45;&gt;Node613</title>
<path fill="none" stroke="#191970" d="M1588.411,-80.106C1596.7369,-78.8332 1605.453,-77.5008 1614.1344,-76.1737"/>
<polygon fill="#191970" stroke="#191970" points="1614.9278,-79.5932 1624.2841,-74.6222 1613.87,-72.6736 1614.9278,-79.5932"/>
</g>
<!-- Node614 -->
<g id="node8" class="node">
<title>Node614</title>
<g id="a_node8"><a xlink:href="structcimg__library__suffixed_1_1cimg_1_1_mutex__info.html#a6cc8e26847a1aa649febed03d70182e7" target="_top" xlink:title="cimg_library_suffixed\l::cimg::Mutex_info::lock">
<polygon fill="#ffffff" stroke="#000000" points="1629.5,-.5 1629.5,-30.5 1751.5,-30.5 1751.5,-.5 1629.5,-.5"/>
<text text-anchor="start" x="1637.5" y="-18.5" font-family="Helvetica,sans-Serif" font-size="10.00" fill="#000000">cimg_library_suffixed</text>
<text text-anchor="middle" x="1690.5" y="-7.5" font-family="Helvetica,sans-Serif" font-size="10.00" fill="#000000">::cimg::Mutex_info::lock</text>
</a>
</g>
</g>
<!-- Node611&#45;&gt;Node614 -->
<g id="edge7" class="edge">
<title>Node611&#45;&gt;Node614</title>
<path fill="none" stroke="#191970" d="M1559.1165,-73.2922C1576.9592,-63.0342 1601.4996,-49.5832 1624,-39.5 1628.0148,-37.7009 1632.209,-35.935 1636.4536,-34.2284"/>
<polygon fill="#191970" stroke="#191970" points="1637.7287,-37.488 1645.7765,-30.5972 1635.1881,-30.9653 1637.7287,-37.488"/>
</g>
<!-- Node615 -->
<g id="node9" class="node">
<title>Node615</title>
<g id="a_node9"><a xlink:href="structcimg__library__suffixed_1_1cimg_1_1_mutex__info.html#a9bf4ed1e1dfe6f28fa6250cd04f3c900" target="_top" xlink:title="cimg_library_suffixed\l::cimg::Mutex_info::trylock">
<polygon fill="#ffffff" stroke="#000000" points="1624,-98.5 1624,-128.5 1757,-128.5 1757,-98.5 1624,-98.5"/>
<text text-anchor="start" x="1632" y="-116.5" font-family="Helvetica,sans-Serif" font-size="10.00" fill="#000000">cimg_library_suffixed</text>
<text text-anchor="middle" x="1690.5" y="-105.5" font-family="Helvetica,sans-Serif" font-size="10.00" fill="#000000">::cimg::Mutex_info::trylock</text>
</a>
</g>
</g>
<!-- Node611&#45;&gt;Node615 -->
<g id="edge8" class="edge">
<title>Node611&#45;&gt;Node615</title>
<path fill="none" stroke="#191970" d="M1588.411,-97.2438C1596.6098,-98.5493 1605.187,-99.9151 1613.7367,-101.2766"/>
<polygon fill="#191970" stroke="#191970" points="1613.3105,-104.7527 1623.7365,-102.8689 1614.4113,-97.8398 1613.3105,-104.7527"/>
</g>
<!-- Node615&#45;&gt;Node612 -->
<g id="edge9" class="edge">
<title>Node615&#45;&gt;Node612</title>
<path fill="none" stroke="#191970" d="M1757.0821,-122.83C1765.5193,-124.0123 1774.1445,-125.2209 1782.5556,-126.3995"/>
<polygon fill="#191970" stroke="#191970" points="1782.293,-129.8968 1792.682,-127.8185 1783.2645,-122.9646 1782.293,-129.8968"/>
</g>
<!-- Node616&#45;&gt;Node611 -->
<g id="edge12" class="edge">
<title>Node616&#45;&gt;Node611</title>
<path fill="none" stroke="#191970" d="M689.238,-81.4177C748.3757,-68.4477 845.556,-50.5 930.5,-50.5 930.5,-50.5 930.5,-50.5 1243.5,-50.5 1321.6212,-50.5 1410.5842,-64.2245 1469.1426,-75.1773"/>
<polygon fill="#191970" stroke="#191970" points="1468.515,-78.6206 1478.9924,-77.0472 1469.8206,-71.7435 1468.515,-78.6206"/>
</g>
<!-- Node617 -->
<g id="node11" class="node">
<title>Node617</title>
<g id="a_node11"><a xlink:href="namespacecimg__library__suffixed_1_1cimg.html#aab8db7528c32a8fd3a3dc471e662782e" target="_top" xlink:title="cimg_library_suffixed\l::cimg::_stderr">
<polygon fill="#ffffff" stroke="#000000" points="725,-94.5 725,-124.5 834,-124.5 834,-94.5 725,-94.5"/>
<text text-anchor="start" x="733" y="-112.5" font-family="Helvetica,sans-Serif" font-size="10.00" fill="#000000">cimg_library_suffixed</text>
<text text-anchor="middle" x="779.5" y="-101.5" font-family="Helvetica,sans-Serif" font-size="10.00" fill="#000000">::cimg::_stderr</text>
</a>
</g>
</g>
<!-- Node616&#45;&gt;Node617 -->
<g id="edge13" class="edge">
<title>Node616&#45;&gt;Node617</title>
<path fill="none" stroke="#191970" d="M689.3183,-100.1709C697.5286,-101.0202 706.0611,-101.9029 714.4586,-102.7716"/>
<polygon fill="#191970" stroke="#191970" points="714.2971,-106.2735 724.6042,-103.8211 715.0175,-99.3106 714.2971,-106.2735"/>
</g>
<!-- Node618 -->
<g id="node12" class="node">
<title>Node618</title>
<g id="a_node12"><a xlink:href="namespacecimg__library__suffixed_1_1cimg.html#a79aef0cbcf66ceb71c2b74cb66b4deb2" target="_top" xlink:title="Avoid warning messages due to unused parameters. Do nothing actually. ">
<polygon fill="#ffffff" stroke="#000000" points="1334,-155.5 1334,-185.5 1443,-185.5 1443,-155.5 1334,-155.5"/>
<text text-anchor="start" x="1342" y="-173.5" font-family="Helvetica,sans-Serif" font-size="10.00" fill="#000000">cimg_library_suffixed</text>
<text text-anchor="middle" x="1388.5" y="-162.5" font-family="Helvetica,sans-Serif" font-size="10.00" fill="#000000">::cimg::unused</text>
</a>
</g>
</g>
<!-- Node617&#45;&gt;Node618 -->
<g id="edge14" class="edge">
<title>Node617&#45;&gt;Node618</title>
<path fill="none" stroke="#191970" d="M834.2231,-104.5843C907.2653,-99.0759 1040.4896,-92.7109 1153,-107.5 1217.248,-115.9452 1288.8839,-136.8239 1336.0888,-152.2426"/>
<polygon fill="#191970" stroke="#191970" points="1335.1864,-155.6305 1345.7796,-155.4435 1337.3819,-148.9837 1335.1864,-155.6305"/>
</g>
<!-- Node619 -->
<g id="node13" class="node">
<title>Node619</title>
<g id="a_node13"><a xlink:href="namespacecimg__library__suffixed_1_1cimg.html#aeafab144366eddd11360f32f468fa4af" target="_top" xlink:title="Set current &#160;exception mode. ">
<polygon fill="#ffffff" stroke="#000000" points="870,-158.5 870,-188.5 991,-188.5 991,-158.5 870,-158.5"/>
<text text-anchor="start" x="878" y="-176.5" font-family="Helvetica,sans-Serif" font-size="10.00" fill="#000000">cimg_library_suffixed</text>
<text text-anchor="middle" x="930.5" y="-165.5" font-family="Helvetica,sans-Serif" font-size="10.00" fill="#000000">::cimg::exception_mode</text>
</a>
</g>
</g>
<!-- Node617&#45;&gt;Node619 -->
<g id="edge16" class="edge">
<title>Node617&#45;&gt;Node619</title>
<path fill="none" stroke="#191970" d="M814.9028,-124.5052C836.0306,-133.46 863.0601,-144.9162 885.6689,-154.4988"/>
<polygon fill="#191970" stroke="#191970" points="884.4847,-157.7982 895.0577,-158.4781 887.2164,-151.3532 884.4847,-157.7982"/>
</g>
<!-- Node618&#45;&gt;Node611 -->
<g id="edge15" class="edge">
<title>Node618&#45;&gt;Node611</title>
<path fill="none" stroke="#191970" d="M1416.0004,-155.4899C1424.6589,-150.7298 1434.2453,-145.4242 1443,-140.5 1461.39,-130.1564 1481.7733,-118.4646 1498.5322,-108.7908"/>
<polygon fill="#191970" stroke="#191970" points="1500.5279,-111.68 1507.4342,-103.6455 1497.0249,-105.6195 1500.5279,-111.68"/>
</g>
<!-- Node620 -->
<g id="node14" class="node">
<title>Node620</title>
<g id="a_node14"><a xlink:href="namespacecimg__library__suffixed_1_1cimg.html#a6c578f866de2be9be7e385d693c758c8" target="_top" xlink:title="cimg_library_suffixed\l::cimg::_exception_mode">
<polygon fill="#ffffff" stroke="#000000" points="1027,-117.5 1027,-147.5 1153,-147.5 1153,-117.5 1027,-117.5"/>
<text text-anchor="start" x="1035" y="-135.5" font-family="Helvetica,sans-Serif" font-size="10.00" fill="#000000">cimg_library_suffixed</text>
<text text-anchor="middle" x="1090" y="-124.5" font-family="Helvetica,sans-Serif" font-size="10.00" fill="#000000">::cimg::_exception_mode</text>
</a>
</g>
</g>
<!-- Node619&#45;&gt;Node620 -->
<g id="edge17" class="edge">
<title>Node619&#45;&gt;Node620</title>
<path fill="none" stroke="#191970" d="M988.9862,-158.4659C999.6053,-155.7363 1010.7669,-152.8671 1021.6401,-150.0721"/>
<polygon fill="#191970" stroke="#191970" points="1022.7071,-153.4117 1031.5208,-147.5323 1020.9643,-146.6321 1022.7071,-153.4117"/>
</g>
<!-- Node620&#45;&gt;Node611 -->
<g id="edge18" class="edge">
<title>Node620&#45;&gt;Node611</title>
<path fill="none" stroke="#191970" d="M1153.0717,-126.2426C1236.8352,-117.9324 1384.0329,-103.3287 1468.6723,-94.9316"/>
<polygon fill="#191970" stroke="#191970" points="1469.07,-98.4094 1478.6756,-93.9392 1468.3788,-91.4436 1469.07,-98.4094"/>
</g>
<!-- Node620&#45;&gt;Node617 -->
<g id="edge25" class="edge">
<title>Node620&#45;&gt;Node617</title>
<path fill="none" stroke="#191970" d="M1026.9297,-127.8281C973.7813,-123.8912 898.037,-118.2805 844.383,-114.3062"/>
<polygon fill="#191970" stroke="#191970" points="844.5277,-110.8074 834.2964,-113.559 844.0105,-117.7882 844.5277,-110.8074"/>
</g>
<!-- Node621 -->
<g id="node15" class="node">
<title>Node621</title>
<g id="a_node15"><a xlink:href="namespacecimg__library__suffixed_1_1cimg.html#a01a3b743897290604513ea6d847c9886" target="_top" xlink:title="cimg_library_suffixed\l::cimg::_stdin">
<polygon fill="#ffffff" stroke="#000000" points="1189,-204.5 1189,-234.5 1298,-234.5 1298,-204.5 1189,-204.5"/>
<text text-anchor="start" x="1197" y="-222.5" font-family="Helvetica,sans-Serif" font-size="10.00" fill="#000000">cimg_library_suffixed</text>
<text text-anchor="middle" x="1243.5" y="-211.5" font-family="Helvetica,sans-Serif" font-size="10.00" fill="#000000">::cimg::_stdin</text>
</a>
</g>
</g>
<!-- Node620&#45;&gt;Node621 -->
<g id="edge19" class="edge">
<title>Node620&#45;&gt;Node621</title>
<path fill="none" stroke="#191970" d="M1111.8317,-147.7545C1131.5163,-161.1755 1161.5091,-180.8094 1189,-195.5 1191.8723,-197.0349 1194.8629,-198.5554 1197.8992,-200.0419"/>
<polygon fill="#191970" stroke="#191970" points="1196.5361,-203.2689 1207.0726,-204.3794 1199.5283,-196.9406 1196.5361,-203.2689"/>
</g>
<!-- Node622 -->
<g id="node16" class="node">
<title>Node622</title>
<g id="a_node16"><a xlink:href="namespacecimg__library__suffixed_1_1cimg.html#a493220746e5df3466568bd7862825008" target="_top" xlink:title="cimg_library_suffixed\l::cimg::_stdout">
<polygon fill="#ffffff" stroke="#000000" points="1189,-155.5 1189,-185.5 1298,-185.5 1298,-155.5 1189,-155.5"/>
<text text-anchor="start" x="1197" y="-173.5" font-family="Helvetica,sans-Serif" font-size="10.00" fill="#000000">cimg_library_suffixed</text>
<text text-anchor="middle" x="1243.5" y="-162.5" font-family="Helvetica,sans-Serif" font-size="10.00" fill="#000000">::cimg::_stdout</text>
</a>
</g>
</g>
<!-- Node620&#45;&gt;Node622 -->
<g id="edge22" class="edge">
<title>Node620&#45;&gt;Node622</title>
<path fill="none" stroke="#191970" d="M1150.6673,-147.5186C1159.8984,-149.8038 1169.4546,-152.1695 1178.7686,-154.4753"/>
<polygon fill="#191970" stroke="#191970" points="1178.2053,-157.9414 1188.7534,-156.9471 1179.8875,-151.1465 1178.2053,-157.9414"/>
</g>
<!-- Node621&#45;&gt;Node618 -->
<g id="edge20" class="edge">
<title>Node621&#45;&gt;Node618</title>
<path fill="none" stroke="#191970" d="M1288.1879,-204.3986C1302.659,-199.5083 1318.8725,-194.0293 1333.9752,-188.9256"/>
<polygon fill="#191970" stroke="#191970" points="1335.3569,-192.1532 1343.71,-185.6359 1333.1158,-185.5217 1335.3569,-192.1532"/>
</g>
<!-- Node621&#45;&gt;Node619 -->
<g id="edge21" class="edge">
<title>Node621&#45;&gt;Node619</title>
<path fill="none" stroke="#191970" d="M1188.9666,-211.4855C1136.8805,-203.8307 1058.1092,-192.2541 1001.2205,-183.8934"/>
<polygon fill="#191970" stroke="#191970" points="1001.6233,-180.4151 991.2207,-182.4238 1000.6055,-187.3407 1001.6233,-180.4151"/>
</g>
<!-- Node622&#45;&gt;Node618 -->
<g id="edge23" class="edge">
<title>Node622&#45;&gt;Node618</title>
<path fill="none" stroke="#191970" d="M1298.3183,-170.5C1306.5286,-170.5 1315.0611,-170.5 1323.4586,-170.5"/>
<polygon fill="#191970" stroke="#191970" points="1323.6042,-174.0001 1333.6042,-170.5 1323.6042,-167.0001 1323.6042,-174.0001"/>
</g>
<!-- Node622&#45;&gt;Node619 -->
<g id="edge24" class="edge">
<title>Node622&#45;&gt;Node619</title>
<path fill="none" stroke="#191970" d="M1188.9666,-171.0227C1136.8805,-171.5219 1058.1092,-172.2769 1001.2205,-172.8222"/>
<polygon fill="#191970" stroke="#191970" points="1001.1866,-169.3222 991.2207,-172.918 1001.2538,-176.3219 1001.1866,-169.3222"/>
</g>
<!-- Node623&#45;&gt;Node618 -->
<g id="edge27" class="edge">
<title>Node623&#45;&gt;Node618</title>
<path fill="none" stroke="#191970" d="M544.2298,-234.9126C602.294,-246.98 696.8722,-263.5 779.5,-263.5 779.5,-263.5 779.5,-263.5 1090,-263.5 1182.8293,-263.5 1212.0801,-279.6433 1298,-244.5 1325.6932,-233.1728 1351.503,-210.3515 1368.415,-193.0305"/>
<polygon fill="#191970" stroke="#191970" points="1371.1946,-195.1858 1375.534,-185.5203 1366.1143,-190.3701 1371.1946,-195.1858"/>
</g>
</g>
</svg>
