<?xml version="1.0" encoding="UTF-8" standalone="no"?>
<!DOCTYPE svg PUBLIC "-//W3C//DTD SVG 1.1//EN"
 "http://www.w3.org/Graphics/SVG/1.1/DTD/svg11.dtd">
<!-- Generated by graphviz version 2.40.1 (20161225.0304)
 -->
<!-- Title: cimg_library_suffixed::CImgList::move_to Pages: 1 -->
<!--zoomable 608 -->
<svg id="main" version="1.1" xmlns="http://www.w3.org/2000/svg" xmlns:xlink="http://www.w3.org/1999/xlink" xml:space="preserve" onload="init(evt)">
<style type="text/css"><![CDATA[
.edge:hover path { stroke: red; }
.edge:hover polygon { stroke: red; fill: red; }
]]></style>
<script type="text/javascript"><![CDATA[
var edges = document.getElementsByTagName('g');
if (edges && edges.length) {
  for (var i=0;i<edges.length;i++) {
    if (edges[i].id.substr(0,4)=='edge') {
      edges[i].setAttribute('class','edge');
    }
  }
}
]]></script>
        <defs>
                <circle id="rim" cx="0" cy="0" r="7"/>
                <circle id="rim2" cx="0" cy="0" r="3.5"/>
                <g id="zoomPlus">
                        <use xlink:href="#rim" fill="#404040">
                                <set attributeName="fill" to="#808080" begin="zoomplus.mouseover" end="zoomplus.mouseout"/>
                        </use>
                        <path d="M-4,0h8M0,-4v8" fill="none" stroke="white" stroke-width="1.5" pointer-events="none"/>
                </g>
                <g id="zoomMin">
                        <use xlink:href="#rim" fill="#404040">
                                <set attributeName="fill" to="#808080" begin="zoomminus.mouseover" end="zoomminus.mouseout"/>
                        </use>
                        <path d="M-4,0h8" fill="none" stroke="white" stroke-width="1.5" pointer-events="none"/>
                </g>
                <g id="dirArrow">
                        <path fill="none" stroke="white" stroke-width="1.5" d="M0,-3.0v7 M-2.5,-0.5L0,-3.0L2.5,-0.5"/>
                </g>
               <g id="resetDef">
                       <use xlink:href="#rim2" fill="#404040">
                               <set attributeName="fill" to="#808080" begin="reset.mouseover" end="reset.mouseout"/>
                       </use>
               </g>
        </defs>

<script type="text/javascript">
var viewWidth = 298;
var viewHeight = 608;
var sectionId = 'dynsection-18';
</script>
<script xlink:href="svgpan.js"/>
<svg id="graph" class="graph">
<g id="viewport">
<title>cimg_library_suffixed::CImgList::move_to</title>
<polygon fill="#ffffff" stroke="transparent" points="-4,4 -4,-604 294,-604 294,4 -4,4"/>
<!-- Node477 -->
<g id="node1" class="node">
<title>Node477</title>
<polygon fill="#bfbfbf" stroke="#000000" points="0,-279.5 0,-309.5 109,-309.5 109,-279.5 0,-279.5"/>
<text text-anchor="start" x="8" y="-297.5" font-family="Helvetica,sans-Serif" font-size="10.00" fill="#000000">cimg_library_suffixed</text>
<text text-anchor="middle" x="54.5" y="-286.5" font-family="Helvetica,sans-Serif" font-size="10.00" fill="#000000">::CImgList::move_to</text>
</g>
<!-- Node478 -->
<g id="node2" class="node">
<title>Node478</title>
<g id="a_node2"><a xlink:href="structcimg__library__suffixed_1_1_c_img.html#a07fd2a69e02ca2fa66fc81b28468a9f1" target="_top" xlink:title="Append two images along specified axis . ">
<polygon fill="#ffffff" stroke="#000000" points="154,-569.5 154,-599.5 281,-599.5 281,-569.5 154,-569.5"/>
<text text-anchor="start" x="162" y="-587.5" font-family="Helvetica,sans-Serif" font-size="10.00" fill="#000000">cimg_library_suffixed</text>
<text text-anchor="middle" x="217.5" y="-576.5" font-family="Helvetica,sans-Serif" font-size="10.00" fill="#000000">::CImg&lt; charT &gt;::append</text>
</a>
</g>
</g>
<!-- Node477&#45;&gt;Node478 -->
<g id="edge1" class="edge">
<title>Node477&#45;&gt;Node478</title>
<path fill="none" stroke="#191970" d="M55.9616,-319.811C60.3222,-371.8953 77.543,-491.8424 145,-559.5 148.8542,-563.3657 153.3335,-566.6344 158.1388,-569.3982"/>
<polygon fill="#191970" stroke="#191970" points="59.4469,-319.4821 55.2128,-309.7701 52.4662,-320.0027 59.4469,-319.4821"/>
</g>
<!-- Node479 -->
<g id="node3" class="node">
<title>Node479</title>
<g id="a_node3"><a xlink:href="structcimg__library__suffixed_1_1_c_img_list.html#ab896c4f7d87bc33821231b37dd85f79e" target="_top" xlink:title="Construct list as a copy of an existing list and force shared state of elements &#160;. ">
<polygon fill="#ffffff" stroke="#000000" points="162,-509 162,-550 273,-550 273,-509 162,-509"/>
<text text-anchor="start" x="170" y="-538" font-family="Helvetica,sans-Serif" font-size="10.00" fill="#000000">cimg_library_suffixed</text>
<text text-anchor="start" x="170" y="-527" font-family="Helvetica,sans-Serif" font-size="10.00" fill="#000000">::CImgList&lt; charT &gt;::</text>
<text text-anchor="middle" x="217.5" y="-516" font-family="Helvetica,sans-Serif" font-size="10.00" fill="#000000">assign</text>
</a>
</g>
</g>
<!-- Node477&#45;&gt;Node479 -->
<g id="edge2" class="edge">
<title>Node477&#45;&gt;Node479</title>
<path fill="none" stroke="#191970" d="M59.2391,-319.6177C68.4852,-362.0998 92.7746,-448.4822 145,-499.5 149.872,-504.2594 155.6066,-508.3041 161.6809,-511.7316"/>
<polygon fill="#191970" stroke="#191970" points="62.6142,-318.6558 57.1579,-309.5739 55.7598,-320.0761 62.6142,-318.6558"/>
</g>
<!-- Node480 -->
<g id="node4" class="node">
<title>Node480</title>
<g id="a_node4"><a xlink:href="structcimg__library__suffixed_1_1_c_img_1_1__cimg__math__parser.html#a318c44c5d1f4f0114355f37ace87a4ae" target="_top" xlink:title="cimg_library_suffixed\l::CImg::_cimg_math_parser\l::compile">
<polygon fill="#ffffff" stroke="#000000" points="148.5,-449 148.5,-490 286.5,-490 286.5,-449 148.5,-449"/>
<text text-anchor="start" x="156.5" y="-478" font-family="Helvetica,sans-Serif" font-size="10.00" fill="#000000">cimg_library_suffixed</text>
<text text-anchor="start" x="156.5" y="-467" font-family="Helvetica,sans-Serif" font-size="10.00" fill="#000000">::CImg::_cimg_math_parser</text>
<text text-anchor="middle" x="217.5" y="-456" font-family="Helvetica,sans-Serif" font-size="10.00" fill="#000000">::compile</text>
</a>
</g>
</g>
<!-- Node477&#45;&gt;Node480 -->
<g id="edge3" class="edge">
<title>Node477&#45;&gt;Node480</title>
<path fill="none" stroke="#191970" d="M64.2426,-319.2472C77.8987,-351.0429 105.5599,-406.1058 145,-439.5 149.1584,-443.0209 153.7872,-446.174 158.6381,-448.9881"/>
<polygon fill="#191970" stroke="#191970" points="67.3821,-317.6819 60.3038,-309.7985 60.921,-320.3753 67.3821,-317.6819"/>
</g>
<!-- Node481 -->
<g id="node5" class="node">
<title>Node481</title>
<g id="a_node5"><a xlink:href="structcimg__library__suffixed_1_1_c_img_list.html#acae47031136aaf64c35f5e07f6272df8" target="_top" xlink:title="Crop font along the X&#45;axis. ">
<polygon fill="#ffffff" stroke="#000000" points="162,-389 162,-430 273,-430 273,-389 162,-389"/>
<text text-anchor="start" x="170" y="-418" font-family="Helvetica,sans-Serif" font-size="10.00" fill="#000000">cimg_library_suffixed</text>
<text text-anchor="start" x="170" y="-407" font-family="Helvetica,sans-Serif" font-size="10.00" fill="#000000">::CImgList&lt; charT &gt;::</text>
<text text-anchor="middle" x="217.5" y="-396" font-family="Helvetica,sans-Serif" font-size="10.00" fill="#000000">crop_font</text>
</a>
</g>
</g>
<!-- Node477&#45;&gt;Node481 -->
<g id="edge4" class="edge">
<title>Node477&#45;&gt;Node481</title>
<path fill="none" stroke="#191970" d="M74.3559,-317.272C91.5653,-335.9272 117.9029,-362.0088 145,-379.5 150.2645,-382.8982 155.978,-386.0439 161.809,-388.918"/>
<polygon fill="#191970" stroke="#191970" points="76.8728,-314.8372 67.5638,-309.7783 71.6863,-319.5382 76.8728,-314.8372"/>
</g>
<!-- Node482 -->
<g id="node6" class="node">
<title>Node482</title>
<g id="a_node6"><a xlink:href="structcimg__library__suffixed_1_1_c_img_list.html#a1a45c7e6d307a716e71f0070ced8b195" target="_top" xlink:title="Return a sublist. ">
<polygon fill="#ffffff" stroke="#000000" points="162,-329 162,-370 273,-370 273,-329 162,-329"/>
<text text-anchor="start" x="170" y="-358" font-family="Helvetica,sans-Serif" font-size="10.00" fill="#000000">cimg_library_suffixed</text>
<text text-anchor="start" x="170" y="-347" font-family="Helvetica,sans-Serif" font-size="10.00" fill="#000000">::CImgList&lt; charT &gt;::</text>
<text text-anchor="middle" x="217.5" y="-336" font-family="Helvetica,sans-Serif" font-size="10.00" fill="#000000">images</text>
</a>
</g>
</g>
<!-- Node477&#45;&gt;Node482 -->
<g id="edge5" class="edge">
<title>Node477&#45;&gt;Node482</title>
<path fill="none" stroke="#191970" d="M108.8578,-312.8416C125.9288,-318.6017 144.7933,-324.9671 161.9459,-330.7548"/>
<polygon fill="#191970" stroke="#191970" points="109.6346,-309.4099 99.0405,-309.529 107.3966,-316.0425 109.6346,-309.4099"/>
</g>
<!-- Node483 -->
<g id="node7" class="node">
<title>Node483</title>
<g id="a_node7"><a xlink:href="structcimg__library__suffixed_1_1_c_img.html#acd11fa7d0e9e7598c686eeadd86b792d" target="_top" xlink:title="Load image from a .cimg[z] file. ">
<polygon fill="#ffffff" stroke="#000000" points="147.5,-279.5 147.5,-309.5 287.5,-309.5 287.5,-279.5 147.5,-279.5"/>
<text text-anchor="start" x="155.5" y="-297.5" font-family="Helvetica,sans-Serif" font-size="10.00" fill="#000000">cimg_library_suffixed</text>
<text text-anchor="middle" x="217.5" y="-286.5" font-family="Helvetica,sans-Serif" font-size="10.00" fill="#000000">::CImg&lt; charT &gt;::load_cimg</text>
</a>
</g>
</g>
<!-- Node477&#45;&gt;Node483 -->
<g id="edge6" class="edge">
<title>Node477&#45;&gt;Node483</title>
<path fill="none" stroke="#191970" d="M119.4208,-294.5C128.5797,-294.5 138.0303,-294.5 147.2831,-294.5"/>
<polygon fill="#191970" stroke="#191970" points="119.2301,-291.0001 109.2301,-294.5 119.2301,-298.0001 119.2301,-291.0001"/>
</g>
<!-- Node484 -->
<g id="node8" class="node">
<title>Node484</title>
<g id="a_node8"><a xlink:href="structcimg__library__suffixed_1_1_c_img_list.html#a01772b523fe250d7d1f11e2e7eda0456" target="_top" xlink:title="Load a 3d object from a .OFF file. ">
<polygon fill="#ffffff" stroke="#000000" points="162,-219 162,-260 273,-260 273,-219 162,-219"/>
<text text-anchor="start" x="170" y="-248" font-family="Helvetica,sans-Serif" font-size="10.00" fill="#000000">cimg_library_suffixed</text>
<text text-anchor="start" x="170" y="-237" font-family="Helvetica,sans-Serif" font-size="10.00" fill="#000000">::CImgList&lt; charT &gt;::</text>
<text text-anchor="middle" x="217.5" y="-226" font-family="Helvetica,sans-Serif" font-size="10.00" fill="#000000">load_off</text>
</a>
</g>
</g>
<!-- Node477&#45;&gt;Node484 -->
<g id="edge7" class="edge">
<title>Node477&#45;&gt;Node484</title>
<path fill="none" stroke="#191970" d="M108.8578,-276.1584C125.9288,-270.3983 144.7933,-264.0329 161.9459,-258.2452"/>
<polygon fill="#191970" stroke="#191970" points="107.3966,-272.9575 99.0405,-279.471 109.6346,-279.5901 107.3966,-272.9575"/>
</g>
<!-- Node485 -->
<g id="node9" class="node">
<title>Node485</title>
<g id="a_node9"><a xlink:href="structcimg__library__suffixed_1_1_c_img.html#a2443496c0824ead4e1bf8a84c5eda7b0" target="_top" xlink:title="Load image from a PAR&#45;REC (Philips) file. ">
<polygon fill="#ffffff" stroke="#000000" points="161,-159 161,-200 274,-200 274,-159 161,-159"/>
<text text-anchor="start" x="169" y="-188" font-family="Helvetica,sans-Serif" font-size="10.00" fill="#000000">cimg_library_suffixed</text>
<text text-anchor="start" x="169" y="-177" font-family="Helvetica,sans-Serif" font-size="10.00" fill="#000000">::CImg&lt; charT &gt;::load</text>
<text text-anchor="middle" x="217.5" y="-166" font-family="Helvetica,sans-Serif" font-size="10.00" fill="#000000">_parrec</text>
</a>
</g>
</g>
<!-- Node477&#45;&gt;Node485 -->
<g id="edge8" class="edge">
<title>Node477&#45;&gt;Node485</title>
<path fill="none" stroke="#191970" d="M74.3559,-271.728C91.5653,-253.0728 117.9029,-226.9912 145,-209.5 150.2645,-206.1018 155.978,-202.9561 161.809,-200.082"/>
<polygon fill="#191970" stroke="#191970" points="71.6863,-269.4618 67.5638,-279.2217 76.8728,-274.1628 71.6863,-269.4618"/>
</g>
<!-- Node486 -->
<g id="node10" class="node">
<title>Node486</title>
<g id="a_node10"><a xlink:href="structcimg__library__suffixed_1_1_c_img.html#a3a8132f303e3295e0219ea4518c6ef20" target="_top" xlink:title="Save volumetric image as a video, using ffmpeg external binary. ">
<polygon fill="#ffffff" stroke="#000000" points="159.5,-99 159.5,-140 275.5,-140 275.5,-99 159.5,-99"/>
<text text-anchor="start" x="167.5" y="-128" font-family="Helvetica,sans-Serif" font-size="10.00" fill="#000000">cimg_library_suffixed</text>
<text text-anchor="start" x="167.5" y="-117" font-family="Helvetica,sans-Serif" font-size="10.00" fill="#000000">::CImg&lt; charT &gt;::save</text>
<text text-anchor="middle" x="217.5" y="-106" font-family="Helvetica,sans-Serif" font-size="10.00" fill="#000000">_ffmpeg_external</text>
</a>
</g>
</g>
<!-- Node477&#45;&gt;Node486 -->
<g id="edge9" class="edge">
<title>Node477&#45;&gt;Node486</title>
<path fill="none" stroke="#191970" d="M64.2426,-269.7528C77.8987,-237.9571 105.5599,-182.8942 145,-149.5 149.3663,-145.803 154.2513,-142.5117 159.3674,-139.5923"/>
<polygon fill="#191970" stroke="#191970" points="60.921,-268.6247 60.3038,-279.2015 67.3821,-271.3181 60.921,-268.6247"/>
</g>
<!-- Node487 -->
<g id="node11" class="node">
<title>Node487</title>
<g id="a_node11"><a xlink:href="structcimg__library__suffixed_1_1_c_img.html#a1bdca455737facbfa2ca6fd959a39cd4" target="_top" xlink:title="Save volumetric image as a video, using the OpenCV library. ">
<polygon fill="#ffffff" stroke="#000000" points="145,-49.5 145,-79.5 290,-79.5 290,-49.5 145,-49.5"/>
<text text-anchor="start" x="153" y="-67.5" font-family="Helvetica,sans-Serif" font-size="10.00" fill="#000000">cimg_library_suffixed</text>
<text text-anchor="middle" x="217.5" y="-56.5" font-family="Helvetica,sans-Serif" font-size="10.00" fill="#000000">::CImg&lt; charT &gt;::save_video</text>
</a>
</g>
</g>
<!-- Node477&#45;&gt;Node487 -->
<g id="edge10" class="edge">
<title>Node477&#45;&gt;Node487</title>
<path fill="none" stroke="#191970" d="M58.796,-269.6287C67.4617,-226.8464 91.0147,-139.1471 145,-89.5 149.214,-85.6246 154.0579,-82.3458 159.2011,-79.5724"/>
<polygon fill="#191970" stroke="#191970" points="55.3516,-269.0069 56.9042,-279.4874 62.2262,-270.3262 55.3516,-269.0069"/>
</g>
<!-- Node488 -->
<g id="node12" class="node">
<title>Node488</title>
<g id="a_node12"><a xlink:href="structcimg__library__suffixed_1_1_c_img_list.html#ab9744c8b1e41678f91de1dc4049aa058" target="_top" xlink:title="Return a list where each image has been split along the specified axis. ">
<polygon fill="#ffffff" stroke="#000000" points="153,-.5 153,-30.5 282,-30.5 282,-.5 153,-.5"/>
<text text-anchor="start" x="161" y="-18.5" font-family="Helvetica,sans-Serif" font-size="10.00" fill="#000000">cimg_library_suffixed</text>
<text text-anchor="middle" x="217.5" y="-7.5" font-family="Helvetica,sans-Serif" font-size="10.00" fill="#000000">::CImgList&lt; charT &gt;::split</text>
</a>
</g>
</g>
<!-- Node477&#45;&gt;Node488 -->
<g id="edge11" class="edge">
<title>Node477&#45;&gt;Node488</title>
<path fill="none" stroke="#191970" d="M56.4016,-269.1853C61.5386,-218.6869 80.0636,-104.7763 145,-40.5 148.8796,-36.6598 153.3762,-33.4084 158.1925,-30.6558"/>
<polygon fill="#191970" stroke="#191970" points="52.9082,-268.9529 55.474,-279.2324 59.8786,-269.5965 52.9082,-268.9529"/>
</g>
</g>
</svg>
        <g id="navigator" transform="translate(0 0)" fill="#404254">
                <rect fill="#f2f5e9" fill-opacity="0.5" stroke="#606060" stroke-width=".5" x="0" y="0" width="60" height="60"/>
                <use id="zoomplus" xlink:href="#zoomPlus" x="17" y="9" onmousedown="handleZoom(evt,'in')"/>
                <use id="zoomminus" xlink:href="#zoomMin" x="42" y="9" onmousedown="handleZoom(evt,'out')"/>
                <use id="reset" xlink:href="#resetDef" x="30" y="36" onmousedown="handleReset()"/>
                <g id="arrowUp" xlink:href="#dirArrow" transform="translate(30 24)" onmousedown="handlePan(0,-1)">
                  <use xlink:href="#rim" fill="#404040">
                        <set attributeName="fill" to="#808080" begin="arrowUp.mouseover" end="arrowUp.mouseout"/>
                  </use>
                  <path fill="none" stroke="white" stroke-width="1.5" d="M0,-3.0v7 M-2.5,-0.5L0,-3.0L2.5,-0.5"/>
                </g>
                <g id="arrowRight" xlink:href="#dirArrow" transform="rotate(90) translate(36 -43)" onmousedown="handlePan(1,0)">
                  <use xlink:href="#rim" fill="#404040">
                        <set attributeName="fill" to="#808080" begin="arrowRight.mouseover" end="arrowRight.mouseout"/>
                  </use>
                  <path fill="none" stroke="white" stroke-width="1.5" d="M0,-3.0v7 M-2.5,-0.5L0,-3.0L2.5,-0.5"/>
                </g>
                <g id="arrowDown" xlink:href="#dirArrow" transform="rotate(180) translate(-30 -48)" onmousedown="handlePan(0,1)">
                  <use xlink:href="#rim" fill="#404040">
                        <set attributeName="fill" to="#808080" begin="arrowDown.mouseover" end="arrowDown.mouseout"/>
                  </use>
                  <path fill="none" stroke="white" stroke-width="1.5" d="M0,-3.0v7 M-2.5,-0.5L0,-3.0L2.5,-0.5"/>
                </g>
                <g id="arrowLeft" xlink:href="#dirArrow" transform="rotate(270) translate(-36 17)" onmousedown="handlePan(-1,0)">
                  <use xlink:href="#rim" fill="#404040">
                        <set attributeName="fill" to="#808080" begin="arrowLeft.mouseover" end="arrowLeft.mouseout"/>
                  </use>
                  <path fill="none" stroke="white" stroke-width="1.5" d="M0,-3.0v7 M-2.5,-0.5L0,-3.0L2.5,-0.5"/>
                </g>
        </g>
        <svg viewBox="0 0 15 15" width="100%" height="30px" preserveAspectRatio="xMaxYMin meet">
         <g id="arrow_out" transform="scale(0.3 0.3)">
          <a xlink:href="structcimg__library__suffixed_1_1_c_img_list_aa70386a8220b072cfebd654cb1ea636a_icgraph_org.svg" target="_base">
           <rect id="button" ry="5" rx="5" y="6" x="6" height="38" width="38"
                fill="#f2f5e9" fill-opacity="0.5" stroke="#606060" stroke-width="1.0"/>
           <path id="arrow"
             d="M 11.500037,31.436501 C 11.940474,20.09759 22.043105,11.32322 32.158766,21.979434 L 37.068811,17.246167 C 37.068811,17.246167 37.088388,32 37.088388,32 L 22.160133,31.978069 C 22.160133,31.978069 26.997745,27.140456 26.997745,27.140456 C 18.528582,18.264221 13.291696,25.230495 11.500037,31.436501 z"
             style="fill:#404040;"/>
          </a>
         </g>
        </svg>
</svg>
