<?xml version="1.0" encoding="UTF-8" standalone="no"?>
<!DOCTYPE svg PUBLIC "-//W3C//DTD SVG 1.1//EN"
 "http://www.w3.org/Graphics/SVG/1.1/DTD/svg11.dtd">
<!-- Generated by graphviz version 2.40.1 (20161225.0304)
 -->
<!-- Title: cimg_library_suffixed::CImg::transpose Pages: 1 -->
<svg width="262pt" height="110pt"
 viewBox="0.00 0.00 262.00 110.00" xmlns="http://www.w3.org/2000/svg" xmlns:xlink="http://www.w3.org/1999/xlink">
<g id="graph0" class="graph" transform="scale(1 1) rotate(0) translate(4 106)">
<title>cimg_library_suffixed::CImg::transpose</title>
<polygon fill="#ffffff" stroke="transparent" points="-4,4 -4,-106 258,-106 258,4 -4,4"/>
<!-- Node3361 -->
<g id="node1" class="node">
<title>Node3361</title>
<polygon fill="#bfbfbf" stroke="#000000" points="0,-36 0,-66 109,-66 109,-36 0,-36"/>
<text text-anchor="start" x="8" y="-54" font-family="Helvetica,sans-Serif" font-size="10.00" fill="#000000">cimg_library_suffixed</text>
<text text-anchor="middle" x="54.5" y="-43" font-family="Helvetica,sans-Serif" font-size="10.00" fill="#000000">::CImg::transpose</text>
</g>
<!-- Node3362 -->
<g id="node2" class="node">
<title>Node3362</title>
<g id="a_node2"><a xlink:href="structcimg__library__suffixed_1_1_c_img.html#a33c05bc335362b8e6bae9a516f28f8c0" target="_top" xlink:title="Compute the Moore&#45;Penrose pseudo&#45;inverse of the instance image, viewed as a matrix ...">
<polygon fill="#ffffff" stroke="#000000" points="145,-60.5 145,-101.5 254,-101.5 254,-60.5 145,-60.5"/>
<text text-anchor="start" x="153" y="-89.5" font-family="Helvetica,sans-Serif" font-size="10.00" fill="#000000">cimg_library_suffixed</text>
<text text-anchor="start" x="153" y="-78.5" font-family="Helvetica,sans-Serif" font-size="10.00" fill="#000000">::CImg&lt; charT &gt;::get</text>
<text text-anchor="middle" x="199.5" y="-67.5" font-family="Helvetica,sans-Serif" font-size="10.00" fill="#000000">_pseudoinvert</text>
</a>
</g>
</g>
<!-- Node3361&#45;&gt;Node3362 -->
<g id="edge1" class="edge">
<title>Node3361&#45;&gt;Node3362</title>
<path fill="none" stroke="#191970" d="M119.1853,-64.3832C127.6712,-66.1389 136.3016,-67.9245 144.6042,-69.6422"/>
<polygon fill="#191970" stroke="#191970" points="119.82,-60.9404 109.3183,-62.3417 118.4017,-67.7953 119.82,-60.9404"/>
</g>
<!-- Node3363 -->
<g id="node3" class="node">
<title>Node3363</title>
<g id="a_node3"><a xlink:href="structcimg__library__suffixed_1_1_c_img.html#a9c878d2a6b1bb2d23b3875a64801c9c3" target="_top" xlink:title="Rotate volumetric image with arbitrary angle and axis . ">
<polygon fill="#ffffff" stroke="#000000" points="145,-.5 145,-41.5 254,-41.5 254,-.5 145,-.5"/>
<text text-anchor="start" x="153" y="-29.5" font-family="Helvetica,sans-Serif" font-size="10.00" fill="#000000">cimg_library_suffixed</text>
<text text-anchor="start" x="153" y="-18.5" font-family="Helvetica,sans-Serif" font-size="10.00" fill="#000000">::CImg&lt; charT &gt;::get</text>
<text text-anchor="middle" x="199.5" y="-7.5" font-family="Helvetica,sans-Serif" font-size="10.00" fill="#000000">_rotate</text>
</a>
</g>
</g>
<!-- Node3361&#45;&gt;Node3363 -->
<g id="edge2" class="edge">
<title>Node3361&#45;&gt;Node3363</title>
<path fill="none" stroke="#191970" d="M119.1853,-37.6168C127.6712,-35.8611 136.3016,-34.0755 144.6042,-32.3578"/>
<polygon fill="#191970" stroke="#191970" points="118.4017,-34.2047 109.3183,-39.6583 119.82,-41.0596 118.4017,-34.2047"/>
</g>
</g>
</svg>
