<?xml version="1.0" encoding="UTF-8" standalone="no"?>
<!DOCTYPE svg PUBLIC "-//W3C//DTD SVG 1.1//EN"
 "http://www.w3.org/Graphics/SVG/1.1/DTD/svg11.dtd">
<!-- Generated by graphviz version 2.40.1 (20161225.0304)
 -->
<!-- Title: cimg_library_suffixed::cimg::type&lt; long double &gt;::format Pages: 1 -->
<svg width="425pt" height="284pt"
 viewBox="0.00 0.00 425.00 284.00" xmlns="http://www.w3.org/2000/svg" xmlns:xlink="http://www.w3.org/1999/xlink">
<g id="graph0" class="graph" transform="scale(1 1) rotate(0) translate(4 280)">
<title>cimg_library_suffixed::cimg::type&lt; long double &gt;::format</title>
<polygon fill="#ffffff" stroke="transparent" points="-4,4 -4,-280 421,-280 421,4 -4,4"/>
<!-- Node4 -->
<g id="node1" class="node">
<title>Node4</title>
<polygon fill="#bfbfbf" stroke="#000000" points="0,-117 0,-158 127,-158 127,-117 0,-117"/>
<text text-anchor="start" x="8" y="-146" font-family="Helvetica,sans-Serif" font-size="10.00" fill="#000000">cimg_library_suffixed</text>
<text text-anchor="start" x="8" y="-135" font-family="Helvetica,sans-Serif" font-size="10.00" fill="#000000">::cimg::type&lt; long double</text>
<text text-anchor="middle" x="63.5" y="-124" font-family="Helvetica,sans-Serif" font-size="10.00" fill="#000000"> &gt;::format</text>
</g>
<!-- Node5 -->
<g id="node2" class="node">
<title>Node5</title>
<g id="a_node2"><a xlink:href="namespacecimg__library__suffixed_1_1cimg.html#a60c895ccdb84e7ccdd884ff61bab29f0" target="_top" xlink:title="Cut (i.e. clamp) value in specified interval. ">
<polygon fill="#ffffff" stroke="#000000" points="163,-245.5 163,-275.5 272,-275.5 272,-245.5 163,-245.5"/>
<text text-anchor="start" x="171" y="-263.5" font-family="Helvetica,sans-Serif" font-size="10.00" fill="#000000">cimg_library_suffixed</text>
<text text-anchor="middle" x="217.5" y="-252.5" font-family="Helvetica,sans-Serif" font-size="10.00" fill="#000000">::cimg::cut</text>
</a>
</g>
</g>
<!-- Node4&#45;&gt;Node5 -->
<g id="edge1" class="edge">
<title>Node4&#45;&gt;Node5</title>
<path fill="none" stroke="#191970" d="M80.3638,-158.3387C98.8243,-180.0967 130.1916,-214.1101 163,-236.5 165.0922,-237.9278 167.2831,-239.3021 169.5346,-240.6202"/>
<polygon fill="#191970" stroke="#191970" points="167.9756,-243.7558 178.4391,-245.4186 171.2963,-237.5936 167.9756,-243.7558"/>
</g>
<!-- Node6 -->
<g id="node3" class="node">
<title>Node6</title>
<g id="a_node3"><a xlink:href="structcimg__library__suffixed_1_1cimg_1_1type.html#a2e5b828afd6f5e0e82358059642887a7" target="_top" xlink:title="cimg_library_suffixed\l::cimg::type::is_nan">
<polygon fill="#ffffff" stroke="#000000" points="163,-196.5 163,-226.5 272,-226.5 272,-196.5 163,-196.5"/>
<text text-anchor="start" x="171" y="-214.5" font-family="Helvetica,sans-Serif" font-size="10.00" fill="#000000">cimg_library_suffixed</text>
<text text-anchor="middle" x="217.5" y="-203.5" font-family="Helvetica,sans-Serif" font-size="10.00" fill="#000000">::cimg::type::is_nan</text>
</a>
</g>
</g>
<!-- Node4&#45;&gt;Node6 -->
<g id="edge2" class="edge">
<title>Node4&#45;&gt;Node6</title>
<path fill="none" stroke="#191970" d="M103.4553,-158.1598C121.5345,-167.3573 143.237,-178.1903 163,-187.5 166.329,-189.0682 169.7859,-190.6643 173.2707,-192.2502"/>
<polygon fill="#191970" stroke="#191970" points="171.9362,-195.4876 182.4919,-196.3982 174.8079,-189.1038 171.9362,-195.4876"/>
</g>
<!-- Node7 -->
<g id="node4" class="node">
<title>Node7</title>
<g id="a_node4"><a xlink:href="structcimg__library__suffixed_1_1cimg_1_1type.html#a4b01a896aa0c86ce9f3162f36fa2ae72" target="_top" xlink:title="cimg_library_suffixed\l::cimg::type::max">
<polygon fill="#ffffff" stroke="#000000" points="163,-147.5 163,-177.5 272,-177.5 272,-147.5 163,-147.5"/>
<text text-anchor="start" x="171" y="-165.5" font-family="Helvetica,sans-Serif" font-size="10.00" fill="#000000">cimg_library_suffixed</text>
<text text-anchor="middle" x="217.5" y="-154.5" font-family="Helvetica,sans-Serif" font-size="10.00" fill="#000000">::cimg::type::max</text>
</a>
</g>
</g>
<!-- Node4&#45;&gt;Node7 -->
<g id="edge3" class="edge">
<title>Node4&#45;&gt;Node7</title>
<path fill="none" stroke="#191970" d="M127.0268,-147.8128C135.6022,-149.2049 144.4076,-150.6344 152.9997,-152.0292"/>
<polygon fill="#191970" stroke="#191970" points="152.5299,-155.4986 162.9615,-153.6464 153.6516,-148.5891 152.5299,-155.4986"/>
</g>
<!-- Node8 -->
<g id="node5" class="node">
<title>Node8</title>
<g id="a_node5"><a xlink:href="namespacecimg__library__suffixed_1_1cimg.html#aae5df5731fe5a367cec402071108c11c" target="_top" xlink:title="Return the maximum between three values. ">
<polygon fill="#ffffff" stroke="#000000" points="163,-98.5 163,-128.5 272,-128.5 272,-98.5 163,-98.5"/>
<text text-anchor="start" x="171" y="-116.5" font-family="Helvetica,sans-Serif" font-size="10.00" fill="#000000">cimg_library_suffixed</text>
<text text-anchor="middle" x="217.5" y="-105.5" font-family="Helvetica,sans-Serif" font-size="10.00" fill="#000000">::cimg::max</text>
</a>
</g>
</g>
<!-- Node4&#45;&gt;Node8 -->
<g id="edge4" class="edge">
<title>Node4&#45;&gt;Node8</title>
<path fill="none" stroke="#191970" d="M127.0268,-127.5997C135.6022,-126.2633 144.4076,-124.891 152.9997,-123.552"/>
<polygon fill="#191970" stroke="#191970" points="153.6198,-126.9977 162.9615,-121.9995 152.5418,-120.0812 153.6198,-126.9977"/>
</g>
<!-- Node10 -->
<g id="node7" class="node">
<title>Node10</title>
<g id="a_node7"><a xlink:href="namespacecimg__library__suffixed_1_1cimg.html#ad5459593e7f8a4066cb22ad63de8e92d" target="_top" xlink:title="Return the minimum between four values. ">
<polygon fill="#ffffff" stroke="#000000" points="163,-49.5 163,-79.5 272,-79.5 272,-49.5 163,-49.5"/>
<text text-anchor="start" x="171" y="-67.5" font-family="Helvetica,sans-Serif" font-size="10.00" fill="#000000">cimg_library_suffixed</text>
<text text-anchor="middle" x="217.5" y="-56.5" font-family="Helvetica,sans-Serif" font-size="10.00" fill="#000000">::cimg::min</text>
</a>
</g>
</g>
<!-- Node4&#45;&gt;Node10 -->
<g id="edge6" class="edge">
<title>Node4&#45;&gt;Node10</title>
<path fill="none" stroke="#191970" d="M105.5342,-116.9995C123.2376,-108.4233 144.0838,-98.4003 163,-89.5 166.8678,-87.6802 170.897,-85.8009 174.9363,-83.9282"/>
<polygon fill="#191970" stroke="#191970" points="176.6965,-86.9706 184.3085,-79.6011 173.7623,-80.6152 176.6965,-86.9706"/>
</g>
<!-- Node11 -->
<g id="node8" class="node">
<title>Node11</title>
<g id="a_node8"><a xlink:href="namespacecimg__library__suffixed.html#a00d0fd9a21d8d5e8a9fa4033593e6acf" target="_top" xlink:title="cimg_library_suffixed\l::sqrt">
<polygon fill="#ffffff" stroke="#000000" points="163,-.5 163,-30.5 272,-30.5 272,-.5 163,-.5"/>
<text text-anchor="start" x="171" y="-18.5" font-family="Helvetica,sans-Serif" font-size="10.00" fill="#000000">cimg_library_suffixed</text>
<text text-anchor="middle" x="217.5" y="-7.5" font-family="Helvetica,sans-Serif" font-size="10.00" fill="#000000">::sqrt</text>
</a>
</g>
</g>
<!-- Node4&#45;&gt;Node11 -->
<g id="edge7" class="edge">
<title>Node4&#45;&gt;Node11</title>
<path fill="none" stroke="#191970" d="M80.8595,-116.8135C99.4897,-95.5821 130.7748,-62.6117 163,-40.5 165.6609,-38.6742 168.4765,-36.924 171.3704,-35.2579"/>
<polygon fill="#191970" stroke="#191970" points="173.0497,-38.3289 180.2102,-30.5201 169.7429,-32.1592 173.0497,-38.3289"/>
</g>
<!-- Node9 -->
<g id="node6" class="node">
<title>Node9</title>
<g id="a_node6"><a xlink:href="namespacecimg__library__suffixed_1_1cimg.html#a4b4cabc621d732787bca13016ea8026a" target="_top" xlink:title="Return the maximum between four values. ">
<polygon fill="#ffffff" stroke="#000000" points="308,-98.5 308,-128.5 417,-128.5 417,-98.5 308,-98.5"/>
<text text-anchor="start" x="316" y="-116.5" font-family="Helvetica,sans-Serif" font-size="10.00" fill="#000000">cimg_library_suffixed</text>
<text text-anchor="middle" x="362.5" y="-105.5" font-family="Helvetica,sans-Serif" font-size="10.00" fill="#000000">::cimg::max</text>
</a>
</g>
</g>
<!-- Node8&#45;&gt;Node9 -->
<g id="edge5" class="edge">
<title>Node8&#45;&gt;Node9</title>
<path fill="none" stroke="#191970" d="M272.3183,-113.5C280.5286,-113.5 289.0611,-113.5 297.4586,-113.5"/>
<polygon fill="#191970" stroke="#191970" points="297.6042,-117.0001 307.6042,-113.5 297.6042,-110.0001 297.6042,-117.0001"/>
</g>
<!-- Node12 -->
<g id="node9" class="node">
<title>Node12</title>
<g id="a_node9"><a xlink:href="structcimg__library__suffixed_1_1_c_img.html#a550cfc014f80c68359d3b55a0d3803b9" target="_top" xlink:title="Compute the square root of each pixel value . ">
<polygon fill="#ffffff" stroke="#000000" points="308,-.5 308,-30.5 417,-30.5 417,-.5 308,-.5"/>
<text text-anchor="start" x="316" y="-18.5" font-family="Helvetica,sans-Serif" font-size="10.00" fill="#000000">cimg_library_suffixed</text>
<text text-anchor="middle" x="362.5" y="-7.5" font-family="Helvetica,sans-Serif" font-size="10.00" fill="#000000">::CImg::get_sqrt</text>
</a>
</g>
</g>
<!-- Node11&#45;&gt;Node12 -->
<g id="edge8" class="edge">
<title>Node11&#45;&gt;Node12</title>
<path fill="none" stroke="#191970" d="M272.3183,-15.5C280.5286,-15.5 289.0611,-15.5 297.4586,-15.5"/>
<polygon fill="#191970" stroke="#191970" points="297.6042,-19.0001 307.6042,-15.5 297.6042,-12.0001 297.6042,-19.0001"/>
</g>
</g>
</svg>
