<?xml version="1.0" encoding="UTF-8" standalone="no"?>
<!DOCTYPE svg PUBLIC "-//W3C//DTD SVG 1.1//EN"
 "http://www.w3.org/Graphics/SVG/1.1/DTD/svg11.dtd">
<!-- Generated by graphviz version 2.40.1 (20161225.0304)
 -->
<!-- Title: cimg_library_suffixed::CImgList::reverse_object3d Pages: 1 -->
<svg width="298pt" height="50pt"
 viewBox="0.00 0.00 298.00 50.00" xmlns="http://www.w3.org/2000/svg" xmlns:xlink="http://www.w3.org/1999/xlink">
<g id="graph0" class="graph" transform="scale(1 1) rotate(0) translate(4 46)">
<title>cimg_library_suffixed::CImgList::reverse_object3d</title>
<polygon fill="#ffffff" stroke="transparent" points="-4,4 -4,-46 294,-46 294,4 -4,4"/>
<!-- Node556 -->
<g id="node1" class="node">
<title>Node556</title>
<polygon fill="#bfbfbf" stroke="#000000" points="0,-6 0,-36 143,-36 143,-6 0,-6"/>
<text text-anchor="start" x="8" y="-24" font-family="Helvetica,sans-Serif" font-size="10.00" fill="#000000">cimg_library_suffixed</text>
<text text-anchor="middle" x="71.5" y="-13" font-family="Helvetica,sans-Serif" font-size="10.00" fill="#000000">::CImgList::reverse_object3d</text>
</g>
<!-- Node557 -->
<g id="node2" class="node">
<title>Node557</title>
<g id="a_node2"><a xlink:href="structcimg__library__suffixed_1_1_c_img_list.html#a4eda742fb0c915ef14c76dadf369554a" target="_top" xlink:title="Reverse primitives orientations of a 3d object . ">
<polygon fill="#ffffff" stroke="#000000" points="179,-.5 179,-41.5 290,-41.5 290,-.5 179,-.5"/>
<text text-anchor="start" x="187" y="-29.5" font-family="Helvetica,sans-Serif" font-size="10.00" fill="#000000">cimg_library_suffixed</text>
<text text-anchor="start" x="187" y="-18.5" font-family="Helvetica,sans-Serif" font-size="10.00" fill="#000000">::CImgList&lt; charT &gt;::</text>
<text text-anchor="middle" x="234.5" y="-7.5" font-family="Helvetica,sans-Serif" font-size="10.00" fill="#000000">get_reverse_object3d</text>
</a>
</g>
</g>
<!-- Node556&#45;&gt;Node557 -->
<g id="edge1" class="edge">
<title>Node556&#45;&gt;Node557</title>
<path fill="none" stroke="#191970" d="M153.718,-21C162.1363,-21 170.5443,-21 178.5828,-21"/>
<polygon fill="#191970" stroke="#191970" points="153.4687,-17.5001 143.4686,-21 153.4686,-24.5001 153.4687,-17.5001"/>
</g>
</g>
</svg>
