<?xml version="1.0" encoding="UTF-8" standalone="no"?>
<!DOCTYPE svg PUBLIC "-//W3C//DTD SVG 1.1//EN"
 "http://www.w3.org/Graphics/SVG/1.1/DTD/svg11.dtd">
<!-- Generated by graphviz version 2.40.1 (20161225.0304)
 -->
<!-- Title: cimg_library_suffixed::CImg::_cimg_math_parser::mp_kth Pages: 1 -->
<svg width="291pt" height="186pt"
 viewBox="0.00 0.00 291.00 186.00" xmlns="http://www.w3.org/2000/svg" xmlns:xlink="http://www.w3.org/1999/xlink">
<g id="graph0" class="graph" transform="scale(1 1) rotate(0) translate(4 182)">
<title>cimg_library_suffixed::CImg::_cimg_math_parser::mp_kth</title>
<polygon fill="#ffffff" stroke="transparent" points="-4,4 -4,-182 287,-182 287,4 -4,4"/>
<!-- Node644 -->
<g id="node1" class="node">
<title>Node644</title>
<polygon fill="#bfbfbf" stroke="#000000" points="0,-68 0,-109 138,-109 138,-68 0,-68"/>
<text text-anchor="start" x="8" y="-97" font-family="Helvetica,sans-Serif" font-size="10.00" fill="#000000">cimg_library_suffixed</text>
<text text-anchor="start" x="8" y="-86" font-family="Helvetica,sans-Serif" font-size="10.00" fill="#000000">::CImg::_cimg_math_parser</text>
<text text-anchor="middle" x="69" y="-75" font-family="Helvetica,sans-Serif" font-size="10.00" fill="#000000">::mp_kth</text>
</g>
<!-- Node645 -->
<g id="node2" class="node">
<title>Node645</title>
<g id="a_node2"><a xlink:href="structcimg__library__suffixed_1_1_c_img.html#a5a062592b78f33dd2813cc59985e61a2" target="_top" xlink:title="Return a pointer to the first pixel value. ">
<polygon fill="#ffffff" stroke="#000000" points="174,-147.5 174,-177.5 283,-177.5 283,-147.5 174,-147.5"/>
<text text-anchor="start" x="182" y="-165.5" font-family="Helvetica,sans-Serif" font-size="10.00" fill="#000000">cimg_library_suffixed</text>
<text text-anchor="middle" x="228.5" y="-154.5" font-family="Helvetica,sans-Serif" font-size="10.00" fill="#000000">::CImg::data</text>
</a>
</g>
</g>
<!-- Node644&#45;&gt;Node645 -->
<g id="edge1" class="edge">
<title>Node644&#45;&gt;Node645</title>
<path fill="none" stroke="#191970" d="M111.5239,-109.1005C130.5718,-118.2374 153.3499,-129.039 174,-138.5 177.3954,-140.0556 180.9178,-141.6501 184.4638,-143.2416"/>
<polygon fill="#191970" stroke="#191970" points="183.2752,-146.5437 193.8339,-147.4182 186.1251,-140.1501 183.2752,-146.5437"/>
</g>
<!-- Node646 -->
<g id="node3" class="node">
<title>Node646</title>
<g id="a_node3"><a xlink:href="namespacecimg__library__suffixed_1_1cimg.html#a4b4cabc621d732787bca13016ea8026a" target="_top" xlink:title="Return the maximum between four values. ">
<polygon fill="#ffffff" stroke="#000000" points="174,-98.5 174,-128.5 283,-128.5 283,-98.5 174,-98.5"/>
<text text-anchor="start" x="182" y="-116.5" font-family="Helvetica,sans-Serif" font-size="10.00" fill="#000000">cimg_library_suffixed</text>
<text text-anchor="middle" x="228.5" y="-105.5" font-family="Helvetica,sans-Serif" font-size="10.00" fill="#000000">::cimg::max</text>
</a>
</g>
</g>
<!-- Node644&#45;&gt;Node646 -->
<g id="edge2" class="edge">
<title>Node644&#45;&gt;Node646</title>
<path fill="none" stroke="#191970" d="M138.0314,-99.32C146.5309,-100.6522 155.1959,-102.0103 163.6306,-103.3324"/>
<polygon fill="#191970" stroke="#191970" points="163.3569,-106.8321 173.7783,-104.9229 164.4409,-99.9166 163.3569,-106.8321"/>
</g>
<!-- Node647 -->
<g id="node4" class="node">
<title>Node647</title>
<g id="a_node4"><a xlink:href="namespacecimg__library__suffixed_1_1cimg.html#ad5459593e7f8a4066cb22ad63de8e92d" target="_top" xlink:title="Return the minimum between four values. ">
<polygon fill="#ffffff" stroke="#000000" points="174,-49.5 174,-79.5 283,-79.5 283,-49.5 174,-49.5"/>
<text text-anchor="start" x="182" y="-67.5" font-family="Helvetica,sans-Serif" font-size="10.00" fill="#000000">cimg_library_suffixed</text>
<text text-anchor="middle" x="228.5" y="-56.5" font-family="Helvetica,sans-Serif" font-size="10.00" fill="#000000">::cimg::min</text>
</a>
</g>
</g>
<!-- Node644&#45;&gt;Node647 -->
<g id="edge3" class="edge">
<title>Node644&#45;&gt;Node647</title>
<path fill="none" stroke="#191970" d="M138.0314,-78.1128C146.5309,-76.8339 155.1959,-75.5301 163.6306,-74.2609"/>
<polygon fill="#191970" stroke="#191970" points="164.4104,-77.6831 173.7783,-72.734 163.3688,-70.761 164.4104,-77.6831"/>
</g>
<!-- Node648 -->
<g id="node5" class="node">
<title>Node648</title>
<g id="a_node5"><a xlink:href="namespacecimg__library__suffixed_1_1cimg.html#a7bed9b422eb303150d7abb503e7201fc" target="_top" xlink:title="cimg_library_suffixed\l::cimg::round">
<polygon fill="#ffffff" stroke="#000000" points="174,-.5 174,-30.5 283,-30.5 283,-.5 174,-.5"/>
<text text-anchor="start" x="182" y="-18.5" font-family="Helvetica,sans-Serif" font-size="10.00" fill="#000000">cimg_library_suffixed</text>
<text text-anchor="middle" x="228.5" y="-7.5" font-family="Helvetica,sans-Serif" font-size="10.00" fill="#000000">::cimg::round</text>
</a>
</g>
</g>
<!-- Node644&#45;&gt;Node648 -->
<g id="edge4" class="edge">
<title>Node644&#45;&gt;Node648</title>
<path fill="none" stroke="#191970" d="M113.8541,-67.9712C136.5899,-57.5655 164.039,-45.0025 186.3779,-34.7785"/>
<polygon fill="#191970" stroke="#191970" points="187.9739,-37.8972 195.6102,-30.553 185.0607,-31.5322 187.9739,-37.8972"/>
</g>
</g>
</svg>
