<?xml version="1.0" encoding="UTF-8" standalone="no"?>
<!DOCTYPE svg PUBLIC "-//W3C//DTD SVG 1.1//EN"
 "http://www.w3.org/Graphics/SVG/1.1/DTD/svg11.dtd">
<!-- Generated by graphviz version 2.40.1 (20161225.0304)
 -->
<!-- Title: cimg_library_suffixed::CImg::max Pages: 1 -->
<svg width="286pt" height="149pt"
 viewBox="0.00 0.00 286.00 149.00" xmlns="http://www.w3.org/2000/svg" xmlns:xlink="http://www.w3.org/1999/xlink">
<g id="graph0" class="graph" transform="scale(1 1) rotate(0) translate(4 145)">
<title>cimg_library_suffixed::CImg::max</title>
<polygon fill="#ffffff" stroke="transparent" points="-4,4 -4,-145 282,-145 282,4 -4,4"/>
<!-- Node2477 -->
<g id="node1" class="node">
<title>Node2477</title>
<polygon fill="#bfbfbf" stroke="#000000" points="0,-55.5 0,-85.5 109,-85.5 109,-55.5 0,-55.5"/>
<text text-anchor="start" x="8" y="-73.5" font-family="Helvetica,sans-Serif" font-size="10.00" fill="#000000">cimg_library_suffixed</text>
<text text-anchor="middle" x="54.5" y="-62.5" font-family="Helvetica,sans-Serif" font-size="10.00" fill="#000000">::CImg::max</text>
</g>
<!-- Node2478 -->
<g id="node2" class="node">
<title>Node2478</title>
<g id="a_node2"><a xlink:href="structcimg__library__suffixed_1_1_c_img.html#a3d57138627ba28a4ecf5fe4a54f23b41" target="_top" xlink:title="Pointwise max operator between instance image and a value . ">
<polygon fill="#ffffff" stroke="#000000" points="145,-110.5 145,-140.5 278,-140.5 278,-110.5 145,-110.5"/>
<text text-anchor="start" x="153" y="-128.5" font-family="Helvetica,sans-Serif" font-size="10.00" fill="#000000">cimg_library_suffixed</text>
<text text-anchor="middle" x="211.5" y="-117.5" font-family="Helvetica,sans-Serif" font-size="10.00" fill="#000000">::CImg&lt; charT &gt;::get_max</text>
</a>
</g>
</g>
<!-- Node2477&#45;&gt;Node2478 -->
<g id="edge1" class="edge">
<title>Node2477&#45;&gt;Node2478</title>
<path fill="none" stroke="#191970" d="M107.0047,-88.8934C127.039,-95.9117 149.6197,-103.8222 168.6509,-110.4892"/>
<polygon fill="#191970" stroke="#191970" points="107.9958,-85.5321 97.4009,-85.529 105.6814,-92.1384 107.9958,-85.5321"/>
</g>
<!-- Node2479 -->
<g id="node3" class="node">
<title>Node2479</title>
<g id="a_node3"><a xlink:href="structcimg__library__suffixed_1_1_c_img.html#a33c05bc335362b8e6bae9a516f28f8c0" target="_top" xlink:title="Compute the Moore&#45;Penrose pseudo&#45;inverse of the instance image, viewed as a matrix ...">
<polygon fill="#ffffff" stroke="#000000" points="157,-50 157,-91 266,-91 266,-50 157,-50"/>
<text text-anchor="start" x="165" y="-79" font-family="Helvetica,sans-Serif" font-size="10.00" fill="#000000">cimg_library_suffixed</text>
<text text-anchor="start" x="165" y="-68" font-family="Helvetica,sans-Serif" font-size="10.00" fill="#000000">::CImg&lt; charT &gt;::get</text>
<text text-anchor="middle" x="211.5" y="-57" font-family="Helvetica,sans-Serif" font-size="10.00" fill="#000000">_pseudoinvert</text>
</a>
</g>
</g>
<!-- Node2477&#45;&gt;Node2479 -->
<g id="edge2" class="edge">
<title>Node2477&#45;&gt;Node2479</title>
<path fill="none" stroke="#191970" d="M119.6714,-70.5C132.0471,-70.5 144.8781,-70.5 156.8851,-70.5"/>
<polygon fill="#191970" stroke="#191970" points="119.411,-67.0001 109.411,-70.5 119.4109,-74.0001 119.411,-67.0001"/>
</g>
<!-- Node2480 -->
<g id="node4" class="node">
<title>Node2480</title>
<g id="a_node4"><a xlink:href="structcimg__library__suffixed_1_1_c_img.html#ae884ac4a2168d7411b004a4e8c6869e5" target="_top" xlink:title="Sharpen image. ">
<polygon fill="#ffffff" stroke="#000000" points="146.5,-.5 146.5,-30.5 276.5,-30.5 276.5,-.5 146.5,-.5"/>
<text text-anchor="start" x="154.5" y="-18.5" font-family="Helvetica,sans-Serif" font-size="10.00" fill="#000000">cimg_library_suffixed</text>
<text text-anchor="middle" x="211.5" y="-7.5" font-family="Helvetica,sans-Serif" font-size="10.00" fill="#000000">::CImg&lt; charT &gt;::sharpen</text>
</a>
</g>
</g>
<!-- Node2477&#45;&gt;Node2480 -->
<g id="edge3" class="edge">
<title>Node2477&#45;&gt;Node2480</title>
<path fill="none" stroke="#191970" d="M107.0047,-52.1066C127.039,-45.0883 149.6197,-37.1778 168.6509,-30.5108"/>
<polygon fill="#191970" stroke="#191970" points="105.6814,-48.8616 97.4009,-55.471 107.9958,-55.4679 105.6814,-48.8616"/>
</g>
</g>
</svg>
