<?xml version="1.0" encoding="UTF-8" standalone="no"?>
<!DOCTYPE svg PUBLIC "-//W3C//DTD SVG 1.1//EN"
 "http://www.w3.org/Graphics/SVG/1.1/DTD/svg11.dtd">
<!-- Generated by graphviz version 2.40.1 (20161225.0304)
 -->
<!-- Title: cimg_library_suffixed::CImg::crop Pages: 1 -->
<svg width="291pt" height="100pt"
 viewBox="0.00 0.00 291.00 99.50" xmlns="http://www.w3.org/2000/svg" xmlns:xlink="http://www.w3.org/1999/xlink">
<g id="graph0" class="graph" transform="scale(1 1) rotate(0) translate(4 95.5)">
<title>cimg_library_suffixed::CImg::crop</title>
<polygon fill="#ffffff" stroke="transparent" points="-4,4 -4,-95.5 287,-95.5 287,4 -4,4"/>
<!-- Node658 -->
<g id="node1" class="node">
<title>Node658</title>
<polygon fill="#bfbfbf" stroke="#000000" points="0,-33 0,-63 109,-63 109,-33 0,-33"/>
<text text-anchor="start" x="8" y="-51" font-family="Helvetica,sans-Serif" font-size="10.00" fill="#000000">cimg_library_suffixed</text>
<text text-anchor="middle" x="54.5" y="-40" font-family="Helvetica,sans-Serif" font-size="10.00" fill="#000000">::CImg::crop</text>
</g>
<!-- Node659 -->
<g id="node2" class="node">
<title>Node659</title>
<g id="a_node2"><a xlink:href="structcimg__library__suffixed_1_1_c_img.html#aed98b23130078df5ad69b199d88bb261" target="_top" xlink:title="Correlate image by a kernel . ">
<polygon fill="#ffffff" stroke="#000000" points="145,-61 145,-91 283,-91 283,-61 145,-61"/>
<text text-anchor="start" x="153" y="-79" font-family="Helvetica,sans-Serif" font-size="10.00" fill="#000000">cimg_library_suffixed</text>
<text text-anchor="middle" x="214" y="-68" font-family="Helvetica,sans-Serif" font-size="10.00" fill="#000000">::CImg&lt; charT &gt;::_correlate</text>
</a>
</g>
</g>
<!-- Node658&#45;&gt;Node659 -->
<g id="edge1" class="edge">
<title>Node658&#45;&gt;Node659</title>
<path fill="none" stroke="#191970" d="M119.4793,-59.407C127.8632,-60.8788 136.4728,-62.3902 144.9198,-63.8731"/>
<polygon fill="#191970" stroke="#191970" points="119.8454,-55.9179 109.3909,-57.636 118.635,-62.8124 119.8454,-55.9179"/>
</g>
<!-- Node660 -->
<g id="node3" class="node">
<title>Node660</title>
<g id="a_node3"><a xlink:href="structcimg__library__suffixed_1_1_c_img.html#ad8ca8eae0dbb8b4a6a8131ca1fef4bff" target="_top" xlink:title="Return a C&#45;string containing a list of all values of the image instance. ">
<polygon fill="#ffffff" stroke="#000000" points="154.5,-.5 154.5,-41.5 273.5,-41.5 273.5,-.5 154.5,-.5"/>
<text text-anchor="start" x="162.5" y="-29.5" font-family="Helvetica,sans-Serif" font-size="10.00" fill="#000000">cimg_library_suffixed</text>
<text text-anchor="start" x="162.5" y="-18.5" font-family="Helvetica,sans-Serif" font-size="10.00" fill="#000000">::CImg&lt; charT &gt;::value</text>
<text text-anchor="middle" x="214" y="-7.5" font-family="Helvetica,sans-Serif" font-size="10.00" fill="#000000">_string</text>
</a>
</g>
</g>
<!-- Node658&#45;&gt;Node660 -->
<g id="edge2" class="edge">
<title>Node658&#45;&gt;Node660</title>
<path fill="none" stroke="#191970" d="M119.414,-37.0114C130.9752,-35.0544 142.9675,-33.0243 154.3724,-31.0937"/>
<polygon fill="#191970" stroke="#191970" points="118.6664,-33.5881 109.3909,-38.7081 119.8348,-40.4899 118.6664,-33.5881"/>
</g>
</g>
</svg>
