<?xml version="1.0" encoding="UTF-8" standalone="no"?>
<!DOCTYPE svg PUBLIC "-//W3C//DTD SVG 1.1//EN"
 "http://www.w3.org/Graphics/SVG/1.1/DTD/svg11.dtd">
<!-- Generated by graphviz version 2.40.1 (20161225.0304)
 -->
<!-- Title: cimg_library_suffixed::CImgDisplay::key Pages: 1 -->
<svg width="314pt" height="430pt"
 viewBox="0.00 0.00 314.00 429.50" xmlns="http://www.w3.org/2000/svg" xmlns:xlink="http://www.w3.org/1999/xlink">
<g id="graph0" class="graph" transform="scale(1 1) rotate(0) translate(4 425.5)">
<title>cimg_library_suffixed::CImgDisplay::key</title>
<polygon fill="#ffffff" stroke="transparent" points="-4,4 -4,-425.5 310,-425.5 310,4 -4,4"/>
<!-- Node340 -->
<g id="node1" class="node">
<title>Node340</title>
<polygon fill="#bfbfbf" stroke="#000000" points="0,-198 0,-228 109,-228 109,-198 0,-198"/>
<text text-anchor="start" x="8" y="-216" font-family="Helvetica,sans-Serif" font-size="10.00" fill="#000000">cimg_library_suffixed</text>
<text text-anchor="middle" x="54.5" y="-205" font-family="Helvetica,sans-Serif" font-size="10.00" fill="#000000">::CImgDisplay::key</text>
</g>
<!-- Node341 -->
<g id="node2" class="node">
<title>Node341</title>
<g id="a_node2"><a xlink:href="structcimg__library__suffixed_1_1_c_img.html#adf9d80c60e82b079056c31cb0fe61faf" target="_top" xlink:title="cimg_library_suffixed\l::CImg\&lt; charT \&gt;::_display">
<polygon fill="#ffffff" stroke="#000000" points="160,-391 160,-421 291,-421 291,-391 160,-391"/>
<text text-anchor="start" x="168" y="-409" font-family="Helvetica,sans-Serif" font-size="10.00" fill="#000000">cimg_library_suffixed</text>
<text text-anchor="middle" x="225.5" y="-398" font-family="Helvetica,sans-Serif" font-size="10.00" fill="#000000">::CImg&lt; charT &gt;::_display</text>
</a>
</g>
</g>
<!-- Node340&#45;&gt;Node341 -->
<g id="edge1" class="edge">
<title>Node340&#45;&gt;Node341</title>
<path fill="none" stroke="#191970" d="M61.3099,-237.9209C72.6022,-274.5917 98.6798,-342.8561 145,-381 149.7447,-384.9071 155.0992,-388.2052 160.7359,-390.9888"/>
<polygon fill="#191970" stroke="#191970" points="64.5821,-236.6433 58.3928,-228.0443 57.8688,-238.6261 64.5821,-236.6433"/>
</g>
<!-- Node342 -->
<g id="node3" class="node">
<title>Node342</title>
<g id="a_node3"><a xlink:href="structcimg__library__suffixed_1_1_c_img_list.html#af514efa37d021bd02a95186531139a38" target="_top" xlink:title="cimg_library_suffixed\l::CImgList\&lt; charT \&gt;::\l_display">
<polygon fill="#ffffff" stroke="#000000" points="170,-330.5 170,-371.5 281,-371.5 281,-330.5 170,-330.5"/>
<text text-anchor="start" x="178" y="-359.5" font-family="Helvetica,sans-Serif" font-size="10.00" fill="#000000">cimg_library_suffixed</text>
<text text-anchor="start" x="178" y="-348.5" font-family="Helvetica,sans-Serif" font-size="10.00" fill="#000000">::CImgList&lt; charT &gt;::</text>
<text text-anchor="middle" x="225.5" y="-337.5" font-family="Helvetica,sans-Serif" font-size="10.00" fill="#000000">_display</text>
</a>
</g>
</g>
<!-- Node340&#45;&gt;Node342 -->
<g id="edge2" class="edge">
<title>Node340&#45;&gt;Node342</title>
<path fill="none" stroke="#191970" d="M68.9732,-236.621C84.8971,-260.8356 112.5784,-298.0964 145,-321 152.5526,-326.3354 161.1686,-330.8461 169.89,-334.6187"/>
<polygon fill="#191970" stroke="#191970" points="71.809,-234.5596 63.4605,-228.0364 65.9189,-238.3421 71.809,-234.5596"/>
</g>
<!-- Node343 -->
<g id="node4" class="node">
<title>Node343</title>
<g id="a_node4"><a xlink:href="structcimg__library__suffixed_1_1_c_img.html#a39224c81542abc157318e64a6df11fdf" target="_top" xlink:title="cimg_library_suffixed\l::CImg\&lt; charT \&gt;::_display_graph">
<polygon fill="#ffffff" stroke="#000000" points="145,-281 145,-311 306,-311 306,-281 145,-281"/>
<text text-anchor="start" x="153" y="-299" font-family="Helvetica,sans-Serif" font-size="10.00" fill="#000000">cimg_library_suffixed</text>
<text text-anchor="middle" x="225.5" y="-288" font-family="Helvetica,sans-Serif" font-size="10.00" fill="#000000">::CImg&lt; charT &gt;::_display_graph</text>
</a>
</g>
</g>
<!-- Node340&#45;&gt;Node343 -->
<g id="edge3" class="edge">
<title>Node340&#45;&gt;Node343</title>
<path fill="none" stroke="#191970" d="M82.9295,-234.0391C100.2098,-246.0962 123.0999,-260.8092 145,-271 152.9608,-274.7044 161.612,-278.0456 170.1926,-280.9905"/>
<polygon fill="#191970" stroke="#191970" points="84.6201,-230.9472 74.4394,-228.0142 80.569,-236.6558 84.6201,-230.9472"/>
</g>
<!-- Node344 -->
<g id="node5" class="node">
<title>Node344</title>
<g id="a_node5"><a xlink:href="structcimg__library__suffixed_1_1_c_img.html#a8b40db5a9818c3f961a90840b271de6c" target="_top" xlink:title="cimg_library_suffixed\l::CImg\&lt; charT \&gt;::_display\l_object3d">
<polygon fill="#ffffff" stroke="#000000" points="160,-220.5 160,-261.5 291,-261.5 291,-220.5 160,-220.5"/>
<text text-anchor="start" x="168" y="-249.5" font-family="Helvetica,sans-Serif" font-size="10.00" fill="#000000">cimg_library_suffixed</text>
<text text-anchor="start" x="168" y="-238.5" font-family="Helvetica,sans-Serif" font-size="10.00" fill="#000000">::CImg&lt; charT &gt;::_display</text>
<text text-anchor="middle" x="225.5" y="-227.5" font-family="Helvetica,sans-Serif" font-size="10.00" fill="#000000">_object3d</text>
</a>
</g>
</g>
<!-- Node340&#45;&gt;Node344 -->
<g id="edge4" class="edge">
<title>Node340&#45;&gt;Node344</title>
<path fill="none" stroke="#191970" d="M119.0902,-223.5762C132.4,-225.7556 146.4301,-228.0529 159.7796,-230.2388"/>
<polygon fill="#191970" stroke="#191970" points="119.5098,-220.0983 109.0756,-221.9364 118.3786,-227.0064 119.5098,-220.0983"/>
</g>
<!-- Node345 -->
<g id="node6" class="node">
<title>Node345</title>
<g id="a_node6"><a xlink:href="structcimg__library__suffixed_1_1_c_img.html#ad9b7141242d0b6e861a8014112ddb5b5" target="_top" xlink:title="cimg_library_suffixed\l::CImg\&lt; charT \&gt;::_select">
<polygon fill="#ffffff" stroke="#000000" points="162,-171 162,-201 289,-201 289,-171 162,-171"/>
<text text-anchor="start" x="170" y="-189" font-family="Helvetica,sans-Serif" font-size="10.00" fill="#000000">cimg_library_suffixed</text>
<text text-anchor="middle" x="225.5" y="-178" font-family="Helvetica,sans-Serif" font-size="10.00" fill="#000000">::CImg&lt; charT &gt;::_select</text>
</a>
</g>
</g>
<!-- Node340&#45;&gt;Node345 -->
<g id="edge5" class="edge">
<title>Node340&#45;&gt;Node345</title>
<path fill="none" stroke="#191970" d="M119.1139,-202.7978C133.1253,-200.5855 147.9339,-198.2473 161.9057,-196.0412"/>
<polygon fill="#191970" stroke="#191970" points="118.4074,-199.3659 109.0756,-204.3828 119.4991,-206.2803 118.4074,-199.3659"/>
</g>
<!-- Node346 -->
<g id="node7" class="node">
<title>Node346</title>
<g id="a_node7"><a xlink:href="structcimg__library__suffixed_1_1_c_img_list.html#af8a6b01f20b2d459e5abe6b99836ea9a" target="_top" xlink:title="cimg_library_suffixed\l::CImgList\&lt; charT \&gt;::\l_select">
<polygon fill="#ffffff" stroke="#000000" points="170,-110.5 170,-151.5 281,-151.5 281,-110.5 170,-110.5"/>
<text text-anchor="start" x="178" y="-139.5" font-family="Helvetica,sans-Serif" font-size="10.00" fill="#000000">cimg_library_suffixed</text>
<text text-anchor="start" x="178" y="-128.5" font-family="Helvetica,sans-Serif" font-size="10.00" fill="#000000">::CImgList&lt; charT &gt;::</text>
<text text-anchor="middle" x="225.5" y="-117.5" font-family="Helvetica,sans-Serif" font-size="10.00" fill="#000000">_select</text>
</a>
</g>
</g>
<!-- Node340&#45;&gt;Node346 -->
<g id="edge6" class="edge">
<title>Node340&#45;&gt;Node346</title>
<path fill="none" stroke="#191970" d="M87.8479,-192.6676C104.6769,-182.806 125.5913,-171.1463 145,-162 152.8574,-158.2972 161.2865,-154.681 169.625,-151.3022"/>
<polygon fill="#191970" stroke="#191970" points="85.7756,-189.8271 78.9543,-197.9339 89.3423,-195.8503 85.7756,-189.8271"/>
</g>
<!-- Node347 -->
<g id="node8" class="node">
<title>Node347</title>
<g id="a_node8"><a xlink:href="namespacecimg__library__suffixed_1_1cimg.html#a11aed0e6b30d75bf50946ee78d1aed94" target="_top" xlink:title="Display a simple dialog box, and wait for the user&#39;s response. ">
<polygon fill="#ffffff" stroke="#000000" points="171,-61 171,-91 280,-91 280,-61 171,-61"/>
<text text-anchor="start" x="179" y="-79" font-family="Helvetica,sans-Serif" font-size="10.00" fill="#000000">cimg_library_suffixed</text>
<text text-anchor="middle" x="225.5" y="-68" font-family="Helvetica,sans-Serif" font-size="10.00" fill="#000000">::cimg::dialog</text>
</a>
</g>
</g>
<!-- Node340&#45;&gt;Node347 -->
<g id="edge7" class="edge">
<title>Node340&#45;&gt;Node347</title>
<path fill="none" stroke="#191970" d="M67.803,-189.2757C83.2167,-163.8787 110.9153,-124.1262 145,-101 152.7503,-95.7415 161.6567,-91.5497 170.6568,-88.22"/>
<polygon fill="#191970" stroke="#191970" points="64.7658,-187.5359 62.6911,-197.9256 70.7921,-191.0973 64.7658,-187.5359"/>
</g>
<!-- Node348 -->
<g id="node9" class="node">
<title>Node348</title>
<g id="a_node9"><a xlink:href="structcimg__library__suffixed_1_1_c_img.html#a689f47424dc7c548ebfe53e431409199" target="_top" xlink:title="Select sub&#45;graph in a graph. ">
<polygon fill="#ffffff" stroke="#000000" points="171,-.5 171,-41.5 280,-41.5 280,-.5 171,-.5"/>
<text text-anchor="start" x="179" y="-29.5" font-family="Helvetica,sans-Serif" font-size="10.00" fill="#000000">cimg_library_suffixed</text>
<text text-anchor="start" x="179" y="-18.5" font-family="Helvetica,sans-Serif" font-size="10.00" fill="#000000">::CImg&lt; charT &gt;::get</text>
<text text-anchor="middle" x="225.5" y="-7.5" font-family="Helvetica,sans-Serif" font-size="10.00" fill="#000000">_select_graph</text>
</a>
</g>
</g>
<!-- Node340&#45;&gt;Node348 -->
<g id="edge8" class="edge">
<title>Node340&#45;&gt;Node348</title>
<path fill="none" stroke="#191970" d="M62.4525,-187.9814C74.7821,-152.9685 101.7049,-89.4509 145,-52 152.4755,-45.5336 161.4471,-40.3409 170.6465,-36.195"/>
<polygon fill="#191970" stroke="#191970" points="58.9952,-187.2775 59.0926,-197.8719 65.6232,-189.5291 58.9952,-187.2775"/>
</g>
</g>
</svg>
