<?xml version="1.0" encoding="UTF-8" standalone="no"?>
<!DOCTYPE svg PUBLIC "-//W3C//DTD SVG 1.1//EN"
 "http://www.w3.org/Graphics/SVG/1.1/DTD/svg11.dtd">
<!-- Generated by graphviz version 2.40.1 (20161225.0304)
 -->
<!-- Title: cimg_library_suffixed::CImg::min Pages: 1 -->
<svg width="283pt" height="100pt"
 viewBox="0.00 0.00 283.00 99.50" xmlns="http://www.w3.org/2000/svg" xmlns:xlink="http://www.w3.org/1999/xlink">
<g id="graph0" class="graph" transform="scale(1 1) rotate(0) translate(4 95.5)">
<title>cimg_library_suffixed::CImg::min</title>
<polygon fill="#ffffff" stroke="transparent" points="-4,4 -4,-95.5 279,-95.5 279,4 -4,4"/>
<!-- Node2509 -->
<g id="node1" class="node">
<title>Node2509</title>
<polygon fill="#bfbfbf" stroke="#000000" points="0,-33 0,-63 109,-63 109,-33 0,-33"/>
<text text-anchor="start" x="8" y="-51" font-family="Helvetica,sans-Serif" font-size="10.00" fill="#000000">cimg_library_suffixed</text>
<text text-anchor="middle" x="54.5" y="-40" font-family="Helvetica,sans-Serif" font-size="10.00" fill="#000000">::CImg::min</text>
</g>
<!-- Node2510 -->
<g id="node2" class="node">
<title>Node2510</title>
<g id="a_node2"><a xlink:href="structcimg__library__suffixed_1_1_c_img.html#a379e7b2b7c6727428ee9f8d18c30e1b4" target="_top" xlink:title="Pointwise min operator between instance image and a value . ">
<polygon fill="#ffffff" stroke="#000000" points="145,-61 145,-91 275,-91 275,-61 145,-61"/>
<text text-anchor="start" x="153" y="-79" font-family="Helvetica,sans-Serif" font-size="10.00" fill="#000000">cimg_library_suffixed</text>
<text text-anchor="middle" x="210" y="-68" font-family="Helvetica,sans-Serif" font-size="10.00" fill="#000000">::CImg&lt; charT &gt;::get_min</text>
</a>
</g>
</g>
<!-- Node2509&#45;&gt;Node2510 -->
<g id="edge1" class="edge">
<title>Node2509&#45;&gt;Node2510</title>
<path fill="none" stroke="#191970" d="M119.4125,-59.6884C127.789,-61.1967 136.37,-62.7419 144.7519,-64.2511"/>
<polygon fill="#191970" stroke="#191970" points="119.7855,-56.1994 109.3235,-57.8718 118.5449,-63.0886 119.7855,-56.1994"/>
</g>
<!-- Node2511 -->
<g id="node3" class="node">
<title>Node2511</title>
<g id="a_node3"><a xlink:href="structcimg__library__suffixed_1_1_c_img.html#a1774ac5f65cb510394e8f04b2a8881e7" target="_top" xlink:title="Generate a 2d representation of a 3d image, with XY,XZ and YZ views. ">
<polygon fill="#ffffff" stroke="#000000" points="155.5,-.5 155.5,-41.5 264.5,-41.5 264.5,-.5 155.5,-.5"/>
<text text-anchor="start" x="163.5" y="-29.5" font-family="Helvetica,sans-Serif" font-size="10.00" fill="#000000">cimg_library_suffixed</text>
<text text-anchor="start" x="163.5" y="-18.5" font-family="Helvetica,sans-Serif" font-size="10.00" fill="#000000">::CImg&lt; charT &gt;::get</text>
<text text-anchor="middle" x="210" y="-7.5" font-family="Helvetica,sans-Serif" font-size="10.00" fill="#000000">_projections2d</text>
</a>
</g>
</g>
<!-- Node2509&#45;&gt;Node2511 -->
<g id="edge2" class="edge">
<title>Node2509&#45;&gt;Node2511</title>
<path fill="none" stroke="#191970" d="M119.2881,-36.7506C131.3008,-34.6648 143.7384,-32.5052 155.4097,-30.4787"/>
<polygon fill="#191970" stroke="#191970" points="118.5773,-33.3216 109.3235,-38.4808 119.7749,-40.2184 118.5773,-33.3216"/>
</g>
</g>
</svg>
