<?xml version="1.0" encoding="UTF-8" standalone="no"?>
<!DOCTYPE svg PUBLIC "-//W3C//DTD SVG 1.1//EN"
 "http://www.w3.org/Graphics/SVG/1.1/DTD/svg11.dtd">
<!-- Generated by graphviz version 2.40.1 (20161225.0304)
 -->
<!-- Title: cimg_library_suffixed::cimg::type::inf Pages: 1 -->
<svg width="293pt" height="210pt"
 viewBox="0.00 0.00 293.00 209.50" xmlns="http://www.w3.org/2000/svg" xmlns:xlink="http://www.w3.org/1999/xlink">
<g id="graph0" class="graph" transform="scale(1 1) rotate(0) translate(4 205.5)">
<title>cimg_library_suffixed::cimg::type::inf</title>
<polygon fill="#ffffff" stroke="transparent" points="-4,4 -4,-205.5 289,-205.5 289,4 -4,4"/>
<!-- Node26 -->
<g id="node1" class="node">
<title>Node26</title>
<polygon fill="#bfbfbf" stroke="#000000" points="0,-82.5 0,-112.5 109,-112.5 109,-82.5 0,-82.5"/>
<text text-anchor="start" x="8" y="-100.5" font-family="Helvetica,sans-Serif" font-size="10.00" fill="#000000">cimg_library_suffixed</text>
<text text-anchor="middle" x="54.5" y="-89.5" font-family="Helvetica,sans-Serif" font-size="10.00" fill="#000000">::cimg::type::inf</text>
</g>
<!-- Node27 -->
<g id="node2" class="node">
<title>Node27</title>
<g id="a_node2"><a xlink:href="structcimg__library__suffixed_1_1_c_img_1_1__cimg__math__parser.html#a318c44c5d1f4f0114355f37ace87a4ae" target="_top" xlink:title="cimg_library_suffixed\l::CImg::_cimg_math_parser\l::compile">
<polygon fill="#ffffff" stroke="#000000" points="146,-160 146,-201 284,-201 284,-160 146,-160"/>
<text text-anchor="start" x="154" y="-189" font-family="Helvetica,sans-Serif" font-size="10.00" fill="#000000">cimg_library_suffixed</text>
<text text-anchor="start" x="154" y="-178" font-family="Helvetica,sans-Serif" font-size="10.00" fill="#000000">::CImg::_cimg_math_parser</text>
<text text-anchor="middle" x="215" y="-167" font-family="Helvetica,sans-Serif" font-size="10.00" fill="#000000">::compile</text>
</a>
</g>
</g>
<!-- Node26&#45;&gt;Node27 -->
<g id="edge1" class="edge">
<title>Node26&#45;&gt;Node27</title>
<path fill="none" stroke="#191970" d="M87.1937,-117.9789C104.1582,-128.2616 125.3868,-140.6027 145,-150.5 151.3742,-153.7166 158.1739,-156.911 164.936,-159.9495"/>
<polygon fill="#191970" stroke="#191970" points="88.6023,-114.7377 78.245,-112.5066 84.9503,-120.7096 88.6023,-114.7377"/>
</g>
<!-- Node28 -->
<g id="node3" class="node">
<title>Node28</title>
<g id="a_node3"><a xlink:href="structcimg__library__suffixed_1_1cimg_1_1type_3_01float_01_4.html#a89b8e71b517e78f30371af6b94034542" target="_top" xlink:title="cimg_library_suffixed\l::cimg::type\&lt; float \&gt;::inf">
<polygon fill="#ffffff" stroke="#000000" points="154,-110.5 154,-140.5 276,-140.5 276,-110.5 154,-110.5"/>
<text text-anchor="start" x="162" y="-128.5" font-family="Helvetica,sans-Serif" font-size="10.00" fill="#000000">cimg_library_suffixed</text>
<text text-anchor="middle" x="215" y="-117.5" font-family="Helvetica,sans-Serif" font-size="10.00" fill="#000000">::cimg::type&lt; float &gt;::inf</text>
</a>
</g>
</g>
<!-- Node26&#45;&gt;Node28 -->
<g id="edge2" class="edge">
<title>Node26&#45;&gt;Node28</title>
<path fill="none" stroke="#191970" d="M119.2004,-108.7873C130.6386,-110.7827 142.515,-112.8546 153.8514,-114.8323"/>
<polygon fill="#191970" stroke="#191970" points="119.7388,-105.3284 109.2861,-107.0577 118.5358,-112.2243 119.7388,-105.3284"/>
</g>
<!-- Node29 -->
<g id="node4" class="node">
<title>Node29</title>
<g id="a_node4"><a xlink:href="structcimg__library__suffixed_1_1_c_img_1_1__cimg__math__parser.html#aee12d443bb77c1a9e08f712491bf90c5" target="_top" xlink:title="cimg_library_suffixed\l::CImg::_cimg_math_parser\l::mp_stov">
<polygon fill="#ffffff" stroke="#000000" points="146,-50 146,-91 284,-91 284,-50 146,-50"/>
<text text-anchor="start" x="154" y="-79" font-family="Helvetica,sans-Serif" font-size="10.00" fill="#000000">cimg_library_suffixed</text>
<text text-anchor="start" x="154" y="-68" font-family="Helvetica,sans-Serif" font-size="10.00" fill="#000000">::CImg::_cimg_math_parser</text>
<text text-anchor="middle" x="215" y="-57" font-family="Helvetica,sans-Serif" font-size="10.00" fill="#000000">::mp_stov</text>
</a>
</g>
</g>
<!-- Node26&#45;&gt;Node29 -->
<g id="edge3" class="edge">
<title>Node26&#45;&gt;Node29</title>
<path fill="none" stroke="#191970" d="M119.4154,-86.5796C128.1653,-85.1077 137.1678,-83.5933 145.9857,-82.1099"/>
<polygon fill="#191970" stroke="#191970" points="118.5669,-83.1731 109.2861,-88.2836 119.7282,-90.0761 118.5669,-83.1731"/>
</g>
<!-- Node30 -->
<g id="node5" class="node">
<title>Node30</title>
<g id="a_node5"><a xlink:href="structcimg__library__suffixed_1_1_c_img.html#a6c93c9f308c168756831884f1aa829af" target="_top" xlink:title="Compute watershed transform. ">
<polygon fill="#ffffff" stroke="#000000" points="145,-.5 145,-30.5 285,-30.5 285,-.5 145,-.5"/>
<text text-anchor="start" x="153" y="-18.5" font-family="Helvetica,sans-Serif" font-size="10.00" fill="#000000">cimg_library_suffixed</text>
<text text-anchor="middle" x="215" y="-7.5" font-family="Helvetica,sans-Serif" font-size="10.00" fill="#000000">::CImg&lt; charT &gt;::watershed</text>
</a>
</g>
</g>
<!-- Node26&#45;&gt;Node30 -->
<g id="edge4" class="edge">
<title>Node26&#45;&gt;Node30</title>
<path fill="none" stroke="#191970" d="M84.1724,-76.4887C101.3947,-64.8941 123.8114,-50.8019 145,-40.5 152.3115,-36.9452 160.2637,-33.6259 168.0985,-30.6416"/>
<polygon fill="#191970" stroke="#191970" points="81.959,-73.7619 75.6737,-82.291 85.906,-79.5431 81.959,-73.7619"/>
</g>
</g>
</svg>
