<?xml version="1.0" encoding="UTF-8" standalone="no"?>
<!DOCTYPE svg PUBLIC "-//W3C//DTD SVG 1.1//EN"
 "http://www.w3.org/Graphics/SVG/1.1/DTD/svg11.dtd">
<!-- Generated by graphviz version 2.40.1 (20161225.0304)
 -->
<!-- Title: cimg_library_suffixed::CImg::symmetric_eigen Pages: 1 -->
<svg width="312pt" height="100pt"
 viewBox="0.00 0.00 312.00 99.50" xmlns="http://www.w3.org/2000/svg" xmlns:xlink="http://www.w3.org/1999/xlink">
<g id="graph0" class="graph" transform="scale(1 1) rotate(0) translate(4 95.5)">
<title>cimg_library_suffixed::CImg::symmetric_eigen</title>
<polygon fill="#ffffff" stroke="transparent" points="-4,4 -4,-95.5 308,-95.5 308,4 -4,4"/>
<!-- Node3335 -->
<g id="node1" class="node">
<title>Node3335</title>
<polygon fill="#bfbfbf" stroke="#000000" points="0,-33 0,-63 127,-63 127,-33 0,-33"/>
<text text-anchor="start" x="8" y="-51" font-family="Helvetica,sans-Serif" font-size="10.00" fill="#000000">cimg_library_suffixed</text>
<text text-anchor="middle" x="63.5" y="-40" font-family="Helvetica,sans-Serif" font-size="10.00" fill="#000000">::CImg::symmetric_eigen</text>
</g>
<!-- Node3336 -->
<g id="node2" class="node">
<title>Node3336</title>
<g id="a_node2"><a xlink:href="structcimg__library__suffixed_1_1_c_img.html#a0b8b15895c6d7bf28afb1878ee6cb122" target="_top" xlink:title="Generate a 3d ellipsoid. ">
<polygon fill="#ffffff" stroke="#000000" points="163,-61 163,-91 304,-91 304,-61 163,-61"/>
<text text-anchor="start" x="171" y="-79" font-family="Helvetica,sans-Serif" font-size="10.00" fill="#000000">cimg_library_suffixed</text>
<text text-anchor="middle" x="233.5" y="-68" font-family="Helvetica,sans-Serif" font-size="10.00" fill="#000000">::CImg&lt; charT &gt;::ellipsoid3d</text>
</a>
</g>
</g>
<!-- Node3335&#45;&gt;Node3336 -->
<g id="edge1" class="edge">
<title>Node3335&#45;&gt;Node3336</title>
<path fill="none" stroke="#191970" d="M137.1756,-60.1348C145.6787,-61.5353 154.3357,-62.9612 162.798,-64.355"/>
<polygon fill="#191970" stroke="#191970" points="137.7213,-56.6776 127.2854,-58.5058 136.5836,-63.5845 137.7213,-56.6776"/>
</g>
<!-- Node3337 -->
<g id="node3" class="node">
<title>Node3337</title>
<g id="a_node3"><a xlink:href="structcimg__library__suffixed_1_1_c_img_1_1__cimg__math__parser.html#a3dffc597ff9c370f441b0290b0fe0db2" target="_top" xlink:title="cimg_library_suffixed\l::CImg::_cimg_math_parser\l::mp_matrix_eig">
<polygon fill="#ffffff" stroke="#000000" points="164.5,-.5 164.5,-41.5 302.5,-41.5 302.5,-.5 164.5,-.5"/>
<text text-anchor="start" x="172.5" y="-29.5" font-family="Helvetica,sans-Serif" font-size="10.00" fill="#000000">cimg_library_suffixed</text>
<text text-anchor="start" x="172.5" y="-18.5" font-family="Helvetica,sans-Serif" font-size="10.00" fill="#000000">::CImg::_cimg_math_parser</text>
<text text-anchor="middle" x="233.5" y="-7.5" font-family="Helvetica,sans-Serif" font-size="10.00" fill="#000000">::mp_matrix_eig</text>
</a>
</g>
</g>
<!-- Node3335&#45;&gt;Node3337 -->
<g id="edge2" class="edge">
<title>Node3335&#45;&gt;Node3337</title>
<path fill="none" stroke="#191970" d="M137.2929,-36.28C146.2393,-34.8591 155.3542,-33.4114 164.2319,-32.0014"/>
<polygon fill="#191970" stroke="#191970" points="136.6126,-32.844 127.2854,-37.8694 137.7106,-39.7574 136.6126,-32.844"/>
</g>
</g>
</svg>
