<?xml version="1.0" encoding="UTF-8" standalone="no"?>
<!DOCTYPE svg PUBLIC "-//W3C//DTD SVG 1.1//EN"
 "http://www.w3.org/Graphics/SVG/1.1/DTD/svg11.dtd">
<!-- Generated by graphviz version 2.40.1 (20161225.0304)
 -->
<!-- Title: cimg_library_suffixed::CImg::get_shared_points Pages: 1 -->
<svg width="314pt" height="230pt"
 viewBox="0.00 0.00 314.00 230.00" xmlns="http://www.w3.org/2000/svg" xmlns:xlink="http://www.w3.org/1999/xlink">
<g id="graph0" class="graph" transform="scale(1 1) rotate(0) translate(4 226)">
<title>cimg_library_suffixed::CImg::get_shared_points</title>
<polygon fill="#ffffff" stroke="transparent" points="-4,4 -4,-226 310,-226 310,4 -4,4"/>
<!-- Node1885 -->
<g id="node1" class="node">
<title>Node1885</title>
<polygon fill="#bfbfbf" stroke="#000000" points="0,-96 0,-126 132,-126 132,-96 0,-96"/>
<text text-anchor="start" x="8" y="-114" font-family="Helvetica,sans-Serif" font-size="10.00" fill="#000000">cimg_library_suffixed</text>
<text text-anchor="middle" x="66" y="-103" font-family="Helvetica,sans-Serif" font-size="10.00" fill="#000000">::CImg::get_shared_points</text>
</g>
<!-- Node1886 -->
<g id="node2" class="node">
<title>Node1886</title>
<g id="a_node2"><a xlink:href="structcimg__library__suffixed_1_1_c_img.html#aba5835eafcb8746755d164f3f9d20b81" target="_top" xlink:title="Draw a filled 2d polygon. ">
<polygon fill="#ffffff" stroke="#000000" points="179,-180.5 179,-221.5 295,-221.5 295,-180.5 179,-180.5"/>
<text text-anchor="start" x="187" y="-209.5" font-family="Helvetica,sans-Serif" font-size="10.00" fill="#000000">cimg_library_suffixed</text>
<text text-anchor="start" x="187" y="-198.5" font-family="Helvetica,sans-Serif" font-size="10.00" fill="#000000">::CImg&lt; charT &gt;::draw</text>
<text text-anchor="middle" x="237" y="-187.5" font-family="Helvetica,sans-Serif" font-size="10.00" fill="#000000">_polygon</text>
</a>
</g>
</g>
<!-- Node1885&#45;&gt;Node1886 -->
<g id="edge1" class="edge">
<title>Node1885&#45;&gt;Node1886</title>
<path fill="none" stroke="#191970" d="M98.4718,-131.4685C118.2365,-143.5807 144.1846,-158.8748 168,-171 174.2859,-174.2004 180.9901,-177.3854 187.6564,-180.4192"/>
<polygon fill="#191970" stroke="#191970" points="100.2036,-128.4244 89.8557,-126.1502 96.5268,-134.381 100.2036,-128.4244"/>
</g>
<!-- Node1887 -->
<g id="node3" class="node">
<title>Node1887</title>
<g id="a_node3"><a xlink:href="structcimg__library__suffixed_1_1_c_img.html#a0f2e5b8bd31f04a77eb2244444de98b5" target="_top" xlink:title="Blur image with the median filter . ">
<polygon fill="#ffffff" stroke="#000000" points="182.5,-120.5 182.5,-161.5 291.5,-161.5 291.5,-120.5 182.5,-120.5"/>
<text text-anchor="start" x="190.5" y="-149.5" font-family="Helvetica,sans-Serif" font-size="10.00" fill="#000000">cimg_library_suffixed</text>
<text text-anchor="start" x="190.5" y="-138.5" font-family="Helvetica,sans-Serif" font-size="10.00" fill="#000000">::CImg&lt; charT &gt;::get</text>
<text text-anchor="middle" x="237" y="-127.5" font-family="Helvetica,sans-Serif" font-size="10.00" fill="#000000">_blur_median</text>
</a>
</g>
</g>
<!-- Node1885&#45;&gt;Node1887 -->
<g id="edge2" class="edge">
<title>Node1885&#45;&gt;Node1887</title>
<path fill="none" stroke="#191970" d="M142.3553,-124.3957C155.8571,-126.7644 169.6665,-129.1871 182.4161,-131.4239"/>
<polygon fill="#191970" stroke="#191970" points="142.5675,-120.8795 132.1131,-122.5988 141.3578,-127.7742 142.5675,-120.8795"/>
</g>
<!-- Node1888 -->
<g id="node4" class="node">
<title>Node1888</title>
<g id="a_node4"><a xlink:href="structcimg__library__suffixed_1_1_c_img_1_1__cimg__math__parser.html#af4514d4ca061bc7b5692bbcc1256bba5" target="_top" xlink:title="cimg_library_suffixed\l::CImg::_cimg_math_parser\l::mp_cats">
<polygon fill="#ffffff" stroke="#000000" points="168,-60.5 168,-101.5 306,-101.5 306,-60.5 168,-60.5"/>
<text text-anchor="start" x="176" y="-89.5" font-family="Helvetica,sans-Serif" font-size="10.00" fill="#000000">cimg_library_suffixed</text>
<text text-anchor="start" x="176" y="-78.5" font-family="Helvetica,sans-Serif" font-size="10.00" fill="#000000">::CImg::_cimg_math_parser</text>
<text text-anchor="middle" x="237" y="-67.5" font-family="Helvetica,sans-Serif" font-size="10.00" fill="#000000">::mp_cats</text>
</a>
</g>
</g>
<!-- Node1885&#45;&gt;Node1888 -->
<g id="edge3" class="edge">
<title>Node1885&#45;&gt;Node1888</title>
<path fill="none" stroke="#191970" d="M142.1265,-97.6445C150.7246,-96.136 159.4506,-94.6051 167.9512,-93.1138"/>
<polygon fill="#191970" stroke="#191970" points="141.3578,-94.2258 132.1131,-99.4012 142.5675,-101.1205 141.3578,-94.2258"/>
</g>
<!-- Node1889 -->
<g id="node5" class="node">
<title>Node1889</title>
<g id="a_node5"><a xlink:href="structcimg__library__suffixed_1_1_c_img_1_1__cimg__math__parser.html#ace1da8dadd0d4832124f83b0e2660dfe" target="_top" xlink:title="cimg_library_suffixed\l::CImg::_cimg_math_parser\l::mp_vtos">
<polygon fill="#ffffff" stroke="#000000" points="168,-.5 168,-41.5 306,-41.5 306,-.5 168,-.5"/>
<text text-anchor="start" x="176" y="-29.5" font-family="Helvetica,sans-Serif" font-size="10.00" fill="#000000">cimg_library_suffixed</text>
<text text-anchor="start" x="176" y="-18.5" font-family="Helvetica,sans-Serif" font-size="10.00" fill="#000000">::CImg::_cimg_math_parser</text>
<text text-anchor="middle" x="237" y="-7.5" font-family="Helvetica,sans-Serif" font-size="10.00" fill="#000000">::mp_vtos</text>
</a>
</g>
</g>
<!-- Node1885&#45;&gt;Node1889 -->
<g id="edge4" class="edge">
<title>Node1885&#45;&gt;Node1889</title>
<path fill="none" stroke="#191970" d="M98.4718,-90.5315C118.2365,-78.4193 144.1846,-63.1252 168,-51 174.2859,-47.7996 180.9901,-44.6146 187.6564,-41.5808"/>
<polygon fill="#191970" stroke="#191970" points="96.5268,-87.619 89.8557,-95.8498 100.2036,-93.5756 96.5268,-87.619"/>
</g>
</g>
</svg>
