<?xml version="1.0" encoding="UTF-8" standalone="no"?>
<!DOCTYPE svg PUBLIC "-//W3C//DTD SVG 1.1//EN"
 "http://www.w3.org/Graphics/SVG/1.1/DTD/svg11.dtd">
<!-- Generated by graphviz version 2.40.1 (20161225.0304)
 -->
<!-- Title: cimg_library_suffixed::CImg::get_column Pages: 1 -->
<svg width="272pt" height="50pt"
 viewBox="0.00 0.00 272.00 50.00" xmlns="http://www.w3.org/2000/svg" xmlns:xlink="http://www.w3.org/1999/xlink">
<g id="graph0" class="graph" transform="scale(1 1) rotate(0) translate(4 46)">
<title>cimg_library_suffixed::CImg::get_column</title>
<polygon fill="#ffffff" stroke="transparent" points="-4,4 -4,-46 268,-46 268,4 -4,4"/>
<!-- Node1349 -->
<g id="node1" class="node">
<title>Node1349</title>
<polygon fill="#bfbfbf" stroke="#000000" points="0,-6 0,-36 109,-36 109,-6 0,-6"/>
<text text-anchor="start" x="8" y="-24" font-family="Helvetica,sans-Serif" font-size="10.00" fill="#000000">cimg_library_suffixed</text>
<text text-anchor="middle" x="54.5" y="-13" font-family="Helvetica,sans-Serif" font-size="10.00" fill="#000000">::CImg::get_column</text>
</g>
<!-- Node1350 -->
<g id="node2" class="node">
<title>Node1350</title>
<g id="a_node2"><a xlink:href="structcimg__library__suffixed_1_1_c_img.html#a4eecbb5bc71cbde0df309ed674a83fcc" target="_top" xlink:title="Solve a tridiagonal system of linear equations. ">
<polygon fill="#ffffff" stroke="#000000" points="145,-.5 145,-41.5 264,-41.5 264,-.5 145,-.5"/>
<text text-anchor="start" x="153" y="-29.5" font-family="Helvetica,sans-Serif" font-size="10.00" fill="#000000">cimg_library_suffixed</text>
<text text-anchor="start" x="153" y="-18.5" font-family="Helvetica,sans-Serif" font-size="10.00" fill="#000000">::CImg&lt; charT &gt;::solve</text>
<text text-anchor="middle" x="204.5" y="-7.5" font-family="Helvetica,sans-Serif" font-size="10.00" fill="#000000">_tridiagonal</text>
</a>
</g>
</g>
<!-- Node1349&#45;&gt;Node1350 -->
<g id="edge1" class="edge">
<title>Node1349&#45;&gt;Node1350</title>
<path fill="none" stroke="#191970" d="M119.3231,-21C127.8192,-21 136.4929,-21 144.897,-21"/>
<polygon fill="#191970" stroke="#191970" points="119.0778,-17.5001 109.0778,-21 119.0777,-24.5001 119.0778,-17.5001"/>
</g>
</g>
</svg>
