<?xml version="1.0" encoding="UTF-8" standalone="no"?>
<!DOCTYPE svg PUBLIC "-//W3C//DTD SVG 1.1//EN"
 "http://www.w3.org/Graphics/SVG/1.1/DTD/svg11.dtd">
<!-- Generated by graphviz version 2.40.1 (20161225.0304)
 -->
<!-- Title: cimg_library_suffixed::CImg::_functor4d_streamline2d_oriented::operator() Pages: 1 -->
<svg width="312pt" height="137pt"
 viewBox="0.00 0.00 312.00 137.00" xmlns="http://www.w3.org/2000/svg" xmlns:xlink="http://www.w3.org/1999/xlink">
<g id="graph0" class="graph" transform="scale(1 1) rotate(0) translate(4 133)">
<title>cimg_library_suffixed::CImg::_functor4d_streamline2d_oriented::operator()</title>
<polygon fill="#ffffff" stroke="transparent" points="-4,4 -4,-133 308,-133 308,4 -4,4"/>
<!-- Node4 -->
<g id="node1" class="node">
<title>Node4</title>
<polygon fill="#bfbfbf" stroke="#000000" points="0,-44 0,-85 159,-85 159,-44 0,-44"/>
<text text-anchor="start" x="8" y="-73" font-family="Helvetica,sans-Serif" font-size="10.00" fill="#000000">cimg_library_suffixed</text>
<text text-anchor="start" x="8" y="-62" font-family="Helvetica,sans-Serif" font-size="10.00" fill="#000000">::CImg::_functor4d_streamline2d</text>
<text text-anchor="middle" x="79.5" y="-51" font-family="Helvetica,sans-Serif" font-size="10.00" fill="#000000">_oriented::operator()</text>
</g>
<!-- Node5 -->
<g id="node2" class="node">
<title>Node5</title>
<g id="a_node2"><a xlink:href="structcimg__library__suffixed_1_1_c_img.html#ad0f1f7bc98115b69785a917937b8181c" target="_top" xlink:title="cimg_library_suffixed\l::CImg::_linear_atXY">
<polygon fill="#ffffff" stroke="#000000" points="195,-98.5 195,-128.5 304,-128.5 304,-98.5 195,-98.5"/>
<text text-anchor="start" x="203" y="-116.5" font-family="Helvetica,sans-Serif" font-size="10.00" fill="#000000">cimg_library_suffixed</text>
<text text-anchor="middle" x="249.5" y="-105.5" font-family="Helvetica,sans-Serif" font-size="10.00" fill="#000000">::CImg::_linear_atXY</text>
</a>
</g>
</g>
<!-- Node4&#45;&gt;Node5 -->
<g id="edge1" class="edge">
<title>Node4&#45;&gt;Node5</title>
<path fill="none" stroke="#191970" d="M151.1026,-85.1384C163.2251,-88.6325 175.7206,-92.2342 187.5691,-95.6493"/>
<polygon fill="#191970" stroke="#191970" points="186.769,-99.0611 197.3472,-98.4677 188.7078,-92.335 186.769,-99.0611"/>
</g>
<!-- Node6 -->
<g id="node3" class="node">
<title>Node6</title>
<g id="a_node3"><a xlink:href="structcimg__library__suffixed_1_1_c_img.html#a49834fd555c4a8362100bc628f1b03bb" target="_top" xlink:title="Return the number of image rows. ">
<polygon fill="#ffffff" stroke="#000000" points="195,-49.5 195,-79.5 304,-79.5 304,-49.5 195,-49.5"/>
<text text-anchor="start" x="203" y="-67.5" font-family="Helvetica,sans-Serif" font-size="10.00" fill="#000000">cimg_library_suffixed</text>
<text text-anchor="middle" x="249.5" y="-56.5" font-family="Helvetica,sans-Serif" font-size="10.00" fill="#000000">::CImg::height</text>
</a>
</g>
</g>
<!-- Node4&#45;&gt;Node6 -->
<g id="edge2" class="edge">
<title>Node4&#45;&gt;Node6</title>
<path fill="none" stroke="#191970" d="M159.0249,-64.5C167.6258,-64.5 176.3019,-64.5 184.6987,-64.5"/>
<polygon fill="#191970" stroke="#191970" points="184.7789,-68.0001 194.7788,-64.5 184.7788,-61.0001 184.7789,-68.0001"/>
</g>
<!-- Node7 -->
<g id="node4" class="node">
<title>Node7</title>
<g id="a_node4"><a xlink:href="structcimg__library__suffixed_1_1_c_img.html#a2d7b769d447c0451a2f43c77e997beff" target="_top" xlink:title="Return the number of image columns. ">
<polygon fill="#ffffff" stroke="#000000" points="195,-.5 195,-30.5 304,-30.5 304,-.5 195,-.5"/>
<text text-anchor="start" x="203" y="-18.5" font-family="Helvetica,sans-Serif" font-size="10.00" fill="#000000">cimg_library_suffixed</text>
<text text-anchor="middle" x="249.5" y="-7.5" font-family="Helvetica,sans-Serif" font-size="10.00" fill="#000000">::CImg::width</text>
</a>
</g>
</g>
<!-- Node4&#45;&gt;Node7 -->
<g id="edge3" class="edge">
<title>Node4&#45;&gt;Node7</title>
<path fill="none" stroke="#191970" d="M151.1026,-43.8616C163.2251,-40.3675 175.7206,-36.7658 187.5691,-33.3507"/>
<polygon fill="#191970" stroke="#191970" points="188.7078,-36.665 197.3472,-30.5323 186.769,-29.9389 188.7078,-36.665"/>
</g>
</g>
</svg>
