<?xml version="1.0" encoding="UTF-8" standalone="no"?>
<!DOCTYPE svg PUBLIC "-//W3C//DTD SVG 1.1//EN"
 "http://www.w3.org/Graphics/SVG/1.1/DTD/svg11.dtd">
<!-- Generated by graphviz version 2.40.1 (20161225.0304)
 -->
<!-- Title: cimg_library_suffixed::CImgDisplay::wait Pages: 1 -->
<svg width="284pt" height="320pt"
 viewBox="0.00 0.00 284.00 319.50" xmlns="http://www.w3.org/2000/svg" xmlns:xlink="http://www.w3.org/1999/xlink">
<g id="graph0" class="graph" transform="scale(1 1) rotate(0) translate(4 315.5)">
<title>cimg_library_suffixed::CImgDisplay::wait</title>
<polygon fill="#ffffff" stroke="transparent" points="-4,4 -4,-315.5 280,-315.5 280,4 -4,4"/>
<!-- Node600 -->
<g id="node1" class="node">
<title>Node600</title>
<polygon fill="#bfbfbf" stroke="#000000" points="0,-143 0,-173 109,-173 109,-143 0,-143"/>
<text text-anchor="start" x="8" y="-161" font-family="Helvetica,sans-Serif" font-size="10.00" fill="#000000">cimg_library_suffixed</text>
<text text-anchor="middle" x="54.5" y="-150" font-family="Helvetica,sans-Serif" font-size="10.00" fill="#000000">::CImgDisplay::wait</text>
</g>
<!-- Node601 -->
<g id="node2" class="node">
<title>Node601</title>
<g id="a_node2"><a xlink:href="structcimg__library__suffixed_1_1_c_img.html#adf9d80c60e82b079056c31cb0fe61faf" target="_top" xlink:title="cimg_library_suffixed\l::CImg\&lt; charT \&gt;::_display">
<polygon fill="#ffffff" stroke="#000000" points="145,-281 145,-311 276,-311 276,-281 145,-281"/>
<text text-anchor="start" x="153" y="-299" font-family="Helvetica,sans-Serif" font-size="10.00" fill="#000000">cimg_library_suffixed</text>
<text text-anchor="middle" x="210.5" y="-288" font-family="Helvetica,sans-Serif" font-size="10.00" fill="#000000">::CImg&lt; charT &gt;::_display</text>
</a>
</g>
</g>
<!-- Node600&#45;&gt;Node601 -->
<g id="edge1" class="edge">
<title>Node600&#45;&gt;Node601</title>
<path fill="none" stroke="#191970" d="M68.2951,-181.9405C83.9628,-207.2289 111.72,-246.7317 145,-271 150.2123,-274.8009 156.0739,-278.0995 162.0924,-280.941"/>
<polygon fill="#191970" stroke="#191970" points="71.2522,-180.0666 63.0819,-173.3213 65.2625,-183.6893 71.2522,-180.0666"/>
</g>
<!-- Node602 -->
<g id="node3" class="node">
<title>Node602</title>
<g id="a_node3"><a xlink:href="structcimg__library__suffixed_1_1_c_img.html#a8b40db5a9818c3f961a90840b271de6c" target="_top" xlink:title="cimg_library_suffixed\l::CImg\&lt; charT \&gt;::_display\l_object3d">
<polygon fill="#ffffff" stroke="#000000" points="145,-220.5 145,-261.5 276,-261.5 276,-220.5 145,-220.5"/>
<text text-anchor="start" x="153" y="-249.5" font-family="Helvetica,sans-Serif" font-size="10.00" fill="#000000">cimg_library_suffixed</text>
<text text-anchor="start" x="153" y="-238.5" font-family="Helvetica,sans-Serif" font-size="10.00" fill="#000000">::CImg&lt; charT &gt;::_display</text>
<text text-anchor="middle" x="210.5" y="-227.5" font-family="Helvetica,sans-Serif" font-size="10.00" fill="#000000">_object3d</text>
</a>
</g>
</g>
<!-- Node600&#45;&gt;Node602 -->
<g id="edge2" class="edge">
<title>Node600&#45;&gt;Node602</title>
<path fill="none" stroke="#191970" d="M87.6541,-178.4921C104.5853,-188.6799 125.6464,-200.933 145,-211 151.1029,-214.1745 157.6068,-217.3697 164.0577,-220.4301"/>
<polygon fill="#191970" stroke="#191970" points="89.0761,-175.2613 78.7099,-173.0717 85.4481,-181.2478 89.0761,-175.2613"/>
</g>
<!-- Node603 -->
<g id="node4" class="node">
<title>Node603</title>
<g id="a_node4"><a xlink:href="structcimg__library__suffixed_1_1_c_img.html#ad9b7141242d0b6e861a8014112ddb5b5" target="_top" xlink:title="cimg_library_suffixed\l::CImg\&lt; charT \&gt;::_select">
<polygon fill="#ffffff" stroke="#000000" points="147,-171 147,-201 274,-201 274,-171 147,-171"/>
<text text-anchor="start" x="155" y="-189" font-family="Helvetica,sans-Serif" font-size="10.00" fill="#000000">cimg_library_suffixed</text>
<text text-anchor="middle" x="210.5" y="-178" font-family="Helvetica,sans-Serif" font-size="10.00" fill="#000000">::CImg&lt; charT &gt;::_select</text>
</a>
</g>
</g>
<!-- Node600&#45;&gt;Node603 -->
<g id="edge3" class="edge">
<title>Node600&#45;&gt;Node603</title>
<path fill="none" stroke="#191970" d="M118.9469,-169.5674C128.1751,-171.2237 137.6644,-172.9269 146.8766,-174.5804"/>
<polygon fill="#191970" stroke="#191970" points="119.5223,-166.1148 109.0612,-167.793 118.2856,-173.0047 119.5223,-166.1148"/>
</g>
<!-- Node604 -->
<g id="node5" class="node">
<title>Node604</title>
<g id="a_node5"><a xlink:href="structcimg__library__suffixed_1_1_c_img_list.html#af8a6b01f20b2d459e5abe6b99836ea9a" target="_top" xlink:title="cimg_library_suffixed\l::CImgList\&lt; charT \&gt;::\l_select">
<polygon fill="#ffffff" stroke="#000000" points="155,-110.5 155,-151.5 266,-151.5 266,-110.5 155,-110.5"/>
<text text-anchor="start" x="163" y="-139.5" font-family="Helvetica,sans-Serif" font-size="10.00" fill="#000000">cimg_library_suffixed</text>
<text text-anchor="start" x="163" y="-128.5" font-family="Helvetica,sans-Serif" font-size="10.00" fill="#000000">::CImgList&lt; charT &gt;::</text>
<text text-anchor="middle" x="210.5" y="-117.5" font-family="Helvetica,sans-Serif" font-size="10.00" fill="#000000">_select</text>
</a>
</g>
</g>
<!-- Node600&#45;&gt;Node604 -->
<g id="edge4" class="edge">
<title>Node600&#45;&gt;Node604</title>
<path fill="none" stroke="#191970" d="M118.9596,-146.8435C130.896,-144.7776 143.2688,-142.6362 154.9133,-140.6208"/>
<polygon fill="#191970" stroke="#191970" points="118.3178,-143.4025 109.0612,-148.5567 119.5117,-150.2999 118.3178,-143.4025"/>
</g>
<!-- Node605 -->
<g id="node6" class="node">
<title>Node605</title>
<g id="a_node6"><a xlink:href="namespacecimg__library__suffixed_1_1cimg.html#a11aed0e6b30d75bf50946ee78d1aed94" target="_top" xlink:title="Display a simple dialog box, and wait for the user&#39;s response. ">
<polygon fill="#ffffff" stroke="#000000" points="156,-61 156,-91 265,-91 265,-61 156,-61"/>
<text text-anchor="start" x="164" y="-79" font-family="Helvetica,sans-Serif" font-size="10.00" fill="#000000">cimg_library_suffixed</text>
<text text-anchor="middle" x="210.5" y="-68" font-family="Helvetica,sans-Serif" font-size="10.00" fill="#000000">::cimg::dialog</text>
</a>
</g>
</g>
<!-- Node600&#45;&gt;Node605 -->
<g id="edge5" class="edge">
<title>Node600&#45;&gt;Node605</title>
<path fill="none" stroke="#191970" d="M84.2582,-137.1628C101.5081,-125.6242 123.9239,-111.53 145,-101 152.0774,-97.464 159.7835,-94.1119 167.3428,-91.0783"/>
<polygon fill="#191970" stroke="#191970" points="82.059,-134.4251 75.7429,-142.9314 85.985,-140.2205 82.059,-134.4251"/>
</g>
<!-- Node606 -->
<g id="node7" class="node">
<title>Node606</title>
<g id="a_node7"><a xlink:href="structcimg__library__suffixed_1_1_c_img.html#a689f47424dc7c548ebfe53e431409199" target="_top" xlink:title="Select sub&#45;graph in a graph. ">
<polygon fill="#ffffff" stroke="#000000" points="156,-.5 156,-41.5 265,-41.5 265,-.5 156,-.5"/>
<text text-anchor="start" x="164" y="-29.5" font-family="Helvetica,sans-Serif" font-size="10.00" fill="#000000">cimg_library_suffixed</text>
<text text-anchor="start" x="164" y="-18.5" font-family="Helvetica,sans-Serif" font-size="10.00" fill="#000000">::CImg&lt; charT &gt;::get</text>
<text text-anchor="middle" x="210.5" y="-7.5" font-family="Helvetica,sans-Serif" font-size="10.00" fill="#000000">_select_graph</text>
</a>
</g>
</g>
<!-- Node600&#45;&gt;Node606 -->
<g id="edge6" class="edge">
<title>Node600&#45;&gt;Node606</title>
<path fill="none" stroke="#191970" d="M70.0101,-134.6024C86.4152,-111.2707 114.1557,-75.5983 145,-52 149.896,-48.2542 155.3175,-44.8066 160.8838,-41.6802"/>
<polygon fill="#191970" stroke="#191970" points="67.091,-132.6702 64.2949,-142.8894 72.8535,-136.6444 67.091,-132.6702"/>
</g>
</g>
</svg>
