<?xml version="1.0" encoding="UTF-8" standalone="no"?>
<!DOCTYPE svg PUBLIC "-//W3C//DTD SVG 1.1//EN"
 "http://www.w3.org/Graphics/SVG/1.1/DTD/svg11.dtd">
<!-- Generated by graphviz version 2.40.1 (20161225.0304)
 -->
<!-- Title: cimg_library_suffixed::CImgDisplay::snapshot Pages: 1 -->
<svg width="306pt" height="137pt"
 viewBox="0.00 0.00 306.00 137.00" xmlns="http://www.w3.org/2000/svg" xmlns:xlink="http://www.w3.org/1999/xlink">
<g id="graph0" class="graph" transform="scale(1 1) rotate(0) translate(4 133)">
<title>cimg_library_suffixed::CImgDisplay::snapshot</title>
<polygon fill="#ffffff" stroke="transparent" points="-4,4 -4,-133 302,-133 302,4 -4,4"/>
<!-- Node567 -->
<g id="node1" class="node">
<title>Node567</title>
<polygon fill="#bfbfbf" stroke="#000000" points="0,-49.5 0,-79.5 125,-79.5 125,-49.5 0,-49.5"/>
<text text-anchor="start" x="8" y="-67.5" font-family="Helvetica,sans-Serif" font-size="10.00" fill="#000000">cimg_library_suffixed</text>
<text text-anchor="middle" x="62.5" y="-56.5" font-family="Helvetica,sans-Serif" font-size="10.00" fill="#000000">::CImgDisplay::snapshot</text>
</g>
<!-- Node568 -->
<g id="node2" class="node">
<title>Node568</title>
<g id="a_node2"><a xlink:href="structcimg__library__suffixed_1_1_c_img.html#a668fe887682e7cbb469409842bb98cd2" target="_top" xlink:title="Construct image from a display window . ">
<polygon fill="#ffffff" stroke="#000000" points="167.5,-98.5 167.5,-128.5 291.5,-128.5 291.5,-98.5 167.5,-98.5"/>
<text text-anchor="start" x="175.5" y="-116.5" font-family="Helvetica,sans-Serif" font-size="10.00" fill="#000000">cimg_library_suffixed</text>
<text text-anchor="middle" x="229.5" y="-105.5" font-family="Helvetica,sans-Serif" font-size="10.00" fill="#000000">::CImg&lt; charT &gt;::assign</text>
</a>
</g>
</g>
<!-- Node567&#45;&gt;Node568 -->
<g id="edge1" class="edge">
<title>Node567&#45;&gt;Node568</title>
<path fill="none" stroke="#191970" d="M123.7344,-82.467C141.6275,-87.717 160.9922,-93.3989 178.2018,-98.4484"/>
<polygon fill="#191970" stroke="#191970" points="124.5491,-79.0585 113.9682,-79.6014 122.5782,-85.7754 124.5491,-79.0585"/>
</g>
<!-- Node569 -->
<g id="node3" class="node">
<title>Node569</title>
<g id="a_node3"><a xlink:href="structcimg__library__suffixed_1_1_c_img.html#a015159d8cee61c2f2316c3e128470a71" target="_top" xlink:title="Construct image from a display window. ">
<polygon fill="#ffffff" stroke="#000000" points="170,-49.5 170,-79.5 289,-79.5 289,-49.5 170,-49.5"/>
<text text-anchor="start" x="178" y="-67.5" font-family="Helvetica,sans-Serif" font-size="10.00" fill="#000000">cimg_library_suffixed</text>
<text text-anchor="middle" x="229.5" y="-56.5" font-family="Helvetica,sans-Serif" font-size="10.00" fill="#000000">::CImg&lt; charT &gt;::CImg</text>
</a>
</g>
</g>
<!-- Node567&#45;&gt;Node569 -->
<g id="edge2" class="edge">
<title>Node567&#45;&gt;Node569</title>
<path fill="none" stroke="#191970" d="M135.2166,-64.5C146.7685,-64.5 158.6004,-64.5 169.8079,-64.5"/>
<polygon fill="#191970" stroke="#191970" points="135.1598,-61.0001 125.1598,-64.5 135.1597,-68.0001 135.1598,-61.0001"/>
</g>
<!-- Node570 -->
<g id="node4" class="node">
<title>Node570</title>
<g id="a_node4"><a xlink:href="structcimg__library__suffixed_1_1_c_img.html#a75e18966d8e02a9cee85642038e30a08" target="_top" xlink:title="Copy the content of a display window to the current image instance. ">
<polygon fill="#ffffff" stroke="#000000" points="161,-.5 161,-30.5 298,-30.5 298,-.5 161,-.5"/>
<text text-anchor="start" x="169" y="-18.5" font-family="Helvetica,sans-Serif" font-size="10.00" fill="#000000">cimg_library_suffixed</text>
<text text-anchor="middle" x="229.5" y="-7.5" font-family="Helvetica,sans-Serif" font-size="10.00" fill="#000000">::CImg&lt; charT &gt;::operator=</text>
</a>
</g>
</g>
<!-- Node567&#45;&gt;Node570 -->
<g id="edge3" class="edge">
<title>Node567&#45;&gt;Node570</title>
<path fill="none" stroke="#191970" d="M123.7344,-46.533C141.6275,-41.283 160.9922,-35.6011 178.2018,-30.5516"/>
<polygon fill="#191970" stroke="#191970" points="122.5782,-43.2246 113.9682,-49.3986 124.5491,-49.9415 122.5782,-43.2246"/>
</g>
</g>
</svg>
