<?xml version="1.0" encoding="UTF-8" standalone="no"?>
<!DOCTYPE svg PUBLIC "-//W3C//DTD SVG 1.1//EN"
 "http://www.w3.org/Graphics/SVG/1.1/DTD/svg11.dtd">
<!-- Generated by graphviz version 2.40.1 (20161225.0304)
 -->
<!-- Title: cimg_library_suffixed::CImg::get_asin Pages: 1 -->
<svg width="436pt" height="269pt"
 viewBox="0.00 0.00 436.00 269.00" xmlns="http://www.w3.org/2000/svg" xmlns:xlink="http://www.w3.org/1999/xlink">
<g id="graph0" class="graph" transform="scale(1 1) rotate(0) translate(4 265)">
<title>cimg_library_suffixed::CImg::get_asin</title>
<polygon fill="#ffffff" stroke="transparent" points="-4,4 -4,-265 432,-265 432,4 -4,4"/>
<!-- Node1287 -->
<g id="node1" class="node">
<title>Node1287</title>
<polygon fill="#bfbfbf" stroke="#000000" points="0,-121 0,-151 109,-151 109,-121 0,-121"/>
<text text-anchor="start" x="8" y="-139" font-family="Helvetica,sans-Serif" font-size="10.00" fill="#000000">cimg_library_suffixed</text>
<text text-anchor="middle" x="54.5" y="-128" font-family="Helvetica,sans-Serif" font-size="10.00" fill="#000000">::CImg::get_asin</text>
</g>
<!-- Node1288 -->
<g id="node2" class="node">
<title>Node1288</title>
<g id="a_node2"><a xlink:href="namespacecimg__library__suffixed.html#aeef57d42f5e4792d4cca6efe8b3144de" target="_top" xlink:title="cimg_library_suffixed\l::asin">
<polygon fill="#ffffff" stroke="#000000" points="145,-121 145,-151 254,-151 254,-121 145,-121"/>
<text text-anchor="start" x="153" y="-139" font-family="Helvetica,sans-Serif" font-size="10.00" fill="#000000">cimg_library_suffixed</text>
<text text-anchor="middle" x="199.5" y="-128" font-family="Helvetica,sans-Serif" font-size="10.00" fill="#000000">::asin</text>
</a>
</g>
</g>
<!-- Node1287&#45;&gt;Node1288 -->
<g id="edge1" class="edge">
<title>Node1287&#45;&gt;Node1288</title>
<path fill="none" stroke="#191970" d="M119.4621,-129.2825C127.8588,-129.2098 136.3919,-129.259 144.6042,-129.4301"/>
<polygon fill="#191970" stroke="#191970" points="119.2657,-125.7849 109.3183,-129.4317 119.3687,-132.7842 119.2657,-125.7849"/>
</g>
<!-- Node1288&#45;&gt;Node1287 -->
<g id="edge6" class="edge">
<title>Node1288&#45;&gt;Node1287</title>
<path fill="none" stroke="#191970" d="M134.4586,-142.7181C126.0611,-142.7901 117.5286,-142.7402 109.3183,-142.5683"/>
<polygon fill="#191970" stroke="#191970" points="134.6564,-146.2157 144.6042,-142.5699 134.5541,-139.2165 134.6564,-146.2157"/>
</g>
<!-- Node1289 -->
<g id="node3" class="node">
<title>Node1289</title>
<g id="a_node3"><a xlink:href="structcimg__library__suffixed_1_1_c_img.html#a8b40db5a9818c3f961a90840b271de6c" target="_top" xlink:title="cimg_library_suffixed\l::CImg\&lt; charT \&gt;::_display\l_object3d">
<polygon fill="#ffffff" stroke="#000000" points="293.5,-219.5 293.5,-260.5 424.5,-260.5 424.5,-219.5 293.5,-219.5"/>
<text text-anchor="start" x="301.5" y="-248.5" font-family="Helvetica,sans-Serif" font-size="10.00" fill="#000000">cimg_library_suffixed</text>
<text text-anchor="start" x="301.5" y="-237.5" font-family="Helvetica,sans-Serif" font-size="10.00" fill="#000000">::CImg&lt; charT &gt;::_display</text>
<text text-anchor="middle" x="359" y="-226.5" font-family="Helvetica,sans-Serif" font-size="10.00" fill="#000000">_object3d</text>
</a>
</g>
</g>
<!-- Node1288&#45;&gt;Node1289 -->
<g id="edge2" class="edge">
<title>Node1288&#45;&gt;Node1289</title>
<path fill="none" stroke="#191970" d="M222.6383,-157.9517C240.1656,-173.7992 265.3591,-194.9678 290,-210 295.4641,-213.3334 301.3644,-216.4898 307.3337,-219.4148"/>
<polygon fill="#191970" stroke="#191970" points="224.8892,-155.2669 215.1542,-151.0859 220.1571,-160.4252 224.8892,-155.2669"/>
</g>
<!-- Node1290 -->
<g id="node4" class="node">
<title>Node1290</title>
<g id="a_node4"><a xlink:href="structcimg__library__suffixed_1_1_c_img.html#ad9b7141242d0b6e861a8014112ddb5b5" target="_top" xlink:title="cimg_library_suffixed\l::CImg\&lt; charT \&gt;::_select">
<polygon fill="#ffffff" stroke="#000000" points="295.5,-170 295.5,-200 422.5,-200 422.5,-170 295.5,-170"/>
<text text-anchor="start" x="303.5" y="-188" font-family="Helvetica,sans-Serif" font-size="10.00" fill="#000000">cimg_library_suffixed</text>
<text text-anchor="middle" x="359" y="-177" font-family="Helvetica,sans-Serif" font-size="10.00" fill="#000000">::CImg&lt; charT &gt;::_select</text>
</a>
</g>
</g>
<!-- Node1288&#45;&gt;Node1290 -->
<g id="edge3" class="edge">
<title>Node1288&#45;&gt;Node1290</title>
<path fill="none" stroke="#191970" d="M258.4594,-154.1129C275.4162,-159.3222 293.7211,-164.9457 310.0056,-169.9484"/>
<polygon fill="#191970" stroke="#191970" points="259.2437,-150.6925 248.6567,-151.1014 257.188,-157.3838 259.2437,-150.6925"/>
</g>
<!-- Node1291 -->
<g id="node5" class="node">
<title>Node1291</title>
<g id="a_node5"><a xlink:href="structcimg__library__suffixed_1_1_c_img.html#af21cdfa737adecc1d4f261f5a3a27e3b" target="_top" xlink:title="Compute the arcsine of each pixel value. ">
<polygon fill="#ffffff" stroke="#000000" points="302.5,-121 302.5,-151 415.5,-151 415.5,-121 302.5,-121"/>
<text text-anchor="start" x="310.5" y="-139" font-family="Helvetica,sans-Serif" font-size="10.00" fill="#000000">cimg_library_suffixed</text>
<text text-anchor="middle" x="359" y="-128" font-family="Helvetica,sans-Serif" font-size="10.00" fill="#000000">::CImg&lt; charT &gt;::asin</text>
</a>
</g>
</g>
<!-- Node1288&#45;&gt;Node1291 -->
<g id="edge4" class="edge">
<title>Node1288&#45;&gt;Node1291</title>
<path fill="none" stroke="#191970" d="M264.734,-136C277.2183,-136 290.1938,-136 302.3804,-136"/>
<polygon fill="#191970" stroke="#191970" points="264.3909,-132.5001 254.3909,-136 264.3908,-139.5001 264.3909,-132.5001"/>
</g>
<!-- Node1292 -->
<g id="node6" class="node">
<title>Node1292</title>
<g id="a_node6"><a xlink:href="structcimg__library__suffixed_1_1_c_img_1_1__cimg__math__parser.html#a318c44c5d1f4f0114355f37ace87a4ae" target="_top" xlink:title="cimg_library_suffixed\l::CImg::_cimg_math_parser\l::compile">
<polygon fill="#ffffff" stroke="#000000" points="290,-60.5 290,-101.5 428,-101.5 428,-60.5 290,-60.5"/>
<text text-anchor="start" x="298" y="-89.5" font-family="Helvetica,sans-Serif" font-size="10.00" fill="#000000">cimg_library_suffixed</text>
<text text-anchor="start" x="298" y="-78.5" font-family="Helvetica,sans-Serif" font-size="10.00" fill="#000000">::CImg::_cimg_math_parser</text>
<text text-anchor="middle" x="359" y="-67.5" font-family="Helvetica,sans-Serif" font-size="10.00" fill="#000000">::compile</text>
</a>
</g>
</g>
<!-- Node1288&#45;&gt;Node1292 -->
<g id="edge5" class="edge">
<title>Node1288&#45;&gt;Node1292</title>
<path fill="none" stroke="#191970" d="M252.6861,-117.66C267.6457,-112.5015 284.0131,-106.8576 299.3245,-101.5777"/>
<polygon fill="#191970" stroke="#191970" points="251.3968,-114.4022 243.0841,-120.971 253.6788,-121.0198 251.3968,-114.4022"/>
</g>
<!-- Node1293 -->
<g id="node7" class="node">
<title>Node1293</title>
<g id="a_node7"><a xlink:href="structcimg__library__suffixed_1_1_c_img_1_1__cimg__math__parser.html#aed398d195c0f0a1a68185a47197c6150" target="_top" xlink:title="cimg_library_suffixed\l::CImg::_cimg_math_parser\l::mp_asin">
<polygon fill="#ffffff" stroke="#000000" points="290,-.5 290,-41.5 428,-41.5 428,-.5 290,-.5"/>
<text text-anchor="start" x="298" y="-29.5" font-family="Helvetica,sans-Serif" font-size="10.00" fill="#000000">cimg_library_suffixed</text>
<text text-anchor="start" x="298" y="-18.5" font-family="Helvetica,sans-Serif" font-size="10.00" fill="#000000">::CImg::_cimg_math_parser</text>
<text text-anchor="middle" x="359" y="-7.5" font-family="Helvetica,sans-Serif" font-size="10.00" fill="#000000">::mp_asin</text>
</a>
</g>
</g>
<!-- Node1288&#45;&gt;Node1293 -->
<g id="edge7" class="edge">
<title>Node1288&#45;&gt;Node1293</title>
<path fill="none" stroke="#191970" d="M219.4371,-113.3525C236.6955,-94.7725 263.0595,-68.7315 290,-51 295.1283,-47.6247 300.6992,-44.4776 306.3775,-41.5886"/>
<polygon fill="#191970" stroke="#191970" points="216.7829,-111.0685 212.623,-120.8126 221.9514,-115.7895 216.7829,-111.0685"/>
</g>
</g>
</svg>
