<?xml version="1.0" encoding="UTF-8" standalone="no"?>
<!DOCTYPE svg PUBLIC "-//W3C//DTD SVG 1.1//EN"
 "http://www.w3.org/Graphics/SVG/1.1/DTD/svg11.dtd">
<!-- Generated by graphviz version 2.40.1 (20161225.0304)
 -->
<!-- Title: cimg_library_suffixed::CImg::back Pages: 1 -->
<!--zoomable 590 -->
<svg id="main" version="1.1" xmlns="http://www.w3.org/2000/svg" xmlns:xlink="http://www.w3.org/1999/xlink" xml:space="preserve" onload="init(evt)">
<style type="text/css"><![CDATA[
.edge:hover path { stroke: red; }
.edge:hover polygon { stroke: red; fill: red; }
]]></style>
<script type="text/javascript"><![CDATA[
var edges = document.getElementsByTagName('g');
if (edges && edges.length) {
  for (var i=0;i<edges.length;i++) {
    if (edges[i].id.substr(0,4)=='edge') {
      edges[i].setAttribute('class','edge');
    }
  }
}
]]></script>
        <defs>
                <circle id="rim" cx="0" cy="0" r="7"/>
                <circle id="rim2" cx="0" cy="0" r="3.5"/>
                <g id="zoomPlus">
                        <use xlink:href="#rim" fill="#404040">
                                <set attributeName="fill" to="#808080" begin="zoomplus.mouseover" end="zoomplus.mouseout"/>
                        </use>
                        <path d="M-4,0h8M0,-4v8" fill="none" stroke="white" stroke-width="1.5" pointer-events="none"/>
                </g>
                <g id="zoomMin">
                        <use xlink:href="#rim" fill="#404040">
                                <set attributeName="fill" to="#808080" begin="zoomminus.mouseover" end="zoomminus.mouseout"/>
                        </use>
                        <path d="M-4,0h8" fill="none" stroke="white" stroke-width="1.5" pointer-events="none"/>
                </g>
                <g id="dirArrow">
                        <path fill="none" stroke="white" stroke-width="1.5" d="M0,-3.0v7 M-2.5,-0.5L0,-3.0L2.5,-0.5"/>
                </g>
               <g id="resetDef">
                       <use xlink:href="#rim2" fill="#404040">
                               <set attributeName="fill" to="#808080" begin="reset.mouseover" end="reset.mouseout"/>
                       </use>
               </g>
        </defs>

<script type="text/javascript">
var viewWidth = 291;
var viewHeight = 590;
var sectionId = 'dynsection-30';
</script>
<script xlink:href="svgpan.js"/>
<svg id="graph" class="graph">
<g id="viewport">
<title>cimg_library_suffixed::CImg::back</title>
<polygon fill="#ffffff" stroke="transparent" points="-4,4 -4,-586 287,-586 287,4 -4,4"/>
<!-- Node561 -->
<g id="node1" class="node">
<title>Node561</title>
<polygon fill="#bfbfbf" stroke="#000000" points="0,-276 0,-306 109,-306 109,-276 0,-276"/>
<text text-anchor="start" x="8" y="-294" font-family="Helvetica,sans-Serif" font-size="10.00" fill="#000000">cimg_library_suffixed</text>
<text text-anchor="middle" x="54.5" y="-283" font-family="Helvetica,sans-Serif" font-size="10.00" fill="#000000">::CImg::back</text>
</g>
<!-- Node562 -->
<g id="node2" class="node">
<title>Node562</title>
<g id="a_node2"><a xlink:href="structcimg__library__suffixed_1_1_c_img_1_1__cimg__math__parser.html#a591684f81af8ba85885b7de9c0c6ca5f" target="_top" xlink:title="cimg_library_suffixed\l::CImg::_cimg_math_parser\l::_cimg_math_parser">
<polygon fill="#ffffff" stroke="#000000" points="145,-540.5 145,-581.5 283,-581.5 283,-540.5 145,-540.5"/>
<text text-anchor="start" x="153" y="-569.5" font-family="Helvetica,sans-Serif" font-size="10.00" fill="#000000">cimg_library_suffixed</text>
<text text-anchor="start" x="153" y="-558.5" font-family="Helvetica,sans-Serif" font-size="10.00" fill="#000000">::CImg::_cimg_math_parser</text>
<text text-anchor="middle" x="214" y="-547.5" font-family="Helvetica,sans-Serif" font-size="10.00" fill="#000000">::_cimg_math_parser</text>
</a>
</g>
</g>
<!-- Node561&#45;&gt;Node562 -->
<g id="edge1" class="edge">
<title>Node561&#45;&gt;Node562</title>
<path fill="none" stroke="#191970" d="M57.4838,-316.1627C64.4079,-363.9815 85.7615,-468.7522 145,-531 148.3318,-534.5011 152.1419,-537.6168 156.2224,-540.3855"/>
<polygon fill="#191970" stroke="#191970" points="60.9277,-315.5117 56.1173,-306.0718 53.991,-316.4511 60.9277,-315.5117"/>
</g>
<!-- Node563 -->
<g id="node3" class="node">
<title>Node563</title>
<g id="a_node3"><a xlink:href="structcimg__library__suffixed_1_1_c_img_1_1__cimg__math__parser.html#ab95626fc3c9df8e9bb3d182328372379" target="_top" xlink:title="cimg_library_suffixed\l::CImg::_cimg_math_parser\l::check_constant">
<polygon fill="#ffffff" stroke="#000000" points="145,-480.5 145,-521.5 283,-521.5 283,-480.5 145,-480.5"/>
<text text-anchor="start" x="153" y="-509.5" font-family="Helvetica,sans-Serif" font-size="10.00" fill="#000000">cimg_library_suffixed</text>
<text text-anchor="start" x="153" y="-498.5" font-family="Helvetica,sans-Serif" font-size="10.00" fill="#000000">::CImg::_cimg_math_parser</text>
<text text-anchor="middle" x="214" y="-487.5" font-family="Helvetica,sans-Serif" font-size="10.00" fill="#000000">::check_constant</text>
</a>
</g>
</g>
<!-- Node561&#45;&gt;Node563 -->
<g id="edge2" class="edge">
<title>Node561&#45;&gt;Node563</title>
<path fill="none" stroke="#191970" d="M61.0699,-315.9503C72.286,-354.0858 98.5429,-427.0629 145,-471 148.7012,-474.5005 152.8761,-477.6306 157.2945,-480.4221"/>
<polygon fill="#191970" stroke="#191970" points="64.393,-314.8393 58.3009,-306.1712 57.6578,-316.7464 64.393,-314.8393"/>
</g>
<!-- Node564 -->
<g id="node4" class="node">
<title>Node564</title>
<g id="a_node4"><a xlink:href="structcimg__library__suffixed_1_1_c_img_1_1__cimg__math__parser.html#af19c9440058cbae77a2d7aafb576fb86" target="_top" xlink:title="cimg_library_suffixed\l::CImg::_cimg_math_parser\l::check_list">
<polygon fill="#ffffff" stroke="#000000" points="145,-420.5 145,-461.5 283,-461.5 283,-420.5 145,-420.5"/>
<text text-anchor="start" x="153" y="-449.5" font-family="Helvetica,sans-Serif" font-size="10.00" fill="#000000">cimg_library_suffixed</text>
<text text-anchor="start" x="153" y="-438.5" font-family="Helvetica,sans-Serif" font-size="10.00" fill="#000000">::CImg::_cimg_math_parser</text>
<text text-anchor="middle" x="214" y="-427.5" font-family="Helvetica,sans-Serif" font-size="10.00" fill="#000000">::check_list</text>
</a>
</g>
</g>
<!-- Node561&#45;&gt;Node564 -->
<g id="edge3" class="edge">
<title>Node561&#45;&gt;Node564</title>
<path fill="none" stroke="#191970" d="M67.6727,-315.2908C83.1413,-341.869 111.0483,-384.2461 145,-411 149.4117,-414.4764 154.2881,-417.6314 159.3486,-420.4748"/>
<polygon fill="#191970" stroke="#191970" points="70.5316,-313.2374 62.5483,-306.2719 64.4453,-316.6955 70.5316,-313.2374"/>
</g>
<!-- Node565 -->
<g id="node5" class="node">
<title>Node565</title>
<g id="a_node5"><a xlink:href="structcimg__library__suffixed_1_1_c_img_1_1__cimg__math__parser.html#a9eaf3a1d2c38a1a1b9275604320fc1cc" target="_top" xlink:title="cimg_library_suffixed\l::CImg::_cimg_math_parser\l::check_matrix_square">
<polygon fill="#ffffff" stroke="#000000" points="145,-360.5 145,-401.5 283,-401.5 283,-360.5 145,-360.5"/>
<text text-anchor="start" x="153" y="-389.5" font-family="Helvetica,sans-Serif" font-size="10.00" fill="#000000">cimg_library_suffixed</text>
<text text-anchor="start" x="153" y="-378.5" font-family="Helvetica,sans-Serif" font-size="10.00" fill="#000000">::CImg::_cimg_math_parser</text>
<text text-anchor="middle" x="214" y="-367.5" font-family="Helvetica,sans-Serif" font-size="10.00" fill="#000000">::check_matrix_square</text>
</a>
</g>
</g>
<!-- Node561&#45;&gt;Node565 -->
<g id="edge4" class="edge">
<title>Node561&#45;&gt;Node565</title>
<path fill="none" stroke="#191970" d="M83.6115,-312.1927C100.9666,-324.3412 123.7017,-339.4258 145,-351 150.9681,-354.2433 157.3586,-357.4068 163.7537,-360.3891"/>
<polygon fill="#191970" stroke="#191970" points="85.2468,-309.0621 75.0624,-306.1416 81.2026,-314.7757 85.2468,-309.0621"/>
</g>
<!-- Node566 -->
<g id="node6" class="node">
<title>Node566</title>
<g id="a_node6"><a xlink:href="structcimg__library__suffixed_1_1_c_img_1_1__cimg__math__parser.html#ae5bd43fbdd9ff01b95538fd9958ea79f" target="_top" xlink:title="cimg_library_suffixed\l::CImg::_cimg_math_parser\l::check_type">
<polygon fill="#ffffff" stroke="#000000" points="145,-300.5 145,-341.5 283,-341.5 283,-300.5 145,-300.5"/>
<text text-anchor="start" x="153" y="-329.5" font-family="Helvetica,sans-Serif" font-size="10.00" fill="#000000">cimg_library_suffixed</text>
<text text-anchor="start" x="153" y="-318.5" font-family="Helvetica,sans-Serif" font-size="10.00" fill="#000000">::CImg::_cimg_math_parser</text>
<text text-anchor="middle" x="214" y="-307.5" font-family="Helvetica,sans-Serif" font-size="10.00" fill="#000000">::check_type</text>
</a>
</g>
</g>
<!-- Node561&#45;&gt;Node566 -->
<g id="edge5" class="edge">
<title>Node561&#45;&gt;Node566</title>
<path fill="none" stroke="#191970" d="M119.4793,-303.2218C127.8632,-304.7987 136.4728,-306.4181 144.9198,-308.0069"/>
<polygon fill="#191970" stroke="#191970" points="119.8655,-299.7332 109.3909,-301.3243 118.5715,-306.6125 119.8655,-299.7332"/>
</g>
<!-- Node567 -->
<g id="node7" class="node">
<title>Node567</title>
<g id="a_node7"><a xlink:href="structcimg__library__suffixed_1_1_c_img_1_1__cimg__math__parser.html#adb9859b0bd33e7d69c94b50d407b7a9e" target="_top" xlink:title="cimg_library_suffixed\l::CImg::_cimg_math_parser\l::check_vector0">
<polygon fill="#ffffff" stroke="#000000" points="145,-240.5 145,-281.5 283,-281.5 283,-240.5 145,-240.5"/>
<text text-anchor="start" x="153" y="-269.5" font-family="Helvetica,sans-Serif" font-size="10.00" fill="#000000">cimg_library_suffixed</text>
<text text-anchor="start" x="153" y="-258.5" font-family="Helvetica,sans-Serif" font-size="10.00" fill="#000000">::CImg::_cimg_math_parser</text>
<text text-anchor="middle" x="214" y="-247.5" font-family="Helvetica,sans-Serif" font-size="10.00" fill="#000000">::check_vector0</text>
</a>
</g>
</g>
<!-- Node561&#45;&gt;Node567 -->
<g id="edge6" class="edge">
<title>Node561&#45;&gt;Node567</title>
<path fill="none" stroke="#191970" d="M119.4793,-278.7782C127.8632,-277.2013 136.4728,-275.5819 144.9198,-273.9931"/>
<polygon fill="#191970" stroke="#191970" points="118.5715,-275.3875 109.3909,-280.6757 119.8655,-282.2668 118.5715,-275.3875"/>
</g>
<!-- Node568 -->
<g id="node8" class="node">
<title>Node568</title>
<g id="a_node8"><a xlink:href="structcimg__library__suffixed_1_1_c_img_1_1__cimg__math__parser.html#a318c44c5d1f4f0114355f37ace87a4ae" target="_top" xlink:title="cimg_library_suffixed\l::CImg::_cimg_math_parser\l::compile">
<polygon fill="#ffffff" stroke="#000000" points="145,-180.5 145,-221.5 283,-221.5 283,-180.5 145,-180.5"/>
<text text-anchor="start" x="153" y="-209.5" font-family="Helvetica,sans-Serif" font-size="10.00" fill="#000000">cimg_library_suffixed</text>
<text text-anchor="start" x="153" y="-198.5" font-family="Helvetica,sans-Serif" font-size="10.00" fill="#000000">::CImg::_cimg_math_parser</text>
<text text-anchor="middle" x="214" y="-187.5" font-family="Helvetica,sans-Serif" font-size="10.00" fill="#000000">::compile</text>
</a>
</g>
</g>
<!-- Node561&#45;&gt;Node568 -->
<g id="edge7" class="edge">
<title>Node561&#45;&gt;Node568</title>
<path fill="none" stroke="#191970" d="M83.6115,-269.8073C100.9666,-257.6588 123.7017,-242.5742 145,-231 150.9681,-227.7567 157.3586,-224.5932 163.7537,-221.6109"/>
<polygon fill="#191970" stroke="#191970" points="81.2026,-267.2243 75.0624,-275.8584 85.2468,-272.9379 81.2026,-267.2243"/>
</g>
<!-- Node569 -->
<g id="node9" class="node">
<title>Node569</title>
<g id="a_node9"><a xlink:href="structcimg__library__suffixed_1_1_c_img_1_1__cimg__math__parser.html#aee12d443bb77c1a9e08f712491bf90c5" target="_top" xlink:title="cimg_library_suffixed\l::CImg::_cimg_math_parser\l::mp_stov">
<polygon fill="#ffffff" stroke="#000000" points="145,-120.5 145,-161.5 283,-161.5 283,-120.5 145,-120.5"/>
<text text-anchor="start" x="153" y="-149.5" font-family="Helvetica,sans-Serif" font-size="10.00" fill="#000000">cimg_library_suffixed</text>
<text text-anchor="start" x="153" y="-138.5" font-family="Helvetica,sans-Serif" font-size="10.00" fill="#000000">::CImg::_cimg_math_parser</text>
<text text-anchor="middle" x="214" y="-127.5" font-family="Helvetica,sans-Serif" font-size="10.00" fill="#000000">::mp_stov</text>
</a>
</g>
</g>
<!-- Node561&#45;&gt;Node569 -->
<g id="edge8" class="edge">
<title>Node561&#45;&gt;Node569</title>
<path fill="none" stroke="#191970" d="M67.6727,-266.7092C83.1413,-240.131 111.0483,-197.7539 145,-171 149.4117,-167.5236 154.2881,-164.3686 159.3486,-161.5252"/>
<polygon fill="#191970" stroke="#191970" points="64.4453,-265.3045 62.5483,-275.7281 70.5316,-268.7626 64.4453,-265.3045"/>
</g>
<!-- Node570 -->
<g id="node10" class="node">
<title>Node570</title>
<g id="a_node10"><a xlink:href="structcimg__library__suffixed_1_1_c_img_list.html#a759ef20b53f1e507973dc53fcc2c7bb2" target="_top" xlink:title="Save image sequence as a GIF animated file. ">
<polygon fill="#ffffff" stroke="#000000" points="158.5,-60.5 158.5,-101.5 269.5,-101.5 269.5,-60.5 158.5,-60.5"/>
<text text-anchor="start" x="166.5" y="-89.5" font-family="Helvetica,sans-Serif" font-size="10.00" fill="#000000">cimg_library_suffixed</text>
<text text-anchor="start" x="166.5" y="-78.5" font-family="Helvetica,sans-Serif" font-size="10.00" fill="#000000">::CImgList&lt; charT &gt;::</text>
<text text-anchor="middle" x="214" y="-67.5" font-family="Helvetica,sans-Serif" font-size="10.00" fill="#000000">save_gif_external</text>
</a>
</g>
</g>
<!-- Node561&#45;&gt;Node570 -->
<g id="edge9" class="edge">
<title>Node561&#45;&gt;Node570</title>
<path fill="none" stroke="#191970" d="M61.0699,-266.0497C72.286,-227.9142 98.5429,-154.9371 145,-111 148.9859,-107.2303 153.5212,-103.89 158.3183,-100.9397"/>
<polygon fill="#191970" stroke="#191970" points="57.6578,-265.2536 58.3009,-275.8288 64.393,-267.1607 57.6578,-265.2536"/>
</g>
<!-- Node571 -->
<g id="node11" class="node">
<title>Node571</title>
<g id="a_node11"><a xlink:href="structcimg__library__suffixed_1_1_c_img.html#ad8ca8eae0dbb8b4a6a8131ca1fef4bff" target="_top" xlink:title="Return a C&#45;string containing a list of all values of the image instance. ">
<polygon fill="#ffffff" stroke="#000000" points="154.5,-.5 154.5,-41.5 273.5,-41.5 273.5,-.5 154.5,-.5"/>
<text text-anchor="start" x="162.5" y="-29.5" font-family="Helvetica,sans-Serif" font-size="10.00" fill="#000000">cimg_library_suffixed</text>
<text text-anchor="start" x="162.5" y="-18.5" font-family="Helvetica,sans-Serif" font-size="10.00" fill="#000000">::CImg&lt; charT &gt;::value</text>
<text text-anchor="middle" x="214" y="-7.5" font-family="Helvetica,sans-Serif" font-size="10.00" fill="#000000">_string</text>
</a>
</g>
</g>
<!-- Node561&#45;&gt;Node571 -->
<g id="edge10" class="edge">
<title>Node561&#45;&gt;Node571</title>
<path fill="none" stroke="#191970" d="M57.4838,-265.8373C64.4079,-218.0185 85.7615,-113.2478 145,-51 148.3318,-47.4989 152.1419,-44.3832 156.2224,-41.6145"/>
<polygon fill="#191970" stroke="#191970" points="53.991,-265.5489 56.1173,-275.9282 60.9277,-266.4883 53.991,-265.5489"/>
</g>
</g>
</svg>
        <g id="navigator" transform="translate(0 0)" fill="#404254">
                <rect fill="#f2f5e9" fill-opacity="0.5" stroke="#606060" stroke-width=".5" x="0" y="0" width="60" height="60"/>
                <use id="zoomplus" xlink:href="#zoomPlus" x="17" y="9" onmousedown="handleZoom(evt,'in')"/>
                <use id="zoomminus" xlink:href="#zoomMin" x="42" y="9" onmousedown="handleZoom(evt,'out')"/>
                <use id="reset" xlink:href="#resetDef" x="30" y="36" onmousedown="handleReset()"/>
                <g id="arrowUp" xlink:href="#dirArrow" transform="translate(30 24)" onmousedown="handlePan(0,-1)">
                  <use xlink:href="#rim" fill="#404040">
                        <set attributeName="fill" to="#808080" begin="arrowUp.mouseover" end="arrowUp.mouseout"/>
                  </use>
                  <path fill="none" stroke="white" stroke-width="1.5" d="M0,-3.0v7 M-2.5,-0.5L0,-3.0L2.5,-0.5"/>
                </g>
                <g id="arrowRight" xlink:href="#dirArrow" transform="rotate(90) translate(36 -43)" onmousedown="handlePan(1,0)">
                  <use xlink:href="#rim" fill="#404040">
                        <set attributeName="fill" to="#808080" begin="arrowRight.mouseover" end="arrowRight.mouseout"/>
                  </use>
                  <path fill="none" stroke="white" stroke-width="1.5" d="M0,-3.0v7 M-2.5,-0.5L0,-3.0L2.5,-0.5"/>
                </g>
                <g id="arrowDown" xlink:href="#dirArrow" transform="rotate(180) translate(-30 -48)" onmousedown="handlePan(0,1)">
                  <use xlink:href="#rim" fill="#404040">
                        <set attributeName="fill" to="#808080" begin="arrowDown.mouseover" end="arrowDown.mouseout"/>
                  </use>
                  <path fill="none" stroke="white" stroke-width="1.5" d="M0,-3.0v7 M-2.5,-0.5L0,-3.0L2.5,-0.5"/>
                </g>
                <g id="arrowLeft" xlink:href="#dirArrow" transform="rotate(270) translate(-36 17)" onmousedown="handlePan(-1,0)">
                  <use xlink:href="#rim" fill="#404040">
                        <set attributeName="fill" to="#808080" begin="arrowLeft.mouseover" end="arrowLeft.mouseout"/>
                  </use>
                  <path fill="none" stroke="white" stroke-width="1.5" d="M0,-3.0v7 M-2.5,-0.5L0,-3.0L2.5,-0.5"/>
                </g>
        </g>
        <svg viewBox="0 0 15 15" width="100%" height="30px" preserveAspectRatio="xMaxYMin meet">
         <g id="arrow_out" transform="scale(0.3 0.3)">
          <a xlink:href="structcimg__library__suffixed_1_1_c_img_a17a3c105772f6401fd631d0d82a59d65_icgraph_org.svg" target="_base">
           <rect id="button" ry="5" rx="5" y="6" x="6" height="38" width="38"
                fill="#f2f5e9" fill-opacity="0.5" stroke="#606060" stroke-width="1.0"/>
           <path id="arrow"
             d="M 11.500037,31.436501 C 11.940474,20.09759 22.043105,11.32322 32.158766,21.979434 L 37.068811,17.246167 C 37.068811,17.246167 37.088388,32 37.088388,32 L 22.160133,31.978069 C 22.160133,31.978069 26.997745,27.140456 26.997745,27.140456 C 18.528582,18.264221 13.291696,25.230495 11.500037,31.436501 z"
             style="fill:#404040;"/>
          </a>
         </g>
        </svg>
</svg>
