<?xml version="1.0" encoding="UTF-8" standalone="no"?>
<!DOCTYPE svg PUBLIC "-//W3C//DTD SVG 1.1//EN"
 "http://www.w3.org/Graphics/SVG/1.1/DTD/svg11.dtd">
<!-- Generated by graphviz version 2.40.1 (20161225.0304)
 -->
<!-- Title: cimg_library_suffixed::CImg::_cimg_math_parser::mp_fibonacci Pages: 1 -->
<svg width="726pt" height="50pt"
 viewBox="0.00 0.00 726.00 50.00" xmlns="http://www.w3.org/2000/svg" xmlns:xlink="http://www.w3.org/1999/xlink">
<g id="graph0" class="graph" transform="scale(1 1) rotate(0) translate(4 46)">
<title>cimg_library_suffixed::CImg::_cimg_math_parser::mp_fibonacci</title>
<polygon fill="#ffffff" stroke="transparent" points="-4,4 -4,-46 722,-46 722,4 -4,4"/>
<!-- Node421 -->
<g id="node1" class="node">
<title>Node421</title>
<polygon fill="#bfbfbf" stroke="#000000" points="0,-.5 0,-41.5 138,-41.5 138,-.5 0,-.5"/>
<text text-anchor="start" x="8" y="-29.5" font-family="Helvetica,sans-Serif" font-size="10.00" fill="#000000">cimg_library_suffixed</text>
<text text-anchor="start" x="8" y="-18.5" font-family="Helvetica,sans-Serif" font-size="10.00" fill="#000000">::CImg::_cimg_math_parser</text>
<text text-anchor="middle" x="69" y="-7.5" font-family="Helvetica,sans-Serif" font-size="10.00" fill="#000000">::mp_fibonacci</text>
</g>
<!-- Node422 -->
<g id="node2" class="node">
<title>Node422</title>
<g id="a_node2"><a xlink:href="namespacecimg__library__suffixed_1_1cimg.html#aa9c0e571bc9644b4d838630f9a79534f" target="_top" xlink:title="Calculate fibonacci number. ">
<polygon fill="#ffffff" stroke="#000000" points="174,-6 174,-36 283,-36 283,-6 174,-6"/>
<text text-anchor="start" x="182" y="-24" font-family="Helvetica,sans-Serif" font-size="10.00" fill="#000000">cimg_library_suffixed</text>
<text text-anchor="middle" x="228.5" y="-13" font-family="Helvetica,sans-Serif" font-size="10.00" fill="#000000">::cimg::fibonacci</text>
</a>
</g>
</g>
<!-- Node421&#45;&gt;Node422 -->
<g id="edge1" class="edge">
<title>Node421&#45;&gt;Node422</title>
<path fill="none" stroke="#191970" d="M138.0314,-21C146.5309,-21 155.1959,-21 163.6306,-21"/>
<polygon fill="#191970" stroke="#191970" points="163.7783,-24.5001 173.7783,-21 163.7782,-17.5001 163.7783,-24.5001"/>
</g>
<!-- Node423 -->
<g id="node3" class="node">
<title>Node423</title>
<g id="a_node3"><a xlink:href="namespacecimg__library__suffixed_1_1cimg.html#af54e8ac35c9b3c07062005881b2c4e08" target="_top" xlink:title="cimg_library_suffixed\l::cimg::_fibonacci">
<polygon fill="#ffffff" stroke="#000000" points="319,-6 319,-36 428,-36 428,-6 319,-6"/>
<text text-anchor="start" x="327" y="-24" font-family="Helvetica,sans-Serif" font-size="10.00" fill="#000000">cimg_library_suffixed</text>
<text text-anchor="middle" x="373.5" y="-13" font-family="Helvetica,sans-Serif" font-size="10.00" fill="#000000">::cimg::_fibonacci</text>
</a>
</g>
</g>
<!-- Node422&#45;&gt;Node423 -->
<g id="edge2" class="edge">
<title>Node422&#45;&gt;Node423</title>
<path fill="none" stroke="#191970" d="M283.3183,-21C291.5286,-21 300.0611,-21 308.4586,-21"/>
<polygon fill="#191970" stroke="#191970" points="308.6042,-24.5001 318.6042,-21 308.6042,-17.5001 308.6042,-24.5001"/>
</g>
<!-- Node424 -->
<g id="node4" class="node">
<title>Node424</title>
<g id="a_node4"><a xlink:href="namespacecimg__library__suffixed.html#a00d0fd9a21d8d5e8a9fa4033593e6acf" target="_top" xlink:title="cimg_library_suffixed\l::sqrt">
<polygon fill="#ffffff" stroke="#000000" points="464,-6 464,-36 573,-36 573,-6 464,-6"/>
<text text-anchor="start" x="472" y="-24" font-family="Helvetica,sans-Serif" font-size="10.00" fill="#000000">cimg_library_suffixed</text>
<text text-anchor="middle" x="518.5" y="-13" font-family="Helvetica,sans-Serif" font-size="10.00" fill="#000000">::sqrt</text>
</a>
</g>
</g>
<!-- Node423&#45;&gt;Node424 -->
<g id="edge3" class="edge">
<title>Node423&#45;&gt;Node424</title>
<path fill="none" stroke="#191970" d="M428.3183,-21C436.5286,-21 445.0611,-21 453.4586,-21"/>
<polygon fill="#191970" stroke="#191970" points="453.6042,-24.5001 463.6042,-21 453.6042,-17.5001 453.6042,-24.5001"/>
</g>
<!-- Node425 -->
<g id="node5" class="node">
<title>Node425</title>
<g id="a_node5"><a xlink:href="structcimg__library__suffixed_1_1_c_img.html#a550cfc014f80c68359d3b55a0d3803b9" target="_top" xlink:title="Compute the square root of each pixel value . ">
<polygon fill="#ffffff" stroke="#000000" points="609,-6 609,-36 718,-36 718,-6 609,-6"/>
<text text-anchor="start" x="617" y="-24" font-family="Helvetica,sans-Serif" font-size="10.00" fill="#000000">cimg_library_suffixed</text>
<text text-anchor="middle" x="663.5" y="-13" font-family="Helvetica,sans-Serif" font-size="10.00" fill="#000000">::CImg::get_sqrt</text>
</a>
</g>
</g>
<!-- Node424&#45;&gt;Node425 -->
<g id="edge4" class="edge">
<title>Node424&#45;&gt;Node425</title>
<path fill="none" stroke="#191970" d="M573.3183,-21C581.5286,-21 590.0611,-21 598.4586,-21"/>
<polygon fill="#191970" stroke="#191970" points="598.6042,-24.5001 608.6042,-21 598.6042,-17.5001 598.6042,-24.5001"/>
</g>
</g>
</svg>
