<?xml version="1.0" encoding="UTF-8" standalone="no"?>
<!DOCTYPE svg PUBLIC "-//W3C//DTD SVG 1.1//EN"
 "http://www.w3.org/Graphics/SVG/1.1/DTD/svg11.dtd">
<!-- Generated by graphviz version 2.40.1 (20161225.0304)
 -->
<!-- Title: cimg_library_suffixed::CImg::draw_ellipse Pages: 1 -->
<svg width="291pt" height="100pt"
 viewBox="0.00 0.00 291.00 99.50" xmlns="http://www.w3.org/2000/svg" xmlns:xlink="http://www.w3.org/1999/xlink">
<g id="graph0" class="graph" transform="scale(1 1) rotate(0) translate(4 95.5)">
<title>cimg_library_suffixed::CImg::draw_ellipse</title>
<polygon fill="#ffffff" stroke="transparent" points="-4,4 -4,-95.5 287,-95.5 287,4 -4,4"/>
<!-- Node947 -->
<g id="node1" class="node">
<title>Node947</title>
<polygon fill="#bfbfbf" stroke="#000000" points="0,-33 0,-63 109,-63 109,-33 0,-33"/>
<text text-anchor="start" x="8" y="-51" font-family="Helvetica,sans-Serif" font-size="10.00" fill="#000000">cimg_library_suffixed</text>
<text text-anchor="middle" x="54.5" y="-40" font-family="Helvetica,sans-Serif" font-size="10.00" fill="#000000">::CImg::draw_ellipse</text>
</g>
<!-- Node948 -->
<g id="node2" class="node">
<title>Node948</title>
<g id="a_node2"><a xlink:href="structcimg__library__suffixed_1_1_c_img.html#ad9b7141242d0b6e861a8014112ddb5b5" target="_top" xlink:title="cimg_library_suffixed\l::CImg\&lt; charT \&gt;::_select">
<polygon fill="#ffffff" stroke="#000000" points="150.5,-61 150.5,-91 277.5,-91 277.5,-61 150.5,-61"/>
<text text-anchor="start" x="158.5" y="-79" font-family="Helvetica,sans-Serif" font-size="10.00" fill="#000000">cimg_library_suffixed</text>
<text text-anchor="middle" x="214" y="-68" font-family="Helvetica,sans-Serif" font-size="10.00" fill="#000000">::CImg&lt; charT &gt;::_select</text>
</a>
</g>
</g>
<!-- Node947&#45;&gt;Node948 -->
<g id="edge1" class="edge">
<title>Node947&#45;&gt;Node948</title>
<path fill="none" stroke="#191970" d="M119.4206,-59.3967C129.587,-61.1814 140.0868,-63.0246 150.2271,-64.8048"/>
<polygon fill="#191970" stroke="#191970" points="119.8454,-55.9179 109.3909,-57.636 118.635,-62.8124 119.8454,-55.9179"/>
</g>
<!-- Node949 -->
<g id="node3" class="node">
<title>Node949</title>
<g id="a_node3"><a xlink:href="structcimg__library__suffixed_1_1_c_img_1_1__cimg__math__parser.html#a4cd30507977620b554a3d18a99901ec5" target="_top" xlink:title="cimg_library_suffixed\l::CImg::_cimg_math_parser\l::mp_ellipse">
<polygon fill="#ffffff" stroke="#000000" points="145,-.5 145,-41.5 283,-41.5 283,-.5 145,-.5"/>
<text text-anchor="start" x="153" y="-29.5" font-family="Helvetica,sans-Serif" font-size="10.00" fill="#000000">cimg_library_suffixed</text>
<text text-anchor="start" x="153" y="-18.5" font-family="Helvetica,sans-Serif" font-size="10.00" fill="#000000">::CImg::_cimg_math_parser</text>
<text text-anchor="middle" x="214" y="-7.5" font-family="Helvetica,sans-Serif" font-size="10.00" fill="#000000">::mp_ellipse</text>
</a>
</g>
</g>
<!-- Node947&#45;&gt;Node949 -->
<g id="edge2" class="edge">
<title>Node947&#45;&gt;Node949</title>
<path fill="none" stroke="#191970" d="M119.4793,-37.0004C127.8632,-35.5811 136.4728,-34.1237 144.9198,-32.6938"/>
<polygon fill="#191970" stroke="#191970" points="118.6664,-33.5881 109.3909,-38.7081 119.8348,-40.4899 118.6664,-33.5881"/>
</g>
</g>
</svg>
