<?xml version="1.0" encoding="UTF-8" standalone="no"?>
<!DOCTYPE svg PUBLIC "-//W3C//DTD SVG 1.1//EN"
 "http://www.w3.org/Graphics/SVG/1.1/DTD/svg11.dtd">
<!-- Generated by graphviz version 2.40.1 (20161225.0304)
 -->
<!-- Title: cimg_library_suffixed::CImg::save_gzip_external Pages: 1 -->
<svg width="292pt" height="50pt"
 viewBox="0.00 0.00 292.00 50.00" xmlns="http://www.w3.org/2000/svg" xmlns:xlink="http://www.w3.org/1999/xlink">
<g id="graph0" class="graph" transform="scale(1 1) rotate(0) translate(4 46)">
<title>cimg_library_suffixed::CImg::save_gzip_external</title>
<polygon fill="#ffffff" stroke="transparent" points="-4,4 -4,-46 288,-46 288,4 -4,4"/>
<!-- Node3032 -->
<g id="node1" class="node">
<title>Node3032</title>
<polygon fill="#bfbfbf" stroke="#000000" points="0,-6 0,-36 137,-36 137,-6 0,-6"/>
<text text-anchor="start" x="8" y="-24" font-family="Helvetica,sans-Serif" font-size="10.00" fill="#000000">cimg_library_suffixed</text>
<text text-anchor="middle" x="68.5" y="-13" font-family="Helvetica,sans-Serif" font-size="10.00" fill="#000000">::CImg::save_gzip_external</text>
</g>
<!-- Node3033 -->
<g id="node2" class="node">
<title>Node3033</title>
<g id="a_node2"><a xlink:href="structcimg__library__suffixed_1_1_c_img_list.html#aad5afe8b913e276dd281255dd787b4ba" target="_top" xlink:title="Save list as a gzipped file, using external tool &#39;gzip&#39;. ">
<polygon fill="#ffffff" stroke="#000000" points="173,-.5 173,-41.5 284,-41.5 284,-.5 173,-.5"/>
<text text-anchor="start" x="181" y="-29.5" font-family="Helvetica,sans-Serif" font-size="10.00" fill="#000000">cimg_library_suffixed</text>
<text text-anchor="start" x="181" y="-18.5" font-family="Helvetica,sans-Serif" font-size="10.00" fill="#000000">::CImgList&lt; charT &gt;::</text>
<text text-anchor="middle" x="228.5" y="-7.5" font-family="Helvetica,sans-Serif" font-size="10.00" fill="#000000">save_gzip_external</text>
</a>
</g>
</g>
<!-- Node3032&#45;&gt;Node3033 -->
<g id="edge1" class="edge">
<title>Node3032&#45;&gt;Node3033</title>
<path fill="none" stroke="#191970" d="M147.3437,-21C155.9413,-21 164.5566,-21 172.7924,-21"/>
<polygon fill="#191970" stroke="#191970" points="147.283,-17.5001 137.283,-21 147.2829,-24.5001 147.283,-17.5001"/>
</g>
</g>
</svg>
