<?xml version="1.0" encoding="UTF-8" standalone="no"?>
<!DOCTYPE svg PUBLIC "-//W3C//DTD SVG 1.1//EN"
 "http://www.w3.org/Graphics/SVG/1.1/DTD/svg11.dtd">
<!-- Generated by graphviz version 2.40.1 (20161225.0304)
 -->
<!-- Title: cimg_library_suffixed::CImgList::is_empty Pages: 1 -->
<!--zoomable 170 -->
<svg id="main" version="1.1" xmlns="http://www.w3.org/2000/svg" xmlns:xlink="http://www.w3.org/1999/xlink" xml:space="preserve" onload="init(evt)">
<style type="text/css"><![CDATA[
.edge:hover path { stroke: red; }
.edge:hover polygon { stroke: red; fill: red; }
]]></style>
<script type="text/javascript"><![CDATA[
var edges = document.getElementsByTagName('g');
if (edges && edges.length) {
  for (var i=0;i<edges.length;i++) {
    if (edges[i].id.substr(0,4)=='edge') {
      edges[i].setAttribute('class','edge');
    }
  }
}
]]></script>
        <defs>
                <circle id="rim" cx="0" cy="0" r="7"/>
                <circle id="rim2" cx="0" cy="0" r="3.5"/>
                <g id="zoomPlus">
                        <use xlink:href="#rim" fill="#404040">
                                <set attributeName="fill" to="#808080" begin="zoomplus.mouseover" end="zoomplus.mouseout"/>
                        </use>
                        <path d="M-4,0h8M0,-4v8" fill="none" stroke="white" stroke-width="1.5" pointer-events="none"/>
                </g>
                <g id="zoomMin">
                        <use xlink:href="#rim" fill="#404040">
                                <set attributeName="fill" to="#808080" begin="zoomminus.mouseover" end="zoomminus.mouseout"/>
                        </use>
                        <path d="M-4,0h8" fill="none" stroke="white" stroke-width="1.5" pointer-events="none"/>
                </g>
                <g id="dirArrow">
                        <path fill="none" stroke="white" stroke-width="1.5" d="M0,-3.0v7 M-2.5,-0.5L0,-3.0L2.5,-0.5"/>
                </g>
               <g id="resetDef">
                       <use xlink:href="#rim2" fill="#404040">
                               <set attributeName="fill" to="#808080" begin="reset.mouseover" end="reset.mouseout"/>
                       </use>
               </g>
        </defs>

<script type="text/javascript">
var viewWidth = 522;
var viewHeight = 170;
var sectionId = 'dynsection-15';
</script>
<script xlink:href="svgpan.js"/>
<svg id="graph" class="graph">
<g id="viewport">
<title>cimg_library_suffixed::CImgList::is_empty</title>
<polygon fill="#ffffff" stroke="transparent" points="-4,4 -4,-166 518,-166 518,4 -4,4"/>
<!-- Node416 -->
<g id="node1" class="node">
<title>Node416</title>
<polygon fill="#bfbfbf" stroke="#000000" points="0,-93 0,-123 109,-123 109,-93 0,-93"/>
<text text-anchor="start" x="8" y="-111" font-family="Helvetica,sans-Serif" font-size="10.00" fill="#000000">cimg_library_suffixed</text>
<text text-anchor="middle" x="54.5" y="-100" font-family="Helvetica,sans-Serif" font-size="10.00" fill="#000000">::CImgList::is_empty</text>
</g>
<!-- Node417 -->
<g id="node2" class="node">
<title>Node417</title>
<g id="a_node2"><a xlink:href="structcimg__library__suffixed_1_1_c_img.html#a6e521f19387cd39d23a41f0aee190221" target="_top" xlink:title="cimg_library_suffixed\l::CImg\&lt; charT \&gt;::__draw\l_object3d">
<polygon fill="#ffffff" stroke="#000000" points="161.5,-115.5 161.5,-156.5 288.5,-156.5 288.5,-115.5 161.5,-115.5"/>
<text text-anchor="start" x="169.5" y="-144.5" font-family="Helvetica,sans-Serif" font-size="10.00" fill="#000000">cimg_library_suffixed</text>
<text text-anchor="start" x="169.5" y="-133.5" font-family="Helvetica,sans-Serif" font-size="10.00" fill="#000000">::CImg&lt; charT &gt;::__draw</text>
<text text-anchor="middle" x="225" y="-122.5" font-family="Helvetica,sans-Serif" font-size="10.00" fill="#000000">_object3d</text>
</a>
</g>
</g>
<!-- Node416&#45;&gt;Node417 -->
<g id="edge1" class="edge">
<title>Node416&#45;&gt;Node417</title>
<path fill="none" stroke="#191970" d="M119.2613,-118.6353C133.0385,-120.8978 147.5746,-123.285 161.3113,-125.5409"/>
<polygon fill="#191970" stroke="#191970" points="119.8208,-115.1804 109.3858,-117.0135 118.6864,-122.0878 119.8208,-115.1804"/>
</g>
<!-- Node418 -->
<g id="node3" class="node">
<title>Node418</title>
<g id="a_node3"><a xlink:href="structcimg__library__suffixed_1_1_c_img_1_1__cimg__math__parser.html#a6707c6d516122d4e601391d6d0d608bc" target="_top" xlink:title="cimg_library_suffixed\l::CImg::_cimg_math_parser::end">
<polygon fill="#ffffff" stroke="#000000" points="145,-66 145,-96 305,-96 305,-66 145,-66"/>
<text text-anchor="start" x="153" y="-84" font-family="Helvetica,sans-Serif" font-size="10.00" fill="#000000">cimg_library_suffixed</text>
<text text-anchor="middle" x="225" y="-73" font-family="Helvetica,sans-Serif" font-size="10.00" fill="#000000">::CImg::_cimg_math_parser::end</text>
</a>
</g>
</g>
<!-- Node416&#45;&gt;Node418 -->
<g id="edge2" class="edge">
<title>Node416&#45;&gt;Node418</title>
<path fill="none" stroke="#191970" d="M119.3605,-97.7288C127.6683,-96.4132 136.2506,-95.0542 144.766,-93.7057"/>
<polygon fill="#191970" stroke="#191970" points="118.7152,-94.2873 109.3858,-99.3084 119.8102,-101.2012 118.7152,-94.2873"/>
</g>
<!-- Node419 -->
<g id="node4" class="node">
<title>Node419</title>
<g id="a_node4"><a xlink:href="structcimg__library__suffixed_1_1_c_img_1_1__functor2d__expr.html#aa62f7b3ab95d5897ec18a179b2777dfa" target="_top" xlink:title="cimg_library_suffixed\l::CImg::_functor2d_expr\l::~_functor2d_expr">
<polygon fill="#ffffff" stroke="#000000" points="366.5,-120.5 366.5,-161.5 488.5,-161.5 488.5,-120.5 366.5,-120.5"/>
<text text-anchor="start" x="374.5" y="-149.5" font-family="Helvetica,sans-Serif" font-size="10.00" fill="#000000">cimg_library_suffixed</text>
<text text-anchor="start" x="374.5" y="-138.5" font-family="Helvetica,sans-Serif" font-size="10.00" fill="#000000">::CImg::_functor2d_expr</text>
<text text-anchor="middle" x="427.5" y="-127.5" font-family="Helvetica,sans-Serif" font-size="10.00" fill="#000000">::~_functor2d_expr</text>
</a>
</g>
</g>
<!-- Node418&#45;&gt;Node419 -->
<g id="edge3" class="edge">
<title>Node418&#45;&gt;Node419</title>
<path fill="none" stroke="#191970" d="M285.7297,-98.994C311.1587,-106.5285 340.6715,-115.273 366.1648,-122.8266"/>
<polygon fill="#191970" stroke="#191970" points="286.4202,-95.5482 275.8379,-96.0631 284.4316,-102.2598 286.4202,-95.5482"/>
</g>
<!-- Node420 -->
<g id="node5" class="node">
<title>Node420</title>
<g id="a_node5"><a xlink:href="structcimg__library__suffixed_1_1_c_img_1_1__functor3d__expr.html#a06b123f343ca7d0805a8ef4b7544ed80" target="_top" xlink:title="cimg_library_suffixed\l::CImg::_functor3d_expr\l::~_functor3d_expr">
<polygon fill="#ffffff" stroke="#000000" points="366.5,-60.5 366.5,-101.5 488.5,-101.5 488.5,-60.5 366.5,-60.5"/>
<text text-anchor="start" x="374.5" y="-89.5" font-family="Helvetica,sans-Serif" font-size="10.00" fill="#000000">cimg_library_suffixed</text>
<text text-anchor="start" x="374.5" y="-78.5" font-family="Helvetica,sans-Serif" font-size="10.00" fill="#000000">::CImg::_functor3d_expr</text>
<text text-anchor="middle" x="427.5" y="-67.5" font-family="Helvetica,sans-Serif" font-size="10.00" fill="#000000">::~_functor3d_expr</text>
</a>
</g>
</g>
<!-- Node418&#45;&gt;Node420 -->
<g id="edge4" class="edge">
<title>Node418&#45;&gt;Node420</title>
<path fill="none" stroke="#191970" d="M315.1816,-81C332.5301,-81 350.3173,-81 366.473,-81"/>
<polygon fill="#191970" stroke="#191970" points="315.0334,-77.5001 305.0334,-81 315.0333,-84.5001 315.0334,-77.5001"/>
</g>
<!-- Node421 -->
<g id="node6" class="node">
<title>Node421</title>
<g id="a_node6"><a xlink:href="structcimg__library__suffixed_1_1_c_img_1_1__functor4d__streamline__expr.html#ab73048a58fd20fe9586f11445227a0b1" target="_top" xlink:title="cimg_library_suffixed\l::CImg::_functor4d_streamline\l_expr::~_functor4d_streamline_expr">
<polygon fill="#ffffff" stroke="#000000" points="341,-.5 341,-41.5 514,-41.5 514,-.5 341,-.5"/>
<text text-anchor="start" x="349" y="-29.5" font-family="Helvetica,sans-Serif" font-size="10.00" fill="#000000">cimg_library_suffixed</text>
<text text-anchor="start" x="349" y="-18.5" font-family="Helvetica,sans-Serif" font-size="10.00" fill="#000000">::CImg::_functor4d_streamline</text>
<text text-anchor="middle" x="427.5" y="-7.5" font-family="Helvetica,sans-Serif" font-size="10.00" fill="#000000">_expr::~_functor4d_streamline_expr</text>
</a>
</g>
</g>
<!-- Node418&#45;&gt;Node421 -->
<g id="edge5" class="edge">
<title>Node418&#45;&gt;Node421</title>
<path fill="none" stroke="#191970" d="M285.4356,-63.0932C308.3492,-56.3039 334.6122,-48.5223 358.274,-41.5114"/>
<polygon fill="#191970" stroke="#191970" points="284.4316,-59.7402 275.8379,-65.9369 286.4202,-66.4518 284.4316,-59.7402"/>
</g>
</g>
</svg>
        <g id="navigator" transform="translate(0 0)" fill="#404254">
                <rect fill="#f2f5e9" fill-opacity="0.5" stroke="#606060" stroke-width=".5" x="0" y="0" width="60" height="60"/>
                <use id="zoomplus" xlink:href="#zoomPlus" x="17" y="9" onmousedown="handleZoom(evt,'in')"/>
                <use id="zoomminus" xlink:href="#zoomMin" x="42" y="9" onmousedown="handleZoom(evt,'out')"/>
                <use id="reset" xlink:href="#resetDef" x="30" y="36" onmousedown="handleReset()"/>
                <g id="arrowUp" xlink:href="#dirArrow" transform="translate(30 24)" onmousedown="handlePan(0,-1)">
                  <use xlink:href="#rim" fill="#404040">
                        <set attributeName="fill" to="#808080" begin="arrowUp.mouseover" end="arrowUp.mouseout"/>
                  </use>
                  <path fill="none" stroke="white" stroke-width="1.5" d="M0,-3.0v7 M-2.5,-0.5L0,-3.0L2.5,-0.5"/>
                </g>
                <g id="arrowRight" xlink:href="#dirArrow" transform="rotate(90) translate(36 -43)" onmousedown="handlePan(1,0)">
                  <use xlink:href="#rim" fill="#404040">
                        <set attributeName="fill" to="#808080" begin="arrowRight.mouseover" end="arrowRight.mouseout"/>
                  </use>
                  <path fill="none" stroke="white" stroke-width="1.5" d="M0,-3.0v7 M-2.5,-0.5L0,-3.0L2.5,-0.5"/>
                </g>
                <g id="arrowDown" xlink:href="#dirArrow" transform="rotate(180) translate(-30 -48)" onmousedown="handlePan(0,1)">
                  <use xlink:href="#rim" fill="#404040">
                        <set attributeName="fill" to="#808080" begin="arrowDown.mouseover" end="arrowDown.mouseout"/>
                  </use>
                  <path fill="none" stroke="white" stroke-width="1.5" d="M0,-3.0v7 M-2.5,-0.5L0,-3.0L2.5,-0.5"/>
                </g>
                <g id="arrowLeft" xlink:href="#dirArrow" transform="rotate(270) translate(-36 17)" onmousedown="handlePan(-1,0)">
                  <use xlink:href="#rim" fill="#404040">
                        <set attributeName="fill" to="#808080" begin="arrowLeft.mouseover" end="arrowLeft.mouseout"/>
                  </use>
                  <path fill="none" stroke="white" stroke-width="1.5" d="M0,-3.0v7 M-2.5,-0.5L0,-3.0L2.5,-0.5"/>
                </g>
        </g>
        <svg viewBox="0 0 15 15" width="100%" height="30px" preserveAspectRatio="xMaxYMin meet">
         <g id="arrow_out" transform="scale(0.3 0.3)">
          <a xlink:href="structcimg__library__suffixed_1_1_c_img_list_ae1f51c42341873aebaa428e522eed8c6_icgraph_org.svg" target="_base">
           <rect id="button" ry="5" rx="5" y="6" x="6" height="38" width="38"
                fill="#f2f5e9" fill-opacity="0.5" stroke="#606060" stroke-width="1.0"/>
           <path id="arrow"
             d="M 11.500037,31.436501 C 11.940474,20.09759 22.043105,11.32322 32.158766,21.979434 L 37.068811,17.246167 C 37.068811,17.246167 37.088388,32 37.088388,32 L 22.160133,31.978069 C 22.160133,31.978069 26.997745,27.140456 26.997745,27.140456 C 18.528582,18.264221 13.291696,25.230495 11.500037,31.436501 z"
             style="fill:#404040;"/>
          </a>
         </g>
        </svg>
</svg>
