<?xml version="1.0" encoding="UTF-8" standalone="no"?>
<!DOCTYPE svg PUBLIC "-//W3C//DTD SVG 1.1//EN"
 "http://www.w3.org/Graphics/SVG/1.1/DTD/svg11.dtd">
<!-- Generated by graphviz version 2.40.1 (20161225.0304)
 -->
<!-- Title: cimg_library_suffixed::CImg::_cimg_math_parser::mp_complex_exp Pages: 1 -->
<svg width="458pt" height="137pt"
 viewBox="0.00 0.00 458.00 137.00" xmlns="http://www.w3.org/2000/svg" xmlns:xlink="http://www.w3.org/1999/xlink">
<g id="graph0" class="graph" transform="scale(1 1) rotate(0) translate(4 133)">
<title>cimg_library_suffixed::CImg::_cimg_math_parser::mp_complex_exp</title>
<polygon fill="#ffffff" stroke="transparent" points="-4,4 -4,-133 454,-133 454,4 -4,4"/>
<!-- Node252 -->
<g id="node1" class="node">
<title>Node252</title>
<polygon fill="#bfbfbf" stroke="#000000" points="0,-44 0,-85 138,-85 138,-44 0,-44"/>
<text text-anchor="start" x="8" y="-73" font-family="Helvetica,sans-Serif" font-size="10.00" fill="#000000">cimg_library_suffixed</text>
<text text-anchor="start" x="8" y="-62" font-family="Helvetica,sans-Serif" font-size="10.00" fill="#000000">::CImg::_cimg_math_parser</text>
<text text-anchor="middle" x="69" y="-51" font-family="Helvetica,sans-Serif" font-size="10.00" fill="#000000">::mp_complex_exp</text>
</g>
<!-- Node253 -->
<g id="node2" class="node">
<title>Node253</title>
<g id="a_node2"><a xlink:href="namespacecimg__library__suffixed.html#a758afc88f8b8d378717648ba797aee12" target="_top" xlink:title="cimg_library_suffixed::cos">
<polygon fill="#ffffff" stroke="#000000" points="174,-98 174,-117 305,-117 305,-98 174,-98"/>
<text text-anchor="middle" x="239.5" y="-105" font-family="Helvetica,sans-Serif" font-size="10.00" fill="#000000">cimg_library_suffixed::cos</text>
</a>
</g>
</g>
<!-- Node252&#45;&gt;Node253 -->
<g id="edge1" class="edge">
<title>Node252&#45;&gt;Node253</title>
<path fill="none" stroke="#191970" d="M138.3489,-81.9897C156.2145,-86.4955 175.0462,-91.2448 191.5534,-95.4079"/>
<polygon fill="#191970" stroke="#191970" points="190.9494,-98.8651 201.5017,-97.9168 192.6612,-92.0776 190.9494,-98.8651"/>
</g>
<!-- Node255 -->
<g id="node4" class="node">
<title>Node255</title>
<g id="a_node4"><a xlink:href="namespacecimg__library__suffixed.html#adc3a62a5832fe41a2a16023ba04c8e64" target="_top" xlink:title="cimg_library_suffixed::exp">
<polygon fill="#ffffff" stroke="#000000" points="174,-55 174,-74 305,-74 305,-55 174,-55"/>
<text text-anchor="middle" x="239.5" y="-62" font-family="Helvetica,sans-Serif" font-size="10.00" fill="#000000">cimg_library_suffixed::exp</text>
</a>
</g>
</g>
<!-- Node252&#45;&gt;Node255 -->
<g id="edge3" class="edge">
<title>Node252&#45;&gt;Node255</title>
<path fill="none" stroke="#191970" d="M138.3489,-64.5C146.6731,-64.5 155.207,-64.5 163.6178,-64.5"/>
<polygon fill="#191970" stroke="#191970" points="163.7937,-68.0001 173.7937,-64.5 163.7936,-61.0001 163.7937,-68.0001"/>
</g>
<!-- Node257 -->
<g id="node6" class="node">
<title>Node257</title>
<g id="a_node6"><a xlink:href="namespacecimg__library__suffixed.html#adadd90e3f405e206a38d01dc80e9be2d" target="_top" xlink:title="cimg_library_suffixed::sin">
<polygon fill="#ffffff" stroke="#000000" points="175.5,-12 175.5,-31 303.5,-31 303.5,-12 175.5,-12"/>
<text text-anchor="middle" x="239.5" y="-19" font-family="Helvetica,sans-Serif" font-size="10.00" fill="#000000">cimg_library_suffixed::sin</text>
</a>
</g>
</g>
<!-- Node252&#45;&gt;Node257 -->
<g id="edge5" class="edge">
<title>Node252&#45;&gt;Node257</title>
<path fill="none" stroke="#191970" d="M138.3489,-47.0103C156.2145,-42.5045 175.0462,-37.7552 191.5534,-33.5921"/>
<polygon fill="#191970" stroke="#191970" points="192.6612,-36.9224 201.5017,-31.0832 190.9494,-30.1349 192.6612,-36.9224"/>
</g>
<!-- Node254 -->
<g id="node3" class="node">
<title>Node254</title>
<g id="a_node3"><a xlink:href="structcimg__library__suffixed_1_1_c_img.html#a1d6d4be9892469025a791f19848d8638" target="_top" xlink:title="Compute the cosine of each pixel value . ">
<polygon fill="#ffffff" stroke="#000000" points="341,-98.5 341,-128.5 450,-128.5 450,-98.5 341,-98.5"/>
<text text-anchor="start" x="349" y="-116.5" font-family="Helvetica,sans-Serif" font-size="10.00" fill="#000000">cimg_library_suffixed</text>
<text text-anchor="middle" x="395.5" y="-105.5" font-family="Helvetica,sans-Serif" font-size="10.00" fill="#000000">::CImg::get_cos</text>
</a>
</g>
</g>
<!-- Node253&#45;&gt;Node254 -->
<g id="edge2" class="edge">
<title>Node253&#45;&gt;Node254</title>
<path fill="none" stroke="#191970" d="M305.2059,-110.0272C313.6122,-110.3505 322.2139,-110.6813 330.6071,-111.0041"/>
<polygon fill="#191970" stroke="#191970" points="330.5873,-114.5059 340.7145,-111.3929 330.8564,-107.511 330.5873,-114.5059"/>
</g>
<!-- Node256 -->
<g id="node5" class="node">
<title>Node256</title>
<g id="a_node5"><a xlink:href="structcimg__library__suffixed_1_1_c_img.html#a9025e6121a8da36b6213422347de4c12" target="_top" xlink:title="Compute the exponential of each pixel value . ">
<polygon fill="#ffffff" stroke="#000000" points="341,-49.5 341,-79.5 450,-79.5 450,-49.5 341,-49.5"/>
<text text-anchor="start" x="349" y="-67.5" font-family="Helvetica,sans-Serif" font-size="10.00" fill="#000000">cimg_library_suffixed</text>
<text text-anchor="middle" x="395.5" y="-56.5" font-family="Helvetica,sans-Serif" font-size="10.00" fill="#000000">::CImg::get_exp</text>
</a>
</g>
</g>
<!-- Node255&#45;&gt;Node256 -->
<g id="edge4" class="edge">
<title>Node255&#45;&gt;Node256</title>
<path fill="none" stroke="#191970" d="M305.2059,-64.5C313.6122,-64.5 322.2139,-64.5 330.6071,-64.5"/>
<polygon fill="#191970" stroke="#191970" points="330.7145,-68.0001 340.7145,-64.5 330.7144,-61.0001 330.7145,-68.0001"/>
</g>
<!-- Node258 -->
<g id="node7" class="node">
<title>Node258</title>
<g id="a_node7"><a xlink:href="structcimg__library__suffixed_1_1_c_img.html#ada2a306f3b37f5630573447fc9578124" target="_top" xlink:title="Compute the sine of each pixel value . ">
<polygon fill="#ffffff" stroke="#000000" points="341,-.5 341,-30.5 450,-30.5 450,-.5 341,-.5"/>
<text text-anchor="start" x="349" y="-18.5" font-family="Helvetica,sans-Serif" font-size="10.00" fill="#000000">cimg_library_suffixed</text>
<text text-anchor="middle" x="395.5" y="-7.5" font-family="Helvetica,sans-Serif" font-size="10.00" fill="#000000">::CImg::get_sin</text>
</a>
</g>
</g>
<!-- Node257&#45;&gt;Node258 -->
<g id="edge6" class="edge">
<title>Node257&#45;&gt;Node258</title>
<path fill="none" stroke="#191970" d="M303.8518,-19.0249C312.6592,-18.6862 321.7062,-18.3382 330.5246,-17.9991"/>
<polygon fill="#191970" stroke="#191970" points="330.8855,-21.4879 340.7436,-17.606 330.6164,-14.493 330.8855,-21.4879"/>
</g>
</g>
</svg>
