<?xml version="1.0" encoding="UTF-8" standalone="no"?>
<!DOCTYPE svg PUBLIC "-//W3C//DTD SVG 1.1//EN"
 "http://www.w3.org/Graphics/SVG/1.1/DTD/svg11.dtd">
<!-- Generated by graphviz version 2.40.1 (20161225.0304)
 -->
<!-- Title: cimg_library_suffixed::CImgDisplay::assign Pages: 1 -->
<svg width="726pt" height="158pt"
 viewBox="0.00 0.00 726.00 157.78" xmlns="http://www.w3.org/2000/svg" xmlns:xlink="http://www.w3.org/1999/xlink">
<g id="graph0" class="graph" transform="scale(1 1) rotate(0) translate(4 153.78)">
<title>cimg_library_suffixed::CImgDisplay::assign</title>
<polygon fill="#ffffff" stroke="transparent" points="-4,4 -4,-153.78 722,-153.78 722,4 -4,4"/>
<!-- Node212 -->
<g id="node1" class="node">
<title>Node212</title>
<polygon fill="#bfbfbf" stroke="#000000" points="0,-73.5 0,-103.5 114,-103.5 114,-73.5 0,-73.5"/>
<text text-anchor="start" x="8" y="-91.5" font-family="Helvetica,sans-Serif" font-size="10.00" fill="#000000">cimg_library_suffixed</text>
<text text-anchor="middle" x="57" y="-80.5" font-family="Helvetica,sans-Serif" font-size="10.00" fill="#000000">::CImgDisplay::assign</text>
</g>
<!-- Node213 -->
<g id="node2" class="node">
<title>Node213</title>
<g id="a_node2"><a xlink:href="namespacecimg__library__suffixed_1_1cimg.html#a79aef0cbcf66ceb71c2b74cb66b4deb2" target="_top" xlink:title="Avoid warning messages due to unused parameters. Do nothing actually. ">
<polygon fill="#ffffff" stroke="#000000" points="150,-73.5 150,-103.5 259,-103.5 259,-73.5 150,-73.5"/>
<text text-anchor="start" x="158" y="-91.5" font-family="Helvetica,sans-Serif" font-size="10.00" fill="#000000">cimg_library_suffixed</text>
<text text-anchor="middle" x="204.5" y="-80.5" font-family="Helvetica,sans-Serif" font-size="10.00" fill="#000000">::cimg::unused</text>
</a>
</g>
</g>
<!-- Node212&#45;&gt;Node213 -->
<g id="edge1" class="edge">
<title>Node212&#45;&gt;Node213</title>
<path fill="none" stroke="#191970" d="M114.0274,-88.5C122.3266,-88.5 130.9241,-88.5 139.3688,-88.5"/>
<polygon fill="#191970" stroke="#191970" points="139.5634,-92.0001 149.5633,-88.5 139.5633,-85.0001 139.5634,-92.0001"/>
</g>
<!-- Node214 -->
<g id="node3" class="node">
<title>Node214</title>
<g id="a_node3"><a xlink:href="namespacecimg__library__suffixed_1_1cimg.html#a9e739e4b4ac058abfba069466617b914" target="_top" xlink:title="cimg_library_suffixed\l::cimg::mutex">
<polygon fill="#ffffff" stroke="#000000" points="295,-73.5 295,-103.5 404,-103.5 404,-73.5 295,-73.5"/>
<text text-anchor="start" x="303" y="-91.5" font-family="Helvetica,sans-Serif" font-size="10.00" fill="#000000">cimg_library_suffixed</text>
<text text-anchor="middle" x="349.5" y="-80.5" font-family="Helvetica,sans-Serif" font-size="10.00" fill="#000000">::cimg::mutex</text>
</a>
</g>
</g>
<!-- Node213&#45;&gt;Node214 -->
<g id="edge2" class="edge">
<title>Node213&#45;&gt;Node214</title>
<path fill="none" stroke="#191970" d="M259.3183,-88.5C267.5286,-88.5 276.0611,-88.5 284.4586,-88.5"/>
<polygon fill="#191970" stroke="#191970" points="284.6042,-92.0001 294.6042,-88.5 284.6042,-85.0001 284.6042,-92.0001"/>
</g>
<!-- Node215 -->
<g id="node4" class="node">
<title>Node215</title>
<g id="a_node4"><a xlink:href="namespacecimg__library__suffixed_1_1cimg.html#aa0e1bc96ae6e235dc5b67b8b0a466166" target="_top" xlink:title="cimg_library_suffixed\l::cimg::Mutex_attr">
<polygon fill="#ffffff" stroke="#000000" points="609,-71.5 609,-101.5 718,-101.5 718,-71.5 609,-71.5"/>
<text text-anchor="start" x="617" y="-89.5" font-family="Helvetica,sans-Serif" font-size="10.00" fill="#000000">cimg_library_suffixed</text>
<text text-anchor="middle" x="663.5" y="-78.5" font-family="Helvetica,sans-Serif" font-size="10.00" fill="#000000">::cimg::Mutex_attr</text>
</a>
</g>
</g>
<!-- Node214&#45;&gt;Node215 -->
<g id="edge3" class="edge">
<title>Node214&#45;&gt;Node215</title>
<path fill="none" stroke="#191970" d="M369.7886,-103.66C387.338,-115.766 413.9275,-131.7766 440,-138.5 497.2386,-153.2603 515.8872,-153.7398 573,-138.5 595.8112,-132.4131 618.8447,-119.0529 635.9657,-107.3993"/>
<polygon fill="#191970" stroke="#191970" points="638.1785,-110.1221 644.3474,-101.5084 634.1534,-104.3951 638.1785,-110.1221"/>
</g>
<!-- Node216 -->
<g id="node5" class="node">
<title>Node216</title>
<g id="a_node5"><a xlink:href="structcimg__library__suffixed_1_1cimg_1_1_mutex__info.html#afac3fa5f107ad4795fb867050f616555" target="_top" xlink:title="cimg_library_suffixed\l::cimg::Mutex_info::unlock">
<polygon fill="#ffffff" stroke="#000000" points="440.5,-98.5 440.5,-128.5 572.5,-128.5 572.5,-98.5 440.5,-98.5"/>
<text text-anchor="start" x="448.5" y="-116.5" font-family="Helvetica,sans-Serif" font-size="10.00" fill="#000000">cimg_library_suffixed</text>
<text text-anchor="middle" x="506.5" y="-105.5" font-family="Helvetica,sans-Serif" font-size="10.00" fill="#000000">::cimg::Mutex_info::unlock</text>
</a>
</g>
</g>
<!-- Node214&#45;&gt;Node216 -->
<g id="edge4" class="edge">
<title>Node214&#45;&gt;Node216</title>
<path fill="none" stroke="#191970" d="M404.411,-97.2438C412.7369,-98.5696 421.453,-99.9575 430.1344,-101.3399"/>
<polygon fill="#191970" stroke="#191970" points="429.8581,-104.8399 440.2841,-102.9561 430.9589,-97.927 429.8581,-104.8399"/>
</g>
<!-- Node217 -->
<g id="node6" class="node">
<title>Node217</title>
<g id="a_node6"><a xlink:href="structcimg__library__suffixed_1_1cimg_1_1_mutex__info.html#a6cc8e26847a1aa649febed03d70182e7" target="_top" xlink:title="cimg_library_suffixed\l::cimg::Mutex_info::lock">
<polygon fill="#ffffff" stroke="#000000" points="445.5,-49.5 445.5,-79.5 567.5,-79.5 567.5,-49.5 445.5,-49.5"/>
<text text-anchor="start" x="453.5" y="-67.5" font-family="Helvetica,sans-Serif" font-size="10.00" fill="#000000">cimg_library_suffixed</text>
<text text-anchor="middle" x="506.5" y="-56.5" font-family="Helvetica,sans-Serif" font-size="10.00" fill="#000000">::cimg::Mutex_info::lock</text>
</a>
</g>
</g>
<!-- Node214&#45;&gt;Node217 -->
<g id="edge5" class="edge">
<title>Node214&#45;&gt;Node217</title>
<path fill="none" stroke="#191970" d="M404.411,-80.106C414.4626,-78.5694 425.083,-76.9459 435.5242,-75.3498"/>
<polygon fill="#191970" stroke="#191970" points="436.0993,-78.8026 445.4556,-73.8316 435.0415,-71.883 436.0993,-78.8026"/>
</g>
<!-- Node218 -->
<g id="node7" class="node">
<title>Node218</title>
<g id="a_node7"><a xlink:href="structcimg__library__suffixed_1_1cimg_1_1_mutex__info.html#a9bf4ed1e1dfe6f28fa6250cd04f3c900" target="_top" xlink:title="cimg_library_suffixed\l::cimg::Mutex_info::trylock">
<polygon fill="#ffffff" stroke="#000000" points="440,-.5 440,-30.5 573,-30.5 573,-.5 440,-.5"/>
<text text-anchor="start" x="448" y="-18.5" font-family="Helvetica,sans-Serif" font-size="10.00" fill="#000000">cimg_library_suffixed</text>
<text text-anchor="middle" x="506.5" y="-7.5" font-family="Helvetica,sans-Serif" font-size="10.00" fill="#000000">::cimg::Mutex_info::trylock</text>
</a>
</g>
</g>
<!-- Node214&#45;&gt;Node218 -->
<g id="edge6" class="edge">
<title>Node214&#45;&gt;Node218</title>
<path fill="none" stroke="#191970" d="M375.9788,-73.3011C393.7871,-63.3682 417.9505,-50.4428 440,-40.5 444.6591,-38.3991 449.5523,-36.3232 454.4816,-34.3195"/>
<polygon fill="#191970" stroke="#191970" points="455.9456,-37.5042 463.9536,-30.5672 453.3675,-30.9963 455.9456,-37.5042"/>
</g>
<!-- Node218&#45;&gt;Node215 -->
<g id="edge7" class="edge">
<title>Node218&#45;&gt;Node215</title>
<path fill="none" stroke="#191970" d="M548.6439,-30.5387C556.7907,-33.6717 565.2117,-37.0692 573,-40.5 590.9326,-48.3993 610.3586,-58.1135 626.5985,-66.5763"/>
<polygon fill="#191970" stroke="#191970" points="625.2767,-69.8356 635.7567,-71.3913 628.5342,-63.6398 625.2767,-69.8356"/>
</g>
</g>
</svg>
