<?xml version="1.0" encoding="UTF-8" standalone="no"?>
<!DOCTYPE svg PUBLIC "-//W3C//DTD SVG 1.1//EN"
 "http://www.w3.org/Graphics/SVG/1.1/DTD/svg11.dtd">
<!-- Generated by graphviz version 2.40.1 (20161225.0304)
 -->
<!-- Title: cimg_library_suffixed::CImgDisplay::mouse_x Pages: 1 -->
<svg width="330pt" height="369pt"
 viewBox="0.00 0.00 330.00 368.50" xmlns="http://www.w3.org/2000/svg" xmlns:xlink="http://www.w3.org/1999/xlink">
<g id="graph0" class="graph" transform="scale(1 1) rotate(0) translate(4 364.5)">
<title>cimg_library_suffixed::CImgDisplay::mouse_x</title>
<polygon fill="#ffffff" stroke="transparent" points="-4,4 -4,-364.5 326,-364.5 326,4 -4,4"/>
<!-- Node352 -->
<g id="node1" class="node">
<title>Node352</title>
<polygon fill="#bfbfbf" stroke="#000000" points="0,-171 0,-201 125,-201 125,-171 0,-171"/>
<text text-anchor="start" x="8" y="-189" font-family="Helvetica,sans-Serif" font-size="10.00" fill="#000000">cimg_library_suffixed</text>
<text text-anchor="middle" x="62.5" y="-178" font-family="Helvetica,sans-Serif" font-size="10.00" fill="#000000">::CImgDisplay::mouse_x</text>
</g>
<!-- Node353 -->
<g id="node2" class="node">
<title>Node353</title>
<g id="a_node2"><a xlink:href="structcimg__library__suffixed_1_1_c_img.html#adf9d80c60e82b079056c31cb0fe61faf" target="_top" xlink:title="cimg_library_suffixed\l::CImg\&lt; charT \&gt;::_display">
<polygon fill="#ffffff" stroke="#000000" points="176,-330 176,-360 307,-360 307,-330 176,-330"/>
<text text-anchor="start" x="184" y="-348" font-family="Helvetica,sans-Serif" font-size="10.00" fill="#000000">cimg_library_suffixed</text>
<text text-anchor="middle" x="241.5" y="-337" font-family="Helvetica,sans-Serif" font-size="10.00" fill="#000000">::CImg&lt; charT &gt;::_display</text>
</a>
</g>
</g>
<!-- Node352&#45;&gt;Node353 -->
<g id="edge1" class="edge">
<title>Node352&#45;&gt;Node353</title>
<path fill="none" stroke="#191970" d="M73.8539,-210.1058C89.3474,-240.4186 119.948,-291.995 161,-321 165.8834,-324.4503 171.2673,-327.411 176.8663,-329.9505"/>
<polygon fill="#191970" stroke="#191970" points="76.946,-208.4632 69.3603,-201.0667 70.6779,-211.5793 76.946,-208.4632"/>
</g>
<!-- Node354 -->
<g id="node3" class="node">
<title>Node354</title>
<g id="a_node3"><a xlink:href="structcimg__library__suffixed_1_1_c_img.html#a39224c81542abc157318e64a6df11fdf" target="_top" xlink:title="cimg_library_suffixed\l::CImg\&lt; charT \&gt;::_display_graph">
<polygon fill="#ffffff" stroke="#000000" points="161,-281 161,-311 322,-311 322,-281 161,-281"/>
<text text-anchor="start" x="169" y="-299" font-family="Helvetica,sans-Serif" font-size="10.00" fill="#000000">cimg_library_suffixed</text>
<text text-anchor="middle" x="241.5" y="-288" font-family="Helvetica,sans-Serif" font-size="10.00" fill="#000000">::CImg&lt; charT &gt;::_display_graph</text>
</a>
</g>
</g>
<!-- Node352&#45;&gt;Node354 -->
<g id="edge2" class="edge">
<title>Node352&#45;&gt;Node354</title>
<path fill="none" stroke="#191970" d="M83.1777,-208.4208C101.8626,-227.4825 130.968,-254.3376 161,-271 167.7822,-274.7629 175.2065,-278.0393 182.7163,-280.8693"/>
<polygon fill="#191970" stroke="#191970" points="85.5272,-205.8145 76.0728,-201.0327 80.4817,-210.6667 85.5272,-205.8145"/>
</g>
<!-- Node355 -->
<g id="node4" class="node">
<title>Node355</title>
<g id="a_node4"><a xlink:href="structcimg__library__suffixed_1_1_c_img.html#a8b40db5a9818c3f961a90840b271de6c" target="_top" xlink:title="cimg_library_suffixed\l::CImg\&lt; charT \&gt;::_display\l_object3d">
<polygon fill="#ffffff" stroke="#000000" points="176,-220.5 176,-261.5 307,-261.5 307,-220.5 176,-220.5"/>
<text text-anchor="start" x="184" y="-249.5" font-family="Helvetica,sans-Serif" font-size="10.00" fill="#000000">cimg_library_suffixed</text>
<text text-anchor="start" x="184" y="-238.5" font-family="Helvetica,sans-Serif" font-size="10.00" fill="#000000">::CImg&lt; charT &gt;::_display</text>
<text text-anchor="middle" x="241.5" y="-227.5" font-family="Helvetica,sans-Serif" font-size="10.00" fill="#000000">_object3d</text>
</a>
</g>
</g>
<!-- Node352&#45;&gt;Node355 -->
<g id="edge3" class="edge">
<title>Node352&#45;&gt;Node355</title>
<path fill="none" stroke="#191970" d="M121.4445,-204.1114C138.8675,-209.4649 158.046,-215.3577 175.8634,-220.8323"/>
<polygon fill="#191970" stroke="#191970" points="121.9995,-200.6205 111.4125,-201.029 119.9435,-207.3118 121.9995,-200.6205"/>
</g>
<!-- Node356 -->
<g id="node5" class="node">
<title>Node356</title>
<g id="a_node5"><a xlink:href="structcimg__library__suffixed_1_1_c_img.html#ad9b7141242d0b6e861a8014112ddb5b5" target="_top" xlink:title="cimg_library_suffixed\l::CImg\&lt; charT \&gt;::_select">
<polygon fill="#ffffff" stroke="#000000" points="178,-171 178,-201 305,-201 305,-171 178,-171"/>
<text text-anchor="start" x="186" y="-189" font-family="Helvetica,sans-Serif" font-size="10.00" fill="#000000">cimg_library_suffixed</text>
<text text-anchor="middle" x="241.5" y="-178" font-family="Helvetica,sans-Serif" font-size="10.00" fill="#000000">::CImg&lt; charT &gt;::_select</text>
</a>
</g>
</g>
<!-- Node352&#45;&gt;Node356 -->
<g id="edge4" class="edge">
<title>Node352&#45;&gt;Node356</title>
<path fill="none" stroke="#191970" d="M135.232,-186C149.3069,-186 163.9556,-186 177.7178,-186"/>
<polygon fill="#191970" stroke="#191970" points="135.1055,-182.5001 125.1055,-186 135.1055,-189.5001 135.1055,-182.5001"/>
</g>
<!-- Node357 -->
<g id="node6" class="node">
<title>Node357</title>
<g id="a_node6"><a xlink:href="structcimg__library__suffixed_1_1_c_img_list.html#af8a6b01f20b2d459e5abe6b99836ea9a" target="_top" xlink:title="cimg_library_suffixed\l::CImgList\&lt; charT \&gt;::\l_select">
<polygon fill="#ffffff" stroke="#000000" points="186,-110.5 186,-151.5 297,-151.5 297,-110.5 186,-110.5"/>
<text text-anchor="start" x="194" y="-139.5" font-family="Helvetica,sans-Serif" font-size="10.00" fill="#000000">cimg_library_suffixed</text>
<text text-anchor="start" x="194" y="-128.5" font-family="Helvetica,sans-Serif" font-size="10.00" fill="#000000">::CImgList&lt; charT &gt;::</text>
<text text-anchor="middle" x="241.5" y="-117.5" font-family="Helvetica,sans-Serif" font-size="10.00" fill="#000000">_select</text>
</a>
</g>
</g>
<!-- Node352&#45;&gt;Node357 -->
<g id="edge5" class="edge">
<title>Node352&#45;&gt;Node357</title>
<path fill="none" stroke="#191970" d="M121.0708,-168.0034C141.8449,-161.6203 165.1539,-154.4583 185.6914,-148.1479"/>
<polygon fill="#191970" stroke="#191970" points="119.9435,-164.6882 111.4125,-170.971 121.9995,-171.3795 119.9435,-164.6882"/>
</g>
<!-- Node358 -->
<g id="node7" class="node">
<title>Node358</title>
<g id="a_node7"><a xlink:href="namespacecimg__library__suffixed_1_1cimg.html#a11aed0e6b30d75bf50946ee78d1aed94" target="_top" xlink:title="Display a simple dialog box, and wait for the user&#39;s response. ">
<polygon fill="#ffffff" stroke="#000000" points="187,-61 187,-91 296,-91 296,-61 187,-61"/>
<text text-anchor="start" x="195" y="-79" font-family="Helvetica,sans-Serif" font-size="10.00" fill="#000000">cimg_library_suffixed</text>
<text text-anchor="middle" x="241.5" y="-68" font-family="Helvetica,sans-Serif" font-size="10.00" fill="#000000">::cimg::dialog</text>
</a>
</g>
</g>
<!-- Node352&#45;&gt;Node358 -->
<g id="edge6" class="edge">
<title>Node352&#45;&gt;Node358</title>
<path fill="none" stroke="#191970" d="M83.1777,-163.5792C101.8626,-144.5175 130.968,-117.6624 161,-101 169.0618,-96.5271 178.0309,-92.7417 186.9726,-89.5762"/>
<polygon fill="#191970" stroke="#191970" points="80.4817,-161.3333 76.0728,-170.9673 85.5272,-166.1855 80.4817,-161.3333"/>
</g>
<!-- Node359 -->
<g id="node8" class="node">
<title>Node359</title>
<g id="a_node8"><a xlink:href="structcimg__library__suffixed_1_1_c_img.html#a689f47424dc7c548ebfe53e431409199" target="_top" xlink:title="Select sub&#45;graph in a graph. ">
<polygon fill="#ffffff" stroke="#000000" points="187,-.5 187,-41.5 296,-41.5 296,-.5 187,-.5"/>
<text text-anchor="start" x="195" y="-29.5" font-family="Helvetica,sans-Serif" font-size="10.00" fill="#000000">cimg_library_suffixed</text>
<text text-anchor="start" x="195" y="-18.5" font-family="Helvetica,sans-Serif" font-size="10.00" fill="#000000">::CImg&lt; charT &gt;::get</text>
<text text-anchor="middle" x="241.5" y="-7.5" font-family="Helvetica,sans-Serif" font-size="10.00" fill="#000000">_select_graph</text>
</a>
</g>
</g>
<!-- Node352&#45;&gt;Node359 -->
<g id="edge7" class="edge">
<title>Node352&#45;&gt;Node359</title>
<path fill="none" stroke="#191970" d="M74.7196,-161.716C90.7787,-132.0392 121.6247,-82.0735 161,-52 168.7362,-46.0914 177.7335,-41.1847 186.8529,-37.1521"/>
<polygon fill="#191970" stroke="#191970" points="71.4214,-160.4669 69.8495,-170.9445 77.6122,-163.734 71.4214,-160.4669"/>
</g>
</g>
</svg>
