<?xml version="1.0" encoding="UTF-8" standalone="no"?>
<!DOCTYPE svg PUBLIC "-//W3C//DTD SVG 1.1//EN"
 "http://www.w3.org/Graphics/SVG/1.1/DTD/svg11.dtd">
<!-- Generated by graphviz version 2.40.1 (20161225.0304)
 -->
<!-- Title: cimg_library_suffixed::cimg::type::max Pages: 1 -->
<!--zoomable 707 -->
<svg id="main" version="1.1" xmlns="http://www.w3.org/2000/svg" xmlns:xlink="http://www.w3.org/1999/xlink" xml:space="preserve" onload="init(evt)">
<style type="text/css"><![CDATA[
.edge:hover path { stroke: red; }
.edge:hover polygon { stroke: red; fill: red; }
]]></style>
<script type="text/javascript"><![CDATA[
var edges = document.getElementsByTagName('g');
if (edges && edges.length) {
  for (var i=0;i<edges.length;i++) {
    if (edges[i].id.substr(0,4)=='edge') {
      edges[i].setAttribute('class','edge');
    }
  }
}
]]></script>
        <defs>
                <circle id="rim" cx="0" cy="0" r="7"/>
                <circle id="rim2" cx="0" cy="0" r="3.5"/>
                <g id="zoomPlus">
                        <use xlink:href="#rim" fill="#404040">
                                <set attributeName="fill" to="#808080" begin="zoomplus.mouseover" end="zoomplus.mouseout"/>
                        </use>
                        <path d="M-4,0h8M0,-4v8" fill="none" stroke="white" stroke-width="1.5" pointer-events="none"/>
                </g>
                <g id="zoomMin">
                        <use xlink:href="#rim" fill="#404040">
                                <set attributeName="fill" to="#808080" begin="zoomminus.mouseover" end="zoomminus.mouseout"/>
                        </use>
                        <path d="M-4,0h8" fill="none" stroke="white" stroke-width="1.5" pointer-events="none"/>
                </g>
                <g id="dirArrow">
                        <path fill="none" stroke="white" stroke-width="1.5" d="M0,-3.0v7 M-2.5,-0.5L0,-3.0L2.5,-0.5"/>
                </g>
               <g id="resetDef">
                       <use xlink:href="#rim2" fill="#404040">
                               <set attributeName="fill" to="#808080" begin="reset.mouseover" end="reset.mouseout"/>
                       </use>
               </g>
        </defs>

<script type="text/javascript">
var viewWidth = 299;
var viewHeight = 707;
var sectionId = 'dynsection-10';
</script>
<script xlink:href="svgpan.js"/>
<svg id="graph" class="graph">
<g id="viewport">
<title>cimg_library_suffixed::cimg::type::max</title>
<polygon fill="#ffffff" stroke="transparent" points="-4,4 -4,-702.5 295,-702.5 295,4 -4,4"/>
<!-- Node43 -->
<g id="node1" class="node">
<title>Node43</title>
<polygon fill="#bfbfbf" stroke="#000000" points="0,-328.5 0,-358.5 109,-358.5 109,-328.5 0,-328.5"/>
<text text-anchor="start" x="8" y="-346.5" font-family="Helvetica,sans-Serif" font-size="10.00" fill="#000000">cimg_library_suffixed</text>
<text text-anchor="middle" x="54.5" y="-335.5" font-family="Helvetica,sans-Serif" font-size="10.00" fill="#000000">::cimg::type::max</text>
</g>
<!-- Node44 -->
<g id="node2" class="node">
<title>Node44</title>
<g id="a_node2"><a xlink:href="structcimg__library__suffixed_1_1_c_img.html#a6dba86c8049ae141ffc9936b2eaf5c5c" target="_top" xlink:title="cimg_library_suffixed\l::CImg\&lt; charT \&gt;::_draw\l_object3d">
<polygon fill="#ffffff" stroke="#000000" points="157,-657 157,-698 279,-698 279,-657 157,-657"/>
<text text-anchor="start" x="165" y="-686" font-family="Helvetica,sans-Serif" font-size="10.00" fill="#000000">cimg_library_suffixed</text>
<text text-anchor="start" x="165" y="-675" font-family="Helvetica,sans-Serif" font-size="10.00" fill="#000000">::CImg&lt; charT &gt;::_draw</text>
<text text-anchor="middle" x="218" y="-664" font-family="Helvetica,sans-Serif" font-size="10.00" fill="#000000">_object3d</text>
</a>
</g>
</g>
<!-- Node43&#45;&gt;Node44 -->
<g id="edge1" class="edge">
<title>Node43&#45;&gt;Node44</title>
<path fill="none" stroke="#191970" d="M59.141,-368.8712C71.5132,-434.0892 106.946,-605.4125 145,-647.5 148.492,-651.3622 152.5558,-654.7388 156.9447,-657.6889"/>
<polygon fill="#191970" stroke="#191970" points="62.5103,-367.848 57.2292,-358.6632 55.6299,-369.1366 62.5103,-367.848"/>
</g>
<!-- Node45 -->
<g id="node3" class="node">
<title>Node45</title>
<g id="a_node3"><a xlink:href="structcimg__library__suffixed_1_1_c_img.html#a376d6a45a4f3122f23a9b352fd56adf0" target="_top" xlink:title="Compute minimal path in a graph, using the Dijkstra algorithm. ">
<polygon fill="#ffffff" stroke="#000000" points="154.5,-607.5 154.5,-637.5 281.5,-637.5 281.5,-607.5 154.5,-607.5"/>
<text text-anchor="start" x="162.5" y="-625.5" font-family="Helvetica,sans-Serif" font-size="10.00" fill="#000000">cimg_library_suffixed</text>
<text text-anchor="middle" x="218" y="-614.5" font-family="Helvetica,sans-Serif" font-size="10.00" fill="#000000">::CImg&lt; charT &gt;::dijkstra</text>
</a>
</g>
</g>
<!-- Node43&#45;&gt;Node45 -->
<g id="edge2" class="edge">
<title>Node43&#45;&gt;Node45</title>
<path fill="none" stroke="#191970" d="M56.2563,-368.6293C61.1429,-419.2825 79.2564,-534.2771 145,-598.5 148.531,-601.9493 152.5662,-604.9029 156.8862,-607.432"/>
<polygon fill="#191970" stroke="#191970" points="59.7342,-368.2229 55.3806,-358.5639 52.7606,-368.8296 59.7342,-368.2229"/>
</g>
<!-- Node46 -->
<g id="node4" class="node">
<title>Node46</title>
<g id="a_node4"><a xlink:href="structcimg__library__suffixed_1_1_c_img.html#ac1f792d60d2ced2cfa529ba0f7efb0e7" target="_top" xlink:title="Draw 1d graph. ">
<polygon fill="#ffffff" stroke="#000000" points="145,-558.5 145,-588.5 291,-588.5 291,-558.5 145,-558.5"/>
<text text-anchor="start" x="153" y="-576.5" font-family="Helvetica,sans-Serif" font-size="10.00" fill="#000000">cimg_library_suffixed</text>
<text text-anchor="middle" x="218" y="-565.5" font-family="Helvetica,sans-Serif" font-size="10.00" fill="#000000">::CImg&lt; charT &gt;::draw_graph</text>
</a>
</g>
</g>
<!-- Node43&#45;&gt;Node46 -->
<g id="edge3" class="edge">
<title>Node43&#45;&gt;Node46</title>
<path fill="none" stroke="#191970" d="M58.7851,-368.3831C67.4341,-411.1837 90.9623,-498.9099 145,-548.5 149.2441,-552.3948 154.122,-555.6865 159.3011,-558.4679"/>
<polygon fill="#191970" stroke="#191970" points="62.2149,-367.6839 56.8973,-358.5201 55.3397,-368.9999 62.2149,-367.6839"/>
</g>
<!-- Node47 -->
<g id="node5" class="node">
<title>Node47</title>
<g id="a_node5"><a xlink:href="structcimg__library__suffixed_1_1_c_img.html#a48133097680fed3cb906bc65edb9afba" target="_top" xlink:title="Draw a textured 2d triangle. ">
<polygon fill="#ffffff" stroke="#000000" points="160,-498 160,-539 276,-539 276,-498 160,-498"/>
<text text-anchor="start" x="168" y="-527" font-family="Helvetica,sans-Serif" font-size="10.00" fill="#000000">cimg_library_suffixed</text>
<text text-anchor="start" x="168" y="-516" font-family="Helvetica,sans-Serif" font-size="10.00" fill="#000000">::CImg&lt; charT &gt;::draw</text>
<text text-anchor="middle" x="218" y="-505" font-family="Helvetica,sans-Serif" font-size="10.00" fill="#000000">_triangle</text>
</a>
</g>
</g>
<!-- Node43&#45;&gt;Node47 -->
<g id="edge4" class="edge">
<title>Node43&#45;&gt;Node47</title>
<path fill="none" stroke="#191970" d="M64.2302,-368.2619C77.8728,-400.0734 105.5195,-455.1536 145,-488.5 149.5012,-492.3018 154.5498,-495.6729 159.835,-498.6506"/>
<polygon fill="#191970" stroke="#191970" points="67.3694,-366.6956 60.2956,-358.8081 60.9068,-369.3853 67.3694,-366.6956"/>
</g>
<!-- Node48 -->
<g id="node6" class="node">
<title>Node48</title>
<g id="a_node6"><a xlink:href="structcimg__library__suffixed_1_1cimg_1_1type_3_01long_01double_01_4.html#a89d8c31aa610f90c6cb16409d32954c1" target="_top" xlink:title="cimg_library_suffixed\l::cimg::type\&lt; long double\l \&gt;::format">
<polygon fill="#ffffff" stroke="#000000" points="154.5,-438 154.5,-479 281.5,-479 281.5,-438 154.5,-438"/>
<text text-anchor="start" x="162.5" y="-467" font-family="Helvetica,sans-Serif" font-size="10.00" fill="#000000">cimg_library_suffixed</text>
<text text-anchor="start" x="162.5" y="-456" font-family="Helvetica,sans-Serif" font-size="10.00" fill="#000000">::cimg::type&lt; long double</text>
<text text-anchor="middle" x="218" y="-445" font-family="Helvetica,sans-Serif" font-size="10.00" fill="#000000"> &gt;::format</text>
</a>
</g>
</g>
<!-- Node43&#45;&gt;Node48 -->
<g id="edge5" class="edge">
<title>Node43&#45;&gt;Node48</title>
<path fill="none" stroke="#191970" d="M74.345,-366.289C91.5477,-384.9545 117.8817,-411.0417 145,-428.5 150.2997,-431.9119 156.0518,-435.0662 161.9226,-437.9454"/>
<polygon fill="#191970" stroke="#191970" points="76.8622,-363.8544 67.5558,-358.7907 71.6732,-368.5528 76.8622,-363.8544"/>
</g>
<!-- Node49 -->
<g id="node7" class="node">
<title>Node49</title>
<g id="a_node7"><a xlink:href="structcimg__library__suffixed_1_1_c_img.html#a91ec1cd09114c4018a78e4ea0b2df386" target="_top" xlink:title="Estimate displacement field between two images . ">
<polygon fill="#ffffff" stroke="#000000" points="163.5,-378 163.5,-419 272.5,-419 272.5,-378 163.5,-378"/>
<text text-anchor="start" x="171.5" y="-407" font-family="Helvetica,sans-Serif" font-size="10.00" fill="#000000">cimg_library_suffixed</text>
<text text-anchor="start" x="171.5" y="-396" font-family="Helvetica,sans-Serif" font-size="10.00" fill="#000000">::CImg&lt; charT &gt;::get</text>
<text text-anchor="middle" x="218" y="-385" font-family="Helvetica,sans-Serif" font-size="10.00" fill="#000000">_displacement</text>
</a>
</g>
</g>
<!-- Node43&#45;&gt;Node49 -->
<g id="edge6" class="edge">
<title>Node43&#45;&gt;Node49</title>
<path fill="none" stroke="#191970" d="M108.7311,-361.7429C126.3288,-367.6626 145.8524,-374.2302 163.4716,-380.1571"/>
<polygon fill="#191970" stroke="#191970" points="109.7711,-358.4001 99.1771,-358.529 107.5393,-365.0347 109.7711,-358.4001"/>
</g>
<!-- Node50 -->
<g id="node8" class="node">
<title>Node50</title>
<g id="a_node8"><a xlink:href="structcimg__library__suffixed_1_1_c_img.html#aad353fc91b0c6ef3c0251f4f46a96150" target="_top" xlink:title="Erode image by a structuring element . ">
<polygon fill="#ffffff" stroke="#000000" points="149,-328.5 149,-358.5 287,-358.5 287,-328.5 149,-328.5"/>
<text text-anchor="start" x="157" y="-346.5" font-family="Helvetica,sans-Serif" font-size="10.00" fill="#000000">cimg_library_suffixed</text>
<text text-anchor="middle" x="218" y="-335.5" font-family="Helvetica,sans-Serif" font-size="10.00" fill="#000000">::CImg&lt; charT &gt;::get_erode</text>
</a>
</g>
</g>
<!-- Node43&#45;&gt;Node50 -->
<g id="edge7" class="edge">
<title>Node43&#45;&gt;Node50</title>
<path fill="none" stroke="#191970" d="M119.6289,-343.5C129.1963,-343.5 139.0808,-343.5 148.7279,-343.5"/>
<polygon fill="#191970" stroke="#191970" points="119.398,-340.0001 109.398,-343.5 119.3979,-347.0001 119.398,-340.0001"/>
</g>
<!-- Node51 -->
<g id="node9" class="node">
<title>Node51</title>
<g id="a_node9"><a xlink:href="structcimg__library__suffixed_1_1_c_img.html#a3787f8eb2c642164a3fb1f2b93c9dcc5" target="_top" xlink:title="Index multi&#45;valued pixels regarding to a specified colormap . ">
<polygon fill="#ffffff" stroke="#000000" points="149.5,-279.5 149.5,-309.5 286.5,-309.5 286.5,-279.5 149.5,-279.5"/>
<text text-anchor="start" x="157.5" y="-297.5" font-family="Helvetica,sans-Serif" font-size="10.00" fill="#000000">cimg_library_suffixed</text>
<text text-anchor="middle" x="218" y="-286.5" font-family="Helvetica,sans-Serif" font-size="10.00" fill="#000000">::CImg&lt; charT &gt;::get_index</text>
</a>
</g>
</g>
<!-- Node43&#45;&gt;Node51 -->
<g id="edge8" class="edge">
<title>Node43&#45;&gt;Node51</title>
<path fill="none" stroke="#191970" d="M114.938,-325.3871C132.32,-320.1778 151.084,-314.5543 167.7769,-309.5516"/>
<polygon fill="#191970" stroke="#191970" points="113.4638,-322.175 104.8895,-328.3986 115.4734,-328.8804 113.4638,-322.175"/>
</g>
<!-- Node52 -->
<g id="node10" class="node">
<title>Node52</title>
<g id="a_node10"><a xlink:href="structcimg__library__suffixed_1_1cimg_1_1type_3_01double_01_4.html#a92b3b5611e041d2d92073bc78cd1ca2b" target="_top" xlink:title="cimg_library_suffixed\l::cimg::type\&lt; double\l \&gt;::is_inf">
<polygon fill="#ffffff" stroke="#000000" points="163.5,-219 163.5,-260 272.5,-260 272.5,-219 163.5,-219"/>
<text text-anchor="start" x="171.5" y="-248" font-family="Helvetica,sans-Serif" font-size="10.00" fill="#000000">cimg_library_suffixed</text>
<text text-anchor="start" x="171.5" y="-237" font-family="Helvetica,sans-Serif" font-size="10.00" fill="#000000">::cimg::type&lt; double</text>
<text text-anchor="middle" x="218" y="-226" font-family="Helvetica,sans-Serif" font-size="10.00" fill="#000000"> &gt;::is_inf</text>
</a>
</g>
</g>
<!-- Node43&#45;&gt;Node52 -->
<g id="edge9" class="edge">
<title>Node43&#45;&gt;Node52</title>
<path fill="none" stroke="#191970" d="M77.9717,-321.5197C95.4906,-305.8996 120.5292,-285.1744 145,-270.5 151.1405,-266.8178 157.7983,-263.3524 164.51,-260.1677"/>
<polygon fill="#191970" stroke="#191970" points="75.5479,-318.9927 70.4807,-328.2973 80.2443,-324.1835 75.5479,-318.9927"/>
</g>
<!-- Node53 -->
<g id="node11" class="node">
<title>Node53</title>
<g id="a_node11"><a xlink:href="structcimg__library__suffixed_1_1cimg_1_1type_3_01float_01_4.html#aa2f6aa9ed1a9bf37f1bd44378324fe41" target="_top" xlink:title="cimg_library_suffixed\l::cimg::type\&lt; float \&gt;\l::is_inf">
<polygon fill="#ffffff" stroke="#000000" points="163.5,-159 163.5,-200 272.5,-200 272.5,-159 163.5,-159"/>
<text text-anchor="start" x="171.5" y="-188" font-family="Helvetica,sans-Serif" font-size="10.00" fill="#000000">cimg_library_suffixed</text>
<text text-anchor="start" x="171.5" y="-177" font-family="Helvetica,sans-Serif" font-size="10.00" fill="#000000">::cimg::type&lt; float &gt;</text>
<text text-anchor="middle" x="218" y="-166" font-family="Helvetica,sans-Serif" font-size="10.00" fill="#000000">::is_inf</text>
</a>
</g>
</g>
<!-- Node43&#45;&gt;Node53 -->
<g id="edge10" class="edge">
<title>Node43&#45;&gt;Node53</title>
<path fill="none" stroke="#191970" d="M65.5695,-318.8618C79.9974,-289.2438 107.8394,-239.7571 145,-209.5 150.5252,-205.0012 156.8178,-201.0923 163.338,-197.7192"/>
<polygon fill="#191970" stroke="#191970" points="62.3169,-317.5525 61.1967,-328.088 68.6424,-320.5505 62.3169,-317.5525"/>
</g>
<!-- Node54 -->
<g id="node12" class="node">
<title>Node54</title>
<g id="a_node12"><a xlink:href="structcimg__library__suffixed_1_1cimg_1_1type_3_01long_01double_01_4.html#a9681404bc847cae1a4742a74b4e307a3" target="_top" xlink:title="cimg_library_suffixed\l::cimg::type\&lt; long double\l \&gt;::is_inf">
<polygon fill="#ffffff" stroke="#000000" points="154.5,-99 154.5,-140 281.5,-140 281.5,-99 154.5,-99"/>
<text text-anchor="start" x="162.5" y="-128" font-family="Helvetica,sans-Serif" font-size="10.00" fill="#000000">cimg_library_suffixed</text>
<text text-anchor="start" x="162.5" y="-117" font-family="Helvetica,sans-Serif" font-size="10.00" fill="#000000">::cimg::type&lt; long double</text>
<text text-anchor="middle" x="218" y="-106" font-family="Helvetica,sans-Serif" font-size="10.00" fill="#000000"> &gt;::is_inf</text>
</a>
</g>
</g>
<!-- Node43&#45;&gt;Node54 -->
<g id="edge11" class="edge">
<title>Node43&#45;&gt;Node54</title>
<path fill="none" stroke="#191970" d="M59.9007,-318.5502C69.9093,-277.9163 95.025,-197.2003 145,-149.5 148.6674,-145.9996 152.7995,-142.8843 157.1856,-140.116"/>
<polygon fill="#191970" stroke="#191970" points="56.4594,-317.895 57.5726,-328.4312 63.2728,-319.5005 56.4594,-317.895"/>
</g>
<!-- Node55 -->
<g id="node13" class="node">
<title>Node55</title>
<g id="a_node13"><a xlink:href="structcimg__library__suffixed_1_1_c_img.html#a6049c651eefc3a13b8f7d1fc3ff225d7" target="_top" xlink:title="Add random noise to pixel values. ">
<polygon fill="#ffffff" stroke="#000000" points="158.5,-49.5 158.5,-79.5 277.5,-79.5 277.5,-49.5 158.5,-49.5"/>
<text text-anchor="start" x="166.5" y="-67.5" font-family="Helvetica,sans-Serif" font-size="10.00" fill="#000000">cimg_library_suffixed</text>
<text text-anchor="middle" x="218" y="-56.5" font-family="Helvetica,sans-Serif" font-size="10.00" fill="#000000">::CImg&lt; charT &gt;::noise</text>
</a>
</g>
</g>
<!-- Node43&#45;&gt;Node55 -->
<g id="edge12" class="edge">
<title>Node43&#45;&gt;Node55</title>
<path fill="none" stroke="#191970" d="M56.3901,-318.1737C61.5064,-267.6543 79.9958,-153.7077 145,-89.5 148.9076,-85.6403 153.436,-82.3756 158.2861,-79.6144"/>
<polygon fill="#191970" stroke="#191970" points="52.8963,-317.9468 55.4667,-328.2251 59.8669,-318.5872 52.8963,-317.9468"/>
</g>
<!-- Node56 -->
<g id="node14" class="node">
<title>Node56</title>
<g id="a_node14"><a xlink:href="structcimg__library__suffixed_1_1_c_img.html#a1c5936e2a0499030ddf5a2e5e07eb128" target="_top" xlink:title="Compute the PSNR (Peak Signal&#45;to&#45;Noise Ratio) between two images. ">
<polygon fill="#ffffff" stroke="#000000" points="156,-.5 156,-30.5 280,-30.5 280,-.5 156,-.5"/>
<text text-anchor="start" x="164" y="-18.5" font-family="Helvetica,sans-Serif" font-size="10.00" fill="#000000">cimg_library_suffixed</text>
<text text-anchor="middle" x="218" y="-7.5" font-family="Helvetica,sans-Serif" font-size="10.00" fill="#000000">::CImg&lt; charT &gt;::PSNR</text>
</a>
</g>
</g>
<!-- Node43&#45;&gt;Node56 -->
<g id="edge13" class="edge">
<title>Node43&#45;&gt;Node56</title>
<path fill="none" stroke="#191970" d="M59.0104,-318.0797C71.0669,-252.7553 105.8016,-81.2864 145,-40.5 148.7131,-36.6365 153.048,-33.37 157.7199,-30.6083"/>
<polygon fill="#191970" stroke="#191970" points="55.4966,-317.8402 57.1492,-328.3054 62.3834,-319.0938 55.4966,-317.8402"/>
</g>
</g>
</svg>
        <g id="navigator" transform="translate(0 0)" fill="#404254">
                <rect fill="#f2f5e9" fill-opacity="0.5" stroke="#606060" stroke-width=".5" x="0" y="0" width="60" height="60"/>
                <use id="zoomplus" xlink:href="#zoomPlus" x="17" y="9" onmousedown="handleZoom(evt,'in')"/>
                <use id="zoomminus" xlink:href="#zoomMin" x="42" y="9" onmousedown="handleZoom(evt,'out')"/>
                <use id="reset" xlink:href="#resetDef" x="30" y="36" onmousedown="handleReset()"/>
                <g id="arrowUp" xlink:href="#dirArrow" transform="translate(30 24)" onmousedown="handlePan(0,-1)">
                  <use xlink:href="#rim" fill="#404040">
                        <set attributeName="fill" to="#808080" begin="arrowUp.mouseover" end="arrowUp.mouseout"/>
                  </use>
                  <path fill="none" stroke="white" stroke-width="1.5" d="M0,-3.0v7 M-2.5,-0.5L0,-3.0L2.5,-0.5"/>
                </g>
                <g id="arrowRight" xlink:href="#dirArrow" transform="rotate(90) translate(36 -43)" onmousedown="handlePan(1,0)">
                  <use xlink:href="#rim" fill="#404040">
                        <set attributeName="fill" to="#808080" begin="arrowRight.mouseover" end="arrowRight.mouseout"/>
                  </use>
                  <path fill="none" stroke="white" stroke-width="1.5" d="M0,-3.0v7 M-2.5,-0.5L0,-3.0L2.5,-0.5"/>
                </g>
                <g id="arrowDown" xlink:href="#dirArrow" transform="rotate(180) translate(-30 -48)" onmousedown="handlePan(0,1)">
                  <use xlink:href="#rim" fill="#404040">
                        <set attributeName="fill" to="#808080" begin="arrowDown.mouseover" end="arrowDown.mouseout"/>
                  </use>
                  <path fill="none" stroke="white" stroke-width="1.5" d="M0,-3.0v7 M-2.5,-0.5L0,-3.0L2.5,-0.5"/>
                </g>
                <g id="arrowLeft" xlink:href="#dirArrow" transform="rotate(270) translate(-36 17)" onmousedown="handlePan(-1,0)">
                  <use xlink:href="#rim" fill="#404040">
                        <set attributeName="fill" to="#808080" begin="arrowLeft.mouseover" end="arrowLeft.mouseout"/>
                  </use>
                  <path fill="none" stroke="white" stroke-width="1.5" d="M0,-3.0v7 M-2.5,-0.5L0,-3.0L2.5,-0.5"/>
                </g>
        </g>
        <svg viewBox="0 0 15 15" width="100%" height="30px" preserveAspectRatio="xMaxYMin meet">
         <g id="arrow_out" transform="scale(0.3 0.3)">
          <a xlink:href="structcimg__library__suffixed_1_1cimg_1_1type_a4b01a896aa0c86ce9f3162f36fa2ae72_icgraph_org.svg" target="_base">
           <rect id="button" ry="5" rx="5" y="6" x="6" height="38" width="38"
                fill="#f2f5e9" fill-opacity="0.5" stroke="#606060" stroke-width="1.0"/>
           <path id="arrow"
             d="M 11.500037,31.436501 C 11.940474,20.09759 22.043105,11.32322 32.158766,21.979434 L 37.068811,17.246167 C 37.068811,17.246167 37.088388,32 37.088388,32 L 22.160133,31.978069 C 22.160133,31.978069 26.997745,27.140456 26.997745,27.140456 C 18.528582,18.264221 13.291696,25.230495 11.500037,31.436501 z"
             style="fill:#404040;"/>
          </a>
         </g>
        </svg>
</svg>
