<?xml version="1.0" encoding="UTF-8" standalone="no"?>
<!DOCTYPE svg PUBLIC "-//W3C//DTD SVG 1.1//EN"
 "http://www.w3.org/Graphics/SVG/1.1/DTD/svg11.dtd">
<!-- Generated by graphviz version 2.40.1 (20161225.0304)
 -->
<!-- Title: cimg_library_suffixed::CImg::get_select_graph Pages: 1 -->
<svg width="332pt" height="39pt"
 viewBox="0.00 0.00 332.00 39.00" xmlns="http://www.w3.org/2000/svg" xmlns:xlink="http://www.w3.org/1999/xlink">
<g id="graph0" class="graph" transform="scale(1 1) rotate(0) translate(4 35)">
<title>cimg_library_suffixed::CImg::get_select_graph</title>
<polygon fill="#ffffff" stroke="transparent" points="-4,4 -4,-35 328,-35 328,4 -4,4"/>
<!-- Node1853 -->
<g id="node1" class="node">
<title>Node1853</title>
<polygon fill="#bfbfbf" stroke="#000000" points="0,-.5 0,-30.5 127,-30.5 127,-.5 0,-.5"/>
<text text-anchor="start" x="8" y="-18.5" font-family="Helvetica,sans-Serif" font-size="10.00" fill="#000000">cimg_library_suffixed</text>
<text text-anchor="middle" x="63.5" y="-7.5" font-family="Helvetica,sans-Serif" font-size="10.00" fill="#000000">::CImg::get_select_graph</text>
</g>
<!-- Node1854 -->
<g id="node2" class="node">
<title>Node1854</title>
<g id="a_node2"><a xlink:href="structcimg__library__suffixed_1_1_c_img.html#a39224c81542abc157318e64a6df11fdf" target="_top" xlink:title="cimg_library_suffixed\l::CImg\&lt; charT \&gt;::_display_graph">
<polygon fill="#ffffff" stroke="#000000" points="163,-.5 163,-30.5 324,-30.5 324,-.5 163,-.5"/>
<text text-anchor="start" x="171" y="-18.5" font-family="Helvetica,sans-Serif" font-size="10.00" fill="#000000">cimg_library_suffixed</text>
<text text-anchor="middle" x="243.5" y="-7.5" font-family="Helvetica,sans-Serif" font-size="10.00" fill="#000000">::CImg&lt; charT &gt;::_display_graph</text>
</a>
</g>
</g>
<!-- Node1853&#45;&gt;Node1854 -->
<g id="edge1" class="edge">
<title>Node1853&#45;&gt;Node1854</title>
<path fill="none" stroke="#191970" d="M137.3501,-15.5C145.7553,-15.5 154.3548,-15.5 162.8423,-15.5"/>
<polygon fill="#191970" stroke="#191970" points="137.2146,-12.0001 127.2146,-15.5 137.2145,-19.0001 137.2146,-12.0001"/>
</g>
</g>
</svg>
