<?xml version="1.0" encoding="UTF-8" standalone="no"?>
<!DOCTYPE svg PUBLIC "-//W3C//DTD SVG 1.1//EN"
 "http://www.w3.org/Graphics/SVG/1.1/DTD/svg11.dtd">
<!-- Generated by graphviz version 2.40.1 (20161225.0304)
 -->
<!-- Title: cimg_library_suffixed::CImg::_cimg_math_parser::mp_image_d Pages: 1 -->
<svg width="291pt" height="88pt"
 viewBox="0.00 0.00 291.00 88.00" xmlns="http://www.w3.org/2000/svg" xmlns:xlink="http://www.w3.org/1999/xlink">
<g id="graph0" class="graph" transform="scale(1 1) rotate(0) translate(4 84)">
<title>cimg_library_suffixed::CImg::_cimg_math_parser::mp_image_d</title>
<polygon fill="#ffffff" stroke="transparent" points="-4,4 -4,-84 287,-84 287,4 -4,4"/>
<!-- Node487 -->
<g id="node1" class="node">
<title>Node487</title>
<polygon fill="#bfbfbf" stroke="#000000" points="0,-19 0,-60 138,-60 138,-19 0,-19"/>
<text text-anchor="start" x="8" y="-48" font-family="Helvetica,sans-Serif" font-size="10.00" fill="#000000">cimg_library_suffixed</text>
<text text-anchor="start" x="8" y="-37" font-family="Helvetica,sans-Serif" font-size="10.00" fill="#000000">::CImg::_cimg_math_parser</text>
<text text-anchor="middle" x="69" y="-26" font-family="Helvetica,sans-Serif" font-size="10.00" fill="#000000">::mp_image_d</text>
</g>
<!-- Node488 -->
<g id="node2" class="node">
<title>Node488</title>
<g id="a_node2"><a xlink:href="structcimg__library__suffixed_1_1_c_img.html#aa708d2050f866a341896aca528615d2d" target="_top" xlink:title="Return the number of image slices. ">
<polygon fill="#ffffff" stroke="#000000" points="174,-49.5 174,-79.5 283,-79.5 283,-49.5 174,-49.5"/>
<text text-anchor="start" x="182" y="-67.5" font-family="Helvetica,sans-Serif" font-size="10.00" fill="#000000">cimg_library_suffixed</text>
<text text-anchor="middle" x="228.5" y="-56.5" font-family="Helvetica,sans-Serif" font-size="10.00" fill="#000000">::CImg::depth</text>
</a>
</g>
</g>
<!-- Node487&#45;&gt;Node488 -->
<g id="edge1" class="edge">
<title>Node487&#45;&gt;Node488</title>
<path fill="none" stroke="#191970" d="M138.0314,-50.32C146.5309,-51.6522 155.1959,-53.0103 163.6306,-54.3324"/>
<polygon fill="#191970" stroke="#191970" points="163.3569,-57.8321 173.7783,-55.9229 164.4409,-50.9166 163.3569,-57.8321"/>
</g>
<!-- Node489 -->
<g id="node3" class="node">
<title>Node489</title>
<g id="a_node3"><a xlink:href="namespacecimg__library__suffixed_1_1cimg.html#afcc02428c9b7d9100e1674369d25cc40" target="_top" xlink:title="Return the modulo of a value. ">
<polygon fill="#ffffff" stroke="#000000" points="174,-.5 174,-30.5 283,-30.5 283,-.5 174,-.5"/>
<text text-anchor="start" x="182" y="-18.5" font-family="Helvetica,sans-Serif" font-size="10.00" fill="#000000">cimg_library_suffixed</text>
<text text-anchor="middle" x="228.5" y="-7.5" font-family="Helvetica,sans-Serif" font-size="10.00" fill="#000000">::cimg::mod</text>
</a>
</g>
</g>
<!-- Node487&#45;&gt;Node489 -->
<g id="edge2" class="edge">
<title>Node487&#45;&gt;Node489</title>
<path fill="none" stroke="#191970" d="M138.0314,-29.1128C146.5309,-27.8339 155.1959,-26.5301 163.6306,-25.2609"/>
<polygon fill="#191970" stroke="#191970" points="164.4104,-28.6831 173.7783,-23.734 163.3688,-21.761 164.4104,-28.6831"/>
</g>
</g>
</svg>
