<?xml version="1.0" encoding="UTF-8" standalone="no"?>
<!DOCTYPE svg PUBLIC "-//W3C//DTD SVG 1.1//EN"
 "http://www.w3.org/Graphics/SVG/1.1/DTD/svg11.dtd">
<!-- Generated by graphviz version 2.40.1 (20161225.0304)
 -->
<!-- Title: cimg_library_suffixed::cimg::type&lt; long double &gt;::is_inf Pages: 1 -->
<svg width="280pt" height="88pt"
 viewBox="0.00 0.00 280.00 88.00" xmlns="http://www.w3.org/2000/svg" xmlns:xlink="http://www.w3.org/1999/xlink">
<g id="graph0" class="graph" transform="scale(1 1) rotate(0) translate(4 84)">
<title>cimg_library_suffixed::cimg::type&lt; long double &gt;::is_inf</title>
<polygon fill="#ffffff" stroke="transparent" points="-4,4 -4,-84 276,-84 276,4 -4,4"/>
<!-- Node22 -->
<g id="node1" class="node">
<title>Node22</title>
<polygon fill="#bfbfbf" stroke="#000000" points="0,-19 0,-60 127,-60 127,-19 0,-19"/>
<text text-anchor="start" x="8" y="-48" font-family="Helvetica,sans-Serif" font-size="10.00" fill="#000000">cimg_library_suffixed</text>
<text text-anchor="start" x="8" y="-37" font-family="Helvetica,sans-Serif" font-size="10.00" fill="#000000">::cimg::type&lt; long double</text>
<text text-anchor="middle" x="63.5" y="-26" font-family="Helvetica,sans-Serif" font-size="10.00" fill="#000000"> &gt;::is_inf</text>
</g>
<!-- Node23 -->
<g id="node2" class="node">
<title>Node23</title>
<g id="a_node2"><a xlink:href="structcimg__library__suffixed_1_1cimg_1_1type.html#a4b01a896aa0c86ce9f3162f36fa2ae72" target="_top" xlink:title="cimg_library_suffixed\l::cimg::type::max">
<polygon fill="#ffffff" stroke="#000000" points="163,-49.5 163,-79.5 272,-79.5 272,-49.5 163,-49.5"/>
<text text-anchor="start" x="171" y="-67.5" font-family="Helvetica,sans-Serif" font-size="10.00" fill="#000000">cimg_library_suffixed</text>
<text text-anchor="middle" x="217.5" y="-56.5" font-family="Helvetica,sans-Serif" font-size="10.00" fill="#000000">::cimg::type::max</text>
</a>
</g>
</g>
<!-- Node22&#45;&gt;Node23 -->
<g id="edge1" class="edge">
<title>Node22&#45;&gt;Node23</title>
<path fill="none" stroke="#191970" d="M127.0268,-49.8128C135.6022,-51.2049 144.4076,-52.6344 152.9997,-54.0292"/>
<polygon fill="#191970" stroke="#191970" points="152.5299,-57.4986 162.9615,-55.6464 153.6516,-50.5891 152.5299,-57.4986"/>
</g>
<!-- Node24 -->
<g id="node3" class="node">
<title>Node24</title>
<g id="a_node3"><a xlink:href="namespacecimg__library__suffixed_1_1cimg.html#ad5459593e7f8a4066cb22ad63de8e92d" target="_top" xlink:title="Return the minimum between four values. ">
<polygon fill="#ffffff" stroke="#000000" points="163,-.5 163,-30.5 272,-30.5 272,-.5 163,-.5"/>
<text text-anchor="start" x="171" y="-18.5" font-family="Helvetica,sans-Serif" font-size="10.00" fill="#000000">cimg_library_suffixed</text>
<text text-anchor="middle" x="217.5" y="-7.5" font-family="Helvetica,sans-Serif" font-size="10.00" fill="#000000">::cimg::min</text>
</a>
</g>
</g>
<!-- Node22&#45;&gt;Node24 -->
<g id="edge2" class="edge">
<title>Node22&#45;&gt;Node24</title>
<path fill="none" stroke="#191970" d="M127.0268,-29.5997C135.6022,-28.2633 144.4076,-26.891 152.9997,-25.552"/>
<polygon fill="#191970" stroke="#191970" points="153.6198,-28.9977 162.9615,-23.9995 152.5418,-22.0812 153.6198,-28.9977"/>
</g>
</g>
</svg>
