<?xml version="1.0" encoding="UTF-8" standalone="no"?>
<!DOCTYPE svg PUBLIC "-//W3C//DTD SVG 1.1//EN"
 "http://www.w3.org/Graphics/SVG/1.1/DTD/svg11.dtd">
<!-- Generated by graphviz version 2.40.1 (20161225.0304)
 -->
<!-- Title: cimg_library_suffixed::CImg::_cimg_math_parser::scalar3 Pages: 1 -->
<svg width="291pt" height="50pt"
 viewBox="0.00 0.00 291.00 50.00" xmlns="http://www.w3.org/2000/svg" xmlns:xlink="http://www.w3.org/1999/xlink">
<g id="graph0" class="graph" transform="scale(1 1) rotate(0) translate(4 46)">
<title>cimg_library_suffixed::CImg::_cimg_math_parser::scalar3</title>
<polygon fill="#ffffff" stroke="transparent" points="-4,4 -4,-46 287,-46 287,4 -4,4"/>
<!-- Node1256 -->
<g id="node1" class="node">
<title>Node1256</title>
<polygon fill="#bfbfbf" stroke="#000000" points="0,-.5 0,-41.5 138,-41.5 138,-.5 0,-.5"/>
<text text-anchor="start" x="8" y="-29.5" font-family="Helvetica,sans-Serif" font-size="10.00" fill="#000000">cimg_library_suffixed</text>
<text text-anchor="start" x="8" y="-18.5" font-family="Helvetica,sans-Serif" font-size="10.00" fill="#000000">::CImg::_cimg_math_parser</text>
<text text-anchor="middle" x="69" y="-7.5" font-family="Helvetica,sans-Serif" font-size="10.00" fill="#000000">::scalar3</text>
</g>
<!-- Node1257 -->
<g id="node2" class="node">
<title>Node1257</title>
<g id="a_node2"><a xlink:href="structcimg__library__suffixed_1_1_c_img.html#a6abe1f19a229cc0ac8fc60d1a0167057" target="_top" xlink:title="Unroll pixel values along axis y. ">
<polygon fill="#ffffff" stroke="#000000" points="174,-6 174,-36 283,-36 283,-6 174,-6"/>
<text text-anchor="start" x="182" y="-24" font-family="Helvetica,sans-Serif" font-size="10.00" fill="#000000">cimg_library_suffixed</text>
<text text-anchor="middle" x="228.5" y="-13" font-family="Helvetica,sans-Serif" font-size="10.00" fill="#000000">::CImg::vector</text>
</a>
</g>
</g>
<!-- Node1256&#45;&gt;Node1257 -->
<g id="edge1" class="edge">
<title>Node1256&#45;&gt;Node1257</title>
<path fill="none" stroke="#191970" d="M138.0314,-21C146.5309,-21 155.1959,-21 163.6306,-21"/>
<polygon fill="#191970" stroke="#191970" points="163.7783,-24.5001 173.7783,-21 163.7782,-17.5001 163.7783,-24.5001"/>
</g>
</g>
</svg>
