<?xml version="1.0" encoding="UTF-8" standalone="no"?>
<!DOCTYPE svg PUBLIC "-//W3C//DTD SVG 1.1//EN"
 "http://www.w3.org/Graphics/SVG/1.1/DTD/svg11.dtd">
<!-- Generated by graphviz version 2.40.1 (20161225.0304)
 -->
<!-- Title: cimg_library_suffixed::CImgDisplay::empty Pages: 1 -->
<svg width="271pt" height="39pt"
 viewBox="0.00 0.00 271.00 39.00" xmlns="http://www.w3.org/2000/svg" xmlns:xlink="http://www.w3.org/1999/xlink">
<g id="graph0" class="graph" transform="scale(1 1) rotate(0) translate(4 35)">
<title>cimg_library_suffixed::CImgDisplay::empty</title>
<polygon fill="#ffffff" stroke="transparent" points="-4,4 -4,-35 267,-35 267,4 -4,4"/>
<!-- Node253 -->
<g id="node1" class="node">
<title>Node253</title>
<polygon fill="#bfbfbf" stroke="#000000" points="0,-.5 0,-30.5 113,-30.5 113,-.5 0,-.5"/>
<text text-anchor="start" x="8" y="-18.5" font-family="Helvetica,sans-Serif" font-size="10.00" fill="#000000">cimg_library_suffixed</text>
<text text-anchor="middle" x="56.5" y="-7.5" font-family="Helvetica,sans-Serif" font-size="10.00" fill="#000000">::CImgDisplay::empty</text>
</g>
<!-- Node254 -->
<g id="node2" class="node">
<title>Node254</title>
<g id="a_node2"><a xlink:href="structcimg__library__suffixed_1_1_c_img_display.html#a93447fdffa6c250ebc03e62e9279d603" target="_top" xlink:title="Destructor &#45; Empty constructor . ">
<polygon fill="#ffffff" stroke="#000000" points="149,-.5 149,-30.5 263,-30.5 263,-.5 149,-.5"/>
<text text-anchor="start" x="157" y="-18.5" font-family="Helvetica,sans-Serif" font-size="10.00" fill="#000000">cimg_library_suffixed</text>
<text text-anchor="middle" x="206" y="-7.5" font-family="Helvetica,sans-Serif" font-size="10.00" fill="#000000">::CImgDisplay::assign</text>
</a>
</g>
</g>
<!-- Node253&#45;&gt;Node254 -->
<g id="edge1" class="edge">
<title>Node253&#45;&gt;Node254</title>
<path fill="none" stroke="#191970" d="M113.0195,-15.5C121.4588,-15.5 130.2282,-15.5 138.8608,-15.5"/>
<polygon fill="#191970" stroke="#191970" points="138.904,-19.0001 148.9039,-15.5 138.9039,-12.0001 138.904,-19.0001"/>
</g>
</g>
</svg>
