<?xml version="1.0" encoding="UTF-8" standalone="no"?>
<!DOCTYPE svg PUBLIC "-//W3C//DTD SVG 1.1//EN"
 "http://www.w3.org/Graphics/SVG/1.1/DTD/svg11.dtd">
<!-- Generated by graphviz version 2.40.1 (20161225.0304)
 -->
<!-- Title: cimg_library_suffixed::CImg::_cimg_math_parser::mp_matrix_pseudoinv Pages: 1 -->
<svg width="309pt" height="50pt"
 viewBox="0.00 0.00 309.00 50.00" xmlns="http://www.w3.org/2000/svg" xmlns:xlink="http://www.w3.org/1999/xlink">
<g id="graph0" class="graph" transform="scale(1 1) rotate(0) translate(4 46)">
<title>cimg_library_suffixed::CImg::_cimg_math_parser::mp_matrix_pseudoinv</title>
<polygon fill="#ffffff" stroke="transparent" points="-4,4 -4,-46 305,-46 305,4 -4,4"/>
<!-- Node856 -->
<g id="node1" class="node">
<title>Node856</title>
<polygon fill="#bfbfbf" stroke="#000000" points="0,-.5 0,-41.5 138,-41.5 138,-.5 0,-.5"/>
<text text-anchor="start" x="8" y="-29.5" font-family="Helvetica,sans-Serif" font-size="10.00" fill="#000000">cimg_library_suffixed</text>
<text text-anchor="start" x="8" y="-18.5" font-family="Helvetica,sans-Serif" font-size="10.00" fill="#000000">::CImg::_cimg_math_parser</text>
<text text-anchor="middle" x="69" y="-7.5" font-family="Helvetica,sans-Serif" font-size="10.00" fill="#000000">::mp_matrix_pseudoinv</text>
</g>
<!-- Node857 -->
<g id="node2" class="node">
<title>Node857</title>
<g id="a_node2"><a xlink:href="structcimg__library__suffixed_1_1_c_img.html#a33c05bc335362b8e6bae9a516f28f8c0" target="_top" xlink:title="Compute the Moore&#45;Penrose pseudo&#45;inverse of the instance image, viewed as a matrix ...">
<polygon fill="#ffffff" stroke="#000000" points="174,-6 174,-36 301,-36 301,-6 174,-6"/>
<text text-anchor="start" x="182" y="-24" font-family="Helvetica,sans-Serif" font-size="10.00" fill="#000000">cimg_library_suffixed</text>
<text text-anchor="middle" x="237.5" y="-13" font-family="Helvetica,sans-Serif" font-size="10.00" fill="#000000">::CImg::get_pseudoinvert</text>
</a>
</g>
</g>
<!-- Node856&#45;&gt;Node857 -->
<g id="edge1" class="edge">
<title>Node856&#45;&gt;Node857</title>
<path fill="none" stroke="#191970" d="M138.0216,-21C146.4214,-21 155.0302,-21 163.4987,-21"/>
<polygon fill="#191970" stroke="#191970" points="163.7355,-24.5001 173.7354,-21 163.7354,-17.5001 163.7355,-24.5001"/>
</g>
</g>
</svg>
