<?xml version="1.0" encoding="UTF-8" standalone="no"?>
<!DOCTYPE svg PUBLIC "-//W3C//DTD SVG 1.1//EN"
 "http://www.w3.org/Graphics/SVG/1.1/DTD/svg11.dtd">
<!-- Generated by graphviz version 2.40.1 (20161225.0304)
 -->
<!-- Title: cimg_library_suffixed::CImgDisplay::screen_width Pages: 1 -->
<!--zoomable 389 -->
<svg id="main" version="1.1" xmlns="http://www.w3.org/2000/svg" xmlns:xlink="http://www.w3.org/1999/xlink" xml:space="preserve" onload="init(evt)">
<style type="text/css"><![CDATA[
.edge:hover path { stroke: red; }
.edge:hover polygon { stroke: red; fill: red; }
]]></style>
<script type="text/javascript"><![CDATA[
var edges = document.getElementsByTagName('g');
if (edges && edges.length) {
  for (var i=0;i<edges.length;i++) {
    if (edges[i].id.substr(0,4)=='edge') {
      edges[i].setAttribute('class','edge');
    }
  }
}
]]></script>
        <defs>
                <circle id="rim" cx="0" cy="0" r="7"/>
                <circle id="rim2" cx="0" cy="0" r="3.5"/>
                <g id="zoomPlus">
                        <use xlink:href="#rim" fill="#404040">
                                <set attributeName="fill" to="#808080" begin="zoomplus.mouseover" end="zoomplus.mouseout"/>
                        </use>
                        <path d="M-4,0h8M0,-4v8" fill="none" stroke="white" stroke-width="1.5" pointer-events="none"/>
                </g>
                <g id="zoomMin">
                        <use xlink:href="#rim" fill="#404040">
                                <set attributeName="fill" to="#808080" begin="zoomminus.mouseover" end="zoomminus.mouseout"/>
                        </use>
                        <path d="M-4,0h8" fill="none" stroke="white" stroke-width="1.5" pointer-events="none"/>
                </g>
                <g id="dirArrow">
                        <path fill="none" stroke="white" stroke-width="1.5" d="M0,-3.0v7 M-2.5,-0.5L0,-3.0L2.5,-0.5"/>
                </g>
               <g id="resetDef">
                       <use xlink:href="#rim2" fill="#404040">
                               <set attributeName="fill" to="#808080" begin="reset.mouseover" end="reset.mouseout"/>
                       </use>
               </g>
        </defs>

<script type="text/javascript">
var viewWidth = 515;
var viewHeight = 389;
var sectionId = 'dynsection-26';
</script>
<script xlink:href="svgpan.js"/>
<svg id="graph" class="graph">
<g id="viewport">
<title>cimg_library_suffixed::CImgDisplay::screen_width</title>
<polygon fill="#ffffff" stroke="transparent" points="-4,4 -4,-384.5 511,-384.5 511,4 -4,4"/>
<!-- Node426 -->
<g id="node1" class="node">
<title>Node426</title>
<polygon fill="#bfbfbf" stroke="#000000" points="0,-169.5 0,-199.5 143,-199.5 143,-169.5 0,-169.5"/>
<text text-anchor="start" x="8" y="-187.5" font-family="Helvetica,sans-Serif" font-size="10.00" fill="#000000">cimg_library_suffixed</text>
<text text-anchor="middle" x="71.5" y="-176.5" font-family="Helvetica,sans-Serif" font-size="10.00" fill="#000000">::CImgDisplay::screen_width</text>
</g>
<!-- Node427 -->
<g id="node2" class="node">
<title>Node427</title>
<g id="a_node2"><a xlink:href="structcimg__library__suffixed_1_1_c_img.html#aaa07158749f6daf52edcfb4a3b86c4ef" target="_top" xlink:title="cimg_library_suffixed\l::CImg\&lt; charT \&gt;::__get\l_select">
<polygon fill="#ffffff" stroke="#000000" points="200,-339 200,-380 319,-380 319,-339 200,-339"/>
<text text-anchor="start" x="208" y="-368" font-family="Helvetica,sans-Serif" font-size="10.00" fill="#000000">cimg_library_suffixed</text>
<text text-anchor="start" x="208" y="-357" font-family="Helvetica,sans-Serif" font-size="10.00" fill="#000000">::CImg&lt; charT &gt;::__get</text>
<text text-anchor="middle" x="259.5" y="-346" font-family="Helvetica,sans-Serif" font-size="10.00" fill="#000000">_select</text>
</a>
</g>
</g>
<!-- Node426&#45;&gt;Node427 -->
<g id="edge1" class="edge">
<title>Node426&#45;&gt;Node427</title>
<path fill="none" stroke="#191970" d="M84.5879,-208.288C102.4164,-238.798 136.9765,-291.6798 179,-324.5 185.9661,-329.9405 193.9078,-334.7124 202.0255,-338.8393"/>
<polygon fill="#191970" stroke="#191970" points="87.61,-206.5221 79.6024,-199.5846 81.5359,-210.0015 87.61,-206.5221"/>
</g>
<!-- Node428 -->
<g id="node3" class="node">
<title>Node428</title>
<g id="a_node3"><a xlink:href="structcimg__library__suffixed_1_1_c_img.html#adf9d80c60e82b079056c31cb0fe61faf" target="_top" xlink:title="cimg_library_suffixed\l::CImg\&lt; charT \&gt;::_display">
<polygon fill="#ffffff" stroke="#000000" points="376,-339.5 376,-369.5 507,-369.5 507,-339.5 376,-339.5"/>
<text text-anchor="start" x="384" y="-357.5" font-family="Helvetica,sans-Serif" font-size="10.00" fill="#000000">cimg_library_suffixed</text>
<text text-anchor="middle" x="441.5" y="-346.5" font-family="Helvetica,sans-Serif" font-size="10.00" fill="#000000">::CImg&lt; charT &gt;::_display</text>
</a>
</g>
</g>
<!-- Node426&#45;&gt;Node428 -->
<g id="edge2" class="edge">
<title>Node426&#45;&gt;Node428</title>
<path fill="none" stroke="#191970" d="M89.9483,-207.5658C109.6267,-230.6428 142.8844,-265.5048 179,-285.5 187.9921,-290.4784 306.6919,-320.7296 381.3588,-339.4865"/>
<polygon fill="#191970" stroke="#191970" points="92.4298,-205.077 83.3326,-199.6464 87.0576,-209.5648 92.4298,-205.077"/>
</g>
<!-- Node429 -->
<g id="node4" class="node">
<title>Node429</title>
<g id="a_node4"><a xlink:href="structcimg__library__suffixed_1_1_c_img.html#a39224c81542abc157318e64a6df11fdf" target="_top" xlink:title="cimg_library_suffixed\l::CImg\&lt; charT \&gt;::_display_graph">
<polygon fill="#ffffff" stroke="#000000" points="179,-49.5 179,-79.5 340,-79.5 340,-49.5 179,-49.5"/>
<text text-anchor="start" x="187" y="-67.5" font-family="Helvetica,sans-Serif" font-size="10.00" fill="#000000">cimg_library_suffixed</text>
<text text-anchor="middle" x="259.5" y="-56.5" font-family="Helvetica,sans-Serif" font-size="10.00" fill="#000000">::CImg&lt; charT &gt;::_display_graph</text>
</a>
</g>
</g>
<!-- Node426&#45;&gt;Node429 -->
<g id="edge3" class="edge">
<title>Node426&#45;&gt;Node429</title>
<path fill="none" stroke="#191970" d="M93.5513,-162.1111C114.1575,-142.1967 146.5385,-113.3837 179,-94.5 188.9268,-88.7253 200.1648,-83.7104 211.0272,-79.5206"/>
<polygon fill="#191970" stroke="#191970" points="90.9425,-159.7672 86.2546,-169.2685 95.8444,-164.7644 90.9425,-159.7672"/>
</g>
<!-- Node430 -->
<g id="node5" class="node">
<title>Node430</title>
<g id="a_node5"><a xlink:href="structcimg__library__suffixed_1_1_c_img.html#a8b40db5a9818c3f961a90840b271de6c" target="_top" xlink:title="cimg_library_suffixed\l::CImg\&lt; charT \&gt;::_display\l_object3d">
<polygon fill="#ffffff" stroke="#000000" points="376,-279 376,-320 507,-320 507,-279 376,-279"/>
<text text-anchor="start" x="384" y="-308" font-family="Helvetica,sans-Serif" font-size="10.00" fill="#000000">cimg_library_suffixed</text>
<text text-anchor="start" x="384" y="-297" font-family="Helvetica,sans-Serif" font-size="10.00" fill="#000000">::CImg&lt; charT &gt;::_display</text>
<text text-anchor="middle" x="441.5" y="-286" font-family="Helvetica,sans-Serif" font-size="10.00" fill="#000000">_object3d</text>
</a>
</g>
</g>
<!-- Node426&#45;&gt;Node430 -->
<g id="edge4" class="edge">
<title>Node426&#45;&gt;Node430</title>
<path fill="none" stroke="#191970" d="M98.0805,-205.853C118.896,-221.4701 149.2211,-241.8794 179,-253.5 243.2218,-278.5612 321.61,-290.0325 375.9182,-295.2438"/>
<polygon fill="#191970" stroke="#191970" points="100.1139,-203.0018 90.0446,-199.7063 95.861,-208.5618 100.1139,-203.0018"/>
</g>
<!-- Node431 -->
<g id="node6" class="node">
<title>Node431</title>
<g id="a_node6"><a xlink:href="structcimg__library__suffixed_1_1_c_img_display.html#a7fef297dd2ab82550718fcb7751c66bc" target="_top" xlink:title="cimg_library_suffixed\l::CImgDisplay::_fitscreen">
<polygon fill="#ffffff" stroke="#000000" points="195.5,-213.5 195.5,-243.5 323.5,-243.5 323.5,-213.5 195.5,-213.5"/>
<text text-anchor="start" x="203.5" y="-231.5" font-family="Helvetica,sans-Serif" font-size="10.00" fill="#000000">cimg_library_suffixed</text>
<text text-anchor="middle" x="259.5" y="-220.5" font-family="Helvetica,sans-Serif" font-size="10.00" fill="#000000">::CImgDisplay::_fitscreen</text>
</a>
</g>
</g>
<!-- Node426&#45;&gt;Node431 -->
<g id="edge5" class="edge">
<title>Node426&#45;&gt;Node431</title>
<path fill="none" stroke="#191970" d="M145.7467,-201.8769C162.1299,-205.7112 179.3515,-209.7418 195.2971,-213.4738"/>
<polygon fill="#191970" stroke="#191970" points="146.2076,-198.3902 135.6731,-199.5192 144.6124,-205.2061 146.2076,-198.3902"/>
</g>
<!-- Node433 -->
<g id="node8" class="node">
<title>Node433</title>
<g id="a_node8"><a xlink:href="structcimg__library__suffixed_1_1_c_img.html#ad9b7141242d0b6e861a8014112ddb5b5" target="_top" xlink:title="cimg_library_suffixed\l::CImg\&lt; charT \&gt;::_select">
<polygon fill="#ffffff" stroke="#000000" points="378,-169.5 378,-199.5 505,-199.5 505,-169.5 378,-169.5"/>
<text text-anchor="start" x="386" y="-187.5" font-family="Helvetica,sans-Serif" font-size="10.00" fill="#000000">cimg_library_suffixed</text>
<text text-anchor="middle" x="441.5" y="-176.5" font-family="Helvetica,sans-Serif" font-size="10.00" fill="#000000">::CImg&lt; charT &gt;::_select</text>
</a>
</g>
</g>
<!-- Node426&#45;&gt;Node433 -->
<g id="edge12" class="edge">
<title>Node426&#45;&gt;Node433</title>
<path fill="none" stroke="#191970" d="M153.4822,-184.5C221.178,-184.5 315.8904,-184.5 377.9441,-184.5"/>
<polygon fill="#191970" stroke="#191970" points="153.2785,-181.0001 143.2784,-184.5 153.2784,-188.0001 153.2785,-181.0001"/>
</g>
<!-- Node434 -->
<g id="node9" class="node">
<title>Node434</title>
<g id="a_node9"><a xlink:href="structcimg__library__suffixed_1_1_c_img_list.html#af8a6b01f20b2d459e5abe6b99836ea9a" target="_top" xlink:title="cimg_library_suffixed\l::CImgList\&lt; charT \&gt;::\l_select">
<polygon fill="#ffffff" stroke="#000000" points="386,-109 386,-150 497,-150 497,-109 386,-109"/>
<text text-anchor="start" x="394" y="-138" font-family="Helvetica,sans-Serif" font-size="10.00" fill="#000000">cimg_library_suffixed</text>
<text text-anchor="start" x="394" y="-127" font-family="Helvetica,sans-Serif" font-size="10.00" fill="#000000">::CImgList&lt; charT &gt;::</text>
<text text-anchor="middle" x="441.5" y="-116" font-family="Helvetica,sans-Serif" font-size="10.00" fill="#000000">_select</text>
</a>
</g>
</g>
<!-- Node426&#45;&gt;Node434 -->
<g id="edge13" class="edge">
<title>Node426&#45;&gt;Node434</title>
<path fill="none" stroke="#191970" d="M153.4822,-172.3135C224.1434,-161.8098 324.2401,-146.9305 385.9059,-137.764"/>
<polygon fill="#191970" stroke="#191970" points="152.6551,-168.8979 143.2784,-173.8302 153.6844,-175.8218 152.6551,-168.8979"/>
</g>
<!-- Node435 -->
<g id="node10" class="node">
<title>Node435</title>
<g id="a_node10"><a xlink:href="structcimg__library__suffixed_1_1_c_img.html#a689f47424dc7c548ebfe53e431409199" target="_top" xlink:title="Select sub&#45;graph in a graph. ">
<polygon fill="#ffffff" stroke="#000000" points="387,-49 387,-90 496,-90 496,-49 387,-49"/>
<text text-anchor="start" x="395" y="-78" font-family="Helvetica,sans-Serif" font-size="10.00" fill="#000000">cimg_library_suffixed</text>
<text text-anchor="start" x="395" y="-67" font-family="Helvetica,sans-Serif" font-size="10.00" fill="#000000">::CImg&lt; charT &gt;::get</text>
<text text-anchor="middle" x="441.5" y="-56" font-family="Helvetica,sans-Serif" font-size="10.00" fill="#000000">_select_graph</text>
</a>
</g>
</g>
<!-- Node426&#45;&gt;Node435 -->
<g id="edge15" class="edge">
<title>Node426&#45;&gt;Node435</title>
<path fill="none" stroke="#191970" d="M115.8754,-165.4421C135.0975,-157.5285 157.9725,-148.5642 179,-141.5 249.8893,-117.6847 333.4445,-95.7998 386.9176,-82.5591"/>
<polygon fill="#191970" stroke="#191970" points="114.3638,-162.2799 106.472,-169.3488 117.0495,-168.7443 114.3638,-162.2799"/>
</g>
<!-- Node436 -->
<g id="node11" class="node">
<title>Node436</title>
<g id="a_node11"><a xlink:href="namespacecimg__library__suffixed_1_1cimg.html#a11aed0e6b30d75bf50946ee78d1aed94" target="_top" xlink:title="Display a simple dialog box, and wait for the user&#39;s response. ">
<polygon fill="#ffffff" stroke="#000000" points="205,-.5 205,-30.5 314,-30.5 314,-.5 205,-.5"/>
<text text-anchor="start" x="213" y="-18.5" font-family="Helvetica,sans-Serif" font-size="10.00" fill="#000000">cimg_library_suffixed</text>
<text text-anchor="middle" x="259.5" y="-7.5" font-family="Helvetica,sans-Serif" font-size="10.00" fill="#000000">::cimg::dialog</text>
</a>
</g>
</g>
<!-- Node426&#45;&gt;Node436 -->
<g id="edge14" class="edge">
<title>Node426&#45;&gt;Node436</title>
<path fill="none" stroke="#191970" d="M83.2543,-160.0399C100.0331,-127.6982 133.8824,-71.1203 179,-39.5 186.7627,-34.0596 195.7731,-29.8346 204.8972,-26.5586"/>
<polygon fill="#191970" stroke="#191970" points="79.9893,-158.7408 78.6016,-169.2444 86.2365,-161.8987 79.9893,-158.7408"/>
</g>
<!-- Node431&#45;&gt;Node428 -->
<g id="edge6" class="edge">
<title>Node431&#45;&gt;Node428</title>
<path fill="none" stroke="#191970" d="M285.7261,-250.1963C301.5753,-263.421 322.1066,-280.7529 340,-296.5 356.2939,-310.8395 357.5332,-318.0944 376,-329.5 382.0063,-333.2097 388.6532,-336.5217 395.342,-339.4258"/>
<polygon fill="#191970" stroke="#191970" points="287.8285,-247.3925 277.9034,-243.6852 283.3503,-252.7727 287.8285,-247.3925"/>
</g>
<!-- Node431&#45;&gt;Node430 -->
<g id="edge8" class="edge">
<title>Node431&#45;&gt;Node430</title>
<path fill="none" stroke="#191970" d="M309.9426,-247.059C319.9223,-250.7982 330.3066,-254.7368 340,-258.5 356.7422,-264.9997 374.9548,-272.2877 391.2709,-278.8962"/>
<polygon fill="#191970" stroke="#191970" points="311.1266,-243.7651 300.534,-243.5472 308.6788,-250.3232 311.1266,-243.7651"/>
</g>
<!-- Node432 -->
<g id="node7" class="node">
<title>Node432</title>
<g id="a_node7"><a xlink:href="structcimg__library__suffixed_1_1_c_img_list.html#af514efa37d021bd02a95186531139a38" target="_top" xlink:title="cimg_library_suffixed\l::CImgList\&lt; charT \&gt;::\l_display">
<polygon fill="#ffffff" stroke="#000000" points="386,-219 386,-260 497,-260 497,-219 386,-219"/>
<text text-anchor="start" x="394" y="-248" font-family="Helvetica,sans-Serif" font-size="10.00" fill="#000000">cimg_library_suffixed</text>
<text text-anchor="start" x="394" y="-237" font-family="Helvetica,sans-Serif" font-size="10.00" fill="#000000">::CImgList&lt; charT &gt;::</text>
<text text-anchor="middle" x="441.5" y="-226" font-family="Helvetica,sans-Serif" font-size="10.00" fill="#000000">_display</text>
</a>
</g>
</g>
<!-- Node431&#45;&gt;Node432 -->
<g id="edge7" class="edge">
<title>Node431&#45;&gt;Node432</title>
<path fill="none" stroke="#191970" d="M333.7773,-232.9893C351.149,-234.0392 369.3628,-235.1401 385.7676,-236.1316"/>
<polygon fill="#191970" stroke="#191970" points="333.8594,-229.488 323.6664,-232.3782 333.437,-236.4752 333.8594,-229.488"/>
</g>
<!-- Node431&#45;&gt;Node433 -->
<g id="edge9" class="edge">
<title>Node431&#45;&gt;Node433</title>
<path fill="none" stroke="#191970" d="M331.3771,-211.1231C347.2374,-207.2888 363.9094,-203.2582 379.3462,-199.5262"/>
<polygon fill="#191970" stroke="#191970" points="330.5225,-207.7288 321.625,-213.4808 332.1675,-214.5328 330.5225,-207.7288"/>
</g>
<!-- Node431&#45;&gt;Node434 -->
<g id="edge10" class="edge">
<title>Node431&#45;&gt;Node434</title>
<path fill="none" stroke="#191970" d="M292.8571,-207.9982C315.9206,-194.0793 347.4701,-175.5418 376,-160.5 382.566,-157.0382 389.5846,-153.5255 396.4983,-150.1692"/>
<polygon fill="#191970" stroke="#191970" points="290.8848,-205.1008 284.148,-213.2779 294.5138,-211.0867 290.8848,-205.1008"/>
</g>
<!-- Node431&#45;&gt;Node435 -->
<g id="edge11" class="edge">
<title>Node431&#45;&gt;Node435</title>
<path fill="none" stroke="#191970" d="M276.236,-204.7013C296.9935,-176.5747 334.7223,-129.779 376,-99.5 380.6392,-96.097 385.726,-92.9483 390.9497,-90.0724"/>
<polygon fill="#191970" stroke="#191970" points="273.1565,-202.9853 270.1099,-213.1327 278.8195,-207.1 273.1565,-202.9853"/>
</g>
</g>
</svg>
        <g id="navigator" transform="translate(0 0)" fill="#404254">
                <rect fill="#f2f5e9" fill-opacity="0.5" stroke="#606060" stroke-width=".5" x="0" y="0" width="60" height="60"/>
                <use id="zoomplus" xlink:href="#zoomPlus" x="17" y="9" onmousedown="handleZoom(evt,'in')"/>
                <use id="zoomminus" xlink:href="#zoomMin" x="42" y="9" onmousedown="handleZoom(evt,'out')"/>
                <use id="reset" xlink:href="#resetDef" x="30" y="36" onmousedown="handleReset()"/>
                <g id="arrowUp" xlink:href="#dirArrow" transform="translate(30 24)" onmousedown="handlePan(0,-1)">
                  <use xlink:href="#rim" fill="#404040">
                        <set attributeName="fill" to="#808080" begin="arrowUp.mouseover" end="arrowUp.mouseout"/>
                  </use>
                  <path fill="none" stroke="white" stroke-width="1.5" d="M0,-3.0v7 M-2.5,-0.5L0,-3.0L2.5,-0.5"/>
                </g>
                <g id="arrowRight" xlink:href="#dirArrow" transform="rotate(90) translate(36 -43)" onmousedown="handlePan(1,0)">
                  <use xlink:href="#rim" fill="#404040">
                        <set attributeName="fill" to="#808080" begin="arrowRight.mouseover" end="arrowRight.mouseout"/>
                  </use>
                  <path fill="none" stroke="white" stroke-width="1.5" d="M0,-3.0v7 M-2.5,-0.5L0,-3.0L2.5,-0.5"/>
                </g>
                <g id="arrowDown" xlink:href="#dirArrow" transform="rotate(180) translate(-30 -48)" onmousedown="handlePan(0,1)">
                  <use xlink:href="#rim" fill="#404040">
                        <set attributeName="fill" to="#808080" begin="arrowDown.mouseover" end="arrowDown.mouseout"/>
                  </use>
                  <path fill="none" stroke="white" stroke-width="1.5" d="M0,-3.0v7 M-2.5,-0.5L0,-3.0L2.5,-0.5"/>
                </g>
                <g id="arrowLeft" xlink:href="#dirArrow" transform="rotate(270) translate(-36 17)" onmousedown="handlePan(-1,0)">
                  <use xlink:href="#rim" fill="#404040">
                        <set attributeName="fill" to="#808080" begin="arrowLeft.mouseover" end="arrowLeft.mouseout"/>
                  </use>
                  <path fill="none" stroke="white" stroke-width="1.5" d="M0,-3.0v7 M-2.5,-0.5L0,-3.0L2.5,-0.5"/>
                </g>
        </g>
        <svg viewBox="0 0 15 15" width="100%" height="30px" preserveAspectRatio="xMaxYMin meet">
         <g id="arrow_out" transform="scale(0.3 0.3)">
          <a xlink:href="structcimg__library__suffixed_1_1_c_img_display_ab3681646247ba684f7161cf13b2ce624_icgraph_org.svg" target="_base">
           <rect id="button" ry="5" rx="5" y="6" x="6" height="38" width="38"
                fill="#f2f5e9" fill-opacity="0.5" stroke="#606060" stroke-width="1.0"/>
           <path id="arrow"
             d="M 11.500037,31.436501 C 11.940474,20.09759 22.043105,11.32322 32.158766,21.979434 L 37.068811,17.246167 C 37.068811,17.246167 37.088388,32 37.088388,32 L 22.160133,31.978069 C 22.160133,31.978069 26.997745,27.140456 26.997745,27.140456 C 18.528582,18.264221 13.291696,25.230495 11.500037,31.436501 z"
             style="fill:#404040;"/>
          </a>
         </g>
        </svg>
</svg>
