<?xml version="1.0" encoding="UTF-8" standalone="no"?>
<!DOCTYPE svg PUBLIC "-//W3C//DTD SVG 1.1//EN"
 "http://www.w3.org/Graphics/SVG/1.1/DTD/svg11.dtd">
<!-- Generated by graphviz version 2.40.1 (20161225.0304)
 -->
<!-- Title: cimg_library_suffixed::CImgDisplay::flush Pages: 1 -->
<svg width="284pt" height="88pt"
 viewBox="0.00 0.00 284.00 88.00" xmlns="http://www.w3.org/2000/svg" xmlns:xlink="http://www.w3.org/1999/xlink">
<g id="graph0" class="graph" transform="scale(1 1) rotate(0) translate(4 84)">
<title>cimg_library_suffixed::CImgDisplay::flush</title>
<polygon fill="#ffffff" stroke="transparent" points="-4,4 -4,-84 280,-84 280,4 -4,4"/>
<!-- Node256 -->
<g id="node1" class="node">
<title>Node256</title>
<polygon fill="#bfbfbf" stroke="#000000" points="0,-24.5 0,-54.5 109,-54.5 109,-24.5 0,-24.5"/>
<text text-anchor="start" x="8" y="-42.5" font-family="Helvetica,sans-Serif" font-size="10.00" fill="#000000">cimg_library_suffixed</text>
<text text-anchor="middle" x="54.5" y="-31.5" font-family="Helvetica,sans-Serif" font-size="10.00" fill="#000000">::CImgDisplay::flush</text>
</g>
<!-- Node257 -->
<g id="node2" class="node">
<title>Node257</title>
<g id="a_node2"><a xlink:href="structcimg__library__suffixed_1_1_c_img_display.html#a9626cbb82f0db7c2f8a9936822e62125" target="_top" xlink:title="Simulate a mouse button release event. ">
<polygon fill="#ffffff" stroke="#000000" points="145,-49.5 145,-79.5 276,-79.5 276,-49.5 145,-49.5"/>
<text text-anchor="start" x="153" y="-67.5" font-family="Helvetica,sans-Serif" font-size="10.00" fill="#000000">cimg_library_suffixed</text>
<text text-anchor="middle" x="210.5" y="-56.5" font-family="Helvetica,sans-Serif" font-size="10.00" fill="#000000">::CImgDisplay::set_button</text>
</a>
</g>
</g>
<!-- Node256&#45;&gt;Node257 -->
<g id="edge1" class="edge">
<title>Node256&#45;&gt;Node257</title>
<path fill="none" stroke="#191970" d="M109.0612,-48.2438C117.4878,-49.5942 126.3168,-51.0091 135.1017,-52.4169"/>
<polygon fill="#191970" stroke="#191970" points="134.5498,-55.8731 144.9777,-53.9996 135.6575,-48.9613 134.5498,-55.8731"/>
</g>
<!-- Node258 -->
<g id="node3" class="node">
<title>Node258</title>
<g id="a_node3"><a xlink:href="structcimg__library__suffixed_1_1_c_img_display.html#a4ce1d2c8224658626b37215edfe58ad8" target="_top" xlink:title="Flush all mouse wheel events. ">
<polygon fill="#ffffff" stroke="#000000" points="145.5,-.5 145.5,-30.5 275.5,-30.5 275.5,-.5 145.5,-.5"/>
<text text-anchor="start" x="153.5" y="-18.5" font-family="Helvetica,sans-Serif" font-size="10.00" fill="#000000">cimg_library_suffixed</text>
<text text-anchor="middle" x="210.5" y="-7.5" font-family="Helvetica,sans-Serif" font-size="10.00" fill="#000000">::CImgDisplay::set_wheel</text>
</a>
</g>
</g>
<!-- Node256&#45;&gt;Node258 -->
<g id="edge2" class="edge">
<title>Node256&#45;&gt;Node258</title>
<path fill="none" stroke="#191970" d="M109.0612,-31.106C117.5517,-29.7997 126.4506,-28.4307 135.3014,-27.069"/>
<polygon fill="#191970" stroke="#191970" points="135.8979,-30.5185 145.2494,-25.5386 134.8334,-23.5999 135.8979,-30.5185"/>
</g>
</g>
</svg>
