<?xml version="1.0" encoding="UTF-8" standalone="no"?>
<!DOCTYPE svg PUBLIC "-//W3C//DTD SVG 1.1//EN"
 "http://www.w3.org/Graphics/SVG/1.1/DTD/svg11.dtd">
<!-- Generated by graphviz version 2.40.1 (20161225.0304)
 -->
<!-- Title: cimg_library_suffixed::CImg::get_log10 Pages: 1 -->
<svg width="441pt" height="369pt"
 viewBox="0.00 0.00 441.00 368.50" xmlns="http://www.w3.org/2000/svg" xmlns:xlink="http://www.w3.org/1999/xlink">
<g id="graph0" class="graph" transform="scale(1 1) rotate(0) translate(4 364.5)">
<title>cimg_library_suffixed::CImg::get_log10</title>
<polygon fill="#ffffff" stroke="transparent" points="-4,4 -4,-364.5 437,-364.5 437,4 -4,4"/>
<!-- Node1685 -->
<g id="node1" class="node">
<title>Node1685</title>
<polygon fill="#bfbfbf" stroke="#000000" points="0,-159.5 0,-189.5 109,-189.5 109,-159.5 0,-159.5"/>
<text text-anchor="start" x="8" y="-177.5" font-family="Helvetica,sans-Serif" font-size="10.00" fill="#000000">cimg_library_suffixed</text>
<text text-anchor="middle" x="54.5" y="-166.5" font-family="Helvetica,sans-Serif" font-size="10.00" fill="#000000">::CImg::get_log10</text>
</g>
<!-- Node1686 -->
<g id="node2" class="node">
<title>Node1686</title>
<g id="a_node2"><a xlink:href="namespacecimg__library__suffixed.html#a0f2193937084db25a38b70eab00da3dd" target="_top" xlink:title="cimg_library_suffixed\l::log10">
<polygon fill="#ffffff" stroke="#000000" points="145,-159.5 145,-189.5 254,-189.5 254,-159.5 145,-159.5"/>
<text text-anchor="start" x="153" y="-177.5" font-family="Helvetica,sans-Serif" font-size="10.00" fill="#000000">cimg_library_suffixed</text>
<text text-anchor="middle" x="199.5" y="-166.5" font-family="Helvetica,sans-Serif" font-size="10.00" fill="#000000">::log10</text>
</a>
</g>
</g>
<!-- Node1685&#45;&gt;Node1686 -->
<g id="edge1" class="edge">
<title>Node1685&#45;&gt;Node1686</title>
<path fill="none" stroke="#191970" d="M119.4621,-167.7825C127.8588,-167.7098 136.3919,-167.759 144.6042,-167.9301"/>
<polygon fill="#191970" stroke="#191970" points="119.2657,-164.2849 109.3183,-167.9317 119.3687,-171.2842 119.2657,-164.2849"/>
</g>
<!-- Node1686&#45;&gt;Node1685 -->
<g id="edge4" class="edge">
<title>Node1686&#45;&gt;Node1685</title>
<path fill="none" stroke="#191970" d="M134.4586,-181.2181C126.0611,-181.2901 117.5286,-181.2402 109.3183,-181.0683"/>
<polygon fill="#191970" stroke="#191970" points="134.6564,-184.7157 144.6042,-181.0699 134.5541,-177.7165 134.6564,-184.7157"/>
</g>
<!-- Node1687 -->
<g id="node3" class="node">
<title>Node1687</title>
<g id="a_node3"><a xlink:href="structcimg__library__suffixed_1_1_c_img_1_1__cimg__math__parser.html#a318c44c5d1f4f0114355f37ace87a4ae" target="_top" xlink:title="cimg_library_suffixed\l::CImg::_cimg_math_parser\l::compile">
<polygon fill="#ffffff" stroke="#000000" points="292.5,-319 292.5,-360 430.5,-360 430.5,-319 292.5,-319"/>
<text text-anchor="start" x="300.5" y="-348" font-family="Helvetica,sans-Serif" font-size="10.00" fill="#000000">cimg_library_suffixed</text>
<text text-anchor="start" x="300.5" y="-337" font-family="Helvetica,sans-Serif" font-size="10.00" fill="#000000">::CImg::_cimg_math_parser</text>
<text text-anchor="middle" x="361.5" y="-326" font-family="Helvetica,sans-Serif" font-size="10.00" fill="#000000">::compile</text>
</a>
</g>
</g>
<!-- Node1686&#45;&gt;Node1687 -->
<g id="edge2" class="edge">
<title>Node1686&#45;&gt;Node1687</title>
<path fill="none" stroke="#191970" d="M210.3343,-198.8098C224.6874,-228.5492 252.6177,-278.7254 290,-309.5 294.2611,-313.0079 298.9913,-316.1617 303.931,-318.9848"/>
<polygon fill="#191970" stroke="#191970" points="213.4119,-197.1292 205.9932,-189.5653 207.0757,-200.1047 213.4119,-197.1292"/>
</g>
<!-- Node1688 -->
<g id="node4" class="node">
<title>Node1688</title>
<g id="a_node4"><a xlink:href="structcimg__library__suffixed_1_1_c_img.html#a23c9260194d915f3826c3bd2ad8eb0da" target="_top" xlink:title="Draw labeled horizontal and vertical axes . ">
<polygon fill="#ffffff" stroke="#000000" points="290,-269.5 290,-299.5 433,-299.5 433,-269.5 290,-269.5"/>
<text text-anchor="start" x="298" y="-287.5" font-family="Helvetica,sans-Serif" font-size="10.00" fill="#000000">cimg_library_suffixed</text>
<text text-anchor="middle" x="361.5" y="-276.5" font-family="Helvetica,sans-Serif" font-size="10.00" fill="#000000">::CImg&lt; charT &gt;::draw_axes</text>
</a>
</g>
</g>
<!-- Node1686&#45;&gt;Node1688 -->
<g id="edge3" class="edge">
<title>Node1686&#45;&gt;Node1688</title>
<path fill="none" stroke="#191970" d="M218.8095,-197.3376C235.8603,-216.2562 262.2628,-242.6762 290,-259.5 296.1839,-263.2508 303.011,-266.5439 309.9194,-269.4028"/>
<polygon fill="#191970" stroke="#191970" points="221.3413,-194.9169 212.098,-189.7387 216.0947,-199.5509 221.3413,-194.9169"/>
</g>
<!-- Node1689 -->
<g id="node5" class="node">
<title>Node1689</title>
<g id="a_node5"><a xlink:href="structcimg__library__suffixed_1_1_c_img.html#a689f47424dc7c548ebfe53e431409199" target="_top" xlink:title="Select sub&#45;graph in a graph. ">
<polygon fill="#ffffff" stroke="#000000" points="307,-209 307,-250 416,-250 416,-209 307,-209"/>
<text text-anchor="start" x="315" y="-238" font-family="Helvetica,sans-Serif" font-size="10.00" fill="#000000">cimg_library_suffixed</text>
<text text-anchor="start" x="315" y="-227" font-family="Helvetica,sans-Serif" font-size="10.00" fill="#000000">::CImg&lt; charT &gt;::get</text>
<text text-anchor="middle" x="361.5" y="-216" font-family="Helvetica,sans-Serif" font-size="10.00" fill="#000000">_select_graph</text>
</a>
</g>
</g>
<!-- Node1686&#45;&gt;Node1689 -->
<g id="edge5" class="edge">
<title>Node1686&#45;&gt;Node1689</title>
<path fill="none" stroke="#191970" d="M253.6214,-192.8745C270.7591,-198.6929 289.7075,-205.126 306.88,-210.9562"/>
<polygon fill="#191970" stroke="#191970" points="254.3616,-189.4297 243.7672,-189.529 252.1112,-196.0581 254.3616,-189.4297"/>
</g>
<!-- Node1690 -->
<g id="node6" class="node">
<title>Node1690</title>
<g id="a_node6"><a xlink:href="structcimg__library__suffixed_1_1_c_img.html#ae92f0599f2bcfaae3d6796fbf903e561" target="_top" xlink:title="Compute the base&#45;10 logarithm of each pixel value. ">
<polygon fill="#ffffff" stroke="#000000" points="302,-159.5 302,-189.5 421,-189.5 421,-159.5 302,-159.5"/>
<text text-anchor="start" x="310" y="-177.5" font-family="Helvetica,sans-Serif" font-size="10.00" fill="#000000">cimg_library_suffixed</text>
<text text-anchor="middle" x="361.5" y="-166.5" font-family="Helvetica,sans-Serif" font-size="10.00" fill="#000000">::CImg&lt; charT &gt;::log10</text>
</a>
</g>
</g>
<!-- Node1686&#45;&gt;Node1690 -->
<g id="edge6" class="edge">
<title>Node1686&#45;&gt;Node1690</title>
<path fill="none" stroke="#191970" d="M264.58,-174.5C276.9394,-174.5 289.8135,-174.5 301.9894,-174.5"/>
<polygon fill="#191970" stroke="#191970" points="264.3458,-171.0001 254.3458,-174.5 264.3458,-178.0001 264.3458,-171.0001"/>
</g>
<!-- Node1691 -->
<g id="node7" class="node">
<title>Node1691</title>
<g id="a_node7"><a xlink:href="structcimg__library__suffixed_1_1_c_img_1_1__cimg__math__parser.html#a27e20505b12ae33c80577c60cc45ee80" target="_top" xlink:title="cimg_library_suffixed\l::CImg::_cimg_math_parser\l::mp_log10">
<polygon fill="#ffffff" stroke="#000000" points="292.5,-99 292.5,-140 430.5,-140 430.5,-99 292.5,-99"/>
<text text-anchor="start" x="300.5" y="-128" font-family="Helvetica,sans-Serif" font-size="10.00" fill="#000000">cimg_library_suffixed</text>
<text text-anchor="start" x="300.5" y="-117" font-family="Helvetica,sans-Serif" font-size="10.00" fill="#000000">::CImg::_cimg_math_parser</text>
<text text-anchor="middle" x="361.5" y="-106" font-family="Helvetica,sans-Serif" font-size="10.00" fill="#000000">::mp_log10</text>
</a>
</g>
</g>
<!-- Node1686&#45;&gt;Node1691 -->
<g id="edge7" class="edge">
<title>Node1686&#45;&gt;Node1691</title>
<path fill="none" stroke="#191970" d="M253.5197,-156.16C268.7138,-151.0015 285.3377,-145.3576 300.8892,-140.0777"/>
<polygon fill="#191970" stroke="#191970" points="252.1112,-152.9419 243.7672,-159.471 254.3616,-159.5703 252.1112,-152.9419"/>
</g>
<!-- Node1692 -->
<g id="node8" class="node">
<title>Node1692</title>
<g id="a_node8"><a xlink:href="structcimg__library__suffixed_1_1_c_img.html#a1c5936e2a0499030ddf5a2e5e07eb128" target="_top" xlink:title="Compute the PSNR (Peak Signal&#45;to&#45;Noise Ratio) between two images. ">
<polygon fill="#ffffff" stroke="#000000" points="299.5,-49.5 299.5,-79.5 423.5,-79.5 423.5,-49.5 299.5,-49.5"/>
<text text-anchor="start" x="307.5" y="-67.5" font-family="Helvetica,sans-Serif" font-size="10.00" fill="#000000">cimg_library_suffixed</text>
<text text-anchor="middle" x="361.5" y="-56.5" font-family="Helvetica,sans-Serif" font-size="10.00" fill="#000000">::CImg&lt; charT &gt;::PSNR</text>
</a>
</g>
</g>
<!-- Node1686&#45;&gt;Node1692 -->
<g id="edge8" class="edge">
<title>Node1686&#45;&gt;Node1692</title>
<path fill="none" stroke="#191970" d="M218.8095,-151.6624C235.8603,-132.7438 262.2628,-106.3238 290,-89.5 296.1839,-85.7492 303.011,-82.4561 309.9194,-79.5972"/>
<polygon fill="#191970" stroke="#191970" points="216.0947,-149.4491 212.098,-159.2613 221.3413,-154.0831 216.0947,-149.4491"/>
</g>
<!-- Node1693 -->
<g id="node9" class="node">
<title>Node1693</title>
<g id="a_node9"><a xlink:href="namespacecimg__library__suffixed_1_1cimg.html#a33280187782b500494b92832fc13e339" target="_top" xlink:title="Return 1 + log_10(x) of a value x. ">
<polygon fill="#ffffff" stroke="#000000" points="307,-.5 307,-30.5 416,-30.5 416,-.5 307,-.5"/>
<text text-anchor="start" x="315" y="-18.5" font-family="Helvetica,sans-Serif" font-size="10.00" fill="#000000">cimg_library_suffixed</text>
<text text-anchor="middle" x="361.5" y="-7.5" font-family="Helvetica,sans-Serif" font-size="10.00" fill="#000000">::cimg::xln</text>
</a>
</g>
</g>
<!-- Node1686&#45;&gt;Node1693 -->
<g id="edge9" class="edge">
<title>Node1686&#45;&gt;Node1693</title>
<path fill="none" stroke="#191970" d="M210.0816,-149.9981C224.1765,-120.0985 251.8428,-69.9052 290,-40.5 295.1039,-36.5668 300.8734,-33.2234 306.8668,-30.388"/>
<polygon fill="#191970" stroke="#191970" points="206.8034,-148.7509 205.8264,-159.3006 213.169,-151.6628 206.8034,-148.7509"/>
</g>
</g>
</svg>
