<?xml version="1.0" encoding="UTF-8" standalone="no"?>
<!DOCTYPE svg PUBLIC "-//W3C//DTD SVG 1.1//EN"
 "http://www.w3.org/Graphics/SVG/1.1/DTD/svg11.dtd">
<!-- Generated by graphviz version 2.40.1 (20161225.0304)
 -->
<!-- Title: cimg_library_suffixed::CImg::_cimg_math_parser::mp_sin Pages: 1 -->
<svg width="455pt" height="50pt"
 viewBox="0.00 0.00 455.00 50.00" xmlns="http://www.w3.org/2000/svg" xmlns:xlink="http://www.w3.org/1999/xlink">
<g id="graph0" class="graph" transform="scale(1 1) rotate(0) translate(4 46)">
<title>cimg_library_suffixed::CImg::_cimg_math_parser::mp_sin</title>
<polygon fill="#ffffff" stroke="transparent" points="-4,4 -4,-46 451,-46 451,4 -4,4"/>
<!-- Node1061 -->
<g id="node1" class="node">
<title>Node1061</title>
<polygon fill="#bfbfbf" stroke="#000000" points="0,-.5 0,-41.5 138,-41.5 138,-.5 0,-.5"/>
<text text-anchor="start" x="8" y="-29.5" font-family="Helvetica,sans-Serif" font-size="10.00" fill="#000000">cimg_library_suffixed</text>
<text text-anchor="start" x="8" y="-18.5" font-family="Helvetica,sans-Serif" font-size="10.00" fill="#000000">::CImg::_cimg_math_parser</text>
<text text-anchor="middle" x="69" y="-7.5" font-family="Helvetica,sans-Serif" font-size="10.00" fill="#000000">::mp_sin</text>
</g>
<!-- Node1062 -->
<g id="node2" class="node">
<title>Node1062</title>
<g id="a_node2"><a xlink:href="namespacecimg__library__suffixed.html#adadd90e3f405e206a38d01dc80e9be2d" target="_top" xlink:title="cimg_library_suffixed::sin">
<polygon fill="#ffffff" stroke="#000000" points="174,-11.5 174,-30.5 302,-30.5 302,-11.5 174,-11.5"/>
<text text-anchor="middle" x="238" y="-18.5" font-family="Helvetica,sans-Serif" font-size="10.00" fill="#000000">cimg_library_suffixed::sin</text>
</a>
</g>
</g>
<!-- Node1061&#45;&gt;Node1062 -->
<g id="edge1" class="edge">
<title>Node1061&#45;&gt;Node1062</title>
<path fill="none" stroke="#191970" d="M138.2264,-21C146.5864,-21 155.1526,-21 163.5831,-21"/>
<polygon fill="#191970" stroke="#191970" points="163.7761,-24.5001 173.776,-21 163.776,-17.5001 163.7761,-24.5001"/>
</g>
<!-- Node1063 -->
<g id="node3" class="node">
<title>Node1063</title>
<g id="a_node3"><a xlink:href="structcimg__library__suffixed_1_1_c_img.html#ada2a306f3b37f5630573447fc9578124" target="_top" xlink:title="Compute the sine of each pixel value . ">
<polygon fill="#ffffff" stroke="#000000" points="338,-6 338,-36 447,-36 447,-6 338,-6"/>
<text text-anchor="start" x="346" y="-24" font-family="Helvetica,sans-Serif" font-size="10.00" fill="#000000">cimg_library_suffixed</text>
<text text-anchor="middle" x="392.5" y="-13" font-family="Helvetica,sans-Serif" font-size="10.00" fill="#000000">::CImg::get_sin</text>
</a>
</g>
</g>
<!-- Node1062&#45;&gt;Node1063 -->
<g id="edge2" class="edge">
<title>Node1062&#45;&gt;Node1063</title>
<path fill="none" stroke="#191970" d="M302.1797,-21C310.5495,-21 319.1301,-21 327.513,-21"/>
<polygon fill="#191970" stroke="#191970" points="327.6128,-24.5001 337.6128,-21 327.6127,-17.5001 327.6128,-24.5001"/>
</g>
</g>
</svg>
