<?xml version="1.0" encoding="UTF-8" standalone="no"?>
<!DOCTYPE svg PUBLIC "-//W3C//DTD SVG 1.1//EN"
 "http://www.w3.org/Graphics/SVG/1.1/DTD/svg11.dtd">
<!-- Generated by graphviz version 2.40.1 (20161225.0304)
 -->
<!-- Title: cimg_library_suffixed::CImg::_cimg_math_parser::mp_log2 Pages: 1 -->
<svg width="600pt" height="50pt"
 viewBox="0.00 0.00 600.00 50.00" xmlns="http://www.w3.org/2000/svg" xmlns:xlink="http://www.w3.org/1999/xlink">
<g id="graph0" class="graph" transform="scale(1 1) rotate(0) translate(4 46)">
<title>cimg_library_suffixed::CImg::_cimg_math_parser::mp_log2</title>
<polygon fill="#ffffff" stroke="transparent" points="-4,4 -4,-46 596,-46 596,4 -4,4"/>
<!-- Node830 -->
<g id="node1" class="node">
<title>Node830</title>
<polygon fill="#bfbfbf" stroke="#000000" points="0,-.5 0,-41.5 138,-41.5 138,-.5 0,-.5"/>
<text text-anchor="start" x="8" y="-29.5" font-family="Helvetica,sans-Serif" font-size="10.00" fill="#000000">cimg_library_suffixed</text>
<text text-anchor="start" x="8" y="-18.5" font-family="Helvetica,sans-Serif" font-size="10.00" fill="#000000">::CImg::_cimg_math_parser</text>
<text text-anchor="middle" x="69" y="-7.5" font-family="Helvetica,sans-Serif" font-size="10.00" fill="#000000">::mp_log2</text>
</g>
<!-- Node831 -->
<g id="node2" class="node">
<title>Node831</title>
<g id="a_node2"><a xlink:href="namespacecimg__library__suffixed_1_1cimg.html#a03657cf098d3b588e76bcef4426233bd" target="_top" xlink:title="Return base&#45;2 logarithm of a value. ">
<polygon fill="#ffffff" stroke="#000000" points="174,-6 174,-36 283,-36 283,-6 174,-6"/>
<text text-anchor="start" x="182" y="-24" font-family="Helvetica,sans-Serif" font-size="10.00" fill="#000000">cimg_library_suffixed</text>
<text text-anchor="middle" x="228.5" y="-13" font-family="Helvetica,sans-Serif" font-size="10.00" fill="#000000">::cimg::log2</text>
</a>
</g>
</g>
<!-- Node830&#45;&gt;Node831 -->
<g id="edge1" class="edge">
<title>Node830&#45;&gt;Node831</title>
<path fill="none" stroke="#191970" d="M138.0314,-21C146.5309,-21 155.1959,-21 163.6306,-21"/>
<polygon fill="#191970" stroke="#191970" points="163.7783,-24.5001 173.7783,-21 163.7782,-17.5001 163.7783,-24.5001"/>
</g>
<!-- Node832 -->
<g id="node3" class="node">
<title>Node832</title>
<g id="a_node3"><a xlink:href="namespacecimg__library__suffixed.html#a65baff382319a3677fd777a976a4f50b" target="_top" xlink:title="cimg_library_suffixed::log">
<polygon fill="#ffffff" stroke="#000000" points="319,-11.5 319,-30.5 447,-30.5 447,-11.5 319,-11.5"/>
<text text-anchor="middle" x="383" y="-18.5" font-family="Helvetica,sans-Serif" font-size="10.00" fill="#000000">cimg_library_suffixed::log</text>
</a>
</g>
</g>
<!-- Node831&#45;&gt;Node832 -->
<g id="edge2" class="edge">
<title>Node831&#45;&gt;Node832</title>
<path fill="none" stroke="#191970" d="M283.4059,-21C291.5454,-21 300.0469,-21 308.5044,-21"/>
<polygon fill="#191970" stroke="#191970" points="308.7715,-24.5001 318.7714,-21 308.7714,-17.5001 308.7715,-24.5001"/>
</g>
<!-- Node833 -->
<g id="node4" class="node">
<title>Node833</title>
<g id="a_node4"><a xlink:href="structcimg__library__suffixed_1_1_c_img.html#a560dd5fe13a0b40fcf95e2ea7020381e" target="_top" xlink:title="Compute the logarithm of each pixel value . ">
<polygon fill="#ffffff" stroke="#000000" points="483,-6 483,-36 592,-36 592,-6 483,-6"/>
<text text-anchor="start" x="491" y="-24" font-family="Helvetica,sans-Serif" font-size="10.00" fill="#000000">cimg_library_suffixed</text>
<text text-anchor="middle" x="537.5" y="-13" font-family="Helvetica,sans-Serif" font-size="10.00" fill="#000000">::CImg::get_log</text>
</a>
</g>
</g>
<!-- Node832&#45;&gt;Node833 -->
<g id="edge3" class="edge">
<title>Node832&#45;&gt;Node833</title>
<path fill="none" stroke="#191970" d="M447.1797,-21C455.5495,-21 464.1301,-21 472.513,-21"/>
<polygon fill="#191970" stroke="#191970" points="472.6128,-24.5001 482.6128,-21 472.6127,-17.5001 472.6128,-24.5001"/>
</g>
</g>
</svg>
