<?xml version="1.0" encoding="UTF-8" standalone="no"?>
<!DOCTYPE svg PUBLIC "-//W3C//DTD SVG 1.1//EN"
 "http://www.w3.org/Graphics/SVG/1.1/DTD/svg11.dtd">
<!-- Generated by graphviz version 2.40.1 (20161225.0304)
 -->
<!-- Title: cimg_library_suffixed::CImgDisplay::show Pages: 1 -->
<svg width="314pt" height="380pt"
 viewBox="0.00 0.00 314.00 379.50" xmlns="http://www.w3.org/2000/svg" xmlns:xlink="http://www.w3.org/1999/xlink">
<g id="graph0" class="graph" transform="scale(1 1) rotate(0) translate(4 375.5)">
<title>cimg_library_suffixed::CImgDisplay::show</title>
<polygon fill="#ffffff" stroke="transparent" points="-4,4 -4,-375.5 310,-375.5 310,4 -4,4"/>
<!-- Node512 -->
<g id="node1" class="node">
<title>Node512</title>
<polygon fill="#bfbfbf" stroke="#000000" points="0,-176 0,-206 109,-206 109,-176 0,-176"/>
<text text-anchor="start" x="8" y="-194" font-family="Helvetica,sans-Serif" font-size="10.00" fill="#000000">cimg_library_suffixed</text>
<text text-anchor="middle" x="54.5" y="-183" font-family="Helvetica,sans-Serif" font-size="10.00" fill="#000000">::CImgDisplay::show</text>
</g>
<!-- Node513 -->
<g id="node2" class="node">
<title>Node513</title>
<g id="a_node2"><a xlink:href="structcimg__library__suffixed_1_1_c_img.html#adf9d80c60e82b079056c31cb0fe61faf" target="_top" xlink:title="cimg_library_suffixed\l::CImg\&lt; charT \&gt;::_display">
<polygon fill="#ffffff" stroke="#000000" points="160,-341 160,-371 291,-371 291,-341 160,-341"/>
<text text-anchor="start" x="168" y="-359" font-family="Helvetica,sans-Serif" font-size="10.00" fill="#000000">cimg_library_suffixed</text>
<text text-anchor="middle" x="225.5" y="-348" font-family="Helvetica,sans-Serif" font-size="10.00" fill="#000000">::CImg&lt; charT &gt;::_display</text>
</a>
</g>
</g>
<!-- Node512&#45;&gt;Node513 -->
<g id="edge1" class="edge">
<title>Node512&#45;&gt;Node513</title>
<path fill="none" stroke="#191970" d="M64.0236,-215.4393C77.4419,-246.7305 104.8456,-300.5361 145,-331 150.1298,-334.8918 155.8743,-338.1843 161.8706,-340.9686"/>
<polygon fill="#191970" stroke="#191970" points="67.2256,-214.0238 60.1599,-206.1291 60.7602,-216.7069 67.2256,-214.0238"/>
</g>
<!-- Node514 -->
<g id="node3" class="node">
<title>Node514</title>
<g id="a_node3"><a xlink:href="structcimg__library__suffixed_1_1_c_img_list.html#af514efa37d021bd02a95186531139a38" target="_top" xlink:title="cimg_library_suffixed\l::CImgList\&lt; charT \&gt;::\l_display">
<polygon fill="#ffffff" stroke="#000000" points="170,-280.5 170,-321.5 281,-321.5 281,-280.5 170,-280.5"/>
<text text-anchor="start" x="178" y="-309.5" font-family="Helvetica,sans-Serif" font-size="10.00" fill="#000000">cimg_library_suffixed</text>
<text text-anchor="start" x="178" y="-298.5" font-family="Helvetica,sans-Serif" font-size="10.00" fill="#000000">::CImgList&lt; charT &gt;::</text>
<text text-anchor="middle" x="225.5" y="-287.5" font-family="Helvetica,sans-Serif" font-size="10.00" fill="#000000">_display</text>
</a>
</g>
</g>
<!-- Node512&#45;&gt;Node514 -->
<g id="edge2" class="edge">
<title>Node512&#45;&gt;Node514</title>
<path fill="none" stroke="#191970" d="M75.5287,-213.6949C92.8053,-231.2638 118.6447,-255.1908 145,-271 152.674,-275.6033 161.1729,-279.6967 169.6883,-283.2664"/>
<polygon fill="#191970" stroke="#191970" points="77.6844,-210.8883 68.2222,-206.122 72.6468,-215.7487 77.6844,-210.8883"/>
</g>
<!-- Node515 -->
<g id="node4" class="node">
<title>Node515</title>
<g id="a_node4"><a xlink:href="structcimg__library__suffixed_1_1_c_img.html#a39224c81542abc157318e64a6df11fdf" target="_top" xlink:title="cimg_library_suffixed\l::CImg\&lt; charT \&gt;::_display_graph">
<polygon fill="#ffffff" stroke="#000000" points="145,-231 145,-261 306,-261 306,-231 145,-231"/>
<text text-anchor="start" x="153" y="-249" font-family="Helvetica,sans-Serif" font-size="10.00" fill="#000000">cimg_library_suffixed</text>
<text text-anchor="middle" x="225.5" y="-238" font-family="Helvetica,sans-Serif" font-size="10.00" fill="#000000">::CImg&lt; charT &gt;::_display_graph</text>
</a>
</g>
</g>
<!-- Node512&#45;&gt;Node515 -->
<g id="edge3" class="edge">
<title>Node512&#45;&gt;Node515</title>
<path fill="none" stroke="#191970" d="M109.2722,-209.3419C121.0448,-213.2323 133.4259,-217.2848 145,-221 155.1717,-224.2651 166.0882,-227.7009 176.4975,-230.9445"/>
<polygon fill="#191970" stroke="#191970" points="110.1507,-205.9459 99.5573,-206.123 107.949,-212.5907 110.1507,-205.9459"/>
</g>
<!-- Node516 -->
<g id="node5" class="node">
<title>Node516</title>
<g id="a_node5"><a xlink:href="structcimg__library__suffixed_1_1_c_img.html#a8b40db5a9818c3f961a90840b271de6c" target="_top" xlink:title="cimg_library_suffixed\l::CImg\&lt; charT \&gt;::_display\l_object3d">
<polygon fill="#ffffff" stroke="#000000" points="160,-170.5 160,-211.5 291,-211.5 291,-170.5 160,-170.5"/>
<text text-anchor="start" x="168" y="-199.5" font-family="Helvetica,sans-Serif" font-size="10.00" fill="#000000">cimg_library_suffixed</text>
<text text-anchor="start" x="168" y="-188.5" font-family="Helvetica,sans-Serif" font-size="10.00" fill="#000000">::CImg&lt; charT &gt;::_display</text>
<text text-anchor="middle" x="225.5" y="-177.5" font-family="Helvetica,sans-Serif" font-size="10.00" fill="#000000">_object3d</text>
</a>
</g>
</g>
<!-- Node512&#45;&gt;Node516 -->
<g id="edge4" class="edge">
<title>Node512&#45;&gt;Node516</title>
<path fill="none" stroke="#191970" d="M119.0902,-191C132.4,-191 146.4301,-191 159.7796,-191"/>
<polygon fill="#191970" stroke="#191970" points="119.0757,-187.5001 109.0756,-191 119.0756,-194.5001 119.0757,-187.5001"/>
</g>
<!-- Node517 -->
<g id="node6" class="node">
<title>Node517</title>
<g id="a_node6"><a xlink:href="structcimg__library__suffixed_1_1_c_img.html#ad9b7141242d0b6e861a8014112ddb5b5" target="_top" xlink:title="cimg_library_suffixed\l::CImg\&lt; charT \&gt;::_select">
<polygon fill="#ffffff" stroke="#000000" points="162,-121 162,-151 289,-151 289,-121 162,-121"/>
<text text-anchor="start" x="170" y="-139" font-family="Helvetica,sans-Serif" font-size="10.00" fill="#000000">cimg_library_suffixed</text>
<text text-anchor="middle" x="225.5" y="-128" font-family="Helvetica,sans-Serif" font-size="10.00" fill="#000000">::CImg&lt; charT &gt;::_select</text>
</a>
</g>
</g>
<!-- Node512&#45;&gt;Node517 -->
<g id="edge5" class="edge">
<title>Node512&#45;&gt;Node517</title>
<path fill="none" stroke="#191970" d="M109.2722,-172.6581C121.0448,-168.7677 133.4259,-164.7152 145,-161 155.1717,-157.7349 166.0882,-154.2991 176.4975,-151.0555"/>
<polygon fill="#191970" stroke="#191970" points="107.949,-169.4093 99.5573,-175.877 110.1507,-176.0541 107.949,-169.4093"/>
</g>
<!-- Node518 -->
<g id="node7" class="node">
<title>Node518</title>
<g id="a_node7"><a xlink:href="structcimg__library__suffixed_1_1_c_img_list.html#af8a6b01f20b2d459e5abe6b99836ea9a" target="_top" xlink:title="cimg_library_suffixed\l::CImgList\&lt; charT \&gt;::\l_select">
<polygon fill="#ffffff" stroke="#000000" points="170,-60.5 170,-101.5 281,-101.5 281,-60.5 170,-60.5"/>
<text text-anchor="start" x="178" y="-89.5" font-family="Helvetica,sans-Serif" font-size="10.00" fill="#000000">cimg_library_suffixed</text>
<text text-anchor="start" x="178" y="-78.5" font-family="Helvetica,sans-Serif" font-size="10.00" fill="#000000">::CImgList&lt; charT &gt;::</text>
<text text-anchor="middle" x="225.5" y="-67.5" font-family="Helvetica,sans-Serif" font-size="10.00" fill="#000000">_select</text>
</a>
</g>
</g>
<!-- Node512&#45;&gt;Node518 -->
<g id="edge6" class="edge">
<title>Node512&#45;&gt;Node518</title>
<path fill="none" stroke="#191970" d="M75.9362,-168.3753C93.2657,-151.1073 118.98,-127.69 145,-112 152.695,-107.3599 161.2049,-103.192 169.7251,-99.5298"/>
<polygon fill="#191970" stroke="#191970" points="73.1193,-166.2474 68.593,-175.8267 78.1051,-171.1608 73.1193,-166.2474"/>
</g>
<!-- Node519 -->
<g id="node8" class="node">
<title>Node519</title>
<g id="a_node8"><a xlink:href="structcimg__library__suffixed_1_1_c_img.html#a689f47424dc7c548ebfe53e431409199" target="_top" xlink:title="Select sub&#45;graph in a graph. ">
<polygon fill="#ffffff" stroke="#000000" points="171,-.5 171,-41.5 280,-41.5 280,-.5 171,-.5"/>
<text text-anchor="start" x="179" y="-29.5" font-family="Helvetica,sans-Serif" font-size="10.00" fill="#000000">cimg_library_suffixed</text>
<text text-anchor="start" x="179" y="-18.5" font-family="Helvetica,sans-Serif" font-size="10.00" fill="#000000">::CImg&lt; charT &gt;::get</text>
<text text-anchor="middle" x="225.5" y="-7.5" font-family="Helvetica,sans-Serif" font-size="10.00" fill="#000000">_select_graph</text>
</a>
</g>
</g>
<!-- Node512&#45;&gt;Node519 -->
<g id="edge7" class="edge">
<title>Node512&#45;&gt;Node519</title>
<path fill="none" stroke="#191970" d="M64.5022,-166.4169C78.2809,-135.4229 105.9117,-82.4049 145,-51 152.6737,-44.8347 161.7413,-39.8543 170.974,-35.8577"/>
<polygon fill="#191970" stroke="#191970" points="61.2662,-165.0823 60.5184,-175.6507 67.6935,-167.8553 61.2662,-165.0823"/>
</g>
</g>
</svg>
