<?xml version="1.0" encoding="UTF-8" standalone="no"?>
<!DOCTYPE svg PUBLIC "-//W3C//DTD SVG 1.1//EN"
 "http://www.w3.org/Graphics/SVG/1.1/DTD/svg11.dtd">
<!-- Generated by graphviz version 2.40.1 (20161225.0304)
 -->
<!-- Title: cimg_library_suffixed::CImgDisplay::set_key Pages: 1 -->
<svg width="498pt" height="467pt"
 viewBox="0.00 0.00 498.00 467.00" xmlns="http://www.w3.org/2000/svg" xmlns:xlink="http://www.w3.org/1999/xlink">
<g id="graph0" class="graph" transform="scale(1 1) rotate(0) translate(4 463)">
<title>cimg_library_suffixed::CImgDisplay::set_key</title>
<polygon fill="#ffffff" stroke="transparent" points="-4,4 -4,-463 494,-463 494,4 -4,4"/>
<!-- Node471 -->
<g id="node1" class="node">
<title>Node471</title>
<polygon fill="#bfbfbf" stroke="#000000" points="0,-241.5 0,-271.5 120,-271.5 120,-241.5 0,-241.5"/>
<text text-anchor="start" x="8" y="-259.5" font-family="Helvetica,sans-Serif" font-size="10.00" fill="#000000">cimg_library_suffixed</text>
<text text-anchor="middle" x="60" y="-248.5" font-family="Helvetica,sans-Serif" font-size="10.00" fill="#000000">::CImgDisplay::set_key</text>
</g>
<!-- Node472 -->
<g id="node2" class="node">
<title>Node472</title>
<g id="a_node2"><a xlink:href="structcimg__library__suffixed_1_1_c_img.html#adf9d80c60e82b079056c31cb0fe61faf" target="_top" xlink:title="cimg_library_suffixed\l::CImg\&lt; charT \&gt;::_display">
<polygon fill="#ffffff" stroke="#000000" points="171,-428.5 171,-458.5 302,-458.5 302,-428.5 171,-428.5"/>
<text text-anchor="start" x="179" y="-446.5" font-family="Helvetica,sans-Serif" font-size="10.00" fill="#000000">cimg_library_suffixed</text>
<text text-anchor="middle" x="236.5" y="-435.5" font-family="Helvetica,sans-Serif" font-size="10.00" fill="#000000">::CImg&lt; charT &gt;::_display</text>
</a>
</g>
</g>
<!-- Node471&#45;&gt;Node472 -->
<g id="edge1" class="edge">
<title>Node471&#45;&gt;Node472</title>
<path fill="none" stroke="#191970" d="M68.006,-281.3079C80.833,-317.1262 109.3953,-383.0196 156,-419.5 160.4787,-423.0057 165.4611,-426.0003 170.6897,-428.5582"/>
<polygon fill="#191970" stroke="#191970" points="71.2386,-279.9462 64.6651,-271.6372 64.6223,-282.2319 71.2386,-279.9462"/>
</g>
<!-- Node473 -->
<g id="node3" class="node">
<title>Node473</title>
<g id="a_node3"><a xlink:href="structcimg__library__suffixed_1_1_c_img.html#a39224c81542abc157318e64a6df11fdf" target="_top" xlink:title="cimg_library_suffixed\l::CImg\&lt; charT \&gt;::_display_graph">
<polygon fill="#ffffff" stroke="#000000" points="156,-379.5 156,-409.5 317,-409.5 317,-379.5 156,-379.5"/>
<text text-anchor="start" x="164" y="-397.5" font-family="Helvetica,sans-Serif" font-size="10.00" fill="#000000">cimg_library_suffixed</text>
<text text-anchor="middle" x="236.5" y="-386.5" font-family="Helvetica,sans-Serif" font-size="10.00" fill="#000000">::CImg&lt; charT &gt;::_display_graph</text>
</a>
</g>
</g>
<!-- Node471&#45;&gt;Node473 -->
<g id="edge2" class="edge">
<title>Node471&#45;&gt;Node473</title>
<path fill="none" stroke="#191970" d="M74.4042,-280.4182C91.0093,-306.0264 120.6119,-346.1202 156,-369.5 161.8608,-373.3721 168.3539,-376.671 175.0361,-379.4756"/>
<polygon fill="#191970" stroke="#191970" points="77.1914,-278.2773 68.8879,-271.6968 71.2754,-282.0191 77.1914,-278.2773"/>
</g>
<!-- Node474 -->
<g id="node4" class="node">
<title>Node474</title>
<g id="a_node4"><a xlink:href="structcimg__library__suffixed_1_1_c_img.html#a8b40db5a9818c3f961a90840b271de6c" target="_top" xlink:title="cimg_library_suffixed\l::CImg\&lt; charT \&gt;::_display\l_object3d">
<polygon fill="#ffffff" stroke="#000000" points="171,-319 171,-360 302,-360 302,-319 171,-319"/>
<text text-anchor="start" x="179" y="-348" font-family="Helvetica,sans-Serif" font-size="10.00" fill="#000000">cimg_library_suffixed</text>
<text text-anchor="start" x="179" y="-337" font-family="Helvetica,sans-Serif" font-size="10.00" fill="#000000">::CImg&lt; charT &gt;::_display</text>
<text text-anchor="middle" x="236.5" y="-326" font-family="Helvetica,sans-Serif" font-size="10.00" fill="#000000">_object3d</text>
</a>
</g>
</g>
<!-- Node471&#45;&gt;Node474 -->
<g id="edge3" class="edge">
<title>Node471&#45;&gt;Node474</title>
<path fill="none" stroke="#191970" d="M94.1248,-276.9513C112.1863,-287.3603 134.933,-299.8233 156,-309.5 163.0477,-312.7372 170.5537,-315.8971 178.041,-318.8775"/>
<polygon fill="#191970" stroke="#191970" points="95.5437,-273.7275 85.1406,-271.721 92.0218,-279.777 95.5437,-273.7275"/>
</g>
<!-- Node475 -->
<g id="node5" class="node">
<title>Node475</title>
<g id="a_node5"><a xlink:href="structcimg__library__suffixed_1_1_c_img.html#ad9b7141242d0b6e861a8014112ddb5b5" target="_top" xlink:title="cimg_library_suffixed\l::CImg\&lt; charT \&gt;::_select">
<polygon fill="#ffffff" stroke="#000000" points="173,-269.5 173,-299.5 300,-299.5 300,-269.5 173,-269.5"/>
<text text-anchor="start" x="181" y="-287.5" font-family="Helvetica,sans-Serif" font-size="10.00" fill="#000000">cimg_library_suffixed</text>
<text text-anchor="middle" x="236.5" y="-276.5" font-family="Helvetica,sans-Serif" font-size="10.00" fill="#000000">::CImg&lt; charT &gt;::_select</text>
</a>
</g>
</g>
<!-- Node471&#45;&gt;Node475 -->
<g id="edge4" class="edge">
<title>Node471&#45;&gt;Node475</title>
<path fill="none" stroke="#191970" d="M130.35,-267.6603C144.4071,-269.8904 159.0968,-272.2207 172.91,-274.4121"/>
<polygon fill="#191970" stroke="#191970" points="130.6725,-264.1678 120.2476,-266.0577 129.5757,-271.0814 130.6725,-264.1678"/>
</g>
<!-- Node476 -->
<g id="node6" class="node">
<title>Node476</title>
<g id="a_node6"><a xlink:href="structcimg__library__suffixed_1_1_c_img_list.html#af8a6b01f20b2d459e5abe6b99836ea9a" target="_top" xlink:title="cimg_library_suffixed\l::CImgList\&lt; charT \&gt;::\l_select">
<polygon fill="#ffffff" stroke="#000000" points="181,-209 181,-250 292,-250 292,-209 181,-209"/>
<text text-anchor="start" x="189" y="-238" font-family="Helvetica,sans-Serif" font-size="10.00" fill="#000000">cimg_library_suffixed</text>
<text text-anchor="start" x="189" y="-227" font-family="Helvetica,sans-Serif" font-size="10.00" fill="#000000">::CImgList&lt; charT &gt;::</text>
<text text-anchor="middle" x="236.5" y="-216" font-family="Helvetica,sans-Serif" font-size="10.00" fill="#000000">_select</text>
</a>
</g>
</g>
<!-- Node471&#45;&gt;Node476 -->
<g id="edge5" class="edge">
<title>Node471&#45;&gt;Node476</title>
<path fill="none" stroke="#191970" d="M130.5524,-245.7073C147.3237,-243.1417 164.9844,-240.4401 180.975,-237.9939"/>
<polygon fill="#191970" stroke="#191970" points="129.6034,-242.3117 120.2476,-247.2836 130.6619,-249.2312 129.6034,-242.3117"/>
</g>
<!-- Node477 -->
<g id="node7" class="node">
<title>Node477</title>
<g id="a_node7"><a xlink:href="namespacecimg__library__suffixed_1_1cimg.html#a11aed0e6b30d75bf50946ee78d1aed94" target="_top" xlink:title="Display a simple dialog box, and wait for the user&#39;s response. ">
<polygon fill="#ffffff" stroke="#000000" points="182,-159.5 182,-189.5 291,-189.5 291,-159.5 182,-159.5"/>
<text text-anchor="start" x="190" y="-177.5" font-family="Helvetica,sans-Serif" font-size="10.00" fill="#000000">cimg_library_suffixed</text>
<text text-anchor="middle" x="236.5" y="-166.5" font-family="Helvetica,sans-Serif" font-size="10.00" fill="#000000">::cimg::dialog</text>
</a>
</g>
</g>
<!-- Node471&#45;&gt;Node477 -->
<g id="edge6" class="edge">
<title>Node471&#45;&gt;Node477</title>
<path fill="none" stroke="#191970" d="M90.6093,-235.8102C108.9905,-224.0339 133.1699,-209.6533 156,-199.5 164.1566,-195.8725 172.9966,-192.5543 181.7314,-189.604"/>
<polygon fill="#191970" stroke="#191970" points="88.56,-232.9677 82.0828,-241.3521 92.3748,-238.8369 88.56,-232.9677"/>
</g>
<!-- Node478 -->
<g id="node8" class="node">
<title>Node478</title>
<g id="a_node8"><a xlink:href="structcimg__library__suffixed_1_1_c_img.html#a689f47424dc7c548ebfe53e431409199" target="_top" xlink:title="Select sub&#45;graph in a graph. ">
<polygon fill="#ffffff" stroke="#000000" points="182,-99 182,-140 291,-140 291,-99 182,-99"/>
<text text-anchor="start" x="190" y="-128" font-family="Helvetica,sans-Serif" font-size="10.00" fill="#000000">cimg_library_suffixed</text>
<text text-anchor="start" x="190" y="-117" font-family="Helvetica,sans-Serif" font-size="10.00" fill="#000000">::CImg&lt; charT &gt;::get</text>
<text text-anchor="middle" x="236.5" y="-106" font-family="Helvetica,sans-Serif" font-size="10.00" fill="#000000">_select_graph</text>
</a>
</g>
</g>
<!-- Node471&#45;&gt;Node478 -->
<g id="edge7" class="edge">
<title>Node471&#45;&gt;Node478</title>
<path fill="none" stroke="#191970" d="M76.1069,-233.052C93.4243,-209.3789 122.9578,-173.1649 156,-150.5 163.904,-145.0784 172.8872,-140.43 181.9161,-136.5072"/>
<polygon fill="#191970" stroke="#191970" points="73.0645,-231.289 70.0862,-241.4566 78.7551,-235.3655 73.0645,-231.289"/>
</g>
<!-- Node479 -->
<g id="node9" class="node">
<title>Node479</title>
<g id="a_node9"><a xlink:href="structcimg__library__suffixed_1_1_c_img_display.html#a914ee0515249db301dc66275861a6b3e" target="_top" xlink:title="Take a snapshot of the associated window content. ">
<polygon fill="#ffffff" stroke="#000000" points="174,-49.5 174,-79.5 299,-79.5 299,-49.5 174,-49.5"/>
<text text-anchor="start" x="182" y="-67.5" font-family="Helvetica,sans-Serif" font-size="10.00" fill="#000000">cimg_library_suffixed</text>
<text text-anchor="middle" x="236.5" y="-56.5" font-family="Helvetica,sans-Serif" font-size="10.00" fill="#000000">::CImgDisplay::snapshot</text>
</a>
</g>
</g>
<!-- Node471&#45;&gt;Node479 -->
<g id="edge8" class="edge">
<title>Node471&#45;&gt;Node479</title>
<path fill="none" stroke="#191970" d="M67.8897,-231.1593C80.5713,-194.5573 108.9532,-127.1648 156,-89.5 161.3693,-85.2014 167.4805,-81.6386 173.8801,-78.6862"/>
<polygon fill="#191970" stroke="#191970" points="64.4378,-230.4465 64.5904,-241.0403 71.0775,-232.6636 64.4378,-230.4465"/>
</g>
<!-- Node480 -->
<g id="node10" class="node">
<title>Node480</title>
<g id="a_node10"><a xlink:href="structcimg__library__suffixed_1_1_c_img.html#a015159d8cee61c2f2316c3e128470a71" target="_top" xlink:title="Construct image from a display window. ">
<polygon fill="#ffffff" stroke="#000000" points="362,-98.5 362,-128.5 481,-128.5 481,-98.5 362,-98.5"/>
<text text-anchor="start" x="370" y="-116.5" font-family="Helvetica,sans-Serif" font-size="10.00" fill="#000000">cimg_library_suffixed</text>
<text text-anchor="middle" x="421.5" y="-105.5" font-family="Helvetica,sans-Serif" font-size="10.00" fill="#000000">::CImg&lt; charT &gt;::CImg</text>
</a>
</g>
</g>
<!-- Node479&#45;&gt;Node480 -->
<g id="edge9" class="edge">
<title>Node479&#45;&gt;Node480</title>
<path fill="none" stroke="#191970" d="M303.0354,-82.1229C323.2752,-87.4837 345.3198,-93.3225 364.844,-98.4938"/>
<polygon fill="#191970" stroke="#191970" points="303.8262,-78.7117 293.2633,-79.5346 302.0339,-85.4784 303.8262,-78.7117"/>
</g>
<!-- Node481 -->
<g id="node11" class="node">
<title>Node481</title>
<g id="a_node11"><a xlink:href="structcimg__library__suffixed_1_1_c_img.html#a668fe887682e7cbb469409842bb98cd2" target="_top" xlink:title="Construct image from a display window . ">
<polygon fill="#ffffff" stroke="#000000" points="359.5,-49.5 359.5,-79.5 483.5,-79.5 483.5,-49.5 359.5,-49.5"/>
<text text-anchor="start" x="367.5" y="-67.5" font-family="Helvetica,sans-Serif" font-size="10.00" fill="#000000">cimg_library_suffixed</text>
<text text-anchor="middle" x="421.5" y="-56.5" font-family="Helvetica,sans-Serif" font-size="10.00" fill="#000000">::CImg&lt; charT &gt;::assign</text>
</a>
</g>
</g>
<!-- Node479&#45;&gt;Node481 -->
<g id="edge10" class="edge">
<title>Node479&#45;&gt;Node481</title>
<path fill="none" stroke="#191970" d="M309.2856,-64.5C325.8069,-64.5 343.2081,-64.5 359.2462,-64.5"/>
<polygon fill="#191970" stroke="#191970" points="309.1326,-61.0001 299.1326,-64.5 309.1325,-68.0001 309.1326,-61.0001"/>
</g>
<!-- Node482 -->
<g id="node12" class="node">
<title>Node482</title>
<g id="a_node12"><a xlink:href="structcimg__library__suffixed_1_1_c_img.html#a75e18966d8e02a9cee85642038e30a08" target="_top" xlink:title="Copy the content of a display window to the current image instance. ">
<polygon fill="#ffffff" stroke="#000000" points="353,-.5 353,-30.5 490,-30.5 490,-.5 353,-.5"/>
<text text-anchor="start" x="361" y="-18.5" font-family="Helvetica,sans-Serif" font-size="10.00" fill="#000000">cimg_library_suffixed</text>
<text text-anchor="middle" x="421.5" y="-7.5" font-family="Helvetica,sans-Serif" font-size="10.00" fill="#000000">::CImg&lt; charT &gt;::operator=</text>
</a>
</g>
</g>
<!-- Node479&#45;&gt;Node482 -->
<g id="edge11" class="edge">
<title>Node479&#45;&gt;Node482</title>
<path fill="none" stroke="#191970" d="M303.0354,-46.8771C323.2752,-41.5163 345.3198,-35.6775 364.844,-30.5062"/>
<polygon fill="#191970" stroke="#191970" points="302.0339,-43.5216 293.2633,-49.4654 303.8262,-50.2883 302.0339,-43.5216"/>
</g>
</g>
</svg>
