<?xml version="1.0" encoding="UTF-8" standalone="no"?>
<!DOCTYPE svg PUBLIC "-//W3C//DTD SVG 1.1//EN"
 "http://www.w3.org/Graphics/SVG/1.1/DTD/svg11.dtd">
<!-- Generated by graphviz version 2.40.1 (20161225.0304)
 -->
<!-- Title: cimg_library_suffixed::CImg::_priority_queue_remove Pages: 1 -->
<svg width="303pt" height="160pt"
 viewBox="0.00 0.00 303.00 159.50" xmlns="http://www.w3.org/2000/svg" xmlns:xlink="http://www.w3.org/1999/xlink">
<g id="graph0" class="graph" transform="scale(1 1) rotate(0) translate(4 155.5)">
<title>cimg_library_suffixed::CImg::_priority_queue_remove</title>
<polygon fill="#ffffff" stroke="transparent" points="-4,4 -4,-155.5 299,-155.5 299,4 -4,4"/>
<!-- Node267 -->
<g id="node1" class="node">
<title>Node267</title>
<polygon fill="#bfbfbf" stroke="#000000" points="0,-50 0,-91 119,-91 119,-50 0,-50"/>
<text text-anchor="start" x="8" y="-79" font-family="Helvetica,sans-Serif" font-size="10.00" fill="#000000">cimg_library_suffixed</text>
<text text-anchor="start" x="8" y="-68" font-family="Helvetica,sans-Serif" font-size="10.00" fill="#000000">::CImg::_priority_queue</text>
<text text-anchor="middle" x="59.5" y="-57" font-family="Helvetica,sans-Serif" font-size="10.00" fill="#000000">_remove</text>
</g>
<!-- Node268 -->
<g id="node2" class="node">
<title>Node268</title>
<g id="a_node2"><a xlink:href="structcimg__library__suffixed_1_1_c_img.html#ab461b8b649f269f33f4eedba90d1a84e" target="_top" xlink:title="Compute distance map to a specified value, according to a custom metric (use dijkstra algorithm) ...">
<polygon fill="#ffffff" stroke="#000000" points="170.5,-110 170.5,-151 279.5,-151 279.5,-110 170.5,-110"/>
<text text-anchor="start" x="178.5" y="-139" font-family="Helvetica,sans-Serif" font-size="10.00" fill="#000000">cimg_library_suffixed</text>
<text text-anchor="start" x="178.5" y="-128" font-family="Helvetica,sans-Serif" font-size="10.00" fill="#000000">::CImg&lt; charT &gt;::get</text>
<text text-anchor="middle" x="225" y="-117" font-family="Helvetica,sans-Serif" font-size="10.00" fill="#000000">_distance_dijkstra</text>
</a>
</g>
</g>
<!-- Node267&#45;&gt;Node268 -->
<g id="edge1" class="edge">
<title>Node267&#45;&gt;Node268</title>
<path fill="none" stroke="#191970" d="M126.0258,-94.6181C140.7774,-99.9661 156.245,-105.5737 170.4526,-110.7245"/>
<polygon fill="#191970" stroke="#191970" points="127.0499,-91.2665 116.4557,-91.1486 124.664,-97.8474 127.0499,-91.2665"/>
</g>
<!-- Node269 -->
<g id="node3" class="node">
<title>Node269</title>
<g id="a_node3"><a xlink:href="structcimg__library__suffixed_1_1_c_img.html#a2b1addf2e74607a44640f82f88916d37" target="_top" xlink:title="Compute distance map to one source point, according to a custom metric (use fast marching algorithm)...">
<polygon fill="#ffffff" stroke="#000000" points="170.5,-50 170.5,-91 279.5,-91 279.5,-50 170.5,-50"/>
<text text-anchor="start" x="178.5" y="-79" font-family="Helvetica,sans-Serif" font-size="10.00" fill="#000000">cimg_library_suffixed</text>
<text text-anchor="start" x="178.5" y="-68" font-family="Helvetica,sans-Serif" font-size="10.00" fill="#000000">::CImg&lt; charT &gt;::get</text>
<text text-anchor="middle" x="225" y="-57" font-family="Helvetica,sans-Serif" font-size="10.00" fill="#000000">_distance_eikonal</text>
</a>
</g>
</g>
<!-- Node267&#45;&gt;Node269 -->
<g id="edge2" class="edge">
<title>Node267&#45;&gt;Node269</title>
<path fill="none" stroke="#191970" d="M129.5473,-70.5C143.1667,-70.5 157.2564,-70.5 170.293,-70.5"/>
<polygon fill="#191970" stroke="#191970" points="129.2493,-67.0001 119.2493,-70.5 129.2493,-74.0001 129.2493,-67.0001"/>
</g>
<!-- Node270 -->
<g id="node4" class="node">
<title>Node270</title>
<g id="a_node4"><a xlink:href="structcimg__library__suffixed_1_1_c_img.html#a6c93c9f308c168756831884f1aa829af" target="_top" xlink:title="Compute watershed transform. ">
<polygon fill="#ffffff" stroke="#000000" points="155,-.5 155,-30.5 295,-30.5 295,-.5 155,-.5"/>
<text text-anchor="start" x="163" y="-18.5" font-family="Helvetica,sans-Serif" font-size="10.00" fill="#000000">cimg_library_suffixed</text>
<text text-anchor="middle" x="225" y="-7.5" font-family="Helvetica,sans-Serif" font-size="10.00" fill="#000000">::CImg&lt; charT &gt;::watershed</text>
</a>
</g>
</g>
<!-- Node267&#45;&gt;Node270 -->
<g id="edge3" class="edge">
<title>Node267&#45;&gt;Node270</title>
<path fill="none" stroke="#191970" d="M129.1802,-47.3434C146.2346,-41.6758 164.0488,-35.7557 179.6259,-30.579"/>
<polygon fill="#191970" stroke="#191970" points="127.6352,-44.1686 119.2493,-50.6437 129.8428,-50.8114 127.6352,-44.1686"/>
</g>
</g>
</svg>
