<?xml version="1.0" encoding="UTF-8" standalone="no"?>
<!DOCTYPE svg PUBLIC "-//W3C//DTD SVG 1.1//EN"
 "http://www.w3.org/Graphics/SVG/1.1/DTD/svg11.dtd">
<!-- Generated by graphviz version 2.40.1 (20161225.0304)
 -->
<!-- Title: cimg_library_suffixed::CImg::empty Pages: 1 -->
<svg width="284pt" height="50pt"
 viewBox="0.00 0.00 284.00 50.00" xmlns="http://www.w3.org/2000/svg" xmlns:xlink="http://www.w3.org/1999/xlink">
<g id="graph0" class="graph" transform="scale(1 1) rotate(0) translate(4 46)">
<title>cimg_library_suffixed::CImg::empty</title>
<polygon fill="#ffffff" stroke="transparent" points="-4,4 -4,-46 280,-46 280,4 -4,4"/>
<!-- Node1151 -->
<g id="node1" class="node">
<title>Node1151</title>
<polygon fill="#bfbfbf" stroke="#000000" points="0,-6 0,-36 109,-36 109,-6 0,-6"/>
<text text-anchor="start" x="8" y="-24" font-family="Helvetica,sans-Serif" font-size="10.00" fill="#000000">cimg_library_suffixed</text>
<text text-anchor="middle" x="54.5" y="-13" font-family="Helvetica,sans-Serif" font-size="10.00" fill="#000000">::CImg::empty</text>
</g>
<!-- Node1152 -->
<g id="node2" class="node">
<title>Node1152</title>
<g id="a_node2"><a xlink:href="structcimg__library__suffixed_1_1_c_img.html#a8b40db5a9818c3f961a90840b271de6c" target="_top" xlink:title="cimg_library_suffixed\l::CImg\&lt; charT \&gt;::_display\l_object3d">
<polygon fill="#ffffff" stroke="#000000" points="145,-.5 145,-41.5 276,-41.5 276,-.5 145,-.5"/>
<text text-anchor="start" x="153" y="-29.5" font-family="Helvetica,sans-Serif" font-size="10.00" fill="#000000">cimg_library_suffixed</text>
<text text-anchor="start" x="153" y="-18.5" font-family="Helvetica,sans-Serif" font-size="10.00" fill="#000000">::CImg&lt; charT &gt;::_display</text>
<text text-anchor="middle" x="210.5" y="-7.5" font-family="Helvetica,sans-Serif" font-size="10.00" fill="#000000">_object3d</text>
</a>
</g>
</g>
<!-- Node1151&#45;&gt;Node1152 -->
<g id="edge1" class="edge">
<title>Node1151&#45;&gt;Node1152</title>
<path fill="none" stroke="#191970" d="M119.2818,-21C127.7713,-21 136.476,-21 144.9777,-21"/>
<polygon fill="#191970" stroke="#191970" points="119.0613,-17.5001 109.0612,-21 119.0612,-24.5001 119.0613,-17.5001"/>
</g>
</g>
</svg>
