<?xml version="1.0" encoding="UTF-8" standalone="no"?>
<!DOCTYPE svg PUBLIC "-//W3C//DTD SVG 1.1//EN"
 "http://www.w3.org/Graphics/SVG/1.1/DTD/svg11.dtd">
<!-- Generated by graphviz version 2.40.1 (20161225.0304)
 -->
<!-- Title: cimg_library_suffixed::CImg::_cimg_math_parser::mp_display_memory Pages: 1 -->
<!--zoomable 246 -->
<svg id="main" version="1.1" xmlns="http://www.w3.org/2000/svg" xmlns:xlink="http://www.w3.org/1999/xlink" xml:space="preserve" onload="init(evt)">
<style type="text/css"><![CDATA[
.edge:hover path { stroke: red; }
.edge:hover polygon { stroke: red; fill: red; }
]]></style>
<script type="text/javascript"><![CDATA[
var edges = document.getElementsByTagName('g');
if (edges && edges.length) {
  for (var i=0;i<edges.length;i++) {
    if (edges[i].id.substr(0,4)=='edge') {
      edges[i].setAttribute('class','edge');
    }
  }
}
]]></script>
        <defs>
                <circle id="rim" cx="0" cy="0" r="7"/>
                <circle id="rim2" cx="0" cy="0" r="3.5"/>
                <g id="zoomPlus">
                        <use xlink:href="#rim" fill="#404040">
                                <set attributeName="fill" to="#808080" begin="zoomplus.mouseover" end="zoomplus.mouseout"/>
                        </use>
                        <path d="M-4,0h8M0,-4v8" fill="none" stroke="white" stroke-width="1.5" pointer-events="none"/>
                </g>
                <g id="zoomMin">
                        <use xlink:href="#rim" fill="#404040">
                                <set attributeName="fill" to="#808080" begin="zoomminus.mouseover" end="zoomminus.mouseout"/>
                        </use>
                        <path d="M-4,0h8" fill="none" stroke="white" stroke-width="1.5" pointer-events="none"/>
                </g>
                <g id="dirArrow">
                        <path fill="none" stroke="white" stroke-width="1.5" d="M0,-3.0v7 M-2.5,-0.5L0,-3.0L2.5,-0.5"/>
                </g>
               <g id="resetDef">
                       <use xlink:href="#rim2" fill="#404040">
                               <set attributeName="fill" to="#808080" begin="reset.mouseover" end="reset.mouseout"/>
                       </use>
               </g>
        </defs>

<script type="text/javascript">
var viewWidth = 1504;
var viewHeight = 246;
var sectionId = 'dynsection-36';
</script>
<script xlink:href="svgpan.js"/>
<svg id="graph" class="graph">
<g id="viewport">
<title>cimg_library_suffixed::CImg::_cimg_math_parser::mp_display_memory</title>
<polygon fill="#ffffff" stroke="transparent" points="-4,4 -4,-241.5 1500,-241.5 1500,4 -4,4"/>
<!-- Node355 -->
<g id="node1" class="node">
<title>Node355</title>
<polygon fill="#bfbfbf" stroke="#000000" points="0,-96.5 0,-137.5 138,-137.5 138,-96.5 0,-96.5"/>
<text text-anchor="start" x="8" y="-125.5" font-family="Helvetica,sans-Serif" font-size="10.00" fill="#000000">cimg_library_suffixed</text>
<text text-anchor="start" x="8" y="-114.5" font-family="Helvetica,sans-Serif" font-size="10.00" fill="#000000">::CImg::_cimg_math_parser</text>
<text text-anchor="middle" x="69" y="-103.5" font-family="Helvetica,sans-Serif" font-size="10.00" fill="#000000">::mp_display_memory</text>
</g>
<!-- Node356 -->
<g id="node2" class="node">
<title>Node356</title>
<g id="a_node2"><a xlink:href="structcimg__library__suffixed_1_1_c_img.html#a33594316b522954b5388986c9b15a52a" target="_top" xlink:title="Display image into a CImgDisplay window. ">
<polygon fill="#ffffff" stroke="#000000" points="174,-151 174,-181 283,-181 283,-151 174,-151"/>
<text text-anchor="start" x="182" y="-169" font-family="Helvetica,sans-Serif" font-size="10.00" fill="#000000">cimg_library_suffixed</text>
<text text-anchor="middle" x="228.5" y="-158" font-family="Helvetica,sans-Serif" font-size="10.00" fill="#000000">::CImg::display</text>
</a>
</g>
</g>
<!-- Node355&#45;&gt;Node356 -->
<g id="edge1" class="edge">
<title>Node355&#45;&gt;Node356</title>
<path fill="none" stroke="#191970" d="M136.1801,-137.6384C147.2612,-141.0426 158.6745,-144.5489 169.5349,-147.8853"/>
<polygon fill="#191970" stroke="#191970" points="168.741,-151.3028 179.328,-150.8939 170.7967,-144.6115 168.741,-151.3028"/>
</g>
<!-- Node357 -->
<g id="node3" class="node">
<title>Node357</title>
<g id="a_node3"><a xlink:href="namespacecimg__library__suffixed_1_1cimg.html#ada686776cc71803df391eea79cd1b3e5" target="_top" xlink:title="Get/set default output stream for the &#160;library messages. ">
<polygon fill="#ffffff" stroke="#000000" points="174,-102 174,-132 283,-132 283,-102 174,-102"/>
<text text-anchor="start" x="182" y="-120" font-family="Helvetica,sans-Serif" font-size="10.00" fill="#000000">cimg_library_suffixed</text>
<text text-anchor="middle" x="228.5" y="-109" font-family="Helvetica,sans-Serif" font-size="10.00" fill="#000000">::cimg::output</text>
</a>
</g>
</g>
<!-- Node355&#45;&gt;Node357 -->
<g id="edge2" class="edge">
<title>Node355&#45;&gt;Node357</title>
<path fill="none" stroke="#191970" d="M138.0314,-117C146.5309,-117 155.1959,-117 163.6306,-117"/>
<polygon fill="#191970" stroke="#191970" points="163.7783,-120.5001 173.7783,-117 163.7782,-113.5001 163.7783,-120.5001"/>
</g>
<!-- Node364 -->
<g id="node10" class="node">
<title>Node364</title>
<g id="a_node10"><a xlink:href="namespacecimg__library__suffixed_1_1cimg.html#a79aef0cbcf66ceb71c2b74cb66b4deb2" target="_top" xlink:title="Avoid warning messages due to unused parameters. Do nothing actually. ">
<polygon fill="#ffffff" stroke="#000000" points="928,-67 928,-97 1037,-97 1037,-67 928,-67"/>
<text text-anchor="start" x="936" y="-85" font-family="Helvetica,sans-Serif" font-size="10.00" fill="#000000">cimg_library_suffixed</text>
<text text-anchor="middle" x="982.5" y="-74" font-family="Helvetica,sans-Serif" font-size="10.00" fill="#000000">::cimg::unused</text>
</a>
</g>
</g>
<!-- Node355&#45;&gt;Node364 -->
<g id="edge22" class="edge">
<title>Node355&#45;&gt;Node364</title>
<path fill="none" stroke="#191970" d="M99.9294,-96.3521C153.3272,-62.7637 267.3137,0 373.5,0 373.5,0 373.5,0 684,0 778.3992,0 801.9682,-14.6188 892,-43 908.8907,-48.3246 926.9189,-55.7198 942.4029,-62.6405"/>
<polygon fill="#191970" stroke="#191970" points="941.1308,-65.9069 951.6822,-66.8655 944.0316,-59.5362 941.1308,-65.9069"/>
</g>
<!-- Node358 -->
<g id="node4" class="node">
<title>Node358</title>
<g id="a_node4"><a xlink:href="namespacecimg__library__suffixed_1_1cimg.html#a9e739e4b4ac058abfba069466617b914" target="_top" xlink:title="cimg_library_suffixed\l::cimg::mutex">
<polygon fill="#ffffff" stroke="#000000" points="1073,-160 1073,-190 1182,-190 1182,-160 1073,-160"/>
<text text-anchor="start" x="1081" y="-178" font-family="Helvetica,sans-Serif" font-size="10.00" fill="#000000">cimg_library_suffixed</text>
<text text-anchor="middle" x="1127.5" y="-167" font-family="Helvetica,sans-Serif" font-size="10.00" fill="#000000">::cimg::mutex</text>
</a>
</g>
</g>
<!-- Node357&#45;&gt;Node358 -->
<g id="edge3" class="edge">
<title>Node357&#45;&gt;Node358</title>
<path fill="none" stroke="#191970" d="M265.2879,-132.1056C332.4344,-159.1405 472.7045,-213 524.5,-213 524.5,-213 524.5,-213 837.5,-213 915.6212,-213 1004.5842,-199.2755 1063.1426,-188.3227"/>
<polygon fill="#191970" stroke="#191970" points="1063.8206,-191.7565 1072.9924,-186.4528 1062.515,-184.8794 1063.8206,-191.7565"/>
</g>
<!-- Node363 -->
<g id="node9" class="node">
<title>Node363</title>
<g id="a_node9"><a xlink:href="namespacecimg__library__suffixed_1_1cimg.html#aab8db7528c32a8fd3a3dc471e662782e" target="_top" xlink:title="cimg_library_suffixed\l::cimg::_stderr">
<polygon fill="#ffffff" stroke="#000000" points="319,-102 319,-132 428,-132 428,-102 319,-102"/>
<text text-anchor="start" x="327" y="-120" font-family="Helvetica,sans-Serif" font-size="10.00" fill="#000000">cimg_library_suffixed</text>
<text text-anchor="middle" x="373.5" y="-109" font-family="Helvetica,sans-Serif" font-size="10.00" fill="#000000">::cimg::_stderr</text>
</a>
</g>
</g>
<!-- Node357&#45;&gt;Node363 -->
<g id="edge9" class="edge">
<title>Node357&#45;&gt;Node363</title>
<path fill="none" stroke="#191970" d="M283.3183,-117C291.5286,-117 300.0611,-117 308.4586,-117"/>
<polygon fill="#191970" stroke="#191970" points="308.6042,-120.5001 318.6042,-117 308.6042,-113.5001 308.6042,-120.5001"/>
</g>
<!-- Node359 -->
<g id="node5" class="node">
<title>Node359</title>
<g id="a_node5"><a xlink:href="namespacecimg__library__suffixed_1_1cimg.html#aa0e1bc96ae6e235dc5b67b8b0a466166" target="_top" xlink:title="cimg_library_suffixed\l::cimg::Mutex_attr">
<polygon fill="#ffffff" stroke="#000000" points="1387,-207 1387,-237 1496,-237 1496,-207 1387,-207"/>
<text text-anchor="start" x="1395" y="-225" font-family="Helvetica,sans-Serif" font-size="10.00" fill="#000000">cimg_library_suffixed</text>
<text text-anchor="middle" x="1441.5" y="-214" font-family="Helvetica,sans-Serif" font-size="10.00" fill="#000000">::cimg::Mutex_attr</text>
</a>
</g>
</g>
<!-- Node358&#45;&gt;Node359 -->
<g id="edge4" class="edge">
<title>Node358&#45;&gt;Node359</title>
<path fill="none" stroke="#191970" d="M1147.7886,-190.16C1165.338,-202.266 1191.9275,-218.2766 1218,-225 1270.2267,-238.4679 1331.6233,-236.4274 1376.8381,-231.7484"/>
<polygon fill="#191970" stroke="#191970" points="1377.253,-235.224 1386.8082,-230.6471 1376.4844,-228.2663 1377.253,-235.224"/>
</g>
<!-- Node360 -->
<g id="node6" class="node">
<title>Node360</title>
<g id="a_node6"><a xlink:href="structcimg__library__suffixed_1_1cimg_1_1_mutex__info.html#afac3fa5f107ad4795fb867050f616555" target="_top" xlink:title="cimg_library_suffixed\l::cimg::Mutex_info::unlock">
<polygon fill="#ffffff" stroke="#000000" points="1218.5,-136 1218.5,-166 1350.5,-166 1350.5,-136 1218.5,-136"/>
<text text-anchor="start" x="1226.5" y="-154" font-family="Helvetica,sans-Serif" font-size="10.00" fill="#000000">cimg_library_suffixed</text>
<text text-anchor="middle" x="1284.5" y="-143" font-family="Helvetica,sans-Serif" font-size="10.00" fill="#000000">::cimg::Mutex_info::unlock</text>
</a>
</g>
</g>
<!-- Node358&#45;&gt;Node360 -->
<g id="edge5" class="edge">
<title>Node358&#45;&gt;Node360</title>
<path fill="none" stroke="#191970" d="M1182.411,-166.606C1190.7369,-165.3332 1199.453,-164.0008 1208.1344,-162.6737"/>
<polygon fill="#191970" stroke="#191970" points="1208.9278,-166.0932 1218.2841,-161.1222 1207.87,-159.1736 1208.9278,-166.0932"/>
</g>
<!-- Node361 -->
<g id="node7" class="node">
<title>Node361</title>
<g id="a_node7"><a xlink:href="structcimg__library__suffixed_1_1cimg_1_1_mutex__info.html#a6cc8e26847a1aa649febed03d70182e7" target="_top" xlink:title="cimg_library_suffixed\l::cimg::Mutex_info::lock">
<polygon fill="#ffffff" stroke="#000000" points="1223.5,-87 1223.5,-117 1345.5,-117 1345.5,-87 1223.5,-87"/>
<text text-anchor="start" x="1231.5" y="-105" font-family="Helvetica,sans-Serif" font-size="10.00" fill="#000000">cimg_library_suffixed</text>
<text text-anchor="middle" x="1284.5" y="-94" font-family="Helvetica,sans-Serif" font-size="10.00" fill="#000000">::cimg::Mutex_info::lock</text>
</a>
</g>
</g>
<!-- Node358&#45;&gt;Node361 -->
<g id="edge6" class="edge">
<title>Node358&#45;&gt;Node361</title>
<path fill="none" stroke="#191970" d="M1153.9788,-159.8011C1171.7871,-149.8682 1195.9505,-136.9428 1218,-127 1222.6591,-124.8991 1227.5523,-122.8232 1232.4816,-120.8195"/>
<polygon fill="#191970" stroke="#191970" points="1233.9456,-124.0042 1241.9536,-117.0672 1231.3675,-117.4963 1233.9456,-124.0042"/>
</g>
<!-- Node362 -->
<g id="node8" class="node">
<title>Node362</title>
<g id="a_node8"><a xlink:href="structcimg__library__suffixed_1_1cimg_1_1_mutex__info.html#a9bf4ed1e1dfe6f28fa6250cd04f3c900" target="_top" xlink:title="cimg_library_suffixed\l::cimg::Mutex_info::trylock">
<polygon fill="#ffffff" stroke="#000000" points="1218,-185 1218,-215 1351,-215 1351,-185 1218,-185"/>
<text text-anchor="start" x="1226" y="-203" font-family="Helvetica,sans-Serif" font-size="10.00" fill="#000000">cimg_library_suffixed</text>
<text text-anchor="middle" x="1284.5" y="-192" font-family="Helvetica,sans-Serif" font-size="10.00" fill="#000000">::cimg::Mutex_info::trylock</text>
</a>
</g>
</g>
<!-- Node358&#45;&gt;Node362 -->
<g id="edge7" class="edge">
<title>Node358&#45;&gt;Node362</title>
<path fill="none" stroke="#191970" d="M1182.411,-183.7438C1190.6098,-185.0493 1199.187,-186.4151 1207.7367,-187.7766"/>
<polygon fill="#191970" stroke="#191970" points="1207.3105,-191.2527 1217.7365,-189.3689 1208.4113,-184.3398 1207.3105,-191.2527"/>
</g>
<!-- Node362&#45;&gt;Node359 -->
<g id="edge8" class="edge">
<title>Node362&#45;&gt;Node359</title>
<path fill="none" stroke="#191970" d="M1351.0821,-209.33C1359.5193,-210.5123 1368.1445,-211.7209 1376.5556,-212.8995"/>
<polygon fill="#191970" stroke="#191970" points="1376.293,-216.3968 1386.682,-214.3185 1377.2645,-209.4646 1376.293,-216.3968"/>
</g>
<!-- Node363&#45;&gt;Node364 -->
<g id="edge10" class="edge">
<title>Node363&#45;&gt;Node364</title>
<path fill="none" stroke="#191970" d="M422.4798,-101.9298C435.8441,-98.241 450.3925,-94.6085 464,-92 651.4441,-56.0672 702.8732,-31.3577 892,-57 903.6184,-58.5753 915.8526,-61.239 927.4392,-64.2551"/>
<polygon fill="#191970" stroke="#191970" points="926.8544,-67.7234 937.423,-66.9779 928.6963,-60.97 926.8544,-67.7234"/>
</g>
<!-- Node365 -->
<g id="node11" class="node">
<title>Node365</title>
<g id="a_node11"><a xlink:href="namespacecimg__library__suffixed_1_1cimg.html#aeafab144366eddd11360f32f468fa4af" target="_top" xlink:title="Set current &#160;exception mode. ">
<polygon fill="#ffffff" stroke="#000000" points="464,-102 464,-132 585,-132 585,-102 464,-102"/>
<text text-anchor="start" x="472" y="-120" font-family="Helvetica,sans-Serif" font-size="10.00" fill="#000000">cimg_library_suffixed</text>
<text text-anchor="middle" x="524.5" y="-109" font-family="Helvetica,sans-Serif" font-size="10.00" fill="#000000">::cimg::exception_mode</text>
</a>
</g>
</g>
<!-- Node363&#45;&gt;Node365 -->
<g id="edge12" class="edge">
<title>Node363&#45;&gt;Node365</title>
<path fill="none" stroke="#191970" d="M428.0145,-117C436.3935,-117 445.1471,-117 453.8158,-117"/>
<polygon fill="#191970" stroke="#191970" points="453.9255,-120.5001 463.9254,-117 453.9254,-113.5001 453.9255,-120.5001"/>
</g>
<!-- Node364&#45;&gt;Node358 -->
<g id="edge11" class="edge">
<title>Node364&#45;&gt;Node358</title>
<path fill="none" stroke="#191970" d="M1006.1195,-97.149C1030.3446,-112.6866 1068.1987,-136.9654 1095.1892,-154.2765"/>
<polygon fill="#191970" stroke="#191970" points="1093.5836,-157.4047 1103.8906,-159.8574 1097.3628,-151.5125 1093.5836,-157.4047"/>
</g>
<!-- Node366 -->
<g id="node12" class="node">
<title>Node366</title>
<g id="a_node12"><a xlink:href="namespacecimg__library__suffixed_1_1cimg.html#a6c578f866de2be9be7e385d693c758c8" target="_top" xlink:title="cimg_library_suffixed\l::cimg::_exception_mode">
<polygon fill="#ffffff" stroke="#000000" points="621,-146 621,-176 747,-176 747,-146 621,-146"/>
<text text-anchor="start" x="629" y="-164" font-family="Helvetica,sans-Serif" font-size="10.00" fill="#000000">cimg_library_suffixed</text>
<text text-anchor="middle" x="684" y="-153" font-family="Helvetica,sans-Serif" font-size="10.00" fill="#000000">::cimg::_exception_mode</text>
</a>
</g>
</g>
<!-- Node365&#45;&gt;Node366 -->
<g id="edge13" class="edge">
<title>Node365&#45;&gt;Node366</title>
<path fill="none" stroke="#191970" d="M578.9447,-132.0192C592.0889,-135.6452 606.2562,-139.5534 619.8009,-143.2899"/>
<polygon fill="#191970" stroke="#191970" points="618.9593,-146.6884 629.53,-145.9738 620.8209,-139.9405 618.9593,-146.6884"/>
</g>
<!-- Node366&#45;&gt;Node358 -->
<g id="edge14" class="edge">
<title>Node366&#45;&gt;Node358</title>
<path fill="none" stroke="#191970" d="M747.0717,-162.991C830.8352,-165.6352 978.0329,-170.2818 1062.6723,-172.9536"/>
<polygon fill="#191970" stroke="#191970" points="1062.5701,-176.452 1072.6756,-173.2694 1062.791,-169.4555 1062.5701,-176.452"/>
</g>
<!-- Node366&#45;&gt;Node363 -->
<g id="edge21" class="edge">
<title>Node366&#45;&gt;Node363</title>
<path fill="none" stroke="#191970" d="M620.5324,-158.6025C576.3655,-156.1835 516.2588,-151.3927 464,-142 453.3137,-140.0793 442.0616,-137.4656 431.2614,-134.6496"/>
<polygon fill="#191970" stroke="#191970" points="432.0654,-131.2414 421.4993,-132.0206 430.2451,-138.0006 432.0654,-131.2414"/>
</g>
<!-- Node367 -->
<g id="node13" class="node">
<title>Node367</title>
<g id="a_node13"><a xlink:href="namespacecimg__library__suffixed_1_1cimg.html#a01a3b743897290604513ea6d847c9886" target="_top" xlink:title="cimg_library_suffixed\l::cimg::_stdin">
<polygon fill="#ffffff" stroke="#000000" points="783,-116 783,-146 892,-146 892,-116 783,-116"/>
<text text-anchor="start" x="791" y="-134" font-family="Helvetica,sans-Serif" font-size="10.00" fill="#000000">cimg_library_suffixed</text>
<text text-anchor="middle" x="837.5" y="-123" font-family="Helvetica,sans-Serif" font-size="10.00" fill="#000000">::cimg::_stdin</text>
</a>
</g>
</g>
<!-- Node366&#45;&gt;Node367 -->
<g id="edge15" class="edge">
<title>Node366&#45;&gt;Node367</title>
<path fill="none" stroke="#191970" d="M747.3205,-148.6246C755.6577,-146.9952 764.2131,-145.3232 772.5765,-143.6886"/>
<polygon fill="#191970" stroke="#191970" points="773.5123,-147.072 782.6553,-141.7188 772.1696,-140.202 773.5123,-147.072"/>
</g>
<!-- Node368 -->
<g id="node14" class="node">
<title>Node368</title>
<g id="a_node14"><a xlink:href="namespacecimg__library__suffixed_1_1cimg.html#a493220746e5df3466568bd7862825008" target="_top" xlink:title="cimg_library_suffixed\l::cimg::_stdout">
<polygon fill="#ffffff" stroke="#000000" points="783,-67 783,-97 892,-97 892,-67 783,-67"/>
<text text-anchor="start" x="791" y="-85" font-family="Helvetica,sans-Serif" font-size="10.00" fill="#000000">cimg_library_suffixed</text>
<text text-anchor="middle" x="837.5" y="-74" font-family="Helvetica,sans-Serif" font-size="10.00" fill="#000000">::cimg::_stdout</text>
</a>
</g>
</g>
<!-- Node366&#45;&gt;Node368 -->
<g id="edge18" class="edge">
<title>Node366&#45;&gt;Node368</title>
<path fill="none" stroke="#191970" d="M710.6262,-145.8242C730.4055,-134.7113 758.1474,-119.4594 783,-107 786.7165,-105.1368 790.5999,-103.2465 794.5075,-101.3829"/>
<polygon fill="#191970" stroke="#191970" points="796.041,-104.5295 803.6024,-97.1082 793.0634,-98.1943 796.041,-104.5295"/>
</g>
<!-- Node367&#45;&gt;Node364 -->
<g id="edge16" class="edge">
<title>Node367&#45;&gt;Node364</title>
<path fill="none" stroke="#191970" d="M882.1879,-115.8986C896.659,-111.0083 912.8725,-105.5293 927.9752,-100.4256"/>
<polygon fill="#191970" stroke="#191970" points="929.3569,-103.6532 937.71,-97.1359 927.1158,-97.0217 929.3569,-103.6532"/>
</g>
<!-- Node367&#45;&gt;Node365 -->
<g id="edge17" class="edge">
<title>Node367&#45;&gt;Node365</title>
<path fill="none" stroke="#191970" d="M782.9666,-128.5608C730.8805,-126.2311 652.1092,-122.7078 595.2205,-120.1632"/>
<polygon fill="#191970" stroke="#191970" points="595.3671,-116.6664 585.2207,-119.7159 595.0543,-123.6594 595.3671,-116.6664"/>
</g>
<!-- Node368&#45;&gt;Node364 -->
<g id="edge19" class="edge">
<title>Node368&#45;&gt;Node364</title>
<path fill="none" stroke="#191970" d="M892.3183,-82C900.5286,-82 909.0611,-82 917.4586,-82"/>
<polygon fill="#191970" stroke="#191970" points="917.6042,-85.5001 927.6042,-82 917.6042,-78.5001 917.6042,-85.5001"/>
</g>
<!-- Node368&#45;&gt;Node365 -->
<g id="edge20" class="edge">
<title>Node368&#45;&gt;Node365</title>
<path fill="none" stroke="#191970" d="M782.9666,-88.098C730.8805,-93.9223 652.1092,-102.7306 595.2205,-109.092"/>
<polygon fill="#191970" stroke="#191970" points="594.7698,-105.6205 585.2207,-110.2101 595.5477,-112.5771 594.7698,-105.6205"/>
</g>
</g>
</svg>
        <g id="navigator" transform="translate(0 0)" fill="#404254">
                <rect fill="#f2f5e9" fill-opacity="0.5" stroke="#606060" stroke-width=".5" x="0" y="0" width="60" height="60"/>
                <use id="zoomplus" xlink:href="#zoomPlus" x="17" y="9" onmousedown="handleZoom(evt,'in')"/>
                <use id="zoomminus" xlink:href="#zoomMin" x="42" y="9" onmousedown="handleZoom(evt,'out')"/>
                <use id="reset" xlink:href="#resetDef" x="30" y="36" onmousedown="handleReset()"/>
                <g id="arrowUp" xlink:href="#dirArrow" transform="translate(30 24)" onmousedown="handlePan(0,-1)">
                  <use xlink:href="#rim" fill="#404040">
                        <set attributeName="fill" to="#808080" begin="arrowUp.mouseover" end="arrowUp.mouseout"/>
                  </use>
                  <path fill="none" stroke="white" stroke-width="1.5" d="M0,-3.0v7 M-2.5,-0.5L0,-3.0L2.5,-0.5"/>
                </g>
                <g id="arrowRight" xlink:href="#dirArrow" transform="rotate(90) translate(36 -43)" onmousedown="handlePan(1,0)">
                  <use xlink:href="#rim" fill="#404040">
                        <set attributeName="fill" to="#808080" begin="arrowRight.mouseover" end="arrowRight.mouseout"/>
                  </use>
                  <path fill="none" stroke="white" stroke-width="1.5" d="M0,-3.0v7 M-2.5,-0.5L0,-3.0L2.5,-0.5"/>
                </g>
                <g id="arrowDown" xlink:href="#dirArrow" transform="rotate(180) translate(-30 -48)" onmousedown="handlePan(0,1)">
                  <use xlink:href="#rim" fill="#404040">
                        <set attributeName="fill" to="#808080" begin="arrowDown.mouseover" end="arrowDown.mouseout"/>
                  </use>
                  <path fill="none" stroke="white" stroke-width="1.5" d="M0,-3.0v7 M-2.5,-0.5L0,-3.0L2.5,-0.5"/>
                </g>
                <g id="arrowLeft" xlink:href="#dirArrow" transform="rotate(270) translate(-36 17)" onmousedown="handlePan(-1,0)">
                  <use xlink:href="#rim" fill="#404040">
                        <set attributeName="fill" to="#808080" begin="arrowLeft.mouseover" end="arrowLeft.mouseout"/>
                  </use>
                  <path fill="none" stroke="white" stroke-width="1.5" d="M0,-3.0v7 M-2.5,-0.5L0,-3.0L2.5,-0.5"/>
                </g>
        </g>
        <svg viewBox="0 0 15 15" width="100%" height="30px" preserveAspectRatio="xMaxYMin meet">
         <g id="arrow_out" transform="scale(0.3 0.3)">
          <a xlink:href="structcimg__library__suffixed_1_1_c_img_1_1__cimg__math__parser_a6d1b924d601f12aafc3733441e165124_cgraph_org.svg" target="_base">
           <rect id="button" ry="5" rx="5" y="6" x="6" height="38" width="38"
                fill="#f2f5e9" fill-opacity="0.5" stroke="#606060" stroke-width="1.0"/>
           <path id="arrow"
             d="M 11.500037,31.436501 C 11.940474,20.09759 22.043105,11.32322 32.158766,21.979434 L 37.068811,17.246167 C 37.068811,17.246167 37.088388,32 37.088388,32 L 22.160133,31.978069 C 22.160133,31.978069 26.997745,27.140456 26.997745,27.140456 C 18.528582,18.264221 13.291696,25.230495 11.500037,31.436501 z"
             style="fill:#404040;"/>
          </a>
         </g>
        </svg>
</svg>
