<?xml version="1.0" encoding="UTF-8" standalone="no"?>
<!DOCTYPE svg PUBLIC "-//W3C//DTD SVG 1.1//EN"
 "http://www.w3.org/Graphics/SVG/1.1/DTD/svg11.dtd">
<!-- Generated by graphviz version 2.40.1 (20161225.0304)
 -->
<!-- Title: cimg_library_suffixed::CImg::_cimg_math_parser::mp_display Pages: 1 -->
<svg width="1504pt" height="284pt"
 viewBox="0.00 0.00 1504.00 284.00" xmlns="http://www.w3.org/2000/svg" xmlns:xlink="http://www.w3.org/1999/xlink">
<g id="graph0" class="graph" transform="scale(1 1) rotate(0) translate(4 280)">
<title>cimg_library_suffixed::CImg::_cimg_math_parser::mp_display</title>
<polygon fill="#ffffff" stroke="transparent" points="-4,4 -4,-280 1500,-280 1500,4 -4,4"/>
<!-- Node336 -->
<g id="node1" class="node">
<title>Node336</title>
<polygon fill="#bfbfbf" stroke="#000000" points="0,-117 0,-158 138,-158 138,-117 0,-117"/>
<text text-anchor="start" x="8" y="-146" font-family="Helvetica,sans-Serif" font-size="10.00" fill="#000000">cimg_library_suffixed</text>
<text text-anchor="start" x="8" y="-135" font-family="Helvetica,sans-Serif" font-size="10.00" fill="#000000">::CImg::_cimg_math_parser</text>
<text text-anchor="middle" x="69" y="-124" font-family="Helvetica,sans-Serif" font-size="10.00" fill="#000000">::mp_display</text>
</g>
<!-- Node337 -->
<g id="node2" class="node">
<title>Node337</title>
<g id="a_node2"><a xlink:href="structcimg__library__suffixed_1_1_c_img.html#a82cf529dfcb37cbd01ad7f9bd76795d7" target="_top" xlink:title="Construct empty image . ">
<polygon fill="#ffffff" stroke="#000000" points="174,-245.5 174,-275.5 283,-275.5 283,-245.5 174,-245.5"/>
<text text-anchor="start" x="182" y="-263.5" font-family="Helvetica,sans-Serif" font-size="10.00" fill="#000000">cimg_library_suffixed</text>
<text text-anchor="middle" x="228.5" y="-252.5" font-family="Helvetica,sans-Serif" font-size="10.00" fill="#000000">::CImg::assign</text>
</a>
</g>
</g>
<!-- Node336&#45;&gt;Node337 -->
<g id="edge1" class="edge">
<title>Node336&#45;&gt;Node337</title>
<path fill="none" stroke="#191970" d="M87.027,-158.2695C106.7009,-179.9697 139.9617,-213.9353 174,-236.5 176.1489,-237.9245 178.3963,-239.2993 180.7026,-240.6204"/>
<polygon fill="#191970" stroke="#191970" points="179.3312,-243.8547 189.8064,-245.4422 182.6076,-237.6687 179.3312,-243.8547"/>
</g>
<!-- Node338 -->
<g id="node3" class="node">
<title>Node338</title>
<g id="a_node3"><a xlink:href="structcimg__library__suffixed_1_1_c_img.html#a33594316b522954b5388986c9b15a52a" target="_top" xlink:title="Display image into a CImgDisplay window. ">
<polygon fill="#ffffff" stroke="#000000" points="174,-196.5 174,-226.5 283,-226.5 283,-196.5 174,-196.5"/>
<text text-anchor="start" x="182" y="-214.5" font-family="Helvetica,sans-Serif" font-size="10.00" fill="#000000">cimg_library_suffixed</text>
<text text-anchor="middle" x="228.5" y="-203.5" font-family="Helvetica,sans-Serif" font-size="10.00" fill="#000000">::CImg::display</text>
</a>
</g>
</g>
<!-- Node336&#45;&gt;Node338 -->
<g id="edge2" class="edge">
<title>Node336&#45;&gt;Node338</title>
<path fill="none" stroke="#191970" d="M111.5239,-158.1005C130.5718,-167.2374 153.3499,-178.039 174,-187.5 177.3954,-189.0556 180.9178,-190.6501 184.4638,-192.2416"/>
<polygon fill="#191970" stroke="#191970" points="183.2752,-195.5437 193.8339,-196.4182 186.1251,-189.1501 183.2752,-195.5437"/>
</g>
<!-- Node339 -->
<g id="node4" class="node">
<title>Node339</title>
<g id="a_node4"><a xlink:href="namespacecimg__library__suffixed_1_1cimg.html#ada686776cc71803df391eea79cd1b3e5" target="_top" xlink:title="Get/set default output stream for the &#160;library messages. ">
<polygon fill="#ffffff" stroke="#000000" points="174,-147.5 174,-177.5 283,-177.5 283,-147.5 174,-147.5"/>
<text text-anchor="start" x="182" y="-165.5" font-family="Helvetica,sans-Serif" font-size="10.00" fill="#000000">cimg_library_suffixed</text>
<text text-anchor="middle" x="228.5" y="-154.5" font-family="Helvetica,sans-Serif" font-size="10.00" fill="#000000">::cimg::output</text>
</a>
</g>
</g>
<!-- Node336&#45;&gt;Node339 -->
<g id="edge3" class="edge">
<title>Node336&#45;&gt;Node339</title>
<path fill="none" stroke="#191970" d="M138.0314,-148.32C146.5309,-149.6522 155.1959,-151.0103 163.6306,-152.3324"/>
<polygon fill="#191970" stroke="#191970" points="163.3569,-155.8321 173.7783,-153.9229 164.4409,-148.9166 163.3569,-155.8321"/>
</g>
<!-- Node351 -->
<g id="node16" class="node">
<title>Node351</title>
<g id="a_node16"><a xlink:href="structcimg__library__suffixed_1_1_c_img.html#adf42a4d63a14a4199e4703743b217075" target="_top" xlink:title="Resize image to new dimensions. ">
<polygon fill="#ffffff" stroke="#000000" points="174,-98.5 174,-128.5 283,-128.5 283,-98.5 174,-98.5"/>
<text text-anchor="start" x="182" y="-116.5" font-family="Helvetica,sans-Serif" font-size="10.00" fill="#000000">cimg_library_suffixed</text>
<text text-anchor="middle" x="228.5" y="-105.5" font-family="Helvetica,sans-Serif" font-size="10.00" fill="#000000">::CImg::resize</text>
</a>
</g>
</g>
<!-- Node336&#45;&gt;Node351 -->
<g id="edge23" class="edge">
<title>Node336&#45;&gt;Node351</title>
<path fill="none" stroke="#191970" d="M138.0314,-127.1128C146.5309,-125.8339 155.1959,-124.5301 163.6306,-123.2609"/>
<polygon fill="#191970" stroke="#191970" points="164.4104,-126.6831 173.7783,-121.734 163.3688,-119.761 164.4104,-126.6831"/>
</g>
<!-- Node352 -->
<g id="node17" class="node">
<title>Node352</title>
<g id="a_node17"><a xlink:href="namespacecimg__library__suffixed_1_1cimg.html#a69a3a1bbdf0f62474211ea5a398f9e72" target="_top" xlink:title="Ellipsize a string. ">
<polygon fill="#ffffff" stroke="#000000" points="174,-49.5 174,-79.5 283,-79.5 283,-49.5 174,-49.5"/>
<text text-anchor="start" x="182" y="-67.5" font-family="Helvetica,sans-Serif" font-size="10.00" fill="#000000">cimg_library_suffixed</text>
<text text-anchor="middle" x="228.5" y="-56.5" font-family="Helvetica,sans-Serif" font-size="10.00" fill="#000000">::cimg::strellipsize</text>
</a>
</g>
</g>
<!-- Node336&#45;&gt;Node352 -->
<g id="edge24" class="edge">
<title>Node336&#45;&gt;Node352</title>
<path fill="none" stroke="#191970" d="M113.8541,-116.9712C136.5899,-106.5655 164.039,-94.0025 186.3779,-83.7785"/>
<polygon fill="#191970" stroke="#191970" points="187.9739,-86.8972 195.6102,-79.553 185.0607,-80.5322 187.9739,-86.8972"/>
</g>
<!-- Node353 -->
<g id="node18" class="node">
<title>Node353</title>
<g id="a_node18"><a xlink:href="structcimg__library__suffixed_1_1_c_img.html#a1a6afc9cde7f9cdfa0d2711dd39f83b8" target="_top" xlink:title="Return an image containing the ascii codes of the specified string. ">
<polygon fill="#ffffff" stroke="#000000" points="174,-.5 174,-30.5 283,-30.5 283,-.5 174,-.5"/>
<text text-anchor="start" x="182" y="-18.5" font-family="Helvetica,sans-Serif" font-size="10.00" fill="#000000">cimg_library_suffixed</text>
<text text-anchor="middle" x="228.5" y="-7.5" font-family="Helvetica,sans-Serif" font-size="10.00" fill="#000000">::CImg::string</text>
</a>
</g>
</g>
<!-- Node336&#45;&gt;Node353 -->
<g id="edge25" class="edge">
<title>Node336&#45;&gt;Node353</title>
<path fill="none" stroke="#191970" d="M87.0684,-116.9542C106.7769,-95.4848 140.0663,-61.8718 174,-39.5 176.1525,-38.0809 178.4028,-36.7105 180.7114,-35.3929"/>
<polygon fill="#191970" stroke="#191970" points="182.6142,-38.3461 189.8214,-30.5803 179.3444,-32.1567 182.6142,-38.3461"/>
</g>
<!-- Node340 -->
<g id="node5" class="node">
<title>Node340</title>
<g id="a_node5"><a xlink:href="namespacecimg__library__suffixed_1_1cimg.html#a9e739e4b4ac058abfba069466617b914" target="_top" xlink:title="cimg_library_suffixed\l::cimg::mutex">
<polygon fill="#ffffff" stroke="#000000" points="1073,-101.5 1073,-131.5 1182,-131.5 1182,-101.5 1073,-101.5"/>
<text text-anchor="start" x="1081" y="-119.5" font-family="Helvetica,sans-Serif" font-size="10.00" fill="#000000">cimg_library_suffixed</text>
<text text-anchor="middle" x="1127.5" y="-108.5" font-family="Helvetica,sans-Serif" font-size="10.00" fill="#000000">::cimg::mutex</text>
</a>
</g>
</g>
<!-- Node339&#45;&gt;Node340 -->
<g id="edge4" class="edge">
<title>Node339&#45;&gt;Node340</title>
<path fill="none" stroke="#191970" d="M283.1592,-171.3792C342.4342,-180.2255 439.9196,-192.5 524.5,-192.5 524.5,-192.5 524.5,-192.5 837.5,-192.5 927.352,-192.5 1027.8985,-157.9387 1083.8551,-135.4292"/>
<polygon fill="#191970" stroke="#191970" points="1085.5054,-138.536 1093.4401,-131.5152 1082.859,-132.0555 1085.5054,-138.536"/>
</g>
<!-- Node345 -->
<g id="node10" class="node">
<title>Node345</title>
<g id="a_node10"><a xlink:href="namespacecimg__library__suffixed_1_1cimg.html#aab8db7528c32a8fd3a3dc471e662782e" target="_top" xlink:title="cimg_library_suffixed\l::cimg::_stderr">
<polygon fill="#ffffff" stroke="#000000" points="319,-117.5 319,-147.5 428,-147.5 428,-117.5 319,-117.5"/>
<text text-anchor="start" x="327" y="-135.5" font-family="Helvetica,sans-Serif" font-size="10.00" fill="#000000">cimg_library_suffixed</text>
<text text-anchor="middle" x="373.5" y="-124.5" font-family="Helvetica,sans-Serif" font-size="10.00" fill="#000000">::cimg::_stderr</text>
</a>
</g>
</g>
<!-- Node339&#45;&gt;Node345 -->
<g id="edge10" class="edge">
<title>Node339&#45;&gt;Node345</title>
<path fill="none" stroke="#191970" d="M283.3183,-151.1583C291.6188,-149.4409 300.2486,-147.6555 308.7354,-145.8996"/>
<polygon fill="#191970" stroke="#191970" points="309.5207,-149.3113 318.6042,-143.8578 308.1024,-142.4565 309.5207,-149.3113"/>
</g>
<!-- Node341 -->
<g id="node6" class="node">
<title>Node341</title>
<g id="a_node6"><a xlink:href="namespacecimg__library__suffixed_1_1cimg.html#aa0e1bc96ae6e235dc5b67b8b0a466166" target="_top" xlink:title="cimg_library_suffixed\l::cimg::Mutex_attr">
<polygon fill="#ffffff" stroke="#000000" points="1387,-148.5 1387,-178.5 1496,-178.5 1496,-148.5 1387,-148.5"/>
<text text-anchor="start" x="1395" y="-166.5" font-family="Helvetica,sans-Serif" font-size="10.00" fill="#000000">cimg_library_suffixed</text>
<text text-anchor="middle" x="1441.5" y="-155.5" font-family="Helvetica,sans-Serif" font-size="10.00" fill="#000000">::cimg::Mutex_attr</text>
</a>
</g>
</g>
<!-- Node340&#45;&gt;Node341 -->
<g id="edge5" class="edge">
<title>Node340&#45;&gt;Node341</title>
<path fill="none" stroke="#191970" d="M1147.7886,-131.66C1165.338,-143.766 1191.9275,-159.7766 1218,-166.5 1270.2267,-179.9679 1331.6233,-177.9274 1376.8381,-173.2484"/>
<polygon fill="#191970" stroke="#191970" points="1377.253,-176.724 1386.8082,-172.1471 1376.4844,-169.7663 1377.253,-176.724"/>
</g>
<!-- Node342 -->
<g id="node7" class="node">
<title>Node342</title>
<g id="a_node7"><a xlink:href="structcimg__library__suffixed_1_1cimg_1_1_mutex__info.html#afac3fa5f107ad4795fb867050f616555" target="_top" xlink:title="cimg_library_suffixed\l::cimg::Mutex_info::unlock">
<polygon fill="#ffffff" stroke="#000000" points="1218.5,-77.5 1218.5,-107.5 1350.5,-107.5 1350.5,-77.5 1218.5,-77.5"/>
<text text-anchor="start" x="1226.5" y="-95.5" font-family="Helvetica,sans-Serif" font-size="10.00" fill="#000000">cimg_library_suffixed</text>
<text text-anchor="middle" x="1284.5" y="-84.5" font-family="Helvetica,sans-Serif" font-size="10.00" fill="#000000">::cimg::Mutex_info::unlock</text>
</a>
</g>
</g>
<!-- Node340&#45;&gt;Node342 -->
<g id="edge6" class="edge">
<title>Node340&#45;&gt;Node342</title>
<path fill="none" stroke="#191970" d="M1182.411,-108.106C1190.7369,-106.8332 1199.453,-105.5008 1208.1344,-104.1737"/>
<polygon fill="#191970" stroke="#191970" points="1208.9278,-107.5932 1218.2841,-102.6222 1207.87,-100.6736 1208.9278,-107.5932"/>
</g>
<!-- Node343 -->
<g id="node8" class="node">
<title>Node343</title>
<g id="a_node8"><a xlink:href="structcimg__library__suffixed_1_1cimg_1_1_mutex__info.html#a6cc8e26847a1aa649febed03d70182e7" target="_top" xlink:title="cimg_library_suffixed\l::cimg::Mutex_info::lock">
<polygon fill="#ffffff" stroke="#000000" points="1223.5,-28.5 1223.5,-58.5 1345.5,-58.5 1345.5,-28.5 1223.5,-28.5"/>
<text text-anchor="start" x="1231.5" y="-46.5" font-family="Helvetica,sans-Serif" font-size="10.00" fill="#000000">cimg_library_suffixed</text>
<text text-anchor="middle" x="1284.5" y="-35.5" font-family="Helvetica,sans-Serif" font-size="10.00" fill="#000000">::cimg::Mutex_info::lock</text>
</a>
</g>
</g>
<!-- Node340&#45;&gt;Node343 -->
<g id="edge7" class="edge">
<title>Node340&#45;&gt;Node343</title>
<path fill="none" stroke="#191970" d="M1153.9788,-101.3011C1171.7871,-91.3682 1195.9505,-78.4428 1218,-68.5 1222.6591,-66.3991 1227.5523,-64.3232 1232.4816,-62.3195"/>
<polygon fill="#191970" stroke="#191970" points="1233.9456,-65.5042 1241.9536,-58.5672 1231.3675,-58.9963 1233.9456,-65.5042"/>
</g>
<!-- Node344 -->
<g id="node9" class="node">
<title>Node344</title>
<g id="a_node9"><a xlink:href="structcimg__library__suffixed_1_1cimg_1_1_mutex__info.html#a9bf4ed1e1dfe6f28fa6250cd04f3c900" target="_top" xlink:title="cimg_library_suffixed\l::cimg::Mutex_info::trylock">
<polygon fill="#ffffff" stroke="#000000" points="1218,-126.5 1218,-156.5 1351,-156.5 1351,-126.5 1218,-126.5"/>
<text text-anchor="start" x="1226" y="-144.5" font-family="Helvetica,sans-Serif" font-size="10.00" fill="#000000">cimg_library_suffixed</text>
<text text-anchor="middle" x="1284.5" y="-133.5" font-family="Helvetica,sans-Serif" font-size="10.00" fill="#000000">::cimg::Mutex_info::trylock</text>
</a>
</g>
</g>
<!-- Node340&#45;&gt;Node344 -->
<g id="edge8" class="edge">
<title>Node340&#45;&gt;Node344</title>
<path fill="none" stroke="#191970" d="M1182.411,-125.2438C1190.6098,-126.5493 1199.187,-127.9151 1207.7367,-129.2766"/>
<polygon fill="#191970" stroke="#191970" points="1207.3105,-132.7527 1217.7365,-130.8689 1208.4113,-125.8398 1207.3105,-132.7527"/>
</g>
<!-- Node344&#45;&gt;Node341 -->
<g id="edge9" class="edge">
<title>Node344&#45;&gt;Node341</title>
<path fill="none" stroke="#191970" d="M1351.0821,-150.83C1359.5193,-152.0123 1368.1445,-153.2209 1376.5556,-154.3995"/>
<polygon fill="#191970" stroke="#191970" points="1376.293,-157.8968 1386.682,-155.8185 1377.2645,-150.9646 1376.293,-157.8968"/>
</g>
<!-- Node346 -->
<g id="node11" class="node">
<title>Node346</title>
<g id="a_node11"><a xlink:href="namespacecimg__library__suffixed_1_1cimg.html#a79aef0cbcf66ceb71c2b74cb66b4deb2" target="_top" xlink:title="Avoid warning messages due to unused parameters. Do nothing actually. ">
<polygon fill="#ffffff" stroke="#000000" points="928,-57.5 928,-87.5 1037,-87.5 1037,-57.5 928,-57.5"/>
<text text-anchor="start" x="936" y="-75.5" font-family="Helvetica,sans-Serif" font-size="10.00" fill="#000000">cimg_library_suffixed</text>
<text text-anchor="middle" x="982.5" y="-64.5" font-family="Helvetica,sans-Serif" font-size="10.00" fill="#000000">::cimg::unused</text>
</a>
</g>
</g>
<!-- Node345&#45;&gt;Node346 -->
<g id="edge11" class="edge">
<title>Node345&#45;&gt;Node346</title>
<path fill="none" stroke="#191970" d="M428.0491,-134.6007C439.8995,-134.9753 452.3685,-135.3073 464,-135.5 589.7605,-137.5839 622.2536,-151.5747 747,-135.5 813.0744,-126.9857 827.6686,-114.8144 892,-97.5 900.6694,-95.1667 909.7975,-92.6802 918.7857,-90.2144"/>
<polygon fill="#191970" stroke="#191970" points="919.7416,-93.5815 928.4555,-87.5551 917.8854,-86.8321 919.7416,-93.5815"/>
</g>
<!-- Node347 -->
<g id="node12" class="node">
<title>Node347</title>
<g id="a_node12"><a xlink:href="namespacecimg__library__suffixed_1_1cimg.html#aeafab144366eddd11360f32f468fa4af" target="_top" xlink:title="Set current &#160;exception mode. ">
<polygon fill="#ffffff" stroke="#000000" points="464,-53.5 464,-83.5 585,-83.5 585,-53.5 464,-53.5"/>
<text text-anchor="start" x="472" y="-71.5" font-family="Helvetica,sans-Serif" font-size="10.00" fill="#000000">cimg_library_suffixed</text>
<text text-anchor="middle" x="524.5" y="-60.5" font-family="Helvetica,sans-Serif" font-size="10.00" fill="#000000">::cimg::exception_mode</text>
</a>
</g>
</g>
<!-- Node345&#45;&gt;Node347 -->
<g id="edge13" class="edge">
<title>Node345&#45;&gt;Node347</title>
<path fill="none" stroke="#191970" d="M408.9028,-117.4948C430.0306,-108.54 457.0601,-97.0838 479.6689,-87.5012"/>
<polygon fill="#191970" stroke="#191970" points="481.2164,-90.6468 489.0577,-83.5219 478.4847,-84.2018 481.2164,-90.6468"/>
</g>
<!-- Node346&#45;&gt;Node340 -->
<g id="edge12" class="edge">
<title>Node346&#45;&gt;Node340</title>
<path fill="none" stroke="#191970" d="M1031.9952,-87.5192C1043.5323,-91.0202 1055.9365,-94.7842 1067.8612,-98.4027"/>
<polygon fill="#191970" stroke="#191970" points="1067.1501,-101.8445 1077.7355,-101.3991 1069.1827,-95.1461 1067.1501,-101.8445"/>
</g>
<!-- Node348 -->
<g id="node13" class="node">
<title>Node348</title>
<g id="a_node13"><a xlink:href="namespacecimg__library__suffixed_1_1cimg.html#a6c578f866de2be9be7e385d693c758c8" target="_top" xlink:title="cimg_library_suffixed\l::cimg::_exception_mode">
<polygon fill="#ffffff" stroke="#000000" points="621,-95.5 621,-125.5 747,-125.5 747,-95.5 621,-95.5"/>
<text text-anchor="start" x="629" y="-113.5" font-family="Helvetica,sans-Serif" font-size="10.00" fill="#000000">cimg_library_suffixed</text>
<text text-anchor="middle" x="684" y="-102.5" font-family="Helvetica,sans-Serif" font-size="10.00" fill="#000000">::cimg::_exception_mode</text>
</a>
</g>
</g>
<!-- Node347&#45;&gt;Node348 -->
<g id="edge14" class="edge">
<title>Node347&#45;&gt;Node348</title>
<path fill="none" stroke="#191970" d="M581.6326,-83.5443C593.1554,-86.5785 605.3648,-89.7936 617.1848,-92.906"/>
<polygon fill="#191970" stroke="#191970" points="616.4367,-96.3283 626.9983,-95.4902 618.2192,-89.559 616.4367,-96.3283"/>
</g>
<!-- Node348&#45;&gt;Node340 -->
<g id="edge15" class="edge">
<title>Node348&#45;&gt;Node340</title>
<path fill="none" stroke="#191970" d="M747.0717,-111.3533C830.8352,-112.4865 978.0329,-114.4779 1062.6723,-115.623"/>
<polygon fill="#191970" stroke="#191970" points="1062.6291,-119.1226 1072.6756,-115.7583 1062.7239,-112.1232 1062.6291,-119.1226"/>
</g>
<!-- Node348&#45;&gt;Node345 -->
<g id="edge22" class="edge">
<title>Node348&#45;&gt;Node345</title>
<path fill="none" stroke="#191970" d="M620.9297,-114.9688C567.7813,-118.7345 492.037,-124.1012 438.383,-127.9028"/>
<polygon fill="#191970" stroke="#191970" points="438.024,-124.4194 428.2964,-128.6175 438.5188,-131.4019 438.024,-124.4194"/>
</g>
<!-- Node349 -->
<g id="node14" class="node">
<title>Node349</title>
<g id="a_node14"><a xlink:href="namespacecimg__library__suffixed_1_1cimg.html#a01a3b743897290604513ea6d847c9886" target="_top" xlink:title="cimg_library_suffixed\l::cimg::_stdin">
<polygon fill="#ffffff" stroke="#000000" points="783,-57.5 783,-87.5 892,-87.5 892,-57.5 783,-57.5"/>
<text text-anchor="start" x="791" y="-75.5" font-family="Helvetica,sans-Serif" font-size="10.00" fill="#000000">cimg_library_suffixed</text>
<text text-anchor="middle" x="837.5" y="-64.5" font-family="Helvetica,sans-Serif" font-size="10.00" fill="#000000">::cimg::_stdin</text>
</a>
</g>
</g>
<!-- Node348&#45;&gt;Node349 -->
<g id="edge16" class="edge">
<title>Node348&#45;&gt;Node349</title>
<path fill="none" stroke="#191970" d="M744.6673,-95.4814C753.8984,-93.1962 763.4546,-90.8305 772.7686,-88.5247"/>
<polygon fill="#191970" stroke="#191970" points="773.8875,-91.8535 782.7534,-86.0529 772.2053,-85.0586 773.8875,-91.8535"/>
</g>
<!-- Node350 -->
<g id="node15" class="node">
<title>Node350</title>
<g id="a_node15"><a xlink:href="namespacecimg__library__suffixed_1_1cimg.html#a493220746e5df3466568bd7862825008" target="_top" xlink:title="cimg_library_suffixed\l::cimg::_stdout">
<polygon fill="#ffffff" stroke="#000000" points="783,-8.5 783,-38.5 892,-38.5 892,-8.5 783,-8.5"/>
<text text-anchor="start" x="791" y="-26.5" font-family="Helvetica,sans-Serif" font-size="10.00" fill="#000000">cimg_library_suffixed</text>
<text text-anchor="middle" x="837.5" y="-15.5" font-family="Helvetica,sans-Serif" font-size="10.00" fill="#000000">::cimg::_stdout</text>
</a>
</g>
</g>
<!-- Node348&#45;&gt;Node350 -->
<g id="edge19" class="edge">
<title>Node348&#45;&gt;Node350</title>
<path fill="none" stroke="#191970" d="M705.8317,-95.2455C725.5163,-81.8245 755.5091,-62.1906 783,-47.5 785.8723,-45.9651 788.8629,-44.4446 791.8992,-42.9581"/>
<polygon fill="#191970" stroke="#191970" points="793.5283,-46.0594 801.0726,-38.6206 790.5361,-39.7311 793.5283,-46.0594"/>
</g>
<!-- Node349&#45;&gt;Node346 -->
<g id="edge17" class="edge">
<title>Node349&#45;&gt;Node346</title>
<path fill="none" stroke="#191970" d="M892.3183,-72.5C900.5286,-72.5 909.0611,-72.5 917.4586,-72.5"/>
<polygon fill="#191970" stroke="#191970" points="917.6042,-76.0001 927.6042,-72.5 917.6042,-69.0001 917.6042,-76.0001"/>
</g>
<!-- Node349&#45;&gt;Node347 -->
<g id="edge18" class="edge">
<title>Node349&#45;&gt;Node347</title>
<path fill="none" stroke="#191970" d="M782.9666,-71.8031C730.8805,-71.1375 652.1092,-70.1308 595.2205,-69.4038"/>
<polygon fill="#191970" stroke="#191970" points="595.2646,-65.9042 585.2207,-69.276 595.1751,-72.9036 595.2646,-65.9042"/>
</g>
<!-- Node350&#45;&gt;Node346 -->
<g id="edge20" class="edge">
<title>Node350&#45;&gt;Node346</title>
<path fill="none" stroke="#191970" d="M882.1879,-38.6014C896.659,-43.4917 912.8725,-48.9707 927.9752,-54.0744"/>
<polygon fill="#191970" stroke="#191970" points="927.1158,-57.4783 937.71,-57.3641 929.3569,-50.8468 927.1158,-57.4783"/>
</g>
<!-- Node350&#45;&gt;Node347 -->
<g id="edge21" class="edge">
<title>Node350&#45;&gt;Node347</title>
<path fill="none" stroke="#191970" d="M782.9666,-31.3403C730.8805,-38.8287 652.1092,-50.1536 595.2205,-58.3325"/>
<polygon fill="#191970" stroke="#191970" points="594.6208,-54.8827 585.2207,-59.7702 595.617,-61.8114 594.6208,-54.8827"/>
</g>
</g>
</svg>
