<?xml version="1.0" encoding="UTF-8" standalone="no"?>
<!DOCTYPE svg PUBLIC "-//W3C//DTD SVG 1.1//EN"
 "http://www.w3.org/Graphics/SVG/1.1/DTD/svg11.dtd">
<!-- Generated by graphviz version 2.40.1 (20161225.0304)
 -->
<!-- Title: cimg_library_suffixed::CImgDisplay::button Pages: 1 -->
<svg width="288pt" height="380pt"
 viewBox="0.00 0.00 288.00 379.50" xmlns="http://www.w3.org/2000/svg" xmlns:xlink="http://www.w3.org/1999/xlink">
<g id="graph0" class="graph" transform="scale(1 1) rotate(0) translate(4 375.5)">
<title>cimg_library_suffixed::CImgDisplay::button</title>
<polygon fill="#ffffff" stroke="transparent" points="-4,4 -4,-375.5 284,-375.5 284,4 -4,4"/>
<!-- Node227 -->
<g id="node1" class="node">
<title>Node227</title>
<polygon fill="#bfbfbf" stroke="#000000" points="0,-171 0,-201 113,-201 113,-171 0,-171"/>
<text text-anchor="start" x="8" y="-189" font-family="Helvetica,sans-Serif" font-size="10.00" fill="#000000">cimg_library_suffixed</text>
<text text-anchor="middle" x="56.5" y="-178" font-family="Helvetica,sans-Serif" font-size="10.00" fill="#000000">::CImgDisplay::button</text>
</g>
<!-- Node228 -->
<g id="node2" class="node">
<title>Node228</title>
<g id="a_node2"><a xlink:href="structcimg__library__suffixed_1_1_c_img.html#adf9d80c60e82b079056c31cb0fe61faf" target="_top" xlink:title="cimg_library_suffixed\l::CImg\&lt; charT \&gt;::_display">
<polygon fill="#ffffff" stroke="#000000" points="149,-341 149,-371 280,-371 280,-341 149,-341"/>
<text text-anchor="start" x="157" y="-359" font-family="Helvetica,sans-Serif" font-size="10.00" fill="#000000">cimg_library_suffixed</text>
<text text-anchor="middle" x="214.5" y="-348" font-family="Helvetica,sans-Serif" font-size="10.00" fill="#000000">::CImg&lt; charT &gt;::_display</text>
</a>
</g>
</g>
<!-- Node227&#45;&gt;Node228 -->
<g id="edge1" class="edge">
<title>Node227&#45;&gt;Node228</title>
<path fill="none" stroke="#191970" d="M66.4582,-210.9138C80.4163,-242.8903 108.6891,-298.1491 149,-331 153.7177,-334.8446 159.0911,-338.1411 164.6842,-340.9569"/>
<polygon fill="#191970" stroke="#191970" points="69.555,-209.2511 62.4322,-201.4079 63.1092,-211.9811 69.555,-209.2511"/>
</g>
<!-- Node229 -->
<g id="node3" class="node">
<title>Node229</title>
<g id="a_node3"><a xlink:href="structcimg__library__suffixed_1_1_c_img_list.html#af514efa37d021bd02a95186531139a38" target="_top" xlink:title="cimg_library_suffixed\l::CImgList\&lt; charT \&gt;::\l_display">
<polygon fill="#ffffff" stroke="#000000" points="159,-280.5 159,-321.5 270,-321.5 270,-280.5 159,-280.5"/>
<text text-anchor="start" x="167" y="-309.5" font-family="Helvetica,sans-Serif" font-size="10.00" fill="#000000">cimg_library_suffixed</text>
<text text-anchor="start" x="167" y="-298.5" font-family="Helvetica,sans-Serif" font-size="10.00" fill="#000000">::CImgList&lt; charT &gt;::</text>
<text text-anchor="middle" x="214.5" y="-287.5" font-family="Helvetica,sans-Serif" font-size="10.00" fill="#000000">_display</text>
</a>
</g>
</g>
<!-- Node227&#45;&gt;Node229 -->
<g id="edge2" class="edge">
<title>Node227&#45;&gt;Node229</title>
<path fill="none" stroke="#191970" d="M77.0609,-208.4794C94.8114,-226.9578 121.8178,-252.944 149,-271 154.0009,-274.3219 159.4291,-277.4527 164.9487,-280.3474"/>
<polygon fill="#191970" stroke="#191970" points="79.4615,-205.924 70.0467,-201.0648 74.3763,-210.7346 79.4615,-205.924"/>
</g>
<!-- Node230 -->
<g id="node4" class="node">
<title>Node230</title>
<g id="a_node4"><a xlink:href="structcimg__library__suffixed_1_1_c_img.html#a8b40db5a9818c3f961a90840b271de6c" target="_top" xlink:title="cimg_library_suffixed\l::CImg\&lt; charT \&gt;::_display\l_object3d">
<polygon fill="#ffffff" stroke="#000000" points="149,-220.5 149,-261.5 280,-261.5 280,-220.5 149,-220.5"/>
<text text-anchor="start" x="157" y="-249.5" font-family="Helvetica,sans-Serif" font-size="10.00" fill="#000000">cimg_library_suffixed</text>
<text text-anchor="start" x="157" y="-238.5" font-family="Helvetica,sans-Serif" font-size="10.00" fill="#000000">::CImg&lt; charT &gt;::_display</text>
<text text-anchor="middle" x="214.5" y="-227.5" font-family="Helvetica,sans-Serif" font-size="10.00" fill="#000000">_object3d</text>
</a>
</g>
</g>
<!-- Node227&#45;&gt;Node230 -->
<g id="edge3" class="edge">
<title>Node227&#45;&gt;Node230</title>
<path fill="none" stroke="#191970" d="M109.1859,-204.34C124.0048,-209.4985 140.2183,-215.1424 155.3858,-220.4223"/>
<polygon fill="#191970" stroke="#191970" points="110.269,-201.0111 99.6742,-201.029 107.9677,-207.622 110.269,-201.0111"/>
</g>
<!-- Node231 -->
<g id="node5" class="node">
<title>Node231</title>
<g id="a_node5"><a xlink:href="structcimg__library__suffixed_1_1_c_img.html#ad9b7141242d0b6e861a8014112ddb5b5" target="_top" xlink:title="cimg_library_suffixed\l::CImg\&lt; charT \&gt;::_select">
<polygon fill="#ffffff" stroke="#000000" points="151,-171 151,-201 278,-201 278,-171 151,-171"/>
<text text-anchor="start" x="159" y="-189" font-family="Helvetica,sans-Serif" font-size="10.00" fill="#000000">cimg_library_suffixed</text>
<text text-anchor="middle" x="214.5" y="-178" font-family="Helvetica,sans-Serif" font-size="10.00" fill="#000000">::CImg&lt; charT &gt;::_select</text>
</a>
</g>
</g>
<!-- Node227&#45;&gt;Node231 -->
<g id="edge4" class="edge">
<title>Node227&#45;&gt;Node231</title>
<path fill="none" stroke="#191970" d="M123.2674,-186C132.3844,-186 141.7242,-186 150.785,-186"/>
<polygon fill="#191970" stroke="#191970" points="123.0954,-182.5001 113.0954,-186 123.0953,-189.5001 123.0954,-182.5001"/>
</g>
<!-- Node232 -->
<g id="node6" class="node">
<title>Node232</title>
<g id="a_node6"><a xlink:href="structcimg__library__suffixed_1_1_c_img_list.html#af8a6b01f20b2d459e5abe6b99836ea9a" target="_top" xlink:title="cimg_library_suffixed\l::CImgList\&lt; charT \&gt;::\l_select">
<polygon fill="#ffffff" stroke="#000000" points="159,-110.5 159,-151.5 270,-151.5 270,-110.5 159,-110.5"/>
<text text-anchor="start" x="167" y="-139.5" font-family="Helvetica,sans-Serif" font-size="10.00" fill="#000000">cimg_library_suffixed</text>
<text text-anchor="start" x="167" y="-128.5" font-family="Helvetica,sans-Serif" font-size="10.00" fill="#000000">::CImgList&lt; charT &gt;::</text>
<text text-anchor="middle" x="214.5" y="-117.5" font-family="Helvetica,sans-Serif" font-size="10.00" fill="#000000">_select</text>
</a>
</g>
</g>
<!-- Node227&#45;&gt;Node232 -->
<g id="edge5" class="edge">
<title>Node227&#45;&gt;Node232</title>
<path fill="none" stroke="#191970" d="M109.3571,-167.6004C125.2835,-162.0564 142.8076,-155.9562 158.9062,-150.3523"/>
<polygon fill="#191970" stroke="#191970" points="107.9677,-164.378 99.6742,-170.971 110.269,-170.9889 107.9677,-164.378"/>
</g>
<!-- Node233 -->
<g id="node7" class="node">
<title>Node233</title>
<g id="a_node7"><a xlink:href="namespacecimg__library__suffixed_1_1cimg.html#a11aed0e6b30d75bf50946ee78d1aed94" target="_top" xlink:title="Display a simple dialog box, and wait for the user&#39;s response. ">
<polygon fill="#ffffff" stroke="#000000" points="160,-61 160,-91 269,-91 269,-61 160,-61"/>
<text text-anchor="start" x="168" y="-79" font-family="Helvetica,sans-Serif" font-size="10.00" fill="#000000">cimg_library_suffixed</text>
<text text-anchor="middle" x="214.5" y="-68" font-family="Helvetica,sans-Serif" font-size="10.00" fill="#000000">::cimg::dialog</text>
</a>
</g>
</g>
<!-- Node227&#45;&gt;Node233 -->
<g id="edge6" class="edge">
<title>Node227&#45;&gt;Node233</title>
<path fill="none" stroke="#191970" d="M76.4576,-163.3873C94.0218,-144.6076 121.0842,-118.2652 149,-101 155.0041,-97.2867 161.6497,-93.9727 168.338,-91.0677"/>
<polygon fill="#191970" stroke="#191970" points="73.7224,-161.1912 69.5368,-170.9242 78.8784,-165.9257 73.7224,-161.1912"/>
</g>
<!-- Node234 -->
<g id="node8" class="node">
<title>Node234</title>
<g id="a_node8"><a xlink:href="structcimg__library__suffixed_1_1_c_img.html#a689f47424dc7c548ebfe53e431409199" target="_top" xlink:title="Select sub&#45;graph in a graph. ">
<polygon fill="#ffffff" stroke="#000000" points="160,-.5 160,-41.5 269,-41.5 269,-.5 160,-.5"/>
<text text-anchor="start" x="168" y="-29.5" font-family="Helvetica,sans-Serif" font-size="10.00" fill="#000000">cimg_library_suffixed</text>
<text text-anchor="start" x="168" y="-18.5" font-family="Helvetica,sans-Serif" font-size="10.00" fill="#000000">::CImg&lt; charT &gt;::get</text>
<text text-anchor="middle" x="214.5" y="-7.5" font-family="Helvetica,sans-Serif" font-size="10.00" fill="#000000">_select_graph</text>
</a>
</g>
</g>
<!-- Node227&#45;&gt;Node234 -->
<g id="edge7" class="edge">
<title>Node227&#45;&gt;Node234</title>
<path fill="none" stroke="#191970" d="M68.2169,-161.6912C83.3668,-132.4029 112.2275,-83.2462 149,-52 153.506,-48.1712 158.5652,-44.7034 163.8226,-41.5931"/>
<polygon fill="#191970" stroke="#191970" points="64.9968,-160.3034 63.6131,-170.8075 71.2452,-163.4589 64.9968,-160.3034"/>
</g>
</g>
</svg>
