<?xml version="1.0" encoding="UTF-8" standalone="no"?>
<!DOCTYPE svg PUBLIC "-//W3C//DTD SVG 1.1//EN"
 "http://www.w3.org/Graphics/SVG/1.1/DTD/svg11.dtd">
<!-- Generated by graphviz version 2.40.1 (20161225.0304)
 -->
<!-- Title: cimg_library_suffixed::CImg::_cimg_math_parser::mp_u Pages: 1 -->
<svg width="466pt" height="39pt"
 viewBox="0.00 0.00 466.00 39.00" xmlns="http://www.w3.org/2000/svg" xmlns:xlink="http://www.w3.org/1999/xlink">
<g id="graph0" class="graph" transform="scale(1 1) rotate(0) translate(4 35)">
<title>cimg_library_suffixed::CImg::_cimg_math_parser::mp_u</title>
<polygon fill="#ffffff" stroke="transparent" points="-4,4 -4,-35 462,-35 462,4 -4,4"/>
<!-- Node1155 -->
<g id="node1" class="node">
<title>Node1155</title>
<polygon fill="#bfbfbf" stroke="#000000" points="0,-.5 0,-30.5 168,-30.5 168,-.5 0,-.5"/>
<text text-anchor="start" x="8" y="-18.5" font-family="Helvetica,sans-Serif" font-size="10.00" fill="#000000">cimg_library_suffixed</text>
<text text-anchor="middle" x="84" y="-7.5" font-family="Helvetica,sans-Serif" font-size="10.00" fill="#000000">::CImg::_cimg_math_parser::mp_u</text>
</g>
<!-- Node1156 -->
<g id="node2" class="node">
<title>Node1156</title>
<g id="a_node2"><a xlink:href="namespacecimg__library__suffixed_1_1cimg.html#ab7c09300be61c8a3361c379069100252" target="_top" xlink:title="Return a random variable uniformely distributed between [val_min,val_max]. ">
<polygon fill="#ffffff" stroke="#000000" points="204,-.5 204,-30.5 313,-30.5 313,-.5 204,-.5"/>
<text text-anchor="start" x="212" y="-18.5" font-family="Helvetica,sans-Serif" font-size="10.00" fill="#000000">cimg_library_suffixed</text>
<text text-anchor="middle" x="258.5" y="-7.5" font-family="Helvetica,sans-Serif" font-size="10.00" fill="#000000">::cimg::rand</text>
</a>
</g>
</g>
<!-- Node1155&#45;&gt;Node1156 -->
<g id="edge1" class="edge">
<title>Node1155&#45;&gt;Node1156</title>
<path fill="none" stroke="#191970" d="M168.1832,-15.5C176.6399,-15.5 185.135,-15.5 193.3503,-15.5"/>
<polygon fill="#191970" stroke="#191970" points="193.5828,-19.0001 203.5827,-15.5 193.5827,-12.0001 193.5828,-19.0001"/>
</g>
<!-- Node1157 -->
<g id="node3" class="node">
<title>Node1157</title>
<g id="a_node3"><a xlink:href="namespacecimg__library__suffixed_1_1cimg.html#af5cd3397f819c13ccb17e05a7db736b1" target="_top" xlink:title="Return a random variable uniformely distributed between [0,val_max]. ">
<polygon fill="#ffffff" stroke="#000000" points="349,-.5 349,-30.5 458,-30.5 458,-.5 349,-.5"/>
<text text-anchor="start" x="357" y="-18.5" font-family="Helvetica,sans-Serif" font-size="10.00" fill="#000000">cimg_library_suffixed</text>
<text text-anchor="middle" x="403.5" y="-7.5" font-family="Helvetica,sans-Serif" font-size="10.00" fill="#000000">::cimg::rand</text>
</a>
</g>
</g>
<!-- Node1156&#45;&gt;Node1157 -->
<g id="edge2" class="edge">
<title>Node1156&#45;&gt;Node1157</title>
<path fill="none" stroke="#191970" d="M313.3183,-8.9317C321.5286,-8.7598 330.0611,-8.7099 338.4586,-8.7819"/>
<polygon fill="#191970" stroke="#191970" points="338.5541,-12.2835 348.6042,-8.9301 338.6564,-5.2843 338.5541,-12.2835"/>
</g>
<!-- Node1157&#45;&gt;Node1156 -->
<g id="edge3" class="edge">
<title>Node1157&#45;&gt;Node1156</title>
<path fill="none" stroke="#191970" d="M348.6042,-22.0699C340.3919,-22.241 331.8588,-22.2902 323.4621,-22.2175"/>
<polygon fill="#191970" stroke="#191970" points="323.3687,-18.7158 313.3183,-22.0683 323.2657,-25.7151 323.3687,-18.7158"/>
</g>
</g>
</svg>
