<?xml version="1.0" encoding="UTF-8" standalone="no"?>
<!DOCTYPE svg PUBLIC "-//W3C//DTD SVG 1.1//EN"
 "http://www.w3.org/Graphics/SVG/1.1/DTD/svg11.dtd">
<!-- Generated by graphviz version 2.40.1 (20161225.0304)
 -->
<!-- Title: cimg_library_suffixed::CImgList::get_append Pages: 1 -->
<!--zoomable 499 -->
<svg id="main" version="1.1" xmlns="http://www.w3.org/2000/svg" xmlns:xlink="http://www.w3.org/1999/xlink" xml:space="preserve" onload="init(evt)">
<style type="text/css"><![CDATA[
.edge:hover path { stroke: red; }
.edge:hover polygon { stroke: red; fill: red; }
]]></style>
<script type="text/javascript"><![CDATA[
var edges = document.getElementsByTagName('g');
if (edges && edges.length) {
  for (var i=0;i<edges.length;i++) {
    if (edges[i].id.substr(0,4)=='edge') {
      edges[i].setAttribute('class','edge');
    }
  }
}
]]></script>
        <defs>
                <circle id="rim" cx="0" cy="0" r="7"/>
                <circle id="rim2" cx="0" cy="0" r="3.5"/>
                <g id="zoomPlus">
                        <use xlink:href="#rim" fill="#404040">
                                <set attributeName="fill" to="#808080" begin="zoomplus.mouseover" end="zoomplus.mouseout"/>
                        </use>
                        <path d="M-4,0h8M0,-4v8" fill="none" stroke="white" stroke-width="1.5" pointer-events="none"/>
                </g>
                <g id="zoomMin">
                        <use xlink:href="#rim" fill="#404040">
                                <set attributeName="fill" to="#808080" begin="zoomminus.mouseover" end="zoomminus.mouseout"/>
                        </use>
                        <path d="M-4,0h8" fill="none" stroke="white" stroke-width="1.5" pointer-events="none"/>
                </g>
                <g id="dirArrow">
                        <path fill="none" stroke="white" stroke-width="1.5" d="M0,-3.0v7 M-2.5,-0.5L0,-3.0L2.5,-0.5"/>
                </g>
               <g id="resetDef">
                       <use xlink:href="#rim2" fill="#404040">
                               <set attributeName="fill" to="#808080" begin="reset.mouseover" end="reset.mouseout"/>
                       </use>
               </g>
        </defs>

<script type="text/javascript">
var viewWidth = 303;
var viewHeight = 499;
var sectionId = 'dynsection-11';
</script>
<script xlink:href="svgpan.js"/>
<svg id="graph" class="graph">
<g id="viewport">
<title>cimg_library_suffixed::CImgList::get_append</title>
<polygon fill="#ffffff" stroke="transparent" points="-4,4 -4,-494.5 299,-494.5 299,4 -4,4"/>
<!-- Node297 -->
<g id="node1" class="node">
<title>Node297</title>
<polygon fill="#bfbfbf" stroke="#000000" points="0,-236 0,-266 119,-266 119,-236 0,-236"/>
<text text-anchor="start" x="8" y="-254" font-family="Helvetica,sans-Serif" font-size="10.00" fill="#000000">cimg_library_suffixed</text>
<text text-anchor="middle" x="59.5" y="-243" font-family="Helvetica,sans-Serif" font-size="10.00" fill="#000000">::CImgList::get_append</text>
</g>
<!-- Node298 -->
<g id="node2" class="node">
<title>Node298</title>
<g id="a_node2"><a xlink:href="structcimg__library__suffixed_1_1_c_img.html#a66b642b7548536f9dfe0328207e37ef4" target="_top" xlink:title="Append two images along specified axis. ">
<polygon fill="#ffffff" stroke="#000000" points="161.5,-460 161.5,-490 288.5,-490 288.5,-460 161.5,-460"/>
<text text-anchor="start" x="169.5" y="-478" font-family="Helvetica,sans-Serif" font-size="10.00" fill="#000000">cimg_library_suffixed</text>
<text text-anchor="middle" x="225" y="-467" font-family="Helvetica,sans-Serif" font-size="10.00" fill="#000000">::CImg&lt; charT &gt;::append</text>
</a>
</g>
</g>
<!-- Node297&#45;&gt;Node298 -->
<g id="edge1" class="edge">
<title>Node297&#45;&gt;Node298</title>
<path fill="none" stroke="#191970" d="M64.8317,-276.1863C75.0256,-318.2958 101.2185,-403.0823 155,-451 158.8369,-454.4186 163.1837,-457.3547 167.7875,-459.8758"/>
<polygon fill="#191970" stroke="#191970" points="68.1883,-275.1667 62.5256,-266.2121 61.3682,-276.7435 68.1883,-275.1667"/>
</g>
<!-- Node299 -->
<g id="node3" class="node">
<title>Node299</title>
<g id="a_node3"><a xlink:href="structcimg__library__suffixed_1_1_c_img_display.html#a7f0ae1e5a6deb128d9a4f9501514675b" target="_top" xlink:title="Display list of images on associated window. ">
<polygon fill="#ffffff" stroke="#000000" points="167,-411 167,-441 283,-441 283,-411 167,-411"/>
<text text-anchor="start" x="175" y="-429" font-family="Helvetica,sans-Serif" font-size="10.00" fill="#000000">cimg_library_suffixed</text>
<text text-anchor="middle" x="225" y="-418" font-family="Helvetica,sans-Serif" font-size="10.00" fill="#000000">::CImgDisplay::display</text>
</a>
</g>
</g>
<!-- Node297&#45;&gt;Node299 -->
<g id="edge2" class="edge">
<title>Node297&#45;&gt;Node299</title>
<path fill="none" stroke="#191970" d="M69.0346,-275.4585C83.0779,-308.4465 112.3545,-366.9747 155,-401 159.8419,-404.8632 165.329,-408.1566 171.0492,-410.958"/>
<polygon fill="#191970" stroke="#191970" points="72.2201,-274.0025 65.1674,-266.0961 65.7503,-276.6749 72.2201,-274.0025"/>
</g>
<!-- Node300 -->
<g id="node4" class="node">
<title>Node300</title>
<g id="a_node4"><a xlink:href="structcimg__library__suffixed_1_1_c_img.html#adfc652cf008c0263804f1bbf518ff21f" target="_top" xlink:title="Append two images along specified axis . ">
<polygon fill="#ffffff" stroke="#000000" points="170.5,-350.5 170.5,-391.5 279.5,-391.5 279.5,-350.5 170.5,-350.5"/>
<text text-anchor="start" x="178.5" y="-379.5" font-family="Helvetica,sans-Serif" font-size="10.00" fill="#000000">cimg_library_suffixed</text>
<text text-anchor="start" x="178.5" y="-368.5" font-family="Helvetica,sans-Serif" font-size="10.00" fill="#000000">::CImg&lt; charT &gt;::get</text>
<text text-anchor="middle" x="225" y="-357.5" font-family="Helvetica,sans-Serif" font-size="10.00" fill="#000000">_append</text>
</a>
</g>
</g>
<!-- Node297&#45;&gt;Node300 -->
<g id="edge3" class="edge">
<title>Node297&#45;&gt;Node300</title>
<path fill="none" stroke="#191970" d="M79.3071,-273.7298C97.4573,-293.4997 125.8631,-321.8969 155,-341 160.1969,-344.4072 165.845,-347.5746 171.6035,-350.4753"/>
<polygon fill="#191970" stroke="#191970" points="81.7136,-271.1725 72.4139,-266.0964 76.5184,-275.8639 81.7136,-271.1725"/>
</g>
<!-- Node301 -->
<g id="node5" class="node">
<title>Node301</title>
<g id="a_node5"><a xlink:href="structcimg__library__suffixed_1_1_c_img.html#a5b75a8084949dc540378cc62dddf8161" target="_top" xlink:title="Load image sequence using FFMPEG&#39;s external tool &#39;ffmpeg&#39; . ">
<polygon fill="#ffffff" stroke="#000000" points="167.5,-290.5 167.5,-331.5 282.5,-331.5 282.5,-290.5 167.5,-290.5"/>
<text text-anchor="start" x="175.5" y="-319.5" font-family="Helvetica,sans-Serif" font-size="10.00" fill="#000000">cimg_library_suffixed</text>
<text text-anchor="start" x="175.5" y="-308.5" font-family="Helvetica,sans-Serif" font-size="10.00" fill="#000000">::CImg&lt; charT &gt;::get</text>
<text text-anchor="middle" x="225" y="-297.5" font-family="Helvetica,sans-Serif" font-size="10.00" fill="#000000">_load_ffmpeg_external</text>
</a>
</g>
</g>
<!-- Node297&#45;&gt;Node301 -->
<g id="edge4" class="edge">
<title>Node297&#45;&gt;Node301</title>
<path fill="none" stroke="#191970" d="M110.822,-269.6062C129.027,-276.2062 149.6155,-283.6703 168.2469,-290.4249"/>
<polygon fill="#191970" stroke="#191970" points="111.8568,-266.2585 101.2626,-266.1405 109.471,-272.8393 111.8568,-266.2585"/>
</g>
<!-- Node302 -->
<g id="node6" class="node">
<title>Node302</title>
<g id="a_node6"><a xlink:href="structcimg__library__suffixed_1_1_c_img.html#a9ddb90d7e2fadc1afdd4aa8167697a70" target="_top" xlink:title="Load gif file, using ImageMagick or GraphicsMagick&#39;s external tool &#39;convert&#39; . ">
<polygon fill="#ffffff" stroke="#000000" points="170.5,-230.5 170.5,-271.5 279.5,-271.5 279.5,-230.5 170.5,-230.5"/>
<text text-anchor="start" x="178.5" y="-259.5" font-family="Helvetica,sans-Serif" font-size="10.00" fill="#000000">cimg_library_suffixed</text>
<text text-anchor="start" x="178.5" y="-248.5" font-family="Helvetica,sans-Serif" font-size="10.00" fill="#000000">::CImg&lt; charT &gt;::get</text>
<text text-anchor="middle" x="225" y="-237.5" font-family="Helvetica,sans-Serif" font-size="10.00" fill="#000000">_load_gif_external</text>
</a>
</g>
</g>
<!-- Node297&#45;&gt;Node302 -->
<g id="edge5" class="edge">
<title>Node297&#45;&gt;Node302</title>
<path fill="none" stroke="#191970" d="M129.5473,-251C143.1667,-251 157.2564,-251 170.293,-251"/>
<polygon fill="#191970" stroke="#191970" points="129.2493,-247.5001 119.2493,-251 129.2493,-254.5001 129.2493,-247.5001"/>
</g>
<!-- Node303 -->
<g id="node7" class="node">
<title>Node303</title>
<g id="a_node7"><a xlink:href="structcimg__library__suffixed_1_1_c_img.html#a3a29ee5b4cfcb8d35134a85b7cc60c29" target="_top" xlink:title="Load image sequence from a video file, using OpenCV library . ">
<polygon fill="#ffffff" stroke="#000000" points="170.5,-170.5 170.5,-211.5 279.5,-211.5 279.5,-170.5 170.5,-170.5"/>
<text text-anchor="start" x="178.5" y="-199.5" font-family="Helvetica,sans-Serif" font-size="10.00" fill="#000000">cimg_library_suffixed</text>
<text text-anchor="start" x="178.5" y="-188.5" font-family="Helvetica,sans-Serif" font-size="10.00" fill="#000000">::CImg&lt; charT &gt;::get</text>
<text text-anchor="middle" x="225" y="-177.5" font-family="Helvetica,sans-Serif" font-size="10.00" fill="#000000">_load_video</text>
</a>
</g>
</g>
<!-- Node297&#45;&gt;Node303 -->
<g id="edge6" class="edge">
<title>Node297&#45;&gt;Node303</title>
<path fill="none" stroke="#191970" d="M110.8862,-232.3706C129.7847,-225.5192 151.2447,-217.7391 170.415,-210.7891"/>
<polygon fill="#191970" stroke="#191970" points="109.471,-229.1607 101.2626,-235.8595 111.8568,-235.7415 109.471,-229.1607"/>
</g>
<!-- Node304 -->
<g id="node8" class="node">
<title>Node304</title>
<g id="a_node8"><a xlink:href="structcimg__library__suffixed_1_1_c_img.html#ac57bf12c7a027b12a6df6b88aa6b7a2b" target="_top" xlink:title="Load image sequence from a YUV file . ">
<polygon fill="#ffffff" stroke="#000000" points="170.5,-110.5 170.5,-151.5 279.5,-151.5 279.5,-110.5 170.5,-110.5"/>
<text text-anchor="start" x="178.5" y="-139.5" font-family="Helvetica,sans-Serif" font-size="10.00" fill="#000000">cimg_library_suffixed</text>
<text text-anchor="start" x="178.5" y="-128.5" font-family="Helvetica,sans-Serif" font-size="10.00" fill="#000000">::CImg&lt; charT &gt;::get</text>
<text text-anchor="middle" x="225" y="-117.5" font-family="Helvetica,sans-Serif" font-size="10.00" fill="#000000">_load_yuv</text>
</a>
</g>
</g>
<!-- Node297&#45;&gt;Node304 -->
<g id="edge7" class="edge">
<title>Node297&#45;&gt;Node304</title>
<path fill="none" stroke="#191970" d="M79.3071,-228.2702C97.4573,-208.5003 125.8631,-180.1031 155,-161 160.1969,-157.5928 165.845,-154.4254 171.6035,-151.5247"/>
<polygon fill="#191970" stroke="#191970" points="76.5184,-226.1361 72.4139,-235.9036 81.7136,-230.8275 76.5184,-226.1361"/>
</g>
<!-- Node305 -->
<g id="node9" class="node">
<title>Node305</title>
<g id="a_node9"><a xlink:href="structcimg__library__suffixed_1_1_c_img.html#acd11fa7d0e9e7598c686eeadd86b792d" target="_top" xlink:title="Load image from a .cimg[z] file. ">
<polygon fill="#ffffff" stroke="#000000" points="155,-61 155,-91 295,-91 295,-61 155,-61"/>
<text text-anchor="start" x="163" y="-79" font-family="Helvetica,sans-Serif" font-size="10.00" fill="#000000">cimg_library_suffixed</text>
<text text-anchor="middle" x="225" y="-68" font-family="Helvetica,sans-Serif" font-size="10.00" fill="#000000">::CImg&lt; charT &gt;::load_cimg</text>
</a>
</g>
</g>
<!-- Node297&#45;&gt;Node305 -->
<g id="edge8" class="edge">
<title>Node297&#45;&gt;Node305</title>
<path fill="none" stroke="#191970" d="M69.0346,-226.5415C83.0779,-193.5535 112.3545,-135.0253 155,-101 159.8419,-97.1368 165.329,-93.8434 171.0492,-91.042"/>
<polygon fill="#191970" stroke="#191970" points="65.7503,-225.3251 65.1674,-235.9039 72.2201,-227.9975 65.7503,-225.3251"/>
</g>
<!-- Node306 -->
<g id="node10" class="node">
<title>Node306</title>
<g id="a_node10"><a xlink:href="structcimg__library__suffixed_1_1_c_img.html#a2443496c0824ead4e1bf8a84c5eda7b0" target="_top" xlink:title="Load image from a PAR&#45;REC (Philips) file. ">
<polygon fill="#ffffff" stroke="#000000" points="168.5,-.5 168.5,-41.5 281.5,-41.5 281.5,-.5 168.5,-.5"/>
<text text-anchor="start" x="176.5" y="-29.5" font-family="Helvetica,sans-Serif" font-size="10.00" fill="#000000">cimg_library_suffixed</text>
<text text-anchor="start" x="176.5" y="-18.5" font-family="Helvetica,sans-Serif" font-size="10.00" fill="#000000">::CImg&lt; charT &gt;::load</text>
<text text-anchor="middle" x="225" y="-7.5" font-family="Helvetica,sans-Serif" font-size="10.00" fill="#000000">_parrec</text>
</a>
</g>
</g>
<!-- Node297&#45;&gt;Node306 -->
<g id="edge9" class="edge">
<title>Node297&#45;&gt;Node306</title>
<path fill="none" stroke="#191970" d="M65.4078,-226.1269C76.3883,-184.8506 103.6311,-101.8236 155,-52 159.0071,-48.1135 163.5835,-44.6678 168.4346,-41.6229"/>
<polygon fill="#191970" stroke="#191970" points="61.9934,-225.3519 62.9048,-235.9075 68.7748,-227.0874 61.9934,-225.3519"/>
</g>
</g>
</svg>
        <g id="navigator" transform="translate(0 0)" fill="#404254">
                <rect fill="#f2f5e9" fill-opacity="0.5" stroke="#606060" stroke-width=".5" x="0" y="0" width="60" height="60"/>
                <use id="zoomplus" xlink:href="#zoomPlus" x="17" y="9" onmousedown="handleZoom(evt,'in')"/>
                <use id="zoomminus" xlink:href="#zoomMin" x="42" y="9" onmousedown="handleZoom(evt,'out')"/>
                <use id="reset" xlink:href="#resetDef" x="30" y="36" onmousedown="handleReset()"/>
                <g id="arrowUp" xlink:href="#dirArrow" transform="translate(30 24)" onmousedown="handlePan(0,-1)">
                  <use xlink:href="#rim" fill="#404040">
                        <set attributeName="fill" to="#808080" begin="arrowUp.mouseover" end="arrowUp.mouseout"/>
                  </use>
                  <path fill="none" stroke="white" stroke-width="1.5" d="M0,-3.0v7 M-2.5,-0.5L0,-3.0L2.5,-0.5"/>
                </g>
                <g id="arrowRight" xlink:href="#dirArrow" transform="rotate(90) translate(36 -43)" onmousedown="handlePan(1,0)">
                  <use xlink:href="#rim" fill="#404040">
                        <set attributeName="fill" to="#808080" begin="arrowRight.mouseover" end="arrowRight.mouseout"/>
                  </use>
                  <path fill="none" stroke="white" stroke-width="1.5" d="M0,-3.0v7 M-2.5,-0.5L0,-3.0L2.5,-0.5"/>
                </g>
                <g id="arrowDown" xlink:href="#dirArrow" transform="rotate(180) translate(-30 -48)" onmousedown="handlePan(0,1)">
                  <use xlink:href="#rim" fill="#404040">
                        <set attributeName="fill" to="#808080" begin="arrowDown.mouseover" end="arrowDown.mouseout"/>
                  </use>
                  <path fill="none" stroke="white" stroke-width="1.5" d="M0,-3.0v7 M-2.5,-0.5L0,-3.0L2.5,-0.5"/>
                </g>
                <g id="arrowLeft" xlink:href="#dirArrow" transform="rotate(270) translate(-36 17)" onmousedown="handlePan(-1,0)">
                  <use xlink:href="#rim" fill="#404040">
                        <set attributeName="fill" to="#808080" begin="arrowLeft.mouseover" end="arrowLeft.mouseout"/>
                  </use>
                  <path fill="none" stroke="white" stroke-width="1.5" d="M0,-3.0v7 M-2.5,-0.5L0,-3.0L2.5,-0.5"/>
                </g>
        </g>
        <svg viewBox="0 0 15 15" width="100%" height="30px" preserveAspectRatio="xMaxYMin meet">
         <g id="arrow_out" transform="scale(0.3 0.3)">
          <a xlink:href="structcimg__library__suffixed_1_1_c_img_list_a0742de5c028207997d91cd6599262ef9_icgraph_org.svg" target="_base">
           <rect id="button" ry="5" rx="5" y="6" x="6" height="38" width="38"
                fill="#f2f5e9" fill-opacity="0.5" stroke="#606060" stroke-width="1.0"/>
           <path id="arrow"
             d="M 11.500037,31.436501 C 11.940474,20.09759 22.043105,11.32322 32.158766,21.979434 L 37.068811,17.246167 C 37.068811,17.246167 37.088388,32 37.088388,32 L 22.160133,31.978069 C 22.160133,31.978069 26.997745,27.140456 26.997745,27.140456 C 18.528582,18.264221 13.291696,25.230495 11.500037,31.436501 z"
             style="fill:#404040;"/>
          </a>
         </g>
        </svg>
</svg>
