<?xml version="1.0" encoding="UTF-8" standalone="no"?>
<!DOCTYPE svg PUBLIC "-//W3C//DTD SVG 1.1//EN"
 "http://www.w3.org/Graphics/SVG/1.1/DTD/svg11.dtd">
<!-- Generated by graphviz version 2.40.1 (20161225.0304)
 -->
<!-- Title: MoveEvent Pages: 1 -->
<svg width="84pt" height="287pt"
 viewBox="0.00 0.00 84.00 287.00" xmlns="http://www.w3.org/2000/svg" xmlns:xlink="http://www.w3.org/1999/xlink">
<g id="graph0" class="graph" transform="scale(1 1) rotate(0) translate(4 283)">
<title>MoveEvent</title>
<polygon fill="#ffffff" stroke="transparent" points="-4,4 -4,-283 80,-283 80,4 -4,4"/>
<!-- Node1 -->
<g id="node1" class="node">
<title>Node1</title>
<polygon fill="#bfbfbf" stroke="#000000" points="0,-.5 0,-57.5 66,-57.5 66,-.5 0,-.5"/>
<text text-anchor="middle" x="33" y="-45.5" font-family="Helvetica,sans-Serif" font-size="10.00" fill="#000000">MoveEvent</text>
<polyline fill="none" stroke="#000000" points="0,-38.5 66,-38.5 "/>
<text text-anchor="middle" x="33" y="-26.5" font-family="Helvetica,sans-Serif" font-size="10.00" fill="#000000"> </text>
<polyline fill="none" stroke="#000000" points="0,-19.5 66,-19.5 "/>
<text text-anchor="middle" x="33" y="-7.5" font-family="Helvetica,sans-Serif" font-size="10.00" fill="#000000"> </text>
</g>
<!-- Node2 -->
<g id="node2" class="node">
<title>Node2</title>
<g id="a_node2"><a xlink:href="structdim__t.html" target="_top" xlink:title="{dim_t\n||}">
<polygon fill="#ffffff" stroke="#000000" points="12.5,-105.5 12.5,-162.5 53.5,-162.5 53.5,-105.5 12.5,-105.5"/>
<text text-anchor="middle" x="33" y="-150.5" font-family="Helvetica,sans-Serif" font-size="10.00" fill="#000000">dim_t</text>
<polyline fill="none" stroke="#000000" points="12.5,-143.5 53.5,-143.5 "/>
<text text-anchor="middle" x="33" y="-131.5" font-family="Helvetica,sans-Serif" font-size="10.00" fill="#000000"> </text>
<polyline fill="none" stroke="#000000" points="12.5,-124.5 53.5,-124.5 "/>
<text text-anchor="middle" x="33" y="-112.5" font-family="Helvetica,sans-Serif" font-size="10.00" fill="#000000"> </text>
</a>
</g>
</g>
<!-- Node2&#45;&gt;Node1 -->
<g id="edge1" class="edge">
<title>Node2&#45;&gt;Node1</title>
<path fill="none" stroke="#404040" d="M33,-105.3083C33,-94.4281 33,-81.817 33,-70.0192"/>
<polygon fill="none" stroke="#404040" points="33.0001,-69.657 29,-63.6571 33,-57.657 37,-63.657 33.0001,-69.657"/>
<text text-anchor="middle" x="54.5" y="-79" font-family="Helvetica,sans-Serif" font-size="10.00" fill="#000000"> +lastPos</text>
</g>
<!-- Node3 -->
<g id="node3" class="node">
<title>Node3</title>
<polygon fill="#ffffff" stroke="#bfbfbf" points="5,-221.5 5,-278.5 61,-278.5 61,-221.5 5,-221.5"/>
<text text-anchor="middle" x="33" y="-266.5" font-family="Helvetica,sans-Serif" font-size="10.00" fill="#000000">long long</text>
<polyline fill="none" stroke="#bfbfbf" points="5,-259.5 61,-259.5 "/>
<text text-anchor="middle" x="33" y="-247.5" font-family="Helvetica,sans-Serif" font-size="10.00" fill="#000000"> </text>
<polyline fill="none" stroke="#bfbfbf" points="5,-240.5 61,-240.5 "/>
<text text-anchor="middle" x="33" y="-228.5" font-family="Helvetica,sans-Serif" font-size="10.00" fill="#000000"> </text>
</g>
<!-- Node3&#45;&gt;Node2 -->
<g id="edge2" class="edge">
<title>Node3&#45;&gt;Node2</title>
<path fill="none" stroke="#404040" d="M33,-221.3258C33,-207.3834 33,-190.3727 33,-175.0815"/>
<polygon fill="none" stroke="#404040" points="33.0001,-174.7463 29,-168.7464 33,-162.7463 37,-168.7463 33.0001,-174.7463"/>
<text text-anchor="middle" x="40.5" y="-195" font-family="Helvetica,sans-Serif" font-size="10.00" fill="#000000"> +x</text>
<text text-anchor="middle" x="40.5" y="-184" font-family="Helvetica,sans-Serif" font-size="10.00" fill="#000000">+y</text>
</g>
</g>
</svg>
