<?xml version="1.0" encoding="UTF-8" standalone="no"?>
<!DOCTYPE svg PUBLIC "-//W3C//DTD SVG 1.1//EN"
 "http://www.w3.org/Graphics/SVG/1.1/DTD/svg11.dtd">
<!-- Generated by graphviz version 2.40.1 (20161225.0304)
 -->
<!-- Title: cimg_library_suffixed::CImg::sort Pages: 1 -->
<svg width="323pt" height="417pt"
 viewBox="0.00 0.00 323.00 416.50" xmlns="http://www.w3.org/2000/svg" xmlns:xlink="http://www.w3.org/1999/xlink">
<g id="graph0" class="graph" transform="scale(1 1) rotate(0) translate(4 412.5)">
<title>cimg_library_suffixed::CImg::sort</title>
<polygon fill="#ffffff" stroke="transparent" points="-4,4 -4,-412.5 319,-412.5 319,4 -4,4"/>
<!-- Node3220 -->
<g id="node1" class="node">
<title>Node3220</title>
<polygon fill="#bfbfbf" stroke="#000000" points="0,-174.5 0,-204.5 109,-204.5 109,-174.5 0,-174.5"/>
<text text-anchor="start" x="8" y="-192.5" font-family="Helvetica,sans-Serif" font-size="10.00" fill="#000000">cimg_library_suffixed</text>
<text text-anchor="middle" x="54.5" y="-181.5" font-family="Helvetica,sans-Serif" font-size="10.00" fill="#000000">::CImg::sort</text>
</g>
<!-- Node3221 -->
<g id="node2" class="node">
<title>Node3221</title>
<g id="a_node2"><a xlink:href="structcimg__library__suffixed_1_1_c_img_1_1__cimg__math__parser.html#a318c44c5d1f4f0114355f37ace87a4ae" target="_top" xlink:title="cimg_library_suffixed\l::CImg::_cimg_math_parser\l::compile">
<polygon fill="#ffffff" stroke="#000000" points="161,-367 161,-408 299,-408 299,-367 161,-367"/>
<text text-anchor="start" x="169" y="-396" font-family="Helvetica,sans-Serif" font-size="10.00" fill="#000000">cimg_library_suffixed</text>
<text text-anchor="start" x="169" y="-385" font-family="Helvetica,sans-Serif" font-size="10.00" fill="#000000">::CImg::_cimg_math_parser</text>
<text text-anchor="middle" x="230" y="-374" font-family="Helvetica,sans-Serif" font-size="10.00" fill="#000000">::compile</text>
</a>
</g>
</g>
<!-- Node3220&#45;&gt;Node3221 -->
<g id="edge1" class="edge">
<title>Node3220&#45;&gt;Node3221</title>
<path fill="none" stroke="#191970" d="M61.6739,-214.7467C73.2987,-251.2602 99.6454,-318.675 145,-357.5 149.7553,-361.5707 155.0997,-365.1017 160.7331,-368.1623"/>
<polygon fill="#191970" stroke="#191970" points="64.9317,-213.4315 58.6576,-204.8942 58.2384,-215.4807 64.9317,-213.4315"/>
</g>
<!-- Node3222 -->
<g id="node3" class="node">
<title>Node3222</title>
<g id="a_node3"><a xlink:href="structcimg__library__suffixed_1_1_c_img.html#aba5835eafcb8746755d164f3f9d20b81" target="_top" xlink:title="Draw a filled 2d polygon. ">
<polygon fill="#ffffff" stroke="#000000" points="172,-307 172,-348 288,-348 288,-307 172,-307"/>
<text text-anchor="start" x="180" y="-336" font-family="Helvetica,sans-Serif" font-size="10.00" fill="#000000">cimg_library_suffixed</text>
<text text-anchor="start" x="180" y="-325" font-family="Helvetica,sans-Serif" font-size="10.00" fill="#000000">::CImg&lt; charT &gt;::draw</text>
<text text-anchor="middle" x="230" y="-314" font-family="Helvetica,sans-Serif" font-size="10.00" fill="#000000">_polygon</text>
</a>
</g>
</g>
<!-- Node3220&#45;&gt;Node3222 -->
<g id="edge2" class="edge">
<title>Node3220&#45;&gt;Node3222</title>
<path fill="none" stroke="#191970" d="M68.8934,-213.235C84.7518,-237.5432 112.38,-274.8799 145,-297.5 153.1016,-303.118 162.3635,-307.7878 171.7239,-311.6358"/>
<polygon fill="#191970" stroke="#191970" points="71.7284,-211.1708 63.4059,-204.6144 65.8233,-214.9298 71.7284,-211.1708"/>
</g>
<!-- Node3223 -->
<g id="node4" class="node">
<title>Node3223</title>
<g id="a_node4"><a xlink:href="structcimg__library__suffixed_1_1_c_img.html#a38c173e824721b1541e93d4cec9a1692" target="_top" xlink:title="Sort pixel values and get sorting permutations . ">
<polygon fill="#ffffff" stroke="#000000" points="164.5,-257.5 164.5,-287.5 295.5,-287.5 295.5,-257.5 164.5,-257.5"/>
<text text-anchor="start" x="172.5" y="-275.5" font-family="Helvetica,sans-Serif" font-size="10.00" fill="#000000">cimg_library_suffixed</text>
<text text-anchor="middle" x="230" y="-264.5" font-family="Helvetica,sans-Serif" font-size="10.00" fill="#000000">::CImg&lt; charT &gt;::get_sort</text>
</a>
</g>
</g>
<!-- Node3220&#45;&gt;Node3223 -->
<g id="edge3" class="edge">
<title>Node3220&#45;&gt;Node3223</title>
<path fill="none" stroke="#191970" d="M82.8737,-210.6603C100.1345,-222.7596 123.0237,-237.4745 145,-247.5 153.1168,-251.2029 161.9188,-254.5111 170.6788,-257.4136"/>
<polygon fill="#191970" stroke="#191970" points="84.5682,-207.5698 74.3951,-204.6103 80.5022,-213.2678 84.5682,-207.5698"/>
</g>
<!-- Node3224 -->
<g id="node5" class="node">
<title>Node3224</title>
<g id="a_node5"><a xlink:href="structcimg__library__suffixed_1_1_c_img_1_1__cimg__math__parser.html#a3dc8e03302dcf232f3f72dfd6f0feb96" target="_top" xlink:title="cimg_library_suffixed\l::CImg::_cimg_math_parser\l::mp_image_sort">
<polygon fill="#ffffff" stroke="#000000" points="161,-197 161,-238 299,-238 299,-197 161,-197"/>
<text text-anchor="start" x="169" y="-226" font-family="Helvetica,sans-Serif" font-size="10.00" fill="#000000">cimg_library_suffixed</text>
<text text-anchor="start" x="169" y="-215" font-family="Helvetica,sans-Serif" font-size="10.00" fill="#000000">::CImg::_cimg_math_parser</text>
<text text-anchor="middle" x="230" y="-204" font-family="Helvetica,sans-Serif" font-size="10.00" fill="#000000">::mp_image_sort</text>
</a>
</g>
</g>
<!-- Node3220&#45;&gt;Node3224 -->
<g id="edge4" class="edge">
<title>Node3220&#45;&gt;Node3224</title>
<path fill="none" stroke="#191970" d="M119.2628,-199.8325C132.8272,-201.9966 147.18,-204.2865 160.8956,-206.4748"/>
<polygon fill="#191970" stroke="#191970" points="119.4938,-196.3252 109.0673,-198.2059 118.3909,-203.2378 119.4938,-196.3252"/>
</g>
<!-- Node3225 -->
<g id="node6" class="node">
<title>Node3225</title>
<g id="a_node6"><a xlink:href="structcimg__library__suffixed_1_1_c_img.html#aa5a7f39985713471c4289a68040242a6" target="_top" xlink:title="Sort pixel values. ">
<polygon fill="#ffffff" stroke="#000000" points="174,-147.5 174,-177.5 286,-177.5 286,-147.5 174,-147.5"/>
<text text-anchor="start" x="182" y="-165.5" font-family="Helvetica,sans-Serif" font-size="10.00" fill="#000000">cimg_library_suffixed</text>
<text text-anchor="middle" x="230" y="-154.5" font-family="Helvetica,sans-Serif" font-size="10.00" fill="#000000">::CImg&lt; charT &gt;::sort</text>
</a>
</g>
</g>
<!-- Node3220&#45;&gt;Node3225 -->
<g id="edge5" class="edge">
<title>Node3220&#45;&gt;Node3225</title>
<path fill="none" stroke="#191970" d="M119.1759,-179.5499C137.1508,-176.7845 156.5162,-173.8052 173.9523,-171.1227"/>
<polygon fill="#191970" stroke="#191970" points="118.4188,-176.1251 109.0673,-181.105 119.4832,-183.0437 118.4188,-176.1251"/>
</g>
<!-- Node3226 -->
<g id="node7" class="node">
<title>Node3226</title>
<g id="a_node7"><a xlink:href="structcimg__library__suffixed_1_1_c_img.html#a33c8a817208b7aa571350457969e9dbe" target="_top" xlink:title="Compute the SVD of the instance image, viewed as a general matrix. ">
<polygon fill="#ffffff" stroke="#000000" points="172,-98.5 172,-128.5 288,-128.5 288,-98.5 172,-98.5"/>
<text text-anchor="start" x="180" y="-116.5" font-family="Helvetica,sans-Serif" font-size="10.00" fill="#000000">cimg_library_suffixed</text>
<text text-anchor="middle" x="230" y="-105.5" font-family="Helvetica,sans-Serif" font-size="10.00" fill="#000000">::CImg&lt; charT &gt;::SVD</text>
</a>
</g>
</g>
<!-- Node3220&#45;&gt;Node3226 -->
<g id="edge6" class="edge">
<title>Node3220&#45;&gt;Node3226</title>
<path fill="none" stroke="#191970" d="M86.831,-168.9069C103.7008,-158.7808 124.9542,-146.9661 145,-138.5 153.6437,-134.8494 162.9943,-131.5191 172.2241,-128.5637"/>
<polygon fill="#191970" stroke="#191970" points="84.6599,-166.1314 77.9454,-174.3269 88.3051,-172.1075 84.6599,-166.1314"/>
</g>
<!-- Node3227 -->
<g id="node8" class="node">
<title>Node3227</title>
<g id="a_node8"><a xlink:href="structcimg__library__suffixed_1_1_c_img.html#a53284105886c5eb684b26e7dba5ede66" target="_top" xlink:title="Compute eigenvalues and eigenvectors of the instance image, viewed as a symmetric matrix...">
<polygon fill="#ffffff" stroke="#000000" points="145,-49.5 145,-79.5 315,-79.5 315,-49.5 145,-49.5"/>
<text text-anchor="start" x="153" y="-67.5" font-family="Helvetica,sans-Serif" font-size="10.00" fill="#000000">cimg_library_suffixed</text>
<text text-anchor="middle" x="230" y="-56.5" font-family="Helvetica,sans-Serif" font-size="10.00" fill="#000000">::CImg&lt; charT &gt;::symmetric_eigen</text>
</a>
</g>
</g>
<!-- Node3220&#45;&gt;Node3227 -->
<g id="edge7" class="edge">
<title>Node3220&#45;&gt;Node3227</title>
<path fill="none" stroke="#191970" d="M70.0809,-165.7951C86.2267,-143.0378 113.4878,-109.2846 145,-89.5 151.1228,-85.6559 157.8625,-82.3806 164.7861,-79.5948"/>
<polygon fill="#191970" stroke="#191970" points="67.065,-164.0027 64.2548,-174.2181 72.822,-167.9848 67.065,-164.0027"/>
</g>
<!-- Node3228 -->
<g id="node9" class="node">
<title>Node3228</title>
<g id="a_node9"><a xlink:href="structcimg__library__suffixed_1_1_c_img.html#aae8fb87bbd9424e931c491a2f37676d4" target="_top" xlink:title="Return the variance as well as the average of the pixel values. ">
<polygon fill="#ffffff" stroke="#000000" points="149.5,-.5 149.5,-30.5 310.5,-30.5 310.5,-.5 149.5,-.5"/>
<text text-anchor="start" x="157.5" y="-18.5" font-family="Helvetica,sans-Serif" font-size="10.00" fill="#000000">cimg_library_suffixed</text>
<text text-anchor="middle" x="230" y="-7.5" font-family="Helvetica,sans-Serif" font-size="10.00" fill="#000000">::CImg&lt; charT &gt;::variance_mean</text>
</a>
</g>
</g>
<!-- Node3220&#45;&gt;Node3228 -->
<g id="edge8" class="edge">
<title>Node3220&#45;&gt;Node3228</title>
<path fill="none" stroke="#191970" d="M62.9636,-164.8605C75.6127,-131.6957 102.6002,-73.1026 145,-40.5 149.9995,-36.6557 155.5778,-33.4016 161.4214,-30.6471"/>
<polygon fill="#191970" stroke="#191970" points="59.6663,-163.6863 59.4972,-174.2797 66.2356,-166.1039 59.6663,-163.6863"/>
</g>
</g>
</svg>
