<?xml version="1.0" encoding="UTF-8" standalone="no"?>
<!DOCTYPE svg PUBLIC "-//W3C//DTD SVG 1.1//EN"
 "http://www.w3.org/Graphics/SVG/1.1/DTD/svg11.dtd">
<!-- Generated by graphviz version 2.40.1 (20161225.0304)
 -->
<!-- Title: cimg_library_suffixed::CImg::save Pages: 1 -->
<svg width="285pt" height="330pt"
 viewBox="0.00 0.00 285.00 330.00" xmlns="http://www.w3.org/2000/svg" xmlns:xlink="http://www.w3.org/1999/xlink">
<g id="graph0" class="graph" transform="scale(1 1) rotate(0) translate(4 326)">
<title>cimg_library_suffixed::CImg::save</title>
<polygon fill="#ffffff" stroke="transparent" points="-4,4 -4,-326 281,-326 281,4 -4,4"/>
<!-- Node2988 -->
<g id="node1" class="node">
<title>Node2988</title>
<polygon fill="#bfbfbf" stroke="#000000" points="0,-146 0,-176 109,-176 109,-146 0,-146"/>
<text text-anchor="start" x="8" y="-164" font-family="Helvetica,sans-Serif" font-size="10.00" fill="#000000">cimg_library_suffixed</text>
<text text-anchor="middle" x="54.5" y="-153" font-family="Helvetica,sans-Serif" font-size="10.00" fill="#000000">::CImg::save</text>
</g>
<!-- Node2989 -->
<g id="node2" class="node">
<title>Node2989</title>
<g id="a_node2"><a xlink:href="structcimg__library__suffixed_1_1_c_img.html#a8b40db5a9818c3f961a90840b271de6c" target="_top" xlink:title="cimg_library_suffixed\l::CImg\&lt; charT \&gt;::_display\l_object3d">
<polygon fill="#ffffff" stroke="#000000" points="145.5,-280.5 145.5,-321.5 276.5,-321.5 276.5,-280.5 145.5,-280.5"/>
<text text-anchor="start" x="153.5" y="-309.5" font-family="Helvetica,sans-Serif" font-size="10.00" fill="#000000">cimg_library_suffixed</text>
<text text-anchor="start" x="153.5" y="-298.5" font-family="Helvetica,sans-Serif" font-size="10.00" fill="#000000">::CImg&lt; charT &gt;::_display</text>
<text text-anchor="middle" x="211" y="-287.5" font-family="Helvetica,sans-Serif" font-size="10.00" fill="#000000">_object3d</text>
</a>
</g>
</g>
<!-- Node2988&#45;&gt;Node2989 -->
<g id="edge1" class="edge">
<title>Node2988&#45;&gt;Node2989</title>
<path fill="none" stroke="#191970" d="M69.2084,-184.6156C85.3254,-208.9153 113.1633,-246.5713 145,-271 149.4935,-274.4479 154.4466,-277.6107 159.5589,-280.482"/>
<polygon fill="#191970" stroke="#191970" points="72.003,-182.4926 63.6214,-176.012 66.1322,-186.305 72.003,-182.4926"/>
</g>
<!-- Node2990 -->
<g id="node3" class="node">
<title>Node2990</title>
<g id="a_node3"><a xlink:href="structcimg__library__suffixed_1_1_c_img.html#ad9b7141242d0b6e861a8014112ddb5b5" target="_top" xlink:title="cimg_library_suffixed\l::CImg\&lt; charT \&gt;::_select">
<polygon fill="#ffffff" stroke="#000000" points="147.5,-231 147.5,-261 274.5,-261 274.5,-231 147.5,-231"/>
<text text-anchor="start" x="155.5" y="-249" font-family="Helvetica,sans-Serif" font-size="10.00" fill="#000000">cimg_library_suffixed</text>
<text text-anchor="middle" x="211" y="-238" font-family="Helvetica,sans-Serif" font-size="10.00" fill="#000000">::CImg&lt; charT &gt;::_select</text>
</a>
</g>
</g>
<!-- Node2988&#45;&gt;Node2990 -->
<g id="edge2" class="edge">
<title>Node2988&#45;&gt;Node2990</title>
<path fill="none" stroke="#191970" d="M83.0668,-182.3317C100.3949,-194.6537 123.2871,-209.8674 145,-221 151.9781,-224.5778 159.5921,-227.9291 167.088,-230.9437"/>
<polygon fill="#191970" stroke="#191970" points="84.7064,-179.199 74.5482,-176.1887 80.612,-184.8767 84.7064,-179.199"/>
</g>
<!-- Node2991 -->
<g id="node4" class="node">
<title>Node2991</title>
<g id="a_node4"><a xlink:href="structcimg__library__suffixed_1_1_c_img_list.html#af8a6b01f20b2d459e5abe6b99836ea9a" target="_top" xlink:title="cimg_library_suffixed\l::CImgList\&lt; charT \&gt;::\l_select">
<polygon fill="#ffffff" stroke="#000000" points="155.5,-170.5 155.5,-211.5 266.5,-211.5 266.5,-170.5 155.5,-170.5"/>
<text text-anchor="start" x="163.5" y="-199.5" font-family="Helvetica,sans-Serif" font-size="10.00" fill="#000000">cimg_library_suffixed</text>
<text text-anchor="start" x="163.5" y="-188.5" font-family="Helvetica,sans-Serif" font-size="10.00" fill="#000000">::CImgList&lt; charT &gt;::</text>
<text text-anchor="middle" x="211" y="-177.5" font-family="Helvetica,sans-Serif" font-size="10.00" fill="#000000">_select</text>
</a>
</g>
</g>
<!-- Node2988&#45;&gt;Node2991 -->
<g id="edge3" class="edge">
<title>Node2988&#45;&gt;Node2991</title>
<path fill="none" stroke="#191970" d="M119.1662,-173.3961C131.1408,-175.6915 143.5533,-178.0709 155.2351,-180.3102"/>
<polygon fill="#191970" stroke="#191970" points="119.7162,-169.9379 109.2361,-171.4925 118.3983,-176.8127 119.7162,-169.9379"/>
</g>
<!-- Node2992 -->
<g id="node5" class="node">
<title>Node2992</title>
<g id="a_node5"><a xlink:href="structcimg__library__suffixed_1_1_c_img.html#a689f47424dc7c548ebfe53e431409199" target="_top" xlink:title="Select sub&#45;graph in a graph. ">
<polygon fill="#ffffff" stroke="#000000" points="156.5,-110.5 156.5,-151.5 265.5,-151.5 265.5,-110.5 156.5,-110.5"/>
<text text-anchor="start" x="164.5" y="-139.5" font-family="Helvetica,sans-Serif" font-size="10.00" fill="#000000">cimg_library_suffixed</text>
<text text-anchor="start" x="164.5" y="-128.5" font-family="Helvetica,sans-Serif" font-size="10.00" fill="#000000">::CImg&lt; charT &gt;::get</text>
<text text-anchor="middle" x="211" y="-117.5" font-family="Helvetica,sans-Serif" font-size="10.00" fill="#000000">_select_graph</text>
</a>
</g>
</g>
<!-- Node2988&#45;&gt;Node2992 -->
<g id="edge4" class="edge">
<title>Node2988&#45;&gt;Node2992</title>
<path fill="none" stroke="#191970" d="M119.4043,-148.5583C131.6683,-146.2074 144.3829,-143.7701 156.2948,-141.4866"/>
<polygon fill="#191970" stroke="#191970" points="118.3983,-145.1873 109.2361,-150.5075 119.7162,-152.0621 118.3983,-145.1873"/>
</g>
<!-- Node2993 -->
<g id="node6" class="node">
<title>Node2993</title>
<g id="a_node6"><a xlink:href="structcimg__library__suffixed_1_1_c_img_list.html#a7186fe44f8d6ce58583e3177ff802445" target="_top" xlink:title="Save list into a file. ">
<polygon fill="#ffffff" stroke="#000000" points="145,-61 145,-91 277,-91 277,-61 145,-61"/>
<text text-anchor="start" x="153" y="-79" font-family="Helvetica,sans-Serif" font-size="10.00" fill="#000000">cimg_library_suffixed</text>
<text text-anchor="middle" x="211" y="-68" font-family="Helvetica,sans-Serif" font-size="10.00" fill="#000000">::CImgList&lt; charT &gt;::save</text>
</a>
</g>
</g>
<!-- Node2988&#45;&gt;Node2993 -->
<g id="edge5" class="edge">
<title>Node2988&#45;&gt;Node2993</title>
<path fill="none" stroke="#191970" d="M83.0668,-139.6683C100.3949,-127.3463 123.2871,-112.1326 145,-101 151.9781,-97.4222 159.5921,-94.0709 167.088,-91.0563"/>
<polygon fill="#191970" stroke="#191970" points="80.612,-137.1233 74.5482,-145.8113 84.7064,-142.801 80.612,-137.1233"/>
</g>
<!-- Node2994 -->
<g id="node7" class="node">
<title>Node2994</title>
<g id="a_node7"><a xlink:href="structcimg__library__suffixed_1_1_c_img_list.html#a759ef20b53f1e507973dc53fcc2c7bb2" target="_top" xlink:title="Save image sequence as a GIF animated file. ">
<polygon fill="#ffffff" stroke="#000000" points="155.5,-.5 155.5,-41.5 266.5,-41.5 266.5,-.5 155.5,-.5"/>
<text text-anchor="start" x="163.5" y="-29.5" font-family="Helvetica,sans-Serif" font-size="10.00" fill="#000000">cimg_library_suffixed</text>
<text text-anchor="start" x="163.5" y="-18.5" font-family="Helvetica,sans-Serif" font-size="10.00" fill="#000000">::CImgList&lt; charT &gt;::</text>
<text text-anchor="middle" x="211" y="-7.5" font-family="Helvetica,sans-Serif" font-size="10.00" fill="#000000">save_gif_external</text>
</a>
</g>
</g>
<!-- Node2988&#45;&gt;Node2994 -->
<g id="edge6" class="edge">
<title>Node2988&#45;&gt;Node2994</title>
<path fill="none" stroke="#191970" d="M69.5836,-137.2913C85.828,-113.272 113.6055,-76.2895 145,-52 149.9061,-48.2042 155.3521,-44.7258 160.9516,-41.5822"/>
<polygon fill="#191970" stroke="#191970" points="66.5457,-135.5396 63.9389,-145.8088 72.3807,-139.4066 66.5457,-135.5396"/>
</g>
</g>
</svg>
