<?xml version="1.0" encoding="UTF-8" standalone="no"?>
<!DOCTYPE svg PUBLIC "-//W3C//DTD SVG 1.1//EN"
 "http://www.w3.org/Graphics/SVG/1.1/DTD/svg11.dtd">
<!-- Generated by graphviz version 2.40.1 (20161225.0304)
 -->
<!-- Title: cimg_library_suffixed::CImg::get_atan Pages: 1 -->
<svg width="436pt" height="160pt"
 viewBox="0.00 0.00 436.00 159.50" xmlns="http://www.w3.org/2000/svg" xmlns:xlink="http://www.w3.org/1999/xlink">
<g id="graph0" class="graph" transform="scale(1 1) rotate(0) translate(4 155.5)">
<title>cimg_library_suffixed::CImg::get_atan</title>
<polygon fill="#ffffff" stroke="transparent" points="-4,4 -4,-155.5 432,-155.5 432,4 -4,4"/>
<!-- Node1295 -->
<g id="node1" class="node">
<title>Node1295</title>
<polygon fill="#bfbfbf" stroke="#000000" points="0,-66 0,-96 109,-96 109,-66 0,-66"/>
<text text-anchor="start" x="8" y="-84" font-family="Helvetica,sans-Serif" font-size="10.00" fill="#000000">cimg_library_suffixed</text>
<text text-anchor="middle" x="54.5" y="-73" font-family="Helvetica,sans-Serif" font-size="10.00" fill="#000000">::CImg::get_atan</text>
</g>
<!-- Node1296 -->
<g id="node2" class="node">
<title>Node1296</title>
<g id="a_node2"><a xlink:href="namespacecimg__library__suffixed.html#ad67ec1fcb333b3ae29c6f98ff68e9364" target="_top" xlink:title="cimg_library_suffixed\l::atan">
<polygon fill="#ffffff" stroke="#000000" points="145,-66 145,-96 254,-96 254,-66 145,-66"/>
<text text-anchor="start" x="153" y="-84" font-family="Helvetica,sans-Serif" font-size="10.00" fill="#000000">cimg_library_suffixed</text>
<text text-anchor="middle" x="199.5" y="-73" font-family="Helvetica,sans-Serif" font-size="10.00" fill="#000000">::atan</text>
</a>
</g>
</g>
<!-- Node1295&#45;&gt;Node1296 -->
<g id="edge1" class="edge">
<title>Node1295&#45;&gt;Node1296</title>
<path fill="none" stroke="#191970" d="M119.4621,-74.2825C127.8588,-74.2098 136.3919,-74.259 144.6042,-74.4301"/>
<polygon fill="#191970" stroke="#191970" points="119.2657,-70.7849 109.3183,-74.4317 119.3687,-77.7842 119.2657,-70.7849"/>
</g>
<!-- Node1296&#45;&gt;Node1295 -->
<g id="edge4" class="edge">
<title>Node1296&#45;&gt;Node1295</title>
<path fill="none" stroke="#191970" d="M134.4586,-87.7181C126.0611,-87.7901 117.5286,-87.7402 109.3183,-87.5683"/>
<polygon fill="#191970" stroke="#191970" points="134.6564,-91.2157 144.6042,-87.5699 134.5541,-84.2165 134.6564,-91.2157"/>
</g>
<!-- Node1297 -->
<g id="node3" class="node">
<title>Node1297</title>
<g id="a_node3"><a xlink:href="structcimg__library__suffixed_1_1_c_img.html#a21e3f3a1c301bff2304d0cf2c0f0b8cf" target="_top" xlink:title="Compute the arctangent of each pixel value. ">
<polygon fill="#ffffff" stroke="#000000" points="302,-121 302,-151 416,-151 416,-121 302,-121"/>
<text text-anchor="start" x="310" y="-139" font-family="Helvetica,sans-Serif" font-size="10.00" fill="#000000">cimg_library_suffixed</text>
<text text-anchor="middle" x="359" y="-128" font-family="Helvetica,sans-Serif" font-size="10.00" fill="#000000">::CImg&lt; charT &gt;::atan</text>
</a>
</g>
</g>
<!-- Node1296&#45;&gt;Node1297 -->
<g id="edge2" class="edge">
<title>Node1296&#45;&gt;Node1297</title>
<path fill="none" stroke="#191970" d="M252.5634,-99.2977C272.9854,-106.3398 296.0465,-114.2919 315.4686,-120.9892"/>
<polygon fill="#191970" stroke="#191970" points="253.6788,-95.9802 243.0841,-96.029 251.3968,-102.5978 253.6788,-95.9802"/>
</g>
<!-- Node1298 -->
<g id="node4" class="node">
<title>Node1298</title>
<g id="a_node4"><a xlink:href="structcimg__library__suffixed_1_1_c_img_1_1__cimg__math__parser.html#a318c44c5d1f4f0114355f37ace87a4ae" target="_top" xlink:title="cimg_library_suffixed\l::CImg::_cimg_math_parser\l::compile">
<polygon fill="#ffffff" stroke="#000000" points="290,-60.5 290,-101.5 428,-101.5 428,-60.5 290,-60.5"/>
<text text-anchor="start" x="298" y="-89.5" font-family="Helvetica,sans-Serif" font-size="10.00" fill="#000000">cimg_library_suffixed</text>
<text text-anchor="start" x="298" y="-78.5" font-family="Helvetica,sans-Serif" font-size="10.00" fill="#000000">::CImg::_cimg_math_parser</text>
<text text-anchor="middle" x="359" y="-67.5" font-family="Helvetica,sans-Serif" font-size="10.00" fill="#000000">::compile</text>
</a>
</g>
</g>
<!-- Node1296&#45;&gt;Node1298 -->
<g id="edge3" class="edge">
<title>Node1296&#45;&gt;Node1298</title>
<path fill="none" stroke="#191970" d="M264.4793,-81C272.8632,-81 281.4728,-81 289.9198,-81"/>
<polygon fill="#191970" stroke="#191970" points="264.3909,-77.5001 254.3909,-81 264.3908,-84.5001 264.3909,-77.5001"/>
</g>
<!-- Node1299 -->
<g id="node5" class="node">
<title>Node1299</title>
<g id="a_node5"><a xlink:href="structcimg__library__suffixed_1_1_c_img_1_1__cimg__math__parser.html#aafe10ff06417cc9efa3e5dea3c5a4b3f" target="_top" xlink:title="cimg_library_suffixed\l::CImg::_cimg_math_parser\l::mp_atan">
<polygon fill="#ffffff" stroke="#000000" points="290,-.5 290,-41.5 428,-41.5 428,-.5 290,-.5"/>
<text text-anchor="start" x="298" y="-29.5" font-family="Helvetica,sans-Serif" font-size="10.00" fill="#000000">cimg_library_suffixed</text>
<text text-anchor="start" x="298" y="-18.5" font-family="Helvetica,sans-Serif" font-size="10.00" fill="#000000">::CImg::_cimg_math_parser</text>
<text text-anchor="middle" x="359" y="-7.5" font-family="Helvetica,sans-Serif" font-size="10.00" fill="#000000">::mp_atan</text>
</a>
</g>
</g>
<!-- Node1296&#45;&gt;Node1299 -->
<g id="edge5" class="edge">
<title>Node1296&#45;&gt;Node1299</title>
<path fill="none" stroke="#191970" d="M249.2041,-62.3025C266.6892,-55.7251 286.4312,-48.2986 304.3044,-41.5751"/>
<polygon fill="#191970" stroke="#191970" points="247.8759,-59.0626 239.7486,-65.8595 250.3406,-65.6144 247.8759,-59.0626"/>
</g>
</g>
</svg>
