<?xml version="1.0" encoding="UTF-8" standalone="no"?>
<!DOCTYPE svg PUBLIC "-//W3C//DTD SVG 1.1//EN"
 "http://www.w3.org/Graphics/SVG/1.1/DTD/svg11.dtd">
<!-- Generated by graphviz version 2.40.1 (20161225.0304)
 -->
<!-- Title: cimg_library_suffixed::CImg::atXYZC Pages: 1 -->
<svg width="291pt" height="350pt"
 viewBox="0.00 0.00 291.00 350.00" xmlns="http://www.w3.org/2000/svg" xmlns:xlink="http://www.w3.org/1999/xlink">
<g id="graph0" class="graph" transform="scale(1 1) rotate(0) translate(4 346)">
<title>cimg_library_suffixed::CImg::atXYZC</title>
<polygon fill="#ffffff" stroke="transparent" points="-4,4 -4,-346 287,-346 287,4 -4,4"/>
<!-- Node540 -->
<g id="node1" class="node">
<title>Node540</title>
<polygon fill="#bfbfbf" stroke="#000000" points="0,-156 0,-186 109,-186 109,-156 0,-156"/>
<text text-anchor="start" x="8" y="-174" font-family="Helvetica,sans-Serif" font-size="10.00" fill="#000000">cimg_library_suffixed</text>
<text text-anchor="middle" x="54.5" y="-163" font-family="Helvetica,sans-Serif" font-size="10.00" fill="#000000">::CImg::atXYZC</text>
</g>
<!-- Node541 -->
<g id="node2" class="node">
<title>Node541</title>
<g id="a_node2"><a xlink:href="structcimg__library__suffixed_1_1_c_img_list.html#a6460f15169915e51268e62d8c2fd4c28" target="_top" xlink:title="cimg_library_suffixed\l::CImgList\&lt; charT \&gt;::\l_atNXYZC">
<polygon fill="#ffffff" stroke="#000000" points="158.5,-300.5 158.5,-341.5 269.5,-341.5 269.5,-300.5 158.5,-300.5"/>
<text text-anchor="start" x="166.5" y="-329.5" font-family="Helvetica,sans-Serif" font-size="10.00" fill="#000000">cimg_library_suffixed</text>
<text text-anchor="start" x="166.5" y="-318.5" font-family="Helvetica,sans-Serif" font-size="10.00" fill="#000000">::CImgList&lt; charT &gt;::</text>
<text text-anchor="middle" x="214" y="-307.5" font-family="Helvetica,sans-Serif" font-size="10.00" fill="#000000">_atNXYZC</text>
</a>
</g>
</g>
<!-- Node540&#45;&gt;Node541 -->
<g id="edge1" class="edge">
<title>Node540&#45;&gt;Node541</title>
<path fill="none" stroke="#191970" d="M67.6727,-195.2908C83.1413,-221.869 111.0483,-264.2461 145,-291 149.4117,-294.4764 154.2881,-297.6314 159.3486,-300.4748"/>
<polygon fill="#191970" stroke="#191970" points="70.5316,-193.2374 62.5483,-186.2719 64.4453,-196.6955 70.5316,-193.2374"/>
</g>
<!-- Node542 -->
<g id="node3" class="node">
<title>Node542</title>
<g id="a_node3"><a xlink:href="structcimg__library__suffixed_1_1_c_img_list.html#ab8413990f4da9c946b2506c768d3e90b" target="_top" xlink:title="Access to pixel value with Dirichlet boundary conditions . ">
<polygon fill="#ffffff" stroke="#000000" points="158.5,-240.5 158.5,-281.5 269.5,-281.5 269.5,-240.5 158.5,-240.5"/>
<text text-anchor="start" x="166.5" y="-269.5" font-family="Helvetica,sans-Serif" font-size="10.00" fill="#000000">cimg_library_suffixed</text>
<text text-anchor="start" x="166.5" y="-258.5" font-family="Helvetica,sans-Serif" font-size="10.00" fill="#000000">::CImgList&lt; charT &gt;::</text>
<text text-anchor="middle" x="214" y="-247.5" font-family="Helvetica,sans-Serif" font-size="10.00" fill="#000000">atNXYZC</text>
</a>
</g>
</g>
<!-- Node540&#45;&gt;Node542 -->
<g id="edge2" class="edge">
<title>Node540&#45;&gt;Node542</title>
<path fill="none" stroke="#191970" d="M83.6115,-192.1927C100.9666,-204.3412 123.7017,-219.4258 145,-231 150.9681,-234.2433 157.3586,-237.4068 163.7537,-240.3891"/>
<polygon fill="#191970" stroke="#191970" points="85.2468,-189.0621 75.0624,-186.1416 81.2026,-194.7757 85.2468,-189.0621"/>
</g>
<!-- Node543 -->
<g id="node4" class="node">
<title>Node543</title>
<g id="a_node4"><a xlink:href="structcimg__library__suffixed_1_1_c_img_1_1__cimg__math__parser.html#adccb19bacb29f24ee9b582ffdab1ce87" target="_top" xlink:title="cimg_library_suffixed\l::CImg::_cimg_math_parser\l::mp_ixyzc">
<polygon fill="#ffffff" stroke="#000000" points="145,-180.5 145,-221.5 283,-221.5 283,-180.5 145,-180.5"/>
<text text-anchor="start" x="153" y="-209.5" font-family="Helvetica,sans-Serif" font-size="10.00" fill="#000000">cimg_library_suffixed</text>
<text text-anchor="start" x="153" y="-198.5" font-family="Helvetica,sans-Serif" font-size="10.00" fill="#000000">::CImg::_cimg_math_parser</text>
<text text-anchor="middle" x="214" y="-187.5" font-family="Helvetica,sans-Serif" font-size="10.00" fill="#000000">::mp_ixyzc</text>
</a>
</g>
</g>
<!-- Node540&#45;&gt;Node543 -->
<g id="edge3" class="edge">
<title>Node540&#45;&gt;Node543</title>
<path fill="none" stroke="#191970" d="M119.4793,-183.2218C127.8632,-184.7987 136.4728,-186.4181 144.9198,-188.0069"/>
<polygon fill="#191970" stroke="#191970" points="119.8655,-179.7332 109.3909,-181.3243 118.5715,-186.6125 119.8655,-179.7332"/>
</g>
<!-- Node544 -->
<g id="node5" class="node">
<title>Node544</title>
<g id="a_node5"><a xlink:href="structcimg__library__suffixed_1_1_c_img_1_1__cimg__math__parser.html#ab65aef2aad83c05094346595eebd5051" target="_top" xlink:title="cimg_library_suffixed\l::CImg::_cimg_math_parser\l::mp_jxyzc">
<polygon fill="#ffffff" stroke="#000000" points="145,-120.5 145,-161.5 283,-161.5 283,-120.5 145,-120.5"/>
<text text-anchor="start" x="153" y="-149.5" font-family="Helvetica,sans-Serif" font-size="10.00" fill="#000000">cimg_library_suffixed</text>
<text text-anchor="start" x="153" y="-138.5" font-family="Helvetica,sans-Serif" font-size="10.00" fill="#000000">::CImg::_cimg_math_parser</text>
<text text-anchor="middle" x="214" y="-127.5" font-family="Helvetica,sans-Serif" font-size="10.00" fill="#000000">::mp_jxyzc</text>
</a>
</g>
</g>
<!-- Node540&#45;&gt;Node544 -->
<g id="edge4" class="edge">
<title>Node540&#45;&gt;Node544</title>
<path fill="none" stroke="#191970" d="M119.4793,-158.7782C127.8632,-157.2013 136.4728,-155.5819 144.9198,-153.9931"/>
<polygon fill="#191970" stroke="#191970" points="118.5715,-155.3875 109.3909,-160.6757 119.8655,-162.2668 118.5715,-155.3875"/>
</g>
<!-- Node545 -->
<g id="node6" class="node">
<title>Node545</title>
<g id="a_node6"><a xlink:href="structcimg__library__suffixed_1_1_c_img_1_1__cimg__math__parser.html#af4383fa9613e2534570a889e24d06b5a" target="_top" xlink:title="cimg_library_suffixed\l::CImg::_cimg_math_parser\l::mp_list_ixyzc">
<polygon fill="#ffffff" stroke="#000000" points="145,-60.5 145,-101.5 283,-101.5 283,-60.5 145,-60.5"/>
<text text-anchor="start" x="153" y="-89.5" font-family="Helvetica,sans-Serif" font-size="10.00" fill="#000000">cimg_library_suffixed</text>
<text text-anchor="start" x="153" y="-78.5" font-family="Helvetica,sans-Serif" font-size="10.00" fill="#000000">::CImg::_cimg_math_parser</text>
<text text-anchor="middle" x="214" y="-67.5" font-family="Helvetica,sans-Serif" font-size="10.00" fill="#000000">::mp_list_ixyzc</text>
</a>
</g>
</g>
<!-- Node540&#45;&gt;Node545 -->
<g id="edge5" class="edge">
<title>Node540&#45;&gt;Node545</title>
<path fill="none" stroke="#191970" d="M83.6115,-149.8073C100.9666,-137.6588 123.7017,-122.5742 145,-111 150.9681,-107.7567 157.3586,-104.5932 163.7537,-101.6109"/>
<polygon fill="#191970" stroke="#191970" points="81.2026,-147.2243 75.0624,-155.8584 85.2468,-152.9379 81.2026,-147.2243"/>
</g>
<!-- Node546 -->
<g id="node7" class="node">
<title>Node546</title>
<g id="a_node7"><a xlink:href="structcimg__library__suffixed_1_1_c_img_1_1__cimg__math__parser.html#a1f3648a3f11256430d982c9c6e8debe4" target="_top" xlink:title="cimg_library_suffixed\l::CImg::_cimg_math_parser\l::mp_list_jxyzc">
<polygon fill="#ffffff" stroke="#000000" points="145,-.5 145,-41.5 283,-41.5 283,-.5 145,-.5"/>
<text text-anchor="start" x="153" y="-29.5" font-family="Helvetica,sans-Serif" font-size="10.00" fill="#000000">cimg_library_suffixed</text>
<text text-anchor="start" x="153" y="-18.5" font-family="Helvetica,sans-Serif" font-size="10.00" fill="#000000">::CImg::_cimg_math_parser</text>
<text text-anchor="middle" x="214" y="-7.5" font-family="Helvetica,sans-Serif" font-size="10.00" fill="#000000">::mp_list_jxyzc</text>
</a>
</g>
</g>
<!-- Node540&#45;&gt;Node546 -->
<g id="edge6" class="edge">
<title>Node540&#45;&gt;Node546</title>
<path fill="none" stroke="#191970" d="M67.6727,-146.7092C83.1413,-120.131 111.0483,-77.7539 145,-51 149.4117,-47.5236 154.2881,-44.3686 159.3486,-41.5252"/>
<polygon fill="#191970" stroke="#191970" points="64.4453,-145.3045 62.5483,-155.7281 70.5316,-148.7626 64.4453,-145.3045"/>
</g>
</g>
</svg>
