<?xml version="1.0" encoding="UTF-8" standalone="no"?>
<!DOCTYPE svg PUBLIC "-//W3C//DTD SVG 1.1//EN"
 "http://www.w3.org/Graphics/SVG/1.1/DTD/svg11.dtd">
<!-- Generated by graphviz version 2.40.1 (20161225.0304)
 -->
<!-- Title: cimg_library_suffixed::CImgList::is_empty Pages: 1 -->
<svg width="522pt" height="170pt"
 viewBox="0.00 0.00 522.00 170.00" xmlns="http://www.w3.org/2000/svg" xmlns:xlink="http://www.w3.org/1999/xlink">
<g id="graph0" class="graph" transform="scale(1 1) rotate(0) translate(4 166)">
<title>cimg_library_suffixed::CImgList::is_empty</title>
<polygon fill="#ffffff" stroke="transparent" points="-4,4 -4,-166 518,-166 518,4 -4,4"/>
<!-- Node416 -->
<g id="node1" class="node">
<title>Node416</title>
<polygon fill="#bfbfbf" stroke="#000000" points="0,-93 0,-123 109,-123 109,-93 0,-93"/>
<text text-anchor="start" x="8" y="-111" font-family="Helvetica,sans-Serif" font-size="10.00" fill="#000000">cimg_library_suffixed</text>
<text text-anchor="middle" x="54.5" y="-100" font-family="Helvetica,sans-Serif" font-size="10.00" fill="#000000">::CImgList::is_empty</text>
</g>
<!-- Node417 -->
<g id="node2" class="node">
<title>Node417</title>
<g id="a_node2"><a xlink:href="structcimg__library__suffixed_1_1_c_img.html#a6e521f19387cd39d23a41f0aee190221" target="_top" xlink:title="cimg_library_suffixed\l::CImg\&lt; charT \&gt;::__draw\l_object3d">
<polygon fill="#ffffff" stroke="#000000" points="161.5,-115.5 161.5,-156.5 288.5,-156.5 288.5,-115.5 161.5,-115.5"/>
<text text-anchor="start" x="169.5" y="-144.5" font-family="Helvetica,sans-Serif" font-size="10.00" fill="#000000">cimg_library_suffixed</text>
<text text-anchor="start" x="169.5" y="-133.5" font-family="Helvetica,sans-Serif" font-size="10.00" fill="#000000">::CImg&lt; charT &gt;::__draw</text>
<text text-anchor="middle" x="225" y="-122.5" font-family="Helvetica,sans-Serif" font-size="10.00" fill="#000000">_object3d</text>
</a>
</g>
</g>
<!-- Node416&#45;&gt;Node417 -->
<g id="edge1" class="edge">
<title>Node416&#45;&gt;Node417</title>
<path fill="none" stroke="#191970" d="M119.2613,-118.6353C133.0385,-120.8978 147.5746,-123.285 161.3113,-125.5409"/>
<polygon fill="#191970" stroke="#191970" points="119.8208,-115.1804 109.3858,-117.0135 118.6864,-122.0878 119.8208,-115.1804"/>
</g>
<!-- Node418 -->
<g id="node3" class="node">
<title>Node418</title>
<g id="a_node3"><a xlink:href="structcimg__library__suffixed_1_1_c_img_1_1__cimg__math__parser.html#a6707c6d516122d4e601391d6d0d608bc" target="_top" xlink:title="cimg_library_suffixed\l::CImg::_cimg_math_parser::end">
<polygon fill="#ffffff" stroke="#000000" points="145,-66 145,-96 305,-96 305,-66 145,-66"/>
<text text-anchor="start" x="153" y="-84" font-family="Helvetica,sans-Serif" font-size="10.00" fill="#000000">cimg_library_suffixed</text>
<text text-anchor="middle" x="225" y="-73" font-family="Helvetica,sans-Serif" font-size="10.00" fill="#000000">::CImg::_cimg_math_parser::end</text>
</a>
</g>
</g>
<!-- Node416&#45;&gt;Node418 -->
<g id="edge2" class="edge">
<title>Node416&#45;&gt;Node418</title>
<path fill="none" stroke="#191970" d="M119.3605,-97.7288C127.6683,-96.4132 136.2506,-95.0542 144.766,-93.7057"/>
<polygon fill="#191970" stroke="#191970" points="118.7152,-94.2873 109.3858,-99.3084 119.8102,-101.2012 118.7152,-94.2873"/>
</g>
<!-- Node419 -->
<g id="node4" class="node">
<title>Node419</title>
<g id="a_node4"><a xlink:href="structcimg__library__suffixed_1_1_c_img_1_1__functor2d__expr.html#aa62f7b3ab95d5897ec18a179b2777dfa" target="_top" xlink:title="cimg_library_suffixed\l::CImg::_functor2d_expr\l::~_functor2d_expr">
<polygon fill="#ffffff" stroke="#000000" points="366.5,-120.5 366.5,-161.5 488.5,-161.5 488.5,-120.5 366.5,-120.5"/>
<text text-anchor="start" x="374.5" y="-149.5" font-family="Helvetica,sans-Serif" font-size="10.00" fill="#000000">cimg_library_suffixed</text>
<text text-anchor="start" x="374.5" y="-138.5" font-family="Helvetica,sans-Serif" font-size="10.00" fill="#000000">::CImg::_functor2d_expr</text>
<text text-anchor="middle" x="427.5" y="-127.5" font-family="Helvetica,sans-Serif" font-size="10.00" fill="#000000">::~_functor2d_expr</text>
</a>
</g>
</g>
<!-- Node418&#45;&gt;Node419 -->
<g id="edge3" class="edge">
<title>Node418&#45;&gt;Node419</title>
<path fill="none" stroke="#191970" d="M285.7297,-98.994C311.1587,-106.5285 340.6715,-115.273 366.1648,-122.8266"/>
<polygon fill="#191970" stroke="#191970" points="286.4202,-95.5482 275.8379,-96.0631 284.4316,-102.2598 286.4202,-95.5482"/>
</g>
<!-- Node420 -->
<g id="node5" class="node">
<title>Node420</title>
<g id="a_node5"><a xlink:href="structcimg__library__suffixed_1_1_c_img_1_1__functor3d__expr.html#a06b123f343ca7d0805a8ef4b7544ed80" target="_top" xlink:title="cimg_library_suffixed\l::CImg::_functor3d_expr\l::~_functor3d_expr">
<polygon fill="#ffffff" stroke="#000000" points="366.5,-60.5 366.5,-101.5 488.5,-101.5 488.5,-60.5 366.5,-60.5"/>
<text text-anchor="start" x="374.5" y="-89.5" font-family="Helvetica,sans-Serif" font-size="10.00" fill="#000000">cimg_library_suffixed</text>
<text text-anchor="start" x="374.5" y="-78.5" font-family="Helvetica,sans-Serif" font-size="10.00" fill="#000000">::CImg::_functor3d_expr</text>
<text text-anchor="middle" x="427.5" y="-67.5" font-family="Helvetica,sans-Serif" font-size="10.00" fill="#000000">::~_functor3d_expr</text>
</a>
</g>
</g>
<!-- Node418&#45;&gt;Node420 -->
<g id="edge4" class="edge">
<title>Node418&#45;&gt;Node420</title>
<path fill="none" stroke="#191970" d="M315.1816,-81C332.5301,-81 350.3173,-81 366.473,-81"/>
<polygon fill="#191970" stroke="#191970" points="315.0334,-77.5001 305.0334,-81 315.0333,-84.5001 315.0334,-77.5001"/>
</g>
<!-- Node421 -->
<g id="node6" class="node">
<title>Node421</title>
<g id="a_node6"><a xlink:href="structcimg__library__suffixed_1_1_c_img_1_1__functor4d__streamline__expr.html#ab73048a58fd20fe9586f11445227a0b1" target="_top" xlink:title="cimg_library_suffixed\l::CImg::_functor4d_streamline\l_expr::~_functor4d_streamline_expr">
<polygon fill="#ffffff" stroke="#000000" points="341,-.5 341,-41.5 514,-41.5 514,-.5 341,-.5"/>
<text text-anchor="start" x="349" y="-29.5" font-family="Helvetica,sans-Serif" font-size="10.00" fill="#000000">cimg_library_suffixed</text>
<text text-anchor="start" x="349" y="-18.5" font-family="Helvetica,sans-Serif" font-size="10.00" fill="#000000">::CImg::_functor4d_streamline</text>
<text text-anchor="middle" x="427.5" y="-7.5" font-family="Helvetica,sans-Serif" font-size="10.00" fill="#000000">_expr::~_functor4d_streamline_expr</text>
</a>
</g>
</g>
<!-- Node418&#45;&gt;Node421 -->
<g id="edge5" class="edge">
<title>Node418&#45;&gt;Node421</title>
<path fill="none" stroke="#191970" d="M285.4356,-63.0932C308.3492,-56.3039 334.6122,-48.5223 358.274,-41.5114"/>
<polygon fill="#191970" stroke="#191970" points="284.4316,-59.7402 275.8379,-65.9369 286.4202,-66.4518 284.4316,-59.7402"/>
</g>
</g>
</svg>
