<?xml version="1.0" encoding="UTF-8" standalone="no"?>
<!DOCTYPE svg PUBLIC "-//W3C//DTD SVG 1.1//EN"
 "http://www.w3.org/Graphics/SVG/1.1/DTD/svg11.dtd">
<!-- Generated by graphviz version 2.40.1 (20161225.0304)
 -->
<!-- Title: cimg_library_suffixed::CImg::end Pages: 1 -->
<svg width="291pt" height="160pt"
 viewBox="0.00 0.00 291.00 160.00" xmlns="http://www.w3.org/2000/svg" xmlns:xlink="http://www.w3.org/1999/xlink">
<g id="graph0" class="graph" transform="scale(1 1) rotate(0) translate(4 156)">
<title>cimg_library_suffixed::CImg::end</title>
<polygon fill="#ffffff" stroke="transparent" points="-4,4 -4,-156 287,-156 287,4 -4,4"/>
<!-- Node1154 -->
<g id="node1" class="node">
<title>Node1154</title>
<polygon fill="#bfbfbf" stroke="#000000" points="0,-61 0,-91 109,-91 109,-61 0,-61"/>
<text text-anchor="start" x="8" y="-79" font-family="Helvetica,sans-Serif" font-size="10.00" fill="#000000">cimg_library_suffixed</text>
<text text-anchor="middle" x="54.5" y="-68" font-family="Helvetica,sans-Serif" font-size="10.00" fill="#000000">::CImg::end</text>
</g>
<!-- Node1155 -->
<g id="node2" class="node">
<title>Node1155</title>
<g id="a_node2"><a xlink:href="structcimg__library__suffixed_1_1_c_img_1_1__cimg__math__parser.html#a318c44c5d1f4f0114355f37ace87a4ae" target="_top" xlink:title="cimg_library_suffixed\l::CImg::_cimg_math_parser\l::compile">
<polygon fill="#ffffff" stroke="#000000" points="145,-110.5 145,-151.5 283,-151.5 283,-110.5 145,-110.5"/>
<text text-anchor="start" x="153" y="-139.5" font-family="Helvetica,sans-Serif" font-size="10.00" fill="#000000">cimg_library_suffixed</text>
<text text-anchor="start" x="153" y="-128.5" font-family="Helvetica,sans-Serif" font-size="10.00" fill="#000000">::CImg::_cimg_math_parser</text>
<text text-anchor="middle" x="214" y="-117.5" font-family="Helvetica,sans-Serif" font-size="10.00" fill="#000000">::compile</text>
</a>
</g>
</g>
<!-- Node1154&#45;&gt;Node1155 -->
<g id="edge1" class="edge">
<title>Node1154&#45;&gt;Node1155</title>
<path fill="none" stroke="#191970" d="M107.6861,-94.34C122.6457,-99.4985 139.0131,-105.1424 154.3245,-110.4223"/>
<polygon fill="#191970" stroke="#191970" points="108.6788,-90.9802 98.0841,-91.029 106.3968,-97.5978 108.6788,-90.9802"/>
</g>
<!-- Node1156 -->
<g id="node3" class="node">
<title>Node1156</title>
<g id="a_node3"><a xlink:href="structcimg__library__suffixed_1_1_c_img_list.html#aeb4a6463a473fa5935f69534ca1a49c8" target="_top" xlink:title="Return a CImg pre&#45;defined font with desired size. ">
<polygon fill="#ffffff" stroke="#000000" points="150,-61 150,-91 278,-91 278,-61 150,-61"/>
<text text-anchor="start" x="158" y="-79" font-family="Helvetica,sans-Serif" font-size="10.00" fill="#000000">cimg_library_suffixed</text>
<text text-anchor="middle" x="214" y="-68" font-family="Helvetica,sans-Serif" font-size="10.00" fill="#000000">::CImgList&lt; charT &gt;::font</text>
</a>
</g>
</g>
<!-- Node1154&#45;&gt;Node1156 -->
<g id="edge2" class="edge">
<title>Node1154&#45;&gt;Node1156</title>
<path fill="none" stroke="#191970" d="M119.6665,-76C129.6634,-76 139.9768,-76 149.9492,-76"/>
<polygon fill="#191970" stroke="#191970" points="119.3909,-72.5001 109.3909,-76 119.3908,-79.5001 119.3909,-72.5001"/>
</g>
<!-- Node1157 -->
<g id="node4" class="node">
<title>Node1157</title>
<g id="a_node4"><a xlink:href="structcimg__library__suffixed_1_1_c_img_1_1__cimg__math__parser.html#a9d9ca13af68029fba123b8a03dadcae4" target="_top" xlink:title="cimg_library_suffixed\l::CImg::_cimg_math_parser\l::mp_list_find">
<polygon fill="#ffffff" stroke="#000000" points="145,-.5 145,-41.5 283,-41.5 283,-.5 145,-.5"/>
<text text-anchor="start" x="153" y="-29.5" font-family="Helvetica,sans-Serif" font-size="10.00" fill="#000000">cimg_library_suffixed</text>
<text text-anchor="start" x="153" y="-18.5" font-family="Helvetica,sans-Serif" font-size="10.00" fill="#000000">::CImg::_cimg_math_parser</text>
<text text-anchor="middle" x="214" y="-7.5" font-family="Helvetica,sans-Serif" font-size="10.00" fill="#000000">::mp_list_find</text>
</a>
</g>
</g>
<!-- Node1154&#45;&gt;Node1157 -->
<g id="edge3" class="edge">
<title>Node1154&#45;&gt;Node1157</title>
<path fill="none" stroke="#191970" d="M107.6861,-57.66C122.6457,-52.5015 139.0131,-46.8576 154.3245,-41.5777"/>
<polygon fill="#191970" stroke="#191970" points="106.3968,-54.4022 98.0841,-60.971 108.6788,-61.0198 106.3968,-54.4022"/>
</g>
</g>
</svg>
