<?xml version="1.0" encoding="UTF-8" standalone="no"?>
<!DOCTYPE svg PUBLIC "-//W3C//DTD SVG 1.1//EN"
 "http://www.w3.org/Graphics/SVG/1.1/DTD/svg11.dtd">
<!-- Generated by graphviz version 2.40.1 (20161225.0304)
 -->
<!-- Title: cimg_library_suffixed::CImgDisplay::set_title Pages: 1 -->
<svg width="295pt" height="270pt"
 viewBox="0.00 0.00 295.00 269.50" xmlns="http://www.w3.org/2000/svg" xmlns:xlink="http://www.w3.org/1999/xlink">
<g id="graph0" class="graph" transform="scale(1 1) rotate(0) translate(4 265.5)">
<title>cimg_library_suffixed::CImgDisplay::set_title</title>
<polygon fill="#ffffff" stroke="transparent" points="-4,4 -4,-265.5 291,-265.5 291,4 -4,4"/>
<!-- Node490 -->
<g id="node1" class="node">
<title>Node490</title>
<polygon fill="#bfbfbf" stroke="#000000" points="0,-116 0,-146 120,-146 120,-116 0,-116"/>
<text text-anchor="start" x="8" y="-134" font-family="Helvetica,sans-Serif" font-size="10.00" fill="#000000">cimg_library_suffixed</text>
<text text-anchor="middle" x="60" y="-123" font-family="Helvetica,sans-Serif" font-size="10.00" fill="#000000">::CImgDisplay::set_title</text>
</g>
<!-- Node491 -->
<g id="node2" class="node">
<title>Node491</title>
<g id="a_node2"><a xlink:href="structcimg__library__suffixed_1_1_c_img.html#adf9d80c60e82b079056c31cb0fe61faf" target="_top" xlink:title="cimg_library_suffixed\l::CImg\&lt; charT \&gt;::_display">
<polygon fill="#ffffff" stroke="#000000" points="156,-231 156,-261 287,-261 287,-231 156,-231"/>
<text text-anchor="start" x="164" y="-249" font-family="Helvetica,sans-Serif" font-size="10.00" fill="#000000">cimg_library_suffixed</text>
<text text-anchor="middle" x="221.5" y="-238" font-family="Helvetica,sans-Serif" font-size="10.00" fill="#000000">::CImg&lt; charT &gt;::_display</text>
</a>
</g>
</g>
<!-- Node490&#45;&gt;Node491 -->
<g id="edge1" class="edge">
<title>Node490&#45;&gt;Node491</title>
<path fill="none" stroke="#191970" d="M79.7491,-154.0108C97.8884,-173.9649 126.3782,-202.4747 156,-221 161.9854,-224.7433 168.6209,-228.0736 175.3046,-230.986"/>
<polygon fill="#191970" stroke="#191970" points="82.1355,-151.4282 72.8651,-146.2988 76.9133,-156.0897 82.1355,-151.4282"/>
</g>
<!-- Node492 -->
<g id="node3" class="node">
<title>Node492</title>
<g id="a_node3"><a xlink:href="structcimg__library__suffixed_1_1_c_img_list.html#af514efa37d021bd02a95186531139a38" target="_top" xlink:title="cimg_library_suffixed\l::CImgList\&lt; charT \&gt;::\l_display">
<polygon fill="#ffffff" stroke="#000000" points="166,-170.5 166,-211.5 277,-211.5 277,-170.5 166,-170.5"/>
<text text-anchor="start" x="174" y="-199.5" font-family="Helvetica,sans-Serif" font-size="10.00" fill="#000000">cimg_library_suffixed</text>
<text text-anchor="start" x="174" y="-188.5" font-family="Helvetica,sans-Serif" font-size="10.00" fill="#000000">::CImgList&lt; charT &gt;::</text>
<text text-anchor="middle" x="221.5" y="-177.5" font-family="Helvetica,sans-Serif" font-size="10.00" fill="#000000">_display</text>
</a>
</g>
</g>
<!-- Node490&#45;&gt;Node492 -->
<g id="edge2" class="edge">
<title>Node490&#45;&gt;Node492</title>
<path fill="none" stroke="#191970" d="M110.3274,-149.6975C128.0317,-156.2749 148.0212,-163.7014 166.1186,-170.4249"/>
<polygon fill="#191970" stroke="#191970" points="111.3462,-146.3423 100.7533,-146.1405 108.9083,-152.9041 111.3462,-146.3423"/>
</g>
<!-- Node493 -->
<g id="node4" class="node">
<title>Node493</title>
<g id="a_node4"><a xlink:href="structcimg__library__suffixed_1_1_c_img.html#a8b40db5a9818c3f961a90840b271de6c" target="_top" xlink:title="cimg_library_suffixed\l::CImg\&lt; charT \&gt;::_display\l_object3d">
<polygon fill="#ffffff" stroke="#000000" points="156,-110.5 156,-151.5 287,-151.5 287,-110.5 156,-110.5"/>
<text text-anchor="start" x="164" y="-139.5" font-family="Helvetica,sans-Serif" font-size="10.00" fill="#000000">cimg_library_suffixed</text>
<text text-anchor="start" x="164" y="-128.5" font-family="Helvetica,sans-Serif" font-size="10.00" fill="#000000">::CImg&lt; charT &gt;::_display</text>
<text text-anchor="middle" x="221.5" y="-117.5" font-family="Helvetica,sans-Serif" font-size="10.00" fill="#000000">_object3d</text>
</a>
</g>
</g>
<!-- Node490&#45;&gt;Node493 -->
<g id="edge3" class="edge">
<title>Node490&#45;&gt;Node493</title>
<path fill="none" stroke="#191970" d="M130.3751,-131C138.8529,-131 147.4859,-131 155.8918,-131"/>
<polygon fill="#191970" stroke="#191970" points="130.1367,-127.5001 120.1366,-131 130.1366,-134.5001 130.1367,-127.5001"/>
</g>
<!-- Node494 -->
<g id="node5" class="node">
<title>Node494</title>
<g id="a_node5"><a xlink:href="structcimg__library__suffixed_1_1_c_img.html#ad9b7141242d0b6e861a8014112ddb5b5" target="_top" xlink:title="cimg_library_suffixed\l::CImg\&lt; charT \&gt;::_select">
<polygon fill="#ffffff" stroke="#000000" points="158,-61 158,-91 285,-91 285,-61 158,-61"/>
<text text-anchor="start" x="166" y="-79" font-family="Helvetica,sans-Serif" font-size="10.00" fill="#000000">cimg_library_suffixed</text>
<text text-anchor="middle" x="221.5" y="-68" font-family="Helvetica,sans-Serif" font-size="10.00" fill="#000000">::CImg&lt; charT &gt;::_select</text>
</a>
</g>
</g>
<!-- Node490&#45;&gt;Node494 -->
<g id="edge4" class="edge">
<title>Node490&#45;&gt;Node494</title>
<path fill="none" stroke="#191970" d="M113.7287,-112.7023C134.4069,-105.6602 157.7571,-97.7081 177.4228,-91.0108"/>
<polygon fill="#191970" stroke="#191970" points="112.4684,-109.434 104.1306,-115.971 114.725,-116.0603 112.4684,-109.434"/>
</g>
<!-- Node495 -->
<g id="node6" class="node">
<title>Node495</title>
<g id="a_node6"><a xlink:href="structcimg__library__suffixed_1_1_c_img_list.html#af8a6b01f20b2d459e5abe6b99836ea9a" target="_top" xlink:title="cimg_library_suffixed\l::CImgList\&lt; charT \&gt;::\l_select">
<polygon fill="#ffffff" stroke="#000000" points="166,-.5 166,-41.5 277,-41.5 277,-.5 166,-.5"/>
<text text-anchor="start" x="174" y="-29.5" font-family="Helvetica,sans-Serif" font-size="10.00" fill="#000000">cimg_library_suffixed</text>
<text text-anchor="start" x="174" y="-18.5" font-family="Helvetica,sans-Serif" font-size="10.00" fill="#000000">::CImgList&lt; charT &gt;::</text>
<text text-anchor="middle" x="221.5" y="-7.5" font-family="Helvetica,sans-Serif" font-size="10.00" fill="#000000">_select</text>
</a>
</g>
</g>
<!-- Node490&#45;&gt;Node495 -->
<g id="edge5" class="edge">
<title>Node490&#45;&gt;Node495</title>
<path fill="none" stroke="#191970" d="M83.1543,-109.1707C101.8598,-92.2421 129.3666,-68.8952 156,-52 161.7367,-48.3608 167.9677,-44.8776 174.2291,-41.6465"/>
<polygon fill="#191970" stroke="#191970" points="80.714,-106.6596 75.7046,-115.9954 85.4425,-111.8211 80.714,-106.6596"/>
</g>
</g>
</svg>
