<?xml version="1.0" encoding="UTF-8" standalone="no"?>
<!DOCTYPE svg PUBLIC "-//W3C//DTD SVG 1.1//EN"
 "http://www.w3.org/Graphics/SVG/1.1/DTD/svg11.dtd">
<!-- Generated by graphviz version 2.40.1 (20161225.0304)
 -->
<!-- Title: cimg_library_suffixed::CImg::RGBtoYCbCr Pages: 1 -->
<svg width="268pt" height="50pt"
 viewBox="0.00 0.00 268.00 50.00" xmlns="http://www.w3.org/2000/svg" xmlns:xlink="http://www.w3.org/1999/xlink">
<g id="graph0" class="graph" transform="scale(1 1) rotate(0) translate(4 46)">
<title>cimg_library_suffixed::CImg::RGBtoYCbCr</title>
<polygon fill="#ffffff" stroke="transparent" points="-4,4 -4,-46 264,-46 264,4 -4,4"/>
<!-- Node2950 -->
<g id="node1" class="node">
<title>Node2950</title>
<polygon fill="#bfbfbf" stroke="#000000" points="0,-6 0,-36 113,-36 113,-6 0,-6"/>
<text text-anchor="start" x="8" y="-24" font-family="Helvetica,sans-Serif" font-size="10.00" fill="#000000">cimg_library_suffixed</text>
<text text-anchor="middle" x="56.5" y="-13" font-family="Helvetica,sans-Serif" font-size="10.00" fill="#000000">::CImg::RGBtoYCbCr</text>
</g>
<!-- Node2951 -->
<g id="node2" class="node">
<title>Node2951</title>
<g id="a_node2"><a xlink:href="structcimg__library__suffixed_1_1_c_img_list.html#afa25415a30608d507bc22bd6b85b5c1e" target="_top" xlink:title="cimg_library_suffixed\l::CImgList\&lt; charT \&gt;::\l_save_yuv">
<polygon fill="#ffffff" stroke="#000000" points="149,-.5 149,-41.5 260,-41.5 260,-.5 149,-.5"/>
<text text-anchor="start" x="157" y="-29.5" font-family="Helvetica,sans-Serif" font-size="10.00" fill="#000000">cimg_library_suffixed</text>
<text text-anchor="start" x="157" y="-18.5" font-family="Helvetica,sans-Serif" font-size="10.00" fill="#000000">::CImgList&lt; charT &gt;::</text>
<text text-anchor="middle" x="204.5" y="-7.5" font-family="Helvetica,sans-Serif" font-size="10.00" fill="#000000">_save_yuv</text>
</a>
</g>
</g>
<!-- Node2950&#45;&gt;Node2951 -->
<g id="edge1" class="edge">
<title>Node2950&#45;&gt;Node2951</title>
<path fill="none" stroke="#191970" d="M123.455,-21C131.8563,-21 140.3798,-21 148.5871,-21"/>
<polygon fill="#191970" stroke="#191970" points="123.2974,-17.5001 113.2974,-21 123.2974,-24.5001 123.2974,-17.5001"/>
</g>
</g>
</svg>
