<?xml version="1.0" encoding="UTF-8" standalone="no"?>
<!DOCTYPE svg PUBLIC "-//W3C//DTD SVG 1.1//EN"
 "http://www.w3.org/Graphics/SVG/1.1/DTD/svg11.dtd">
<!-- Generated by graphviz version 2.40.1 (20161225.0304)
 -->
<!-- Title: cimg_library_suffixed::CImgDisplay::resize Pages: 1 -->
<svg width="287pt" height="380pt"
 viewBox="0.00 0.00 287.00 379.50" xmlns="http://www.w3.org/2000/svg" xmlns:xlink="http://www.w3.org/1999/xlink">
<g id="graph0" class="graph" transform="scale(1 1) rotate(0) translate(4 375.5)">
<title>cimg_library_suffixed::CImgDisplay::resize</title>
<polygon fill="#ffffff" stroke="transparent" points="-4,4 -4,-375.5 283,-375.5 283,4 -4,4"/>
<!-- Node397 -->
<g id="node1" class="node">
<title>Node397</title>
<polygon fill="#bfbfbf" stroke="#000000" points="0,-171 0,-201 112,-201 112,-171 0,-171"/>
<text text-anchor="start" x="8" y="-189" font-family="Helvetica,sans-Serif" font-size="10.00" fill="#000000">cimg_library_suffixed</text>
<text text-anchor="middle" x="56" y="-178" font-family="Helvetica,sans-Serif" font-size="10.00" fill="#000000">::CImgDisplay::resize</text>
</g>
<!-- Node398 -->
<g id="node2" class="node">
<title>Node398</title>
<g id="a_node2"><a xlink:href="structcimg__library__suffixed_1_1_c_img.html#adf9d80c60e82b079056c31cb0fe61faf" target="_top" xlink:title="cimg_library_suffixed\l::CImg\&lt; charT \&gt;::_display">
<polygon fill="#ffffff" stroke="#000000" points="148,-341 148,-371 279,-371 279,-341 148,-341"/>
<text text-anchor="start" x="156" y="-359" font-family="Helvetica,sans-Serif" font-size="10.00" fill="#000000">cimg_library_suffixed</text>
<text text-anchor="middle" x="213.5" y="-348" font-family="Helvetica,sans-Serif" font-size="10.00" fill="#000000">::CImg&lt; charT &gt;::_display</text>
</a>
</g>
</g>
<!-- Node397&#45;&gt;Node398 -->
<g id="edge1" class="edge">
<title>Node397&#45;&gt;Node398</title>
<path fill="none" stroke="#191970" d="M65.8692,-210.9144C79.7136,-242.8915 107.7923,-298.151 148,-331 152.7129,-334.8504 158.0835,-338.1504 163.6751,-340.9681"/>
<polygon fill="#191970" stroke="#191970" points="68.976,-209.273 61.877,-201.4083 62.522,-211.9834 68.976,-209.273"/>
</g>
<!-- Node399 -->
<g id="node3" class="node">
<title>Node399</title>
<g id="a_node3"><a xlink:href="structcimg__library__suffixed_1_1_c_img_list.html#af514efa37d021bd02a95186531139a38" target="_top" xlink:title="cimg_library_suffixed\l::CImgList\&lt; charT \&gt;::\l_display">
<polygon fill="#ffffff" stroke="#000000" points="158,-280.5 158,-321.5 269,-321.5 269,-280.5 158,-280.5"/>
<text text-anchor="start" x="166" y="-309.5" font-family="Helvetica,sans-Serif" font-size="10.00" fill="#000000">cimg_library_suffixed</text>
<text text-anchor="start" x="166" y="-298.5" font-family="Helvetica,sans-Serif" font-size="10.00" fill="#000000">::CImgList&lt; charT &gt;::</text>
<text text-anchor="middle" x="213.5" y="-287.5" font-family="Helvetica,sans-Serif" font-size="10.00" fill="#000000">_display</text>
</a>
</g>
</g>
<!-- Node397&#45;&gt;Node399 -->
<g id="edge2" class="edge">
<title>Node397&#45;&gt;Node399</title>
<path fill="none" stroke="#191970" d="M76.4274,-208.4878C94.0685,-226.9713 120.9217,-252.9602 148,-271 152.9964,-274.3286 158.4218,-277.4637 163.9398,-280.3608"/>
<polygon fill="#191970" stroke="#191970" points="78.856,-205.9611 69.4572,-201.0709 73.755,-210.7549 78.856,-205.9611"/>
</g>
<!-- Node400 -->
<g id="node4" class="node">
<title>Node400</title>
<g id="a_node4"><a xlink:href="structcimg__library__suffixed_1_1_c_img.html#a8b40db5a9818c3f961a90840b271de6c" target="_top" xlink:title="cimg_library_suffixed\l::CImg\&lt; charT \&gt;::_display\l_object3d">
<polygon fill="#ffffff" stroke="#000000" points="148,-220.5 148,-261.5 279,-261.5 279,-220.5 148,-220.5"/>
<text text-anchor="start" x="156" y="-249.5" font-family="Helvetica,sans-Serif" font-size="10.00" fill="#000000">cimg_library_suffixed</text>
<text text-anchor="start" x="156" y="-238.5" font-family="Helvetica,sans-Serif" font-size="10.00" fill="#000000">::CImg&lt; charT &gt;::_display</text>
<text text-anchor="middle" x="213.5" y="-227.5" font-family="Helvetica,sans-Serif" font-size="10.00" fill="#000000">_object3d</text>
</a>
</g>
</g>
<!-- Node397&#45;&gt;Node400 -->
<g id="edge3" class="edge">
<title>Node397&#45;&gt;Node400</title>
<path fill="none" stroke="#191970" d="M108.5192,-204.34C123.2912,-209.4985 139.4533,-215.1424 154.5728,-220.4223"/>
<polygon fill="#191970" stroke="#191970" points="109.6324,-201.0216 99.0376,-201.029 107.3246,-207.6302 109.6324,-201.0216"/>
</g>
<!-- Node401 -->
<g id="node5" class="node">
<title>Node401</title>
<g id="a_node5"><a xlink:href="structcimg__library__suffixed_1_1_c_img.html#ad9b7141242d0b6e861a8014112ddb5b5" target="_top" xlink:title="cimg_library_suffixed\l::CImg\&lt; charT \&gt;::_select">
<polygon fill="#ffffff" stroke="#000000" points="150,-171 150,-201 277,-201 277,-171 150,-171"/>
<text text-anchor="start" x="158" y="-189" font-family="Helvetica,sans-Serif" font-size="10.00" fill="#000000">cimg_library_suffixed</text>
<text text-anchor="middle" x="213.5" y="-178" font-family="Helvetica,sans-Serif" font-size="10.00" fill="#000000">::CImg&lt; charT &gt;::_select</text>
</a>
</g>
</g>
<!-- Node397&#45;&gt;Node401 -->
<g id="edge4" class="edge">
<title>Node397&#45;&gt;Node401</title>
<path fill="none" stroke="#191970" d="M122.5561,-186C131.6442,-186 140.9545,-186 149.9866,-186"/>
<polygon fill="#191970" stroke="#191970" points="122.4163,-182.5001 112.4163,-186 122.4162,-189.5001 122.4163,-182.5001"/>
</g>
<!-- Node402 -->
<g id="node6" class="node">
<title>Node402</title>
<g id="a_node6"><a xlink:href="structcimg__library__suffixed_1_1_c_img_list.html#af8a6b01f20b2d459e5abe6b99836ea9a" target="_top" xlink:title="cimg_library_suffixed\l::CImgList\&lt; charT \&gt;::\l_select">
<polygon fill="#ffffff" stroke="#000000" points="158,-110.5 158,-151.5 269,-151.5 269,-110.5 158,-110.5"/>
<text text-anchor="start" x="166" y="-139.5" font-family="Helvetica,sans-Serif" font-size="10.00" fill="#000000">cimg_library_suffixed</text>
<text text-anchor="start" x="166" y="-128.5" font-family="Helvetica,sans-Serif" font-size="10.00" fill="#000000">::CImgList&lt; charT &gt;::</text>
<text text-anchor="middle" x="213.5" y="-117.5" font-family="Helvetica,sans-Serif" font-size="10.00" fill="#000000">_select</text>
</a>
</g>
</g>
<!-- Node397&#45;&gt;Node402 -->
<g id="edge5" class="edge">
<title>Node397&#45;&gt;Node402</title>
<path fill="none" stroke="#191970" d="M108.6404,-167.6176C124.4338,-162.1025 141.8069,-156.0357 157.7913,-150.4538"/>
<polygon fill="#191970" stroke="#191970" points="107.3246,-164.3698 99.0376,-170.971 109.6324,-170.9784 107.3246,-164.3698"/>
</g>
<!-- Node403 -->
<g id="node7" class="node">
<title>Node403</title>
<g id="a_node7"><a xlink:href="namespacecimg__library__suffixed_1_1cimg.html#a11aed0e6b30d75bf50946ee78d1aed94" target="_top" xlink:title="Display a simple dialog box, and wait for the user&#39;s response. ">
<polygon fill="#ffffff" stroke="#000000" points="159,-61 159,-91 268,-91 268,-61 159,-61"/>
<text text-anchor="start" x="167" y="-79" font-family="Helvetica,sans-Serif" font-size="10.00" fill="#000000">cimg_library_suffixed</text>
<text text-anchor="middle" x="213.5" y="-68" font-family="Helvetica,sans-Serif" font-size="10.00" fill="#000000">::cimg::dialog</text>
</a>
</g>
</g>
<!-- Node397&#45;&gt;Node403 -->
<g id="edge6" class="edge">
<title>Node397&#45;&gt;Node403</title>
<path fill="none" stroke="#191970" d="M75.8263,-163.3807C93.2811,-144.5969 120.1891,-118.2522 148,-101 153.999,-97.2786 160.6419,-93.9601 167.3289,-91.0531"/>
<polygon fill="#191970" stroke="#191970" points="73.103,-161.1727 68.9494,-170.9194 78.2745,-165.8903 73.103,-161.1727"/>
</g>
<!-- Node404 -->
<g id="node8" class="node">
<title>Node404</title>
<g id="a_node8"><a xlink:href="structcimg__library__suffixed_1_1_c_img.html#a689f47424dc7c548ebfe53e431409199" target="_top" xlink:title="Select sub&#45;graph in a graph. ">
<polygon fill="#ffffff" stroke="#000000" points="159,-.5 159,-41.5 268,-41.5 268,-.5 159,-.5"/>
<text text-anchor="start" x="167" y="-29.5" font-family="Helvetica,sans-Serif" font-size="10.00" fill="#000000">cimg_library_suffixed</text>
<text text-anchor="start" x="167" y="-18.5" font-family="Helvetica,sans-Serif" font-size="10.00" fill="#000000">::CImg&lt; charT &gt;::get</text>
<text text-anchor="middle" x="213.5" y="-7.5" font-family="Helvetica,sans-Serif" font-size="10.00" fill="#000000">_select_graph</text>
</a>
</g>
</g>
<!-- Node397&#45;&gt;Node404 -->
<g id="edge7" class="edge">
<title>Node397&#45;&gt;Node404</title>
<path fill="none" stroke="#191970" d="M67.6218,-161.6885C82.6581,-132.3976 111.331,-83.2382 148,-52 152.5011,-48.1655 157.5573,-44.6941 162.8129,-41.5817"/>
<polygon fill="#191970" stroke="#191970" points="64.4042,-160.2973 63.0535,-170.8057 70.6625,-163.4332 64.4042,-160.2973"/>
</g>
</g>
</svg>
