<?xml version="1.0" encoding="UTF-8" standalone="no"?>
<!DOCTYPE svg PUBLIC "-//W3C//DTD SVG 1.1//EN"
 "http://www.w3.org/Graphics/SVG/1.1/DTD/svg11.dtd">
<!-- Generated by graphviz version 2.40.1 (20161225.0304)
 -->
<!-- Title: cimg_library_suffixed::CImg::_cimg_math_parser::mp_srand0 Pages: 1 -->
<!--zoomable 259 -->
<svg id="main" version="1.1" xmlns="http://www.w3.org/2000/svg" xmlns:xlink="http://www.w3.org/1999/xlink" xml:space="preserve" onload="init(evt)">
<style type="text/css"><![CDATA[
.edge:hover path { stroke: red; }
.edge:hover polygon { stroke: red; fill: red; }
]]></style>
<script type="text/javascript"><![CDATA[
var edges = document.getElementsByTagName('g');
if (edges && edges.length) {
  for (var i=0;i<edges.length;i++) {
    if (edges[i].id.substr(0,4)=='edge') {
      edges[i].setAttribute('class','edge');
    }
  }
}
]]></script>
        <defs>
                <circle id="rim" cx="0" cy="0" r="7"/>
                <circle id="rim2" cx="0" cy="0" r="3.5"/>
                <g id="zoomPlus">
                        <use xlink:href="#rim" fill="#404040">
                                <set attributeName="fill" to="#808080" begin="zoomplus.mouseover" end="zoomplus.mouseout"/>
                        </use>
                        <path d="M-4,0h8M0,-4v8" fill="none" stroke="white" stroke-width="1.5" pointer-events="none"/>
                </g>
                <g id="zoomMin">
                        <use xlink:href="#rim" fill="#404040">
                                <set attributeName="fill" to="#808080" begin="zoomminus.mouseover" end="zoomminus.mouseout"/>
                        </use>
                        <path d="M-4,0h8" fill="none" stroke="white" stroke-width="1.5" pointer-events="none"/>
                </g>
                <g id="dirArrow">
                        <path fill="none" stroke="white" stroke-width="1.5" d="M0,-3.0v7 M-2.5,-0.5L0,-3.0L2.5,-0.5"/>
                </g>
               <g id="resetDef">
                       <use xlink:href="#rim2" fill="#404040">
                               <set attributeName="fill" to="#808080" begin="reset.mouseover" end="reset.mouseout"/>
                       </use>
               </g>
        </defs>

<script type="text/javascript">
var viewWidth = 1939;
var viewHeight = 259;
var sectionId = 'dynsection-152';
</script>
<script xlink:href="svgpan.js"/>
<svg id="graph" class="graph">
<g id="viewport">
<title>cimg_library_suffixed::CImg::_cimg_math_parser::mp_srand0</title>
<polygon fill="#ffffff" stroke="transparent" points="-4,4 -4,-255 1935,-255 1935,4 -4,4"/>
<!-- Node1103 -->
<g id="node1" class="node">
<title>Node1103</title>
<polygon fill="#bfbfbf" stroke="#000000" points="0,-1.5 0,-42.5 138,-42.5 138,-1.5 0,-1.5"/>
<text text-anchor="start" x="8" y="-30.5" font-family="Helvetica,sans-Serif" font-size="10.00" fill="#000000">cimg_library_suffixed</text>
<text text-anchor="start" x="8" y="-19.5" font-family="Helvetica,sans-Serif" font-size="10.00" fill="#000000">::CImg::_cimg_math_parser</text>
<text text-anchor="middle" x="69" y="-8.5" font-family="Helvetica,sans-Serif" font-size="10.00" fill="#000000">::mp_srand0</text>
</g>
<!-- Node1104 -->
<g id="node2" class="node">
<title>Node1104</title>
<g id="a_node2"><a xlink:href="namespacecimg__library__suffixed_1_1cimg.html#ab77520695d7b96687093353c613c410c" target="_top" xlink:title="cimg_library_suffixed\l::cimg::srand">
<polygon fill="#ffffff" stroke="#000000" points="174,-29 174,-59 283,-59 283,-29 174,-29"/>
<text text-anchor="start" x="182" y="-47" font-family="Helvetica,sans-Serif" font-size="10.00" fill="#000000">cimg_library_suffixed</text>
<text text-anchor="middle" x="228.5" y="-36" font-family="Helvetica,sans-Serif" font-size="10.00" fill="#000000">::cimg::srand</text>
</a>
</g>
</g>
<!-- Node1103&#45;&gt;Node1104 -->
<g id="edge1" class="edge">
<title>Node1103&#45;&gt;Node1104</title>
<path fill="none" stroke="#191970" d="M138.0314,-31.5216C146.5309,-32.6939 155.1959,-33.8891 163.6306,-35.0525"/>
<polygon fill="#191970" stroke="#191970" points="163.3938,-38.5529 173.7783,-36.4522 164.3503,-31.6185 163.3938,-38.5529"/>
</g>
<!-- Node1114 -->
<g id="node12" class="node">
<title>Node1114</title>
<g id="a_node12"><a xlink:href="namespacecimg__library__suffixed_1_1cimg.html#a79aef0cbcf66ceb71c2b74cb66b4deb2" target="_top" xlink:title="Avoid warning messages due to unused parameters. Do nothing actually. ">
<polygon fill="#ffffff" stroke="#000000" points="1363,-105 1363,-135 1472,-135 1472,-105 1363,-105"/>
<text text-anchor="start" x="1371" y="-123" font-family="Helvetica,sans-Serif" font-size="10.00" fill="#000000">cimg_library_suffixed</text>
<text text-anchor="middle" x="1417.5" y="-112" font-family="Helvetica,sans-Serif" font-size="10.00" fill="#000000">::cimg::unused</text>
</a>
</g>
</g>
<!-- Node1103&#45;&gt;Node1114 -->
<g id="edge27" class="edge">
<title>Node1103&#45;&gt;Node1114</title>
<path fill="none" stroke="#191970" d="M138.1327,-14.1507C199.7833,-7.8326 292.5389,0 373.5,0 373.5,0 373.5,0 1119,0 1224.0705,0 1335.9063,-64.7975 1387.8288,-99.1619"/>
<polygon fill="#191970" stroke="#191970" points="1385.9729,-102.1315 1396.2257,-104.8019 1389.876,-96.3206 1385.9729,-102.1315"/>
</g>
<!-- Node1105 -->
<g id="node3" class="node">
<title>Node1105</title>
<g id="a_node3"><a xlink:href="namespacecimg__library__suffixed_1_1cimg.html#a71a3c7b37befc7a4313dfcdd80271bce" target="_top" xlink:title="Return the value of a system timer, with a millisecond precision. ">
<polygon fill="#ffffff" stroke="#000000" points="319,-29 319,-59 428,-59 428,-29 319,-29"/>
<text text-anchor="start" x="327" y="-47" font-family="Helvetica,sans-Serif" font-size="10.00" fill="#000000">cimg_library_suffixed</text>
<text text-anchor="middle" x="373.5" y="-36" font-family="Helvetica,sans-Serif" font-size="10.00" fill="#000000">::cimg::time</text>
</a>
</g>
</g>
<!-- Node1104&#45;&gt;Node1105 -->
<g id="edge2" class="edge">
<title>Node1104&#45;&gt;Node1105</title>
<path fill="none" stroke="#191970" d="M283.3183,-44C291.5286,-44 300.0611,-44 308.4586,-44"/>
<polygon fill="#191970" stroke="#191970" points="308.6042,-47.5001 318.6042,-44 308.6042,-40.5001 308.6042,-47.5001"/>
</g>
<!-- Node1119 -->
<g id="node17" class="node">
<title>Node1119</title>
<g id="a_node17"><a xlink:href="namespacecimg__library__suffixed_1_1cimg.html#abae779a6d52b74e3a46e75a6c5b6e49e" target="_top" xlink:title="cimg_library_suffixed\l::cimg::srand">
<polygon fill="#ffffff" stroke="#000000" points="319,-78 319,-108 428,-108 428,-78 319,-78"/>
<text text-anchor="start" x="327" y="-96" font-family="Helvetica,sans-Serif" font-size="10.00" fill="#000000">cimg_library_suffixed</text>
<text text-anchor="middle" x="373.5" y="-85" font-family="Helvetica,sans-Serif" font-size="10.00" fill="#000000">::cimg::srand</text>
</a>
</g>
</g>
<!-- Node1104&#45;&gt;Node1119 -->
<g id="edge26" class="edge">
<title>Node1104&#45;&gt;Node1119</title>
<path fill="none" stroke="#191970" d="M273.1879,-59.1014C287.659,-63.9917 303.8725,-69.4707 318.9752,-74.5744"/>
<polygon fill="#191970" stroke="#191970" points="318.1158,-77.9783 328.71,-77.8641 320.3569,-71.3468 318.1158,-77.9783"/>
</g>
<!-- Node1106 -->
<g id="node4" class="node">
<title>Node1106</title>
<g id="a_node4"><a xlink:href="namespacecimg__library__suffixed_1_1cimg.html#ab47e3a7718b582df77725470f3824eb4" target="_top" xlink:title="cimg_library_suffixed\l::cimg::tictoc">
<polygon fill="#ffffff" stroke="#000000" points="464,-29 464,-59 573,-59 573,-29 464,-29"/>
<text text-anchor="start" x="472" y="-47" font-family="Helvetica,sans-Serif" font-size="10.00" fill="#000000">cimg_library_suffixed</text>
<text text-anchor="middle" x="518.5" y="-36" font-family="Helvetica,sans-Serif" font-size="10.00" fill="#000000">::cimg::tictoc</text>
</a>
</g>
</g>
<!-- Node1105&#45;&gt;Node1106 -->
<g id="edge3" class="edge">
<title>Node1105&#45;&gt;Node1106</title>
<path fill="none" stroke="#191970" d="M428.3183,-37.4317C436.5286,-37.2598 445.0611,-37.2099 453.4586,-37.2819"/>
<polygon fill="#191970" stroke="#191970" points="453.5541,-40.7835 463.6042,-37.4301 453.6564,-33.7843 453.5541,-40.7835"/>
</g>
<!-- Node1106&#45;&gt;Node1105 -->
<g id="edge10" class="edge">
<title>Node1106&#45;&gt;Node1105</title>
<path fill="none" stroke="#191970" d="M463.6042,-50.5699C455.3919,-50.741 446.8588,-50.7902 438.4621,-50.7175"/>
<polygon fill="#191970" stroke="#191970" points="438.3687,-47.2158 428.3183,-50.5683 438.2657,-54.2151 438.3687,-47.2158"/>
</g>
<!-- Node1107 -->
<g id="node5" class="node">
<title>Node1107</title>
<g id="a_node5"><a xlink:href="namespacecimg__library__suffixed_1_1cimg.html#a9e739e4b4ac058abfba069466617b914" target="_top" xlink:title="cimg_library_suffixed\l::cimg::mutex">
<polygon fill="#ffffff" stroke="#000000" points="1508,-151 1508,-181 1617,-181 1617,-151 1508,-151"/>
<text text-anchor="start" x="1516" y="-169" font-family="Helvetica,sans-Serif" font-size="10.00" fill="#000000">cimg_library_suffixed</text>
<text text-anchor="middle" x="1562.5" y="-158" font-family="Helvetica,sans-Serif" font-size="10.00" fill="#000000">::cimg::mutex</text>
</a>
</g>
</g>
<!-- Node1106&#45;&gt;Node1107 -->
<g id="edge4" class="edge">
<title>Node1106&#45;&gt;Node1107</title>
<path fill="none" stroke="#191970" d="M573.0111,-42.1998C631.2921,-40.4325 726.4165,-38 808.5,-38 808.5,-38 808.5,-38 1272.5,-38 1364.7147,-38 1389.8583,-53.0919 1472,-95 1497.2987,-107.9072 1522.4192,-128.3859 1539.7516,-144.0401"/>
<polygon fill="#191970" stroke="#191970" points="1537.4142,-146.6456 1547.1397,-150.8485 1542.1578,-141.498 1537.4142,-146.6456"/>
</g>
<!-- Node1112 -->
<g id="node10" class="node">
<title>Node1112</title>
<g id="a_node10"><a xlink:href="namespacecimg__library__suffixed_1_1cimg.html#ada686776cc71803df391eea79cd1b3e5" target="_top" xlink:title="Get/set default output stream for the &#160;library messages. ">
<polygon fill="#ffffff" stroke="#000000" points="609,-140 609,-170 718,-170 718,-140 609,-140"/>
<text text-anchor="start" x="617" y="-158" font-family="Helvetica,sans-Serif" font-size="10.00" fill="#000000">cimg_library_suffixed</text>
<text text-anchor="middle" x="663.5" y="-147" font-family="Helvetica,sans-Serif" font-size="10.00" fill="#000000">::cimg::output</text>
</a>
</g>
</g>
<!-- Node1106&#45;&gt;Node1112 -->
<g id="edge11" class="edge">
<title>Node1106&#45;&gt;Node1112</title>
<path fill="none" stroke="#191970" d="M538.3576,-59.2013C563.6302,-78.5479 607.4189,-112.069 635.9211,-133.8878"/>
<polygon fill="#191970" stroke="#191970" points="633.8142,-136.6828 643.8822,-139.9823 638.0692,-131.1245 633.8142,-136.6828"/>
</g>
<!-- Node1108 -->
<g id="node6" class="node">
<title>Node1108</title>
<g id="a_node6"><a xlink:href="namespacecimg__library__suffixed_1_1cimg.html#aa0e1bc96ae6e235dc5b67b8b0a466166" target="_top" xlink:title="cimg_library_suffixed\l::cimg::Mutex_attr">
<polygon fill="#ffffff" stroke="#000000" points="1822,-198 1822,-228 1931,-228 1931,-198 1822,-198"/>
<text text-anchor="start" x="1830" y="-216" font-family="Helvetica,sans-Serif" font-size="10.00" fill="#000000">cimg_library_suffixed</text>
<text text-anchor="middle" x="1876.5" y="-205" font-family="Helvetica,sans-Serif" font-size="10.00" fill="#000000">::cimg::Mutex_attr</text>
</a>
</g>
</g>
<!-- Node1107&#45;&gt;Node1108 -->
<g id="edge5" class="edge">
<title>Node1107&#45;&gt;Node1108</title>
<path fill="none" stroke="#191970" d="M1582.7886,-181.16C1600.338,-193.266 1626.9275,-209.2766 1653,-216 1705.2267,-229.4679 1766.6233,-227.4274 1811.8381,-222.7484"/>
<polygon fill="#191970" stroke="#191970" points="1812.253,-226.224 1821.8082,-221.6471 1811.4844,-219.2663 1812.253,-226.224"/>
</g>
<!-- Node1109 -->
<g id="node7" class="node">
<title>Node1109</title>
<g id="a_node7"><a xlink:href="structcimg__library__suffixed_1_1cimg_1_1_mutex__info.html#afac3fa5f107ad4795fb867050f616555" target="_top" xlink:title="cimg_library_suffixed\l::cimg::Mutex_info::unlock">
<polygon fill="#ffffff" stroke="#000000" points="1653.5,-127 1653.5,-157 1785.5,-157 1785.5,-127 1653.5,-127"/>
<text text-anchor="start" x="1661.5" y="-145" font-family="Helvetica,sans-Serif" font-size="10.00" fill="#000000">cimg_library_suffixed</text>
<text text-anchor="middle" x="1719.5" y="-134" font-family="Helvetica,sans-Serif" font-size="10.00" fill="#000000">::cimg::Mutex_info::unlock</text>
</a>
</g>
</g>
<!-- Node1107&#45;&gt;Node1109 -->
<g id="edge6" class="edge">
<title>Node1107&#45;&gt;Node1109</title>
<path fill="none" stroke="#191970" d="M1617.411,-157.606C1625.7369,-156.3332 1634.453,-155.0008 1643.1344,-153.6737"/>
<polygon fill="#191970" stroke="#191970" points="1643.9278,-157.0932 1653.2841,-152.1222 1642.87,-150.1736 1643.9278,-157.0932"/>
</g>
<!-- Node1110 -->
<g id="node8" class="node">
<title>Node1110</title>
<g id="a_node8"><a xlink:href="structcimg__library__suffixed_1_1cimg_1_1_mutex__info.html#a6cc8e26847a1aa649febed03d70182e7" target="_top" xlink:title="cimg_library_suffixed\l::cimg::Mutex_info::lock">
<polygon fill="#ffffff" stroke="#000000" points="1658.5,-78 1658.5,-108 1780.5,-108 1780.5,-78 1658.5,-78"/>
<text text-anchor="start" x="1666.5" y="-96" font-family="Helvetica,sans-Serif" font-size="10.00" fill="#000000">cimg_library_suffixed</text>
<text text-anchor="middle" x="1719.5" y="-85" font-family="Helvetica,sans-Serif" font-size="10.00" fill="#000000">::cimg::Mutex_info::lock</text>
</a>
</g>
</g>
<!-- Node1107&#45;&gt;Node1110 -->
<g id="edge7" class="edge">
<title>Node1107&#45;&gt;Node1110</title>
<path fill="none" stroke="#191970" d="M1588.1165,-150.7922C1605.9592,-140.5342 1630.4996,-127.0832 1653,-117 1657.0148,-115.2009 1661.209,-113.435 1665.4536,-111.7284"/>
<polygon fill="#191970" stroke="#191970" points="1666.7287,-114.988 1674.7765,-108.0972 1664.1881,-108.4653 1666.7287,-114.988"/>
</g>
<!-- Node1111 -->
<g id="node9" class="node">
<title>Node1111</title>
<g id="a_node9"><a xlink:href="structcimg__library__suffixed_1_1cimg_1_1_mutex__info.html#a9bf4ed1e1dfe6f28fa6250cd04f3c900" target="_top" xlink:title="cimg_library_suffixed\l::cimg::Mutex_info::trylock">
<polygon fill="#ffffff" stroke="#000000" points="1653,-176 1653,-206 1786,-206 1786,-176 1653,-176"/>
<text text-anchor="start" x="1661" y="-194" font-family="Helvetica,sans-Serif" font-size="10.00" fill="#000000">cimg_library_suffixed</text>
<text text-anchor="middle" x="1719.5" y="-183" font-family="Helvetica,sans-Serif" font-size="10.00" fill="#000000">::cimg::Mutex_info::trylock</text>
</a>
</g>
</g>
<!-- Node1107&#45;&gt;Node1111 -->
<g id="edge8" class="edge">
<title>Node1107&#45;&gt;Node1111</title>
<path fill="none" stroke="#191970" d="M1617.411,-174.7438C1625.6098,-176.0493 1634.187,-177.4151 1642.7367,-178.7766"/>
<polygon fill="#191970" stroke="#191970" points="1642.3105,-182.2527 1652.7365,-180.3689 1643.4113,-175.3398 1642.3105,-182.2527"/>
</g>
<!-- Node1111&#45;&gt;Node1108 -->
<g id="edge9" class="edge">
<title>Node1111&#45;&gt;Node1108</title>
<path fill="none" stroke="#191970" d="M1786.0821,-200.33C1794.5193,-201.5123 1803.1445,-202.7209 1811.5556,-203.8995"/>
<polygon fill="#191970" stroke="#191970" points="1811.293,-207.3968 1821.682,-205.3185 1812.2645,-200.4646 1811.293,-207.3968"/>
</g>
<!-- Node1112&#45;&gt;Node1107 -->
<g id="edge12" class="edge">
<title>Node1112&#45;&gt;Node1107</title>
<path fill="none" stroke="#191970" d="M690.3013,-170C741.1369,-197 855.7739,-251 959.5,-251 959.5,-251 959.5,-251 1272.5,-251 1365.3006,-251 1468.3067,-210.4215 1523.1132,-185.3389"/>
<polygon fill="#191970" stroke="#191970" points="1524.8568,-188.3882 1532.4512,-181.0006 1521.9075,-182.0398 1524.8568,-188.3882"/>
</g>
<!-- Node1113 -->
<g id="node11" class="node">
<title>Node1113</title>
<g id="a_node11"><a xlink:href="namespacecimg__library__suffixed_1_1cimg.html#aab8db7528c32a8fd3a3dc471e662782e" target="_top" xlink:title="cimg_library_suffixed\l::cimg::_stderr">
<polygon fill="#ffffff" stroke="#000000" points="754,-140 754,-170 863,-170 863,-140 754,-140"/>
<text text-anchor="start" x="762" y="-158" font-family="Helvetica,sans-Serif" font-size="10.00" fill="#000000">cimg_library_suffixed</text>
<text text-anchor="middle" x="808.5" y="-147" font-family="Helvetica,sans-Serif" font-size="10.00" fill="#000000">::cimg::_stderr</text>
</a>
</g>
</g>
<!-- Node1112&#45;&gt;Node1113 -->
<g id="edge13" class="edge">
<title>Node1112&#45;&gt;Node1113</title>
<path fill="none" stroke="#191970" d="M718.3183,-155C726.5286,-155 735.0611,-155 743.4586,-155"/>
<polygon fill="#191970" stroke="#191970" points="743.6042,-158.5001 753.6042,-155 743.6042,-151.5001 743.6042,-158.5001"/>
</g>
<!-- Node1113&#45;&gt;Node1114 -->
<g id="edge14" class="edge">
<title>Node1113&#45;&gt;Node1114</title>
<path fill="none" stroke="#191970" d="M857.4798,-139.9298C870.8441,-136.241 885.3925,-132.6085 899,-130 1086.4441,-94.0672 1137.8732,-69.3577 1327,-95 1338.6184,-96.5753 1350.8526,-99.239 1362.4392,-102.2551"/>
<polygon fill="#191970" stroke="#191970" points="1361.8544,-105.7234 1372.423,-104.9779 1363.6963,-98.97 1361.8544,-105.7234"/>
</g>
<!-- Node1115 -->
<g id="node13" class="node">
<title>Node1115</title>
<g id="a_node13"><a xlink:href="namespacecimg__library__suffixed_1_1cimg.html#aeafab144366eddd11360f32f468fa4af" target="_top" xlink:title="Set current &#160;exception mode. ">
<polygon fill="#ffffff" stroke="#000000" points="899,-140 899,-170 1020,-170 1020,-140 899,-140"/>
<text text-anchor="start" x="907" y="-158" font-family="Helvetica,sans-Serif" font-size="10.00" fill="#000000">cimg_library_suffixed</text>
<text text-anchor="middle" x="959.5" y="-147" font-family="Helvetica,sans-Serif" font-size="10.00" fill="#000000">::cimg::exception_mode</text>
</a>
</g>
</g>
<!-- Node1113&#45;&gt;Node1115 -->
<g id="edge16" class="edge">
<title>Node1113&#45;&gt;Node1115</title>
<path fill="none" stroke="#191970" d="M863.0145,-155C871.3935,-155 880.1471,-155 888.8158,-155"/>
<polygon fill="#191970" stroke="#191970" points="888.9255,-158.5001 898.9254,-155 888.9254,-151.5001 888.9255,-158.5001"/>
</g>
<!-- Node1114&#45;&gt;Node1107 -->
<g id="edge15" class="edge">
<title>Node1114&#45;&gt;Node1107</title>
<path fill="none" stroke="#191970" d="M1464.9784,-135.0621C1477.8721,-139.1525 1491.9693,-143.6247 1505.3374,-147.8656"/>
<polygon fill="#191970" stroke="#191970" points="1504.3247,-151.2162 1514.9149,-150.904 1506.4414,-144.5439 1504.3247,-151.2162"/>
</g>
<!-- Node1116 -->
<g id="node14" class="node">
<title>Node1116</title>
<g id="a_node14"><a xlink:href="namespacecimg__library__suffixed_1_1cimg.html#a6c578f866de2be9be7e385d693c758c8" target="_top" xlink:title="cimg_library_suffixed\l::cimg::_exception_mode">
<polygon fill="#ffffff" stroke="#000000" points="1056,-184 1056,-214 1182,-214 1182,-184 1056,-184"/>
<text text-anchor="start" x="1064" y="-202" font-family="Helvetica,sans-Serif" font-size="10.00" fill="#000000">cimg_library_suffixed</text>
<text text-anchor="middle" x="1119" y="-191" font-family="Helvetica,sans-Serif" font-size="10.00" fill="#000000">::cimg::_exception_mode</text>
</a>
</g>
</g>
<!-- Node1115&#45;&gt;Node1116 -->
<g id="edge17" class="edge">
<title>Node1115&#45;&gt;Node1116</title>
<path fill="none" stroke="#191970" d="M1013.9447,-170.0192C1027.0889,-173.6452 1041.2562,-177.5534 1054.8009,-181.2899"/>
<polygon fill="#191970" stroke="#191970" points="1053.9593,-184.6884 1064.53,-183.9738 1055.8209,-177.9405 1053.9593,-184.6884"/>
</g>
<!-- Node1116&#45;&gt;Node1107 -->
<g id="edge18" class="edge">
<title>Node1116&#45;&gt;Node1107</title>
<path fill="none" stroke="#191970" d="M1182.3338,-198.5739C1223.5803,-197.9509 1278.5345,-196.4709 1327,-193 1384.9368,-188.8508 1450.5744,-181.0694 1497.8098,-174.9223"/>
<polygon fill="#191970" stroke="#191970" points="1498.4407,-178.3696 1507.9,-173.5976 1497.5294,-171.4292 1498.4407,-178.3696"/>
</g>
<!-- Node1116&#45;&gt;Node1113 -->
<g id="edge25" class="edge">
<title>Node1116&#45;&gt;Node1113</title>
<path fill="none" stroke="#191970" d="M1055.5626,-196.0707C1011.4094,-193.3408 951.3067,-188.2452 899,-179 889.2759,-177.2813 879.0705,-175.0267 869.16,-172.5875"/>
<polygon fill="#191970" stroke="#191970" points="869.9306,-169.1721 859.3764,-170.0997 868.2054,-175.9562 869.9306,-169.1721"/>
</g>
<!-- Node1117 -->
<g id="node15" class="node">
<title>Node1117</title>
<g id="a_node15"><a xlink:href="namespacecimg__library__suffixed_1_1cimg.html#a01a3b743897290604513ea6d847c9886" target="_top" xlink:title="cimg_library_suffixed\l::cimg::_stdin">
<polygon fill="#ffffff" stroke="#000000" points="1218,-154 1218,-184 1327,-184 1327,-154 1218,-154"/>
<text text-anchor="start" x="1226" y="-172" font-family="Helvetica,sans-Serif" font-size="10.00" fill="#000000">cimg_library_suffixed</text>
<text text-anchor="middle" x="1272.5" y="-161" font-family="Helvetica,sans-Serif" font-size="10.00" fill="#000000">::cimg::_stdin</text>
</a>
</g>
</g>
<!-- Node1116&#45;&gt;Node1117 -->
<g id="edge19" class="edge">
<title>Node1116&#45;&gt;Node1117</title>
<path fill="none" stroke="#191970" d="M1182.3205,-186.6246C1190.6577,-184.9952 1199.2131,-183.3232 1207.5765,-181.6886"/>
<polygon fill="#191970" stroke="#191970" points="1208.5123,-185.072 1217.6553,-179.7188 1207.1696,-178.202 1208.5123,-185.072"/>
</g>
<!-- Node1118 -->
<g id="node16" class="node">
<title>Node1118</title>
<g id="a_node16"><a xlink:href="namespacecimg__library__suffixed_1_1cimg.html#a493220746e5df3466568bd7862825008" target="_top" xlink:title="cimg_library_suffixed\l::cimg::_stdout">
<polygon fill="#ffffff" stroke="#000000" points="1218,-105 1218,-135 1327,-135 1327,-105 1218,-105"/>
<text text-anchor="start" x="1226" y="-123" font-family="Helvetica,sans-Serif" font-size="10.00" fill="#000000">cimg_library_suffixed</text>
<text text-anchor="middle" x="1272.5" y="-112" font-family="Helvetica,sans-Serif" font-size="10.00" fill="#000000">::cimg::_stdout</text>
</a>
</g>
</g>
<!-- Node1116&#45;&gt;Node1118 -->
<g id="edge22" class="edge">
<title>Node1116&#45;&gt;Node1118</title>
<path fill="none" stroke="#191970" d="M1144.7061,-183.861C1164.4876,-172.4219 1192.6421,-156.5938 1218,-144 1221.1511,-142.435 1224.4276,-140.862 1227.7403,-139.3107"/>
<polygon fill="#191970" stroke="#191970" points="1229.4665,-142.3698 1237.0987,-135.0213 1226.5497,-136.0064 1229.4665,-142.3698"/>
</g>
<!-- Node1117&#45;&gt;Node1114 -->
<g id="edge20" class="edge">
<title>Node1117&#45;&gt;Node1114</title>
<path fill="none" stroke="#191970" d="M1317.1879,-153.8986C1331.659,-149.0083 1347.8725,-143.5293 1362.9752,-138.4256"/>
<polygon fill="#191970" stroke="#191970" points="1364.3569,-141.6532 1372.71,-135.1359 1362.1158,-135.0217 1364.3569,-141.6532"/>
</g>
<!-- Node1117&#45;&gt;Node1115 -->
<g id="edge21" class="edge">
<title>Node1117&#45;&gt;Node1115</title>
<path fill="none" stroke="#191970" d="M1217.9666,-166.5608C1165.8805,-164.2311 1087.1092,-160.7078 1030.2205,-158.1632"/>
<polygon fill="#191970" stroke="#191970" points="1030.3671,-154.6664 1020.2207,-157.7159 1030.0543,-161.6594 1030.3671,-154.6664"/>
</g>
<!-- Node1118&#45;&gt;Node1114 -->
<g id="edge23" class="edge">
<title>Node1118&#45;&gt;Node1114</title>
<path fill="none" stroke="#191970" d="M1327.3183,-120C1335.5286,-120 1344.0611,-120 1352.4586,-120"/>
<polygon fill="#191970" stroke="#191970" points="1352.6042,-123.5001 1362.6042,-120 1352.6042,-116.5001 1352.6042,-123.5001"/>
</g>
<!-- Node1118&#45;&gt;Node1115 -->
<g id="edge24" class="edge">
<title>Node1118&#45;&gt;Node1115</title>
<path fill="none" stroke="#191970" d="M1217.9666,-126.098C1165.8805,-131.9223 1087.1092,-140.7306 1030.2205,-147.092"/>
<polygon fill="#191970" stroke="#191970" points="1029.7698,-143.6205 1020.2207,-148.2101 1030.5477,-150.5771 1029.7698,-143.6205"/>
</g>
</g>
</svg>
        <g id="navigator" transform="translate(0 0)" fill="#404254">
                <rect fill="#f2f5e9" fill-opacity="0.5" stroke="#606060" stroke-width=".5" x="0" y="0" width="60" height="60"/>
                <use id="zoomplus" xlink:href="#zoomPlus" x="17" y="9" onmousedown="handleZoom(evt,'in')"/>
                <use id="zoomminus" xlink:href="#zoomMin" x="42" y="9" onmousedown="handleZoom(evt,'out')"/>
                <use id="reset" xlink:href="#resetDef" x="30" y="36" onmousedown="handleReset()"/>
                <g id="arrowUp" xlink:href="#dirArrow" transform="translate(30 24)" onmousedown="handlePan(0,-1)">
                  <use xlink:href="#rim" fill="#404040">
                        <set attributeName="fill" to="#808080" begin="arrowUp.mouseover" end="arrowUp.mouseout"/>
                  </use>
                  <path fill="none" stroke="white" stroke-width="1.5" d="M0,-3.0v7 M-2.5,-0.5L0,-3.0L2.5,-0.5"/>
                </g>
                <g id="arrowRight" xlink:href="#dirArrow" transform="rotate(90) translate(36 -43)" onmousedown="handlePan(1,0)">
                  <use xlink:href="#rim" fill="#404040">
                        <set attributeName="fill" to="#808080" begin="arrowRight.mouseover" end="arrowRight.mouseout"/>
                  </use>
                  <path fill="none" stroke="white" stroke-width="1.5" d="M0,-3.0v7 M-2.5,-0.5L0,-3.0L2.5,-0.5"/>
                </g>
                <g id="arrowDown" xlink:href="#dirArrow" transform="rotate(180) translate(-30 -48)" onmousedown="handlePan(0,1)">
                  <use xlink:href="#rim" fill="#404040">
                        <set attributeName="fill" to="#808080" begin="arrowDown.mouseover" end="arrowDown.mouseout"/>
                  </use>
                  <path fill="none" stroke="white" stroke-width="1.5" d="M0,-3.0v7 M-2.5,-0.5L0,-3.0L2.5,-0.5"/>
                </g>
                <g id="arrowLeft" xlink:href="#dirArrow" transform="rotate(270) translate(-36 17)" onmousedown="handlePan(-1,0)">
                  <use xlink:href="#rim" fill="#404040">
                        <set attributeName="fill" to="#808080" begin="arrowLeft.mouseover" end="arrowLeft.mouseout"/>
                  </use>
                  <path fill="none" stroke="white" stroke-width="1.5" d="M0,-3.0v7 M-2.5,-0.5L0,-3.0L2.5,-0.5"/>
                </g>
        </g>
        <svg viewBox="0 0 15 15" width="100%" height="30px" preserveAspectRatio="xMaxYMin meet">
         <g id="arrow_out" transform="scale(0.3 0.3)">
          <a xlink:href="structcimg__library__suffixed_1_1_c_img_1_1__cimg__math__parser_af7fb3feda25a9780c61545b7a4bc45f6_cgraph_org.svg" target="_base">
           <rect id="button" ry="5" rx="5" y="6" x="6" height="38" width="38"
                fill="#f2f5e9" fill-opacity="0.5" stroke="#606060" stroke-width="1.0"/>
           <path id="arrow"
             d="M 11.500037,31.436501 C 11.940474,20.09759 22.043105,11.32322 32.158766,21.979434 L 37.068811,17.246167 C 37.068811,17.246167 37.088388,32 37.088388,32 L 22.160133,31.978069 C 22.160133,31.978069 26.997745,27.140456 26.997745,27.140456 C 18.528582,18.264221 13.291696,25.230495 11.500037,31.436501 z"
             style="fill:#404040;"/>
          </a>
         </g>
        </svg>
</svg>
