<?xml version="1.0" encoding="UTF-8" standalone="no"?>
<!DOCTYPE svg PUBLIC "-//W3C//DTD SVG 1.1//EN"
 "http://www.w3.org/Graphics/SVG/1.1/DTD/svg11.dtd">
<!-- Generated by graphviz version 2.40.1 (20161225.0304)
 -->
<!-- Title: cimg_library_suffixed::CImg::atXY Pages: 1 -->
<svg width="293pt" height="149pt"
 viewBox="0.00 0.00 293.00 148.50" xmlns="http://www.w3.org/2000/svg" xmlns:xlink="http://www.w3.org/1999/xlink">
<g id="graph0" class="graph" transform="scale(1 1) rotate(0) translate(4 144.5)">
<title>cimg_library_suffixed::CImg::atXY</title>
<polygon fill="#ffffff" stroke="transparent" points="-4,4 -4,-144.5 289,-144.5 289,4 -4,4"/>
<!-- Node516 -->
<g id="node1" class="node">
<title>Node516</title>
<polygon fill="#bfbfbf" stroke="#000000" points="0,-49.5 0,-79.5 109,-79.5 109,-49.5 0,-49.5"/>
<text text-anchor="start" x="8" y="-67.5" font-family="Helvetica,sans-Serif" font-size="10.00" fill="#000000">cimg_library_suffixed</text>
<text text-anchor="middle" x="54.5" y="-56.5" font-family="Helvetica,sans-Serif" font-size="10.00" fill="#000000">::CImg::atXY</text>
</g>
<!-- Node517 -->
<g id="node2" class="node">
<title>Node517</title>
<g id="a_node2"><a xlink:href="structcimg__library__suffixed_1_1_c_img_list.html#a6a1084bd95f7f75ec89a165ca1c63fdf" target="_top" xlink:title="cimg_library_suffixed\l::CImgList\&lt; charT \&gt;::\l_atNXY">
<polygon fill="#ffffff" stroke="#000000" points="159.5,-99 159.5,-140 270.5,-140 270.5,-99 159.5,-99"/>
<text text-anchor="start" x="167.5" y="-128" font-family="Helvetica,sans-Serif" font-size="10.00" fill="#000000">cimg_library_suffixed</text>
<text text-anchor="start" x="167.5" y="-117" font-family="Helvetica,sans-Serif" font-size="10.00" fill="#000000">::CImgList&lt; charT &gt;::</text>
<text text-anchor="middle" x="215" y="-106" font-family="Helvetica,sans-Serif" font-size="10.00" fill="#000000">_atNXY</text>
</a>
</g>
</g>
<!-- Node516&#45;&gt;Node517 -->
<g id="edge1" class="edge">
<title>Node516&#45;&gt;Node517</title>
<path fill="none" stroke="#191970" d="M107.88,-82.7922C124.4344,-88.4651 142.7133,-94.7289 159.4138,-100.4518"/>
<polygon fill="#191970" stroke="#191970" points="108.9519,-79.4598 98.3573,-79.529 106.6827,-86.0818 108.9519,-79.4598"/>
</g>
<!-- Node518 -->
<g id="node3" class="node">
<title>Node518</title>
<g id="a_node3"><a xlink:href="structcimg__library__suffixed_1_1_c_img.html#a7cba468815b7ce868cc5119e89046420" target="_top" xlink:title="cimg_library_suffixed\l::CImg\&lt; charT \&gt;::_save_off">
<polygon fill="#ffffff" stroke="#000000" points="146,-49.5 146,-79.5 284,-79.5 284,-49.5 146,-49.5"/>
<text text-anchor="start" x="154" y="-67.5" font-family="Helvetica,sans-Serif" font-size="10.00" fill="#000000">cimg_library_suffixed</text>
<text text-anchor="middle" x="215" y="-56.5" font-family="Helvetica,sans-Serif" font-size="10.00" fill="#000000">::CImg&lt; charT &gt;::_save_off</text>
</a>
</g>
</g>
<!-- Node516&#45;&gt;Node518 -->
<g id="edge2" class="edge">
<title>Node516&#45;&gt;Node518</title>
<path fill="none" stroke="#191970" d="M119.4154,-64.5C128.1653,-64.5 137.1678,-64.5 145.9857,-64.5"/>
<polygon fill="#191970" stroke="#191970" points="119.2861,-61.0001 109.2861,-64.5 119.2861,-68.0001 119.2861,-61.0001"/>
</g>
<!-- Node519 -->
<g id="node4" class="node">
<title>Node519</title>
<g id="a_node4"><a xlink:href="structcimg__library__suffixed_1_1_c_img_list.html#a7ea7315ffe9bd28eadec75695bc34629" target="_top" xlink:title="Access to pixel value with Dirichlet boundary conditions for the 3 coordinates (pos, x,y) . ">
<polygon fill="#ffffff" stroke="#000000" points="145,-.5 145,-30.5 285,-30.5 285,-.5 145,-.5"/>
<text text-anchor="start" x="153" y="-18.5" font-family="Helvetica,sans-Serif" font-size="10.00" fill="#000000">cimg_library_suffixed</text>
<text text-anchor="middle" x="215" y="-7.5" font-family="Helvetica,sans-Serif" font-size="10.00" fill="#000000">::CImgList&lt; charT &gt;::atNXY</text>
</a>
</g>
</g>
<!-- Node516&#45;&gt;Node519 -->
<g id="edge3" class="edge">
<title>Node516&#45;&gt;Node519</title>
<path fill="none" stroke="#191970" d="M113.829,-46.3871C130.8921,-41.1778 149.3118,-35.5543 165.6984,-30.5516"/>
<polygon fill="#191970" stroke="#191970" points="112.5071,-43.1311 103.9649,-49.3986 114.5511,-49.8261 112.5071,-43.1311"/>
</g>
</g>
</svg>
