<?xml version="1.0" encoding="UTF-8" standalone="no"?>
<!DOCTYPE svg PUBLIC "-//W3C//DTD SVG 1.1//EN"
 "http://www.w3.org/Graphics/SVG/1.1/DTD/svg11.dtd">
<!-- Generated by graphviz version 2.40.1 (20161225.0304)
 -->
<!-- Title: cimg_library_suffixed::CImg::draw_object3d Pages: 1 -->
<svg width="291pt" height="100pt"
 viewBox="0.00 0.00 291.00 99.50" xmlns="http://www.w3.org/2000/svg" xmlns:xlink="http://www.w3.org/1999/xlink">
<g id="graph0" class="graph" transform="scale(1 1) rotate(0) translate(4 95.5)">
<title>cimg_library_suffixed::CImg::draw_object3d</title>
<polygon fill="#ffffff" stroke="transparent" points="-4,4 -4,-95.5 287,-95.5 287,4 -4,4"/>
<!-- Node1039 -->
<g id="node1" class="node">
<title>Node1039</title>
<polygon fill="#bfbfbf" stroke="#000000" points="0,-27.5 0,-57.5 116,-57.5 116,-27.5 0,-27.5"/>
<text text-anchor="start" x="8" y="-45.5" font-family="Helvetica,sans-Serif" font-size="10.00" fill="#000000">cimg_library_suffixed</text>
<text text-anchor="middle" x="58" y="-34.5" font-family="Helvetica,sans-Serif" font-size="10.00" fill="#000000">::CImg::draw_object3d</text>
</g>
<!-- Node1040 -->
<g id="node2" class="node">
<title>Node1040</title>
<g id="a_node2"><a xlink:href="structcimg__library__suffixed_1_1_c_img.html#a8b40db5a9818c3f961a90840b271de6c" target="_top" xlink:title="cimg_library_suffixed\l::CImg\&lt; charT \&gt;::_display\l_object3d">
<polygon fill="#ffffff" stroke="#000000" points="152,-50 152,-91 283,-91 283,-50 152,-50"/>
<text text-anchor="start" x="160" y="-79" font-family="Helvetica,sans-Serif" font-size="10.00" fill="#000000">cimg_library_suffixed</text>
<text text-anchor="start" x="160" y="-68" font-family="Helvetica,sans-Serif" font-size="10.00" fill="#000000">::CImg&lt; charT &gt;::_display</text>
<text text-anchor="middle" x="217.5" y="-57" font-family="Helvetica,sans-Serif" font-size="10.00" fill="#000000">_object3d</text>
</a>
</g>
</g>
<!-- Node1039&#45;&gt;Node1040 -->
<g id="edge1" class="edge">
<title>Node1039&#45;&gt;Node1040</title>
<path fill="none" stroke="#191970" d="M126.0143,-54.4398C134.6095,-55.9487 143.3906,-57.4902 151.9465,-58.9922"/>
<polygon fill="#191970" stroke="#191970" points="126.4889,-50.9697 116.0344,-52.6878 125.2786,-57.8643 126.4889,-50.9697"/>
</g>
<!-- Node1041 -->
<g id="node3" class="node">
<title>Node1041</title>
<g id="a_node3"><a xlink:href="structcimg__library__suffixed_1_1_c_img.html#ad9b7141242d0b6e861a8014112ddb5b5" target="_top" xlink:title="cimg_library_suffixed\l::CImg\&lt; charT \&gt;::_select">
<polygon fill="#ffffff" stroke="#000000" points="154,-.5 154,-30.5 281,-30.5 281,-.5 154,-.5"/>
<text text-anchor="start" x="162" y="-18.5" font-family="Helvetica,sans-Serif" font-size="10.00" fill="#000000">cimg_library_suffixed</text>
<text text-anchor="middle" x="217.5" y="-7.5" font-family="Helvetica,sans-Serif" font-size="10.00" fill="#000000">::CImg&lt; charT &gt;::_select</text>
</a>
</g>
</g>
<!-- Node1039&#45;&gt;Node1041 -->
<g id="edge2" class="edge">
<title>Node1039&#45;&gt;Node1041</title>
<path fill="none" stroke="#191970" d="M125.963,-30.9953C135.2135,-29.4294 144.6803,-27.8268 153.8508,-26.2745"/>
<polygon fill="#191970" stroke="#191970" points="125.3099,-27.556 116.0344,-32.676 126.4783,-34.4578 125.3099,-27.556"/>
</g>
</g>
</svg>
