<?xml version="1.0" encoding="UTF-8" standalone="no"?>
<!DOCTYPE svg PUBLIC "-//W3C//DTD SVG 1.1//EN"
 "http://www.w3.org/Graphics/SVG/1.1/DTD/svg11.dtd">
<!-- Generated by graphviz version 2.40.1 (20161225.0304)
 -->
<!-- Title: cimg_library_suffixed::CImg::_cimg_math_parser::mp_rot2d Pages: 1 -->
<svg width="458pt" height="88pt"
 viewBox="0.00 0.00 458.00 88.00" xmlns="http://www.w3.org/2000/svg" xmlns:xlink="http://www.w3.org/1999/xlink">
<g id="graph0" class="graph" transform="scale(1 1) rotate(0) translate(4 84)">
<title>cimg_library_suffixed::CImg::_cimg_math_parser::mp_rot2d</title>
<polygon fill="#ffffff" stroke="transparent" points="-4,4 -4,-84 454,-84 454,4 -4,4"/>
<!-- Node952 -->
<g id="node1" class="node">
<title>Node952</title>
<polygon fill="#bfbfbf" stroke="#000000" points="0,-19 0,-60 138,-60 138,-19 0,-19"/>
<text text-anchor="start" x="8" y="-48" font-family="Helvetica,sans-Serif" font-size="10.00" fill="#000000">cimg_library_suffixed</text>
<text text-anchor="start" x="8" y="-37" font-family="Helvetica,sans-Serif" font-size="10.00" fill="#000000">::CImg::_cimg_math_parser</text>
<text text-anchor="middle" x="69" y="-26" font-family="Helvetica,sans-Serif" font-size="10.00" fill="#000000">::mp_rot2d</text>
</g>
<!-- Node953 -->
<g id="node2" class="node">
<title>Node953</title>
<g id="a_node2"><a xlink:href="namespacecimg__library__suffixed.html#a758afc88f8b8d378717648ba797aee12" target="_top" xlink:title="cimg_library_suffixed::cos">
<polygon fill="#ffffff" stroke="#000000" points="174,-52 174,-71 305,-71 305,-52 174,-52"/>
<text text-anchor="middle" x="239.5" y="-59" font-family="Helvetica,sans-Serif" font-size="10.00" fill="#000000">cimg_library_suffixed::cos</text>
</a>
</g>
</g>
<!-- Node952&#45;&gt;Node953 -->
<g id="edge1" class="edge">
<title>Node952&#45;&gt;Node953</title>
<path fill="none" stroke="#191970" d="M138.3489,-48.4482C146.6731,-49.5223 155.207,-50.6235 163.6178,-51.7087"/>
<polygon fill="#191970" stroke="#191970" points="163.4279,-55.2132 173.7937,-53.0218 164.3238,-48.2707 163.4279,-55.2132"/>
</g>
<!-- Node955 -->
<g id="node4" class="node">
<title>Node955</title>
<g id="a_node4"><a xlink:href="namespacecimg__library__suffixed.html#adadd90e3f405e206a38d01dc80e9be2d" target="_top" xlink:title="cimg_library_suffixed::sin">
<polygon fill="#ffffff" stroke="#000000" points="175.5,-11 175.5,-30 303.5,-30 303.5,-11 175.5,-11"/>
<text text-anchor="middle" x="239.5" y="-18" font-family="Helvetica,sans-Serif" font-size="10.00" fill="#000000">cimg_library_suffixed::sin</text>
</a>
</g>
</g>
<!-- Node952&#45;&gt;Node955 -->
<g id="edge3" class="edge">
<title>Node952&#45;&gt;Node955</title>
<path fill="none" stroke="#191970" d="M138.3489,-31.772C147.2579,-30.7792 156.4072,-29.7596 165.3887,-28.7587"/>
<polygon fill="#191970" stroke="#191970" points="165.8852,-32.2252 175.436,-27.6391 165.1098,-25.2682 165.8852,-32.2252"/>
</g>
<!-- Node954 -->
<g id="node3" class="node">
<title>Node954</title>
<g id="a_node3"><a xlink:href="structcimg__library__suffixed_1_1_c_img.html#a1d6d4be9892469025a791f19848d8638" target="_top" xlink:title="Compute the cosine of each pixel value . ">
<polygon fill="#ffffff" stroke="#000000" points="341,-49.5 341,-79.5 450,-79.5 450,-49.5 341,-49.5"/>
<text text-anchor="start" x="349" y="-67.5" font-family="Helvetica,sans-Serif" font-size="10.00" fill="#000000">cimg_library_suffixed</text>
<text text-anchor="middle" x="395.5" y="-56.5" font-family="Helvetica,sans-Serif" font-size="10.00" fill="#000000">::CImg::get_cos</text>
</a>
</g>
</g>
<!-- Node953&#45;&gt;Node954 -->
<g id="edge2" class="edge">
<title>Node953&#45;&gt;Node954</title>
<path fill="none" stroke="#191970" d="M305.2059,-62.7636C313.6122,-62.9252 322.2139,-63.0907 330.6071,-63.2521"/>
<polygon fill="#191970" stroke="#191970" points="330.649,-66.7534 340.7145,-63.4464 330.7836,-59.7547 330.649,-66.7534"/>
</g>
<!-- Node956 -->
<g id="node5" class="node">
<title>Node956</title>
<g id="a_node5"><a xlink:href="structcimg__library__suffixed_1_1_c_img.html#ada2a306f3b37f5630573447fc9578124" target="_top" xlink:title="Compute the sine of each pixel value . ">
<polygon fill="#ffffff" stroke="#000000" points="341,-.5 341,-30.5 450,-30.5 450,-.5 341,-.5"/>
<text text-anchor="start" x="349" y="-18.5" font-family="Helvetica,sans-Serif" font-size="10.00" fill="#000000">cimg_library_suffixed</text>
<text text-anchor="middle" x="395.5" y="-7.5" font-family="Helvetica,sans-Serif" font-size="10.00" fill="#000000">::CImg::get_sin</text>
</a>
</g>
</g>
<!-- Node955&#45;&gt;Node956 -->
<g id="edge4" class="edge">
<title>Node955&#45;&gt;Node956</title>
<path fill="none" stroke="#191970" d="M303.8518,-18.4374C312.6592,-18.1552 321.7062,-17.8652 330.5246,-17.5825"/>
<polygon fill="#191970" stroke="#191970" points="330.8609,-21.0737 340.7436,-17.255 330.6366,-14.0773 330.8609,-21.0737"/>
</g>
</g>
</svg>
