<?xml version="1.0" encoding="UTF-8" standalone="no"?>
<!DOCTYPE svg PUBLIC "-//W3C//DTD SVG 1.1//EN"
 "http://www.w3.org/Graphics/SVG/1.1/DTD/svg11.dtd">
<!-- Generated by graphviz version 2.40.1 (20161225.0304)
 -->
<!-- Title: cimg_library_suffixed::CImgList::save_video Pages: 1 -->
<svg width="307pt" height="39pt"
 viewBox="0.00 0.00 307.00 39.00" xmlns="http://www.w3.org/2000/svg" xmlns:xlink="http://www.w3.org/1999/xlink">
<g id="graph0" class="graph" transform="scale(1 1) rotate(0) translate(4 35)">
<title>cimg_library_suffixed::CImgList::save_video</title>
<polygon fill="#ffffff" stroke="transparent" points="-4,4 -4,-35 303,-35 303,4 -4,4"/>
<!-- Node583 -->
<g id="node1" class="node">
<title>Node583</title>
<polygon fill="#bfbfbf" stroke="#000000" points="0,-.5 0,-30.5 118,-30.5 118,-.5 0,-.5"/>
<text text-anchor="start" x="8" y="-18.5" font-family="Helvetica,sans-Serif" font-size="10.00" fill="#000000">cimg_library_suffixed</text>
<text text-anchor="middle" x="59" y="-7.5" font-family="Helvetica,sans-Serif" font-size="10.00" fill="#000000">::CImgList::save_video</text>
</g>
<!-- Node584 -->
<g id="node2" class="node">
<title>Node584</title>
<g id="a_node2"><a xlink:href="structcimg__library__suffixed_1_1_c_img.html#a1bdca455737facbfa2ca6fd959a39cd4" target="_top" xlink:title="Save volumetric image as a video, using the OpenCV library. ">
<polygon fill="#ffffff" stroke="#000000" points="154,-.5 154,-30.5 299,-30.5 299,-.5 154,-.5"/>
<text text-anchor="start" x="162" y="-18.5" font-family="Helvetica,sans-Serif" font-size="10.00" fill="#000000">cimg_library_suffixed</text>
<text text-anchor="middle" x="226.5" y="-7.5" font-family="Helvetica,sans-Serif" font-size="10.00" fill="#000000">::CImg&lt; charT &gt;::save_video</text>
</a>
</g>
</g>
<!-- Node583&#45;&gt;Node584 -->
<g id="edge1" class="edge">
<title>Node583&#45;&gt;Node584</title>
<path fill="none" stroke="#191970" d="M128.2501,-15.5C136.7115,-15.5 145.3766,-15.5 153.8855,-15.5"/>
<polygon fill="#191970" stroke="#191970" points="128.0543,-12.0001 118.0542,-15.5 128.0542,-19.0001 128.0543,-12.0001"/>
</g>
</g>
</svg>
