<?xml version="1.0" encoding="UTF-8" standalone="no"?>
<!DOCTYPE svg PUBLIC "-//W3C//DTD SVG 1.1//EN"
 "http://www.w3.org/Graphics/SVG/1.1/DTD/svg11.dtd">
<!-- Generated by graphviz version 2.40.1 (20161225.0304)
 -->
<!-- Title: cimg_library_suffixed::CImg::set_linear_atX Pages: 1 -->
<svg width="294pt" height="39pt"
 viewBox="0.00 0.00 294.00 39.00" xmlns="http://www.w3.org/2000/svg" xmlns:xlink="http://www.w3.org/1999/xlink">
<g id="graph0" class="graph" transform="scale(1 1) rotate(0) translate(4 35)">
<title>cimg_library_suffixed::CImg::set_linear_atX</title>
<polygon fill="#ffffff" stroke="transparent" points="-4,4 -4,-35 290,-35 290,4 -4,4"/>
<!-- Node3112 -->
<g id="node1" class="node">
<title>Node3112</title>
<polygon fill="#bfbfbf" stroke="#000000" points="0,-.5 0,-30.5 115,-30.5 115,-.5 0,-.5"/>
<text text-anchor="start" x="8" y="-18.5" font-family="Helvetica,sans-Serif" font-size="10.00" fill="#000000">cimg_library_suffixed</text>
<text text-anchor="middle" x="57.5" y="-7.5" font-family="Helvetica,sans-Serif" font-size="10.00" fill="#000000">::CImg::set_linear_atX</text>
</g>
<!-- Node3113 -->
<g id="node2" class="node">
<title>Node3113</title>
<g id="a_node2"><a xlink:href="structcimg__library__suffixed_1_1_c_img.html#a8ec8cca0b51ca156165ffd77acf39e09" target="_top" xlink:title="Warp image content by a warping field . ">
<polygon fill="#ffffff" stroke="#000000" points="151,-.5 151,-30.5 286,-30.5 286,-.5 151,-.5"/>
<text text-anchor="start" x="159" y="-18.5" font-family="Helvetica,sans-Serif" font-size="10.00" fill="#000000">cimg_library_suffixed</text>
<text text-anchor="middle" x="218.5" y="-7.5" font-family="Helvetica,sans-Serif" font-size="10.00" fill="#000000">::CImg&lt; charT &gt;::get_warp</text>
</a>
</g>
</g>
<!-- Node3112&#45;&gt;Node3113 -->
<g id="edge1" class="edge">
<title>Node3112&#45;&gt;Node3113</title>
<path fill="none" stroke="#191970" d="M125.331,-15.5C133.7596,-15.5 142.3782,-15.5 150.8047,-15.5"/>
<polygon fill="#191970" stroke="#191970" points="125.17,-12.0001 115.1699,-15.5 125.1699,-19.0001 125.17,-12.0001"/>
</g>
</g>
</svg>
