<?xml version="1.0" encoding="UTF-8" standalone="no"?>
<!DOCTYPE svg PUBLIC "-//W3C//DTD SVG 1.1//EN"
 "http://www.w3.org/Graphics/SVG/1.1/DTD/svg11.dtd">
<!-- Generated by graphviz version 2.40.1 (20161225.0304)
 -->
<!-- Title: cimg_library_suffixed::CImg::is_empty Pages: 1 -->
<svg width="451pt" height="269pt"
 viewBox="0.00 0.00 451.00 268.50" xmlns="http://www.w3.org/2000/svg" xmlns:xlink="http://www.w3.org/1999/xlink">
<g id="graph0" class="graph" transform="scale(1 1) rotate(0) translate(4 264.5)">
<title>cimg_library_suffixed::CImg::is_empty</title>
<polygon fill="#ffffff" stroke="transparent" points="-4,4 -4,-264.5 447,-264.5 447,4 -4,4"/>
<!-- Node2215 -->
<g id="node1" class="node">
<title>Node2215</title>
<polygon fill="#bfbfbf" stroke="#000000" points="0,-134.5 0,-164.5 109,-164.5 109,-134.5 0,-134.5"/>
<text text-anchor="start" x="8" y="-152.5" font-family="Helvetica,sans-Serif" font-size="10.00" fill="#000000">cimg_library_suffixed</text>
<text text-anchor="middle" x="54.5" y="-141.5" font-family="Helvetica,sans-Serif" font-size="10.00" fill="#000000">::CImg::is_empty</text>
</g>
<!-- Node2216 -->
<g id="node2" class="node">
<title>Node2216</title>
<g id="a_node2"><a xlink:href="structcimg__library__suffixed_1_1_c_img.html#a6dba86c8049ae141ffc9936b2eaf5c5c" target="_top" xlink:title="cimg_library_suffixed\l::CImg\&lt; charT \&gt;::_draw\l_object3d">
<polygon fill="#ffffff" stroke="#000000" points="146.5,-219 146.5,-260 268.5,-260 268.5,-219 146.5,-219"/>
<text text-anchor="start" x="154.5" y="-248" font-family="Helvetica,sans-Serif" font-size="10.00" fill="#000000">cimg_library_suffixed</text>
<text text-anchor="start" x="154.5" y="-237" font-family="Helvetica,sans-Serif" font-size="10.00" fill="#000000">::CImg&lt; charT &gt;::_draw</text>
<text text-anchor="middle" x="207.5" y="-226" font-family="Helvetica,sans-Serif" font-size="10.00" fill="#000000">_object3d</text>
</a>
</g>
</g>
<!-- Node2215&#45;&gt;Node2216 -->
<g id="edge1" class="edge">
<title>Node2215&#45;&gt;Node2216</title>
<path fill="none" stroke="#191970" d="M84.1217,-170.638C101.4868,-182.6465 124.0614,-197.6089 145,-209.5 150.6516,-212.7096 156.6999,-215.9 162.726,-218.9364"/>
<polygon fill="#191970" stroke="#191970" points="85.756,-167.5107 75.552,-164.6596 81.7509,-173.2517 85.756,-167.5107"/>
</g>
<!-- Node2217 -->
<g id="node3" class="node">
<title>Node2217</title>
<g id="a_node3"><a xlink:href="structcimg__library__suffixed_1_1_c_img_list.html#ab2437a10d0bbe2f4d5e91a49dc5cd105" target="_top" xlink:title="Unserialize a CImg&lt;unsigned char&gt; serialized buffer into a CImgList&lt;T&gt; list. ">
<polygon fill="#ffffff" stroke="#000000" points="152,-159 152,-200 263,-200 263,-159 152,-159"/>
<text text-anchor="start" x="160" y="-188" font-family="Helvetica,sans-Serif" font-size="10.00" fill="#000000">cimg_library_suffixed</text>
<text text-anchor="start" x="160" y="-177" font-family="Helvetica,sans-Serif" font-size="10.00" fill="#000000">::CImgList&lt; charT &gt;::</text>
<text text-anchor="middle" x="207.5" y="-166" font-family="Helvetica,sans-Serif" font-size="10.00" fill="#000000">get_unserialize</text>
</a>
</g>
</g>
<!-- Node2215&#45;&gt;Node2217 -->
<g id="edge2" class="edge">
<title>Node2215&#45;&gt;Node2217</title>
<path fill="none" stroke="#191970" d="M119.1545,-162.1773C130.0081,-164.3055 141.1879,-166.4976 151.7909,-168.5767"/>
<polygon fill="#191970" stroke="#191970" points="119.791,-158.7356 109.3044,-160.246 118.444,-165.6048 119.791,-158.7356"/>
</g>
<!-- Node2218 -->
<g id="node4" class="node">
<title>Node2218</title>
<g id="a_node4"><a xlink:href="structcimg__library__suffixed_1_1_c_img_list.html#a4fcada66102d9f9245f11d2127dbe8fb" target="_top" xlink:title="Save image sequence, using the OpenCV library. ">
<polygon fill="#ffffff" stroke="#000000" points="152,-99 152,-140 263,-140 263,-99 152,-99"/>
<text text-anchor="start" x="160" y="-128" font-family="Helvetica,sans-Serif" font-size="10.00" fill="#000000">cimg_library_suffixed</text>
<text text-anchor="start" x="160" y="-117" font-family="Helvetica,sans-Serif" font-size="10.00" fill="#000000">::CImgList&lt; charT &gt;::</text>
<text text-anchor="middle" x="207.5" y="-106" font-family="Helvetica,sans-Serif" font-size="10.00" fill="#000000">save_video</text>
</a>
</g>
</g>
<!-- Node2215&#45;&gt;Node2218 -->
<g id="edge3" class="edge">
<title>Node2215&#45;&gt;Node2218</title>
<path fill="none" stroke="#191970" d="M119.1545,-136.8227C130.0081,-134.6945 141.1879,-132.5024 151.7909,-130.4233"/>
<polygon fill="#191970" stroke="#191970" points="118.444,-133.3952 109.3044,-138.754 119.791,-140.2644 118.444,-133.3952"/>
</g>
<!-- Node2219 -->
<g id="node5" class="node">
<title>Node2219</title>
<g id="a_node5"><a xlink:href="structcimg__library__suffixed_1_1_c_img_display.html#a914ee0515249db301dc66275861a6b3e" target="_top" xlink:title="Take a snapshot of the associated window content. ">
<polygon fill="#ffffff" stroke="#000000" points="145,-49.5 145,-79.5 270,-79.5 270,-49.5 145,-49.5"/>
<text text-anchor="start" x="153" y="-67.5" font-family="Helvetica,sans-Serif" font-size="10.00" fill="#000000">cimg_library_suffixed</text>
<text text-anchor="middle" x="207.5" y="-56.5" font-family="Helvetica,sans-Serif" font-size="10.00" fill="#000000">::CImgDisplay::snapshot</text>
</a>
</g>
</g>
<!-- Node2215&#45;&gt;Node2219 -->
<g id="edge4" class="edge">
<title>Node2215&#45;&gt;Node2219</title>
<path fill="none" stroke="#191970" d="M83.1426,-128.3146C100.4972,-116.0436 123.3905,-100.832 145,-89.5 151.7274,-85.9722 159.0678,-82.6241 166.2762,-79.5919"/>
<polygon fill="#191970" stroke="#191970" points="80.7,-125.7589 74.6083,-134.4273 84.7762,-131.4497 80.7,-125.7589"/>
</g>
<!-- Node2220 -->
<g id="node6" class="node">
<title>Node2220</title>
<g id="a_node6"><a xlink:href="structcimg__library__suffixed_1_1_c_img.html#a015159d8cee61c2f2316c3e128470a71" target="_top" xlink:title="Construct image from a display window. ">
<polygon fill="#ffffff" stroke="#000000" points="315,-98.5 315,-128.5 434,-128.5 434,-98.5 315,-98.5"/>
<text text-anchor="start" x="323" y="-116.5" font-family="Helvetica,sans-Serif" font-size="10.00" fill="#000000">cimg_library_suffixed</text>
<text text-anchor="middle" x="374.5" y="-105.5" font-family="Helvetica,sans-Serif" font-size="10.00" fill="#000000">::CImg&lt; charT &gt;::CImg</text>
</a>
</g>
</g>
<!-- Node2219&#45;&gt;Node2220 -->
<g id="edge5" class="edge">
<title>Node2219&#45;&gt;Node2220</title>
<path fill="none" stroke="#191970" d="M268.7344,-82.467C286.6275,-87.717 305.9922,-93.3989 323.2018,-98.4484"/>
<polygon fill="#191970" stroke="#191970" points="269.5491,-79.0585 258.9682,-79.6014 267.5782,-85.7754 269.5491,-79.0585"/>
</g>
<!-- Node2221 -->
<g id="node7" class="node">
<title>Node2221</title>
<g id="a_node7"><a xlink:href="structcimg__library__suffixed_1_1_c_img.html#a668fe887682e7cbb469409842bb98cd2" target="_top" xlink:title="Construct image from a display window . ">
<polygon fill="#ffffff" stroke="#000000" points="312.5,-49.5 312.5,-79.5 436.5,-79.5 436.5,-49.5 312.5,-49.5"/>
<text text-anchor="start" x="320.5" y="-67.5" font-family="Helvetica,sans-Serif" font-size="10.00" fill="#000000">cimg_library_suffixed</text>
<text text-anchor="middle" x="374.5" y="-56.5" font-family="Helvetica,sans-Serif" font-size="10.00" fill="#000000">::CImg&lt; charT &gt;::assign</text>
</a>
</g>
</g>
<!-- Node2219&#45;&gt;Node2221 -->
<g id="edge6" class="edge">
<title>Node2219&#45;&gt;Node2221</title>
<path fill="none" stroke="#191970" d="M280.2986,-64.5C290.9736,-64.5 301.8858,-64.5 312.3219,-64.5"/>
<polygon fill="#191970" stroke="#191970" points="280.1598,-61.0001 270.1598,-64.5 280.1597,-68.0001 280.1598,-61.0001"/>
</g>
<!-- Node2222 -->
<g id="node8" class="node">
<title>Node2222</title>
<g id="a_node8"><a xlink:href="structcimg__library__suffixed_1_1_c_img.html#a75e18966d8e02a9cee85642038e30a08" target="_top" xlink:title="Copy the content of a display window to the current image instance. ">
<polygon fill="#ffffff" stroke="#000000" points="306,-.5 306,-30.5 443,-30.5 443,-.5 306,-.5"/>
<text text-anchor="start" x="314" y="-18.5" font-family="Helvetica,sans-Serif" font-size="10.00" fill="#000000">cimg_library_suffixed</text>
<text text-anchor="middle" x="374.5" y="-7.5" font-family="Helvetica,sans-Serif" font-size="10.00" fill="#000000">::CImg&lt; charT &gt;::operator=</text>
</a>
</g>
</g>
<!-- Node2219&#45;&gt;Node2222 -->
<g id="edge7" class="edge">
<title>Node2219&#45;&gt;Node2222</title>
<path fill="none" stroke="#191970" d="M268.7344,-46.533C286.6275,-41.283 305.9922,-35.6011 323.2018,-30.5516"/>
<polygon fill="#191970" stroke="#191970" points="267.5782,-43.2246 258.9682,-49.3986 269.5491,-49.9415 267.5782,-43.2246"/>
</g>
</g>
</svg>
