<?xml version="1.0" encoding="UTF-8" standalone="no"?>
<!DOCTYPE svg PUBLIC "-//W3C//DTD SVG 1.1//EN"
 "http://www.w3.org/Graphics/SVG/1.1/DTD/svg11.dtd">
<!-- Generated by graphviz version 2.40.1 (20161225.0304)
 -->
<!-- Title: cimg_library_suffixed::CImg::get_transpose Pages: 1 -->
<svg width="296pt" height="160pt"
 viewBox="0.00 0.00 296.00 159.50" xmlns="http://www.w3.org/2000/svg" xmlns:xlink="http://www.w3.org/1999/xlink">
<g id="graph0" class="graph" transform="scale(1 1) rotate(0) translate(4 155.5)">
<title>cimg_library_suffixed::CImg::get_transpose</title>
<polygon fill="#ffffff" stroke="transparent" points="-4,4 -4,-155.5 292,-155.5 292,4 -4,4"/>
<!-- Node2098 -->
<g id="node1" class="node">
<title>Node2098</title>
<polygon fill="#bfbfbf" stroke="#000000" points="0,-55.5 0,-85.5 114,-85.5 114,-55.5 0,-55.5"/>
<text text-anchor="start" x="8" y="-73.5" font-family="Helvetica,sans-Serif" font-size="10.00" fill="#000000">cimg_library_suffixed</text>
<text text-anchor="middle" x="57" y="-62.5" font-family="Helvetica,sans-Serif" font-size="10.00" fill="#000000">::CImg::get_transpose</text>
</g>
<!-- Node2099 -->
<g id="node2" class="node">
<title>Node2099</title>
<g id="a_node2"><a xlink:href="structcimg__library__suffixed_1_1_c_img_1_1__cimg__math__parser.html#a3dffc597ff9c370f441b0290b0fe0db2" target="_top" xlink:title="cimg_library_suffixed\l::CImg::_cimg_math_parser\l::mp_matrix_eig">
<polygon fill="#ffffff" stroke="#000000" points="150,-110 150,-151 288,-151 288,-110 150,-110"/>
<text text-anchor="start" x="158" y="-139" font-family="Helvetica,sans-Serif" font-size="10.00" fill="#000000">cimg_library_suffixed</text>
<text text-anchor="start" x="158" y="-128" font-family="Helvetica,sans-Serif" font-size="10.00" fill="#000000">::CImg::_cimg_math_parser</text>
<text text-anchor="middle" x="219" y="-117" font-family="Helvetica,sans-Serif" font-size="10.00" fill="#000000">::mp_matrix_eig</text>
</a>
</g>
</g>
<!-- Node2098&#45;&gt;Node2099 -->
<g id="edge1" class="edge">
<title>Node2098&#45;&gt;Node2099</title>
<path fill="none" stroke="#191970" d="M107.4832,-89.1975C125.2423,-95.7749 145.2938,-103.2014 163.4471,-109.9249"/>
<polygon fill="#191970" stroke="#191970" points="108.4726,-85.8316 97.8794,-85.6405 106.0413,-92.3959 108.4726,-85.8316"/>
</g>
<!-- Node2100 -->
<g id="node3" class="node">
<title>Node2100</title>
<g id="a_node3"><a xlink:href="structcimg__library__suffixed_1_1_c_img_1_1__cimg__math__parser.html#aab2b8ada4536124abc28712e3c8bb44e" target="_top" xlink:title="cimg_library_suffixed\l::CImg::_cimg_math_parser\l::mp_transp">
<polygon fill="#ffffff" stroke="#000000" points="150,-50 150,-91 288,-91 288,-50 150,-50"/>
<text text-anchor="start" x="158" y="-79" font-family="Helvetica,sans-Serif" font-size="10.00" fill="#000000">cimg_library_suffixed</text>
<text text-anchor="start" x="158" y="-68" font-family="Helvetica,sans-Serif" font-size="10.00" fill="#000000">::CImg::_cimg_math_parser</text>
<text text-anchor="middle" x="219" y="-57" font-family="Helvetica,sans-Serif" font-size="10.00" fill="#000000">::mp_transp</text>
</a>
</g>
</g>
<!-- Node2098&#45;&gt;Node2100 -->
<g id="edge2" class="edge">
<title>Node2098&#45;&gt;Node2100</title>
<path fill="none" stroke="#191970" d="M124.3009,-70.5C132.7559,-70.5 141.416,-70.5 149.8982,-70.5"/>
<polygon fill="#191970" stroke="#191970" points="124.1152,-67.0001 114.1151,-70.5 124.1151,-74.0001 124.1152,-67.0001"/>
</g>
<!-- Node2101 -->
<g id="node4" class="node">
<title>Node2101</title>
<g id="a_node4"><a xlink:href="namespacecimg__library__suffixed.html#a48465f36a81f510ce3368f0e0200532e" target="_top" xlink:title="cimg_library_suffixed\l::transpose">
<polygon fill="#ffffff" stroke="#000000" points="164.5,-.5 164.5,-30.5 273.5,-30.5 273.5,-.5 164.5,-.5"/>
<text text-anchor="start" x="172.5" y="-18.5" font-family="Helvetica,sans-Serif" font-size="10.00" fill="#000000">cimg_library_suffixed</text>
<text text-anchor="middle" x="219" y="-7.5" font-family="Helvetica,sans-Serif" font-size="10.00" fill="#000000">::transpose</text>
</a>
</g>
</g>
<!-- Node2098&#45;&gt;Node2101 -->
<g id="edge3" class="edge">
<title>Node2098&#45;&gt;Node2101</title>
<path fill="none" stroke="#191970" d="M110.8951,-52.2023C131.6372,-45.1602 155.0597,-37.2081 174.7863,-30.5108"/>
<polygon fill="#191970" stroke="#191970" points="109.6112,-48.9419 101.2672,-55.471 111.8616,-55.5703 109.6112,-48.9419"/>
</g>
</g>
</svg>
