<?xml version="1.0" encoding="UTF-8" standalone="no"?>
<!DOCTYPE svg PUBLIC "-//W3C//DTD SVG 1.1//EN"
 "http://www.w3.org/Graphics/SVG/1.1/DTD/svg11.dtd">
<!-- Generated by graphviz version 2.40.1 (20161225.0304)
 -->
<!-- Title: cimg_library_suffixed::CImg::get_cos Pages: 1 -->
<svg width="466pt" height="926pt"
 viewBox="0.00 0.00 466.00 925.50" xmlns="http://www.w3.org/2000/svg" xmlns:xlink="http://www.w3.org/1999/xlink">
<g id="graph0" class="graph" transform="scale(1 1) rotate(0) translate(4 921.5)">
<title>cimg_library_suffixed::CImg::get_cos</title>
<polygon fill="#ffffff" stroke="transparent" points="-4,4 -4,-921.5 462,-921.5 462,4 -4,4"/>
<!-- Node1358 -->
<g id="node1" class="node">
<title>Node1358</title>
<polygon fill="#bfbfbf" stroke="#000000" points="0,-449.5 0,-479.5 109,-479.5 109,-449.5 0,-449.5"/>
<text text-anchor="start" x="8" y="-467.5" font-family="Helvetica,sans-Serif" font-size="10.00" fill="#000000">cimg_library_suffixed</text>
<text text-anchor="middle" x="54.5" y="-456.5" font-family="Helvetica,sans-Serif" font-size="10.00" fill="#000000">::CImg::get_cos</text>
</g>
<!-- Node1359 -->
<g id="node2" class="node">
<title>Node1359</title>
<g id="a_node2"><a xlink:href="namespacecimg__library__suffixed.html#a758afc88f8b8d378717648ba797aee12" target="_top" xlink:title="cimg_library_suffixed::cos">
<polygon fill="#ffffff" stroke="#000000" points="145,-455 145,-474 276,-474 276,-455 145,-455"/>
<text text-anchor="middle" x="210.5" y="-462" font-family="Helvetica,sans-Serif" font-size="10.00" fill="#000000">cimg_library_suffixed::cos</text>
</a>
</g>
</g>
<!-- Node1358&#45;&gt;Node1359 -->
<g id="edge1" class="edge">
<title>Node1358&#45;&gt;Node1359</title>
<path fill="none" stroke="#191970" d="M119.2818,-457.8369C127.7713,-457.7243 136.476,-457.7211 144.9777,-457.8274"/>
<polygon fill="#191970" stroke="#191970" points="118.9938,-454.3416 109.0612,-458.0285 119.1251,-461.3404 118.9938,-454.3416"/>
</g>
<!-- Node1359&#45;&gt;Node1358 -->
<g id="edge12" class="edge">
<title>Node1359&#45;&gt;Node1358</title>
<path fill="none" stroke="#191970" d="M134.8183,-471.2473C126.127,-471.2672 117.3972,-471.1753 109.0612,-470.9715"/>
<polygon fill="#191970" stroke="#191970" points="135.0037,-474.7462 144.9777,-471.1726 134.9522,-467.7464 135.0037,-474.7462"/>
</g>
<!-- Node1360 -->
<g id="node3" class="node">
<title>Node1360</title>
<g id="a_node3"><a xlink:href="structcimg__library__suffixed_1_1_c_img.html#aea02b9cdc8518779ac4397ed0c733757" target="_top" xlink:title="cimg_library_suffixed\l::CImg\&lt; charT \&gt;::_draw\l_ellipse">
<polygon fill="#ffffff" stroke="#000000" points="324,-876 324,-917 446,-917 446,-876 324,-876"/>
<text text-anchor="start" x="332" y="-905" font-family="Helvetica,sans-Serif" font-size="10.00" fill="#000000">cimg_library_suffixed</text>
<text text-anchor="start" x="332" y="-894" font-family="Helvetica,sans-Serif" font-size="10.00" fill="#000000">::CImg&lt; charT &gt;::_draw</text>
<text text-anchor="middle" x="385" y="-883" font-family="Helvetica,sans-Serif" font-size="10.00" fill="#000000">_ellipse</text>
</a>
</g>
</g>
<!-- Node1359&#45;&gt;Node1360 -->
<g id="edge2" class="edge">
<title>Node1359&#45;&gt;Node1360</title>
<path fill="none" stroke="#191970" d="M213.1048,-484.2038C223.0309,-556.6496 260.538,-807.1217 312,-866.5 315.4101,-870.4347 319.4163,-873.8623 323.7665,-876.8466"/>
<polygon fill="#191970" stroke="#191970" points="216.5557,-483.6043 211.7506,-474.1618 209.6185,-484.5399 216.5557,-483.6043"/>
</g>
<!-- Node1361 -->
<g id="node4" class="node">
<title>Node1361</title>
<g id="a_node4"><a xlink:href="structcimg__library__suffixed_1_1_c_img_1_1__cimg__math__parser.html#a4c1d921651a9408da9487f1d4e8c13d0" target="_top" xlink:title="cimg_library_suffixed\l::CImg::_cimg_math_parser\l::_mp_complex_pow">
<polygon fill="#ffffff" stroke="#000000" points="316,-816 316,-857 454,-857 454,-816 316,-816"/>
<text text-anchor="start" x="324" y="-845" font-family="Helvetica,sans-Serif" font-size="10.00" fill="#000000">cimg_library_suffixed</text>
<text text-anchor="start" x="324" y="-834" font-family="Helvetica,sans-Serif" font-size="10.00" fill="#000000">::CImg::_cimg_math_parser</text>
<text text-anchor="middle" x="385" y="-823" font-family="Helvetica,sans-Serif" font-size="10.00" fill="#000000">::_mp_complex_pow</text>
</a>
</g>
</g>
<!-- Node1359&#45;&gt;Node1361 -->
<g id="edge3" class="edge">
<title>Node1359&#45;&gt;Node1361</title>
<path fill="none" stroke="#191970" d="M214.1073,-484.5579C226.26,-550.1942 267.4478,-757.1839 312,-806.5 315.2149,-810.0586 318.9152,-813.2049 322.9081,-815.9852"/>
<polygon fill="#191970" stroke="#191970" points="217.4787,-483.5365 212.2379,-474.3287 210.5927,-484.795 217.4787,-483.5365"/>
</g>
<!-- Node1362 -->
<g id="node5" class="node">
<title>Node1362</title>
<g id="a_node5"><a xlink:href="structcimg__library__suffixed_1_1_c_img.html#ad93e8ff81e78bf78b9f1153ef6e55ad4" target="_top" xlink:title="cimg_library_suffixed\l::CImg\&lt; charT \&gt;::_rotate">
<polygon fill="#ffffff" stroke="#000000" points="322.5,-766.5 322.5,-796.5 447.5,-796.5 447.5,-766.5 322.5,-766.5"/>
<text text-anchor="start" x="330.5" y="-784.5" font-family="Helvetica,sans-Serif" font-size="10.00" fill="#000000">cimg_library_suffixed</text>
<text text-anchor="middle" x="385" y="-773.5" font-family="Helvetica,sans-Serif" font-size="10.00" fill="#000000">::CImg&lt; charT &gt;::_rotate</text>
</a>
</g>
</g>
<!-- Node1359&#45;&gt;Node1362 -->
<g id="edge4" class="edge">
<title>Node1359&#45;&gt;Node1362</title>
<path fill="none" stroke="#191970" d="M211.6133,-484.3428C215.6005,-536.4186 233.4946,-678.3542 312,-756.5 315.8926,-760.3748 320.4109,-763.6497 325.2545,-766.4175"/>
<polygon fill="#191970" stroke="#191970" points="215.09,-483.8784 210.9271,-474.1357 208.1058,-484.348 215.09,-483.8784"/>
</g>
<!-- Node1363 -->
<g id="node6" class="node">
<title>Node1363</title>
<g id="a_node6"><a xlink:href="structcimg__library__suffixed_1_1_c_img.html#af3c29f70168c4443e3f6f887834819b0" target="_top" xlink:title="Blur image anisotropically, directed by a field of diffusion tensors. ">
<polygon fill="#ffffff" stroke="#000000" points="329.5,-706 329.5,-747 440.5,-747 440.5,-706 329.5,-706"/>
<text text-anchor="start" x="337.5" y="-735" font-family="Helvetica,sans-Serif" font-size="10.00" fill="#000000">cimg_library_suffixed</text>
<text text-anchor="start" x="337.5" y="-724" font-family="Helvetica,sans-Serif" font-size="10.00" fill="#000000">::CImg&lt; charT &gt;::blur</text>
<text text-anchor="middle" x="385" y="-713" font-family="Helvetica,sans-Serif" font-size="10.00" fill="#000000">_anisotropic</text>
</a>
</g>
</g>
<!-- Node1359&#45;&gt;Node1363 -->
<g id="edge5" class="edge">
<title>Node1359&#45;&gt;Node1363</title>
<path fill="none" stroke="#191970" d="M213.9696,-484.3721C222.6443,-528.4081 249.249,-635.1448 312,-696.5 316.9966,-701.3854 322.8995,-705.515 329.1495,-708.9959"/>
<polygon fill="#191970" stroke="#191970" points="217.3777,-483.5555 212.0999,-474.3689 210.4969,-484.8417 217.3777,-483.5555"/>
</g>
<!-- Node1364 -->
<g id="node7" class="node">
<title>Node1364</title>
<g id="a_node7"><a xlink:href="structcimg__library__suffixed_1_1_c_img_1_1__cimg__math__parser.html#a318c44c5d1f4f0114355f37ace87a4ae" target="_top" xlink:title="cimg_library_suffixed\l::CImg::_cimg_math_parser\l::compile">
<polygon fill="#ffffff" stroke="#000000" points="316,-646 316,-687 454,-687 454,-646 316,-646"/>
<text text-anchor="start" x="324" y="-675" font-family="Helvetica,sans-Serif" font-size="10.00" fill="#000000">cimg_library_suffixed</text>
<text text-anchor="start" x="324" y="-664" font-family="Helvetica,sans-Serif" font-size="10.00" fill="#000000">::CImg::_cimg_math_parser</text>
<text text-anchor="middle" x="385" y="-653" font-family="Helvetica,sans-Serif" font-size="10.00" fill="#000000">::compile</text>
</a>
</g>
</g>
<!-- Node1359&#45;&gt;Node1364 -->
<g id="edge6" class="edge">
<title>Node1359&#45;&gt;Node1364</title>
<path fill="none" stroke="#191970" d="M217.0818,-483.629C230.0062,-518.5669 261.8844,-593.0922 312,-636.5 316.0393,-639.9986 320.5421,-643.1275 325.2734,-645.9182"/>
<polygon fill="#191970" stroke="#191970" points="220.3481,-482.3687 213.68,-474.1355 213.7584,-484.73 220.3481,-482.3687"/>
</g>
<!-- Node1365 -->
<g id="node8" class="node">
<title>Node1365</title>
<g id="a_node8"><a xlink:href="structcimg__library__suffixed_1_1_c_img.html#a7cdc2da46ee1679928f178b0b886fba3" target="_top" xlink:title="Generate a 3d cone. ">
<polygon fill="#ffffff" stroke="#000000" points="321.5,-596.5 321.5,-626.5 448.5,-626.5 448.5,-596.5 321.5,-596.5"/>
<text text-anchor="start" x="329.5" y="-614.5" font-family="Helvetica,sans-Serif" font-size="10.00" fill="#000000">cimg_library_suffixed</text>
<text text-anchor="middle" x="385" y="-603.5" font-family="Helvetica,sans-Serif" font-size="10.00" fill="#000000">::CImg&lt; charT &gt;::cone3d</text>
</a>
</g>
</g>
<!-- Node1359&#45;&gt;Node1365 -->
<g id="edge7" class="edge">
<title>Node1359&#45;&gt;Node1365</title>
<path fill="none" stroke="#191970" d="M220.9302,-482.7979C237.0901,-509.5637 270.6663,-559.2673 312,-587.5 316.9574,-590.8861 322.4276,-593.8234 328.0771,-596.3649"/>
<polygon fill="#191970" stroke="#191970" points="223.873,-480.8976 215.7825,-474.057 217.8412,-484.4498 223.873,-480.8976"/>
</g>
<!-- Node1366 -->
<g id="node9" class="node">
<title>Node1366</title>
<g id="a_node9"><a xlink:href="structcimg__library__suffixed_1_1_c_img.html#a11af60c5864134f6faa02ec33365002b" target="_top" xlink:title="Compute the cosine of each pixel value. ">
<polygon fill="#ffffff" stroke="#000000" points="329.5,-547.5 329.5,-577.5 440.5,-577.5 440.5,-547.5 329.5,-547.5"/>
<text text-anchor="start" x="337.5" y="-565.5" font-family="Helvetica,sans-Serif" font-size="10.00" fill="#000000">cimg_library_suffixed</text>
<text text-anchor="middle" x="385" y="-554.5" font-family="Helvetica,sans-Serif" font-size="10.00" fill="#000000">::CImg&lt; charT &gt;::cos</text>
</a>
</g>
</g>
<!-- Node1359&#45;&gt;Node1366 -->
<g id="edge8" class="edge">
<title>Node1359&#45;&gt;Node1366</title>
<path fill="none" stroke="#191970" d="M229.0962,-480.8435C248.6059,-497.294 280.728,-522.4651 312,-538.5 318.4105,-541.787 325.3647,-544.7552 332.348,-547.3928"/>
<polygon fill="#191970" stroke="#191970" points="231.1787,-478.0187 221.3072,-474.1711 226.6247,-483.3349 231.1787,-478.0187"/>
</g>
<!-- Node1367 -->
<g id="node10" class="node">
<title>Node1367</title>
<g id="a_node10"><a xlink:href="structcimg__library__suffixed_1_1_c_img.html#a009c1cb31d4c261774a310e10d0ee9d7" target="_top" xlink:title="Generate a 3d cylinder. ">
<polygon fill="#ffffff" stroke="#000000" points="315,-498.5 315,-528.5 455,-528.5 455,-498.5 315,-498.5"/>
<text text-anchor="start" x="323" y="-516.5" font-family="Helvetica,sans-Serif" font-size="10.00" fill="#000000">cimg_library_suffixed</text>
<text text-anchor="middle" x="385" y="-505.5" font-family="Helvetica,sans-Serif" font-size="10.00" fill="#000000">::CImg&lt; charT &gt;::cylinder3d</text>
</a>
</g>
</g>
<!-- Node1359&#45;&gt;Node1367 -->
<g id="edge9" class="edge">
<title>Node1359&#45;&gt;Node1367</title>
<path fill="none" stroke="#191970" d="M254.2231,-476.7776C277.6422,-483.3537 306.686,-491.5092 331.45,-498.463"/>
<polygon fill="#191970" stroke="#191970" points="255.1335,-473.3979 244.5596,-474.064 253.241,-480.1372 255.1335,-473.3979"/>
</g>
<!-- Node1368 -->
<g id="node11" class="node">
<title>Node1368</title>
<g id="a_node11"><a xlink:href="structcimg__library__suffixed_1_1_c_img.html#aac745c02e72234bd8203a2d21c21d47f" target="_top" xlink:title="Draw a 2d arrow. ">
<polygon fill="#ffffff" stroke="#000000" points="312,-449.5 312,-479.5 458,-479.5 458,-449.5 312,-449.5"/>
<text text-anchor="start" x="320" y="-467.5" font-family="Helvetica,sans-Serif" font-size="10.00" fill="#000000">cimg_library_suffixed</text>
<text text-anchor="middle" x="385" y="-456.5" font-family="Helvetica,sans-Serif" font-size="10.00" fill="#000000">::CImg&lt; charT &gt;::draw_arrow</text>
</a>
</g>
</g>
<!-- Node1359&#45;&gt;Node1368 -->
<g id="edge10" class="edge">
<title>Node1359&#45;&gt;Node1368</title>
<path fill="none" stroke="#191970" d="M286.6266,-464.5C295.0269,-464.5 303.5669,-464.5 311.9284,-464.5"/>
<polygon fill="#191970" stroke="#191970" points="286.471,-461.0001 276.471,-464.5 286.4709,-468.0001 286.471,-461.0001"/>
</g>
<!-- Node1369 -->
<g id="node12" class="node">
<title>Node1369</title>
<g id="a_node12"><a xlink:href="structcimg__library__suffixed_1_1_c_img.html#abf1763dd0cf132f59147662022feb791" target="_top" xlink:title="Compute 1d Fast Fourier Transform, along a specified axis. ">
<polygon fill="#ffffff" stroke="#000000" points="328.5,-400.5 328.5,-430.5 441.5,-430.5 441.5,-400.5 328.5,-400.5"/>
<text text-anchor="start" x="336.5" y="-418.5" font-family="Helvetica,sans-Serif" font-size="10.00" fill="#000000">cimg_library_suffixed</text>
<text text-anchor="middle" x="385" y="-407.5" font-family="Helvetica,sans-Serif" font-size="10.00" fill="#000000">::CImg&lt; charT &gt;::FFT</text>
</a>
</g>
</g>
<!-- Node1359&#45;&gt;Node1369 -->
<g id="edge11" class="edge">
<title>Node1359&#45;&gt;Node1369</title>
<path fill="none" stroke="#191970" d="M254.2231,-452.2224C277.6422,-445.6463 306.686,-437.4908 331.45,-430.537"/>
<polygon fill="#191970" stroke="#191970" points="253.241,-448.8628 244.5596,-454.936 255.1335,-455.6021 253.241,-448.8628"/>
</g>
<!-- Node1370 -->
<g id="node13" class="node">
<title>Node1370</title>
<g id="a_node13"><a xlink:href="structcimg__library__suffixed_1_1_c_img.html#a0c0d7575a84ce1ab046dc53699d555fd" target="_top" xlink:title="Rotate image with arbitrary angle . ">
<polygon fill="#ffffff" stroke="#000000" points="330.5,-340 330.5,-381 439.5,-381 439.5,-340 330.5,-340"/>
<text text-anchor="start" x="338.5" y="-369" font-family="Helvetica,sans-Serif" font-size="10.00" fill="#000000">cimg_library_suffixed</text>
<text text-anchor="start" x="338.5" y="-358" font-family="Helvetica,sans-Serif" font-size="10.00" fill="#000000">::CImg&lt; charT &gt;::get</text>
<text text-anchor="middle" x="385" y="-347" font-family="Helvetica,sans-Serif" font-size="10.00" fill="#000000">_rotate</text>
</a>
</g>
</g>
<!-- Node1359&#45;&gt;Node1370 -->
<g id="edge13" class="edge">
<title>Node1359&#45;&gt;Node1370</title>
<path fill="none" stroke="#191970" d="M230.0661,-448.4122C249.8882,-432.6101 281.8451,-408.4682 312,-391.5 318.4798,-387.8538 325.4741,-384.3665 332.4775,-381.1333"/>
<polygon fill="#191970" stroke="#191970" points="227.6957,-445.8275 222.1085,-454.8293 232.0899,-451.2765 227.6957,-445.8275"/>
</g>
<!-- Node1371 -->
<g id="node14" class="node">
<title>Node1371</title>
<g id="a_node14"><a xlink:href="structcimg__library__suffixed_1_1_c_img.html#a82435e0972fa4663a8b026ba832cfa3a" target="_top" xlink:title="Convert pixel values from HSI to RGB color spaces. ">
<polygon fill="#ffffff" stroke="#000000" points="313.5,-290.5 313.5,-320.5 456.5,-320.5 456.5,-290.5 313.5,-290.5"/>
<text text-anchor="start" x="321.5" y="-308.5" font-family="Helvetica,sans-Serif" font-size="10.00" fill="#000000">cimg_library_suffixed</text>
<text text-anchor="middle" x="385" y="-297.5" font-family="Helvetica,sans-Serif" font-size="10.00" fill="#000000">::CImg&lt; charT &gt;::HSItoRGB</text>
</a>
</g>
</g>
<!-- Node1359&#45;&gt;Node1371 -->
<g id="edge14" class="edge">
<title>Node1359&#45;&gt;Node1371</title>
<path fill="none" stroke="#191970" d="M219.9013,-445.8406C235.3167,-417.0542 268.6378,-361.8671 312,-330.5 317.3185,-326.6527 323.2755,-323.3623 329.4316,-320.5566"/>
<polygon fill="#191970" stroke="#191970" points="216.7292,-444.3543 215.2084,-454.8394 222.9358,-447.5912 216.7292,-444.3543"/>
</g>
<!-- Node1372 -->
<g id="node15" class="node">
<title>Node1372</title>
<g id="a_node15"><a xlink:href="structcimg__library__suffixed_1_1_c_img_1_1__cimg__math__parser.html#a2d823d18414809075048f82cfc2f4779" target="_top" xlink:title="cimg_library_suffixed\l::CImg::_cimg_math_parser\l::mp_complex_exp">
<polygon fill="#ffffff" stroke="#000000" points="316,-230 316,-271 454,-271 454,-230 316,-230"/>
<text text-anchor="start" x="324" y="-259" font-family="Helvetica,sans-Serif" font-size="10.00" fill="#000000">cimg_library_suffixed</text>
<text text-anchor="start" x="324" y="-248" font-family="Helvetica,sans-Serif" font-size="10.00" fill="#000000">::CImg::_cimg_math_parser</text>
<text text-anchor="middle" x="385" y="-237" font-family="Helvetica,sans-Serif" font-size="10.00" fill="#000000">::mp_complex_exp</text>
</a>
</g>
</g>
<!-- Node1359&#45;&gt;Node1372 -->
<g id="edge15" class="edge">
<title>Node1359&#45;&gt;Node1372</title>
<path fill="none" stroke="#191970" d="M216.6153,-444.7293C228.9456,-407.8773 260.1262,-328.2026 312,-281.5 316.2978,-277.6306 321.1503,-274.1965 326.2598,-271.1589"/>
<polygon fill="#191970" stroke="#191970" points="213.1354,-444.1157 213.3917,-454.7074 219.7965,-446.2676 213.1354,-444.1157"/>
</g>
<!-- Node1373 -->
<g id="node16" class="node">
<title>Node1373</title>
<g id="a_node16"><a xlink:href="structcimg__library__suffixed_1_1_c_img_1_1__cimg__math__parser.html#a2fcab7dff8d6d344c767cdb0681abffe" target="_top" xlink:title="cimg_library_suffixed\l::CImg::_cimg_math_parser\l::mp_cos">
<polygon fill="#ffffff" stroke="#000000" points="316,-170 316,-211 454,-211 454,-170 316,-170"/>
<text text-anchor="start" x="324" y="-199" font-family="Helvetica,sans-Serif" font-size="10.00" fill="#000000">cimg_library_suffixed</text>
<text text-anchor="start" x="324" y="-188" font-family="Helvetica,sans-Serif" font-size="10.00" fill="#000000">::CImg::_cimg_math_parser</text>
<text text-anchor="middle" x="385" y="-177" font-family="Helvetica,sans-Serif" font-size="10.00" fill="#000000">::mp_cos</text>
</a>
</g>
</g>
<!-- Node1359&#45;&gt;Node1373 -->
<g id="edge16" class="edge">
<title>Node1359&#45;&gt;Node1373</title>
<path fill="none" stroke="#191970" d="M213.4966,-444.5408C221.3567,-398.8427 246.6617,-285.5585 312,-220.5 315.4955,-217.0195 319.4514,-213.9246 323.6692,-211.1758"/>
<polygon fill="#191970" stroke="#191970" points="210.0061,-444.201 211.8604,-454.6323 216.9158,-445.3214 210.0061,-444.201"/>
</g>
<!-- Node1374 -->
<g id="node17" class="node">
<title>Node1374</title>
<g id="a_node17"><a xlink:href="structcimg__library__suffixed_1_1_c_img_1_1__cimg__math__parser.html#a7251d8ae472be70c029e3975125233a3" target="_top" xlink:title="cimg_library_suffixed\l::CImg::_cimg_math_parser\l::mp_rot2d">
<polygon fill="#ffffff" stroke="#000000" points="316,-110 316,-151 454,-151 454,-110 316,-110"/>
<text text-anchor="start" x="324" y="-139" font-family="Helvetica,sans-Serif" font-size="10.00" fill="#000000">cimg_library_suffixed</text>
<text text-anchor="start" x="324" y="-128" font-family="Helvetica,sans-Serif" font-size="10.00" fill="#000000">::CImg::_cimg_math_parser</text>
<text text-anchor="middle" x="385" y="-117" font-family="Helvetica,sans-Serif" font-size="10.00" fill="#000000">::mp_rot2d</text>
</a>
</g>
</g>
<!-- Node1359&#45;&gt;Node1374 -->
<g id="edge17" class="edge">
<title>Node1359&#45;&gt;Node1374</title>
<path fill="none" stroke="#191970" d="M211.5723,-444.823C215.482,-391.8885 233.2482,-244.7701 312,-160.5 315.2744,-156.9961 319.018,-153.8896 323.0413,-151.1372"/>
<polygon fill="#191970" stroke="#191970" points="208.0739,-444.6858 210.9169,-454.892 215.0592,-445.1405 208.0739,-444.6858"/>
</g>
<!-- Node1375 -->
<g id="node18" class="node">
<title>Node1375</title>
<g id="a_node18"><a xlink:href="structcimg__library__suffixed_1_1_c_img.html#a18ba2075fe783f6b185de03695bd625f" target="_top" xlink:title="Return a 3x3 rotation matrix from an { axis + angle } or a quaternion. ">
<polygon fill="#ffffff" stroke="#000000" points="321,-50 321,-91 449,-91 449,-50 321,-50"/>
<text text-anchor="start" x="329" y="-79" font-family="Helvetica,sans-Serif" font-size="10.00" fill="#000000">cimg_library_suffixed</text>
<text text-anchor="start" x="329" y="-68" font-family="Helvetica,sans-Serif" font-size="10.00" fill="#000000">::CImg&lt; charT &gt;::rotation</text>
<text text-anchor="middle" x="385" y="-57" font-family="Helvetica,sans-Serif" font-size="10.00" fill="#000000">_matrix</text>
</a>
</g>
</g>
<!-- Node1359&#45;&gt;Node1375 -->
<g id="edge18" class="edge">
<title>Node1359&#45;&gt;Node1375</title>
<path fill="none" stroke="#191970" d="M213.7123,-444.5001C225.0329,-376.1972 264.9389,-153.4687 312,-100.5 315.0943,-97.0173 318.6543,-93.9305 322.5017,-91.1959"/>
<polygon fill="#191970" stroke="#191970" points="210.1974,-444.3075 212.0387,-454.7411 217.1058,-445.4365 210.1974,-444.3075"/>
</g>
<!-- Node1376 -->
<g id="node19" class="node">
<title>Node1376</title>
<g id="a_node19"><a xlink:href="structcimg__library__suffixed_1_1_c_img.html#a8e6e4d77fb5eba21751926bb972d89d5" target="_top" xlink:title="Generate a 3d torus. ">
<polygon fill="#ffffff" stroke="#000000" points="321,-.5 321,-30.5 449,-30.5 449,-.5 321,-.5"/>
<text text-anchor="start" x="329" y="-18.5" font-family="Helvetica,sans-Serif" font-size="10.00" fill="#000000">cimg_library_suffixed</text>
<text text-anchor="middle" x="385" y="-7.5" font-family="Helvetica,sans-Serif" font-size="10.00" fill="#000000">::CImg&lt; charT &gt;::torus3d</text>
</a>
</g>
</g>
<!-- Node1359&#45;&gt;Node1376 -->
<g id="edge19" class="edge">
<title>Node1359&#45;&gt;Node1376</title>
<path fill="none" stroke="#191970" d="M212.7241,-444.5858C221.5246,-369.1178 256.1798,-101.8909 312,-40.5 315.5147,-36.6345 319.6528,-33.3665 324.1427,-30.6038"/>
<polygon fill="#191970" stroke="#191970" points="209.2334,-444.3054 211.5738,-454.6385 216.188,-445.1012 209.2334,-444.3054"/>
</g>
</g>
</svg>
