<?xml version="1.0" encoding="UTF-8" standalone="no"?>
<!DOCTYPE svg PUBLIC "-//W3C//DTD SVG 1.1//EN"
 "http://www.w3.org/Graphics/SVG/1.1/DTD/svg11.dtd">
<!-- Generated by graphviz version 2.40.1 (20161225.0304)
 -->
<!-- Title: cimg_library_suffixed::CImgException Pages: 1 -->
<svg width="166pt" height="237pt"
 viewBox="0.00 0.00 166.00 237.00" xmlns="http://www.w3.org/2000/svg" xmlns:xlink="http://www.w3.org/1999/xlink">
<g id="graph0" class="graph" transform="scale(1 1) rotate(0) translate(4 233)">
<title>cimg_library_suffixed::CImgException</title>
<polygon fill="#ffffff" stroke="transparent" points="-4,4 -4,-233 162,-233 162,4 -4,4"/>
<!-- Node7 -->
<g id="node1" class="node">
<title>Node7</title>
<polygon fill="#bfbfbf" stroke="#000000" points="23.5,-.5 23.5,-123.5 132.5,-123.5 132.5,-.5 23.5,-.5"/>
<text text-anchor="start" x="31.5" y="-111.5" font-family="Helvetica,sans-Serif" font-size="10.00" fill="#000000">cimg_library_suffixed</text>
<text text-anchor="middle" x="78" y="-100.5" font-family="Helvetica,sans-Serif" font-size="10.00" fill="#000000">::CImgException</text>
<polyline fill="none" stroke="#000000" points="23.5,-93.5 132.5,-93.5 "/>
<text text-anchor="middle" x="78" y="-81.5" font-family="Helvetica,sans-Serif" font-size="10.00" fill="#000000"> </text>
<polyline fill="none" stroke="#000000" points="23.5,-74.5 132.5,-74.5 "/>
<text text-anchor="start" x="31.5" y="-62.5" font-family="Helvetica,sans-Serif" font-size="10.00" fill="#000000">+ CImgException()</text>
<text text-anchor="start" x="31.5" y="-51.5" font-family="Helvetica,sans-Serif" font-size="10.00" fill="#000000">+ CImgException()</text>
<text text-anchor="start" x="31.5" y="-40.5" font-family="Helvetica,sans-Serif" font-size="10.00" fill="#000000">+ CImgException()</text>
<text text-anchor="start" x="31.5" y="-29.5" font-family="Helvetica,sans-Serif" font-size="10.00" fill="#000000">+ ~CImgException()</text>
<text text-anchor="start" x="31.5" y="-18.5" font-family="Helvetica,sans-Serif" font-size="10.00" fill="#000000">+ operator=()</text>
<text text-anchor="start" x="31.5" y="-7.5" font-family="Helvetica,sans-Serif" font-size="10.00" fill="#000000">+ what()</text>
</g>
<!-- Node8 -->
<g id="node2" class="node">
<title>Node8</title>
<polygon fill="#ffffff" stroke="#bfbfbf" points="0,-171.5 0,-228.5 78,-228.5 78,-171.5 0,-171.5"/>
<text text-anchor="middle" x="39" y="-216.5" font-family="Helvetica,sans-Serif" font-size="10.00" fill="#000000">std::exception</text>
<polyline fill="none" stroke="#bfbfbf" points="0,-209.5 78,-209.5 "/>
<text text-anchor="middle" x="39" y="-197.5" font-family="Helvetica,sans-Serif" font-size="10.00" fill="#000000"> </text>
<polyline fill="none" stroke="#bfbfbf" points="0,-190.5 78,-190.5 "/>
<text text-anchor="middle" x="39" y="-178.5" font-family="Helvetica,sans-Serif" font-size="10.00" fill="#000000"> </text>
</g>
<!-- Node8&#45;&gt;Node7 -->
<g id="edge1" class="edge">
<title>Node8&#45;&gt;Node7</title>
<path fill="none" stroke="#191970" d="M49.8837,-161.4886C53.2106,-149.7162 56.9564,-136.4619 60.603,-123.5587"/>
<polygon fill="none" stroke="#191970" points="46.4324,-160.8313 47.0808,-171.4063 53.1686,-162.7351 46.4324,-160.8313"/>
</g>
<!-- Node9 -->
<g id="node3" class="node">
<title>Node9</title>
<polygon fill="#ffffff" stroke="#bfbfbf" points="96,-171.5 96,-228.5 138,-228.5 138,-171.5 96,-171.5"/>
<text text-anchor="middle" x="117" y="-216.5" font-family="Helvetica,sans-Serif" font-size="10.00" fill="#000000">char *</text>
<polyline fill="none" stroke="#bfbfbf" points="96,-209.5 138,-209.5 "/>
<text text-anchor="middle" x="117" y="-197.5" font-family="Helvetica,sans-Serif" font-size="10.00" fill="#000000"> </text>
<polyline fill="none" stroke="#bfbfbf" points="96,-190.5 138,-190.5 "/>
<text text-anchor="middle" x="117" y="-178.5" font-family="Helvetica,sans-Serif" font-size="10.00" fill="#000000"> </text>
</g>
<!-- Node9&#45;&gt;Node7 -->
<g id="edge2" class="edge">
<title>Node9&#45;&gt;Node7</title>
<path fill="none" stroke="#404040" d="M108.9192,-171.4063C105.9127,-160.7682 102.3472,-148.1515 98.725,-135.3346"/>
<polygon fill="none" stroke="#404040" points="98.6606,-135.1064 93.1796,-130.4204 95.397,-123.5587 100.878,-128.2447 98.6606,-135.1064"/>
<text text-anchor="middle" x="130.5" y="-145" font-family="Helvetica,sans-Serif" font-size="10.00" fill="#000000"> +_message</text>
</g>
</g>
</svg>
