<?xml version="1.0" encoding="UTF-8" standalone="no"?>
<!DOCTYPE svg PUBLIC "-//W3C//DTD SVG 1.1//EN"
 "http://www.w3.org/Graphics/SVG/1.1/DTD/svg11.dtd">
<!-- Generated by graphviz version 2.40.1 (20161225.0304)
 -->
<!-- Title: cimg_library_suffixed::CImg::get_acos Pages: 1 -->
<svg width="441pt" height="209pt"
 viewBox="0.00 0.00 441.00 209.00" xmlns="http://www.w3.org/2000/svg" xmlns:xlink="http://www.w3.org/1999/xlink">
<g id="graph0" class="graph" transform="scale(1 1) rotate(0) translate(4 205)">
<title>cimg_library_suffixed::CImg::get_acos</title>
<polygon fill="#ffffff" stroke="transparent" points="-4,4 -4,-205 437,-205 437,4 -4,4"/>
<!-- Node1276 -->
<g id="node1" class="node">
<title>Node1276</title>
<polygon fill="#bfbfbf" stroke="#000000" points="0,-85.5 0,-115.5 109,-115.5 109,-85.5 0,-85.5"/>
<text text-anchor="start" x="8" y="-103.5" font-family="Helvetica,sans-Serif" font-size="10.00" fill="#000000">cimg_library_suffixed</text>
<text text-anchor="middle" x="54.5" y="-92.5" font-family="Helvetica,sans-Serif" font-size="10.00" fill="#000000">::CImg::get_acos</text>
</g>
<!-- Node1277 -->
<g id="node2" class="node">
<title>Node1277</title>
<g id="a_node2"><a xlink:href="namespacecimg__library__suffixed.html#a45e323770cb5807fff70424113710fa9" target="_top" xlink:title="cimg_library_suffixed\l::acos">
<polygon fill="#ffffff" stroke="#000000" points="145,-85.5 145,-115.5 254,-115.5 254,-85.5 145,-85.5"/>
<text text-anchor="start" x="153" y="-103.5" font-family="Helvetica,sans-Serif" font-size="10.00" fill="#000000">cimg_library_suffixed</text>
<text text-anchor="middle" x="199.5" y="-92.5" font-family="Helvetica,sans-Serif" font-size="10.00" fill="#000000">::acos</text>
</a>
</g>
</g>
<!-- Node1276&#45;&gt;Node1277 -->
<g id="edge1" class="edge">
<title>Node1276&#45;&gt;Node1277</title>
<path fill="none" stroke="#191970" d="M119.4621,-93.7825C127.8588,-93.7098 136.3919,-93.759 144.6042,-93.9301"/>
<polygon fill="#191970" stroke="#191970" points="119.2657,-90.2849 109.3183,-93.9317 119.3687,-97.2842 119.2657,-90.2849"/>
</g>
<!-- Node1277&#45;&gt;Node1276 -->
<g id="edge4" class="edge">
<title>Node1277&#45;&gt;Node1276</title>
<path fill="none" stroke="#191970" d="M134.4586,-107.2181C126.0611,-107.2901 117.5286,-107.2402 109.3183,-107.0683"/>
<polygon fill="#191970" stroke="#191970" points="134.6564,-110.7157 144.6042,-107.0699 134.5541,-103.7165 134.6564,-110.7157"/>
</g>
<!-- Node1278 -->
<g id="node3" class="node">
<title>Node1278</title>
<g id="a_node3"><a xlink:href="structcimg__library__suffixed_1_1_c_img.html#a8df548141b188417ae8d4e01d164018c" target="_top" xlink:title="Compute the arccosine of each pixel value. ">
<polygon fill="#ffffff" stroke="#000000" points="303.5,-170.5 303.5,-200.5 419.5,-200.5 419.5,-170.5 303.5,-170.5"/>
<text text-anchor="start" x="311.5" y="-188.5" font-family="Helvetica,sans-Serif" font-size="10.00" fill="#000000">cimg_library_suffixed</text>
<text text-anchor="middle" x="361.5" y="-177.5" font-family="Helvetica,sans-Serif" font-size="10.00" fill="#000000">::CImg&lt; charT &gt;::acos</text>
</a>
</g>
</g>
<!-- Node1277&#45;&gt;Node1278 -->
<g id="edge2" class="edge">
<title>Node1277&#45;&gt;Node1278</title>
<path fill="none" stroke="#191970" d="M227.6225,-121.7929C244.9538,-134.2303 268.0019,-149.5762 290,-160.5 297.3023,-164.1262 305.2614,-167.4623 313.1308,-170.4361"/>
<polygon fill="#191970" stroke="#191970" points="229.2591,-118.6548 219.1163,-115.5929 225.136,-124.3116 229.2591,-118.6548"/>
</g>
<!-- Node1279 -->
<g id="node4" class="node">
<title>Node1279</title>
<g id="a_node4"><a xlink:href="structcimg__library__suffixed_1_1_c_img_1_1__cimg__math__parser.html#a318c44c5d1f4f0114355f37ace87a4ae" target="_top" xlink:title="cimg_library_suffixed\l::CImg::_cimg_math_parser\l::compile">
<polygon fill="#ffffff" stroke="#000000" points="292.5,-110 292.5,-151 430.5,-151 430.5,-110 292.5,-110"/>
<text text-anchor="start" x="300.5" y="-139" font-family="Helvetica,sans-Serif" font-size="10.00" fill="#000000">cimg_library_suffixed</text>
<text text-anchor="start" x="300.5" y="-128" font-family="Helvetica,sans-Serif" font-size="10.00" fill="#000000">::CImg::_cimg_math_parser</text>
<text text-anchor="middle" x="361.5" y="-117" font-family="Helvetica,sans-Serif" font-size="10.00" fill="#000000">::compile</text>
</a>
</g>
</g>
<!-- Node1277&#45;&gt;Node1279 -->
<g id="edge3" class="edge">
<title>Node1277&#45;&gt;Node1279</title>
<path fill="none" stroke="#191970" d="M264.2382,-112.4886C273.4835,-114.2007 283.0236,-115.9673 292.3496,-117.6944"/>
<polygon fill="#191970" stroke="#191970" points="264.816,-109.0361 254.3458,-110.6566 263.5413,-115.9191 264.816,-109.0361"/>
</g>
<!-- Node1280 -->
<g id="node5" class="node">
<title>Node1280</title>
<g id="a_node5"><a xlink:href="structcimg__library__suffixed_1_1_c_img_1_1__cimg__math__parser.html#a5f951014ea342efe63af2fd702071cbd" target="_top" xlink:title="cimg_library_suffixed\l::CImg::_cimg_math_parser\l::mp_acos">
<polygon fill="#ffffff" stroke="#000000" points="292.5,-50 292.5,-91 430.5,-91 430.5,-50 292.5,-50"/>
<text text-anchor="start" x="300.5" y="-79" font-family="Helvetica,sans-Serif" font-size="10.00" fill="#000000">cimg_library_suffixed</text>
<text text-anchor="start" x="300.5" y="-68" font-family="Helvetica,sans-Serif" font-size="10.00" fill="#000000">::CImg::_cimg_math_parser</text>
<text text-anchor="middle" x="361.5" y="-57" font-family="Helvetica,sans-Serif" font-size="10.00" fill="#000000">::mp_acos</text>
</a>
</g>
</g>
<!-- Node1277&#45;&gt;Node1280 -->
<g id="edge5" class="edge">
<title>Node1277&#45;&gt;Node1280</title>
<path fill="none" stroke="#191970" d="M264.2382,-88.5114C273.4835,-86.7993 283.0236,-85.0327 292.3496,-83.3056"/>
<polygon fill="#191970" stroke="#191970" points="263.5413,-85.0809 254.3458,-90.3434 264.816,-91.9639 263.5413,-85.0809"/>
</g>
<!-- Node1281 -->
<g id="node6" class="node">
<title>Node1281</title>
<g id="a_node6"><a xlink:href="structcimg__library__suffixed_1_1_c_img.html#ae0859700c8aaa58104b7985338246441" target="_top" xlink:title="Convert pixel values from RGB to HSI color spaces. ">
<polygon fill="#ffffff" stroke="#000000" points="290,-.5 290,-30.5 433,-30.5 433,-.5 290,-.5"/>
<text text-anchor="start" x="298" y="-18.5" font-family="Helvetica,sans-Serif" font-size="10.00" fill="#000000">cimg_library_suffixed</text>
<text text-anchor="middle" x="361.5" y="-7.5" font-family="Helvetica,sans-Serif" font-size="10.00" fill="#000000">::CImg&lt; charT &gt;::RGBtoHSI</text>
</a>
</g>
</g>
<!-- Node1277&#45;&gt;Node1281 -->
<g id="edge6" class="edge">
<title>Node1277&#45;&gt;Node1281</title>
<path fill="none" stroke="#191970" d="M227.6225,-79.2071C244.9538,-66.7697 268.0019,-51.4238 290,-40.5 297.3023,-36.8738 305.2614,-33.5377 313.1308,-30.5639"/>
<polygon fill="#191970" stroke="#191970" points="225.136,-76.6884 219.1163,-85.4071 229.2591,-82.3452 225.136,-76.6884"/>
</g>
</g>
</svg>
