<?xml version="1.0" encoding="UTF-8" standalone="no"?>
<!DOCTYPE svg PUBLIC "-//W3C//DTD SVG 1.1//EN"
 "http://www.w3.org/Graphics/SVG/1.1/DTD/svg11.dtd">
<!-- Generated by graphviz version 2.40.1 (20161225.0304)
 -->
<!-- Title: cimg_library_suffixed::CImg::min_max Pages: 1 -->
<svg width="487pt" height="137pt"
 viewBox="0.00 0.00 487.00 137.00" xmlns="http://www.w3.org/2000/svg" xmlns:xlink="http://www.w3.org/1999/xlink">
<g id="graph0" class="graph" transform="scale(1 1) rotate(0) translate(4 133)">
<title>cimg_library_suffixed::CImg::min_max</title>
<polygon fill="#ffffff" stroke="transparent" points="-4,4 -4,-133 483,-133 483,4 -4,4"/>
<!-- Node2521 -->
<g id="node1" class="node">
<title>Node2521</title>
<polygon fill="#bfbfbf" stroke="#000000" points="0,-73.5 0,-103.5 109,-103.5 109,-73.5 0,-73.5"/>
<text text-anchor="start" x="8" y="-91.5" font-family="Helvetica,sans-Serif" font-size="10.00" fill="#000000">cimg_library_suffixed</text>
<text text-anchor="middle" x="54.5" y="-80.5" font-family="Helvetica,sans-Serif" font-size="10.00" fill="#000000">::CImg::min_max</text>
</g>
<!-- Node2522 -->
<g id="node2" class="node">
<title>Node2522</title>
<g id="a_node2"><a xlink:href="structcimg__library__suffixed_1_1_c_img.html#a39224c81542abc157318e64a6df11fdf" target="_top" xlink:title="cimg_library_suffixed\l::CImg\&lt; charT \&gt;::_display_graph">
<polygon fill="#ffffff" stroke="#000000" points="145,-98.5 145,-128.5 306,-128.5 306,-98.5 145,-98.5"/>
<text text-anchor="start" x="153" y="-116.5" font-family="Helvetica,sans-Serif" font-size="10.00" fill="#000000">cimg_library_suffixed</text>
<text text-anchor="middle" x="225.5" y="-105.5" font-family="Helvetica,sans-Serif" font-size="10.00" fill="#000000">::CImg&lt; charT &gt;::_display_graph</text>
</a>
</g>
</g>
<!-- Node2521&#45;&gt;Node2522 -->
<g id="edge1" class="edge">
<title>Node2521&#45;&gt;Node2522</title>
<path fill="none" stroke="#191970" d="M119.1827,-97.9565C127.6049,-99.1878 136.314,-100.4611 144.9554,-101.7245"/>
<polygon fill="#191970" stroke="#191970" points="119.4768,-94.4624 109.0756,-96.4789 118.4641,-101.3888 119.4768,-94.4624"/>
</g>
<!-- Node2523 -->
<g id="node3" class="node">
<title>Node2523</title>
<g id="a_node3"><a xlink:href="structcimg__library__suffixed_1_1_c_img_display.html#a914ee0515249db301dc66275861a6b3e" target="_top" xlink:title="Take a snapshot of the associated window content. ">
<polygon fill="#ffffff" stroke="#000000" points="163,-49.5 163,-79.5 288,-79.5 288,-49.5 163,-49.5"/>
<text text-anchor="start" x="171" y="-67.5" font-family="Helvetica,sans-Serif" font-size="10.00" fill="#000000">cimg_library_suffixed</text>
<text text-anchor="middle" x="225.5" y="-56.5" font-family="Helvetica,sans-Serif" font-size="10.00" fill="#000000">::CImgDisplay::snapshot</text>
</a>
</g>
</g>
<!-- Node2521&#45;&gt;Node2523 -->
<g id="edge2" class="edge">
<title>Node2521&#45;&gt;Node2523</title>
<path fill="none" stroke="#191970" d="M119.2919,-79.4064C133.5545,-77.4046 148.6352,-75.288 162.813,-73.2982"/>
<polygon fill="#191970" stroke="#191970" points="118.4921,-75.9843 109.0756,-80.8403 119.4651,-82.9163 118.4921,-75.9843"/>
</g>
<!-- Node2524 -->
<g id="node4" class="node">
<title>Node2524</title>
<g id="a_node4"><a xlink:href="structcimg__library__suffixed_1_1_c_img.html#a015159d8cee61c2f2316c3e128470a71" target="_top" xlink:title="Construct image from a display window. ">
<polygon fill="#ffffff" stroke="#000000" points="351,-98.5 351,-128.5 470,-128.5 470,-98.5 351,-98.5"/>
<text text-anchor="start" x="359" y="-116.5" font-family="Helvetica,sans-Serif" font-size="10.00" fill="#000000">cimg_library_suffixed</text>
<text text-anchor="middle" x="410.5" y="-105.5" font-family="Helvetica,sans-Serif" font-size="10.00" fill="#000000">::CImg&lt; charT &gt;::CImg</text>
</a>
</g>
</g>
<!-- Node2523&#45;&gt;Node2524 -->
<g id="edge3" class="edge">
<title>Node2523&#45;&gt;Node2524</title>
<path fill="none" stroke="#191970" d="M292.0354,-82.1229C312.2752,-87.4837 334.3198,-93.3225 353.844,-98.4938"/>
<polygon fill="#191970" stroke="#191970" points="292.8262,-78.7117 282.2633,-79.5346 291.0339,-85.4784 292.8262,-78.7117"/>
</g>
<!-- Node2525 -->
<g id="node5" class="node">
<title>Node2525</title>
<g id="a_node5"><a xlink:href="structcimg__library__suffixed_1_1_c_img.html#a668fe887682e7cbb469409842bb98cd2" target="_top" xlink:title="Construct image from a display window . ">
<polygon fill="#ffffff" stroke="#000000" points="348.5,-49.5 348.5,-79.5 472.5,-79.5 472.5,-49.5 348.5,-49.5"/>
<text text-anchor="start" x="356.5" y="-67.5" font-family="Helvetica,sans-Serif" font-size="10.00" fill="#000000">cimg_library_suffixed</text>
<text text-anchor="middle" x="410.5" y="-56.5" font-family="Helvetica,sans-Serif" font-size="10.00" fill="#000000">::CImg&lt; charT &gt;::assign</text>
</a>
</g>
</g>
<!-- Node2523&#45;&gt;Node2525 -->
<g id="edge4" class="edge">
<title>Node2523&#45;&gt;Node2525</title>
<path fill="none" stroke="#191970" d="M298.2856,-64.5C314.8069,-64.5 332.2081,-64.5 348.2462,-64.5"/>
<polygon fill="#191970" stroke="#191970" points="298.1326,-61.0001 288.1326,-64.5 298.1325,-68.0001 298.1326,-61.0001"/>
</g>
<!-- Node2526 -->
<g id="node6" class="node">
<title>Node2526</title>
<g id="a_node6"><a xlink:href="structcimg__library__suffixed_1_1_c_img.html#a75e18966d8e02a9cee85642038e30a08" target="_top" xlink:title="Copy the content of a display window to the current image instance. ">
<polygon fill="#ffffff" stroke="#000000" points="342,-.5 342,-30.5 479,-30.5 479,-.5 342,-.5"/>
<text text-anchor="start" x="350" y="-18.5" font-family="Helvetica,sans-Serif" font-size="10.00" fill="#000000">cimg_library_suffixed</text>
<text text-anchor="middle" x="410.5" y="-7.5" font-family="Helvetica,sans-Serif" font-size="10.00" fill="#000000">::CImg&lt; charT &gt;::operator=</text>
</a>
</g>
</g>
<!-- Node2523&#45;&gt;Node2526 -->
<g id="edge5" class="edge">
<title>Node2523&#45;&gt;Node2526</title>
<path fill="none" stroke="#191970" d="M292.0354,-46.8771C312.2752,-41.5163 334.3198,-35.6775 353.844,-30.5062"/>
<polygon fill="#191970" stroke="#191970" points="291.0339,-43.5216 282.2633,-49.4654 292.8262,-50.2883 291.0339,-43.5216"/>
</g>
</g>
</svg>
