<?xml version="1.0" encoding="UTF-8" standalone="no"?>
<!DOCTYPE svg PUBLIC "-//W3C//DTD SVG 1.1//EN"
 "http://www.w3.org/Graphics/SVG/1.1/DTD/svg11.dtd">
<!-- Generated by graphviz version 2.40.1 (20161225.0304)
 -->
<!-- Title: cimg_library_suffixed::CImgList::save_empty_cimg Pages: 1 -->
<svg width="308pt" height="50pt"
 viewBox="0.00 0.00 308.00 50.00" xmlns="http://www.w3.org/2000/svg" xmlns:xlink="http://www.w3.org/1999/xlink">
<g id="graph0" class="graph" transform="scale(1 1) rotate(0) translate(4 46)">
<title>cimg_library_suffixed::CImgList::save_empty_cimg</title>
<polygon fill="#ffffff" stroke="transparent" points="-4,4 -4,-46 304,-46 304,4 -4,4"/>
<!-- Node569 -->
<g id="node1" class="node">
<title>Node569</title>
<polygon fill="#bfbfbf" stroke="#000000" points="0,-6 0,-36 148,-36 148,-6 0,-6"/>
<text text-anchor="start" x="8" y="-24" font-family="Helvetica,sans-Serif" font-size="10.00" fill="#000000">cimg_library_suffixed</text>
<text text-anchor="middle" x="74" y="-13" font-family="Helvetica,sans-Serif" font-size="10.00" fill="#000000">::CImgList::save_empty_cimg</text>
</g>
<!-- Node570 -->
<g id="node2" class="node">
<title>Node570</title>
<g id="a_node2"><a xlink:href="structcimg__library__suffixed_1_1_c_img.html#a91b627dac9eeb9bc83354fcad2225791" target="_top" xlink:title="Save blank image as a .cimg file. ">
<polygon fill="#ffffff" stroke="#000000" points="184,-.5 184,-41.5 300,-41.5 300,-.5 184,-.5"/>
<text text-anchor="start" x="192" y="-29.5" font-family="Helvetica,sans-Serif" font-size="10.00" fill="#000000">cimg_library_suffixed</text>
<text text-anchor="start" x="192" y="-18.5" font-family="Helvetica,sans-Serif" font-size="10.00" fill="#000000">::CImg&lt; charT &gt;::save</text>
<text text-anchor="middle" x="242" y="-7.5" font-family="Helvetica,sans-Serif" font-size="10.00" fill="#000000">_empty_cimg</text>
</a>
</g>
</g>
<!-- Node569&#45;&gt;Node570 -->
<g id="edge1" class="edge">
<title>Node569&#45;&gt;Node570</title>
<path fill="none" stroke="#191970" d="M158.3047,-21C166.9497,-21 175.5903,-21 183.8604,-21"/>
<polygon fill="#191970" stroke="#191970" points="158.1763,-17.5001 148.1763,-21 158.1762,-24.5001 158.1763,-17.5001"/>
</g>
</g>
</svg>
