<?xml version="1.0" encoding="UTF-8" standalone="no"?>
<!DOCTYPE svg PUBLIC "-//W3C//DTD SVG 1.1//EN"
 "http://www.w3.org/Graphics/SVG/1.1/DTD/svg11.dtd">
<!-- Generated by graphviz version 2.40.1 (20161225.0304)
 -->
<!-- Title: cimg_library_suffixed::CImg::get_invert Pages: 1 -->
<svg width="462pt" height="269pt"
 viewBox="0.00 0.00 462.00 269.00" xmlns="http://www.w3.org/2000/svg" xmlns:xlink="http://www.w3.org/1999/xlink">
<g id="graph0" class="graph" transform="scale(1 1) rotate(0) translate(4 265)">
<title>cimg_library_suffixed::CImg::get_invert</title>
<polygon fill="#ffffff" stroke="transparent" points="-4,4 -4,-265 458,-265 458,4 -4,4"/>
<!-- Node1540 -->
<g id="node1" class="node">
<title>Node1540</title>
<polygon fill="#bfbfbf" stroke="#000000" points="0,-122.5 0,-152.5 109,-152.5 109,-122.5 0,-122.5"/>
<text text-anchor="start" x="8" y="-140.5" font-family="Helvetica,sans-Serif" font-size="10.00" fill="#000000">cimg_library_suffixed</text>
<text text-anchor="middle" x="54.5" y="-129.5" font-family="Helvetica,sans-Serif" font-size="10.00" fill="#000000">::CImg::get_invert</text>
</g>
<!-- Node1541 -->
<g id="node2" class="node">
<title>Node1541</title>
<g id="a_node2"><a xlink:href="structcimg__library__suffixed_1_1_c_img.html#a60f9518dd29e4f7f31a8bf44ad470140" target="_top" xlink:title="Draw a 2d gaussian function. ">
<polygon fill="#ffffff" stroke="#000000" points="157,-197 157,-238 273,-238 273,-197 157,-197"/>
<text text-anchor="start" x="165" y="-226" font-family="Helvetica,sans-Serif" font-size="10.00" fill="#000000">cimg_library_suffixed</text>
<text text-anchor="start" x="165" y="-215" font-family="Helvetica,sans-Serif" font-size="10.00" fill="#000000">::CImg&lt; charT &gt;::draw</text>
<text text-anchor="middle" x="215" y="-204" font-family="Helvetica,sans-Serif" font-size="10.00" fill="#000000">_gaussian</text>
</a>
</g>
</g>
<!-- Node1540&#45;&gt;Node1541 -->
<g id="edge1" class="edge">
<title>Node1540&#45;&gt;Node1541</title>
<path fill="none" stroke="#191970" d="M89.1235,-157.6916C105.8057,-167.1451 126.2239,-178.3182 145,-187.5 151.5327,-190.6946 158.4895,-193.9013 165.3865,-196.9673"/>
<polygon fill="#191970" stroke="#191970" points="90.6939,-154.558 80.2741,-152.6401 87.2237,-160.6373 90.6939,-154.558"/>
</g>
<!-- Node1542 -->
<g id="node3" class="node">
<title>Node1542</title>
<g id="a_node3"><a xlink:href="namespacecimg__library__suffixed.html#a78492a52daecbec968b15f3c02f3fdde" target="_top" xlink:title="cimg_library_suffixed\l::invert">
<polygon fill="#ffffff" stroke="#000000" points="160.5,-147.5 160.5,-177.5 269.5,-177.5 269.5,-147.5 160.5,-147.5"/>
<text text-anchor="start" x="168.5" y="-165.5" font-family="Helvetica,sans-Serif" font-size="10.00" fill="#000000">cimg_library_suffixed</text>
<text text-anchor="middle" x="215" y="-154.5" font-family="Helvetica,sans-Serif" font-size="10.00" fill="#000000">::invert</text>
</a>
</g>
</g>
<!-- Node1540&#45;&gt;Node1542 -->
<g id="edge2" class="edge">
<title>Node1540&#45;&gt;Node1542</title>
<path fill="none" stroke="#191970" d="M119.5296,-140.9883C133.1143,-142.9074 147.3031,-145.1871 160.4608,-147.5726"/>
<polygon fill="#191970" stroke="#191970" points="119.6666,-137.4748 109.2861,-139.5952 118.7232,-144.4109 119.6666,-137.4748"/>
</g>
<!-- Node1547 -->
<g id="node8" class="node">
<title>Node1547</title>
<g id="a_node8"><a xlink:href="namespacecimg__library__suffixed.html#af2bdc1f26a64adc01b8d8c61df639568" target="_top" xlink:title="cimg_library_suffixed\l::operator/">
<polygon fill="#ffffff" stroke="#000000" points="160.5,-98.5 160.5,-128.5 269.5,-128.5 269.5,-98.5 160.5,-98.5"/>
<text text-anchor="start" x="168.5" y="-116.5" font-family="Helvetica,sans-Serif" font-size="10.00" fill="#000000">cimg_library_suffixed</text>
<text text-anchor="middle" x="215" y="-105.5" font-family="Helvetica,sans-Serif" font-size="10.00" fill="#000000">::operator/</text>
</a>
</g>
</g>
<!-- Node1540&#45;&gt;Node1547 -->
<g id="edge8" class="edge">
<title>Node1540&#45;&gt;Node1547</title>
<path fill="none" stroke="#191970" d="M119.5296,-127.7759C133.1143,-125.7446 147.3031,-123.6229 160.4608,-121.6554"/>
<polygon fill="#191970" stroke="#191970" points="118.6585,-124.3672 109.2861,-129.3077 119.6938,-131.2902 118.6585,-124.3672"/>
</g>
<!-- Node1548 -->
<g id="node9" class="node">
<title>Node1548</title>
<g id="a_node9"><a xlink:href="structcimg__library__suffixed_1_1_c_img.html#aab407645f844295cbb4621e744cbb7d0" target="_top" xlink:title="Division operator. ">
<polygon fill="#ffffff" stroke="#000000" points="148,-49.5 148,-79.5 282,-79.5 282,-49.5 148,-49.5"/>
<text text-anchor="start" x="156" y="-67.5" font-family="Helvetica,sans-Serif" font-size="10.00" fill="#000000">cimg_library_suffixed</text>
<text text-anchor="middle" x="215" y="-56.5" font-family="Helvetica,sans-Serif" font-size="10.00" fill="#000000">::CImg&lt; charT &gt;::operator/</text>
</a>
</g>
</g>
<!-- Node1540&#45;&gt;Node1548 -->
<g id="edge9" class="edge">
<title>Node1540&#45;&gt;Node1548</title>
<path fill="none" stroke="#191970" d="M88.5163,-117.3427C105.2081,-107.9045 125.8095,-96.9155 145,-88.5 152.177,-85.3527 159.9082,-82.3426 167.522,-79.583"/>
<polygon fill="#191970" stroke="#191970" points="86.6196,-114.3955 79.679,-122.4004 90.0967,-120.4709 86.6196,-114.3955"/>
</g>
<!-- Node1549 -->
<g id="node10" class="node">
<title>Node1549</title>
<g id="a_node10"><a xlink:href="structcimg__library__suffixed_1_1_c_img.html#a866a8b640fd988d6473d7f0c251481eb" target="_top" xlink:title="In&#45;place division operator. ">
<polygon fill="#ffffff" stroke="#000000" points="145,-.5 145,-30.5 285,-30.5 285,-.5 145,-.5"/>
<text text-anchor="start" x="153" y="-18.5" font-family="Helvetica,sans-Serif" font-size="10.00" fill="#000000">cimg_library_suffixed</text>
<text text-anchor="middle" x="215" y="-7.5" font-family="Helvetica,sans-Serif" font-size="10.00" fill="#000000">::CImg&lt; charT &gt;::operator/=</text>
</a>
</g>
</g>
<!-- Node1540&#45;&gt;Node1549 -->
<g id="edge10" class="edge">
<title>Node1540&#45;&gt;Node1549</title>
<path fill="none" stroke="#191970" d="M70.6499,-114.2063C87.0503,-92.1396 114.343,-59.4862 145,-39.5 150.1658,-36.1322 155.8554,-33.1836 161.6907,-30.6154"/>
<polygon fill="#191970" stroke="#191970" points="67.7578,-112.2323 64.7121,-122.3799 73.4212,-116.3465 67.7578,-112.2323"/>
</g>
<!-- Node1542&#45;&gt;Node1540 -->
<g id="edge6" class="edge">
<title>Node1542&#45;&gt;Node1540</title>
<path fill="none" stroke="#191970" d="M150.2251,-159.0476C136.648,-157.133 122.4566,-154.8563 109.2861,-152.4721"/>
<polygon fill="#191970" stroke="#191970" points="150.0809,-162.5601 160.4608,-160.437 151.0225,-155.6237 150.0809,-162.5601"/>
</g>
<!-- Node1543 -->
<g id="node4" class="node">
<title>Node1543</title>
<g id="a_node4"><a xlink:href="structcimg__library__suffixed_1_1_c_img_list.html#ac07f7527b6223ed7b6c4e02f6feab7b3" target="_top" xlink:title="Compute a 1d Fast Fourier Transform, along specified axis. ">
<polygon fill="#ffffff" stroke="#000000" points="323,-230.5 323,-260.5 452,-260.5 452,-230.5 323,-230.5"/>
<text text-anchor="start" x="331" y="-248.5" font-family="Helvetica,sans-Serif" font-size="10.00" fill="#000000">cimg_library_suffixed</text>
<text text-anchor="middle" x="387.5" y="-237.5" font-family="Helvetica,sans-Serif" font-size="10.00" fill="#000000">::CImgList&lt; charT &gt;::FFT</text>
</a>
</g>
</g>
<!-- Node1542&#45;&gt;Node1543 -->
<g id="edge3" class="edge">
<title>Node1542&#45;&gt;Node1543</title>
<path fill="none" stroke="#191970" d="M274.3646,-181.7683C278.0388,-183.5498 281.6154,-185.4597 285,-187.5 303.5889,-198.7056 302.5046,-209.1408 321,-220.5 327.0959,-224.2439 333.843,-227.5746 340.6334,-230.4871"/>
<polygon fill="#191970" stroke="#191970" points="275.6406,-178.5046 265.0842,-177.6032 272.7743,-184.891 275.6406,-178.5046"/>
</g>
<!-- Node1544 -->
<g id="node5" class="node">
<title>Node1544</title>
<g id="a_node5"><a xlink:href="structcimg__library__suffixed_1_1_c_img_list.html#aa026daaaa283e6bcc688a9bb42f16001" target="_top" xlink:title="Compute a 1&#45;D Fast Fourier Transform, along specified axis . ">
<polygon fill="#ffffff" stroke="#000000" points="332,-170 332,-211 443,-211 443,-170 332,-170"/>
<text text-anchor="start" x="340" y="-199" font-family="Helvetica,sans-Serif" font-size="10.00" fill="#000000">cimg_library_suffixed</text>
<text text-anchor="start" x="340" y="-188" font-family="Helvetica,sans-Serif" font-size="10.00" fill="#000000">::CImgList&lt; charT &gt;::</text>
<text text-anchor="middle" x="387.5" y="-177" font-family="Helvetica,sans-Serif" font-size="10.00" fill="#000000">get_FFT</text>
</a>
</g>
</g>
<!-- Node1542&#45;&gt;Node1544 -->
<g id="edge4" class="edge">
<title>Node1542&#45;&gt;Node1544</title>
<path fill="none" stroke="#191970" d="M279.5321,-172.9748C296.7144,-175.7638 315.1266,-178.7524 331.7919,-181.4575"/>
<polygon fill="#191970" stroke="#191970" points="280.0117,-169.5069 269.5801,-171.3594 278.8901,-176.4165 280.0117,-169.5069"/>
</g>
<!-- Node1545 -->
<g id="node6" class="node">
<title>Node1545</title>
<g id="a_node6"><a xlink:href="structcimg__library__suffixed_1_1_c_img.html#a35d89112cc5ff251f8b134209cd222f0" target="_top" xlink:title="Compute Haar multiscale wavelet transform . ">
<polygon fill="#ffffff" stroke="#000000" points="321,-120.5 321,-150.5 454,-150.5 454,-120.5 321,-120.5"/>
<text text-anchor="start" x="329" y="-138.5" font-family="Helvetica,sans-Serif" font-size="10.00" fill="#000000">cimg_library_suffixed</text>
<text text-anchor="middle" x="387.5" y="-127.5" font-family="Helvetica,sans-Serif" font-size="10.00" fill="#000000">::CImg&lt; charT &gt;::get_haar</text>
</a>
</g>
</g>
<!-- Node1542&#45;&gt;Node1545 -->
<g id="edge5" class="edge">
<title>Node1542&#45;&gt;Node1545</title>
<path fill="none" stroke="#191970" d="M279.6975,-152.3734C293.1494,-150.2679 307.3486,-148.0454 320.8687,-145.9292"/>
<polygon fill="#191970" stroke="#191970" points="278.9185,-148.9527 269.5801,-153.957 280.0011,-155.8685 278.9185,-148.9527"/>
</g>
<!-- Node1546 -->
<g id="node7" class="node">
<title>Node1546</title>
<g id="a_node7"><a xlink:href="structcimg__library__suffixed_1_1_c_img.html#ae5d38bed2e12d78631a84feb13fd715b" target="_top" xlink:title="Compute Haar multiscale wavelet transform. ">
<polygon fill="#ffffff" stroke="#000000" points="330.5,-71.5 330.5,-101.5 444.5,-101.5 444.5,-71.5 330.5,-71.5"/>
<text text-anchor="start" x="338.5" y="-89.5" font-family="Helvetica,sans-Serif" font-size="10.00" fill="#000000">cimg_library_suffixed</text>
<text text-anchor="middle" x="387.5" y="-78.5" font-family="Helvetica,sans-Serif" font-size="10.00" fill="#000000">::CImg&lt; charT &gt;::haar</text>
</a>
</g>
</g>
<!-- Node1542&#45;&gt;Node1546 -->
<g id="edge7" class="edge">
<title>Node1542&#45;&gt;Node1546</title>
<path fill="none" stroke="#191970" d="M272.6529,-143.5048C276.8979,-141.6237 281.0573,-139.6195 285,-137.5 302.6159,-128.03 303.3999,-119.9994 321,-110.5 327.0487,-107.2353 333.6332,-104.2505 340.2296,-101.5793"/>
<polygon fill="#191970" stroke="#191970" points="271.1517,-140.3387 263.274,-147.4233 273.8503,-146.7976 271.1517,-140.3387"/>
</g>
</g>
</svg>
