<?xml version="1.0" encoding="UTF-8" standalone="no"?>
<!DOCTYPE svg PUBLIC "-//W3C//DTD SVG 1.1//EN"
 "http://www.w3.org/Graphics/SVG/1.1/DTD/svg11.dtd">
<!-- Generated by graphviz version 2.40.1 (20161225.0304)
 -->
<!-- Title: cimg_library_suffixed::CImgArgumentException Pages: 1 -->
<svg width="149pt" height="331pt"
 viewBox="0.00 0.00 149.00 331.00" xmlns="http://www.w3.org/2000/svg" xmlns:xlink="http://www.w3.org/1999/xlink">
<g id="graph0" class="graph" transform="scale(1 1) rotate(0) translate(4 327)">
<title>cimg_library_suffixed::CImgArgumentException</title>
<polygon fill="#ffffff" stroke="transparent" points="-4,4 -4,-327 145,-327 145,4 -4,4"/>
<!-- Node0 -->
<g id="node1" class="node">
<title>Node0</title>
<polygon fill="#bfbfbf" stroke="#000000" points="0,-.5 0,-68.5 141,-68.5 141,-.5 0,-.5"/>
<text text-anchor="start" x="8" y="-56.5" font-family="Helvetica,sans-Serif" font-size="10.00" fill="#000000">cimg_library_suffixed</text>
<text text-anchor="middle" x="70.5" y="-45.5" font-family="Helvetica,sans-Serif" font-size="10.00" fill="#000000">::CImgArgumentException</text>
<polyline fill="none" stroke="#000000" points="0,-38.5 141,-38.5 "/>
<text text-anchor="middle" x="70.5" y="-26.5" font-family="Helvetica,sans-Serif" font-size="10.00" fill="#000000"> </text>
<polyline fill="none" stroke="#000000" points="0,-19.5 141,-19.5 "/>
<text text-anchor="start" x="8" y="-7.5" font-family="Helvetica,sans-Serif" font-size="10.00" fill="#000000">+ CImgArgumentException()</text>
</g>
<!-- Node1 -->
<g id="node2" class="node">
<title>Node1</title>
<g id="a_node2"><a xlink:href="structcimg__library__suffixed_1_1_c_img_exception.html" target="_top" xlink:title="Instances of CImgException are thrown when errors are encountered in a &#160;function call. ">
<polygon fill="#ffffff" stroke="#000000" points="16,-105.5 16,-228.5 125,-228.5 125,-105.5 16,-105.5"/>
<text text-anchor="start" x="24" y="-216.5" font-family="Helvetica,sans-Serif" font-size="10.00" fill="#000000">cimg_library_suffixed</text>
<text text-anchor="middle" x="70.5" y="-205.5" font-family="Helvetica,sans-Serif" font-size="10.00" fill="#000000">::CImgException</text>
<polyline fill="none" stroke="#000000" points="16,-198.5 125,-198.5 "/>
<text text-anchor="start" x="24" y="-186.5" font-family="Helvetica,sans-Serif" font-size="10.00" fill="#000000">+ _message</text>
<polyline fill="none" stroke="#000000" points="16,-179.5 125,-179.5 "/>
<text text-anchor="start" x="24" y="-167.5" font-family="Helvetica,sans-Serif" font-size="10.00" fill="#000000">+ CImgException()</text>
<text text-anchor="start" x="24" y="-156.5" font-family="Helvetica,sans-Serif" font-size="10.00" fill="#000000">+ CImgException()</text>
<text text-anchor="start" x="24" y="-145.5" font-family="Helvetica,sans-Serif" font-size="10.00" fill="#000000">+ CImgException()</text>
<text text-anchor="start" x="24" y="-134.5" font-family="Helvetica,sans-Serif" font-size="10.00" fill="#000000">+ ~CImgException()</text>
<text text-anchor="start" x="24" y="-123.5" font-family="Helvetica,sans-Serif" font-size="10.00" fill="#000000">+ operator=()</text>
<text text-anchor="start" x="24" y="-112.5" font-family="Helvetica,sans-Serif" font-size="10.00" fill="#000000">+ what()</text>
</a>
</g>
</g>
<!-- Node1&#45;&gt;Node0 -->
<g id="edge1" class="edge">
<title>Node1&#45;&gt;Node0</title>
<path fill="none" stroke="#191970" d="M70.5,-95.3746C70.5,-86.1502 70.5,-77.0658 70.5,-68.8429"/>
<polygon fill="none" stroke="#191970" points="67.0001,-95.4048 70.5,-105.4048 74.0001,-95.4048 67.0001,-95.4048"/>
</g>
<!-- Node2 -->
<g id="node3" class="node">
<title>Node2</title>
<polygon fill="#ffffff" stroke="#bfbfbf" points="31.5,-265.5 31.5,-322.5 109.5,-322.5 109.5,-265.5 31.5,-265.5"/>
<text text-anchor="middle" x="70.5" y="-310.5" font-family="Helvetica,sans-Serif" font-size="10.00" fill="#000000">std::exception</text>
<polyline fill="none" stroke="#bfbfbf" points="31.5,-303.5 109.5,-303.5 "/>
<text text-anchor="middle" x="70.5" y="-291.5" font-family="Helvetica,sans-Serif" font-size="10.00" fill="#000000"> </text>
<polyline fill="none" stroke="#bfbfbf" points="31.5,-284.5 109.5,-284.5 "/>
<text text-anchor="middle" x="70.5" y="-272.5" font-family="Helvetica,sans-Serif" font-size="10.00" fill="#000000"> </text>
</g>
<!-- Node2&#45;&gt;Node1 -->
<g id="edge2" class="edge">
<title>Node2&#45;&gt;Node1</title>
<path fill="none" stroke="#191970" d="M70.5,-255.2486C70.5,-246.8213 70.5,-237.7045 70.5,-228.6384"/>
<polygon fill="none" stroke="#191970" points="67.0001,-255.4987 70.5,-265.4987 74.0001,-255.4988 67.0001,-255.4987"/>
</g>
</g>
</svg>
