<?xml version="1.0" encoding="UTF-8" standalone="no"?>
<!DOCTYPE svg PUBLIC "-//W3C//DTD SVG 1.1//EN"
 "http://www.w3.org/Graphics/SVG/1.1/DTD/svg11.dtd">
<!-- Generated by graphviz version 2.40.1 (20161225.0304)
 -->
<!-- Title: cimg_library_suffixed::CImg::_system_strescape Pages: 1 -->
<svg width="312pt" height="710pt"
 viewBox="0.00 0.00 312.00 710.00" xmlns="http://www.w3.org/2000/svg" xmlns:xlink="http://www.w3.org/1999/xlink">
<g id="graph0" class="graph" transform="scale(1 1) rotate(0) translate(4 706)">
<title>cimg_library_suffixed::CImg::_system_strescape</title>
<polygon fill="#ffffff" stroke="transparent" points="-4,4 -4,-706 308,-706 308,4 -4,4"/>
<!-- Node321 -->
<g id="node1" class="node">
<title>Node321</title>
<polygon fill="#bfbfbf" stroke="#000000" points="0,-336 0,-366 138,-366 138,-336 0,-336"/>
<text text-anchor="start" x="8" y="-354" font-family="Helvetica,sans-Serif" font-size="10.00" fill="#000000">cimg_library_suffixed</text>
<text text-anchor="middle" x="69" y="-343" font-family="Helvetica,sans-Serif" font-size="10.00" fill="#000000">::CImg::_system_strescape</text>
</g>
<!-- Node322 -->
<g id="node2" class="node">
<title>Node322</title>
<g id="a_node2"><a xlink:href="structcimg__library__suffixed_1_1_c_img_list.html#a666592ad2e1ecef3317d060696ebbfaa" target="_top" xlink:title="cimg_library_suffixed\l::CImgList\&lt; charT \&gt;::\l_load_gif_external">
<polygon fill="#ffffff" stroke="#000000" points="183.5,-660.5 183.5,-701.5 294.5,-701.5 294.5,-660.5 183.5,-660.5"/>
<text text-anchor="start" x="191.5" y="-689.5" font-family="Helvetica,sans-Serif" font-size="10.00" fill="#000000">cimg_library_suffixed</text>
<text text-anchor="start" x="191.5" y="-678.5" font-family="Helvetica,sans-Serif" font-size="10.00" fill="#000000">::CImgList&lt; charT &gt;::</text>
<text text-anchor="middle" x="239" y="-667.5" font-family="Helvetica,sans-Serif" font-size="10.00" fill="#000000">_load_gif_external</text>
</a>
</g>
</g>
<!-- Node321&#45;&gt;Node322 -->
<g id="edge1" class="edge">
<title>Node321&#45;&gt;Node322</title>
<path fill="none" stroke="#191970" d="M71.2505,-376.3235C77.5141,-432.5868 99.9012,-569.4449 174,-651 177.176,-654.4956 180.8413,-657.6144 184.7806,-660.3913"/>
<polygon fill="#191970" stroke="#191970" points="74.7123,-375.7726 70.2022,-366.1857 67.7494,-376.4927 74.7123,-375.7726"/>
</g>
<!-- Node323 -->
<g id="node3" class="node">
<title>Node323</title>
<g id="a_node3"><a xlink:href="structcimg__library__suffixed_1_1_c_img_list.html#aa1c97a6c05ba746d02440eec0ad2e602" target="_top" xlink:title="Load an image from a video file using the external tool &#39;ffmpeg&#39;. ">
<polygon fill="#ffffff" stroke="#000000" points="183.5,-600.5 183.5,-641.5 294.5,-641.5 294.5,-600.5 183.5,-600.5"/>
<text text-anchor="start" x="191.5" y="-629.5" font-family="Helvetica,sans-Serif" font-size="10.00" fill="#000000">cimg_library_suffixed</text>
<text text-anchor="start" x="191.5" y="-618.5" font-family="Helvetica,sans-Serif" font-size="10.00" fill="#000000">::CImgList&lt; charT &gt;::</text>
<text text-anchor="middle" x="239" y="-607.5" font-family="Helvetica,sans-Serif" font-size="10.00" fill="#000000">load_ffmpeg_external</text>
</a>
</g>
</g>
<!-- Node321&#45;&gt;Node323 -->
<g id="edge2" class="edge">
<title>Node321&#45;&gt;Node323</title>
<path fill="none" stroke="#191970" d="M73.7888,-376.0851C84.0882,-423.7714 112.5666,-528.3256 174,-591 177.393,-594.4616 181.2608,-597.5647 185.3799,-600.3383"/>
<polygon fill="#191970" stroke="#191970" points="77.1605,-375.1062 71.7059,-366.0234 70.3058,-376.5253 77.1605,-375.1062"/>
</g>
<!-- Node324 -->
<g id="node4" class="node">
<title>Node324</title>
<g id="a_node4"><a xlink:href="structcimg__library__suffixed_1_1_c_img.html#a1f1ef95d7faa4c2c7a72d3d347f30dad" target="_top" xlink:title="Load gzipped image file, using external tool &#39;gunzip&#39;. ">
<polygon fill="#ffffff" stroke="#000000" points="182.5,-540.5 182.5,-581.5 295.5,-581.5 295.5,-540.5 182.5,-540.5"/>
<text text-anchor="start" x="190.5" y="-569.5" font-family="Helvetica,sans-Serif" font-size="10.00" fill="#000000">cimg_library_suffixed</text>
<text text-anchor="start" x="190.5" y="-558.5" font-family="Helvetica,sans-Serif" font-size="10.00" fill="#000000">::CImg&lt; charT &gt;::load</text>
<text text-anchor="middle" x="239" y="-547.5" font-family="Helvetica,sans-Serif" font-size="10.00" fill="#000000">_gzip_external</text>
</a>
</g>
</g>
<!-- Node321&#45;&gt;Node324 -->
<g id="edge3" class="edge">
<title>Node321&#45;&gt;Node324</title>
<path fill="none" stroke="#191970" d="M77.8365,-375.8179C92.4665,-413.777 125.0505,-486.5228 174,-531 177.7714,-534.4268 182.002,-537.5255 186.4481,-540.3132"/>
<polygon fill="#191970" stroke="#191970" points="80.9757,-374.2209 74.1875,-366.0863 74.4213,-376.6786 80.9757,-374.2209"/>
</g>
<!-- Node325 -->
<g id="node5" class="node">
<title>Node325</title>
<g id="a_node5"><a xlink:href="structcimg__library__suffixed_1_1_c_img_list.html#aae55e9a79bf2f7e08108dd200f63bf2c" target="_top" xlink:title="Load a gzipped list, using external tool &#39;gunzip&#39;. ">
<polygon fill="#ffffff" stroke="#000000" points="183.5,-480.5 183.5,-521.5 294.5,-521.5 294.5,-480.5 183.5,-480.5"/>
<text text-anchor="start" x="191.5" y="-509.5" font-family="Helvetica,sans-Serif" font-size="10.00" fill="#000000">cimg_library_suffixed</text>
<text text-anchor="start" x="191.5" y="-498.5" font-family="Helvetica,sans-Serif" font-size="10.00" fill="#000000">::CImgList&lt; charT &gt;::</text>
<text text-anchor="middle" x="239" y="-487.5" font-family="Helvetica,sans-Serif" font-size="10.00" fill="#000000">load_gzip_external</text>
</a>
</g>
</g>
<!-- Node321&#45;&gt;Node325 -->
<g id="edge4" class="edge">
<title>Node321&#45;&gt;Node325</title>
<path fill="none" stroke="#191970" d="M84.7881,-374.335C103.5325,-400.6251 136.9553,-443.2925 174,-471 178.5783,-474.4243 183.6099,-477.5866 188.7842,-480.4705"/>
<polygon fill="#191970" stroke="#191970" points="87.6162,-372.2718 79.01,-366.0924 81.8842,-376.2899 87.6162,-372.2718"/>
</g>
<!-- Node326 -->
<g id="node6" class="node">
<title>Node326</title>
<g id="a_node6"><a xlink:href="structcimg__library__suffixed_1_1_c_img.html#a8306218d5edf273c822113b799fd89cc" target="_top" xlink:title="Load image from a DICOM file, using XMedcon&#39;s external tool &#39;medcon&#39;. ">
<polygon fill="#ffffff" stroke="#000000" points="182.5,-420.5 182.5,-461.5 295.5,-461.5 295.5,-420.5 182.5,-420.5"/>
<text text-anchor="start" x="190.5" y="-449.5" font-family="Helvetica,sans-Serif" font-size="10.00" fill="#000000">cimg_library_suffixed</text>
<text text-anchor="start" x="190.5" y="-438.5" font-family="Helvetica,sans-Serif" font-size="10.00" fill="#000000">::CImg&lt; charT &gt;::load</text>
<text text-anchor="middle" x="239" y="-427.5" font-family="Helvetica,sans-Serif" font-size="10.00" fill="#000000">_medcon_external</text>
</a>
</g>
</g>
<!-- Node321&#45;&gt;Node326 -->
<g id="edge5" class="edge">
<title>Node321&#45;&gt;Node326</title>
<path fill="none" stroke="#191970" d="M102.7343,-371.2689C123.1247,-383.2701 149.7759,-398.5184 174,-411 180.0766,-414.131 186.5424,-417.3014 192.9497,-420.3497"/>
<polygon fill="#191970" stroke="#191970" points="104.5104,-368.2531 94.1216,-366.1739 100.9463,-374.2778 104.5104,-368.2531"/>
</g>
<!-- Node327 -->
<g id="node7" class="node">
<title>Node327</title>
<g id="a_node7"><a xlink:href="structcimg__library__suffixed_1_1_c_img_list.html#af09a45345581747984f4df0607418f2c" target="_top" xlink:title="Save image sequence, using the external tool &#39;ffmpeg&#39;. ">
<polygon fill="#ffffff" stroke="#000000" points="182.5,-360.5 182.5,-401.5 295.5,-401.5 295.5,-360.5 182.5,-360.5"/>
<text text-anchor="start" x="190.5" y="-389.5" font-family="Helvetica,sans-Serif" font-size="10.00" fill="#000000">cimg_library_suffixed</text>
<text text-anchor="start" x="190.5" y="-378.5" font-family="Helvetica,sans-Serif" font-size="10.00" fill="#000000">::CImgList&lt; charT &gt;::</text>
<text text-anchor="middle" x="239" y="-367.5" font-family="Helvetica,sans-Serif" font-size="10.00" fill="#000000">save_ffmpeg_external</text>
</a>
</g>
</g>
<!-- Node321&#45;&gt;Node327 -->
<g id="edge6" class="edge">
<title>Node321&#45;&gt;Node327</title>
<path fill="none" stroke="#191970" d="M148.222,-364.9803C159.7544,-367.0155 171.4294,-369.0758 182.3925,-371.0104"/>
<polygon fill="#191970" stroke="#191970" points="148.6016,-361.4933 138.1455,-363.2021 147.3851,-368.3868 148.6016,-361.4933"/>
</g>
<!-- Node328 -->
<g id="node8" class="node">
<title>Node328</title>
<g id="a_node8"><a xlink:href="structcimg__library__suffixed_1_1_c_img_list.html#a759ef20b53f1e507973dc53fcc2c7bb2" target="_top" xlink:title="Save image sequence as a GIF animated file. ">
<polygon fill="#ffffff" stroke="#000000" points="183.5,-300.5 183.5,-341.5 294.5,-341.5 294.5,-300.5 183.5,-300.5"/>
<text text-anchor="start" x="191.5" y="-329.5" font-family="Helvetica,sans-Serif" font-size="10.00" fill="#000000">cimg_library_suffixed</text>
<text text-anchor="start" x="191.5" y="-318.5" font-family="Helvetica,sans-Serif" font-size="10.00" fill="#000000">::CImgList&lt; charT &gt;::</text>
<text text-anchor="middle" x="239" y="-307.5" font-family="Helvetica,sans-Serif" font-size="10.00" fill="#000000">save_gif_external</text>
</a>
</g>
</g>
<!-- Node321&#45;&gt;Node328 -->
<g id="edge7" class="edge">
<title>Node321&#45;&gt;Node328</title>
<path fill="none" stroke="#191970" d="M148.1171,-337.0382C160.0564,-334.9312 172.1512,-332.7968 183.4533,-330.8024"/>
<polygon fill="#191970" stroke="#191970" points="147.3851,-333.6132 138.1455,-338.7979 148.6016,-340.5067 147.3851,-333.6132"/>
</g>
<!-- Node329 -->
<g id="node9" class="node">
<title>Node329</title>
<g id="a_node9"><a xlink:href="structcimg__library__suffixed_1_1_c_img.html#a44f125968c20e8c7d833bf7d75c32db6" target="_top" xlink:title="Save image using GraphicsMagick&#39;s external binary. ">
<polygon fill="#ffffff" stroke="#000000" points="174,-240.5 174,-281.5 304,-281.5 304,-240.5 174,-240.5"/>
<text text-anchor="start" x="182" y="-269.5" font-family="Helvetica,sans-Serif" font-size="10.00" fill="#000000">cimg_library_suffixed</text>
<text text-anchor="start" x="182" y="-258.5" font-family="Helvetica,sans-Serif" font-size="10.00" fill="#000000">::CImg&lt; charT &gt;::save</text>
<text text-anchor="middle" x="239" y="-247.5" font-family="Helvetica,sans-Serif" font-size="10.00" fill="#000000">_graphicsmagick_external</text>
</a>
</g>
</g>
<!-- Node321&#45;&gt;Node329 -->
<g id="edge8" class="edge">
<title>Node321&#45;&gt;Node329</title>
<path fill="none" stroke="#191970" d="M102.7343,-330.7311C123.1247,-318.7299 149.7759,-303.4816 174,-291 180.0766,-287.869 186.5424,-284.6986 192.9497,-281.6503"/>
<polygon fill="#191970" stroke="#191970" points="100.9463,-327.7222 94.1216,-335.8261 104.5104,-333.7469 100.9463,-327.7222"/>
</g>
<!-- Node330 -->
<g id="node10" class="node">
<title>Node330</title>
<g id="a_node10"><a xlink:href="structcimg__library__suffixed_1_1_c_img.html#a53983bb4f1ebe2a817b68029b8c04cb1" target="_top" xlink:title="Save image using gzip external binary. ">
<polygon fill="#ffffff" stroke="#000000" points="181,-180.5 181,-221.5 297,-221.5 297,-180.5 181,-180.5"/>
<text text-anchor="start" x="189" y="-209.5" font-family="Helvetica,sans-Serif" font-size="10.00" fill="#000000">cimg_library_suffixed</text>
<text text-anchor="start" x="189" y="-198.5" font-family="Helvetica,sans-Serif" font-size="10.00" fill="#000000">::CImg&lt; charT &gt;::save</text>
<text text-anchor="middle" x="239" y="-187.5" font-family="Helvetica,sans-Serif" font-size="10.00" fill="#000000">_gzip_external</text>
</a>
</g>
</g>
<!-- Node321&#45;&gt;Node330 -->
<g id="edge9" class="edge">
<title>Node321&#45;&gt;Node330</title>
<path fill="none" stroke="#191970" d="M84.7881,-327.665C103.5325,-301.3749 136.9553,-258.7075 174,-231 178.5783,-227.5757 183.6099,-224.4134 188.7842,-221.5295"/>
<polygon fill="#191970" stroke="#191970" points="81.8842,-325.7101 79.01,-335.9076 87.6162,-329.7282 81.8842,-325.7101"/>
</g>
<!-- Node331 -->
<g id="node11" class="node">
<title>Node331</title>
<g id="a_node11"><a xlink:href="structcimg__library__suffixed_1_1_c_img_list.html#aad5afe8b913e276dd281255dd787b4ba" target="_top" xlink:title="Save list as a gzipped file, using external tool &#39;gzip&#39;. ">
<polygon fill="#ffffff" stroke="#000000" points="183.5,-120.5 183.5,-161.5 294.5,-161.5 294.5,-120.5 183.5,-120.5"/>
<text text-anchor="start" x="191.5" y="-149.5" font-family="Helvetica,sans-Serif" font-size="10.00" fill="#000000">cimg_library_suffixed</text>
<text text-anchor="start" x="191.5" y="-138.5" font-family="Helvetica,sans-Serif" font-size="10.00" fill="#000000">::CImgList&lt; charT &gt;::</text>
<text text-anchor="middle" x="239" y="-127.5" font-family="Helvetica,sans-Serif" font-size="10.00" fill="#000000">save_gzip_external</text>
</a>
</g>
</g>
<!-- Node321&#45;&gt;Node331 -->
<g id="edge10" class="edge">
<title>Node321&#45;&gt;Node331</title>
<path fill="none" stroke="#191970" d="M77.8365,-326.1821C92.4665,-288.223 125.0505,-215.4772 174,-171 177.7714,-167.5732 182.002,-164.4745 186.4481,-161.6868"/>
<polygon fill="#191970" stroke="#191970" points="74.4213,-325.3214 74.1875,-335.9137 80.9757,-327.7791 74.4213,-325.3214"/>
</g>
<!-- Node332 -->
<g id="node12" class="node">
<title>Node332</title>
<g id="a_node12"><a xlink:href="structcimg__library__suffixed_1_1_c_img.html#afbf8db949f62c8bd3f2f73ba3d9c1420" target="_top" xlink:title="Save image using ImageMagick&#39;s external binary. ">
<polygon fill="#ffffff" stroke="#000000" points="179.5,-60.5 179.5,-101.5 298.5,-101.5 298.5,-60.5 179.5,-60.5"/>
<text text-anchor="start" x="187.5" y="-89.5" font-family="Helvetica,sans-Serif" font-size="10.00" fill="#000000">cimg_library_suffixed</text>
<text text-anchor="start" x="187.5" y="-78.5" font-family="Helvetica,sans-Serif" font-size="10.00" fill="#000000">::CImg&lt; charT &gt;::save</text>
<text text-anchor="middle" x="239" y="-67.5" font-family="Helvetica,sans-Serif" font-size="10.00" fill="#000000">_imagemagick_external</text>
</a>
</g>
</g>
<!-- Node321&#45;&gt;Node332 -->
<g id="edge11" class="edge">
<title>Node321&#45;&gt;Node332</title>
<path fill="none" stroke="#191970" d="M73.7888,-325.9149C84.0882,-278.2286 112.5666,-173.6744 174,-111 177.393,-107.5384 181.2608,-104.4353 185.3799,-101.6617"/>
<polygon fill="#191970" stroke="#191970" points="70.3058,-325.4747 71.7059,-335.9766 77.1605,-326.8938 70.3058,-325.4747"/>
</g>
<!-- Node333 -->
<g id="node13" class="node">
<title>Node333</title>
<g id="a_node13"><a xlink:href="structcimg__library__suffixed_1_1_c_img.html#a30d02c3d77fc43c8b5845e92268cdab5" target="_top" xlink:title="Save image as a Dicom file. ">
<polygon fill="#ffffff" stroke="#000000" points="181,-.5 181,-41.5 297,-41.5 297,-.5 181,-.5"/>
<text text-anchor="start" x="189" y="-29.5" font-family="Helvetica,sans-Serif" font-size="10.00" fill="#000000">cimg_library_suffixed</text>
<text text-anchor="start" x="189" y="-18.5" font-family="Helvetica,sans-Serif" font-size="10.00" fill="#000000">::CImg&lt; charT &gt;::save</text>
<text text-anchor="middle" x="239" y="-7.5" font-family="Helvetica,sans-Serif" font-size="10.00" fill="#000000">_medcon_external</text>
</a>
</g>
</g>
<!-- Node321&#45;&gt;Node333 -->
<g id="edge12" class="edge">
<title>Node321&#45;&gt;Node333</title>
<path fill="none" stroke="#191970" d="M71.2505,-325.6765C77.5141,-269.4132 99.9012,-132.5551 174,-51 177.176,-47.5044 180.8413,-44.3856 184.7806,-41.6087"/>
<polygon fill="#191970" stroke="#191970" points="67.7494,-325.5073 70.2022,-335.8143 74.7123,-326.2274 67.7494,-325.5073"/>
</g>
</g>
</svg>
