<?xml version="1.0" encoding="UTF-8" standalone="no"?>
<!DOCTYPE svg PUBLIC "-//W3C//DTD SVG 1.1//EN"
 "http://www.w3.org/Graphics/SVG/1.1/DTD/svg11.dtd">
<!-- Generated by graphviz version 2.40.1 (20161225.0304)
 -->
<!-- Title: cimg_library_suffixed::CImg::_priority_queue_insert Pages: 1 -->
<svg width="272pt" height="50pt"
 viewBox="0.00 0.00 272.00 50.00" xmlns="http://www.w3.org/2000/svg" xmlns:xlink="http://www.w3.org/1999/xlink">
<g id="graph0" class="graph" transform="scale(1 1) rotate(0) translate(4 46)">
<title>cimg_library_suffixed::CImg::_priority_queue_insert</title>
<polygon fill="#ffffff" stroke="transparent" points="-4,4 -4,-46 268,-46 268,4 -4,4"/>
<!-- Node264 -->
<g id="node1" class="node">
<title>Node264</title>
<polygon fill="#bfbfbf" stroke="#000000" points="0,-.5 0,-41.5 119,-41.5 119,-.5 0,-.5"/>
<text text-anchor="start" x="8" y="-29.5" font-family="Helvetica,sans-Serif" font-size="10.00" fill="#000000">cimg_library_suffixed</text>
<text text-anchor="start" x="8" y="-18.5" font-family="Helvetica,sans-Serif" font-size="10.00" fill="#000000">::CImg::_priority_queue</text>
<text text-anchor="middle" x="59.5" y="-7.5" font-family="Helvetica,sans-Serif" font-size="10.00" fill="#000000">_insert</text>
</g>
<!-- Node265 -->
<g id="node2" class="node">
<title>Node265</title>
<g id="a_node2"><a xlink:href="structcimg__library__suffixed_1_1_c_img.html#ab461b8b649f269f33f4eedba90d1a84e" target="_top" xlink:title="Compute distance map to a specified value, according to a custom metric (use dijkstra algorithm) ...">
<polygon fill="#ffffff" stroke="#000000" points="155,-.5 155,-41.5 264,-41.5 264,-.5 155,-.5"/>
<text text-anchor="start" x="163" y="-29.5" font-family="Helvetica,sans-Serif" font-size="10.00" fill="#000000">cimg_library_suffixed</text>
<text text-anchor="start" x="163" y="-18.5" font-family="Helvetica,sans-Serif" font-size="10.00" fill="#000000">::CImg&lt; charT &gt;::get</text>
<text text-anchor="middle" x="209.5" y="-7.5" font-family="Helvetica,sans-Serif" font-size="10.00" fill="#000000">_distance_dijkstra</text>
</a>
</g>
</g>
<!-- Node264&#45;&gt;Node265 -->
<g id="edge1" class="edge">
<title>Node264&#45;&gt;Node265</title>
<path fill="none" stroke="#191970" d="M129.2386,-21C137.8367,-21 146.5274,-21 154.8559,-21"/>
<polygon fill="#191970" stroke="#191970" points="129.215,-17.5001 119.215,-21 129.2149,-24.5001 129.215,-17.5001"/>
</g>
</g>
</svg>
