<?xml version="1.0" encoding="UTF-8" standalone="no"?>
<!DOCTYPE svg PUBLIC "-//W3C//DTD SVG 1.1//EN"
 "http://www.w3.org/Graphics/SVG/1.1/DTD/svg11.dtd">
<!-- Generated by graphviz version 2.40.1 (20161225.0304)
 -->
<!-- Title: cimg_library_suffixed::CImg::draw_gaussian Pages: 1 -->
<svg width="284pt" height="50pt"
 viewBox="0.00 0.00 284.00 50.00" xmlns="http://www.w3.org/2000/svg" xmlns:xlink="http://www.w3.org/1999/xlink">
<g id="graph0" class="graph" transform="scale(1 1) rotate(0) translate(4 46)">
<title>cimg_library_suffixed::CImg::draw_gaussian</title>
<polygon fill="#ffffff" stroke="transparent" points="-4,4 -4,-46 280,-46 280,4 -4,4"/>
<!-- Node963 -->
<g id="node1" class="node">
<title>Node963</title>
<polygon fill="#bfbfbf" stroke="#000000" points="0,-6 0,-36 118,-36 118,-6 0,-6"/>
<text text-anchor="start" x="8" y="-24" font-family="Helvetica,sans-Serif" font-size="10.00" fill="#000000">cimg_library_suffixed</text>
<text text-anchor="middle" x="59" y="-13" font-family="Helvetica,sans-Serif" font-size="10.00" fill="#000000">::CImg::draw_gaussian</text>
</g>
<!-- Node964 -->
<g id="node2" class="node">
<title>Node964</title>
<g id="a_node2"><a xlink:href="structcimg__library__suffixed_1_1_c_img.html#a6dba86c8049ae141ffc9936b2eaf5c5c" target="_top" xlink:title="cimg_library_suffixed\l::CImg\&lt; charT \&gt;::_draw\l_object3d">
<polygon fill="#ffffff" stroke="#000000" points="154,-.5 154,-41.5 276,-41.5 276,-.5 154,-.5"/>
<text text-anchor="start" x="162" y="-29.5" font-family="Helvetica,sans-Serif" font-size="10.00" fill="#000000">cimg_library_suffixed</text>
<text text-anchor="start" x="162" y="-18.5" font-family="Helvetica,sans-Serif" font-size="10.00" fill="#000000">::CImg&lt; charT &gt;::_draw</text>
<text text-anchor="middle" x="215" y="-7.5" font-family="Helvetica,sans-Serif" font-size="10.00" fill="#000000">_object3d</text>
</a>
</g>
</g>
<!-- Node963&#45;&gt;Node964 -->
<g id="edge1" class="edge">
<title>Node963&#45;&gt;Node964</title>
<path fill="none" stroke="#191970" d="M128.6218,-21C137.0597,-21 145.6299,-21 153.9313,-21"/>
<polygon fill="#191970" stroke="#191970" points="128.422,-17.5001 118.4219,-21 128.4219,-24.5001 128.422,-17.5001"/>
</g>
</g>
</svg>
