<?xml version="1.0" encoding="UTF-8" standalone="no"?>
<!DOCTYPE svg PUBLIC "-//W3C//DTD SVG 1.1//EN"
 "http://www.w3.org/Graphics/SVG/1.1/DTD/svg11.dtd">
<!-- Generated by graphviz version 2.40.1 (20161225.0304)
 -->
<!-- Title: cimg_library_suffixed::CImgDisplay::set_wheel Pages: 1 -->
<!--zoomable 336 -->
<svg id="main" version="1.1" xmlns="http://www.w3.org/2000/svg" xmlns:xlink="http://www.w3.org/1999/xlink" xml:space="preserve" onload="init(evt)">
<style type="text/css"><![CDATA[
.edge:hover path { stroke: red; }
.edge:hover polygon { stroke: red; fill: red; }
]]></style>
<script type="text/javascript"><![CDATA[
var edges = document.getElementsByTagName('g');
if (edges && edges.length) {
  for (var i=0;i<edges.length;i++) {
    if (edges[i].id.substr(0,4)=='edge') {
      edges[i].setAttribute('class','edge');
    }
  }
}
]]></script>
        <defs>
                <circle id="rim" cx="0" cy="0" r="7"/>
                <circle id="rim2" cx="0" cy="0" r="3.5"/>
                <g id="zoomPlus">
                        <use xlink:href="#rim" fill="#404040">
                                <set attributeName="fill" to="#808080" begin="zoomplus.mouseover" end="zoomplus.mouseout"/>
                        </use>
                        <path d="M-4,0h8M0,-4v8" fill="none" stroke="white" stroke-width="1.5" pointer-events="none"/>
                </g>
                <g id="zoomMin">
                        <use xlink:href="#rim" fill="#404040">
                                <set attributeName="fill" to="#808080" begin="zoomminus.mouseover" end="zoomminus.mouseout"/>
                        </use>
                        <path d="M-4,0h8" fill="none" stroke="white" stroke-width="1.5" pointer-events="none"/>
                </g>
                <g id="dirArrow">
                        <path fill="none" stroke="white" stroke-width="1.5" d="M0,-3.0v7 M-2.5,-0.5L0,-3.0L2.5,-0.5"/>
                </g>
               <g id="resetDef">
                       <use xlink:href="#rim2" fill="#404040">
                               <set attributeName="fill" to="#808080" begin="reset.mouseover" end="reset.mouseout"/>
                       </use>
               </g>
        </defs>

<script type="text/javascript">
var viewWidth = 671;
var viewHeight = 336;
var sectionId = 'dynsection-32';
</script>
<script xlink:href="svgpan.js"/>
<svg id="graph" class="graph">
<g id="viewport">
<title>cimg_library_suffixed::CImgDisplay::set_wheel</title>
<polygon fill="#ffffff" stroke="transparent" points="-4,4 -4,-331.5 667,-331.5 667,4 -4,4"/>
<!-- Node497 -->
<g id="node1" class="node">
<title>Node497</title>
<polygon fill="#bfbfbf" stroke="#000000" points="0,-143 0,-173 130,-173 130,-143 0,-143"/>
<text text-anchor="start" x="8" y="-161" font-family="Helvetica,sans-Serif" font-size="10.00" fill="#000000">cimg_library_suffixed</text>
<text text-anchor="middle" x="65" y="-150" font-family="Helvetica,sans-Serif" font-size="10.00" fill="#000000">::CImgDisplay::set_wheel</text>
</g>
<!-- Node498 -->
<g id="node2" class="node">
<title>Node498</title>
<g id="a_node2"><a xlink:href="structcimg__library__suffixed_1_1_c_img.html#adf9d80c60e82b079056c31cb0fe61faf" target="_top" xlink:title="cimg_library_suffixed\l::CImg\&lt; charT \&gt;::_display">
<polygon fill="#ffffff" stroke="#000000" points="344,-297 344,-327 475,-327 475,-297 344,-297"/>
<text text-anchor="start" x="352" y="-315" font-family="Helvetica,sans-Serif" font-size="10.00" fill="#000000">cimg_library_suffixed</text>
<text text-anchor="middle" x="409.5" y="-304" font-family="Helvetica,sans-Serif" font-size="10.00" fill="#000000">::CImg&lt; charT &gt;::_display</text>
</a>
</g>
</g>
<!-- Node497&#45;&gt;Node498 -->
<g id="edge1" class="edge">
<title>Node497&#45;&gt;Node498</title>
<path fill="none" stroke="#191970" d="M83.0463,-181.1209C101.5222,-203.1847 132.2463,-235.6946 166,-254 221.6778,-284.1953 292.8858,-298.8084 343.8926,-305.7947"/>
<polygon fill="#191970" stroke="#191970" points="85.6271,-178.7481 76.5841,-173.2276 80.2107,-183.1825 85.6271,-178.7481"/>
</g>
<!-- Node499 -->
<g id="node3" class="node">
<title>Node499</title>
<g id="a_node3"><a xlink:href="structcimg__library__suffixed_1_1_c_img_list.html#af514efa37d021bd02a95186531139a38" target="_top" xlink:title="cimg_library_suffixed\l::CImgList\&lt; charT \&gt;::\l_display">
<polygon fill="#ffffff" stroke="#000000" points="354,-236.5 354,-277.5 465,-277.5 465,-236.5 354,-236.5"/>
<text text-anchor="start" x="362" y="-265.5" font-family="Helvetica,sans-Serif" font-size="10.00" fill="#000000">cimg_library_suffixed</text>
<text text-anchor="start" x="362" y="-254.5" font-family="Helvetica,sans-Serif" font-size="10.00" fill="#000000">::CImgList&lt; charT &gt;::</text>
<text text-anchor="middle" x="409.5" y="-243.5" font-family="Helvetica,sans-Serif" font-size="10.00" fill="#000000">_display</text>
</a>
</g>
</g>
<!-- Node497&#45;&gt;Node499 -->
<g id="edge2" class="edge">
<title>Node497&#45;&gt;Node499</title>
<path fill="none" stroke="#191970" d="M89.5016,-179.7396C108.8621,-195.6112 137.3163,-216.1718 166,-227 227.3676,-250.1664 303.0194,-256.3171 353.5623,-257.5406"/>
<polygon fill="#191970" stroke="#191970" points="91.6972,-177.013 81.7868,-173.2666 87.1979,-182.3755 91.6972,-177.013"/>
</g>
<!-- Node500 -->
<g id="node4" class="node">
<title>Node500</title>
<g id="a_node4"><a xlink:href="structcimg__library__suffixed_1_1_c_img.html#a8b40db5a9818c3f961a90840b271de6c" target="_top" xlink:title="cimg_library_suffixed\l::CImg\&lt; charT \&gt;::_display\l_object3d">
<polygon fill="#ffffff" stroke="#000000" points="344,-126.5 344,-167.5 475,-167.5 475,-126.5 344,-126.5"/>
<text text-anchor="start" x="352" y="-155.5" font-family="Helvetica,sans-Serif" font-size="10.00" fill="#000000">cimg_library_suffixed</text>
<text text-anchor="start" x="352" y="-144.5" font-family="Helvetica,sans-Serif" font-size="10.00" fill="#000000">::CImg&lt; charT &gt;::_display</text>
<text text-anchor="middle" x="409.5" y="-133.5" font-family="Helvetica,sans-Serif" font-size="10.00" fill="#000000">_object3d</text>
</a>
</g>
</g>
<!-- Node497&#45;&gt;Node500 -->
<g id="edge3" class="edge">
<title>Node497&#45;&gt;Node500</title>
<path fill="none" stroke="#191970" d="M140.5105,-155.5889C201.3364,-153.6467 285.9795,-150.9441 343.9786,-149.0921"/>
<polygon fill="#191970" stroke="#191970" points="140.086,-152.1006 130.2028,-155.9181 140.3095,-159.097 140.086,-152.1006"/>
</g>
<!-- Node501 -->
<g id="node5" class="node">
<title>Node501</title>
<g id="a_node5"><a xlink:href="structcimg__library__suffixed_1_1_c_img.html#ad9b7141242d0b6e861a8014112ddb5b5" target="_top" xlink:title="cimg_library_suffixed\l::CImg\&lt; charT \&gt;::_select">
<polygon fill="#ffffff" stroke="#000000" points="166,-61 166,-91 293,-91 293,-61 166,-61"/>
<text text-anchor="start" x="174" y="-79" font-family="Helvetica,sans-Serif" font-size="10.00" fill="#000000">cimg_library_suffixed</text>
<text text-anchor="middle" x="229.5" y="-68" font-family="Helvetica,sans-Serif" font-size="10.00" fill="#000000">::CImg&lt; charT &gt;::_select</text>
</a>
</g>
</g>
<!-- Node497&#45;&gt;Node501 -->
<g id="edge4" class="edge">
<title>Node497&#45;&gt;Node501</title>
<path fill="none" stroke="#191970" d="M102.5189,-138.2978C121.4722,-128.4433 144.8734,-116.4253 166,-106 176.0592,-101.0361 187.0894,-95.7655 197.0935,-91.0497"/>
<polygon fill="#191970" stroke="#191970" points="100.8518,-135.2197 93.6013,-142.9451 104.0869,-141.4273 100.8518,-135.2197"/>
</g>
<!-- Node502 -->
<g id="node6" class="node">
<title>Node502</title>
<g id="a_node6"><a xlink:href="structcimg__library__suffixed_1_1_c_img_display.html#a260b55ecbe9f4648a045357f8906f3c7" target="_top" xlink:title="Flush all display events. ">
<polygon fill="#ffffff" stroke="#000000" points="175,-187 175,-217 284,-217 284,-187 175,-187"/>
<text text-anchor="start" x="183" y="-205" font-family="Helvetica,sans-Serif" font-size="10.00" fill="#000000">cimg_library_suffixed</text>
<text text-anchor="middle" x="229.5" y="-194" font-family="Helvetica,sans-Serif" font-size="10.00" fill="#000000">::CImgDisplay::flush</text>
</a>
</g>
</g>
<!-- Node497&#45;&gt;Node502 -->
<g id="edge5" class="edge">
<title>Node497&#45;&gt;Node502</title>
<path fill="none" stroke="#191970" d="M131.1016,-175.6807C145.6705,-179.5775 160.9431,-183.6626 174.9925,-187.4205"/>
<polygon fill="#191970" stroke="#191970" points="131.7163,-172.2221 121.1515,-173.0192 129.9075,-178.9844 131.7163,-172.2221"/>
</g>
<!-- Node504 -->
<g id="node8" class="node">
<title>Node504</title>
<g id="a_node8"><a xlink:href="structcimg__library__suffixed_1_1_c_img_display.html#a914ee0515249db301dc66275861a6b3e" target="_top" xlink:title="Take a snapshot of the associated window content. ">
<polygon fill="#ffffff" stroke="#000000" points="347,-77 347,-107 472,-107 472,-77 347,-77"/>
<text text-anchor="start" x="355" y="-95" font-family="Helvetica,sans-Serif" font-size="10.00" fill="#000000">cimg_library_suffixed</text>
<text text-anchor="middle" x="409.5" y="-84" font-family="Helvetica,sans-Serif" font-size="10.00" fill="#000000">::CImgDisplay::snapshot</text>
</a>
</g>
</g>
<!-- Node497&#45;&gt;Node504 -->
<g id="edge15" class="edge">
<title>Node497&#45;&gt;Node504</title>
<path fill="none" stroke="#191970" d="M140.2956,-143.5747C202.1606,-131.7225 288.7706,-115.1296 346.8866,-103.9956"/>
<polygon fill="#191970" stroke="#191970" points="139.3656,-140.1891 130.2028,-145.5083 140.6828,-147.0641 139.3656,-140.1891"/>
</g>
<!-- Node508 -->
<g id="node12" class="node">
<title>Node508</title>
<g id="a_node12"><a xlink:href="structcimg__library__suffixed_1_1_c_img.html#a689f47424dc7c548ebfe53e431409199" target="_top" xlink:title="Select sub&#45;graph in a graph. ">
<polygon fill="#ffffff" stroke="#000000" points="175,-.5 175,-41.5 284,-41.5 284,-.5 175,-.5"/>
<text text-anchor="start" x="183" y="-29.5" font-family="Helvetica,sans-Serif" font-size="10.00" fill="#000000">cimg_library_suffixed</text>
<text text-anchor="start" x="183" y="-18.5" font-family="Helvetica,sans-Serif" font-size="10.00" fill="#000000">::CImg&lt; charT &gt;::get</text>
<text text-anchor="middle" x="229.5" y="-7.5" font-family="Helvetica,sans-Serif" font-size="10.00" fill="#000000">_select_graph</text>
</a>
</g>
</g>
<!-- Node497&#45;&gt;Node508 -->
<g id="edge14" class="edge">
<title>Node497&#45;&gt;Node508</title>
<path fill="none" stroke="#191970" d="M82.5814,-134.7997C101.269,-111.3409 132.6726,-75.1873 166,-51 170.6379,-47.6341 175.7132,-44.4929 180.9089,-41.6073"/>
<polygon fill="#191970" stroke="#191970" points="79.7072,-132.7931 76.2918,-142.8224 85.2161,-137.112 79.7072,-132.7931"/>
</g>
<!-- Node502&#45;&gt;Node498 -->
<g id="edge6" class="edge">
<title>Node502&#45;&gt;Node498</title>
<path fill="none" stroke="#191970" d="M250.4311,-224.41C269.3337,-243.4649 298.7511,-270.3159 329,-287 335.9197,-290.8166 343.5019,-294.1355 351.1593,-296.9967"/>
<polygon fill="#191970" stroke="#191970" points="252.7254,-221.7492 243.2422,-217.0249 247.7095,-226.6319 252.7254,-221.7492"/>
</g>
<!-- Node502&#45;&gt;Node499 -->
<g id="edge7" class="edge">
<title>Node502&#45;&gt;Node499</title>
<path fill="none" stroke="#191970" d="M288.4427,-220.0103C309.4306,-226.4232 332.9867,-233.6209 353.7027,-239.9508"/>
<polygon fill="#191970" stroke="#191970" points="289.2721,-216.604 278.6858,-217.029 287.2265,-223.2985 289.2721,-216.604"/>
</g>
<!-- Node502&#45;&gt;Node500 -->
<g id="edge9" class="edge">
<title>Node502&#45;&gt;Node500</title>
<path fill="none" stroke="#191970" d="M288.3341,-184.0229C306.0801,-178.6005 325.6704,-172.6146 343.8315,-167.0654"/>
<polygon fill="#191970" stroke="#191970" points="287.2265,-180.7015 278.6858,-186.971 289.2721,-187.396 287.2265,-180.7015"/>
</g>
<!-- Node503 -->
<g id="node7" class="node">
<title>Node503</title>
<g id="a_node7"><a xlink:href="structcimg__library__suffixed_1_1_c_img.html#a39224c81542abc157318e64a6df11fdf" target="_top" xlink:title="cimg_library_suffixed\l::CImg\&lt; charT \&gt;::_display_graph">
<polygon fill="#ffffff" stroke="#000000" points="329,-187 329,-217 490,-217 490,-187 329,-187"/>
<text text-anchor="start" x="337" y="-205" font-family="Helvetica,sans-Serif" font-size="10.00" fill="#000000">cimg_library_suffixed</text>
<text text-anchor="middle" x="409.5" y="-194" font-family="Helvetica,sans-Serif" font-size="10.00" fill="#000000">::CImg&lt; charT &gt;::_display_graph</text>
</a>
</g>
</g>
<!-- Node502&#45;&gt;Node503 -->
<g id="edge8" class="edge">
<title>Node502&#45;&gt;Node503</title>
<path fill="none" stroke="#191970" d="M294.4956,-202C305.5891,-202 317.2332,-202 328.6772,-202"/>
<polygon fill="#191970" stroke="#191970" points="294.484,-198.5001 284.484,-202 294.484,-205.5001 294.484,-198.5001"/>
</g>
<!-- Node502&#45;&gt;Node504 -->
<g id="edge10" class="edge">
<title>Node502&#45;&gt;Node504</title>
<path fill="none" stroke="#191970" d="M250.4311,-179.59C269.3337,-160.5351 298.7511,-133.6841 329,-117 335.9197,-113.1834 343.5019,-109.8645 351.1593,-107.0033"/>
<polygon fill="#191970" stroke="#191970" points="247.7095,-177.3681 243.2422,-186.9751 252.7254,-182.2508 247.7095,-177.3681"/>
</g>
<!-- Node505 -->
<g id="node9" class="node">
<title>Node505</title>
<g id="a_node9"><a xlink:href="structcimg__library__suffixed_1_1_c_img.html#a015159d8cee61c2f2316c3e128470a71" target="_top" xlink:title="Construct image from a display window. ">
<polygon fill="#ffffff" stroke="#000000" points="535,-126 535,-156 654,-156 654,-126 535,-126"/>
<text text-anchor="start" x="543" y="-144" font-family="Helvetica,sans-Serif" font-size="10.00" fill="#000000">cimg_library_suffixed</text>
<text text-anchor="middle" x="594.5" y="-133" font-family="Helvetica,sans-Serif" font-size="10.00" fill="#000000">::CImg&lt; charT &gt;::CImg</text>
</a>
</g>
</g>
<!-- Node504&#45;&gt;Node505 -->
<g id="edge11" class="edge">
<title>Node504&#45;&gt;Node505</title>
<path fill="none" stroke="#191970" d="M476.0354,-109.6229C496.2752,-114.9837 518.3198,-120.8225 537.844,-125.9938"/>
<polygon fill="#191970" stroke="#191970" points="476.8262,-106.2117 466.2633,-107.0346 475.0339,-112.9784 476.8262,-106.2117"/>
</g>
<!-- Node506 -->
<g id="node10" class="node">
<title>Node506</title>
<g id="a_node10"><a xlink:href="structcimg__library__suffixed_1_1_c_img.html#a668fe887682e7cbb469409842bb98cd2" target="_top" xlink:title="Construct image from a display window . ">
<polygon fill="#ffffff" stroke="#000000" points="532.5,-77 532.5,-107 656.5,-107 656.5,-77 532.5,-77"/>
<text text-anchor="start" x="540.5" y="-95" font-family="Helvetica,sans-Serif" font-size="10.00" fill="#000000">cimg_library_suffixed</text>
<text text-anchor="middle" x="594.5" y="-84" font-family="Helvetica,sans-Serif" font-size="10.00" fill="#000000">::CImg&lt; charT &gt;::assign</text>
</a>
</g>
</g>
<!-- Node504&#45;&gt;Node506 -->
<g id="edge12" class="edge">
<title>Node504&#45;&gt;Node506</title>
<path fill="none" stroke="#191970" d="M482.2856,-92C498.8069,-92 516.2081,-92 532.2462,-92"/>
<polygon fill="#191970" stroke="#191970" points="482.1326,-88.5001 472.1326,-92 482.1325,-95.5001 482.1326,-88.5001"/>
</g>
<!-- Node507 -->
<g id="node11" class="node">
<title>Node507</title>
<g id="a_node11"><a xlink:href="structcimg__library__suffixed_1_1_c_img.html#a75e18966d8e02a9cee85642038e30a08" target="_top" xlink:title="Copy the content of a display window to the current image instance. ">
<polygon fill="#ffffff" stroke="#000000" points="526,-28 526,-58 663,-58 663,-28 526,-28"/>
<text text-anchor="start" x="534" y="-46" font-family="Helvetica,sans-Serif" font-size="10.00" fill="#000000">cimg_library_suffixed</text>
<text text-anchor="middle" x="594.5" y="-35" font-family="Helvetica,sans-Serif" font-size="10.00" fill="#000000">::CImg&lt; charT &gt;::operator=</text>
</a>
</g>
</g>
<!-- Node504&#45;&gt;Node507 -->
<g id="edge13" class="edge">
<title>Node504&#45;&gt;Node507</title>
<path fill="none" stroke="#191970" d="M476.0354,-74.3771C496.2752,-69.0163 518.3198,-63.1775 537.844,-58.0062"/>
<polygon fill="#191970" stroke="#191970" points="475.0339,-71.0216 466.2633,-76.9654 476.8262,-77.7883 475.0339,-71.0216"/>
</g>
</g>
</svg>
        <g id="navigator" transform="translate(0 0)" fill="#404254">
                <rect fill="#f2f5e9" fill-opacity="0.5" stroke="#606060" stroke-width=".5" x="0" y="0" width="60" height="60"/>
                <use id="zoomplus" xlink:href="#zoomPlus" x="17" y="9" onmousedown="handleZoom(evt,'in')"/>
                <use id="zoomminus" xlink:href="#zoomMin" x="42" y="9" onmousedown="handleZoom(evt,'out')"/>
                <use id="reset" xlink:href="#resetDef" x="30" y="36" onmousedown="handleReset()"/>
                <g id="arrowUp" xlink:href="#dirArrow" transform="translate(30 24)" onmousedown="handlePan(0,-1)">
                  <use xlink:href="#rim" fill="#404040">
                        <set attributeName="fill" to="#808080" begin="arrowUp.mouseover" end="arrowUp.mouseout"/>
                  </use>
                  <path fill="none" stroke="white" stroke-width="1.5" d="M0,-3.0v7 M-2.5,-0.5L0,-3.0L2.5,-0.5"/>
                </g>
                <g id="arrowRight" xlink:href="#dirArrow" transform="rotate(90) translate(36 -43)" onmousedown="handlePan(1,0)">
                  <use xlink:href="#rim" fill="#404040">
                        <set attributeName="fill" to="#808080" begin="arrowRight.mouseover" end="arrowRight.mouseout"/>
                  </use>
                  <path fill="none" stroke="white" stroke-width="1.5" d="M0,-3.0v7 M-2.5,-0.5L0,-3.0L2.5,-0.5"/>
                </g>
                <g id="arrowDown" xlink:href="#dirArrow" transform="rotate(180) translate(-30 -48)" onmousedown="handlePan(0,1)">
                  <use xlink:href="#rim" fill="#404040">
                        <set attributeName="fill" to="#808080" begin="arrowDown.mouseover" end="arrowDown.mouseout"/>
                  </use>
                  <path fill="none" stroke="white" stroke-width="1.5" d="M0,-3.0v7 M-2.5,-0.5L0,-3.0L2.5,-0.5"/>
                </g>
                <g id="arrowLeft" xlink:href="#dirArrow" transform="rotate(270) translate(-36 17)" onmousedown="handlePan(-1,0)">
                  <use xlink:href="#rim" fill="#404040">
                        <set attributeName="fill" to="#808080" begin="arrowLeft.mouseover" end="arrowLeft.mouseout"/>
                  </use>
                  <path fill="none" stroke="white" stroke-width="1.5" d="M0,-3.0v7 M-2.5,-0.5L0,-3.0L2.5,-0.5"/>
                </g>
        </g>
        <svg viewBox="0 0 15 15" width="100%" height="30px" preserveAspectRatio="xMaxYMin meet">
         <g id="arrow_out" transform="scale(0.3 0.3)">
          <a xlink:href="structcimg__library__suffixed_1_1_c_img_display_a4ce1d2c8224658626b37215edfe58ad8_icgraph_org.svg" target="_base">
           <rect id="button" ry="5" rx="5" y="6" x="6" height="38" width="38"
                fill="#f2f5e9" fill-opacity="0.5" stroke="#606060" stroke-width="1.0"/>
           <path id="arrow"
             d="M 11.500037,31.436501 C 11.940474,20.09759 22.043105,11.32322 32.158766,21.979434 L 37.068811,17.246167 C 37.068811,17.246167 37.088388,32 37.088388,32 L 22.160133,31.978069 C 22.160133,31.978069 26.997745,27.140456 26.997745,27.140456 C 18.528582,18.264221 13.291696,25.230495 11.500037,31.436501 z"
             style="fill:#404040;"/>
          </a>
         </g>
        </svg>
</svg>
