<?xml version="1.0" encoding="UTF-8" standalone="no"?>
<!DOCTYPE svg PUBLIC "-//W3C//DTD SVG 1.1//EN"
 "http://www.w3.org/Graphics/SVG/1.1/DTD/svg11.dtd">
<!-- Generated by graphviz version 2.40.1 (20161225.0304)
 -->
<!-- Title: cimg_library_suffixed::CImg::_cimg_math_parser::operator() Pages: 1 -->
<svg width="1504pt" height="193pt"
 viewBox="0.00 0.00 1504.00 192.50" xmlns="http://www.w3.org/2000/svg" xmlns:xlink="http://www.w3.org/1999/xlink">
<g id="graph0" class="graph" transform="scale(1 1) rotate(0) translate(4 188.5)">
<title>cimg_library_suffixed::CImg::_cimg_math_parser::operator()</title>
<polygon fill="#ffffff" stroke="transparent" points="-4,4 -4,-188.5 1500,-188.5 1500,4 -4,4"/>
<!-- Node1227 -->
<g id="node1" class="node">
<title>Node1227</title>
<polygon fill="#bfbfbf" stroke="#000000" points="0,-126 0,-167 138,-167 138,-126 0,-126"/>
<text text-anchor="start" x="8" y="-155" font-family="Helvetica,sans-Serif" font-size="10.00" fill="#000000">cimg_library_suffixed</text>
<text text-anchor="start" x="8" y="-144" font-family="Helvetica,sans-Serif" font-size="10.00" fill="#000000">::CImg::_cimg_math_parser</text>
<text text-anchor="middle" x="69" y="-133" font-family="Helvetica,sans-Serif" font-size="10.00" fill="#000000">::operator()</text>
</g>
<!-- Node1228 -->
<g id="node2" class="node">
<title>Node1228</title>
<g id="a_node2"><a xlink:href="namespacecimg__library__suffixed_1_1cimg.html#ada686776cc71803df391eea79cd1b3e5" target="_top" xlink:title="Get/set default output stream for the &#160;library messages. ">
<polygon fill="#ffffff" stroke="#000000" points="174,-131.5 174,-161.5 283,-161.5 283,-131.5 174,-131.5"/>
<text text-anchor="start" x="182" y="-149.5" font-family="Helvetica,sans-Serif" font-size="10.00" fill="#000000">cimg_library_suffixed</text>
<text text-anchor="middle" x="228.5" y="-138.5" font-family="Helvetica,sans-Serif" font-size="10.00" fill="#000000">::cimg::output</text>
</a>
</g>
</g>
<!-- Node1227&#45;&gt;Node1228 -->
<g id="edge1" class="edge">
<title>Node1227&#45;&gt;Node1228</title>
<path fill="none" stroke="#191970" d="M138.0314,-146.5C146.5309,-146.5 155.1959,-146.5 163.6306,-146.5"/>
<polygon fill="#191970" stroke="#191970" points="163.7783,-150.0001 173.7783,-146.5 163.7782,-143.0001 163.7783,-150.0001"/>
</g>
<!-- Node1229 -->
<g id="node3" class="node">
<title>Node1229</title>
<g id="a_node3"><a xlink:href="namespacecimg__library__suffixed_1_1cimg.html#a9e739e4b4ac058abfba069466617b914" target="_top" xlink:title="cimg_library_suffixed\l::cimg::mutex">
<polygon fill="#ffffff" stroke="#000000" points="1073,-93.5 1073,-123.5 1182,-123.5 1182,-93.5 1073,-93.5"/>
<text text-anchor="start" x="1081" y="-111.5" font-family="Helvetica,sans-Serif" font-size="10.00" fill="#000000">cimg_library_suffixed</text>
<text text-anchor="middle" x="1127.5" y="-100.5" font-family="Helvetica,sans-Serif" font-size="10.00" fill="#000000">::cimg::mutex</text>
</a>
</g>
</g>
<!-- Node1228&#45;&gt;Node1229 -->
<g id="edge2" class="edge">
<title>Node1228&#45;&gt;Node1229</title>
<path fill="none" stroke="#191970" d="M283.0581,-157.747C342.2472,-168.9523 439.6601,-184.5 524.5,-184.5 524.5,-184.5 524.5,-184.5 837.5,-184.5 927.352,-184.5 1027.8985,-149.9387 1083.8551,-127.4292"/>
<polygon fill="#191970" stroke="#191970" points="1085.5054,-130.536 1093.4401,-123.5152 1082.859,-124.0555 1085.5054,-130.536"/>
</g>
<!-- Node1234 -->
<g id="node8" class="node">
<title>Node1234</title>
<g id="a_node8"><a xlink:href="namespacecimg__library__suffixed_1_1cimg.html#aab8db7528c32a8fd3a3dc471e662782e" target="_top" xlink:title="cimg_library_suffixed\l::cimg::_stderr">
<polygon fill="#ffffff" stroke="#000000" points="319,-109.5 319,-139.5 428,-139.5 428,-109.5 319,-109.5"/>
<text text-anchor="start" x="327" y="-127.5" font-family="Helvetica,sans-Serif" font-size="10.00" fill="#000000">cimg_library_suffixed</text>
<text text-anchor="middle" x="373.5" y="-116.5" font-family="Helvetica,sans-Serif" font-size="10.00" fill="#000000">::cimg::_stderr</text>
</a>
</g>
</g>
<!-- Node1228&#45;&gt;Node1234 -->
<g id="edge8" class="edge">
<title>Node1228&#45;&gt;Node1234</title>
<path fill="none" stroke="#191970" d="M283.3183,-138.1827C291.5286,-136.937 300.0611,-135.6425 308.4586,-134.3683"/>
<polygon fill="#191970" stroke="#191970" points="309.2424,-137.7896 318.6042,-132.829 308.1923,-130.8688 309.2424,-137.7896"/>
</g>
<!-- Node1230 -->
<g id="node4" class="node">
<title>Node1230</title>
<g id="a_node4"><a xlink:href="namespacecimg__library__suffixed_1_1cimg.html#aa0e1bc96ae6e235dc5b67b8b0a466166" target="_top" xlink:title="cimg_library_suffixed\l::cimg::Mutex_attr">
<polygon fill="#ffffff" stroke="#000000" points="1387,-140.5 1387,-170.5 1496,-170.5 1496,-140.5 1387,-140.5"/>
<text text-anchor="start" x="1395" y="-158.5" font-family="Helvetica,sans-Serif" font-size="10.00" fill="#000000">cimg_library_suffixed</text>
<text text-anchor="middle" x="1441.5" y="-147.5" font-family="Helvetica,sans-Serif" font-size="10.00" fill="#000000">::cimg::Mutex_attr</text>
</a>
</g>
</g>
<!-- Node1229&#45;&gt;Node1230 -->
<g id="edge3" class="edge">
<title>Node1229&#45;&gt;Node1230</title>
<path fill="none" stroke="#191970" d="M1147.7886,-123.66C1165.338,-135.766 1191.9275,-151.7766 1218,-158.5 1270.2267,-171.9679 1331.6233,-169.9274 1376.8381,-165.2484"/>
<polygon fill="#191970" stroke="#191970" points="1377.253,-168.724 1386.8082,-164.1471 1376.4844,-161.7663 1377.253,-168.724"/>
</g>
<!-- Node1231 -->
<g id="node5" class="node">
<title>Node1231</title>
<g id="a_node5"><a xlink:href="structcimg__library__suffixed_1_1cimg_1_1_mutex__info.html#afac3fa5f107ad4795fb867050f616555" target="_top" xlink:title="cimg_library_suffixed\l::cimg::Mutex_info::unlock">
<polygon fill="#ffffff" stroke="#000000" points="1218.5,-69.5 1218.5,-99.5 1350.5,-99.5 1350.5,-69.5 1218.5,-69.5"/>
<text text-anchor="start" x="1226.5" y="-87.5" font-family="Helvetica,sans-Serif" font-size="10.00" fill="#000000">cimg_library_suffixed</text>
<text text-anchor="middle" x="1284.5" y="-76.5" font-family="Helvetica,sans-Serif" font-size="10.00" fill="#000000">::cimg::Mutex_info::unlock</text>
</a>
</g>
</g>
<!-- Node1229&#45;&gt;Node1231 -->
<g id="edge4" class="edge">
<title>Node1229&#45;&gt;Node1231</title>
<path fill="none" stroke="#191970" d="M1182.411,-100.106C1190.7369,-98.8332 1199.453,-97.5008 1208.1344,-96.1737"/>
<polygon fill="#191970" stroke="#191970" points="1208.9278,-99.5932 1218.2841,-94.6222 1207.87,-92.6736 1208.9278,-99.5932"/>
</g>
<!-- Node1232 -->
<g id="node6" class="node">
<title>Node1232</title>
<g id="a_node6"><a xlink:href="structcimg__library__suffixed_1_1cimg_1_1_mutex__info.html#a6cc8e26847a1aa649febed03d70182e7" target="_top" xlink:title="cimg_library_suffixed\l::cimg::Mutex_info::lock">
<polygon fill="#ffffff" stroke="#000000" points="1223.5,-20.5 1223.5,-50.5 1345.5,-50.5 1345.5,-20.5 1223.5,-20.5"/>
<text text-anchor="start" x="1231.5" y="-38.5" font-family="Helvetica,sans-Serif" font-size="10.00" fill="#000000">cimg_library_suffixed</text>
<text text-anchor="middle" x="1284.5" y="-27.5" font-family="Helvetica,sans-Serif" font-size="10.00" fill="#000000">::cimg::Mutex_info::lock</text>
</a>
</g>
</g>
<!-- Node1229&#45;&gt;Node1232 -->
<g id="edge5" class="edge">
<title>Node1229&#45;&gt;Node1232</title>
<path fill="none" stroke="#191970" d="M1153.9788,-93.3011C1171.7871,-83.3682 1195.9505,-70.4428 1218,-60.5 1222.6591,-58.3991 1227.5523,-56.3232 1232.4816,-54.3195"/>
<polygon fill="#191970" stroke="#191970" points="1233.9456,-57.5042 1241.9536,-50.5672 1231.3675,-50.9963 1233.9456,-57.5042"/>
</g>
<!-- Node1233 -->
<g id="node7" class="node">
<title>Node1233</title>
<g id="a_node7"><a xlink:href="structcimg__library__suffixed_1_1cimg_1_1_mutex__info.html#a9bf4ed1e1dfe6f28fa6250cd04f3c900" target="_top" xlink:title="cimg_library_suffixed\l::cimg::Mutex_info::trylock">
<polygon fill="#ffffff" stroke="#000000" points="1218,-118.5 1218,-148.5 1351,-148.5 1351,-118.5 1218,-118.5"/>
<text text-anchor="start" x="1226" y="-136.5" font-family="Helvetica,sans-Serif" font-size="10.00" fill="#000000">cimg_library_suffixed</text>
<text text-anchor="middle" x="1284.5" y="-125.5" font-family="Helvetica,sans-Serif" font-size="10.00" fill="#000000">::cimg::Mutex_info::trylock</text>
</a>
</g>
</g>
<!-- Node1229&#45;&gt;Node1233 -->
<g id="edge6" class="edge">
<title>Node1229&#45;&gt;Node1233</title>
<path fill="none" stroke="#191970" d="M1182.411,-117.2438C1190.6098,-118.5493 1199.187,-119.9151 1207.7367,-121.2766"/>
<polygon fill="#191970" stroke="#191970" points="1207.3105,-124.7527 1217.7365,-122.8689 1208.4113,-117.8398 1207.3105,-124.7527"/>
</g>
<!-- Node1233&#45;&gt;Node1230 -->
<g id="edge7" class="edge">
<title>Node1233&#45;&gt;Node1230</title>
<path fill="none" stroke="#191970" d="M1351.0821,-142.83C1359.5193,-144.0123 1368.1445,-145.2209 1376.5556,-146.3995"/>
<polygon fill="#191970" stroke="#191970" points="1376.293,-149.8968 1386.682,-147.8185 1377.2645,-142.9646 1376.293,-149.8968"/>
</g>
<!-- Node1235 -->
<g id="node9" class="node">
<title>Node1235</title>
<g id="a_node9"><a xlink:href="namespacecimg__library__suffixed_1_1cimg.html#a79aef0cbcf66ceb71c2b74cb66b4deb2" target="_top" xlink:title="Avoid warning messages due to unused parameters. Do nothing actually. ">
<polygon fill="#ffffff" stroke="#000000" points="928,-49.5 928,-79.5 1037,-79.5 1037,-49.5 928,-49.5"/>
<text text-anchor="start" x="936" y="-67.5" font-family="Helvetica,sans-Serif" font-size="10.00" fill="#000000">cimg_library_suffixed</text>
<text text-anchor="middle" x="982.5" y="-56.5" font-family="Helvetica,sans-Serif" font-size="10.00" fill="#000000">::cimg::unused</text>
</a>
</g>
</g>
<!-- Node1234&#45;&gt;Node1235 -->
<g id="edge9" class="edge">
<title>Node1234&#45;&gt;Node1235</title>
<path fill="none" stroke="#191970" d="M428.0491,-126.6007C439.8995,-126.9753 452.3685,-127.3073 464,-127.5 589.7605,-129.5839 622.2536,-143.5747 747,-127.5 813.0744,-118.9857 827.6686,-106.8144 892,-89.5 900.6694,-87.1667 909.7975,-84.6802 918.7857,-82.2144"/>
<polygon fill="#191970" stroke="#191970" points="919.7416,-85.5815 928.4555,-79.5551 917.8854,-78.8321 919.7416,-85.5815"/>
</g>
<!-- Node1236 -->
<g id="node10" class="node">
<title>Node1236</title>
<g id="a_node10"><a xlink:href="namespacecimg__library__suffixed_1_1cimg.html#aeafab144366eddd11360f32f468fa4af" target="_top" xlink:title="Set current &#160;exception mode. ">
<polygon fill="#ffffff" stroke="#000000" points="464,-45.5 464,-75.5 585,-75.5 585,-45.5 464,-45.5"/>
<text text-anchor="start" x="472" y="-63.5" font-family="Helvetica,sans-Serif" font-size="10.00" fill="#000000">cimg_library_suffixed</text>
<text text-anchor="middle" x="524.5" y="-52.5" font-family="Helvetica,sans-Serif" font-size="10.00" fill="#000000">::cimg::exception_mode</text>
</a>
</g>
</g>
<!-- Node1234&#45;&gt;Node1236 -->
<g id="edge11" class="edge">
<title>Node1234&#45;&gt;Node1236</title>
<path fill="none" stroke="#191970" d="M408.9028,-109.4948C430.0306,-100.54 457.0601,-89.0838 479.6689,-79.5012"/>
<polygon fill="#191970" stroke="#191970" points="481.2164,-82.6468 489.0577,-75.5219 478.4847,-76.2018 481.2164,-82.6468"/>
</g>
<!-- Node1235&#45;&gt;Node1229 -->
<g id="edge10" class="edge">
<title>Node1235&#45;&gt;Node1229</title>
<path fill="none" stroke="#191970" d="M1031.9952,-79.5192C1043.5323,-83.0202 1055.9365,-86.7842 1067.8612,-90.4027"/>
<polygon fill="#191970" stroke="#191970" points="1067.1501,-93.8445 1077.7355,-93.3991 1069.1827,-87.1461 1067.1501,-93.8445"/>
</g>
<!-- Node1237 -->
<g id="node11" class="node">
<title>Node1237</title>
<g id="a_node11"><a xlink:href="namespacecimg__library__suffixed_1_1cimg.html#a6c578f866de2be9be7e385d693c758c8" target="_top" xlink:title="cimg_library_suffixed\l::cimg::_exception_mode">
<polygon fill="#ffffff" stroke="#000000" points="621,-87.5 621,-117.5 747,-117.5 747,-87.5 621,-87.5"/>
<text text-anchor="start" x="629" y="-105.5" font-family="Helvetica,sans-Serif" font-size="10.00" fill="#000000">cimg_library_suffixed</text>
<text text-anchor="middle" x="684" y="-94.5" font-family="Helvetica,sans-Serif" font-size="10.00" fill="#000000">::cimg::_exception_mode</text>
</a>
</g>
</g>
<!-- Node1236&#45;&gt;Node1237 -->
<g id="edge12" class="edge">
<title>Node1236&#45;&gt;Node1237</title>
<path fill="none" stroke="#191970" d="M581.6326,-75.5443C593.1554,-78.5785 605.3648,-81.7936 617.1848,-84.906"/>
<polygon fill="#191970" stroke="#191970" points="616.4367,-88.3283 626.9983,-87.4902 618.2192,-81.559 616.4367,-88.3283"/>
</g>
<!-- Node1237&#45;&gt;Node1229 -->
<g id="edge13" class="edge">
<title>Node1237&#45;&gt;Node1229</title>
<path fill="none" stroke="#191970" d="M747.0717,-103.3533C830.8352,-104.4865 978.0329,-106.4779 1062.6723,-107.623"/>
<polygon fill="#191970" stroke="#191970" points="1062.6291,-111.1226 1072.6756,-107.7583 1062.7239,-104.1232 1062.6291,-111.1226"/>
</g>
<!-- Node1237&#45;&gt;Node1234 -->
<g id="edge20" class="edge">
<title>Node1237&#45;&gt;Node1234</title>
<path fill="none" stroke="#191970" d="M620.9297,-106.9688C567.7813,-110.7345 492.037,-116.1012 438.383,-119.9028"/>
<polygon fill="#191970" stroke="#191970" points="438.024,-116.4194 428.2964,-120.6175 438.5188,-123.4019 438.024,-116.4194"/>
</g>
<!-- Node1238 -->
<g id="node12" class="node">
<title>Node1238</title>
<g id="a_node12"><a xlink:href="namespacecimg__library__suffixed_1_1cimg.html#a01a3b743897290604513ea6d847c9886" target="_top" xlink:title="cimg_library_suffixed\l::cimg::_stdin">
<polygon fill="#ffffff" stroke="#000000" points="783,-49.5 783,-79.5 892,-79.5 892,-49.5 783,-49.5"/>
<text text-anchor="start" x="791" y="-67.5" font-family="Helvetica,sans-Serif" font-size="10.00" fill="#000000">cimg_library_suffixed</text>
<text text-anchor="middle" x="837.5" y="-56.5" font-family="Helvetica,sans-Serif" font-size="10.00" fill="#000000">::cimg::_stdin</text>
</a>
</g>
</g>
<!-- Node1237&#45;&gt;Node1238 -->
<g id="edge14" class="edge">
<title>Node1237&#45;&gt;Node1238</title>
<path fill="none" stroke="#191970" d="M744.6673,-87.4814C753.8984,-85.1962 763.4546,-82.8305 772.7686,-80.5247"/>
<polygon fill="#191970" stroke="#191970" points="773.8875,-83.8535 782.7534,-78.0529 772.2053,-77.0586 773.8875,-83.8535"/>
</g>
<!-- Node1239 -->
<g id="node13" class="node">
<title>Node1239</title>
<g id="a_node13"><a xlink:href="namespacecimg__library__suffixed_1_1cimg.html#a493220746e5df3466568bd7862825008" target="_top" xlink:title="cimg_library_suffixed\l::cimg::_stdout">
<polygon fill="#ffffff" stroke="#000000" points="783,-.5 783,-30.5 892,-30.5 892,-.5 783,-.5"/>
<text text-anchor="start" x="791" y="-18.5" font-family="Helvetica,sans-Serif" font-size="10.00" fill="#000000">cimg_library_suffixed</text>
<text text-anchor="middle" x="837.5" y="-7.5" font-family="Helvetica,sans-Serif" font-size="10.00" fill="#000000">::cimg::_stdout</text>
</a>
</g>
</g>
<!-- Node1237&#45;&gt;Node1239 -->
<g id="edge17" class="edge">
<title>Node1237&#45;&gt;Node1239</title>
<path fill="none" stroke="#191970" d="M705.8317,-87.2455C725.5163,-73.8245 755.5091,-54.1906 783,-39.5 785.8723,-37.9651 788.8629,-36.4446 791.8992,-34.9581"/>
<polygon fill="#191970" stroke="#191970" points="793.5283,-38.0594 801.0726,-30.6206 790.5361,-31.7311 793.5283,-38.0594"/>
</g>
<!-- Node1238&#45;&gt;Node1235 -->
<g id="edge15" class="edge">
<title>Node1238&#45;&gt;Node1235</title>
<path fill="none" stroke="#191970" d="M892.3183,-64.5C900.5286,-64.5 909.0611,-64.5 917.4586,-64.5"/>
<polygon fill="#191970" stroke="#191970" points="917.6042,-68.0001 927.6042,-64.5 917.6042,-61.0001 917.6042,-68.0001"/>
</g>
<!-- Node1238&#45;&gt;Node1236 -->
<g id="edge16" class="edge">
<title>Node1238&#45;&gt;Node1236</title>
<path fill="none" stroke="#191970" d="M782.9666,-63.8031C730.8805,-63.1375 652.1092,-62.1308 595.2205,-61.4038"/>
<polygon fill="#191970" stroke="#191970" points="595.2646,-57.9042 585.2207,-61.276 595.1751,-64.9036 595.2646,-57.9042"/>
</g>
<!-- Node1239&#45;&gt;Node1235 -->
<g id="edge18" class="edge">
<title>Node1239&#45;&gt;Node1235</title>
<path fill="none" stroke="#191970" d="M882.1879,-30.6014C896.659,-35.4917 912.8725,-40.9707 927.9752,-46.0744"/>
<polygon fill="#191970" stroke="#191970" points="927.1158,-49.4783 937.71,-49.3641 929.3569,-42.8468 927.1158,-49.4783"/>
</g>
<!-- Node1239&#45;&gt;Node1236 -->
<g id="edge19" class="edge">
<title>Node1239&#45;&gt;Node1236</title>
<path fill="none" stroke="#191970" d="M782.9666,-23.3403C730.8805,-30.8287 652.1092,-42.1536 595.2205,-50.3325"/>
<polygon fill="#191970" stroke="#191970" points="594.6208,-46.8827 585.2207,-51.7702 595.617,-53.8114 594.6208,-46.8827"/>
</g>
</g>
</svg>
