<?xml version="1.0" encoding="UTF-8" standalone="no"?>
<!DOCTYPE svg PUBLIC "-//W3C//DTD SVG 1.1//EN"
 "http://www.w3.org/Graphics/SVG/1.1/DTD/svg11.dtd">
<!-- Generated by graphviz version 2.40.1 (20161225.0304)
 -->
<!-- Title: cimg_library_suffixed::CImg::value_string Pages: 1 -->
<svg width="291pt" height="170pt"
 viewBox="0.00 0.00 291.00 170.00" xmlns="http://www.w3.org/2000/svg" xmlns:xlink="http://www.w3.org/1999/xlink">
<g id="graph0" class="graph" transform="scale(1 1) rotate(0) translate(4 166)">
<title>cimg_library_suffixed::CImg::value_string</title>
<polygon fill="#ffffff" stroke="transparent" points="-4,4 -4,-166 287,-166 287,4 -4,4"/>
<!-- Node3369 -->
<g id="node1" class="node">
<title>Node3369</title>
<polygon fill="#bfbfbf" stroke="#000000" points="0,-66 0,-96 109,-96 109,-66 0,-66"/>
<text text-anchor="start" x="8" y="-84" font-family="Helvetica,sans-Serif" font-size="10.00" fill="#000000">cimg_library_suffixed</text>
<text text-anchor="middle" x="54.5" y="-73" font-family="Helvetica,sans-Serif" font-size="10.00" fill="#000000">::CImg::value_string</text>
</g>
<!-- Node3370 -->
<g id="node2" class="node">
<title>Node3370</title>
<g id="a_node2"><a xlink:href="structcimg__library__suffixed_1_1_c_img_1_1__cimg__math__parser.html#a318c44c5d1f4f0114355f37ace87a4ae" target="_top" xlink:title="cimg_library_suffixed\l::CImg::_cimg_math_parser\l::compile">
<polygon fill="#ffffff" stroke="#000000" points="145,-120.5 145,-161.5 283,-161.5 283,-120.5 145,-120.5"/>
<text text-anchor="start" x="153" y="-149.5" font-family="Helvetica,sans-Serif" font-size="10.00" fill="#000000">cimg_library_suffixed</text>
<text text-anchor="start" x="153" y="-138.5" font-family="Helvetica,sans-Serif" font-size="10.00" fill="#000000">::CImg::_cimg_math_parser</text>
<text text-anchor="middle" x="214" y="-127.5" font-family="Helvetica,sans-Serif" font-size="10.00" fill="#000000">::compile</text>
</a>
</g>
</g>
<!-- Node3369&#45;&gt;Node3370 -->
<g id="edge1" class="edge">
<title>Node3369&#45;&gt;Node3370</title>
<path fill="none" stroke="#191970" d="M104.2041,-99.6975C121.6892,-106.2749 141.4312,-113.7014 159.3044,-120.4249"/>
<polygon fill="#191970" stroke="#191970" points="105.3406,-96.3856 94.7486,-96.1405 102.8759,-102.9374 105.3406,-96.3856"/>
</g>
<!-- Node3371 -->
<g id="node3" class="node">
<title>Node3371</title>
<g id="a_node3"><a xlink:href="structcimg__library__suffixed_1_1_c_img_1_1__cimg__math__parser.html#a4cd30507977620b554a3d18a99901ec5" target="_top" xlink:title="cimg_library_suffixed\l::CImg::_cimg_math_parser\l::mp_ellipse">
<polygon fill="#ffffff" stroke="#000000" points="145,-60.5 145,-101.5 283,-101.5 283,-60.5 145,-60.5"/>
<text text-anchor="start" x="153" y="-89.5" font-family="Helvetica,sans-Serif" font-size="10.00" fill="#000000">cimg_library_suffixed</text>
<text text-anchor="start" x="153" y="-78.5" font-family="Helvetica,sans-Serif" font-size="10.00" fill="#000000">::CImg::_cimg_math_parser</text>
<text text-anchor="middle" x="214" y="-67.5" font-family="Helvetica,sans-Serif" font-size="10.00" fill="#000000">::mp_ellipse</text>
</a>
</g>
</g>
<!-- Node3369&#45;&gt;Node3371 -->
<g id="edge2" class="edge">
<title>Node3369&#45;&gt;Node3371</title>
<path fill="none" stroke="#191970" d="M119.4793,-81C127.8632,-81 136.4728,-81 144.9198,-81"/>
<polygon fill="#191970" stroke="#191970" points="119.3909,-77.5001 109.3909,-81 119.3908,-84.5001 119.3909,-77.5001"/>
</g>
<!-- Node3372 -->
<g id="node4" class="node">
<title>Node3372</title>
<g id="a_node4"><a xlink:href="structcimg__library__suffixed_1_1_c_img_1_1__cimg__math__parser.html#a1bef99ee64aadb4adc5777e2f4ae81b8" target="_top" xlink:title="cimg_library_suffixed\l::CImg::_cimg_math_parser\l::mp_polygon">
<polygon fill="#ffffff" stroke="#000000" points="145,-.5 145,-41.5 283,-41.5 283,-.5 145,-.5"/>
<text text-anchor="start" x="153" y="-29.5" font-family="Helvetica,sans-Serif" font-size="10.00" fill="#000000">cimg_library_suffixed</text>
<text text-anchor="start" x="153" y="-18.5" font-family="Helvetica,sans-Serif" font-size="10.00" fill="#000000">::CImg::_cimg_math_parser</text>
<text text-anchor="middle" x="214" y="-7.5" font-family="Helvetica,sans-Serif" font-size="10.00" fill="#000000">::mp_polygon</text>
</a>
</g>
</g>
<!-- Node3369&#45;&gt;Node3372 -->
<g id="edge3" class="edge">
<title>Node3369&#45;&gt;Node3372</title>
<path fill="none" stroke="#191970" d="M104.2041,-62.3025C121.6892,-55.7251 141.4312,-48.2986 159.3044,-41.5751"/>
<polygon fill="#191970" stroke="#191970" points="102.8759,-59.0626 94.7486,-65.8595 105.3406,-65.6144 102.8759,-59.0626"/>
</g>
</g>
</svg>
