<?xml version="1.0" encoding="UTF-8" standalone="no"?>
<!DOCTYPE svg PUBLIC "-//W3C//DTD SVG 1.1//EN"
 "http://www.w3.org/Graphics/SVG/1.1/DTD/svg11.dtd">
<!-- Generated by graphviz version 2.40.1 (20161225.0304)
 -->
<!-- Title: cimg_library_suffixed::CImgList::load_cimg Pages: 1 -->
<svg width="297pt" height="39pt"
 viewBox="0.00 0.00 297.00 39.00" xmlns="http://www.w3.org/2000/svg" xmlns:xlink="http://www.w3.org/1999/xlink">
<g id="graph0" class="graph" transform="scale(1 1) rotate(0) translate(4 35)">
<title>cimg_library_suffixed::CImgList::load_cimg</title>
<polygon fill="#ffffff" stroke="transparent" points="-4,4 -4,-35 293,-35 293,4 -4,4"/>
<!-- Node433 -->
<g id="node1" class="node">
<title>Node433</title>
<polygon fill="#bfbfbf" stroke="#000000" points="0,-.5 0,-30.5 113,-30.5 113,-.5 0,-.5"/>
<text text-anchor="start" x="8" y="-18.5" font-family="Helvetica,sans-Serif" font-size="10.00" fill="#000000">cimg_library_suffixed</text>
<text text-anchor="middle" x="56.5" y="-7.5" font-family="Helvetica,sans-Serif" font-size="10.00" fill="#000000">::CImgList::load_cimg</text>
</g>
<!-- Node434 -->
<g id="node2" class="node">
<title>Node434</title>
<g id="a_node2"><a xlink:href="structcimg__library__suffixed_1_1_c_img.html#acd11fa7d0e9e7598c686eeadd86b792d" target="_top" xlink:title="Load image from a .cimg[z] file. ">
<polygon fill="#ffffff" stroke="#000000" points="149,-.5 149,-30.5 289,-30.5 289,-.5 149,-.5"/>
<text text-anchor="start" x="157" y="-18.5" font-family="Helvetica,sans-Serif" font-size="10.00" fill="#000000">cimg_library_suffixed</text>
<text text-anchor="middle" x="219" y="-7.5" font-family="Helvetica,sans-Serif" font-size="10.00" fill="#000000">::CImg&lt; charT &gt;::load_cimg</text>
</a>
</g>
</g>
<!-- Node433&#45;&gt;Node434 -->
<g id="edge1" class="edge">
<title>Node433&#45;&gt;Node434</title>
<path fill="none" stroke="#191970" d="M123.4093,-15.5C131.7742,-15.5 140.3486,-15.5 148.7625,-15.5"/>
<polygon fill="#191970" stroke="#191970" points="123.3346,-12.0001 113.3346,-15.5 123.3346,-19.0001 123.3346,-12.0001"/>
</g>
</g>
</svg>
