<?xml version="1.0" encoding="UTF-8" standalone="no"?>
<!DOCTYPE svg PUBLIC "-//W3C//DTD SVG 1.1//EN"
 "http://www.w3.org/Graphics/SVG/1.1/DTD/svg11.dtd">
<!-- Generated by graphviz version 2.40.1 (20161225.0304)
 -->
<!-- Title: cimg_library_suffixed::CImg::_cimg_math_parser::mp_ixyzc Pages: 1 -->
<svg width="304pt" height="431pt"
 viewBox="0.00 0.00 304.00 431.00" xmlns="http://www.w3.org/2000/svg" xmlns:xlink="http://www.w3.org/1999/xlink">
<g id="graph0" class="graph" transform="scale(1 1) rotate(0) translate(4 427)">
<title>cimg_library_suffixed::CImg::_cimg_math_parser::mp_ixyzc</title>
<polygon fill="#ffffff" stroke="transparent" points="-4,4 -4,-427 300,-427 300,4 -4,4"/>
<!-- Node610 -->
<g id="node1" class="node">
<title>Node610</title>
<polygon fill="#bfbfbf" stroke="#000000" points="0,-191 0,-232 138,-232 138,-191 0,-191"/>
<text text-anchor="start" x="8" y="-220" font-family="Helvetica,sans-Serif" font-size="10.00" fill="#000000">cimg_library_suffixed</text>
<text text-anchor="start" x="8" y="-209" font-family="Helvetica,sans-Serif" font-size="10.00" fill="#000000">::CImg::_cimg_math_parser</text>
<text text-anchor="middle" x="69" y="-198" font-family="Helvetica,sans-Serif" font-size="10.00" fill="#000000">::mp_ixyzc</text>
</g>
<!-- Node611 -->
<g id="node2" class="node">
<title>Node611</title>
<g id="a_node2"><a xlink:href="structcimg__library__suffixed_1_1_c_img.html#a62164dd601324ff1c65810d753b5cbdb" target="_top" xlink:title="cimg_library_suffixed\l::CImg::_atXYZC">
<polygon fill="#ffffff" stroke="#000000" points="180.5,-392.5 180.5,-422.5 289.5,-422.5 289.5,-392.5 180.5,-392.5"/>
<text text-anchor="start" x="188.5" y="-410.5" font-family="Helvetica,sans-Serif" font-size="10.00" fill="#000000">cimg_library_suffixed</text>
<text text-anchor="middle" x="235" y="-399.5" font-family="Helvetica,sans-Serif" font-size="10.00" fill="#000000">::CImg::_atXYZC</text>
</a>
</g>
</g>
<!-- Node610&#45;&gt;Node611 -->
<g id="edge1" class="edge">
<title>Node610&#45;&gt;Node611</title>
<path fill="none" stroke="#191970" d="M76.5192,-232.2197C90.4448,-267.8736 123.5085,-341.0769 174,-383.5 175.503,-384.7628 177.0805,-385.9645 178.7155,-387.1074"/>
<polygon fill="#191970" stroke="#191970" points="176.9334,-390.1201 187.2921,-392.3445 180.5814,-384.1459 176.9334,-390.1201"/>
</g>
<!-- Node612 -->
<g id="node3" class="node">
<title>Node612</title>
<g id="a_node3"><a xlink:href="structcimg__library__suffixed_1_1_c_img.html#a4b9085ffa1570a7a96c7324b2537b6ab" target="_top" xlink:title="cimg_library_suffixed\l::CImg::_linear_atXYZC">
<polygon fill="#ffffff" stroke="#000000" points="174,-343.5 174,-373.5 296,-373.5 296,-343.5 174,-343.5"/>
<text text-anchor="start" x="182" y="-361.5" font-family="Helvetica,sans-Serif" font-size="10.00" fill="#000000">cimg_library_suffixed</text>
<text text-anchor="middle" x="235" y="-350.5" font-family="Helvetica,sans-Serif" font-size="10.00" fill="#000000">::CImg::_linear_atXYZC</text>
</a>
</g>
</g>
<!-- Node610&#45;&gt;Node612 -->
<g id="edge2" class="edge">
<title>Node610&#45;&gt;Node612</title>
<path fill="none" stroke="#191970" d="M81.869,-232.0809C99.6189,-258.9684 133.9967,-305.9708 174,-334.5 176.0674,-335.9744 178.2378,-337.3741 180.4775,-338.7009"/>
<polygon fill="#191970" stroke="#191970" points="178.9193,-341.8366 189.3889,-343.4612 182.2175,-335.6623 178.9193,-341.8366"/>
</g>
<!-- Node613 -->
<g id="node4" class="node">
<title>Node613</title>
<g id="a_node4"><a xlink:href="structcimg__library__suffixed_1_1_c_img.html#adf90bc30dc08194ffb4024cbc3378db4" target="_top" xlink:title="Access to a pixel value, using Dirichlet boundary conditions. ">
<polygon fill="#ffffff" stroke="#000000" points="180.5,-294.5 180.5,-324.5 289.5,-324.5 289.5,-294.5 180.5,-294.5"/>
<text text-anchor="start" x="188.5" y="-312.5" font-family="Helvetica,sans-Serif" font-size="10.00" fill="#000000">cimg_library_suffixed</text>
<text text-anchor="middle" x="235" y="-301.5" font-family="Helvetica,sans-Serif" font-size="10.00" fill="#000000">::CImg::atXYZC</text>
</a>
</g>
</g>
<!-- Node610&#45;&gt;Node613 -->
<g id="edge3" class="edge">
<title>Node610&#45;&gt;Node613</title>
<path fill="none" stroke="#191970" d="M94.6234,-232.1895C115.2171,-248.1543 145.3385,-270.0508 174,-285.5 177.0476,-287.1427 180.2323,-288.734 183.4785,-290.2627"/>
<polygon fill="#191970" stroke="#191970" points="182.1692,-293.5112 192.727,-294.3966 185.0257,-287.1205 182.1692,-293.5112"/>
</g>
<!-- Node614 -->
<g id="node5" class="node">
<title>Node614</title>
<g id="a_node5"><a xlink:href="structcimg__library__suffixed_1_1_c_img.html#aa708d2050f866a341896aca528615d2d" target="_top" xlink:title="Return the number of image slices. ">
<polygon fill="#ffffff" stroke="#000000" points="180.5,-245.5 180.5,-275.5 289.5,-275.5 289.5,-245.5 180.5,-245.5"/>
<text text-anchor="start" x="188.5" y="-263.5" font-family="Helvetica,sans-Serif" font-size="10.00" fill="#000000">cimg_library_suffixed</text>
<text text-anchor="middle" x="235" y="-252.5" font-family="Helvetica,sans-Serif" font-size="10.00" fill="#000000">::CImg::depth</text>
</a>
</g>
</g>
<!-- Node610&#45;&gt;Node614 -->
<g id="edge4" class="edge">
<title>Node610&#45;&gt;Node614</title>
<path fill="none" stroke="#191970" d="M138.4371,-231.9965C150.3756,-235.5205 162.6988,-239.1581 174.3825,-242.6069"/>
<polygon fill="#191970" stroke="#191970" points="173.4422,-245.9786 184.024,-245.4529 175.424,-239.2649 173.4422,-245.9786"/>
</g>
<!-- Node615 -->
<g id="node6" class="node">
<title>Node615</title>
<g id="a_node6"><a xlink:href="structcimg__library__suffixed_1_1_c_img.html#a49834fd555c4a8362100bc628f1b03bb" target="_top" xlink:title="Return the number of image rows. ">
<polygon fill="#ffffff" stroke="#000000" points="180.5,-196.5 180.5,-226.5 289.5,-226.5 289.5,-196.5 180.5,-196.5"/>
<text text-anchor="start" x="188.5" y="-214.5" font-family="Helvetica,sans-Serif" font-size="10.00" fill="#000000">cimg_library_suffixed</text>
<text text-anchor="middle" x="235" y="-203.5" font-family="Helvetica,sans-Serif" font-size="10.00" fill="#000000">::CImg::height</text>
</a>
</g>
</g>
<!-- Node610&#45;&gt;Node615 -->
<g id="edge5" class="edge">
<title>Node610&#45;&gt;Node615</title>
<path fill="none" stroke="#191970" d="M138.4371,-211.5C148.9652,-211.5 159.7925,-211.5 170.2165,-211.5"/>
<polygon fill="#191970" stroke="#191970" points="170.4802,-215.0001 180.4802,-211.5 170.4801,-208.0001 170.4802,-215.0001"/>
</g>
<!-- Node616 -->
<g id="node7" class="node">
<title>Node616</title>
<g id="a_node7"><a xlink:href="structcimg__library__suffixed_1_1_c_img.html#ab3d037fa06cf54bec5b01ae1357298ea" target="_top" xlink:title="Return pixel value, using linear interpolation and Dirichlet boundary conditions for all X...">
<polygon fill="#ffffff" stroke="#000000" points="177,-147.5 177,-177.5 293,-177.5 293,-147.5 177,-147.5"/>
<text text-anchor="start" x="185" y="-165.5" font-family="Helvetica,sans-Serif" font-size="10.00" fill="#000000">cimg_library_suffixed</text>
<text text-anchor="middle" x="235" y="-154.5" font-family="Helvetica,sans-Serif" font-size="10.00" fill="#000000">::CImg::linear_atXYZC</text>
</a>
</g>
</g>
<!-- Node610&#45;&gt;Node616 -->
<g id="edge6" class="edge">
<title>Node610&#45;&gt;Node616</title>
<path fill="none" stroke="#191970" d="M138.4371,-191.0035C150.3756,-187.4795 162.6988,-183.8419 174.3825,-180.3931"/>
<polygon fill="#191970" stroke="#191970" points="175.424,-183.7351 184.024,-177.5471 173.4422,-177.0214 175.424,-183.7351"/>
</g>
<!-- Node617 -->
<g id="node8" class="node">
<title>Node617</title>
<g id="a_node8"><a xlink:href="namespacecimg__library__suffixed_1_1cimg.html#afcc02428c9b7d9100e1674369d25cc40" target="_top" xlink:title="Return the modulo of a value. ">
<polygon fill="#ffffff" stroke="#000000" points="180.5,-98.5 180.5,-128.5 289.5,-128.5 289.5,-98.5 180.5,-98.5"/>
<text text-anchor="start" x="188.5" y="-116.5" font-family="Helvetica,sans-Serif" font-size="10.00" fill="#000000">cimg_library_suffixed</text>
<text text-anchor="middle" x="235" y="-105.5" font-family="Helvetica,sans-Serif" font-size="10.00" fill="#000000">::cimg::mod</text>
</a>
</g>
</g>
<!-- Node610&#45;&gt;Node617 -->
<g id="edge7" class="edge">
<title>Node610&#45;&gt;Node617</title>
<path fill="none" stroke="#191970" d="M95.1529,-190.9056C115.7912,-175.2606 145.7211,-153.8843 174,-138.5 177.6759,-136.5002 181.5461,-134.5618 185.4801,-132.7078"/>
<polygon fill="#191970" stroke="#191970" points="187.035,-135.8461 194.7138,-128.5464 184.1588,-129.4643 187.035,-135.8461"/>
</g>
<!-- Node618 -->
<g id="node9" class="node">
<title>Node618</title>
<g id="a_node9"><a xlink:href="structcimg__library__suffixed_1_1_c_img.html#a03cdb8e4b45371862c65c3b5be7b697e" target="_top" xlink:title="Return the number of image channels. ">
<polygon fill="#ffffff" stroke="#000000" points="180.5,-49.5 180.5,-79.5 289.5,-79.5 289.5,-49.5 180.5,-49.5"/>
<text text-anchor="start" x="188.5" y="-67.5" font-family="Helvetica,sans-Serif" font-size="10.00" fill="#000000">cimg_library_suffixed</text>
<text text-anchor="middle" x="235" y="-56.5" font-family="Helvetica,sans-Serif" font-size="10.00" fill="#000000">::CImg::spectrum</text>
</a>
</g>
</g>
<!-- Node610&#45;&gt;Node618 -->
<g id="edge8" class="edge">
<title>Node610&#45;&gt;Node618</title>
<path fill="none" stroke="#191970" d="M82.2764,-190.7186C100.2231,-164.0754 134.5549,-117.9322 174,-89.5 176.5184,-87.6847 179.188,-85.9734 181.9485,-84.3645"/>
<polygon fill="#191970" stroke="#191970" points="183.8,-87.3445 191.0001,-79.5722 180.5247,-81.158 183.8,-87.3445"/>
</g>
<!-- Node619 -->
<g id="node10" class="node">
<title>Node619</title>
<g id="a_node10"><a xlink:href="structcimg__library__suffixed_1_1_c_img.html#a2d7b769d447c0451a2f43c77e997beff" target="_top" xlink:title="Return the number of image columns. ">
<polygon fill="#ffffff" stroke="#000000" points="180.5,-.5 180.5,-30.5 289.5,-30.5 289.5,-.5 180.5,-.5"/>
<text text-anchor="start" x="188.5" y="-18.5" font-family="Helvetica,sans-Serif" font-size="10.00" fill="#000000">cimg_library_suffixed</text>
<text text-anchor="middle" x="235" y="-7.5" font-family="Helvetica,sans-Serif" font-size="10.00" fill="#000000">::CImg::width</text>
</a>
</g>
</g>
<!-- Node610&#45;&gt;Node619 -->
<g id="edge9" class="edge">
<title>Node610&#45;&gt;Node619</title>
<path fill="none" stroke="#191970" d="M76.6147,-190.975C90.6863,-155.6418 123.9664,-83.0324 174,-40.5 175.9457,-38.846 178.0156,-37.2904 180.1733,-35.8287"/>
<polygon fill="#191970" stroke="#191970" points="182.062,-38.7774 188.8538,-30.6459 178.4735,-32.7672 182.062,-38.7774"/>
</g>
</g>
</svg>
