<?xml version="1.0" encoding="UTF-8" standalone="no"?>
<!DOCTYPE svg PUBLIC "-//W3C//DTD SVG 1.1//EN"
 "http://www.w3.org/Graphics/SVG/1.1/DTD/svg11.dtd">
<!-- Generated by graphviz version 2.40.1 (20161225.0304)
 -->
<!-- Title: cimg_library_suffixed::CImg::draw_image Pages: 1 -->
<svg width="291pt" height="659pt"
 viewBox="0.00 0.00 291.00 659.00" xmlns="http://www.w3.org/2000/svg" xmlns:xlink="http://www.w3.org/1999/xlink">
<g id="graph0" class="graph" transform="scale(1 1) rotate(0) translate(4 655)">
<title>cimg_library_suffixed::CImg::draw_image</title>
<polygon fill="#ffffff" stroke="transparent" points="-4,4 -4,-655 287,-655 287,4 -4,4"/>
<!-- Node984 -->
<g id="node1" class="node">
<title>Node984</title>
<polygon fill="#bfbfbf" stroke="#000000" points="0,-317.5 0,-347.5 109,-347.5 109,-317.5 0,-317.5"/>
<text text-anchor="start" x="8" y="-335.5" font-family="Helvetica,sans-Serif" font-size="10.00" fill="#000000">cimg_library_suffixed</text>
<text text-anchor="middle" x="54.5" y="-324.5" font-family="Helvetica,sans-Serif" font-size="10.00" fill="#000000">::CImg::draw_image</text>
</g>
<!-- Node985 -->
<g id="node2" class="node">
<title>Node985</title>
<g id="a_node2"><a xlink:href="structcimg__library__suffixed_1_1_c_img.html#ad9b7141242d0b6e861a8014112ddb5b5" target="_top" xlink:title="cimg_library_suffixed\l::CImg\&lt; charT \&gt;::_select">
<polygon fill="#ffffff" stroke="#000000" points="150.5,-620.5 150.5,-650.5 277.5,-650.5 277.5,-620.5 150.5,-620.5"/>
<text text-anchor="start" x="158.5" y="-638.5" font-family="Helvetica,sans-Serif" font-size="10.00" fill="#000000">cimg_library_suffixed</text>
<text text-anchor="middle" x="214" y="-627.5" font-family="Helvetica,sans-Serif" font-size="10.00" fill="#000000">::CImg&lt; charT &gt;::_select</text>
</a>
</g>
</g>
<!-- Node984&#45;&gt;Node985 -->
<g id="edge1" class="edge">
<title>Node984&#45;&gt;Node985</title>
<path fill="none" stroke="#191970" d="M55.5768,-357.8295C59.2169,-411.642 75.1613,-538.3259 145,-610.5 148.7212,-614.3457 153.0786,-617.6024 157.7634,-620.3599"/>
<polygon fill="#191970" stroke="#191970" points="59.0673,-357.5639 54.9861,-347.7868 52.0794,-357.9751 59.0673,-357.5639"/>
</g>
<!-- Node986 -->
<g id="node3" class="node">
<title>Node986</title>
<g id="a_node3"><a xlink:href="structcimg__library__suffixed_1_1_c_img_list.html#af8a6b01f20b2d459e5abe6b99836ea9a" target="_top" xlink:title="cimg_library_suffixed\l::CImgList\&lt; charT \&gt;::\l_select">
<polygon fill="#ffffff" stroke="#000000" points="158.5,-560 158.5,-601 269.5,-601 269.5,-560 158.5,-560"/>
<text text-anchor="start" x="166.5" y="-589" font-family="Helvetica,sans-Serif" font-size="10.00" fill="#000000">cimg_library_suffixed</text>
<text text-anchor="start" x="166.5" y="-578" font-family="Helvetica,sans-Serif" font-size="10.00" fill="#000000">::CImgList&lt; charT &gt;::</text>
<text text-anchor="middle" x="214" y="-567" font-family="Helvetica,sans-Serif" font-size="10.00" fill="#000000">_select</text>
</a>
</g>
</g>
<!-- Node984&#45;&gt;Node986 -->
<g id="edge2" class="edge">
<title>Node984&#45;&gt;Node986</title>
<path fill="none" stroke="#191970" d="M58.5783,-357.5367C67.0358,-401.9437 90.4487,-495.0333 145,-550.5 148.9385,-554.5046 153.5007,-558.0103 158.3659,-561.0718"/>
<polygon fill="#191970" stroke="#191970" points="62.0041,-356.8121 56.7822,-347.5935 55.1156,-358.0565 62.0041,-356.8121"/>
</g>
<!-- Node987 -->
<g id="node4" class="node">
<title>Node987</title>
<g id="a_node4"><a xlink:href="namespacecimg__library__suffixed_1_1cimg.html#a11aed0e6b30d75bf50946ee78d1aed94" target="_top" xlink:title="Display a simple dialog box, and wait for the user&#39;s response. ">
<polygon fill="#ffffff" stroke="#000000" points="159.5,-510.5 159.5,-540.5 268.5,-540.5 268.5,-510.5 159.5,-510.5"/>
<text text-anchor="start" x="167.5" y="-528.5" font-family="Helvetica,sans-Serif" font-size="10.00" fill="#000000">cimg_library_suffixed</text>
<text text-anchor="middle" x="214" y="-517.5" font-family="Helvetica,sans-Serif" font-size="10.00" fill="#000000">::cimg::dialog</text>
</a>
</g>
</g>
<!-- Node984&#45;&gt;Node987 -->
<g id="edge3" class="edge">
<title>Node984&#45;&gt;Node987</title>
<path fill="none" stroke="#191970" d="M61.7165,-357.6972C73.3945,-394.1488 99.8072,-461.4868 145,-500.5 149.4365,-504.3299 154.5065,-507.5906 159.8391,-510.363"/>
<polygon fill="#191970" stroke="#191970" points="64.9754,-356.3877 58.685,-347.8623 58.286,-358.4496 64.9754,-356.3877"/>
</g>
<!-- Node988 -->
<g id="node5" class="node">
<title>Node988</title>
<g id="a_node5"><a xlink:href="structcimg__library__suffixed_1_1_c_img_list.html#a0742de5c028207997d91cd6599262ef9" target="_top" xlink:title="Return a single image which is the appending of all images of the current CImgList instance...">
<polygon fill="#ffffff" stroke="#000000" points="158.5,-450 158.5,-491 269.5,-491 269.5,-450 158.5,-450"/>
<text text-anchor="start" x="166.5" y="-479" font-family="Helvetica,sans-Serif" font-size="10.00" fill="#000000">cimg_library_suffixed</text>
<text text-anchor="start" x="166.5" y="-468" font-family="Helvetica,sans-Serif" font-size="10.00" fill="#000000">::CImgList&lt; charT &gt;::</text>
<text text-anchor="middle" x="214" y="-457" font-family="Helvetica,sans-Serif" font-size="10.00" fill="#000000">get_append</text>
</a>
</g>
</g>
<!-- Node984&#45;&gt;Node988 -->
<g id="edge4" class="edge">
<title>Node984&#45;&gt;Node988</title>
<path fill="none" stroke="#191970" d="M69.4892,-356.1696C85.6578,-380.1121 113.3752,-416.8688 145,-440.5 149.6041,-443.9403 154.6638,-447.0843 159.8866,-449.9321"/>
<polygon fill="#191970" stroke="#191970" points="72.3081,-354.087 63.8738,-347.675 66.4687,-357.9472 72.3081,-354.087"/>
</g>
<!-- Node989 -->
<g id="node6" class="node">
<title>Node989</title>
<g id="a_node6"><a xlink:href="structcimg__library__suffixed_1_1_c_img.html#a611297a981e43c03a771fbc5d948f85a" target="_top" xlink:title="Crop image region . ">
<polygon fill="#ffffff" stroke="#000000" points="147.5,-400.5 147.5,-430.5 280.5,-430.5 280.5,-400.5 147.5,-400.5"/>
<text text-anchor="start" x="155.5" y="-418.5" font-family="Helvetica,sans-Serif" font-size="10.00" fill="#000000">cimg_library_suffixed</text>
<text text-anchor="middle" x="214" y="-407.5" font-family="Helvetica,sans-Serif" font-size="10.00" fill="#000000">::CImg&lt; charT &gt;::get_crop</text>
</a>
</g>
</g>
<!-- Node984&#45;&gt;Node989 -->
<g id="edge5" class="edge">
<title>Node984&#45;&gt;Node989</title>
<path fill="none" stroke="#191970" d="M83.795,-353.6402C101.0521,-365.4819 123.6276,-379.9437 145,-390.5 152.1969,-394.0547 160.0304,-397.3739 167.7513,-400.3582"/>
<polygon fill="#191970" stroke="#191970" points="85.4972,-350.5606 75.2899,-347.7211 81.4985,-356.3062 85.4972,-350.5606"/>
</g>
<!-- Node990 -->
<g id="node7" class="node">
<title>Node990</title>
<g id="a_node7"><a xlink:href="structcimg__library__suffixed_1_1_c_img.html#a158d3e9bd97132548046647db70e0fc5" target="_top" xlink:title="cimg_library_suffixed\l::CImg\&lt; charT \&gt;::get\l_discard">
<polygon fill="#ffffff" stroke="#000000" points="159.5,-340 159.5,-381 268.5,-381 268.5,-340 159.5,-340"/>
<text text-anchor="start" x="167.5" y="-369" font-family="Helvetica,sans-Serif" font-size="10.00" fill="#000000">cimg_library_suffixed</text>
<text text-anchor="start" x="167.5" y="-358" font-family="Helvetica,sans-Serif" font-size="10.00" fill="#000000">::CImg&lt; charT &gt;::get</text>
<text text-anchor="middle" x="214" y="-347" font-family="Helvetica,sans-Serif" font-size="10.00" fill="#000000">_discard</text>
</a>
</g>
</g>
<!-- Node984&#45;&gt;Node990 -->
<g id="edge6" class="edge">
<title>Node984&#45;&gt;Node990</title>
<path fill="none" stroke="#191970" d="M119.3814,-343.8898C132.6237,-346.2145 146.433,-348.6387 159.2783,-350.8937"/>
<polygon fill="#191970" stroke="#191970" points="119.8454,-340.4179 109.3909,-342.136 118.635,-347.3124 119.8454,-340.4179"/>
</g>
<!-- Node991 -->
<g id="node8" class="node">
<title>Node991</title>
<g id="a_node8"><a xlink:href="structcimg__library__suffixed_1_1_c_img.html#a35d89112cc5ff251f8b134209cd222f0" target="_top" xlink:title="Compute Haar multiscale wavelet transform . ">
<polygon fill="#ffffff" stroke="#000000" points="147.5,-290.5 147.5,-320.5 280.5,-320.5 280.5,-290.5 147.5,-290.5"/>
<text text-anchor="start" x="155.5" y="-308.5" font-family="Helvetica,sans-Serif" font-size="10.00" fill="#000000">cimg_library_suffixed</text>
<text text-anchor="middle" x="214" y="-297.5" font-family="Helvetica,sans-Serif" font-size="10.00" fill="#000000">::CImg&lt; charT &gt;::get_haar</text>
</a>
</g>
</g>
<!-- Node984&#45;&gt;Node991 -->
<g id="edge7" class="edge">
<title>Node984&#45;&gt;Node991</title>
<path fill="none" stroke="#191970" d="M119.3161,-321.528C128.5869,-319.9586 138.1369,-318.342 147.4405,-316.7671"/>
<polygon fill="#191970" stroke="#191970" points="118.6664,-318.0881 109.3909,-323.2081 119.8348,-324.9899 118.6664,-318.0881"/>
</g>
<!-- Node992 -->
<g id="node9" class="node">
<title>Node992</title>
<g id="a_node9"><a xlink:href="structcimg__library__suffixed_1_1_c_img.html#a1774ac5f65cb510394e8f04b2a8881e7" target="_top" xlink:title="Generate a 2d representation of a 3d image, with XY,XZ and YZ views. ">
<polygon fill="#ffffff" stroke="#000000" points="159.5,-230 159.5,-271 268.5,-271 268.5,-230 159.5,-230"/>
<text text-anchor="start" x="167.5" y="-259" font-family="Helvetica,sans-Serif" font-size="10.00" fill="#000000">cimg_library_suffixed</text>
<text text-anchor="start" x="167.5" y="-248" font-family="Helvetica,sans-Serif" font-size="10.00" fill="#000000">::CImg&lt; charT &gt;::get</text>
<text text-anchor="middle" x="214" y="-237" font-family="Helvetica,sans-Serif" font-size="10.00" fill="#000000">_projections2d</text>
</a>
</g>
</g>
<!-- Node984&#45;&gt;Node992 -->
<g id="edge8" class="edge">
<title>Node984&#45;&gt;Node992</title>
<path fill="none" stroke="#191970" d="M88.7899,-312.2045C105.5447,-302.5387 126.1201,-291.0361 145,-281.5 151.9161,-278.0067 159.3093,-274.477 166.5923,-271.1133"/>
<polygon fill="#191970" stroke="#191970" points="86.7997,-309.3128 79.9097,-317.3612 90.315,-315.3661 86.7997,-309.3128"/>
</g>
<!-- Node993 -->
<g id="node10" class="node">
<title>Node993</title>
<g id="a_node10"><a xlink:href="structcimg__library__suffixed_1_1_c_img.html#a1d9a664dfe01342505a5256db9078b31" target="_top" xlink:title="Resize image to new dimensions . ">
<polygon fill="#ffffff" stroke="#000000" points="159.5,-170 159.5,-211 268.5,-211 268.5,-170 159.5,-170"/>
<text text-anchor="start" x="167.5" y="-199" font-family="Helvetica,sans-Serif" font-size="10.00" fill="#000000">cimg_library_suffixed</text>
<text text-anchor="start" x="167.5" y="-188" font-family="Helvetica,sans-Serif" font-size="10.00" fill="#000000">::CImg&lt; charT &gt;::get</text>
<text text-anchor="middle" x="214" y="-177" font-family="Helvetica,sans-Serif" font-size="10.00" fill="#000000">_resize</text>
</a>
</g>
</g>
<!-- Node984&#45;&gt;Node993 -->
<g id="edge9" class="edge">
<title>Node984&#45;&gt;Node993</title>
<path fill="none" stroke="#191970" d="M68.8207,-308.661C84.7583,-283.8312 112.5801,-245.1791 145,-220.5 149.4693,-217.0979 154.3839,-213.9922 159.4681,-211.1794"/>
<polygon fill="#191970" stroke="#191970" points="65.8551,-306.8022 63.5001,-317.132 71.7828,-310.5254 65.8551,-306.8022"/>
</g>
<!-- Node994 -->
<g id="node11" class="node">
<title>Node994</title>
<g id="a_node11"><a xlink:href="structcimg__library__suffixed_1_1_c_img.html#a689f47424dc7c548ebfe53e431409199" target="_top" xlink:title="Select sub&#45;graph in a graph. ">
<polygon fill="#ffffff" stroke="#000000" points="159.5,-110 159.5,-151 268.5,-151 268.5,-110 159.5,-110"/>
<text text-anchor="start" x="167.5" y="-139" font-family="Helvetica,sans-Serif" font-size="10.00" fill="#000000">cimg_library_suffixed</text>
<text text-anchor="start" x="167.5" y="-128" font-family="Helvetica,sans-Serif" font-size="10.00" fill="#000000">::CImg&lt; charT &gt;::get</text>
<text text-anchor="middle" x="214" y="-117" font-family="Helvetica,sans-Serif" font-size="10.00" fill="#000000">_select_graph</text>
</a>
</g>
</g>
<!-- Node984&#45;&gt;Node994 -->
<g id="edge10" class="edge">
<title>Node984&#45;&gt;Node994</title>
<path fill="none" stroke="#191970" d="M61.882,-307.0789C73.7673,-270.2302 100.4368,-201.8722 145,-160.5 149.3078,-156.5007 154.2332,-152.9804 159.4259,-149.8943"/>
<polygon fill="#191970" stroke="#191970" points="58.4199,-306.4256 58.7915,-317.0139 65.104,-308.5048 58.4199,-306.4256"/>
</g>
<!-- Node995 -->
<g id="node12" class="node">
<title>Node995</title>
<g id="a_node12"><a xlink:href="structcimg__library__suffixed_1_1_c_img_1_1__cimg__math__parser.html#af3e8793d2e3b96587e73729f449a934e" target="_top" xlink:title="cimg_library_suffixed\l::CImg::_cimg_math_parser\l::mp_draw">
<polygon fill="#ffffff" stroke="#000000" points="145,-50 145,-91 283,-91 283,-50 145,-50"/>
<text text-anchor="start" x="153" y="-79" font-family="Helvetica,sans-Serif" font-size="10.00" fill="#000000">cimg_library_suffixed</text>
<text text-anchor="start" x="153" y="-68" font-family="Helvetica,sans-Serif" font-size="10.00" fill="#000000">::CImg::_cimg_math_parser</text>
<text text-anchor="middle" x="214" y="-57" font-family="Helvetica,sans-Serif" font-size="10.00" fill="#000000">::mp_draw</text>
</a>
</g>
</g>
<!-- Node984&#45;&gt;Node995 -->
<g id="edge11" class="edge">
<title>Node984&#45;&gt;Node995</title>
<path fill="none" stroke="#191970" d="M57.8898,-307.1988C65.3953,-260.5226 87.5444,-160.1932 145,-100.5 148.3516,-97.0178 152.1758,-93.9156 156.2659,-91.1561"/>
<polygon fill="#191970" stroke="#191970" points="54.3906,-306.9308 56.3564,-317.3417 61.312,-307.9772 54.3906,-306.9308"/>
</g>
<!-- Node996 -->
<g id="node13" class="node">
<title>Node996</title>
<g id="a_node13"><a xlink:href="structcimg__library__suffixed_1_1_c_img.html#a3c868d05056064840adec3b2e75f2c22" target="_top" xlink:title="Solve a system of linear equations. ">
<polygon fill="#ffffff" stroke="#000000" points="154.5,-.5 154.5,-30.5 273.5,-30.5 273.5,-.5 154.5,-.5"/>
<text text-anchor="start" x="162.5" y="-18.5" font-family="Helvetica,sans-Serif" font-size="10.00" fill="#000000">cimg_library_suffixed</text>
<text text-anchor="middle" x="214" y="-7.5" font-family="Helvetica,sans-Serif" font-size="10.00" fill="#000000">::CImg&lt; charT &gt;::solve</text>
</a>
</g>
</g>
<!-- Node984&#45;&gt;Node996 -->
<g id="edge12" class="edge">
<title>Node984&#45;&gt;Node996</title>
<path fill="none" stroke="#191970" d="M59.3487,-307.1607C71.9592,-243.6402 107.4246,-79.8867 145,-40.5 148.6939,-36.6281 153.0329,-33.3537 157.706,-30.585"/>
<polygon fill="#191970" stroke="#191970" points="55.8826,-306.6486 57.3936,-317.1351 62.7519,-307.9951 55.8826,-306.6486"/>
</g>
</g>
</svg>
