<?xml version="1.0" encoding="UTF-8" standalone="no"?>
<!DOCTYPE svg PUBLIC "-//W3C//DTD SVG 1.1//EN"
 "http://www.w3.org/Graphics/SVG/1.1/DTD/svg11.dtd">
<!-- Generated by graphviz version 2.40.1 (20161225.0304)
 -->
<!-- Title: cimg_library_suffixed::CImg::_functor3d_float::operator() Pages: 1 -->
<svg width="280pt" height="50pt"
 viewBox="0.00 0.00 280.00 50.00" xmlns="http://www.w3.org/2000/svg" xmlns:xlink="http://www.w3.org/1999/xlink">
<g id="graph0" class="graph" transform="scale(1 1) rotate(0) translate(4 46)">
<title>cimg_library_suffixed::CImg::_functor3d_float::operator()</title>
<polygon fill="#ffffff" stroke="transparent" points="-4,4 -4,-46 276,-46 276,4 -4,4"/>
<!-- Node2 -->
<g id="node1" class="node">
<title>Node2</title>
<polygon fill="#bfbfbf" stroke="#000000" points="0,-.5 0,-41.5 122,-41.5 122,-.5 0,-.5"/>
<text text-anchor="start" x="8" y="-29.5" font-family="Helvetica,sans-Serif" font-size="10.00" fill="#000000">cimg_library_suffixed</text>
<text text-anchor="start" x="8" y="-18.5" font-family="Helvetica,sans-Serif" font-size="10.00" fill="#000000">::CImg::_functor3d_float</text>
<text text-anchor="middle" x="61" y="-7.5" font-family="Helvetica,sans-Serif" font-size="10.00" fill="#000000">::operator()</text>
</g>
<!-- Node3 -->
<g id="node2" class="node">
<title>Node3</title>
<g id="a_node2"><a xlink:href="structcimg__library__suffixed_1_1_c_img.html#af62fae49d04ac84e14090602e2fc213a" target="_top" xlink:title="cimg_library_suffixed\l::CImg::_linear_atXYZ">
<polygon fill="#ffffff" stroke="#000000" points="158,-6 158,-36 272,-36 272,-6 158,-6"/>
<text text-anchor="start" x="166" y="-24" font-family="Helvetica,sans-Serif" font-size="10.00" fill="#000000">cimg_library_suffixed</text>
<text text-anchor="middle" x="215" y="-13" font-family="Helvetica,sans-Serif" font-size="10.00" fill="#000000">::CImg::_linear_atXYZ</text>
</a>
</g>
</g>
<!-- Node2&#45;&gt;Node3 -->
<g id="edge1" class="edge">
<title>Node2&#45;&gt;Node3</title>
<path fill="none" stroke="#191970" d="M122.3074,-21C130.6559,-21 139.2614,-21 147.7085,-21"/>
<polygon fill="#191970" stroke="#191970" points="147.9057,-24.5001 157.9057,-21 147.9057,-17.5001 147.9057,-24.5001"/>
</g>
</g>
</svg>
