<?xml version="1.0" encoding="UTF-8" standalone="no"?>
<!DOCTYPE svg PUBLIC "-//W3C//DTD SVG 1.1//EN"
 "http://www.w3.org/Graphics/SVG/1.1/DTD/svg11.dtd">
<!-- Generated by graphviz version 2.40.1 (20161225.0304)
 -->
<!-- Title: cimg_library_suffixed::cimg::type::min Pages: 1 -->
<svg width="458pt" height="259pt"
 viewBox="0.00 0.00 458.00 258.50" xmlns="http://www.w3.org/2000/svg" xmlns:xlink="http://www.w3.org/1999/xlink">
<g id="graph0" class="graph" transform="scale(1 1) rotate(0) translate(4 254.5)">
<title>cimg_library_suffixed::cimg::type::min</title>
<polygon fill="#ffffff" stroke="transparent" points="-4,4 -4,-254.5 454,-254.5 454,4 -4,4"/>
<!-- Node60 -->
<g id="node1" class="node">
<title>Node60</title>
<polygon fill="#bfbfbf" stroke="#000000" points="0,-131.5 0,-161.5 109,-161.5 109,-131.5 0,-131.5"/>
<text text-anchor="start" x="8" y="-149.5" font-family="Helvetica,sans-Serif" font-size="10.00" fill="#000000">cimg_library_suffixed</text>
<text text-anchor="middle" x="54.5" y="-138.5" font-family="Helvetica,sans-Serif" font-size="10.00" fill="#000000">::cimg::type::min</text>
</g>
<!-- Node61 -->
<g id="node2" class="node">
<title>Node61</title>
<g id="a_node2"><a xlink:href="structcimg__library__suffixed_1_1_c_img.html#a6dba86c8049ae141ffc9936b2eaf5c5c" target="_top" xlink:title="cimg_library_suffixed\l::CImg\&lt; charT \&gt;::_draw\l_object3d">
<polygon fill="#ffffff" stroke="#000000" points="150,-209 150,-250 272,-250 272,-209 150,-209"/>
<text text-anchor="start" x="158" y="-238" font-family="Helvetica,sans-Serif" font-size="10.00" fill="#000000">cimg_library_suffixed</text>
<text text-anchor="start" x="158" y="-227" font-family="Helvetica,sans-Serif" font-size="10.00" fill="#000000">::CImg&lt; charT &gt;::_draw</text>
<text text-anchor="middle" x="211" y="-216" font-family="Helvetica,sans-Serif" font-size="10.00" fill="#000000">_object3d</text>
</a>
</g>
</g>
<!-- Node60&#45;&gt;Node61 -->
<g id="edge1" class="edge">
<title>Node60&#45;&gt;Node61</title>
<path fill="none" stroke="#191970" d="M87.6419,-167.0157C104.5699,-177.2095 125.6319,-189.4608 145,-199.5 151.146,-202.6857 157.6976,-205.8873 164.1967,-208.9509"/>
<polygon fill="#191970" stroke="#191970" points="89.0649,-163.7854 78.6998,-161.5913 85.4344,-169.7703 89.0649,-163.7854"/>
</g>
<!-- Node62 -->
<g id="node3" class="node">
<title>Node62</title>
<g id="a_node3"><a xlink:href="structcimg__library__suffixed_1_1_c_img.html#a586dad073b70d17969b5a26912e36ecc" target="_top" xlink:title="Compute Euclidean distance function to a specified value. ">
<polygon fill="#ffffff" stroke="#000000" points="145,-159.5 145,-189.5 277,-189.5 277,-159.5 145,-159.5"/>
<text text-anchor="start" x="153" y="-177.5" font-family="Helvetica,sans-Serif" font-size="10.00" fill="#000000">cimg_library_suffixed</text>
<text text-anchor="middle" x="211" y="-166.5" font-family="Helvetica,sans-Serif" font-size="10.00" fill="#000000">::CImg&lt; charT &gt;::distance</text>
</a>
</g>
</g>
<!-- Node60&#45;&gt;Node62 -->
<g id="edge2" class="edge">
<title>Node60&#45;&gt;Node62</title>
<path fill="none" stroke="#191970" d="M119.1322,-158.0636C127.6711,-159.5913 136.4333,-161.159 144.9949,-162.6908"/>
<polygon fill="#191970" stroke="#191970" points="119.6962,-154.609 109.2361,-156.293 118.4634,-161.4996 119.6962,-154.609"/>
</g>
<!-- Node63 -->
<g id="node4" class="node">
<title>Node63</title>
<g id="a_node4"><a xlink:href="structcimg__library__suffixed_1_1_c_img.html#a66a723bf61125378577a3e99247ff8da" target="_top" xlink:title="Dilate image by a structuring element . ">
<polygon fill="#ffffff" stroke="#000000" points="156.5,-99 156.5,-140 265.5,-140 265.5,-99 156.5,-99"/>
<text text-anchor="start" x="164.5" y="-128" font-family="Helvetica,sans-Serif" font-size="10.00" fill="#000000">cimg_library_suffixed</text>
<text text-anchor="start" x="164.5" y="-117" font-family="Helvetica,sans-Serif" font-size="10.00" fill="#000000">::CImg&lt; charT &gt;::get</text>
<text text-anchor="middle" x="211" y="-106" font-family="Helvetica,sans-Serif" font-size="10.00" fill="#000000">_dilate</text>
</a>
</g>
</g>
<!-- Node60&#45;&gt;Node63 -->
<g id="edge3" class="edge">
<title>Node60&#45;&gt;Node63</title>
<path fill="none" stroke="#191970" d="M119.4043,-135.3025C131.6683,-133.1866 144.3829,-130.993 156.2948,-128.938"/>
<polygon fill="#191970" stroke="#191970" points="118.4955,-131.9075 109.2361,-137.0567 119.6856,-138.8056 118.4955,-131.9075"/>
</g>
<!-- Node64 -->
<g id="node5" class="node">
<title>Node64</title>
<g id="a_node5"><a xlink:href="structcimg__library__suffixed_1_1_c_img_display.html#a914ee0515249db301dc66275861a6b3e" target="_top" xlink:title="Take a snapshot of the associated window content. ">
<polygon fill="#ffffff" stroke="#000000" points="148.5,-49.5 148.5,-79.5 273.5,-79.5 273.5,-49.5 148.5,-49.5"/>
<text text-anchor="start" x="156.5" y="-67.5" font-family="Helvetica,sans-Serif" font-size="10.00" fill="#000000">cimg_library_suffixed</text>
<text text-anchor="middle" x="211" y="-56.5" font-family="Helvetica,sans-Serif" font-size="10.00" fill="#000000">::CImgDisplay::snapshot</text>
</a>
</g>
</g>
<!-- Node60&#45;&gt;Node64 -->
<g id="edge4" class="edge">
<title>Node60&#45;&gt;Node64</title>
<path fill="none" stroke="#191970" d="M84.248,-125.6425C101.4947,-114.0974 123.9106,-100.0034 145,-89.5 152.1291,-85.9494 159.8929,-82.5902 167.5094,-79.554"/>
<polygon fill="#191970" stroke="#191970" points="82.0472,-122.906 75.7347,-131.415 85.9757,-128.6998 82.0472,-122.906"/>
</g>
<!-- Node65 -->
<g id="node6" class="node">
<title>Node65</title>
<g id="a_node6"><a xlink:href="structcimg__library__suffixed_1_1_c_img.html#a668fe887682e7cbb469409842bb98cd2" target="_top" xlink:title="Construct image from a display window . ">
<polygon fill="#ffffff" stroke="#000000" points="319.5,-98.5 319.5,-128.5 443.5,-128.5 443.5,-98.5 319.5,-98.5"/>
<text text-anchor="start" x="327.5" y="-116.5" font-family="Helvetica,sans-Serif" font-size="10.00" fill="#000000">cimg_library_suffixed</text>
<text text-anchor="middle" x="381.5" y="-105.5" font-family="Helvetica,sans-Serif" font-size="10.00" fill="#000000">::CImg&lt; charT &gt;::assign</text>
</a>
</g>
</g>
<!-- Node64&#45;&gt;Node65 -->
<g id="edge5" class="edge">
<title>Node64&#45;&gt;Node65</title>
<path fill="none" stroke="#191970" d="M273.2641,-82.3941C291.6027,-87.6644 311.4751,-93.3755 329.1267,-98.4484"/>
<polygon fill="#191970" stroke="#191970" points="274.1246,-78.9998 263.5468,-79.6014 272.1911,-85.7275 274.1246,-78.9998"/>
</g>
<!-- Node66 -->
<g id="node7" class="node">
<title>Node66</title>
<g id="a_node7"><a xlink:href="structcimg__library__suffixed_1_1_c_img.html#a015159d8cee61c2f2316c3e128470a71" target="_top" xlink:title="Construct image from a display window. ">
<polygon fill="#ffffff" stroke="#000000" points="322,-49.5 322,-79.5 441,-79.5 441,-49.5 322,-49.5"/>
<text text-anchor="start" x="330" y="-67.5" font-family="Helvetica,sans-Serif" font-size="10.00" fill="#000000">cimg_library_suffixed</text>
<text text-anchor="middle" x="381.5" y="-56.5" font-family="Helvetica,sans-Serif" font-size="10.00" fill="#000000">::CImg&lt; charT &gt;::CImg</text>
</a>
</g>
</g>
<!-- Node64&#45;&gt;Node66 -->
<g id="edge6" class="edge">
<title>Node64&#45;&gt;Node66</title>
<path fill="none" stroke="#191970" d="M283.6306,-64.5C296.3687,-64.5 309.4911,-64.5 321.8262,-64.5"/>
<polygon fill="#191970" stroke="#191970" points="283.5198,-61.0001 273.5198,-64.5 283.5197,-68.0001 283.5198,-61.0001"/>
</g>
<!-- Node67 -->
<g id="node8" class="node">
<title>Node67</title>
<g id="a_node8"><a xlink:href="structcimg__library__suffixed_1_1_c_img.html#a75e18966d8e02a9cee85642038e30a08" target="_top" xlink:title="Copy the content of a display window to the current image instance. ">
<polygon fill="#ffffff" stroke="#000000" points="313,-.5 313,-30.5 450,-30.5 450,-.5 313,-.5"/>
<text text-anchor="start" x="321" y="-18.5" font-family="Helvetica,sans-Serif" font-size="10.00" fill="#000000">cimg_library_suffixed</text>
<text text-anchor="middle" x="381.5" y="-7.5" font-family="Helvetica,sans-Serif" font-size="10.00" fill="#000000">::CImg&lt; charT &gt;::operator=</text>
</a>
</g>
</g>
<!-- Node64&#45;&gt;Node67 -->
<g id="edge7" class="edge">
<title>Node64&#45;&gt;Node67</title>
<path fill="none" stroke="#191970" d="M273.2641,-46.6059C291.6027,-41.3356 311.4751,-35.6245 329.1267,-30.5516"/>
<polygon fill="#191970" stroke="#191970" points="272.1911,-43.2725 263.5468,-49.3986 274.1246,-50.0002 272.1911,-43.2725"/>
</g>
</g>
</svg>
