<?xml version="1.0" encoding="UTF-8" standalone="no"?>
<!DOCTYPE svg PUBLIC "-//W3C//DTD SVG 1.1//EN"
 "http://www.w3.org/Graphics/SVG/1.1/DTD/svg11.dtd">
<!-- Generated by graphviz version 2.40.1 (20161225.0304)
 -->
<!-- Title: cimg_library_suffixed::CImg::_cimg_math_parser::mp_tan Pages: 1 -->
<svg width="455pt" height="50pt"
 viewBox="0.00 0.00 455.00 50.00" xmlns="http://www.w3.org/2000/svg" xmlns:xlink="http://www.w3.org/1999/xlink">
<g id="graph0" class="graph" transform="scale(1 1) rotate(0) translate(4 46)">
<title>cimg_library_suffixed::CImg::_cimg_math_parser::mp_tan</title>
<polygon fill="#ffffff" stroke="transparent" points="-4,4 -4,-46 451,-46 451,4 -4,4"/>
<!-- Node1141 -->
<g id="node1" class="node">
<title>Node1141</title>
<polygon fill="#bfbfbf" stroke="#000000" points="0,-.5 0,-41.5 138,-41.5 138,-.5 0,-.5"/>
<text text-anchor="start" x="8" y="-29.5" font-family="Helvetica,sans-Serif" font-size="10.00" fill="#000000">cimg_library_suffixed</text>
<text text-anchor="start" x="8" y="-18.5" font-family="Helvetica,sans-Serif" font-size="10.00" fill="#000000">::CImg::_cimg_math_parser</text>
<text text-anchor="middle" x="69" y="-7.5" font-family="Helvetica,sans-Serif" font-size="10.00" fill="#000000">::mp_tan</text>
</g>
<!-- Node1142 -->
<g id="node2" class="node">
<title>Node1142</title>
<g id="a_node2"><a xlink:href="namespacecimg__library__suffixed.html#adf6af236b90c91a9d3ac434babe57b03" target="_top" xlink:title="cimg_library_suffixed::tan">
<polygon fill="#ffffff" stroke="#000000" points="174,-11.5 174,-30.5 302,-30.5 302,-11.5 174,-11.5"/>
<text text-anchor="middle" x="238" y="-18.5" font-family="Helvetica,sans-Serif" font-size="10.00" fill="#000000">cimg_library_suffixed::tan</text>
</a>
</g>
</g>
<!-- Node1141&#45;&gt;Node1142 -->
<g id="edge1" class="edge">
<title>Node1141&#45;&gt;Node1142</title>
<path fill="none" stroke="#191970" d="M138.2264,-21C146.5864,-21 155.1526,-21 163.5831,-21"/>
<polygon fill="#191970" stroke="#191970" points="163.7761,-24.5001 173.776,-21 163.776,-17.5001 163.7761,-24.5001"/>
</g>
<!-- Node1143 -->
<g id="node3" class="node">
<title>Node1143</title>
<g id="a_node3"><a xlink:href="structcimg__library__suffixed_1_1_c_img.html#a4fdd62196520ecebee0709361badba35" target="_top" xlink:title="Compute the tangent of each pixel value . ">
<polygon fill="#ffffff" stroke="#000000" points="338,-6 338,-36 447,-36 447,-6 338,-6"/>
<text text-anchor="start" x="346" y="-24" font-family="Helvetica,sans-Serif" font-size="10.00" fill="#000000">cimg_library_suffixed</text>
<text text-anchor="middle" x="392.5" y="-13" font-family="Helvetica,sans-Serif" font-size="10.00" fill="#000000">::CImg::get_tan</text>
</a>
</g>
</g>
<!-- Node1142&#45;&gt;Node1143 -->
<g id="edge2" class="edge">
<title>Node1142&#45;&gt;Node1143</title>
<path fill="none" stroke="#191970" d="M302.1797,-21C310.5495,-21 319.1301,-21 327.513,-21"/>
<polygon fill="#191970" stroke="#191970" points="327.6128,-24.5001 337.6128,-21 327.6127,-17.5001 327.6128,-24.5001"/>
</g>
</g>
</svg>
