<?xml version="1.0" encoding="UTF-8" standalone="no"?>
<!DOCTYPE svg PUBLIC "-//W3C//DTD SVG 1.1//EN"
 "http://www.w3.org/Graphics/SVG/1.1/DTD/svg11.dtd">
<!-- Generated by graphviz version 2.40.1 (20161225.0304)
 -->
<!-- Title: cimg_library_suffixed::CImgDisplay::flush Pages: 1 -->
<svg width="487pt" height="308pt"
 viewBox="0.00 0.00 487.00 308.00" xmlns="http://www.w3.org/2000/svg" xmlns:xlink="http://www.w3.org/1999/xlink">
<g id="graph0" class="graph" transform="scale(1 1) rotate(0) translate(4 304)">
<title>cimg_library_suffixed::CImgDisplay::flush</title>
<polygon fill="#ffffff" stroke="transparent" points="-4,4 -4,-304 483,-304 483,4 -4,4"/>
<!-- Node259 -->
<g id="node1" class="node">
<title>Node259</title>
<polygon fill="#bfbfbf" stroke="#000000" points="0,-159.5 0,-189.5 109,-189.5 109,-159.5 0,-159.5"/>
<text text-anchor="start" x="8" y="-177.5" font-family="Helvetica,sans-Serif" font-size="10.00" fill="#000000">cimg_library_suffixed</text>
<text text-anchor="middle" x="54.5" y="-166.5" font-family="Helvetica,sans-Serif" font-size="10.00" fill="#000000">::CImgDisplay::flush</text>
</g>
<!-- Node260 -->
<g id="node2" class="node">
<title>Node260</title>
<g id="a_node2"><a xlink:href="structcimg__library__suffixed_1_1_c_img.html#adf9d80c60e82b079056c31cb0fe61faf" target="_top" xlink:title="cimg_library_suffixed\l::CImg\&lt; charT \&gt;::_display">
<polygon fill="#ffffff" stroke="#000000" points="160,-269.5 160,-299.5 291,-299.5 291,-269.5 160,-269.5"/>
<text text-anchor="start" x="168" y="-287.5" font-family="Helvetica,sans-Serif" font-size="10.00" fill="#000000">cimg_library_suffixed</text>
<text text-anchor="middle" x="225.5" y="-276.5" font-family="Helvetica,sans-Serif" font-size="10.00" fill="#000000">::CImg&lt; charT &gt;::_display</text>
</a>
</g>
</g>
<!-- Node259&#45;&gt;Node260 -->
<g id="edge1" class="edge">
<title>Node259&#45;&gt;Node260</title>
<path fill="none" stroke="#191970" d="M73.3658,-197.2561C90.3131,-216.3527 116.8076,-243.0727 145,-259.5 151.575,-263.3312 158.8003,-266.6374 166.1405,-269.4739"/>
<polygon fill="#191970" stroke="#191970" points="75.9093,-194.8469 66.7102,-189.5908 70.6237,-199.4363 75.9093,-194.8469"/>
</g>
<!-- Node261 -->
<g id="node3" class="node">
<title>Node261</title>
<g id="a_node3"><a xlink:href="structcimg__library__suffixed_1_1_c_img_list.html#af514efa37d021bd02a95186531139a38" target="_top" xlink:title="cimg_library_suffixed\l::CImgList\&lt; charT \&gt;::\l_display">
<polygon fill="#ffffff" stroke="#000000" points="170,-209 170,-250 281,-250 281,-209 170,-209"/>
<text text-anchor="start" x="178" y="-238" font-family="Helvetica,sans-Serif" font-size="10.00" fill="#000000">cimg_library_suffixed</text>
<text text-anchor="start" x="178" y="-227" font-family="Helvetica,sans-Serif" font-size="10.00" fill="#000000">::CImgList&lt; charT &gt;::</text>
<text text-anchor="middle" x="225.5" y="-216" font-family="Helvetica,sans-Serif" font-size="10.00" fill="#000000">_display</text>
</a>
</g>
</g>
<!-- Node259&#45;&gt;Node261 -->
<g id="edge2" class="edge">
<title>Node259&#45;&gt;Node261</title>
<path fill="none" stroke="#191970" d="M110.8928,-192.638C129.7973,-198.7184 150.8575,-205.4922 169.7153,-211.5575"/>
<polygon fill="#191970" stroke="#191970" points="111.8179,-189.2591 101.2265,-189.529 109.6745,-195.9229 111.8179,-189.2591"/>
</g>
<!-- Node262 -->
<g id="node4" class="node">
<title>Node262</title>
<g id="a_node4"><a xlink:href="structcimg__library__suffixed_1_1_c_img.html#a39224c81542abc157318e64a6df11fdf" target="_top" xlink:title="cimg_library_suffixed\l::CImg\&lt; charT \&gt;::_display_graph">
<polygon fill="#ffffff" stroke="#000000" points="145,-159.5 145,-189.5 306,-189.5 306,-159.5 145,-159.5"/>
<text text-anchor="start" x="153" y="-177.5" font-family="Helvetica,sans-Serif" font-size="10.00" fill="#000000">cimg_library_suffixed</text>
<text text-anchor="middle" x="225.5" y="-166.5" font-family="Helvetica,sans-Serif" font-size="10.00" fill="#000000">::CImg&lt; charT &gt;::_display_graph</text>
</a>
</g>
</g>
<!-- Node259&#45;&gt;Node262 -->
<g id="edge3" class="edge">
<title>Node259&#45;&gt;Node262</title>
<path fill="none" stroke="#191970" d="M119.1827,-174.5C127.6049,-174.5 136.314,-174.5 144.9554,-174.5"/>
<polygon fill="#191970" stroke="#191970" points="119.0757,-171.0001 109.0756,-174.5 119.0756,-178.0001 119.0757,-171.0001"/>
</g>
<!-- Node263 -->
<g id="node5" class="node">
<title>Node263</title>
<g id="a_node5"><a xlink:href="structcimg__library__suffixed_1_1_c_img.html#a8b40db5a9818c3f961a90840b271de6c" target="_top" xlink:title="cimg_library_suffixed\l::CImg\&lt; charT \&gt;::_display\l_object3d">
<polygon fill="#ffffff" stroke="#000000" points="160,-99 160,-140 291,-140 291,-99 160,-99"/>
<text text-anchor="start" x="168" y="-128" font-family="Helvetica,sans-Serif" font-size="10.00" fill="#000000">cimg_library_suffixed</text>
<text text-anchor="start" x="168" y="-117" font-family="Helvetica,sans-Serif" font-size="10.00" fill="#000000">::CImg&lt; charT &gt;::_display</text>
<text text-anchor="middle" x="225.5" y="-106" font-family="Helvetica,sans-Serif" font-size="10.00" fill="#000000">_object3d</text>
</a>
</g>
</g>
<!-- Node259&#45;&gt;Node263 -->
<g id="edge4" class="edge">
<title>Node259&#45;&gt;Node263</title>
<path fill="none" stroke="#191970" d="M111.063,-156.3072C127.2246,-151.109 144.9501,-145.4078 161.5219,-140.0777"/>
<polygon fill="#191970" stroke="#191970" points="109.6745,-153.0771 101.2265,-159.471 111.8179,-159.7409 109.6745,-153.0771"/>
</g>
<!-- Node264 -->
<g id="node6" class="node">
<title>Node264</title>
<g id="a_node6"><a xlink:href="structcimg__library__suffixed_1_1_c_img_display.html#a914ee0515249db301dc66275861a6b3e" target="_top" xlink:title="Take a snapshot of the associated window content. ">
<polygon fill="#ffffff" stroke="#000000" points="163,-49.5 163,-79.5 288,-79.5 288,-49.5 163,-49.5"/>
<text text-anchor="start" x="171" y="-67.5" font-family="Helvetica,sans-Serif" font-size="10.00" fill="#000000">cimg_library_suffixed</text>
<text text-anchor="middle" x="225.5" y="-56.5" font-family="Helvetica,sans-Serif" font-size="10.00" fill="#000000">::CImgDisplay::snapshot</text>
</a>
</g>
</g>
<!-- Node259&#45;&gt;Node264 -->
<g id="edge5" class="edge">
<title>Node259&#45;&gt;Node264</title>
<path fill="none" stroke="#191970" d="M73.3658,-151.7439C90.3131,-132.6473 116.8076,-105.9273 145,-89.5 151.575,-85.6688 158.8003,-82.3626 166.1405,-79.5261"/>
<polygon fill="#191970" stroke="#191970" points="70.6237,-149.5637 66.7102,-159.4092 75.9093,-154.1531 70.6237,-149.5637"/>
</g>
<!-- Node265 -->
<g id="node7" class="node">
<title>Node265</title>
<g id="a_node7"><a xlink:href="structcimg__library__suffixed_1_1_c_img.html#a015159d8cee61c2f2316c3e128470a71" target="_top" xlink:title="Construct image from a display window. ">
<polygon fill="#ffffff" stroke="#000000" points="351,-98.5 351,-128.5 470,-128.5 470,-98.5 351,-98.5"/>
<text text-anchor="start" x="359" y="-116.5" font-family="Helvetica,sans-Serif" font-size="10.00" fill="#000000">cimg_library_suffixed</text>
<text text-anchor="middle" x="410.5" y="-105.5" font-family="Helvetica,sans-Serif" font-size="10.00" fill="#000000">::CImg&lt; charT &gt;::CImg</text>
</a>
</g>
</g>
<!-- Node264&#45;&gt;Node265 -->
<g id="edge6" class="edge">
<title>Node264&#45;&gt;Node265</title>
<path fill="none" stroke="#191970" d="M292.0354,-82.1229C312.2752,-87.4837 334.3198,-93.3225 353.844,-98.4938"/>
<polygon fill="#191970" stroke="#191970" points="292.8262,-78.7117 282.2633,-79.5346 291.0339,-85.4784 292.8262,-78.7117"/>
</g>
<!-- Node266 -->
<g id="node8" class="node">
<title>Node266</title>
<g id="a_node8"><a xlink:href="structcimg__library__suffixed_1_1_c_img.html#a668fe887682e7cbb469409842bb98cd2" target="_top" xlink:title="Construct image from a display window . ">
<polygon fill="#ffffff" stroke="#000000" points="348.5,-49.5 348.5,-79.5 472.5,-79.5 472.5,-49.5 348.5,-49.5"/>
<text text-anchor="start" x="356.5" y="-67.5" font-family="Helvetica,sans-Serif" font-size="10.00" fill="#000000">cimg_library_suffixed</text>
<text text-anchor="middle" x="410.5" y="-56.5" font-family="Helvetica,sans-Serif" font-size="10.00" fill="#000000">::CImg&lt; charT &gt;::assign</text>
</a>
</g>
</g>
<!-- Node264&#45;&gt;Node266 -->
<g id="edge7" class="edge">
<title>Node264&#45;&gt;Node266</title>
<path fill="none" stroke="#191970" d="M298.2856,-64.5C314.8069,-64.5 332.2081,-64.5 348.2462,-64.5"/>
<polygon fill="#191970" stroke="#191970" points="298.1326,-61.0001 288.1326,-64.5 298.1325,-68.0001 298.1326,-61.0001"/>
</g>
<!-- Node267 -->
<g id="node9" class="node">
<title>Node267</title>
<g id="a_node9"><a xlink:href="structcimg__library__suffixed_1_1_c_img.html#a75e18966d8e02a9cee85642038e30a08" target="_top" xlink:title="Copy the content of a display window to the current image instance. ">
<polygon fill="#ffffff" stroke="#000000" points="342,-.5 342,-30.5 479,-30.5 479,-.5 342,-.5"/>
<text text-anchor="start" x="350" y="-18.5" font-family="Helvetica,sans-Serif" font-size="10.00" fill="#000000">cimg_library_suffixed</text>
<text text-anchor="middle" x="410.5" y="-7.5" font-family="Helvetica,sans-Serif" font-size="10.00" fill="#000000">::CImg&lt; charT &gt;::operator=</text>
</a>
</g>
</g>
<!-- Node264&#45;&gt;Node267 -->
<g id="edge8" class="edge">
<title>Node264&#45;&gt;Node267</title>
<path fill="none" stroke="#191970" d="M292.0354,-46.8771C312.2752,-41.5163 334.3198,-35.6775 353.844,-30.5062"/>
<polygon fill="#191970" stroke="#191970" points="291.0339,-43.5216 282.2633,-49.4654 292.8262,-50.2883 291.0339,-43.5216"/>
</g>
</g>
</svg>
