<?xml version="1.0" encoding="UTF-8" standalone="no"?>
<!DOCTYPE svg PUBLIC "-//W3C//DTD SVG 1.1//EN"
 "http://www.w3.org/Graphics/SVG/1.1/DTD/svg11.dtd">
<!-- Generated by graphviz version 2.40.1 (20161225.0304)
 -->
<!-- Title: cimg_library_suffixed::CImg::_cimg_math_parser::mp_list_set_joff Pages: 1 -->
<svg width="291pt" height="137pt"
 viewBox="0.00 0.00 291.00 137.00" xmlns="http://www.w3.org/2000/svg" xmlns:xlink="http://www.w3.org/1999/xlink">
<g id="graph0" class="graph" transform="scale(1 1) rotate(0) translate(4 133)">
<title>cimg_library_suffixed::CImg::_cimg_math_parser::mp_list_set_joff</title>
<polygon fill="#ffffff" stroke="transparent" points="-4,4 -4,-133 287,-133 287,4 -4,4"/>
<!-- Node765 -->
<g id="node1" class="node">
<title>Node765</title>
<polygon fill="#bfbfbf" stroke="#000000" points="0,-44 0,-85 138,-85 138,-44 0,-44"/>
<text text-anchor="start" x="8" y="-73" font-family="Helvetica,sans-Serif" font-size="10.00" fill="#000000">cimg_library_suffixed</text>
<text text-anchor="start" x="8" y="-62" font-family="Helvetica,sans-Serif" font-size="10.00" fill="#000000">::CImg::_cimg_math_parser</text>
<text text-anchor="middle" x="69" y="-51" font-family="Helvetica,sans-Serif" font-size="10.00" fill="#000000">::mp_list_set_joff</text>
</g>
<!-- Node766 -->
<g id="node2" class="node">
<title>Node766</title>
<g id="a_node2"><a xlink:href="namespacecimg__library__suffixed_1_1cimg.html#afcc02428c9b7d9100e1674369d25cc40" target="_top" xlink:title="Return the modulo of a value. ">
<polygon fill="#ffffff" stroke="#000000" points="174,-98.5 174,-128.5 283,-128.5 283,-98.5 174,-98.5"/>
<text text-anchor="start" x="182" y="-116.5" font-family="Helvetica,sans-Serif" font-size="10.00" fill="#000000">cimg_library_suffixed</text>
<text text-anchor="middle" x="228.5" y="-105.5" font-family="Helvetica,sans-Serif" font-size="10.00" fill="#000000">::cimg::mod</text>
</a>
</g>
</g>
<!-- Node765&#45;&gt;Node766 -->
<g id="edge1" class="edge">
<title>Node765&#45;&gt;Node766</title>
<path fill="none" stroke="#191970" d="M136.1801,-85.1384C147.2612,-88.5426 158.6745,-92.0489 169.5349,-95.3853"/>
<polygon fill="#191970" stroke="#191970" points="168.741,-98.8028 179.328,-98.3939 170.7967,-92.1115 168.741,-98.8028"/>
</g>
<!-- Node767 -->
<g id="node3" class="node">
<title>Node767</title>
<g id="a_node3"><a xlink:href="structcimg__library__suffixed_1_1_c_img.html#a85e66b869e393fd4a81049d2cde9b3f7" target="_top" xlink:title="Return the offset to a located pixel value, with respect to the beginning of the pixel buffer...">
<polygon fill="#ffffff" stroke="#000000" points="174,-49.5 174,-79.5 283,-79.5 283,-49.5 174,-49.5"/>
<text text-anchor="start" x="182" y="-67.5" font-family="Helvetica,sans-Serif" font-size="10.00" fill="#000000">cimg_library_suffixed</text>
<text text-anchor="middle" x="228.5" y="-56.5" font-family="Helvetica,sans-Serif" font-size="10.00" fill="#000000">::CImg::offset</text>
</a>
</g>
</g>
<!-- Node765&#45;&gt;Node767 -->
<g id="edge2" class="edge">
<title>Node765&#45;&gt;Node767</title>
<path fill="none" stroke="#191970" d="M138.0314,-64.5C146.5309,-64.5 155.1959,-64.5 163.6306,-64.5"/>
<polygon fill="#191970" stroke="#191970" points="163.7783,-68.0001 173.7783,-64.5 163.7782,-61.0001 163.7783,-68.0001"/>
</g>
<!-- Node768 -->
<g id="node4" class="node">
<title>Node768</title>
<g id="a_node4"><a xlink:href="structcimg__library__suffixed_1_1_c_img.html#a4ba2e100802443474e3f453639ec8a5a" target="_top" xlink:title="Return the total number of pixel values. ">
<polygon fill="#ffffff" stroke="#000000" points="174,-.5 174,-30.5 283,-30.5 283,-.5 174,-.5"/>
<text text-anchor="start" x="182" y="-18.5" font-family="Helvetica,sans-Serif" font-size="10.00" fill="#000000">cimg_library_suffixed</text>
<text text-anchor="middle" x="228.5" y="-7.5" font-family="Helvetica,sans-Serif" font-size="10.00" fill="#000000">::CImg::size</text>
</a>
</g>
</g>
<!-- Node765&#45;&gt;Node768 -->
<g id="edge3" class="edge">
<title>Node765&#45;&gt;Node768</title>
<path fill="none" stroke="#191970" d="M136.1801,-43.8616C147.2612,-40.4574 158.6745,-36.9511 169.5349,-33.6147"/>
<polygon fill="#191970" stroke="#191970" points="170.7967,-36.8885 179.328,-30.6061 168.741,-30.1972 170.7967,-36.8885"/>
</g>
</g>
</svg>
