<?xml version="1.0" encoding="UTF-8" standalone="no"?>
<!DOCTYPE svg PUBLIC "-//W3C//DTD SVG 1.1//EN"
 "http://www.w3.org/Graphics/SVG/1.1/DTD/svg11.dtd">
<!-- Generated by graphviz version 2.40.1 (20161225.0304)
 -->
<!-- Title: cimg_library_suffixed::cimg::type&lt; double &gt;::nan Pages: 1 -->
<svg width="407pt" height="50pt"
 viewBox="0.00 0.00 407.00 50.00" xmlns="http://www.w3.org/2000/svg" xmlns:xlink="http://www.w3.org/1999/xlink">
<g id="graph0" class="graph" transform="scale(1 1) rotate(0) translate(4 46)">
<title>cimg_library_suffixed::cimg::type&lt; double &gt;::nan</title>
<polygon fill="#ffffff" stroke="transparent" points="-4,4 -4,-46 403,-46 403,4 -4,4"/>
<!-- Node24 -->
<g id="node1" class="node">
<title>Node24</title>
<polygon fill="#bfbfbf" stroke="#000000" points="0,-.5 0,-41.5 109,-41.5 109,-.5 0,-.5"/>
<text text-anchor="start" x="8" y="-29.5" font-family="Helvetica,sans-Serif" font-size="10.00" fill="#000000">cimg_library_suffixed</text>
<text text-anchor="start" x="8" y="-18.5" font-family="Helvetica,sans-Serif" font-size="10.00" fill="#000000">::cimg::type&lt; double</text>
<text text-anchor="middle" x="54.5" y="-7.5" font-family="Helvetica,sans-Serif" font-size="10.00" fill="#000000"> &gt;::nan</text>
</g>
<!-- Node25 -->
<g id="node2" class="node">
<title>Node25</title>
<g id="a_node2"><a xlink:href="namespacecimg__library__suffixed.html#a00d0fd9a21d8d5e8a9fa4033593e6acf" target="_top" xlink:title="cimg_library_suffixed\l::sqrt">
<polygon fill="#ffffff" stroke="#000000" points="145,-6 145,-36 254,-36 254,-6 145,-6"/>
<text text-anchor="start" x="153" y="-24" font-family="Helvetica,sans-Serif" font-size="10.00" fill="#000000">cimg_library_suffixed</text>
<text text-anchor="middle" x="199.5" y="-13" font-family="Helvetica,sans-Serif" font-size="10.00" fill="#000000">::sqrt</text>
</a>
</g>
</g>
<!-- Node24&#45;&gt;Node25 -->
<g id="edge1" class="edge">
<title>Node24&#45;&gt;Node25</title>
<path fill="none" stroke="#191970" d="M109.3183,-21C117.5286,-21 126.0611,-21 134.4586,-21"/>
<polygon fill="#191970" stroke="#191970" points="134.6042,-24.5001 144.6042,-21 134.6042,-17.5001 134.6042,-24.5001"/>
</g>
<!-- Node26 -->
<g id="node3" class="node">
<title>Node26</title>
<g id="a_node3"><a xlink:href="structcimg__library__suffixed_1_1_c_img.html#a550cfc014f80c68359d3b55a0d3803b9" target="_top" xlink:title="Compute the square root of each pixel value . ">
<polygon fill="#ffffff" stroke="#000000" points="290,-6 290,-36 399,-36 399,-6 290,-6"/>
<text text-anchor="start" x="298" y="-24" font-family="Helvetica,sans-Serif" font-size="10.00" fill="#000000">cimg_library_suffixed</text>
<text text-anchor="middle" x="344.5" y="-13" font-family="Helvetica,sans-Serif" font-size="10.00" fill="#000000">::CImg::get_sqrt</text>
</a>
</g>
</g>
<!-- Node25&#45;&gt;Node26 -->
<g id="edge2" class="edge">
<title>Node25&#45;&gt;Node26</title>
<path fill="none" stroke="#191970" d="M254.3183,-21C262.5286,-21 271.0611,-21 279.4586,-21"/>
<polygon fill="#191970" stroke="#191970" points="279.6042,-24.5001 289.6042,-21 279.6042,-17.5001 279.6042,-24.5001"/>
</g>
</g>
</svg>
