<?xml version="1.0" encoding="UTF-8" standalone="no"?>
<!DOCTYPE svg PUBLIC "-//W3C//DTD SVG 1.1//EN"
 "http://www.w3.org/Graphics/SVG/1.1/DTD/svg11.dtd">
<!-- Generated by graphviz version 2.40.1 (20161225.0304)
 -->
<!-- Title: cimg_library_suffixed::cimg::type&lt; unsigned char &gt;::format Pages: 1 -->
<svg width="414pt" height="137pt"
 viewBox="0.00 0.00 414.00 137.00" xmlns="http://www.w3.org/2000/svg" xmlns:xlink="http://www.w3.org/1999/xlink">
<g id="graph0" class="graph" transform="scale(1 1) rotate(0) translate(4 133)">
<title>cimg_library_suffixed::cimg::type&lt; unsigned char &gt;::format</title>
<polygon fill="#ffffff" stroke="transparent" points="-4,4 -4,-133 410,-133 410,4 -4,4"/>
<!-- Node6 -->
<g id="node1" class="node">
<title>Node6</title>
<polygon fill="#bfbfbf" stroke="#000000" points="0,-44 0,-85 116,-85 116,-44 0,-44"/>
<text text-anchor="start" x="8" y="-73" font-family="Helvetica,sans-Serif" font-size="10.00" fill="#000000">cimg_library_suffixed</text>
<text text-anchor="start" x="8" y="-62" font-family="Helvetica,sans-Serif" font-size="10.00" fill="#000000">::cimg::type&lt; unsigned</text>
<text text-anchor="middle" x="58" y="-51" font-family="Helvetica,sans-Serif" font-size="10.00" fill="#000000"> char &gt;::format</text>
</g>
<!-- Node7 -->
<g id="node2" class="node">
<title>Node7</title>
<g id="a_node2"><a xlink:href="namespacecimg__library__suffixed_1_1cimg.html#a60c895ccdb84e7ccdd884ff61bab29f0" target="_top" xlink:title="Cut (i.e. clamp) value in specified interval. ">
<polygon fill="#ffffff" stroke="#000000" points="152,-98.5 152,-128.5 261,-128.5 261,-98.5 152,-98.5"/>
<text text-anchor="start" x="160" y="-116.5" font-family="Helvetica,sans-Serif" font-size="10.00" fill="#000000">cimg_library_suffixed</text>
<text text-anchor="middle" x="206.5" y="-105.5" font-family="Helvetica,sans-Serif" font-size="10.00" fill="#000000">::cimg::cut</text>
</a>
</g>
</g>
<!-- Node6&#45;&gt;Node7 -->
<g id="edge1" class="edge">
<title>Node6&#45;&gt;Node7</title>
<path fill="none" stroke="#191970" d="M116.2649,-83.7255C127.703,-87.4996 139.6723,-91.4491 151.0163,-95.1922"/>
<polygon fill="#191970" stroke="#191970" points="150.202,-98.6091 160.7951,-98.4189 152.3955,-91.9616 150.202,-98.6091"/>
</g>
<!-- Node8 -->
<g id="node3" class="node">
<title>Node8</title>
<g id="a_node3"><a xlink:href="namespacecimg__library__suffixed_1_1cimg.html#aae5df5731fe5a367cec402071108c11c" target="_top" xlink:title="Return the maximum between three values. ">
<polygon fill="#ffffff" stroke="#000000" points="152,-49.5 152,-79.5 261,-79.5 261,-49.5 152,-49.5"/>
<text text-anchor="start" x="160" y="-67.5" font-family="Helvetica,sans-Serif" font-size="10.00" fill="#000000">cimg_library_suffixed</text>
<text text-anchor="middle" x="206.5" y="-56.5" font-family="Helvetica,sans-Serif" font-size="10.00" fill="#000000">::cimg::max</text>
</a>
</g>
</g>
<!-- Node6&#45;&gt;Node8 -->
<g id="edge2" class="edge">
<title>Node6&#45;&gt;Node8</title>
<path fill="none" stroke="#191970" d="M116.2649,-64.5C124.5835,-64.5 133.1831,-64.5 141.6188,-64.5"/>
<polygon fill="#191970" stroke="#191970" points="141.7973,-68.0001 151.7972,-64.5 141.7972,-61.0001 141.7973,-68.0001"/>
</g>
<!-- Node10 -->
<g id="node5" class="node">
<title>Node10</title>
<g id="a_node5"><a xlink:href="namespacecimg__library__suffixed_1_1cimg.html#a091c508a646a5459c00aa2b5ac9ea5e5" target="_top" xlink:title="Return the minimum between three values. ">
<polygon fill="#ffffff" stroke="#000000" points="152,-.5 152,-30.5 261,-30.5 261,-.5 152,-.5"/>
<text text-anchor="start" x="160" y="-18.5" font-family="Helvetica,sans-Serif" font-size="10.00" fill="#000000">cimg_library_suffixed</text>
<text text-anchor="middle" x="206.5" y="-7.5" font-family="Helvetica,sans-Serif" font-size="10.00" fill="#000000">::cimg::min</text>
</a>
</g>
</g>
<!-- Node6&#45;&gt;Node10 -->
<g id="edge4" class="edge">
<title>Node6&#45;&gt;Node10</title>
<path fill="none" stroke="#191970" d="M116.2649,-45.2745C127.703,-41.5004 139.6723,-37.5509 151.0163,-33.8078"/>
<polygon fill="#191970" stroke="#191970" points="152.3955,-37.0384 160.7951,-30.5811 150.202,-30.3909 152.3955,-37.0384"/>
</g>
<!-- Node9 -->
<g id="node4" class="node">
<title>Node9</title>
<g id="a_node4"><a xlink:href="namespacecimg__library__suffixed_1_1cimg.html#a4b4cabc621d732787bca13016ea8026a" target="_top" xlink:title="Return the maximum between four values. ">
<polygon fill="#ffffff" stroke="#000000" points="297,-49.5 297,-79.5 406,-79.5 406,-49.5 297,-49.5"/>
<text text-anchor="start" x="305" y="-67.5" font-family="Helvetica,sans-Serif" font-size="10.00" fill="#000000">cimg_library_suffixed</text>
<text text-anchor="middle" x="351.5" y="-56.5" font-family="Helvetica,sans-Serif" font-size="10.00" fill="#000000">::cimg::max</text>
</a>
</g>
</g>
<!-- Node8&#45;&gt;Node9 -->
<g id="edge3" class="edge">
<title>Node8&#45;&gt;Node9</title>
<path fill="none" stroke="#191970" d="M261.3183,-64.5C269.5286,-64.5 278.0611,-64.5 286.4586,-64.5"/>
<polygon fill="#191970" stroke="#191970" points="286.6042,-68.0001 296.6042,-64.5 286.6042,-61.0001 286.6042,-68.0001"/>
</g>
<!-- Node11 -->
<g id="node6" class="node">
<title>Node11</title>
<g id="a_node6"><a xlink:href="namespacecimg__library__suffixed_1_1cimg.html#ad5459593e7f8a4066cb22ad63de8e92d" target="_top" xlink:title="Return the minimum between four values. ">
<polygon fill="#ffffff" stroke="#000000" points="297,-.5 297,-30.5 406,-30.5 406,-.5 297,-.5"/>
<text text-anchor="start" x="305" y="-18.5" font-family="Helvetica,sans-Serif" font-size="10.00" fill="#000000">cimg_library_suffixed</text>
<text text-anchor="middle" x="351.5" y="-7.5" font-family="Helvetica,sans-Serif" font-size="10.00" fill="#000000">::cimg::min</text>
</a>
</g>
</g>
<!-- Node10&#45;&gt;Node11 -->
<g id="edge5" class="edge">
<title>Node10&#45;&gt;Node11</title>
<path fill="none" stroke="#191970" d="M261.3183,-15.5C269.5286,-15.5 278.0611,-15.5 286.4586,-15.5"/>
<polygon fill="#191970" stroke="#191970" points="286.6042,-19.0001 296.6042,-15.5 286.6042,-12.0001 286.6042,-19.0001"/>
</g>
</g>
</svg>
