<?xml version="1.0" encoding="UTF-8" standalone="no"?>
<!DOCTYPE svg PUBLIC "-//W3C//DTD SVG 1.1//EN"
 "http://www.w3.org/Graphics/SVG/1.1/DTD/svg11.dtd">
<!-- Generated by graphviz version 2.40.1 (20161225.0304)
 -->
<!-- Title: cimg_library_suffixed::CImg::variance Pages: 1 -->
<svg width="314pt" height="39pt"
 viewBox="0.00 0.00 314.00 39.00" xmlns="http://www.w3.org/2000/svg" xmlns:xlink="http://www.w3.org/1999/xlink">
<g id="graph0" class="graph" transform="scale(1 1) rotate(0) translate(4 35)">
<title>cimg_library_suffixed::CImg::variance</title>
<polygon fill="#ffffff" stroke="transparent" points="-4,4 -4,-35 310,-35 310,4 -4,4"/>
<!-- Node3376 -->
<g id="node1" class="node">
<title>Node3376</title>
<polygon fill="#bfbfbf" stroke="#000000" points="0,-.5 0,-30.5 109,-30.5 109,-.5 0,-.5"/>
<text text-anchor="start" x="8" y="-18.5" font-family="Helvetica,sans-Serif" font-size="10.00" fill="#000000">cimg_library_suffixed</text>
<text text-anchor="middle" x="54.5" y="-7.5" font-family="Helvetica,sans-Serif" font-size="10.00" fill="#000000">::CImg::variance</text>
</g>
<!-- Node3377 -->
<g id="node2" class="node">
<title>Node3377</title>
<g id="a_node2"><a xlink:href="structcimg__library__suffixed_1_1_c_img.html#aaaec686e2fcdf62ca8f792013da04563" target="_top" xlink:title="Return estimated variance of the noise. ">
<polygon fill="#ffffff" stroke="#000000" points="145,-.5 145,-30.5 306,-30.5 306,-.5 145,-.5"/>
<text text-anchor="start" x="153" y="-18.5" font-family="Helvetica,sans-Serif" font-size="10.00" fill="#000000">cimg_library_suffixed</text>
<text text-anchor="middle" x="225.5" y="-7.5" font-family="Helvetica,sans-Serif" font-size="10.00" fill="#000000">::CImg&lt; charT &gt;::variance_noise</text>
</a>
</g>
</g>
<!-- Node3376&#45;&gt;Node3377 -->
<g id="edge1" class="edge">
<title>Node3376&#45;&gt;Node3377</title>
<path fill="none" stroke="#191970" d="M119.1827,-15.5C127.6049,-15.5 136.314,-15.5 144.9554,-15.5"/>
<polygon fill="#191970" stroke="#191970" points="119.0757,-12.0001 109.0756,-15.5 119.0756,-19.0001 119.0757,-12.0001"/>
</g>
</g>
</svg>
