<?xml version="1.0" encoding="UTF-8" standalone="no"?>
<!DOCTYPE svg PUBLIC "-//W3C//DTD SVG 1.1//EN"
 "http://www.w3.org/Graphics/SVG/1.1/DTD/svg11.dtd">
<!-- Generated by graphviz version 2.40.1 (20161225.0304)
 -->
<!-- Title: cimg_library_suffixed::CImg::matrix Pages: 1 -->
<svg width="281pt" height="110pt"
 viewBox="0.00 0.00 281.00 110.00" xmlns="http://www.w3.org/2000/svg" xmlns:xlink="http://www.w3.org/1999/xlink">
<g id="graph0" class="graph" transform="scale(1 1) rotate(0) translate(4 106)">
<title>cimg_library_suffixed::CImg::matrix</title>
<polygon fill="#ffffff" stroke="transparent" points="-4,4 -4,-106 277,-106 277,4 -4,4"/>
<!-- Node2463 -->
<g id="node1" class="node">
<title>Node2463</title>
<polygon fill="#bfbfbf" stroke="#000000" points="0,-36 0,-66 109,-66 109,-36 0,-36"/>
<text text-anchor="start" x="8" y="-54" font-family="Helvetica,sans-Serif" font-size="10.00" fill="#000000">cimg_library_suffixed</text>
<text text-anchor="middle" x="54.5" y="-43" font-family="Helvetica,sans-Serif" font-size="10.00" fill="#000000">::CImg::matrix</text>
</g>
<!-- Node2464 -->
<g id="node2" class="node">
<title>Node2464</title>
<g id="a_node2"><a xlink:href="structcimg__library__suffixed_1_1_c_img.html#ab785a9eaeb7545d46e8c355567a325a4" target="_top" xlink:title="Resize image to become a scalar square matrix . ">
<polygon fill="#ffffff" stroke="#000000" points="154.5,-60.5 154.5,-101.5 263.5,-101.5 263.5,-60.5 154.5,-60.5"/>
<text text-anchor="start" x="162.5" y="-89.5" font-family="Helvetica,sans-Serif" font-size="10.00" fill="#000000">cimg_library_suffixed</text>
<text text-anchor="start" x="162.5" y="-78.5" font-family="Helvetica,sans-Serif" font-size="10.00" fill="#000000">::CImg&lt; charT &gt;::get</text>
<text text-anchor="middle" x="209" y="-67.5" font-family="Helvetica,sans-Serif" font-size="10.00" fill="#000000">_matrix</text>
</a>
</g>
</g>
<!-- Node2463&#45;&gt;Node2464 -->
<g id="edge1" class="edge">
<title>Node2463&#45;&gt;Node2464</title>
<path fill="none" stroke="#191970" d="M119.4615,-63.6139C131.0456,-65.8632 143.0082,-68.1861 154.2709,-70.373"/>
<polygon fill="#191970" stroke="#191970" points="119.8898,-60.1317 109.4059,-61.6613 118.5554,-67.0034 119.8898,-60.1317"/>
</g>
<!-- Node2465 -->
<g id="node3" class="node">
<title>Node2465</title>
<g id="a_node3"><a xlink:href="structcimg__library__suffixed_1_1_c_img.html#a18ba2075fe783f6b185de03695bd625f" target="_top" xlink:title="Return a 3x3 rotation matrix from an { axis + angle } or a quaternion. ">
<polygon fill="#ffffff" stroke="#000000" points="145,-.5 145,-41.5 273,-41.5 273,-.5 145,-.5"/>
<text text-anchor="start" x="153" y="-29.5" font-family="Helvetica,sans-Serif" font-size="10.00" fill="#000000">cimg_library_suffixed</text>
<text text-anchor="start" x="153" y="-18.5" font-family="Helvetica,sans-Serif" font-size="10.00" fill="#000000">::CImg&lt; charT &gt;::rotation</text>
<text text-anchor="middle" x="209" y="-7.5" font-family="Helvetica,sans-Serif" font-size="10.00" fill="#000000">_matrix</text>
</a>
</g>
</g>
<!-- Node2463&#45;&gt;Node2465 -->
<g id="edge2" class="edge">
<title>Node2463&#45;&gt;Node2465</title>
<path fill="none" stroke="#191970" d="M119.4865,-38.3813C127.8533,-36.7566 136.417,-35.0938 144.7714,-33.4716"/>
<polygon fill="#191970" stroke="#191970" points="118.5554,-34.9966 109.4059,-40.3387 119.8898,-41.8683 118.5554,-34.9966"/>
</g>
</g>
</svg>
