<?xml version="1.0" encoding="UTF-8" standalone="no"?>
<!DOCTYPE svg PUBLIC "-//W3C//DTD SVG 1.1//EN"
 "http://www.w3.org/Graphics/SVG/1.1/DTD/svg11.dtd">
<!-- Generated by graphviz version 2.40.1 (20161225.0304)
 -->
<!-- Title: cimg_library_suffixed::CImg::depth Pages: 1 -->
<svg width="312pt" height="2169pt"
 viewBox="0.00 0.00 312.00 2168.50" xmlns="http://www.w3.org/2000/svg" xmlns:xlink="http://www.w3.org/1999/xlink">
<g id="graph0" class="graph" transform="scale(1 1) rotate(0) translate(4 2164.5)">
<title>cimg_library_suffixed::CImg::depth</title>
<polygon fill="#ffffff" stroke="transparent" points="-4,4 -4,-2164.5 308,-2164.5 308,4 -4,4"/>
<!-- Node801 -->
<g id="node1" class="node">
<title>Node801</title>
<polygon fill="#bfbfbf" stroke="#000000" points="0,-1086 0,-1116 109,-1116 109,-1086 0,-1086"/>
<text text-anchor="start" x="8" y="-1104" font-family="Helvetica,sans-Serif" font-size="10.00" fill="#000000">cimg_library_suffixed</text>
<text text-anchor="middle" x="54.5" y="-1093" font-family="Helvetica,sans-Serif" font-size="10.00" fill="#000000">::CImg::depth</text>
</g>
<!-- Node802 -->
<g id="node2" class="node">
<title>Node802</title>
<g id="a_node2"><a xlink:href="structcimg__library__suffixed_1_1_c_img.html#aed98b23130078df5ad69b199d88bb261" target="_top" xlink:title="Correlate image by a kernel . ">
<polygon fill="#ffffff" stroke="#000000" points="155.5,-2130 155.5,-2160 293.5,-2160 293.5,-2130 155.5,-2130"/>
<text text-anchor="start" x="163.5" y="-2148" font-family="Helvetica,sans-Serif" font-size="10.00" fill="#000000">cimg_library_suffixed</text>
<text text-anchor="middle" x="224.5" y="-2137" font-family="Helvetica,sans-Serif" font-size="10.00" fill="#000000">::CImg&lt; charT &gt;::_correlate</text>
</a>
</g>
</g>
<!-- Node801&#45;&gt;Node802 -->
<g id="edge1" class="edge">
<title>Node801&#45;&gt;Node802</title>
<path fill="none" stroke="#191970" d="M55.0681,-1126.0623C58.6621,-1275.137 80.2086,-2041.3764 145,-2121 148.0029,-2124.6903 151.5526,-2127.828 155.4583,-2130.4943"/>
<polygon fill="#191970" stroke="#191970" points="58.5669,-1125.965 54.8316,-1116.0504 51.5688,-1126.1303 58.5669,-1125.965"/>
</g>
<!-- Node803 -->
<g id="node3" class="node">
<title>Node803</title>
<g id="a_node3"><a xlink:href="structcimg__library__suffixed_1_1_c_img.html#a421343970ecbb9ca4e25f3d40b495be7" target="_top" xlink:title="cimg_library_suffixed\l::CImg\&lt; charT \&gt;::_patchmatch">
<polygon fill="#ffffff" stroke="#000000" points="148.5,-2081 148.5,-2111 300.5,-2111 300.5,-2081 148.5,-2081"/>
<text text-anchor="start" x="156.5" y="-2099" font-family="Helvetica,sans-Serif" font-size="10.00" fill="#000000">cimg_library_suffixed</text>
<text text-anchor="middle" x="224.5" y="-2088" font-family="Helvetica,sans-Serif" font-size="10.00" fill="#000000">::CImg&lt; charT &gt;::_patchmatch</text>
</a>
</g>
</g>
<!-- Node801&#45;&gt;Node803 -->
<g id="edge2" class="edge">
<title>Node801&#45;&gt;Node803</title>
<path fill="none" stroke="#191970" d="M55.2055,-1126.1664C59.4812,-1271.079 83.8138,-1995.2708 145,-2071 148.0916,-2074.8264 151.7643,-2078.0774 155.8092,-2080.8383"/>
<polygon fill="#191970" stroke="#191970" points="58.7004,-1125.936 54.9118,-1116.0417 51.7033,-1126.139 58.7004,-1125.936"/>
</g>
<!-- Node804 -->
<g id="node4" class="node">
<title>Node804</title>
<g id="a_node4"><a xlink:href="structcimg__library__suffixed_1_1_c_img_list.html#ad2488203cbf2fddba82666454ea7c90b" target="_top" xlink:title="Test if list contains one particular pixel location. ">
<polygon fill="#ffffff" stroke="#000000" points="169,-2020.5 169,-2061.5 280,-2061.5 280,-2020.5 169,-2020.5"/>
<text text-anchor="start" x="177" y="-2049.5" font-family="Helvetica,sans-Serif" font-size="10.00" fill="#000000">cimg_library_suffixed</text>
<text text-anchor="start" x="177" y="-2038.5" font-family="Helvetica,sans-Serif" font-size="10.00" fill="#000000">::CImgList&lt; charT &gt;::</text>
<text text-anchor="middle" x="224.5" y="-2027.5" font-family="Helvetica,sans-Serif" font-size="10.00" fill="#000000">containsNXYZC</text>
</a>
</g>
</g>
<!-- Node801&#45;&gt;Node804 -->
<g id="edge3" class="edge">
<title>Node801&#45;&gt;Node804</title>
<path fill="none" stroke="#191970" d="M55.4405,-1126.2927C60.8379,-1265.9161 89.5944,-1938.8005 145,-2011 151.1071,-2018.9582 159.579,-2024.8053 168.7286,-2029.1013"/>
<polygon fill="#191970" stroke="#191970" points="58.9321,-1126.0043 55.0533,-1116.145 51.9372,-1126.2712 58.9321,-1126.0043"/>
</g>
<!-- Node805 -->
<g id="node5" class="node">
<title>Node805</title>
<g id="a_node5"><a xlink:href="structcimg__library__suffixed_1_1_c_img.html#a4dfe9a9fb78df031a5750e7898af3d9e" target="_top" xlink:title="Draw an image. ">
<polygon fill="#ffffff" stroke="#000000" points="150.5,-1971 150.5,-2001 298.5,-2001 298.5,-1971 150.5,-1971"/>
<text text-anchor="start" x="158.5" y="-1989" font-family="Helvetica,sans-Serif" font-size="10.00" fill="#000000">cimg_library_suffixed</text>
<text text-anchor="middle" x="224.5" y="-1978" font-family="Helvetica,sans-Serif" font-size="10.00" fill="#000000">::CImg&lt; charT &gt;::draw_image</text>
</a>
</g>
</g>
<!-- Node801&#45;&gt;Node805 -->
<g id="edge4" class="edge">
<title>Node801&#45;&gt;Node805</title>
<path fill="none" stroke="#191970" d="M55.5236,-1126.2098C61.2157,-1261.1671 90.6911,-1894.5892 145,-1961 148.1141,-1964.8081 151.8034,-1968.0456 155.8601,-1970.797"/>
<polygon fill="#191970" stroke="#191970" points="59.0129,-1125.8791 55.0999,-1116.0334 52.019,-1126.1703 59.0129,-1125.8791"/>
</g>
<!-- Node806 -->
<g id="node6" class="node">
<title>Node806</title>
<g id="a_node6"><a xlink:href="structcimg__library__suffixed_1_1_c_img.html#a66a723bf61125378577a3e99247ff8da" target="_top" xlink:title="Dilate image by a structuring element . ">
<polygon fill="#ffffff" stroke="#000000" points="170,-1910.5 170,-1951.5 279,-1951.5 279,-1910.5 170,-1910.5"/>
<text text-anchor="start" x="178" y="-1939.5" font-family="Helvetica,sans-Serif" font-size="10.00" fill="#000000">cimg_library_suffixed</text>
<text text-anchor="start" x="178" y="-1928.5" font-family="Helvetica,sans-Serif" font-size="10.00" fill="#000000">::CImg&lt; charT &gt;::get</text>
<text text-anchor="middle" x="224.5" y="-1917.5" font-family="Helvetica,sans-Serif" font-size="10.00" fill="#000000">_dilate</text>
</a>
</g>
</g>
<!-- Node801&#45;&gt;Node806 -->
<g id="edge5" class="edge">
<title>Node801&#45;&gt;Node806</title>
<path fill="none" stroke="#191970" d="M55.8114,-1126.4215C62.6955,-1255.8913 96.2046,-1838.2966 145,-1901 151.342,-1909.1496 160.1597,-1915.0854 169.6251,-1919.4088"/>
<polygon fill="#191970" stroke="#191970" points="59.2985,-1126.0816 55.2776,-1116.2794 52.3081,-1126.4496 59.2985,-1126.0816"/>
</g>
<!-- Node807 -->
<g id="node7" class="node">
<title>Node807</title>
<g id="a_node7"><a xlink:href="structcimg__library__suffixed_1_1_c_img.html#a91ec1cd09114c4018a78e4ea0b2df386" target="_top" xlink:title="Estimate displacement field between two images . ">
<polygon fill="#ffffff" stroke="#000000" points="170,-1850.5 170,-1891.5 279,-1891.5 279,-1850.5 170,-1850.5"/>
<text text-anchor="start" x="178" y="-1879.5" font-family="Helvetica,sans-Serif" font-size="10.00" fill="#000000">cimg_library_suffixed</text>
<text text-anchor="start" x="178" y="-1868.5" font-family="Helvetica,sans-Serif" font-size="10.00" fill="#000000">::CImg&lt; charT &gt;::get</text>
<text text-anchor="middle" x="224.5" y="-1857.5" font-family="Helvetica,sans-Serif" font-size="10.00" fill="#000000">_displacement</text>
</a>
</g>
</g>
<!-- Node801&#45;&gt;Node807 -->
<g id="edge6" class="edge">
<title>Node801&#45;&gt;Node807</title>
<path fill="none" stroke="#191970" d="M56.0567,-1126.4261C63.821,-1249.9067 99.7907,-1783.4439 145,-1841 151.3788,-1849.1208 160.2132,-1855.0436 169.6834,-1859.3632"/>
<polygon fill="#191970" stroke="#191970" points="59.5277,-1125.8503 55.4126,-1116.0873 52.5412,-1126.2856 59.5277,-1125.8503"/>
</g>
<!-- Node808 -->
<g id="node8" class="node">
<title>Node808</title>
<g id="a_node8"><a xlink:href="structcimg__library__suffixed_1_1_c_img.html#aad353fc91b0c6ef3c0251f4f46a96150" target="_top" xlink:title="Erode image by a structuring element . ">
<polygon fill="#ffffff" stroke="#000000" points="155.5,-1801 155.5,-1831 293.5,-1831 293.5,-1801 155.5,-1801"/>
<text text-anchor="start" x="163.5" y="-1819" font-family="Helvetica,sans-Serif" font-size="10.00" fill="#000000">cimg_library_suffixed</text>
<text text-anchor="middle" x="224.5" y="-1808" font-family="Helvetica,sans-Serif" font-size="10.00" fill="#000000">::CImg&lt; charT &gt;::get_erode</text>
</a>
</g>
</g>
<!-- Node801&#45;&gt;Node808 -->
<g id="edge7" class="edge">
<title>Node801&#45;&gt;Node808</title>
<path fill="none" stroke="#191970" d="M56.212,-1126.2435C64.4329,-1244.3558 101.2636,-1738.8914 145,-1791 148.2556,-1794.8788 152.107,-1798.1642 156.3304,-1800.9461"/>
<polygon fill="#191970" stroke="#191970" points="59.6865,-1125.7513 55.5065,-1116.0159 52.7031,-1126.2331 59.6865,-1125.7513"/>
</g>
<!-- Node809 -->
<g id="node9" class="node">
<title>Node809</title>
<g id="a_node9"><a xlink:href="structcimg__library__suffixed_1_1_c_img_1_1__cimg__math__parser.html#a0919179dddc84ef36a1c5c54a99c7298" target="_top" xlink:title="cimg_library_suffixed\l::CImg::_cimg_math_parser\l::mp_image_d">
<polygon fill="#ffffff" stroke="#000000" points="155.5,-1740.5 155.5,-1781.5 293.5,-1781.5 293.5,-1740.5 155.5,-1740.5"/>
<text text-anchor="start" x="163.5" y="-1769.5" font-family="Helvetica,sans-Serif" font-size="10.00" fill="#000000">cimg_library_suffixed</text>
<text text-anchor="start" x="163.5" y="-1758.5" font-family="Helvetica,sans-Serif" font-size="10.00" fill="#000000">::CImg::_cimg_math_parser</text>
<text text-anchor="middle" x="224.5" y="-1747.5" font-family="Helvetica,sans-Serif" font-size="10.00" fill="#000000">::mp_image_d</text>
</a>
</g>
</g>
<!-- Node801&#45;&gt;Node809 -->
<g id="edge8" class="edge">
<title>Node801&#45;&gt;Node809</title>
<path fill="none" stroke="#191970" d="M54.7992,-1126.1271C56.5358,-1231.3186 68.1808,-1635.2856 145,-1731 147.9548,-1734.6816 151.4131,-1737.9115 155.2028,-1740.7452"/>
<polygon fill="#191970" stroke="#191970" points="58.2986,-1126.0552 54.6496,-1116.1086 51.2994,-1126.1597 58.2986,-1126.0552"/>
</g>
<!-- Node810 -->
<g id="node10" class="node">
<title>Node810</title>
<g id="a_node10"><a xlink:href="structcimg__library__suffixed_1_1_c_img_1_1__cimg__math__parser.html#ad676e1626e3d1e0abc5317527ecb9e6f" target="_top" xlink:title="cimg_library_suffixed\l::CImg::_cimg_math_parser\l::mp_image_resize">
<polygon fill="#ffffff" stroke="#000000" points="155.5,-1680.5 155.5,-1721.5 293.5,-1721.5 293.5,-1680.5 155.5,-1680.5"/>
<text text-anchor="start" x="163.5" y="-1709.5" font-family="Helvetica,sans-Serif" font-size="10.00" fill="#000000">cimg_library_suffixed</text>
<text text-anchor="start" x="163.5" y="-1698.5" font-family="Helvetica,sans-Serif" font-size="10.00" fill="#000000">::CImg::_cimg_math_parser</text>
<text text-anchor="middle" x="224.5" y="-1687.5" font-family="Helvetica,sans-Serif" font-size="10.00" fill="#000000">::mp_image_resize</text>
</a>
</g>
</g>
<!-- Node801&#45;&gt;Node810 -->
<g id="edge9" class="edge">
<title>Node801&#45;&gt;Node810</title>
<path fill="none" stroke="#191970" d="M55.2242,-1126.2472C58.5453,-1225.2125 75.3014,-1585.4607 145,-1671 147.9819,-1674.6596 151.4605,-1677.8731 155.2651,-1680.6948"/>
<polygon fill="#191970" stroke="#191970" points="58.7224,-1126.1304 54.9053,-1116.2471 51.7259,-1126.3536 58.7224,-1126.1304"/>
</g>
<!-- Node811 -->
<g id="node11" class="node">
<title>Node811</title>
<g id="a_node11"><a xlink:href="structcimg__library__suffixed_1_1_c_img_1_1__cimg__math__parser.html#afa3f67c197c60dff214007d51b82ea52" target="_top" xlink:title="cimg_library_suffixed\l::CImg::_cimg_math_parser\l::mp_image_whd">
<polygon fill="#ffffff" stroke="#000000" points="155.5,-1620.5 155.5,-1661.5 293.5,-1661.5 293.5,-1620.5 155.5,-1620.5"/>
<text text-anchor="start" x="163.5" y="-1649.5" font-family="Helvetica,sans-Serif" font-size="10.00" fill="#000000">cimg_library_suffixed</text>
<text text-anchor="start" x="163.5" y="-1638.5" font-family="Helvetica,sans-Serif" font-size="10.00" fill="#000000">::CImg::_cimg_math_parser</text>
<text text-anchor="middle" x="224.5" y="-1627.5" font-family="Helvetica,sans-Serif" font-size="10.00" fill="#000000">::mp_image_whd</text>
</a>
</g>
</g>
<!-- Node801&#45;&gt;Node811 -->
<g id="edge10" class="edge">
<title>Node801&#45;&gt;Node811</title>
<path fill="none" stroke="#191970" d="M55.7429,-1126.2214C60.7616,-1218.3922 82.3589,-1535.5324 145,-1611 148.015,-1614.6324 151.5185,-1617.8254 155.3412,-1620.6322"/>
<polygon fill="#191970" stroke="#191970" points="59.2324,-1125.9298 55.2114,-1116.1277 52.2421,-1126.298 59.2324,-1125.9298"/>
</g>
<!-- Node812 -->
<g id="node12" class="node">
<title>Node812</title>
<g id="a_node12"><a xlink:href="structcimg__library__suffixed_1_1_c_img_1_1__cimg__math__parser.html#a57cd62422118b65b4ee347362a9be59f" target="_top" xlink:title="cimg_library_suffixed\l::CImg::_cimg_math_parser\l::mp_image_whds">
<polygon fill="#ffffff" stroke="#000000" points="155.5,-1560.5 155.5,-1601.5 293.5,-1601.5 293.5,-1560.5 155.5,-1560.5"/>
<text text-anchor="start" x="163.5" y="-1589.5" font-family="Helvetica,sans-Serif" font-size="10.00" fill="#000000">cimg_library_suffixed</text>
<text text-anchor="start" x="163.5" y="-1578.5" font-family="Helvetica,sans-Serif" font-size="10.00" fill="#000000">::CImg::_cimg_math_parser</text>
<text text-anchor="middle" x="224.5" y="-1567.5" font-family="Helvetica,sans-Serif" font-size="10.00" fill="#000000">::mp_image_whds</text>
</a>
</g>
</g>
<!-- Node801&#45;&gt;Node812 -->
<g id="edge11" class="edge">
<title>Node801&#45;&gt;Node812</title>
<path fill="none" stroke="#191970" d="M56.3994,-1126.2497C63.2675,-1211.2829 89.3947,-1485.5445 145,-1551 148.0563,-1554.5977 151.5907,-1557.7648 155.436,-1560.5526"/>
<polygon fill="#191970" stroke="#191970" points="59.8817,-1125.8861 55.6064,-1116.1922 52.9034,-1126.4364 59.8817,-1125.8861"/>
</g>
<!-- Node813 -->
<g id="node13" class="node">
<title>Node813</title>
<g id="a_node13"><a xlink:href="structcimg__library__suffixed_1_1_c_img_1_1__cimg__math__parser.html#adccb19bacb29f24ee9b582ffdab1ce87" target="_top" xlink:title="cimg_library_suffixed\l::CImg::_cimg_math_parser\l::mp_ixyzc">
<polygon fill="#ffffff" stroke="#000000" points="155.5,-1500.5 155.5,-1541.5 293.5,-1541.5 293.5,-1500.5 155.5,-1500.5"/>
<text text-anchor="start" x="163.5" y="-1529.5" font-family="Helvetica,sans-Serif" font-size="10.00" fill="#000000">cimg_library_suffixed</text>
<text text-anchor="start" x="163.5" y="-1518.5" font-family="Helvetica,sans-Serif" font-size="10.00" fill="#000000">::CImg::_cimg_math_parser</text>
<text text-anchor="middle" x="224.5" y="-1507.5" font-family="Helvetica,sans-Serif" font-size="10.00" fill="#000000">::mp_ixyzc</text>
</a>
</g>
</g>
<!-- Node801&#45;&gt;Node813 -->
<g id="edge12" class="edge">
<title>Node801&#45;&gt;Node813</title>
<path fill="none" stroke="#191970" d="M57.292,-1126.612C66.2351,-1204.3305 96.458,-1435.541 145,-1491 148.1091,-1494.5522 151.6832,-1497.6851 155.5573,-1500.448"/>
<polygon fill="#191970" stroke="#191970" points="60.7274,-1125.8423 56.1272,-1116.2982 53.7716,-1126.6279 60.7274,-1125.8423"/>
</g>
<!-- Node814 -->
<g id="node14" class="node">
<title>Node814</title>
<g id="a_node14"><a xlink:href="structcimg__library__suffixed_1_1_c_img_1_1__cimg__math__parser.html#ab65aef2aad83c05094346595eebd5051" target="_top" xlink:title="cimg_library_suffixed\l::CImg::_cimg_math_parser\l::mp_jxyzc">
<polygon fill="#ffffff" stroke="#000000" points="155.5,-1440.5 155.5,-1481.5 293.5,-1481.5 293.5,-1440.5 155.5,-1440.5"/>
<text text-anchor="start" x="163.5" y="-1469.5" font-family="Helvetica,sans-Serif" font-size="10.00" fill="#000000">cimg_library_suffixed</text>
<text text-anchor="start" x="163.5" y="-1458.5" font-family="Helvetica,sans-Serif" font-size="10.00" fill="#000000">::CImg::_cimg_math_parser</text>
<text text-anchor="middle" x="224.5" y="-1447.5" font-family="Helvetica,sans-Serif" font-size="10.00" fill="#000000">::mp_jxyzc</text>
</a>
</g>
</g>
<!-- Node801&#45;&gt;Node814 -->
<g id="edge13" class="edge">
<title>Node801&#45;&gt;Node814</title>
<path fill="none" stroke="#191970" d="M58.4069,-1126.2841C69.5391,-1195.3766 103.3238,-1385.2478 145,-1431 148.1789,-1434.4898 151.8053,-1437.576 155.7176,-1440.3048"/>
<polygon fill="#191970" stroke="#191970" points="61.8422,-1125.6 56.817,-1116.2728 54.9288,-1126.698 61.8422,-1125.6"/>
</g>
<!-- Node815 -->
<g id="node15" class="node">
<title>Node815</title>
<g id="a_node15"><a xlink:href="structcimg__library__suffixed_1_1_c_img_1_1__cimg__math__parser.html#af4383fa9613e2534570a889e24d06b5a" target="_top" xlink:title="cimg_library_suffixed\l::CImg::_cimg_math_parser\l::mp_list_ixyzc">
<polygon fill="#ffffff" stroke="#000000" points="155.5,-1380.5 155.5,-1421.5 293.5,-1421.5 293.5,-1380.5 155.5,-1380.5"/>
<text text-anchor="start" x="163.5" y="-1409.5" font-family="Helvetica,sans-Serif" font-size="10.00" fill="#000000">cimg_library_suffixed</text>
<text text-anchor="start" x="163.5" y="-1398.5" font-family="Helvetica,sans-Serif" font-size="10.00" fill="#000000">::CImg::_cimg_math_parser</text>
<text text-anchor="middle" x="224.5" y="-1387.5" font-family="Helvetica,sans-Serif" font-size="10.00" fill="#000000">::mp_list_ixyzc</text>
</a>
</g>
</g>
<!-- Node801&#45;&gt;Node815 -->
<g id="edge14" class="edge">
<title>Node801&#45;&gt;Node815</title>
<path fill="none" stroke="#191970" d="M55.9394,-1126.2456C60.2658,-1178.7945 77.4372,-1300.8605 145,-1371 148.3773,-1374.5061 152.205,-1377.6068 156.3107,-1380.3484"/>
<polygon fill="#191970" stroke="#191970" points="59.4198,-1125.8482 55.1976,-1116.131 52.4385,-1126.3603 59.4198,-1125.8482"/>
</g>
<!-- Node816 -->
<g id="node16" class="node">
<title>Node816</title>
<g id="a_node16"><a xlink:href="structcimg__library__suffixed_1_1_c_img_1_1__cimg__math__parser.html#a7d6e200df51bdae7711bab33967fd1e9" target="_top" xlink:title="cimg_library_suffixed\l::CImg::_cimg_math_parser\l::mp_list_Joff">
<polygon fill="#ffffff" stroke="#000000" points="155.5,-1320.5 155.5,-1361.5 293.5,-1361.5 293.5,-1320.5 155.5,-1320.5"/>
<text text-anchor="start" x="163.5" y="-1349.5" font-family="Helvetica,sans-Serif" font-size="10.00" fill="#000000">cimg_library_suffixed</text>
<text text-anchor="start" x="163.5" y="-1338.5" font-family="Helvetica,sans-Serif" font-size="10.00" fill="#000000">::CImg::_cimg_math_parser</text>
<text text-anchor="middle" x="224.5" y="-1327.5" font-family="Helvetica,sans-Serif" font-size="10.00" fill="#000000">::mp_list_Joff</text>
</a>
</g>
</g>
<!-- Node801&#45;&gt;Node816 -->
<g id="edge15" class="edge">
<title>Node801&#45;&gt;Node816</title>
<path fill="none" stroke="#191970" d="M58.7665,-1126.3046C67.387,-1169.8655 90.873,-1259.3106 145,-1311 148.6274,-1314.464 152.6936,-1317.5371 157.018,-1320.2619"/>
<polygon fill="#191970" stroke="#191970" points="62.168,-1125.4533 56.8855,-1116.2693 55.2878,-1126.743 62.168,-1125.4533"/>
</g>
<!-- Node817 -->
<g id="node17" class="node">
<title>Node817</title>
<g id="a_node17"><a xlink:href="structcimg__library__suffixed_1_1_c_img_1_1__cimg__math__parser.html#a1f3648a3f11256430d982c9c6e8debe4" target="_top" xlink:title="cimg_library_suffixed\l::CImg::_cimg_math_parser\l::mp_list_jxyzc">
<polygon fill="#ffffff" stroke="#000000" points="155.5,-1260.5 155.5,-1301.5 293.5,-1301.5 293.5,-1260.5 155.5,-1260.5"/>
<text text-anchor="start" x="163.5" y="-1289.5" font-family="Helvetica,sans-Serif" font-size="10.00" fill="#000000">cimg_library_suffixed</text>
<text text-anchor="start" x="163.5" y="-1278.5" font-family="Helvetica,sans-Serif" font-size="10.00" fill="#000000">::CImg::_cimg_math_parser</text>
<text text-anchor="middle" x="224.5" y="-1267.5" font-family="Helvetica,sans-Serif" font-size="10.00" fill="#000000">::mp_list_jxyzc</text>
</a>
</g>
</g>
<!-- Node801&#45;&gt;Node817 -->
<g id="edge16" class="edge">
<title>Node801&#45;&gt;Node817</title>
<path fill="none" stroke="#191970" d="M63.4485,-1125.7788C76.529,-1158.7212 103.8756,-1216.7544 145,-1251 149.1944,-1254.4928 153.8371,-1257.6027 158.7108,-1260.3673"/>
<polygon fill="#191970" stroke="#191970" points="66.5559,-1124.1074 59.7035,-1116.0269 60.0212,-1126.6169 66.5559,-1124.1074"/>
</g>
<!-- Node818 -->
<g id="node18" class="node">
<title>Node818</title>
<g id="a_node18"><a xlink:href="structcimg__library__suffixed_1_1_c_img_1_1__cimg__math__parser.html#a0210c4cadebc44d6c04fee33ae622d9b" target="_top" xlink:title="cimg_library_suffixed\l::CImg::_cimg_math_parser\l::mp_list_set_Ioff_s">
<polygon fill="#ffffff" stroke="#000000" points="155.5,-1200.5 155.5,-1241.5 293.5,-1241.5 293.5,-1200.5 155.5,-1200.5"/>
<text text-anchor="start" x="163.5" y="-1229.5" font-family="Helvetica,sans-Serif" font-size="10.00" fill="#000000">cimg_library_suffixed</text>
<text text-anchor="start" x="163.5" y="-1218.5" font-family="Helvetica,sans-Serif" font-size="10.00" fill="#000000">::CImg::_cimg_math_parser</text>
<text text-anchor="middle" x="224.5" y="-1207.5" font-family="Helvetica,sans-Serif" font-size="10.00" fill="#000000">::mp_list_set_Ioff_s</text>
</a>
</g>
</g>
<!-- Node801&#45;&gt;Node818 -->
<g id="edge17" class="edge">
<title>Node801&#45;&gt;Node818</title>
<path fill="none" stroke="#191970" d="M72.5483,-1123.7586C89.4489,-1143.789 116.3384,-1172.5587 145,-1191 150.3346,-1194.4323 156.12,-1197.558 162.0544,-1200.3833"/>
<polygon fill="#191970" stroke="#191970" points="75.2237,-1121.5018 66.153,-1116.027 69.8298,-1125.9634 75.2237,-1121.5018"/>
</g>
<!-- Node819 -->
<g id="node19" class="node">
<title>Node819</title>
<g id="a_node19"><a xlink:href="structcimg__library__suffixed_1_1_c_img_1_1__cimg__math__parser.html#a7650a1d4e959255a9c0636276da4c836" target="_top" xlink:title="cimg_library_suffixed\l::CImg::_cimg_math_parser\l::mp_list_set_Ioff_v">
<polygon fill="#ffffff" stroke="#000000" points="155.5,-1140.5 155.5,-1181.5 293.5,-1181.5 293.5,-1140.5 155.5,-1140.5"/>
<text text-anchor="start" x="163.5" y="-1169.5" font-family="Helvetica,sans-Serif" font-size="10.00" fill="#000000">cimg_library_suffixed</text>
<text text-anchor="start" x="163.5" y="-1158.5" font-family="Helvetica,sans-Serif" font-size="10.00" fill="#000000">::CImg::_cimg_math_parser</text>
<text text-anchor="middle" x="224.5" y="-1147.5" font-family="Helvetica,sans-Serif" font-size="10.00" fill="#000000">::mp_list_set_Ioff_v</text>
</a>
</g>
</g>
<!-- Node801&#45;&gt;Node819 -->
<g id="edge18" class="edge">
<title>Node801&#45;&gt;Node819</title>
<path fill="none" stroke="#191970" d="M106.9591,-1119.515C125.7225,-1126.1373 146.9775,-1133.6391 166.2038,-1140.4249"/>
<polygon fill="#191970" stroke="#191970" points="107.993,-1116.1683 97.3982,-1116.1405 105.6632,-1122.7693 107.993,-1116.1683"/>
</g>
<!-- Node820 -->
<g id="node20" class="node">
<title>Node820</title>
<g id="a_node20"><a xlink:href="structcimg__library__suffixed_1_1_c_img_1_1__cimg__math__parser.html#a9ecda2f1f6382bcd97d7a942c6b82c0a" target="_top" xlink:title="cimg_library_suffixed\l::CImg::_cimg_math_parser\l::mp_list_set_Ixyz_s">
<polygon fill="#ffffff" stroke="#000000" points="155.5,-1080.5 155.5,-1121.5 293.5,-1121.5 293.5,-1080.5 155.5,-1080.5"/>
<text text-anchor="start" x="163.5" y="-1109.5" font-family="Helvetica,sans-Serif" font-size="10.00" fill="#000000">cimg_library_suffixed</text>
<text text-anchor="start" x="163.5" y="-1098.5" font-family="Helvetica,sans-Serif" font-size="10.00" fill="#000000">::CImg::_cimg_math_parser</text>
<text text-anchor="middle" x="224.5" y="-1087.5" font-family="Helvetica,sans-Serif" font-size="10.00" fill="#000000">::mp_list_set_Ixyz_s</text>
</a>
</g>
</g>
<!-- Node801&#45;&gt;Node820 -->
<g id="edge19" class="edge">
<title>Node801&#45;&gt;Node820</title>
<path fill="none" stroke="#191970" d="M119.3751,-1101C131.1122,-1101 143.3925,-1101 155.2492,-1101"/>
<polygon fill="#191970" stroke="#191970" points="119.2249,-1097.5001 109.2248,-1101 119.2248,-1104.5001 119.2249,-1097.5001"/>
</g>
<!-- Node821 -->
<g id="node21" class="node">
<title>Node821</title>
<g id="a_node21"><a xlink:href="structcimg__library__suffixed_1_1_c_img_1_1__cimg__math__parser.html#a8dfb889ef6eeda534e68dce171d0eb3d" target="_top" xlink:title="cimg_library_suffixed\l::CImg::_cimg_math_parser\l::mp_list_set_Ixyz_v">
<polygon fill="#ffffff" stroke="#000000" points="155.5,-1020.5 155.5,-1061.5 293.5,-1061.5 293.5,-1020.5 155.5,-1020.5"/>
<text text-anchor="start" x="163.5" y="-1049.5" font-family="Helvetica,sans-Serif" font-size="10.00" fill="#000000">cimg_library_suffixed</text>
<text text-anchor="start" x="163.5" y="-1038.5" font-family="Helvetica,sans-Serif" font-size="10.00" fill="#000000">::CImg::_cimg_math_parser</text>
<text text-anchor="middle" x="224.5" y="-1027.5" font-family="Helvetica,sans-Serif" font-size="10.00" fill="#000000">::mp_list_set_Ixyz_v</text>
</a>
</g>
</g>
<!-- Node801&#45;&gt;Node821 -->
<g id="edge20" class="edge">
<title>Node801&#45;&gt;Node821</title>
<path fill="none" stroke="#191970" d="M106.9591,-1082.485C125.7225,-1075.8627 146.9775,-1068.3609 166.2038,-1061.5751"/>
<polygon fill="#191970" stroke="#191970" points="105.6632,-1079.2307 97.3982,-1085.8595 107.993,-1085.8317 105.6632,-1079.2307"/>
</g>
<!-- Node822 -->
<g id="node22" class="node">
<title>Node822</title>
<g id="a_node22"><a xlink:href="structcimg__library__suffixed_1_1_c_img_1_1__cimg__math__parser.html#a64f9d099796fd7de08662bf60e8bb82e" target="_top" xlink:title="cimg_library_suffixed\l::CImg::_cimg_math_parser\l::mp_list_set_ixyzc">
<polygon fill="#ffffff" stroke="#000000" points="155.5,-960.5 155.5,-1001.5 293.5,-1001.5 293.5,-960.5 155.5,-960.5"/>
<text text-anchor="start" x="163.5" y="-989.5" font-family="Helvetica,sans-Serif" font-size="10.00" fill="#000000">cimg_library_suffixed</text>
<text text-anchor="start" x="163.5" y="-978.5" font-family="Helvetica,sans-Serif" font-size="10.00" fill="#000000">::CImg::_cimg_math_parser</text>
<text text-anchor="middle" x="224.5" y="-967.5" font-family="Helvetica,sans-Serif" font-size="10.00" fill="#000000">::mp_list_set_ixyzc</text>
</a>
</g>
</g>
<!-- Node801&#45;&gt;Node822 -->
<g id="edge21" class="edge">
<title>Node801&#45;&gt;Node822</title>
<path fill="none" stroke="#191970" d="M72.5483,-1078.2414C89.4489,-1058.211 116.3384,-1029.4413 145,-1011 150.3346,-1007.5677 156.12,-1004.442 162.0544,-1001.6167"/>
<polygon fill="#191970" stroke="#191970" points="69.8298,-1076.0366 66.153,-1085.973 75.2237,-1080.4982 69.8298,-1076.0366"/>
</g>
<!-- Node823 -->
<g id="node23" class="node">
<title>Node823</title>
<g id="a_node23"><a xlink:href="structcimg__library__suffixed_1_1_c_img_1_1__cimg__math__parser.html#a7c715c512343bcacdc5c4cbfb5cd69a2" target="_top" xlink:title="cimg_library_suffixed\l::CImg::_cimg_math_parser\l::mp_list_set_Joff_s">
<polygon fill="#ffffff" stroke="#000000" points="155.5,-900.5 155.5,-941.5 293.5,-941.5 293.5,-900.5 155.5,-900.5"/>
<text text-anchor="start" x="163.5" y="-929.5" font-family="Helvetica,sans-Serif" font-size="10.00" fill="#000000">cimg_library_suffixed</text>
<text text-anchor="start" x="163.5" y="-918.5" font-family="Helvetica,sans-Serif" font-size="10.00" fill="#000000">::CImg::_cimg_math_parser</text>
<text text-anchor="middle" x="224.5" y="-907.5" font-family="Helvetica,sans-Serif" font-size="10.00" fill="#000000">::mp_list_set_Joff_s</text>
</a>
</g>
</g>
<!-- Node801&#45;&gt;Node823 -->
<g id="edge22" class="edge">
<title>Node801&#45;&gt;Node823</title>
<path fill="none" stroke="#191970" d="M63.4485,-1076.2212C76.529,-1043.2788 103.8756,-985.2456 145,-951 149.1944,-947.5072 153.8371,-944.3973 158.7108,-941.6327"/>
<polygon fill="#191970" stroke="#191970" points="60.0212,-1075.3831 59.7035,-1085.9731 66.5559,-1077.8926 60.0212,-1075.3831"/>
</g>
<!-- Node824 -->
<g id="node24" class="node">
<title>Node824</title>
<g id="a_node24"><a xlink:href="structcimg__library__suffixed_1_1_c_img_1_1__cimg__math__parser.html#acd46d2f6cfc8e3917a36ac623b45b776" target="_top" xlink:title="cimg_library_suffixed\l::CImg::_cimg_math_parser\l::mp_list_set_Joff_v">
<polygon fill="#ffffff" stroke="#000000" points="155.5,-840.5 155.5,-881.5 293.5,-881.5 293.5,-840.5 155.5,-840.5"/>
<text text-anchor="start" x="163.5" y="-869.5" font-family="Helvetica,sans-Serif" font-size="10.00" fill="#000000">cimg_library_suffixed</text>
<text text-anchor="start" x="163.5" y="-858.5" font-family="Helvetica,sans-Serif" font-size="10.00" fill="#000000">::CImg::_cimg_math_parser</text>
<text text-anchor="middle" x="224.5" y="-847.5" font-family="Helvetica,sans-Serif" font-size="10.00" fill="#000000">::mp_list_set_Joff_v</text>
</a>
</g>
</g>
<!-- Node801&#45;&gt;Node824 -->
<g id="edge23" class="edge">
<title>Node801&#45;&gt;Node824</title>
<path fill="none" stroke="#191970" d="M58.7665,-1075.6954C67.387,-1032.1345 90.873,-942.6894 145,-891 148.6274,-887.536 152.6936,-884.4629 157.018,-881.7381"/>
<polygon fill="#191970" stroke="#191970" points="55.2878,-1075.257 56.8855,-1085.7307 62.168,-1076.5467 55.2878,-1075.257"/>
</g>
<!-- Node825 -->
<g id="node25" class="node">
<title>Node825</title>
<g id="a_node25"><a xlink:href="structcimg__library__suffixed_1_1_c_img_1_1__cimg__math__parser.html#a4317fa07ba1b226fdc58e4ea4c025961" target="_top" xlink:title="cimg_library_suffixed\l::CImg::_cimg_math_parser\l::mp_list_set_Jxyz_s">
<polygon fill="#ffffff" stroke="#000000" points="155.5,-780.5 155.5,-821.5 293.5,-821.5 293.5,-780.5 155.5,-780.5"/>
<text text-anchor="start" x="163.5" y="-809.5" font-family="Helvetica,sans-Serif" font-size="10.00" fill="#000000">cimg_library_suffixed</text>
<text text-anchor="start" x="163.5" y="-798.5" font-family="Helvetica,sans-Serif" font-size="10.00" fill="#000000">::CImg::_cimg_math_parser</text>
<text text-anchor="middle" x="224.5" y="-787.5" font-family="Helvetica,sans-Serif" font-size="10.00" fill="#000000">::mp_list_set_Jxyz_s</text>
</a>
</g>
</g>
<!-- Node801&#45;&gt;Node825 -->
<g id="edge24" class="edge">
<title>Node801&#45;&gt;Node825</title>
<path fill="none" stroke="#191970" d="M55.9394,-1075.7544C60.2658,-1023.2055 77.4372,-901.1395 145,-831 148.3773,-827.4939 152.205,-824.3932 156.3107,-821.6516"/>
<polygon fill="#191970" stroke="#191970" points="52.4385,-1075.6397 55.1976,-1085.869 59.4198,-1076.1518 52.4385,-1075.6397"/>
</g>
<!-- Node826 -->
<g id="node26" class="node">
<title>Node826</title>
<g id="a_node26"><a xlink:href="structcimg__library__suffixed_1_1_c_img_1_1__cimg__math__parser.html#a9c2878dd26e57ba8e2e5bbef0e2d042f" target="_top" xlink:title="cimg_library_suffixed\l::CImg::_cimg_math_parser\l::mp_list_set_Jxyz_v">
<polygon fill="#ffffff" stroke="#000000" points="155.5,-720.5 155.5,-761.5 293.5,-761.5 293.5,-720.5 155.5,-720.5"/>
<text text-anchor="start" x="163.5" y="-749.5" font-family="Helvetica,sans-Serif" font-size="10.00" fill="#000000">cimg_library_suffixed</text>
<text text-anchor="start" x="163.5" y="-738.5" font-family="Helvetica,sans-Serif" font-size="10.00" fill="#000000">::CImg::_cimg_math_parser</text>
<text text-anchor="middle" x="224.5" y="-727.5" font-family="Helvetica,sans-Serif" font-size="10.00" fill="#000000">::mp_list_set_Jxyz_v</text>
</a>
</g>
</g>
<!-- Node801&#45;&gt;Node826 -->
<g id="edge25" class="edge">
<title>Node801&#45;&gt;Node826</title>
<path fill="none" stroke="#191970" d="M58.4069,-1075.7159C69.5391,-1006.6234 103.3238,-816.7522 145,-771 148.1789,-767.5102 151.8053,-764.424 155.7176,-761.6952"/>
<polygon fill="#191970" stroke="#191970" points="54.9288,-1075.302 56.817,-1085.7272 61.8422,-1076.4 54.9288,-1075.302"/>
</g>
<!-- Node827 -->
<g id="node27" class="node">
<title>Node827</title>
<g id="a_node27"><a xlink:href="structcimg__library__suffixed_1_1_c_img_1_1__cimg__math__parser.html#ad947e6ce6e57e93e11fd67f500eb70c8" target="_top" xlink:title="cimg_library_suffixed\l::CImg::_cimg_math_parser\l::mp_list_set_jxyzc">
<polygon fill="#ffffff" stroke="#000000" points="155.5,-660.5 155.5,-701.5 293.5,-701.5 293.5,-660.5 155.5,-660.5"/>
<text text-anchor="start" x="163.5" y="-689.5" font-family="Helvetica,sans-Serif" font-size="10.00" fill="#000000">cimg_library_suffixed</text>
<text text-anchor="start" x="163.5" y="-678.5" font-family="Helvetica,sans-Serif" font-size="10.00" fill="#000000">::CImg::_cimg_math_parser</text>
<text text-anchor="middle" x="224.5" y="-667.5" font-family="Helvetica,sans-Serif" font-size="10.00" fill="#000000">::mp_list_set_jxyzc</text>
</a>
</g>
</g>
<!-- Node801&#45;&gt;Node827 -->
<g id="edge26" class="edge">
<title>Node801&#45;&gt;Node827</title>
<path fill="none" stroke="#191970" d="M57.292,-1075.388C66.2351,-997.6695 96.458,-766.459 145,-711 148.1091,-707.4478 151.6832,-704.3149 155.5573,-701.552"/>
<polygon fill="#191970" stroke="#191970" points="53.7716,-1075.3721 56.1272,-1085.7018 60.7274,-1076.1577 53.7716,-1075.3721"/>
</g>
<!-- Node828 -->
<g id="node28" class="node">
<title>Node828</title>
<g id="a_node28"><a xlink:href="structcimg__library__suffixed_1_1_c_img_1_1__cimg__math__parser.html#a4abf2136cc195466cf532c24d215e599" target="_top" xlink:title="cimg_library_suffixed\l::CImg::_cimg_math_parser\l::mp_set_Ioff_s">
<polygon fill="#ffffff" stroke="#000000" points="155.5,-600.5 155.5,-641.5 293.5,-641.5 293.5,-600.5 155.5,-600.5"/>
<text text-anchor="start" x="163.5" y="-629.5" font-family="Helvetica,sans-Serif" font-size="10.00" fill="#000000">cimg_library_suffixed</text>
<text text-anchor="start" x="163.5" y="-618.5" font-family="Helvetica,sans-Serif" font-size="10.00" fill="#000000">::CImg::_cimg_math_parser</text>
<text text-anchor="middle" x="224.5" y="-607.5" font-family="Helvetica,sans-Serif" font-size="10.00" fill="#000000">::mp_set_Ioff_s</text>
</a>
</g>
</g>
<!-- Node801&#45;&gt;Node828 -->
<g id="edge27" class="edge">
<title>Node801&#45;&gt;Node828</title>
<path fill="none" stroke="#191970" d="M56.3994,-1075.7503C63.2675,-990.7171 89.3947,-716.4555 145,-651 148.0563,-647.4023 151.5907,-644.2352 155.436,-641.4474"/>
<polygon fill="#191970" stroke="#191970" points="52.9034,-1075.5636 55.6064,-1085.8078 59.8817,-1076.1139 52.9034,-1075.5636"/>
</g>
<!-- Node829 -->
<g id="node29" class="node">
<title>Node829</title>
<g id="a_node29"><a xlink:href="structcimg__library__suffixed_1_1_c_img_1_1__cimg__math__parser.html#ac13166c57e3b5f6c7ed2dbf7afdba818" target="_top" xlink:title="cimg_library_suffixed\l::CImg::_cimg_math_parser\l::mp_set_Ioff_v">
<polygon fill="#ffffff" stroke="#000000" points="155.5,-540.5 155.5,-581.5 293.5,-581.5 293.5,-540.5 155.5,-540.5"/>
<text text-anchor="start" x="163.5" y="-569.5" font-family="Helvetica,sans-Serif" font-size="10.00" fill="#000000">cimg_library_suffixed</text>
<text text-anchor="start" x="163.5" y="-558.5" font-family="Helvetica,sans-Serif" font-size="10.00" fill="#000000">::CImg::_cimg_math_parser</text>
<text text-anchor="middle" x="224.5" y="-547.5" font-family="Helvetica,sans-Serif" font-size="10.00" fill="#000000">::mp_set_Ioff_v</text>
</a>
</g>
</g>
<!-- Node801&#45;&gt;Node829 -->
<g id="edge28" class="edge">
<title>Node801&#45;&gt;Node829</title>
<path fill="none" stroke="#191970" d="M55.7429,-1075.7786C60.7616,-983.6078 82.3589,-666.4676 145,-591 148.015,-587.3676 151.5185,-584.1746 155.3412,-581.3678"/>
<polygon fill="#191970" stroke="#191970" points="52.2421,-1075.702 55.2114,-1085.8723 59.2324,-1076.0702 52.2421,-1075.702"/>
</g>
<!-- Node830 -->
<g id="node30" class="node">
<title>Node830</title>
<g id="a_node30"><a xlink:href="structcimg__library__suffixed_1_1_c_img_1_1__cimg__math__parser.html#a409ba01c3679be72ff8fd32b224f8b58" target="_top" xlink:title="cimg_library_suffixed\l::CImg::_cimg_math_parser\l::mp_set_Ixyz_s">
<polygon fill="#ffffff" stroke="#000000" points="155.5,-480.5 155.5,-521.5 293.5,-521.5 293.5,-480.5 155.5,-480.5"/>
<text text-anchor="start" x="163.5" y="-509.5" font-family="Helvetica,sans-Serif" font-size="10.00" fill="#000000">cimg_library_suffixed</text>
<text text-anchor="start" x="163.5" y="-498.5" font-family="Helvetica,sans-Serif" font-size="10.00" fill="#000000">::CImg::_cimg_math_parser</text>
<text text-anchor="middle" x="224.5" y="-487.5" font-family="Helvetica,sans-Serif" font-size="10.00" fill="#000000">::mp_set_Ixyz_s</text>
</a>
</g>
</g>
<!-- Node801&#45;&gt;Node830 -->
<g id="edge29" class="edge">
<title>Node801&#45;&gt;Node830</title>
<path fill="none" stroke="#191970" d="M55.2242,-1075.7528C58.5453,-976.7875 75.3014,-616.5393 145,-531 147.9819,-527.3404 151.4605,-524.1269 155.2651,-521.3052"/>
<polygon fill="#191970" stroke="#191970" points="51.7259,-1075.6464 54.9053,-1085.7529 58.7224,-1075.8696 51.7259,-1075.6464"/>
</g>
<!-- Node831 -->
<g id="node31" class="node">
<title>Node831</title>
<g id="a_node31"><a xlink:href="structcimg__library__suffixed_1_1_c_img_1_1__cimg__math__parser.html#ac69c6670814a0a264fa3f02b13159e0f" target="_top" xlink:title="cimg_library_suffixed\l::CImg::_cimg_math_parser\l::mp_set_Ixyz_v">
<polygon fill="#ffffff" stroke="#000000" points="155.5,-420.5 155.5,-461.5 293.5,-461.5 293.5,-420.5 155.5,-420.5"/>
<text text-anchor="start" x="163.5" y="-449.5" font-family="Helvetica,sans-Serif" font-size="10.00" fill="#000000">cimg_library_suffixed</text>
<text text-anchor="start" x="163.5" y="-438.5" font-family="Helvetica,sans-Serif" font-size="10.00" fill="#000000">::CImg::_cimg_math_parser</text>
<text text-anchor="middle" x="224.5" y="-427.5" font-family="Helvetica,sans-Serif" font-size="10.00" fill="#000000">::mp_set_Ixyz_v</text>
</a>
</g>
</g>
<!-- Node801&#45;&gt;Node831 -->
<g id="edge30" class="edge">
<title>Node801&#45;&gt;Node831</title>
<path fill="none" stroke="#191970" d="M54.7992,-1075.8729C56.5358,-970.6814 68.1808,-566.7144 145,-471 147.9548,-467.3184 151.4131,-464.0885 155.2028,-461.2548"/>
<polygon fill="#191970" stroke="#191970" points="51.2994,-1075.8403 54.6496,-1085.8914 58.2986,-1075.9448 51.2994,-1075.8403"/>
</g>
<!-- Node832 -->
<g id="node32" class="node">
<title>Node832</title>
<g id="a_node32"><a xlink:href="structcimg__library__suffixed_1_1_c_img_1_1__cimg__math__parser.html#af5d4e38f7c1c620c3867f08adb636214" target="_top" xlink:title="cimg_library_suffixed\l::CImg::_cimg_math_parser\l::mp_set_ixyzc">
<polygon fill="#ffffff" stroke="#000000" points="155.5,-360.5 155.5,-401.5 293.5,-401.5 293.5,-360.5 155.5,-360.5"/>
<text text-anchor="start" x="163.5" y="-389.5" font-family="Helvetica,sans-Serif" font-size="10.00" fill="#000000">cimg_library_suffixed</text>
<text text-anchor="start" x="163.5" y="-378.5" font-family="Helvetica,sans-Serif" font-size="10.00" fill="#000000">::CImg::_cimg_math_parser</text>
<text text-anchor="middle" x="224.5" y="-367.5" font-family="Helvetica,sans-Serif" font-size="10.00" fill="#000000">::mp_set_ixyzc</text>
</a>
</g>
</g>
<!-- Node801&#45;&gt;Node832 -->
<g id="edge31" class="edge">
<title>Node801&#45;&gt;Node832</title>
<path fill="none" stroke="#191970" d="M56.3037,-1075.4272C64.8703,-956.8734 102.7893,-464.2587 145,-411 147.9322,-407.3004 151.3735,-404.0569 155.1508,-401.2134"/>
<polygon fill="#191970" stroke="#191970" points="52.791,-1075.4805 55.5672,-1085.7052 59.7731,-1075.9809 52.791,-1075.4805"/>
</g>
<!-- Node833 -->
<g id="node33" class="node">
<title>Node833</title>
<g id="a_node33"><a xlink:href="structcimg__library__suffixed_1_1_c_img_1_1__cimg__math__parser.html#a3860620600d06f7543c5f321457b1161" target="_top" xlink:title="cimg_library_suffixed\l::CImg::_cimg_math_parser\l::mp_set_Joff_s">
<polygon fill="#ffffff" stroke="#000000" points="155.5,-300.5 155.5,-341.5 293.5,-341.5 293.5,-300.5 155.5,-300.5"/>
<text text-anchor="start" x="163.5" y="-329.5" font-family="Helvetica,sans-Serif" font-size="10.00" fill="#000000">cimg_library_suffixed</text>
<text text-anchor="start" x="163.5" y="-318.5" font-family="Helvetica,sans-Serif" font-size="10.00" fill="#000000">::CImg::_cimg_math_parser</text>
<text text-anchor="middle" x="224.5" y="-307.5" font-family="Helvetica,sans-Serif" font-size="10.00" fill="#000000">::mp_set_Joff_s</text>
</a>
</g>
</g>
<!-- Node801&#45;&gt;Node833 -->
<g id="edge32" class="edge">
<title>Node801&#45;&gt;Node833</title>
<path fill="none" stroke="#191970" d="M56.0111,-1075.6082C63.6201,-951.1765 99.1895,-409.418 145,-351 148.004,-347.1692 151.5547,-343.8275 155.461,-340.9125"/>
<polygon fill="#191970" stroke="#191970" points="52.5103,-1075.516 55.399,-1085.7094 59.4975,-1075.9395 52.5103,-1075.516"/>
</g>
<!-- Node834 -->
<g id="node34" class="node">
<title>Node834</title>
<g id="a_node34"><a xlink:href="structcimg__library__suffixed_1_1_c_img_1_1__cimg__math__parser.html#ab7511ccfe349d6e74286d0e8327edfa5" target="_top" xlink:title="cimg_library_suffixed\l::CImg::_cimg_math_parser\l::mp_set_Joff_v">
<polygon fill="#ffffff" stroke="#000000" points="155.5,-240.5 155.5,-281.5 293.5,-281.5 293.5,-240.5 155.5,-240.5"/>
<text text-anchor="start" x="163.5" y="-269.5" font-family="Helvetica,sans-Serif" font-size="10.00" fill="#000000">cimg_library_suffixed</text>
<text text-anchor="start" x="163.5" y="-258.5" font-family="Helvetica,sans-Serif" font-size="10.00" fill="#000000">::CImg::_cimg_math_parser</text>
<text text-anchor="middle" x="224.5" y="-247.5" font-family="Helvetica,sans-Serif" font-size="10.00" fill="#000000">::mp_set_Joff_v</text>
</a>
</g>
</g>
<!-- Node801&#45;&gt;Node834 -->
<g id="edge33" class="edge">
<title>Node801&#45;&gt;Node834</title>
<path fill="none" stroke="#191970" d="M55.7688,-1075.6802C62.4999,-945.4386 95.5934,-354.5792 145,-291 147.9871,-287.156 151.5252,-283.8045 155.4225,-280.8825"/>
<polygon fill="#191970" stroke="#191970" points="52.2631,-1075.7041 55.2477,-1085.8698 59.254,-1076.0617 52.2631,-1075.7041"/>
</g>
<!-- Node835 -->
<g id="node35" class="node">
<title>Node835</title>
<g id="a_node35"><a xlink:href="structcimg__library__suffixed_1_1_c_img_1_1__cimg__math__parser.html#a4ac71e134aa0aeaf9f88a48703d8821a" target="_top" xlink:title="cimg_library_suffixed\l::CImg::_cimg_math_parser\l::mp_set_Jxyz_s">
<polygon fill="#ffffff" stroke="#000000" points="155.5,-180.5 155.5,-221.5 293.5,-221.5 293.5,-180.5 155.5,-180.5"/>
<text text-anchor="start" x="163.5" y="-209.5" font-family="Helvetica,sans-Serif" font-size="10.00" fill="#000000">cimg_library_suffixed</text>
<text text-anchor="start" x="163.5" y="-198.5" font-family="Helvetica,sans-Serif" font-size="10.00" fill="#000000">::CImg::_cimg_math_parser</text>
<text text-anchor="middle" x="224.5" y="-187.5" font-family="Helvetica,sans-Serif" font-size="10.00" fill="#000000">::mp_set_Jxyz_s</text>
</a>
</g>
</g>
<!-- Node801&#45;&gt;Node835 -->
<g id="edge34" class="edge">
<title>Node801&#45;&gt;Node835</title>
<path fill="none" stroke="#191970" d="M55.5692,-1075.5501C61.4995,-939.3003 92.0153,-299.7222 145,-231 147.9725,-227.1447 151.4996,-223.7848 155.3891,-220.8566"/>
<polygon fill="#191970" stroke="#191970" points="52.0603,-1075.6826 55.1274,-1085.8238 59.0539,-1075.9834 52.0603,-1075.6826"/>
</g>
<!-- Node836 -->
<g id="node36" class="node">
<title>Node836</title>
<g id="a_node36"><a xlink:href="structcimg__library__suffixed_1_1_c_img_1_1__cimg__math__parser.html#a04ca10af57171129187eed4365552940" target="_top" xlink:title="cimg_library_suffixed\l::CImg::_cimg_math_parser\l::mp_set_Jxyz_v">
<polygon fill="#ffffff" stroke="#000000" points="155.5,-120.5 155.5,-161.5 293.5,-161.5 293.5,-120.5 155.5,-120.5"/>
<text text-anchor="start" x="163.5" y="-149.5" font-family="Helvetica,sans-Serif" font-size="10.00" fill="#000000">cimg_library_suffixed</text>
<text text-anchor="start" x="163.5" y="-138.5" font-family="Helvetica,sans-Serif" font-size="10.00" fill="#000000">::CImg::_cimg_math_parser</text>
<text text-anchor="middle" x="224.5" y="-127.5" font-family="Helvetica,sans-Serif" font-size="10.00" fill="#000000">::mp_set_Jxyz_v</text>
</a>
</g>
</g>
<!-- Node801&#45;&gt;Node836 -->
<g id="edge35" class="edge">
<title>Node801&#45;&gt;Node836</title>
<path fill="none" stroke="#191970" d="M55.3872,-1075.6054C60.5435,-933.9293 88.4066,-244.9092 145,-171 147.9596,-167.1348 151.4773,-163.7676 155.3599,-160.8342"/>
<polygon fill="#191970" stroke="#191970" points="51.8791,-1075.7692 55.0181,-1085.8883 58.8746,-1076.0203 51.8791,-1075.7692"/>
</g>
<!-- Node837 -->
<g id="node37" class="node">
<title>Node837</title>
<g id="a_node37"><a xlink:href="structcimg__library__suffixed_1_1_c_img_1_1__cimg__math__parser.html#a34156176621fa5afadf8b12e91520bcf" target="_top" xlink:title="cimg_library_suffixed\l::CImg::_cimg_math_parser\l::mp_set_jxyzc">
<polygon fill="#ffffff" stroke="#000000" points="155.5,-60.5 155.5,-101.5 293.5,-101.5 293.5,-60.5 155.5,-60.5"/>
<text text-anchor="start" x="163.5" y="-89.5" font-family="Helvetica,sans-Serif" font-size="10.00" fill="#000000">cimg_library_suffixed</text>
<text text-anchor="start" x="163.5" y="-78.5" font-family="Helvetica,sans-Serif" font-size="10.00" fill="#000000">::CImg::_cimg_math_parser</text>
<text text-anchor="middle" x="224.5" y="-67.5" font-family="Helvetica,sans-Serif" font-size="10.00" fill="#000000">::mp_set_jxyzc</text>
</a>
</g>
</g>
<!-- Node801&#45;&gt;Node837 -->
<g id="edge36" class="edge">
<title>Node801&#45;&gt;Node837</title>
<path fill="none" stroke="#191970" d="M55.2364,-1075.3683C59.6859,-927.7694 84.8312,-190.0562 145,-111 147.9483,-107.1262 151.4576,-103.7525 155.3342,-100.8146"/>
<polygon fill="#191970" stroke="#191970" points="51.7286,-1075.5811 54.9305,-1085.6805 58.7255,-1075.7887 51.7286,-1075.5811"/>
</g>
<!-- Node838 -->
<g id="node38" class="node">
<title>Node838</title>
<g id="a_node38"><a xlink:href="structcimg__library__suffixed_1_1_c_img_1_1__functor4d__streamline3d__oriented.html#a67b32f469586ab13a6f39fba6910f3d8" target="_top" xlink:title="cimg_library_suffixed\l::CImg::_functor4d_streamline3d\l_oriented::operator()">
<polygon fill="#ffffff" stroke="#000000" points="145,-.5 145,-41.5 304,-41.5 304,-.5 145,-.5"/>
<text text-anchor="start" x="153" y="-29.5" font-family="Helvetica,sans-Serif" font-size="10.00" fill="#000000">cimg_library_suffixed</text>
<text text-anchor="start" x="153" y="-18.5" font-family="Helvetica,sans-Serif" font-size="10.00" fill="#000000">::CImg::_functor4d_streamline3d</text>
<text text-anchor="middle" x="224.5" y="-7.5" font-family="Helvetica,sans-Serif" font-size="10.00" fill="#000000">_oriented::operator()</text>
</a>
</g>
</g>
<!-- Node801&#45;&gt;Node838 -->
<g id="edge37" class="edge">
<title>Node801&#45;&gt;Node838</title>
<path fill="none" stroke="#191970" d="M55.0856,-1075.7485C58.8152,-923.8481 81.1657,-135.3249 145,-51 147.6712,-47.4714 150.808,-44.3578 154.2648,-41.6105"/>
<polygon fill="#191970" stroke="#191970" points="51.5822,-1075.854 54.8403,-1085.9354 58.5801,-1076.0226 51.5822,-1075.854"/>
</g>
</g>
</svg>
