<?xml version="1.0" encoding="UTF-8" standalone="no"?>
<!DOCTYPE svg PUBLIC "-//W3C//DTD SVG 1.1//EN"
 "http://www.w3.org/Graphics/SVG/1.1/DTD/svg11.dtd">
<!-- Generated by graphviz version 2.40.1 (20161225.0304)
 -->
<!-- Title: cimg_library_suffixed::CImg::equalize Pages: 1 -->
<svg width="262pt" height="50pt"
 viewBox="0.00 0.00 262.00 50.00" xmlns="http://www.w3.org/2000/svg" xmlns:xlink="http://www.w3.org/1999/xlink">
<g id="graph0" class="graph" transform="scale(1 1) rotate(0) translate(4 46)">
<title>cimg_library_suffixed::CImg::equalize</title>
<polygon fill="#ffffff" stroke="transparent" points="-4,4 -4,-46 258,-46 258,4 -4,4"/>
<!-- Node1161 -->
<g id="node1" class="node">
<title>Node1161</title>
<polygon fill="#bfbfbf" stroke="#000000" points="0,-6 0,-36 109,-36 109,-6 0,-6"/>
<text text-anchor="start" x="8" y="-24" font-family="Helvetica,sans-Serif" font-size="10.00" fill="#000000">cimg_library_suffixed</text>
<text text-anchor="middle" x="54.5" y="-13" font-family="Helvetica,sans-Serif" font-size="10.00" fill="#000000">::CImg::equalize</text>
</g>
<!-- Node1162 -->
<g id="node2" class="node">
<title>Node1162</title>
<g id="a_node2"><a xlink:href="structcimg__library__suffixed_1_1_c_img.html#ab516d8ea8f47d56b75b21ac335cb45a3" target="_top" xlink:title="Equalize histogram of pixel values . ">
<polygon fill="#ffffff" stroke="#000000" points="145,-.5 145,-41.5 254,-41.5 254,-.5 145,-.5"/>
<text text-anchor="start" x="153" y="-29.5" font-family="Helvetica,sans-Serif" font-size="10.00" fill="#000000">cimg_library_suffixed</text>
<text text-anchor="start" x="153" y="-18.5" font-family="Helvetica,sans-Serif" font-size="10.00" fill="#000000">::CImg&lt; charT &gt;::get</text>
<text text-anchor="middle" x="199.5" y="-7.5" font-family="Helvetica,sans-Serif" font-size="10.00" fill="#000000">_equalize</text>
</a>
</g>
</g>
<!-- Node1161&#45;&gt;Node1162 -->
<g id="edge1" class="edge">
<title>Node1161&#45;&gt;Node1162</title>
<path fill="none" stroke="#191970" d="M119.4621,-21C127.8588,-21 136.3919,-21 144.6042,-21"/>
<polygon fill="#191970" stroke="#191970" points="119.3183,-17.5001 109.3183,-21 119.3182,-24.5001 119.3183,-17.5001"/>
</g>
</g>
</svg>
