<?xml version="1.0" encoding="UTF-8" standalone="no"?>
<!DOCTYPE svg PUBLIC "-//W3C//DTD SVG 1.1//EN"
 "http://www.w3.org/Graphics/SVG/1.1/DTD/svg11.dtd">
<!-- Generated by graphviz version 2.40.1 (20161225.0304)
 -->
<!-- Title: cimg_library_suffixed::CImg::CMYtoCMYK Pages: 1 -->
<svg width="312pt" height="39pt"
 viewBox="0.00 0.00 312.00 39.00" xmlns="http://www.w3.org/2000/svg" xmlns:xlink="http://www.w3.org/1999/xlink">
<g id="graph0" class="graph" transform="scale(1 1) rotate(0) translate(4 35)">
<title>cimg_library_suffixed::CImg::CMYtoCMYK</title>
<polygon fill="#ffffff" stroke="transparent" points="-4,4 -4,-35 308,-35 308,4 -4,4"/>
<!-- Node621 -->
<g id="node1" class="node">
<title>Node621</title>
<polygon fill="#bfbfbf" stroke="#000000" points="0,-.5 0,-30.5 113,-30.5 113,-.5 0,-.5"/>
<text text-anchor="start" x="8" y="-18.5" font-family="Helvetica,sans-Serif" font-size="10.00" fill="#000000">cimg_library_suffixed</text>
<text text-anchor="middle" x="56.5" y="-7.5" font-family="Helvetica,sans-Serif" font-size="10.00" fill="#000000">::CImg::CMYtoCMYK</text>
</g>
<!-- Node622 -->
<g id="node2" class="node">
<title>Node622</title>
<g id="a_node2"><a xlink:href="structcimg__library__suffixed_1_1_c_img.html#aca59267634b4b06a8aa1d0fc95e1b2be" target="_top" xlink:title="Convert pixel values from RGB to CMYK color spaces. ">
<polygon fill="#ffffff" stroke="#000000" points="149,-.5 149,-30.5 304,-30.5 304,-.5 149,-.5"/>
<text text-anchor="start" x="157" y="-18.5" font-family="Helvetica,sans-Serif" font-size="10.00" fill="#000000">cimg_library_suffixed</text>
<text text-anchor="middle" x="226.5" y="-7.5" font-family="Helvetica,sans-Serif" font-size="10.00" fill="#000000">::CImg&lt; charT &gt;::RGBtoCMYK</text>
</a>
</g>
</g>
<!-- Node621&#45;&gt;Node622 -->
<g id="edge1" class="edge">
<title>Node621&#45;&gt;Node622</title>
<path fill="none" stroke="#191970" d="M123.2474,-15.5C131.682,-15.5 140.3683,-15.5 148.9525,-15.5"/>
<polygon fill="#191970" stroke="#191970" points="123.1076,-12.0001 113.1075,-15.5 123.1075,-19.0001 123.1076,-12.0001"/>
</g>
</g>
</svg>
