<?xml version="1.0" encoding="UTF-8" standalone="no"?>
<!DOCTYPE svg PUBLIC "-//W3C//DTD SVG 1.1//EN"
 "http://www.w3.org/Graphics/SVG/1.1/DTD/svg11.dtd">
<!-- Generated by graphviz version 2.40.1 (20161225.0304)
 -->
<!-- Title: cimg_library_suffixed::CImg::_cimg_math_parser::mp_gauss Pages: 1 -->
<svg width="458pt" height="88pt"
 viewBox="0.00 0.00 458.00 88.00" xmlns="http://www.w3.org/2000/svg" xmlns:xlink="http://www.w3.org/1999/xlink">
<g id="graph0" class="graph" transform="scale(1 1) rotate(0) translate(4 84)">
<title>cimg_library_suffixed::CImg::_cimg_math_parser::mp_gauss</title>
<polygon fill="#ffffff" stroke="transparent" points="-4,4 -4,-84 454,-84 454,4 -4,4"/>
<!-- Node470 -->
<g id="node1" class="node">
<title>Node470</title>
<polygon fill="#bfbfbf" stroke="#000000" points="0,-19 0,-60 138,-60 138,-19 0,-19"/>
<text text-anchor="start" x="8" y="-48" font-family="Helvetica,sans-Serif" font-size="10.00" fill="#000000">cimg_library_suffixed</text>
<text text-anchor="start" x="8" y="-37" font-family="Helvetica,sans-Serif" font-size="10.00" fill="#000000">::CImg::_cimg_math_parser</text>
<text text-anchor="middle" x="69" y="-26" font-family="Helvetica,sans-Serif" font-size="10.00" fill="#000000">::mp_gauss</text>
</g>
<!-- Node471 -->
<g id="node2" class="node">
<title>Node471</title>
<g id="a_node2"><a xlink:href="namespacecimg__library__suffixed.html#adc3a62a5832fe41a2a16023ba04c8e64" target="_top" xlink:title="cimg_library_suffixed::exp">
<polygon fill="#ffffff" stroke="#000000" points="174,-53 174,-72 305,-72 305,-53 174,-53"/>
<text text-anchor="middle" x="239.5" y="-60" font-family="Helvetica,sans-Serif" font-size="10.00" fill="#000000">cimg_library_suffixed::exp</text>
</a>
</g>
</g>
<!-- Node470&#45;&gt;Node471 -->
<g id="edge1" class="edge">
<title>Node470&#45;&gt;Node471</title>
<path fill="none" stroke="#191970" d="M138.3489,-48.855C146.6731,-49.9779 155.207,-51.1291 163.6178,-52.2637"/>
<polygon fill="#191970" stroke="#191970" points="163.4155,-55.768 173.7937,-53.6364 164.3514,-48.8309 163.4155,-55.768"/>
</g>
<!-- Node473 -->
<g id="node4" class="node">
<title>Node473</title>
<g id="a_node4"><a xlink:href="namespacecimg__library__suffixed.html#a00d0fd9a21d8d5e8a9fa4033593e6acf" target="_top" xlink:title="cimg_library_suffixed\l::sqrt">
<polygon fill="#ffffff" stroke="#000000" points="185,-2.5 185,-32.5 294,-32.5 294,-2.5 185,-2.5"/>
<text text-anchor="start" x="193" y="-20.5" font-family="Helvetica,sans-Serif" font-size="10.00" fill="#000000">cimg_library_suffixed</text>
<text text-anchor="middle" x="239.5" y="-9.5" font-family="Helvetica,sans-Serif" font-size="10.00" fill="#000000">::sqrt</text>
</a>
</g>
</g>
<!-- Node470&#45;&gt;Node473 -->
<g id="edge3" class="edge">
<title>Node470&#45;&gt;Node473</title>
<path fill="none" stroke="#191970" d="M138.3489,-30.5518C150.3285,-29.006 162.7424,-27.4042 174.5986,-25.8744"/>
<polygon fill="#191970" stroke="#191970" points="175.3794,-29.3027 184.8492,-24.5517 174.4835,-22.3603 175.3794,-29.3027"/>
</g>
<!-- Node472 -->
<g id="node3" class="node">
<title>Node472</title>
<g id="a_node3"><a xlink:href="structcimg__library__suffixed_1_1_c_img.html#a9025e6121a8da36b6213422347de4c12" target="_top" xlink:title="Compute the exponential of each pixel value . ">
<polygon fill="#ffffff" stroke="#000000" points="341,-49.5 341,-79.5 450,-79.5 450,-49.5 341,-49.5"/>
<text text-anchor="start" x="349" y="-67.5" font-family="Helvetica,sans-Serif" font-size="10.00" fill="#000000">cimg_library_suffixed</text>
<text text-anchor="middle" x="395.5" y="-56.5" font-family="Helvetica,sans-Serif" font-size="10.00" fill="#000000">::CImg::get_exp</text>
</a>
</g>
</g>
<!-- Node471&#45;&gt;Node472 -->
<g id="edge2" class="edge">
<title>Node471&#45;&gt;Node472</title>
<path fill="none" stroke="#191970" d="M305.2059,-63.3424C313.6122,-63.4502 322.2139,-63.5604 330.6071,-63.668"/>
<polygon fill="#191970" stroke="#191970" points="330.6704,-67.169 340.7145,-63.7976 330.7602,-60.1696 330.6704,-67.169"/>
</g>
<!-- Node474 -->
<g id="node5" class="node">
<title>Node474</title>
<g id="a_node5"><a xlink:href="structcimg__library__suffixed_1_1_c_img.html#a550cfc014f80c68359d3b55a0d3803b9" target="_top" xlink:title="Compute the square root of each pixel value . ">
<polygon fill="#ffffff" stroke="#000000" points="341,-.5 341,-30.5 450,-30.5 450,-.5 341,-.5"/>
<text text-anchor="start" x="349" y="-18.5" font-family="Helvetica,sans-Serif" font-size="10.00" fill="#000000">cimg_library_suffixed</text>
<text text-anchor="middle" x="395.5" y="-7.5" font-family="Helvetica,sans-Serif" font-size="10.00" fill="#000000">::CImg::get_sqrt</text>
</a>
</g>
</g>
<!-- Node473&#45;&gt;Node474 -->
<g id="edge4" class="edge">
<title>Node473&#45;&gt;Node474</title>
<path fill="none" stroke="#191970" d="M294.0612,-16.8005C305.9365,-16.6483 318.6108,-16.4858 330.8348,-16.329"/>
<polygon fill="#191970" stroke="#191970" points="331.0153,-19.8271 340.9696,-16.1991 330.9255,-12.8277 331.0153,-19.8271"/>
</g>
</g>
</svg>
