<?xml version="1.0" encoding="UTF-8" standalone="no"?>
<!DOCTYPE svg PUBLIC "-//W3C//DTD SVG 1.1//EN"
 "http://www.w3.org/Graphics/SVG/1.1/DTD/svg11.dtd">
<!-- Generated by graphviz version 2.40.1 (20161225.0304)
 -->
<!-- Title: cimg_library_suffixed::CImg::get_crop Pages: 1 -->
<svg width="291pt" height="330pt"
 viewBox="0.00 0.00 291.00 329.50" xmlns="http://www.w3.org/2000/svg" xmlns:xlink="http://www.w3.org/1999/xlink">
<g id="graph0" class="graph" transform="scale(1 1) rotate(0) translate(4 325.5)">
<title>cimg_library_suffixed::CImg::get_crop</title>
<polygon fill="#ffffff" stroke="transparent" points="-4,4 -4,-325.5 287,-325.5 287,4 -4,4"/>
<!-- Node1384 -->
<g id="node1" class="node">
<title>Node1384</title>
<polygon fill="#bfbfbf" stroke="#000000" points="0,-148 0,-178 109,-178 109,-148 0,-148"/>
<text text-anchor="start" x="8" y="-166" font-family="Helvetica,sans-Serif" font-size="10.00" fill="#000000">cimg_library_suffixed</text>
<text text-anchor="middle" x="54.5" y="-155" font-family="Helvetica,sans-Serif" font-size="10.00" fill="#000000">::CImg::get_crop</text>
</g>
<!-- Node1385 -->
<g id="node2" class="node">
<title>Node1385</title>
<g id="a_node2"><a xlink:href="structcimg__library__suffixed_1_1_c_img.html#ad9b7141242d0b6e861a8014112ddb5b5" target="_top" xlink:title="cimg_library_suffixed\l::CImg\&lt; charT \&gt;::_select">
<polygon fill="#ffffff" stroke="#000000" points="150.5,-291 150.5,-321 277.5,-321 277.5,-291 150.5,-291"/>
<text text-anchor="start" x="158.5" y="-309" font-family="Helvetica,sans-Serif" font-size="10.00" fill="#000000">cimg_library_suffixed</text>
<text text-anchor="middle" x="214" y="-298" font-family="Helvetica,sans-Serif" font-size="10.00" fill="#000000">::CImg&lt; charT &gt;::_select</text>
</a>
</g>
</g>
<!-- Node1384&#45;&gt;Node1385 -->
<g id="edge1" class="edge">
<title>Node1384&#45;&gt;Node1385</title>
<path fill="none" stroke="#191970" d="M67.4657,-187.2745C82.7503,-213.7551 110.4943,-255.7318 145,-281 150.2426,-284.8391 156.1349,-288.1408 162.2099,-290.9668"/>
<polygon fill="#191970" stroke="#191970" points="70.3603,-185.281 62.4088,-178.2792 64.2584,-188.7114 70.3603,-185.281"/>
</g>
<!-- Node1386 -->
<g id="node3" class="node">
<title>Node1386</title>
<g id="a_node3"><a xlink:href="structcimg__library__suffixed_1_1_c_img.html#a3a7a9e74dc09f2f79fcd3f605a2a9059" target="_top" xlink:title="Blur image using patch&#45;based space . ">
<polygon fill="#ffffff" stroke="#000000" points="159.5,-230.5 159.5,-271.5 268.5,-271.5 268.5,-230.5 159.5,-230.5"/>
<text text-anchor="start" x="167.5" y="-259.5" font-family="Helvetica,sans-Serif" font-size="10.00" fill="#000000">cimg_library_suffixed</text>
<text text-anchor="start" x="167.5" y="-248.5" font-family="Helvetica,sans-Serif" font-size="10.00" fill="#000000">::CImg&lt; charT &gt;::get</text>
<text text-anchor="middle" x="214" y="-237.5" font-family="Helvetica,sans-Serif" font-size="10.00" fill="#000000">_blur_patch</text>
</a>
</g>
</g>
<!-- Node1384&#45;&gt;Node1386 -->
<g id="edge2" class="edge">
<title>Node1384&#45;&gt;Node1386</title>
<path fill="none" stroke="#191970" d="M84.3988,-183.8749C101.6941,-195.5104 124.1082,-209.8557 145,-221 151.1084,-224.2584 157.645,-227.4535 164.1706,-230.4718"/>
<polygon fill="#191970" stroke="#191970" points="86.0943,-180.7953 75.8563,-178.0685 82.1593,-186.5846 86.0943,-180.7953"/>
</g>
<!-- Node1387 -->
<g id="node4" class="node">
<title>Node1387</title>
<g id="a_node4"><a xlink:href="structcimg__library__suffixed_1_1_c_img_list.html#a3783a9b4937b941920639a5c9c82011d" target="_top" xlink:title="Crop font along the X&#45;axis . ">
<polygon fill="#ffffff" stroke="#000000" points="158.5,-170.5 158.5,-211.5 269.5,-211.5 269.5,-170.5 158.5,-170.5"/>
<text text-anchor="start" x="166.5" y="-199.5" font-family="Helvetica,sans-Serif" font-size="10.00" fill="#000000">cimg_library_suffixed</text>
<text text-anchor="start" x="166.5" y="-188.5" font-family="Helvetica,sans-Serif" font-size="10.00" fill="#000000">::CImgList&lt; charT &gt;::</text>
<text text-anchor="middle" x="214" y="-177.5" font-family="Helvetica,sans-Serif" font-size="10.00" fill="#000000">get_crop_font</text>
</a>
</g>
</g>
<!-- Node1384&#45;&gt;Node1387 -->
<g id="edge3" class="edge">
<title>Node1384&#45;&gt;Node1387</title>
<path fill="none" stroke="#191970" d="M119.5947,-174.4273C132.4933,-176.6916 145.9215,-179.0489 158.4665,-181.2512"/>
<polygon fill="#191970" stroke="#191970" points="119.8454,-170.9179 109.3909,-172.636 118.635,-177.8124 119.8454,-170.9179"/>
</g>
<!-- Node1388 -->
<g id="node5" class="node">
<title>Node1388</title>
<g id="a_node5"><a xlink:href="structcimg__library__suffixed_1_1_c_img.html#a35d89112cc5ff251f8b134209cd222f0" target="_top" xlink:title="Compute Haar multiscale wavelet transform . ">
<polygon fill="#ffffff" stroke="#000000" points="147.5,-121 147.5,-151 280.5,-151 280.5,-121 147.5,-121"/>
<text text-anchor="start" x="155.5" y="-139" font-family="Helvetica,sans-Serif" font-size="10.00" fill="#000000">cimg_library_suffixed</text>
<text text-anchor="middle" x="214" y="-128" font-family="Helvetica,sans-Serif" font-size="10.00" fill="#000000">::CImg&lt; charT &gt;::get_haar</text>
</a>
</g>
</g>
<!-- Node1384&#45;&gt;Node1388 -->
<g id="edge4" class="edge">
<title>Node1384&#45;&gt;Node1388</title>
<path fill="none" stroke="#191970" d="M119.3161,-152.028C128.5869,-150.4586 138.1369,-148.842 147.4405,-147.2671"/>
<polygon fill="#191970" stroke="#191970" points="118.6664,-148.5881 109.3909,-153.7081 119.8348,-155.4899 118.6664,-148.5881"/>
</g>
<!-- Node1389 -->
<g id="node6" class="node">
<title>Node1389</title>
<g id="a_node6"><a xlink:href="structcimg__library__suffixed_1_1_c_img.html#a1d9a664dfe01342505a5256db9078b31" target="_top" xlink:title="Resize image to new dimensions . ">
<polygon fill="#ffffff" stroke="#000000" points="159.5,-60.5 159.5,-101.5 268.5,-101.5 268.5,-60.5 159.5,-60.5"/>
<text text-anchor="start" x="167.5" y="-89.5" font-family="Helvetica,sans-Serif" font-size="10.00" fill="#000000">cimg_library_suffixed</text>
<text text-anchor="start" x="167.5" y="-78.5" font-family="Helvetica,sans-Serif" font-size="10.00" fill="#000000">::CImg&lt; charT &gt;::get</text>
<text text-anchor="middle" x="214" y="-67.5" font-family="Helvetica,sans-Serif" font-size="10.00" fill="#000000">_resize</text>
</a>
</g>
</g>
<!-- Node1384&#45;&gt;Node1389 -->
<g id="edge5" class="edge">
<title>Node1384&#45;&gt;Node1389</title>
<path fill="none" stroke="#191970" d="M88.7899,-142.7045C105.5447,-133.0387 126.1201,-121.5361 145,-112 151.9161,-108.5067 159.3093,-104.977 166.5923,-101.6133"/>
<polygon fill="#191970" stroke="#191970" points="86.7997,-139.8128 79.9097,-147.8612 90.315,-145.8661 86.7997,-139.8128"/>
</g>
<!-- Node1390 -->
<g id="node7" class="node">
<title>Node1390</title>
<g id="a_node7"><a xlink:href="structcimg__library__suffixed_1_1_c_img_1_1__cimg__math__parser.html#a6c9408c39e082e33b6443d279b6af502" target="_top" xlink:title="cimg_library_suffixed\l::CImg::_cimg_math_parser\l::mp_crop">
<polygon fill="#ffffff" stroke="#000000" points="145,-.5 145,-41.5 283,-41.5 283,-.5 145,-.5"/>
<text text-anchor="start" x="153" y="-29.5" font-family="Helvetica,sans-Serif" font-size="10.00" fill="#000000">cimg_library_suffixed</text>
<text text-anchor="start" x="153" y="-18.5" font-family="Helvetica,sans-Serif" font-size="10.00" fill="#000000">::CImg::_cimg_math_parser</text>
<text text-anchor="middle" x="214" y="-7.5" font-family="Helvetica,sans-Serif" font-size="10.00" fill="#000000">::mp_crop</text>
</a>
</g>
</g>
<!-- Node1384&#45;&gt;Node1390 -->
<g id="edge6" class="edge">
<title>Node1384&#45;&gt;Node1390</title>
<path fill="none" stroke="#191970" d="M68.8207,-139.161C84.7583,-114.3312 112.5801,-75.6791 145,-51 149.4693,-47.5979 154.3839,-44.4922 159.4681,-41.6794"/>
<polygon fill="#191970" stroke="#191970" points="65.8551,-137.3022 63.5001,-147.632 71.7828,-141.0254 65.8551,-137.3022"/>
</g>
</g>
</svg>
