<?xml version="1.0" encoding="UTF-8" standalone="no"?>
<!DOCTYPE svg PUBLIC "-//W3C//DTD SVG 1.1//EN"
 "http://www.w3.org/Graphics/SVG/1.1/DTD/svg11.dtd">
<!-- Generated by graphviz version 2.40.1 (20161225.0304)
 -->
<!-- Title: cimg_library_suffixed::CImgDisplay::title Pages: 1 -->
<svg width="284pt" height="100pt"
 viewBox="0.00 0.00 284.00 99.50" xmlns="http://www.w3.org/2000/svg" xmlns:xlink="http://www.w3.org/1999/xlink">
<g id="graph0" class="graph" transform="scale(1 1) rotate(0) translate(4 95.5)">
<title>cimg_library_suffixed::CImgDisplay::title</title>
<polygon fill="#ffffff" stroke="transparent" points="-4,4 -4,-95.5 280,-95.5 280,4 -4,4"/>
<!-- Node572 -->
<g id="node1" class="node">
<title>Node572</title>
<polygon fill="#bfbfbf" stroke="#000000" points="0,-33 0,-63 109,-63 109,-33 0,-33"/>
<text text-anchor="start" x="8" y="-51" font-family="Helvetica,sans-Serif" font-size="10.00" fill="#000000">cimg_library_suffixed</text>
<text text-anchor="middle" x="54.5" y="-40" font-family="Helvetica,sans-Serif" font-size="10.00" fill="#000000">::CImgDisplay::title</text>
</g>
<!-- Node573 -->
<g id="node2" class="node">
<title>Node573</title>
<g id="a_node2"><a xlink:href="structcimg__library__suffixed_1_1_c_img.html#adf9d80c60e82b079056c31cb0fe61faf" target="_top" xlink:title="cimg_library_suffixed\l::CImg\&lt; charT \&gt;::_display">
<polygon fill="#ffffff" stroke="#000000" points="145,-61 145,-91 276,-91 276,-61 145,-61"/>
<text text-anchor="start" x="153" y="-79" font-family="Helvetica,sans-Serif" font-size="10.00" fill="#000000">cimg_library_suffixed</text>
<text text-anchor="middle" x="210.5" y="-68" font-family="Helvetica,sans-Serif" font-size="10.00" fill="#000000">::CImg&lt; charT &gt;::_display</text>
</a>
</g>
</g>
<!-- Node572&#45;&gt;Node573 -->
<g id="edge1" class="edge">
<title>Node572&#45;&gt;Node573</title>
<path fill="none" stroke="#191970" d="M119.002,-59.5773C127.5799,-61.1169 136.3826,-62.6969 144.9777,-64.2396"/>
<polygon fill="#191970" stroke="#191970" points="119.5223,-56.1148 109.0612,-57.793 118.2856,-63.0047 119.5223,-56.1148"/>
</g>
<!-- Node574 -->
<g id="node3" class="node">
<title>Node574</title>
<g id="a_node3"><a xlink:href="structcimg__library__suffixed_1_1_c_img_list.html#af514efa37d021bd02a95186531139a38" target="_top" xlink:title="cimg_library_suffixed\l::CImgList\&lt; charT \&gt;::\l_display">
<polygon fill="#ffffff" stroke="#000000" points="155,-.5 155,-41.5 266,-41.5 266,-.5 155,-.5"/>
<text text-anchor="start" x="163" y="-29.5" font-family="Helvetica,sans-Serif" font-size="10.00" fill="#000000">cimg_library_suffixed</text>
<text text-anchor="start" x="163" y="-18.5" font-family="Helvetica,sans-Serif" font-size="10.00" fill="#000000">::CImgList&lt; charT &gt;::</text>
<text text-anchor="middle" x="210.5" y="-7.5" font-family="Helvetica,sans-Serif" font-size="10.00" fill="#000000">_display</text>
</a>
</g>
</g>
<!-- Node572&#45;&gt;Node574 -->
<g id="edge2" class="edge">
<title>Node572&#45;&gt;Node574</title>
<path fill="none" stroke="#191970" d="M118.9596,-36.8435C130.896,-34.7776 143.2688,-32.6362 154.9133,-30.6208"/>
<polygon fill="#191970" stroke="#191970" points="118.3178,-33.4025 109.0612,-38.5567 119.5117,-40.2999 118.3178,-33.4025"/>
</g>
</g>
</svg>
