<?xml version="1.0" encoding="UTF-8" standalone="no"?>
<!DOCTYPE svg PUBLIC "-//W3C//DTD SVG 1.1//EN"
 "http://www.w3.org/Graphics/SVG/1.1/DTD/svg11.dtd">
<!-- Generated by graphviz version 2.40.1 (20161225.0304)
 -->
<!-- Title: cimg_library_suffixed::CImg::print Pages: 1 -->
<svg width="291pt" height="100pt"
 viewBox="0.00 0.00 291.00 99.50" xmlns="http://www.w3.org/2000/svg" xmlns:xlink="http://www.w3.org/1999/xlink">
<g id="graph0" class="graph" transform="scale(1 1) rotate(0) translate(4 95.5)">
<title>cimg_library_suffixed::CImg::print</title>
<polygon fill="#ffffff" stroke="transparent" points="-4,4 -4,-95.5 287,-95.5 287,4 -4,4"/>
<!-- Node2869 -->
<g id="node1" class="node">
<title>Node2869</title>
<polygon fill="#bfbfbf" stroke="#000000" points="0,-27.5 0,-57.5 109,-57.5 109,-27.5 0,-27.5"/>
<text text-anchor="start" x="8" y="-45.5" font-family="Helvetica,sans-Serif" font-size="10.00" fill="#000000">cimg_library_suffixed</text>
<text text-anchor="middle" x="54.5" y="-34.5" font-family="Helvetica,sans-Serif" font-size="10.00" fill="#000000">::CImg::print</text>
</g>
<!-- Node2870 -->
<g id="node2" class="node">
<title>Node2870</title>
<g id="a_node2"><a xlink:href="structcimg__library__suffixed_1_1_c_img_1_1__cimg__math__parser.html#accadb0cbf6248cad3cc6985a8325df20" target="_top" xlink:title="cimg_library_suffixed\l::CImg::_cimg_math_parser\l::mp_image_print">
<polygon fill="#ffffff" stroke="#000000" points="145,-50 145,-91 283,-91 283,-50 145,-50"/>
<text text-anchor="start" x="153" y="-79" font-family="Helvetica,sans-Serif" font-size="10.00" fill="#000000">cimg_library_suffixed</text>
<text text-anchor="start" x="153" y="-68" font-family="Helvetica,sans-Serif" font-size="10.00" fill="#000000">::CImg::_cimg_math_parser</text>
<text text-anchor="middle" x="214" y="-57" font-family="Helvetica,sans-Serif" font-size="10.00" fill="#000000">::mp_image_print</text>
</a>
</g>
</g>
<!-- Node2869&#45;&gt;Node2870 -->
<g id="edge1" class="edge">
<title>Node2869&#45;&gt;Node2870</title>
<path fill="none" stroke="#191970" d="M119.4793,-53.907C127.8632,-55.3788 136.4728,-56.8902 144.9198,-58.3731"/>
<polygon fill="#191970" stroke="#191970" points="119.8454,-50.4179 109.3909,-52.136 118.635,-57.3124 119.8454,-50.4179"/>
</g>
<!-- Node2871 -->
<g id="node3" class="node">
<title>Node2871</title>
<g id="a_node3"><a xlink:href="structcimg__library__suffixed_1_1_c_img_list.html#a2ad854dec4e99ffe2db1bf551ac388b6" target="_top" xlink:title="Print information about the list on the standard output. ">
<polygon fill="#ffffff" stroke="#000000" points="149,-.5 149,-30.5 279,-30.5 279,-.5 149,-.5"/>
<text text-anchor="start" x="157" y="-18.5" font-family="Helvetica,sans-Serif" font-size="10.00" fill="#000000">cimg_library_suffixed</text>
<text text-anchor="middle" x="214" y="-7.5" font-family="Helvetica,sans-Serif" font-size="10.00" fill="#000000">::CImgList&lt; charT &gt;::print</text>
</a>
</g>
</g>
<!-- Node2869&#45;&gt;Node2871 -->
<g id="edge2" class="edge">
<title>Node2869&#45;&gt;Node2871</title>
<path fill="none" stroke="#191970" d="M119.3792,-31.5173C129.0944,-29.8727 139.1148,-28.1765 148.8359,-26.5309"/>
<polygon fill="#191970" stroke="#191970" points="118.6664,-28.0881 109.3909,-33.2081 119.8348,-34.9899 118.6664,-28.0881"/>
</g>
</g>
</svg>
