<?xml version="1.0" encoding="UTF-8" standalone="no"?>
<!DOCTYPE svg PUBLIC "-//W3C//DTD SVG 1.1//EN"
 "http://www.w3.org/Graphics/SVG/1.1/DTD/svg11.dtd">
<!-- Generated by graphviz version 2.40.1 (20161225.0304)
 -->
<!-- Title: cimg_library_suffixed::CImg::_cimg_math_parser::mp_stov Pages: 1 -->
<!--zoomable 137 -->
<svg id="main" version="1.1" xmlns="http://www.w3.org/2000/svg" xmlns:xlink="http://www.w3.org/1999/xlink" xml:space="preserve" onload="init(evt)">
<style type="text/css"><![CDATA[
.edge:hover path { stroke: red; }
.edge:hover polygon { stroke: red; fill: red; }
]]></style>
<script type="text/javascript"><![CDATA[
var edges = document.getElementsByTagName('g');
if (edges && edges.length) {
  for (var i=0;i<edges.length;i++) {
    if (edges[i].id.substr(0,4)=='edge') {
      edges[i].setAttribute('class','edge');
    }
  }
}
]]></script>
        <defs>
                <circle id="rim" cx="0" cy="0" r="7"/>
                <circle id="rim2" cx="0" cy="0" r="3.5"/>
                <g id="zoomPlus">
                        <use xlink:href="#rim" fill="#404040">
                                <set attributeName="fill" to="#808080" begin="zoomplus.mouseover" end="zoomplus.mouseout"/>
                        </use>
                        <path d="M-4,0h8M0,-4v8" fill="none" stroke="white" stroke-width="1.5" pointer-events="none"/>
                </g>
                <g id="zoomMin">
                        <use xlink:href="#rim" fill="#404040">
                                <set attributeName="fill" to="#808080" begin="zoomminus.mouseover" end="zoomminus.mouseout"/>
                        </use>
                        <path d="M-4,0h8" fill="none" stroke="white" stroke-width="1.5" pointer-events="none"/>
                </g>
                <g id="dirArrow">
                        <path fill="none" stroke="white" stroke-width="1.5" d="M0,-3.0v7 M-2.5,-0.5L0,-3.0L2.5,-0.5"/>
                </g>
               <g id="resetDef">
                       <use xlink:href="#rim2" fill="#404040">
                               <set attributeName="fill" to="#808080" begin="reset.mouseover" end="reset.mouseout"/>
                       </use>
               </g>
        </defs>

<script type="text/javascript">
var viewWidth = 581;
var viewHeight = 137;
var sectionId = 'dynsection-154';
</script>
<script xlink:href="svgpan.js"/>
<svg id="graph" class="graph">
<g id="viewport">
<title>cimg_library_suffixed::CImg::_cimg_math_parser::mp_stov</title>
<polygon fill="#ffffff" stroke="transparent" points="-4,4 -4,-133 577,-133 577,4 -4,4"/>
<!-- Node1126 -->
<g id="node1" class="node">
<title>Node1126</title>
<polygon fill="#bfbfbf" stroke="#000000" points="0,-44 0,-85 138,-85 138,-44 0,-44"/>
<text text-anchor="start" x="8" y="-73" font-family="Helvetica,sans-Serif" font-size="10.00" fill="#000000">cimg_library_suffixed</text>
<text text-anchor="start" x="8" y="-62" font-family="Helvetica,sans-Serif" font-size="10.00" fill="#000000">::CImg::_cimg_math_parser</text>
<text text-anchor="middle" x="69" y="-51" font-family="Helvetica,sans-Serif" font-size="10.00" fill="#000000">::mp_stov</text>
</g>
<!-- Node1127 -->
<g id="node2" class="node">
<title>Node1127</title>
<g id="a_node2"><a xlink:href="structcimg__library__suffixed_1_1_c_img.html#a17a3c105772f6401fd631d0d82a59d65" target="_top" xlink:title="Return a reference to the last pixel value. ">
<polygon fill="#ffffff" stroke="#000000" points="174,-98.5 174,-128.5 283,-128.5 283,-98.5 174,-98.5"/>
<text text-anchor="start" x="182" y="-116.5" font-family="Helvetica,sans-Serif" font-size="10.00" fill="#000000">cimg_library_suffixed</text>
<text text-anchor="middle" x="228.5" y="-105.5" font-family="Helvetica,sans-Serif" font-size="10.00" fill="#000000">::CImg::back</text>
</a>
</g>
</g>
<!-- Node1126&#45;&gt;Node1127 -->
<g id="edge1" class="edge">
<title>Node1126&#45;&gt;Node1127</title>
<path fill="none" stroke="#191970" d="M136.1801,-85.1384C147.2612,-88.5426 158.6745,-92.0489 169.5349,-95.3853"/>
<polygon fill="#191970" stroke="#191970" points="168.741,-98.8028 179.328,-98.3939 170.7967,-92.1115 168.741,-98.8028"/>
</g>
<!-- Node1128 -->
<g id="node3" class="node">
<title>Node1128</title>
<g id="a_node3"><a xlink:href="structcimg__library__suffixed_1_1cimg_1_1type.html#ac818c4773392cc85c58676270d752f90" target="_top" xlink:title="cimg_library_suffixed\l::cimg::type::inf">
<polygon fill="#ffffff" stroke="#000000" points="174,-49.5 174,-79.5 283,-79.5 283,-49.5 174,-49.5"/>
<text text-anchor="start" x="182" y="-67.5" font-family="Helvetica,sans-Serif" font-size="10.00" fill="#000000">cimg_library_suffixed</text>
<text text-anchor="middle" x="228.5" y="-56.5" font-family="Helvetica,sans-Serif" font-size="10.00" fill="#000000">::cimg::type::inf</text>
</a>
</g>
</g>
<!-- Node1126&#45;&gt;Node1128 -->
<g id="edge2" class="edge">
<title>Node1126&#45;&gt;Node1128</title>
<path fill="none" stroke="#191970" d="M138.0314,-64.5C146.5309,-64.5 155.1959,-64.5 163.6306,-64.5"/>
<polygon fill="#191970" stroke="#191970" points="163.7783,-68.0001 173.7783,-64.5 163.7782,-61.0001 163.7783,-68.0001"/>
</g>
<!-- Node1131 -->
<g id="node6" class="node">
<title>Node1131</title>
<g id="a_node6"><a xlink:href="namespacecimg__library__suffixed_1_1cimg.html#a1c34609cc6fef6f5fe5ffb2f69ad7989" target="_top" xlink:title="Compare two C&#45;strings, ignoring the case. ">
<polygon fill="#ffffff" stroke="#000000" points="174,-.5 174,-30.5 283,-30.5 283,-.5 174,-.5"/>
<text text-anchor="start" x="182" y="-18.5" font-family="Helvetica,sans-Serif" font-size="10.00" fill="#000000">cimg_library_suffixed</text>
<text text-anchor="middle" x="228.5" y="-7.5" font-family="Helvetica,sans-Serif" font-size="10.00" fill="#000000">::cimg::strcasecmp</text>
</a>
</g>
</g>
<!-- Node1126&#45;&gt;Node1131 -->
<g id="edge5" class="edge">
<title>Node1126&#45;&gt;Node1131</title>
<path fill="none" stroke="#191970" d="M136.1801,-43.8616C147.2612,-40.4574 158.6745,-36.9511 169.5349,-33.6147"/>
<polygon fill="#191970" stroke="#191970" points="170.7967,-36.8885 179.328,-30.6061 168.741,-30.1972 170.7967,-36.8885"/>
</g>
<!-- Node1129 -->
<g id="node4" class="node">
<title>Node1129</title>
<g id="a_node4"><a xlink:href="namespacecimg__library__suffixed_1_1cimg.html#aae5df5731fe5a367cec402071108c11c" target="_top" xlink:title="Return the maximum between three values. ">
<polygon fill="#ffffff" stroke="#000000" points="319,-49.5 319,-79.5 428,-79.5 428,-49.5 319,-49.5"/>
<text text-anchor="start" x="327" y="-67.5" font-family="Helvetica,sans-Serif" font-size="10.00" fill="#000000">cimg_library_suffixed</text>
<text text-anchor="middle" x="373.5" y="-56.5" font-family="Helvetica,sans-Serif" font-size="10.00" fill="#000000">::cimg::max</text>
</a>
</g>
</g>
<!-- Node1128&#45;&gt;Node1129 -->
<g id="edge3" class="edge">
<title>Node1128&#45;&gt;Node1129</title>
<path fill="none" stroke="#191970" d="M283.3183,-64.5C291.5286,-64.5 300.0611,-64.5 308.4586,-64.5"/>
<polygon fill="#191970" stroke="#191970" points="308.6042,-68.0001 318.6042,-64.5 308.6042,-61.0001 308.6042,-68.0001"/>
</g>
<!-- Node1130 -->
<g id="node5" class="node">
<title>Node1130</title>
<g id="a_node5"><a xlink:href="namespacecimg__library__suffixed_1_1cimg.html#a4b4cabc621d732787bca13016ea8026a" target="_top" xlink:title="Return the maximum between four values. ">
<polygon fill="#ffffff" stroke="#000000" points="464,-49.5 464,-79.5 573,-79.5 573,-49.5 464,-49.5"/>
<text text-anchor="start" x="472" y="-67.5" font-family="Helvetica,sans-Serif" font-size="10.00" fill="#000000">cimg_library_suffixed</text>
<text text-anchor="middle" x="518.5" y="-56.5" font-family="Helvetica,sans-Serif" font-size="10.00" fill="#000000">::cimg::max</text>
</a>
</g>
</g>
<!-- Node1129&#45;&gt;Node1130 -->
<g id="edge4" class="edge">
<title>Node1129&#45;&gt;Node1130</title>
<path fill="none" stroke="#191970" d="M428.3183,-64.5C436.5286,-64.5 445.0611,-64.5 453.4586,-64.5"/>
<polygon fill="#191970" stroke="#191970" points="453.6042,-68.0001 463.6042,-64.5 453.6042,-61.0001 453.6042,-68.0001"/>
</g>
<!-- Node1132 -->
<g id="node7" class="node">
<title>Node1132</title>
<g id="a_node7"><a xlink:href="namespacecimg__library__suffixed_1_1cimg.html#a1304046a29511fe0a015173e46607229" target="_top" xlink:title="Compare the first l characters of two C&#45;strings, ignoring the case. ">
<polygon fill="#ffffff" stroke="#000000" points="319,-.5 319,-30.5 428,-30.5 428,-.5 319,-.5"/>
<text text-anchor="start" x="327" y="-18.5" font-family="Helvetica,sans-Serif" font-size="10.00" fill="#000000">cimg_library_suffixed</text>
<text text-anchor="middle" x="373.5" y="-7.5" font-family="Helvetica,sans-Serif" font-size="10.00" fill="#000000">::cimg::strncasecmp</text>
</a>
</g>
</g>
<!-- Node1131&#45;&gt;Node1132 -->
<g id="edge6" class="edge">
<title>Node1131&#45;&gt;Node1132</title>
<path fill="none" stroke="#191970" d="M283.3183,-15.5C291.5286,-15.5 300.0611,-15.5 308.4586,-15.5"/>
<polygon fill="#191970" stroke="#191970" points="308.6042,-19.0001 318.6042,-15.5 308.6042,-12.0001 308.6042,-19.0001"/>
</g>
<!-- Node1133 -->
<g id="node8" class="node">
<title>Node1133</title>
<g id="a_node8"><a xlink:href="namespacecimg__library__suffixed_1_1cimg.html#ac9cf8d2a803d13d85e7fcc48fee55587" target="_top" xlink:title="Convert ascii character to lower case. ">
<polygon fill="#ffffff" stroke="#000000" points="464,-.5 464,-30.5 573,-30.5 573,-.5 464,-.5"/>
<text text-anchor="start" x="472" y="-18.5" font-family="Helvetica,sans-Serif" font-size="10.00" fill="#000000">cimg_library_suffixed</text>
<text text-anchor="middle" x="518.5" y="-7.5" font-family="Helvetica,sans-Serif" font-size="10.00" fill="#000000">::cimg::lowercase</text>
</a>
</g>
</g>
<!-- Node1132&#45;&gt;Node1133 -->
<g id="edge7" class="edge">
<title>Node1132&#45;&gt;Node1133</title>
<path fill="none" stroke="#191970" d="M428.3183,-15.5C436.5286,-15.5 445.0611,-15.5 453.4586,-15.5"/>
<polygon fill="#191970" stroke="#191970" points="453.6042,-19.0001 463.6042,-15.5 453.6042,-12.0001 453.6042,-19.0001"/>
</g>
</g>
</svg>
        <g id="navigator" transform="translate(0 0)" fill="#404254">
                <rect fill="#f2f5e9" fill-opacity="0.5" stroke="#606060" stroke-width=".5" x="0" y="0" width="60" height="60"/>
                <use id="zoomplus" xlink:href="#zoomPlus" x="17" y="9" onmousedown="handleZoom(evt,'in')"/>
                <use id="zoomminus" xlink:href="#zoomMin" x="42" y="9" onmousedown="handleZoom(evt,'out')"/>
                <use id="reset" xlink:href="#resetDef" x="30" y="36" onmousedown="handleReset()"/>
                <g id="arrowUp" xlink:href="#dirArrow" transform="translate(30 24)" onmousedown="handlePan(0,-1)">
                  <use xlink:href="#rim" fill="#404040">
                        <set attributeName="fill" to="#808080" begin="arrowUp.mouseover" end="arrowUp.mouseout"/>
                  </use>
                  <path fill="none" stroke="white" stroke-width="1.5" d="M0,-3.0v7 M-2.5,-0.5L0,-3.0L2.5,-0.5"/>
                </g>
                <g id="arrowRight" xlink:href="#dirArrow" transform="rotate(90) translate(36 -43)" onmousedown="handlePan(1,0)">
                  <use xlink:href="#rim" fill="#404040">
                        <set attributeName="fill" to="#808080" begin="arrowRight.mouseover" end="arrowRight.mouseout"/>
                  </use>
                  <path fill="none" stroke="white" stroke-width="1.5" d="M0,-3.0v7 M-2.5,-0.5L0,-3.0L2.5,-0.5"/>
                </g>
                <g id="arrowDown" xlink:href="#dirArrow" transform="rotate(180) translate(-30 -48)" onmousedown="handlePan(0,1)">
                  <use xlink:href="#rim" fill="#404040">
                        <set attributeName="fill" to="#808080" begin="arrowDown.mouseover" end="arrowDown.mouseout"/>
                  </use>
                  <path fill="none" stroke="white" stroke-width="1.5" d="M0,-3.0v7 M-2.5,-0.5L0,-3.0L2.5,-0.5"/>
                </g>
                <g id="arrowLeft" xlink:href="#dirArrow" transform="rotate(270) translate(-36 17)" onmousedown="handlePan(-1,0)">
                  <use xlink:href="#rim" fill="#404040">
                        <set attributeName="fill" to="#808080" begin="arrowLeft.mouseover" end="arrowLeft.mouseout"/>
                  </use>
                  <path fill="none" stroke="white" stroke-width="1.5" d="M0,-3.0v7 M-2.5,-0.5L0,-3.0L2.5,-0.5"/>
                </g>
        </g>
        <svg viewBox="0 0 15 15" width="100%" height="30px" preserveAspectRatio="xMaxYMin meet">
         <g id="arrow_out" transform="scale(0.3 0.3)">
          <a xlink:href="structcimg__library__suffixed_1_1_c_img_1_1__cimg__math__parser_aee12d443bb77c1a9e08f712491bf90c5_cgraph_org.svg" target="_base">
           <rect id="button" ry="5" rx="5" y="6" x="6" height="38" width="38"
                fill="#f2f5e9" fill-opacity="0.5" stroke="#606060" stroke-width="1.0"/>
           <path id="arrow"
             d="M 11.500037,31.436501 C 11.940474,20.09759 22.043105,11.32322 32.158766,21.979434 L 37.068811,17.246167 C 37.068811,17.246167 37.088388,32 37.088388,32 L 22.160133,31.978069 C 22.160133,31.978069 26.997745,27.140456 26.997745,27.140456 C 18.528582,18.264221 13.291696,25.230495 11.500037,31.436501 z"
             style="fill:#404040;"/>
          </a>
         </g>
        </svg>
</svg>
