<?xml version="1.0" encoding="UTF-8" standalone="no"?>
<!DOCTYPE svg PUBLIC "-//W3C//DTD SVG 1.1//EN"
 "http://www.w3.org/Graphics/SVG/1.1/DTD/svg11.dtd">
<!-- Generated by graphviz version 2.40.1 (20161225.0304)
 -->
<!-- Title: cimg_library_suffixed::CImg::get_split Pages: 1 -->
<svg width="630pt" height="1390pt"
 viewBox="0.00 0.00 630.00 1389.50" xmlns="http://www.w3.org/2000/svg" xmlns:xlink="http://www.w3.org/1999/xlink">
<g id="graph0" class="graph" transform="scale(1 1) rotate(0) translate(4 1385.5)">
<title>cimg_library_suffixed::CImg::get_split</title>
<polygon fill="#ffffff" stroke="transparent" points="-4,4 -4,-1385.5 626,-1385.5 626,4 -4,4"/>
<!-- Node1972 -->
<g id="node1" class="node">
<title>Node1972</title>
<polygon fill="#bfbfbf" stroke="#000000" points="0,-668 0,-698 109,-698 109,-668 0,-668"/>
<text text-anchor="start" x="8" y="-686" font-family="Helvetica,sans-Serif" font-size="10.00" fill="#000000">cimg_library_suffixed</text>
<text text-anchor="middle" x="54.5" y="-675" font-family="Helvetica,sans-Serif" font-size="10.00" fill="#000000">::CImg::get_split</text>
</g>
<!-- Node1973 -->
<g id="node2" class="node">
<title>Node1973</title>
<g id="a_node2"><a xlink:href="structcimg__library__suffixed_1_1_c_img_list.html#aeb4a6463a473fa5935f69534ca1a49c8" target="_top" xlink:title="Return a CImg pre&#45;defined font with desired size. ">
<polygon fill="#ffffff" stroke="#000000" points="145,-717 145,-747 273,-747 273,-717 145,-717"/>
<text text-anchor="start" x="153" y="-735" font-family="Helvetica,sans-Serif" font-size="10.00" fill="#000000">cimg_library_suffixed</text>
<text text-anchor="middle" x="209" y="-724" font-family="Helvetica,sans-Serif" font-size="10.00" fill="#000000">::CImgList&lt; charT &gt;::font</text>
</a>
</g>
</g>
<!-- Node1972&#45;&gt;Node1973 -->
<g id="edge1" class="edge">
<title>Node1972&#45;&gt;Node1973</title>
<path fill="none" stroke="#191970" d="M112.072,-701.2591C128.3676,-706.4273 145.9149,-711.9924 161.5415,-716.9484"/>
<polygon fill="#191970" stroke="#191970" points="112.706,-697.7884 102.1158,-698.1014 110.5897,-704.4609 112.706,-697.7884"/>
</g>
<!-- Node1974 -->
<g id="node3" class="node">
<title>Node1974</title>
<g id="a_node3"><a xlink:href="namespacecimg__library__suffixed_1_1cimg.html#a56c2dbfe99d9f6e6bc1be9d03b0ddaaa" target="_top" xlink:title="Try to guess format from an image file. ">
<polygon fill="#ffffff" stroke="#000000" points="154.5,-668 154.5,-698 263.5,-698 263.5,-668 154.5,-668"/>
<text text-anchor="start" x="162.5" y="-686" font-family="Helvetica,sans-Serif" font-size="10.00" fill="#000000">cimg_library_suffixed</text>
<text text-anchor="middle" x="209" y="-675" font-family="Helvetica,sans-Serif" font-size="10.00" fill="#000000">::cimg::ftype</text>
</a>
</g>
</g>
<!-- Node1972&#45;&gt;Node1974 -->
<g id="edge2" class="edge">
<title>Node1972&#45;&gt;Node1974</title>
<path fill="none" stroke="#191970" d="M119.4615,-683C131.0456,-683 143.0082,-683 154.2709,-683"/>
<polygon fill="#191970" stroke="#191970" points="119.406,-679.5001 109.4059,-683 119.4059,-686.5001 119.406,-679.5001"/>
</g>
<!-- Node2004 -->
<g id="node33" class="node">
<title>Node2004</title>
<g id="a_node33"><a xlink:href="structcimg__library__suffixed_1_1_c_img_list.html#acd40eb1c5e564dbc31a65e149e094988" target="_top" xlink:title="Return a list where each image has been split along the specified axis . ">
<polygon fill="#ffffff" stroke="#000000" points="153.5,-607.5 153.5,-648.5 264.5,-648.5 264.5,-607.5 153.5,-607.5"/>
<text text-anchor="start" x="161.5" y="-636.5" font-family="Helvetica,sans-Serif" font-size="10.00" fill="#000000">cimg_library_suffixed</text>
<text text-anchor="start" x="161.5" y="-625.5" font-family="Helvetica,sans-Serif" font-size="10.00" fill="#000000">::CImgList&lt; charT &gt;::</text>
<text text-anchor="middle" x="209" y="-614.5" font-family="Helvetica,sans-Serif" font-size="10.00" fill="#000000">get_split</text>
</a>
</g>
</g>
<!-- Node1972&#45;&gt;Node2004 -->
<g id="edge32" class="edge">
<title>Node1972&#45;&gt;Node2004</title>
<path fill="none" stroke="#191970" d="M106.4244,-664.5156C121.5579,-659.1283 138.1495,-653.2219 153.4948,-647.7591"/>
<polygon fill="#191970" stroke="#191970" points="104.9649,-661.3199 96.7178,-667.971 107.3125,-667.9145 104.9649,-661.3199"/>
</g>
<!-- Node1975 -->
<g id="node4" class="node">
<title>Node1975</title>
<g id="a_node4"><a xlink:href="namespacecimg__library__suffixed_1_1cimg.html#a0f3577978081461118330fc3ecd4b9db" target="_top" xlink:title="Create an empty file. ">
<polygon fill="#ffffff" stroke="#000000" points="319,-717 319,-747 428,-747 428,-717 319,-717"/>
<text text-anchor="start" x="327" y="-735" font-family="Helvetica,sans-Serif" font-size="10.00" fill="#000000">cimg_library_suffixed</text>
<text text-anchor="middle" x="373.5" y="-724" font-family="Helvetica,sans-Serif" font-size="10.00" fill="#000000">::cimg::fempty</text>
</a>
</g>
</g>
<!-- Node1974&#45;&gt;Node1975 -->
<g id="edge3" class="edge">
<title>Node1974&#45;&gt;Node1975</title>
<path fill="none" stroke="#191970" d="M269.3177,-700.967C286.9429,-706.217 306.0178,-711.8989 322.9697,-716.9484"/>
<polygon fill="#191970" stroke="#191970" points="270.2807,-697.6019 259.6977,-698.1014 268.2824,-704.3106 270.2807,-697.6019"/>
</g>
<!-- Node2002 -->
<g id="node31" class="node">
<title>Node2002</title>
<g id="a_node31"><a xlink:href="structcimg__library__suffixed_1_1_c_img.html#ae8353b28bfbc5c4421c7adfbb98fe32f" target="_top" xlink:title="Load image from a file. ">
<polygon fill="#ffffff" stroke="#000000" points="317,-668 317,-698 430,-698 430,-668 317,-668"/>
<text text-anchor="start" x="325" y="-686" font-family="Helvetica,sans-Serif" font-size="10.00" fill="#000000">cimg_library_suffixed</text>
<text text-anchor="middle" x="373.5" y="-675" font-family="Helvetica,sans-Serif" font-size="10.00" fill="#000000">::CImg&lt; charT &gt;::load</text>
</a>
</g>
</g>
<!-- Node1974&#45;&gt;Node2002 -->
<g id="edge30" class="edge">
<title>Node1974&#45;&gt;Node2002</title>
<path fill="none" stroke="#191970" d="M273.977,-683C288.1967,-683 303.1377,-683 316.9945,-683"/>
<polygon fill="#191970" stroke="#191970" points="273.7762,-679.5001 263.7761,-683 273.7761,-686.5001 273.7762,-679.5001"/>
</g>
<!-- Node2003 -->
<g id="node32" class="node">
<title>Node2003</title>
<g id="a_node32"><a xlink:href="structcimg__library__suffixed_1_1_c_img_list.html#a63bd67d8dd2301933df7decb4612916e" target="_top" xlink:title="Load a list from a file. ">
<polygon fill="#ffffff" stroke="#000000" points="309,-619 309,-649 438,-649 438,-619 309,-619"/>
<text text-anchor="start" x="317" y="-637" font-family="Helvetica,sans-Serif" font-size="10.00" fill="#000000">cimg_library_suffixed</text>
<text text-anchor="middle" x="373.5" y="-626" font-family="Helvetica,sans-Serif" font-size="10.00" fill="#000000">::CImgList&lt; charT &gt;::load</text>
</a>
</g>
</g>
<!-- Node1974&#45;&gt;Node2003 -->
<g id="edge31" class="edge">
<title>Node1974&#45;&gt;Node2003</title>
<path fill="none" stroke="#191970" d="M269.3177,-665.033C286.9429,-659.783 306.0178,-654.1011 322.9697,-649.0516"/>
<polygon fill="#191970" stroke="#191970" points="268.2824,-661.6894 259.6977,-667.8986 270.2807,-668.3981 268.2824,-661.6894"/>
</g>
<!-- Node1976 -->
<g id="node5" class="node">
<title>Node1976</title>
<g id="a_node5"><a xlink:href="structcimg__library__suffixed_1_1_c_img.html#a78929d9b9d2af829f3e3fc576e99b61d" target="_top" xlink:title="cimg_library_suffixed\l::CImg\&lt; charT \&gt;::_save_dlm">
<polygon fill="#ffffff" stroke="#000000" points="476.5,-1351 476.5,-1381 619.5,-1381 619.5,-1351 476.5,-1351"/>
<text text-anchor="start" x="484.5" y="-1369" font-family="Helvetica,sans-Serif" font-size="10.00" fill="#000000">cimg_library_suffixed</text>
<text text-anchor="middle" x="548" y="-1358" font-family="Helvetica,sans-Serif" font-size="10.00" fill="#000000">::CImg&lt; charT &gt;::_save_dlm</text>
</a>
</g>
</g>
<!-- Node1975&#45;&gt;Node1976 -->
<g id="edge4" class="edge">
<title>Node1975&#45;&gt;Node1976</title>
<path fill="none" stroke="#191970" d="M374.2644,-757.4355C377.8846,-861.2844 396.5206,-1251.9004 474,-1342 476.906,-1345.3793 480.2924,-1348.2862 483.9872,-1350.7864"/>
<polygon fill="#191970" stroke="#191970" points="377.7563,-757.1325 373.9263,-747.2542 370.7602,-757.3648 377.7563,-757.1325"/>
</g>
<!-- Node1977 -->
<g id="node6" class="node">
<title>Node1977</title>
<g id="a_node6"><a xlink:href="structcimg__library__suffixed_1_1_c_img.html#ae9faefb948746c5d646fe5c80f28c4fc" target="_top" xlink:title="cimg_library_suffixed\l::CImg\&lt; charT \&gt;::_save_bmp">
<polygon fill="#ffffff" stroke="#000000" points="475,-1302 475,-1332 621,-1332 621,-1302 475,-1302"/>
<text text-anchor="start" x="483" y="-1320" font-family="Helvetica,sans-Serif" font-size="10.00" fill="#000000">cimg_library_suffixed</text>
<text text-anchor="middle" x="548" y="-1309" font-family="Helvetica,sans-Serif" font-size="10.00" fill="#000000">::CImg&lt; charT &gt;::_save_bmp</text>
</a>
</g>
</g>
<!-- Node1975&#45;&gt;Node1977 -->
<g id="edge5" class="edge">
<title>Node1975&#45;&gt;Node1977</title>
<path fill="none" stroke="#191970" d="M374.6577,-757.268C379.6532,-855.5511 402.453,-1210.9659 474,-1293 477.0183,-1296.4607 480.5402,-1299.4255 484.3786,-1301.9651"/>
<polygon fill="#191970" stroke="#191970" points="378.1438,-756.8971 374.1577,-747.0808 371.1522,-757.2403 378.1438,-756.8971"/>
</g>
<!-- Node1978 -->
<g id="node7" class="node">
<title>Node1978</title>
<g id="a_node7"><a xlink:href="structcimg__library__suffixed_1_1_c_img.html#aa41e292505817af60a4896ed19302304" target="_top" xlink:title="cimg_library_suffixed\l::CImg\&lt; charT \&gt;::_save_jpeg">
<polygon fill="#ffffff" stroke="#000000" points="475.5,-1253 475.5,-1283 620.5,-1283 620.5,-1253 475.5,-1253"/>
<text text-anchor="start" x="483.5" y="-1271" font-family="Helvetica,sans-Serif" font-size="10.00" fill="#000000">cimg_library_suffixed</text>
<text text-anchor="middle" x="548" y="-1260" font-family="Helvetica,sans-Serif" font-size="10.00" fill="#000000">::CImg&lt; charT &gt;::_save_jpeg</text>
</a>
</g>
</g>
<!-- Node1975&#45;&gt;Node1978 -->
<g id="edge6" class="edge">
<title>Node1975&#45;&gt;Node1978</title>
<path fill="none" stroke="#191970" d="M375.1801,-757.3662C381.8053,-850.0519 409.0066,-1168.8366 474,-1243 477.3963,-1246.8754 481.4147,-1250.1512 485.7959,-1252.9199"/>
<polygon fill="#191970" stroke="#191970" points="378.6596,-756.9481 374.473,-747.2156 371.6765,-757.4346 378.6596,-756.9481"/>
</g>
<!-- Node1979 -->
<g id="node8" class="node">
<title>Node1979</title>
<g id="a_node8"><a xlink:href="structcimg__library__suffixed_1_1_c_img.html#a6beb63196c9a26f6894e4654f771c1e5" target="_top" xlink:title="Save image, using built&#45;in ImageMagick++ library. ">
<polygon fill="#ffffff" stroke="#000000" points="490,-1192.5 490,-1233.5 606,-1233.5 606,-1192.5 490,-1192.5"/>
<text text-anchor="start" x="498" y="-1221.5" font-family="Helvetica,sans-Serif" font-size="10.00" fill="#000000">cimg_library_suffixed</text>
<text text-anchor="start" x="498" y="-1210.5" font-family="Helvetica,sans-Serif" font-size="10.00" fill="#000000">::CImg&lt; charT &gt;::save</text>
<text text-anchor="middle" x="548" y="-1199.5" font-family="Helvetica,sans-Serif" font-size="10.00" fill="#000000">_magick</text>
</a>
</g>
</g>
<!-- Node1975&#45;&gt;Node1979 -->
<g id="edge7" class="edge">
<title>Node1975&#45;&gt;Node1979</title>
<path fill="none" stroke="#191970" d="M376.0505,-757.2767C385.0978,-842.4052 418.1413,-1117.0107 474,-1183 478.3887,-1188.1847 483.8085,-1192.4837 489.7038,-1196.0461"/>
<polygon fill="#191970" stroke="#191970" points="379.5189,-756.7906 374.9992,-747.2081 372.5567,-757.5176 379.5189,-756.7906"/>
</g>
<!-- Node1980 -->
<g id="node9" class="node">
<title>Node1980</title>
<g id="a_node9"><a xlink:href="structcimg__library__suffixed_1_1_c_img.html#aab5e304310373159e357250314e99da6" target="_top" xlink:title="cimg_library_suffixed\l::CImg\&lt; charT \&gt;::_save_png">
<polygon fill="#ffffff" stroke="#000000" points="476.5,-1143 476.5,-1173 619.5,-1173 619.5,-1143 476.5,-1143"/>
<text text-anchor="start" x="484.5" y="-1161" font-family="Helvetica,sans-Serif" font-size="10.00" fill="#000000">cimg_library_suffixed</text>
<text text-anchor="middle" x="548" y="-1150" font-family="Helvetica,sans-Serif" font-size="10.00" fill="#000000">::CImg&lt; charT &gt;::_save_png</text>
</a>
</g>
</g>
<!-- Node1975&#45;&gt;Node1980 -->
<g id="edge8" class="edge">
<title>Node1975&#45;&gt;Node1980</title>
<path fill="none" stroke="#191970" d="M376.631,-757.4949C386.8677,-836.9315 421.7197,-1078.0021 474,-1134 477.2259,-1137.4553 480.9529,-1140.4144 484.9838,-1142.9484"/>
<polygon fill="#191970" stroke="#191970" points="380.0805,-756.8753 375.3507,-747.3949 373.1361,-757.7557 380.0805,-756.8753"/>
</g>
<!-- Node1981 -->
<g id="node10" class="node">
<title>Node1981</title>
<g id="a_node10"><a xlink:href="structcimg__library__suffixed_1_1_c_img.html#a3b62455c9523881fa64a47d8362c3d80" target="_top" xlink:title="cimg_library_suffixed\l::CImg\&lt; charT \&gt;::_save_pnm">
<polygon fill="#ffffff" stroke="#000000" points="475,-1094 475,-1124 621,-1124 621,-1094 475,-1094"/>
<text text-anchor="start" x="483" y="-1112" font-family="Helvetica,sans-Serif" font-size="10.00" fill="#000000">cimg_library_suffixed</text>
<text text-anchor="middle" x="548" y="-1101" font-family="Helvetica,sans-Serif" font-size="10.00" fill="#000000">::CImg&lt; charT &gt;::_save_pnm</text>
</a>
</g>
</g>
<!-- Node1975&#45;&gt;Node1981 -->
<g id="edge9" class="edge">
<title>Node1975&#45;&gt;Node1981</title>
<path fill="none" stroke="#191970" d="M377.5338,-757.215C389.606,-829.743 427.5094,-1036.7925 474,-1085 477.2814,-1088.4026 481.0488,-1091.3234 485.1079,-1093.8306"/>
<polygon fill="#191970" stroke="#191970" points="380.955,-756.4494 375.8811,-747.1486 374.0475,-757.5835 380.955,-756.4494"/>
</g>
<!-- Node1982 -->
<g id="node11" class="node">
<title>Node1982</title>
<g id="a_node11"><a xlink:href="structcimg__library__suffixed_1_1_c_img.html#a4bcf33abcee45165d20d9530f6c85242" target="_top" xlink:title="cimg_library_suffixed\l::CImg\&lt; charT \&gt;::_save_pnk">
<polygon fill="#ffffff" stroke="#000000" points="476.5,-1045 476.5,-1075 619.5,-1075 619.5,-1045 476.5,-1045"/>
<text text-anchor="start" x="484.5" y="-1063" font-family="Helvetica,sans-Serif" font-size="10.00" fill="#000000">cimg_library_suffixed</text>
<text text-anchor="middle" x="548" y="-1052" font-family="Helvetica,sans-Serif" font-size="10.00" fill="#000000">::CImg&lt; charT &gt;::_save_pnk</text>
</a>
</g>
</g>
<!-- Node1975&#45;&gt;Node1982 -->
<g id="edge10" class="edge">
<title>Node1975&#45;&gt;Node1982</title>
<path fill="none" stroke="#191970" d="M378.7537,-757.1595C392.8675,-822.5402 433.3011,-995.5308 474,-1036 477.4478,-1039.4283 481.3893,-1042.367 485.6174,-1044.8861"/>
<polygon fill="#191970" stroke="#191970" points="382.1559,-756.3315 376.6458,-747.2822 375.31,-757.7925 382.1559,-756.3315"/>
</g>
<!-- Node1983 -->
<g id="node12" class="node">
<title>Node1983</title>
<g id="a_node12"><a xlink:href="structcimg__library__suffixed_1_1_c_img.html#a65be74d7d22bb71e708b3beb8e9cae49" target="_top" xlink:title="cimg_library_suffixed\l::CImg\&lt; charT \&gt;::_save_pfm">
<polygon fill="#ffffff" stroke="#000000" points="476.5,-996 476.5,-1026 619.5,-1026 619.5,-996 476.5,-996"/>
<text text-anchor="start" x="484.5" y="-1014" font-family="Helvetica,sans-Serif" font-size="10.00" fill="#000000">cimg_library_suffixed</text>
<text text-anchor="middle" x="548" y="-1003" font-family="Helvetica,sans-Serif" font-size="10.00" fill="#000000">::CImg&lt; charT &gt;::_save_pfm</text>
</a>
</g>
</g>
<!-- Node1975&#45;&gt;Node1983 -->
<g id="edge11" class="edge">
<title>Node1975&#45;&gt;Node1983</title>
<path fill="none" stroke="#191970" d="M376.3134,-757.2057C383.3174,-807.9987 406.1676,-923.2355 474,-987 477.6411,-990.4227 481.7754,-993.3574 486.1845,-995.8736"/>
<polygon fill="#191970" stroke="#191970" points="379.7623,-756.5838 375.016,-747.1116 372.8194,-757.4762 379.7623,-756.5838"/>
</g>
<!-- Node1984 -->
<g id="node13" class="node">
<title>Node1984</title>
<g id="a_node13"><a xlink:href="structcimg__library__suffixed_1_1_c_img.html#a06c5e27c1dde885a96cfdad05835644e" target="_top" xlink:title="cimg_library_suffixed\l::CImg\&lt; charT \&gt;::_save_rgb">
<polygon fill="#ffffff" stroke="#000000" points="478,-947 478,-977 618,-977 618,-947 478,-947"/>
<text text-anchor="start" x="486" y="-965" font-family="Helvetica,sans-Serif" font-size="10.00" fill="#000000">cimg_library_suffixed</text>
<text text-anchor="middle" x="548" y="-954" font-family="Helvetica,sans-Serif" font-size="10.00" fill="#000000">::CImg&lt; charT &gt;::_save_rgb</text>
</a>
</g>
</g>
<!-- Node1975&#45;&gt;Node1984 -->
<g id="edge12" class="edge">
<title>Node1975&#45;&gt;Node1984</title>
<path fill="none" stroke="#191970" d="M378.9621,-757.1365C389.6425,-800.3477 417.3664,-888.8012 474,-938 477.9764,-941.4544 482.4587,-944.4133 487.2005,-946.9475"/>
<polygon fill="#191970" stroke="#191970" points="382.3142,-756.1029 376.6067,-747.1768 375.5021,-757.7139 382.3142,-756.1029"/>
</g>
<!-- Node1985 -->
<g id="node14" class="node">
<title>Node1985</title>
<g id="a_node14"><a xlink:href="structcimg__library__suffixed_1_1_c_img.html#a974a21a1c7242ff9b08e4590701d920d" target="_top" xlink:title="cimg_library_suffixed\l::CImg\&lt; charT \&gt;::_save_rgba">
<polygon fill="#ffffff" stroke="#000000" points="475,-898 475,-928 621,-928 621,-898 475,-898"/>
<text text-anchor="start" x="483" y="-916" font-family="Helvetica,sans-Serif" font-size="10.00" fill="#000000">cimg_library_suffixed</text>
<text text-anchor="middle" x="548" y="-905" font-family="Helvetica,sans-Serif" font-size="10.00" fill="#000000">::CImg&lt; charT &gt;::_save_rgba</text>
</a>
</g>
</g>
<!-- Node1975&#45;&gt;Node1985 -->
<g id="edge13" class="edge">
<title>Node1975&#45;&gt;Node1985</title>
<path fill="none" stroke="#191970" d="M383.0101,-756.811C397.492,-791.3704 428.3035,-853.7169 474,-889 478.4899,-892.4667 483.4984,-895.4419 488.7344,-897.9936"/>
<polygon fill="#191970" stroke="#191970" points="386.2093,-755.3867 379.2002,-747.4417 379.7249,-758.0236 386.2093,-755.3867"/>
</g>
<!-- Node1986 -->
<g id="node15" class="node">
<title>Node1986</title>
<g id="a_node15"><a xlink:href="structcimg__library__suffixed_1_1_c_img.html#a87e93148404e8d79b7b5218e58eabf3c" target="_top" xlink:title="Save image as a TIFF file. ">
<polygon fill="#ffffff" stroke="#000000" points="481.5,-849 481.5,-879 614.5,-879 614.5,-849 481.5,-849"/>
<text text-anchor="start" x="489.5" y="-867" font-family="Helvetica,sans-Serif" font-size="10.00" fill="#000000">cimg_library_suffixed</text>
<text text-anchor="middle" x="548" y="-856" font-family="Helvetica,sans-Serif" font-size="10.00" fill="#000000">::CImg&lt; charT &gt;::save_tiff</text>
</a>
</g>
</g>
<!-- Node1975&#45;&gt;Node1986 -->
<g id="edge14" class="edge">
<title>Node1975&#45;&gt;Node1986</title>
<path fill="none" stroke="#191970" d="M389.7204,-755.526C407.6841,-779.9186 438.7991,-817.5619 474,-840 479.3528,-843.412 485.2345,-846.3802 491.2703,-848.9524"/>
<polygon fill="#191970" stroke="#191970" points="392.4001,-753.258 383.714,-747.1915 386.7212,-757.3507 392.4001,-753.258"/>
</g>
<!-- Node1987 -->
<g id="node16" class="node">
<title>Node1987</title>
<g id="a_node16"><a xlink:href="structcimg__library__suffixed_1_1_c_img.html#ab3b2aa455cd56ce20a03cb0b68ca68fc" target="_top" xlink:title="Save image as a MINC2 file. ">
<polygon fill="#ffffff" stroke="#000000" points="474,-800 474,-830 622,-830 622,-800 474,-800"/>
<text text-anchor="start" x="482" y="-818" font-family="Helvetica,sans-Serif" font-size="10.00" fill="#000000">cimg_library_suffixed</text>
<text text-anchor="middle" x="548" y="-807" font-family="Helvetica,sans-Serif" font-size="10.00" fill="#000000">::CImg&lt; charT &gt;::save_minc2</text>
</a>
</g>
</g>
<!-- Node1975&#45;&gt;Node1987 -->
<g id="edge15" class="edge">
<title>Node1975&#45;&gt;Node1987</title>
<path fill="none" stroke="#191970" d="M405.4572,-752.6197C424.7931,-764.5386 450.2302,-779.2533 474,-790 481.9081,-793.5754 490.4871,-796.9255 498.9074,-799.9397"/>
<polygon fill="#191970" stroke="#191970" points="407.0974,-749.5177 396.7604,-747.1942 403.3922,-755.4568 407.0974,-749.5177"/>
</g>
<!-- Node1988 -->
<g id="node17" class="node">
<title>Node1988</title>
<g id="a_node17"><a xlink:href="structcimg__library__suffixed_1_1_c_img.html#a09711118d3b31870942e99adbefffed1" target="_top" xlink:title="Save image as an ANALYZE7.5 or NIFTI file. ">
<polygon fill="#ffffff" stroke="#000000" points="490,-739.5 490,-780.5 606,-780.5 606,-739.5 490,-739.5"/>
<text text-anchor="start" x="498" y="-768.5" font-family="Helvetica,sans-Serif" font-size="10.00" fill="#000000">cimg_library_suffixed</text>
<text text-anchor="start" x="498" y="-757.5" font-family="Helvetica,sans-Serif" font-size="10.00" fill="#000000">::CImg&lt; charT &gt;::save</text>
<text text-anchor="middle" x="548" y="-746.5" font-family="Helvetica,sans-Serif" font-size="10.00" fill="#000000">_analyze</text>
</a>
</g>
</g>
<!-- Node1975&#45;&gt;Node1988 -->
<g id="edge16" class="edge">
<title>Node1975&#45;&gt;Node1988</title>
<path fill="none" stroke="#191970" d="M438.5371,-742.4358C455.369,-745.1366 473.3824,-748.027 489.8372,-750.6673"/>
<polygon fill="#191970" stroke="#191970" points="438.6624,-738.9112 428.2341,-740.7826 437.5533,-745.8227 438.6624,-738.9112"/>
</g>
<!-- Node1989 -->
<g id="node18" class="node">
<title>Node1989</title>
<g id="a_node18"><a xlink:href="structcimg__library__suffixed_1_1_c_img.html#aa29c8a2179f282535660800f9b9192e0" target="_top" xlink:title="cimg_library_suffixed\l::CImg\&lt; charT \&gt;::_save_inr">
<polygon fill="#ffffff" stroke="#000000" points="479.5,-690 479.5,-720 616.5,-720 616.5,-690 479.5,-690"/>
<text text-anchor="start" x="487.5" y="-708" font-family="Helvetica,sans-Serif" font-size="10.00" fill="#000000">cimg_library_suffixed</text>
<text text-anchor="middle" x="548" y="-697" font-family="Helvetica,sans-Serif" font-size="10.00" fill="#000000">::CImg&lt; charT &gt;::_save_inr</text>
</a>
</g>
</g>
<!-- Node1975&#45;&gt;Node1989 -->
<g id="edge17" class="edge">
<title>Node1975&#45;&gt;Node1989</title>
<path fill="none" stroke="#191970" d="M438.2942,-721.9745C451.6721,-719.9046 465.8059,-717.7177 479.3167,-715.6272"/>
<polygon fill="#191970" stroke="#191970" points="437.5813,-718.5431 428.2341,-723.5311 438.6517,-725.4608 437.5813,-718.5431"/>
</g>
<!-- Node1990 -->
<g id="node19" class="node">
<title>Node1990</title>
<g id="a_node19"><a xlink:href="structcimg__library__suffixed_1_1_c_img.html#ad5fb082bca9bcc268e8f77019788ae51" target="_top" xlink:title="Save image as an OpenEXR file. ">
<polygon fill="#ffffff" stroke="#000000" points="480.5,-641 480.5,-671 615.5,-671 615.5,-641 480.5,-641"/>
<text text-anchor="start" x="488.5" y="-659" font-family="Helvetica,sans-Serif" font-size="10.00" fill="#000000">cimg_library_suffixed</text>
<text text-anchor="middle" x="548" y="-648" font-family="Helvetica,sans-Serif" font-size="10.00" fill="#000000">::CImg&lt; charT &gt;::save_exr</text>
</a>
</g>
</g>
<!-- Node1975&#45;&gt;Node1990 -->
<g id="edge18" class="edge">
<title>Node1975&#45;&gt;Node1990</title>
<path fill="none" stroke="#191970" d="M428.4,-712.8329C431.6936,-711.2961 434.9181,-709.6831 438,-708 455.553,-698.4139 456.3032,-690.318 474,-681 481.0794,-677.2725 488.8261,-673.9352 496.5567,-671.0063"/>
<polygon fill="#191970" stroke="#191970" points="426.7482,-709.7354 418.9958,-716.957 429.5596,-716.1461 426.7482,-709.7354"/>
</g>
<!-- Node1991 -->
<g id="node20" class="node">
<title>Node1991</title>
<g id="a_node20"><a xlink:href="structcimg__library__suffixed_1_1_c_img.html#a01931f2bad5c72da454d990ebcf55f94" target="_top" xlink:title="cimg_library_suffixed\l::CImg\&lt; charT \&gt;::_save\l_pandore">
<polygon fill="#ffffff" stroke="#000000" points="487,-580.5 487,-621.5 609,-621.5 609,-580.5 487,-580.5"/>
<text text-anchor="start" x="495" y="-609.5" font-family="Helvetica,sans-Serif" font-size="10.00" fill="#000000">cimg_library_suffixed</text>
<text text-anchor="start" x="495" y="-598.5" font-family="Helvetica,sans-Serif" font-size="10.00" fill="#000000">::CImg&lt; charT &gt;::_save</text>
<text text-anchor="middle" x="548" y="-587.5" font-family="Helvetica,sans-Serif" font-size="10.00" fill="#000000">_pandore</text>
</a>
</g>
</g>
<!-- Node1975&#45;&gt;Node1991 -->
<g id="edge19" class="edge">
<title>Node1975&#45;&gt;Node1991</title>
<path fill="none" stroke="#191970" d="M434.0123,-711.3352C435.3959,-710.277 436.7289,-709.1661 438,-708 465.5422,-682.7341 446.9749,-657.8183 474,-632 478.1293,-628.055 482.8341,-624.5786 487.8241,-621.5217"/>
<polygon fill="#191970" stroke="#191970" points="432.0579,-708.4313 425.6092,-716.8375 435.8926,-714.2875 432.0579,-708.4313"/>
</g>
<!-- Node1992 -->
<g id="node21" class="node">
<title>Node1992</title>
<g id="a_node21"><a xlink:href="structcimg__library__suffixed_1_1_c_img.html#a069feb3e722bb4a1f52ea72c1c86ca97" target="_top" xlink:title="cimg_library_suffixed\l::CImg\&lt; charT \&gt;::_save_raw">
<polygon fill="#ffffff" stroke="#000000" points="476.5,-531 476.5,-561 619.5,-561 619.5,-531 476.5,-531"/>
<text text-anchor="start" x="484.5" y="-549" font-family="Helvetica,sans-Serif" font-size="10.00" fill="#000000">cimg_library_suffixed</text>
<text text-anchor="middle" x="548" y="-538" font-family="Helvetica,sans-Serif" font-size="10.00" fill="#000000">::CImg&lt; charT &gt;::_save_raw</text>
</a>
</g>
</g>
<!-- Node1975&#45;&gt;Node1992 -->
<g id="edge20" class="edge">
<title>Node1975&#45;&gt;Node1992</title>
<path fill="none" stroke="#191970" d="M435.2374,-710.7986C436.1978,-709.9039 437.1204,-708.9715 438,-708 480.2535,-661.3299 431.0416,-617.0221 474,-571 477.6087,-567.1339 481.8354,-563.8656 486.4079,-561.1025"/>
<polygon fill="#191970" stroke="#191970" points="433.027,-708.083 427.2239,-716.9473 437.2882,-713.6366 433.027,-708.083"/>
</g>
<!-- Node1993 -->
<g id="node22" class="node">
<title>Node1993</title>
<g id="a_node22"><a xlink:href="structcimg__library__suffixed_1_1_c_img.html#a3a8132f303e3295e0219ea4518c6ef20" target="_top" xlink:title="Save volumetric image as a video, using ffmpeg external binary. ">
<polygon fill="#ffffff" stroke="#000000" points="490,-470.5 490,-511.5 606,-511.5 606,-470.5 490,-470.5"/>
<text text-anchor="start" x="498" y="-499.5" font-family="Helvetica,sans-Serif" font-size="10.00" fill="#000000">cimg_library_suffixed</text>
<text text-anchor="start" x="498" y="-488.5" font-family="Helvetica,sans-Serif" font-size="10.00" fill="#000000">::CImg&lt; charT &gt;::save</text>
<text text-anchor="middle" x="548" y="-477.5" font-family="Helvetica,sans-Serif" font-size="10.00" fill="#000000">_ffmpeg_external</text>
</a>
</g>
</g>
<!-- Node1975&#45;&gt;Node1993 -->
<g id="edge21" class="edge">
<title>Node1975&#45;&gt;Node1993</title>
<path fill="none" stroke="#191970" d="M435.6993,-710.5055C436.4982,-709.7008 437.2663,-708.866 438,-708 492.4289,-643.7562 420.8827,-587.3325 474,-522 478.3935,-516.5962 483.8936,-512.1206 489.9006,-508.417"/>
<polygon fill="#191970" stroke="#191970" points="433.3137,-707.9346 427.7736,-716.9656 437.7363,-713.3606 433.3137,-707.9346"/>
</g>
<!-- Node1994 -->
<g id="node23" class="node">
<title>Node1994</title>
<g id="a_node23"><a xlink:href="structcimg__library__suffixed_1_1_c_img.html#a53983bb4f1ebe2a817b68029b8c04cb1" target="_top" xlink:title="Save image using gzip external binary. ">
<polygon fill="#ffffff" stroke="#000000" points="490,-410.5 490,-451.5 606,-451.5 606,-410.5 490,-410.5"/>
<text text-anchor="start" x="498" y="-439.5" font-family="Helvetica,sans-Serif" font-size="10.00" fill="#000000">cimg_library_suffixed</text>
<text text-anchor="start" x="498" y="-428.5" font-family="Helvetica,sans-Serif" font-size="10.00" fill="#000000">::CImg&lt; charT &gt;::save</text>
<text text-anchor="middle" x="548" y="-417.5" font-family="Helvetica,sans-Serif" font-size="10.00" fill="#000000">_gzip_external</text>
</a>
</g>
</g>
<!-- Node1975&#45;&gt;Node1994 -->
<g id="edge22" class="edge">
<title>Node1975&#45;&gt;Node1994</title>
<path fill="none" stroke="#191970" d="M436.1007,-710.1865C436.7583,-709.4807 437.3922,-708.7522 438,-708 507.7269,-621.7137 405.5288,-548.2861 474,-461 478.2781,-455.5463 483.7079,-451.0786 489.6764,-447.4197"/>
<polygon fill="#191970" stroke="#191970" points="433.5687,-707.7467 428.2471,-716.9081 438.1203,-713.0648 433.5687,-707.7467"/>
</g>
<!-- Node1995 -->
<g id="node24" class="node">
<title>Node1995</title>
<g id="a_node24"><a xlink:href="structcimg__library__suffixed_1_1_c_img.html#a44f125968c20e8c7d833bf7d75c32db6" target="_top" xlink:title="Save image using GraphicsMagick&#39;s external binary. ">
<polygon fill="#ffffff" stroke="#000000" points="483,-350.5 483,-391.5 613,-391.5 613,-350.5 483,-350.5"/>
<text text-anchor="start" x="491" y="-379.5" font-family="Helvetica,sans-Serif" font-size="10.00" fill="#000000">cimg_library_suffixed</text>
<text text-anchor="start" x="491" y="-368.5" font-family="Helvetica,sans-Serif" font-size="10.00" fill="#000000">::CImg&lt; charT &gt;::save</text>
<text text-anchor="middle" x="548" y="-357.5" font-family="Helvetica,sans-Serif" font-size="10.00" fill="#000000">_graphicsmagick_external</text>
</a>
</g>
</g>
<!-- Node1975&#45;&gt;Node1995 -->
<g id="edge23" class="edge">
<title>Node1975&#45;&gt;Node1995</title>
<path fill="none" stroke="#191970" d="M435.7904,-710.5798C436.5612,-709.7523 437.299,-708.8927 438,-708 522.8418,-599.9493 390.7304,-510.2669 474,-401 476.6889,-397.4717 479.8617,-394.3567 483.3556,-391.6068"/>
<polygon fill="#191970" stroke="#191970" points="433.3796,-708.0362 428.0585,-717.198 437.9315,-713.3542 433.3796,-708.0362"/>
</g>
<!-- Node1996 -->
<g id="node25" class="node">
<title>Node1996</title>
<g id="a_node25"><a xlink:href="structcimg__library__suffixed_1_1_c_img.html#afbf8db949f62c8bd3f2f73ba3d9c1420" target="_top" xlink:title="Save image using ImageMagick&#39;s external binary. ">
<polygon fill="#ffffff" stroke="#000000" points="488.5,-290.5 488.5,-331.5 607.5,-331.5 607.5,-290.5 488.5,-290.5"/>
<text text-anchor="start" x="496.5" y="-319.5" font-family="Helvetica,sans-Serif" font-size="10.00" fill="#000000">cimg_library_suffixed</text>
<text text-anchor="start" x="496.5" y="-308.5" font-family="Helvetica,sans-Serif" font-size="10.00" fill="#000000">::CImg&lt; charT &gt;::save</text>
<text text-anchor="middle" x="548" y="-297.5" font-family="Helvetica,sans-Serif" font-size="10.00" fill="#000000">_imagemagick_external</text>
</a>
</g>
</g>
<!-- Node1975&#45;&gt;Node1996 -->
<g id="edge24" class="edge">
<title>Node1975&#45;&gt;Node1996</title>
<path fill="none" stroke="#191970" d="M435.814,-710.5982C436.5776,-709.765 437.3075,-708.8993 438,-708 537.9906,-578.1419 375.8987,-472.2912 474,-341 477.9,-335.7806 482.8622,-331.4665 488.3652,-327.9012"/>
<polygon fill="#191970" stroke="#191970" points="433.3971,-708.0612 428.1324,-717.2554 437.9816,-713.3511 433.3971,-708.0612"/>
</g>
<!-- Node1997 -->
<g id="node26" class="node">
<title>Node1997</title>
<g id="a_node26"><a xlink:href="structcimg__library__suffixed_1_1_c_img.html#a30d02c3d77fc43c8b5845e92268cdab5" target="_top" xlink:title="Save image as a Dicom file. ">
<polygon fill="#ffffff" stroke="#000000" points="490,-230.5 490,-271.5 606,-271.5 606,-230.5 490,-230.5"/>
<text text-anchor="start" x="498" y="-259.5" font-family="Helvetica,sans-Serif" font-size="10.00" fill="#000000">cimg_library_suffixed</text>
<text text-anchor="start" x="498" y="-248.5" font-family="Helvetica,sans-Serif" font-size="10.00" fill="#000000">::CImg&lt; charT &gt;::save</text>
<text text-anchor="middle" x="548" y="-237.5" font-family="Helvetica,sans-Serif" font-size="10.00" fill="#000000">_medcon_external</text>
</a>
</g>
</g>
<!-- Node1975&#45;&gt;Node1997 -->
<g id="edge25" class="edge">
<title>Node1975&#45;&gt;Node1997</title>
<path fill="none" stroke="#191970" d="M435.8311,-710.6113C436.5895,-709.7741 437.3137,-708.9041 438,-708 495.5794,-632.1547 417.524,-357.6705 474,-281 478.1931,-275.3076 483.6524,-270.6926 489.707,-266.9517"/>
<polygon fill="#191970" stroke="#191970" points="433.41,-708.079 428.186,-717.2964 438.0179,-713.3485 433.41,-708.079"/>
</g>
<!-- Node1998 -->
<g id="node27" class="node">
<title>Node1998</title>
<g id="a_node27"><a xlink:href="structcimg__library__suffixed_1_1_c_img.html#a6b77dc615829820ba0675409feaef3d8" target="_top" xlink:title="cimg_library_suffixed\l::CImg\&lt; charT \&gt;::save_other">
<polygon fill="#ffffff" stroke="#000000" points="476.5,-181 476.5,-211 619.5,-211 619.5,-181 476.5,-181"/>
<text text-anchor="start" x="484.5" y="-199" font-family="Helvetica,sans-Serif" font-size="10.00" fill="#000000">cimg_library_suffixed</text>
<text text-anchor="middle" x="548" y="-188" font-family="Helvetica,sans-Serif" font-size="10.00" fill="#000000">::CImg&lt; charT &gt;::save_other</text>
</a>
</g>
</g>
<!-- Node1975&#45;&gt;Node1998 -->
<g id="edge26" class="edge">
<title>Node1975&#45;&gt;Node1998</title>
<path fill="none" stroke="#191970" d="M435.8441,-710.6211C436.5985,-709.7809 437.3183,-708.9076 438,-708 503.1696,-621.2304 407.5182,-306.7684 474,-221 476.9908,-217.1416 480.6038,-213.874 484.6048,-211.1073"/>
<polygon fill="#191970" stroke="#191970" points="433.4198,-708.0923 428.2267,-717.3271 438.0453,-713.3464 433.4198,-708.0923"/>
</g>
<!-- Node1999 -->
<g id="node28" class="node">
<title>Node1999</title>
<g id="a_node28"><a xlink:href="structcimg__library__suffixed_1_1_c_img_list.html#afa25415a30608d507bc22bd6b85b5c1e" target="_top" xlink:title="cimg_library_suffixed\l::CImgList\&lt; charT \&gt;::\l_save_yuv">
<polygon fill="#ffffff" stroke="#000000" points="492.5,-120.5 492.5,-161.5 603.5,-161.5 603.5,-120.5 492.5,-120.5"/>
<text text-anchor="start" x="500.5" y="-149.5" font-family="Helvetica,sans-Serif" font-size="10.00" fill="#000000">cimg_library_suffixed</text>
<text text-anchor="start" x="500.5" y="-138.5" font-family="Helvetica,sans-Serif" font-size="10.00" fill="#000000">::CImgList&lt; charT &gt;::</text>
<text text-anchor="middle" x="548" y="-127.5" font-family="Helvetica,sans-Serif" font-size="10.00" fill="#000000">_save_yuv</text>
</a>
</g>
</g>
<!-- Node1975&#45;&gt;Node1999 -->
<g id="edge27" class="edge">
<title>Node1975&#45;&gt;Node1999</title>
<path fill="none" stroke="#191970" d="M435.8526,-710.6275C436.6043,-709.7853 437.3214,-708.9099 438,-708 509.3714,-612.3047 404.5804,-269.1204 474,-172 478.7789,-165.3142 485.2855,-160.0636 492.4698,-155.9417"/>
<polygon fill="#191970" stroke="#191970" points="433.4263,-708.1009 428.2533,-717.347 438.0632,-713.3449 433.4263,-708.1009"/>
</g>
<!-- Node2000 -->
<g id="node29" class="node">
<title>Node2000</title>
<g id="a_node29"><a xlink:href="structcimg__library__suffixed_1_1_c_img_list.html#a62700a17bb0af63522c732b9d1a15325" target="_top" xlink:title="Save list as a TIFF file. ">
<polygon fill="#ffffff" stroke="#000000" points="492.5,-60.5 492.5,-101.5 603.5,-101.5 603.5,-60.5 492.5,-60.5"/>
<text text-anchor="start" x="500.5" y="-89.5" font-family="Helvetica,sans-Serif" font-size="10.00" fill="#000000">cimg_library_suffixed</text>
<text text-anchor="start" x="500.5" y="-78.5" font-family="Helvetica,sans-Serif" font-size="10.00" fill="#000000">::CImgList&lt; charT &gt;::</text>
<text text-anchor="middle" x="548" y="-67.5" font-family="Helvetica,sans-Serif" font-size="10.00" fill="#000000">save_tiff</text>
</a>
</g>
</g>
<!-- Node1975&#45;&gt;Node2000 -->
<g id="edge28" class="edge">
<title>Node1975&#45;&gt;Node2000</title>
<path fill="none" stroke="#191970" d="M435.8613,-710.6339C436.6103,-709.7897 437.3245,-708.9122 438,-708 517.0947,-601.1895 396.459,-218.9437 474,-111 478.7718,-104.3572 485.2747,-99.1828 492.4573,-95.1529"/>
<polygon fill="#191970" stroke="#191970" points="433.4328,-708.1096 428.2804,-717.3672 438.0814,-713.3433 433.4328,-708.1096"/>
</g>
<!-- Node2001 -->
<g id="node30" class="node">
<title>Node2001</title>
<g id="a_node30"><a xlink:href="structcimg__library__suffixed_1_1_c_img_list.html#af09a45345581747984f4df0607418f2c" target="_top" xlink:title="Save image sequence, using the external tool &#39;ffmpeg&#39;. ">
<polygon fill="#ffffff" stroke="#000000" points="491.5,-.5 491.5,-41.5 604.5,-41.5 604.5,-.5 491.5,-.5"/>
<text text-anchor="start" x="499.5" y="-29.5" font-family="Helvetica,sans-Serif" font-size="10.00" fill="#000000">cimg_library_suffixed</text>
<text text-anchor="start" x="499.5" y="-18.5" font-family="Helvetica,sans-Serif" font-size="10.00" fill="#000000">::CImgList&lt; charT &gt;::</text>
<text text-anchor="middle" x="548" y="-7.5" font-family="Helvetica,sans-Serif" font-size="10.00" fill="#000000">save_ffmpeg_external</text>
</a>
</g>
</g>
<!-- Node1975&#45;&gt;Node2001 -->
<g id="edge29" class="edge">
<title>Node1975&#45;&gt;Node2001</title>
<path fill="none" stroke="#191970" d="M435.8092,-710.7058C436.5777,-709.8395 437.3093,-708.9381 438,-708 524.6936,-590.2536 389.0191,-169.9884 474,-51 478.5119,-44.6826 484.5908,-39.6935 491.3353,-35.7538"/>
<polygon fill="#191970" stroke="#191970" points="433.1911,-708.3482 428.0099,-717.5897 437.8234,-713.5963 433.1911,-708.3482"/>
</g>
</g>
</svg>
