<?xml version="1.0" encoding="UTF-8" standalone="no"?>
<!DOCTYPE svg PUBLIC "-//W3C//DTD SVG 1.1//EN"
 "http://www.w3.org/Graphics/SVG/1.1/DTD/svg11.dtd">
<!-- Generated by graphviz version 2.40.1 (20161225.0304)
 -->
<!-- Title: cimg_library_suffixed::CImgIOException Pages: 1 -->
<svg width="166pt" height="343pt"
 viewBox="0.00 0.00 166.00 343.00" xmlns="http://www.w3.org/2000/svg" xmlns:xlink="http://www.w3.org/1999/xlink">
<g id="graph0" class="graph" transform="scale(1 1) rotate(0) translate(4 339)">
<title>cimg_library_suffixed::CImgIOException</title>
<polygon fill="#ffffff" stroke="transparent" points="-4,4 -4,-339 162,-339 162,4 -4,4"/>
<!-- Node3 -->
<g id="node1" class="node">
<title>Node3</title>
<polygon fill="#bfbfbf" stroke="#000000" points="23,-.5 23,-68.5 133,-68.5 133,-.5 23,-.5"/>
<text text-anchor="start" x="31" y="-56.5" font-family="Helvetica,sans-Serif" font-size="10.00" fill="#000000">cimg_library_suffixed</text>
<text text-anchor="middle" x="78" y="-45.5" font-family="Helvetica,sans-Serif" font-size="10.00" fill="#000000">::CImgIOException</text>
<polyline fill="none" stroke="#000000" points="23,-38.5 133,-38.5 "/>
<text text-anchor="middle" x="78" y="-26.5" font-family="Helvetica,sans-Serif" font-size="10.00" fill="#000000"> </text>
<polyline fill="none" stroke="#000000" points="23,-19.5 133,-19.5 "/>
<text text-anchor="start" x="31" y="-7.5" font-family="Helvetica,sans-Serif" font-size="10.00" fill="#000000">+ CImgIOException()</text>
</g>
<!-- Node4 -->
<g id="node2" class="node">
<title>Node4</title>
<g id="a_node2"><a xlink:href="structcimg__library__suffixed_1_1_c_img_exception.html" target="_top" xlink:title="Instances of CImgException are thrown when errors are encountered in a &#160;function call. ">
<polygon fill="#ffffff" stroke="#000000" points="23.5,-106.5 23.5,-229.5 132.5,-229.5 132.5,-106.5 23.5,-106.5"/>
<text text-anchor="start" x="31.5" y="-217.5" font-family="Helvetica,sans-Serif" font-size="10.00" fill="#000000">cimg_library_suffixed</text>
<text text-anchor="middle" x="78" y="-206.5" font-family="Helvetica,sans-Serif" font-size="10.00" fill="#000000">::CImgException</text>
<polyline fill="none" stroke="#000000" points="23.5,-199.5 132.5,-199.5 "/>
<text text-anchor="middle" x="78" y="-187.5" font-family="Helvetica,sans-Serif" font-size="10.00" fill="#000000"> </text>
<polyline fill="none" stroke="#000000" points="23.5,-180.5 132.5,-180.5 "/>
<text text-anchor="start" x="31.5" y="-168.5" font-family="Helvetica,sans-Serif" font-size="10.00" fill="#000000">+ CImgException()</text>
<text text-anchor="start" x="31.5" y="-157.5" font-family="Helvetica,sans-Serif" font-size="10.00" fill="#000000">+ CImgException()</text>
<text text-anchor="start" x="31.5" y="-146.5" font-family="Helvetica,sans-Serif" font-size="10.00" fill="#000000">+ CImgException()</text>
<text text-anchor="start" x="31.5" y="-135.5" font-family="Helvetica,sans-Serif" font-size="10.00" fill="#000000">+ ~CImgException()</text>
<text text-anchor="start" x="31.5" y="-124.5" font-family="Helvetica,sans-Serif" font-size="10.00" fill="#000000">+ operator=()</text>
<text text-anchor="start" x="31.5" y="-113.5" font-family="Helvetica,sans-Serif" font-size="10.00" fill="#000000">+ what()</text>
</a>
</g>
</g>
<!-- Node4&#45;&gt;Node3 -->
<g id="edge1" class="edge">
<title>Node4&#45;&gt;Node3</title>
<path fill="none" stroke="#191970" d="M78,-96.2729C78,-86.6379 78,-77.1419 78,-68.5939"/>
<polygon fill="none" stroke="#191970" points="74.5001,-96.3301 78,-106.3301 81.5001,-96.3301 74.5001,-96.3301"/>
</g>
<!-- Node5 -->
<g id="node3" class="node">
<title>Node5</title>
<polygon fill="#ffffff" stroke="#bfbfbf" points="0,-277.5 0,-334.5 78,-334.5 78,-277.5 0,-277.5"/>
<text text-anchor="middle" x="39" y="-322.5" font-family="Helvetica,sans-Serif" font-size="10.00" fill="#000000">std::exception</text>
<polyline fill="none" stroke="#bfbfbf" points="0,-315.5 78,-315.5 "/>
<text text-anchor="middle" x="39" y="-303.5" font-family="Helvetica,sans-Serif" font-size="10.00" fill="#000000"> </text>
<polyline fill="none" stroke="#bfbfbf" points="0,-296.5 78,-296.5 "/>
<text text-anchor="middle" x="39" y="-284.5" font-family="Helvetica,sans-Serif" font-size="10.00" fill="#000000"> </text>
</g>
<!-- Node5&#45;&gt;Node4 -->
<g id="edge2" class="edge">
<title>Node5&#45;&gt;Node4</title>
<path fill="none" stroke="#191970" d="M49.8837,-267.4886C53.2106,-255.7162 56.9564,-242.4619 60.603,-229.5587"/>
<polygon fill="none" stroke="#191970" points="46.4324,-266.8313 47.0808,-277.4063 53.1686,-268.7351 46.4324,-266.8313"/>
</g>
<!-- Node6 -->
<g id="node4" class="node">
<title>Node6</title>
<polygon fill="#ffffff" stroke="#bfbfbf" points="96,-277.5 96,-334.5 138,-334.5 138,-277.5 96,-277.5"/>
<text text-anchor="middle" x="117" y="-322.5" font-family="Helvetica,sans-Serif" font-size="10.00" fill="#000000">char *</text>
<polyline fill="none" stroke="#bfbfbf" points="96,-315.5 138,-315.5 "/>
<text text-anchor="middle" x="117" y="-303.5" font-family="Helvetica,sans-Serif" font-size="10.00" fill="#000000"> </text>
<polyline fill="none" stroke="#bfbfbf" points="96,-296.5 138,-296.5 "/>
<text text-anchor="middle" x="117" y="-284.5" font-family="Helvetica,sans-Serif" font-size="10.00" fill="#000000"> </text>
</g>
<!-- Node6&#45;&gt;Node4 -->
<g id="edge3" class="edge">
<title>Node6&#45;&gt;Node4</title>
<path fill="none" stroke="#404040" d="M108.9192,-277.4063C105.9127,-266.7682 102.3472,-254.1515 98.725,-241.3346"/>
<polygon fill="none" stroke="#404040" points="98.6606,-241.1064 93.1796,-236.4204 95.397,-229.5587 100.878,-234.2447 98.6606,-241.1064"/>
<text text-anchor="middle" x="130.5" y="-251" font-family="Helvetica,sans-Serif" font-size="10.00" fill="#000000"> +_message</text>
</g>
</g>
</svg>
