<?xml version="1.0" encoding="UTF-8" standalone="no"?>
<!DOCTYPE svg PUBLIC "-//W3C//DTD SVG 1.1//EN"
 "http://www.w3.org/Graphics/SVG/1.1/DTD/svg11.dtd">
<!-- Generated by graphviz version 2.40.1 (20161225.0304)
 -->
<!-- Title: cimg_library_suffixed::CImg::XYZtoLab Pages: 1 -->
<svg width="294pt" height="39pt"
 viewBox="0.00 0.00 294.00 39.00" xmlns="http://www.w3.org/2000/svg" xmlns:xlink="http://www.w3.org/1999/xlink">
<g id="graph0" class="graph" transform="scale(1 1) rotate(0) translate(4 35)">
<title>cimg_library_suffixed::CImg::XYZtoLab</title>
<polygon fill="#ffffff" stroke="transparent" points="-4,4 -4,-35 290,-35 290,4 -4,4"/>
<!-- Node3510 -->
<g id="node1" class="node">
<title>Node3510</title>
<polygon fill="#bfbfbf" stroke="#000000" points="0,-.5 0,-30.5 109,-30.5 109,-.5 0,-.5"/>
<text text-anchor="start" x="8" y="-18.5" font-family="Helvetica,sans-Serif" font-size="10.00" fill="#000000">cimg_library_suffixed</text>
<text text-anchor="middle" x="54.5" y="-7.5" font-family="Helvetica,sans-Serif" font-size="10.00" fill="#000000">::CImg::XYZtoLab</text>
</g>
<!-- Node3511 -->
<g id="node2" class="node">
<title>Node3511</title>
<g id="a_node2"><a xlink:href="structcimg__library__suffixed_1_1_c_img.html#acc7fcaabd87390643bf0df39f4ee893f" target="_top" xlink:title="Convert pixel values from RGB to Lab color spaces. ">
<polygon fill="#ffffff" stroke="#000000" points="145,-.5 145,-30.5 286,-30.5 286,-.5 145,-.5"/>
<text text-anchor="start" x="153" y="-18.5" font-family="Helvetica,sans-Serif" font-size="10.00" fill="#000000">cimg_library_suffixed</text>
<text text-anchor="middle" x="215.5" y="-7.5" font-family="Helvetica,sans-Serif" font-size="10.00" fill="#000000">::CImg&lt; charT &gt;::RGBtoLab</text>
</a>
</g>
</g>
<!-- Node3510&#45;&gt;Node3511 -->
<g id="edge1" class="edge">
<title>Node3510&#45;&gt;Node3511</title>
<path fill="none" stroke="#191970" d="M119.1474,-15.5C127.5802,-15.5 136.2546,-15.5 144.7806,-15.5"/>
<polygon fill="#191970" stroke="#191970" points="119.0073,-12.0001 109.0073,-15.5 119.0072,-19.0001 119.0073,-12.0001"/>
</g>
</g>
</svg>
