<?xml version="1.0" encoding="UTF-8" standalone="no"?>
<!DOCTYPE svg PUBLIC "-//W3C//DTD SVG 1.1//EN"
 "http://www.w3.org/Graphics/SVG/1.1/DTD/svg11.dtd">
<!-- Generated by graphviz version 2.40.1 (20161225.0304)
 -->
<!-- Title: cimg_library_suffixed::CImg::_functor3d_expr::~_functor3d_expr Pages: 1 -->
<svg width="471pt" height="88pt"
 viewBox="0.00 0.00 471.00 88.00" xmlns="http://www.w3.org/2000/svg" xmlns:xlink="http://www.w3.org/1999/xlink">
<g id="graph0" class="graph" transform="scale(1 1) rotate(0) translate(4 84)">
<title>cimg_library_suffixed::CImg::_functor3d_expr::~_functor3d_expr</title>
<polygon fill="#ffffff" stroke="transparent" points="-4,4 -4,-84 467,-84 467,4 -4,4"/>
<!-- Node0 -->
<g id="node1" class="node">
<title>Node0</title>
<polygon fill="#bfbfbf" stroke="#000000" points="0,-19 0,-60 122,-60 122,-19 0,-19"/>
<text text-anchor="start" x="8" y="-48" font-family="Helvetica,sans-Serif" font-size="10.00" fill="#000000">cimg_library_suffixed</text>
<text text-anchor="start" x="8" y="-37" font-family="Helvetica,sans-Serif" font-size="10.00" fill="#000000">::CImg::_functor3d_expr</text>
<text text-anchor="middle" x="61" y="-26" font-family="Helvetica,sans-Serif" font-size="10.00" fill="#000000">::~_functor3d_expr</text>
</g>
<!-- Node1 -->
<g id="node2" class="node">
<title>Node1</title>
<g id="a_node2"><a xlink:href="structcimg__library__suffixed_1_1_c_img_1_1__cimg__math__parser.html#a6707c6d516122d4e601391d6d0d608bc" target="_top" xlink:title="cimg_library_suffixed\l::CImg::_cimg_math_parser::end">
<polygon fill="#ffffff" stroke="#000000" points="158,-24.5 158,-54.5 318,-54.5 318,-24.5 158,-24.5"/>
<text text-anchor="start" x="166" y="-42.5" font-family="Helvetica,sans-Serif" font-size="10.00" fill="#000000">cimg_library_suffixed</text>
<text text-anchor="middle" x="238" y="-31.5" font-family="Helvetica,sans-Serif" font-size="10.00" fill="#000000">::CImg::_cimg_math_parser::end</text>
</a>
</g>
</g>
<!-- Node0&#45;&gt;Node1 -->
<g id="edge1" class="edge">
<title>Node0&#45;&gt;Node1</title>
<path fill="none" stroke="#191970" d="M122.4093,-39.5C130.6623,-39.5 139.2631,-39.5 147.8844,-39.5"/>
<polygon fill="#191970" stroke="#191970" points="147.9949,-43.0001 157.9949,-39.5 147.9948,-36.0001 147.9949,-43.0001"/>
</g>
<!-- Node2 -->
<g id="node3" class="node">
<title>Node2</title>
<g id="a_node3"><a xlink:href="structcimg__library__suffixed_1_1_c_img_list.html#a445d48f01ed07420b47cefa7e4db0730" target="_top" xlink:title="Return iterator to one position after the last image of the list. ">
<polygon fill="#ffffff" stroke="#000000" points="354,-49.5 354,-79.5 463,-79.5 463,-49.5 354,-49.5"/>
<text text-anchor="start" x="362" y="-67.5" font-family="Helvetica,sans-Serif" font-size="10.00" fill="#000000">cimg_library_suffixed</text>
<text text-anchor="middle" x="408.5" y="-56.5" font-family="Helvetica,sans-Serif" font-size="10.00" fill="#000000">::CImgList::end</text>
</a>
</g>
</g>
<!-- Node1&#45;&gt;Node2 -->
<g id="edge2" class="edge">
<title>Node1&#45;&gt;Node2</title>
<path fill="none" stroke="#191970" d="M318.2574,-51.268C326.8541,-52.5285 335.5188,-53.7989 343.9001,-55.0279"/>
<polygon fill="#191970" stroke="#191970" points="343.5573,-58.515 353.9593,-56.5028 344.5729,-51.589 343.5573,-58.515"/>
</g>
<!-- Node3 -->
<g id="node4" class="node">
<title>Node3</title>
<g id="a_node4"><a xlink:href="structcimg__library__suffixed_1_1_c_img_list.html#ae1f51c42341873aebaa428e522eed8c6" target="_top" xlink:title="Return true if list is empty. ">
<polygon fill="#ffffff" stroke="#000000" points="354,-.5 354,-30.5 463,-30.5 463,-.5 354,-.5"/>
<text text-anchor="start" x="362" y="-18.5" font-family="Helvetica,sans-Serif" font-size="10.00" fill="#000000">cimg_library_suffixed</text>
<text text-anchor="middle" x="408.5" y="-7.5" font-family="Helvetica,sans-Serif" font-size="10.00" fill="#000000">::CImgList::is_empty</text>
</a>
</g>
</g>
<!-- Node1&#45;&gt;Node3 -->
<g id="edge3" class="edge">
<title>Node1&#45;&gt;Node3</title>
<path fill="none" stroke="#191970" d="M318.2574,-28.2028C326.8541,-26.9927 335.5188,-25.773 343.9001,-24.5932"/>
<polygon fill="#191970" stroke="#191970" points="344.5448,-28.0371 353.9593,-23.1773 343.569,-21.1054 344.5448,-28.0371"/>
</g>
</g>
</svg>
