<?xml version="1.0" encoding="UTF-8" standalone="no"?>
<!DOCTYPE svg PUBLIC "-//W3C//DTD SVG 1.1//EN"
 "http://www.w3.org/Graphics/SVG/1.1/DTD/svg11.dtd">
<!-- Generated by graphviz version 2.40.1 (20161225.0304)
 -->
<!-- Title: cimg_library_suffixed::CImgList::const_empty Pages: 1 -->
<svg width="297pt" height="88pt"
 viewBox="0.00 0.00 297.00 88.00" xmlns="http://www.w3.org/2000/svg" xmlns:xlink="http://www.w3.org/1999/xlink">
<g id="graph0" class="graph" transform="scale(1 1) rotate(0) translate(4 84)">
<title>cimg_library_suffixed::CImgList::const_empty</title>
<polygon fill="#ffffff" stroke="transparent" points="-4,4 -4,-84 293,-84 293,4 -4,4"/>
<!-- Node229 -->
<g id="node1" class="node">
<title>Node229</title>
<polygon fill="#bfbfbf" stroke="#000000" points="0,-24.5 0,-54.5 125,-54.5 125,-24.5 0,-24.5"/>
<text text-anchor="start" x="8" y="-42.5" font-family="Helvetica,sans-Serif" font-size="10.00" fill="#000000">cimg_library_suffixed</text>
<text text-anchor="middle" x="62.5" y="-31.5" font-family="Helvetica,sans-Serif" font-size="10.00" fill="#000000">::CImgList::const_empty</text>
</g>
<!-- Node230 -->
<g id="node2" class="node">
<title>Node230</title>
<g id="a_node2"><a xlink:href="namespacecimg__library__suffixed_1_1cimg.html#a9f8980f1308177adebab5f8f52a79835" target="_top" xlink:title="Return list of files/directories in specified directory. ">
<polygon fill="#ffffff" stroke="#000000" points="170.5,-49.5 170.5,-79.5 279.5,-79.5 279.5,-49.5 170.5,-49.5"/>
<text text-anchor="start" x="178.5" y="-67.5" font-family="Helvetica,sans-Serif" font-size="10.00" fill="#000000">cimg_library_suffixed</text>
<text text-anchor="middle" x="225" y="-56.5" font-family="Helvetica,sans-Serif" font-size="10.00" fill="#000000">::cimg::files</text>
</a>
</g>
</g>
<!-- Node229&#45;&gt;Node230 -->
<g id="edge1" class="edge">
<title>Node229&#45;&gt;Node230</title>
<path fill="none" stroke="#191970" d="M135.512,-50.7326C147.1974,-52.5304 159.1124,-54.3635 170.2769,-56.0811"/>
<polygon fill="#191970" stroke="#191970" points="135.7427,-47.227 125.3267,-49.1657 134.6782,-54.1456 135.7427,-47.227"/>
</g>
<!-- Node231 -->
<g id="node3" class="node">
<title>Node231</title>
<g id="a_node3"><a xlink:href="structcimg__library__suffixed_1_1_c_img_list.html#aeb4a6463a473fa5935f69534ca1a49c8" target="_top" xlink:title="Return a CImg pre&#45;defined font with desired size. ">
<polygon fill="#ffffff" stroke="#000000" points="161,-.5 161,-30.5 289,-30.5 289,-.5 161,-.5"/>
<text text-anchor="start" x="169" y="-18.5" font-family="Helvetica,sans-Serif" font-size="10.00" fill="#000000">cimg_library_suffixed</text>
<text text-anchor="middle" x="225" y="-7.5" font-family="Helvetica,sans-Serif" font-size="10.00" fill="#000000">::CImgList&lt; charT &gt;::font</text>
</a>
</g>
</g>
<!-- Node229&#45;&gt;Node231 -->
<g id="edge2" class="edge">
<title>Node229&#45;&gt;Node231</title>
<path fill="none" stroke="#191970" d="M135.303,-28.7476C143.8705,-27.4822 152.5647,-26.1981 160.9989,-24.9525"/>
<polygon fill="#191970" stroke="#191970" points="134.708,-25.2974 125.3267,-30.221 135.7308,-32.2223 134.708,-25.2974"/>
</g>
</g>
</svg>
