<?xml version="1.0" encoding="UTF-8" standalone="no"?>
<!DOCTYPE svg PUBLIC "-//W3C//DTD SVG 1.1//EN"
 "http://www.w3.org/Graphics/SVG/1.1/DTD/svg11.dtd">
<!-- Generated by graphviz version 2.40.1 (20161225.0304)
 -->
<!-- Title: cimg_library_suffixed::CImg::_cimg_math_parser::mp_transp Pages: 1 -->
<svg width="296pt" height="50pt"
 viewBox="0.00 0.00 296.00 50.00" xmlns="http://www.w3.org/2000/svg" xmlns:xlink="http://www.w3.org/1999/xlink">
<g id="graph0" class="graph" transform="scale(1 1) rotate(0) translate(4 46)">
<title>cimg_library_suffixed::CImg::_cimg_math_parser::mp_transp</title>
<polygon fill="#ffffff" stroke="transparent" points="-4,4 -4,-46 292,-46 292,4 -4,4"/>
<!-- Node1152 -->
<g id="node1" class="node">
<title>Node1152</title>
<polygon fill="#bfbfbf" stroke="#000000" points="0,-.5 0,-41.5 138,-41.5 138,-.5 0,-.5"/>
<text text-anchor="start" x="8" y="-29.5" font-family="Helvetica,sans-Serif" font-size="10.00" fill="#000000">cimg_library_suffixed</text>
<text text-anchor="start" x="8" y="-18.5" font-family="Helvetica,sans-Serif" font-size="10.00" fill="#000000">::CImg::_cimg_math_parser</text>
<text text-anchor="middle" x="69" y="-7.5" font-family="Helvetica,sans-Serif" font-size="10.00" fill="#000000">::mp_transp</text>
</g>
<!-- Node1153 -->
<g id="node2" class="node">
<title>Node1153</title>
<g id="a_node2"><a xlink:href="structcimg__library__suffixed_1_1_c_img.html#a2b3d9ccf339d46f21ea41319082dd155" target="_top" xlink:title="Transpose the image, viewed as a matrix . ">
<polygon fill="#ffffff" stroke="#000000" points="174,-6 174,-36 288,-36 288,-6 174,-6"/>
<text text-anchor="start" x="182" y="-24" font-family="Helvetica,sans-Serif" font-size="10.00" fill="#000000">cimg_library_suffixed</text>
<text text-anchor="middle" x="231" y="-13" font-family="Helvetica,sans-Serif" font-size="10.00" fill="#000000">::CImg::get_transpose</text>
</a>
</g>
</g>
<!-- Node1152&#45;&gt;Node1153 -->
<g id="edge1" class="edge">
<title>Node1152&#45;&gt;Node1153</title>
<path fill="none" stroke="#191970" d="M138.1725,-21C146.6097,-21 155.2219,-21 163.6323,-21"/>
<polygon fill="#191970" stroke="#191970" points="163.7656,-24.5001 173.7656,-21 163.7655,-17.5001 163.7656,-24.5001"/>
</g>
</g>
</svg>
