<?xml version="1.0" encoding="UTF-8" standalone="no"?>
<!DOCTYPE svg PUBLIC "-//W3C//DTD SVG 1.1//EN"
 "http://www.w3.org/Graphics/SVG/1.1/DTD/svg11.dtd">
<!-- Generated by graphviz version 2.40.1 (20161225.0304)
 -->
<!-- Title: cimg_library_suffixed::CImg::_LU Pages: 1 -->
<svg width="272pt" height="88pt"
 viewBox="0.00 0.00 272.00 88.00" xmlns="http://www.w3.org/2000/svg" xmlns:xlink="http://www.w3.org/1999/xlink">
<g id="graph0" class="graph" transform="scale(1 1) rotate(0) translate(4 84)">
<title>cimg_library_suffixed::CImg::_LU</title>
<polygon fill="#ffffff" stroke="transparent" points="-4,4 -4,-84 268,-84 268,4 -4,4"/>
<!-- Node248 -->
<g id="node1" class="node">
<title>Node248</title>
<polygon fill="#bfbfbf" stroke="#000000" points="0,-24.5 0,-54.5 109,-54.5 109,-24.5 0,-24.5"/>
<text text-anchor="start" x="8" y="-42.5" font-family="Helvetica,sans-Serif" font-size="10.00" fill="#000000">cimg_library_suffixed</text>
<text text-anchor="middle" x="54.5" y="-31.5" font-family="Helvetica,sans-Serif" font-size="10.00" fill="#000000">::CImg::_LU</text>
</g>
<!-- Node249 -->
<g id="node2" class="node">
<title>Node249</title>
<g id="a_node2"><a xlink:href="structcimg__library__suffixed_1_1_c_img.html#a89c4a7eddf8e3d1cc5823576a2399c45" target="_top" xlink:title="Compute the determinant of the image, viewed as a matrix. ">
<polygon fill="#ffffff" stroke="#000000" points="150,-49.5 150,-79.5 259,-79.5 259,-49.5 150,-49.5"/>
<text text-anchor="start" x="158" y="-67.5" font-family="Helvetica,sans-Serif" font-size="10.00" fill="#000000">cimg_library_suffixed</text>
<text text-anchor="middle" x="204.5" y="-56.5" font-family="Helvetica,sans-Serif" font-size="10.00" fill="#000000">::CImg&lt; charT &gt;::det</text>
</a>
</g>
</g>
<!-- Node248&#45;&gt;Node249 -->
<g id="edge1" class="edge">
<title>Node248&#45;&gt;Node249</title>
<path fill="none" stroke="#191970" d="M119.2123,-50.2854C129.463,-51.9938 139.9751,-53.7458 149.9629,-55.4105"/>
<polygon fill="#191970" stroke="#191970" points="119.5171,-46.788 109.0778,-48.5963 118.3663,-53.6927 119.5171,-46.788"/>
</g>
<!-- Node250 -->
<g id="node3" class="node">
<title>Node250</title>
<g id="a_node3"><a xlink:href="structcimg__library__suffixed_1_1_c_img.html#a3c868d05056064840adec3b2e75f2c22" target="_top" xlink:title="Solve a system of linear equations. ">
<polygon fill="#ffffff" stroke="#000000" points="145,-.5 145,-30.5 264,-30.5 264,-.5 145,-.5"/>
<text text-anchor="start" x="153" y="-18.5" font-family="Helvetica,sans-Serif" font-size="10.00" fill="#000000">cimg_library_suffixed</text>
<text text-anchor="middle" x="204.5" y="-7.5" font-family="Helvetica,sans-Serif" font-size="10.00" fill="#000000">::CImg&lt; charT &gt;::solve</text>
</a>
</g>
</g>
<!-- Node248&#45;&gt;Node250 -->
<g id="edge2" class="edge">
<title>Node248&#45;&gt;Node250</title>
<path fill="none" stroke="#191970" d="M119.0431,-29.1731C127.6286,-27.7994 136.4006,-26.3959 144.897,-25.0365"/>
<polygon fill="#191970" stroke="#191970" points="118.3992,-25.7315 109.0778,-30.7676 119.5052,-32.6436 118.3992,-25.7315"/>
</g>
</g>
</svg>
