<?xml version="1.0" encoding="UTF-8" standalone="no"?>
<!DOCTYPE svg PUBLIC "-//W3C//DTD SVG 1.1//EN"
 "http://www.w3.org/Graphics/SVG/1.1/DTD/svg11.dtd">
<!-- Generated by graphviz version 2.40.1 (20161225.0304)
 -->
<!-- Title: cimg_library_suffixed::CImg::median Pages: 1 -->
<svg width="291pt" height="230pt"
 viewBox="0.00 0.00 291.00 230.00" xmlns="http://www.w3.org/2000/svg" xmlns:xlink="http://www.w3.org/1999/xlink">
<g id="graph0" class="graph" transform="scale(1 1) rotate(0) translate(4 226)">
<title>cimg_library_suffixed::CImg::median</title>
<polygon fill="#ffffff" stroke="transparent" points="-4,4 -4,-226 287,-226 287,4 -4,4"/>
<!-- Node2503 -->
<g id="node1" class="node">
<title>Node2503</title>
<polygon fill="#bfbfbf" stroke="#000000" points="0,-96 0,-126 109,-126 109,-96 0,-96"/>
<text text-anchor="start" x="8" y="-114" font-family="Helvetica,sans-Serif" font-size="10.00" fill="#000000">cimg_library_suffixed</text>
<text text-anchor="middle" x="54.5" y="-103" font-family="Helvetica,sans-Serif" font-size="10.00" fill="#000000">::CImg::median</text>
</g>
<!-- Node2504 -->
<g id="node2" class="node">
<title>Node2504</title>
<g id="a_node2"><a xlink:href="structcimg__library__suffixed_1_1_c_img_1_1__cimg__math__parser.html#a318c44c5d1f4f0114355f37ace87a4ae" target="_top" xlink:title="cimg_library_suffixed\l::CImg::_cimg_math_parser\l::compile">
<polygon fill="#ffffff" stroke="#000000" points="145,-180.5 145,-221.5 283,-221.5 283,-180.5 145,-180.5"/>
<text text-anchor="start" x="153" y="-209.5" font-family="Helvetica,sans-Serif" font-size="10.00" fill="#000000">cimg_library_suffixed</text>
<text text-anchor="start" x="153" y="-198.5" font-family="Helvetica,sans-Serif" font-size="10.00" fill="#000000">::CImg::_cimg_math_parser</text>
<text text-anchor="middle" x="214" y="-187.5" font-family="Helvetica,sans-Serif" font-size="10.00" fill="#000000">::compile</text>
</a>
</g>
</g>
<!-- Node2503&#45;&gt;Node2504 -->
<g id="edge1" class="edge">
<title>Node2503&#45;&gt;Node2504</title>
<path fill="none" stroke="#191970" d="M83.6115,-132.1927C100.9666,-144.3412 123.7017,-159.4258 145,-171 150.9681,-174.2433 157.3586,-177.4068 163.7537,-180.3891"/>
<polygon fill="#191970" stroke="#191970" points="85.2468,-129.0621 75.0624,-126.1416 81.2026,-134.7757 85.2468,-129.0621"/>
</g>
<!-- Node2505 -->
<g id="node3" class="node">
<title>Node2505</title>
<g id="a_node3"><a xlink:href="structcimg__library__suffixed_1_1_c_img.html#a0f2e5b8bd31f04a77eb2244444de98b5" target="_top" xlink:title="Blur image with the median filter . ">
<polygon fill="#ffffff" stroke="#000000" points="159.5,-120.5 159.5,-161.5 268.5,-161.5 268.5,-120.5 159.5,-120.5"/>
<text text-anchor="start" x="167.5" y="-149.5" font-family="Helvetica,sans-Serif" font-size="10.00" fill="#000000">cimg_library_suffixed</text>
<text text-anchor="start" x="167.5" y="-138.5" font-family="Helvetica,sans-Serif" font-size="10.00" fill="#000000">::CImg&lt; charT &gt;::get</text>
<text text-anchor="middle" x="214" y="-127.5" font-family="Helvetica,sans-Serif" font-size="10.00" fill="#000000">_blur_median</text>
</a>
</g>
</g>
<!-- Node2503&#45;&gt;Node2505 -->
<g id="edge2" class="edge">
<title>Node2503&#45;&gt;Node2505</title>
<path fill="none" stroke="#191970" d="M119.3814,-123.2034C132.6237,-125.6941 146.433,-128.2915 159.2783,-130.7075"/>
<polygon fill="#191970" stroke="#191970" points="119.8655,-119.7332 109.3909,-121.3243 118.5715,-126.6125 119.8655,-119.7332"/>
</g>
<!-- Node2506 -->
<g id="node4" class="node">
<title>Node2506</title>
<g id="a_node4"><a xlink:href="structcimg__library__suffixed_1_1_c_img_1_1__cimg__math__parser.html#af3e64e2429c13f0f71651e507cc32e51" target="_top" xlink:title="cimg_library_suffixed\l::CImg::_cimg_math_parser\l::mp_image_median">
<polygon fill="#ffffff" stroke="#000000" points="145,-60.5 145,-101.5 283,-101.5 283,-60.5 145,-60.5"/>
<text text-anchor="start" x="153" y="-89.5" font-family="Helvetica,sans-Serif" font-size="10.00" fill="#000000">cimg_library_suffixed</text>
<text text-anchor="start" x="153" y="-78.5" font-family="Helvetica,sans-Serif" font-size="10.00" fill="#000000">::CImg::_cimg_math_parser</text>
<text text-anchor="middle" x="214" y="-67.5" font-family="Helvetica,sans-Serif" font-size="10.00" fill="#000000">::mp_image_median</text>
</a>
</g>
</g>
<!-- Node2503&#45;&gt;Node2506 -->
<g id="edge3" class="edge">
<title>Node2503&#45;&gt;Node2506</title>
<path fill="none" stroke="#191970" d="M119.4793,-98.7782C127.8632,-97.2013 136.4728,-95.5819 144.9198,-93.9931"/>
<polygon fill="#191970" stroke="#191970" points="118.5715,-95.3875 109.3909,-100.6757 119.8655,-102.2668 118.5715,-95.3875"/>
</g>
<!-- Node2507 -->
<g id="node5" class="node">
<title>Node2507</title>
<g id="a_node5"><a xlink:href="structcimg__library__suffixed_1_1_c_img_1_1__cimg__math__parser.html#af2201347f6979e6479ab6eb781585a6c" target="_top" xlink:title="cimg_library_suffixed\l::CImg::_cimg_math_parser\l::mp_median">
<polygon fill="#ffffff" stroke="#000000" points="145,-.5 145,-41.5 283,-41.5 283,-.5 145,-.5"/>
<text text-anchor="start" x="153" y="-29.5" font-family="Helvetica,sans-Serif" font-size="10.00" fill="#000000">cimg_library_suffixed</text>
<text text-anchor="start" x="153" y="-18.5" font-family="Helvetica,sans-Serif" font-size="10.00" fill="#000000">::CImg::_cimg_math_parser</text>
<text text-anchor="middle" x="214" y="-7.5" font-family="Helvetica,sans-Serif" font-size="10.00" fill="#000000">::mp_median</text>
</a>
</g>
</g>
<!-- Node2503&#45;&gt;Node2507 -->
<g id="edge4" class="edge">
<title>Node2503&#45;&gt;Node2507</title>
<path fill="none" stroke="#191970" d="M83.6115,-89.8073C100.9666,-77.6588 123.7017,-62.5742 145,-51 150.9681,-47.7567 157.3586,-44.5932 163.7537,-41.6109"/>
<polygon fill="#191970" stroke="#191970" points="81.2026,-87.2243 75.0624,-95.8584 85.2468,-92.9379 81.2026,-87.2243"/>
</g>
</g>
</svg>
