<?xml version="1.0" encoding="UTF-8" standalone="no"?>
<!DOCTYPE svg PUBLIC "-//W3C//DTD SVG 1.1//EN"
 "http://www.w3.org/Graphics/SVG/1.1/DTD/svg11.dtd">
<!-- Generated by graphviz version 2.40.1 (20161225.0304)
 -->
<!-- Title: cimg_library_suffixed::CImg::_cimg_math_parser::mp_vector_print Pages: 1 -->
<!--zoomable 214 -->
<svg id="main" version="1.1" xmlns="http://www.w3.org/2000/svg" xmlns:xlink="http://www.w3.org/1999/xlink" xml:space="preserve" onload="init(evt)">
<style type="text/css"><![CDATA[
.edge:hover path { stroke: red; }
.edge:hover polygon { stroke: red; fill: red; }
]]></style>
<script type="text/javascript"><![CDATA[
var edges = document.getElementsByTagName('g');
if (edges && edges.length) {
  for (var i=0;i<edges.length;i++) {
    if (edges[i].id.substr(0,4)=='edge') {
      edges[i].setAttribute('class','edge');
    }
  }
}
]]></script>
        <defs>
                <circle id="rim" cx="0" cy="0" r="7"/>
                <circle id="rim2" cx="0" cy="0" r="3.5"/>
                <g id="zoomPlus">
                        <use xlink:href="#rim" fill="#404040">
                                <set attributeName="fill" to="#808080" begin="zoomplus.mouseover" end="zoomplus.mouseout"/>
                        </use>
                        <path d="M-4,0h8M0,-4v8" fill="none" stroke="white" stroke-width="1.5" pointer-events="none"/>
                </g>
                <g id="zoomMin">
                        <use xlink:href="#rim" fill="#404040">
                                <set attributeName="fill" to="#808080" begin="zoomminus.mouseover" end="zoomminus.mouseout"/>
                        </use>
                        <path d="M-4,0h8" fill="none" stroke="white" stroke-width="1.5" pointer-events="none"/>
                </g>
                <g id="dirArrow">
                        <path fill="none" stroke="white" stroke-width="1.5" d="M0,-3.0v7 M-2.5,-0.5L0,-3.0L2.5,-0.5"/>
                </g>
               <g id="resetDef">
                       <use xlink:href="#rim2" fill="#404040">
                               <set attributeName="fill" to="#808080" begin="reset.mouseover" end="reset.mouseout"/>
                       </use>
               </g>
        </defs>

<script type="text/javascript">
var viewWidth = 1504;
var viewHeight = 214;
var sectionId = 'dynsection-168';
</script>
<script xlink:href="svgpan.js"/>
<svg id="graph" class="graph">
<g id="viewport">
<title>cimg_library_suffixed::CImg::_cimg_math_parser::mp_vector_print</title>
<polygon fill="#ffffff" stroke="transparent" points="-4,4 -4,-209.7982 1500,-209.7982 1500,4 -4,4"/>
<!-- Node1195 -->
<g id="node1" class="node">
<title>Node1195</title>
<polygon fill="#bfbfbf" stroke="#000000" points="0,-135.7982 0,-176.7982 138,-176.7982 138,-135.7982 0,-135.7982"/>
<text text-anchor="start" x="8" y="-164.7982" font-family="Helvetica,sans-Serif" font-size="10.00" fill="#000000">cimg_library_suffixed</text>
<text text-anchor="start" x="8" y="-153.7982" font-family="Helvetica,sans-Serif" font-size="10.00" fill="#000000">::CImg::_cimg_math_parser</text>
<text text-anchor="middle" x="69" y="-142.7982" font-family="Helvetica,sans-Serif" font-size="10.00" fill="#000000">::mp_vector_print</text>
</g>
<!-- Node1196 -->
<g id="node2" class="node">
<title>Node1196</title>
<g id="a_node2"><a xlink:href="namespacecimg__library__suffixed_1_1cimg.html#a9e739e4b4ac058abfba069466617b914" target="_top" xlink:title="cimg_library_suffixed\l::cimg::mutex">
<polygon fill="#ffffff" stroke="#000000" points="1073,-128.2982 1073,-158.2982 1182,-158.2982 1182,-128.2982 1073,-128.2982"/>
<text text-anchor="start" x="1081" y="-146.2982" font-family="Helvetica,sans-Serif" font-size="10.00" fill="#000000">cimg_library_suffixed</text>
<text text-anchor="middle" x="1127.5" y="-135.2982" font-family="Helvetica,sans-Serif" font-size="10.00" fill="#000000">::cimg::mutex</text>
</a>
</g>
</g>
<!-- Node1195&#45;&gt;Node1196 -->
<g id="edge1" class="edge">
<title>Node1195&#45;&gt;Node1196</title>
<path fill="none" stroke="#191970" d="M138.1943,-174.2079C150.0805,-176.8719 162.3537,-179.3668 174,-181.2982 261.8677,-195.8705 284.4321,-200.2982 373.5,-200.2982 373.5,-200.2982 373.5,-200.2982 837.5,-200.2982 919.8364,-200.2982 1012.8952,-177.9025 1070.8837,-161.1874"/>
<polygon fill="#191970" stroke="#191970" points="1071.9718,-164.5158 1080.5869,-158.3489 1070.0064,-157.7974 1071.9718,-164.5158"/>
</g>
<!-- Node1201 -->
<g id="node7" class="node">
<title>Node1201</title>
<g id="a_node7"><a xlink:href="namespacecimg__library__suffixed_1_1cimg.html#ada686776cc71803df391eea79cd1b3e5" target="_top" xlink:title="Get/set default output stream for the &#160;library messages. ">
<polygon fill="#ffffff" stroke="#000000" points="174,-141.2982 174,-171.2982 283,-171.2982 283,-141.2982 174,-141.2982"/>
<text text-anchor="start" x="182" y="-159.2982" font-family="Helvetica,sans-Serif" font-size="10.00" fill="#000000">cimg_library_suffixed</text>
<text text-anchor="middle" x="228.5" y="-148.2982" font-family="Helvetica,sans-Serif" font-size="10.00" fill="#000000">::cimg::output</text>
</a>
</g>
</g>
<!-- Node1195&#45;&gt;Node1201 -->
<g id="edge7" class="edge">
<title>Node1195&#45;&gt;Node1201</title>
<path fill="none" stroke="#191970" d="M138.0314,-156.2982C146.5309,-156.2982 155.1959,-156.2982 163.6306,-156.2982"/>
<polygon fill="#191970" stroke="#191970" points="163.7783,-159.7983 173.7783,-156.2982 163.7782,-152.7983 163.7783,-159.7983"/>
</g>
<!-- Node1208 -->
<g id="node14" class="node">
<title>Node1208</title>
<g id="a_node14"><a xlink:href="namespacecimg__library__suffixed_1_1cimg.html#a69a3a1bbdf0f62474211ea5a398f9e72" target="_top" xlink:title="Ellipsize a string. ">
<polygon fill="#ffffff" stroke="#000000" points="174,-92.2982 174,-122.2982 283,-122.2982 283,-92.2982 174,-92.2982"/>
<text text-anchor="start" x="182" y="-110.2982" font-family="Helvetica,sans-Serif" font-size="10.00" fill="#000000">cimg_library_suffixed</text>
<text text-anchor="middle" x="228.5" y="-99.2982" font-family="Helvetica,sans-Serif" font-size="10.00" fill="#000000">::cimg::strellipsize</text>
</a>
</g>
</g>
<!-- Node1195&#45;&gt;Node1208 -->
<g id="edge22" class="edge">
<title>Node1195&#45;&gt;Node1208</title>
<path fill="none" stroke="#191970" d="M136.1801,-135.6598C147.2612,-132.2556 158.6745,-128.7493 169.5349,-125.4129"/>
<polygon fill="#191970" stroke="#191970" points="170.7967,-128.6868 179.328,-122.4044 168.741,-121.9954 170.7967,-128.6868"/>
</g>
<!-- Node1197 -->
<g id="node3" class="node">
<title>Node1197</title>
<g id="a_node3"><a xlink:href="namespacecimg__library__suffixed_1_1cimg.html#aa0e1bc96ae6e235dc5b67b8b0a466166" target="_top" xlink:title="cimg_library_suffixed\l::cimg::Mutex_attr">
<polygon fill="#ffffff" stroke="#000000" points="1387,-175.2982 1387,-205.2982 1496,-205.2982 1496,-175.2982 1387,-175.2982"/>
<text text-anchor="start" x="1395" y="-193.2982" font-family="Helvetica,sans-Serif" font-size="10.00" fill="#000000">cimg_library_suffixed</text>
<text text-anchor="middle" x="1441.5" y="-182.2982" font-family="Helvetica,sans-Serif" font-size="10.00" fill="#000000">::cimg::Mutex_attr</text>
</a>
</g>
</g>
<!-- Node1196&#45;&gt;Node1197 -->
<g id="edge2" class="edge">
<title>Node1196&#45;&gt;Node1197</title>
<path fill="none" stroke="#191970" d="M1147.7886,-158.4582C1165.338,-170.5643 1191.9275,-186.5748 1218,-193.2982 1270.2267,-206.7661 1331.6233,-204.7256 1376.8381,-200.0466"/>
<polygon fill="#191970" stroke="#191970" points="1377.253,-203.5222 1386.8082,-198.9453 1376.4844,-196.5645 1377.253,-203.5222"/>
</g>
<!-- Node1198 -->
<g id="node4" class="node">
<title>Node1198</title>
<g id="a_node4"><a xlink:href="structcimg__library__suffixed_1_1cimg_1_1_mutex__info.html#afac3fa5f107ad4795fb867050f616555" target="_top" xlink:title="cimg_library_suffixed\l::cimg::Mutex_info::unlock">
<polygon fill="#ffffff" stroke="#000000" points="1218.5,-104.2982 1218.5,-134.2982 1350.5,-134.2982 1350.5,-104.2982 1218.5,-104.2982"/>
<text text-anchor="start" x="1226.5" y="-122.2982" font-family="Helvetica,sans-Serif" font-size="10.00" fill="#000000">cimg_library_suffixed</text>
<text text-anchor="middle" x="1284.5" y="-111.2982" font-family="Helvetica,sans-Serif" font-size="10.00" fill="#000000">::cimg::Mutex_info::unlock</text>
</a>
</g>
</g>
<!-- Node1196&#45;&gt;Node1198 -->
<g id="edge3" class="edge">
<title>Node1196&#45;&gt;Node1198</title>
<path fill="none" stroke="#191970" d="M1182.411,-134.9042C1190.7369,-133.6314 1199.453,-132.299 1208.1344,-130.972"/>
<polygon fill="#191970" stroke="#191970" points="1208.9278,-134.3914 1218.2841,-129.4204 1207.87,-127.4718 1208.9278,-134.3914"/>
</g>
<!-- Node1199 -->
<g id="node5" class="node">
<title>Node1199</title>
<g id="a_node5"><a xlink:href="structcimg__library__suffixed_1_1cimg_1_1_mutex__info.html#a6cc8e26847a1aa649febed03d70182e7" target="_top" xlink:title="cimg_library_suffixed\l::cimg::Mutex_info::lock">
<polygon fill="#ffffff" stroke="#000000" points="1223.5,-55.2982 1223.5,-85.2982 1345.5,-85.2982 1345.5,-55.2982 1223.5,-55.2982"/>
<text text-anchor="start" x="1231.5" y="-73.2982" font-family="Helvetica,sans-Serif" font-size="10.00" fill="#000000">cimg_library_suffixed</text>
<text text-anchor="middle" x="1284.5" y="-62.2982" font-family="Helvetica,sans-Serif" font-size="10.00" fill="#000000">::cimg::Mutex_info::lock</text>
</a>
</g>
</g>
<!-- Node1196&#45;&gt;Node1199 -->
<g id="edge4" class="edge">
<title>Node1196&#45;&gt;Node1199</title>
<path fill="none" stroke="#191970" d="M1153.9788,-128.0994C1171.7871,-118.1665 1195.9505,-105.241 1218,-95.2982 1222.6591,-93.1973 1227.5523,-91.1215 1232.4816,-89.1177"/>
<polygon fill="#191970" stroke="#191970" points="1233.9456,-92.3025 1241.9536,-85.3655 1231.3675,-85.7945 1233.9456,-92.3025"/>
</g>
<!-- Node1200 -->
<g id="node6" class="node">
<title>Node1200</title>
<g id="a_node6"><a xlink:href="structcimg__library__suffixed_1_1cimg_1_1_mutex__info.html#a9bf4ed1e1dfe6f28fa6250cd04f3c900" target="_top" xlink:title="cimg_library_suffixed\l::cimg::Mutex_info::trylock">
<polygon fill="#ffffff" stroke="#000000" points="1218,-153.2982 1218,-183.2982 1351,-183.2982 1351,-153.2982 1218,-153.2982"/>
<text text-anchor="start" x="1226" y="-171.2982" font-family="Helvetica,sans-Serif" font-size="10.00" fill="#000000">cimg_library_suffixed</text>
<text text-anchor="middle" x="1284.5" y="-160.2982" font-family="Helvetica,sans-Serif" font-size="10.00" fill="#000000">::cimg::Mutex_info::trylock</text>
</a>
</g>
</g>
<!-- Node1196&#45;&gt;Node1200 -->
<g id="edge5" class="edge">
<title>Node1196&#45;&gt;Node1200</title>
<path fill="none" stroke="#191970" d="M1182.411,-152.042C1190.6098,-153.3475 1199.187,-154.7134 1207.7367,-156.0748"/>
<polygon fill="#191970" stroke="#191970" points="1207.3105,-159.5509 1217.7365,-157.6671 1208.4113,-152.638 1207.3105,-159.5509"/>
</g>
<!-- Node1200&#45;&gt;Node1197 -->
<g id="edge6" class="edge">
<title>Node1200&#45;&gt;Node1197</title>
<path fill="none" stroke="#191970" d="M1351.0821,-177.6282C1359.5193,-178.8105 1368.1445,-180.0191 1376.5556,-181.1977"/>
<polygon fill="#191970" stroke="#191970" points="1376.293,-184.6951 1386.682,-182.6167 1377.2645,-177.7628 1376.293,-184.6951"/>
</g>
<!-- Node1201&#45;&gt;Node1196 -->
<g id="edge8" class="edge">
<title>Node1201&#45;&gt;Node1196</title>
<path fill="none" stroke="#191970" d="M283.0486,-158.066C342.4344,-159.8358 440.2049,-162.2982 524.5,-162.2982 524.5,-162.2982 524.5,-162.2982 837.5,-162.2982 914.9647,-162.2982 1003.8203,-155.4643 1062.5413,-149.9935"/>
<polygon fill="#191970" stroke="#191970" points="1063.1576,-153.4509 1072.7835,-149.0246 1062.4982,-146.4821 1063.1576,-153.4509"/>
</g>
<!-- Node1202 -->
<g id="node8" class="node">
<title>Node1202</title>
<g id="a_node8"><a xlink:href="namespacecimg__library__suffixed_1_1cimg.html#aab8db7528c32a8fd3a3dc471e662782e" target="_top" xlink:title="cimg_library_suffixed\l::cimg::_stderr">
<polygon fill="#ffffff" stroke="#000000" points="319,-76.2982 319,-106.2982 428,-106.2982 428,-76.2982 319,-76.2982"/>
<text text-anchor="start" x="327" y="-94.2982" font-family="Helvetica,sans-Serif" font-size="10.00" fill="#000000">cimg_library_suffixed</text>
<text text-anchor="middle" x="373.5" y="-83.2982" font-family="Helvetica,sans-Serif" font-size="10.00" fill="#000000">::cimg::_stderr</text>
</a>
</g>
</g>
<!-- Node1201&#45;&gt;Node1202 -->
<g id="edge9" class="edge">
<title>Node1201&#45;&gt;Node1202</title>
<path fill="none" stroke="#191970" d="M262.8302,-141.2462C269.5251,-138.2923 276.4866,-135.2077 283,-132.2982 298.7812,-125.249 316.0736,-117.4366 331.2765,-110.5385"/>
<polygon fill="#191970" stroke="#191970" points="332.7825,-113.6986 340.4401,-106.3766 329.8878,-107.3251 332.7825,-113.6986"/>
</g>
<!-- Node1203 -->
<g id="node9" class="node">
<title>Node1203</title>
<g id="a_node9"><a xlink:href="namespacecimg__library__suffixed_1_1cimg.html#a79aef0cbcf66ceb71c2b74cb66b4deb2" target="_top" xlink:title="Avoid warning messages due to unused parameters. Do nothing actually. ">
<polygon fill="#ffffff" stroke="#000000" points="928,-41.2982 928,-71.2982 1037,-71.2982 1037,-41.2982 928,-41.2982"/>
<text text-anchor="start" x="936" y="-59.2982" font-family="Helvetica,sans-Serif" font-size="10.00" fill="#000000">cimg_library_suffixed</text>
<text text-anchor="middle" x="982.5" y="-48.2982" font-family="Helvetica,sans-Serif" font-size="10.00" fill="#000000">::cimg::unused</text>
</a>
</g>
</g>
<!-- Node1202&#45;&gt;Node1203 -->
<g id="edge10" class="edge">
<title>Node1202&#45;&gt;Node1203</title>
<path fill="none" stroke="#191970" d="M396.6896,-76.2661C414.4015,-65.5424 439.8045,-51.7504 464,-44.2982 600.4545,-2.2702 640.4707,-14.7575 783,-6.2982 831.3593,-3.428 845.0902,5.7986 892,-6.2982 914.2024,-12.0236 936.7796,-24.4837 953.8301,-35.5323"/>
<polygon fill="#191970" stroke="#191970" points="951.9534,-38.4878 962.2114,-41.1382 955.8452,-32.6693 951.9534,-38.4878"/>
</g>
<!-- Node1204 -->
<g id="node10" class="node">
<title>Node1204</title>
<g id="a_node10"><a xlink:href="namespacecimg__library__suffixed_1_1cimg.html#aeafab144366eddd11360f32f468fa4af" target="_top" xlink:title="Set current &#160;exception mode. ">
<polygon fill="#ffffff" stroke="#000000" points="464,-54.2982 464,-84.2982 585,-84.2982 585,-54.2982 464,-54.2982"/>
<text text-anchor="start" x="472" y="-72.2982" font-family="Helvetica,sans-Serif" font-size="10.00" fill="#000000">cimg_library_suffixed</text>
<text text-anchor="middle" x="524.5" y="-61.2982" font-family="Helvetica,sans-Serif" font-size="10.00" fill="#000000">::cimg::exception_mode</text>
</a>
</g>
</g>
<!-- Node1202&#45;&gt;Node1204 -->
<g id="edge12" class="edge">
<title>Node1202&#45;&gt;Node1204</title>
<path fill="none" stroke="#191970" d="M428.0145,-83.3557C436.3935,-82.1349 445.1471,-80.8596 453.8158,-79.5966"/>
<polygon fill="#191970" stroke="#191970" points="454.5345,-83.0289 463.9254,-78.1237 453.5253,-76.102 454.5345,-83.0289"/>
</g>
<!-- Node1203&#45;&gt;Node1196 -->
<g id="edge11" class="edge">
<title>Node1203&#45;&gt;Node1196</title>
<path fill="none" stroke="#191970" d="M1007.7571,-71.4525C1031.4188,-85.6495 1066.9718,-106.9813 1093.1945,-122.7149"/>
<polygon fill="#191970" stroke="#191970" points="1091.6702,-125.882 1102.0458,-128.0257 1095.2717,-119.8795 1091.6702,-125.882"/>
</g>
<!-- Node1205 -->
<g id="node11" class="node">
<title>Node1205</title>
<g id="a_node11"><a xlink:href="namespacecimg__library__suffixed_1_1cimg.html#a6c578f866de2be9be7e385d693c758c8" target="_top" xlink:title="cimg_library_suffixed\l::cimg::_exception_mode">
<polygon fill="#ffffff" stroke="#000000" points="621,-98.2982 621,-128.2982 747,-128.2982 747,-98.2982 621,-98.2982"/>
<text text-anchor="start" x="629" y="-116.2982" font-family="Helvetica,sans-Serif" font-size="10.00" fill="#000000">cimg_library_suffixed</text>
<text text-anchor="middle" x="684" y="-105.2982" font-family="Helvetica,sans-Serif" font-size="10.00" fill="#000000">::cimg::_exception_mode</text>
</a>
</g>
</g>
<!-- Node1204&#45;&gt;Node1205 -->
<g id="edge13" class="edge">
<title>Node1204&#45;&gt;Node1205</title>
<path fill="none" stroke="#191970" d="M578.9447,-84.3175C592.0889,-87.9434 606.2562,-91.8517 619.8009,-95.5881"/>
<polygon fill="#191970" stroke="#191970" points="618.9593,-98.9866 629.53,-98.272 620.8209,-92.2387 618.9593,-98.9866"/>
</g>
<!-- Node1205&#45;&gt;Node1196 -->
<g id="edge14" class="edge">
<title>Node1205&#45;&gt;Node1196</title>
<path fill="none" stroke="#191970" d="M747.0717,-117.5646C830.8352,-123.2307 978.0329,-133.1877 1062.6723,-138.913"/>
<polygon fill="#191970" stroke="#191970" points="1062.4621,-142.4067 1072.6756,-139.5897 1062.9346,-135.4227 1062.4621,-142.4067"/>
</g>
<!-- Node1205&#45;&gt;Node1202 -->
<g id="edge21" class="edge">
<title>Node1205&#45;&gt;Node1202</title>
<path fill="none" stroke="#191970" d="M620.9297,-108.8295C567.7813,-105.0637 492.037,-99.697 438.383,-95.8954"/>
<polygon fill="#191970" stroke="#191970" points="438.5188,-92.3963 428.2964,-95.1807 438.024,-99.3788 438.5188,-92.3963"/>
</g>
<!-- Node1206 -->
<g id="node12" class="node">
<title>Node1206</title>
<g id="a_node12"><a xlink:href="namespacecimg__library__suffixed_1_1cimg.html#a01a3b743897290604513ea6d847c9886" target="_top" xlink:title="cimg_library_suffixed\l::cimg::_stdin">
<polygon fill="#ffffff" stroke="#000000" points="783,-65.2982 783,-95.2982 892,-95.2982 892,-65.2982 783,-65.2982"/>
<text text-anchor="start" x="791" y="-83.2982" font-family="Helvetica,sans-Serif" font-size="10.00" fill="#000000">cimg_library_suffixed</text>
<text text-anchor="middle" x="837.5" y="-72.2982" font-family="Helvetica,sans-Serif" font-size="10.00" fill="#000000">::cimg::_stdin</text>
</a>
</g>
</g>
<!-- Node1205&#45;&gt;Node1206 -->
<g id="edge15" class="edge">
<title>Node1205&#45;&gt;Node1206</title>
<path fill="none" stroke="#191970" d="M747.3205,-99.6853C755.7493,-97.8733 764.4012,-96.0133 772.8522,-94.1965"/>
<polygon fill="#191970" stroke="#191970" points="773.6143,-97.6127 782.6553,-92.0889 772.143,-90.769 773.6143,-97.6127"/>
</g>
<!-- Node1207 -->
<g id="node13" class="node">
<title>Node1207</title>
<g id="a_node13"><a xlink:href="namespacecimg__library__suffixed_1_1cimg.html#a493220746e5df3466568bd7862825008" target="_top" xlink:title="cimg_library_suffixed\l::cimg::_stdout">
<polygon fill="#ffffff" stroke="#000000" points="783,-16.2982 783,-46.2982 892,-46.2982 892,-16.2982 783,-16.2982"/>
<text text-anchor="start" x="791" y="-34.2982" font-family="Helvetica,sans-Serif" font-size="10.00" fill="#000000">cimg_library_suffixed</text>
<text text-anchor="middle" x="837.5" y="-23.2982" font-family="Helvetica,sans-Serif" font-size="10.00" fill="#000000">::cimg::_stdout</text>
</a>
</g>
</g>
<!-- Node1205&#45;&gt;Node1207 -->
<g id="edge18" class="edge">
<title>Node1205&#45;&gt;Node1207</title>
<path fill="none" stroke="#191970" d="M707.9755,-98.2022C727.7605,-86.0019 756.7471,-68.7127 783,-55.2982 786.0856,-53.7216 789.2974,-52.1464 792.5494,-50.5993"/>
<polygon fill="#191970" stroke="#191970" points="794.1481,-53.7161 801.7497,-46.3359 791.2049,-47.3649 794.1481,-53.7161"/>
</g>
<!-- Node1206&#45;&gt;Node1203 -->
<g id="edge16" class="edge">
<title>Node1206&#45;&gt;Node1203</title>
<path fill="none" stroke="#191970" d="M892.3183,-71.2249C900.6188,-69.851 909.2486,-68.4226 917.7354,-67.0179"/>
<polygon fill="#191970" stroke="#191970" points="918.31,-70.4705 927.6042,-65.3844 917.1669,-63.5644 918.31,-70.4705"/>
</g>
<!-- Node1206&#45;&gt;Node1204 -->
<g id="edge17" class="edge">
<title>Node1206&#45;&gt;Node1204</title>
<path fill="none" stroke="#191970" d="M782.9666,-78.3817C730.8805,-76.5512 652.1092,-73.7829 595.2205,-71.7836"/>
<polygon fill="#191970" stroke="#191970" points="595.3375,-68.2857 585.2207,-71.4322 595.0915,-75.2813 595.3375,-68.2857"/>
</g>
<!-- Node1207&#45;&gt;Node1203 -->
<g id="edge19" class="edge">
<title>Node1207&#45;&gt;Node1203</title>
<path fill="none" stroke="#191970" d="M892.3183,-40.7497C900.6188,-42.1808 909.2486,-43.6687 917.7354,-45.1319"/>
<polygon fill="#191970" stroke="#191970" points="917.1549,-48.5834 927.6042,-46.8334 918.3443,-41.6852 917.1549,-48.5834"/>
</g>
<!-- Node1207&#45;&gt;Node1204 -->
<g id="edge20" class="edge">
<title>Node1207&#45;&gt;Node1204</title>
<path fill="none" stroke="#191970" d="M782.9666,-37.9189C730.8805,-44.2424 652.1092,-53.8057 595.2205,-60.7123"/>
<polygon fill="#191970" stroke="#191970" points="594.7259,-57.2466 585.2207,-61.9264 595.5696,-64.1956 594.7259,-57.2466"/>
</g>
</g>
</svg>
        <g id="navigator" transform="translate(0 0)" fill="#404254">
                <rect fill="#f2f5e9" fill-opacity="0.5" stroke="#606060" stroke-width=".5" x="0" y="0" width="60" height="60"/>
                <use id="zoomplus" xlink:href="#zoomPlus" x="17" y="9" onmousedown="handleZoom(evt,'in')"/>
                <use id="zoomminus" xlink:href="#zoomMin" x="42" y="9" onmousedown="handleZoom(evt,'out')"/>
                <use id="reset" xlink:href="#resetDef" x="30" y="36" onmousedown="handleReset()"/>
                <g id="arrowUp" xlink:href="#dirArrow" transform="translate(30 24)" onmousedown="handlePan(0,-1)">
                  <use xlink:href="#rim" fill="#404040">
                        <set attributeName="fill" to="#808080" begin="arrowUp.mouseover" end="arrowUp.mouseout"/>
                  </use>
                  <path fill="none" stroke="white" stroke-width="1.5" d="M0,-3.0v7 M-2.5,-0.5L0,-3.0L2.5,-0.5"/>
                </g>
                <g id="arrowRight" xlink:href="#dirArrow" transform="rotate(90) translate(36 -43)" onmousedown="handlePan(1,0)">
                  <use xlink:href="#rim" fill="#404040">
                        <set attributeName="fill" to="#808080" begin="arrowRight.mouseover" end="arrowRight.mouseout"/>
                  </use>
                  <path fill="none" stroke="white" stroke-width="1.5" d="M0,-3.0v7 M-2.5,-0.5L0,-3.0L2.5,-0.5"/>
                </g>
                <g id="arrowDown" xlink:href="#dirArrow" transform="rotate(180) translate(-30 -48)" onmousedown="handlePan(0,1)">
                  <use xlink:href="#rim" fill="#404040">
                        <set attributeName="fill" to="#808080" begin="arrowDown.mouseover" end="arrowDown.mouseout"/>
                  </use>
                  <path fill="none" stroke="white" stroke-width="1.5" d="M0,-3.0v7 M-2.5,-0.5L0,-3.0L2.5,-0.5"/>
                </g>
                <g id="arrowLeft" xlink:href="#dirArrow" transform="rotate(270) translate(-36 17)" onmousedown="handlePan(-1,0)">
                  <use xlink:href="#rim" fill="#404040">
                        <set attributeName="fill" to="#808080" begin="arrowLeft.mouseover" end="arrowLeft.mouseout"/>
                  </use>
                  <path fill="none" stroke="white" stroke-width="1.5" d="M0,-3.0v7 M-2.5,-0.5L0,-3.0L2.5,-0.5"/>
                </g>
        </g>
        <svg viewBox="0 0 15 15" width="100%" height="30px" preserveAspectRatio="xMaxYMin meet">
         <g id="arrow_out" transform="scale(0.3 0.3)">
          <a xlink:href="structcimg__library__suffixed_1_1_c_img_1_1__cimg__math__parser_a223221c97f90a501165ccafad7d0121a_cgraph_org.svg" target="_base">
           <rect id="button" ry="5" rx="5" y="6" x="6" height="38" width="38"
                fill="#f2f5e9" fill-opacity="0.5" stroke="#606060" stroke-width="1.0"/>
           <path id="arrow"
             d="M 11.500037,31.436501 C 11.940474,20.09759 22.043105,11.32322 32.158766,21.979434 L 37.068811,17.246167 C 37.068811,17.246167 37.088388,32 37.088388,32 L 22.160133,31.978069 C 22.160133,31.978069 26.997745,27.140456 26.997745,27.140456 C 18.528582,18.264221 13.291696,25.230495 11.500037,31.436501 z"
             style="fill:#404040;"/>
          </a>
         </g>
        </svg>
</svg>
