<?xml version="1.0" encoding="UTF-8" standalone="no"?>
<!DOCTYPE svg PUBLIC "-//W3C//DTD SVG 1.1//EN"
 "http://www.w3.org/Graphics/SVG/1.1/DTD/svg11.dtd">
<!-- Generated by graphviz version 2.40.1 (20161225.0304)
 -->
<!-- Title: cimg_library_suffixed::CImg::FFT Pages: 1 -->
<svg width="285pt" height="88pt"
 viewBox="0.00 0.00 285.00 88.00" xmlns="http://www.w3.org/2000/svg" xmlns:xlink="http://www.w3.org/1999/xlink">
<g id="graph0" class="graph" transform="scale(1 1) rotate(0) translate(4 84)">
<title>cimg_library_suffixed::CImg::FFT</title>
<polygon fill="#ffffff" stroke="transparent" points="-4,4 -4,-84 281,-84 281,4 -4,4"/>
<!-- Node1188 -->
<g id="node1" class="node">
<title>Node1188</title>
<polygon fill="#bfbfbf" stroke="#000000" points="0,-24.5 0,-54.5 109,-54.5 109,-24.5 0,-24.5"/>
<text text-anchor="start" x="8" y="-42.5" font-family="Helvetica,sans-Serif" font-size="10.00" fill="#000000">cimg_library_suffixed</text>
<text text-anchor="middle" x="54.5" y="-31.5" font-family="Helvetica,sans-Serif" font-size="10.00" fill="#000000">::CImg::FFT</text>
</g>
<!-- Node1189 -->
<g id="node2" class="node">
<title>Node1189</title>
<g id="a_node2"><a xlink:href="structcimg__library__suffixed_1_1_c_img_list.html#ac07f7527b6223ed7b6c4e02f6feab7b3" target="_top" xlink:title="Compute a 1d Fast Fourier Transform, along specified axis. ">
<polygon fill="#ffffff" stroke="#000000" points="146.5,-49.5 146.5,-79.5 275.5,-79.5 275.5,-49.5 146.5,-49.5"/>
<text text-anchor="start" x="154.5" y="-67.5" font-family="Helvetica,sans-Serif" font-size="10.00" fill="#000000">cimg_library_suffixed</text>
<text text-anchor="middle" x="211" y="-56.5" font-family="Helvetica,sans-Serif" font-size="10.00" fill="#000000">::CImgList&lt; charT &gt;::FFT</text>
</a>
</g>
</g>
<!-- Node1188&#45;&gt;Node1189 -->
<g id="edge1" class="edge">
<title>Node1188&#45;&gt;Node1189</title>
<path fill="none" stroke="#191970" d="M119.2257,-49.8396C128.1886,-51.2713 137.3957,-52.7421 146.3571,-54.1737"/>
<polygon fill="#191970" stroke="#191970" points="119.663,-46.3651 109.2361,-48.2438 118.5588,-53.2775 119.663,-46.3651"/>
</g>
<!-- Node1190 -->
<g id="node3" class="node">
<title>Node1190</title>
<g id="a_node3"><a xlink:href="structcimg__library__suffixed_1_1_c_img.html#a43f70d2bf6e1c80561dd17124a464c77" target="_top" xlink:title="Compute 1d Fast Fourier Transform, along a specified axis. ">
<polygon fill="#ffffff" stroke="#000000" points="145,-.5 145,-30.5 277,-30.5 277,-.5 145,-.5"/>
<text text-anchor="start" x="153" y="-18.5" font-family="Helvetica,sans-Serif" font-size="10.00" fill="#000000">cimg_library_suffixed</text>
<text text-anchor="middle" x="211" y="-7.5" font-family="Helvetica,sans-Serif" font-size="10.00" fill="#000000">::CImg&lt; charT &gt;::get_FFT</text>
</a>
</g>
</g>
<!-- Node1188&#45;&gt;Node1190 -->
<g id="edge2" class="edge">
<title>Node1188&#45;&gt;Node1190</title>
<path fill="none" stroke="#191970" d="M119.1322,-29.5884C127.6711,-28.2789 136.4333,-26.9351 144.9949,-25.6222"/>
<polygon fill="#191970" stroke="#191970" points="118.59,-26.1305 109.2361,-31.106 119.6511,-33.0496 118.59,-26.1305"/>
</g>
</g>
</svg>
