<?xml version="1.0" encoding="UTF-8" standalone="no"?>
<!DOCTYPE svg PUBLIC "-//W3C//DTD SVG 1.1//EN"
 "http://www.w3.org/Graphics/SVG/1.1/DTD/svg11.dtd">
<!-- Generated by graphviz version 2.40.1 (20161225.0304)
 -->
<!-- Title: cimg_library_suffixed::CImg::offset Pages: 1 -->
<!--zoomable 650 -->
<svg id="main" version="1.1" xmlns="http://www.w3.org/2000/svg" xmlns:xlink="http://www.w3.org/1999/xlink" xml:space="preserve" onload="init(evt)">
<style type="text/css"><![CDATA[
.edge:hover path { stroke: red; }
.edge:hover polygon { stroke: red; fill: red; }
]]></style>
<script type="text/javascript"><![CDATA[
var edges = document.getElementsByTagName('g');
if (edges && edges.length) {
  for (var i=0;i<edges.length;i++) {
    if (edges[i].id.substr(0,4)=='edge') {
      edges[i].setAttribute('class','edge');
    }
  }
}
]]></script>
        <defs>
                <circle id="rim" cx="0" cy="0" r="7"/>
                <circle id="rim2" cx="0" cy="0" r="3.5"/>
                <g id="zoomPlus">
                        <use xlink:href="#rim" fill="#404040">
                                <set attributeName="fill" to="#808080" begin="zoomplus.mouseover" end="zoomplus.mouseout"/>
                        </use>
                        <path d="M-4,0h8M0,-4v8" fill="none" stroke="white" stroke-width="1.5" pointer-events="none"/>
                </g>
                <g id="zoomMin">
                        <use xlink:href="#rim" fill="#404040">
                                <set attributeName="fill" to="#808080" begin="zoomminus.mouseover" end="zoomminus.mouseout"/>
                        </use>
                        <path d="M-4,0h8" fill="none" stroke="white" stroke-width="1.5" pointer-events="none"/>
                </g>
                <g id="dirArrow">
                        <path fill="none" stroke="white" stroke-width="1.5" d="M0,-3.0v7 M-2.5,-0.5L0,-3.0L2.5,-0.5"/>
                </g>
               <g id="resetDef">
                       <use xlink:href="#rim2" fill="#404040">
                               <set attributeName="fill" to="#808080" begin="reset.mouseover" end="reset.mouseout"/>
                       </use>
               </g>
        </defs>

<script type="text/javascript">
var viewWidth = 291;
var viewHeight = 650;
var sectionId = 'dynsection-133';
</script>
<script xlink:href="svgpan.js"/>
<svg id="graph" class="graph">
<g id="viewport">
<title>cimg_library_suffixed::CImg::offset</title>
<polygon fill="#ffffff" stroke="transparent" points="-4,4 -4,-646 287,-646 287,4 -4,4"/>
<!-- Node2644 -->
<g id="node1" class="node">
<title>Node2644</title>
<polygon fill="#bfbfbf" stroke="#000000" points="0,-306 0,-336 109,-336 109,-306 0,-306"/>
<text text-anchor="start" x="8" y="-324" font-family="Helvetica,sans-Serif" font-size="10.00" fill="#000000">cimg_library_suffixed</text>
<text text-anchor="middle" x="54.5" y="-313" font-family="Helvetica,sans-Serif" font-size="10.00" fill="#000000">::CImg::offset</text>
</g>
<!-- Node2645 -->
<g id="node2" class="node">
<title>Node2645</title>
<g id="a_node2"><a xlink:href="structcimg__library__suffixed_1_1_c_img_1_1__cimg__math__parser.html#a93b9dfbb99b242d2ef1815dc592d527d" target="_top" xlink:title="cimg_library_suffixed\l::CImg::_cimg_math_parser\l::_mp_memcopy_float">
<polygon fill="#ffffff" stroke="#000000" points="145,-600.5 145,-641.5 283,-641.5 283,-600.5 145,-600.5"/>
<text text-anchor="start" x="153" y="-629.5" font-family="Helvetica,sans-Serif" font-size="10.00" fill="#000000">cimg_library_suffixed</text>
<text text-anchor="start" x="153" y="-618.5" font-family="Helvetica,sans-Serif" font-size="10.00" fill="#000000">::CImg::_cimg_math_parser</text>
<text text-anchor="middle" x="214" y="-607.5" font-family="Helvetica,sans-Serif" font-size="10.00" fill="#000000">::_mp_memcopy_float</text>
</a>
</g>
</g>
<!-- Node2644&#45;&gt;Node2645 -->
<g id="edge1" class="edge">
<title>Node2644&#45;&gt;Node2645</title>
<path fill="none" stroke="#191970" d="M56.2529,-346.3548C61.1583,-398.6108 79.3421,-519.3869 145,-591 148.1779,-594.4661 151.8265,-597.5507 155.7506,-600.2924"/>
<polygon fill="#191970" stroke="#191970" points="59.7315,-345.9531 55.3954,-336.2863 52.7567,-346.5472 59.7315,-345.9531"/>
</g>
<!-- Node2646 -->
<g id="node3" class="node">
<title>Node2646</title>
<g id="a_node3"><a xlink:href="structcimg__library__suffixed_1_1_c_img_1_1__cimg__math__parser.html#af7f132291bbe2b454c40700c40131eb2" target="_top" xlink:title="cimg_library_suffixed\l::CImg::_cimg_math_parser\l::mp_joff">
<polygon fill="#ffffff" stroke="#000000" points="145,-540.5 145,-581.5 283,-581.5 283,-540.5 145,-540.5"/>
<text text-anchor="start" x="153" y="-569.5" font-family="Helvetica,sans-Serif" font-size="10.00" fill="#000000">cimg_library_suffixed</text>
<text text-anchor="start" x="153" y="-558.5" font-family="Helvetica,sans-Serif" font-size="10.00" fill="#000000">::CImg::_cimg_math_parser</text>
<text text-anchor="middle" x="214" y="-547.5" font-family="Helvetica,sans-Serif" font-size="10.00" fill="#000000">::mp_joff</text>
</a>
</g>
</g>
<!-- Node2644&#45;&gt;Node2646 -->
<g id="edge2" class="edge">
<title>Node2644&#45;&gt;Node2646</title>
<path fill="none" stroke="#191970" d="M59.0354,-346.0299C68.0671,-389.1706 92.1632,-477.9925 145,-531 148.5042,-534.5155 152.4884,-537.6484 156.733,-540.4348"/>
<polygon fill="#191970" stroke="#191970" points="62.4427,-345.2187 57.0555,-336.0957 55.5777,-346.587 62.4427,-345.2187"/>
</g>
<!-- Node2647 -->
<g id="node4" class="node">
<title>Node2647</title>
<g id="a_node4"><a xlink:href="structcimg__library__suffixed_1_1_c_img_1_1__cimg__math__parser.html#a4d923e6c64d96735886dde9e2bd733fc" target="_top" xlink:title="cimg_library_suffixed\l::CImg::_cimg_math_parser\l::mp_Joff">
<polygon fill="#ffffff" stroke="#000000" points="145,-480.5 145,-521.5 283,-521.5 283,-480.5 145,-480.5"/>
<text text-anchor="start" x="153" y="-509.5" font-family="Helvetica,sans-Serif" font-size="10.00" fill="#000000">cimg_library_suffixed</text>
<text text-anchor="start" x="153" y="-498.5" font-family="Helvetica,sans-Serif" font-size="10.00" fill="#000000">::CImg::_cimg_math_parser</text>
<text text-anchor="middle" x="214" y="-487.5" font-family="Helvetica,sans-Serif" font-size="10.00" fill="#000000">::mp_Joff</text>
</a>
</g>
</g>
<!-- Node2644&#45;&gt;Node2647 -->
<g id="edge3" class="edge">
<title>Node2644&#45;&gt;Node2647</title>
<path fill="none" stroke="#191970" d="M63.9064,-345.9883C77.3486,-378.6848 104.9385,-435.9322 145,-471 148.9315,-474.4414 153.319,-477.5399 157.924,-480.3184"/>
<polygon fill="#191970" stroke="#191970" points="66.9961,-344.2871 60.0413,-336.2945 60.4939,-346.8797 66.9961,-344.2871"/>
</g>
<!-- Node2648 -->
<g id="node5" class="node">
<title>Node2648</title>
<g id="a_node5"><a xlink:href="structcimg__library__suffixed_1_1_c_img_1_1__cimg__math__parser.html#ab60c28e69955be791f92410c65a0f6a6" target="_top" xlink:title="cimg_library_suffixed\l::CImg::_cimg_math_parser\l::mp_list_joff">
<polygon fill="#ffffff" stroke="#000000" points="145,-420.5 145,-461.5 283,-461.5 283,-420.5 145,-420.5"/>
<text text-anchor="start" x="153" y="-449.5" font-family="Helvetica,sans-Serif" font-size="10.00" fill="#000000">cimg_library_suffixed</text>
<text text-anchor="start" x="153" y="-438.5" font-family="Helvetica,sans-Serif" font-size="10.00" fill="#000000">::CImg::_cimg_math_parser</text>
<text text-anchor="middle" x="214" y="-427.5" font-family="Helvetica,sans-Serif" font-size="10.00" fill="#000000">::mp_list_joff</text>
</a>
</g>
</g>
<!-- Node2644&#45;&gt;Node2648 -->
<g id="edge4" class="edge">
<title>Node2644&#45;&gt;Node2648</title>
<path fill="none" stroke="#191970" d="M73.0629,-343.7641C90.1271,-363.5564 116.9627,-391.9674 145,-411 149.9715,-414.3748 155.3842,-417.5054 160.919,-420.3706"/>
<polygon fill="#191970" stroke="#191970" points="75.7229,-341.4892 66.5886,-336.1211 70.3817,-346.0137 75.7229,-341.4892"/>
</g>
<!-- Node2649 -->
<g id="node6" class="node">
<title>Node2649</title>
<g id="a_node6"><a xlink:href="structcimg__library__suffixed_1_1_c_img_1_1__cimg__math__parser.html#a7d6e200df51bdae7711bab33967fd1e9" target="_top" xlink:title="cimg_library_suffixed\l::CImg::_cimg_math_parser\l::mp_list_Joff">
<polygon fill="#ffffff" stroke="#000000" points="145,-360.5 145,-401.5 283,-401.5 283,-360.5 145,-360.5"/>
<text text-anchor="start" x="153" y="-389.5" font-family="Helvetica,sans-Serif" font-size="10.00" fill="#000000">cimg_library_suffixed</text>
<text text-anchor="start" x="153" y="-378.5" font-family="Helvetica,sans-Serif" font-size="10.00" fill="#000000">::CImg::_cimg_math_parser</text>
<text text-anchor="middle" x="214" y="-367.5" font-family="Helvetica,sans-Serif" font-size="10.00" fill="#000000">::mp_list_Joff</text>
</a>
</g>
</g>
<!-- Node2644&#45;&gt;Node2649 -->
<g id="edge5" class="edge">
<title>Node2644&#45;&gt;Node2649</title>
<path fill="none" stroke="#191970" d="M104.2041,-339.6975C121.6892,-346.2749 141.4312,-353.7014 159.3044,-360.4249"/>
<polygon fill="#191970" stroke="#191970" points="105.3406,-336.3856 94.7486,-336.1405 102.8759,-342.9374 105.3406,-336.3856"/>
</g>
<!-- Node2650 -->
<g id="node7" class="node">
<title>Node2650</title>
<g id="a_node7"><a xlink:href="structcimg__library__suffixed_1_1_c_img_1_1__cimg__math__parser.html#aea3f9f4867d417da2fdff738d90b2c25" target="_top" xlink:title="cimg_library_suffixed\l::CImg::_cimg_math_parser\l::mp_list_set_joff">
<polygon fill="#ffffff" stroke="#000000" points="145,-300.5 145,-341.5 283,-341.5 283,-300.5 145,-300.5"/>
<text text-anchor="start" x="153" y="-329.5" font-family="Helvetica,sans-Serif" font-size="10.00" fill="#000000">cimg_library_suffixed</text>
<text text-anchor="start" x="153" y="-318.5" font-family="Helvetica,sans-Serif" font-size="10.00" fill="#000000">::CImg::_cimg_math_parser</text>
<text text-anchor="middle" x="214" y="-307.5" font-family="Helvetica,sans-Serif" font-size="10.00" fill="#000000">::mp_list_set_joff</text>
</a>
</g>
</g>
<!-- Node2644&#45;&gt;Node2650 -->
<g id="edge6" class="edge">
<title>Node2644&#45;&gt;Node2650</title>
<path fill="none" stroke="#191970" d="M119.4793,-321C127.8632,-321 136.4728,-321 144.9198,-321"/>
<polygon fill="#191970" stroke="#191970" points="119.3909,-317.5001 109.3909,-321 119.3908,-324.5001 119.3909,-317.5001"/>
</g>
<!-- Node2651 -->
<g id="node8" class="node">
<title>Node2651</title>
<g id="a_node8"><a xlink:href="structcimg__library__suffixed_1_1_c_img_1_1__cimg__math__parser.html#a7c715c512343bcacdc5c4cbfb5cd69a2" target="_top" xlink:title="cimg_library_suffixed\l::CImg::_cimg_math_parser\l::mp_list_set_Joff_s">
<polygon fill="#ffffff" stroke="#000000" points="145,-240.5 145,-281.5 283,-281.5 283,-240.5 145,-240.5"/>
<text text-anchor="start" x="153" y="-269.5" font-family="Helvetica,sans-Serif" font-size="10.00" fill="#000000">cimg_library_suffixed</text>
<text text-anchor="start" x="153" y="-258.5" font-family="Helvetica,sans-Serif" font-size="10.00" fill="#000000">::CImg::_cimg_math_parser</text>
<text text-anchor="middle" x="214" y="-247.5" font-family="Helvetica,sans-Serif" font-size="10.00" fill="#000000">::mp_list_set_Joff_s</text>
</a>
</g>
</g>
<!-- Node2644&#45;&gt;Node2651 -->
<g id="edge7" class="edge">
<title>Node2644&#45;&gt;Node2651</title>
<path fill="none" stroke="#191970" d="M104.2041,-302.3025C121.6892,-295.7251 141.4312,-288.2986 159.3044,-281.5751"/>
<polygon fill="#191970" stroke="#191970" points="102.8759,-299.0626 94.7486,-305.8595 105.3406,-305.6144 102.8759,-299.0626"/>
</g>
<!-- Node2652 -->
<g id="node9" class="node">
<title>Node2652</title>
<g id="a_node9"><a xlink:href="structcimg__library__suffixed_1_1_c_img_1_1__cimg__math__parser.html#acd46d2f6cfc8e3917a36ac623b45b776" target="_top" xlink:title="cimg_library_suffixed\l::CImg::_cimg_math_parser\l::mp_list_set_Joff_v">
<polygon fill="#ffffff" stroke="#000000" points="145,-180.5 145,-221.5 283,-221.5 283,-180.5 145,-180.5"/>
<text text-anchor="start" x="153" y="-209.5" font-family="Helvetica,sans-Serif" font-size="10.00" fill="#000000">cimg_library_suffixed</text>
<text text-anchor="start" x="153" y="-198.5" font-family="Helvetica,sans-Serif" font-size="10.00" fill="#000000">::CImg::_cimg_math_parser</text>
<text text-anchor="middle" x="214" y="-187.5" font-family="Helvetica,sans-Serif" font-size="10.00" fill="#000000">::mp_list_set_Joff_v</text>
</a>
</g>
</g>
<!-- Node2644&#45;&gt;Node2652 -->
<g id="edge8" class="edge">
<title>Node2644&#45;&gt;Node2652</title>
<path fill="none" stroke="#191970" d="M73.0629,-298.2359C90.1271,-278.4436 116.9627,-250.0326 145,-231 149.9715,-227.6252 155.3842,-224.4946 160.919,-221.6294"/>
<polygon fill="#191970" stroke="#191970" points="70.3817,-295.9863 66.5886,-305.8789 75.7229,-300.5108 70.3817,-295.9863"/>
</g>
<!-- Node2653 -->
<g id="node10" class="node">
<title>Node2653</title>
<g id="a_node10"><a xlink:href="structcimg__library__suffixed_1_1_c_img_1_1__cimg__math__parser.html#a64d36e00ac43adefcf481dd29e01f549" target="_top" xlink:title="cimg_library_suffixed\l::CImg::_cimg_math_parser\l::mp_set_joff">
<polygon fill="#ffffff" stroke="#000000" points="145,-120.5 145,-161.5 283,-161.5 283,-120.5 145,-120.5"/>
<text text-anchor="start" x="153" y="-149.5" font-family="Helvetica,sans-Serif" font-size="10.00" fill="#000000">cimg_library_suffixed</text>
<text text-anchor="start" x="153" y="-138.5" font-family="Helvetica,sans-Serif" font-size="10.00" fill="#000000">::CImg::_cimg_math_parser</text>
<text text-anchor="middle" x="214" y="-127.5" font-family="Helvetica,sans-Serif" font-size="10.00" fill="#000000">::mp_set_joff</text>
</a>
</g>
</g>
<!-- Node2644&#45;&gt;Node2653 -->
<g id="edge9" class="edge">
<title>Node2644&#45;&gt;Node2653</title>
<path fill="none" stroke="#191970" d="M63.9064,-296.0117C77.3486,-263.3152 104.9385,-206.0678 145,-171 148.9315,-167.5586 153.319,-164.4601 157.924,-161.6816"/>
<polygon fill="#191970" stroke="#191970" points="60.4939,-295.1203 60.0413,-305.7055 66.9961,-297.7129 60.4939,-295.1203"/>
</g>
<!-- Node2654 -->
<g id="node11" class="node">
<title>Node2654</title>
<g id="a_node11"><a xlink:href="structcimg__library__suffixed_1_1_c_img_1_1__cimg__math__parser.html#a3860620600d06f7543c5f321457b1161" target="_top" xlink:title="cimg_library_suffixed\l::CImg::_cimg_math_parser\l::mp_set_Joff_s">
<polygon fill="#ffffff" stroke="#000000" points="145,-60.5 145,-101.5 283,-101.5 283,-60.5 145,-60.5"/>
<text text-anchor="start" x="153" y="-89.5" font-family="Helvetica,sans-Serif" font-size="10.00" fill="#000000">cimg_library_suffixed</text>
<text text-anchor="start" x="153" y="-78.5" font-family="Helvetica,sans-Serif" font-size="10.00" fill="#000000">::CImg::_cimg_math_parser</text>
<text text-anchor="middle" x="214" y="-67.5" font-family="Helvetica,sans-Serif" font-size="10.00" fill="#000000">::mp_set_Joff_s</text>
</a>
</g>
</g>
<!-- Node2644&#45;&gt;Node2654 -->
<g id="edge10" class="edge">
<title>Node2644&#45;&gt;Node2654</title>
<path fill="none" stroke="#191970" d="M59.0354,-295.9701C68.0671,-252.8294 92.1632,-164.0075 145,-111 148.5042,-107.4845 152.4884,-104.3516 156.733,-101.5652"/>
<polygon fill="#191970" stroke="#191970" points="55.5777,-295.413 57.0555,-305.9043 62.4427,-296.7813 55.5777,-295.413"/>
</g>
<!-- Node2655 -->
<g id="node12" class="node">
<title>Node2655</title>
<g id="a_node12"><a xlink:href="structcimg__library__suffixed_1_1_c_img_1_1__cimg__math__parser.html#ab7511ccfe349d6e74286d0e8327edfa5" target="_top" xlink:title="cimg_library_suffixed\l::CImg::_cimg_math_parser\l::mp_set_Joff_v">
<polygon fill="#ffffff" stroke="#000000" points="145,-.5 145,-41.5 283,-41.5 283,-.5 145,-.5"/>
<text text-anchor="start" x="153" y="-29.5" font-family="Helvetica,sans-Serif" font-size="10.00" fill="#000000">cimg_library_suffixed</text>
<text text-anchor="start" x="153" y="-18.5" font-family="Helvetica,sans-Serif" font-size="10.00" fill="#000000">::CImg::_cimg_math_parser</text>
<text text-anchor="middle" x="214" y="-7.5" font-family="Helvetica,sans-Serif" font-size="10.00" fill="#000000">::mp_set_Joff_v</text>
</a>
</g>
</g>
<!-- Node2644&#45;&gt;Node2655 -->
<g id="edge11" class="edge">
<title>Node2644&#45;&gt;Node2655</title>
<path fill="none" stroke="#191970" d="M56.2529,-295.6452C61.1583,-243.3892 79.3421,-122.6131 145,-51 148.1779,-47.5339 151.8265,-44.4493 155.7506,-41.7076"/>
<polygon fill="#191970" stroke="#191970" points="52.7567,-295.4528 55.3954,-305.7137 59.7315,-296.0469 52.7567,-295.4528"/>
</g>
</g>
</svg>
        <g id="navigator" transform="translate(0 0)" fill="#404254">
                <rect fill="#f2f5e9" fill-opacity="0.5" stroke="#606060" stroke-width=".5" x="0" y="0" width="60" height="60"/>
                <use id="zoomplus" xlink:href="#zoomPlus" x="17" y="9" onmousedown="handleZoom(evt,'in')"/>
                <use id="zoomminus" xlink:href="#zoomMin" x="42" y="9" onmousedown="handleZoom(evt,'out')"/>
                <use id="reset" xlink:href="#resetDef" x="30" y="36" onmousedown="handleReset()"/>
                <g id="arrowUp" xlink:href="#dirArrow" transform="translate(30 24)" onmousedown="handlePan(0,-1)">
                  <use xlink:href="#rim" fill="#404040">
                        <set attributeName="fill" to="#808080" begin="arrowUp.mouseover" end="arrowUp.mouseout"/>
                  </use>
                  <path fill="none" stroke="white" stroke-width="1.5" d="M0,-3.0v7 M-2.5,-0.5L0,-3.0L2.5,-0.5"/>
                </g>
                <g id="arrowRight" xlink:href="#dirArrow" transform="rotate(90) translate(36 -43)" onmousedown="handlePan(1,0)">
                  <use xlink:href="#rim" fill="#404040">
                        <set attributeName="fill" to="#808080" begin="arrowRight.mouseover" end="arrowRight.mouseout"/>
                  </use>
                  <path fill="none" stroke="white" stroke-width="1.5" d="M0,-3.0v7 M-2.5,-0.5L0,-3.0L2.5,-0.5"/>
                </g>
                <g id="arrowDown" xlink:href="#dirArrow" transform="rotate(180) translate(-30 -48)" onmousedown="handlePan(0,1)">
                  <use xlink:href="#rim" fill="#404040">
                        <set attributeName="fill" to="#808080" begin="arrowDown.mouseover" end="arrowDown.mouseout"/>
                  </use>
                  <path fill="none" stroke="white" stroke-width="1.5" d="M0,-3.0v7 M-2.5,-0.5L0,-3.0L2.5,-0.5"/>
                </g>
                <g id="arrowLeft" xlink:href="#dirArrow" transform="rotate(270) translate(-36 17)" onmousedown="handlePan(-1,0)">
                  <use xlink:href="#rim" fill="#404040">
                        <set attributeName="fill" to="#808080" begin="arrowLeft.mouseover" end="arrowLeft.mouseout"/>
                  </use>
                  <path fill="none" stroke="white" stroke-width="1.5" d="M0,-3.0v7 M-2.5,-0.5L0,-3.0L2.5,-0.5"/>
                </g>
        </g>
        <svg viewBox="0 0 15 15" width="100%" height="30px" preserveAspectRatio="xMaxYMin meet">
         <g id="arrow_out" transform="scale(0.3 0.3)">
          <a xlink:href="structcimg__library__suffixed_1_1_c_img_a85e66b869e393fd4a81049d2cde9b3f7_icgraph_org.svg" target="_base">
           <rect id="button" ry="5" rx="5" y="6" x="6" height="38" width="38"
                fill="#f2f5e9" fill-opacity="0.5" stroke="#606060" stroke-width="1.0"/>
           <path id="arrow"
             d="M 11.500037,31.436501 C 11.940474,20.09759 22.043105,11.32322 32.158766,21.979434 L 37.068811,17.246167 C 37.068811,17.246167 37.088388,32 37.088388,32 L 22.160133,31.978069 C 22.160133,31.978069 26.997745,27.140456 26.997745,27.140456 C 18.528582,18.264221 13.291696,25.230495 11.500037,31.436501 z"
             style="fill:#404040;"/>
          </a>
         </g>
        </svg>
</svg>
