<?xml version="1.0" encoding="UTF-8" standalone="no"?>
<!DOCTYPE svg PUBLIC "-//W3C//DTD SVG 1.1//EN"
 "http://www.w3.org/Graphics/SVG/1.1/DTD/svg11.dtd">
<!-- Generated by graphviz version 2.40.1 (20161225.0304)
 -->
<!-- Title: cimg_library_suffixed::CImg::get_exp Pages: 1 -->
<!--zoomable 740 -->
<svg id="main" version="1.1" xmlns="http://www.w3.org/2000/svg" xmlns:xlink="http://www.w3.org/1999/xlink" xml:space="preserve" onload="init(evt)">
<style type="text/css"><![CDATA[
.edge:hover path { stroke: red; }
.edge:hover polygon { stroke: red; fill: red; }
]]></style>
<script type="text/javascript"><![CDATA[
var edges = document.getElementsByTagName('g');
if (edges && edges.length) {
  for (var i=0;i<edges.length;i++) {
    if (edges[i].id.substr(0,4)=='edge') {
      edges[i].setAttribute('class','edge');
    }
  }
}
]]></script>
        <defs>
                <circle id="rim" cx="0" cy="0" r="7"/>
                <circle id="rim2" cx="0" cy="0" r="3.5"/>
                <g id="zoomPlus">
                        <use xlink:href="#rim" fill="#404040">
                                <set attributeName="fill" to="#808080" begin="zoomplus.mouseover" end="zoomplus.mouseout"/>
                        </use>
                        <path d="M-4,0h8M0,-4v8" fill="none" stroke="white" stroke-width="1.5" pointer-events="none"/>
                </g>
                <g id="zoomMin">
                        <use xlink:href="#rim" fill="#404040">
                                <set attributeName="fill" to="#808080" begin="zoomminus.mouseover" end="zoomminus.mouseout"/>
                        </use>
                        <path d="M-4,0h8" fill="none" stroke="white" stroke-width="1.5" pointer-events="none"/>
                </g>
                <g id="dirArrow">
                        <path fill="none" stroke="white" stroke-width="1.5" d="M0,-3.0v7 M-2.5,-0.5L0,-3.0L2.5,-0.5"/>
                </g>
               <g id="resetDef">
                       <use xlink:href="#rim2" fill="#404040">
                               <set attributeName="fill" to="#808080" begin="reset.mouseover" end="reset.mouseout"/>
                       </use>
               </g>
        </defs>

<script type="text/javascript">
var viewWidth = 613;
var viewHeight = 740;
var sectionId = 'dynsection-75';
</script>
<script xlink:href="svgpan.js"/>
<svg id="graph" class="graph">
<g id="viewport">
<title>cimg_library_suffixed::CImg::get_exp</title>
<polygon fill="#ffffff" stroke="transparent" points="-4,4 -4,-735.5 609,-735.5 609,4 -4,4"/>
<!-- Node1456 -->
<g id="node1" class="node">
<title>Node1456</title>
<polygon fill="#bfbfbf" stroke="#000000" points="0,-345.5 0,-375.5 109,-375.5 109,-345.5 0,-345.5"/>
<text text-anchor="start" x="8" y="-363.5" font-family="Helvetica,sans-Serif" font-size="10.00" fill="#000000">cimg_library_suffixed</text>
<text text-anchor="middle" x="54.5" y="-352.5" font-family="Helvetica,sans-Serif" font-size="10.00" fill="#000000">::CImg::get_exp</text>
</g>
<!-- Node1457 -->
<g id="node2" class="node">
<title>Node1457</title>
<g id="a_node2"><a xlink:href="namespacecimg__library__suffixed.html#adc3a62a5832fe41a2a16023ba04c8e64" target="_top" xlink:title="cimg_library_suffixed::exp">
<polygon fill="#ffffff" stroke="#000000" points="145,-351 145,-370 276,-370 276,-351 145,-351"/>
<text text-anchor="middle" x="210.5" y="-358" font-family="Helvetica,sans-Serif" font-size="10.00" fill="#000000">cimg_library_suffixed::exp</text>
</a>
</g>
</g>
<!-- Node1456&#45;&gt;Node1457 -->
<g id="edge1" class="edge">
<title>Node1456&#45;&gt;Node1457</title>
<path fill="none" stroke="#191970" d="M119.2818,-353.8369C127.7713,-353.7243 136.476,-353.7211 144.9777,-353.8274"/>
<polygon fill="#191970" stroke="#191970" points="118.9938,-350.3416 109.0612,-354.0285 119.1251,-357.3404 118.9938,-350.3416"/>
</g>
<!-- Node1457&#45;&gt;Node1456 -->
<g id="edge11" class="edge">
<title>Node1457&#45;&gt;Node1456</title>
<path fill="none" stroke="#191970" d="M134.8183,-367.2473C126.127,-367.2672 117.3972,-367.1753 109.0612,-366.9715"/>
<polygon fill="#191970" stroke="#191970" points="135.0037,-370.7462 144.9777,-367.1726 134.9522,-363.7464 135.0037,-370.7462"/>
</g>
<!-- Node1458 -->
<g id="node3" class="node">
<title>Node1458</title>
<g id="a_node3"><a xlink:href="structcimg__library__suffixed_1_1_c_img_1_1__cimg__math__parser.html#a591684f81af8ba85885b7de9c0c6ca5f" target="_top" xlink:title="cimg_library_suffixed\l::CImg::_cimg_math_parser\l::_cimg_math_parser">
<polygon fill="#ffffff" stroke="#000000" points="312,-690 312,-731 450,-731 450,-690 312,-690"/>
<text text-anchor="start" x="320" y="-719" font-family="Helvetica,sans-Serif" font-size="10.00" fill="#000000">cimg_library_suffixed</text>
<text text-anchor="start" x="320" y="-708" font-family="Helvetica,sans-Serif" font-size="10.00" fill="#000000">::CImg::_cimg_math_parser</text>
<text text-anchor="middle" x="381" y="-697" font-family="Helvetica,sans-Serif" font-size="10.00" fill="#000000">::_cimg_math_parser</text>
</a>
</g>
</g>
<!-- Node1457&#45;&gt;Node1458 -->
<g id="edge2" class="edge">
<title>Node1457&#45;&gt;Node1458</title>
<path fill="none" stroke="#191970" d="M211.2943,-380.3855C214.5156,-435.2071 230.7287,-590.397 312,-680.5 315.1496,-683.9919 318.7779,-687.0949 322.6879,-689.8495"/>
<polygon fill="#191970" stroke="#191970" points="214.7836,-380.0816 210.7854,-370.2701 207.7924,-380.4334 214.7836,-380.0816"/>
</g>
<!-- Node1459 -->
<g id="node4" class="node">
<title>Node1459</title>
<g id="a_node4"><a xlink:href="structcimg__library__suffixed_1_1_c_img.html#a8b40db5a9818c3f961a90840b271de6c" target="_top" xlink:title="cimg_library_suffixed\l::CImg\&lt; charT \&gt;::_display\l_object3d">
<polygon fill="#ffffff" stroke="#000000" points="315.5,-630 315.5,-671 446.5,-671 446.5,-630 315.5,-630"/>
<text text-anchor="start" x="323.5" y="-659" font-family="Helvetica,sans-Serif" font-size="10.00" fill="#000000">cimg_library_suffixed</text>
<text text-anchor="start" x="323.5" y="-648" font-family="Helvetica,sans-Serif" font-size="10.00" fill="#000000">::CImg&lt; charT &gt;::_display</text>
<text text-anchor="middle" x="381" y="-637" font-family="Helvetica,sans-Serif" font-size="10.00" fill="#000000">_object3d</text>
</a>
</g>
</g>
<!-- Node1457&#45;&gt;Node1459 -->
<g id="edge3" class="edge">
<title>Node1457&#45;&gt;Node1459</title>
<path fill="none" stroke="#191970" d="M213.0001,-380.3604C219.9795,-427.9346 243.8498,-549.7141 312,-620.5 315.3521,-623.9817 319.1766,-627.0837 323.2669,-629.8429"/>
<polygon fill="#191970" stroke="#191970" points="216.4297,-379.6076 211.6028,-370.1762 209.4946,-380.5592 216.4297,-379.6076"/>
</g>
<!-- Node1460 -->
<g id="node5" class="node">
<title>Node1460</title>
<g id="a_node5"><a xlink:href="structcimg__library__suffixed_1_1_c_img_1_1__cimg__math__parser.html#a4c1d921651a9408da9487f1d4e8c13d0" target="_top" xlink:title="cimg_library_suffixed\l::CImg::_cimg_math_parser\l::_mp_complex_pow">
<polygon fill="#ffffff" stroke="#000000" points="312,-570 312,-611 450,-611 450,-570 312,-570"/>
<text text-anchor="start" x="320" y="-599" font-family="Helvetica,sans-Serif" font-size="10.00" fill="#000000">cimg_library_suffixed</text>
<text text-anchor="start" x="320" y="-588" font-family="Helvetica,sans-Serif" font-size="10.00" fill="#000000">::CImg::_cimg_math_parser</text>
<text text-anchor="middle" x="381" y="-577" font-family="Helvetica,sans-Serif" font-size="10.00" fill="#000000">::_mp_complex_pow</text>
</a>
</g>
</g>
<!-- Node1457&#45;&gt;Node1460 -->
<g id="edge4" class="edge">
<title>Node1457&#45;&gt;Node1460</title>
<path fill="none" stroke="#191970" d="M215.5966,-380.1703C226.713,-419.4685 256.6827,-508.3801 312,-560.5 315.7078,-563.9935 319.8873,-567.1188 324.3087,-569.9071"/>
<polygon fill="#191970" stroke="#191970" points="218.9053,-378.9994 212.9024,-370.2693 212.1509,-380.8375 218.9053,-378.9994"/>
</g>
<!-- Node1461 -->
<g id="node6" class="node">
<title>Node1461</title>
<g id="a_node6"><a xlink:href="structcimg__library__suffixed_1_1_c_img.html#af3c29f70168c4443e3f6f887834819b0" target="_top" xlink:title="Blur image anisotropically, directed by a field of diffusion tensors. ">
<polygon fill="#ffffff" stroke="#000000" points="325.5,-510 325.5,-551 436.5,-551 436.5,-510 325.5,-510"/>
<text text-anchor="start" x="333.5" y="-539" font-family="Helvetica,sans-Serif" font-size="10.00" fill="#000000">cimg_library_suffixed</text>
<text text-anchor="start" x="333.5" y="-528" font-family="Helvetica,sans-Serif" font-size="10.00" fill="#000000">::CImg&lt; charT &gt;::blur</text>
<text text-anchor="middle" x="381" y="-517" font-family="Helvetica,sans-Serif" font-size="10.00" fill="#000000">_anisotropic</text>
</a>
</g>
</g>
<!-- Node1457&#45;&gt;Node1461 -->
<g id="edge5" class="edge">
<title>Node1457&#45;&gt;Node1461</title>
<path fill="none" stroke="#191970" d="M219.7822,-379.1524C235.2421,-408.5451 268.8729,-465.8519 312,-500.5 316.2769,-503.9361 321.0077,-507.0522 325.9284,-509.8608"/>
<polygon fill="#191970" stroke="#191970" points="222.7661,-377.3011 215.0859,-370.0029 216.5386,-380.4977 222.7661,-377.3011"/>
</g>
<!-- Node1462 -->
<g id="node7" class="node">
<title>Node1462</title>
<g id="a_node7"><a xlink:href="structcimg__library__suffixed_1_1_c_img_1_1__cimg__math__parser.html#a318c44c5d1f4f0114355f37ace87a4ae" target="_top" xlink:title="cimg_library_suffixed\l::CImg::_cimg_math_parser\l::compile">
<polygon fill="#ffffff" stroke="#000000" points="312,-450 312,-491 450,-491 450,-450 312,-450"/>
<text text-anchor="start" x="320" y="-479" font-family="Helvetica,sans-Serif" font-size="10.00" fill="#000000">cimg_library_suffixed</text>
<text text-anchor="start" x="320" y="-468" font-family="Helvetica,sans-Serif" font-size="10.00" fill="#000000">::CImg::_cimg_math_parser</text>
<text text-anchor="middle" x="381" y="-457" font-family="Helvetica,sans-Serif" font-size="10.00" fill="#000000">::compile</text>
</a>
</g>
</g>
<!-- Node1457&#45;&gt;Node1462 -->
<g id="edge6" class="edge">
<title>Node1457&#45;&gt;Node1462</title>
<path fill="none" stroke="#191970" d="M228.3012,-376.8736C247.7937,-394.2231 280.4889,-421.6623 312,-440.5 317.6059,-443.8513 323.6541,-447.0378 329.758,-449.9962"/>
<polygon fill="#191970" stroke="#191970" points="230.5689,-374.2057 220.7975,-370.1104 225.8823,-379.4053 230.5689,-374.2057"/>
</g>
<!-- Node1463 -->
<g id="node8" class="node">
<title>Node1463</title>
<g id="a_node8"><a xlink:href="structcimg__library__suffixed_1_1_c_img.html#a1f9c44f6a4577ee414419394aa34d4ac" target="_top" xlink:title="Apply recursive Deriche filter. ">
<polygon fill="#ffffff" stroke="#000000" points="317.5,-400.5 317.5,-430.5 444.5,-430.5 444.5,-400.5 317.5,-400.5"/>
<text text-anchor="start" x="325.5" y="-418.5" font-family="Helvetica,sans-Serif" font-size="10.00" fill="#000000">cimg_library_suffixed</text>
<text text-anchor="middle" x="381" y="-407.5" font-family="Helvetica,sans-Serif" font-size="10.00" fill="#000000">::CImg&lt; charT &gt;::deriche</text>
</a>
</g>
</g>
<!-- Node1457&#45;&gt;Node1463 -->
<g id="edge7" class="edge">
<title>Node1457&#45;&gt;Node1463</title>
<path fill="none" stroke="#191970" d="M249.7909,-373.1745C274.9725,-381.2976 307.7853,-391.8823 334.2974,-400.4346"/>
<polygon fill="#191970" stroke="#191970" points="250.7905,-369.8194 240.1988,-370.0803 248.6414,-376.4813 250.7905,-369.8194"/>
</g>
<!-- Node1464 -->
<g id="node9" class="node">
<title>Node1464</title>
<g id="a_node9"><a xlink:href="structcimg__library__suffixed_1_1_c_img.html#a3b96b681b3c0e11c067b12789328229a" target="_top" xlink:title="Draw a 1d gaussian function. ">
<polygon fill="#ffffff" stroke="#000000" points="323,-340 323,-381 439,-381 439,-340 323,-340"/>
<text text-anchor="start" x="331" y="-369" font-family="Helvetica,sans-Serif" font-size="10.00" fill="#000000">cimg_library_suffixed</text>
<text text-anchor="start" x="331" y="-358" font-family="Helvetica,sans-Serif" font-size="10.00" fill="#000000">::CImg&lt; charT &gt;::draw</text>
<text text-anchor="middle" x="381" y="-347" font-family="Helvetica,sans-Serif" font-size="10.00" fill="#000000">_gaussian</text>
</a>
</g>
</g>
<!-- Node1457&#45;&gt;Node1464 -->
<g id="edge8" class="edge">
<title>Node1457&#45;&gt;Node1464</title>
<path fill="none" stroke="#191970" d="M286.547,-360.5C298.7003,-360.5 311.1059,-360.5 322.7604,-360.5"/>
<polygon fill="#191970" stroke="#191970" points="286.4198,-357.0001 276.4198,-360.5 286.4197,-364.0001 286.4198,-357.0001"/>
</g>
<!-- Node1465 -->
<g id="node10" class="node">
<title>Node1465</title>
<g id="a_node10"><a xlink:href="structcimg__library__suffixed_1_1_c_img.html#a7772f5e71c3c6fa9b9226c8f0c2395db" target="_top" xlink:title="Compute the exponential of each pixel value. ">
<polygon fill="#ffffff" stroke="#000000" points="325.5,-290.5 325.5,-320.5 436.5,-320.5 436.5,-290.5 325.5,-290.5"/>
<text text-anchor="start" x="333.5" y="-308.5" font-family="Helvetica,sans-Serif" font-size="10.00" fill="#000000">cimg_library_suffixed</text>
<text text-anchor="middle" x="381" y="-297.5" font-family="Helvetica,sans-Serif" font-size="10.00" fill="#000000">::CImg&lt; charT &gt;::exp</text>
</a>
</g>
</g>
<!-- Node1457&#45;&gt;Node1465 -->
<g id="edge9" class="edge">
<title>Node1457&#45;&gt;Node1465</title>
<path fill="none" stroke="#191970" d="M249.7909,-347.8255C274.9725,-339.7024 307.7853,-329.1177 334.2974,-320.5654"/>
<polygon fill="#191970" stroke="#191970" points="248.6414,-344.5187 240.1988,-350.9197 250.7905,-351.1806 248.6414,-344.5187"/>
</g>
<!-- Node1466 -->
<g id="node11" class="node">
<title>Node1466</title>
<g id="a_node11"><a xlink:href="structcimg__library__suffixed_1_1_c_img.html#a3a7a9e74dc09f2f79fcd3f605a2a9059" target="_top" xlink:title="Blur image using patch&#45;based space . ">
<polygon fill="#ffffff" stroke="#000000" points="326.5,-230 326.5,-271 435.5,-271 435.5,-230 326.5,-230"/>
<text text-anchor="start" x="334.5" y="-259" font-family="Helvetica,sans-Serif" font-size="10.00" fill="#000000">cimg_library_suffixed</text>
<text text-anchor="start" x="334.5" y="-248" font-family="Helvetica,sans-Serif" font-size="10.00" fill="#000000">::CImg&lt; charT &gt;::get</text>
<text text-anchor="middle" x="381" y="-237" font-family="Helvetica,sans-Serif" font-size="10.00" fill="#000000">_blur_patch</text>
</a>
</g>
</g>
<!-- Node1457&#45;&gt;Node1466 -->
<g id="edge10" class="edge">
<title>Node1457&#45;&gt;Node1466</title>
<path fill="none" stroke="#191970" d="M228.6969,-344.1503C248.2933,-327.0827 280.8632,-300.2414 312,-281.5 318.0759,-277.8429 324.6587,-274.3493 331.2641,-271.113"/>
<polygon fill="#191970" stroke="#191970" points="226.3232,-341.577 221.1348,-350.8145 230.9513,-346.8287 226.3232,-341.577"/>
</g>
<!-- Node1467 -->
<g id="node12" class="node">
<title>Node1467</title>
<g id="a_node12"><a xlink:href="structcimg__library__suffixed_1_1_c_img_1_1__cimg__math__parser.html#a2d823d18414809075048f82cfc2f4779" target="_top" xlink:title="cimg_library_suffixed\l::CImg::_cimg_math_parser\l::mp_complex_exp">
<polygon fill="#ffffff" stroke="#000000" points="312,-170 312,-211 450,-211 450,-170 312,-170"/>
<text text-anchor="start" x="320" y="-199" font-family="Helvetica,sans-Serif" font-size="10.00" fill="#000000">cimg_library_suffixed</text>
<text text-anchor="start" x="320" y="-188" font-family="Helvetica,sans-Serif" font-size="10.00" fill="#000000">::CImg::_cimg_math_parser</text>
<text text-anchor="middle" x="381" y="-177" font-family="Helvetica,sans-Serif" font-size="10.00" fill="#000000">::mp_complex_exp</text>
</a>
</g>
</g>
<!-- Node1457&#45;&gt;Node1467 -->
<g id="edge12" class="edge">
<title>Node1457&#45;&gt;Node1467</title>
<path fill="none" stroke="#191970" d="M219.7822,-341.8476C235.2421,-312.4549 268.8729,-255.1481 312,-220.5 316.2769,-217.0639 321.0077,-213.9478 325.9284,-211.1392"/>
<polygon fill="#191970" stroke="#191970" points="216.5386,-340.5023 215.0859,-350.9971 222.7661,-343.6989 216.5386,-340.5023"/>
</g>
<!-- Node1468 -->
<g id="node13" class="node">
<title>Node1468</title>
<g id="a_node13"><a xlink:href="structcimg__library__suffixed_1_1_c_img_1_1__cimg__math__parser.html#aac266d813e6b22db9c5a7465f33fe0f2" target="_top" xlink:title="cimg_library_suffixed\l::CImg::_cimg_math_parser\l::mp_exp">
<polygon fill="#ffffff" stroke="#000000" points="312,-110 312,-151 450,-151 450,-110 312,-110"/>
<text text-anchor="start" x="320" y="-139" font-family="Helvetica,sans-Serif" font-size="10.00" fill="#000000">cimg_library_suffixed</text>
<text text-anchor="start" x="320" y="-128" font-family="Helvetica,sans-Serif" font-size="10.00" fill="#000000">::CImg::_cimg_math_parser</text>
<text text-anchor="middle" x="381" y="-117" font-family="Helvetica,sans-Serif" font-size="10.00" fill="#000000">::mp_exp</text>
</a>
</g>
</g>
<!-- Node1457&#45;&gt;Node1468 -->
<g id="edge13" class="edge">
<title>Node1457&#45;&gt;Node1468</title>
<path fill="none" stroke="#191970" d="M215.5966,-340.8297C226.713,-301.5315 256.6827,-212.6199 312,-160.5 315.7078,-157.0065 319.8873,-153.8812 324.3087,-151.0929"/>
<polygon fill="#191970" stroke="#191970" points="212.1509,-340.1625 212.9024,-350.7307 218.9053,-342.0006 212.1509,-340.1625"/>
</g>
<!-- Node1469 -->
<g id="node14" class="node">
<title>Node1469</title>
<g id="a_node14"><a xlink:href="structcimg__library__suffixed_1_1_c_img_1_1__cimg__math__parser.html#a660dabe36da3de2426f95518b193a5d2" target="_top" xlink:title="cimg_library_suffixed\l::CImg::_cimg_math_parser\l::mp_gauss">
<polygon fill="#ffffff" stroke="#000000" points="312,-50 312,-91 450,-91 450,-50 312,-50"/>
<text text-anchor="start" x="320" y="-79" font-family="Helvetica,sans-Serif" font-size="10.00" fill="#000000">cimg_library_suffixed</text>
<text text-anchor="start" x="320" y="-68" font-family="Helvetica,sans-Serif" font-size="10.00" fill="#000000">::CImg::_cimg_math_parser</text>
<text text-anchor="middle" x="381" y="-57" font-family="Helvetica,sans-Serif" font-size="10.00" fill="#000000">::mp_gauss</text>
</a>
</g>
</g>
<!-- Node1457&#45;&gt;Node1469 -->
<g id="edge14" class="edge">
<title>Node1457&#45;&gt;Node1469</title>
<path fill="none" stroke="#191970" d="M213.0001,-340.6396C219.9795,-293.0654 243.8498,-171.2859 312,-100.5 315.3521,-97.0183 319.1766,-93.9163 323.2669,-91.1571"/>
<polygon fill="#191970" stroke="#191970" points="209.4946,-340.4408 211.6028,-350.8238 216.4297,-341.3924 209.4946,-340.4408"/>
</g>
<!-- Node1470 -->
<g id="node15" class="node">
<title>Node1470</title>
<g id="a_node15"><a xlink:href="namespacecimg__library__suffixed_1_1cimg.html#a2a18bbfb6a496d8d5a02943be8eaa936" target="_top" xlink:title="Return a random variable following a Poisson distribution of parameter z. ">
<polygon fill="#ffffff" stroke="#000000" points="326.5,-.5 326.5,-30.5 435.5,-30.5 435.5,-.5 326.5,-.5"/>
<text text-anchor="start" x="334.5" y="-18.5" font-family="Helvetica,sans-Serif" font-size="10.00" fill="#000000">cimg_library_suffixed</text>
<text text-anchor="middle" x="381" y="-7.5" font-family="Helvetica,sans-Serif" font-size="10.00" fill="#000000">::cimg::prand</text>
</a>
</g>
</g>
<!-- Node1457&#45;&gt;Node1470 -->
<g id="edge15" class="edge">
<title>Node1457&#45;&gt;Node1470</title>
<path fill="none" stroke="#191970" d="M214.3648,-340.8553C227.0167,-278.3291 268.8643,-85.4171 312,-40.5 316.1479,-36.1808 321.0985,-32.6049 326.4173,-29.6449"/>
<polygon fill="#191970" stroke="#191970" points="210.8755,-340.4559 212.3484,-350.9479 217.7398,-341.8274 210.8755,-340.4559"/>
</g>
<!-- Node1471 -->
<g id="node16" class="node">
<title>Node1471</title>
<g id="a_node16"><a xlink:href="structcimg__library__suffixed_1_1_c_img.html#a6049c651eefc3a13b8f7d1fc3ff225d7" target="_top" xlink:title="Add random noise to pixel values. ">
<polygon fill="#ffffff" stroke="#000000" points="486,-.5 486,-30.5 605,-30.5 605,-.5 486,-.5"/>
<text text-anchor="start" x="494" y="-18.5" font-family="Helvetica,sans-Serif" font-size="10.00" fill="#000000">cimg_library_suffixed</text>
<text text-anchor="middle" x="545.5" y="-7.5" font-family="Helvetica,sans-Serif" font-size="10.00" fill="#000000">::CImg&lt; charT &gt;::noise</text>
</a>
</g>
</g>
<!-- Node1470&#45;&gt;Node1471 -->
<g id="edge16" class="edge">
<title>Node1470&#45;&gt;Node1471</title>
<path fill="none" stroke="#191970" d="M446.1332,-15.5C459.2435,-15.5 472.9609,-15.5 485.8719,-15.5"/>
<polygon fill="#191970" stroke="#191970" points="445.7762,-12.0001 435.7761,-15.5 445.7761,-19.0001 445.7762,-12.0001"/>
</g>
</g>
</svg>
        <g id="navigator" transform="translate(0 0)" fill="#404254">
                <rect fill="#f2f5e9" fill-opacity="0.5" stroke="#606060" stroke-width=".5" x="0" y="0" width="60" height="60"/>
                <use id="zoomplus" xlink:href="#zoomPlus" x="17" y="9" onmousedown="handleZoom(evt,'in')"/>
                <use id="zoomminus" xlink:href="#zoomMin" x="42" y="9" onmousedown="handleZoom(evt,'out')"/>
                <use id="reset" xlink:href="#resetDef" x="30" y="36" onmousedown="handleReset()"/>
                <g id="arrowUp" xlink:href="#dirArrow" transform="translate(30 24)" onmousedown="handlePan(0,-1)">
                  <use xlink:href="#rim" fill="#404040">
                        <set attributeName="fill" to="#808080" begin="arrowUp.mouseover" end="arrowUp.mouseout"/>
                  </use>
                  <path fill="none" stroke="white" stroke-width="1.5" d="M0,-3.0v7 M-2.5,-0.5L0,-3.0L2.5,-0.5"/>
                </g>
                <g id="arrowRight" xlink:href="#dirArrow" transform="rotate(90) translate(36 -43)" onmousedown="handlePan(1,0)">
                  <use xlink:href="#rim" fill="#404040">
                        <set attributeName="fill" to="#808080" begin="arrowRight.mouseover" end="arrowRight.mouseout"/>
                  </use>
                  <path fill="none" stroke="white" stroke-width="1.5" d="M0,-3.0v7 M-2.5,-0.5L0,-3.0L2.5,-0.5"/>
                </g>
                <g id="arrowDown" xlink:href="#dirArrow" transform="rotate(180) translate(-30 -48)" onmousedown="handlePan(0,1)">
                  <use xlink:href="#rim" fill="#404040">
                        <set attributeName="fill" to="#808080" begin="arrowDown.mouseover" end="arrowDown.mouseout"/>
                  </use>
                  <path fill="none" stroke="white" stroke-width="1.5" d="M0,-3.0v7 M-2.5,-0.5L0,-3.0L2.5,-0.5"/>
                </g>
                <g id="arrowLeft" xlink:href="#dirArrow" transform="rotate(270) translate(-36 17)" onmousedown="handlePan(-1,0)">
                  <use xlink:href="#rim" fill="#404040">
                        <set attributeName="fill" to="#808080" begin="arrowLeft.mouseover" end="arrowLeft.mouseout"/>
                  </use>
                  <path fill="none" stroke="white" stroke-width="1.5" d="M0,-3.0v7 M-2.5,-0.5L0,-3.0L2.5,-0.5"/>
                </g>
        </g>
        <svg viewBox="0 0 15 15" width="100%" height="30px" preserveAspectRatio="xMaxYMin meet">
         <g id="arrow_out" transform="scale(0.3 0.3)">
          <a xlink:href="structcimg__library__suffixed_1_1_c_img_a9025e6121a8da36b6213422347de4c12_icgraph_org.svg" target="_base">
           <rect id="button" ry="5" rx="5" y="6" x="6" height="38" width="38"
                fill="#f2f5e9" fill-opacity="0.5" stroke="#606060" stroke-width="1.0"/>
           <path id="arrow"
             d="M 11.500037,31.436501 C 11.940474,20.09759 22.043105,11.32322 32.158766,21.979434 L 37.068811,17.246167 C 37.068811,17.246167 37.088388,32 37.088388,32 L 22.160133,31.978069 C 22.160133,31.978069 26.997745,27.140456 26.997745,27.140456 C 18.528582,18.264221 13.291696,25.230495 11.500037,31.436501 z"
             style="fill:#404040;"/>
          </a>
         </g>
        </svg>
</svg>
