<?xml version="1.0" encoding="UTF-8" standalone="no"?>
<!DOCTYPE svg PUBLIC "-//W3C//DTD SVG 1.1//EN"
 "http://www.w3.org/Graphics/SVG/1.1/DTD/svg11.dtd">
<!-- Generated by graphviz version 2.40.1 (20161225.0304)
 -->
<!-- Title: cimg_library_suffixed::CImg::_cimg_math_parser::mp_cats Pages: 1 -->
<svg width="314pt" height="186pt"
 viewBox="0.00 0.00 314.00 186.00" xmlns="http://www.w3.org/2000/svg" xmlns:xlink="http://www.w3.org/1999/xlink">
<g id="graph0" class="graph" transform="scale(1 1) rotate(0) translate(4 182)">
<title>cimg_library_suffixed::CImg::_cimg_math_parser::mp_cats</title>
<polygon fill="#ffffff" stroke="transparent" points="-4,4 -4,-182 310,-182 310,4 -4,4"/>
<!-- Node229 -->
<g id="node1" class="node">
<title>Node229</title>
<polygon fill="#bfbfbf" stroke="#000000" points="0,-68 0,-109 138,-109 138,-68 0,-68"/>
<text text-anchor="start" x="8" y="-97" font-family="Helvetica,sans-Serif" font-size="10.00" fill="#000000">cimg_library_suffixed</text>
<text text-anchor="start" x="8" y="-86" font-family="Helvetica,sans-Serif" font-size="10.00" fill="#000000">::CImg::_cimg_math_parser</text>
<text text-anchor="middle" x="69" y="-75" font-family="Helvetica,sans-Serif" font-size="10.00" fill="#000000">::mp_cats</text>
</g>
<!-- Node230 -->
<g id="node2" class="node">
<title>Node230</title>
<g id="a_node2"><a xlink:href="structcimg__library__suffixed_1_1_c_img.html#a7be21c881dc4b1882fe90300d159ebb3" target="_top" xlink:title="Return a shared&#45;memory image referencing a range of pixels of the image instance. ...">
<polygon fill="#ffffff" stroke="#000000" points="174,-147.5 174,-177.5 306,-177.5 306,-147.5 174,-147.5"/>
<text text-anchor="start" x="182" y="-165.5" font-family="Helvetica,sans-Serif" font-size="10.00" fill="#000000">cimg_library_suffixed</text>
<text text-anchor="middle" x="240" y="-154.5" font-family="Helvetica,sans-Serif" font-size="10.00" fill="#000000">::CImg::get_shared_points</text>
</a>
</g>
</g>
<!-- Node229&#45;&gt;Node230 -->
<g id="edge1" class="edge">
<title>Node229&#45;&gt;Node230</title>
<path fill="none" stroke="#191970" d="M109.7288,-109.0105C129.0161,-118.4345 152.4901,-129.492 174,-138.5 178.3403,-140.3176 182.8719,-142.1327 187.4386,-143.9046"/>
<polygon fill="#191970" stroke="#191970" points="186.2203,-147.1858 196.8114,-147.4683 188.7081,-140.6428 186.2203,-147.1858"/>
</g>
<!-- Node231 -->
<g id="node3" class="node">
<title>Node231</title>
<g id="a_node3"><a xlink:href="namespacecimg__library__suffixed_1_1cimg.html#ad5459593e7f8a4066cb22ad63de8e92d" target="_top" xlink:title="Return the minimum between four values. ">
<polygon fill="#ffffff" stroke="#000000" points="185.5,-98.5 185.5,-128.5 294.5,-128.5 294.5,-98.5 185.5,-98.5"/>
<text text-anchor="start" x="193.5" y="-116.5" font-family="Helvetica,sans-Serif" font-size="10.00" fill="#000000">cimg_library_suffixed</text>
<text text-anchor="middle" x="240" y="-105.5" font-family="Helvetica,sans-Serif" font-size="10.00" fill="#000000">::cimg::min</text>
</a>
</g>
</g>
<!-- Node229&#45;&gt;Node231 -->
<g id="edge2" class="edge">
<title>Node229&#45;&gt;Node231</title>
<path fill="none" stroke="#191970" d="M138.0593,-98.5964C150.3701,-100.3962 163.1535,-102.2651 175.3359,-104.0462"/>
<polygon fill="#191970" stroke="#191970" points="175.003,-107.5346 185.4042,-105.5182 176.0157,-100.6083 175.003,-107.5346"/>
</g>
<!-- Node232 -->
<g id="node4" class="node">
<title>Node232</title>
<g id="a_node4"><a xlink:href="structcimg__library__suffixed_1_1_c_img.html#a679b1e1a7717fbb6be2352355e69f077" target="_top" xlink:title="Transfer content of an image instance into another one. ">
<polygon fill="#ffffff" stroke="#000000" points="185.5,-49.5 185.5,-79.5 294.5,-79.5 294.5,-49.5 185.5,-49.5"/>
<text text-anchor="start" x="193.5" y="-67.5" font-family="Helvetica,sans-Serif" font-size="10.00" fill="#000000">cimg_library_suffixed</text>
<text text-anchor="middle" x="240" y="-56.5" font-family="Helvetica,sans-Serif" font-size="10.00" fill="#000000">::CImg::move_to</text>
</a>
</g>
</g>
<!-- Node229&#45;&gt;Node232 -->
<g id="edge3" class="edge">
<title>Node229&#45;&gt;Node232</title>
<path fill="none" stroke="#191970" d="M138.0593,-78.8075C150.3701,-77.0796 163.1535,-75.2855 175.3359,-73.5757"/>
<polygon fill="#191970" stroke="#191970" points="175.9877,-77.0186 185.4042,-72.1626 175.0147,-70.0865 175.9877,-77.0186"/>
</g>
<!-- Node233 -->
<g id="node5" class="node">
<title>Node233</title>
<g id="a_node5"><a xlink:href="structcimg__library__suffixed_1_1_c_img.html#a6abe1f19a229cc0ac8fc60d1a0167057" target="_top" xlink:title="Unroll pixel values along axis y. ">
<polygon fill="#ffffff" stroke="#000000" points="185.5,-.5 185.5,-30.5 294.5,-30.5 294.5,-.5 185.5,-.5"/>
<text text-anchor="start" x="193.5" y="-18.5" font-family="Helvetica,sans-Serif" font-size="10.00" fill="#000000">cimg_library_suffixed</text>
<text text-anchor="middle" x="240" y="-7.5" font-family="Helvetica,sans-Serif" font-size="10.00" fill="#000000">::CImg::vector</text>
</a>
</g>
</g>
<!-- Node229&#45;&gt;Node233 -->
<g id="edge4" class="edge">
<title>Node229&#45;&gt;Node233</title>
<path fill="none" stroke="#191970" d="M112.137,-67.9953C131.0013,-59.2327 153.4685,-49.0703 174,-40.5 179.0176,-38.4056 184.2788,-36.286 189.5483,-34.2131"/>
<polygon fill="#191970" stroke="#191970" points="190.936,-37.429 198.9918,-30.5475 188.4029,-30.9033 190.936,-37.429"/>
</g>
</g>
</svg>
