<?xml version="1.0" encoding="UTF-8" standalone="no"?>
<!DOCTYPE svg PUBLIC "-//W3C//DTD SVG 1.1//EN"
 "http://www.w3.org/Graphics/SVG/1.1/DTD/svg11.dtd">
<!-- Generated by graphviz version 2.40.1 (20161225.0304)
 -->
<!-- Title: cimg_library_suffixed::CImg::fill Pages: 1 -->
<svg width="323pt" height="1075pt"
 viewBox="0.00 0.00 323.00 1075.00" xmlns="http://www.w3.org/2000/svg" xmlns:xlink="http://www.w3.org/1999/xlink">
<g id="graph0" class="graph" transform="scale(1 1) rotate(0) translate(4 1071)">
<title>cimg_library_suffixed::CImg::fill</title>
<polygon fill="#ffffff" stroke="transparent" points="-4,4 -4,-1071 319,-1071 319,4 -4,4"/>
<!-- Node1194 -->
<g id="node1" class="node">
<title>Node1194</title>
<polygon fill="#bfbfbf" stroke="#000000" points="0,-503.5 0,-533.5 109,-533.5 109,-503.5 0,-503.5"/>
<text text-anchor="start" x="8" y="-521.5" font-family="Helvetica,sans-Serif" font-size="10.00" fill="#000000">cimg_library_suffixed</text>
<text text-anchor="middle" x="54.5" y="-510.5" font-family="Helvetica,sans-Serif" font-size="10.00" fill="#000000">::CImg::fill</text>
</g>
<!-- Node1195 -->
<g id="node2" class="node">
<title>Node1195</title>
<g id="a_node2"><a xlink:href="structcimg__library__suffixed_1_1_c_img.html#aed98b23130078df5ad69b199d88bb261" target="_top" xlink:title="Correlate image by a kernel . ">
<polygon fill="#ffffff" stroke="#000000" points="161,-1036.5 161,-1066.5 299,-1066.5 299,-1036.5 161,-1036.5"/>
<text text-anchor="start" x="169" y="-1054.5" font-family="Helvetica,sans-Serif" font-size="10.00" fill="#000000">cimg_library_suffixed</text>
<text text-anchor="middle" x="230" y="-1043.5" font-family="Helvetica,sans-Serif" font-size="10.00" fill="#000000">::CImg&lt; charT &gt;::_correlate</text>
</a>
</g>
</g>
<!-- Node1194&#45;&gt;Node1195 -->
<g id="edge1" class="edge">
<title>Node1194&#45;&gt;Node1195</title>
<path fill="none" stroke="#191970" d="M55.5752,-543.78C60.0062,-636.1414 79.8055,-953.7268 145,-1026.5 149.5161,-1031.541 154.9907,-1035.5877 160.961,-1038.833"/>
<polygon fill="#191970" stroke="#191970" points="59.0658,-543.4927 55.1091,-533.6645 52.0732,-543.815 59.0658,-543.4927"/>
</g>
<!-- Node1196 -->
<g id="node3" class="node">
<title>Node1196</title>
<g id="a_node3"><a xlink:href="structcimg__library__suffixed_1_1_c_img.html#a8b40db5a9818c3f961a90840b271de6c" target="_top" xlink:title="cimg_library_suffixed\l::CImg\&lt; charT \&gt;::_display\l_object3d">
<polygon fill="#ffffff" stroke="#000000" points="164.5,-976 164.5,-1017 295.5,-1017 295.5,-976 164.5,-976"/>
<text text-anchor="start" x="172.5" y="-1005" font-family="Helvetica,sans-Serif" font-size="10.00" fill="#000000">cimg_library_suffixed</text>
<text text-anchor="start" x="172.5" y="-994" font-family="Helvetica,sans-Serif" font-size="10.00" fill="#000000">::CImg&lt; charT &gt;::_display</text>
<text text-anchor="middle" x="230" y="-983" font-family="Helvetica,sans-Serif" font-size="10.00" fill="#000000">_object3d</text>
</a>
</g>
</g>
<!-- Node1194&#45;&gt;Node1196 -->
<g id="edge2" class="edge">
<title>Node1194&#45;&gt;Node1196</title>
<path fill="none" stroke="#191970" d="M56.3628,-543.6834C63.1129,-628.4864 88.9055,-901.9485 145,-966.5 150.3377,-972.6424 157.014,-977.5272 164.2649,-981.4119"/>
<polygon fill="#191970" stroke="#191970" points="59.8477,-543.3519 55.584,-533.6528 52.8687,-543.8938 59.8477,-543.3519"/>
</g>
<!-- Node1197 -->
<g id="node4" class="node">
<title>Node1197</title>
<g id="a_node4"><a xlink:href="structcimg__library__suffixed_1_1_c_img.html#a5d58e61633938094b3bb055525da18dd" target="_top" xlink:title="cimg_library_suffixed\l::CImg\&lt; charT \&gt;::_eval">
<polygon fill="#ffffff" stroke="#000000" points="170.5,-926.5 170.5,-956.5 289.5,-956.5 289.5,-926.5 170.5,-926.5"/>
<text text-anchor="start" x="178.5" y="-944.5" font-family="Helvetica,sans-Serif" font-size="10.00" fill="#000000">cimg_library_suffixed</text>
<text text-anchor="middle" x="230" y="-933.5" font-family="Helvetica,sans-Serif" font-size="10.00" fill="#000000">::CImg&lt; charT &gt;::_eval</text>
</a>
</g>
</g>
<!-- Node1194&#45;&gt;Node1197 -->
<g id="edge3" class="edge">
<title>Node1194&#45;&gt;Node1197</title>
<path fill="none" stroke="#191970" d="M56.9308,-543.7786C64.9955,-622.5358 93.3335,-861.5009 145,-916.5 151.8456,-923.7872 160.6948,-928.9856 170.0887,-932.6861"/>
<polygon fill="#191970" stroke="#191970" points="60.407,-543.3658 55.927,-533.7648 53.4419,-544.064 60.407,-543.3658"/>
</g>
<!-- Node1198 -->
<g id="node5" class="node">
<title>Node1198</title>
<g id="a_node5"><a xlink:href="structcimg__library__suffixed_1_1_c_img_list.html#acdbd0db44c3746e62fb05c914c4fbb1f" target="_top" xlink:title="cimg_library_suffixed\l::CImgList\&lt; charT \&gt;::\l_load_yuv">
<polygon fill="#ffffff" stroke="#000000" points="174.5,-866 174.5,-907 285.5,-907 285.5,-866 174.5,-866"/>
<text text-anchor="start" x="182.5" y="-895" font-family="Helvetica,sans-Serif" font-size="10.00" fill="#000000">cimg_library_suffixed</text>
<text text-anchor="start" x="182.5" y="-884" font-family="Helvetica,sans-Serif" font-size="10.00" fill="#000000">::CImgList&lt; charT &gt;::</text>
<text text-anchor="middle" x="230" y="-873" font-family="Helvetica,sans-Serif" font-size="10.00" fill="#000000">_load_yuv</text>
</a>
</g>
</g>
<!-- Node1194&#45;&gt;Node1198 -->
<g id="edge4" class="edge">
<title>Node1194&#45;&gt;Node1198</title>
<path fill="none" stroke="#191970" d="M58.1983,-543.9571C68.9045,-614.4286 101.9243,-809.9412 145,-856.5 152.8644,-865.0003 163.2846,-871.0931 174.1258,-875.4599"/>
<polygon fill="#191970" stroke="#191970" points="61.6143,-543.1346 56.6734,-533.7624 54.6913,-544.1702 61.6143,-543.1346"/>
</g>
<!-- Node1199 -->
<g id="node6" class="node">
<title>Node1199</title>
<g id="a_node6"><a xlink:href="structcimg__library__suffixed_1_1_c_img.html#a9003055d9bb4040cffb855dfdea19715" target="_top" xlink:title="cimg_library_suffixed\l::CImg\&lt; charT \&gt;::_LU">
<polygon fill="#ffffff" stroke="#000000" points="173.5,-816.5 173.5,-846.5 286.5,-846.5 286.5,-816.5 173.5,-816.5"/>
<text text-anchor="start" x="181.5" y="-834.5" font-family="Helvetica,sans-Serif" font-size="10.00" fill="#000000">cimg_library_suffixed</text>
<text text-anchor="middle" x="230" y="-823.5" font-family="Helvetica,sans-Serif" font-size="10.00" fill="#000000">::CImg&lt; charT &gt;::_LU</text>
</a>
</g>
</g>
<!-- Node1194&#45;&gt;Node1199 -->
<g id="edge5" class="edge">
<title>Node1194&#45;&gt;Node1199</title>
<path fill="none" stroke="#191970" d="M59.2559,-543.6329C71.6476,-606.6146 106.6407,-768.8407 145,-806.5 152.7932,-814.151 162.8018,-819.4811 173.1975,-823.1892"/>
<polygon fill="#191970" stroke="#191970" points="62.6774,-542.8917 57.3359,-533.7419 55.8057,-544.2257 62.6774,-542.8917"/>
</g>
<!-- Node1200 -->
<g id="node7" class="node">
<title>Node1200</title>
<g id="a_node7"><a xlink:href="structcimg__library__suffixed_1_1_c_img_list.html#af8a6b01f20b2d459e5abe6b99836ea9a" target="_top" xlink:title="cimg_library_suffixed\l::CImgList\&lt; charT \&gt;::\l_select">
<polygon fill="#ffffff" stroke="#000000" points="174.5,-756 174.5,-797 285.5,-797 285.5,-756 174.5,-756"/>
<text text-anchor="start" x="182.5" y="-785" font-family="Helvetica,sans-Serif" font-size="10.00" fill="#000000">cimg_library_suffixed</text>
<text text-anchor="start" x="182.5" y="-774" font-family="Helvetica,sans-Serif" font-size="10.00" fill="#000000">::CImgList&lt; charT &gt;::</text>
<text text-anchor="middle" x="230" y="-763" font-family="Helvetica,sans-Serif" font-size="10.00" fill="#000000">_select</text>
</a>
</g>
</g>
<!-- Node1194&#45;&gt;Node1200 -->
<g id="edge6" class="edge">
<title>Node1194&#45;&gt;Node1200</title>
<path fill="none" stroke="#191970" d="M57.6327,-543.759C64.7136,-590.2813 86.1886,-689.914 145,-746.5 153.2321,-754.4206 163.6811,-760.2634 174.4131,-764.5694"/>
<polygon fill="#191970" stroke="#191970" points="61.0675,-543.0518 56.1954,-533.6437 54.1371,-544.0366 61.0675,-543.0518"/>
</g>
<!-- Node1201 -->
<g id="node8" class="node">
<title>Node1201</title>
<g id="a_node8"><a xlink:href="structcimg__library__suffixed_1_1_c_img.html#a33e9ee57f3c8b1e7920896121fb70561" target="_top" xlink:title="Construct image with specified size and initialize pixel values . ">
<polygon fill="#ffffff" stroke="#000000" points="168,-706.5 168,-736.5 292,-736.5 292,-706.5 168,-706.5"/>
<text text-anchor="start" x="176" y="-724.5" font-family="Helvetica,sans-Serif" font-size="10.00" fill="#000000">cimg_library_suffixed</text>
<text text-anchor="middle" x="230" y="-713.5" font-family="Helvetica,sans-Serif" font-size="10.00" fill="#000000">::CImg&lt; charT &gt;::assign</text>
</a>
</g>
</g>
<!-- Node1194&#45;&gt;Node1201 -->
<g id="edge7" class="edge">
<title>Node1194&#45;&gt;Node1201</title>
<path fill="none" stroke="#191970" d="M60.4299,-543.6068C70.8498,-582.2038 96.1301,-655.8989 145,-696.5 151.744,-702.1029 159.6987,-706.4501 167.9907,-709.8231"/>
<polygon fill="#191970" stroke="#191970" points="63.7636,-542.5174 57.8778,-533.7079 56.9852,-544.265 63.7636,-542.5174"/>
</g>
<!-- Node1202 -->
<g id="node9" class="node">
<title>Node1202</title>
<g id="a_node9"><a xlink:href="structcimg__library__suffixed_1_1_c_img.html#af3c29f70168c4443e3f6f887834819b0" target="_top" xlink:title="Blur image anisotropically, directed by a field of diffusion tensors. ">
<polygon fill="#ffffff" stroke="#000000" points="174.5,-646 174.5,-687 285.5,-687 285.5,-646 174.5,-646"/>
<text text-anchor="start" x="182.5" y="-675" font-family="Helvetica,sans-Serif" font-size="10.00" fill="#000000">cimg_library_suffixed</text>
<text text-anchor="start" x="182.5" y="-664" font-family="Helvetica,sans-Serif" font-size="10.00" fill="#000000">::CImg&lt; charT &gt;::blur</text>
<text text-anchor="middle" x="230" y="-653" font-family="Helvetica,sans-Serif" font-size="10.00" fill="#000000">_anisotropic</text>
</a>
</g>
</g>
<!-- Node1194&#45;&gt;Node1202 -->
<g id="edge8" class="edge">
<title>Node1194&#45;&gt;Node1202</title>
<path fill="none" stroke="#191970" d="M67.4266,-542.8281C82.6764,-569.3565 110.3896,-611.3754 145,-636.5 153.7382,-642.8433 163.941,-647.9466 174.1841,-652.0175"/>
<polygon fill="#191970" stroke="#191970" points="70.3205,-540.8323 62.3825,-533.8154 64.2121,-544.2511 70.3205,-540.8323"/>
</g>
<!-- Node1203 -->
<g id="node10" class="node">
<title>Node1203</title>
<g id="a_node10"><a xlink:href="structcimg__library__suffixed_1_1_c_img.html#ab19d123867d5a2ed56fe1b016267bfe7" target="_top" xlink:title="Blur image, with the joint bilateral filter. ">
<polygon fill="#ffffff" stroke="#000000" points="174.5,-586 174.5,-627 285.5,-627 285.5,-586 174.5,-586"/>
<text text-anchor="start" x="182.5" y="-615" font-family="Helvetica,sans-Serif" font-size="10.00" fill="#000000">cimg_library_suffixed</text>
<text text-anchor="start" x="182.5" y="-604" font-family="Helvetica,sans-Serif" font-size="10.00" fill="#000000">::CImg&lt; charT &gt;::blur</text>
<text text-anchor="middle" x="230" y="-593" font-family="Helvetica,sans-Serif" font-size="10.00" fill="#000000">_bilateral</text>
</a>
</g>
</g>
<!-- Node1194&#45;&gt;Node1203 -->
<g id="edge9" class="edge">
<title>Node1194&#45;&gt;Node1203</title>
<path fill="none" stroke="#191970" d="M83.4178,-539.4702C100.7072,-551.378 123.4411,-565.9629 145,-576.5 154.2793,-581.0354 164.4237,-585.2262 174.3704,-588.9487"/>
<polygon fill="#191970" stroke="#191970" points="85.1096,-536.3825 74.908,-533.5228 81.0996,-542.1201 85.1096,-536.3825"/>
</g>
<!-- Node1204 -->
<g id="node11" class="node">
<title>Node1204</title>
<g id="a_node11"><a xlink:href="structcimg__library__suffixed_1_1_c_img_1_1__cimg__math__parser.html#a318c44c5d1f4f0114355f37ace87a4ae" target="_top" xlink:title="cimg_library_suffixed\l::CImg::_cimg_math_parser\l::compile">
<polygon fill="#ffffff" stroke="#000000" points="161,-526 161,-567 299,-567 299,-526 161,-526"/>
<text text-anchor="start" x="169" y="-555" font-family="Helvetica,sans-Serif" font-size="10.00" fill="#000000">cimg_library_suffixed</text>
<text text-anchor="start" x="169" y="-544" font-family="Helvetica,sans-Serif" font-size="10.00" fill="#000000">::CImg::_cimg_math_parser</text>
<text text-anchor="middle" x="230" y="-533" font-family="Helvetica,sans-Serif" font-size="10.00" fill="#000000">::compile</text>
</a>
</g>
</g>
<!-- Node1194&#45;&gt;Node1204 -->
<g id="edge10" class="edge">
<title>Node1194&#45;&gt;Node1204</title>
<path fill="none" stroke="#191970" d="M119.2628,-528.8325C132.8272,-530.9966 147.18,-533.2865 160.8956,-535.4748"/>
<polygon fill="#191970" stroke="#191970" points="119.4938,-525.3252 109.0673,-527.2059 118.3909,-532.2378 119.4938,-525.3252"/>
</g>
<!-- Node1205 -->
<g id="node12" class="node">
<title>Node1205</title>
<g id="a_node12"><a xlink:href="structcimg__library__suffixed_1_1_c_img.html#a611297a981e43c03a771fbc5d948f85a" target="_top" xlink:title="Crop image region . ">
<polygon fill="#ffffff" stroke="#000000" points="163.5,-476.5 163.5,-506.5 296.5,-506.5 296.5,-476.5 163.5,-476.5"/>
<text text-anchor="start" x="171.5" y="-494.5" font-family="Helvetica,sans-Serif" font-size="10.00" fill="#000000">cimg_library_suffixed</text>
<text text-anchor="middle" x="230" y="-483.5" font-family="Helvetica,sans-Serif" font-size="10.00" fill="#000000">::CImg&lt; charT &gt;::get_crop</text>
</a>
</g>
</g>
<!-- Node1194&#45;&gt;Node1205 -->
<g id="edge11" class="edge">
<title>Node1194&#45;&gt;Node1205</title>
<path fill="none" stroke="#191970" d="M119.3533,-508.5226C133.7267,-506.3113 148.9813,-503.9644 163.4222,-501.7427"/>
<polygon fill="#191970" stroke="#191970" points="118.4188,-505.1251 109.0673,-510.105 119.4832,-512.0437 118.4188,-505.1251"/>
</g>
<!-- Node1206 -->
<g id="node13" class="node">
<title>Node1206</title>
<g id="a_node13"><a xlink:href="structcimg__library__suffixed_1_1_c_img.html#ab461b8b649f269f33f4eedba90d1a84e" target="_top" xlink:title="Compute distance map to a specified value, according to a custom metric (use dijkstra algorithm) ...">
<polygon fill="#ffffff" stroke="#000000" points="175.5,-416 175.5,-457 284.5,-457 284.5,-416 175.5,-416"/>
<text text-anchor="start" x="183.5" y="-445" font-family="Helvetica,sans-Serif" font-size="10.00" fill="#000000">cimg_library_suffixed</text>
<text text-anchor="start" x="183.5" y="-434" font-family="Helvetica,sans-Serif" font-size="10.00" fill="#000000">::CImg&lt; charT &gt;::get</text>
<text text-anchor="middle" x="230" y="-423" font-family="Helvetica,sans-Serif" font-size="10.00" fill="#000000">_distance_dijkstra</text>
</a>
</g>
</g>
<!-- Node1194&#45;&gt;Node1206 -->
<g id="edge12" class="edge">
<title>Node1194&#45;&gt;Node1206</title>
<path fill="none" stroke="#191970" d="M87.7783,-498.0182C104.5902,-488.1199 125.5103,-476.4725 145,-467.5 154.5598,-463.099 164.9378,-458.8782 175.051,-455.0448"/>
<polygon fill="#191970" stroke="#191970" points="85.6962,-495.1845 78.8962,-503.3092 89.2787,-501.1983 85.6962,-495.1845"/>
</g>
<!-- Node1207 -->
<g id="node14" class="node">
<title>Node1207</title>
<g id="a_node14"><a xlink:href="structcimg__library__suffixed_1_1_c_img.html#a2b1addf2e74607a44640f82f88916d37" target="_top" xlink:title="Compute distance map to one source point, according to a custom metric (use fast marching algorithm)...">
<polygon fill="#ffffff" stroke="#000000" points="175.5,-356 175.5,-397 284.5,-397 284.5,-356 175.5,-356"/>
<text text-anchor="start" x="183.5" y="-385" font-family="Helvetica,sans-Serif" font-size="10.00" fill="#000000">cimg_library_suffixed</text>
<text text-anchor="start" x="183.5" y="-374" font-family="Helvetica,sans-Serif" font-size="10.00" fill="#000000">::CImg&lt; charT &gt;::get</text>
<text text-anchor="middle" x="230" y="-363" font-family="Helvetica,sans-Serif" font-size="10.00" fill="#000000">_distance_eikonal</text>
</a>
</g>
</g>
<!-- Node1194&#45;&gt;Node1207 -->
<g id="edge13" class="edge">
<title>Node1194&#45;&gt;Node1207</title>
<path fill="none" stroke="#191970" d="M68.227,-494.6124C83.8367,-469.4121 111.5447,-430.1441 145,-406.5 154.0736,-400.0874 164.6523,-394.9242 175.2034,-390.8106"/>
<polygon fill="#191970" stroke="#191970" points="65.211,-492.8361 63.0352,-503.2052 71.2023,-496.4561 65.211,-492.8361"/>
</g>
<!-- Node1208 -->
<g id="node15" class="node">
<title>Node1208</title>
<g id="a_node15"><a xlink:href="structcimg__library__suffixed_1_1_c_img.html#a427c9840c24f67ffadc9d5288f75e943" target="_top" xlink:title="Fill sequentially pixel values according to a given expression . ">
<polygon fill="#ffffff" stroke="#000000" points="168,-306.5 168,-336.5 292,-336.5 292,-306.5 168,-306.5"/>
<text text-anchor="start" x="176" y="-324.5" font-family="Helvetica,sans-Serif" font-size="10.00" fill="#000000">cimg_library_suffixed</text>
<text text-anchor="middle" x="230" y="-313.5" font-family="Helvetica,sans-Serif" font-size="10.00" fill="#000000">::CImg&lt; charT &gt;::get_fill</text>
</a>
</g>
</g>
<!-- Node1194&#45;&gt;Node1208 -->
<g id="edge14" class="edge">
<title>Node1194&#45;&gt;Node1208</title>
<path fill="none" stroke="#191970" d="M60.981,-493.1848C71.9118,-455.6022 97.6011,-385.3217 145,-346.5 151.664,-341.0419 159.4799,-336.7754 167.6248,-333.4405"/>
<polygon fill="#191970" stroke="#191970" points="57.4762,-492.7247 58.1688,-503.2968 64.2203,-494.6003 57.4762,-492.7247"/>
</g>
<!-- Node1209 -->
<g id="node16" class="node">
<title>Node1209</title>
<g id="a_node16"><a xlink:href="structcimg__library__suffixed_1_1_c_img.html#a1d9a664dfe01342505a5256db9078b31" target="_top" xlink:title="Resize image to new dimensions . ">
<polygon fill="#ffffff" stroke="#000000" points="175.5,-246 175.5,-287 284.5,-287 284.5,-246 175.5,-246"/>
<text text-anchor="start" x="183.5" y="-275" font-family="Helvetica,sans-Serif" font-size="10.00" fill="#000000">cimg_library_suffixed</text>
<text text-anchor="start" x="183.5" y="-264" font-family="Helvetica,sans-Serif" font-size="10.00" fill="#000000">::CImg&lt; charT &gt;::get</text>
<text text-anchor="middle" x="230" y="-253" font-family="Helvetica,sans-Serif" font-size="10.00" fill="#000000">_resize</text>
</a>
</g>
</g>
<!-- Node1194&#45;&gt;Node1209 -->
<g id="edge15" class="edge">
<title>Node1194&#45;&gt;Node1209</title>
<path fill="none" stroke="#191970" d="M58.0852,-493.1164C65.8009,-447.7024 88.1312,-352.1955 145,-297.5 153.4909,-289.3335 164.3023,-283.2914 175.3458,-278.8297"/>
<polygon fill="#191970" stroke="#191970" points="54.5834,-492.8506 56.4636,-503.2772 61.496,-493.9538 54.5834,-492.8506"/>
</g>
<!-- Node1210 -->
<g id="node17" class="node">
<title>Node1210</title>
<g id="a_node17"><a xlink:href="structcimg__library__suffixed_1_1_c_img.html#a8ec8cca0b51ca156165ffd77acf39e09" target="_top" xlink:title="Warp image content by a warping field . ">
<polygon fill="#ffffff" stroke="#000000" points="162.5,-196.5 162.5,-226.5 297.5,-226.5 297.5,-196.5 162.5,-196.5"/>
<text text-anchor="start" x="170.5" y="-214.5" font-family="Helvetica,sans-Serif" font-size="10.00" fill="#000000">cimg_library_suffixed</text>
<text text-anchor="middle" x="230" y="-203.5" font-family="Helvetica,sans-Serif" font-size="10.00" fill="#000000">::CImg&lt; charT &gt;::get_warp</text>
</a>
</g>
</g>
<!-- Node1194&#45;&gt;Node1210 -->
<g id="edge16" class="edge">
<title>Node1194&#45;&gt;Node1210</title>
<path fill="none" stroke="#191970" d="M59.4945,-493.0722C72.2007,-430.8191 107.4201,-273.1707 145,-236.5 150.0642,-231.5583 156.0528,-227.5854 162.4703,-224.3926"/>
<polygon fill="#191970" stroke="#191970" points="55.9967,-492.7128 57.4536,-503.207 62.8589,-494.0948 55.9967,-492.7128"/>
</g>
<!-- Node1211 -->
<g id="node18" class="node">
<title>Node1211</title>
<g id="a_node18"><a xlink:href="structcimg__library__suffixed_1_1_c_img.html#a916472d313a2058a1852864b1235ec02" target="_top" xlink:title="Invert the instance image, viewed as a matrix. ">
<polygon fill="#ffffff" stroke="#000000" points="170.5,-147.5 170.5,-177.5 289.5,-177.5 289.5,-147.5 170.5,-147.5"/>
<text text-anchor="start" x="178.5" y="-165.5" font-family="Helvetica,sans-Serif" font-size="10.00" fill="#000000">cimg_library_suffixed</text>
<text text-anchor="middle" x="230" y="-154.5" font-family="Helvetica,sans-Serif" font-size="10.00" fill="#000000">::CImg&lt; charT &gt;::invert</text>
</a>
</g>
</g>
<!-- Node1194&#45;&gt;Node1211 -->
<g id="edge17" class="edge">
<title>Node1194&#45;&gt;Node1211</title>
<path fill="none" stroke="#191970" d="M58.1488,-493.4489C68.7254,-424.1195 101.4384,-231.9043 145,-187.5 152.0018,-180.3627 160.9278,-175.2382 170.3495,-171.5643"/>
<polygon fill="#191970" stroke="#191970" points="54.6664,-493.0705 56.6431,-503.4793 61.5889,-494.1097 54.6664,-493.0705"/>
</g>
<!-- Node1212 -->
<g id="node19" class="node">
<title>Node1212</title>
<g id="a_node19"><a xlink:href="structcimg__library__suffixed_1_1_c_img.html#aae1d41b8104d3018b50f25d47ac219e0" target="_top" xlink:title="Compute 0&#45;isolines of a function, as a 3d object. ">
<polygon fill="#ffffff" stroke="#000000" points="163,-98.5 163,-128.5 297,-128.5 297,-98.5 163,-98.5"/>
<text text-anchor="start" x="171" y="-116.5" font-family="Helvetica,sans-Serif" font-size="10.00" fill="#000000">cimg_library_suffixed</text>
<text text-anchor="middle" x="230" y="-105.5" font-family="Helvetica,sans-Serif" font-size="10.00" fill="#000000">::CImg&lt; charT &gt;::isoline3d</text>
</a>
</g>
</g>
<!-- Node1194&#45;&gt;Node1212 -->
<g id="edge18" class="edge">
<title>Node1194&#45;&gt;Node1212</title>
<path fill="none" stroke="#191970" d="M57.2071,-493.3789C65.9054,-417.1745 95.4974,-190.6591 145,-138.5 150.0827,-133.1446 156.2476,-128.9185 162.9103,-125.5866"/>
<polygon fill="#191970" stroke="#191970" points="53.7092,-493.1656 56.0755,-503.4928 60.6658,-493.944 53.7092,-493.1656"/>
</g>
<!-- Node1213 -->
<g id="node20" class="node">
<title>Node1213</title>
<g id="a_node20"><a xlink:href="structcimg__library__suffixed_1_1_c_img.html#af2871222dafbcaf1ddab4701be882410" target="_top" xlink:title="Compute isosurface of a function, as a 3d object. ">
<polygon fill="#ffffff" stroke="#000000" points="154.5,-49.5 154.5,-79.5 305.5,-79.5 305.5,-49.5 154.5,-49.5"/>
<text text-anchor="start" x="162.5" y="-67.5" font-family="Helvetica,sans-Serif" font-size="10.00" fill="#000000">cimg_library_suffixed</text>
<text text-anchor="middle" x="230" y="-56.5" font-family="Helvetica,sans-Serif" font-size="10.00" fill="#000000">::CImg&lt; charT &gt;::isosurface3d</text>
</a>
</g>
</g>
<!-- Node1194&#45;&gt;Node1213 -->
<g id="edge19" class="edge">
<title>Node1194&#45;&gt;Node1213</title>
<path fill="none" stroke="#191970" d="M56.4596,-493.4675C63.4071,-410.9765 89.4816,-149.5357 145,-89.5 148.5508,-85.6603 152.6578,-82.3995 157.1105,-79.6316"/>
<polygon fill="#191970" stroke="#191970" points="52.9691,-493.2089 55.6385,-503.4619 59.9456,-493.7821 52.9691,-493.2089"/>
</g>
<!-- Node1214 -->
<g id="node21" class="node">
<title>Node1214</title>
<g id="a_node21"><a xlink:href="structcimg__library__suffixed_1_1_c_img.html#a53284105886c5eb684b26e7dba5ede66" target="_top" xlink:title="Compute eigenvalues and eigenvectors of the instance image, viewed as a symmetric matrix...">
<polygon fill="#ffffff" stroke="#000000" points="145,-.5 145,-30.5 315,-30.5 315,-.5 145,-.5"/>
<text text-anchor="start" x="153" y="-18.5" font-family="Helvetica,sans-Serif" font-size="10.00" fill="#000000">cimg_library_suffixed</text>
<text text-anchor="middle" x="230" y="-7.5" font-family="Helvetica,sans-Serif" font-size="10.00" fill="#000000">::CImg&lt; charT &gt;::symmetric_eigen</text>
</a>
</g>
</g>
<!-- Node1194&#45;&gt;Node1214 -->
<g id="edge20" class="edge">
<title>Node1194&#45;&gt;Node1214</title>
<path fill="none" stroke="#191970" d="M55.8817,-493.2683C61.2409,-404.5153 83.4983,-108.4085 145,-40.5 148.5107,-36.6236 152.5882,-33.3359 157.02,-30.5488"/>
<polygon fill="#191970" stroke="#191970" points="52.3873,-493.0727 55.2977,-503.26 59.3754,-493.4813 52.3873,-493.0727"/>
</g>
</g>
</svg>
