<?xml version="1.0" encoding="UTF-8" standalone="no"?>
<!DOCTYPE svg PUBLIC "-//W3C//DTD SVG 1.1//EN"
 "http://www.w3.org/Graphics/SVG/1.1/DTD/svg11.dtd">
<!-- Generated by graphviz version 2.40.1 (20161225.0304)
 -->
<!-- Title: cimg_library_suffixed::CImgDisplay::is_resized Pages: 1 -->
<svg width="305pt" height="320pt"
 viewBox="0.00 0.00 305.00 319.50" xmlns="http://www.w3.org/2000/svg" xmlns:xlink="http://www.w3.org/1999/xlink">
<g id="graph0" class="graph" transform="scale(1 1) rotate(0) translate(4 315.5)">
<title>cimg_library_suffixed::CImgDisplay::is_resized</title>
<polygon fill="#ffffff" stroke="transparent" points="-4,4 -4,-315.5 301,-315.5 301,4 -4,4"/>
<!-- Node332 -->
<g id="node1" class="node">
<title>Node332</title>
<polygon fill="#bfbfbf" stroke="#000000" points="0,-143 0,-173 130,-173 130,-143 0,-143"/>
<text text-anchor="start" x="8" y="-161" font-family="Helvetica,sans-Serif" font-size="10.00" fill="#000000">cimg_library_suffixed</text>
<text text-anchor="middle" x="65" y="-150" font-family="Helvetica,sans-Serif" font-size="10.00" fill="#000000">::CImgDisplay::is_resized</text>
</g>
<!-- Node333 -->
<g id="node2" class="node">
<title>Node333</title>
<g id="a_node2"><a xlink:href="structcimg__library__suffixed_1_1_c_img.html#adf9d80c60e82b079056c31cb0fe61faf" target="_top" xlink:title="cimg_library_suffixed\l::CImg\&lt; charT \&gt;::_display">
<polygon fill="#ffffff" stroke="#000000" points="166,-281 166,-311 297,-311 297,-281 166,-281"/>
<text text-anchor="start" x="174" y="-299" font-family="Helvetica,sans-Serif" font-size="10.00" fill="#000000">cimg_library_suffixed</text>
<text text-anchor="middle" x="231.5" y="-288" font-family="Helvetica,sans-Serif" font-size="10.00" fill="#000000">::CImg&lt; charT &gt;::_display</text>
</a>
</g>
</g>
<!-- Node332&#45;&gt;Node333 -->
<g id="edge1" class="edge">
<title>Node332&#45;&gt;Node333</title>
<path fill="none" stroke="#191970" d="M80.7913,-181.5372C98.7765,-206.7488 130.33,-246.4387 166,-271 171.5137,-274.7966 177.6816,-278.1158 183.9681,-280.9875"/>
<polygon fill="#191970" stroke="#191970" points="83.6103,-179.4609 75.0111,-173.2718 77.8739,-183.4726 83.6103,-179.4609"/>
</g>
<!-- Node334 -->
<g id="node3" class="node">
<title>Node334</title>
<g id="a_node3"><a xlink:href="structcimg__library__suffixed_1_1_c_img.html#a8b40db5a9818c3f961a90840b271de6c" target="_top" xlink:title="cimg_library_suffixed\l::CImg\&lt; charT \&gt;::_display\l_object3d">
<polygon fill="#ffffff" stroke="#000000" points="166,-220.5 166,-261.5 297,-261.5 297,-220.5 166,-220.5"/>
<text text-anchor="start" x="174" y="-249.5" font-family="Helvetica,sans-Serif" font-size="10.00" fill="#000000">cimg_library_suffixed</text>
<text text-anchor="start" x="174" y="-238.5" font-family="Helvetica,sans-Serif" font-size="10.00" fill="#000000">::CImg&lt; charT &gt;::_display</text>
<text text-anchor="middle" x="231.5" y="-227.5" font-family="Helvetica,sans-Serif" font-size="10.00" fill="#000000">_object3d</text>
</a>
</g>
</g>
<!-- Node332&#45;&gt;Node334 -->
<g id="edge2" class="edge">
<title>Node332&#45;&gt;Node334</title>
<path fill="none" stroke="#191970" d="M101.6132,-177.8189C120.684,-187.9874 144.4609,-200.4255 166,-211 172.3996,-214.1419 179.1967,-217.3719 185.8968,-220.4951"/>
<polygon fill="#191970" stroke="#191970" points="103.1281,-174.6599 92.6597,-173.0275 99.8252,-180.8317 103.1281,-174.6599"/>
</g>
<!-- Node335 -->
<g id="node4" class="node">
<title>Node335</title>
<g id="a_node4"><a xlink:href="structcimg__library__suffixed_1_1_c_img.html#ad9b7141242d0b6e861a8014112ddb5b5" target="_top" xlink:title="cimg_library_suffixed\l::CImg\&lt; charT \&gt;::_select">
<polygon fill="#ffffff" stroke="#000000" points="168,-171 168,-201 295,-201 295,-171 168,-171"/>
<text text-anchor="start" x="176" y="-189" font-family="Helvetica,sans-Serif" font-size="10.00" fill="#000000">cimg_library_suffixed</text>
<text text-anchor="middle" x="231.5" y="-178" font-family="Helvetica,sans-Serif" font-size="10.00" fill="#000000">::CImg&lt; charT &gt;::_select</text>
</a>
</g>
</g>
<!-- Node332&#45;&gt;Node335 -->
<g id="edge3" class="edge">
<title>Node332&#45;&gt;Node335</title>
<path fill="none" stroke="#191970" d="M140.2966,-170.6625C149.5521,-172.219 158.9399,-173.7977 167.9968,-175.3208"/>
<polygon fill="#191970" stroke="#191970" points="140.7693,-167.1929 130.3273,-168.986 139.6084,-174.096 140.7693,-167.1929"/>
</g>
<!-- Node336 -->
<g id="node5" class="node">
<title>Node336</title>
<g id="a_node5"><a xlink:href="structcimg__library__suffixed_1_1_c_img_list.html#af8a6b01f20b2d459e5abe6b99836ea9a" target="_top" xlink:title="cimg_library_suffixed\l::CImgList\&lt; charT \&gt;::\l_select">
<polygon fill="#ffffff" stroke="#000000" points="176,-110.5 176,-151.5 287,-151.5 287,-110.5 176,-110.5"/>
<text text-anchor="start" x="184" y="-139.5" font-family="Helvetica,sans-Serif" font-size="10.00" fill="#000000">cimg_library_suffixed</text>
<text text-anchor="start" x="184" y="-128.5" font-family="Helvetica,sans-Serif" font-size="10.00" fill="#000000">::CImgList&lt; charT &gt;::</text>
<text text-anchor="middle" x="231.5" y="-117.5" font-family="Helvetica,sans-Serif" font-size="10.00" fill="#000000">_select</text>
</a>
</g>
</g>
<!-- Node332&#45;&gt;Node336 -->
<g id="edge4" class="edge">
<title>Node332&#45;&gt;Node336</title>
<path fill="none" stroke="#191970" d="M140.288,-145.7911C152.2337,-143.854 164.4001,-141.8811 175.7911,-140.0339"/>
<polygon fill="#191970" stroke="#191970" points="139.6381,-142.3507 130.3273,-147.4064 140.7587,-149.2605 139.6381,-142.3507"/>
</g>
<!-- Node337 -->
<g id="node6" class="node">
<title>Node337</title>
<g id="a_node6"><a xlink:href="namespacecimg__library__suffixed_1_1cimg.html#a11aed0e6b30d75bf50946ee78d1aed94" target="_top" xlink:title="Display a simple dialog box, and wait for the user&#39;s response. ">
<polygon fill="#ffffff" stroke="#000000" points="177,-61 177,-91 286,-91 286,-61 177,-61"/>
<text text-anchor="start" x="185" y="-79" font-family="Helvetica,sans-Serif" font-size="10.00" fill="#000000">cimg_library_suffixed</text>
<text text-anchor="middle" x="231.5" y="-68" font-family="Helvetica,sans-Serif" font-size="10.00" fill="#000000">::cimg::dialog</text>
</a>
</g>
</g>
<!-- Node332&#45;&gt;Node337 -->
<g id="edge5" class="edge">
<title>Node332&#45;&gt;Node337</title>
<path fill="none" stroke="#191970" d="M98.1122,-137.6559C117.5165,-126.1566 142.7167,-111.9387 166,-101 173.381,-97.5323 181.3851,-94.1673 189.1805,-91.0888"/>
<polygon fill="#191970" stroke="#191970" points="96.1452,-134.754 89.3598,-142.8909 99.7384,-140.7615 96.1452,-134.754"/>
</g>
<!-- Node338 -->
<g id="node7" class="node">
<title>Node338</title>
<g id="a_node7"><a xlink:href="structcimg__library__suffixed_1_1_c_img.html#a689f47424dc7c548ebfe53e431409199" target="_top" xlink:title="Select sub&#45;graph in a graph. ">
<polygon fill="#ffffff" stroke="#000000" points="177,-.5 177,-41.5 286,-41.5 286,-.5 177,-.5"/>
<text text-anchor="start" x="185" y="-29.5" font-family="Helvetica,sans-Serif" font-size="10.00" fill="#000000">cimg_library_suffixed</text>
<text text-anchor="start" x="185" y="-18.5" font-family="Helvetica,sans-Serif" font-size="10.00" fill="#000000">::CImg&lt; charT &gt;::get</text>
<text text-anchor="middle" x="231.5" y="-7.5" font-family="Helvetica,sans-Serif" font-size="10.00" fill="#000000">_select_graph</text>
</a>
</g>
</g>
<!-- Node332&#45;&gt;Node338 -->
<g id="edge6" class="edge">
<title>Node332&#45;&gt;Node338</title>
<path fill="none" stroke="#191970" d="M82.6292,-135.0332C101.3551,-111.8069 132.7888,-76.0016 166,-52 171.2003,-48.2417 176.9282,-44.7506 182.7671,-41.5693"/>
<polygon fill="#191970" stroke="#191970" points="79.8006,-132.9672 76.3255,-142.9759 85.2836,-137.3188 79.8006,-132.9672"/>
</g>
</g>
</svg>
