<?xml version="1.0" encoding="UTF-8" standalone="no"?>
<!DOCTYPE svg PUBLIC "-//W3C//DTD SVG 1.1//EN"
 "http://www.w3.org/Graphics/SVG/1.1/DTD/svg11.dtd">
<!-- Generated by graphviz version 2.40.1 (20161225.0304)
 -->
<!-- Title: cimg_library_suffixed::CImg::__get_select Pages: 1 -->
<svg width="280pt" height="149pt"
 viewBox="0.00 0.00 280.00 149.00" xmlns="http://www.w3.org/2000/svg" xmlns:xlink="http://www.w3.org/1999/xlink">
<g id="graph0" class="graph" transform="scale(1 1) rotate(0) translate(4 145)">
<title>cimg_library_suffixed::CImg::__get_select</title>
<polygon fill="#ffffff" stroke="transparent" points="-4,4 -4,-145 276,-145 276,4 -4,4"/>
<!-- Node49 -->
<g id="node1" class="node">
<title>Node49</title>
<polygon fill="#bfbfbf" stroke="#000000" points="0,-55.5 0,-85.5 109,-85.5 109,-55.5 0,-55.5"/>
<text text-anchor="start" x="8" y="-73.5" font-family="Helvetica,sans-Serif" font-size="10.00" fill="#000000">cimg_library_suffixed</text>
<text text-anchor="middle" x="54.5" y="-62.5" font-family="Helvetica,sans-Serif" font-size="10.00" fill="#000000">::CImg::__get_select</text>
</g>
<!-- Node50 -->
<g id="node2" class="node">
<title>Node50</title>
<g id="a_node2"><a xlink:href="structcimg__library__suffixed_1_1_c_img.html#ad9b7141242d0b6e861a8014112ddb5b5" target="_top" xlink:title="cimg_library_suffixed\l::CImg\&lt; charT \&gt;::_select">
<polygon fill="#ffffff" stroke="#000000" points="145,-110.5 145,-140.5 272,-140.5 272,-110.5 145,-110.5"/>
<text text-anchor="start" x="153" y="-128.5" font-family="Helvetica,sans-Serif" font-size="10.00" fill="#000000">cimg_library_suffixed</text>
<text text-anchor="middle" x="208.5" y="-117.5" font-family="Helvetica,sans-Serif" font-size="10.00" fill="#000000">::CImg&lt; charT &gt;::_select</text>
</a>
</g>
</g>
<!-- Node49&#45;&gt;Node50 -->
<g id="edge1" class="edge">
<title>Node49&#45;&gt;Node50</title>
<path fill="none" stroke="#191970" d="M106.0014,-88.8934C125.6529,-95.9117 147.8021,-103.8222 166.4697,-110.4892"/>
<polygon fill="#191970" stroke="#191970" points="107.1758,-85.5963 96.5812,-85.529 104.8214,-92.1885 107.1758,-85.5963"/>
</g>
<!-- Node51 -->
<g id="node3" class="node">
<title>Node51</title>
<g id="a_node3"><a xlink:href="structcimg__library__suffixed_1_1_c_img_list.html#af8a6b01f20b2d459e5abe6b99836ea9a" target="_top" xlink:title="cimg_library_suffixed\l::CImgList\&lt; charT \&gt;::\l_select">
<polygon fill="#ffffff" stroke="#000000" points="153,-50 153,-91 264,-91 264,-50 153,-50"/>
<text text-anchor="start" x="161" y="-79" font-family="Helvetica,sans-Serif" font-size="10.00" fill="#000000">cimg_library_suffixed</text>
<text text-anchor="start" x="161" y="-68" font-family="Helvetica,sans-Serif" font-size="10.00" fill="#000000">::CImgList&lt; charT &gt;::</text>
<text text-anchor="middle" x="208.5" y="-57" font-family="Helvetica,sans-Serif" font-size="10.00" fill="#000000">_select</text>
</a>
</g>
</g>
<!-- Node49&#45;&gt;Node51 -->
<g id="edge2" class="edge">
<title>Node49&#45;&gt;Node51</title>
<path fill="none" stroke="#191970" d="M119.3512,-70.5C130.5112,-70.5 142.0205,-70.5 152.9093,-70.5"/>
<polygon fill="#191970" stroke="#191970" points="119.2283,-67.0001 109.2283,-70.5 119.2282,-74.0001 119.2283,-67.0001"/>
</g>
<!-- Node52 -->
<g id="node4" class="node">
<title>Node52</title>
<g id="a_node4"><a xlink:href="structcimg__library__suffixed_1_1_c_img_display.html#a7f0ae1e5a6deb128d9a4f9501514675b" target="_top" xlink:title="Display list of images on associated window. ">
<polygon fill="#ffffff" stroke="#000000" points="150.5,-.5 150.5,-30.5 266.5,-30.5 266.5,-.5 150.5,-.5"/>
<text text-anchor="start" x="158.5" y="-18.5" font-family="Helvetica,sans-Serif" font-size="10.00" fill="#000000">cimg_library_suffixed</text>
<text text-anchor="middle" x="208.5" y="-7.5" font-family="Helvetica,sans-Serif" font-size="10.00" fill="#000000">::CImgDisplay::display</text>
</a>
</g>
</g>
<!-- Node49&#45;&gt;Node52 -->
<g id="edge3" class="edge">
<title>Node49&#45;&gt;Node52</title>
<path fill="none" stroke="#191970" d="M106.0014,-52.1066C125.6529,-45.0883 147.8021,-37.1778 166.4697,-30.5108"/>
<polygon fill="#191970" stroke="#191970" points="104.8214,-48.8115 96.5812,-55.471 107.1758,-55.4037 104.8214,-48.8115"/>
</g>
</g>
</svg>
