<?xml version="1.0" encoding="UTF-8" standalone="no"?>
<!DOCTYPE svg PUBLIC "-//W3C//DTD SVG 1.1//EN"
 "http://www.w3.org/Graphics/SVG/1.1/DTD/svg11.dtd">
<!-- Generated by graphviz version 2.40.1 (20161225.0304)
 -->
<!-- Title: cimg_library_suffixed::CImgDisplay::set_fullscreen Pages: 1 -->
<svg width="321pt" height="270pt"
 viewBox="0.00 0.00 321.00 269.50" xmlns="http://www.w3.org/2000/svg" xmlns:xlink="http://www.w3.org/1999/xlink">
<g id="graph0" class="graph" transform="scale(1 1) rotate(0) translate(4 265.5)">
<title>cimg_library_suffixed::CImgDisplay::set_fullscreen</title>
<polygon fill="#ffffff" stroke="transparent" points="-4,4 -4,-265.5 317,-265.5 317,4 -4,4"/>
<!-- Node464 -->
<g id="node1" class="node">
<title>Node464</title>
<polygon fill="#bfbfbf" stroke="#000000" points="0,-121 0,-151 146,-151 146,-121 0,-121"/>
<text text-anchor="start" x="8" y="-139" font-family="Helvetica,sans-Serif" font-size="10.00" fill="#000000">cimg_library_suffixed</text>
<text text-anchor="middle" x="73" y="-128" font-family="Helvetica,sans-Serif" font-size="10.00" fill="#000000">::CImgDisplay::set_fullscreen</text>
</g>
<!-- Node465 -->
<g id="node2" class="node">
<title>Node465</title>
<g id="a_node2"><a xlink:href="structcimg__library__suffixed_1_1_c_img.html#adf9d80c60e82b079056c31cb0fe61faf" target="_top" xlink:title="cimg_library_suffixed\l::CImg\&lt; charT \&gt;::_display">
<polygon fill="#ffffff" stroke="#000000" points="182,-231 182,-261 313,-261 313,-231 182,-231"/>
<text text-anchor="start" x="190" y="-249" font-family="Helvetica,sans-Serif" font-size="10.00" fill="#000000">cimg_library_suffixed</text>
<text text-anchor="middle" x="247.5" y="-238" font-family="Helvetica,sans-Serif" font-size="10.00" fill="#000000">::CImg&lt; charT &gt;::_display</text>
</a>
</g>
</g>
<!-- Node464&#45;&gt;Node465 -->
<g id="edge1" class="edge">
<title>Node464&#45;&gt;Node465</title>
<path fill="none" stroke="#191970" d="M96.7755,-157.9528C117.9168,-176.6066 150.3053,-203.1269 182,-221 188.4673,-224.647 195.5715,-227.9754 202.6418,-230.93"/>
<polygon fill="#191970" stroke="#191970" points="99.0362,-155.2792 89.2485,-151.2232 94.3706,-160.4976 99.0362,-155.2792"/>
</g>
<!-- Node466 -->
<g id="node3" class="node">
<title>Node466</title>
<g id="a_node3"><a xlink:href="structcimg__library__suffixed_1_1_c_img.html#a8b40db5a9818c3f961a90840b271de6c" target="_top" xlink:title="cimg_library_suffixed\l::CImg\&lt; charT \&gt;::_display\l_object3d">
<polygon fill="#ffffff" stroke="#000000" points="182,-170.5 182,-211.5 313,-211.5 313,-170.5 182,-170.5"/>
<text text-anchor="start" x="190" y="-199.5" font-family="Helvetica,sans-Serif" font-size="10.00" fill="#000000">cimg_library_suffixed</text>
<text text-anchor="start" x="190" y="-188.5" font-family="Helvetica,sans-Serif" font-size="10.00" fill="#000000">::CImg&lt; charT &gt;::_display</text>
<text text-anchor="middle" x="247.5" y="-177.5" font-family="Helvetica,sans-Serif" font-size="10.00" fill="#000000">_object3d</text>
</a>
</g>
</g>
<!-- Node464&#45;&gt;Node466 -->
<g id="edge2" class="edge">
<title>Node464&#45;&gt;Node466</title>
<path fill="none" stroke="#191970" d="M130.2544,-154.0458C146.8718,-159.2834 165.1419,-165.0419 182.2124,-170.4223"/>
<polygon fill="#191970" stroke="#191970" points="131.2725,-150.697 120.6829,-151.029 129.1682,-157.3733 131.2725,-150.697"/>
</g>
<!-- Node467 -->
<g id="node4" class="node">
<title>Node467</title>
<g id="a_node4"><a xlink:href="structcimg__library__suffixed_1_1_c_img.html#ad9b7141242d0b6e861a8014112ddb5b5" target="_top" xlink:title="cimg_library_suffixed\l::CImg\&lt; charT \&gt;::_select">
<polygon fill="#ffffff" stroke="#000000" points="184,-121 184,-151 311,-151 311,-121 184,-121"/>
<text text-anchor="start" x="192" y="-139" font-family="Helvetica,sans-Serif" font-size="10.00" fill="#000000">cimg_library_suffixed</text>
<text text-anchor="middle" x="247.5" y="-128" font-family="Helvetica,sans-Serif" font-size="10.00" fill="#000000">::CImg&lt; charT &gt;::_select</text>
</a>
</g>
</g>
<!-- Node464&#45;&gt;Node467 -->
<g id="edge3" class="edge">
<title>Node464&#45;&gt;Node467</title>
<path fill="none" stroke="#191970" d="M156.2681,-136C165.5449,-136 174.8818,-136 183.8583,-136"/>
<polygon fill="#191970" stroke="#191970" points="156.2453,-132.5001 146.2452,-136 156.2452,-139.5001 156.2453,-132.5001"/>
</g>
<!-- Node468 -->
<g id="node5" class="node">
<title>Node468</title>
<g id="a_node5"><a xlink:href="structcimg__library__suffixed_1_1_c_img_list.html#af8a6b01f20b2d459e5abe6b99836ea9a" target="_top" xlink:title="cimg_library_suffixed\l::CImgList\&lt; charT \&gt;::\l_select">
<polygon fill="#ffffff" stroke="#000000" points="192,-60.5 192,-101.5 303,-101.5 303,-60.5 192,-60.5"/>
<text text-anchor="start" x="200" y="-89.5" font-family="Helvetica,sans-Serif" font-size="10.00" fill="#000000">cimg_library_suffixed</text>
<text text-anchor="start" x="200" y="-78.5" font-family="Helvetica,sans-Serif" font-size="10.00" fill="#000000">::CImgList&lt; charT &gt;::</text>
<text text-anchor="middle" x="247.5" y="-67.5" font-family="Helvetica,sans-Serif" font-size="10.00" fill="#000000">_select</text>
</a>
</g>
</g>
<!-- Node464&#45;&gt;Node468 -->
<g id="edge4" class="edge">
<title>Node464&#45;&gt;Node468</title>
<path fill="none" stroke="#191970" d="M130.4651,-117.8878C150.2009,-111.6673 172.2472,-104.7187 191.8373,-98.5441"/>
<polygon fill="#191970" stroke="#191970" points="129.1682,-114.6267 120.6829,-120.971 131.2725,-121.303 129.1682,-114.6267"/>
</g>
<!-- Node469 -->
<g id="node6" class="node">
<title>Node469</title>
<g id="a_node6"><a xlink:href="structcimg__library__suffixed_1_1_c_img.html#a689f47424dc7c548ebfe53e431409199" target="_top" xlink:title="Select sub&#45;graph in a graph. ">
<polygon fill="#ffffff" stroke="#000000" points="193,-.5 193,-41.5 302,-41.5 302,-.5 193,-.5"/>
<text text-anchor="start" x="201" y="-29.5" font-family="Helvetica,sans-Serif" font-size="10.00" fill="#000000">cimg_library_suffixed</text>
<text text-anchor="start" x="201" y="-18.5" font-family="Helvetica,sans-Serif" font-size="10.00" fill="#000000">::CImg&lt; charT &gt;::get</text>
<text text-anchor="middle" x="247.5" y="-7.5" font-family="Helvetica,sans-Serif" font-size="10.00" fill="#000000">_select_graph</text>
</a>
</g>
</g>
<!-- Node464&#45;&gt;Node469 -->
<g id="edge5" class="edge">
<title>Node464&#45;&gt;Node469</title>
<path fill="none" stroke="#191970" d="M97.4483,-114.2327C118.7832,-95.9163 151.0836,-69.7813 182,-51 187.4517,-47.6882 193.3308,-44.5052 199.2507,-41.5313"/>
<polygon fill="#191970" stroke="#191970" points="95.0943,-111.6414 89.8341,-120.8382 99.6814,-116.929 95.0943,-111.6414"/>
</g>
</g>
</svg>
