<?xml version="1.0" encoding="UTF-8" standalone="no"?>
<!DOCTYPE svg PUBLIC "-//W3C//DTD SVG 1.1//EN"
 "http://www.w3.org/Graphics/SVG/1.1/DTD/svg11.dtd">
<!-- Generated by graphviz version 2.40.1 (20161225.0304)
 -->
<!-- Title: cimg_library_suffixed::CImgDisplay::frames_per_second Pages: 1 -->
<!--zoomable 214 -->
<svg id="main" version="1.1" xmlns="http://www.w3.org/2000/svg" xmlns:xlink="http://www.w3.org/1999/xlink" xml:space="preserve" onload="init(evt)">
<style type="text/css"><![CDATA[
.edge:hover path { stroke: red; }
.edge:hover polygon { stroke: red; fill: red; }
]]></style>
<script type="text/javascript"><![CDATA[
var edges = document.getElementsByTagName('g');
if (edges && edges.length) {
  for (var i=0;i<edges.length;i++) {
    if (edges[i].id.substr(0,4)=='edge') {
      edges[i].setAttribute('class','edge');
    }
  }
}
]]></script>
        <defs>
                <circle id="rim" cx="0" cy="0" r="7"/>
                <circle id="rim2" cx="0" cy="0" r="3.5"/>
                <g id="zoomPlus">
                        <use xlink:href="#rim" fill="#404040">
                                <set attributeName="fill" to="#808080" begin="zoomplus.mouseover" end="zoomplus.mouseout"/>
                        </use>
                        <path d="M-4,0h8M0,-4v8" fill="none" stroke="white" stroke-width="1.5" pointer-events="none"/>
                </g>
                <g id="zoomMin">
                        <use xlink:href="#rim" fill="#404040">
                                <set attributeName="fill" to="#808080" begin="zoomminus.mouseover" end="zoomminus.mouseout"/>
                        </use>
                        <path d="M-4,0h8" fill="none" stroke="white" stroke-width="1.5" pointer-events="none"/>
                </g>
                <g id="dirArrow">
                        <path fill="none" stroke="white" stroke-width="1.5" d="M0,-3.0v7 M-2.5,-0.5L0,-3.0L2.5,-0.5"/>
                </g>
               <g id="resetDef">
                       <use xlink:href="#rim2" fill="#404040">
                               <set attributeName="fill" to="#808080" begin="reset.mouseover" end="reset.mouseout"/>
                       </use>
               </g>
        </defs>

<script type="text/javascript">
var viewWidth = 1772;
var viewHeight = 214;
var sectionId = 'dynsection-11';
</script>
<script xlink:href="svgpan.js"/>
<svg id="graph" class="graph">
<g id="viewport">
<title>cimg_library_suffixed::CImgDisplay::frames_per_second</title>
<polygon fill="#ffffff" stroke="transparent" points="-4,4 -4,-209.7982 1768,-209.7982 1768,4 -4,4"/>
<!-- Node268 -->
<g id="node1" class="node">
<title>Node268</title>
<polygon fill="#bfbfbf" stroke="#000000" points="0,-157.7982 0,-198.7982 116,-198.7982 116,-157.7982 0,-157.7982"/>
<text text-anchor="start" x="8" y="-186.7982" font-family="Helvetica,sans-Serif" font-size="10.00" fill="#000000">cimg_library_suffixed</text>
<text text-anchor="start" x="8" y="-175.7982" font-family="Helvetica,sans-Serif" font-size="10.00" fill="#000000">::CImgDisplay::frames</text>
<text text-anchor="middle" x="58" y="-164.7982" font-family="Helvetica,sans-Serif" font-size="10.00" fill="#000000">_per_second</text>
</g>
<!-- Node269 -->
<g id="node2" class="node">
<title>Node269</title>
<g id="a_node2"><a xlink:href="namespacecimg__library__suffixed_1_1cimg.html#a71a3c7b37befc7a4313dfcdd80271bce" target="_top" xlink:title="Return the value of a system timer, with a millisecond precision. ">
<polygon fill="#ffffff" stroke="#000000" points="152,-163.2982 152,-193.2982 261,-193.2982 261,-163.2982 152,-163.2982"/>
<text text-anchor="start" x="160" y="-181.2982" font-family="Helvetica,sans-Serif" font-size="10.00" fill="#000000">cimg_library_suffixed</text>
<text text-anchor="middle" x="206.5" y="-170.2982" font-family="Helvetica,sans-Serif" font-size="10.00" fill="#000000">::cimg::time</text>
</a>
</g>
</g>
<!-- Node268&#45;&gt;Node269 -->
<g id="edge1" class="edge">
<title>Node268&#45;&gt;Node269</title>
<path fill="none" stroke="#191970" d="M116.2649,-178.2982C124.5835,-178.2982 133.1831,-178.2982 141.6188,-178.2982"/>
<polygon fill="#191970" stroke="#191970" points="141.7973,-181.7983 151.7972,-178.2982 141.7972,-174.7983 141.7973,-181.7983"/>
</g>
<!-- Node270 -->
<g id="node3" class="node">
<title>Node270</title>
<g id="a_node3"><a xlink:href="namespacecimg__library__suffixed_1_1cimg.html#ab47e3a7718b582df77725470f3824eb4" target="_top" xlink:title="cimg_library_suffixed\l::cimg::tictoc">
<polygon fill="#ffffff" stroke="#000000" points="297,-163.2982 297,-193.2982 406,-193.2982 406,-163.2982 297,-163.2982"/>
<text text-anchor="start" x="305" y="-181.2982" font-family="Helvetica,sans-Serif" font-size="10.00" fill="#000000">cimg_library_suffixed</text>
<text text-anchor="middle" x="351.5" y="-170.2982" font-family="Helvetica,sans-Serif" font-size="10.00" fill="#000000">::cimg::tictoc</text>
</a>
</g>
</g>
<!-- Node269&#45;&gt;Node270 -->
<g id="edge2" class="edge">
<title>Node269&#45;&gt;Node270</title>
<path fill="none" stroke="#191970" d="M261.3183,-171.7299C269.5286,-171.5581 278.0611,-171.5081 286.4586,-171.5801"/>
<polygon fill="#191970" stroke="#191970" points="286.5541,-175.0817 296.6042,-171.7283 286.6564,-168.0825 286.5541,-175.0817"/>
</g>
<!-- Node270&#45;&gt;Node269 -->
<g id="edge9" class="edge">
<title>Node270&#45;&gt;Node269</title>
<path fill="none" stroke="#191970" d="M296.6042,-184.8682C288.3919,-185.0392 279.8588,-185.0884 271.4621,-185.0157"/>
<polygon fill="#191970" stroke="#191970" points="271.3687,-181.514 261.3183,-184.8665 271.2657,-188.5133 271.3687,-181.514"/>
</g>
<!-- Node271 -->
<g id="node4" class="node">
<title>Node271</title>
<g id="a_node4"><a xlink:href="namespacecimg__library__suffixed_1_1cimg.html#a9e739e4b4ac058abfba069466617b914" target="_top" xlink:title="cimg_library_suffixed\l::cimg::mutex">
<polygon fill="#ffffff" stroke="#000000" points="1341,-128.2982 1341,-158.2982 1450,-158.2982 1450,-128.2982 1341,-128.2982"/>
<text text-anchor="start" x="1349" y="-146.2982" font-family="Helvetica,sans-Serif" font-size="10.00" fill="#000000">cimg_library_suffixed</text>
<text text-anchor="middle" x="1395.5" y="-135.2982" font-family="Helvetica,sans-Serif" font-size="10.00" fill="#000000">::cimg::mutex</text>
</a>
</g>
</g>
<!-- Node270&#45;&gt;Node271 -->
<g id="edge3" class="edge">
<title>Node270&#45;&gt;Node271</title>
<path fill="none" stroke="#191970" d="M406.1927,-184.9288C464.4251,-191.4065 559.3244,-200.2982 641.5,-200.2982 641.5,-200.2982 641.5,-200.2982 1105.5,-200.2982 1187.8364,-200.2982 1280.8952,-177.9025 1338.8837,-161.1874"/>
<polygon fill="#191970" stroke="#191970" points="1339.9718,-164.5158 1348.5869,-158.3489 1338.0064,-157.7974 1339.9718,-164.5158"/>
</g>
<!-- Node276 -->
<g id="node9" class="node">
<title>Node276</title>
<g id="a_node9"><a xlink:href="namespacecimg__library__suffixed_1_1cimg.html#ada686776cc71803df391eea79cd1b3e5" target="_top" xlink:title="Get/set default output stream for the &#160;library messages. ">
<polygon fill="#ffffff" stroke="#000000" points="442,-141.2982 442,-171.2982 551,-171.2982 551,-141.2982 442,-141.2982"/>
<text text-anchor="start" x="450" y="-159.2982" font-family="Helvetica,sans-Serif" font-size="10.00" fill="#000000">cimg_library_suffixed</text>
<text text-anchor="middle" x="496.5" y="-148.2982" font-family="Helvetica,sans-Serif" font-size="10.00" fill="#000000">::cimg::output</text>
</a>
</g>
</g>
<!-- Node270&#45;&gt;Node276 -->
<g id="edge10" class="edge">
<title>Node270&#45;&gt;Node276</title>
<path fill="none" stroke="#191970" d="M406.3183,-169.981C414.5286,-168.7353 423.0611,-167.4407 431.4586,-166.1666"/>
<polygon fill="#191970" stroke="#191970" points="432.2424,-169.5878 441.6042,-164.6272 431.1923,-162.667 432.2424,-169.5878"/>
</g>
<!-- Node272 -->
<g id="node5" class="node">
<title>Node272</title>
<g id="a_node5"><a xlink:href="namespacecimg__library__suffixed_1_1cimg.html#aa0e1bc96ae6e235dc5b67b8b0a466166" target="_top" xlink:title="cimg_library_suffixed\l::cimg::Mutex_attr">
<polygon fill="#ffffff" stroke="#000000" points="1655,-175.2982 1655,-205.2982 1764,-205.2982 1764,-175.2982 1655,-175.2982"/>
<text text-anchor="start" x="1663" y="-193.2982" font-family="Helvetica,sans-Serif" font-size="10.00" fill="#000000">cimg_library_suffixed</text>
<text text-anchor="middle" x="1709.5" y="-182.2982" font-family="Helvetica,sans-Serif" font-size="10.00" fill="#000000">::cimg::Mutex_attr</text>
</a>
</g>
</g>
<!-- Node271&#45;&gt;Node272 -->
<g id="edge4" class="edge">
<title>Node271&#45;&gt;Node272</title>
<path fill="none" stroke="#191970" d="M1415.7886,-158.4582C1433.338,-170.5643 1459.9275,-186.5748 1486,-193.2982 1538.2267,-206.7661 1599.6233,-204.7256 1644.8381,-200.0466"/>
<polygon fill="#191970" stroke="#191970" points="1645.253,-203.5222 1654.8082,-198.9453 1644.4844,-196.5645 1645.253,-203.5222"/>
</g>
<!-- Node273 -->
<g id="node6" class="node">
<title>Node273</title>
<g id="a_node6"><a xlink:href="structcimg__library__suffixed_1_1cimg_1_1_mutex__info.html#afac3fa5f107ad4795fb867050f616555" target="_top" xlink:title="cimg_library_suffixed\l::cimg::Mutex_info::unlock">
<polygon fill="#ffffff" stroke="#000000" points="1486.5,-104.2982 1486.5,-134.2982 1618.5,-134.2982 1618.5,-104.2982 1486.5,-104.2982"/>
<text text-anchor="start" x="1494.5" y="-122.2982" font-family="Helvetica,sans-Serif" font-size="10.00" fill="#000000">cimg_library_suffixed</text>
<text text-anchor="middle" x="1552.5" y="-111.2982" font-family="Helvetica,sans-Serif" font-size="10.00" fill="#000000">::cimg::Mutex_info::unlock</text>
</a>
</g>
</g>
<!-- Node271&#45;&gt;Node273 -->
<g id="edge5" class="edge">
<title>Node271&#45;&gt;Node273</title>
<path fill="none" stroke="#191970" d="M1450.411,-134.9042C1458.7369,-133.6314 1467.453,-132.299 1476.1344,-130.972"/>
<polygon fill="#191970" stroke="#191970" points="1476.9278,-134.3914 1486.2841,-129.4204 1475.87,-127.4718 1476.9278,-134.3914"/>
</g>
<!-- Node274 -->
<g id="node7" class="node">
<title>Node274</title>
<g id="a_node7"><a xlink:href="structcimg__library__suffixed_1_1cimg_1_1_mutex__info.html#a6cc8e26847a1aa649febed03d70182e7" target="_top" xlink:title="cimg_library_suffixed\l::cimg::Mutex_info::lock">
<polygon fill="#ffffff" stroke="#000000" points="1491.5,-55.2982 1491.5,-85.2982 1613.5,-85.2982 1613.5,-55.2982 1491.5,-55.2982"/>
<text text-anchor="start" x="1499.5" y="-73.2982" font-family="Helvetica,sans-Serif" font-size="10.00" fill="#000000">cimg_library_suffixed</text>
<text text-anchor="middle" x="1552.5" y="-62.2982" font-family="Helvetica,sans-Serif" font-size="10.00" fill="#000000">::cimg::Mutex_info::lock</text>
</a>
</g>
</g>
<!-- Node271&#45;&gt;Node274 -->
<g id="edge6" class="edge">
<title>Node271&#45;&gt;Node274</title>
<path fill="none" stroke="#191970" d="M1421.9788,-128.0994C1439.7871,-118.1665 1463.9505,-105.241 1486,-95.2982 1490.6591,-93.1973 1495.5523,-91.1215 1500.4816,-89.1177"/>
<polygon fill="#191970" stroke="#191970" points="1501.9456,-92.3025 1509.9536,-85.3655 1499.3675,-85.7945 1501.9456,-92.3025"/>
</g>
<!-- Node275 -->
<g id="node8" class="node">
<title>Node275</title>
<g id="a_node8"><a xlink:href="structcimg__library__suffixed_1_1cimg_1_1_mutex__info.html#a9bf4ed1e1dfe6f28fa6250cd04f3c900" target="_top" xlink:title="cimg_library_suffixed\l::cimg::Mutex_info::trylock">
<polygon fill="#ffffff" stroke="#000000" points="1486,-153.2982 1486,-183.2982 1619,-183.2982 1619,-153.2982 1486,-153.2982"/>
<text text-anchor="start" x="1494" y="-171.2982" font-family="Helvetica,sans-Serif" font-size="10.00" fill="#000000">cimg_library_suffixed</text>
<text text-anchor="middle" x="1552.5" y="-160.2982" font-family="Helvetica,sans-Serif" font-size="10.00" fill="#000000">::cimg::Mutex_info::trylock</text>
</a>
</g>
</g>
<!-- Node271&#45;&gt;Node275 -->
<g id="edge7" class="edge">
<title>Node271&#45;&gt;Node275</title>
<path fill="none" stroke="#191970" d="M1450.411,-152.042C1458.6098,-153.3475 1467.187,-154.7134 1475.7367,-156.0748"/>
<polygon fill="#191970" stroke="#191970" points="1475.3105,-159.5509 1485.7365,-157.6671 1476.4113,-152.638 1475.3105,-159.5509"/>
</g>
<!-- Node275&#45;&gt;Node272 -->
<g id="edge8" class="edge">
<title>Node275&#45;&gt;Node272</title>
<path fill="none" stroke="#191970" d="M1619.0821,-177.6282C1627.5193,-178.8105 1636.1445,-180.0191 1644.5556,-181.1977"/>
<polygon fill="#191970" stroke="#191970" points="1644.293,-184.6951 1654.682,-182.6167 1645.2645,-177.7628 1644.293,-184.6951"/>
</g>
<!-- Node276&#45;&gt;Node271 -->
<g id="edge11" class="edge">
<title>Node276&#45;&gt;Node271</title>
<path fill="none" stroke="#191970" d="M551.0486,-158.066C610.4344,-159.8358 708.2049,-162.2982 792.5,-162.2982 792.5,-162.2982 792.5,-162.2982 1105.5,-162.2982 1182.9647,-162.2982 1271.8203,-155.4643 1330.5413,-149.9935"/>
<polygon fill="#191970" stroke="#191970" points="1331.1576,-153.4509 1340.7835,-149.0246 1330.4982,-146.4821 1331.1576,-153.4509"/>
</g>
<!-- Node277 -->
<g id="node10" class="node">
<title>Node277</title>
<g id="a_node10"><a xlink:href="namespacecimg__library__suffixed_1_1cimg.html#aab8db7528c32a8fd3a3dc471e662782e" target="_top" xlink:title="cimg_library_suffixed\l::cimg::_stderr">
<polygon fill="#ffffff" stroke="#000000" points="587,-76.2982 587,-106.2982 696,-106.2982 696,-76.2982 587,-76.2982"/>
<text text-anchor="start" x="595" y="-94.2982" font-family="Helvetica,sans-Serif" font-size="10.00" fill="#000000">cimg_library_suffixed</text>
<text text-anchor="middle" x="641.5" y="-83.2982" font-family="Helvetica,sans-Serif" font-size="10.00" fill="#000000">::cimg::_stderr</text>
</a>
</g>
</g>
<!-- Node276&#45;&gt;Node277 -->
<g id="edge12" class="edge">
<title>Node276&#45;&gt;Node277</title>
<path fill="none" stroke="#191970" d="M530.1304,-141.2225C550.463,-132.1079 576.5864,-120.3974 598.4218,-110.6091"/>
<polygon fill="#191970" stroke="#191970" points="600.1078,-113.689 607.8012,-106.4046 597.2443,-107.3014 600.1078,-113.689"/>
</g>
<!-- Node278 -->
<g id="node11" class="node">
<title>Node278</title>
<g id="a_node11"><a xlink:href="namespacecimg__library__suffixed_1_1cimg.html#a79aef0cbcf66ceb71c2b74cb66b4deb2" target="_top" xlink:title="Avoid warning messages due to unused parameters. Do nothing actually. ">
<polygon fill="#ffffff" stroke="#000000" points="1196,-41.2982 1196,-71.2982 1305,-71.2982 1305,-41.2982 1196,-41.2982"/>
<text text-anchor="start" x="1204" y="-59.2982" font-family="Helvetica,sans-Serif" font-size="10.00" fill="#000000">cimg_library_suffixed</text>
<text text-anchor="middle" x="1250.5" y="-48.2982" font-family="Helvetica,sans-Serif" font-size="10.00" fill="#000000">::cimg::unused</text>
</a>
</g>
</g>
<!-- Node277&#45;&gt;Node278 -->
<g id="edge13" class="edge">
<title>Node277&#45;&gt;Node278</title>
<path fill="none" stroke="#191970" d="M664.6896,-76.2661C682.4015,-65.5424 707.8045,-51.7504 732,-44.2982 868.4545,-2.2702 908.4707,-14.7575 1051,-6.2982 1099.3593,-3.428 1113.0902,5.7986 1160,-6.2982 1182.2024,-12.0236 1204.7796,-24.4837 1221.8301,-35.5323"/>
<polygon fill="#191970" stroke="#191970" points="1219.9534,-38.4878 1230.2114,-41.1382 1223.8452,-32.6693 1219.9534,-38.4878"/>
</g>
<!-- Node279 -->
<g id="node12" class="node">
<title>Node279</title>
<g id="a_node12"><a xlink:href="namespacecimg__library__suffixed_1_1cimg.html#aeafab144366eddd11360f32f468fa4af" target="_top" xlink:title="Set current &#160;exception mode. ">
<polygon fill="#ffffff" stroke="#000000" points="732,-54.2982 732,-84.2982 853,-84.2982 853,-54.2982 732,-54.2982"/>
<text text-anchor="start" x="740" y="-72.2982" font-family="Helvetica,sans-Serif" font-size="10.00" fill="#000000">cimg_library_suffixed</text>
<text text-anchor="middle" x="792.5" y="-61.2982" font-family="Helvetica,sans-Serif" font-size="10.00" fill="#000000">::cimg::exception_mode</text>
</a>
</g>
</g>
<!-- Node277&#45;&gt;Node279 -->
<g id="edge15" class="edge">
<title>Node277&#45;&gt;Node279</title>
<path fill="none" stroke="#191970" d="M696.0145,-83.3557C704.3935,-82.1349 713.1471,-80.8596 721.8158,-79.5966"/>
<polygon fill="#191970" stroke="#191970" points="722.5345,-83.0289 731.9254,-78.1237 721.5253,-76.102 722.5345,-83.0289"/>
</g>
<!-- Node278&#45;&gt;Node271 -->
<g id="edge14" class="edge">
<title>Node278&#45;&gt;Node271</title>
<path fill="none" stroke="#191970" d="M1275.7571,-71.4525C1299.4188,-85.6495 1334.9718,-106.9813 1361.1945,-122.7149"/>
<polygon fill="#191970" stroke="#191970" points="1359.6702,-125.882 1370.0458,-128.0257 1363.2717,-119.8795 1359.6702,-125.882"/>
</g>
<!-- Node280 -->
<g id="node13" class="node">
<title>Node280</title>
<g id="a_node13"><a xlink:href="namespacecimg__library__suffixed_1_1cimg.html#a6c578f866de2be9be7e385d693c758c8" target="_top" xlink:title="cimg_library_suffixed\l::cimg::_exception_mode">
<polygon fill="#ffffff" stroke="#000000" points="889,-98.2982 889,-128.2982 1015,-128.2982 1015,-98.2982 889,-98.2982"/>
<text text-anchor="start" x="897" y="-116.2982" font-family="Helvetica,sans-Serif" font-size="10.00" fill="#000000">cimg_library_suffixed</text>
<text text-anchor="middle" x="952" y="-105.2982" font-family="Helvetica,sans-Serif" font-size="10.00" fill="#000000">::cimg::_exception_mode</text>
</a>
</g>
</g>
<!-- Node279&#45;&gt;Node280 -->
<g id="edge16" class="edge">
<title>Node279&#45;&gt;Node280</title>
<path fill="none" stroke="#191970" d="M846.9447,-84.3175C860.0889,-87.9434 874.2562,-91.8517 887.8009,-95.5881"/>
<polygon fill="#191970" stroke="#191970" points="886.9593,-98.9866 897.53,-98.272 888.8209,-92.2387 886.9593,-98.9866"/>
</g>
<!-- Node280&#45;&gt;Node271 -->
<g id="edge17" class="edge">
<title>Node280&#45;&gt;Node271</title>
<path fill="none" stroke="#191970" d="M1015.0717,-117.5646C1098.8352,-123.2307 1246.0329,-133.1877 1330.6723,-138.913"/>
<polygon fill="#191970" stroke="#191970" points="1330.4621,-142.4067 1340.6756,-139.5897 1330.9346,-135.4227 1330.4621,-142.4067"/>
</g>
<!-- Node280&#45;&gt;Node277 -->
<g id="edge24" class="edge">
<title>Node280&#45;&gt;Node277</title>
<path fill="none" stroke="#191970" d="M888.9297,-108.8295C835.7813,-105.0637 760.037,-99.697 706.383,-95.8954"/>
<polygon fill="#191970" stroke="#191970" points="706.5188,-92.3963 696.2964,-95.1807 706.024,-99.3788 706.5188,-92.3963"/>
</g>
<!-- Node281 -->
<g id="node14" class="node">
<title>Node281</title>
<g id="a_node14"><a xlink:href="namespacecimg__library__suffixed_1_1cimg.html#a01a3b743897290604513ea6d847c9886" target="_top" xlink:title="cimg_library_suffixed\l::cimg::_stdin">
<polygon fill="#ffffff" stroke="#000000" points="1051,-65.2982 1051,-95.2982 1160,-95.2982 1160,-65.2982 1051,-65.2982"/>
<text text-anchor="start" x="1059" y="-83.2982" font-family="Helvetica,sans-Serif" font-size="10.00" fill="#000000">cimg_library_suffixed</text>
<text text-anchor="middle" x="1105.5" y="-72.2982" font-family="Helvetica,sans-Serif" font-size="10.00" fill="#000000">::cimg::_stdin</text>
</a>
</g>
</g>
<!-- Node280&#45;&gt;Node281 -->
<g id="edge18" class="edge">
<title>Node280&#45;&gt;Node281</title>
<path fill="none" stroke="#191970" d="M1015.3205,-99.6853C1023.7493,-97.8733 1032.4012,-96.0133 1040.8522,-94.1965"/>
<polygon fill="#191970" stroke="#191970" points="1041.6143,-97.6127 1050.6553,-92.0889 1040.143,-90.769 1041.6143,-97.6127"/>
</g>
<!-- Node282 -->
<g id="node15" class="node">
<title>Node282</title>
<g id="a_node15"><a xlink:href="namespacecimg__library__suffixed_1_1cimg.html#a493220746e5df3466568bd7862825008" target="_top" xlink:title="cimg_library_suffixed\l::cimg::_stdout">
<polygon fill="#ffffff" stroke="#000000" points="1051,-16.2982 1051,-46.2982 1160,-46.2982 1160,-16.2982 1051,-16.2982"/>
<text text-anchor="start" x="1059" y="-34.2982" font-family="Helvetica,sans-Serif" font-size="10.00" fill="#000000">cimg_library_suffixed</text>
<text text-anchor="middle" x="1105.5" y="-23.2982" font-family="Helvetica,sans-Serif" font-size="10.00" fill="#000000">::cimg::_stdout</text>
</a>
</g>
</g>
<!-- Node280&#45;&gt;Node282 -->
<g id="edge21" class="edge">
<title>Node280&#45;&gt;Node282</title>
<path fill="none" stroke="#191970" d="M975.9755,-98.2022C995.7605,-86.0019 1024.7471,-68.7127 1051,-55.2982 1054.0856,-53.7216 1057.2974,-52.1464 1060.5494,-50.5993"/>
<polygon fill="#191970" stroke="#191970" points="1062.1481,-53.7161 1069.7497,-46.3359 1059.2049,-47.3649 1062.1481,-53.7161"/>
</g>
<!-- Node281&#45;&gt;Node278 -->
<g id="edge19" class="edge">
<title>Node281&#45;&gt;Node278</title>
<path fill="none" stroke="#191970" d="M1160.3183,-71.2249C1168.6188,-69.851 1177.2486,-68.4226 1185.7354,-67.0179"/>
<polygon fill="#191970" stroke="#191970" points="1186.31,-70.4705 1195.6042,-65.3844 1185.1669,-63.5644 1186.31,-70.4705"/>
</g>
<!-- Node281&#45;&gt;Node279 -->
<g id="edge20" class="edge">
<title>Node281&#45;&gt;Node279</title>
<path fill="none" stroke="#191970" d="M1050.9666,-78.3817C998.8805,-76.5512 920.1092,-73.7829 863.2205,-71.7836"/>
<polygon fill="#191970" stroke="#191970" points="863.3375,-68.2857 853.2207,-71.4322 863.0915,-75.2813 863.3375,-68.2857"/>
</g>
<!-- Node282&#45;&gt;Node278 -->
<g id="edge22" class="edge">
<title>Node282&#45;&gt;Node278</title>
<path fill="none" stroke="#191970" d="M1160.3183,-40.7497C1168.6188,-42.1808 1177.2486,-43.6687 1185.7354,-45.1319"/>
<polygon fill="#191970" stroke="#191970" points="1185.1549,-48.5834 1195.6042,-46.8334 1186.3443,-41.6852 1185.1549,-48.5834"/>
</g>
<!-- Node282&#45;&gt;Node279 -->
<g id="edge23" class="edge">
<title>Node282&#45;&gt;Node279</title>
<path fill="none" stroke="#191970" d="M1050.9666,-37.9189C998.8805,-44.2424 920.1092,-53.8057 863.2205,-60.7123"/>
<polygon fill="#191970" stroke="#191970" points="862.7259,-57.2466 853.2207,-61.9264 863.5696,-64.1956 862.7259,-57.2466"/>
</g>
</g>
</svg>
        <g id="navigator" transform="translate(0 0)" fill="#404254">
                <rect fill="#f2f5e9" fill-opacity="0.5" stroke="#606060" stroke-width=".5" x="0" y="0" width="60" height="60"/>
                <use id="zoomplus" xlink:href="#zoomPlus" x="17" y="9" onmousedown="handleZoom(evt,'in')"/>
                <use id="zoomminus" xlink:href="#zoomMin" x="42" y="9" onmousedown="handleZoom(evt,'out')"/>
                <use id="reset" xlink:href="#resetDef" x="30" y="36" onmousedown="handleReset()"/>
                <g id="arrowUp" xlink:href="#dirArrow" transform="translate(30 24)" onmousedown="handlePan(0,-1)">
                  <use xlink:href="#rim" fill="#404040">
                        <set attributeName="fill" to="#808080" begin="arrowUp.mouseover" end="arrowUp.mouseout"/>
                  </use>
                  <path fill="none" stroke="white" stroke-width="1.5" d="M0,-3.0v7 M-2.5,-0.5L0,-3.0L2.5,-0.5"/>
                </g>
                <g id="arrowRight" xlink:href="#dirArrow" transform="rotate(90) translate(36 -43)" onmousedown="handlePan(1,0)">
                  <use xlink:href="#rim" fill="#404040">
                        <set attributeName="fill" to="#808080" begin="arrowRight.mouseover" end="arrowRight.mouseout"/>
                  </use>
                  <path fill="none" stroke="white" stroke-width="1.5" d="M0,-3.0v7 M-2.5,-0.5L0,-3.0L2.5,-0.5"/>
                </g>
                <g id="arrowDown" xlink:href="#dirArrow" transform="rotate(180) translate(-30 -48)" onmousedown="handlePan(0,1)">
                  <use xlink:href="#rim" fill="#404040">
                        <set attributeName="fill" to="#808080" begin="arrowDown.mouseover" end="arrowDown.mouseout"/>
                  </use>
                  <path fill="none" stroke="white" stroke-width="1.5" d="M0,-3.0v7 M-2.5,-0.5L0,-3.0L2.5,-0.5"/>
                </g>
                <g id="arrowLeft" xlink:href="#dirArrow" transform="rotate(270) translate(-36 17)" onmousedown="handlePan(-1,0)">
                  <use xlink:href="#rim" fill="#404040">
                        <set attributeName="fill" to="#808080" begin="arrowLeft.mouseover" end="arrowLeft.mouseout"/>
                  </use>
                  <path fill="none" stroke="white" stroke-width="1.5" d="M0,-3.0v7 M-2.5,-0.5L0,-3.0L2.5,-0.5"/>
                </g>
        </g>
        <svg viewBox="0 0 15 15" width="100%" height="30px" preserveAspectRatio="xMaxYMin meet">
         <g id="arrow_out" transform="scale(0.3 0.3)">
          <a xlink:href="structcimg__library__suffixed_1_1_c_img_display_ac98fc29fc303ea835a630ab2253cb7b4_cgraph_org.svg" target="_base">
           <rect id="button" ry="5" rx="5" y="6" x="6" height="38" width="38"
                fill="#f2f5e9" fill-opacity="0.5" stroke="#606060" stroke-width="1.0"/>
           <path id="arrow"
             d="M 11.500037,31.436501 C 11.940474,20.09759 22.043105,11.32322 32.158766,21.979434 L 37.068811,17.246167 C 37.068811,17.246167 37.088388,32 37.088388,32 L 22.160133,31.978069 C 22.160133,31.978069 26.997745,27.140456 26.997745,27.140456 C 18.528582,18.264221 13.291696,25.230495 11.500037,31.436501 z"
             style="fill:#404040;"/>
          </a>
         </g>
        </svg>
</svg>
