<?xml version="1.0" encoding="UTF-8" standalone="no"?>
<!DOCTYPE svg PUBLIC "-//W3C//DTD SVG 1.1//EN"
 "http://www.w3.org/Graphics/SVG/1.1/DTD/svg11.dtd">
<!-- Generated by graphviz version 2.40.1 (20161225.0304)
 -->
<!-- Title: CoordinatesMap&lt; T, U &gt; Pages: 1 -->
<svg width="164pt" height="171pt"
 viewBox="0.00 0.00 163.50 171.00" xmlns="http://www.w3.org/2000/svg" xmlns:xlink="http://www.w3.org/1999/xlink">
<g id="graph0" class="graph" transform="scale(1 1) rotate(0) translate(4 167)">
<title>CoordinatesMap&lt; T, U &gt;</title>
<polygon fill="#ffffff" stroke="transparent" points="-4,4 -4,-167 159.5,-167 159.5,4 -4,4"/>
<!-- Node2 -->
<g id="node1" class="node">
<title>Node2</title>
<polygon fill="#bfbfbf" stroke="#000000" points="14.5,-.5 14.5,-57.5 139.5,-57.5 139.5,-.5 14.5,-.5"/>
<text text-anchor="middle" x="77" y="-45.5" font-family="Helvetica,sans-Serif" font-size="10.00" fill="#000000">CoordinatesMap&lt; T, U &gt;</text>
<polyline fill="none" stroke="#000000" points="14.5,-38.5 139.5,-38.5 "/>
<text text-anchor="middle" x="77" y="-26.5" font-family="Helvetica,sans-Serif" font-size="10.00" fill="#000000"> </text>
<polyline fill="none" stroke="#000000" points="14.5,-19.5 139.5,-19.5 "/>
<text text-anchor="middle" x="77" y="-7.5" font-family="Helvetica,sans-Serif" font-size="10.00" fill="#000000"> </text>
</g>
<!-- Node3 -->
<g id="node2" class="node">
<title>Node3</title>
<polygon fill="#ffffff" stroke="#bfbfbf" points="0,-105.5 0,-162.5 68,-162.5 68,-105.5 0,-105.5"/>
<text text-anchor="middle" x="34" y="-150.5" font-family="Helvetica,sans-Serif" font-size="10.00" fill="#000000">vector&lt; T &gt;</text>
<polyline fill="none" stroke="#bfbfbf" points="0,-143.5 68,-143.5 "/>
<text text-anchor="middle" x="34" y="-131.5" font-family="Helvetica,sans-Serif" font-size="10.00" fill="#000000"> </text>
<polyline fill="none" stroke="#bfbfbf" points="0,-124.5 68,-124.5 "/>
<text text-anchor="middle" x="34" y="-112.5" font-family="Helvetica,sans-Serif" font-size="10.00" fill="#000000"> </text>
</g>
<!-- Node3&#45;&gt;Node2 -->
<g id="edge1" class="edge">
<title>Node3&#45;&gt;Node2</title>
<path fill="none" stroke="#404040" d="M45.7499,-105.3083C50.3479,-94.0808 55.7006,-81.0103 60.6632,-68.8922"/>
<polygon fill="none" stroke="#404040" points="60.7165,-68.7619 59.2888,-61.6935 65.2643,-57.657 66.692,-64.7254 60.7165,-68.7619"/>
<text text-anchor="middle" x="64.5" y="-79" font-family="Helvetica,sans-Serif" font-size="10.00" fill="#000000"> +x</text>
</g>
<!-- Node4 -->
<g id="node3" class="node">
<title>Node4</title>
<polygon fill="#ffffff" stroke="#bfbfbf" points="86.5,-105.5 86.5,-162.5 155.5,-162.5 155.5,-105.5 86.5,-105.5"/>
<text text-anchor="middle" x="121" y="-150.5" font-family="Helvetica,sans-Serif" font-size="10.00" fill="#000000">vector&lt; U &gt;</text>
<polyline fill="none" stroke="#bfbfbf" points="86.5,-143.5 155.5,-143.5 "/>
<text text-anchor="middle" x="121" y="-131.5" font-family="Helvetica,sans-Serif" font-size="10.00" fill="#000000"> </text>
<polyline fill="none" stroke="#bfbfbf" points="86.5,-124.5 155.5,-124.5 "/>
<text text-anchor="middle" x="121" y="-112.5" font-family="Helvetica,sans-Serif" font-size="10.00" fill="#000000"> </text>
</g>
<!-- Node4&#45;&gt;Node2 -->
<g id="edge2" class="edge">
<title>Node4&#45;&gt;Node2</title>
<path fill="none" stroke="#404040" d="M108.9768,-105.3083C104.272,-94.0808 98.7948,-81.0103 93.7167,-68.8922"/>
<polygon fill="none" stroke="#404040" points="93.6465,-68.7246 87.6384,-64.7368 89.0087,-57.657 95.0168,-61.6448 93.6465,-68.7246"/>
<text text-anchor="middle" x="107.5" y="-79" font-family="Helvetica,sans-Serif" font-size="10.00" fill="#000000"> +y</text>
</g>
</g>
</svg>
