<?xml version="1.0" encoding="UTF-8" standalone="no"?>
<!DOCTYPE svg PUBLIC "-//W3C//DTD SVG 1.1//EN"
 "http://www.w3.org/Graphics/SVG/1.1/DTD/svg11.dtd">
<!-- Generated by graphviz version 2.40.1 (20161225.0304)
 -->
<!-- Title: ClickEvent Pages: 1 -->
<svg width="91pt" height="171pt"
 viewBox="0.00 0.00 91.00 171.00" xmlns="http://www.w3.org/2000/svg" xmlns:xlink="http://www.w3.org/1999/xlink">
<g id="graph0" class="graph" transform="scale(1 1) rotate(0) translate(4 167)">
<title>ClickEvent</title>
<polygon fill="#ffffff" stroke="transparent" points="-4,4 -4,-167 87,-167 87,4 -4,4"/>
<!-- Node1 -->
<g id="node1" class="node">
<title>Node1</title>
<polygon fill="#bfbfbf" stroke="#000000" points="9,-.5 9,-57.5 74,-57.5 74,-.5 9,-.5"/>
<text text-anchor="middle" x="41.5" y="-45.5" font-family="Helvetica,sans-Serif" font-size="10.00" fill="#000000">ClickEvent</text>
<polyline fill="none" stroke="#000000" points="9,-38.5 74,-38.5 "/>
<text text-anchor="middle" x="41.5" y="-26.5" font-family="Helvetica,sans-Serif" font-size="10.00" fill="#000000"> </text>
<polyline fill="none" stroke="#000000" points="9,-19.5 74,-19.5 "/>
<text text-anchor="middle" x="41.5" y="-7.5" font-family="Helvetica,sans-Serif" font-size="10.00" fill="#000000"> </text>
</g>
<!-- Node2 -->
<g id="node2" class="node">
<title>Node2</title>
<polygon fill="#ffffff" stroke="#bfbfbf" points="0,-105.5 0,-162.5 83,-162.5 83,-105.5 0,-105.5"/>
<text text-anchor="middle" x="41.5" y="-150.5" font-family="Helvetica,sans-Serif" font-size="10.00" fill="#000000">mouseButton_t</text>
<polyline fill="none" stroke="#bfbfbf" points="0,-143.5 83,-143.5 "/>
<text text-anchor="middle" x="41.5" y="-131.5" font-family="Helvetica,sans-Serif" font-size="10.00" fill="#000000"> </text>
<polyline fill="none" stroke="#bfbfbf" points="0,-124.5 83,-124.5 "/>
<text text-anchor="middle" x="41.5" y="-112.5" font-family="Helvetica,sans-Serif" font-size="10.00" fill="#000000"> </text>
</g>
<!-- Node2&#45;&gt;Node1 -->
<g id="edge1" class="edge">
<title>Node2&#45;&gt;Node1</title>
<path fill="none" stroke="#404040" d="M41.5,-105.3083C41.5,-94.4281 41.5,-81.817 41.5,-70.0192"/>
<polygon fill="none" stroke="#404040" points="41.5001,-69.657 37.5,-63.6571 41.5,-57.657 45.5,-63.657 41.5001,-69.657"/>
<text text-anchor="middle" x="55.5" y="-79" font-family="Helvetica,sans-Serif" font-size="10.00" fill="#000000"> +type</text>
</g>
</g>
</svg>
