<?xml version="1.0" encoding="UTF-8" standalone="no"?>
<!DOCTYPE svg PUBLIC "-//W3C//DTD SVG 1.1//EN"
 "http://www.w3.org/Graphics/SVG/1.1/DTD/svg11.dtd">
<!-- Generated by graphviz version 2.40.1 (20161225.0304)
 -->
<!-- Title: cimg_library_suffixed::CImg::_cimg_math_parser::mp_ellipse Pages: 1 -->
<svg width="291pt" height="235pt"
 viewBox="0.00 0.00 291.00 235.00" xmlns="http://www.w3.org/2000/svg" xmlns:xlink="http://www.w3.org/1999/xlink">
<g id="graph0" class="graph" transform="scale(1 1) rotate(0) translate(4 231)">
<title>cimg_library_suffixed::CImg::_cimg_math_parser::mp_ellipse</title>
<polygon fill="#ffffff" stroke="transparent" points="-4,4 -4,-231 287,-231 287,4 -4,4"/>
<!-- Node397 -->
<g id="node1" class="node">
<title>Node397</title>
<polygon fill="#bfbfbf" stroke="#000000" points="0,-93 0,-134 138,-134 138,-93 0,-93"/>
<text text-anchor="start" x="8" y="-122" font-family="Helvetica,sans-Serif" font-size="10.00" fill="#000000">cimg_library_suffixed</text>
<text text-anchor="start" x="8" y="-111" font-family="Helvetica,sans-Serif" font-size="10.00" fill="#000000">::CImg::_cimg_math_parser</text>
<text text-anchor="middle" x="69" y="-100" font-family="Helvetica,sans-Serif" font-size="10.00" fill="#000000">::mp_ellipse</text>
</g>
<!-- Node398 -->
<g id="node2" class="node">
<title>Node398</title>
<g id="a_node2"><a xlink:href="structcimg__library__suffixed_1_1_c_img.html#ac7b4dcecfbbe6962e9300e210ecbaa9c" target="_top" xlink:title="Draw a filled 2d ellipse. ">
<polygon fill="#ffffff" stroke="#000000" points="174,-196.5 174,-226.5 283,-226.5 283,-196.5 174,-196.5"/>
<text text-anchor="start" x="182" y="-214.5" font-family="Helvetica,sans-Serif" font-size="10.00" fill="#000000">cimg_library_suffixed</text>
<text text-anchor="middle" x="228.5" y="-203.5" font-family="Helvetica,sans-Serif" font-size="10.00" fill="#000000">::CImg::draw_ellipse</text>
</a>
</g>
</g>
<!-- Node397&#45;&gt;Node398 -->
<g id="edge1" class="edge">
<title>Node397&#45;&gt;Node398</title>
<path fill="none" stroke="#191970" d="M95.224,-134.1993C115.9005,-149.9633 145.8472,-171.5908 174,-187.5 176.7031,-189.0275 179.5219,-190.5269 182.3923,-191.9838"/>
<polygon fill="#191970" stroke="#191970" points="181.1308,-195.2618 191.656,-196.4744 184.1842,-188.9628 181.1308,-195.2618"/>
</g>
<!-- Node399 -->
<g id="node3" class="node">
<title>Node399</title>
<g id="a_node3"><a xlink:href="namespacecimg__library__suffixed_1_1cimg.html#afcc02428c9b7d9100e1674369d25cc40" target="_top" xlink:title="Return the modulo of a value. ">
<polygon fill="#ffffff" stroke="#000000" points="174,-147.5 174,-177.5 283,-177.5 283,-147.5 174,-147.5"/>
<text text-anchor="start" x="182" y="-165.5" font-family="Helvetica,sans-Serif" font-size="10.00" fill="#000000">cimg_library_suffixed</text>
<text text-anchor="middle" x="228.5" y="-154.5" font-family="Helvetica,sans-Serif" font-size="10.00" fill="#000000">::cimg::mod</text>
</a>
</g>
</g>
<!-- Node397&#45;&gt;Node399 -->
<g id="edge2" class="edge">
<title>Node397&#45;&gt;Node399</title>
<path fill="none" stroke="#191970" d="M136.1801,-134.1384C147.2612,-137.5426 158.6745,-141.0489 169.5349,-144.3853"/>
<polygon fill="#191970" stroke="#191970" points="168.741,-147.8028 179.328,-147.3939 170.7967,-141.1115 168.741,-147.8028"/>
</g>
<!-- Node400 -->
<g id="node4" class="node">
<title>Node400</title>
<g id="a_node4"><a xlink:href="structcimg__library__suffixed_1_1_c_img.html#adf42a4d63a14a4199e4703743b217075" target="_top" xlink:title="Resize image to new dimensions. ">
<polygon fill="#ffffff" stroke="#000000" points="174,-98.5 174,-128.5 283,-128.5 283,-98.5 174,-98.5"/>
<text text-anchor="start" x="182" y="-116.5" font-family="Helvetica,sans-Serif" font-size="10.00" fill="#000000">cimg_library_suffixed</text>
<text text-anchor="middle" x="228.5" y="-105.5" font-family="Helvetica,sans-Serif" font-size="10.00" fill="#000000">::CImg::resize</text>
</a>
</g>
</g>
<!-- Node397&#45;&gt;Node400 -->
<g id="edge3" class="edge">
<title>Node397&#45;&gt;Node400</title>
<path fill="none" stroke="#191970" d="M138.0314,-113.5C146.5309,-113.5 155.1959,-113.5 163.6306,-113.5"/>
<polygon fill="#191970" stroke="#191970" points="163.7783,-117.0001 173.7783,-113.5 163.7782,-110.0001 163.7783,-117.0001"/>
</g>
<!-- Node401 -->
<g id="node5" class="node">
<title>Node401</title>
<g id="a_node5"><a xlink:href="namespacecimg__library__suffixed_1_1cimg.html#a7bed9b422eb303150d7abb503e7201fc" target="_top" xlink:title="cimg_library_suffixed\l::cimg::round">
<polygon fill="#ffffff" stroke="#000000" points="174,-49.5 174,-79.5 283,-79.5 283,-49.5 174,-49.5"/>
<text text-anchor="start" x="182" y="-67.5" font-family="Helvetica,sans-Serif" font-size="10.00" fill="#000000">cimg_library_suffixed</text>
<text text-anchor="middle" x="228.5" y="-56.5" font-family="Helvetica,sans-Serif" font-size="10.00" fill="#000000">::cimg::round</text>
</a>
</g>
</g>
<!-- Node397&#45;&gt;Node401 -->
<g id="edge4" class="edge">
<title>Node397&#45;&gt;Node401</title>
<path fill="none" stroke="#191970" d="M136.1801,-92.8616C147.2612,-89.4574 158.6745,-85.9511 169.5349,-82.6147"/>
<polygon fill="#191970" stroke="#191970" points="170.7967,-85.8885 179.328,-79.6061 168.741,-79.1972 170.7967,-85.8885"/>
</g>
<!-- Node402 -->
<g id="node6" class="node">
<title>Node402</title>
<g id="a_node6"><a xlink:href="structcimg__library__suffixed_1_1_c_img.html#ad8ca8eae0dbb8b4a6a8131ca1fef4bff" target="_top" xlink:title="Return a C&#45;string containing a list of all values of the image instance. ">
<polygon fill="#ffffff" stroke="#000000" points="174,-.5 174,-30.5 283,-30.5 283,-.5 174,-.5"/>
<text text-anchor="start" x="182" y="-18.5" font-family="Helvetica,sans-Serif" font-size="10.00" fill="#000000">cimg_library_suffixed</text>
<text text-anchor="middle" x="228.5" y="-7.5" font-family="Helvetica,sans-Serif" font-size="10.00" fill="#000000">::CImg::value_string</text>
</a>
</g>
</g>
<!-- Node397&#45;&gt;Node402 -->
<g id="edge5" class="edge">
<title>Node397&#45;&gt;Node402</title>
<path fill="none" stroke="#191970" d="M95.765,-92.9108C116.484,-77.4684 146.2362,-56.3523 174,-40.5 177.2177,-38.6628 180.5942,-36.8532 184.0231,-35.099"/>
<polygon fill="#191970" stroke="#191970" points="185.7247,-38.1625 193.1491,-30.6042 182.6317,-31.8829 185.7247,-38.1625"/>
</g>
</g>
</svg>
