<?xml version="1.0" encoding="UTF-8" standalone="no"?>
<!DOCTYPE svg PUBLIC "-//W3C//DTD SVG 1.1//EN"
 "http://www.w3.org/Graphics/SVG/1.1/DTD/svg11.dtd">
<!-- Generated by graphviz version 2.40.1 (20161225.0304)
 -->
<!-- Title: cimg_library_suffixed::cimg::Mutex_info::trylock Pages: 1 -->
<svg width="286pt" height="39pt"
 viewBox="0.00 0.00 286.00 39.00" xmlns="http://www.w3.org/2000/svg" xmlns:xlink="http://www.w3.org/1999/xlink">
<g id="graph0" class="graph" transform="scale(1 1) rotate(0) translate(4 35)">
<title>cimg_library_suffixed::cimg::Mutex_info::trylock</title>
<polygon fill="#ffffff" stroke="transparent" points="-4,4 -4,-35 282,-35 282,4 -4,4"/>
<!-- Node195 -->
<g id="node1" class="node">
<title>Node195</title>
<polygon fill="#bfbfbf" stroke="#000000" points="0,-.5 0,-30.5 133,-30.5 133,-.5 0,-.5"/>
<text text-anchor="start" x="8" y="-18.5" font-family="Helvetica,sans-Serif" font-size="10.00" fill="#000000">cimg_library_suffixed</text>
<text text-anchor="middle" x="66.5" y="-7.5" font-family="Helvetica,sans-Serif" font-size="10.00" fill="#000000">::cimg::Mutex_info::trylock</text>
</g>
<!-- Node196 -->
<g id="node2" class="node">
<title>Node196</title>
<g id="a_node2"><a xlink:href="namespacecimg__library__suffixed_1_1cimg.html#aa0e1bc96ae6e235dc5b67b8b0a466166" target="_top" xlink:title="cimg_library_suffixed\l::cimg::Mutex_attr">
<polygon fill="#ffffff" stroke="#000000" points="169,-.5 169,-30.5 278,-30.5 278,-.5 169,-.5"/>
<text text-anchor="start" x="177" y="-18.5" font-family="Helvetica,sans-Serif" font-size="10.00" fill="#000000">cimg_library_suffixed</text>
<text text-anchor="middle" x="223.5" y="-7.5" font-family="Helvetica,sans-Serif" font-size="10.00" fill="#000000">::cimg::Mutex_attr</text>
</a>
</g>
</g>
<!-- Node195&#45;&gt;Node196 -->
<g id="edge1" class="edge">
<title>Node195&#45;&gt;Node196</title>
<path fill="none" stroke="#191970" d="M133.0821,-15.5C141.5193,-15.5 150.1445,-15.5 158.5556,-15.5"/>
<polygon fill="#191970" stroke="#191970" points="158.6821,-19.0001 168.682,-15.5 158.682,-12.0001 158.6821,-19.0001"/>
</g>
</g>
</svg>
