<?xml version="1.0" encoding="UTF-8" standalone="no"?>
<!DOCTYPE svg PUBLIC "-//W3C//DTD SVG 1.1//EN"
 "http://www.w3.org/Graphics/SVG/1.1/DTD/svg11.dtd">
<!-- Generated by graphviz version 2.40.1 (20161225.0304)
 -->
<!-- Title: cimg_library_suffixed::CImg::ror Pages: 1 -->
<svg width="278pt" height="39pt"
 viewBox="0.00 0.00 278.00 39.00" xmlns="http://www.w3.org/2000/svg" xmlns:xlink="http://www.w3.org/1999/xlink">
<g id="graph0" class="graph" transform="scale(1 1) rotate(0) translate(4 35)">
<title>cimg_library_suffixed::CImg::ror</title>
<polygon fill="#ffffff" stroke="transparent" points="-4,4 -4,-35 274,-35 274,4 -4,4"/>
<!-- Node2962 -->
<g id="node1" class="node">
<title>Node2962</title>
<polygon fill="#bfbfbf" stroke="#000000" points="0,-.5 0,-30.5 109,-30.5 109,-.5 0,-.5"/>
<text text-anchor="start" x="8" y="-18.5" font-family="Helvetica,sans-Serif" font-size="10.00" fill="#000000">cimg_library_suffixed</text>
<text text-anchor="middle" x="54.5" y="-7.5" font-family="Helvetica,sans-Serif" font-size="10.00" fill="#000000">::CImg::ror</text>
</g>
<!-- Node2963 -->
<g id="node2" class="node">
<title>Node2963</title>
<g id="a_node2"><a xlink:href="structcimg__library__suffixed_1_1_c_img.html#aa66b4201b04ccf722f0419417cece2e8" target="_top" xlink:title="Compute the bitwise right rotation of each pixel value . ">
<polygon fill="#ffffff" stroke="#000000" points="145,-.5 145,-30.5 270,-30.5 270,-.5 145,-.5"/>
<text text-anchor="start" x="153" y="-18.5" font-family="Helvetica,sans-Serif" font-size="10.00" fill="#000000">cimg_library_suffixed</text>
<text text-anchor="middle" x="207.5" y="-7.5" font-family="Helvetica,sans-Serif" font-size="10.00" fill="#000000">::CImg&lt; charT &gt;::get_ror</text>
</a>
</g>
</g>
<!-- Node2962&#45;&gt;Node2963 -->
<g id="edge1" class="edge">
<title>Node2962&#45;&gt;Node2963</title>
<path fill="none" stroke="#191970" d="M119.4187,-15.5C127.811,-15.5 136.3936,-15.5 144.7499,-15.5"/>
<polygon fill="#191970" stroke="#191970" points="119.3044,-12.0001 109.3044,-15.5 119.3043,-19.0001 119.3044,-12.0001"/>
</g>
</g>
</svg>
