<?xml version="1.0" encoding="UTF-8" standalone="no"?>
<!DOCTYPE svg PUBLIC "-//W3C//DTD SVG 1.1//EN"
 "http://www.w3.org/Graphics/SVG/1.1/DTD/svg11.dtd">
<!-- Generated by graphviz version 2.40.1 (20161225.0304)
 -->
<!-- Title: cimg_library_suffixed::CImg::linear_atXYZC Pages: 1 -->
<svg width="298pt" height="230pt"
 viewBox="0.00 0.00 298.00 230.00" xmlns="http://www.w3.org/2000/svg" xmlns:xlink="http://www.w3.org/1999/xlink">
<g id="graph0" class="graph" transform="scale(1 1) rotate(0) translate(4 226)">
<title>cimg_library_suffixed::CImg::linear_atXYZC</title>
<polygon fill="#ffffff" stroke="transparent" points="-4,4 -4,-226 294,-226 294,4 -4,4"/>
<!-- Node2339 -->
<g id="node1" class="node">
<title>Node2339</title>
<polygon fill="#bfbfbf" stroke="#000000" points="0,-96 0,-126 116,-126 116,-96 0,-96"/>
<text text-anchor="start" x="8" y="-114" font-family="Helvetica,sans-Serif" font-size="10.00" fill="#000000">cimg_library_suffixed</text>
<text text-anchor="middle" x="58" y="-103" font-family="Helvetica,sans-Serif" font-size="10.00" fill="#000000">::CImg::linear_atXYZC</text>
</g>
<!-- Node2340 -->
<g id="node2" class="node">
<title>Node2340</title>
<g id="a_node2"><a xlink:href="structcimg__library__suffixed_1_1_c_img_1_1__cimg__math__parser.html#adccb19bacb29f24ee9b582ffdab1ce87" target="_top" xlink:title="cimg_library_suffixed\l::CImg::_cimg_math_parser\l::mp_ixyzc">
<polygon fill="#ffffff" stroke="#000000" points="152,-180.5 152,-221.5 290,-221.5 290,-180.5 152,-180.5"/>
<text text-anchor="start" x="160" y="-209.5" font-family="Helvetica,sans-Serif" font-size="10.00" fill="#000000">cimg_library_suffixed</text>
<text text-anchor="start" x="160" y="-198.5" font-family="Helvetica,sans-Serif" font-size="10.00" fill="#000000">::CImg::_cimg_math_parser</text>
<text text-anchor="middle" x="221" y="-187.5" font-family="Helvetica,sans-Serif" font-size="10.00" fill="#000000">::mp_ixyzc</text>
</a>
</g>
</g>
<!-- Node2339&#45;&gt;Node2340 -->
<g id="edge1" class="edge">
<title>Node2339&#45;&gt;Node2340</title>
<path fill="none" stroke="#191970" d="M87.8501,-131.7688C105.9755,-143.9421 129.8224,-159.1959 152,-171 158.1113,-174.2528 164.6497,-177.4446 171.1763,-180.4612"/>
<polygon fill="#191970" stroke="#191970" points="89.6851,-128.7843 79.4442,-126.0689 85.7565,-134.578 89.6851,-128.7843"/>
</g>
<!-- Node2341 -->
<g id="node3" class="node">
<title>Node2341</title>
<g id="a_node3"><a xlink:href="structcimg__library__suffixed_1_1_c_img_1_1__cimg__math__parser.html#ab65aef2aad83c05094346595eebd5051" target="_top" xlink:title="cimg_library_suffixed\l::CImg::_cimg_math_parser\l::mp_jxyzc">
<polygon fill="#ffffff" stroke="#000000" points="152,-120.5 152,-161.5 290,-161.5 290,-120.5 152,-120.5"/>
<text text-anchor="start" x="160" y="-149.5" font-family="Helvetica,sans-Serif" font-size="10.00" fill="#000000">cimg_library_suffixed</text>
<text text-anchor="start" x="160" y="-138.5" font-family="Helvetica,sans-Serif" font-size="10.00" fill="#000000">::CImg::_cimg_math_parser</text>
<text text-anchor="middle" x="221" y="-127.5" font-family="Helvetica,sans-Serif" font-size="10.00" fill="#000000">::mp_jxyzc</text>
</a>
</g>
</g>
<!-- Node2339&#45;&gt;Node2341 -->
<g id="edge2" class="edge">
<title>Node2339&#45;&gt;Node2341</title>
<path fill="none" stroke="#191970" d="M126.2342,-123.5584C134.7198,-125.1202 143.4025,-126.7183 151.901,-128.2824"/>
<polygon fill="#191970" stroke="#191970" points="126.8547,-120.1139 116.3863,-121.746 125.5876,-126.9983 126.8547,-120.1139"/>
</g>
<!-- Node2342 -->
<g id="node4" class="node">
<title>Node2342</title>
<g id="a_node4"><a xlink:href="structcimg__library__suffixed_1_1_c_img_1_1__cimg__math__parser.html#af4383fa9613e2534570a889e24d06b5a" target="_top" xlink:title="cimg_library_suffixed\l::CImg::_cimg_math_parser\l::mp_list_ixyzc">
<polygon fill="#ffffff" stroke="#000000" points="152,-60.5 152,-101.5 290,-101.5 290,-60.5 152,-60.5"/>
<text text-anchor="start" x="160" y="-89.5" font-family="Helvetica,sans-Serif" font-size="10.00" fill="#000000">cimg_library_suffixed</text>
<text text-anchor="start" x="160" y="-78.5" font-family="Helvetica,sans-Serif" font-size="10.00" fill="#000000">::CImg::_cimg_math_parser</text>
<text text-anchor="middle" x="221" y="-67.5" font-family="Helvetica,sans-Serif" font-size="10.00" fill="#000000">::mp_list_ixyzc</text>
</a>
</g>
</g>
<!-- Node2339&#45;&gt;Node2342 -->
<g id="edge3" class="edge">
<title>Node2339&#45;&gt;Node2342</title>
<path fill="none" stroke="#191970" d="M126.2342,-98.4416C134.7198,-96.8798 143.4025,-95.2817 151.901,-93.7176"/>
<polygon fill="#191970" stroke="#191970" points="125.5876,-95.0017 116.3863,-100.254 126.8547,-101.8861 125.5876,-95.0017"/>
</g>
<!-- Node2343 -->
<g id="node5" class="node">
<title>Node2343</title>
<g id="a_node5"><a xlink:href="structcimg__library__suffixed_1_1_c_img_1_1__cimg__math__parser.html#a1f3648a3f11256430d982c9c6e8debe4" target="_top" xlink:title="cimg_library_suffixed\l::CImg::_cimg_math_parser\l::mp_list_jxyzc">
<polygon fill="#ffffff" stroke="#000000" points="152,-.5 152,-41.5 290,-41.5 290,-.5 152,-.5"/>
<text text-anchor="start" x="160" y="-29.5" font-family="Helvetica,sans-Serif" font-size="10.00" fill="#000000">cimg_library_suffixed</text>
<text text-anchor="start" x="160" y="-18.5" font-family="Helvetica,sans-Serif" font-size="10.00" fill="#000000">::CImg::_cimg_math_parser</text>
<text text-anchor="middle" x="221" y="-7.5" font-family="Helvetica,sans-Serif" font-size="10.00" fill="#000000">::mp_list_jxyzc</text>
</a>
</g>
</g>
<!-- Node2339&#45;&gt;Node2343 -->
<g id="edge4" class="edge">
<title>Node2339&#45;&gt;Node2343</title>
<path fill="none" stroke="#191970" d="M87.8501,-90.2312C105.9755,-78.0579 129.8224,-62.8041 152,-51 158.1113,-47.7472 164.6497,-44.5554 171.1763,-41.5388"/>
<polygon fill="#191970" stroke="#191970" points="85.7565,-87.422 79.4442,-95.9311 89.6851,-93.2157 85.7565,-87.422"/>
</g>
</g>
</svg>
