<?xml version="1.0" encoding="UTF-8" standalone="no"?>
<!DOCTYPE svg PUBLIC "-//W3C//DTD SVG 1.1//EN"
 "http://www.w3.org/Graphics/SVG/1.1/DTD/svg11.dtd">
<!-- Generated by graphviz version 2.40.1 (20161225.0304)
 -->
<!-- Title: cimg_library_suffixed::CImg::max_min Pages: 1 -->
<svg width="299pt" height="400pt"
 viewBox="0.00 0.00 299.00 400.00" xmlns="http://www.w3.org/2000/svg" xmlns:xlink="http://www.w3.org/1999/xlink">
<g id="graph0" class="graph" transform="scale(1 1) rotate(0) translate(4 396)">
<title>cimg_library_suffixed::CImg::max_min</title>
<polygon fill="#ffffff" stroke="transparent" points="-4,4 -4,-396 295,-396 295,4 -4,4"/>
<!-- Node2490 -->
<g id="node1" class="node">
<title>Node2490</title>
<polygon fill="#bfbfbf" stroke="#000000" points="0,-186 0,-216 109,-216 109,-186 0,-186"/>
<text text-anchor="start" x="8" y="-204" font-family="Helvetica,sans-Serif" font-size="10.00" fill="#000000">cimg_library_suffixed</text>
<text text-anchor="middle" x="54.5" y="-193" font-family="Helvetica,sans-Serif" font-size="10.00" fill="#000000">::CImg::max_min</text>
</g>
<!-- Node2491 -->
<g id="node2" class="node">
<title>Node2491</title>
<g id="a_node2"><a xlink:href="structcimg__library__suffixed_1_1_c_img.html#ab19d123867d5a2ed56fe1b016267bfe7" target="_top" xlink:title="Blur image, with the joint bilateral filter. ">
<polygon fill="#ffffff" stroke="#000000" points="162.5,-350.5 162.5,-391.5 273.5,-391.5 273.5,-350.5 162.5,-350.5"/>
<text text-anchor="start" x="170.5" y="-379.5" font-family="Helvetica,sans-Serif" font-size="10.00" fill="#000000">cimg_library_suffixed</text>
<text text-anchor="start" x="170.5" y="-368.5" font-family="Helvetica,sans-Serif" font-size="10.00" fill="#000000">::CImg&lt; charT &gt;::blur</text>
<text text-anchor="middle" x="218" y="-357.5" font-family="Helvetica,sans-Serif" font-size="10.00" fill="#000000">_bilateral</text>
</a>
</g>
</g>
<!-- Node2490&#45;&gt;Node2491 -->
<g id="edge1" class="edge">
<title>Node2490&#45;&gt;Node2491</title>
<path fill="none" stroke="#191970" d="M64.6673,-225.3811C78.6213,-256.1605 106.4382,-308.9508 145,-341 150.1635,-345.2914 156.0248,-349.0392 162.1276,-352.2941"/>
<polygon fill="#191970" stroke="#191970" points="67.8635,-223.9546 60.6278,-216.2154 61.458,-226.7777 67.8635,-223.9546"/>
</g>
<!-- Node2492 -->
<g id="node3" class="node">
<title>Node2492</title>
<g id="a_node3"><a xlink:href="structcimg__library__suffixed_1_1_c_img.html#ac1f792d60d2ced2cfa529ba0f7efb0e7" target="_top" xlink:title="Draw 1d graph. ">
<polygon fill="#ffffff" stroke="#000000" points="145,-301 145,-331 291,-331 291,-301 145,-301"/>
<text text-anchor="start" x="153" y="-319" font-family="Helvetica,sans-Serif" font-size="10.00" fill="#000000">cimg_library_suffixed</text>
<text text-anchor="middle" x="218" y="-308" font-family="Helvetica,sans-Serif" font-size="10.00" fill="#000000">::CImg&lt; charT &gt;::draw_graph</text>
</a>
</g>
</g>
<!-- Node2490&#45;&gt;Node2492 -->
<g id="edge2" class="edge">
<title>Node2490&#45;&gt;Node2492</title>
<path fill="none" stroke="#191970" d="M72.4138,-223.9713C89.2243,-244.1441 116.057,-273.0036 145,-291 151.0295,-294.7491 157.6913,-298.0173 164.4652,-300.8432"/>
<polygon fill="#191970" stroke="#191970" points="75.0902,-221.7152 66.0569,-216.179 69.6662,-226.1401 75.0902,-221.7152"/>
</g>
<!-- Node2493 -->
<g id="node4" class="node">
<title>Node2493</title>
<g id="a_node4"><a xlink:href="structcimg__library__suffixed_1_1_c_img.html#a7d164f8fc5dd02c93927b74d14809401" target="_top" xlink:title="Blur image, with the image guided filter . ">
<polygon fill="#ffffff" stroke="#000000" points="163.5,-240.5 163.5,-281.5 272.5,-281.5 272.5,-240.5 163.5,-240.5"/>
<text text-anchor="start" x="171.5" y="-269.5" font-family="Helvetica,sans-Serif" font-size="10.00" fill="#000000">cimg_library_suffixed</text>
<text text-anchor="start" x="171.5" y="-258.5" font-family="Helvetica,sans-Serif" font-size="10.00" fill="#000000">::CImg&lt; charT &gt;::get</text>
<text text-anchor="middle" x="218" y="-247.5" font-family="Helvetica,sans-Serif" font-size="10.00" fill="#000000">_blur_guided</text>
</a>
</g>
</g>
<!-- Node2490&#45;&gt;Node2493 -->
<g id="edge3" class="edge">
<title>Node2490&#45;&gt;Node2493</title>
<path fill="none" stroke="#191970" d="M105.176,-219.5967C123.6677,-226.3826 144.6514,-234.0831 163.4645,-240.987"/>
<polygon fill="#191970" stroke="#191970" points="106.3516,-216.2999 95.758,-216.1405 103.94,-222.8714 106.3516,-216.2999"/>
</g>
<!-- Node2494 -->
<g id="node5" class="node">
<title>Node2494</title>
<g id="a_node5"><a xlink:href="structcimg__library__suffixed_1_1_c_img.html#a91ec1cd09114c4018a78e4ea0b2df386" target="_top" xlink:title="Estimate displacement field between two images . ">
<polygon fill="#ffffff" stroke="#000000" points="163.5,-180.5 163.5,-221.5 272.5,-221.5 272.5,-180.5 163.5,-180.5"/>
<text text-anchor="start" x="171.5" y="-209.5" font-family="Helvetica,sans-Serif" font-size="10.00" fill="#000000">cimg_library_suffixed</text>
<text text-anchor="start" x="171.5" y="-198.5" font-family="Helvetica,sans-Serif" font-size="10.00" fill="#000000">::CImg&lt; charT &gt;::get</text>
<text text-anchor="middle" x="218" y="-187.5" font-family="Helvetica,sans-Serif" font-size="10.00" fill="#000000">_displacement</text>
</a>
</g>
</g>
<!-- Node2490&#45;&gt;Node2494 -->
<g id="edge4" class="edge">
<title>Node2490&#45;&gt;Node2494</title>
<path fill="none" stroke="#191970" d="M119.7434,-201C134.1619,-201 149.2953,-201 163.2469,-201"/>
<polygon fill="#191970" stroke="#191970" points="119.398,-197.5001 109.398,-201 119.3979,-204.5001 119.398,-197.5001"/>
</g>
<!-- Node2495 -->
<g id="node6" class="node">
<title>Node2495</title>
<g id="a_node6"><a xlink:href="structcimg__library__suffixed_1_1_c_img.html#a595e9d40b1279ade2cf00bbf67d46639" target="_top" xlink:title="Resize 3d object. ">
<polygon fill="#ffffff" stroke="#000000" points="157,-120.5 157,-161.5 279,-161.5 279,-120.5 157,-120.5"/>
<text text-anchor="start" x="165" y="-149.5" font-family="Helvetica,sans-Serif" font-size="10.00" fill="#000000">cimg_library_suffixed</text>
<text text-anchor="start" x="165" y="-138.5" font-family="Helvetica,sans-Serif" font-size="10.00" fill="#000000">::CImg&lt; charT &gt;::resize</text>
<text text-anchor="middle" x="218" y="-127.5" font-family="Helvetica,sans-Serif" font-size="10.00" fill="#000000">_object3d</text>
</a>
</g>
</g>
<!-- Node2490&#45;&gt;Node2495 -->
<g id="edge5" class="edge">
<title>Node2490&#45;&gt;Node2495</title>
<path fill="none" stroke="#191970" d="M105.4506,-182.3025C123.3742,-175.7251 143.6113,-168.2986 161.9327,-161.5751"/>
<polygon fill="#191970" stroke="#191970" points="103.94,-179.1286 95.758,-185.8595 106.3516,-185.7001 103.94,-179.1286"/>
</g>
<!-- Node2496 -->
<g id="node7" class="node">
<title>Node2496</title>
<g id="a_node7"><a xlink:href="structcimg__library__suffixed_1_1_c_img.html#ad3a36ae0c4e16ade94e09dd3c55d400c" target="_top" xlink:title="Shift 3d object&#39;s vertices, so that it becomes centered. ">
<polygon fill="#ffffff" stroke="#000000" points="161,-60.5 161,-101.5 275,-101.5 275,-60.5 161,-60.5"/>
<text text-anchor="start" x="169" y="-89.5" font-family="Helvetica,sans-Serif" font-size="10.00" fill="#000000">cimg_library_suffixed</text>
<text text-anchor="start" x="169" y="-78.5" font-family="Helvetica,sans-Serif" font-size="10.00" fill="#000000">::CImg&lt; charT &gt;::shift</text>
<text text-anchor="middle" x="218" y="-67.5" font-family="Helvetica,sans-Serif" font-size="10.00" fill="#000000">_object3d</text>
</a>
</g>
</g>
<!-- Node2490&#45;&gt;Node2496 -->
<g id="edge6" class="edge">
<title>Node2490&#45;&gt;Node2496</title>
<path fill="none" stroke="#191970" d="M72.9701,-178.0977C89.9734,-158.2147 116.7718,-129.7483 145,-111 150.1363,-107.5886 155.7225,-104.4496 161.4417,-101.5926"/>
<polygon fill="#191970" stroke="#191970" points="70.2705,-175.8699 66.5218,-185.7793 75.632,-180.3705 70.2705,-175.8699"/>
</g>
<!-- Node2497 -->
<g id="node8" class="node">
<title>Node2497</title>
<g id="a_node8"><a xlink:href="structcimg__library__suffixed_1_1_c_img.html#a42395174c544ec66191539bf76fcb360" target="_top" xlink:title="Texturize primitives of a 3d object. ">
<polygon fill="#ffffff" stroke="#000000" points="151.5,-.5 151.5,-41.5 284.5,-41.5 284.5,-.5 151.5,-.5"/>
<text text-anchor="start" x="159.5" y="-29.5" font-family="Helvetica,sans-Serif" font-size="10.00" fill="#000000">cimg_library_suffixed</text>
<text text-anchor="start" x="159.5" y="-18.5" font-family="Helvetica,sans-Serif" font-size="10.00" fill="#000000">::CImg&lt; charT &gt;::texturize</text>
<text text-anchor="middle" x="218" y="-7.5" font-family="Helvetica,sans-Serif" font-size="10.00" fill="#000000">_object3d</text>
</a>
</g>
</g>
<!-- Node2490&#45;&gt;Node2497 -->
<g id="edge7" class="edge">
<title>Node2490&#45;&gt;Node2497</title>
<path fill="none" stroke="#191970" d="M63.6285,-176.3147C76.8883,-143.5555 104.4113,-85.8113 145,-51 149.0563,-47.5211 153.5709,-44.4059 158.3101,-41.6243"/>
<polygon fill="#191970" stroke="#191970" points="60.3694,-175.0388 59.9726,-185.6262 66.8852,-177.5971 60.3694,-175.0388"/>
</g>
</g>
</svg>
