<?xml version="1.0" encoding="UTF-8" standalone="no"?>
<!DOCTYPE svg PUBLIC "-//W3C//DTD SVG 1.1//EN"
 "http://www.w3.org/Graphics/SVG/1.1/DTD/svg11.dtd">
<!-- Generated by graphviz version 2.40.1 (20161225.0304)
 -->
<!-- Title: cimg_library_suffixed::cimg::type&lt; float &gt;::inf Pages: 1 -->
<svg width="565pt" height="39pt"
 viewBox="0.00 0.00 565.00 39.00" xmlns="http://www.w3.org/2000/svg" xmlns:xlink="http://www.w3.org/1999/xlink">
<g id="graph0" class="graph" transform="scale(1 1) rotate(0) translate(4 35)">
<title>cimg_library_suffixed::cimg::type&lt; float &gt;::inf</title>
<polygon fill="#ffffff" stroke="transparent" points="-4,4 -4,-35 561,-35 561,4 -4,4"/>
<!-- Node10 -->
<g id="node1" class="node">
<title>Node10</title>
<polygon fill="#bfbfbf" stroke="#000000" points="0,-.5 0,-30.5 122,-30.5 122,-.5 0,-.5"/>
<text text-anchor="start" x="8" y="-18.5" font-family="Helvetica,sans-Serif" font-size="10.00" fill="#000000">cimg_library_suffixed</text>
<text text-anchor="middle" x="61" y="-7.5" font-family="Helvetica,sans-Serif" font-size="10.00" fill="#000000">::cimg::type&lt; float &gt;::inf</text>
</g>
<!-- Node11 -->
<g id="node2" class="node">
<title>Node11</title>
<g id="a_node2"><a xlink:href="structcimg__library__suffixed_1_1cimg_1_1type.html#ac818c4773392cc85c58676270d752f90" target="_top" xlink:title="cimg_library_suffixed\l::cimg::type::inf">
<polygon fill="#ffffff" stroke="#000000" points="158,-.5 158,-30.5 267,-30.5 267,-.5 158,-.5"/>
<text text-anchor="start" x="166" y="-18.5" font-family="Helvetica,sans-Serif" font-size="10.00" fill="#000000">cimg_library_suffixed</text>
<text text-anchor="middle" x="212.5" y="-7.5" font-family="Helvetica,sans-Serif" font-size="10.00" fill="#000000">::cimg::type::inf</text>
</a>
</g>
</g>
<!-- Node10&#45;&gt;Node11 -->
<g id="edge1" class="edge">
<title>Node10&#45;&gt;Node11</title>
<path fill="none" stroke="#191970" d="M122.1842,-15.5C130.5915,-15.5 139.2475,-15.5 147.7168,-15.5"/>
<polygon fill="#191970" stroke="#191970" points="147.9255,-19.0001 157.9254,-15.5 147.9254,-12.0001 147.9255,-19.0001"/>
</g>
<!-- Node12 -->
<g id="node3" class="node">
<title>Node12</title>
<g id="a_node3"><a xlink:href="namespacecimg__library__suffixed_1_1cimg.html#aae5df5731fe5a367cec402071108c11c" target="_top" xlink:title="Return the maximum between three values. ">
<polygon fill="#ffffff" stroke="#000000" points="303,-.5 303,-30.5 412,-30.5 412,-.5 303,-.5"/>
<text text-anchor="start" x="311" y="-18.5" font-family="Helvetica,sans-Serif" font-size="10.00" fill="#000000">cimg_library_suffixed</text>
<text text-anchor="middle" x="357.5" y="-7.5" font-family="Helvetica,sans-Serif" font-size="10.00" fill="#000000">::cimg::max</text>
</a>
</g>
</g>
<!-- Node11&#45;&gt;Node12 -->
<g id="edge2" class="edge">
<title>Node11&#45;&gt;Node12</title>
<path fill="none" stroke="#191970" d="M267.3183,-15.5C275.5286,-15.5 284.0611,-15.5 292.4586,-15.5"/>
<polygon fill="#191970" stroke="#191970" points="292.6042,-19.0001 302.6042,-15.5 292.6042,-12.0001 292.6042,-19.0001"/>
</g>
<!-- Node13 -->
<g id="node4" class="node">
<title>Node13</title>
<g id="a_node4"><a xlink:href="namespacecimg__library__suffixed_1_1cimg.html#a4b4cabc621d732787bca13016ea8026a" target="_top" xlink:title="Return the maximum between four values. ">
<polygon fill="#ffffff" stroke="#000000" points="448,-.5 448,-30.5 557,-30.5 557,-.5 448,-.5"/>
<text text-anchor="start" x="456" y="-18.5" font-family="Helvetica,sans-Serif" font-size="10.00" fill="#000000">cimg_library_suffixed</text>
<text text-anchor="middle" x="502.5" y="-7.5" font-family="Helvetica,sans-Serif" font-size="10.00" fill="#000000">::cimg::max</text>
</a>
</g>
</g>
<!-- Node12&#45;&gt;Node13 -->
<g id="edge3" class="edge">
<title>Node12&#45;&gt;Node13</title>
<path fill="none" stroke="#191970" d="M412.3183,-15.5C420.5286,-15.5 429.0611,-15.5 437.4586,-15.5"/>
<polygon fill="#191970" stroke="#191970" points="437.6042,-19.0001 447.6042,-15.5 437.6042,-12.0001 437.6042,-19.0001"/>
</g>
</g>
</svg>
