<?xml version="1.0" encoding="UTF-8" standalone="no"?>
<!DOCTYPE svg PUBLIC "-//W3C//DTD SVG 1.1//EN"
 "http://www.w3.org/Graphics/SVG/1.1/DTD/svg11.dtd">
<!-- Generated by graphviz version 2.40.1 (20161225.0304)
 -->
<!-- Title: cimg_library_suffixed::cimg::type::cut Pages: 1 -->
<svg width="277pt" height="350pt"
 viewBox="0.00 0.00 277.00 350.00" xmlns="http://www.w3.org/2000/svg" xmlns:xlink="http://www.w3.org/1999/xlink">
<g id="graph0" class="graph" transform="scale(1 1) rotate(0) translate(4 346)">
<title>cimg_library_suffixed::cimg::type::cut</title>
<polygon fill="#ffffff" stroke="transparent" points="-4,4 -4,-346 273,-346 273,4 -4,4"/>
<!-- Node3 -->
<g id="node1" class="node">
<title>Node3</title>
<polygon fill="#bfbfbf" stroke="#000000" points="0,-156 0,-186 109,-186 109,-156 0,-156"/>
<text text-anchor="start" x="8" y="-174" font-family="Helvetica,sans-Serif" font-size="10.00" fill="#000000">cimg_library_suffixed</text>
<text text-anchor="middle" x="54.5" y="-163" font-family="Helvetica,sans-Serif" font-size="10.00" fill="#000000">::cimg::type::cut</text>
</g>
<!-- Node4 -->
<g id="node2" class="node">
<title>Node4</title>
<g id="a_node2"><a xlink:href="structcimg__library__suffixed_1_1_c_img.html#a99690e6e82972751d45b0af8ddffc235" target="_top" xlink:title="cimg_library_suffixed\l::CImg\&lt; charT \&gt;::_cubic\l_cut_atX">
<polygon fill="#ffffff" stroke="#000000" points="145,-300.5 145,-341.5 269,-341.5 269,-300.5 145,-300.5"/>
<text text-anchor="start" x="153" y="-329.5" font-family="Helvetica,sans-Serif" font-size="10.00" fill="#000000">cimg_library_suffixed</text>
<text text-anchor="start" x="153" y="-318.5" font-family="Helvetica,sans-Serif" font-size="10.00" fill="#000000">::CImg&lt; charT &gt;::_cubic</text>
<text text-anchor="middle" x="207" y="-307.5" font-family="Helvetica,sans-Serif" font-size="10.00" fill="#000000">_cut_atX</text>
</a>
</g>
</g>
<!-- Node3&#45;&gt;Node4 -->
<g id="edge1" class="edge">
<title>Node3&#45;&gt;Node4</title>
<path fill="none" stroke="#191970" d="M67.8779,-195.0358C83.5289,-221.3872 111.5974,-263.5635 145,-291 149.1581,-294.4154 153.7701,-297.5571 158.548,-300.4157"/>
<polygon fill="#191970" stroke="#191970" points="70.7364,-192.9886 62.6866,-186.1 64.6836,-196.5049 70.7364,-192.9886"/>
</g>
<!-- Node5 -->
<g id="node3" class="node">
<title>Node5</title>
<g id="a_node3"><a xlink:href="structcimg__library__suffixed_1_1_c_img.html#a95f59be46a05ba6695a9dda99d3f5955" target="_top" xlink:title="cimg_library_suffixed\l::CImg\&lt; charT \&gt;::_cubic\l_cut_atXY">
<polygon fill="#ffffff" stroke="#000000" points="145,-240.5 145,-281.5 269,-281.5 269,-240.5 145,-240.5"/>
<text text-anchor="start" x="153" y="-269.5" font-family="Helvetica,sans-Serif" font-size="10.00" fill="#000000">cimg_library_suffixed</text>
<text text-anchor="start" x="153" y="-258.5" font-family="Helvetica,sans-Serif" font-size="10.00" fill="#000000">::CImg&lt; charT &gt;::_cubic</text>
<text text-anchor="middle" x="207" y="-247.5" font-family="Helvetica,sans-Serif" font-size="10.00" fill="#000000">_cut_atXY</text>
</a>
</g>
</g>
<!-- Node3&#45;&gt;Node5 -->
<g id="edge2" class="edge">
<title>Node3&#45;&gt;Node5</title>
<path fill="none" stroke="#191970" d="M84.1358,-192.1133C101.5055,-204.1135 124.0801,-219.0761 145,-231 150.6099,-234.1975 156.6118,-237.381 162.5907,-240.4139"/>
<polygon fill="#191970" stroke="#191970" points="85.7688,-188.9853 75.5633,-186.1397 81.7668,-194.7285 85.7688,-188.9853"/>
</g>
<!-- Node6 -->
<g id="node4" class="node">
<title>Node6</title>
<g id="a_node4"><a xlink:href="structcimg__library__suffixed_1_1_c_img.html#a410d8aba50a87b5a93e1ee0306ba77a0" target="_top" xlink:title="cimg_library_suffixed\l::CImg\&lt; charT \&gt;::_cubic\l_cut_atXYZ">
<polygon fill="#ffffff" stroke="#000000" points="145,-180.5 145,-221.5 269,-221.5 269,-180.5 145,-180.5"/>
<text text-anchor="start" x="153" y="-209.5" font-family="Helvetica,sans-Serif" font-size="10.00" fill="#000000">cimg_library_suffixed</text>
<text text-anchor="start" x="153" y="-198.5" font-family="Helvetica,sans-Serif" font-size="10.00" fill="#000000">::CImg&lt; charT &gt;::_cubic</text>
<text text-anchor="middle" x="207" y="-187.5" font-family="Helvetica,sans-Serif" font-size="10.00" fill="#000000">_cut_atXYZ</text>
</a>
</g>
</g>
<!-- Node3&#45;&gt;Node6 -->
<g id="edge3" class="edge">
<title>Node3&#45;&gt;Node6</title>
<path fill="none" stroke="#191970" d="M119.079,-183.7041C127.66,-185.3921 136.443,-187.1199 144.9793,-188.7992"/>
<polygon fill="#191970" stroke="#191970" points="119.6128,-180.2421 109.1253,-181.746 118.2616,-187.1104 119.6128,-180.2421"/>
</g>
<!-- Node7 -->
<g id="node5" class="node">
<title>Node7</title>
<g id="a_node5"><a xlink:href="structcimg__library__suffixed_1_1_c_img.html#a400409cc6ba9413fbd50673625e6335a" target="_top" xlink:title="Return clamped pixel value, using cubic interpolation and Dirichlet boundary conditions for the X&#45;coo...">
<polygon fill="#ffffff" stroke="#000000" points="147.5,-120.5 147.5,-161.5 266.5,-161.5 266.5,-120.5 147.5,-120.5"/>
<text text-anchor="start" x="155.5" y="-149.5" font-family="Helvetica,sans-Serif" font-size="10.00" fill="#000000">cimg_library_suffixed</text>
<text text-anchor="start" x="155.5" y="-138.5" font-family="Helvetica,sans-Serif" font-size="10.00" fill="#000000">::CImg&lt; charT &gt;::cubic</text>
<text text-anchor="middle" x="207" y="-127.5" font-family="Helvetica,sans-Serif" font-size="10.00" fill="#000000">_cut_atX</text>
</a>
</g>
</g>
<!-- Node3&#45;&gt;Node7 -->
<g id="edge4" class="edge">
<title>Node3&#45;&gt;Node7</title>
<path fill="none" stroke="#191970" d="M119.1489,-158.2822C128.4979,-156.443 138.0851,-154.557 147.3305,-152.7383"/>
<polygon fill="#191970" stroke="#191970" points="118.2616,-154.8896 109.1253,-160.254 119.6128,-161.7579 118.2616,-154.8896"/>
</g>
<!-- Node8 -->
<g id="node6" class="node">
<title>Node8</title>
<g id="a_node6"><a xlink:href="structcimg__library__suffixed_1_1_c_img.html#ad74951678b673f186bcf7adc4b976cc8" target="_top" xlink:title="Return clamped pixel value, using cubic interpolation and Dirichlet boundary conditions for the X...">
<polygon fill="#ffffff" stroke="#000000" points="147.5,-60.5 147.5,-101.5 266.5,-101.5 266.5,-60.5 147.5,-60.5"/>
<text text-anchor="start" x="155.5" y="-89.5" font-family="Helvetica,sans-Serif" font-size="10.00" fill="#000000">cimg_library_suffixed</text>
<text text-anchor="start" x="155.5" y="-78.5" font-family="Helvetica,sans-Serif" font-size="10.00" fill="#000000">::CImg&lt; charT &gt;::cubic</text>
<text text-anchor="middle" x="207" y="-67.5" font-family="Helvetica,sans-Serif" font-size="10.00" fill="#000000">_cut_atXY</text>
</a>
</g>
</g>
<!-- Node3&#45;&gt;Node8 -->
<g id="edge5" class="edge">
<title>Node3&#45;&gt;Node8</title>
<path fill="none" stroke="#191970" d="M84.1358,-149.8867C101.5055,-137.8865 124.0801,-122.9239 145,-111 150.6099,-107.8025 156.6118,-104.619 162.5907,-101.5861"/>
<polygon fill="#191970" stroke="#191970" points="81.7668,-147.2715 75.5633,-155.8603 85.7688,-153.0147 81.7668,-147.2715"/>
</g>
<!-- Node9 -->
<g id="node7" class="node">
<title>Node9</title>
<g id="a_node7"><a xlink:href="structcimg__library__suffixed_1_1_c_img.html#a36375932eba1f1062034c42b934c7788" target="_top" xlink:title="Return clamped pixel value, using cubic interpolation and Dirichlet boundary conditions for the XYZ&#45;c...">
<polygon fill="#ffffff" stroke="#000000" points="147.5,-.5 147.5,-41.5 266.5,-41.5 266.5,-.5 147.5,-.5"/>
<text text-anchor="start" x="155.5" y="-29.5" font-family="Helvetica,sans-Serif" font-size="10.00" fill="#000000">cimg_library_suffixed</text>
<text text-anchor="start" x="155.5" y="-18.5" font-family="Helvetica,sans-Serif" font-size="10.00" fill="#000000">::CImg&lt; charT &gt;::cubic</text>
<text text-anchor="middle" x="207" y="-7.5" font-family="Helvetica,sans-Serif" font-size="10.00" fill="#000000">_cut_atXYZ</text>
</a>
</g>
</g>
<!-- Node3&#45;&gt;Node9 -->
<g id="edge6" class="edge">
<title>Node3&#45;&gt;Node9</title>
<path fill="none" stroke="#191970" d="M67.8779,-146.9642C83.5289,-120.6128 111.5974,-78.4365 145,-51 149.1581,-47.5846 153.7701,-44.4429 158.548,-41.5843"/>
<polygon fill="#191970" stroke="#191970" points="64.6836,-145.4951 62.6866,-155.9 70.7364,-149.0114 64.6836,-145.4951"/>
</g>
</g>
</svg>
