<?xml version="1.0" encoding="UTF-8" standalone="no"?>
<!DOCTYPE svg PUBLIC "-//W3C//DTD SVG 1.1//EN"
 "http://www.w3.org/Graphics/SVG/1.1/DTD/svg11.dtd">
<!-- Generated by graphviz version 2.40.1 (20161225.0304)
 -->
<!-- Title: cimg_library_suffixed::CImg::resize Pages: 1 -->
<!--zoomable 1560 -->
<svg id="main" version="1.1" xmlns="http://www.w3.org/2000/svg" xmlns:xlink="http://www.w3.org/1999/xlink" xml:space="preserve" onload="init(evt)">
<style type="text/css"><![CDATA[
.edge:hover path { stroke: red; }
.edge:hover polygon { stroke: red; fill: red; }
]]></style>
<script type="text/javascript"><![CDATA[
var edges = document.getElementsByTagName('g');
if (edges && edges.length) {
  for (var i=0;i<edges.length;i++) {
    if (edges[i].id.substr(0,4)=='edge') {
      edges[i].setAttribute('class','edge');
    }
  }
}
]]></script>
        <defs>
                <circle id="rim" cx="0" cy="0" r="7"/>
                <circle id="rim2" cx="0" cy="0" r="3.5"/>
                <g id="zoomPlus">
                        <use xlink:href="#rim" fill="#404040">
                                <set attributeName="fill" to="#808080" begin="zoomplus.mouseover" end="zoomplus.mouseout"/>
                        </use>
                        <path d="M-4,0h8M0,-4v8" fill="none" stroke="white" stroke-width="1.5" pointer-events="none"/>
                </g>
                <g id="zoomMin">
                        <use xlink:href="#rim" fill="#404040">
                                <set attributeName="fill" to="#808080" begin="zoomminus.mouseover" end="zoomminus.mouseout"/>
                        </use>
                        <path d="M-4,0h8" fill="none" stroke="white" stroke-width="1.5" pointer-events="none"/>
                </g>
                <g id="dirArrow">
                        <path fill="none" stroke="white" stroke-width="1.5" d="M0,-3.0v7 M-2.5,-0.5L0,-3.0L2.5,-0.5"/>
                </g>
               <g id="resetDef">
                       <use xlink:href="#rim2" fill="#404040">
                               <set attributeName="fill" to="#808080" begin="reset.mouseover" end="reset.mouseout"/>
                       </use>
               </g>
        </defs>

<script type="text/javascript">
var viewWidth = 296;
var viewHeight = 1560;
var sectionId = 'dynsection-141';
</script>
<script xlink:href="svgpan.js"/>
<svg id="graph" class="graph">
<g id="viewport">
<title>cimg_library_suffixed::CImg::resize</title>
<polygon fill="#ffffff" stroke="transparent" points="-4,4 -4,-1555.5 292,-1555.5 292,4 -4,4"/>
<!-- Node2888 -->
<g id="node1" class="node">
<title>Node2888</title>
<polygon fill="#bfbfbf" stroke="#000000" points="0,-765.5 0,-795.5 109,-795.5 109,-765.5 0,-765.5"/>
<text text-anchor="start" x="8" y="-783.5" font-family="Helvetica,sans-Serif" font-size="10.00" fill="#000000">cimg_library_suffixed</text>
<text text-anchor="middle" x="54.5" y="-772.5" font-family="Helvetica,sans-Serif" font-size="10.00" fill="#000000">::CImg::resize</text>
</g>
<!-- Node2889 -->
<g id="node2" class="node">
<title>Node2889</title>
<g id="a_node2"><a xlink:href="structcimg__library__suffixed_1_1_c_img_list.html#aeb6a521c8b09a85000e5f39a1dbbc1d0" target="_top" xlink:title="cimg_library_suffixed\l::CImgList\&lt; charT \&gt;::\l__display">
<polygon fill="#ffffff" stroke="#000000" points="161,-1510 161,-1551 272,-1551 272,-1510 161,-1510"/>
<text text-anchor="start" x="169" y="-1539" font-family="Helvetica,sans-Serif" font-size="10.00" fill="#000000">cimg_library_suffixed</text>
<text text-anchor="start" x="169" y="-1528" font-family="Helvetica,sans-Serif" font-size="10.00" fill="#000000">::CImgList&lt; charT &gt;::</text>
<text text-anchor="middle" x="216.5" y="-1517" font-family="Helvetica,sans-Serif" font-size="10.00" fill="#000000">__display</text>
</a>
</g>
</g>
<!-- Node2888&#45;&gt;Node2889 -->
<g id="edge1" class="edge">
<title>Node2888&#45;&gt;Node2889</title>
<path fill="none" stroke="#191970" d="M56.1966,-805.9858C64.4798,-927.43 102.0195,-1443.8776 145,-1500.5 149.2323,-1506.0756 154.6953,-1510.624 160.7144,-1514.3323"/>
<polygon fill="#191970" stroke="#191970" points="59.6741,-805.5338 55.5071,-795.7928 52.6901,-806.0063 59.6741,-805.5338"/>
</g>
<!-- Node2890 -->
<g id="node3" class="node">
<title>Node2890</title>
<g id="a_node3"><a xlink:href="structcimg__library__suffixed_1_1_c_img_1_1__cimg__math__parser.html#a591684f81af8ba85885b7de9c0c6ca5f" target="_top" xlink:title="cimg_library_suffixed\l::CImg::_cimg_math_parser\l::_cimg_math_parser">
<polygon fill="#ffffff" stroke="#000000" points="147.5,-1450 147.5,-1491 285.5,-1491 285.5,-1450 147.5,-1450"/>
<text text-anchor="start" x="155.5" y="-1479" font-family="Helvetica,sans-Serif" font-size="10.00" fill="#000000">cimg_library_suffixed</text>
<text text-anchor="start" x="155.5" y="-1468" font-family="Helvetica,sans-Serif" font-size="10.00" fill="#000000">::CImg::_cimg_math_parser</text>
<text text-anchor="middle" x="216.5" y="-1457" font-family="Helvetica,sans-Serif" font-size="10.00" fill="#000000">::_cimg_math_parser</text>
</a>
</g>
</g>
<!-- Node2888&#45;&gt;Node2890 -->
<g id="edge2" class="edge">
<title>Node2888&#45;&gt;Node2890</title>
<path fill="none" stroke="#191970" d="M54.7111,-805.6982C56.0928,-913.9052 66.5097,-1338.2941 145,-1440.5 147.7057,-1444.0232 150.902,-1447.1367 154.4173,-1449.8874"/>
<polygon fill="#191970" stroke="#191970" points="58.211,-805.6541 54.5984,-795.6943 51.2114,-805.7331 58.211,-805.6541"/>
</g>
<!-- Node2891 -->
<g id="node4" class="node">
<title>Node2891</title>
<g id="a_node4"><a xlink:href="structcimg__library__suffixed_1_1_c_img.html#a8b40db5a9818c3f961a90840b271de6c" target="_top" xlink:title="cimg_library_suffixed\l::CImg\&lt; charT \&gt;::_display\l_object3d">
<polygon fill="#ffffff" stroke="#000000" points="151,-1390 151,-1431 282,-1431 282,-1390 151,-1390"/>
<text text-anchor="start" x="159" y="-1419" font-family="Helvetica,sans-Serif" font-size="10.00" fill="#000000">cimg_library_suffixed</text>
<text text-anchor="start" x="159" y="-1408" font-family="Helvetica,sans-Serif" font-size="10.00" fill="#000000">::CImg&lt; charT &gt;::_display</text>
<text text-anchor="middle" x="216.5" y="-1397" font-family="Helvetica,sans-Serif" font-size="10.00" fill="#000000">_object3d</text>
</a>
</g>
</g>
<!-- Node2888&#45;&gt;Node2891 -->
<g id="edge3" class="edge">
<title>Node2888&#45;&gt;Node2891</title>
<path fill="none" stroke="#191970" d="M55.0944,-805.6648C57.9719,-907.5777 73.4194,-1288.5763 145,-1380.5 147.7293,-1384.005 150.9431,-1387.1049 154.4711,-1389.8458"/>
<polygon fill="#191970" stroke="#191970" points="58.5931,-805.5668 54.8278,-795.6637 51.5956,-805.7534 58.5931,-805.5668"/>
</g>
<!-- Node2892 -->
<g id="node5" class="node">
<title>Node2892</title>
<g id="a_node5"><a xlink:href="structcimg__library__suffixed_1_1_c_img.html#a6dba86c8049ae141ffc9936b2eaf5c5c" target="_top" xlink:title="cimg_library_suffixed\l::CImg\&lt; charT \&gt;::_draw\l_object3d">
<polygon fill="#ffffff" stroke="#000000" points="155.5,-1330 155.5,-1371 277.5,-1371 277.5,-1330 155.5,-1330"/>
<text text-anchor="start" x="163.5" y="-1359" font-family="Helvetica,sans-Serif" font-size="10.00" fill="#000000">cimg_library_suffixed</text>
<text text-anchor="start" x="163.5" y="-1348" font-family="Helvetica,sans-Serif" font-size="10.00" fill="#000000">::CImg&lt; charT &gt;::_draw</text>
<text text-anchor="middle" x="216.5" y="-1337" font-family="Helvetica,sans-Serif" font-size="10.00" fill="#000000">_object3d</text>
</a>
</g>
</g>
<!-- Node2888&#45;&gt;Node2892 -->
<g id="edge4" class="edge">
<title>Node2888&#45;&gt;Node2892</title>
<path fill="none" stroke="#191970" d="M55.5707,-805.8667C60.0765,-901.4922 80.3578,-1238.8716 145,-1320.5 147.925,-1324.1936 151.3867,-1327.4381 155.1837,-1330.2871"/>
<polygon fill="#191970" stroke="#191970" points="59.0581,-805.5069 55.1079,-795.676 52.0653,-805.8246 59.0581,-805.5069"/>
</g>
<!-- Node2893 -->
<g id="node6" class="node">
<title>Node2893</title>
<g id="a_node6"><a xlink:href="structcimg__library__suffixed_1_1_c_img.html#adffe80db5906bbcbe875031ab0ba3a82" target="_top" xlink:title="cimg_library_suffixed\l::CImg\&lt; charT \&gt;::_draw_text">
<polygon fill="#ffffff" stroke="#000000" points="145,-1280.5 145,-1310.5 288,-1310.5 288,-1280.5 145,-1280.5"/>
<text text-anchor="start" x="153" y="-1298.5" font-family="Helvetica,sans-Serif" font-size="10.00" fill="#000000">cimg_library_suffixed</text>
<text text-anchor="middle" x="216.5" y="-1287.5" font-family="Helvetica,sans-Serif" font-size="10.00" fill="#000000">::CImg&lt; charT &gt;::_draw_text</text>
</a>
</g>
</g>
<!-- Node2888&#45;&gt;Node2893 -->
<g id="edge5" class="edge">
<title>Node2888&#45;&gt;Node2893</title>
<path fill="none" stroke="#191970" d="M55.8763,-805.6524C61.2748,-895.5064 83.801,-1199.0879 145,-1270.5 148.3373,-1274.3942 152.3171,-1277.6821 156.6663,-1280.458"/>
<polygon fill="#191970" stroke="#191970" points="59.3639,-805.3367 55.2886,-795.557 52.3758,-805.7435 59.3639,-805.3367"/>
</g>
<!-- Node2894 -->
<g id="node7" class="node">
<title>Node2894</title>
<g id="a_node7"><a xlink:href="structcimg__library__suffixed_1_1_c_img_list.html#afa25415a30608d507bc22bd6b85b5c1e" target="_top" xlink:title="cimg_library_suffixed\l::CImgList\&lt; charT \&gt;::\l_save_yuv">
<polygon fill="#ffffff" stroke="#000000" points="161,-1220 161,-1261 272,-1261 272,-1220 161,-1220"/>
<text text-anchor="start" x="169" y="-1249" font-family="Helvetica,sans-Serif" font-size="10.00" fill="#000000">cimg_library_suffixed</text>
<text text-anchor="start" x="169" y="-1238" font-family="Helvetica,sans-Serif" font-size="10.00" fill="#000000">::CImgList&lt; charT &gt;::</text>
<text text-anchor="middle" x="216.5" y="-1227" font-family="Helvetica,sans-Serif" font-size="10.00" fill="#000000">_save_yuv</text>
</a>
</g>
</g>
<!-- Node2888&#45;&gt;Node2894 -->
<g id="edge6" class="edge">
<title>Node2888&#45;&gt;Node2894</title>
<path fill="none" stroke="#191970" d="M56.7691,-805.9081C64.6011,-888.4651 92.9191,-1147.4591 145,-1210.5 149.3726,-1215.7928 154.8407,-1220.1674 160.7943,-1223.7796"/>
<polygon fill="#191970" stroke="#191970" points="60.2484,-805.5219 55.8378,-795.8888 53.2784,-806.1699 60.2484,-805.5219"/>
</g>
<!-- Node2895 -->
<g id="node8" class="node">
<title>Node2895</title>
<g id="a_node8"><a xlink:href="structcimg__library__suffixed_1_1_c_img.html#ad9b7141242d0b6e861a8014112ddb5b5" target="_top" xlink:title="cimg_library_suffixed\l::CImg\&lt; charT \&gt;::_select">
<polygon fill="#ffffff" stroke="#000000" points="153,-1170.5 153,-1200.5 280,-1200.5 280,-1170.5 153,-1170.5"/>
<text text-anchor="start" x="161" y="-1188.5" font-family="Helvetica,sans-Serif" font-size="10.00" fill="#000000">cimg_library_suffixed</text>
<text text-anchor="middle" x="216.5" y="-1177.5" font-family="Helvetica,sans-Serif" font-size="10.00" fill="#000000">::CImg&lt; charT &gt;::_select</text>
</a>
</g>
</g>
<!-- Node2888&#45;&gt;Node2895 -->
<g id="edge7" class="edge">
<title>Node2888&#45;&gt;Node2895</title>
<path fill="none" stroke="#191970" d="M57.3856,-806.0265C66.498,-882.4174 96.9333,-1107.2322 145,-1160.5 148.5239,-1164.4052 152.6921,-1167.7003 157.2174,-1170.4808"/>
<polygon fill="#191970" stroke="#191970" points="60.8358,-805.3958 56.1963,-795.8708 53.8833,-806.21 60.8358,-805.3958"/>
</g>
<!-- Node2896 -->
<g id="node9" class="node">
<title>Node2896</title>
<g id="a_node9"><a xlink:href="structcimg__library__suffixed_1_1_c_img_list.html#af8a6b01f20b2d459e5abe6b99836ea9a" target="_top" xlink:title="cimg_library_suffixed\l::CImgList\&lt; charT \&gt;::\l_select">
<polygon fill="#ffffff" stroke="#000000" points="161,-1110 161,-1151 272,-1151 272,-1110 161,-1110"/>
<text text-anchor="start" x="169" y="-1139" font-family="Helvetica,sans-Serif" font-size="10.00" fill="#000000">cimg_library_suffixed</text>
<text text-anchor="start" x="169" y="-1128" font-family="Helvetica,sans-Serif" font-size="10.00" fill="#000000">::CImgList&lt; charT &gt;::</text>
<text text-anchor="middle" x="216.5" y="-1117" font-family="Helvetica,sans-Serif" font-size="10.00" fill="#000000">_select</text>
</a>
</g>
</g>
<!-- Node2888&#45;&gt;Node2896 -->
<g id="edge8" class="edge">
<title>Node2888&#45;&gt;Node2896</title>
<path fill="none" stroke="#191970" d="M58.7473,-805.823C70.5157,-873.3556 105.3071,-1055.6586 145,-1100.5 149.4613,-1105.5399 154.9073,-1109.7555 160.7834,-1113.2766"/>
<polygon fill="#191970" stroke="#191970" points="62.143,-804.9172 56.999,-795.6549 55.2442,-806.1034 62.143,-804.9172"/>
</g>
<!-- Node2897 -->
<g id="node10" class="node">
<title>Node2897</title>
<g id="a_node10"><a xlink:href="structcimg__library__suffixed_1_1_c_img_1_1__cimg__math__parser.html#a318c44c5d1f4f0114355f37ace87a4ae" target="_top" xlink:title="cimg_library_suffixed\l::CImg::_cimg_math_parser\l::compile">
<polygon fill="#ffffff" stroke="#000000" points="147.5,-1050 147.5,-1091 285.5,-1091 285.5,-1050 147.5,-1050"/>
<text text-anchor="start" x="155.5" y="-1079" font-family="Helvetica,sans-Serif" font-size="10.00" fill="#000000">cimg_library_suffixed</text>
<text text-anchor="start" x="155.5" y="-1068" font-family="Helvetica,sans-Serif" font-size="10.00" fill="#000000">::CImg::_cimg_math_parser</text>
<text text-anchor="middle" x="216.5" y="-1057" font-family="Helvetica,sans-Serif" font-size="10.00" fill="#000000">::compile</text>
</a>
</g>
</g>
<!-- Node2888&#45;&gt;Node2897 -->
<g id="edge9" class="edge">
<title>Node2888&#45;&gt;Node2897</title>
<path fill="none" stroke="#191970" d="M56.5422,-805.6774C61.9515,-856.5114 80.9711,-972.3518 145,-1040.5 148.3184,-1044.0318 152.1174,-1047.1636 156.1962,-1049.938"/>
<polygon fill="#191970" stroke="#191970" points="60.0119,-805.1956 55.5589,-795.5821 53.0449,-805.8743 60.0119,-805.1956"/>
</g>
<!-- Node2898 -->
<g id="node11" class="node">
<title>Node2898</title>
<g id="a_node11"><a xlink:href="structcimg__library__suffixed_1_1_c_img_1_1__cimg__math__parser.html#a1e4b329d6551265b58f355ea6d2229dd" target="_top" xlink:title="cimg_library_suffixed\l::CImg::_cimg_math_parser\l::constant">
<polygon fill="#ffffff" stroke="#000000" points="147.5,-990 147.5,-1031 285.5,-1031 285.5,-990 147.5,-990"/>
<text text-anchor="start" x="155.5" y="-1019" font-family="Helvetica,sans-Serif" font-size="10.00" fill="#000000">cimg_library_suffixed</text>
<text text-anchor="start" x="155.5" y="-1008" font-family="Helvetica,sans-Serif" font-size="10.00" fill="#000000">::CImg::_cimg_math_parser</text>
<text text-anchor="middle" x="216.5" y="-997" font-family="Helvetica,sans-Serif" font-size="10.00" fill="#000000">::constant</text>
</a>
</g>
</g>
<!-- Node2888&#45;&gt;Node2898 -->
<g id="edge10" class="edge">
<title>Node2888&#45;&gt;Node2898</title>
<path fill="none" stroke="#191970" d="M59.5853,-805.5967C69.2394,-847.2248 93.9832,-930.8752 145,-980.5 148.5703,-983.9729 152.6022,-987.0686 156.8876,-989.8236"/>
<polygon fill="#191970" stroke="#191970" points="62.9799,-804.7374 57.3998,-795.7311 56.1455,-806.2515 62.9799,-804.7374"/>
</g>
<!-- Node2899 -->
<g id="node12" class="node">
<title>Node2899</title>
<g id="a_node12"><a xlink:href="structcimg__library__suffixed_1_1_c_img.html#a0783d1845462d2d1f70d9fe3bc9708a2" target="_top" xlink:title="Return colormap &quot;cube&quot;, containing 256 colors entries in RGB. ">
<polygon fill="#ffffff" stroke="#000000" points="158.5,-930 158.5,-971 274.5,-971 274.5,-930 158.5,-930"/>
<text text-anchor="start" x="166.5" y="-959" font-family="Helvetica,sans-Serif" font-size="10.00" fill="#000000">cimg_library_suffixed</text>
<text text-anchor="start" x="166.5" y="-948" font-family="Helvetica,sans-Serif" font-size="10.00" fill="#000000">::CImg&lt; charT &gt;::cube</text>
<text text-anchor="middle" x="216.5" y="-937" font-family="Helvetica,sans-Serif" font-size="10.00" fill="#000000">_LUT256</text>
</a>
</g>
</g>
<!-- Node2888&#45;&gt;Node2899 -->
<g id="edge11" class="edge">
<title>Node2888&#45;&gt;Node2899</title>
<path fill="none" stroke="#191970" d="M64.7043,-804.8367C78.6976,-835.569 106.5563,-888.3092 145,-920.5 149.1284,-923.9569 153.7123,-927.066 158.5086,-929.8515"/>
<polygon fill="#191970" stroke="#191970" points="67.9015,-803.4126 60.6523,-795.686 61.5009,-806.2468 67.9015,-803.4126"/>
</g>
<!-- Node2900 -->
<g id="node13" class="node">
<title>Node2900</title>
<g id="a_node13"><a xlink:href="namespacecimg__library__suffixed_1_1cimg.html#a11aed0e6b30d75bf50946ee78d1aed94" target="_top" xlink:title="Display a simple dialog box, and wait for the user&#39;s response. ">
<polygon fill="#ffffff" stroke="#000000" points="162,-880.5 162,-910.5 271,-910.5 271,-880.5 162,-880.5"/>
<text text-anchor="start" x="170" y="-898.5" font-family="Helvetica,sans-Serif" font-size="10.00" fill="#000000">cimg_library_suffixed</text>
<text text-anchor="middle" x="216.5" y="-887.5" font-family="Helvetica,sans-Serif" font-size="10.00" fill="#000000">::cimg::dialog</text>
</a>
</g>
</g>
<!-- Node2888&#45;&gt;Node2900 -->
<g id="edge12" class="edge">
<title>Node2888&#45;&gt;Node2900</title>
<path fill="none" stroke="#191970" d="M72.4414,-803.427C89.2705,-823.5701 116.1149,-852.4108 145,-870.5 151.0183,-874.269 157.679,-877.5602 164.4433,-880.4077"/>
<polygon fill="#191970" stroke="#191970" points="75.1178,-801.1708 66.0767,-795.6473 69.6999,-805.6034 75.1178,-801.1708"/>
</g>
<!-- Node2901 -->
<g id="node14" class="node">
<title>Node2901</title>
<g id="a_node14"><a xlink:href="structcimg__library__suffixed_1_1_c_img.html#adb5bd770cc77e0989d01df4498f5138c" target="_top" xlink:title="Return colormap &quot;flag&quot;, containing 256 colors entries in RGB. ">
<polygon fill="#ffffff" stroke="#000000" points="161,-820 161,-861 272,-861 272,-820 161,-820"/>
<text text-anchor="start" x="169" y="-849" font-family="Helvetica,sans-Serif" font-size="10.00" fill="#000000">cimg_library_suffixed</text>
<text text-anchor="start" x="169" y="-838" font-family="Helvetica,sans-Serif" font-size="10.00" fill="#000000">::CImg&lt; charT &gt;::flag</text>
<text text-anchor="middle" x="216.5" y="-827" font-family="Helvetica,sans-Serif" font-size="10.00" fill="#000000">_LUT256</text>
</a>
</g>
</g>
<!-- Node2888&#45;&gt;Node2901 -->
<g id="edge13" class="edge">
<title>Node2888&#45;&gt;Node2901</title>
<path fill="none" stroke="#191970" d="M104.9832,-799.1975C122.7423,-805.7749 142.7938,-813.2014 160.9471,-819.9249"/>
<polygon fill="#191970" stroke="#191970" points="105.9726,-795.8316 95.3794,-795.6405 103.5413,-802.3959 105.9726,-795.8316"/>
</g>
<!-- Node2902 -->
<g id="node15" class="node">
<title>Node2902</title>
<g id="a_node15"><a xlink:href="structcimg__library__suffixed_1_1_c_img.html#a6ba47b8f6a36f4ed802449d53f898c00" target="_top" xlink:title="Convolve image by a kernel . ">
<polygon fill="#ffffff" stroke="#000000" points="162,-760 162,-801 271,-801 271,-760 162,-760"/>
<text text-anchor="start" x="170" y="-789" font-family="Helvetica,sans-Serif" font-size="10.00" fill="#000000">cimg_library_suffixed</text>
<text text-anchor="start" x="170" y="-778" font-family="Helvetica,sans-Serif" font-size="10.00" fill="#000000">::CImg&lt; charT &gt;::get</text>
<text text-anchor="middle" x="216.5" y="-767" font-family="Helvetica,sans-Serif" font-size="10.00" fill="#000000">_convolve</text>
</a>
</g>
</g>
<!-- Node2888&#45;&gt;Node2902 -->
<g id="edge14" class="edge">
<title>Node2888&#45;&gt;Node2902</title>
<path fill="none" stroke="#191970" d="M119.4668,-780.5C133.5654,-780.5 148.3392,-780.5 161.9858,-780.5"/>
<polygon fill="#191970" stroke="#191970" points="119.3458,-777.0001 109.3458,-780.5 119.3458,-784.0001 119.3458,-777.0001"/>
</g>
<!-- Node2903 -->
<g id="node16" class="node">
<title>Node2903</title>
<g id="a_node16"><a xlink:href="structcimg__library__suffixed_1_1_c_img.html#a158d3e9bd97132548046647db70e0fc5" target="_top" xlink:title="cimg_library_suffixed\l::CImg\&lt; charT \&gt;::get\l_discard">
<polygon fill="#ffffff" stroke="#000000" points="162,-700 162,-741 271,-741 271,-700 162,-700"/>
<text text-anchor="start" x="170" y="-729" font-family="Helvetica,sans-Serif" font-size="10.00" fill="#000000">cimg_library_suffixed</text>
<text text-anchor="start" x="170" y="-718" font-family="Helvetica,sans-Serif" font-size="10.00" fill="#000000">::CImg&lt; charT &gt;::get</text>
<text text-anchor="middle" x="216.5" y="-707" font-family="Helvetica,sans-Serif" font-size="10.00" fill="#000000">_discard</text>
</a>
</g>
</g>
<!-- Node2888&#45;&gt;Node2903 -->
<g id="edge15" class="edge">
<title>Node2888&#45;&gt;Node2903</title>
<path fill="none" stroke="#191970" d="M105.1228,-761.7508C123.1455,-755.0758 143.5144,-747.5317 161.8589,-740.7375"/>
<polygon fill="#191970" stroke="#191970" points="103.5413,-758.6041 95.3794,-765.3595 105.9726,-765.1684 103.5413,-758.6041"/>
</g>
<!-- Node2904 -->
<g id="node17" class="node">
<title>Node2904</title>
<g id="a_node17"><a xlink:href="structcimg__library__suffixed_1_1_c_img.html#a2f69ebdf31dfb711698fe30753714c4b" target="_top" xlink:title="Return colormap &quot;hot&quot;, containing 256 colors entries in RGB. ">
<polygon fill="#ffffff" stroke="#000000" points="162,-640 162,-681 271,-681 271,-640 162,-640"/>
<text text-anchor="start" x="170" y="-669" font-family="Helvetica,sans-Serif" font-size="10.00" fill="#000000">cimg_library_suffixed</text>
<text text-anchor="start" x="170" y="-658" font-family="Helvetica,sans-Serif" font-size="10.00" fill="#000000">::CImg&lt; charT &gt;::hot</text>
<text text-anchor="middle" x="216.5" y="-647" font-family="Helvetica,sans-Serif" font-size="10.00" fill="#000000">_LUT256</text>
</a>
</g>
</g>
<!-- Node2888&#45;&gt;Node2904 -->
<g id="edge16" class="edge">
<title>Node2888&#45;&gt;Node2904</title>
<path fill="none" stroke="#191970" d="M73.0037,-757.6481C90.029,-737.7981 116.841,-709.352 145,-690.5 150.2575,-686.9802 155.9945,-683.7416 161.8578,-680.7997"/>
<polygon fill="#191970" stroke="#191970" points="70.3108,-755.4123 66.546,-765.3156 75.6649,-759.9216 70.3108,-755.4123"/>
</g>
<!-- Node2905 -->
<g id="node18" class="node">
<title>Node2905</title>
<g id="a_node18"><a xlink:href="structcimg__library__suffixed_1_1_c_img.html#a5d583ac0b28ff49e4fd09216a8ccd5c9" target="_top" xlink:title="Return colormap &quot;jet&quot;, containing 256 colors entries in RGB. ">
<polygon fill="#ffffff" stroke="#000000" points="162,-580 162,-621 271,-621 271,-580 162,-580"/>
<text text-anchor="start" x="170" y="-609" font-family="Helvetica,sans-Serif" font-size="10.00" fill="#000000">cimg_library_suffixed</text>
<text text-anchor="start" x="170" y="-598" font-family="Helvetica,sans-Serif" font-size="10.00" fill="#000000">::CImg&lt; charT &gt;::jet</text>
<text text-anchor="middle" x="216.5" y="-587" font-family="Helvetica,sans-Serif" font-size="10.00" fill="#000000">_LUT256</text>
</a>
</g>
</g>
<!-- Node2888&#45;&gt;Node2905 -->
<g id="edge17" class="edge">
<title>Node2888&#45;&gt;Node2905</title>
<path fill="none" stroke="#191970" d="M63.839,-755.4342C77.2066,-722.6519 104.7139,-665.3096 145,-630.5 149.9911,-626.1874 155.691,-622.4266 161.6456,-619.1644"/>
<polygon fill="#191970" stroke="#191970" points="60.4177,-754.5686 59.9975,-765.1551 66.9278,-757.1414 60.4177,-754.5686"/>
</g>
<!-- Node2906 -->
<g id="node19" class="node">
<title>Node2906</title>
<g id="a_node19"><a xlink:href="structcimg__library__suffixed_1_1_c_img_1_1__cimg__math__parser.html#ad1a26d5e0bb46bb8e44f62103543fe67" target="_top" xlink:title="cimg_library_suffixed\l::CImg::_cimg_math_parser\l::mp_display">
<polygon fill="#ffffff" stroke="#000000" points="147.5,-520 147.5,-561 285.5,-561 285.5,-520 147.5,-520"/>
<text text-anchor="start" x="155.5" y="-549" font-family="Helvetica,sans-Serif" font-size="10.00" fill="#000000">cimg_library_suffixed</text>
<text text-anchor="start" x="155.5" y="-538" font-family="Helvetica,sans-Serif" font-size="10.00" fill="#000000">::CImg::_cimg_math_parser</text>
<text text-anchor="middle" x="216.5" y="-527" font-family="Helvetica,sans-Serif" font-size="10.00" fill="#000000">::mp_display</text>
</a>
</g>
</g>
<!-- Node2888&#45;&gt;Node2906 -->
<g id="edge18" class="edge">
<title>Node2888&#45;&gt;Node2906</title>
<path fill="none" stroke="#191970" d="M58.9646,-755.3991C67.8881,-712.1498 91.8235,-623.1668 145,-570.5 148.5389,-566.9951 152.5484,-563.8766 156.8185,-561.1061"/>
<polygon fill="#191970" stroke="#191970" points="55.5013,-754.8727 57.0107,-765.3594 62.3703,-756.2202 55.5013,-754.8727"/>
</g>
<!-- Node2907 -->
<g id="node20" class="node">
<title>Node2907</title>
<g id="a_node20"><a xlink:href="structcimg__library__suffixed_1_1_c_img_1_1__cimg__math__parser.html#a4cd30507977620b554a3d18a99901ec5" target="_top" xlink:title="cimg_library_suffixed\l::CImg::_cimg_math_parser\l::mp_ellipse">
<polygon fill="#ffffff" stroke="#000000" points="147.5,-460 147.5,-501 285.5,-501 285.5,-460 147.5,-460"/>
<text text-anchor="start" x="155.5" y="-489" font-family="Helvetica,sans-Serif" font-size="10.00" fill="#000000">cimg_library_suffixed</text>
<text text-anchor="start" x="155.5" y="-478" font-family="Helvetica,sans-Serif" font-size="10.00" fill="#000000">::CImg::_cimg_math_parser</text>
<text text-anchor="middle" x="216.5" y="-467" font-family="Helvetica,sans-Serif" font-size="10.00" fill="#000000">::mp_ellipse</text>
</a>
</g>
</g>
<!-- Node2888&#45;&gt;Node2907 -->
<g id="edge19" class="edge">
<title>Node2888&#45;&gt;Node2907</title>
<path fill="none" stroke="#191970" d="M56.1449,-755.4488C60.86,-703.2675 78.7261,-581.8586 145,-510.5 148.2979,-506.9491 152.0822,-503.8036 156.1509,-501.0197"/>
<polygon fill="#191970" stroke="#191970" points="52.6505,-755.2385 55.3256,-765.49 59.6273,-755.8078 52.6505,-755.2385"/>
</g>
<!-- Node2908 -->
<g id="node21" class="node">
<title>Node2908</title>
<g id="a_node21"><a xlink:href="structcimg__library__suffixed_1_1_c_img_1_1__cimg__math__parser.html#ad676e1626e3d1e0abc5317527ecb9e6f" target="_top" xlink:title="cimg_library_suffixed\l::CImg::_cimg_math_parser\l::mp_image_resize">
<polygon fill="#ffffff" stroke="#000000" points="147.5,-400 147.5,-441 285.5,-441 285.5,-400 147.5,-400"/>
<text text-anchor="start" x="155.5" y="-429" font-family="Helvetica,sans-Serif" font-size="10.00" fill="#000000">cimg_library_suffixed</text>
<text text-anchor="start" x="155.5" y="-418" font-family="Helvetica,sans-Serif" font-size="10.00" fill="#000000">::CImg::_cimg_math_parser</text>
<text text-anchor="middle" x="216.5" y="-407" font-family="Helvetica,sans-Serif" font-size="10.00" fill="#000000">::mp_image_resize</text>
</a>
</g>
</g>
<!-- Node2888&#45;&gt;Node2908 -->
<g id="edge20" class="edge">
<title>Node2888&#45;&gt;Node2908</title>
<path fill="none" stroke="#191970" d="M58.4942,-755.294C69.852,-686.4032 104.1642,-497.0038 145,-450.5 148.1088,-446.9597 151.7041,-443.8266 155.5946,-441.0557"/>
<polygon fill="#191970" stroke="#191970" points="55.0216,-754.8433 56.871,-765.2755 61.9308,-755.967 55.0216,-754.8433"/>
</g>
<!-- Node2909 -->
<g id="node22" class="node">
<title>Node2909</title>
<g id="a_node22"><a xlink:href="structcimg__library__suffixed_1_1_c_img_1_1__cimg__math__parser.html#a1bef99ee64aadb4adc5777e2f4ae81b8" target="_top" xlink:title="cimg_library_suffixed\l::CImg::_cimg_math_parser\l::mp_polygon">
<polygon fill="#ffffff" stroke="#000000" points="147.5,-340 147.5,-381 285.5,-381 285.5,-340 147.5,-340"/>
<text text-anchor="start" x="155.5" y="-369" font-family="Helvetica,sans-Serif" font-size="10.00" fill="#000000">cimg_library_suffixed</text>
<text text-anchor="start" x="155.5" y="-358" font-family="Helvetica,sans-Serif" font-size="10.00" fill="#000000">::CImg::_cimg_math_parser</text>
<text text-anchor="middle" x="216.5" y="-347" font-family="Helvetica,sans-Serif" font-size="10.00" fill="#000000">::mp_polygon</text>
</a>
</g>
</g>
<!-- Node2888&#45;&gt;Node2909 -->
<g id="edge21" class="edge">
<title>Node2888&#45;&gt;Node2909</title>
<path fill="none" stroke="#191970" d="M57.3819,-754.9653C66.5846,-677.4698 97.4763,-446.834 145,-390.5 147.9512,-387.0016 151.3798,-383.9034 155.1067,-381.1606"/>
<polygon fill="#191970" stroke="#191970" points="53.8646,-754.9107 56.1821,-765.2489 60.8175,-755.7219 53.8646,-754.9107"/>
</g>
<!-- Node2910 -->
<g id="node23" class="node">
<title>Node2910</title>
<g id="a_node23"><a xlink:href="structcimg__library__suffixed_1_1_c_img_1_1__cimg__math__parser.html#a8f54deae71ef6241c31ddd68b33138c0" target="_top" xlink:title="cimg_library_suffixed\l::CImg::_cimg_math_parser\l::mp_vector_resize">
<polygon fill="#ffffff" stroke="#000000" points="147.5,-280 147.5,-321 285.5,-321 285.5,-280 147.5,-280"/>
<text text-anchor="start" x="155.5" y="-309" font-family="Helvetica,sans-Serif" font-size="10.00" fill="#000000">cimg_library_suffixed</text>
<text text-anchor="start" x="155.5" y="-298" font-family="Helvetica,sans-Serif" font-size="10.00" fill="#000000">::CImg::_cimg_math_parser</text>
<text text-anchor="middle" x="216.5" y="-287" font-family="Helvetica,sans-Serif" font-size="10.00" fill="#000000">::mp_vector_resize</text>
</a>
</g>
</g>
<!-- Node2888&#45;&gt;Node2910 -->
<g id="edge22" class="edge">
<title>Node2888&#45;&gt;Node2910</title>
<path fill="none" stroke="#191970" d="M56.4894,-755.3253C63.6472,-670.5338 90.5963,-396.9575 145,-330.5 147.8992,-326.9584 151.2895,-323.8284 154.9894,-321.0631"/>
<polygon fill="#191970" stroke="#191970" points="52.9962,-755.0997 55.6616,-765.3538 59.9725,-755.6757 52.9962,-755.0997"/>
</g>
<!-- Node2911 -->
<g id="node24" class="node">
<title>Node2911</title>
<g id="a_node24"><a xlink:href="structcimg__library__suffixed_1_1_c_img_list.html#a4fcada66102d9f9245f11d2127dbe8fb" target="_top" xlink:title="Save image sequence, using the OpenCV library. ">
<polygon fill="#ffffff" stroke="#000000" points="161,-220 161,-261 272,-261 272,-220 161,-220"/>
<text text-anchor="start" x="169" y="-249" font-family="Helvetica,sans-Serif" font-size="10.00" fill="#000000">cimg_library_suffixed</text>
<text text-anchor="start" x="169" y="-238" font-family="Helvetica,sans-Serif" font-size="10.00" fill="#000000">::CImgList&lt; charT &gt;::</text>
<text text-anchor="middle" x="216.5" y="-227" font-family="Helvetica,sans-Serif" font-size="10.00" fill="#000000">save_video</text>
</a>
</g>
</g>
<!-- Node2888&#45;&gt;Node2911 -->
<g id="edge23" class="edge">
<title>Node2888&#45;&gt;Node2911</title>
<path fill="none" stroke="#191970" d="M55.8338,-755.3526C61.1713,-663.4417 83.744,-347.0962 145,-270.5 149.372,-265.0332 154.9179,-260.5494 160.9805,-256.875"/>
<polygon fill="#191970" stroke="#191970" points="52.3349,-755.2365 55.2669,-765.4175 59.3238,-755.6302 52.3349,-755.2365"/>
</g>
<!-- Node2912 -->
<g id="node25" class="node">
<title>Node2912</title>
<g id="a_node25"><a xlink:href="structcimg__library__suffixed_1_1_c_img_1_1__cimg__math__parser.html#a3fbf24a3096da0af2aca688a11feb616" target="_top" xlink:title="cimg_library_suffixed\l::CImg::_cimg_math_parser\l::scalar">
<polygon fill="#ffffff" stroke="#000000" points="147.5,-160 147.5,-201 285.5,-201 285.5,-160 147.5,-160"/>
<text text-anchor="start" x="155.5" y="-189" font-family="Helvetica,sans-Serif" font-size="10.00" fill="#000000">cimg_library_suffixed</text>
<text text-anchor="start" x="155.5" y="-178" font-family="Helvetica,sans-Serif" font-size="10.00" fill="#000000">::CImg::_cimg_math_parser</text>
<text text-anchor="middle" x="216.5" y="-167" font-family="Helvetica,sans-Serif" font-size="10.00" fill="#000000">::scalar</text>
</a>
</g>
</g>
<!-- Node2888&#45;&gt;Node2912 -->
<g id="edge24" class="edge">
<title>Node2888&#45;&gt;Node2912</title>
<path fill="none" stroke="#191970" d="M55.3273,-755.0255C59.0201,-655.9103 76.9402,-297.2068 145,-210.5 147.7429,-207.0056 150.9667,-203.9136 154.502,-201.1783"/>
<polygon fill="#191970" stroke="#191970" points="51.8197,-755.1798 54.9617,-765.298 58.8152,-755.4288 51.8197,-755.1798"/>
</g>
<!-- Node2913 -->
<g id="node26" class="node">
<title>Node2913</title>
<g id="a_node26"><a xlink:href="structcimg__library__suffixed_1_1_c_img.html#a9b67f72ecd5a668a14ecb9282dc57505" target="_top" xlink:title="Return stream line of a 3d vector field. ">
<polygon fill="#ffffff" stroke="#000000" points="146.5,-110.5 146.5,-140.5 286.5,-140.5 286.5,-110.5 146.5,-110.5"/>
<text text-anchor="start" x="154.5" y="-128.5" font-family="Helvetica,sans-Serif" font-size="10.00" fill="#000000">cimg_library_suffixed</text>
<text text-anchor="middle" x="216.5" y="-117.5" font-family="Helvetica,sans-Serif" font-size="10.00" fill="#000000">::CImg&lt; charT &gt;::streamline</text>
</a>
</g>
</g>
<!-- Node2888&#45;&gt;Node2913 -->
<g id="edge25" class="edge">
<title>Node2888&#45;&gt;Node2913</title>
<path fill="none" stroke="#191970" d="M54.738,-755.3232C56.2275,-649.9309 67.0153,-245.2672 145,-150.5 148.1752,-146.6415 151.9832,-143.3776 156.1662,-140.6168"/>
<polygon fill="#191970" stroke="#191970" points="51.2379,-755.318 54.6123,-765.3611 58.2374,-755.4058 51.2379,-755.318"/>
</g>
<!-- Node2914 -->
<g id="node27" class="node">
<title>Node2914</title>
<g id="a_node27"><a xlink:href="structcimg__library__suffixed_1_1_c_img_1_1__cimg__math__parser.html#ab3f43a472fa110840243eb500a5b4b2e" target="_top" xlink:title="cimg_library_suffixed\l::CImg::_cimg_math_parser\l::vector">
<polygon fill="#ffffff" stroke="#000000" points="147.5,-50 147.5,-91 285.5,-91 285.5,-50 147.5,-50"/>
<text text-anchor="start" x="155.5" y="-79" font-family="Helvetica,sans-Serif" font-size="10.00" fill="#000000">cimg_library_suffixed</text>
<text text-anchor="start" x="155.5" y="-68" font-family="Helvetica,sans-Serif" font-size="10.00" fill="#000000">::CImg::_cimg_math_parser</text>
<text text-anchor="middle" x="216.5" y="-57" font-family="Helvetica,sans-Serif" font-size="10.00" fill="#000000">::vector</text>
</a>
</g>
</g>
<!-- Node2888&#45;&gt;Node2914 -->
<g id="edge26" class="edge">
<title>Node2888&#45;&gt;Node2914</title>
<path fill="none" stroke="#191970" d="M56.3866,-755.3772C65.3264,-638.9036 104.6722,-154.8694 145,-101.5 147.9364,-97.614 151.4609,-94.2079 155.35,-91.2235"/>
<polygon fill="#191970" stroke="#191970" points="52.8872,-755.2376 55.6174,-765.4746 59.867,-755.7694 52.8872,-755.2376"/>
</g>
<!-- Node2915 -->
<g id="node28" class="node">
<title>Node2915</title>
<g id="a_node28"><a xlink:href="structcimg__library__suffixed_1_1_c_img.html#a6c93c9f308c168756831884f1aa829af" target="_top" xlink:title="Compute watershed transform. ">
<polygon fill="#ffffff" stroke="#000000" points="146.5,-.5 146.5,-30.5 286.5,-30.5 286.5,-.5 146.5,-.5"/>
<text text-anchor="start" x="154.5" y="-18.5" font-family="Helvetica,sans-Serif" font-size="10.00" fill="#000000">cimg_library_suffixed</text>
<text text-anchor="middle" x="216.5" y="-7.5" font-family="Helvetica,sans-Serif" font-size="10.00" fill="#000000">::CImg&lt; charT &gt;::watershed</text>
</a>
</g>
</g>
<!-- Node2888&#45;&gt;Node2915 -->
<g id="edge27" class="edge">
<title>Node2888&#45;&gt;Node2915</title>
<path fill="none" stroke="#191970" d="M56.0282,-755.0513C63.6577,-631.4634 99.0898,-97.4986 145,-40.5 148.1346,-36.6084 151.914,-33.3212 156.0777,-30.5448"/>
<polygon fill="#191970" stroke="#191970" points="52.5124,-755.2041 55.3954,-765.3991 59.4993,-755.6314 52.5124,-755.2041"/>
</g>
</g>
</svg>
        <g id="navigator" transform="translate(0 0)" fill="#404254">
                <rect fill="#f2f5e9" fill-opacity="0.5" stroke="#606060" stroke-width=".5" x="0" y="0" width="60" height="60"/>
                <use id="zoomplus" xlink:href="#zoomPlus" x="17" y="9" onmousedown="handleZoom(evt,'in')"/>
                <use id="zoomminus" xlink:href="#zoomMin" x="42" y="9" onmousedown="handleZoom(evt,'out')"/>
                <use id="reset" xlink:href="#resetDef" x="30" y="36" onmousedown="handleReset()"/>
                <g id="arrowUp" xlink:href="#dirArrow" transform="translate(30 24)" onmousedown="handlePan(0,-1)">
                  <use xlink:href="#rim" fill="#404040">
                        <set attributeName="fill" to="#808080" begin="arrowUp.mouseover" end="arrowUp.mouseout"/>
                  </use>
                  <path fill="none" stroke="white" stroke-width="1.5" d="M0,-3.0v7 M-2.5,-0.5L0,-3.0L2.5,-0.5"/>
                </g>
                <g id="arrowRight" xlink:href="#dirArrow" transform="rotate(90) translate(36 -43)" onmousedown="handlePan(1,0)">
                  <use xlink:href="#rim" fill="#404040">
                        <set attributeName="fill" to="#808080" begin="arrowRight.mouseover" end="arrowRight.mouseout"/>
                  </use>
                  <path fill="none" stroke="white" stroke-width="1.5" d="M0,-3.0v7 M-2.5,-0.5L0,-3.0L2.5,-0.5"/>
                </g>
                <g id="arrowDown" xlink:href="#dirArrow" transform="rotate(180) translate(-30 -48)" onmousedown="handlePan(0,1)">
                  <use xlink:href="#rim" fill="#404040">
                        <set attributeName="fill" to="#808080" begin="arrowDown.mouseover" end="arrowDown.mouseout"/>
                  </use>
                  <path fill="none" stroke="white" stroke-width="1.5" d="M0,-3.0v7 M-2.5,-0.5L0,-3.0L2.5,-0.5"/>
                </g>
                <g id="arrowLeft" xlink:href="#dirArrow" transform="rotate(270) translate(-36 17)" onmousedown="handlePan(-1,0)">
                  <use xlink:href="#rim" fill="#404040">
                        <set attributeName="fill" to="#808080" begin="arrowLeft.mouseover" end="arrowLeft.mouseout"/>
                  </use>
                  <path fill="none" stroke="white" stroke-width="1.5" d="M0,-3.0v7 M-2.5,-0.5L0,-3.0L2.5,-0.5"/>
                </g>
        </g>
        <svg viewBox="0 0 15 15" width="100%" height="30px" preserveAspectRatio="xMaxYMin meet">
         <g id="arrow_out" transform="scale(0.3 0.3)">
          <a xlink:href="structcimg__library__suffixed_1_1_c_img_adf42a4d63a14a4199e4703743b217075_icgraph_org.svg" target="_base">
           <rect id="button" ry="5" rx="5" y="6" x="6" height="38" width="38"
                fill="#f2f5e9" fill-opacity="0.5" stroke="#606060" stroke-width="1.0"/>
           <path id="arrow"
             d="M 11.500037,31.436501 C 11.940474,20.09759 22.043105,11.32322 32.158766,21.979434 L 37.068811,17.246167 C 37.068811,17.246167 37.088388,32 37.088388,32 L 22.160133,31.978069 C 22.160133,31.978069 26.997745,27.140456 26.997745,27.140456 C 18.528582,18.264221 13.291696,25.230495 11.500037,31.436501 z"
             style="fill:#404040;"/>
          </a>
         </g>
        </svg>
</svg>
