<?xml version="1.0" encoding="UTF-8" standalone="no"?>
<!DOCTYPE svg PUBLIC "-//W3C//DTD SVG 1.1//EN"
 "http://www.w3.org/Graphics/SVG/1.1/DTD/svg11.dtd">
<!-- Generated by graphviz version 2.40.1 (20161225.0304)
 -->
<!-- Title: cimg_library_suffixed::CImg::_functor4d_streamline3d_directed::operator() Pages: 1 -->
<svg width="317pt" height="50pt"
 viewBox="0.00 0.00 317.00 50.00" xmlns="http://www.w3.org/2000/svg" xmlns:xlink="http://www.w3.org/1999/xlink">
<g id="graph0" class="graph" transform="scale(1 1) rotate(0) translate(4 46)">
<title>cimg_library_suffixed::CImg::_functor4d_streamline3d_directed::operator()</title>
<polygon fill="#ffffff" stroke="transparent" points="-4,4 -4,-46 313,-46 313,4 -4,4"/>
<!-- Node2 -->
<g id="node1" class="node">
<title>Node2</title>
<polygon fill="#bfbfbf" stroke="#000000" points="0,-.5 0,-41.5 159,-41.5 159,-.5 0,-.5"/>
<text text-anchor="start" x="8" y="-29.5" font-family="Helvetica,sans-Serif" font-size="10.00" fill="#000000">cimg_library_suffixed</text>
<text text-anchor="start" x="8" y="-18.5" font-family="Helvetica,sans-Serif" font-size="10.00" fill="#000000">::CImg::_functor4d_streamline3d</text>
<text text-anchor="middle" x="79.5" y="-7.5" font-family="Helvetica,sans-Serif" font-size="10.00" fill="#000000">_directed::operator()</text>
</g>
<!-- Node3 -->
<g id="node2" class="node">
<title>Node3</title>
<g id="a_node2"><a xlink:href="structcimg__library__suffixed_1_1_c_img.html#af62fae49d04ac84e14090602e2fc213a" target="_top" xlink:title="cimg_library_suffixed\l::CImg::_linear_atXYZ">
<polygon fill="#ffffff" stroke="#000000" points="195,-6 195,-36 309,-36 309,-6 195,-6"/>
<text text-anchor="start" x="203" y="-24" font-family="Helvetica,sans-Serif" font-size="10.00" fill="#000000">cimg_library_suffixed</text>
<text text-anchor="middle" x="252" y="-13" font-family="Helvetica,sans-Serif" font-size="10.00" fill="#000000">::CImg::_linear_atXYZ</text>
</a>
</g>
</g>
<!-- Node2&#45;&gt;Node3 -->
<g id="edge1" class="edge">
<title>Node2&#45;&gt;Node3</title>
<path fill="none" stroke="#191970" d="M159.1858,-21C167.7212,-21 176.3427,-21 184.7136,-21"/>
<polygon fill="#191970" stroke="#191970" points="184.7772,-24.5001 194.7771,-21 184.7771,-17.5001 184.7772,-24.5001"/>
</g>
</g>
</svg>
