<?xml version="1.0" encoding="UTF-8" standalone="no"?>
<!DOCTYPE svg PUBLIC "-//W3C//DTD SVG 1.1//EN"
 "http://www.w3.org/Graphics/SVG/1.1/DTD/svg11.dtd">
<!-- Generated by graphviz version 2.40.1 (20161225.0304)
 -->
<!-- Title: cimg_library_suffixed::CImg::get_resize Pages: 1 -->
<!--zoomable 499 -->
<svg id="main" version="1.1" xmlns="http://www.w3.org/2000/svg" xmlns:xlink="http://www.w3.org/1999/xlink" xml:space="preserve" onload="init(evt)">
<style type="text/css"><![CDATA[
.edge:hover path { stroke: red; }
.edge:hover polygon { stroke: red; fill: red; }
]]></style>
<script type="text/javascript"><![CDATA[
var edges = document.getElementsByTagName('g');
if (edges && edges.length) {
  for (var i=0;i<edges.length;i++) {
    if (edges[i].id.substr(0,4)=='edge') {
      edges[i].setAttribute('class','edge');
    }
  }
}
]]></script>
        <defs>
                <circle id="rim" cx="0" cy="0" r="7"/>
                <circle id="rim2" cx="0" cy="0" r="3.5"/>
                <g id="zoomPlus">
                        <use xlink:href="#rim" fill="#404040">
                                <set attributeName="fill" to="#808080" begin="zoomplus.mouseover" end="zoomplus.mouseout"/>
                        </use>
                        <path d="M-4,0h8M0,-4v8" fill="none" stroke="white" stroke-width="1.5" pointer-events="none"/>
                </g>
                <g id="zoomMin">
                        <use xlink:href="#rim" fill="#404040">
                                <set attributeName="fill" to="#808080" begin="zoomminus.mouseover" end="zoomminus.mouseout"/>
                        </use>
                        <path d="M-4,0h8" fill="none" stroke="white" stroke-width="1.5" pointer-events="none"/>
                </g>
                <g id="dirArrow">
                        <path fill="none" stroke="white" stroke-width="1.5" d="M0,-3.0v7 M-2.5,-0.5L0,-3.0L2.5,-0.5"/>
                </g>
               <g id="resetDef">
                       <use xlink:href="#rim2" fill="#404040">
                               <set attributeName="fill" to="#808080" begin="reset.mouseover" end="reset.mouseout"/>
                       </use>
               </g>
        </defs>

<script type="text/javascript">
var viewWidth = 464;
var viewHeight = 499;
var sectionId = 'dynsection-87';
</script>
<script xlink:href="svgpan.js"/>
<svg id="graph" class="graph">
<g id="viewport">
<title>cimg_library_suffixed::CImg::get_resize</title>
<polygon fill="#ffffff" stroke="transparent" points="-4,4 -4,-494.5 460,-494.5 460,4 -4,4"/>
<!-- Node1773 -->
<g id="node1" class="node">
<title>Node1773</title>
<polygon fill="#bfbfbf" stroke="#000000" points="0,-254.5 0,-284.5 109,-284.5 109,-254.5 0,-254.5"/>
<text text-anchor="start" x="8" y="-272.5" font-family="Helvetica,sans-Serif" font-size="10.00" fill="#000000">cimg_library_suffixed</text>
<text text-anchor="middle" x="54.5" y="-261.5" font-family="Helvetica,sans-Serif" font-size="10.00" fill="#000000">::CImg::get_resize</text>
</g>
<!-- Node1773&#45;&gt;Node1773 -->
<g id="edge6" class="edge">
<title>Node1773&#45;&gt;Node1773</title>
<path fill="none" stroke="#191970" d="M26.4253,-294.9579C29.9098,-299.679 39.268,-303 54.5,-303 79.4961,-303 88.6743,-294.0566 82.0348,-284.659"/>
<polygon fill="#191970" stroke="#191970" points="29.9368,-294.8286 26.9652,-284.659 22.9464,-294.462 29.9368,-294.8286"/>
</g>
<!-- Node1774 -->
<g id="node2" class="node">
<title>Node1774</title>
<g id="a_node2"><a xlink:href="structcimg__library__suffixed_1_1_c_img.html#aaa07158749f6daf52edcfb4a3b86c4ef" target="_top" xlink:title="cimg_library_suffixed\l::CImg\&lt; charT \&gt;::__get\l_select">
<polygon fill="#ffffff" stroke="#000000" points="154.5,-449 154.5,-490 273.5,-490 273.5,-449 154.5,-449"/>
<text text-anchor="start" x="162.5" y="-478" font-family="Helvetica,sans-Serif" font-size="10.00" fill="#000000">cimg_library_suffixed</text>
<text text-anchor="start" x="162.5" y="-467" font-family="Helvetica,sans-Serif" font-size="10.00" fill="#000000">::CImg&lt; charT &gt;::__get</text>
<text text-anchor="middle" x="214" y="-456" font-family="Helvetica,sans-Serif" font-size="10.00" fill="#000000">_select</text>
</a>
</g>
</g>
<!-- Node1773&#45;&gt;Node1774 -->
<g id="edge1" class="edge">
<title>Node1773&#45;&gt;Node1774</title>
<path fill="none" stroke="#191970" d="M61.9626,-294.626C73.9486,-331.047 100.7431,-398.6109 145,-439.5 148.7418,-442.9571 152.9449,-446.0571 157.382,-448.8286"/>
<polygon fill="#191970" stroke="#191970" points="65.2066,-293.2775 58.8434,-284.8064 58.5351,-295.3968 65.2066,-293.2775"/>
</g>
<!-- Node1775 -->
<g id="node3" class="node">
<title>Node1775</title>
<g id="a_node3"><a xlink:href="structcimg__library__suffixed_1_1_c_img.html#aed98b23130078df5ad69b199d88bb261" target="_top" xlink:title="Correlate image by a kernel . ">
<polygon fill="#ffffff" stroke="#000000" points="145,-399.5 145,-429.5 283,-429.5 283,-399.5 145,-399.5"/>
<text text-anchor="start" x="153" y="-417.5" font-family="Helvetica,sans-Serif" font-size="10.00" fill="#000000">cimg_library_suffixed</text>
<text text-anchor="middle" x="214" y="-406.5" font-family="Helvetica,sans-Serif" font-size="10.00" fill="#000000">::CImg&lt; charT &gt;::_correlate</text>
</a>
</g>
</g>
<!-- Node1773&#45;&gt;Node1775 -->
<g id="edge2" class="edge">
<title>Node1773&#45;&gt;Node1775</title>
<path fill="none" stroke="#191970" d="M67.1224,-293.7591C82.2655,-320.6676 110.0417,-363.6822 145,-389.5 150.1246,-393.2846 155.8795,-396.5446 161.823,-399.3404"/>
<polygon fill="#191970" stroke="#191970" points="69.9989,-291.7248 62.1251,-284.6358 63.8596,-295.0877 69.9989,-291.7248"/>
</g>
<!-- Node1776 -->
<g id="node4" class="node">
<title>Node1776</title>
<g id="a_node4"><a xlink:href="structcimg__library__suffixed_1_1_c_img.html#a6dba86c8049ae141ffc9936b2eaf5c5c" target="_top" xlink:title="cimg_library_suffixed\l::CImg\&lt; charT \&gt;::_draw\l_object3d">
<polygon fill="#ffffff" stroke="#000000" points="153,-339 153,-380 275,-380 275,-339 153,-339"/>
<text text-anchor="start" x="161" y="-368" font-family="Helvetica,sans-Serif" font-size="10.00" fill="#000000">cimg_library_suffixed</text>
<text text-anchor="start" x="161" y="-357" font-family="Helvetica,sans-Serif" font-size="10.00" fill="#000000">::CImg&lt; charT &gt;::_draw</text>
<text text-anchor="middle" x="214" y="-346" font-family="Helvetica,sans-Serif" font-size="10.00" fill="#000000">_object3d</text>
</a>
</g>
</g>
<!-- Node1773&#45;&gt;Node1776 -->
<g id="edge3" class="edge">
<title>Node1773&#45;&gt;Node1776</title>
<path fill="none" stroke="#191970" d="M83.6115,-290.6927C100.9666,-302.8412 123.7017,-317.9258 145,-329.5 150.9681,-332.7433 157.3586,-335.9068 163.7537,-338.8891"/>
<polygon fill="#191970" stroke="#191970" points="85.2468,-287.5621 75.0624,-284.6416 81.2026,-293.2757 85.2468,-287.5621"/>
</g>
<!-- Node1777 -->
<g id="node5" class="node">
<title>Node1777</title>
<g id="a_node5"><a xlink:href="structcimg__library__suffixed_1_1_c_img_list.html#af8a6b01f20b2d459e5abe6b99836ea9a" target="_top" xlink:title="cimg_library_suffixed\l::CImgList\&lt; charT \&gt;::\l_select">
<polygon fill="#ffffff" stroke="#000000" points="158.5,-279 158.5,-320 269.5,-320 269.5,-279 158.5,-279"/>
<text text-anchor="start" x="166.5" y="-308" font-family="Helvetica,sans-Serif" font-size="10.00" fill="#000000">cimg_library_suffixed</text>
<text text-anchor="start" x="166.5" y="-297" font-family="Helvetica,sans-Serif" font-size="10.00" fill="#000000">::CImgList&lt; charT &gt;::</text>
<text text-anchor="middle" x="214" y="-286" font-family="Helvetica,sans-Serif" font-size="10.00" fill="#000000">_select</text>
</a>
</g>
</g>
<!-- Node1773&#45;&gt;Node1777 -->
<g id="edge4" class="edge">
<title>Node1773&#45;&gt;Node1777</title>
<path fill="none" stroke="#191970" d="M119.5947,-281.7435C132.4933,-284.1696 145.9215,-286.6953 158.4665,-289.0548"/>
<polygon fill="#191970" stroke="#191970" points="119.8655,-278.2332 109.3909,-279.8243 118.5715,-285.1125 119.8655,-278.2332"/>
</g>
<!-- Node1778 -->
<g id="node6" class="node">
<title>Node1778</title>
<g id="a_node6"><a xlink:href="structcimg__library__suffixed_1_1_c_img.html#a91ec1cd09114c4018a78e4ea0b2df386" target="_top" xlink:title="Estimate displacement field between two images . ">
<polygon fill="#ffffff" stroke="#000000" points="159.5,-219 159.5,-260 268.5,-260 268.5,-219 159.5,-219"/>
<text text-anchor="start" x="167.5" y="-248" font-family="Helvetica,sans-Serif" font-size="10.00" fill="#000000">cimg_library_suffixed</text>
<text text-anchor="start" x="167.5" y="-237" font-family="Helvetica,sans-Serif" font-size="10.00" fill="#000000">::CImg&lt; charT &gt;::get</text>
<text text-anchor="middle" x="214" y="-226" font-family="Helvetica,sans-Serif" font-size="10.00" fill="#000000">_displacement</text>
</a>
</g>
</g>
<!-- Node1773&#45;&gt;Node1778 -->
<g id="edge5" class="edge">
<title>Node1773&#45;&gt;Node1778</title>
<path fill="none" stroke="#191970" d="M119.3814,-257.2966C132.6237,-254.8059 146.433,-252.2085 159.2783,-249.7925"/>
<polygon fill="#191970" stroke="#191970" points="118.5715,-253.8875 109.3909,-259.1757 119.8655,-260.7668 118.5715,-253.8875"/>
</g>
<!-- Node1779 -->
<g id="node7" class="node">
<title>Node1779</title>
<g id="a_node7"><a xlink:href="structcimg__library__suffixed_1_1_c_img_list.html#af09a45345581747984f4df0607418f2c" target="_top" xlink:title="Save image sequence, using the external tool &#39;ffmpeg&#39;. ">
<polygon fill="#ffffff" stroke="#000000" points="157.5,-159 157.5,-200 270.5,-200 270.5,-159 157.5,-159"/>
<text text-anchor="start" x="165.5" y="-188" font-family="Helvetica,sans-Serif" font-size="10.00" fill="#000000">cimg_library_suffixed</text>
<text text-anchor="start" x="165.5" y="-177" font-family="Helvetica,sans-Serif" font-size="10.00" fill="#000000">::CImgList&lt; charT &gt;::</text>
<text text-anchor="middle" x="214" y="-166" font-family="Helvetica,sans-Serif" font-size="10.00" fill="#000000">save_ffmpeg_external</text>
</a>
</g>
</g>
<!-- Node1773&#45;&gt;Node1779 -->
<g id="edge7" class="edge">
<title>Node1773&#45;&gt;Node1779</title>
<path fill="none" stroke="#191970" d="M83.6115,-248.3073C100.9666,-236.1588 123.7017,-221.0742 145,-209.5 150.9681,-206.2567 157.3586,-203.0932 163.7537,-200.1109"/>
<polygon fill="#191970" stroke="#191970" points="81.2026,-245.7243 75.0624,-254.3584 85.2468,-251.4379 81.2026,-245.7243"/>
</g>
<!-- Node1780 -->
<g id="node8" class="node">
<title>Node1780</title>
<g id="a_node8"><a xlink:href="structcimg__library__suffixed_1_1_c_img_list.html#a759ef20b53f1e507973dc53fcc2c7bb2" target="_top" xlink:title="Save image sequence as a GIF animated file. ">
<polygon fill="#ffffff" stroke="#000000" points="158.5,-99 158.5,-140 269.5,-140 269.5,-99 158.5,-99"/>
<text text-anchor="start" x="166.5" y="-128" font-family="Helvetica,sans-Serif" font-size="10.00" fill="#000000">cimg_library_suffixed</text>
<text text-anchor="start" x="166.5" y="-117" font-family="Helvetica,sans-Serif" font-size="10.00" fill="#000000">::CImgList&lt; charT &gt;::</text>
<text text-anchor="middle" x="214" y="-106" font-family="Helvetica,sans-Serif" font-size="10.00" fill="#000000">save_gif_external</text>
</a>
</g>
</g>
<!-- Node1773&#45;&gt;Node1780 -->
<g id="edge8" class="edge">
<title>Node1773&#45;&gt;Node1780</title>
<path fill="none" stroke="#191970" d="M67.6727,-245.2092C83.1413,-218.631 111.0483,-176.2539 145,-149.5 149.4117,-146.0236 154.2881,-142.8686 159.3486,-140.0252"/>
<polygon fill="#191970" stroke="#191970" points="64.4453,-243.8045 62.5483,-254.2281 70.5316,-247.2626 64.4453,-243.8045"/>
</g>
<!-- Node1781 -->
<g id="node9" class="node">
<title>Node1781</title>
<g id="a_node9"><a xlink:href="structcimg__library__suffixed_1_1_c_img_display.html#a914ee0515249db301dc66275861a6b3e" target="_top" xlink:title="Take a snapshot of the associated window content. ">
<polygon fill="#ffffff" stroke="#000000" points="151.5,-49.5 151.5,-79.5 276.5,-79.5 276.5,-49.5 151.5,-49.5"/>
<text text-anchor="start" x="159.5" y="-67.5" font-family="Helvetica,sans-Serif" font-size="10.00" fill="#000000">cimg_library_suffixed</text>
<text text-anchor="middle" x="214" y="-56.5" font-family="Helvetica,sans-Serif" font-size="10.00" fill="#000000">::CImgDisplay::snapshot</text>
</a>
</g>
</g>
<!-- Node1773&#45;&gt;Node1781 -->
<g id="edge9" class="edge">
<title>Node1773&#45;&gt;Node1781</title>
<path fill="none" stroke="#191970" d="M60.6582,-244.4774C71.3855,-205.9399 97.0728,-132.0698 145,-89.5 149.382,-85.6078 154.417,-82.3072 159.729,-79.5112"/>
<polygon fill="#191970" stroke="#191970" points="57.2191,-243.7903 58.0232,-254.3546 63.9826,-245.5947 57.2191,-243.7903"/>
</g>
<!-- Node1782 -->
<g id="node10" class="node">
<title>Node1782</title>
<g id="a_node10"><a xlink:href="structcimg__library__suffixed_1_1_c_img.html#a015159d8cee61c2f2316c3e128470a71" target="_top" xlink:title="Construct image from a display window. ">
<polygon fill="#ffffff" stroke="#000000" points="328,-98.5 328,-128.5 447,-128.5 447,-98.5 328,-98.5"/>
<text text-anchor="start" x="336" y="-116.5" font-family="Helvetica,sans-Serif" font-size="10.00" fill="#000000">cimg_library_suffixed</text>
<text text-anchor="middle" x="387.5" y="-105.5" font-family="Helvetica,sans-Serif" font-size="10.00" fill="#000000">::CImg&lt; charT &gt;::CImg</text>
</a>
</g>
</g>
<!-- Node1781&#45;&gt;Node1782 -->
<g id="edge10" class="edge">
<title>Node1781&#45;&gt;Node1782</title>
<path fill="none" stroke="#191970" d="M277.1018,-82.3212C295.8345,-87.6118 316.1602,-93.3522 334.2051,-98.4484"/>
<polygon fill="#191970" stroke="#191970" points="278.0463,-78.9512 267.4714,-79.6014 276.1437,-85.6877 278.0463,-78.9512"/>
</g>
<!-- Node1783 -->
<g id="node11" class="node">
<title>Node1783</title>
<g id="a_node11"><a xlink:href="structcimg__library__suffixed_1_1_c_img.html#a668fe887682e7cbb469409842bb98cd2" target="_top" xlink:title="Construct image from a display window . ">
<polygon fill="#ffffff" stroke="#000000" points="325.5,-49.5 325.5,-79.5 449.5,-79.5 449.5,-49.5 325.5,-49.5"/>
<text text-anchor="start" x="333.5" y="-67.5" font-family="Helvetica,sans-Serif" font-size="10.00" fill="#000000">cimg_library_suffixed</text>
<text text-anchor="middle" x="387.5" y="-56.5" font-family="Helvetica,sans-Serif" font-size="10.00" fill="#000000">::CImg&lt; charT &gt;::assign</text>
</a>
</g>
</g>
<!-- Node1781&#45;&gt;Node1783 -->
<g id="edge11" class="edge">
<title>Node1781&#45;&gt;Node1783</title>
<path fill="none" stroke="#191970" d="M286.7827,-64.5C299.5715,-64.5 312.7762,-64.5 325.2454,-64.5"/>
<polygon fill="#191970" stroke="#191970" points="286.6375,-61.0001 276.6375,-64.5 286.6374,-68.0001 286.6375,-61.0001"/>
</g>
<!-- Node1784 -->
<g id="node12" class="node">
<title>Node1784</title>
<g id="a_node12"><a xlink:href="structcimg__library__suffixed_1_1_c_img.html#a75e18966d8e02a9cee85642038e30a08" target="_top" xlink:title="Copy the content of a display window to the current image instance. ">
<polygon fill="#ffffff" stroke="#000000" points="319,-.5 319,-30.5 456,-30.5 456,-.5 319,-.5"/>
<text text-anchor="start" x="327" y="-18.5" font-family="Helvetica,sans-Serif" font-size="10.00" fill="#000000">cimg_library_suffixed</text>
<text text-anchor="middle" x="387.5" y="-7.5" font-family="Helvetica,sans-Serif" font-size="10.00" fill="#000000">::CImg&lt; charT &gt;::operator=</text>
</a>
</g>
</g>
<!-- Node1781&#45;&gt;Node1784 -->
<g id="edge12" class="edge">
<title>Node1781&#45;&gt;Node1784</title>
<path fill="none" stroke="#191970" d="M277.1018,-46.6788C295.8345,-41.3882 316.1602,-35.6478 334.2051,-30.5516"/>
<polygon fill="#191970" stroke="#191970" points="276.1437,-43.3123 267.4714,-49.3986 278.0463,-50.0488 276.1437,-43.3123"/>
</g>
</g>
</svg>
        <g id="navigator" transform="translate(0 0)" fill="#404254">
                <rect fill="#f2f5e9" fill-opacity="0.5" stroke="#606060" stroke-width=".5" x="0" y="0" width="60" height="60"/>
                <use id="zoomplus" xlink:href="#zoomPlus" x="17" y="9" onmousedown="handleZoom(evt,'in')"/>
                <use id="zoomminus" xlink:href="#zoomMin" x="42" y="9" onmousedown="handleZoom(evt,'out')"/>
                <use id="reset" xlink:href="#resetDef" x="30" y="36" onmousedown="handleReset()"/>
                <g id="arrowUp" xlink:href="#dirArrow" transform="translate(30 24)" onmousedown="handlePan(0,-1)">
                  <use xlink:href="#rim" fill="#404040">
                        <set attributeName="fill" to="#808080" begin="arrowUp.mouseover" end="arrowUp.mouseout"/>
                  </use>
                  <path fill="none" stroke="white" stroke-width="1.5" d="M0,-3.0v7 M-2.5,-0.5L0,-3.0L2.5,-0.5"/>
                </g>
                <g id="arrowRight" xlink:href="#dirArrow" transform="rotate(90) translate(36 -43)" onmousedown="handlePan(1,0)">
                  <use xlink:href="#rim" fill="#404040">
                        <set attributeName="fill" to="#808080" begin="arrowRight.mouseover" end="arrowRight.mouseout"/>
                  </use>
                  <path fill="none" stroke="white" stroke-width="1.5" d="M0,-3.0v7 M-2.5,-0.5L0,-3.0L2.5,-0.5"/>
                </g>
                <g id="arrowDown" xlink:href="#dirArrow" transform="rotate(180) translate(-30 -48)" onmousedown="handlePan(0,1)">
                  <use xlink:href="#rim" fill="#404040">
                        <set attributeName="fill" to="#808080" begin="arrowDown.mouseover" end="arrowDown.mouseout"/>
                  </use>
                  <path fill="none" stroke="white" stroke-width="1.5" d="M0,-3.0v7 M-2.5,-0.5L0,-3.0L2.5,-0.5"/>
                </g>
                <g id="arrowLeft" xlink:href="#dirArrow" transform="rotate(270) translate(-36 17)" onmousedown="handlePan(-1,0)">
                  <use xlink:href="#rim" fill="#404040">
                        <set attributeName="fill" to="#808080" begin="arrowLeft.mouseover" end="arrowLeft.mouseout"/>
                  </use>
                  <path fill="none" stroke="white" stroke-width="1.5" d="M0,-3.0v7 M-2.5,-0.5L0,-3.0L2.5,-0.5"/>
                </g>
        </g>
        <svg viewBox="0 0 15 15" width="100%" height="30px" preserveAspectRatio="xMaxYMin meet">
         <g id="arrow_out" transform="scale(0.3 0.3)">
          <a xlink:href="structcimg__library__suffixed_1_1_c_img_a1d9a664dfe01342505a5256db9078b31_icgraph_org.svg" target="_base">
           <rect id="button" ry="5" rx="5" y="6" x="6" height="38" width="38"
                fill="#f2f5e9" fill-opacity="0.5" stroke="#606060" stroke-width="1.0"/>
           <path id="arrow"
             d="M 11.500037,31.436501 C 11.940474,20.09759 22.043105,11.32322 32.158766,21.979434 L 37.068811,17.246167 C 37.068811,17.246167 37.088388,32 37.088388,32 L 22.160133,31.978069 C 22.160133,31.978069 26.997745,27.140456 26.997745,27.140456 C 18.528582,18.264221 13.291696,25.230495 11.500037,31.436501 z"
             style="fill:#404040;"/>
          </a>
         </g>
        </svg>
</svg>
