<?xml version="1.0" encoding="UTF-8" standalone="no"?>
<!DOCTYPE svg PUBLIC "-//W3C//DTD SVG 1.1//EN"
 "http://www.w3.org/Graphics/SVG/1.1/DTD/svg11.dtd">
<!-- Generated by graphviz version 2.40.1 (20161225.0304)
 -->
<!-- Title: cimg_library_suffixed::CImgList::assign Pages: 1 -->
<!--zoomable 1993 -->
<svg id="main" version="1.1" xmlns="http://www.w3.org/2000/svg" xmlns:xlink="http://www.w3.org/1999/xlink" xml:space="preserve" onload="init(evt)">
<style type="text/css"><![CDATA[
.edge:hover path { stroke: red; }
.edge:hover polygon { stroke: red; fill: red; }
]]></style>
<script type="text/javascript"><![CDATA[
var edges = document.getElementsByTagName('g');
if (edges && edges.length) {
  for (var i=0;i<edges.length;i++) {
    if (edges[i].id.substr(0,4)=='edge') {
      edges[i].setAttribute('class','edge');
    }
  }
}
]]></script>
        <defs>
                <circle id="rim" cx="0" cy="0" r="7"/>
                <circle id="rim2" cx="0" cy="0" r="3.5"/>
                <g id="zoomPlus">
                        <use xlink:href="#rim" fill="#404040">
                                <set attributeName="fill" to="#808080" begin="zoomplus.mouseover" end="zoomplus.mouseout"/>
                        </use>
                        <path d="M-4,0h8M0,-4v8" fill="none" stroke="white" stroke-width="1.5" pointer-events="none"/>
                </g>
                <g id="zoomMin">
                        <use xlink:href="#rim" fill="#404040">
                                <set attributeName="fill" to="#808080" begin="zoomminus.mouseover" end="zoomminus.mouseout"/>
                        </use>
                        <path d="M-4,0h8" fill="none" stroke="white" stroke-width="1.5" pointer-events="none"/>
                </g>
                <g id="dirArrow">
                        <path fill="none" stroke="white" stroke-width="1.5" d="M0,-3.0v7 M-2.5,-0.5L0,-3.0L2.5,-0.5"/>
                </g>
               <g id="resetDef">
                       <use xlink:href="#rim2" fill="#404040">
                               <set attributeName="fill" to="#808080" begin="reset.mouseover" end="reset.mouseout"/>
                       </use>
               </g>
        </defs>

<script type="text/javascript">
var viewWidth = 304;
var viewHeight = 1993;
var sectionId = 'dynsection-4';
</script>
<script xlink:href="svgpan.js"/>
<svg id="graph" class="graph">
<g id="viewport">
<title>cimg_library_suffixed::CImgList::assign</title>
<polygon fill="#ffffff" stroke="transparent" points="-4,4 -4,-1988.5 300,-1988.5 300,4 -4,4"/>
<!-- Node98 -->
<g id="node1" class="node">
<title>Node98</title>
<polygon fill="#bfbfbf" stroke="#000000" points="0,-994.5 0,-1024.5 109,-1024.5 109,-994.5 0,-994.5"/>
<text text-anchor="start" x="8" y="-1012.5" font-family="Helvetica,sans-Serif" font-size="10.00" fill="#000000">cimg_library_suffixed</text>
<text text-anchor="middle" x="54.5" y="-1001.5" font-family="Helvetica,sans-Serif" font-size="10.00" fill="#000000">::CImgList::assign</text>
</g>
<!-- Node99 -->
<g id="node2" class="node">
<title>Node99</title>
<g id="a_node2"><a xlink:href="structcimg__library__suffixed_1_1_c_img.html#a8b40db5a9818c3f961a90840b271de6c" target="_top" xlink:title="cimg_library_suffixed\l::CImg\&lt; charT \&gt;::_display\l_object3d">
<polygon fill="#ffffff" stroke="#000000" points="155,-1943 155,-1984 286,-1984 286,-1943 155,-1943"/>
<text text-anchor="start" x="163" y="-1972" font-family="Helvetica,sans-Serif" font-size="10.00" fill="#000000">cimg_library_suffixed</text>
<text text-anchor="start" x="163" y="-1961" font-family="Helvetica,sans-Serif" font-size="10.00" fill="#000000">::CImg&lt; charT &gt;::_display</text>
<text text-anchor="middle" x="220.5" y="-1950" font-family="Helvetica,sans-Serif" font-size="10.00" fill="#000000">_object3d</text>
</a>
</g>
</g>
<!-- Node98&#45;&gt;Node99 -->
<g id="edge1" class="edge">
<title>Node98&#45;&gt;Node99</title>
<path fill="none" stroke="#191970" d="M55.4186,-1034.7156C60.7459,-1175.395 89.3856,-1859.5945 145,-1933.5 147.7987,-1937.2191 151.1304,-1940.4779 154.8112,-1943.3332"/>
<polygon fill="#191970" stroke="#191970" points="58.9081,-1034.3673 55.037,-1024.505 51.913,-1034.6288 58.9081,-1034.3673"/>
</g>
<!-- Node100 -->
<g id="node3" class="node">
<title>Node100</title>
<g id="a_node3"><a xlink:href="structcimg__library__suffixed_1_1_c_img.html#a8f2efb14f687ccdb85c060757ca5a306" target="_top" xlink:title="cimg_library_suffixed\l::CImg\&lt; charT \&gt;::_load_off">
<polygon fill="#ffffff" stroke="#000000" points="153,-1893.5 153,-1923.5 288,-1923.5 288,-1893.5 153,-1893.5"/>
<text text-anchor="start" x="161" y="-1911.5" font-family="Helvetica,sans-Serif" font-size="10.00" fill="#000000">cimg_library_suffixed</text>
<text text-anchor="middle" x="220.5" y="-1900.5" font-family="Helvetica,sans-Serif" font-size="10.00" fill="#000000">::CImg&lt; charT &gt;::_load_off</text>
</a>
</g>
</g>
<!-- Node98&#45;&gt;Node100 -->
<g id="edge2" class="edge">
<title>Node98&#45;&gt;Node100</title>
<path fill="none" stroke="#191970" d="M55.497,-1035.1453C61.0504,-1172.4345 89.9194,-1816.8086 145,-1884.5 147.7779,-1887.9139 151.041,-1890.8493 154.6246,-1893.3725"/>
<polygon fill="#191970" stroke="#191970" points="58.9799,-1034.6455 55.0839,-1024.793 51.9855,-1034.9247 58.9799,-1034.6455"/>
</g>
<!-- Node101 -->
<g id="node4" class="node">
<title>Node101</title>
<g id="a_node4"><a xlink:href="structcimg__library__suffixed_1_1_c_img.html#ad9b7141242d0b6e861a8014112ddb5b5" target="_top" xlink:title="cimg_library_suffixed\l::CImg\&lt; charT \&gt;::_select">
<polygon fill="#ffffff" stroke="#000000" points="157,-1844.5 157,-1874.5 284,-1874.5 284,-1844.5 157,-1844.5"/>
<text text-anchor="start" x="165" y="-1862.5" font-family="Helvetica,sans-Serif" font-size="10.00" fill="#000000">cimg_library_suffixed</text>
<text text-anchor="middle" x="220.5" y="-1851.5" font-family="Helvetica,sans-Serif" font-size="10.00" fill="#000000">::CImg&lt; charT &gt;::_select</text>
</a>
</g>
</g>
<!-- Node98&#45;&gt;Node101 -->
<g id="edge3" class="edge">
<title>Node98&#45;&gt;Node101</title>
<path fill="none" stroke="#191970" d="M55.669,-1034.9022C61.9542,-1166.8792 93.3796,-1770.6848 145,-1834.5 148.2998,-1838.5793 152.2835,-1841.9985 156.6754,-1844.8635"/>
<polygon fill="#191970" stroke="#191970" points="59.15,-1034.4143 55.1836,-1024.59 52.1578,-1034.7435 59.15,-1034.4143"/>
</g>
<!-- Node102 -->
<g id="node5" class="node">
<title>Node102</title>
<g id="a_node5"><a xlink:href="structcimg__library__suffixed_1_1_c_img.html#af97fedf01cd4a4d8b7e0d11d519981e8" target="_top" xlink:title="Merge two 3d objects together. ">
<polygon fill="#ffffff" stroke="#000000" points="157,-1784 157,-1825 284,-1825 284,-1784 157,-1784"/>
<text text-anchor="start" x="165" y="-1813" font-family="Helvetica,sans-Serif" font-size="10.00" fill="#000000">cimg_library_suffixed</text>
<text text-anchor="start" x="165" y="-1802" font-family="Helvetica,sans-Serif" font-size="10.00" fill="#000000">::CImg&lt; charT &gt;::append</text>
<text text-anchor="middle" x="220.5" y="-1791" font-family="Helvetica,sans-Serif" font-size="10.00" fill="#000000">_object3d</text>
</a>
</g>
</g>
<!-- Node98&#45;&gt;Node102 -->
<g id="edge4" class="edge">
<title>Node98&#45;&gt;Node102</title>
<path fill="none" stroke="#191970" d="M55.9743,-1034.9756C63.4719,-1161.0336 98.8264,-1714.4083 145,-1774.5 148.3516,-1778.8618 152.4342,-1782.5909 156.9473,-1785.7788"/>
<polygon fill="#191970" stroke="#191970" points="59.4543,-1034.5317 55.372,-1024.7549 52.4664,-1034.9435 59.4543,-1034.5317"/>
</g>
<!-- Node103 -->
<g id="node6" class="node">
<title>Node103</title>
<g id="a_node6"><a xlink:href="structcimg__library__suffixed_1_1_c_img_list.html#ab896c4f7d87bc33821231b37dd85f79e" target="_top" xlink:title="Construct list as a copy of an existing list and force shared state of elements &#160;. ">
<polygon fill="#ffffff" stroke="#000000" points="165,-1724 165,-1765 276,-1765 276,-1724 165,-1724"/>
<text text-anchor="start" x="173" y="-1753" font-family="Helvetica,sans-Serif" font-size="10.00" fill="#000000">cimg_library_suffixed</text>
<text text-anchor="start" x="173" y="-1742" font-family="Helvetica,sans-Serif" font-size="10.00" fill="#000000">::CImgList&lt; charT &gt;::</text>
<text text-anchor="middle" x="220.5" y="-1731" font-family="Helvetica,sans-Serif" font-size="10.00" fill="#000000">assign</text>
</a>
</g>
</g>
<!-- Node98&#45;&gt;Node103 -->
<g id="edge5" class="edge">
<title>Node98&#45;&gt;Node103</title>
<path fill="none" stroke="#191970" d="M56.2354,-1034.8582C64.6278,-1154.5599 102.3479,-1659.5574 145,-1714.5 150.1894,-1721.1848 157.0937,-1726.3841 164.6238,-1730.4269"/>
<polygon fill="#191970" stroke="#191970" points="59.7213,-1034.5325 55.5359,-1024.7994 52.7382,-1035.0181 59.7213,-1034.5325"/>
</g>
<!-- Node104 -->
<g id="node7" class="node">
<title>Node104</title>
<g id="a_node7"><a xlink:href="structcimg__library__suffixed_1_1_c_img.html#a2d70ee859df458d9448ba2a127cedc82" target="_top" xlink:title="Generate a 3d box object. ">
<polygon fill="#ffffff" stroke="#000000" points="159.5,-1674.5 159.5,-1704.5 281.5,-1704.5 281.5,-1674.5 159.5,-1674.5"/>
<text text-anchor="start" x="167.5" y="-1692.5" font-family="Helvetica,sans-Serif" font-size="10.00" fill="#000000">cimg_library_suffixed</text>
<text text-anchor="middle" x="220.5" y="-1681.5" font-family="Helvetica,sans-Serif" font-size="10.00" fill="#000000">::CImg&lt; charT &gt;::box3d</text>
</a>
</g>
</g>
<!-- Node98&#45;&gt;Node104 -->
<g id="edge6" class="edge">
<title>Node98&#45;&gt;Node104</title>
<path fill="none" stroke="#191970" d="M56.4272,-1034.8953C65.3327,-1149.4954 103.822,-1615.0289 145,-1664.5 148.975,-1669.2755 153.8854,-1673.1446 159.2795,-1676.2784"/>
<polygon fill="#191970" stroke="#191970" points="59.8952,-1034.344 55.637,-1024.6426 52.9159,-1034.882 59.8952,-1034.344"/>
</g>
<!-- Node105 -->
<g id="node8" class="node">
<title>Node105</title>
<g id="a_node8"><a xlink:href="structcimg__library__suffixed_1_1_c_img_1_1__cimg__math__parser.html#a318c44c5d1f4f0114355f37ace87a4ae" target="_top" xlink:title="cimg_library_suffixed\l::CImg::_cimg_math_parser\l::compile">
<polygon fill="#ffffff" stroke="#000000" points="151.5,-1614 151.5,-1655 289.5,-1655 289.5,-1614 151.5,-1614"/>
<text text-anchor="start" x="159.5" y="-1643" font-family="Helvetica,sans-Serif" font-size="10.00" fill="#000000">cimg_library_suffixed</text>
<text text-anchor="start" x="159.5" y="-1632" font-family="Helvetica,sans-Serif" font-size="10.00" fill="#000000">::CImg::_cimg_math_parser</text>
<text text-anchor="middle" x="220.5" y="-1621" font-family="Helvetica,sans-Serif" font-size="10.00" fill="#000000">::compile</text>
</a>
</g>
</g>
<!-- Node98&#45;&gt;Node105 -->
<g id="edge7" class="edge">
<title>Node98&#45;&gt;Node105</title>
<path fill="none" stroke="#191970" d="M55.0842,-1034.8026C57.9107,-1136.4768 73.1541,-1514.1417 145,-1604.5 147.809,-1608.0328 151.0954,-1611.1511 154.6961,-1613.9034"/>
<polygon fill="#191970" stroke="#191970" points="58.5767,-1034.4664 54.8163,-1024.5613 51.5791,-1034.6495 58.5767,-1034.4664"/>
</g>
<!-- Node106 -->
<g id="node9" class="node">
<title>Node106</title>
<g id="a_node9"><a xlink:href="structcimg__library__suffixed_1_1_c_img.html#a7cdc2da46ee1679928f178b0b886fba3" target="_top" xlink:title="Generate a 3d cone. ">
<polygon fill="#ffffff" stroke="#000000" points="157,-1564.5 157,-1594.5 284,-1594.5 284,-1564.5 157,-1564.5"/>
<text text-anchor="start" x="165" y="-1582.5" font-family="Helvetica,sans-Serif" font-size="10.00" fill="#000000">cimg_library_suffixed</text>
<text text-anchor="middle" x="220.5" y="-1571.5" font-family="Helvetica,sans-Serif" font-size="10.00" fill="#000000">::CImg&lt; charT &gt;::cone3d</text>
</a>
</g>
</g>
<!-- Node98&#45;&gt;Node106 -->
<g id="edge8" class="edge">
<title>Node98&#45;&gt;Node106</title>
<path fill="none" stroke="#191970" d="M55.283,-1034.7197C58.7769,-1131.2404 75.9593,-1475.7646 145,-1555.5 148.4212,-1559.4512 152.4903,-1562.7581 156.9395,-1565.5251"/>
<polygon fill="#191970" stroke="#191970" points="58.7799,-1034.5681 54.9378,-1024.6945 51.7841,-1034.8091 58.7799,-1034.5681"/>
</g>
<!-- Node107 -->
<g id="node10" class="node">
<title>Node107</title>
<g id="a_node10"><a xlink:href="structcimg__library__suffixed_1_1_c_img.html#a009c1cb31d4c261774a310e10d0ee9d7" target="_top" xlink:title="Generate a 3d cylinder. ">
<polygon fill="#ffffff" stroke="#000000" points="150.5,-1515.5 150.5,-1545.5 290.5,-1545.5 290.5,-1515.5 150.5,-1515.5"/>
<text text-anchor="start" x="158.5" y="-1533.5" font-family="Helvetica,sans-Serif" font-size="10.00" fill="#000000">cimg_library_suffixed</text>
<text text-anchor="middle" x="220.5" y="-1522.5" font-family="Helvetica,sans-Serif" font-size="10.00" fill="#000000">::CImg&lt; charT &gt;::cylinder3d</text>
</a>
</g>
</g>
<!-- Node98&#45;&gt;Node107 -->
<g id="edge9" class="edge">
<title>Node98&#45;&gt;Node107</title>
<path fill="none" stroke="#191970" d="M55.7548,-1035.0695C60.7372,-1126.4049 82.017,-1434.9159 145,-1506.5 147.9982,-1509.9076 151.4779,-1512.8355 155.2653,-1515.3507"/>
<polygon fill="#191970" stroke="#191970" points="59.2355,-1034.6094 55.2146,-1024.8073 52.2452,-1034.9775 59.2355,-1034.6094"/>
</g>
<!-- Node108 -->
<g id="node11" class="node">
<title>Node108</title>
<g id="a_node11"><a xlink:href="structcimg__library__suffixed_1_1_c_img.html#a693cdc6b4802d0fc1930890e030c1a33" target="_top" xlink:title="Compute 3d elevation of a function as a 3d object. ">
<polygon fill="#ffffff" stroke="#000000" points="148,-1466.5 148,-1496.5 293,-1496.5 293,-1466.5 148,-1466.5"/>
<text text-anchor="start" x="156" y="-1484.5" font-family="Helvetica,sans-Serif" font-size="10.00" fill="#000000">cimg_library_suffixed</text>
<text text-anchor="middle" x="220.5" y="-1473.5" font-family="Helvetica,sans-Serif" font-size="10.00" fill="#000000">::CImg&lt; charT &gt;::elevation3d</text>
</a>
</g>
</g>
<!-- Node98&#45;&gt;Node108 -->
<g id="edge10" class="edge">
<title>Node98&#45;&gt;Node108</title>
<path fill="none" stroke="#191970" d="M56.2871,-1034.7502C62.7937,-1119.7683 87.8954,-1393.8403 145,-1457.5 148.0308,-1460.8787 151.5347,-1463.7851 155.3395,-1466.2848"/>
<polygon fill="#191970" stroke="#191970" points="59.7713,-1034.4059 55.5376,-1024.6938 52.7907,-1034.9263 59.7713,-1034.4059"/>
</g>
<!-- Node109 -->
<g id="node12" class="node">
<title>Node109</title>
<g id="a_node12"><a xlink:href="structcimg__library__suffixed_1_1_c_img.html#a0b8b15895c6d7bf28afb1878ee6cb122" target="_top" xlink:title="Generate a 3d ellipsoid. ">
<polygon fill="#ffffff" stroke="#000000" points="150,-1417.5 150,-1447.5 291,-1447.5 291,-1417.5 150,-1417.5"/>
<text text-anchor="start" x="158" y="-1435.5" font-family="Helvetica,sans-Serif" font-size="10.00" fill="#000000">cimg_library_suffixed</text>
<text text-anchor="middle" x="220.5" y="-1424.5" font-family="Helvetica,sans-Serif" font-size="10.00" fill="#000000">::CImg&lt; charT &gt;::ellipsoid3d</text>
</a>
</g>
</g>
<!-- Node98&#45;&gt;Node109 -->
<g id="edge11" class="edge">
<title>Node98&#45;&gt;Node109</title>
<path fill="none" stroke="#191970" d="M56.9726,-1034.7942C65.1614,-1113.6068 93.8271,-1352.7963 145,-1408.5 148.1637,-1411.9438 151.8187,-1414.8961 155.7789,-1417.4268"/>
<polygon fill="#191970" stroke="#191970" points="60.4474,-1034.3678 55.9528,-1024.7735 53.4833,-1035.0766 60.4474,-1034.3678"/>
</g>
<!-- Node110 -->
<g id="node13" class="node">
<title>Node110</title>
<g id="a_node13"><a xlink:href="structcimg__library__suffixed_1_1_c_img_list.html#afa0892dccfa1637ad92f7f453ad747ae" target="_top" xlink:title="Return a reference to an empty list. ">
<polygon fill="#ffffff" stroke="#000000" points="151.5,-1368.5 151.5,-1398.5 289.5,-1398.5 289.5,-1368.5 151.5,-1368.5"/>
<text text-anchor="start" x="159.5" y="-1386.5" font-family="Helvetica,sans-Serif" font-size="10.00" fill="#000000">cimg_library_suffixed</text>
<text text-anchor="middle" x="220.5" y="-1375.5" font-family="Helvetica,sans-Serif" font-size="10.00" fill="#000000">::CImgList&lt; charT &gt;::empty</text>
</a>
</g>
</g>
<!-- Node98&#45;&gt;Node110 -->
<g id="edge12" class="edge">
<title>Node98&#45;&gt;Node110</title>
<path fill="none" stroke="#191970" d="M57.7978,-1034.4905C67.7562,-1106.3742 99.6492,-1311.5957 145,-1359.5 148.2149,-1362.8959 151.9076,-1365.8132 155.8945,-1368.319"/>
<polygon fill="#191970" stroke="#191970" points="61.2565,-1033.9496 56.4387,-1024.5135 54.3206,-1034.8945 61.2565,-1033.9496"/>
</g>
<!-- Node111 -->
<g id="node14" class="node">
<title>Node111</title>
<g id="a_node14"><a xlink:href="structcimg__library__suffixed_1_1_c_img_list.html#aeb4a6463a473fa5935f69534ca1a49c8" target="_top" xlink:title="Return a CImg pre&#45;defined font with desired size. ">
<polygon fill="#ffffff" stroke="#000000" points="156.5,-1319.5 156.5,-1349.5 284.5,-1349.5 284.5,-1319.5 156.5,-1319.5"/>
<text text-anchor="start" x="164.5" y="-1337.5" font-family="Helvetica,sans-Serif" font-size="10.00" fill="#000000">cimg_library_suffixed</text>
<text text-anchor="middle" x="220.5" y="-1326.5" font-family="Helvetica,sans-Serif" font-size="10.00" fill="#000000">::CImgList&lt; charT &gt;::font</text>
</a>
</g>
</g>
<!-- Node98&#45;&gt;Node111 -->
<g id="edge13" class="edge">
<title>Node98&#45;&gt;Node111</title>
<path fill="none" stroke="#191970" d="M59.0214,-1034.6936C71.1042,-1099.4315 105.8974,-1269.3361 145,-1309.5 148.7564,-1313.3584 153.1205,-1316.6214 157.82,-1319.3808"/>
<polygon fill="#191970" stroke="#191970" points="62.4085,-1033.7606 57.1559,-1024.5595 55.5242,-1035.0279 62.4085,-1033.7606"/>
</g>
<!-- Node112 -->
<g id="node15" class="node">
<title>Node112</title>
<g id="a_node15"><a xlink:href="structcimg__library__suffixed_1_1_c_img.html#a4d0714efbea21ed5f469d21980acfac6" target="_top" xlink:title="Convert CImg3d representation into a 3d object . ">
<polygon fill="#ffffff" stroke="#000000" points="166,-1259 166,-1300 275,-1300 275,-1259 166,-1259"/>
<text text-anchor="start" x="174" y="-1288" font-family="Helvetica,sans-Serif" font-size="10.00" fill="#000000">cimg_library_suffixed</text>
<text text-anchor="start" x="174" y="-1277" font-family="Helvetica,sans-Serif" font-size="10.00" fill="#000000">::CImg&lt; charT &gt;::get</text>
<text text-anchor="middle" x="220.5" y="-1266" font-family="Helvetica,sans-Serif" font-size="10.00" fill="#000000">_CImg3dtoobject3d</text>
</a>
</g>
</g>
<!-- Node98&#45;&gt;Node112 -->
<g id="edge14" class="edge">
<title>Node98&#45;&gt;Node112</title>
<path fill="none" stroke="#191970" d="M57.3046,-1034.836C63.9226,-1082.9507 84.7761,-1188.2052 145,-1249.5 150.9311,-1255.5365 158.2293,-1260.3914 165.928,-1264.2869"/>
<polygon fill="#191970" stroke="#191970" points="60.7461,-1034.1552 56.0053,-1024.6802 53.8027,-1035.0435 60.7461,-1034.1552"/>
</g>
<!-- Node113 -->
<g id="node16" class="node">
<title>Node113</title>
<g id="a_node16"><a xlink:href="structcimg__library__suffixed_1_1_c_img.html#a6df02334b3342622e7439c27ec149456" target="_top" xlink:title="Generate a 3d elevation of the image instance. ">
<polygon fill="#ffffff" stroke="#000000" points="166,-1199 166,-1240 275,-1240 275,-1199 166,-1199"/>
<text text-anchor="start" x="174" y="-1228" font-family="Helvetica,sans-Serif" font-size="10.00" fill="#000000">cimg_library_suffixed</text>
<text text-anchor="start" x="174" y="-1217" font-family="Helvetica,sans-Serif" font-size="10.00" fill="#000000">::CImg&lt; charT &gt;::get</text>
<text text-anchor="middle" x="220.5" y="-1206" font-family="Helvetica,sans-Serif" font-size="10.00" fill="#000000">_elevation3d</text>
</a>
</g>
</g>
<!-- Node98&#45;&gt;Node113 -->
<g id="edge15" class="edge">
<title>Node98&#45;&gt;Node113</title>
<path fill="none" stroke="#191970" d="M60.8173,-1034.3462C71.7589,-1072.6461 97.73,-1146.2016 145,-1189.5 151.0324,-1195.0256 158.2069,-1199.5873 165.6962,-1203.3383"/>
<polygon fill="#191970" stroke="#191970" points="64.1461,-1033.2504 58.1246,-1024.533 57.3956,-1035.1027 64.1461,-1033.2504"/>
</g>
<!-- Node114 -->
<g id="node17" class="node">
<title>Node114</title>
<g id="a_node17"><a xlink:href="structcimg__library__suffixed_1_1_c_img.html#a0b91d1efa631f475b09ff573a0dd69a4" target="_top" xlink:title="Return image gradient. ">
<polygon fill="#ffffff" stroke="#000000" points="166,-1139 166,-1180 275,-1180 275,-1139 166,-1139"/>
<text text-anchor="start" x="174" y="-1168" font-family="Helvetica,sans-Serif" font-size="10.00" fill="#000000">cimg_library_suffixed</text>
<text text-anchor="start" x="174" y="-1157" font-family="Helvetica,sans-Serif" font-size="10.00" fill="#000000">::CImg&lt; charT &gt;::get</text>
<text text-anchor="middle" x="220.5" y="-1146" font-family="Helvetica,sans-Serif" font-size="10.00" fill="#000000">_gradient</text>
</a>
</g>
</g>
<!-- Node98&#45;&gt;Node114 -->
<g id="edge16" class="edge">
<title>Node98&#45;&gt;Node114</title>
<path fill="none" stroke="#191970" d="M67.2687,-1033.5642C82.5446,-1060.2958 110.441,-1103.1502 145,-1129.5 151.2811,-1134.289 158.4269,-1138.4184 165.7587,-1141.9476"/>
<polygon fill="#191970" stroke="#191970" points="70.1467,-1031.5385 62.2228,-1024.5056 64.0315,-1034.945 70.1467,-1031.5385"/>
</g>
<!-- Node115 -->
<g id="node18" class="node">
<title>Node115</title>
<g id="a_node18"><a xlink:href="structcimg__library__suffixed_1_1_c_img.html#a4eb2ceb90169f0658337de1f5156fda5" target="_top" xlink:title="Return image hessian. ">
<polygon fill="#ffffff" stroke="#000000" points="166,-1079 166,-1120 275,-1120 275,-1079 166,-1079"/>
<text text-anchor="start" x="174" y="-1108" font-family="Helvetica,sans-Serif" font-size="10.00" fill="#000000">cimg_library_suffixed</text>
<text text-anchor="start" x="174" y="-1097" font-family="Helvetica,sans-Serif" font-size="10.00" fill="#000000">::CImg&lt; charT &gt;::get</text>
<text text-anchor="middle" x="220.5" y="-1086" font-family="Helvetica,sans-Serif" font-size="10.00" fill="#000000">_hessian</text>
</a>
</g>
</g>
<!-- Node98&#45;&gt;Node115 -->
<g id="edge17" class="edge">
<title>Node98&#45;&gt;Node115</title>
<path fill="none" stroke="#191970" d="M83.1331,-1030.7036C100.4844,-1042.9808 123.3776,-1058.1927 145,-1069.5 151.6243,-1072.9641 158.7418,-1076.2798 165.8643,-1079.3599"/>
<polygon fill="#191970" stroke="#191970" points="84.7674,-1027.5687 74.6008,-1024.587 80.689,-1033.2579 84.7674,-1027.5687"/>
</g>
<!-- Node116 -->
<g id="node19" class="node">
<title>Node116</title>
<g id="a_node19"><a xlink:href="structcimg__library__suffixed_1_1_c_img_list.html#a0e6faec8870636554173cb235ce90202" target="_top" xlink:title="Return a sublist . ">
<polygon fill="#ffffff" stroke="#000000" points="165,-1019 165,-1060 276,-1060 276,-1019 165,-1019"/>
<text text-anchor="start" x="173" y="-1048" font-family="Helvetica,sans-Serif" font-size="10.00" fill="#000000">cimg_library_suffixed</text>
<text text-anchor="start" x="173" y="-1037" font-family="Helvetica,sans-Serif" font-size="10.00" fill="#000000">::CImgList&lt; charT &gt;::</text>
<text text-anchor="middle" x="220.5" y="-1026" font-family="Helvetica,sans-Serif" font-size="10.00" fill="#000000">get_images</text>
</a>
</g>
</g>
<!-- Node98&#45;&gt;Node116 -->
<g id="edge18" class="edge">
<title>Node98&#45;&gt;Node116</title>
<path fill="none" stroke="#191970" d="M119.5371,-1021.2537C134.5293,-1023.9631 150.3428,-1026.821 164.8917,-1029.4503"/>
<polygon fill="#191970" stroke="#191970" points="119.7777,-1017.7406 109.3147,-1019.4063 118.5328,-1024.629 119.7777,-1017.7406"/>
</g>
<!-- Node117 -->
<g id="node20" class="node">
<title>Node117</title>
<g id="a_node20"><a xlink:href="structcimg__library__suffixed_1_1_c_img.html#afb6c6dfe13e9a40b69b6456e2689d057" target="_top" xlink:title="Generate a isoline of the image instance as a 3d object. ">
<polygon fill="#ffffff" stroke="#000000" points="166,-959 166,-1000 275,-1000 275,-959 166,-959"/>
<text text-anchor="start" x="174" y="-988" font-family="Helvetica,sans-Serif" font-size="10.00" fill="#000000">cimg_library_suffixed</text>
<text text-anchor="start" x="174" y="-977" font-family="Helvetica,sans-Serif" font-size="10.00" fill="#000000">::CImg&lt; charT &gt;::get</text>
<text text-anchor="middle" x="220.5" y="-966" font-family="Helvetica,sans-Serif" font-size="10.00" fill="#000000">_isoline3d</text>
</a>
</g>
</g>
<!-- Node98&#45;&gt;Node117 -->
<g id="edge19" class="edge">
<title>Node98&#45;&gt;Node117</title>
<path fill="none" stroke="#191970" d="M119.2626,-997.7959C134.6289,-995.0189 150.8725,-992.0833 165.7429,-989.3959"/>
<polygon fill="#191970" stroke="#191970" points="118.5328,-994.371 109.3147,-999.5937 119.7777,-1001.2594 118.5328,-994.371"/>
</g>
<!-- Node118 -->
<g id="node21" class="node">
<title>Node118</title>
<g id="a_node21"><a xlink:href="structcimg__library__suffixed_1_1_c_img.html#aae0a2d185e964035d5a13dd85208556e" target="_top" xlink:title="Generate an isosurface of the image instance as a 3d object. ">
<polygon fill="#ffffff" stroke="#000000" points="166,-899 166,-940 275,-940 275,-899 166,-899"/>
<text text-anchor="start" x="174" y="-928" font-family="Helvetica,sans-Serif" font-size="10.00" fill="#000000">cimg_library_suffixed</text>
<text text-anchor="start" x="174" y="-917" font-family="Helvetica,sans-Serif" font-size="10.00" fill="#000000">::CImg&lt; charT &gt;::get</text>
<text text-anchor="middle" x="220.5" y="-906" font-family="Helvetica,sans-Serif" font-size="10.00" fill="#000000">_isosurface3d</text>
</a>
</g>
</g>
<!-- Node98&#45;&gt;Node118 -->
<g id="edge20" class="edge">
<title>Node98&#45;&gt;Node118</title>
<path fill="none" stroke="#191970" d="M83.1331,-988.2964C100.4844,-976.0192 123.3776,-960.8073 145,-949.5 151.6243,-946.0359 158.7418,-942.7202 165.8643,-939.6401"/>
<polygon fill="#191970" stroke="#191970" points="80.689,-985.7421 74.6008,-994.413 84.7674,-991.4313 80.689,-985.7421"/>
</g>
<!-- Node119 -->
<g id="node22" class="node">
<title>Node119</title>
<g id="a_node22"><a xlink:href="structcimg__library__suffixed_1_1_c_img.html#a6daf74a21b7d7b540474f66f024cc4f9" target="_top" xlink:title="Generate the 3d projection planes of the image instance. ">
<polygon fill="#ffffff" stroke="#000000" points="166,-839 166,-880 275,-880 275,-839 166,-839"/>
<text text-anchor="start" x="174" y="-868" font-family="Helvetica,sans-Serif" font-size="10.00" fill="#000000">cimg_library_suffixed</text>
<text text-anchor="start" x="174" y="-857" font-family="Helvetica,sans-Serif" font-size="10.00" fill="#000000">::CImg&lt; charT &gt;::get</text>
<text text-anchor="middle" x="220.5" y="-846" font-family="Helvetica,sans-Serif" font-size="10.00" fill="#000000">_projections3d</text>
</a>
</g>
</g>
<!-- Node98&#45;&gt;Node119 -->
<g id="edge21" class="edge">
<title>Node98&#45;&gt;Node119</title>
<path fill="none" stroke="#191970" d="M67.2687,-985.4358C82.5446,-958.7042 110.441,-915.8498 145,-889.5 151.2811,-884.711 158.4269,-880.5816 165.7587,-877.0524"/>
<polygon fill="#191970" stroke="#191970" points="64.0315,-984.055 62.2228,-994.4944 70.1467,-987.4615 64.0315,-984.055"/>
</g>
<!-- Node120 -->
<g id="node23" class="node">
<title>Node120</title>
<g id="a_node23"><a xlink:href="structcimg__library__suffixed_1_1_c_img_list.html#a60bac5909029428b39ffc726b5f25079" target="_top" xlink:title="Return a list with elements being shared copies of images in the list instance. ">
<polygon fill="#ffffff" stroke="#000000" points="165,-779 165,-820 276,-820 276,-779 165,-779"/>
<text text-anchor="start" x="173" y="-808" font-family="Helvetica,sans-Serif" font-size="10.00" fill="#000000">cimg_library_suffixed</text>
<text text-anchor="start" x="173" y="-797" font-family="Helvetica,sans-Serif" font-size="10.00" fill="#000000">::CImgList&lt; charT &gt;::</text>
<text text-anchor="middle" x="220.5" y="-786" font-family="Helvetica,sans-Serif" font-size="10.00" fill="#000000">get_shared</text>
</a>
</g>
</g>
<!-- Node98&#45;&gt;Node120 -->
<g id="edge22" class="edge">
<title>Node98&#45;&gt;Node120</title>
<path fill="none" stroke="#191970" d="M60.8173,-984.6538C71.7589,-946.3539 97.73,-872.7984 145,-829.5 150.8244,-824.1649 157.7134,-819.7284 164.9226,-816.0526"/>
<polygon fill="#191970" stroke="#191970" points="57.3956,-983.8973 58.1246,-994.467 64.1461,-985.7496 57.3956,-983.8973"/>
</g>
<!-- Node121 -->
<g id="node24" class="node">
<title>Node121</title>
<g id="a_node24"><a xlink:href="structcimg__library__suffixed_1_1_c_img_list.html#a1a54d7eef89663fdcc5ffb61ed9a48b5" target="_top" xlink:title="Return a shared sublist. ">
<polygon fill="#ffffff" stroke="#000000" points="165,-719 165,-760 276,-760 276,-719 165,-719"/>
<text text-anchor="start" x="173" y="-748" font-family="Helvetica,sans-Serif" font-size="10.00" fill="#000000">cimg_library_suffixed</text>
<text text-anchor="start" x="173" y="-737" font-family="Helvetica,sans-Serif" font-size="10.00" fill="#000000">::CImgList&lt; charT &gt;::</text>
<text text-anchor="middle" x="220.5" y="-726" font-family="Helvetica,sans-Serif" font-size="10.00" fill="#000000">get_shared_images</text>
</a>
</g>
</g>
<!-- Node98&#45;&gt;Node121 -->
<g id="edge23" class="edge">
<title>Node98&#45;&gt;Node121</title>
<path fill="none" stroke="#191970" d="M57.3046,-984.164C63.9226,-936.0493 84.7761,-830.7948 145,-769.5 150.6345,-763.7653 157.5029,-759.097 164.7763,-755.3047"/>
<polygon fill="#191970" stroke="#191970" points="53.8027,-983.9565 56.0053,-994.3198 60.7461,-984.8448 53.8027,-983.9565"/>
</g>
<!-- Node122 -->
<g id="node25" class="node">
<title>Node122</title>
<g id="a_node25"><a xlink:href="structcimg__library__suffixed_1_1_c_img.html#acae5385f7b2692787b1c50fa1663e587" target="_top" xlink:title="Split image into a list along specified axis. ">
<polygon fill="#ffffff" stroke="#000000" points="154.5,-669.5 154.5,-699.5 286.5,-699.5 286.5,-669.5 154.5,-669.5"/>
<text text-anchor="start" x="162.5" y="-687.5" font-family="Helvetica,sans-Serif" font-size="10.00" fill="#000000">cimg_library_suffixed</text>
<text text-anchor="middle" x="220.5" y="-676.5" font-family="Helvetica,sans-Serif" font-size="10.00" fill="#000000">::CImg&lt; charT &gt;::get_split</text>
</a>
</g>
</g>
<!-- Node98&#45;&gt;Node122 -->
<g id="edge24" class="edge">
<title>Node98&#45;&gt;Node122</title>
<path fill="none" stroke="#191970" d="M59.0214,-984.3064C71.1042,-919.5685 105.8974,-749.6639 145,-709.5 148.7564,-705.6416 153.1205,-702.3786 157.82,-699.6192"/>
<polygon fill="#191970" stroke="#191970" points="55.5242,-983.9721 57.1559,-994.4405 62.4085,-985.2394 55.5242,-983.9721"/>
</g>
<!-- Node123 -->
<g id="node26" class="node">
<title>Node123</title>
<g id="a_node26"><a xlink:href="structcimg__library__suffixed_1_1_c_img_list.html#ab2437a10d0bbe2f4d5e91a49dc5cd105" target="_top" xlink:title="Unserialize a CImg&lt;unsigned char&gt; serialized buffer into a CImgList&lt;T&gt; list. ">
<polygon fill="#ffffff" stroke="#000000" points="165,-609 165,-650 276,-650 276,-609 165,-609"/>
<text text-anchor="start" x="173" y="-638" font-family="Helvetica,sans-Serif" font-size="10.00" fill="#000000">cimg_library_suffixed</text>
<text text-anchor="start" x="173" y="-627" font-family="Helvetica,sans-Serif" font-size="10.00" fill="#000000">::CImgList&lt; charT &gt;::</text>
<text text-anchor="middle" x="220.5" y="-616" font-family="Helvetica,sans-Serif" font-size="10.00" fill="#000000">get_unserialize</text>
</a>
</g>
</g>
<!-- Node98&#45;&gt;Node123 -->
<g id="edge25" class="edge">
<title>Node98&#45;&gt;Node123</title>
<path fill="none" stroke="#191970" d="M58.0706,-984.2687C68.6566,-912.6279 101.8433,-709.9589 145,-660.5 150.4965,-654.2009 157.4696,-649.1587 164.9469,-645.1286"/>
<polygon fill="#191970" stroke="#191970" points="54.5981,-983.8274 56.6207,-994.2274 61.525,-984.836 54.5981,-983.8274"/>
</g>
<!-- Node124 -->
<g id="node27" class="node">
<title>Node124</title>
<g id="a_node27"><a xlink:href="structcimg__library__suffixed_1_1_c_img.html#aae1d41b8104d3018b50f25d47ac219e0" target="_top" xlink:title="Compute 0&#45;isolines of a function, as a 3d object. ">
<polygon fill="#ffffff" stroke="#000000" points="153.5,-559.5 153.5,-589.5 287.5,-589.5 287.5,-559.5 153.5,-559.5"/>
<text text-anchor="start" x="161.5" y="-577.5" font-family="Helvetica,sans-Serif" font-size="10.00" fill="#000000">cimg_library_suffixed</text>
<text text-anchor="middle" x="220.5" y="-566.5" font-family="Helvetica,sans-Serif" font-size="10.00" fill="#000000">::CImg&lt; charT &gt;::isoline3d</text>
</a>
</g>
</g>
<!-- Node98&#45;&gt;Node124 -->
<g id="edge26" class="edge">
<title>Node98&#45;&gt;Node124</title>
<path fill="none" stroke="#191970" d="M56.8487,-984.0832C64.7557,-903.7562 92.8781,-657.259 145,-599.5 148.5151,-595.6047 152.6503,-592.315 157.1439,-589.5369"/>
<polygon fill="#191970" stroke="#191970" points="53.3417,-983.9883 55.8667,-994.2779 60.3095,-984.6595 53.3417,-983.9883"/>
</g>
<!-- Node125 -->
<g id="node28" class="node">
<title>Node125</title>
<g id="a_node28"><a xlink:href="structcimg__library__suffixed_1_1_c_img.html#af2871222dafbcaf1ddab4701be882410" target="_top" xlink:title="Compute isosurface of a function, as a 3d object. ">
<polygon fill="#ffffff" stroke="#000000" points="145,-510.5 145,-540.5 296,-540.5 296,-510.5 145,-510.5"/>
<text text-anchor="start" x="153" y="-528.5" font-family="Helvetica,sans-Serif" font-size="10.00" fill="#000000">cimg_library_suffixed</text>
<text text-anchor="middle" x="220.5" y="-517.5" font-family="Helvetica,sans-Serif" font-size="10.00" fill="#000000">::CImg&lt; charT &gt;::isosurface3d</text>
</a>
</g>
</g>
<!-- Node98&#45;&gt;Node125 -->
<g id="edge27" class="edge">
<title>Node98&#45;&gt;Node125</title>
<path fill="none" stroke="#191970" d="M56.1851,-984.2387C62.4308,-897.9058 86.963,-616.2921 145,-550.5 148.3796,-546.6688 152.3594,-543.4228 156.6954,-540.673"/>
<polygon fill="#191970" stroke="#191970" points="52.6786,-984.2101 55.468,-994.4311 59.6613,-984.7015 52.6786,-984.2101"/>
</g>
<!-- Node126 -->
<g id="node29" class="node">
<title>Node126</title>
<g id="a_node29"><a xlink:href="structcimg__library__suffixed_1_1_c_img_list.html#a23a2c8ad55006cc12ef5316355e46ea0" target="_top" xlink:title="Load an image from a video file, using OpenCV library. ">
<polygon fill="#ffffff" stroke="#000000" points="165,-450 165,-491 276,-491 276,-450 165,-450"/>
<text text-anchor="start" x="173" y="-479" font-family="Helvetica,sans-Serif" font-size="10.00" fill="#000000">cimg_library_suffixed</text>
<text text-anchor="start" x="173" y="-468" font-family="Helvetica,sans-Serif" font-size="10.00" fill="#000000">::CImgList&lt; charT &gt;::</text>
<text text-anchor="middle" x="220.5" y="-457" font-family="Helvetica,sans-Serif" font-size="10.00" fill="#000000">load_video</text>
</a>
</g>
</g>
<!-- Node98&#45;&gt;Node126 -->
<g id="edge28" class="edge">
<title>Node98&#45;&gt;Node126</title>
<path fill="none" stroke="#191970" d="M55.8282,-984.4351C61.1463,-892.828 83.6592,-577.5498 145,-501.5 150.3375,-494.8826 157.3204,-489.6642 164.8842,-485.5526"/>
<polygon fill="#191970" stroke="#191970" points="52.3312,-984.2858 55.2635,-994.4668 59.3201,-984.6794 52.3312,-984.2858"/>
</g>
<!-- Node127 -->
<g id="node30" class="node">
<title>Node127</title>
<g id="a_node30"><a xlink:href="structcimg__library__suffixed_1_1_c_img_list.html#aa70386a8220b072cfebd654cb1ea636a" target="_top" xlink:title="Transfer the content of the list instance to another list. ">
<polygon fill="#ffffff" stroke="#000000" points="165,-390 165,-431 276,-431 276,-390 165,-390"/>
<text text-anchor="start" x="173" y="-419" font-family="Helvetica,sans-Serif" font-size="10.00" fill="#000000">cimg_library_suffixed</text>
<text text-anchor="start" x="173" y="-408" font-family="Helvetica,sans-Serif" font-size="10.00" fill="#000000">::CImgList&lt; charT &gt;::</text>
<text text-anchor="middle" x="220.5" y="-397" font-family="Helvetica,sans-Serif" font-size="10.00" fill="#000000">move_to</text>
</a>
</g>
</g>
<!-- Node98&#45;&gt;Node127 -->
<g id="edge29" class="edge">
<title>Node98&#45;&gt;Node127</title>
<path fill="none" stroke="#191970" d="M55.2848,-984.0313C58.8187,-884.9443 76.2236,-526.3979 145,-440.5 150.2893,-433.8939 157.2466,-428.7365 164.7995,-424.7115"/>
<polygon fill="#191970" stroke="#191970" points="51.7776,-984.1879 54.9359,-994.301 58.7735,-984.4257 51.7776,-984.1879"/>
</g>
<!-- Node128 -->
<g id="node31" class="node">
<title>Node128</title>
<g id="a_node31"><a xlink:href="structcimg__library__suffixed_1_1_c_img_1_1__cimg__math__parser.html#ab78c2fb85a00fd6dcabc4d1622ada8d8" target="_top" xlink:title="cimg_library_suffixed\l::CImg::_cimg_math_parser\l::mp_list_median">
<polygon fill="#ffffff" stroke="#000000" points="151.5,-330 151.5,-371 289.5,-371 289.5,-330 151.5,-330"/>
<text text-anchor="start" x="159.5" y="-359" font-family="Helvetica,sans-Serif" font-size="10.00" fill="#000000">cimg_library_suffixed</text>
<text text-anchor="start" x="159.5" y="-348" font-family="Helvetica,sans-Serif" font-size="10.00" fill="#000000">::CImg::_cimg_math_parser</text>
<text text-anchor="middle" x="220.5" y="-337" font-family="Helvetica,sans-Serif" font-size="10.00" fill="#000000">::mp_list_median</text>
</a>
</g>
</g>
<!-- Node98&#45;&gt;Node128 -->
<g id="edge30" class="edge">
<title>Node98&#45;&gt;Node128</title>
<path fill="none" stroke="#191970" d="M54.8546,-984.1283C56.8101,-878.7479 69.1997,-476.6228 145,-380.5 147.7948,-376.9559 151.0705,-373.8291 154.6634,-371.0707"/>
<polygon fill="#191970" stroke="#191970" points="51.3499,-984.3786 54.6798,-994.4365 58.3489,-984.4973 51.3499,-984.3786"/>
</g>
<!-- Node129 -->
<g id="node32" class="node">
<title>Node129</title>
<g id="a_node32"><a xlink:href="structcimg__library__suffixed_1_1_c_img_1_1__cimg__math__parser.html#a91d57976b1f58cfaacd1726d65ca25de" target="_top" xlink:title="cimg_library_suffixed\l::CImg::_cimg_math_parser\l::mp_list_stats">
<polygon fill="#ffffff" stroke="#000000" points="151.5,-270 151.5,-311 289.5,-311 289.5,-270 151.5,-270"/>
<text text-anchor="start" x="159.5" y="-299" font-family="Helvetica,sans-Serif" font-size="10.00" fill="#000000">cimg_library_suffixed</text>
<text text-anchor="start" x="159.5" y="-288" font-family="Helvetica,sans-Serif" font-size="10.00" fill="#000000">::CImg::_cimg_math_parser</text>
<text text-anchor="middle" x="220.5" y="-277" font-family="Helvetica,sans-Serif" font-size="10.00" fill="#000000">::mp_list_stats</text>
</a>
</g>
</g>
<!-- Node98&#45;&gt;Node129 -->
<g id="edge31" class="edge">
<title>Node98&#45;&gt;Node129</title>
<path fill="none" stroke="#191970" d="M56.3266,-983.9802C64.996,-865.6699 103.3083,-374.0433 145,-320.5 147.7729,-316.9388 151.0323,-313.7992 154.6132,-311.0313"/>
<polygon fill="#191970" stroke="#191970" points="52.8153,-984.0095 55.581,-994.237 59.7969,-984.5171 52.8153,-984.0095"/>
</g>
<!-- Node130 -->
<g id="node33" class="node">
<title>Node130</title>
<g id="a_node33"><a xlink:href="structcimg__library__suffixed_1_1_c_img.html#a38bca8940aa19a72153372c6615a0c61" target="_top" xlink:title="Generate a 3d XY&#45;plane. ">
<polygon fill="#ffffff" stroke="#000000" points="156,-220.5 156,-250.5 285,-250.5 285,-220.5 156,-220.5"/>
<text text-anchor="start" x="164" y="-238.5" font-family="Helvetica,sans-Serif" font-size="10.00" fill="#000000">cimg_library_suffixed</text>
<text text-anchor="middle" x="220.5" y="-227.5" font-family="Helvetica,sans-Serif" font-size="10.00" fill="#000000">::CImg&lt; charT &gt;::plane3d</text>
</a>
</g>
</g>
<!-- Node98&#45;&gt;Node130 -->
<g id="edge32" class="edge">
<title>Node98&#45;&gt;Node130</title>
<path fill="none" stroke="#191970" d="M55.9657,-984.1038C63.3583,-859.6557 98.0567,-317.8857 145,-260.5 148.1473,-256.6526 151.9025,-253.3929 156.0323,-250.6317"/>
<polygon fill="#191970" stroke="#191970" points="52.4648,-984.0182 55.3714,-994.2065 59.4527,-984.4294 52.4648,-984.0182"/>
</g>
<!-- Node131 -->
<g id="node34" class="node">
<title>Node131</title>
<g id="a_node34"><a xlink:href="structcimg__library__suffixed_1_1_c_img_list.html#a4fcada66102d9f9245f11d2127dbe8fb" target="_top" xlink:title="Save image sequence, using the OpenCV library. ">
<polygon fill="#ffffff" stroke="#000000" points="165,-160 165,-201 276,-201 276,-160 165,-160"/>
<text text-anchor="start" x="173" y="-189" font-family="Helvetica,sans-Serif" font-size="10.00" fill="#000000">cimg_library_suffixed</text>
<text text-anchor="start" x="173" y="-178" font-family="Helvetica,sans-Serif" font-size="10.00" fill="#000000">::CImgList&lt; charT &gt;::</text>
<text text-anchor="middle" x="220.5" y="-167" font-family="Helvetica,sans-Serif" font-size="10.00" fill="#000000">save_video</text>
</a>
</g>
</g>
<!-- Node98&#45;&gt;Node131 -->
<g id="edge33" class="edge">
<title>Node98&#45;&gt;Node131</title>
<path fill="none" stroke="#191970" d="M55.8495,-984.1679C62.9228,-855.15 97.221,-274.7356 145,-211.5 150.2106,-204.6038 157.2248,-199.2339 164.8871,-195.0545"/>
<polygon fill="#191970" stroke="#191970" points="52.3482,-984.0994 55.3008,-994.2745 59.3379,-984.479 52.3482,-984.0994"/>
</g>
<!-- Node132 -->
<g id="node35" class="node">
<title>Node132</title>
<g id="a_node35"><a xlink:href="structcimg__library__suffixed_1_1_c_img.html#a8025573f639ba766ca2270bf10c2d00f" target="_top" xlink:title="Generate a 3d sphere. ">
<polygon fill="#ffffff" stroke="#000000" points="153,-110.5 153,-140.5 288,-140.5 288,-110.5 153,-110.5"/>
<text text-anchor="start" x="161" y="-128.5" font-family="Helvetica,sans-Serif" font-size="10.00" fill="#000000">cimg_library_suffixed</text>
<text text-anchor="middle" x="220.5" y="-117.5" font-family="Helvetica,sans-Serif" font-size="10.00" fill="#000000">::CImg&lt; charT &gt;::sphere3d</text>
</a>
</g>
</g>
<!-- Node98&#45;&gt;Node132 -->
<g id="edge34" class="edge">
<title>Node98&#45;&gt;Node132</title>
<path fill="none" stroke="#191970" d="M55.5429,-984.3335C61.3358,-849.6059 91.2514,-217.2385 145,-150.5 148.1178,-146.6287 151.8518,-143.3518 155.967,-140.5787"/>
<polygon fill="#191970" stroke="#191970" points="52.039,-984.353 55.1115,-994.4925 59.0327,-984.65 52.039,-984.353"/>
</g>
<!-- Node133 -->
<g id="node36" class="node">
<title>Node133</title>
<g id="a_node36"><a xlink:href="structcimg__library__suffixed_1_1_c_img.html#a42395174c544ec66191539bf76fcb360" target="_top" xlink:title="Texturize primitives of a 3d object. ">
<polygon fill="#ffffff" stroke="#000000" points="154,-50 154,-91 287,-91 287,-50 154,-50"/>
<text text-anchor="start" x="162" y="-79" font-family="Helvetica,sans-Serif" font-size="10.00" fill="#000000">cimg_library_suffixed</text>
<text text-anchor="start" x="162" y="-68" font-family="Helvetica,sans-Serif" font-size="10.00" fill="#000000">::CImg&lt; charT &gt;::texturize</text>
<text text-anchor="middle" x="220.5" y="-57" font-family="Helvetica,sans-Serif" font-size="10.00" fill="#000000">_object3d</text>
</a>
</g>
</g>
<!-- Node98&#45;&gt;Node133 -->
<g id="edge35" class="edge">
<title>Node98&#45;&gt;Node133</title>
<path fill="none" stroke="#191970" d="M55.4782,-984.2884C61.0789,-845.1099 90.7491,-174.3243 145,-101.5 147.9627,-97.5229 151.5266,-94.0539 155.4719,-91.0283"/>
<polygon fill="#191970" stroke="#191970" points="51.9762,-984.2726 55.0761,-994.4038 58.9706,-984.5507 51.9762,-984.2726"/>
</g>
<!-- Node134 -->
<g id="node37" class="node">
<title>Node134</title>
<g id="a_node37"><a xlink:href="structcimg__library__suffixed_1_1_c_img.html#a8e6e4d77fb5eba21751926bb972d89d5" target="_top" xlink:title="Generate a 3d torus. ">
<polygon fill="#ffffff" stroke="#000000" points="156.5,-.5 156.5,-30.5 284.5,-30.5 284.5,-.5 156.5,-.5"/>
<text text-anchor="start" x="164.5" y="-18.5" font-family="Helvetica,sans-Serif" font-size="10.00" fill="#000000">cimg_library_suffixed</text>
<text text-anchor="middle" x="220.5" y="-7.5" font-family="Helvetica,sans-Serif" font-size="10.00" fill="#000000">::CImg&lt; charT &gt;::torus3d</text>
</a>
</g>
</g>
<!-- Node98&#45;&gt;Node134 -->
<g id="edge36" class="edge">
<title>Node98&#45;&gt;Node134</title>
<path fill="none" stroke="#191970" d="M55.2246,-984.3734C59.6082,-839.6882 84.4452,-116.6079 145,-40.5 148.1808,-36.5022 152.0193,-33.1378 156.2589,-30.3072"/>
<polygon fill="#191970" stroke="#191970" points="51.7229,-984.3823 54.9234,-994.4821 58.7198,-984.5908 51.7229,-984.3823"/>
</g>
</g>
</svg>
        <g id="navigator" transform="translate(0 0)" fill="#404254">
                <rect fill="#f2f5e9" fill-opacity="0.5" stroke="#606060" stroke-width=".5" x="0" y="0" width="60" height="60"/>
                <use id="zoomplus" xlink:href="#zoomPlus" x="17" y="9" onmousedown="handleZoom(evt,'in')"/>
                <use id="zoomminus" xlink:href="#zoomMin" x="42" y="9" onmousedown="handleZoom(evt,'out')"/>
                <use id="reset" xlink:href="#resetDef" x="30" y="36" onmousedown="handleReset()"/>
                <g id="arrowUp" xlink:href="#dirArrow" transform="translate(30 24)" onmousedown="handlePan(0,-1)">
                  <use xlink:href="#rim" fill="#404040">
                        <set attributeName="fill" to="#808080" begin="arrowUp.mouseover" end="arrowUp.mouseout"/>
                  </use>
                  <path fill="none" stroke="white" stroke-width="1.5" d="M0,-3.0v7 M-2.5,-0.5L0,-3.0L2.5,-0.5"/>
                </g>
                <g id="arrowRight" xlink:href="#dirArrow" transform="rotate(90) translate(36 -43)" onmousedown="handlePan(1,0)">
                  <use xlink:href="#rim" fill="#404040">
                        <set attributeName="fill" to="#808080" begin="arrowRight.mouseover" end="arrowRight.mouseout"/>
                  </use>
                  <path fill="none" stroke="white" stroke-width="1.5" d="M0,-3.0v7 M-2.5,-0.5L0,-3.0L2.5,-0.5"/>
                </g>
                <g id="arrowDown" xlink:href="#dirArrow" transform="rotate(180) translate(-30 -48)" onmousedown="handlePan(0,1)">
                  <use xlink:href="#rim" fill="#404040">
                        <set attributeName="fill" to="#808080" begin="arrowDown.mouseover" end="arrowDown.mouseout"/>
                  </use>
                  <path fill="none" stroke="white" stroke-width="1.5" d="M0,-3.0v7 M-2.5,-0.5L0,-3.0L2.5,-0.5"/>
                </g>
                <g id="arrowLeft" xlink:href="#dirArrow" transform="rotate(270) translate(-36 17)" onmousedown="handlePan(-1,0)">
                  <use xlink:href="#rim" fill="#404040">
                        <set attributeName="fill" to="#808080" begin="arrowLeft.mouseover" end="arrowLeft.mouseout"/>
                  </use>
                  <path fill="none" stroke="white" stroke-width="1.5" d="M0,-3.0v7 M-2.5,-0.5L0,-3.0L2.5,-0.5"/>
                </g>
        </g>
        <svg viewBox="0 0 15 15" width="100%" height="30px" preserveAspectRatio="xMaxYMin meet">
         <g id="arrow_out" transform="scale(0.3 0.3)">
          <a xlink:href="structcimg__library__suffixed_1_1_c_img_list_a8fbb044c1ccfe53144c926308f02279e_icgraph_org.svg" target="_base">
           <rect id="button" ry="5" rx="5" y="6" x="6" height="38" width="38"
                fill="#f2f5e9" fill-opacity="0.5" stroke="#606060" stroke-width="1.0"/>
           <path id="arrow"
             d="M 11.500037,31.436501 C 11.940474,20.09759 22.043105,11.32322 32.158766,21.979434 L 37.068811,17.246167 C 37.068811,17.246167 37.088388,32 37.088388,32 L 22.160133,31.978069 C 22.160133,31.978069 26.997745,27.140456 26.997745,27.140456 C 18.528582,18.264221 13.291696,25.230495 11.500037,31.436501 z"
             style="fill:#404040;"/>
          </a>
         </g>
        </svg>
</svg>
