<?xml version="1.0" encoding="UTF-8" standalone="no"?>
<!DOCTYPE svg PUBLIC "-//W3C//DTD SVG 1.1//EN"
 "http://www.w3.org/Graphics/SVG/1.1/DTD/svg11.dtd">
<!-- Generated by graphviz version 2.40.1 (20161225.0304)
 -->
<!-- Title: cimg_library_suffixed::CImg::_cimg_math_parser::end Pages: 1 -->
<svg width="377pt" height="170pt"
 viewBox="0.00 0.00 377.00 170.00" xmlns="http://www.w3.org/2000/svg" xmlns:xlink="http://www.w3.org/1999/xlink">
<g id="graph0" class="graph" transform="scale(1 1) rotate(0) translate(4 166)">
<title>cimg_library_suffixed::CImg::_cimg_math_parser::end</title>
<polygon fill="#ffffff" stroke="transparent" points="-4,4 -4,-166 373,-166 373,4 -4,4"/>
<!-- Node161 -->
<g id="node1" class="node">
<title>Node161</title>
<polygon fill="#bfbfbf" stroke="#000000" points="0,-66 0,-96 160,-96 160,-66 0,-66"/>
<text text-anchor="start" x="8" y="-84" font-family="Helvetica,sans-Serif" font-size="10.00" fill="#000000">cimg_library_suffixed</text>
<text text-anchor="middle" x="80" y="-73" font-family="Helvetica,sans-Serif" font-size="10.00" fill="#000000">::CImg::_cimg_math_parser::end</text>
</g>
<!-- Node162 -->
<g id="node2" class="node">
<title>Node162</title>
<g id="a_node2"><a xlink:href="structcimg__library__suffixed_1_1_c_img_1_1__functor2d__expr.html#aa62f7b3ab95d5897ec18a179b2777dfa" target="_top" xlink:title="cimg_library_suffixed\l::CImg::_functor2d_expr\l::~_functor2d_expr">
<polygon fill="#ffffff" stroke="#000000" points="221.5,-120.5 221.5,-161.5 343.5,-161.5 343.5,-120.5 221.5,-120.5"/>
<text text-anchor="start" x="229.5" y="-149.5" font-family="Helvetica,sans-Serif" font-size="10.00" fill="#000000">cimg_library_suffixed</text>
<text text-anchor="start" x="229.5" y="-138.5" font-family="Helvetica,sans-Serif" font-size="10.00" fill="#000000">::CImg::_functor2d_expr</text>
<text text-anchor="middle" x="282.5" y="-127.5" font-family="Helvetica,sans-Serif" font-size="10.00" fill="#000000">::~_functor2d_expr</text>
</a>
</g>
</g>
<!-- Node161&#45;&gt;Node162 -->
<g id="edge1" class="edge">
<title>Node161&#45;&gt;Node162</title>
<path fill="none" stroke="#191970" d="M140.7297,-98.994C166.1587,-106.5285 195.6715,-115.273 221.1648,-122.8266"/>
<polygon fill="#191970" stroke="#191970" points="141.4202,-95.5482 130.8379,-96.0631 139.4316,-102.2598 141.4202,-95.5482"/>
</g>
<!-- Node163 -->
<g id="node3" class="node">
<title>Node163</title>
<g id="a_node3"><a xlink:href="structcimg__library__suffixed_1_1_c_img_1_1__functor3d__expr.html#a06b123f343ca7d0805a8ef4b7544ed80" target="_top" xlink:title="cimg_library_suffixed\l::CImg::_functor3d_expr\l::~_functor3d_expr">
<polygon fill="#ffffff" stroke="#000000" points="221.5,-60.5 221.5,-101.5 343.5,-101.5 343.5,-60.5 221.5,-60.5"/>
<text text-anchor="start" x="229.5" y="-89.5" font-family="Helvetica,sans-Serif" font-size="10.00" fill="#000000">cimg_library_suffixed</text>
<text text-anchor="start" x="229.5" y="-78.5" font-family="Helvetica,sans-Serif" font-size="10.00" fill="#000000">::CImg::_functor3d_expr</text>
<text text-anchor="middle" x="282.5" y="-67.5" font-family="Helvetica,sans-Serif" font-size="10.00" fill="#000000">::~_functor3d_expr</text>
</a>
</g>
</g>
<!-- Node161&#45;&gt;Node163 -->
<g id="edge2" class="edge">
<title>Node161&#45;&gt;Node163</title>
<path fill="none" stroke="#191970" d="M170.1816,-81C187.5301,-81 205.3173,-81 221.473,-81"/>
<polygon fill="#191970" stroke="#191970" points="170.0334,-77.5001 160.0334,-81 170.0333,-84.5001 170.0334,-77.5001"/>
</g>
<!-- Node164 -->
<g id="node4" class="node">
<title>Node164</title>
<g id="a_node4"><a xlink:href="structcimg__library__suffixed_1_1_c_img_1_1__functor4d__streamline__expr.html#ab73048a58fd20fe9586f11445227a0b1" target="_top" xlink:title="cimg_library_suffixed\l::CImg::_functor4d_streamline\l_expr::~_functor4d_streamline_expr">
<polygon fill="#ffffff" stroke="#000000" points="196,-.5 196,-41.5 369,-41.5 369,-.5 196,-.5"/>
<text text-anchor="start" x="204" y="-29.5" font-family="Helvetica,sans-Serif" font-size="10.00" fill="#000000">cimg_library_suffixed</text>
<text text-anchor="start" x="204" y="-18.5" font-family="Helvetica,sans-Serif" font-size="10.00" fill="#000000">::CImg::_functor4d_streamline</text>
<text text-anchor="middle" x="282.5" y="-7.5" font-family="Helvetica,sans-Serif" font-size="10.00" fill="#000000">_expr::~_functor4d_streamline_expr</text>
</a>
</g>
</g>
<!-- Node161&#45;&gt;Node164 -->
<g id="edge3" class="edge">
<title>Node161&#45;&gt;Node164</title>
<path fill="none" stroke="#191970" d="M140.4356,-63.0932C163.3492,-56.3039 189.6122,-48.5223 213.274,-41.5114"/>
<polygon fill="#191970" stroke="#191970" points="139.4316,-59.7402 130.8379,-65.9369 141.4202,-66.4518 139.4316,-59.7402"/>
</g>
</g>
</svg>
