<?xml version="1.0" encoding="UTF-8" standalone="no"?>
<!DOCTYPE svg PUBLIC "-//W3C//DTD SVG 1.1//EN"
 "http://www.w3.org/Graphics/SVG/1.1/DTD/svg11.dtd">
<!-- Generated by graphviz version 2.40.1 (20161225.0304)
 -->
<!-- Title: cimg_library_suffixed::CImg::_cimg_math_parser::mp_srand Pages: 1 -->
<svg width="1939pt" height="214pt"
 viewBox="0.00 0.00 1939.00 213.80" xmlns="http://www.w3.org/2000/svg" xmlns:xlink="http://www.w3.org/1999/xlink">
<g id="graph0" class="graph" transform="scale(1 1) rotate(0) translate(4 209.7982)">
<title>cimg_library_suffixed::CImg::_cimg_math_parser::mp_srand</title>
<polygon fill="#ffffff" stroke="transparent" points="-4,4 -4,-209.7982 1935,-209.7982 1935,4 -4,4"/>
<!-- Node1085 -->
<g id="node1" class="node">
<title>Node1085</title>
<polygon fill="#bfbfbf" stroke="#000000" points="0,-132.7982 0,-173.7982 138,-173.7982 138,-132.7982 0,-132.7982"/>
<text text-anchor="start" x="8" y="-161.7982" font-family="Helvetica,sans-Serif" font-size="10.00" fill="#000000">cimg_library_suffixed</text>
<text text-anchor="start" x="8" y="-150.7982" font-family="Helvetica,sans-Serif" font-size="10.00" fill="#000000">::CImg::_cimg_math_parser</text>
<text text-anchor="middle" x="69" y="-139.7982" font-family="Helvetica,sans-Serif" font-size="10.00" fill="#000000">::mp_srand</text>
</g>
<!-- Node1086 -->
<g id="node2" class="node">
<title>Node1086</title>
<g id="a_node2"><a xlink:href="namespacecimg__library__suffixed_1_1cimg.html#ab77520695d7b96687093353c613c410c" target="_top" xlink:title="cimg_library_suffixed\l::cimg::srand">
<polygon fill="#ffffff" stroke="#000000" points="174,-138.2982 174,-168.2982 283,-168.2982 283,-138.2982 174,-138.2982"/>
<text text-anchor="start" x="182" y="-156.2982" font-family="Helvetica,sans-Serif" font-size="10.00" fill="#000000">cimg_library_suffixed</text>
<text text-anchor="middle" x="228.5" y="-145.2982" font-family="Helvetica,sans-Serif" font-size="10.00" fill="#000000">::cimg::srand</text>
</a>
</g>
</g>
<!-- Node1085&#45;&gt;Node1086 -->
<g id="edge1" class="edge">
<title>Node1085&#45;&gt;Node1086</title>
<path fill="none" stroke="#191970" d="M138.0314,-153.2982C146.5309,-153.2982 155.1959,-153.2982 163.6306,-153.2982"/>
<polygon fill="#191970" stroke="#191970" points="163.7783,-156.7983 173.7783,-153.2982 163.7782,-149.7983 163.7783,-156.7983"/>
</g>
<!-- Node1087 -->
<g id="node3" class="node">
<title>Node1087</title>
<g id="a_node3"><a xlink:href="namespacecimg__library__suffixed_1_1cimg.html#a71a3c7b37befc7a4313dfcdd80271bce" target="_top" xlink:title="Return the value of a system timer, with a millisecond precision. ">
<polygon fill="#ffffff" stroke="#000000" points="319,-163.2982 319,-193.2982 428,-193.2982 428,-163.2982 319,-163.2982"/>
<text text-anchor="start" x="327" y="-181.2982" font-family="Helvetica,sans-Serif" font-size="10.00" fill="#000000">cimg_library_suffixed</text>
<text text-anchor="middle" x="373.5" y="-170.2982" font-family="Helvetica,sans-Serif" font-size="10.00" fill="#000000">::cimg::time</text>
</a>
</g>
</g>
<!-- Node1086&#45;&gt;Node1087 -->
<g id="edge2" class="edge">
<title>Node1086&#45;&gt;Node1087</title>
<path fill="none" stroke="#191970" d="M283.3183,-162.7497C291.6188,-164.1808 300.2486,-165.6687 308.7354,-167.1319"/>
<polygon fill="#191970" stroke="#191970" points="308.1549,-170.5834 318.6042,-168.8334 309.3443,-163.6852 308.1549,-170.5834"/>
</g>
<!-- Node1101 -->
<g id="node17" class="node">
<title>Node1101</title>
<g id="a_node17"><a xlink:href="namespacecimg__library__suffixed_1_1cimg.html#abae779a6d52b74e3a46e75a6c5b6e49e" target="_top" xlink:title="cimg_library_suffixed\l::cimg::srand">
<polygon fill="#ffffff" stroke="#000000" points="319,-114.2982 319,-144.2982 428,-144.2982 428,-114.2982 319,-114.2982"/>
<text text-anchor="start" x="327" y="-132.2982" font-family="Helvetica,sans-Serif" font-size="10.00" fill="#000000">cimg_library_suffixed</text>
<text text-anchor="middle" x="373.5" y="-121.2982" font-family="Helvetica,sans-Serif" font-size="10.00" fill="#000000">::cimg::srand</text>
</a>
</g>
</g>
<!-- Node1086&#45;&gt;Node1101 -->
<g id="edge26" class="edge">
<title>Node1086&#45;&gt;Node1101</title>
<path fill="none" stroke="#191970" d="M283.3183,-144.2249C291.6188,-142.851 300.2486,-141.4226 308.7354,-140.0179"/>
<polygon fill="#191970" stroke="#191970" points="309.31,-143.4705 318.6042,-138.3844 308.1669,-136.5644 309.31,-143.4705"/>
</g>
<!-- Node1088 -->
<g id="node4" class="node">
<title>Node1088</title>
<g id="a_node4"><a xlink:href="namespacecimg__library__suffixed_1_1cimg.html#ab47e3a7718b582df77725470f3824eb4" target="_top" xlink:title="cimg_library_suffixed\l::cimg::tictoc">
<polygon fill="#ffffff" stroke="#000000" points="464,-163.2982 464,-193.2982 573,-193.2982 573,-163.2982 464,-163.2982"/>
<text text-anchor="start" x="472" y="-181.2982" font-family="Helvetica,sans-Serif" font-size="10.00" fill="#000000">cimg_library_suffixed</text>
<text text-anchor="middle" x="518.5" y="-170.2982" font-family="Helvetica,sans-Serif" font-size="10.00" fill="#000000">::cimg::tictoc</text>
</a>
</g>
</g>
<!-- Node1087&#45;&gt;Node1088 -->
<g id="edge3" class="edge">
<title>Node1087&#45;&gt;Node1088</title>
<path fill="none" stroke="#191970" d="M428.3183,-171.7299C436.5286,-171.5581 445.0611,-171.5081 453.4586,-171.5801"/>
<polygon fill="#191970" stroke="#191970" points="453.5541,-175.0817 463.6042,-171.7283 453.6564,-168.0825 453.5541,-175.0817"/>
</g>
<!-- Node1088&#45;&gt;Node1087 -->
<g id="edge10" class="edge">
<title>Node1088&#45;&gt;Node1087</title>
<path fill="none" stroke="#191970" d="M463.6042,-184.8682C455.3919,-185.0392 446.8588,-185.0884 438.4621,-185.0157"/>
<polygon fill="#191970" stroke="#191970" points="438.3687,-181.514 428.3183,-184.8665 438.2657,-188.5133 438.3687,-181.514"/>
</g>
<!-- Node1089 -->
<g id="node5" class="node">
<title>Node1089</title>
<g id="a_node5"><a xlink:href="namespacecimg__library__suffixed_1_1cimg.html#a9e739e4b4ac058abfba069466617b914" target="_top" xlink:title="cimg_library_suffixed\l::cimg::mutex">
<polygon fill="#ffffff" stroke="#000000" points="1508,-128.2982 1508,-158.2982 1617,-158.2982 1617,-128.2982 1508,-128.2982"/>
<text text-anchor="start" x="1516" y="-146.2982" font-family="Helvetica,sans-Serif" font-size="10.00" fill="#000000">cimg_library_suffixed</text>
<text text-anchor="middle" x="1562.5" y="-135.2982" font-family="Helvetica,sans-Serif" font-size="10.00" fill="#000000">::cimg::mutex</text>
</a>
</g>
</g>
<!-- Node1088&#45;&gt;Node1089 -->
<g id="edge4" class="edge">
<title>Node1088&#45;&gt;Node1089</title>
<path fill="none" stroke="#191970" d="M573.1927,-184.9288C631.4251,-191.4065 726.3244,-200.2982 808.5,-200.2982 808.5,-200.2982 808.5,-200.2982 1272.5,-200.2982 1354.8364,-200.2982 1447.8952,-177.9025 1505.8837,-161.1874"/>
<polygon fill="#191970" stroke="#191970" points="1506.9718,-164.5158 1515.5869,-158.3489 1505.0064,-157.7974 1506.9718,-164.5158"/>
</g>
<!-- Node1094 -->
<g id="node10" class="node">
<title>Node1094</title>
<g id="a_node10"><a xlink:href="namespacecimg__library__suffixed_1_1cimg.html#ada686776cc71803df391eea79cd1b3e5" target="_top" xlink:title="Get/set default output stream for the &#160;library messages. ">
<polygon fill="#ffffff" stroke="#000000" points="609,-141.2982 609,-171.2982 718,-171.2982 718,-141.2982 609,-141.2982"/>
<text text-anchor="start" x="617" y="-159.2982" font-family="Helvetica,sans-Serif" font-size="10.00" fill="#000000">cimg_library_suffixed</text>
<text text-anchor="middle" x="663.5" y="-148.2982" font-family="Helvetica,sans-Serif" font-size="10.00" fill="#000000">::cimg::output</text>
</a>
</g>
</g>
<!-- Node1088&#45;&gt;Node1094 -->
<g id="edge11" class="edge">
<title>Node1088&#45;&gt;Node1094</title>
<path fill="none" stroke="#191970" d="M573.3183,-169.981C581.5286,-168.7353 590.0611,-167.4407 598.4586,-166.1666"/>
<polygon fill="#191970" stroke="#191970" points="599.2424,-169.5878 608.6042,-164.6272 598.1923,-162.667 599.2424,-169.5878"/>
</g>
<!-- Node1090 -->
<g id="node6" class="node">
<title>Node1090</title>
<g id="a_node6"><a xlink:href="namespacecimg__library__suffixed_1_1cimg.html#aa0e1bc96ae6e235dc5b67b8b0a466166" target="_top" xlink:title="cimg_library_suffixed\l::cimg::Mutex_attr">
<polygon fill="#ffffff" stroke="#000000" points="1822,-175.2982 1822,-205.2982 1931,-205.2982 1931,-175.2982 1822,-175.2982"/>
<text text-anchor="start" x="1830" y="-193.2982" font-family="Helvetica,sans-Serif" font-size="10.00" fill="#000000">cimg_library_suffixed</text>
<text text-anchor="middle" x="1876.5" y="-182.2982" font-family="Helvetica,sans-Serif" font-size="10.00" fill="#000000">::cimg::Mutex_attr</text>
</a>
</g>
</g>
<!-- Node1089&#45;&gt;Node1090 -->
<g id="edge5" class="edge">
<title>Node1089&#45;&gt;Node1090</title>
<path fill="none" stroke="#191970" d="M1582.7886,-158.4582C1600.338,-170.5643 1626.9275,-186.5748 1653,-193.2982 1705.2267,-206.7661 1766.6233,-204.7256 1811.8381,-200.0466"/>
<polygon fill="#191970" stroke="#191970" points="1812.253,-203.5222 1821.8082,-198.9453 1811.4844,-196.5645 1812.253,-203.5222"/>
</g>
<!-- Node1091 -->
<g id="node7" class="node">
<title>Node1091</title>
<g id="a_node7"><a xlink:href="structcimg__library__suffixed_1_1cimg_1_1_mutex__info.html#afac3fa5f107ad4795fb867050f616555" target="_top" xlink:title="cimg_library_suffixed\l::cimg::Mutex_info::unlock">
<polygon fill="#ffffff" stroke="#000000" points="1653.5,-104.2982 1653.5,-134.2982 1785.5,-134.2982 1785.5,-104.2982 1653.5,-104.2982"/>
<text text-anchor="start" x="1661.5" y="-122.2982" font-family="Helvetica,sans-Serif" font-size="10.00" fill="#000000">cimg_library_suffixed</text>
<text text-anchor="middle" x="1719.5" y="-111.2982" font-family="Helvetica,sans-Serif" font-size="10.00" fill="#000000">::cimg::Mutex_info::unlock</text>
</a>
</g>
</g>
<!-- Node1089&#45;&gt;Node1091 -->
<g id="edge6" class="edge">
<title>Node1089&#45;&gt;Node1091</title>
<path fill="none" stroke="#191970" d="M1617.411,-134.9042C1625.7369,-133.6314 1634.453,-132.299 1643.1344,-130.972"/>
<polygon fill="#191970" stroke="#191970" points="1643.9278,-134.3914 1653.2841,-129.4204 1642.87,-127.4718 1643.9278,-134.3914"/>
</g>
<!-- Node1092 -->
<g id="node8" class="node">
<title>Node1092</title>
<g id="a_node8"><a xlink:href="structcimg__library__suffixed_1_1cimg_1_1_mutex__info.html#a6cc8e26847a1aa649febed03d70182e7" target="_top" xlink:title="cimg_library_suffixed\l::cimg::Mutex_info::lock">
<polygon fill="#ffffff" stroke="#000000" points="1658.5,-55.2982 1658.5,-85.2982 1780.5,-85.2982 1780.5,-55.2982 1658.5,-55.2982"/>
<text text-anchor="start" x="1666.5" y="-73.2982" font-family="Helvetica,sans-Serif" font-size="10.00" fill="#000000">cimg_library_suffixed</text>
<text text-anchor="middle" x="1719.5" y="-62.2982" font-family="Helvetica,sans-Serif" font-size="10.00" fill="#000000">::cimg::Mutex_info::lock</text>
</a>
</g>
</g>
<!-- Node1089&#45;&gt;Node1092 -->
<g id="edge7" class="edge">
<title>Node1089&#45;&gt;Node1092</title>
<path fill="none" stroke="#191970" d="M1588.9788,-128.0994C1606.7871,-118.1665 1630.9505,-105.241 1653,-95.2982 1657.6591,-93.1973 1662.5523,-91.1215 1667.4816,-89.1177"/>
<polygon fill="#191970" stroke="#191970" points="1668.9456,-92.3025 1676.9536,-85.3655 1666.3675,-85.7945 1668.9456,-92.3025"/>
</g>
<!-- Node1093 -->
<g id="node9" class="node">
<title>Node1093</title>
<g id="a_node9"><a xlink:href="structcimg__library__suffixed_1_1cimg_1_1_mutex__info.html#a9bf4ed1e1dfe6f28fa6250cd04f3c900" target="_top" xlink:title="cimg_library_suffixed\l::cimg::Mutex_info::trylock">
<polygon fill="#ffffff" stroke="#000000" points="1653,-153.2982 1653,-183.2982 1786,-183.2982 1786,-153.2982 1653,-153.2982"/>
<text text-anchor="start" x="1661" y="-171.2982" font-family="Helvetica,sans-Serif" font-size="10.00" fill="#000000">cimg_library_suffixed</text>
<text text-anchor="middle" x="1719.5" y="-160.2982" font-family="Helvetica,sans-Serif" font-size="10.00" fill="#000000">::cimg::Mutex_info::trylock</text>
</a>
</g>
</g>
<!-- Node1089&#45;&gt;Node1093 -->
<g id="edge8" class="edge">
<title>Node1089&#45;&gt;Node1093</title>
<path fill="none" stroke="#191970" d="M1617.411,-152.042C1625.6098,-153.3475 1634.187,-154.7134 1642.7367,-156.0748"/>
<polygon fill="#191970" stroke="#191970" points="1642.3105,-159.5509 1652.7365,-157.6671 1643.4113,-152.638 1642.3105,-159.5509"/>
</g>
<!-- Node1093&#45;&gt;Node1090 -->
<g id="edge9" class="edge">
<title>Node1093&#45;&gt;Node1090</title>
<path fill="none" stroke="#191970" d="M1786.0821,-177.6282C1794.5193,-178.8105 1803.1445,-180.0191 1811.5556,-181.1977"/>
<polygon fill="#191970" stroke="#191970" points="1811.293,-184.6951 1821.682,-182.6167 1812.2645,-177.7628 1811.293,-184.6951"/>
</g>
<!-- Node1094&#45;&gt;Node1089 -->
<g id="edge12" class="edge">
<title>Node1094&#45;&gt;Node1089</title>
<path fill="none" stroke="#191970" d="M718.0486,-158.066C777.4344,-159.8358 875.2049,-162.2982 959.5,-162.2982 959.5,-162.2982 959.5,-162.2982 1272.5,-162.2982 1349.9647,-162.2982 1438.8203,-155.4643 1497.5413,-149.9935"/>
<polygon fill="#191970" stroke="#191970" points="1498.1576,-153.4509 1507.7835,-149.0246 1497.4982,-146.4821 1498.1576,-153.4509"/>
</g>
<!-- Node1095 -->
<g id="node11" class="node">
<title>Node1095</title>
<g id="a_node11"><a xlink:href="namespacecimg__library__suffixed_1_1cimg.html#aab8db7528c32a8fd3a3dc471e662782e" target="_top" xlink:title="cimg_library_suffixed\l::cimg::_stderr">
<polygon fill="#ffffff" stroke="#000000" points="754,-76.2982 754,-106.2982 863,-106.2982 863,-76.2982 754,-76.2982"/>
<text text-anchor="start" x="762" y="-94.2982" font-family="Helvetica,sans-Serif" font-size="10.00" fill="#000000">cimg_library_suffixed</text>
<text text-anchor="middle" x="808.5" y="-83.2982" font-family="Helvetica,sans-Serif" font-size="10.00" fill="#000000">::cimg::_stderr</text>
</a>
</g>
</g>
<!-- Node1094&#45;&gt;Node1095 -->
<g id="edge13" class="edge">
<title>Node1094&#45;&gt;Node1095</title>
<path fill="none" stroke="#191970" d="M697.1304,-141.2225C717.463,-132.1079 743.5864,-120.3974 765.4218,-110.6091"/>
<polygon fill="#191970" stroke="#191970" points="767.1078,-113.689 774.8012,-106.4046 764.2443,-107.3014 767.1078,-113.689"/>
</g>
<!-- Node1096 -->
<g id="node12" class="node">
<title>Node1096</title>
<g id="a_node12"><a xlink:href="namespacecimg__library__suffixed_1_1cimg.html#a79aef0cbcf66ceb71c2b74cb66b4deb2" target="_top" xlink:title="Avoid warning messages due to unused parameters. Do nothing actually. ">
<polygon fill="#ffffff" stroke="#000000" points="1363,-41.2982 1363,-71.2982 1472,-71.2982 1472,-41.2982 1363,-41.2982"/>
<text text-anchor="start" x="1371" y="-59.2982" font-family="Helvetica,sans-Serif" font-size="10.00" fill="#000000">cimg_library_suffixed</text>
<text text-anchor="middle" x="1417.5" y="-48.2982" font-family="Helvetica,sans-Serif" font-size="10.00" fill="#000000">::cimg::unused</text>
</a>
</g>
</g>
<!-- Node1095&#45;&gt;Node1096 -->
<g id="edge14" class="edge">
<title>Node1095&#45;&gt;Node1096</title>
<path fill="none" stroke="#191970" d="M831.6896,-76.2661C849.4015,-65.5424 874.8045,-51.7504 899,-44.2982 1035.4545,-2.2702 1075.4707,-14.7575 1218,-6.2982 1266.3593,-3.428 1280.0902,5.7986 1327,-6.2982 1349.2024,-12.0236 1371.7796,-24.4837 1388.8301,-35.5323"/>
<polygon fill="#191970" stroke="#191970" points="1386.9534,-38.4878 1397.2114,-41.1382 1390.8452,-32.6693 1386.9534,-38.4878"/>
</g>
<!-- Node1097 -->
<g id="node13" class="node">
<title>Node1097</title>
<g id="a_node13"><a xlink:href="namespacecimg__library__suffixed_1_1cimg.html#aeafab144366eddd11360f32f468fa4af" target="_top" xlink:title="Set current &#160;exception mode. ">
<polygon fill="#ffffff" stroke="#000000" points="899,-54.2982 899,-84.2982 1020,-84.2982 1020,-54.2982 899,-54.2982"/>
<text text-anchor="start" x="907" y="-72.2982" font-family="Helvetica,sans-Serif" font-size="10.00" fill="#000000">cimg_library_suffixed</text>
<text text-anchor="middle" x="959.5" y="-61.2982" font-family="Helvetica,sans-Serif" font-size="10.00" fill="#000000">::cimg::exception_mode</text>
</a>
</g>
</g>
<!-- Node1095&#45;&gt;Node1097 -->
<g id="edge16" class="edge">
<title>Node1095&#45;&gt;Node1097</title>
<path fill="none" stroke="#191970" d="M863.0145,-83.3557C871.3935,-82.1349 880.1471,-80.8596 888.8158,-79.5966"/>
<polygon fill="#191970" stroke="#191970" points="889.5345,-83.0289 898.9254,-78.1237 888.5253,-76.102 889.5345,-83.0289"/>
</g>
<!-- Node1096&#45;&gt;Node1089 -->
<g id="edge15" class="edge">
<title>Node1096&#45;&gt;Node1089</title>
<path fill="none" stroke="#191970" d="M1442.7571,-71.4525C1466.4188,-85.6495 1501.9718,-106.9813 1528.1945,-122.7149"/>
<polygon fill="#191970" stroke="#191970" points="1526.6702,-125.882 1537.0458,-128.0257 1530.2717,-119.8795 1526.6702,-125.882"/>
</g>
<!-- Node1098 -->
<g id="node14" class="node">
<title>Node1098</title>
<g id="a_node14"><a xlink:href="namespacecimg__library__suffixed_1_1cimg.html#a6c578f866de2be9be7e385d693c758c8" target="_top" xlink:title="cimg_library_suffixed\l::cimg::_exception_mode">
<polygon fill="#ffffff" stroke="#000000" points="1056,-98.2982 1056,-128.2982 1182,-128.2982 1182,-98.2982 1056,-98.2982"/>
<text text-anchor="start" x="1064" y="-116.2982" font-family="Helvetica,sans-Serif" font-size="10.00" fill="#000000">cimg_library_suffixed</text>
<text text-anchor="middle" x="1119" y="-105.2982" font-family="Helvetica,sans-Serif" font-size="10.00" fill="#000000">::cimg::_exception_mode</text>
</a>
</g>
</g>
<!-- Node1097&#45;&gt;Node1098 -->
<g id="edge17" class="edge">
<title>Node1097&#45;&gt;Node1098</title>
<path fill="none" stroke="#191970" d="M1013.9447,-84.3175C1027.0889,-87.9434 1041.2562,-91.8517 1054.8009,-95.5881"/>
<polygon fill="#191970" stroke="#191970" points="1053.9593,-98.9866 1064.53,-98.272 1055.8209,-92.2387 1053.9593,-98.9866"/>
</g>
<!-- Node1098&#45;&gt;Node1089 -->
<g id="edge18" class="edge">
<title>Node1098&#45;&gt;Node1089</title>
<path fill="none" stroke="#191970" d="M1182.0717,-117.5646C1265.8352,-123.2307 1413.0329,-133.1877 1497.6723,-138.913"/>
<polygon fill="#191970" stroke="#191970" points="1497.4621,-142.4067 1507.6756,-139.5897 1497.9346,-135.4227 1497.4621,-142.4067"/>
</g>
<!-- Node1098&#45;&gt;Node1095 -->
<g id="edge25" class="edge">
<title>Node1098&#45;&gt;Node1095</title>
<path fill="none" stroke="#191970" d="M1055.9297,-108.8295C1002.7813,-105.0637 927.037,-99.697 873.383,-95.8954"/>
<polygon fill="#191970" stroke="#191970" points="873.5188,-92.3963 863.2964,-95.1807 873.024,-99.3788 873.5188,-92.3963"/>
</g>
<!-- Node1099 -->
<g id="node15" class="node">
<title>Node1099</title>
<g id="a_node15"><a xlink:href="namespacecimg__library__suffixed_1_1cimg.html#a01a3b743897290604513ea6d847c9886" target="_top" xlink:title="cimg_library_suffixed\l::cimg::_stdin">
<polygon fill="#ffffff" stroke="#000000" points="1218,-65.2982 1218,-95.2982 1327,-95.2982 1327,-65.2982 1218,-65.2982"/>
<text text-anchor="start" x="1226" y="-83.2982" font-family="Helvetica,sans-Serif" font-size="10.00" fill="#000000">cimg_library_suffixed</text>
<text text-anchor="middle" x="1272.5" y="-72.2982" font-family="Helvetica,sans-Serif" font-size="10.00" fill="#000000">::cimg::_stdin</text>
</a>
</g>
</g>
<!-- Node1098&#45;&gt;Node1099 -->
<g id="edge19" class="edge">
<title>Node1098&#45;&gt;Node1099</title>
<path fill="none" stroke="#191970" d="M1182.3205,-99.6853C1190.7493,-97.8733 1199.4012,-96.0133 1207.8522,-94.1965"/>
<polygon fill="#191970" stroke="#191970" points="1208.6143,-97.6127 1217.6553,-92.0889 1207.143,-90.769 1208.6143,-97.6127"/>
</g>
<!-- Node1100 -->
<g id="node16" class="node">
<title>Node1100</title>
<g id="a_node16"><a xlink:href="namespacecimg__library__suffixed_1_1cimg.html#a493220746e5df3466568bd7862825008" target="_top" xlink:title="cimg_library_suffixed\l::cimg::_stdout">
<polygon fill="#ffffff" stroke="#000000" points="1218,-16.2982 1218,-46.2982 1327,-46.2982 1327,-16.2982 1218,-16.2982"/>
<text text-anchor="start" x="1226" y="-34.2982" font-family="Helvetica,sans-Serif" font-size="10.00" fill="#000000">cimg_library_suffixed</text>
<text text-anchor="middle" x="1272.5" y="-23.2982" font-family="Helvetica,sans-Serif" font-size="10.00" fill="#000000">::cimg::_stdout</text>
</a>
</g>
</g>
<!-- Node1098&#45;&gt;Node1100 -->
<g id="edge22" class="edge">
<title>Node1098&#45;&gt;Node1100</title>
<path fill="none" stroke="#191970" d="M1142.9755,-98.2022C1162.7605,-86.0019 1191.7471,-68.7127 1218,-55.2982 1221.0856,-53.7216 1224.2974,-52.1464 1227.5494,-50.5993"/>
<polygon fill="#191970" stroke="#191970" points="1229.1481,-53.7161 1236.7497,-46.3359 1226.2049,-47.3649 1229.1481,-53.7161"/>
</g>
<!-- Node1099&#45;&gt;Node1096 -->
<g id="edge20" class="edge">
<title>Node1099&#45;&gt;Node1096</title>
<path fill="none" stroke="#191970" d="M1327.3183,-71.2249C1335.6188,-69.851 1344.2486,-68.4226 1352.7354,-67.0179"/>
<polygon fill="#191970" stroke="#191970" points="1353.31,-70.4705 1362.6042,-65.3844 1352.1669,-63.5644 1353.31,-70.4705"/>
</g>
<!-- Node1099&#45;&gt;Node1097 -->
<g id="edge21" class="edge">
<title>Node1099&#45;&gt;Node1097</title>
<path fill="none" stroke="#191970" d="M1217.9666,-78.3817C1165.8805,-76.5512 1087.1092,-73.7829 1030.2205,-71.7836"/>
<polygon fill="#191970" stroke="#191970" points="1030.3375,-68.2857 1020.2207,-71.4322 1030.0915,-75.2813 1030.3375,-68.2857"/>
</g>
<!-- Node1100&#45;&gt;Node1096 -->
<g id="edge23" class="edge">
<title>Node1100&#45;&gt;Node1096</title>
<path fill="none" stroke="#191970" d="M1327.3183,-40.7497C1335.6188,-42.1808 1344.2486,-43.6687 1352.7354,-45.1319"/>
<polygon fill="#191970" stroke="#191970" points="1352.1549,-48.5834 1362.6042,-46.8334 1353.3443,-41.6852 1352.1549,-48.5834"/>
</g>
<!-- Node1100&#45;&gt;Node1097 -->
<g id="edge24" class="edge">
<title>Node1100&#45;&gt;Node1097</title>
<path fill="none" stroke="#191970" d="M1217.9666,-37.9189C1165.8805,-44.2424 1087.1092,-53.8057 1030.2205,-60.7123"/>
<polygon fill="#191970" stroke="#191970" points="1029.7259,-57.2466 1020.2207,-61.9264 1030.5696,-64.1956 1029.7259,-57.2466"/>
</g>
</g>
</svg>
