<?xml version="1.0" encoding="UTF-8" standalone="no"?>
<!DOCTYPE svg PUBLIC "-//W3C//DTD SVG 1.1//EN"
 "http://www.w3.org/Graphics/SVG/1.1/DTD/svg11.dtd">
<!-- Generated by graphviz version 2.40.1 (20161225.0304)
 -->
<!-- Title: cimg_library_suffixed::CImgException Pages: 1 -->
<!--zoomable 331 -->
<svg id="main" version="1.1" xmlns="http://www.w3.org/2000/svg" xmlns:xlink="http://www.w3.org/1999/xlink" xml:space="preserve" onload="init(evt)">
<style type="text/css"><![CDATA[
.edge:hover path { stroke: red; }
.edge:hover polygon { stroke: red; fill: red; }
]]></style>
<script type="text/javascript"><![CDATA[
var edges = document.getElementsByTagName('g');
if (edges && edges.length) {
  for (var i=0;i<edges.length;i++) {
    if (edges[i].id.substr(0,4)=='edge') {
      edges[i].setAttribute('class','edge');
    }
  }
}
]]></script>
        <defs>
                <circle id="rim" cx="0" cy="0" r="7"/>
                <circle id="rim2" cx="0" cy="0" r="3.5"/>
                <g id="zoomPlus">
                        <use xlink:href="#rim" fill="#404040">
                                <set attributeName="fill" to="#808080" begin="zoomplus.mouseover" end="zoomplus.mouseout"/>
                        </use>
                        <path d="M-4,0h8M0,-4v8" fill="none" stroke="white" stroke-width="1.5" pointer-events="none"/>
                </g>
                <g id="zoomMin">
                        <use xlink:href="#rim" fill="#404040">
                                <set attributeName="fill" to="#808080" begin="zoomminus.mouseover" end="zoomminus.mouseout"/>
                        </use>
                        <path d="M-4,0h8" fill="none" stroke="white" stroke-width="1.5" pointer-events="none"/>
                </g>
                <g id="dirArrow">
                        <path fill="none" stroke="white" stroke-width="1.5" d="M0,-3.0v7 M-2.5,-0.5L0,-3.0L2.5,-0.5"/>
                </g>
               <g id="resetDef">
                       <use xlink:href="#rim2" fill="#404040">
                               <set attributeName="fill" to="#808080" begin="reset.mouseover" end="reset.mouseout"/>
                       </use>
               </g>
        </defs>

<script type="text/javascript">
var viewWidth = 737;
var viewHeight = 331;
var sectionId = 'dynsection-0';
</script>
<script xlink:href="svgpan.js"/>
<svg id="graph" class="graph">
<g id="viewport">
<title>cimg_library_suffixed::CImgException</title>
<polygon fill="#ffffff" stroke="transparent" points="-4,4 -4,-327 733,-327 733,4 -4,4"/>
<!-- Node0 -->
<g id="node1" class="node">
<title>Node0</title>
<polygon fill="#bfbfbf" stroke="#000000" points="324,-105.5 324,-228.5 433,-228.5 433,-105.5 324,-105.5"/>
<text text-anchor="start" x="332" y="-216.5" font-family="Helvetica,sans-Serif" font-size="10.00" fill="#000000">cimg_library_suffixed</text>
<text text-anchor="middle" x="378.5" y="-205.5" font-family="Helvetica,sans-Serif" font-size="10.00" fill="#000000">::CImgException</text>
<polyline fill="none" stroke="#000000" points="324,-198.5 433,-198.5 "/>
<text text-anchor="start" x="332" y="-186.5" font-family="Helvetica,sans-Serif" font-size="10.00" fill="#000000">+ _message</text>
<polyline fill="none" stroke="#000000" points="324,-179.5 433,-179.5 "/>
<text text-anchor="start" x="332" y="-167.5" font-family="Helvetica,sans-Serif" font-size="10.00" fill="#000000">+ CImgException()</text>
<text text-anchor="start" x="332" y="-156.5" font-family="Helvetica,sans-Serif" font-size="10.00" fill="#000000">+ CImgException()</text>
<text text-anchor="start" x="332" y="-145.5" font-family="Helvetica,sans-Serif" font-size="10.00" fill="#000000">+ CImgException()</text>
<text text-anchor="start" x="332" y="-134.5" font-family="Helvetica,sans-Serif" font-size="10.00" fill="#000000">+ ~CImgException()</text>
<text text-anchor="start" x="332" y="-123.5" font-family="Helvetica,sans-Serif" font-size="10.00" fill="#000000">+ operator=()</text>
<text text-anchor="start" x="332" y="-112.5" font-family="Helvetica,sans-Serif" font-size="10.00" fill="#000000">+ what()</text>
</g>
<!-- Node2 -->
<g id="node3" class="node">
<title>Node2</title>
<g id="a_node3"><a xlink:href="structcimg__library__suffixed_1_1_c_img_argument_exception.html" target="_top" xlink:title="{cimg_library_suffixed\l::CImgArgumentException\n||+ CImgArgumentException()\l}">
<polygon fill="#ffffff" stroke="#000000" points="0,-.5 0,-68.5 141,-68.5 141,-.5 0,-.5"/>
<text text-anchor="start" x="8" y="-56.5" font-family="Helvetica,sans-Serif" font-size="10.00" fill="#000000">cimg_library_suffixed</text>
<text text-anchor="middle" x="70.5" y="-45.5" font-family="Helvetica,sans-Serif" font-size="10.00" fill="#000000">::CImgArgumentException</text>
<polyline fill="none" stroke="#000000" points="0,-38.5 141,-38.5 "/>
<text text-anchor="middle" x="70.5" y="-26.5" font-family="Helvetica,sans-Serif" font-size="10.00" fill="#000000"> </text>
<polyline fill="none" stroke="#000000" points="0,-19.5 141,-19.5 "/>
<text text-anchor="start" x="8" y="-7.5" font-family="Helvetica,sans-Serif" font-size="10.00" fill="#000000">+ CImgArgumentException()</text>
</a>
</g>
</g>
<!-- Node0&#45;&gt;Node2 -->
<g id="edge2" class="edge">
<title>Node0&#45;&gt;Node2</title>
<path fill="none" stroke="#191970" d="M314.4773,-139.5058C268.7747,-119.8732 205.8486,-92.8296 150.5,-69 147.4437,-67.6841 144.3218,-66.3396 141.1683,-64.9811"/>
<polygon fill="none" stroke="#191970" points="313.1002,-142.7235 323.6697,-143.4545 315.863,-136.2917 313.1002,-142.7235"/>
</g>
<!-- Node3 -->
<g id="node4" class="node">
<title>Node3</title>
<g id="a_node4"><a xlink:href="structcimg__library__suffixed_1_1_c_img_display_exception.html" target="_top" xlink:title="{cimg_library_suffixed\l::CImgDisplayException\n||+ CImgDisplayException()\l}">
<polygon fill="#ffffff" stroke="#000000" points="159.5,-.5 159.5,-68.5 291.5,-68.5 291.5,-.5 159.5,-.5"/>
<text text-anchor="start" x="167.5" y="-56.5" font-family="Helvetica,sans-Serif" font-size="10.00" fill="#000000">cimg_library_suffixed</text>
<text text-anchor="middle" x="225.5" y="-45.5" font-family="Helvetica,sans-Serif" font-size="10.00" fill="#000000">::CImgDisplayException</text>
<polyline fill="none" stroke="#000000" points="159.5,-38.5 291.5,-38.5 "/>
<text text-anchor="middle" x="225.5" y="-26.5" font-family="Helvetica,sans-Serif" font-size="10.00" fill="#000000"> </text>
<polyline fill="none" stroke="#000000" points="159.5,-19.5 291.5,-19.5 "/>
<text text-anchor="start" x="167.5" y="-7.5" font-family="Helvetica,sans-Serif" font-size="10.00" fill="#000000">+ CImgDisplayException()</text>
</a>
</g>
</g>
<!-- Node0&#45;&gt;Node3 -->
<g id="edge3" class="edge">
<title>Node0&#45;&gt;Node3</title>
<path fill="none" stroke="#191970" d="M315.8804,-112.7706C298.6943,-97.8872 280.5412,-82.1664 265.049,-68.7499"/>
<polygon fill="none" stroke="#191970" points="313.845,-115.638 323.6956,-119.5387 318.4276,-110.3464 313.845,-115.638"/>
</g>
<!-- Node4 -->
<g id="node5" class="node">
<title>Node4</title>
<g id="a_node5"><a xlink:href="structcimg__library__suffixed_1_1_c_img_instance_exception.html" target="_top" xlink:title="{cimg_library_suffixed\l::CImgInstanceException\n||+ CImgInstanceException()\l}">
<polygon fill="#ffffff" stroke="#000000" points="310,-.5 310,-68.5 447,-68.5 447,-.5 310,-.5"/>
<text text-anchor="start" x="318" y="-56.5" font-family="Helvetica,sans-Serif" font-size="10.00" fill="#000000">cimg_library_suffixed</text>
<text text-anchor="middle" x="378.5" y="-45.5" font-family="Helvetica,sans-Serif" font-size="10.00" fill="#000000">::CImgInstanceException</text>
<polyline fill="none" stroke="#000000" points="310,-38.5 447,-38.5 "/>
<text text-anchor="middle" x="378.5" y="-26.5" font-family="Helvetica,sans-Serif" font-size="10.00" fill="#000000"> </text>
<polyline fill="none" stroke="#000000" points="310,-19.5 447,-19.5 "/>
<text text-anchor="start" x="318" y="-7.5" font-family="Helvetica,sans-Serif" font-size="10.00" fill="#000000">+ CImgInstanceException()</text>
</a>
</g>
</g>
<!-- Node0&#45;&gt;Node4 -->
<g id="edge4" class="edge">
<title>Node0&#45;&gt;Node4</title>
<path fill="none" stroke="#191970" d="M378.5,-95.3746C378.5,-86.1502 378.5,-77.0658 378.5,-68.8429"/>
<polygon fill="none" stroke="#191970" points="375.0001,-95.4048 378.5,-105.4048 382.0001,-95.4048 375.0001,-95.4048"/>
</g>
<!-- Node5 -->
<g id="node6" class="node">
<title>Node5</title>
<g id="a_node6"><a xlink:href="structcimg__library__suffixed_1_1_c_img_i_o_exception.html" target="_top" xlink:title="{cimg_library_suffixed\l::CImgIOException\n||+ CImgIOException()\l}">
<polygon fill="#ffffff" stroke="#000000" points="465.5,-.5 465.5,-68.5 575.5,-68.5 575.5,-.5 465.5,-.5"/>
<text text-anchor="start" x="473.5" y="-56.5" font-family="Helvetica,sans-Serif" font-size="10.00" fill="#000000">cimg_library_suffixed</text>
<text text-anchor="middle" x="520.5" y="-45.5" font-family="Helvetica,sans-Serif" font-size="10.00" fill="#000000">::CImgIOException</text>
<polyline fill="none" stroke="#000000" points="465.5,-38.5 575.5,-38.5 "/>
<text text-anchor="middle" x="520.5" y="-26.5" font-family="Helvetica,sans-Serif" font-size="10.00" fill="#000000"> </text>
<polyline fill="none" stroke="#000000" points="465.5,-19.5 575.5,-19.5 "/>
<text text-anchor="start" x="473.5" y="-7.5" font-family="Helvetica,sans-Serif" font-size="10.00" fill="#000000">+ CImgIOException()</text>
</a>
</g>
</g>
<!-- Node0&#45;&gt;Node5 -->
<g id="edge5" class="edge">
<title>Node0&#45;&gt;Node5</title>
<path fill="none" stroke="#191970" d="M440.979,-108.701C455.5809,-95.076 470.6706,-80.9957 483.7295,-68.8105"/>
<polygon fill="none" stroke="#191970" points="438.3245,-106.3907 433.4009,-115.772 443.1001,-111.5087 438.3245,-106.3907"/>
</g>
<!-- Node6 -->
<g id="node7" class="node">
<title>Node6</title>
<g id="a_node7"><a xlink:href="structcimg__library__suffixed_1_1_c_img_warning_exception.html" target="_top" xlink:title="{cimg_library_suffixed\l::CImgWarningException\n||+ CImgWarningException()\l}">
<polygon fill="#ffffff" stroke="#000000" points="594,-.5 594,-68.5 729,-68.5 729,-.5 594,-.5"/>
<text text-anchor="start" x="602" y="-56.5" font-family="Helvetica,sans-Serif" font-size="10.00" fill="#000000">cimg_library_suffixed</text>
<text text-anchor="middle" x="661.5" y="-45.5" font-family="Helvetica,sans-Serif" font-size="10.00" fill="#000000">::CImgWarningException</text>
<polyline fill="none" stroke="#000000" points="594,-38.5 729,-38.5 "/>
<text text-anchor="middle" x="661.5" y="-26.5" font-family="Helvetica,sans-Serif" font-size="10.00" fill="#000000"> </text>
<polyline fill="none" stroke="#000000" points="594,-19.5 729,-19.5 "/>
<text text-anchor="start" x="602" y="-7.5" font-family="Helvetica,sans-Serif" font-size="10.00" fill="#000000">+ CImgWarningException()</text>
</a>
</g>
</g>
<!-- Node0&#45;&gt;Node6 -->
<g id="edge6" class="edge">
<title>Node0&#45;&gt;Node6</title>
<path fill="none" stroke="#191970" d="M442.1701,-137.1898C487.3279,-116.047 547.837,-87.7168 593.8606,-66.1686"/>
<polygon fill="none" stroke="#191970" points="440.6377,-134.0426 433.0652,-141.4527 443.6059,-140.3822 440.6377,-134.0426"/>
</g>
<!-- Node1 -->
<g id="node2" class="node">
<title>Node1</title>
<polygon fill="#ffffff" stroke="#bfbfbf" points="339.5,-265.5 339.5,-322.5 417.5,-322.5 417.5,-265.5 339.5,-265.5"/>
<text text-anchor="middle" x="378.5" y="-310.5" font-family="Helvetica,sans-Serif" font-size="10.00" fill="#000000">std::exception</text>
<polyline fill="none" stroke="#bfbfbf" points="339.5,-303.5 417.5,-303.5 "/>
<text text-anchor="middle" x="378.5" y="-291.5" font-family="Helvetica,sans-Serif" font-size="10.00" fill="#000000"> </text>
<polyline fill="none" stroke="#bfbfbf" points="339.5,-284.5 417.5,-284.5 "/>
<text text-anchor="middle" x="378.5" y="-272.5" font-family="Helvetica,sans-Serif" font-size="10.00" fill="#000000"> </text>
</g>
<!-- Node1&#45;&gt;Node0 -->
<g id="edge1" class="edge">
<title>Node1&#45;&gt;Node0</title>
<path fill="none" stroke="#191970" d="M378.5,-255.2486C378.5,-246.8213 378.5,-237.7045 378.5,-228.6384"/>
<polygon fill="none" stroke="#191970" points="375.0001,-255.4987 378.5,-265.4987 382.0001,-255.4988 375.0001,-255.4987"/>
</g>
</g>
</svg>
        <g id="navigator" transform="translate(0 0)" fill="#404254">
                <rect fill="#f2f5e9" fill-opacity="0.5" stroke="#606060" stroke-width=".5" x="0" y="0" width="60" height="60"/>
                <use id="zoomplus" xlink:href="#zoomPlus" x="17" y="9" onmousedown="handleZoom(evt,'in')"/>
                <use id="zoomminus" xlink:href="#zoomMin" x="42" y="9" onmousedown="handleZoom(evt,'out')"/>
                <use id="reset" xlink:href="#resetDef" x="30" y="36" onmousedown="handleReset()"/>
                <g id="arrowUp" xlink:href="#dirArrow" transform="translate(30 24)" onmousedown="handlePan(0,-1)">
                  <use xlink:href="#rim" fill="#404040">
                        <set attributeName="fill" to="#808080" begin="arrowUp.mouseover" end="arrowUp.mouseout"/>
                  </use>
                  <path fill="none" stroke="white" stroke-width="1.5" d="M0,-3.0v7 M-2.5,-0.5L0,-3.0L2.5,-0.5"/>
                </g>
                <g id="arrowRight" xlink:href="#dirArrow" transform="rotate(90) translate(36 -43)" onmousedown="handlePan(1,0)">
                  <use xlink:href="#rim" fill="#404040">
                        <set attributeName="fill" to="#808080" begin="arrowRight.mouseover" end="arrowRight.mouseout"/>
                  </use>
                  <path fill="none" stroke="white" stroke-width="1.5" d="M0,-3.0v7 M-2.5,-0.5L0,-3.0L2.5,-0.5"/>
                </g>
                <g id="arrowDown" xlink:href="#dirArrow" transform="rotate(180) translate(-30 -48)" onmousedown="handlePan(0,1)">
                  <use xlink:href="#rim" fill="#404040">
                        <set attributeName="fill" to="#808080" begin="arrowDown.mouseover" end="arrowDown.mouseout"/>
                  </use>
                  <path fill="none" stroke="white" stroke-width="1.5" d="M0,-3.0v7 M-2.5,-0.5L0,-3.0L2.5,-0.5"/>
                </g>
                <g id="arrowLeft" xlink:href="#dirArrow" transform="rotate(270) translate(-36 17)" onmousedown="handlePan(-1,0)">
                  <use xlink:href="#rim" fill="#404040">
                        <set attributeName="fill" to="#808080" begin="arrowLeft.mouseover" end="arrowLeft.mouseout"/>
                  </use>
                  <path fill="none" stroke="white" stroke-width="1.5" d="M0,-3.0v7 M-2.5,-0.5L0,-3.0L2.5,-0.5"/>
                </g>
        </g>
        <svg viewBox="0 0 15 15" width="100%" height="30px" preserveAspectRatio="xMaxYMin meet">
         <g id="arrow_out" transform="scale(0.3 0.3)">
          <a xlink:href="structcimg__library__suffixed_1_1_c_img_exception__inherit__graph_org.svg" target="_base">
           <rect id="button" ry="5" rx="5" y="6" x="6" height="38" width="38"
                fill="#f2f5e9" fill-opacity="0.5" stroke="#606060" stroke-width="1.0"/>
           <path id="arrow"
             d="M 11.500037,31.436501 C 11.940474,20.09759 22.043105,11.32322 32.158766,21.979434 L 37.068811,17.246167 C 37.068811,17.246167 37.088388,32 37.088388,32 L 22.160133,31.978069 C 22.160133,31.978069 26.997745,27.140456 26.997745,27.140456 C 18.528582,18.264221 13.291696,25.230495 11.500037,31.436501 z"
             style="fill:#404040;"/>
          </a>
         </g>
        </svg>
</svg>
