<?xml version="1.0" encoding="UTF-8" standalone="no"?>
<!DOCTYPE svg PUBLIC "-//W3C//DTD SVG 1.1//EN"
 "http://www.w3.org/Graphics/SVG/1.1/DTD/svg11.dtd">
<!-- Generated by graphviz version 2.40.1 (20161225.0304)
 -->
<!-- Title: src/system_target.hpp Pages: 1 -->
<svg width="272pt" height="95pt"
 viewBox="0.00 0.00 272.00 95.00" xmlns="http://www.w3.org/2000/svg" xmlns:xlink="http://www.w3.org/1999/xlink">
<g id="graph0" class="graph" transform="scale(1 1) rotate(0) translate(4 91)">
<title>src/system_target.hpp</title>
<polygon fill="#ffffff" stroke="transparent" points="-4,4 -4,-91 268,-91 268,4 -4,4"/>
<!-- Node1 -->
<g id="node1" class="node">
<title>Node1</title>
<polygon fill="#bfbfbf" stroke="#000000" points="74.5,-67.5 74.5,-86.5 188.5,-86.5 188.5,-67.5 74.5,-67.5"/>
<text text-anchor="middle" x="131.5" y="-74.5" font-family="Helvetica,sans-Serif" font-size="10.00" fill="#000000">src/system_target.hpp</text>
</g>
<!-- Node2 -->
<g id="node2" class="node">
<title>Node2</title>
<g id="a_node2"><a xlink:href="_file_dialog_linux_8cpp.html" target="_top" xlink:title="src/FileDialog/FileDialog\lLinux.cpp">
<polygon fill="#ffffff" stroke="#000000" points="0,-.5 0,-30.5 123,-30.5 123,-.5 0,-.5"/>
<text text-anchor="start" x="8" y="-18.5" font-family="Helvetica,sans-Serif" font-size="10.00" fill="#000000">src/FileDialog/FileDialog</text>
<text text-anchor="middle" x="61.5" y="-7.5" font-family="Helvetica,sans-Serif" font-size="10.00" fill="#000000">Linux.cpp</text>
</a>
</g>
</g>
<!-- Node1&#45;&gt;Node2 -->
<g id="edge1" class="edge">
<title>Node1&#45;&gt;Node2</title>
<path fill="none" stroke="#191970" d="M113.0196,-60.7637C102.3595,-51.398 89.0463,-39.7014 78.6239,-30.5446"/>
<polygon fill="#191970" stroke="#191970" points="110.7399,-63.4197 120.5625,-67.3906 115.3601,-58.161 110.7399,-63.4197"/>
</g>
<!-- Node3 -->
<g id="node3" class="node">
<title>Node3</title>
<g id="a_node3"><a xlink:href="_file_dialog_windows_8cpp.html" target="_top" xlink:title="src/FileDialog/FileDialog\lWindows.cpp">
<polygon fill="#ffffff" stroke="#000000" points="141,-.5 141,-30.5 264,-30.5 264,-.5 141,-.5"/>
<text text-anchor="start" x="149" y="-18.5" font-family="Helvetica,sans-Serif" font-size="10.00" fill="#000000">src/FileDialog/FileDialog</text>
<text text-anchor="middle" x="202.5" y="-7.5" font-family="Helvetica,sans-Serif" font-size="10.00" fill="#000000">Windows.cpp</text>
</a>
</g>
</g>
<!-- Node1&#45;&gt;Node3 -->
<g id="edge2" class="edge">
<title>Node1&#45;&gt;Node3</title>
<path fill="none" stroke="#191970" d="M150.2444,-60.7637C161.0568,-51.398 174.5602,-39.7014 185.1314,-30.5446"/>
<polygon fill="#191970" stroke="#191970" points="147.8609,-58.1978 142.5938,-67.3906 152.444,-63.4888 147.8609,-58.1978"/>
</g>
</g>
</svg>
