<?xml version="1.0" encoding="UTF-8" standalone="no"?>
<!DOCTYPE svg PUBLIC "-//W3C//DTD SVG 1.1//EN"
 "http://www.w3.org/Graphics/SVG/1.1/DTD/svg11.dtd">
<!-- Generated by graphviz version 2.40.1 (20161225.0304)
 -->
<!-- Title: src/system_target.hpp Pages: 1 -->
<svg width="363pt" height="95pt"
 viewBox="0.00 0.00 363.00 95.00" xmlns="http://www.w3.org/2000/svg" xmlns:xlink="http://www.w3.org/1999/xlink">
<g id="graph0" class="graph" transform="scale(1 1) rotate(0) translate(4 91)">
<title>src/system_target.hpp</title>
<polygon fill="#ffffff" stroke="transparent" points="-4,4 -4,-91 359,-91 359,4 -4,4"/>
<!-- Node1 -->
<g id="node1" class="node">
<title>Node1</title>
<polygon fill="#bfbfbf" stroke="#000000" points="145.5,-67.5 145.5,-86.5 259.5,-86.5 259.5,-67.5 145.5,-67.5"/>
<text text-anchor="middle" x="202.5" y="-74.5" font-family="Helvetica,sans-Serif" font-size="10.00" fill="#000000">src/system_target.hpp</text>
</g>
<!-- Node2 -->
<g id="node2" class="node">
<title>Node2</title>
<g id="a_node2"><a xlink:href="_file_dialog_linux_8cpp.html" target="_top" xlink:title="src/FileDialog/FileDialog\lLinux.cpp">
<polygon fill="#ffffff" stroke="#000000" points="0,-.5 0,-30.5 123,-30.5 123,-.5 0,-.5"/>
<text text-anchor="start" x="8" y="-18.5" font-family="Helvetica,sans-Serif" font-size="10.00" fill="#000000">src/FileDialog/FileDialog</text>
<text text-anchor="middle" x="61.5" y="-7.5" font-family="Helvetica,sans-Serif" font-size="10.00" fill="#000000">Linux.cpp</text>
</a>
</g>
</g>
<!-- Node1&#45;&gt;Node2 -->
<g id="edge1" class="edge">
<title>Node1&#45;&gt;Node2</title>
<path fill="none" stroke="#191970" d="M171.1268,-63.316C148.8485,-53.5988 118.9414,-40.5542 95.9925,-30.5446"/>
<polygon fill="#191970" stroke="#191970" points="169.9034,-66.6007 180.4688,-67.3906 172.702,-60.1845 169.9034,-66.6007"/>
</g>
<!-- Node3 -->
<g id="node3" class="node">
<title>Node3</title>
<g id="a_node3"><a xlink:href="_file_dialog_windows_8cpp.html" target="_top" xlink:title="src/FileDialog/FileDialog\lWindows.cpp">
<polygon fill="#ffffff" stroke="#000000" points="141,-.5 141,-30.5 264,-30.5 264,-.5 141,-.5"/>
<text text-anchor="start" x="149" y="-18.5" font-family="Helvetica,sans-Serif" font-size="10.00" fill="#000000">src/FileDialog/FileDialog</text>
<text text-anchor="middle" x="202.5" y="-7.5" font-family="Helvetica,sans-Serif" font-size="10.00" fill="#000000">Windows.cpp</text>
</a>
</g>
</g>
<!-- Node1&#45;&gt;Node3 -->
<g id="edge2" class="edge">
<title>Node1&#45;&gt;Node3</title>
<path fill="none" stroke="#191970" d="M202.5,-57.3693C202.5,-48.681 202.5,-38.6241 202.5,-30.5446"/>
<polygon fill="#191970" stroke="#191970" points="199.0001,-57.3906 202.5,-67.3906 206.0001,-57.3907 199.0001,-57.3906"/>
</g>
<!-- Node4 -->
<g id="node4" class="node">
<title>Node4</title>
<g id="a_node4"><a xlink:href="main_8cpp.html" target="_top" xlink:title="src/main.cpp">
<polygon fill="#ffffff" stroke="#000000" points="282,-6 282,-25 355,-25 355,-6 282,-6"/>
<text text-anchor="middle" x="318.5" y="-13" font-family="Helvetica,sans-Serif" font-size="10.00" fill="#000000">src/main.cpp</text>
</a>
</g>
</g>
<!-- Node1&#45;&gt;Node4 -->
<g id="edge3" class="edge">
<title>Node1&#45;&gt;Node4</title>
<path fill="none" stroke="#191970" d="M229.7157,-62.571C251.5459,-50.9972 281.5685,-35.0801 300.5023,-25.0419"/>
<polygon fill="#191970" stroke="#191970" points="227.8206,-59.6142 220.625,-67.3906 231.0996,-65.7987 227.8206,-59.6142"/>
</g>
</g>
</svg>
