<?xml version="1.0" encoding="UTF-8" standalone="no"?>
<!DOCTYPE svg PUBLIC "-//W3C//DTD SVG 1.1//EN"
 "http://www.w3.org/Graphics/SVG/1.1/DTD/svg11.dtd">
<!-- Generated by graphviz version 2.40.1 (20161225.0304)
 -->
<!-- Title: src/system_target.hpp Pages: 1 -->
<svg width="236pt" height="140pt"
 viewBox="0.00 0.00 235.50 140.00" xmlns="http://www.w3.org/2000/svg" xmlns:xlink="http://www.w3.org/1999/xlink">
<g id="graph0" class="graph" transform="scale(1 1) rotate(0) translate(4 136)">
<title>src/system_target.hpp</title>
<polygon fill="#ffffff" stroke="transparent" points="-4,4 -4,-136 231.5,-136 231.5,4 -4,4"/>
<!-- Node1 -->
<g id="node1" class="node">
<title>Node1</title>
<polygon fill="#bfbfbf" stroke="#000000" points="72,-112.5 72,-131.5 186,-131.5 186,-112.5 72,-112.5"/>
<text text-anchor="middle" x="129" y="-119.5" font-family="Helvetica,sans-Serif" font-size="10.00" fill="#000000">src/system_target.hpp</text>
</g>
<!-- Node2 -->
<g id="node2" class="node">
<title>Node2</title>
<g id="a_node2"><a xlink:href="_file_dialog_8hpp.html" target="_top" xlink:title="src/FileDialog.hpp">
<polygon fill="#ffffff" stroke="#000000" points="81.5,-56.5 81.5,-75.5 176.5,-75.5 176.5,-56.5 81.5,-56.5"/>
<text text-anchor="middle" x="129" y="-63.5" font-family="Helvetica,sans-Serif" font-size="10.00" fill="#000000">src/FileDialog.hpp</text>
</a>
</g>
</g>
<!-- Node1&#45;&gt;Node2 -->
<g id="edge1" class="edge">
<title>Node1&#45;&gt;Node2</title>
<path fill="none" stroke="#191970" d="M129,-102.1575C129,-93.155 129,-82.9199 129,-75.6427"/>
<polygon fill="#191970" stroke="#191970" points="125.5001,-102.2455 129,-112.2455 132.5001,-102.2456 125.5001,-102.2455"/>
</g>
<!-- Node3 -->
<g id="node3" class="node">
<title>Node3</title>
<g id="a_node3"><a xlink:href="_file_dialog_windows_8cpp.html" target="_top" xlink:title="src/FileDialogWindows.cpp">
<polygon fill="#ffffff" stroke="#000000" points="0,-.5 0,-19.5 136,-19.5 136,-.5 0,-.5"/>
<text text-anchor="middle" x="68" y="-7.5" font-family="Helvetica,sans-Serif" font-size="10.00" fill="#000000">src/FileDialogWindows.cpp</text>
</a>
</g>
</g>
<!-- Node2&#45;&gt;Node3 -->
<g id="edge2" class="edge">
<title>Node2&#45;&gt;Node3</title>
<path fill="none" stroke="#191970" d="M110.8751,-49.3607C100.322,-39.6727 87.3888,-27.7995 78.5036,-19.6427"/>
<polygon fill="#191970" stroke="#191970" points="108.6411,-52.0611 118.3746,-56.2455 113.375,-46.9045 108.6411,-52.0611"/>
</g>
<!-- Node4 -->
<g id="node4" class="node">
<title>Node4</title>
<g id="a_node4"><a xlink:href="main_8cpp.html" target="_top" xlink:title="src/main.cpp">
<polygon fill="#ffffff" stroke="#000000" points="154.5,-.5 154.5,-19.5 227.5,-19.5 227.5,-.5 154.5,-.5"/>
<text text-anchor="middle" x="191" y="-7.5" font-family="Helvetica,sans-Serif" font-size="10.00" fill="#000000">src/main.cpp</text>
</a>
</g>
</g>
<!-- Node2&#45;&gt;Node4 -->
<g id="edge3" class="edge">
<title>Node2&#45;&gt;Node4</title>
<path fill="none" stroke="#191970" d="M147.4221,-49.3607C158.1481,-39.6727 171.2934,-27.7995 180.3242,-19.6427"/>
<polygon fill="#191970" stroke="#191970" points="144.8746,-46.9453 139.7996,-56.2455 149.5666,-52.14 144.8746,-46.9453"/>
</g>
</g>
</svg>
